<?xml version="1.0" encoding="UTF-8"?>
<svg width="100px" height="100px" viewBox="0 0 100 100" version="1.1" xmlns="http://www.w3.org/2000/svg" xmlns:xlink="http://www.w3.org/1999/xlink">
    <!-- Generator: Sketch 62 (91390) - https://sketch.com -->
    <title>avatar-4</title>
    <desc>Created with Sketch.</desc>
    <g id="components" stroke="none" stroke-width="1" fill="none" fill-rule="evenodd">
        <g id="avatar-4">
            <rect id="Rectangle-6-Copy-4" fill="#E3E5ED" fill-rule="nonzero" x="0" y="0" width="100" height="100"></rect>
            <polygon id="Fill-105" fill="#DBC1A3" points="42.1834289 78.7126838 55.2110474 78.7126838 55.2110474 61.3925118 42.1834289 61.3925118"></polygon>
            <path d="M58.8198864,71.7896136 C62.9989231,72.8791476 67.571082,73.6516583 70.6146086,77.2169685 C72.510472,79.4382707 75.6195822,100 75.6195822,100 L49.8151268,100 L50,77.9423708 C53.6321531,77.9423708 55.4214168,74.6588624 55.4214168,71.7896136 L58.8198864,71.7896136 Z" id="Fill-107" fill="#F4F6F9"></path>
            <path d="M39.3902089,71.7896136 C35.1876118,72.8791476 32.2248589,73.6516583 29.1637866,77.2169685 C27.2564623,79.4382707 23.7598897,100 23.7598897,100 L49.7131057,100 C58.1903903,92.4249857 62.4290326,88.512497 62.4290326,88.2625338 C62.4290326,86.2402672 57.5486758,82.8800427 47.787962,78.1818601 C44.1348699,78.1818601 41.6419039,74.6588624 41.6419039,71.7896136 L39.3902089,71.7896136 Z" id="Fill-108" fill="#F4F6F9"></path>
            <path d="M48.333968,19.8041046 C55.3993392,19.8041046 66.572634,23.4662027 66.572634,40.6254588 C66.572634,50.5335368 63.0300103,57.024154 61.4861045,58.8197599 C60.0661321,60.4714616 52.0800295,63.9917873 48.333968,63.9917873 C48.333968,46.6497194 48.333968,19.8041046 48.333968,19.8041046" id="Fill-109" fill="#EFD4B6"></path>
            <path d="M69.610472,46.2880254 C69.9303707,43.4299101 68.4593171,40.8934995 66.3256593,40.6218008 C64.1908011,40.3512132 62.2017879,42.4492388 61.8812891,45.307354 C61.5613905,48.1649137 63.032444,50.7007687 65.1679024,50.9719118 C67.30096,51.2424993 69.2905734,49.1450294 69.610472,46.2880254" id="Fill-110" fill="#EFD4B6"></path>
            <path d="M32.4628212,40.6254588 C32.4628212,50.5335368 35.7131125,57.024154 37.1296173,58.8197599 C38.4329519,60.4714616 45.7589798,63.9917873 49.1964578,63.9917873 C64.3076305,47.6197411 49.1964578,19.8041046 49.1964578,19.8041046 C42.7141112,19.8041046 32.4628212,23.4662027 32.4628212,40.6254588 Z" id="Fill-111" fill="#EFD4B6"></path>
            <path d="M28.2474894,45.8131578 C27.9275719,42.9550425 29.3987125,40.4186319 31.5324966,40.1469331 C33.6674811,39.8763456 35.6566121,41.9743711 35.9765296,44.8324864 C36.2970474,47.6900461 34.8253066,50.2259011 32.6909223,50.4970442 C30.5571382,50.7676317 28.5668068,48.6701618 28.2474894,45.8131578" id="Fill-112" fill="#EFD4B6"></path>
            <path d="M48.8097217,58.4681901 C51.6882002,58.4681901 54.0210246,57.4498214 54.0210246,56.1939609 L43.5989297,56.1939609 C43.5989297,57.4498214 45.9317541,58.4681901 48.8097217,58.4681901" id="Fill-113" fill="#FFFFFE"></path>
            <path d="M66.5687595,40.4640664 C67.2768403,38.4093493 66.9829398,36.0458227 66.5710181,33.3679117 C64.5350452,20.1320132 66.6090129,16.8488682 66.2284994,16.3916392 C65.8479858,15.9344101 62.3905567,15.9687802 60.8277089,17.4917492 C62.3991859,14.7980199 61.6415555,14.7079124 61.6415555,14.7079124 C61.6415555,14.7079124 54.1029103,14.5500299 51.8701522,16.8726951 C54.0210246,14.5500299 51.8701522,14.6054381 51.8701522,14.6054381 C51.8701522,14.6054381 37.7384614,14.7079124 32.6266143,24.4616234 C29.7129801,30.0213195 29.4882463,36.0437848 30.1935039,40.5965941 C30.3657245,40.536795 30.5424624,40.4883093 30.7265408,40.4640664 C31.3934017,40.3773309 32.0433228,40.5470309 32.6266143,40.9090576 C32.6266143,38.805316 32.6266143,36.9450805 32.6266143,36.6536275 C35.3330192,35.5055933 38.189623,34.0714934 38.0388594,28.3340164 C44.3534276,28.3340164 47.8108273,28.3340164 47.8108273,28.3340164 L57.8831932,28.3340164 C57.8831932,28.3340164 57.4320316,34.7890821 62.8448413,36.3664842 C62.8448413,39.0579805 62.8448413,41.4332421 62.8448413,43.1975837 C63.5794611,41.4084606 65.0328902,40.2631201 66.5687595,40.4640664 Z" id="Fill-114" fill="#483428"></path>
            <path d="M57.8917305,71.8271032 L55.0796027,71.8271032 C55.0796027,75.0728651 52.5200237,77.230597 48.7729439,77.2390795 C45.0242248,77.230597 42.2277342,75.0728651 42.2277342,71.8271032 L39.6530645,71.8271032 C39.6530645,76.1337815 43.7362174,79.6249296 48.7729439,79.6249296 C53.8085775,79.6249296 57.8917305,76.1337815 57.8917305,71.8271032 Z" id="Fill-115" fill="#576574"></path>
        </g>
    </g>
</svg>