<?xml version="1.0" encoding="UTF-8"?>
<svg width="100px" height="100px" viewBox="0 0 100 100" version="1.1" xmlns="http://www.w3.org/2000/svg" xmlns:xlink="http://www.w3.org/1999/xlink">
    <!-- Generator: Sketch 62 (91390) - https://sketch.com -->
    <title>avatar-3</title>
    <desc>Created with Sketch.</desc>
    <g id="components" stroke="none" stroke-width="1" fill="none" fill-rule="evenodd">
        <g id="avatar-3">
            <rect id="Rectangle-6-Copy-4" fill="#E3E5ED" fill-rule="nonzero" x="0" y="0" width="100" height="100"></rect>
            <g id="rey-copy" transform="translate(18.649123, 9.701754)">
                <g id="Group-65">
                    <path d="M40.8167682,61.941422 C40.8167682,61.941422 54.8039889,63.9861127 56.8687719,66.1371745 C58.667627,68.0110803 62.4071653,85.9547184 63.2723176,89.8922253 C38.7165282,89.8922253 31.6771191,89.8922253 31.6771191,89.8922253 L31.6771191,64.4127793 L40.8167682,61.941422" id="Fill-45" fill="#EA4243"></path>
                    <polygon id="Fill-47" fill="#D3B191" points="24.3221422 68.7923176 39.0332779 68.7923176 39.0332779 52.6623084 24.3221422 52.6623084"></polygon>
                    <path d="M31.6777101,6.17455217 C38.8193536,6.17455217 50.1153832,10.234386 50.1153832,29.2606464 C50.1153832,40.2458356 46.5336288,47.4424377 44.973518,49.4333518 C43.5375069,51.2653001 35.4651154,55.1685319 31.6777101,55.1685319 C31.6777101,35.9395753 31.6777101,6.17455217 31.6777101,6.17455217" id="Fill-48" fill="#E5C5A6"></path>
                    <path d="M53.66759,33.7967867 C53.9825669,30.7575254 52.5341459,28.0598338 50.4333149,27.7714497 C48.3313019,27.4830656 46.3722992,29.7139058 46.0573223,32.7537581 C45.7423453,35.7930194 47.1913573,38.490711 49.2927793,38.7790951 C51.3942013,39.0668883 53.3532041,36.836639 53.66759,33.7967867" id="Fill-49" fill="#E5C5A6"></path>
                    <path d="M13.2406279,29.2606464 C13.2406279,40.2458356 16.8217913,47.4424377 18.3824931,49.4333518 C19.8179132,51.2653001 27.8903047,55.1685319 31.6777101,55.1685319 C54.1403509,39.4385965 31.6777101,6.17455217 31.6777101,6.17455217 C24.5354755,6.17455217 13.2406279,10.234386 13.2406279,29.2606464 Z" id="Fill-50" fill="#E5C5A6"></path>
                    <path d="M9.68723915,33.7967867 C9.37285319,30.7575254 10.8206833,28.0598338 12.9221053,27.7714497 C15.0241182,27.4830656 16.983121,29.7139058 17.2980979,32.7537581 C17.6130748,35.7930194 16.1646537,38.490711 14.0626408,38.7790951 C11.9618098,39.0668883 10.002807,36.836639 9.68723915,33.7967867" id="Fill-51" fill="#E5C5A6"></path>
                    <path d="M22.0582087,10.1522438 C22.0582087,10.1522438 15.8201293,17.5544968 18.2093444,24.4556233 C18.6070545,32.6846168 17.8110434,35.471542 15.1564912,37.7277932 C15.8201293,29.7647276 15.0241182,27.1101754 12.104229,28.0391505 C10.9099169,21.8010711 13.4864635,4.99737765 22.0582087,10.1522438" id="Fill-52" fill="#2E1A10"></path>
                    <path d="M41.2481625,10.1522438 C41.2481625,10.1522438 47.4868329,17.5544968 45.0970268,24.4556233 C44.6993167,32.6846168 45.4959187,35.471542 48.14988,37.7277932 C47.4868329,29.7647276 48.282844,27.1101754 51.2027331,28.0391505 C52.3970452,21.8010711 49.8204986,4.99737765 41.2481625,10.1522438" id="Fill-53" fill="#2E1A10"></path>
                    <path d="M6.48605725,66.1371745 C4.68720222,68.0110803 0.948254848,85.9547184 0.0836934441,89.8922253 C24.6377101,89.8922253 31.6771191,89.8922253 31.6771191,89.8922253 L26.0701754,70.3157895 L22.5380609,61.941422 C22.5380609,61.941422 8.55143121,63.9861127 6.48605725,66.1371745 Z" id="Fill-54" fill="#EA4243"></path>
                    <polyline id="Fill-55" fill="#EA4243" points="40.9857802 61.5661681 31.6771191 67.5087719 22.3696399 61.5661681 31.6771191 89.8922253"></polyline>
                    <path d="M24.9668698,73.7941274 L17.5640259,62.8136657 C19.590988,62.0791136 21.765097,61.5271653 24.0520776,61.1548661 L31.6777101,89.8922253 L20.9844506,74.5824561 L24.9668698,73.7941274" id="Fill-57" fill="#EA4243"></path>
                    <path d="M38.3897322,73.7941274 L45.7925762,62.8136657 C43.765614,62.0791136 41.5915051,61.5271653 39.3045245,61.1548661 L31.6777101,89.8922253 L42.3715605,74.5824561 L38.3897322,73.7941274" id="Fill-58" fill="#EA4243"></path>
                    <path d="M15.8804063,10.7928347 C15.0731671,14.5311911 18.588735,16.283952 18.588735,16.283952 C18.588735,16.283952 20.9365836,10.7928347 31.7037119,13.3268329 C37.0660018,12.1549769 42.2906002,11.2821422 44.7010896,16.2396307 C47.1121699,21.1971191 49.3016436,13.3989289 49.3016436,13.3989289 C46.3634349,1.32402585 28.4623453,-8.16014774 15.8804063,10.7928347 Z" id="Fill-62" fill="#2E1A10"></path>
                    <path d="M42.244506,47.016362 C38.5522438,47.016362 35.9112835,44.0166944 31.6771191,44.0166944 C27.4429548,44.0166944 24.8025854,47.016362 21.1097322,47.016362 C17.0623084,47.016362 14.5159003,40.0395937 13.7470729,37.5936473 C14.7906925,44.6330563 17.1822715,49.2424746 18.3824931,50.7730379 C19.8179132,52.6043952 27.8897138,56.507627 31.6777101,56.5082179 C35.4657064,56.507627 43.5375069,52.6043952 44.973518,50.7730379 C46.1731487,49.2418837 48.5665005,44.6295106 49.6095291,37.5859649 C48.8442475,40.0248199 46.2966574,47.016362 42.244506,47.016362" id="Fill-63" fill="#E5C5A6"></path>
                    <path d="M31.7789286,50.2469857 C34.3117172,50.2469857 36.3648747,49.1771319 36.3648747,47.8596491 L27.1929825,47.8596491 C27.1929825,49.1771319 29.24614,50.2469857 31.7789286,50.2469857" id="Fill-64" fill="#FFFFFE"></path>
                </g>
            </g>
        </g>
    </g>
</svg>