<?xml version="1.0" encoding="UTF-8"?>
<svg width="100px" height="100px" viewBox="0 0 100 100" version="1.1" xmlns="http://www.w3.org/2000/svg" xmlns:xlink="http://www.w3.org/1999/xlink">
    <!-- Generator: Sketch 62 (91390) - https://sketch.com -->
    <title>avatar-8</title>
    <desc>Created with Sketch.</desc>
    <g id="components" stroke="none" stroke-width="1" fill="none" fill-rule="evenodd">
        <g id="avatar-8">
            <rect id="Rectangle-6-Copy-4" fill="#E3E5ED" fill-rule="nonzero" x="0" y="0" width="100" height="100"></rect>
            <g id="rey-copy" transform="translate(20.000000, 15.000000)">
                <g id="Group-65">
                    <path d="M38.54917,58.5002319 C38.54917,58.5002319 51.7593229,60.4313286 53.7093957,62.462887 C55.4083144,64.232687 58.9401005,81.1794562 59.7571889,84.8982128 C36.5656099,84.8982128 29.9172792,84.8982128 29.9172792,84.8982128 L29.9172792,60.8342916 L38.54917,58.5002319" id="Fill-45" fill="#FF6837"></path>
                    <polygon id="Fill-47" fill="#A38364" points="22.9709121 64.9705222 36.8647625 64.9705222 36.8647625 49.7366246 22.9709121 49.7366246"></polygon>
                    <path d="M29.9178373,5.83152149 C36.6627229,5.83152149 47.3311952,9.66580897 47.3311952,27.6350549 C47.3311952,38.0099559 43.9484272,44.8067467 42.4749892,46.6870545 C41.1187565,48.4172279 33.4948312,52.1036134 29.9178373,52.1036134 C29.9178373,33.9429322 29.9178373,5.83152149 29.9178373,5.83152149" id="Fill-48" fill="#B49474"></path>
                    <path d="M50.6860572,31.9191874 C50.9835354,29.048774 49.6155822,26.5009541 47.631464,26.2285914 C45.6462296,25.9562286 43.7960603,28.0631333 43.4985821,30.9341049 C43.2011039,33.8045183 44.5696153,36.3523382 46.5542916,36.6247009 C48.5389679,36.8965056 50.3891372,34.790159 50.6860572,31.9191874" id="Fill-49" fill="#B49474"></path>
                    <path d="M12.5050374,27.6350549 C12.5050374,38.0099559 15.8872474,44.8067467 17.3612435,46.6870545 C18.716918,48.4172279 26.3408433,52.1036134 29.9178373,52.1036134 C51.1325536,37.2475634 29.9178373,5.83152149 29.9178373,5.83152149 C23.1723936,5.83152149 12.5050374,9.66580897 12.5050374,27.6350549 Z" id="Fill-50" fill="#B49474"></path>
                    <path d="M9.1490592,31.9191874 C8.85213912,29.048774 10.2195342,26.5009541 12.2042105,26.2285914 C14.189445,25.9562286 16.0396142,28.0631333 16.3370924,30.9341049 C16.6345706,33.8045183 15.2666174,36.3523382 13.281383,36.6247009 C11.2972648,36.8965056 9.44709552,34.790159 9.1490592,31.9191874" id="Fill-51" fill="#B49474"></path>
                    <path d="M20.8327526,9.58823022 C20.8327526,9.58823022 14.9412332,16.5792469 17.1977142,23.0969775 C17.5733292,30.8688048 14.189445,25.6040546 11.4317718,26.4814199 C10.3038104,20.5899005 12.7372156,4.71974556 20.8327526,9.58823022" id="Fill-52" fill="#3F2C22"></path>
                    <path d="M42.5916364,23.0969775 C42.2160213,30.8688048 45.6004637,25.6040546 48.3581369,26.4814199 C49.4860983,20.5899005 47.0526931,4.71974556 38.9565979,9.58823022 C38.9565979,9.58823022 44.8486755,16.5792469 42.5916364,23.0969775 Z" id="Fill-53" fill="#3F2C22"></path>
                    <path d="M6.12572073,62.462887 C4.42680209,64.232687 0.895574023,81.1794562 0.0790438084,84.8982128 C23.2689484,84.8982128 29.9172792,84.8982128 29.9172792,84.8982128 L24.6218324,66.4093567 L21.2859464,58.5002319 C21.2859464,58.5002319 8.0763517,60.4313286 6.12572073,62.462887 Z" id="Fill-54" fill="#FF6837"></path>
                    <polyline id="Fill-55" fill="#FF6837" points="38.7087924 58.1458254 29.9172792 63.7582846 21.1268821 58.1458254 29.9172792 84.8982128"></polyline>
                    <path d="M23.5798215,69.6944537 L16.5882466,59.3240176 C18.5025998,58.6302739 20.5559249,58.1089894 22.715851,57.7573736 L29.9178373,84.8982128 L19.8186478,70.4389864 L23.5798215,69.6944537" id="Fill-57" fill="#FF6837"></path>
                    <path d="M36.2569693,69.6944537 L43.2485442,59.3240176 C41.334191,58.6302739 39.2808659,58.1089894 37.1209398,57.7573736 L29.9178373,84.8982128 L40.0175849,70.4389864 L36.2569693,69.6944537" id="Fill-58" fill="#FF6837"></path>
                    <path d="M14.9981615,10.1932328 C14.235769,13.7239027 17.5560275,15.379288 17.5560275,15.379288 C17.5560275,15.379288 19.77344,10.1932328 29.9423946,12.5864533 C35.0067795,11.4797004 39.9411224,10.6553565 42.2176957,15.337429 C44.4948271,20.0195014 46.5626634,12.654544 46.5626634,12.654544 C43.7876885,1.25046886 26.8811039,-7.7068062 14.9981615,10.1932328 Z" id="Fill-62" fill="#3F2C22"></path>
                    <path d="M39.897589,44.4043418 C36.4104524,44.4043418 33.9162122,41.5713225 29.9172792,41.5713225 C25.9183462,41.5713225 23.424664,44.4043418 19.9369693,44.4043418 C16.1144024,44.4043418 13.7094614,37.8151718 12.9833467,35.5051113 C13.9689874,42.1534421 16.2277008,46.5067816 17.3612435,47.9523135 C18.716918,49.6819288 26.3402852,53.3683144 29.9178373,53.3688725 C33.4953894,53.3683144 41.1187565,49.6819288 42.4749892,47.9523135 C43.6079737,46.5062235 45.8683615,42.1500934 46.8534441,35.4978558 C46.1306782,37.8012188 43.7246209,44.4043418 39.897589,44.4043418" id="Fill-63" fill="#B49474"></path>
                    <path d="M30.0134326,47.4554865 C32.4055107,47.4554865 34.3446039,46.4450691 34.3446039,45.2007797 L25.6822612,45.2007797 C25.6822612,46.4450691 27.6213544,47.4554865 30.0134326,47.4554865" id="Fill-64" fill="#FFFFFE"></path>
                </g>
            </g>
        </g>
    </g>
</svg>