<?xml version="1.0" encoding="UTF-8"?>
<svg width="100px" height="100px" viewBox="0 0 100 100" version="1.1" xmlns="http://www.w3.org/2000/svg" xmlns:xlink="http://www.w3.org/1999/xlink">
    <!-- Generator: Sketch 62 (91390) - https://sketch.com -->
    <title>avatar-1</title>
    <desc>Created with Sketch.</desc>
    <g id="components" stroke="none" stroke-width="1" fill="none" fill-rule="evenodd">
        <g id="avatar-1">
            <rect id="Rectangle" fill="#E3E5ED" x="0" y="0" width="100" height="100"></rect>
            <g id="rey-copy-2" transform="translate(18.000000, 13.000000)">
                <g id="Group-65">
                    <path d="M40.1407202,60.5700831 C40.1407202,60.5700831 53.2537396,62.4869806 55.1894737,64.5036011 C56.8759003,66.2603878 60.3817175,83.0825485 61.1927978,86.7739612 C38.1717452,86.7739612 31.5722992,86.7739612 31.5722992,86.7739612 L31.5722992,62.8869806 L40.1407202,60.5700831" id="Fill-45" fill="#26292B"></path>
                    <polygon id="Fill-47" fill="#EFD4B6" points="24.6770083 66.9927978 38.4686981 66.9927978 38.4686981 51.8709141 24.6770083 51.8709141"></polygon>
                    <path d="M31.5728532,8.28864266 C38.268144,8.28864266 48.8581717,12.0947368 48.8581717,29.931856 C48.8581717,40.2304709 45.500277,46.9772853 44.0376731,48.8437673 C42.6914127,50.5612188 35.1235457,54.2204986 31.5728532,54.2204986 C31.5728532,36.1933518 31.5728532,8.28864266 31.5728532,8.28864266" id="Fill-48" fill="#EFD4B6"></path>
                    <path d="M52.1883657,34.1844875 C52.4836565,31.3351801 51.1257618,28.8060942 49.1562327,28.5357341 C47.1855956,28.265374 45.3490305,30.3567867 45.0537396,33.2066482 C44.7584488,36.0559557 46.1168975,38.5850416 48.0869806,38.8554017 C50.0570637,39.1252078 51.8936288,37.034349 52.1883657,34.1844875" id="Fill-49" fill="#EFD4B6"></path>
                    <path d="M14.2880886,29.931856 C14.2880886,40.2304709 17.6454294,46.9772853 19.1085873,48.8437673 C20.4542936,50.5612188 28.0221607,54.2204986 31.5728532,54.2204986 C52.6315789,39.4736842 31.5728532,8.28864266 31.5728532,8.28864266 C24.8770083,8.28864266 14.2880886,12.0947368 14.2880886,29.931856 Z" id="Fill-50" fill="#EFD4B6"></path>
                    <path d="M10.9567867,34.1844875 C10.6620499,31.3351801 12.0193906,28.8060942 13.9894737,28.5357341 C15.9601108,28.265374 17.7966759,30.3567867 18.0919668,33.2066482 C18.3872576,36.0559557 17.0293629,38.5850416 15.0587258,38.8554017 C13.0891967,39.1252078 11.2526316,37.034349 10.9567867,34.1844875" id="Fill-51" fill="#EFD4B6"></path>
                    <path d="M22.5545706,12.0177285 C22.5545706,12.0177285 16.7063712,18.9573407 18.9462604,25.4271468 C19.3191136,33.1418283 18.5728532,35.7545706 16.0842105,37.8698061 C16.7063712,30.4044321 15.9601108,27.9157895 13.2227147,28.7867036 C12.1030471,22.9385042 14.5185596,7.18504155 22.5545706,12.0177285" id="Fill-52" fill="#656565"></path>
                    <path d="M40.5451524,12.0177285 C40.5451524,12.0177285 46.3939058,18.9573407 44.1534626,25.4271468 C43.7806094,33.1418283 44.5274238,35.7545706 47.0155125,37.8698061 C46.3939058,30.4044321 47.1401662,27.9157895 49.8775623,28.7867036 C50.9972299,22.9385042 48.5817175,7.18504155 40.5451524,12.0177285" id="Fill-53" fill="#656565"></path>
                    <path d="M7.95567867,64.5036011 C6.26925208,66.2603878 2.76398892,83.0825485 1.9534626,86.7739612 C24.9728532,86.7739612 31.5722992,86.7739612 31.5722992,86.7739612 L26.3157895,68.4210526 L23.0044321,60.5700831 C23.0044321,60.5700831 9.89196676,62.4869806 7.95567867,64.5036011 Z" id="Fill-54" fill="#2B2F31"></path>
                    <polyline id="Fill-55" fill="#B4C0C4" points="40.299169 60.2182825 31.5722992 65.7894737 22.8465374 60.2182825 31.5722992 86.7739612"></polyline>
                    <path d="M25.2814404,71.6819945 L18.3412742,61.3878116 C20.2415512,60.699169 22.2797784,60.1817175 24.4238227,59.832687 L31.5728532,86.7739612 L21.5479224,72.4210526 L25.2814404,71.6819945" id="Fill-57" fill="#353940"></path>
                    <path d="M37.865374,71.6819945 L44.8055402,61.3878116 C42.9052632,60.699169 40.867036,60.1817175 38.7229917,59.832687 L31.5728532,86.7739612 L41.598338,72.4210526 L37.865374,71.6819945" id="Fill-58" fill="#353940"></path>
                    <path d="M16.7628809,12.6182825 C16.0060942,16.1229917 19.3019391,17.766205 19.3019391,17.766205 C19.3019391,17.766205 21.5030471,12.6182825 31.5972299,14.9939058 C36.6243767,13.8952909 41.5224377,13.0770083 43.7822715,17.7246537 C46.0426593,22.3722992 48.0952909,15.0614958 48.0952909,15.0614958 C45.3407202,3.74127424 28.5584488,-5.1501385 16.7628809,12.6182825 Z" id="Fill-62" fill="#656565"></path>
                    <path d="M41.4792244,46.5778393 C38.0177285,46.5778393 35.5418283,43.765651 31.5722992,43.765651 C27.6027701,43.765651 25.1274238,46.5778393 21.665374,46.5778393 C17.8709141,46.5778393 15.4836565,40.0371191 14.7628809,37.7440443 C15.7412742,44.3434903 17.9833795,48.6648199 19.1085873,50.099723 C20.4542936,51.8166205 28.0216066,55.4759003 31.5728532,55.4764543 C35.1240997,55.4759003 42.6914127,51.8166205 44.0376731,50.099723 C45.1623269,48.6642659 47.4060942,44.3401662 48.3839335,37.7368421 C47.666482,40.0232687 45.2781163,46.5778393 41.4792244,46.5778393" id="Fill-63" fill="#9B9B9B"></path>
                    <path d="M31.5734072,49.9390582 C32.7407202,49.9390582 33.6869806,49.3494043 33.6869806,48.6232687 L29.4598338,48.6232687 C29.4598338,49.3494043 30.4060942,49.9390582 31.5734072,49.9390582" id="Fill-64" fill="#FFFFFE"></path>
                </g>
            </g>
        </g>
    </g>
</svg>