<?xml version="1.0" encoding="UTF-8"?>
<svg width="100px" height="100px" viewBox="0 0 100 100" version="1.1" xmlns="http://www.w3.org/2000/svg" xmlns:xlink="http://www.w3.org/1999/xlink">
    <!-- Generator: Sketch 62 (91390) - https://sketch.com -->
    <title>avatar-2</title>
    <desc>Created with Sketch.</desc>
    <g id="components" stroke="none" stroke-width="1" fill="none" fill-rule="evenodd">
        <g id="avatar-2">
            <rect id="Rectangle" fill="#E3E5ED" x="0" y="0" width="100" height="100"></rect>
            <g id="sara" transform="translate(27.000000, 14.000000)">
                <g id="Group-135">
                    <path d="M23.3308684,72.9391144 L6.48377695,72.9391144 C6.48377695,72.9391144 -1.2912923,65.3358157 2.59624232,54.0625582 C6.48377695,42.789861 9.85330603,38.3331221 10.1125858,26.2742053 C21.7757437,26.2742053 23.3308684,26.2742053 23.3308684,26.2742053 L23.3308684,72.9391144" id="Fill-119" fill="#40301D"></path>
                    <path d="M22.8959653,72.9391144 L39.7430567,72.9391144 C39.7430567,72.9391144 47.51868,65.3358157 43.6311454,54.0625582 C39.7430567,42.789861 36.3735276,38.3331221 36.1148019,26.2742053 C24.45109,26.2742053 22.8959653,26.2742053 22.8959653,26.2742053 L22.8959653,72.9391144" id="Fill-121" fill="#40301D"></path>
                    <path d="M43.9413947,21.1668598 C43.9413947,9.65319722 34.7136938,0.319430866 23.3308684,0.319430866 C11.9480429,0.319430866 2.72089606,9.65319722 2.72089606,21.1668598 C2.72089606,32.6805223 11.9480429,42.0142887 23.3308684,42.0142887 C34.7136938,42.0142887 43.9413947,32.6805223 43.9413947,21.1668598" id="Fill-122" fill="#40301D"></path>
                    <polyline id="Fill-123" fill="#D4B495" points="30.2267132 65.8104615 23.2438878 85.6234204 16.4355775 65.8104615 16.4355775 50.5153235 30.2267132 50.5153235 30.2267132 65.8104615"></polyline>
                    <path d="M6.04610382,30.0158934 C6.04610382,40.4323229 10.0599542,45.3435338 11.5231121,47.2314696 C12.8699265,48.9686619 19.7801758,54.5831555 23.3308684,54.5831555 C43.9731121,31.3532514 23.3308684,8.12334719 23.3308684,8.12334719 C16.6350235,8.12334719 6.04610382,11.97375 6.04610382,30.0158934 Z" id="Fill-124" fill="#E5C5A6"></path>
                    <path d="M2.71480188,34.3174058 C2.41951102,31.4347873 3.77795977,28.8766315 5.74748886,28.6031638 C7.71812598,28.3302565 9.55413706,30.4457084 9.84998193,33.328327 C10.1452728,36.2098247 8.78682404,38.7679806 6.81674094,39.0414483 C4.84665783,39.3137952 3.01009274,37.199464 2.71480188,34.3174058" id="Fill-125" fill="#E5C5A6"></path>
                    <path d="M23.2765747,8.12334719 C29.9724196,8.12334719 40.5613393,11.97375 40.5613393,30.0158934 C40.5613393,40.4323229 36.5469348,45.3435338 35.084331,47.2314696 C33.7375166,48.9686619 26.8272673,54.5831555 23.2765747,54.5831555 C23.2765747,36.3493605 23.2765747,8.12334719 23.2765747,8.12334719" id="Fill-126" fill="#E5C5A6"></path>
                    <path d="M43.9469348,34.3174058 C44.2422257,31.4347873 42.8837769,28.8766315 40.9142479,28.6031638 C38.9441648,28.3302565 37.1075997,30.4457084 36.8117548,33.328327 C36.5164639,36.2098247 37.8749127,38.7679806 39.8455498,39.0414483 C41.8150789,39.3137952 43.651644,37.199464 43.9469348,34.3174058" id="Fill-127" fill="#E5C5A6"></path>
                    <path d="M23.1037215,3.75346786 C22.7829459,3.7119994 22.4477659,3.68341979 22.0882091,3.68005748 C22.0882091,3.68005748 10.7779598,4.53688557 7.63059135,19.4363921 C6.11978803,20.5823786 3.35025894,25.0396779 7.00122847,30.0058065 C7.50482958,25.8034822 9.02671324,22.7594729 11.6594002,21.6005975 C16.3308684,19.5451067 18.2544141,21.4548975 23.6677105,17.2531335 C26.8294833,14.7986489 27.9663254,9.86446223 27.2671564,7.10624909 C26.0100927,3.68005748 22.7995664,3.80838556 23.1037215,3.75346786" id="Fill-128" fill="#40301D"></path>
                    <path d="M26.551921,7.89302911 C26.551921,7.89302911 22.4754667,23.2761475 40.2743587,29.7172084 C44.5391786,15.6353031 36.7485969,6.45003869 26.551921,7.89302911" id="Fill-129" fill="#40301D"></path>
                    <polyline id="Fill-130" fill="#FFFFFF" points="6.28266891 37.2980917 5.17241961 38.4211025 6.28266891 39.5424321 7.39236421 38.4211025 6.28266891 37.2980917"></polyline>
                    <polyline id="Fill-131" fill="#FFFFFF" points="40.6156329 37.2980917 39.5059376 38.4211025 40.6156329 39.5424321 41.7258822 38.4211025 40.6156329 37.2980917"></polyline>
                    <path d="M43.9731121,73.9943186 C43.9731121,71.6790895 37.0633707,69.204431 23.2438878,66.5703431 C23.2438878,66.5703431 18.0992894,65.2808981 16.9646634,61.0651245 C16.420065,59.0393341 16.4355775,57.4136583 16.4355775,57.4136583 C16.4355775,57.4136583 5.18627002,61.256776 2.67491268,65.2265407 C0.584607973,71.5185393 0.0117547874,85.6234204 0.0117547874,85.6234204 L23.2438878,85.6234204 C37.0633707,79.789474 43.9731121,75.9131067 43.9731121,73.9943186 Z" id="Fill-132" fill="#01B6F5"></path>
                    <path d="M23.2438878,85.6234204 L23.2438878,66.5703431 C23.2438878,66.5703431 28.3884861,65.2808981 29.5225581,61.0651245 C30.0677105,59.0393341 30.051644,57.4136583 30.051644,57.4136583 C30.051644,57.4136583 41.3015055,61.256776 43.8128628,65.2265407 C45.9026135,71.5185393 46.4754667,85.6234204 46.4754667,85.6234204 L23.2438878,85.6234204" id="Fill-133" fill="#01B6F5"></path>
                    <path d="M23.3308684,48.2283938 C25.9413947,48.2283938 28.0571842,46.6077615 28.0571842,44.6083091 L18.6051066,44.6083091 C18.6051066,46.6077615 20.7208961,48.2283938 23.3308684,48.2283938" id="Fill-134" fill="#FFFFFE"></path>
                </g>
            </g>
        </g>
    </g>
</svg>