<?xml version="1.0" encoding="UTF-8"?>
<svg width="100px" height="100px" viewBox="0 0 100 100" version="1.1" xmlns="http://www.w3.org/2000/svg" xmlns:xlink="http://www.w3.org/1999/xlink">
    <!-- Generator: Sketch 62 (91390) - https://sketch.com -->
    <title>avatar-5</title>
    <desc>Created with Sketch.</desc>
    <g id="components" stroke="none" stroke-width="1" fill="none" fill-rule="evenodd">
        <g id="avatar-5">
            <rect id="Rectangle-6-Copy-4" fill="#E3E5ED" fill-rule="nonzero" x="0" y="0" width="100" height="100"></rect>
            <g id="avatar-1" transform="translate(27.722772, 15.841584)">
                <g id="Group-33" transform="translate(0.479873, 0.104782)">
                    <path d="M40.7559536,25.074574 C40.7559536,14.5643091 32.2360251,6.04489211 21.7267833,6.04489211 C11.2165184,6.04489211 2.69710139,14.5643091 2.69710139,25.074574 C2.69710139,35.5843274 11.2165184,44.1037444 21.7267833,44.1037444 C32.2360251,44.1037444 40.7559536,35.5843274 40.7559536,25.074574" id="Fill-138" fill="#543B2E"></path>
                    <polyline id="Fill-140" fill="#E5C5A6" points="28.0926881 65.8255723 21.6459626 83.9109825 15.3598554 65.8255723 15.3598554 51.8635496 28.0926881 51.8635496 28.0926881 65.8255723"></polyline>
                    <path d="M5.76726296,33.1515235 C5.76726296,42.6602262 9.47324772,47.1437261 10.8236687,48.8670474 C12.0676928,50.4522574 18.4479203,55.5772072 21.7262718,55.5772072 C43.5074363,37.7368165 21.7262718,13.1683626 21.7262718,13.1683626 C15.5440037,13.1683626 5.76726296,16.6830378 5.76726296,33.1515235 Z" id="Fill-141" fill="#EFD4B6"></path>
                    <path d="M2.69147463,37.0784863 C2.41883283,34.4467 3.67308744,32.1121086 5.49155201,31.8624854 C7.31103963,31.6128621 9.00673867,33.5443733 9.27938047,36.1751365 C9.55202228,38.8058998 8.29776767,41.1404911 6.47879157,41.3906259 C4.65981547,41.6397377 2.96411644,39.708738 2.69147463,37.0784863" id="Fill-142" fill="#EFD4B6"></path>
                    <path d="M21.675631,13.1683626 C27.857899,13.1683626 37.6351513,16.6830378 37.6351513,33.1515235 C37.6351513,42.6602262 33.928655,47.1437261 32.578234,48.8670474 C31.3347214,50.4522574 24.954494,55.5772072 21.675631,55.5772072 C21.675631,38.933269 21.675631,13.1683626 21.675631,13.1683626" id="Fill-143" fill="#EFD4B6"></path>
                    <path d="M40.7610689,37.0784863 C41.0337107,34.4467 39.7799676,32.1121086 37.9609915,31.8624854 C36.1420154,31.6128621 34.4463164,33.5443733 34.173163,36.1751365 C33.9005212,38.8058998 35.1547758,41.1404911 36.9742635,41.3906259 C38.792728,41.6397377 40.4884271,39.708738 40.7610689,37.0784863" id="Fill-144" fill="#EFD4B6"></path>
                    <path d="M21.5170588,9.17899407 C21.2203754,9.14114136 20.910904,9.1155652 20.5789255,9.11198454 C20.5789255,9.11198454 10.1366932,9.89410334 7.23021899,23.4944792 C5.83580705,24.5405439 3.27819161,28.608687 6.64912876,33.1428277 C7.11410325,29.3064045 8.51925717,26.5278111 10.9500149,25.4704929 C15.2631775,23.5942262 17.0391857,25.3374969 22.0372778,21.5020968 C24.95654,19.2616256 26.0061854,14.7566418 25.3606433,12.2394367 C24.1999974,9.11198454 21.2362326,9.22963485 21.5170588,9.17899407" id="Fill-145" fill="#543B2E"></path>
                    <path d="M24.6997555,12.9581266 C24.6997555,12.9581266 20.9364801,26.9999469 37.3701823,32.8788817 C41.3073755,20.0253296 34.1148494,11.6404432 24.6997555,12.9581266" id="Fill-146" fill="#543B2E"></path>
                    <path d="M21.6459626,83.9109825 L21.6459626,66.5191976 C21.6459626,66.5191976 16.8959592,65.3421829 15.84836,61.4939948 C15.3455328,59.6448388 15.3598554,58.1609103 15.3598554,58.1609103 C15.3598554,58.1609103 4.97337913,61.6689357 2.65464497,65.2920537 C0.724668364,71.0359464 0.195753491,83.9109825 0.195753491,83.9109825 L21.6459626,83.9109825" id="Fill-147" fill="#E5C5A6"></path>
                    <path d="M21.6459626,83.9109825 L21.6459626,66.5191976 C21.6459626,66.5191976 26.395966,65.3421829 27.4435653,61.4939948 C27.945881,59.6448388 27.9320698,58.1609103 27.9320698,58.1609103 C27.9320698,58.1609103 38.3180346,61.6689357 40.6372803,65.2920537 C42.5667454,71.0359464 43.0956602,83.9109825 43.0956602,83.9109825 L21.6459626,83.9109825" id="Fill-148" fill="#E5C5A6"></path>
                    <path d="M21.7267833,49.7770469 C24.1365685,49.7770469 26.0900752,48.2977222 26.0900752,46.4715847 L17.3629798,46.4715847 C17.3629798,48.2977222 19.3164865,49.7770469 21.7267833,49.7770469" id="Fill-149" fill="#FFFFFE"></path>
                    <path d="M27.7341104,6.04489211 C27.7341104,2.72715337 25.044522,0.0375649767 21.7267833,0.0375649767 C18.4090445,0.0375649767 15.7189446,2.72715337 15.7189446,6.04489211 C15.7189446,9.36263086 18.4090445,12.0522192 21.7267833,12.0522192 C25.044522,12.0522192 27.7341104,9.36263086 27.7341104,6.04489211" id="Fill-150" fill="#543B2E"></path>
                    <path d="M11.8927519,59.4862666 C9.79141508,60.3604596 8.93717153,60.6622582 7.37037631,61.6172718 C7.186228,62.8930104 5.77902799,66.4081971 5.12376691,71.6988804 C4.47771325,76.9118121 5.99335616,83.9109825 5.99335616,83.9109825 L21.6459626,83.9109825 L33.7884977,76.6125711 L21.6459626,70.8988582 C16.3286801,70.8988582 12.0083561,65.8122727 11.8927519,59.4862666 Z" id="Fill-151" fill="#1DE9B6"></path>
                    <path d="M21.6459626,70.8988582 C26.9627336,70.8988582 31.2835691,65.8122727 31.3986618,59.4862666 C33.5005102,60.3604596 34.3542422,60.6622582 35.9215489,61.6172718 C36.1051857,62.8930104 37.5123857,66.4081971 38.1681583,71.6988804 C38.8137005,76.9118121 37.2980576,83.9109825 37.2980576,83.9109825 L21.6459626,83.9109825 L21.6459626,70.8988582" id="Fill-152" fill="#1DE9B6"></path>
                </g>
            </g>
        </g>
    </g>
</svg>