<?xml version="1.0" encoding="UTF-8"?>
<svg width="100px" height="100px" viewBox="0 0 100 100" version="1.1" xmlns="http://www.w3.org/2000/svg" xmlns:xlink="http://www.w3.org/1999/xlink">
    <!-- Generator: Sketch 62 (91390) - https://sketch.com -->
    <title>avtar-7</title>
    <desc>Created with Sketch.</desc>
    <g id="components" stroke="none" stroke-width="1" fill="none" fill-rule="evenodd">
        <g id="avtar-7">
            <rect id="Rectangle-6-Copy-4" fill="#E3E5ED" fill-rule="nonzero" x="0" y="0" width="100" height="100"></rect>
            <g id="Group-115" transform="translate(23.000000, 20.000000)">
                <path d="M45.4097589,16.5404232 L45.4097589,28.6921181 C45.4097589,28.8677903 45.4053901,29.0434624 45.4005845,29.2191346 C45.3962157,29.3629371 45.3918469,29.5028529 45.3826725,29.647044 C45.3783037,29.7749116 45.3691293,29.9027792 45.3555861,30.0306468 C45.3512173,30.1223694 45.3420428,30.2144807 45.3333053,30.3062033 C45.3284996,30.3625583 45.3241309,30.4138608 45.3149564,30.4702158 C45.3062189,30.5701002 45.2970444,30.6738712 45.2791325,30.7737556 C45.2612205,30.9653626 45.2341341,31.1534718 45.2026789,31.3450788 C45.1983101,31.3932721 45.1891356,31.4410767 45.1803981,31.4888812 C45.1668549,31.5848791 45.1489429,31.6808769 45.1310309,31.7764861 L45.1310309,31.7885344 C45.1043814,31.9280617 45.0772949,32.064091 45.0502085,32.2040069 C45.0095789,32.3956139 44.9693862,32.5876096 44.9243877,32.7753301 C44.920019,32.7834919 44.920019,32.7916536 44.9156502,32.7998154 C44.9112814,32.8274099 44.9064758,32.8557817 44.8977382,32.8837649 C44.8933694,32.8919267 44.8933694,32.8996998 44.8885638,32.9078616 C44.866283,33.0120212 44.8391966,33.1115169 44.8121102,33.2114013 C44.8033726,33.2553193 44.7941982,33.299626 44.7762862,33.3435441 C44.762743,33.4154453 44.7400253,33.4869579 44.7225502,33.5592477 C44.709007,33.5992792 44.7002695,33.6431973 44.6819206,33.6828401 C44.6727462,33.7189851 44.6596398,33.75513 44.6504654,33.7869997 C44.5560998,34.1146361 44.448191,34.4344994 44.3359135,34.753974 C44.2817406,34.9059382 44.2280047,35.0536272 44.1698999,35.2055914 C44.1655311,35.2215262 44.1563567,35.2374611 44.1519879,35.253396 C44.098252,35.3894253 44.0440791,35.525066 43.9903432,35.6610953 C43.9724312,35.7011268 43.9545192,35.7407696 43.9366072,35.7846877 C43.8824344,35.9125553 43.8286984,36.0404228 43.7705937,36.1682904 C43.7033145,36.3237525 43.6312297,36.4757167 43.5595817,36.6280696 C43.4966713,36.7640989 43.4293922,36.8993509 43.362113,37.0353803 C43.3533754,37.0598655 43.3398322,37.0792983 43.3306578,37.1033949 C43.2542042,37.2471974 43.1825563,37.3909998 43.1061027,37.5313044 C43.0296491,37.6789934 42.9488267,37.827071 42.8636355,37.9751487 C42.7019908,38.2666401 42.5268028,38.5585202 42.3516148,38.8418499 L42.1091477,39.2254526 C41.4171334,40.2845381 40.6495392,41.2791069 39.8137921,42.1982766 C39.7015146,42.3300307 39.5848682,42.4578983 39.4634162,42.5814906 C39.2974027,42.761438 39.1265835,42.9371102 38.9557643,43.1088958 C38.8028571,43.26086 38.6503867,43.4124355 38.4931108,43.5605132 C38.0619125,43.9720991 37.6215397,44.3634749 37.1724294,44.7315315 C37.0824326,44.8112058 36.9885039,44.8834957 36.8941383,44.9592834 C36.7412311,45.0828758 36.5887608,45.2029703 36.4314848,45.3187895 C36.3104697,45.4147874 36.1846489,45.50651 36.0583912,45.5986213 C35.7351017,45.8341464 35.4118122,46.0618984 35.083717,46.2737155 C34.9491587,46.3658268 34.8097947,46.4536628 34.6704307,46.5376124 C34.4458755,46.6814148 34.2165147,46.8174442 33.9875908,46.9495869 C33.86177,47.0253747 33.7315805,47.0972759 33.6013909,47.1652906 C33.1431062,47.4167506 32.6804526,47.6487777 32.2221679,47.8485465 C32.1098903,47.9006263 31.9976128,47.9488196 31.8853352,47.9966242 C31.7730576,48.0444288 31.6564113,48.092622 31.5349593,48.1404266 C31.3868577,48.2002795 31.2383193,48.2562459 31.0902177,48.3083257 C31.0316761,48.3320337 30.9735714,48.3522437 30.9150298,48.3681786 C30.7398418,48.4323067 30.5602851,48.491771 30.3850971,48.5438508 C30.1653476,48.6161406 29.9403556,48.6759935 29.7206061,48.7315712 C29.5676989,48.7716027 29.4108598,48.807359 29.2579526,48.8392288 C29.2487781,48.843504 29.2400406,48.8473905 29.2264974,48.8473905 C29.0735902,48.8796489 28.9211198,48.9115186 28.7682126,48.9356153 C28.7280199,48.943777 28.6873902,48.9515501 28.6471975,48.9558253 C28.5213767,48.9756467 28.3955559,48.9958568 28.2697351,49.0079051 C28.0901784,49.0320018 27.9101848,49.0518232 27.730628,49.0595963 C27.6677176,49.067758 27.6096129,49.0716446 27.5467025,49.0716446 C27.4029697,49.0794177 27.259237,49.0836929 27.119873,49.0836929 L27.1063298,49.0836929 C26.9674026,49.0836929 26.8280387,49.0794177 26.6886747,49.0716446 C26.6349387,49.0716446 26.5807659,49.067758 26.5270299,49.0595963 C26.4012091,49.0557097 26.2710196,49.0436614 26.1360243,49.0277265 C26.1093748,49.0277265 26.0779196,49.02384 26.0508332,49.0195648 C25.8848196,48.9997434 25.7183692,48.9756467 25.5479869,48.9476636 C25.4042542,48.9274535 25.2605214,48.8994703 25.111983,48.8676006 C24.3439519,48.7117498 23.5536401,48.4758361 22.7541539,48.1606367 C22.071314,47.8928532 21.3797366,47.5691034 20.6925279,47.1936624 C20.3469576,47.005942 20.0009505,46.8061732 19.6593121,46.594356 C19.4884929,46.4863099 19.3181106,46.3782637 19.1472914,46.266331 C18.6125531,45.9184846 18.0826204,45.5391571 17.5618621,45.1314577 C17.4181294,45.0156384 17.2743966,44.8998192 17.1306638,44.7801134 C16.986931,44.6642941 16.8431983,44.5441996 16.7038343,44.4283804 C16.3534583,44.1287272 16.0122568,43.8174143 15.6797929,43.4936645 C15.5496033,43.3696835 15.4194138,43.2422046 15.2887873,43.1100618 C14.9296738,42.7505557 14.5792979,42.3790012 14.246834,41.9911233 C14.1166444,41.8515961 13.9951924,41.7077936 13.8741773,41.5636025 C13.4202613,41.0280356 12.9894999,40.4687607 12.5849511,39.8888871 C12.4770423,39.733425 12.3691335,39.5736877 12.2660304,39.4174483 C12.1402096,39.2297278 12.0191944,39.0377321 11.8977424,38.8461251 C11.4486321,38.1267242 11.0353458,37.3797288 10.6762323,36.6082482 C10.6220595,36.4963154 10.5683235,36.3843827 10.5233251,36.2728387 C10.4516772,36.1290362 10.3887668,35.9809586 10.3302252,35.8371561 C10.2402283,35.625339 10.1550372,35.4135219 10.0742148,35.2017048 C9.99339243,34.9898877 9.91693883,34.7737954 9.84048523,34.5584804 C9.76883728,34.3505498 9.70155811,34.1430079 9.63864772,33.9311908 C9.56656289,33.7073254 9.49928372,33.4795734 9.44074211,33.2479349 C9.43637333,33.2238383 9.4271989,33.1997416 9.42283012,33.175645 C9.33763897,32.8561704 9.26118536,32.5324206 9.1939062,32.2047842 C9.10390938,31.7733769 9.03226144,31.3338078 8.97852548,30.8899635 C8.95580784,30.7504363 8.94226463,30.6101317 8.92915829,30.4706045 C8.91124631,30.3225269 8.8977031,30.1787244 8.88852867,30.0310354 C8.8662479,29.763252 8.85270469,29.4911933 8.84353026,29.2195233 C8.83916148,29.0438511 8.83435583,28.8681789 8.83435583,28.6925068 L8.83435583,16.5404232 C8.83435583,7.56132101 17.0135806,0.281030939 27.1063298,0.273257834 L27.1246786,0.273257834 C28.5170079,0.273257834 29.8735133,0.412785068 31.1758458,0.672795428 C32.3663376,0.912207059 33.511831,1.25616695 34.5983459,1.69146083 C36.080672,2.28260546 37.4594581,3.04242646 38.6993171,3.94954781 C39.7417073,4.7085915 40.6892951,5.56363305 41.5158677,6.50689933 C43.9235009,9.23603647 45.3739349,12.6647531 45.4053901,16.3966207 C45.4097589,16.4444253 45.4097589,16.4922299 45.4097589,16.5404232 Z" id="Path" fill="#D3B191"></path>
                <path d="M53.8159509,79.873865 L53.8159509,79.878773 L0.282208589,79.878773 L0.282208589,79.873865 C0.282208589,76.8510429 0.781840491,73.9396319 1.71042945,71.2299387 C1.87680982,70.7406135 2.05840491,70.2561963 2.25570552,69.7766871 L2.25570552,69.7712883 C2.44760736,69.2917791 2.6591411,68.8225767 2.8809816,68.358773 C3.76392638,66.4966871 4.86429448,64.7553374 6.1408589,63.161227 C6.46380368,62.7622086 6.79165644,62.3734969 7.12981595,62.0004908 C7.29619632,61.808589 7.47288344,61.6225767 7.64957055,61.4355828 C7.82576687,61.2539877 8.00294479,61.0723926 8.18404908,60.8907975 C9.08760736,59.9872393 10.0559509,59.1602454 11.0758282,58.3980368 C11.5852761,58.0196319 12.1001227,57.6662577 12.635092,57.323681 C13.1700613,56.9855215 13.7148466,56.6620859 14.2699387,56.3597546 C14.2802454,56.3499387 14.2900613,56.3499387 14.2900613,56.3499387 C14.5069939,56.2336196 14.7190184,56.1074847 14.9310429,55.9764417 C15.5617178,55.5980368 16.167362,55.1788957 16.7425767,54.715092 C19.1798773,52.7774233 21.0669939,50.1732515 22.1418405,47.1862577 C22.7828221,45.3997546 23.1307975,43.4773006 23.1307975,41.4689571 L27.0311656,41.4890798 L31.0429448,41.5096933 C31.0429448,43.4925153 31.3811043,45.3948466 32.0068712,47.161227 C33.0665031,50.1585276 34.9487117,52.7725153 37.3860123,54.72 C37.7492025,55.0179141 38.1177914,55.2903067 38.5060123,55.5479755 C38.5467485,55.5779141 38.5815951,55.6029448 38.6223313,55.6284663 C38.8039264,55.7496933 38.9855215,55.8704294 39.1774233,55.9818405 C39.3840491,56.1079755 39.5960736,56.2341104 39.8080982,56.3504294 C39.8434356,56.3602454 39.873865,56.3754601 39.8988957,56.3955828 C40.3430675,56.6429448 40.7818405,56.9001227 41.2107975,57.1676074 C41.4179141,57.2937423 41.6245399,57.4247853 41.8262577,57.5710429 C42.2453988,57.8385276 42.6537423,58.1315337 43.0527607,58.4343558 C43.0527607,58.4392638 43.0576687,58.4392638 43.0576687,58.4392638 L43.0625767,58.4392638 C43.5725153,58.8176687 44.0667485,59.2215951 44.5511656,59.6353374 C45.0355828,60.0495706 45.4998773,60.4829448 45.9489571,60.9325153 C50.8132515,65.7752147 53.8159509,72.4667485 53.8159509,79.873865 Z" id="Path" fill="#D3B191"></path>
                <path d="M53.8139877,79.8719018 L0.280736196,79.8719018 C0.280736196,76.8490798 0.780368098,73.9371779 1.70895706,71.2279755 C1.87533742,70.7386503 2.05742331,70.2542331 2.25374233,69.7747239 L2.25374233,69.7693252 C2.44564417,69.289816 2.65766871,68.8206135 2.8795092,68.356319 C3.76245399,66.4947239 4.86233129,64.7533742 6.1393865,63.158773 C6.46233129,62.7602454 6.79067485,62.3715337 7.12834356,61.9985276 C7.29472393,61.8066258 7.47141104,61.6201227 7.64809816,61.4336196 C7.82478528,61.2520245 8.00147239,61.0704294 8.18306748,60.8888344 C9.08613497,59.9852761 10.0549693,59.1582822 11.0743558,58.3960736 C11.5842945,58.0176687 12.0986503,57.6642945 12.6336196,57.321227 C12.9109202,57.1450307 13.1887117,56.9732515 13.4709202,56.8068712 C13.7334969,56.6503067 14.0009816,56.4986503 14.2684663,56.3523926 C14.278773,56.3420859 14.288589,56.3474847 14.288589,56.3474847 L14.288589,56.3420859 C14.5055215,56.2208589 14.717546,56.1001227 14.9295706,55.9734969 C15.5602454,55.590184 16.1658896,55.166135 16.7307975,54.7018405 C16.7357055,54.7072393 16.7357055,54.7072393 16.7411043,54.7121472 C19.355092,57.3865031 22.9933742,59.0468712 27.030184,59.0571779 L27.0709202,59.0571779 C31.1077301,59.0571779 34.7607362,57.3919018 37.3850307,54.717546 L37.3899387,54.7121472 C37.7482209,55.0100613 38.1217178,55.2878528 38.5050307,55.5450307 C38.5452761,55.5749693 38.5806135,55.6 38.6208589,55.6255215 C38.802454,55.7467485 38.9894479,55.8625767 39.1759509,55.9788957 C39.3825767,56.1050307 39.595092,56.2262577 39.8066258,56.3420859 C39.8419632,56.3523926 39.8674847,56.3725153 39.8974233,56.3877301 C40.1344785,56.5192638 40.3769325,56.6552147 40.6090798,56.7960736 C40.8112883,56.9173006 41.0130061,57.0385276 41.209816,57.1646626 C41.4164417,57.2907975 41.6235583,57.4218405 41.8252761,57.5680982 C42.2444172,57.8355828 42.6527607,58.128589 43.0512883,58.431411 L43.0615951,58.431411 C43.5710429,58.8147239 44.0706748,59.2137423 44.550184,59.6319018 C45.0346012,60.046135 45.4988957,60.48 45.9479755,60.9290798 C50.8117791,65.7727607 53.8139877,72.4638037 53.8139877,79.8719018 Z" id="Path" fill="#FFB900"></path>
                <path d="M27.1238049,0.273257834 L27.1063298,0.273257834 C17.0135806,0.281419595 8.83435583,7.56170967 8.83435583,16.5404232 L8.83435583,23.7134444 C8.83435583,23.7134444 9.59321244,19.4335728 11.6373633,17.3558219 C13.8562653,15.0981235 13.2948774,11.6655204 18.2717884,11.6655204 C21.4832766,11.6655204 21.6628333,12.7203308 27.1023979,12.7203308 L27.1067666,12.7203308 L27.1242418,12.7203308 L27.1286105,12.7203308 C32.5681751,12.7203308 32.7477318,11.6655204 35.95922,11.6655204 C40.936131,11.6655204 40.3743062,15.0977349 42.5936451,17.3558219 C44.6373591,19.4335728 45.3962157,23.7134444 45.3962157,23.7134444 L45.3962157,16.5404232 C45.3957788,7.56170967 37.2165541,0.281030939 27.1238049,0.273257834 Z" id="Path" fill="#DECA75"></path>
                <path d="M40.608589,56.7955828 L40.0534969,57.3609816 C36.5919018,60.8878528 31.9695706,62.8309202 27.0395092,62.8309202 C22.0593865,62.8206135 17.4468712,60.8731288 14.0004908,57.3511656 L13.4704294,56.8063804 C13.7330061,56.649816 14.0004908,56.4981595 14.2679755,56.3519018 C14.2782822,56.3415951 14.2880982,56.3469939 14.2880982,56.3469939 L14.2880982,56.3415951 C14.5050307,56.2203681 14.7170552,56.0996319 14.9290798,55.9730061 C15.5597546,55.5896933 16.1653988,55.1656442 16.7303067,54.7013497 C16.7352147,54.7067485 16.7352147,54.7067485 16.7406135,54.7116564 C19.3546012,57.3860123 22.9928834,59.0463804 27.0296933,59.0566871 L27.0704294,59.0566871 C31.1072393,59.0566871 34.7602454,57.391411 37.3845399,54.7170552 L37.3894479,54.7116564 C37.7477301,55.0095706 38.121227,55.287362 38.5045399,55.5445399 C38.5447853,55.5744785 38.5801227,55.5995092 38.6203681,55.6250307 C38.8019632,55.7462577 38.9889571,55.8620859 39.1754601,55.9784049 C39.3820859,56.1045399 39.5946012,56.2257669 39.806135,56.3415951 C39.8414724,56.3519018 39.8669939,56.3720245 39.8969325,56.3872393 C40.1344785,56.518773 40.3764417,56.6547239 40.608589,56.7955828 Z" id="Path" fill="#E7A800"></path>
            </g>
        </g>
    </g>
</svg>