<?xml version="1.0" encoding="UTF-8"?>
<svg width="100px" height="100px" viewBox="0 0 100 100" version="1.1" xmlns="http://www.w3.org/2000/svg" xmlns:xlink="http://www.w3.org/1999/xlink">
    <!-- Generator: Sketch 62 (91390) - https://sketch.com -->
    <title>avatar-6</title>
    <desc>Created with Sketch.</desc>
    <g id="components" stroke="none" stroke-width="1" fill="none" fill-rule="evenodd">
        <g id="avatar-6">
            <rect id="Rectangle-6-Copy-4" fill="#E3E5ED" fill-rule="nonzero" x="0" y="0" width="100" height="100"></rect>
            <g id="Group-47" transform="translate(16.000000, 15.000000)">
                <g transform="translate(0.000000, -0.000000)" id="Path">
                    <path d="M40.083422,37.4044993 L41.121549,48.1984491 L44.2535703,50.4986186 L62.8977465,56.4091665 C62.8977465,56.4091665 65.3419826,57.7550427 66.0604962,61.5170076 C66.1597629,62.0351971 66.2941206,65.7940057 66.4635694,72.7934332 L0.863163239,72.7934332 C0.989364679,66.1486562 1.1359885,62.3899109 1.30303469,61.5171973 C1.78672257,58.9812053 4.4657844,56.4093562 4.4657844,56.4093562 L23.2370472,50.4174183 L26.2429303,48.1986388 L27.2793502,37.4037404 C31.5468051,37.4044993 35.8152084,37.4044993 40.083422,37.4044993 Z" fill="#D3B191"></path>
                    <path d="M23.2370472,49.0384615 L4.4657844,54.9476396 C4.4657844,54.9476396 1.78672257,57.4839667 1.30303469,59.9849319 C1.1359885,60.8455917 0.701643599,69.1839477 0,85 L67.3267327,85 C66.5813359,68.8348192 66.159257,60.4964008 66.0604962,59.9847448 C65.3421723,56.2749267 62.8977465,54.9474525 62.8977465,54.9474525 L44.2535703,49.1185403 C41.1646067,58.0551829 26.1816632,57.6826668 23.2370472,49.0384615 Z" fill="#FFFFFF"></path>
                    <path d="M17.6572831,20.7042146 C13.6364634,19.9931068 17.0643774,31.9666084 20.000229,30.1813587 L21.5764997,34.7962681 C22.9966626,38.9536445 26.577266,42.7383285 29.3025051,45.7359649 C30.3665827,46.9046056 36.8820881,46.8852892 37.9355307,45.7806577 C40.9530446,42.6159915 44.5380159,39.0613996 45.884303,34.7735429 L47.3263058,30.1823056 C50.267475,31.9649041 53.6874126,19.9948112 49.6700114,20.7051615 C49.9480428,11.385389 43.3394804,2.34286328 33.6636472,2.30176864 C23.9876241,2.34286328 17.3792517,11.385389 17.6572831,20.7051615 L17.6572831,20.7042146 Z" fill="#E5C5A6"></path>
                    <path d="M45.5794171,4.49073174 C46.720987,4.3594825 50.8396779,8.09658208 51.3337987,12.4240191 C51.8279196,16.7524032 51.0765355,21.2135516 51.0765355,21.2135516 C49.0603851,21.6474506 48.6375885,26.2171211 48.6375885,26.2171211 L47.7637708,26.2548103 L47.1411137,23.1372147 C43.5306559,20.8898792 48.5655014,12.0101958 44.9540901,11.2317912 C38.7723349,16.2880119 29.6020163,18.1590238 21.6007292,16.8609253 C19.3545866,17.158272 22.6215818,19.9768163 21.6737699,23.2196006 C20.9752115,24.4301996 21.3919055,26.3407946 21.3919055,26.3407946 L20.3472146,26.4703393 C20.3472146,26.4703393 19.7007192,21.0459389 17.6862851,21.0686661 C16.7552554,18.5694381 16.9463434,16.9861139 17.1172165,14.7527935 C18.0640749,2.37843337 33.8952038,-5.38856712 45.5786543,4.49092114 L45.5794171,4.49092114 L45.5794171,4.49073174 Z" fill="#0B0A09"></path>
                    <path d="M46.898536,50.3303212 C42.8637559,62.2789013 24.9952265,62.2330607 21.0036388,50.2979402 L23.4793061,49.4880257 C26.4331342,58.4994952 41.4629518,58.8878718 44.5617695,49.5719042 L46.898536,50.3314916 L46.898536,50.3303212 Z" fill="#FFFFFF"></path>
                    <polygon fill="#DCD9D9" points="46.898536 66.1758484 49.2003046 66.1758484 49.2003046 66.7512905 46.898536 66.7512905"></polygon>
                    <polygon fill="#FF5B61" points="48.0494203 66.1758484 49.2003046 66.1758484 49.2003046 66.7512905 48.0494203 66.7512905"></polygon>
                </g>
            </g>
        </g>
    </g>
</svg>