<?xml version="1.0" encoding="UTF-8"?>
<svg width="200px" height="135px" viewBox="0 0 200 135" version="1.1" xmlns="http://www.w3.org/2000/svg" xmlns:xlink="http://www.w3.org/1999/xlink">
    <!-- Generator: Sketch 51.1 (57501) - http://www.bohemiancoding.com/sketch -->
    <title>background</title>
    <desc>Created with Sketch.</desc>
    <defs></defs>
    <g id="spinner" stroke="none" stroke-width="1" fill="none" fill-rule="evenodd">
        <g id="background">
            <polygon id="Rectangle-3" fill="#16325C" fill-rule="nonzero" points="0 0 200 0 200 107.8125 0 134.375"></polygon>
            <g id="Group-19" transform="translate(190.922162, 11.922162) rotate(18.000000) translate(-190.922162, -11.922162) translate(187.015912, 8.015912)">
                <rect id="shape" x="0" y="0" width="7.8125" height="7.8125"></rect>
                <g id="open-tag-" transform="translate(0.539435, 2.278646)">
                    <polygon id="Line-2" fill="#FFFFFF" points="2.52864406 0 0 1.38020357 0 1.83272933 2.52864406 3.2129329 2.52864406 2.76040714 0.409569109 1.60646645 2.52864406 0.452525761"></polygon>
                    <polygon id="Line-3" fill-opacity="0.246490036" fill="#000000" points="0 2.10646645 0.82537253 2.10646645 0.409569109 1.60646645"></polygon>
                </g>
                <g id="close-tag-" transform="translate(5.989583, 3.896949) scale(-1, 1) translate(-5.989583, -3.896949) translate(4.706101, 2.278646)">
                    <polygon id="Line-2" fill="#FFFFFF" points="2.52864406 0 0 1.38020357 0 1.83272933 2.52864406 3.2129329 2.52864406 2.76040714 0.409569109 1.60646645 2.52864406 0.452525761"></polygon>
                    <polygon id="Line-3" fill-opacity="0.246490036" fill="#000000" points="0 2.10646645 0.82537253 2.10646645 0.409569109 1.60646645"></polygon>
                </g>
            </g>
            <g id="Group-19" transform="translate(38.028004, 71.028004) rotate(-21.000000) translate(-38.028004, -71.028004) translate(35.684254, 68.684254)">
                <rect id="shape" x="0" y="0" width="4.6875" height="4.6875"></rect>
                <g id="open-tag-" transform="translate(0.323661, 1.367187)">
                    <polygon id="Line-2" fill="#FFFFFF" points="1.51718644 0 0 0.828122142 0 1.0996376 1.51718644 1.92775974 1.51718644 1.65624428 0.245741465 0.96387987 1.51718644 0.271515456"></polygon>
                    <polygon id="Line-3" fill-opacity="0.246490036" fill="#000000" points="0 1.46387987 0.5 1.46387987 0.248111667 0.96387987"></polygon>
                </g>
                <g id="close-tag-" transform="translate(3.593750, 2.338170) scale(-1, 1) translate(-3.593750, -2.338170) translate(2.823661, 1.367187)">
                    <polygon id="Line-2" fill="#FFFFFF" points="1.51718644 0 0 0.828122142 0 1.0996376 1.51718644 1.92775974 1.51718644 1.65624428 0.245741465 0.96387987 1.51718644 0.271515456"></polygon>
                    <polygon id="Line-3" fill-opacity="0.246490036" fill="#000000" points="0 1.46387987 0.5 1.46387987 0.248111667 0.96387987"></polygon>
                </g>
            </g>
            <g id="Group-19" opacity="0.4" transform="translate(151.000000, 106.000000)">
                <rect id="shape" x="0" y="0" width="4.6875" height="4.6875"></rect>
                <g id="open-tag-" transform="translate(0.323661, 1.367187)">
                    <polygon id="Line-2" fill="#FFFFFF" points="1.51718644 0 0 0.828122142 0 1.0996376 1.51718644 1.92775974 1.51718644 1.65624428 0.245741465 0.96387987 1.51718644 0.271515456"></polygon>
                    <polygon id="Line-3" fill-opacity="0.246490036" fill="#000000" points="0 1.46387987 0.5 1.46387987 0.248111667 0.96387987"></polygon>
                </g>
                <g id="close-tag-" transform="translate(3.593750, 2.338170) scale(-1, 1) translate(-3.593750, -2.338170) translate(2.823661, 1.367187)">
                    <polygon id="Line-2" fill="#FFFFFF" points="1.51718644 0 0 0.828122142 0 1.0996376 1.51718644 1.92775974 1.51718644 1.65624428 0.245741465 0.96387987 1.51718644 0.271515456"></polygon>
                    <polygon id="Line-3" fill-opacity="0.246490036" fill="#000000" points="0 1.46387987 0.5 1.46387987 0.248111667 0.96387987"></polygon>
                </g>
            </g>
            <g id="react" transform="translate(5.827328, 15.827328) rotate(-15.000000) translate(-5.827328, -15.827328) translate(2.702328, 12.702328)" fill-rule="nonzero">
                <path d="M4.77498372,2.25830078 C4.72005208,2.23999023 4.66512044,2.22269694 4.6101888,2.2064209 C4.61934408,2.16878255 4.6274821,2.13114421 4.63562012,2.09350586 C4.76074219,1.48722331 4.67834473,0.99995931 4.40063477,0.839233398 C4.13309733,0.685628255 3.69669596,0.845336914 3.25520833,1.2298584 C3.21146647,1.26749674 3.16874186,1.3071696 3.12805176,1.34684245 C3.10058594,1.32039388 3.07210286,1.29394531 3.04361979,1.268514 C2.58076986,0.857543945 2.11690267,0.684611003 1.83919271,0.846354167 C1.57267253,1.00097656 1.49332682,1.45975749 1.60522461,2.03348796 C1.61641439,2.0904541 1.62862142,2.14640299 1.64286296,2.20336914 C1.57775879,2.22167969 1.51367187,2.24202474 1.45365397,2.26338704 C0.910441081,2.45157878 0.520833333,2.74861654 0.520833333,3.05582682 C0.520833333,3.37320964 0.935872396,3.6916097 1.50044759,3.8848877 C1.54622396,3.90014648 1.59200033,3.91540527 1.63879395,3.92862956 C1.62353516,3.98966471 1.61031087,4.04968262 1.59810384,4.11173503 C1.49129232,4.67631022 1.57470703,5.12390137 1.84122721,5.27750651 C2.11588542,5.43619792 2.5777181,5.2734375 3.02734375,4.87976074 C3.06294759,4.84822591 3.09855143,4.81567383 3.13415527,4.78108724 C3.17891439,4.8248291 3.22570801,4.86653646 3.27250163,4.90722656 C3.70788574,5.28157552 4.13818359,5.43314616 4.40368652,5.27954102 C4.67834473,5.12084961 4.76786296,4.63968913 4.65189616,4.05375163 C4.64274089,4.00899251 4.63256836,3.96321615 4.62137858,3.91642253 C4.65393066,3.90726725 4.68546549,3.89709473 4.71700033,3.8869222 C5.30395508,3.69262695 5.72916667,3.3782959 5.72916667,3.05582682 C5.72916667,2.74759928 5.32836914,2.44852702 4.77498372,2.25830078 Z M3.39864095,1.39465332 C3.77705892,1.06506348 4.13004557,0.935872396 4.29077148,1.02844238 C4.46268717,1.12711589 4.52880859,1.52587891 4.42097982,2.049764 C4.41385905,2.08435059 4.40673828,2.11791992 4.39758301,2.15148926 C4.17175293,2.10062663 3.94287109,2.06400553 3.71297201,2.04366048 C3.58072917,1.8544515 3.4362793,1.67338053 3.2796224,1.50349935 C3.31929525,1.465861 3.35795085,1.43025716 3.39864095,1.39465332 Z M2.07621257,3.31827799 C2.12300618,3.40779622 2.17081706,3.4962972 2.22167969,3.58378092 C2.27355957,3.6722819 2.32645671,3.76078288 2.3824056,3.84724935 C2.22371419,3.82995605 2.06604004,3.80452474 1.91040039,3.7709554 C1.95515951,3.62447103 2.0111084,3.47290039 2.07621257,3.31827799 Z M2.07621257,2.80354818 C2.01212565,2.65197754 1.95821126,2.50345866 1.91345215,2.36002604 C2.05993652,2.32747396 2.21557617,2.30102539 2.37731934,2.28068034 C2.32340495,2.3651123 2.27050781,2.45157878 2.22066243,2.5390625 C2.17081706,2.62552897 2.12198893,2.71402995 2.07621257,2.80354818 Z M2.19217936,3.06091309 C2.25931803,2.92053223 2.33256022,2.78320312 2.40987142,2.64790853 C2.48718262,2.51261393 2.57059733,2.38138835 2.65808105,2.25219727 C2.81066895,2.24100749 2.96630859,2.23490397 3.125,2.23490397 C3.28369141,2.23490397 3.44034831,2.24100749 3.59191895,2.25219727 C3.67838542,2.38037109 3.76078288,2.51159668 3.83911133,2.64587402 C3.91743978,2.78015137 3.99068197,2.91748047 4.05985514,3.05684408 C3.99169922,3.19722493 3.91845703,3.33557129 3.84012858,3.47188314 C3.76281738,3.60717773 3.68041992,3.73840332 3.59395345,3.86861165 C3.44238281,3.87980143 3.28470866,3.8848877 3.125,3.8848877 C2.96529134,3.8848877 2.81066895,3.87980143 2.66113281,3.87064616 C2.57263184,3.74145508 2.48921712,3.60921224 2.41088867,3.47391764 C2.33256022,3.33862305 2.26033529,3.20129395 2.19217936,3.06091309 Z M4.02933757,3.58174642 C4.08121745,3.49222819 4.13004557,3.40169271 4.17785645,3.31013997 C4.24296061,3.4576416 4.29992676,3.60717773 4.34977214,3.76078288 C4.19209798,3.79638672 4.03238932,3.82385254 3.87166341,3.84216309 C3.92659505,3.75671387 3.97847493,3.66923014 4.02933757,3.58174642 Z M4.17582194,2.80354818 C4.12801107,2.71402995 4.07918294,2.62451172 4.02832031,2.53702799 C3.97847493,2.45056152 3.92659505,2.3651123 3.87268066,2.28068034 C4.03645833,2.30102539 4.19311523,2.32849121 4.33959961,2.36206055 C4.29280599,2.51261393 4.23787435,2.65909831 4.17582194,2.80354818 Z M3.12703451,1.659139 C3.23384603,1.77510579 3.33455404,1.89717611 3.42814128,2.02331543 C3.22672526,2.01416016 3.02429199,2.01416016 2.82287598,2.02331543 C2.92256673,1.89208984 3.02530924,1.77001953 3.12703451,1.659139 Z M1.94702148,1.03556315 C2.11791992,0.935872396 2.49735514,1.07828776 2.89713542,1.43229167 C2.92256673,1.45467122 2.94799805,1.47908529 2.97444661,1.50349935 C2.81677246,1.67338053 2.67130534,1.8544515 2.53804525,2.04366048 C2.30814616,2.06400553 2.08028158,2.09960937 1.8544515,2.14945475 C1.84122721,2.09757487 1.83003743,2.04467773 1.81884766,1.9917806 C1.72322591,1.49943034 1.78629557,1.12813314 1.94702148,1.03556315 Z M1.6977946,3.71704102 C1.65506999,3.70483398 1.61336263,3.6916097 1.57165527,3.67736816 C1.35498047,3.60921224 1.10880534,3.50138346 0.930786133,3.35998535 C0.82804362,3.28877767 0.758870443,3.17891439 0.739542643,3.05582682 C0.739542643,2.8696696 1.06099447,2.63163249 1.52486165,2.46988932 C1.58284505,2.44954427 1.6418457,2.43123372 1.70084635,2.41394043 C1.77001953,2.63468424 1.85343424,2.85135905 1.95007324,3.06091309 C1.85241699,3.27351888 1.76798503,3.49324544 1.6977946,3.71704102 Z M2.88391113,4.71394857 C2.71606445,4.86755371 2.52176921,4.98962402 2.31018066,5.07303874 C2.19726562,5.12695312 2.06705729,5.13203939 1.95109049,5.08626302 C1.78934733,4.99267578 1.72220866,4.63358561 1.81376139,4.15039062 C1.82495117,4.09342448 1.8371582,4.03645833 1.85139974,3.98050944 C2.07926432,4.02933757 2.30916341,4.0629069 2.54211426,4.0802002 C2.6763916,4.27042643 2.82389323,4.45251465 2.98156738,4.62341309 C2.9490153,4.65494792 2.91646322,4.68546549 2.88391113,4.71394857 Z M3.13313802,4.46675618 C3.02937826,4.3548584 2.92561849,4.23075358 2.82491048,4.09749349 C2.92256673,4.1015625 3.02327474,4.10359701 3.125,4.10359701 C3.22977702,4.10359701 3.33251953,4.1015625 3.43424479,4.09647624 C3.34065755,4.22566732 3.23994954,4.34875488 3.13313802,4.46675618 Z M4.46268717,4.77193197 C4.4535319,4.89603678 4.39249674,5.01200358 4.29484049,5.09033203 C4.13309733,5.18391927 3.7882487,5.06184896 3.41593424,4.74243164 C3.37320964,4.70581055 3.33048503,4.6661377 3.28674316,4.62544759 C3.44238281,4.4535319 3.58581543,4.27144368 3.71602376,4.0802002 C3.94897461,4.0608724 4.1809082,4.02526855 4.40979004,3.97338867 C4.41996257,4.01509603 4.42911784,4.05680339 4.43725586,4.09749349 C4.48710124,4.31722005 4.49523926,4.54610189 4.46268717,4.77193197 Z M4.64782715,3.67838542 C4.61934408,3.68754069 4.590861,3.69669596 4.56136068,3.70483398 C4.49015299,3.48307292 4.40266927,3.26639811 4.30196126,3.05582682 C4.39961751,2.84830729 4.48201497,2.63468424 4.55118815,2.41597493 C4.60408529,2.43123372 4.65494792,2.44750977 4.70377604,2.46378581 C5.17781576,2.62654622 5.51045736,2.86865234 5.51045736,3.05379232 C5.51045736,3.25317383 5.1554362,3.51053874 4.64782715,3.67838542 Z M3.125,2.59399414 C3.38236491,2.59399414 3.59090169,2.80253092 3.59090169,3.05989583 C3.59090169,3.31726074 3.38236491,3.52579753 3.125,3.52579753 C2.86763509,3.52579753 2.65909831,3.31726074 2.65909831,3.05989583 C2.65909831,2.80253092 2.86763509,2.59399414 3.125,2.59399414 Z" id="Shape" fill="#FFFFFF" opacity="0.2"></path>
                <rect id="Rectangle-5" x="0" y="0" width="6.25" height="6.25"></rect>
            </g>
            <g id="react" opacity="0.2" transform="translate(123.827328, 4.827328) rotate(-15.000000) translate(-123.827328, -4.827328) translate(120.702328, 1.702328)" fill-rule="nonzero">
                <path d="M5.62554123,2.55359087 C5.55962678,2.53161938 5.49371233,2.51086854 5.42779788,2.49133833 C5.43878363,2.44617473 5.44854873,2.40101112 5.45831383,2.35584752 C5.6084523,1.6283473 5.50958063,1.04366173 5.17634647,0.850800929 C4.85531869,0.666484599 4.33166501,0.858124757 3.80190814,1.3195259 C3.74942071,1.36468951 3.69815391,1.41229439 3.64932839,1.45989927 C3.61637117,1.42816268 3.58219331,1.39642609 3.54801544,1.36591014 C2.99262518,0.872772413 2.43601427,0.665263961 2.10278011,0.859345395 C1.78297297,1.04488236 1.68776321,1.59539008 1.82203339,2.28382988 C1.8354604,2.35218561 1.85010806,2.41932069 1.86719699,2.48767642 C1.78907616,2.5096479 1.71217597,2.53406066 1.64015833,2.55969406 C0.988337667,2.78551208 0.520833333,3.14193836 0.520833333,3.51057102 C0.520833333,3.89141006 1.01885362,4.27346974 1.69630768,4.50539095 C1.75123639,4.52370052 1.80616509,4.54201008 1.86231444,4.55787838 C1.84400487,4.63111665 1.82813658,4.70313429 1.81348892,4.77759321 C1.68532194,5.45504727 1.78541425,5.99212797 2.10522139,6.1764443 C2.43479364,6.36686382 2.98896326,6.17156175 3.52848524,5.69917486 C3.57120757,5.66133508 3.61392989,5.62227467 3.65665222,5.58077298 C3.71036029,5.63326041 3.76650964,5.68330657 3.82265898,5.73213208 C4.34509202,6.18132685 4.86142188,6.3632019 5.18000838,6.17888557 C5.50958063,5.98846605 5.61699677,5.4111043 5.47784404,4.70801685 C5.4668583,4.65430878 5.45465192,4.59938007 5.4412249,4.54323072 C5.48028532,4.53224498 5.51812509,4.5200386 5.55596487,4.50783222 C6.26027297,4.27469037 6.77049963,3.89751325 6.77049963,3.51057102 C6.77049963,3.14071772 6.28956828,2.78185016 5.62554123,2.55359087 Z M3.97401809,1.51726925 C4.42809541,1.12178255 4.85165677,0.966761535 5.04451757,1.07783959 C5.25080538,1.19624147 5.33014685,1.67473154 5.20075923,2.30336009 C5.19221476,2.34486178 5.1836703,2.38514283 5.17268455,2.42542388 C4.90170293,2.36439199 4.62705939,2.32044902 4.35119521,2.29603626 C4.19251228,2.0689976 4.01918169,1.85172405 3.83120345,1.64787751 C3.87880833,1.60271391 3.92519257,1.55999158 3.97401809,1.51726925 Z M2.38718876,3.82549561 C2.4433381,3.93291175 2.50070809,4.03910725 2.56173998,4.14408211 C2.62399252,4.25027761 2.68746569,4.35647312 2.75460078,4.46022734 C2.56418126,4.4394765 2.37498238,4.40896055 2.18822477,4.3686795 C2.24193284,4.19290763 2.30906793,4.01103258 2.38718876,3.82549561 Z M2.38718876,3.20785281 C2.31028857,3.02597775 2.24559475,2.84776461 2.19188668,2.67565466 C2.36765855,2.63659425 2.55441615,2.60485766 2.74849759,2.5804449 C2.68380378,2.68175785 2.6203306,2.78551208 2.56051934,2.89048694 C2.50070809,2.99424117 2.44211746,3.10043667 2.38718876,3.20785281 Z M2.52634148,3.51667421 C2.60690359,3.34822617 2.69478952,3.18344005 2.787558,3.0210952 C2.88032649,2.85875035 2.9804188,2.70128806 3.08539366,2.54626704 C3.26848935,2.53284002 3.45524696,2.52551619 3.64566648,2.52551619 C3.836086,2.52551619 4.02406424,2.53284002 4.2059393,2.54626704 C4.30969352,2.70006742 4.4085652,2.85752972 4.50255432,3.01865393 C4.59654344,3.17977813 4.68442937,3.34456426 4.76743275,3.51179166 C4.68565001,3.68023969 4.59776408,3.84624645 4.50377496,4.00981194 C4.41100647,4.17215679 4.3121348,4.32961908 4.20838057,4.48586074 C4.02650552,4.49928776 3.83730664,4.50539095 3.64566648,4.50539095 C3.45402632,4.50539095 3.26848935,4.49928776 3.08905558,4.48830201 C2.98286007,4.333281 2.88276776,4.17459806 2.78877864,4.01225322 C2.69478952,3.84990837 2.60812422,3.68512224 2.52634148,3.51667421 Z M4.73081362,4.14164084 C4.79306615,4.0342247 4.85165677,3.92558792 4.90902676,3.81573051 C4.98714759,3.99272301 5.05550331,4.17215679 5.11531457,4.35647312 C4.92611569,4.39919544 4.73447553,4.43215267 4.54161473,4.45412415 C4.60752918,4.35159056 4.66978172,4.2466157 4.73081362,4.14164084 Z M4.90658548,3.20785281 C4.8492155,3.10043667 4.79062488,2.99302053 4.72959298,2.88804566 C4.66978172,2.78429144 4.60752918,2.68175785 4.54283537,2.5804449 C4.73935808,2.60485766 4.92733633,2.63781489 5.10310819,2.67809594 C5.04695884,2.85875035 4.9810444,3.03452222 4.90658548,3.20785281 Z M3.64810776,1.83463512 C3.77627474,1.97378784 3.8971179,2.1202644 4.00941659,2.2716235 C3.76773028,2.26063776 3.52482332,2.26063776 3.28313701,2.2716235 C3.40275953,2.11416121 3.52604396,1.96768465 3.64810776,1.83463512 Z M2.23216774,1.08638405 C2.43723491,0.966761535 2.89253287,1.13765085 3.37224358,1.56243285 C3.40275953,1.58928689 3.43327548,1.6185822 3.46501206,1.64787751 C3.27581318,1.85172405 3.10126196,2.0689976 2.94135838,2.29603626 C2.66549421,2.32044902 2.39207131,2.36317135 2.12108968,2.42298261 C2.10522139,2.36073007 2.09179437,2.2972569 2.07836736,2.23378372 C1.96362739,1.64299496 2.03930694,1.19746211 2.23216774,1.08638405 Z M1.93311144,4.30398568 C1.88184465,4.28933803 1.83179849,4.27346974 1.78175233,4.2563808 C1.52175645,4.17459806 1.22636207,4.04521044 1.01275043,3.87554176 C0.889465994,3.79009711 0.806462613,3.65826821 0.783270492,3.51057102 C0.783270492,3.28719427 1.16899208,3.00156499 1.72560299,2.80748356 C1.79517935,2.7830708 1.86597635,2.76109932 1.93677335,2.74034847 C2.01977673,3.00522691 2.11986905,3.26522279 2.23582965,3.51667421 C2.11864841,3.77178754 2.01733546,4.03544534 1.93311144,4.30398568 Z M3.35637529,5.50021087 C3.15497003,5.6845272 2.92182818,5.83100376 2.66793548,5.93109607 C2.53244467,5.99578988 2.37620301,6.00189307 2.23705029,5.94696436 C2.04296885,5.83466567 1.96240675,5.40378048 2.07226417,4.82397745 C2.08569118,4.75562173 2.10033884,4.687266 2.11742777,4.62013091 C2.39085067,4.67872153 2.66671485,4.71900259 2.94624094,4.73975343 C3.10736515,4.96801273 3.28435765,5.18650692 3.47355653,5.3915741 C3.43449612,5.42941387 3.3954357,5.46603301 3.35637529,5.50021087 Z M3.65543158,5.20359585 C3.53092651,5.06932568 3.40642144,4.92040785 3.28557829,4.76050428 C3.40275953,4.76538683 3.52360269,4.7678281 3.64566648,4.7678281 C3.77139219,4.7678281 3.89467662,4.76538683 4.01674042,4.75928364 C3.90444173,4.91430466 3.78359857,5.06200185 3.65543158,5.20359585 Z M5.25080538,5.56978724 C5.23981964,5.71870507 5.16658136,5.85785779 5.04940012,5.95184691 C4.85531869,6.06414561 4.44152242,5.91766905 3.99476893,5.53438874 C3.94350214,5.49044577 3.89223535,5.44284089 3.83974791,5.39401537 C4.02650552,5.18772756 4.19861547,4.96923337 4.35485713,4.73975343 C4.63438322,4.71656131 4.91268867,4.67383898 5.18733221,4.61158645 C5.19953859,4.6616326 5.21052433,4.71167876 5.22028943,4.76050428 C5.28010069,5.02416207 5.2898658,5.29880561 5.25080538,5.56978724 Z M5.47296149,4.25760144 C5.43878363,4.26858718 5.40460576,4.27957293 5.36920726,4.28933803 C5.28376261,4.02323896 5.17878774,3.76324307 5.05794459,3.51057102 C5.17512583,3.26156088 5.2739975,3.00522691 5.35700088,2.74278975 C5.42047406,2.76109932 5.48150595,2.78062953 5.54009658,2.80015973 C6.10891386,2.9954618 6.50806247,3.28597364 6.50806247,3.50812974 C6.50806247,3.74737478 6.08205982,4.05619618 5.47296149,4.25760144 Z M3.64566648,2.95640139 C3.95448788,2.95640139 4.20471866,3.20663217 4.20471866,3.51545357 C4.20471866,3.82427497 3.95448788,4.07450575 3.64566648,4.07450575 C3.33684508,4.07450575 3.0866143,3.82427497 3.0866143,3.51545357 C3.0866143,3.20663217 3.33684508,2.95640139 3.64566648,2.95640139 Z" id="Shape" fill="#FFFFFF"></path>
                <rect id="Rectangle-5" x="0" y="0" width="6.25" height="6.25"></rect>
            </g>
            <g id="react" opacity="0.3" transform="translate(183.728140, 63.728140) rotate(-15.000000) translate(-183.728140, -63.728140) translate(177.418140, 57.418140)" fill-rule="nonzero">
                <path d="M11.3590929,5.15621068 C11.2259984,5.11184586 11.0929039,5.06994575 10.9598095,5.03051036 C10.9819919,4.93931601 11.0017096,4.84812166 11.0214273,4.75692731 C11.3245869,3.28795887 11.1249452,2.10736176 10.4520788,1.71793724 C9.80385949,1.3457657 8.74649798,1.73272551 7.67681291,2.6643867 C7.57083029,2.75558105 7.46731238,2.85170482 7.36872389,2.9478286 C7.30217667,2.88374608 7.23316473,2.81966357 7.16415279,2.75804576 C6.04270876,1.76230206 4.91880002,1.34330099 4.24593361,1.73519022 C3.60017902,2.10982647 3.40793148,3.22141165 3.67904981,4.61150929 C3.70616165,4.74953317 3.73573819,4.88509234 3.77024416,5.02311622 C3.61250259,5.06748104 3.45722572,5.11677528 3.3118077,5.16853424 C1.99565142,5.62450599 1.05166667,6.34420193 1.05166667,7.088545 C1.05166667,7.85753519 2.05726922,8.62899009 3.42518446,9.0972854 C3.53609651,9.13425608 3.64700856,9.17122676 3.76038531,9.20326802 C3.72341463,9.35115075 3.69137337,9.49656877 3.66179683,9.64691621 C3.40300205,11.0148314 3.60510845,12.0993048 4.25086303,12.4714763 C4.91633531,12.8559714 6.03531462,12.4616175 7.12471739,11.5077739 C7.21098232,11.4313678 7.29724724,11.352497 7.38351217,11.2686968 C7.4919595,11.3746794 7.60533626,11.4757326 7.71871302,11.5743211 C8.77360982,12.4813352 9.81618305,12.8485773 10.4594729,12.4764057 C11.1249452,12.0919107 11.3418399,10.9261018 11.0608627,9.50642761 C11.0386803,9.39798028 11.0140332,9.28706823 10.9869213,9.17369147 C11.0657921,9.15150907 11.1421982,9.12686194 11.2186043,9.10221482 C12.6407432,8.6314548 13.6709928,7.86985875 13.6709928,7.088545 C13.6709928,6.34173722 12.6998963,5.61711185 11.3590929,5.15621068 Z M8.02433732,3.06367007 C8.94121024,2.26510333 9.79646536,1.95208489 10.1858899,2.1763737 C10.6024262,2.41545077 10.7626325,3.38161793 10.501373,4.65094469 C10.48412,4.7347449 10.4668671,4.8160804 10.4446847,4.8974159 C9.89751855,4.7741803 9.34295832,4.68545066 8.78593338,4.63615642 C8.4655208,4.17771996 8.11553167,3.7390012 7.735966,3.32739427 C7.83208978,3.23619992 7.92574884,3.14993499 8.02433732,3.06367007 Z M4.82021154,7.72444073 C4.93358829,7.9413354 5.04942977,8.15576536 5.17266537,8.3677306 C5.29836569,8.58216056 5.42653072,8.79659052 5.56208989,9.00609105 C5.1775948,8.96419094 4.79556441,8.90257314 4.41846346,8.82123764 C4.52691079,8.46631909 4.66246996,8.09907698 4.82021154,7.72444073 Z M4.82021154,6.47729639 C4.66493467,6.11005428 4.53430493,5.75020631 4.42585759,5.40268189 C4.78077614,5.3238111 5.1578771,5.25972859 5.54976633,5.21043435 C5.41913659,5.41500545 5.29097156,5.62450599 5.17020066,5.83647123 C5.04942977,6.04597176 4.93112358,6.26040172 4.82021154,6.47729639 Z M5.10118872,7.10086856 C5.26385972,6.76073829 5.441319,6.42800215 5.62863712,6.10019543 C5.81595524,5.77238872 6.01806164,5.45444085 6.23002688,5.14142241 C6.5997337,5.11431057 6.97683466,5.0995223 7.36132976,5.0995223 C7.74582485,5.0995223 8.12539052,5.11431057 8.49263263,5.14142241 C8.70213316,5.45197614 8.90177485,5.769924 9.09155768,6.09526601 C9.28134052,6.42060801 9.45879979,6.75334415 9.62640022,7.09100971 C9.4612645,7.43113999 9.28380523,7.76634084 9.0940224,8.09661227 C8.90670427,8.42441898 8.70706259,8.74236685 8.49756206,9.05785 C8.13031995,9.08496184 7.74828956,9.0972854 7.36132976,9.0972854 C6.97436995,9.0972854 6.5997337,9.08496184 6.23742102,9.06277943 C6.02299106,8.74976099 5.82088467,8.42934841 5.63110183,8.10154169 C5.441319,7.77373498 5.26632443,7.44099884 5.10118872,7.10086856 Z M9.55245885,8.36280118 C9.67815917,8.14590651 9.79646536,7.92654713 9.91230683,7.70472304 C10.0700484,8.0621063 10.2080723,8.42441898 10.3288432,8.79659052 C9.9468128,8.88285544 9.55985299,8.94940267 9.17042847,8.99376749 C9.30352293,8.78673167 9.42922325,8.57476642 9.55245885,8.36280118 Z M9.9073774,6.47729639 C9.79153593,6.26040172 9.67322975,6.04350705 9.54999414,5.83154181 C9.42922325,5.62204127 9.30352293,5.41500545 9.17289318,5.21043435 C9.56971184,5.25972859 9.94927751,5.32627582 10.3041961,5.40761132 C10.1908193,5.77238872 10.0577248,6.12730726 9.9073774,6.47729639 Z M7.36625918,3.70449523 C7.62505396,3.98547241 7.86906046,4.28123787 8.09581398,4.58686217 C7.60780097,4.56467976 7.11732326,4.56467976 6.62931025,4.58686217 C6.87085204,4.26891431 7.11978797,3.97314885 7.36625918,3.70449523 Z M4.50719309,2.19362668 C4.92126473,1.95208489 5.84060236,2.29714459 6.80923424,3.15486442 C6.87085204,3.20908808 6.93246984,3.26824118 6.99655236,3.32739427 C6.61452198,3.7390012 6.26206814,4.17771996 5.93919085,4.63615642 C5.38216591,4.68545066 4.83007038,4.77171558 4.28290429,4.89248648 C4.25086303,4.76678616 4.2237512,4.63862113 4.19663936,4.5104561 C3.96495642,3.31753542 4.11776857,2.41791549 4.50719309,2.19362668 Z M3.90333862,8.69060789 C3.79982071,8.66103135 3.69876751,8.62899009 3.59771431,8.59448412 C3.07273063,8.42934841 2.47627029,8.16808892 2.04494566,7.82549393 C1.79600973,7.65296408 1.62840931,7.38677517 1.58157978,7.088545 C1.58157978,6.63750268 2.36042882,6.06076004 3.48433755,5.6688708 C3.62482615,5.61957656 3.76777945,5.57521174 3.91073275,5.53331164 C4.07833318,6.06815417 4.28043958,6.59313786 4.51458723,7.10086856 C4.27797486,7.6159934 4.07340376,8.14837122 3.90333862,8.69060789 Z M6.77719298,11.1060258 C6.37051548,11.4781973 5.89975546,11.7739628 5.38709533,11.9760692 C5.11351228,12.1066989 4.79802913,12.1190225 4.51705194,12.0081104 C4.12516271,11.7813569 3.96249171,10.9113135 4.1843158,9.74057527 C4.21142764,9.60255139 4.24100418,9.46452751 4.27551015,9.32896834 C4.82760567,9.44727452 5.38463062,9.52861002 5.9490497,9.57051013 C6.2743917,10.0314113 6.63177496,10.4725948 7.01380535,10.8866664 C6.93493456,10.9630725 6.85606377,11.0370139 6.77719298,11.1060258 Z M7.38104745,10.5071007 C7.12964682,10.2359824 6.87824618,9.93528753 6.63423967,9.61241024 C6.87085204,9.62226909 7.11485854,9.62719851 7.36132976,9.62719851 C7.61519511,9.62719851 7.86413104,9.62226909 8.11060225,9.60994552 C7.88384873,9.92296397 7.63984223,10.2211941 7.38104745,10.5071007 Z M10.6024262,11.2465144 C10.5802438,11.5472093 10.4323611,11.8281865 10.1957487,12.0179693 C9.80385949,12.2447228 8.96832208,11.9489574 8.06623743,11.1750377 C7.96271952,11.0863081 7.85920161,10.9901843 7.75321899,10.8915958 C8.13031995,10.4750595 8.47784436,10.033876 8.79332751,9.57051013 C9.35774659,9.5236806 9.91970096,9.43741567 10.4742612,9.31171536 C10.4989083,9.41276855 10.5210907,9.51382175 10.5408084,9.61241024 C10.6615793,10.1447881 10.681297,10.6993483 10.6024262,11.2465144 Z M11.0510038,8.59694883 C10.9819919,8.61913124 10.91298,8.64131365 10.8415033,8.66103135 C10.6689735,8.1237241 10.4570082,7.59874041 10.2130017,7.088545 C10.4496141,6.58574372 10.6492558,6.06815417 10.8168562,5.53824106 C10.9450212,5.57521174 11.0682568,5.61464714 11.186563,5.65408253 C12.3351189,6.04843648 13.1410797,6.63503797 13.1410797,7.08361558 C13.1410797,7.56669916 12.2808952,8.19027133 11.0510038,8.59694883 Z M7.36132976,5.96956569 C7.98490193,5.96956569 8.49016792,6.47483168 8.49016792,7.09840385 C8.49016792,7.72197602 7.98490193,8.22724201 7.36132976,8.22724201 C6.73775758,8.22724201 6.2324916,7.72197602 6.2324916,7.09840385 C6.2324916,6.47483168 6.73775758,5.96956569 7.36132976,5.96956569 Z" id="Shape" fill="#FFFFFF"></path>
                <rect id="Rectangle-5" x="0" y="0" width="12.62" height="12.62"></rect>
            </g>
            <g id="lightning-logo" opacity="0.3" transform="translate(11.000000, 106.000000)">
                <g id="Group-7" transform="translate(3.341347, 1.635012)"></g>
                <rect id="Rectangle-4" fill-rule="nonzero" x="0" y="0" width="14.0625" height="14.0625"></rect>
                <path d="M6.30869681,11.7484618 L6.35904915,11.3738061 C6.54317019,11.3985513 6.73011785,11.4110353 6.91883084,11.4110353 C9.23319609,11.4110353 11.1099256,9.51770651 11.1099256,7.18136646 C11.1099256,6.6837909 11.0247799,6.19801209 10.8603834,5.73994856 L11.2161868,5.61225264 C11.3952341,6.11113824 11.4879498,6.64010588 11.4879498,7.18136646 C11.4879498,9.72574197 9.44272188,11.7890595 6.91883084,11.7890595 C6.7132924,11.7890595 6.50952307,11.7754521 6.30869681,11.7484618 Z" id="Stroke-1" fill="#FFFFFF" fill-rule="nonzero"></path>
                <path d="M5.53298686,2.78931527 L5.64840162,3.14928988 C5.56161762,3.1771145 5.47623071,3.2076186 5.39227169,3.24079738 C3.79875288,3.87015804 2.72786022,5.42463945 2.72786022,7.181308 C2.72786022,8.57299163 3.39831588,9.85042393 4.50345385,10.6385192 L4.28396952,10.9462999 C3.08021509,10.0878793 2.34983603,8.69627372 2.34983603,7.181308 C2.34983603,5.26856747 3.51637916,3.57524219 5.25337425,2.88921554 C5.34506522,2.85298125 5.43829581,2.81967503 5.53298686,2.78931527 Z" id="Stroke-3" fill="#FFFFFF" fill-rule="nonzero"></path>
                <polygon id="Fill-5" fill="#FFFFFF" points="10.2204118 5.2270427 4.4003832 12.8601752 7.17576699 5.76982691 5.2950782 5.81199706 7.10640308 1.18655708 10.3894346 1.18655708 8.15662884 5.19113544"></polygon>
            </g>
            <g id="lightning-logo" opacity="0.3" transform="translate(43.000000, 9.000000)">
                <g id="Group-7" transform="translate(1.856304, 0.908340)"></g>
                <rect id="Rectangle-4" fill-rule="nonzero" x="0" y="0" width="7.8125" height="7.8125"></rect>
                <path d="M3.50483156,6.52692324 L3.53280508,6.31878116 C3.63509455,6.33252848 3.73895436,6.33946406 3.84379491,6.33946406 C5.12955338,6.33946406 6.1721809,5.28761473 6.1721809,3.98964803 C6.1721809,3.71321717 6.12487773,3.44334005 6.03354632,3.18886031 L6.23121486,3.11791813 C6.33068562,3.3950768 6.38219434,3.68894771 6.38219434,3.98964803 C6.38219434,5.40318998 5.2459566,6.5494775 3.84379491,6.5494775 C3.72960689,6.5494775 3.6164017,6.54191785 3.50483156,6.52692324 Z" id="Stroke-1" fill="#FFFFFF" fill-rule="nonzero"></path>
                <path d="M3.07388159,1.54961959 L3.1380009,1.74960549 C3.08978757,1.76506361 3.04235039,1.78201033 2.9957065,1.80044299 C2.11041827,2.1500878 1.5154779,3.01368859 1.5154779,3.98961556 C1.5154779,4.76277313 1.88795327,5.47245774 2.50191881,5.91028847 L2.37998307,6.08127771 C1.71123061,5.60437737 1.30546446,4.83126318 1.30546446,3.98961556 C1.30546446,2.92698193 1.95354398,1.98624566 2.91854125,1.60511974 C2.96948068,1.58498959 3.02127545,1.56648613 3.07388159,1.54961959 Z" id="Stroke-3" fill="#FFFFFF" fill-rule="nonzero"></path>
                <polygon id="Fill-5" fill="#FFFFFF" points="5.67800657 2.90391261 2.44465734 7.14454179 3.98653721 3.20545939 2.94171011 3.22888726 3.94800171 0.65919838 5.77190811 0.65919838 4.53146046 2.88396413"></polygon>
            </g>
            <polygon id="/" fill="#FFFFFF" points="11.66875 56 9.44375 61.425 9 61.425 11.225 56"></polygon>
            <polygon id="/" fill="#FFFFFF" points="153.345136 6 152.223664 8.734375 152 8.734375 153.121472 6"></polygon>
            <circle id="Oval" fill="#FFFFFF" fill-rule="nonzero" cx="138.390625" cy="108.390625" r="1"></circle>
            <circle id="Oval" fill="#FFFFFF" fill-rule="nonzero" cx="180.390625" cy="3.390625" r="1"></circle>
            <circle id="Oval" fill="#FFFFFF" fill-rule="nonzero" cx="21.390625" cy="22.390625" r="1"></circle>
            <circle id="Oval" fill="#FFFFFF" fill-rule="nonzero" opacity="0.4" cx="159.960938" cy="19.6015625" r="1"></circle>
            <circle id="Oval" fill="#FFFFFF" fill-rule="nonzero" cx="178.390625" cy="41.390625" r="1"></circle>
            <circle id="Oval" fill="#FFFFFF" fill-rule="nonzero" cx="92.390625" cy="7.390625" r="1"></circle>
            <circle id="Oval" fill="#FFFFFF" fill-rule="nonzero" cx="28.78125" cy="4.78125" r="1"></circle>
            <circle id="Oval" fill-opacity="0.4" fill="#FFFFFF" fill-rule="nonzero" cx="153.390625" cy="65.390625" r="1"></circle>
            <circle id="Oval" fill="#FFFFFF" fill-rule="nonzero" cx="183.78125" cy="99.78125" r="1"></circle>
            <circle id="Oval-Copy" fill="#FFFFFF" fill-rule="nonzero" opacity="0.4" cx="96.484375" cy="22.53125" r="1"></circle>
            <circle id="Oval-Copy-2" fill="#FFFFFF" fill-rule="nonzero" opacity="0.4" cx="31.703125" cy="41.28125" r="1"></circle>
            <circle id="Oval-Copy-3" fill="#FFFFFF" fill-rule="nonzero" opacity="0.2" cx="25.78125" cy="85.78125" r="1"></circle>
            <circle id="Oval-Copy-6" fill="#FFFFFF" fill-rule="nonzero" cx="59.390625" cy="84.390625" r="1"></circle>
            <circle id="Oval-Copy-7" fill="#FFFFFF" fill-rule="nonzero" cx="159.78125" cy="87.78125" r="1"></circle>
            <circle id="Oval-Copy-8" fill="#FFFFFF" fill-rule="nonzero" cx="34.78125" cy="122.78125" r="1"></circle>
        </g>
    </g>
</svg>