<?xml version="1.0" encoding="UTF-8"?>
<svg width="26px" height="23px" viewBox="0 0 26 23" version="1.1" xmlns="http://www.w3.org/2000/svg" xmlns:xlink="http://www.w3.org/1999/xlink">
    <!-- Generator: Sketch 51.1 (57501) - http://www.bohemiancoding.com/sketch -->
    <title>react</title>
    <desc>Created with Sketch.</desc>
    <defs></defs>
    <g id="spinner" stroke="none" stroke-width="1" fill="none" fill-rule="evenodd">
        <g id="Components-Badge" transform="translate(-61.000000, -56.000000)" fill-rule="nonzero">
            <g id="Group-4">
                <g id="Group-13" transform="translate(0.000000, 20.000000)">
                    <g id="Group-11" transform="translate(49.000000, 33.000000)">
                        <g id="Group-9" transform="translate(10.000000, 0.000000)">
                            <g id="react">
                                <path d="M22.9199219,10.8398437 C22.65625,10.7519531 22.3925781,10.6689453 22.1289062,10.5908203 C22.1728516,10.4101562 22.2119141,10.2294922 22.2509766,10.0488281 C22.8515625,7.13867187 22.4560547,4.79980469 21.1230469,4.02832031 C19.8388672,3.29101562 17.7441406,4.05761719 15.625,5.90332031 C15.4150391,6.08398437 15.2099609,6.27441406 15.0146484,6.46484375 C14.8828125,6.33789062 14.7460937,6.2109375 14.609375,6.08886719 C12.3876953,4.11621094 10.1611328,3.28613281 8.828125,4.0625 C7.54882812,4.8046875 7.16796875,7.00683594 7.70507812,9.76074219 C7.75878906,10.0341797 7.81738281,10.3027344 7.88574219,10.5761719 C7.57324219,10.6640625 7.265625,10.7617187 6.97753906,10.8642578 C4.37011719,11.7675781 2.5,13.1933594 2.5,14.6679687 C2.5,16.1914062 4.4921875,17.7197266 7.20214844,18.6474609 C7.421875,18.7207031 7.64160156,18.7939453 7.86621094,18.8574219 C7.79296875,19.1503906 7.72949219,19.4384766 7.67089844,19.7363281 C7.15820312,22.4462891 7.55859375,24.5947266 8.83789062,25.3320312 C10.15625,26.09375 12.3730469,25.3125 14.53125,23.4228516 C14.7021484,23.2714844 14.8730469,23.1152344 15.0439453,22.9492187 C15.2587891,23.1591797 15.4833984,23.359375 15.7080078,23.5546875 C17.7978516,25.3515625 19.8632812,26.0791016 21.1376953,25.3417969 C22.4560547,24.5800781 22.8857422,22.2705078 22.3291016,19.4580078 C22.2851562,19.2431641 22.2363281,19.0234375 22.1826172,18.7988281 C22.3388672,18.7548828 22.4902344,18.7060547 22.6416016,18.6572266 C25.4589844,17.7246094 27.5,16.2158203 27.5,14.6679687 C27.5,13.1884766 25.5761719,11.7529297 22.9199219,10.8398437 Z M16.3134766,6.69433594 C18.1298828,5.11230469 19.8242187,4.4921875 20.5957031,4.93652344 C21.4208984,5.41015625 21.7382812,7.32421875 21.2207031,9.83886719 C21.1865234,10.0048828 21.1523437,10.1660156 21.1083984,10.3271484 C20.0244141,10.0830078 18.9257812,9.90722656 17.8222656,9.80957031 C17.1875,8.90136719 16.4941406,8.03222656 15.7421875,7.21679687 C15.9326172,7.03613281 16.1181641,6.86523437 16.3134766,6.69433594 Z M9.96582031,15.9277344 C10.1904297,16.3574219 10.4199219,16.7822266 10.6640625,17.2021484 C10.9130859,17.6269531 11.1669922,18.0517578 11.4355469,18.4667969 C10.6738281,18.3837891 9.91699219,18.2617187 9.16992187,18.1005859 C9.38476562,17.3974609 9.65332031,16.6699219 9.96582031,15.9277344 Z M9.96582031,13.4570312 C9.65820312,12.7294922 9.39941406,12.0166016 9.18457031,11.328125 C9.88769531,11.171875 10.6347656,11.0449219 11.4111328,10.9472656 C11.1523437,11.3525391 10.8984375,11.7675781 10.6591797,12.1875 C10.4199219,12.6025391 10.1855469,13.0273437 9.96582031,13.4570312 Z M10.5224609,14.6923828 C10.8447266,14.0185547 11.1962891,13.359375 11.5673828,12.7099609 C11.9384766,12.0605469 12.3388672,11.4306641 12.7587891,10.8105469 C13.4912109,10.7568359 14.2382812,10.7275391 15,10.7275391 C15.7617187,10.7275391 16.5136719,10.7568359 17.2412109,10.8105469 C17.65625,11.4257812 18.0517578,12.0556641 18.4277344,12.7001953 C18.8037109,13.3447266 19.1552734,14.0039062 19.4873047,14.6728516 C19.1601562,15.3466797 18.8085937,16.0107422 18.4326172,16.6650391 C18.0615234,17.3144531 17.6660156,17.9443359 17.2509766,18.5693359 C16.5234375,18.6230469 15.7666016,18.6474609 15,18.6474609 C14.2333984,18.6474609 13.4912109,18.6230469 12.7734375,18.5791016 C12.3486328,17.9589844 11.9482422,17.3242187 11.5722656,16.6748047 C11.1962891,16.0253906 10.8496094,15.3662109 10.5224609,14.6923828 Z M19.3408203,17.1923828 C19.5898437,16.7626953 19.8242187,16.328125 20.0537109,15.8886719 C20.3662109,16.5966797 20.6396484,17.3144531 20.8789062,18.0517578 C20.1220703,18.2226562 19.3554687,18.3544922 18.5839844,18.4423828 C18.8476562,18.0322266 19.0966797,17.6123047 19.3408203,17.1923828 Z M20.0439453,13.4570312 C19.8144531,13.0273437 19.5800781,12.5976562 19.3359375,12.1777344 C19.0966797,11.7626953 18.8476562,11.3525391 18.5888672,10.9472656 C19.375,11.0449219 20.1269531,11.1767578 20.8300781,11.3378906 C20.6054687,12.0605469 20.3417969,12.7636719 20.0439453,13.4570312 Z M15.0097656,7.96386719 C15.5224609,8.52050781 16.0058594,9.10644531 16.4550781,9.71191406 C15.4882812,9.66796875 14.5166016,9.66796875 13.5498047,9.71191406 C14.0283203,9.08203125 14.5214844,8.49609375 15.0097656,7.96386719 Z M9.34570312,4.97070312 C10.1660156,4.4921875 11.9873047,5.17578125 13.90625,6.875 C14.0283203,6.98242187 14.1503906,7.09960937 14.2773437,7.21679687 C13.5205078,8.03222656 12.8222656,8.90136719 12.1826172,9.80957031 C11.0791016,9.90722656 9.98535156,10.078125 8.90136719,10.3173828 C8.83789062,10.0683594 8.78417969,9.81445312 8.73046875,9.56054687 C8.27148437,7.19726562 8.57421875,5.41503906 9.34570312,4.97070312 Z M8.14941406,17.8417969 C7.94433594,17.7832031 7.74414062,17.7197266 7.54394531,17.6513672 C6.50390625,17.3242187 5.32226562,16.8066406 4.46777344,16.1279297 C3.97460937,15.7861328 3.64257812,15.2587891 3.54980469,14.6679687 C3.54980469,13.7744141 5.09277344,12.6318359 7.31933594,11.8554687 C7.59765625,11.7578125 7.88085937,11.6699219 8.1640625,11.5869141 C8.49609375,12.6464844 8.89648437,13.6865234 9.36035156,14.6923828 C8.89160156,15.7128906 8.48632812,16.7675781 8.14941406,17.8417969 Z M13.8427734,22.6269531 C13.0371094,23.3642578 12.1044922,23.9501953 11.0888672,24.3505859 C10.546875,24.609375 9.921875,24.6337891 9.36523437,24.4140625 C8.58886719,23.9648437 8.26660156,22.2412109 8.70605469,19.921875 C8.75976562,19.6484375 8.81835937,19.375 8.88671875,19.1064453 C9.98046875,19.3408203 11.0839844,19.5019531 12.2021484,19.5849609 C12.8466797,20.4980469 13.5546875,21.3720703 14.3115234,22.1923828 C14.1552734,22.34375 13.9990234,22.4902344 13.8427734,22.6269531 Z M15.0390625,21.4404297 C14.5410156,20.9033203 14.0429687,20.3076172 13.5595703,19.6679687 C14.0283203,19.6875 14.5117187,19.6972656 15,19.6972656 C15.5029297,19.6972656 15.9960937,19.6875 16.484375,19.6630859 C16.0351562,20.2832031 15.5517578,20.8740234 15.0390625,21.4404297 Z M21.4208984,22.9052734 C21.3769531,23.5009766 21.0839844,24.0576172 20.6152344,24.4335937 C19.8388672,24.8828125 18.1835937,24.296875 16.3964844,22.7636719 C16.1914062,22.5878906 15.9863281,22.3974609 15.7763672,22.2021484 C16.5234375,21.3769531 17.2119141,20.5029297 17.8369141,19.5849609 C18.9550781,19.4921875 20.0683594,19.3212891 21.1669922,19.0722656 C21.2158203,19.2724609 21.2597656,19.4726562 21.2988281,19.6679687 C21.5380859,20.7226562 21.5771484,21.8212891 21.4208984,22.9052734 Z M22.3095703,17.65625 C22.1728516,17.7001953 22.0361328,17.7441406 21.8945312,17.7832031 C21.5527344,16.71875 21.1328125,15.6787109 20.6494141,14.6679687 C21.1181641,13.671875 21.5136719,12.6464844 21.8457031,11.5966797 C22.0996094,11.6699219 22.34375,11.7480469 22.578125,11.8261719 C24.8535156,12.6074219 26.4501953,13.7695312 26.4501953,14.6582031 C26.4501953,15.6152344 24.7460937,16.8505859 22.3095703,17.65625 Z M15,12.4511719 C16.2353516,12.4511719 17.2363281,13.4521484 17.2363281,14.6875 C17.2363281,15.9228516 16.2353516,16.9238281 15,16.9238281 C13.7646484,16.9238281 12.7636719,15.9228516 12.7636719,14.6875 C12.7636719,13.4521484 13.7646484,12.4511719 15,12.4511719 Z" id="Shape" fill="#00D8FF"></path>
                                <rect id="Rectangle-5" x="0" y="0" width="30" height="30"></rect>
                            </g>
                        </g>
                    </g>
                </g>
            </g>
        </g>
    </g>
</svg>