<?xml version="1.0" encoding="UTF-8"?>
<svg width="20px" height="16px" viewBox="0 0 20 16" version="1.1" xmlns="http://www.w3.org/2000/svg" xmlns:xlink="http://www.w3.org/1999/xlink">
    <!-- Generator: Sketch 52.6 (67491) - http://www.bohemiancoding.com/sketch -->
    <title>cloud-arrow-donwload</title>
    <desc>Created with Sketch.</desc>
    <g id="designs-page" stroke="none" stroke-width="1" fill="none" fill-rule="evenodd">
        <g id="designs-details-with-donwload-icon-hover" transform="translate(-718.000000, -233.000000)" fill="#FFFFFF">
            <g id="hover" transform="translate(704.000000, 217.000000)">
                <g id="cloud-arrow-donwload" transform="translate(14.000000, 16.000000)">
                    <path d="M16.2346562,7.5151277 L16.1072692,7.52762279 C16.1909234,7.12051081 16.2346562,6.698389 16.2346562,6.26632613 C16.2346562,2.81834971 13.4398035,0.0222396857 9.99056974,0.0222396857 C6.54259332,0.0222396857 3.7464833,2.81834971 3.7464833,6.26632613 L3.75273084,6.32876228 C1.63469548,6.63096267 0,8.43426326 0,10.6371709 C0,12.8376031 1.63096267,14.6396464 3.74644401,14.9456189 L3.74644401,15.008055 L9.99056974,15.008055 L6.09174853,10.0127701 L8.74172888,10.0127701 L8.74172888,5.01748527 C8.74172888,4.3281336 9.30121807,3.76868369 9.99053045,3.76868369 C10.6798428,3.76868369 11.239332,4.32817289 11.239332,5.01748527 L11.239332,10.0127701 L13.8893124,10.0127701 L9.99049116,15.008055 L16.2345776,15.008055 C18.30389,15.008055 19.9810216,13.3308841 19.9810216,11.261611 C19.9810216,9.19233792 18.3039686,7.5151277 16.2346562,7.5151277 Z"></path>
                </g>
            </g>
        </g>
    </g>
</svg>