<?xml version="1.0" encoding="UTF-8"?>
<svg width="48px" height="48px" viewBox="0 0 48 48" version="1.1" xmlns="http://www.w3.org/2000/svg" xmlns:xlink="http://www.w3.org/1999/xlink">
    <!-- Generator: Sketch 52.6 (67491) - http://www.bohemiancoding.com/sketch -->
    <title>Adobe_Illustrator</title>
    <desc>Created with Sketch.</desc>
    <defs>
        <radialGradient cx="39.8681818%" cy="33.311215%" fx="39.8681818%" fy="33.311215%" r="65.1963636%" id="radialGradient-1">
            <stop stop-color="#1C0A00" stop-opacity="0.85" offset="0%"></stop>
            <stop stop-color="#1C0A00" offset="76.7%"></stop>
        </radialGradient>
    </defs>
    <g id="designs-page" stroke="none" stroke-width="1" fill="none" fill-rule="evenodd">
        <g id="library-details" transform="translate(-789.000000, -217.000000)" fill-rule="nonzero">
            <g id="Adobe_Illustrator" transform="translate(789.000000, 217.000000)">
                <path d="M0,24 C0,10.7452 10.7452,0 24,0 C37.2548,0 48,10.7452 48,24 C48,37.2548 37.2548,48 24,48 C10.7452,48 0,37.2548 0,24 Z" id="path0_fill" fill="#F37021"></path>
                <path d="M2.4,24 C2.4,12.07068 12.07068,2.4 24,2.4 C35.92932,2.4 45.6,12.07068 45.6,24 C45.6,35.92932 35.92932,45.6 24,45.6 C12.07068,45.6 2.4,35.92932 2.4,24 Z" id="path0_fill" fill="url(#radialGradient-1)"></path>
                <path d="M16.0259062,28.6038452 L14.5346934,34.2491778 C14.5038147,34.4043242 14.4414926,34.4406631 14.2552793,34.4406631 L11.4897573,34.4406631 C11.3037322,34.4406631 11.2728536,34.3785292 11.3037322,34.1610607 L16.6472449,15.436549 C16.7404457,15.0948126 16.8025796,14.8007123 16.8336465,13.8687043 C16.8336465,13.7444366 16.8957804,13.6823027 16.9891694,13.6823027 L20.9344818,13.6823027 C21.0587495,13.6823027 21.1208834,13.7133697 21.1521386,13.8687043 L27.1478686,34.1921276 C27.1789354,34.347274 27.1478686,34.4406631 26.9925338,34.4406631 L23.8858405,34.4406631 C23.7306941,34.4406631 23.637305,34.4043242 23.6064264,34.2800565 L22.0530797,28.6038452 L16.0260945,28.6038452 L16.0259062,28.6038452 Z M21.2764063,25.544223 C20.7482685,23.4627384 19.5054028,18.9006062 19.0395871,16.6948539 L19.0085202,16.6948539 C18.6044618,18.9006062 17.6103198,22.6239311 16.8338348,25.544223 L21.2764063,25.544223 Z M29.7477002,15.0797499 C29.7477002,13.8681394 30.5865074,13.1536 31.6738501,13.1536 C32.8233266,13.1536 33.6,13.9302734 33.6,15.0797499 C33.6,16.3224273 32.7922597,17.0058998 31.6427832,17.0058998 C30.5243735,17.0058998 29.7477002,16.3224273 29.7477002,15.0797499 Z M29.9585788,19.3600202 C29.9585788,19.2046856 30.0207126,19.1425517 30.1760473,19.1425517 L33.1302303,19.1425517 C33.285565,19.1425517 33.3476989,19.2046856 33.3476989,19.3600202 L33.3476989,34.2231946 C33.3476989,34.3785292 33.3166319,34.4406631 33.1302303,34.4406631 L30.2071142,34.4406631 C30.0207126,34.4406631 29.9585788,34.347274 29.9585788,34.1921276 L29.9585788,19.3600202 Z" id="Shape" fill="#FF7F18"></path>
            </g>
        </g>
    </g>
</svg>