<?xml version="1.0" encoding="UTF-8"?>
<svg width="48px" height="48px" viewBox="0 0 48 48" version="1.1" xmlns="http://www.w3.org/2000/svg" xmlns:xlink="http://www.w3.org/1999/xlink">
    <!-- Generator: Sketch 52.6 (67491) - http://www.bohemiancoding.com/sketch -->
    <title>Adobe_Photoshop</title>
    <desc>Created with Sketch.</desc>
    <defs>
        <radialGradient cx="39.8681818%" cy="33.311215%" fx="39.8681818%" fy="33.311215%" r="65.1963636%" id="radialGradient-1">
            <stop stop-color="#0E0E17" stop-opacity="0.85" offset="0%"></stop>
            <stop stop-color="#0E0E17" offset="76.7%"></stop>
        </radialGradient>
    </defs>
    <g id="designs-page" stroke="none" stroke-width="1" fill="none" fill-rule="evenodd">
        <g id="library-details" transform="translate(-871.000000, -217.000000)" fill-rule="nonzero">
            <g id="Adobe_Photoshop" transform="translate(871.000000, 217.000000)">
                <path d="M0,24 C0,10.7452 10.7452,0 24,0 C37.2548,0 48,10.7452 48,24 C48,37.2548 37.2548,48 24,48 C10.7452,48 0,37.2548 0,24 Z" id="path0_fill" fill="#31C5F0"></path>
                <path d="M2.4,24 C2.4,12.07068 12.07068,2.4 24,2.4 C35.92932,2.4 45.6,12.07068 45.6,24 C45.6,35.92932 35.92932,45.6 24,45.6 C12.07068,45.6 2.4,35.92932 2.4,24 Z" id="path0_fill" fill="url(#radialGradient-1)"></path>
                <path d="M12,13.913631 C12,13.7881786 12.2689624,13.6940894 12.4257779,13.6940894 C13.6489391,13.6313631 15.4448097,13.6 17.326406,13.6 C22.595408,13.6 24.6475056,16.4854058 24.6475056,20.1862525 C24.6475056,25.016171 21.1447218,27.0861361 16.8479761,27.0861361 C16.1266246,27.0861361 15.8757198,27.0545829 15.37391,27.0545829 L15.37391,34.3574349 C15.37391,34.5144405 15.3111838,34.5771667 15.1543682,34.5771667 L12.2195418,34.5771667 C12.0627262,34.5771667 12,34.5144405 12,34.3574349 L12,13.913631 Z M15.37391,24.0125516 C15.8129935,24.0437246 16.1579877,24.0437246 16.9107022,24.0437246 C19.1374829,24.0437246 21.228927,23.259647 21.228927,20.2487886 C21.228927,17.8336393 19.7333819,16.6106682 17.1929702,16.6106682 C16.4402557,16.6106682 15.7189042,16.6418412 15.37391,16.6733944 L15.37391,24.0123615 L15.37391,24.0125516 Z M31.7344274,21.7544078 C30.2289982,21.7544078 29.7271885,22.5071224 29.7271885,23.1343846 C29.7271885,23.824373 30.0721826,24.2946294 32.0796116,25.3298021 C35.0591068,26.772505 36,28.1524818 36,30.1908936 C36,33.2333051 33.6791301,34.8641866 30.5428194,34.8641866 C28.8805746,34.8641866 27.4658134,34.5190024 26.6503726,34.0487458 C26.5249202,33.9860197 26.4935571,33.8919303 26.4935571,33.7351148 L26.4935571,30.9437982 C26.4935571,30.7556196 26.5876464,30.6928934 26.7130989,30.7867926 C27.904897,31.5706802 29.288105,31.9158645 30.5428194,31.9158645 C32.0482485,31.9158645 32.6755106,31.2886024 32.6755106,30.4417985 C32.6755106,29.7518101 32.2364271,29.155721 30.3232776,28.1522917 C27.6260504,26.8662142 26.4969786,25.5489637 26.4969786,23.3537362 C26.4969786,20.9074139 28.4101281,18.8686218 31.7344274,18.8686218 C33.3653089,18.8686218 34.5168102,19.1195267 35.1440723,19.4016046 C35.3008878,19.495884 35.332251,19.6525094 35.332251,19.7779618 L35.332251,22.38167 C35.332251,22.5382954 35.2381616,22.6325749 35.049983,22.5698486 C34.2033691,22.068039 32.9577786,21.7544078 31.7344274,21.7544078 Z" id="Shape" fill="#31C5F0"></path>
            </g>
        </g>
    </g>
</svg>