<?xml version="1.0" encoding="UTF-8"?>
<svg width="1024px" height="344px" viewBox="0 0 1024 344" version="1.1" xmlns="http://www.w3.org/2000/svg" xmlns:xlink="http://www.w3.org/1999/xlink">
    <!-- Generator: Sketch 51.2 (57519) - http://www.bohemiancoding.com/sketch -->
    <title>background-home</title>
    <desc>Created with Sketch.</desc>
    <defs></defs>
    <g id="home" stroke="none" stroke-width="1" fill="none" fill-rule="evenodd">
        <g id="background-home">
            <polygon id="Rectangle-3" fill="#16325C" fill-rule="nonzero" points="0 0 1024 0 1024 276 0 344"></polygon>
            <g id="shapes" transform="translate(10.000000, 11.000000)">
                <g id="Group-9" transform="translate(99.000000, 0.000000)">
                    <g id="Group-19" transform="translate(886.600735, 12.600735) rotate(18.000000) translate(-886.600735, -12.600735) translate(876.600735, 2.600735)">
                        <rect id="shape" x="0" y="0" width="20" height="20"></rect>
                        <g id="open-tag-" transform="translate(1.380952, 5.833333)">
                            <polygon id="Line-2" fill="#FFFFFF" points="6.4733288 0 0 3.53332114 0 4.69178709 6.4733288 8.22510823 6.4733288 7.06664228 1.04849692 4.11255411 6.4733288 1.15846595"></polygon>
                            <polygon id="Line-3" fill-opacity="0.246490036" fill="#000000" points="0 4.69178709 2.11295368 4.69178709 1.04849692 4.11255411"></polygon>
                        </g>
                        <g id="close-tag-" transform="translate(15.333333, 9.976190) scale(-1, 1) translate(-15.333333, -9.976190) translate(12.047619, 5.833333)">
                            <polygon id="Line-2" fill="#FFFFFF" points="6.4733288 0 0 3.53332114 0 4.69178709 6.4733288 8.22510823 6.4733288 7.06664228 1.04849692 4.11255411 6.4733288 1.15846595"></polygon>
                            <polygon id="Line-3" fill-opacity="0.246490036" fill="#000000" points="0 4.69178709 2.11295368 4.69178709 1.04849692 4.11255411"></polygon>
                        </g>
                    </g>
                    <g id="Group-19" transform="translate(414.000000, 51.000000)">
                        <rect id="shape" x="0" y="0" width="12" height="12"></rect>
                        <g id="open-tag-" transform="translate(0.828571, 3.500000)">
                            <polygon id="Line-2" fill="#FFFFFF" points="3.88399728 0 0 2.11999268 0 2.81507225 3.88399728 4.93506494 3.88399728 4.23998537 0.629098151 2.46753247 3.88399728 0.695079568"></polygon>
                            <polygon id="Line-3" fill-opacity="0.246490036" fill="#000000" points="0 2.96753247 1.26777221 2.96753247 0.629098151 2.46753247"></polygon>
                        </g>
                        <g id="close-tag-" transform="translate(9.200000, 5.985714) scale(-1, 1) translate(-9.200000, -5.985714) translate(7.228571, 3.500000)">
                            <polygon id="Line-2" fill="#FFFFFF" points="3.88399728 0 0 2.11999268 0 2.81507225 3.88399728 4.93506494 3.88399728 4.23998537 0.629098151 2.46753247 3.88399728 0.695079568"></polygon>
                            <polygon id="Line-3" fill-opacity="0.246490036" fill="#000000" points="0 2.96753247 1.26777221 2.96753247 0.629098151 2.46753247"></polygon>
                        </g>
                    </g>
                    <g id="Group-19" opacity="0.4" transform="translate(569.000000, 193.000000) rotate(-25.000000) translate(-569.000000, -193.000000) translate(563.000000, 187.000000)">
                        <rect id="shape" x="0" y="0" width="12" height="12"></rect>
                        <g id="open-tag-" transform="translate(0.828571, 3.500000)">
                            <polygon id="Line-2" fill="#FFFFFF" points="3.88399728 0 0 2.11999268 0 2.81507225 3.88399728 4.93506494 3.88399728 4.23998537 0.629098151 2.46753247 3.88399728 0.695079568"></polygon>
                            <polygon id="Line-3" fill-opacity="0.246490036" fill="#000000" points="0 2.96753247 1.26777221 2.96753247 0.629098151 2.46753247"></polygon>
                        </g>
                        <g id="close-tag-" transform="translate(9.200000, 5.985714) scale(-1, 1) translate(-9.200000, -5.985714) translate(7.228571, 3.500000)">
                            <polygon id="Line-2" fill="#FFFFFF" points="3.88399728 0 0 2.11999268 0 2.81507225 3.88399728 4.93506494 3.88399728 4.23998537 0.629098151 2.46753247 3.88399728 0.695079568"></polygon>
                            <polygon id="Line-3" fill-opacity="0.246490036" fill="#000000" points="0 2.96753247 1.26777221 2.96753247 0.629098151 2.46753247"></polygon>
                        </g>
                    </g>
                    <g id="Group-19-Copy" opacity="0.3" transform="translate(115.105993, 13.424399) rotate(-21.000000) translate(-115.105993, -13.424399) translate(106.605993, 4.924399)">
                        <rect id="shape" x="0" y="0" width="17" height="17"></rect>
                        <g id="open-tag-" transform="translate(1.000000, 5.000000)">
                            <polygon id="Line-2" fill="#FFFFFF" points="5.91043065 0 0 2.98504717 0 3.96375116 5.91043065 6.94879833 5.91043065 5.97009434 0.957323274 3.47439916 5.91043065 0.97870399"></polygon>
                            <polygon id="Line-3" fill-opacity="0.246490036" fill="#000000" points="0 3.97439916 1.92921858 3.97439916 0.957323274 3.47439916"></polygon>
                        </g>
                        <g id="close-tag-" transform="translate(13.000000, 8.500000) scale(-1, 1) translate(-13.000000, -8.500000) translate(10.000000, 5.000000)">
                            <polygon id="Line-2" fill="#FFFFFF" points="5.91043065 0 0 2.98504717 0 3.96375116 5.91043065 6.94879833 5.91043065 5.97009434 0.957323274 3.47439916 5.91043065 0.97870399"></polygon>
                            <polygon id="Line-3" fill-opacity="0.246490036" fill="#000000" points="0 3.97439916 1.92921858 3.97439916 0.957323274 3.47439916"></polygon>
                        </g>
                    </g>
                    <g id="Group-19" opacity="0.4" transform="translate(768.000000, 213.000000)">
                        <rect id="shape" x="0" y="0" width="12" height="12"></rect>
                        <g id="open-tag-" transform="translate(0.828571, 3.500000)">
                            <polygon id="Line-2" fill="#FFFFFF" points="3.88399728 0 0 2.11999268 0 2.81507225 3.88399728 4.93506494 3.88399728 4.23998537 0.629098151 2.46753247 3.88399728 0.695079568"></polygon>
                            <polygon id="Line-3" fill-opacity="0.246490036" fill="#000000" points="0 2.96753247 1.26777221 2.96753247 0.629098151 2.46753247"></polygon>
                        </g>
                        <g id="close-tag-" transform="translate(9.200000, 5.985714) scale(-1, 1) translate(-9.200000, -5.985714) translate(7.228571, 3.500000)">
                            <polygon id="Line-2" fill="#FFFFFF" points="3.88399728 0 0 2.11999268 0 2.81507225 3.88399728 4.93506494 3.88399728 4.23998537 0.629098151 2.46753247 3.88399728 0.695079568"></polygon>
                            <polygon id="Line-3" fill-opacity="0.246490036" fill="#000000" points="0 2.96753247 1.26777221 2.96753247 0.629098151 2.46753247"></polygon>
                        </g>
                    </g>
                    <g id="react" transform="translate(14.084566, 35.084566) rotate(-15.000000) translate(-14.084566, -35.084566) translate(2.584566, 23.584566)" fill-rule="nonzero">
                        <path d="M17.437682,8.24705026 C17.237078,8.18018229 17.0364741,8.1170292 16.8358702,8.057591 C16.8693042,7.92014016 16.8990233,7.78268932 16.9287424,7.64523849 C17.3856735,5.43116553 17.0847676,3.65173442 16.0706033,3.06478219 C15.0935879,2.50383418 13.4999012,3.08707152 11.88764,4.49129899 C11.7278999,4.62874983 11.5718746,4.77363044 11.4232791,4.91851106 C11.3229771,4.82192398 11.2189603,4.72533691 11.1149434,4.63246472 C9.4246696,3.13165017 7.7306809,2.50011929 6.71651661,3.0907864 C5.74321608,3.65544931 5.45345486,5.33086357 5.86209248,7.42606012 C5.90295625,7.63409382 5.9475349,7.83841264 5.99954332,8.04644634 C5.76179052,8.11331431 5.52775261,8.18761206 5.30857425,8.2656247 C3.32482432,8.95287889 1.9020224,10.037626 1.9020224,11.1595221 C1.9020224,12.318567 3.41769651,13.4813268 5.47945907,14.1871554 C5.64662901,14.2428787 5.81379895,14.298602 5.98468377,14.3468955 C5.92896046,14.5697888 5.88066692,14.7889672 5.83608827,15.0155753 C5.44602508,17.0773379 5.75064586,18.7118884 6.72394638,19.2728364 C7.72696601,19.8523588 9.41352494,19.2579768 11.0555052,17.8203154 C11.1855263,17.7051539 11.3155473,17.5862775 11.4455684,17.4599713 C11.6090235,17.6197114 11.7799083,17.7720218 11.9507931,17.9206173 C13.540765,19.2876959 15.1121624,19.8412142 16.081748,19.2802662 C17.0847676,18.7007437 17.4116777,16.9436019 16.9881806,14.8038267 C16.9547466,14.6403717 16.9175977,14.4732017 16.8767339,14.3023169 C16.9956103,14.2688829 17.1107719,14.231734 17.2259334,14.1945852 C19.3694235,13.4850416 20.9222464,12.3371414 20.9222464,11.1595221 C20.9222464,10.0339112 19.4585808,8.94173423 17.437682,8.24705026 Z M12.4114392,5.09311077 C13.7933773,3.88948722 15.0824433,3.41769651 15.6693955,3.75575127 C16.2972115,4.11609536 16.5386792,5.57233126 16.1449011,7.48549832 C16.1188969,7.6118045 16.0928927,7.73439579 16.0594587,7.85698707 C15.2347537,7.6712427 14.398904,7.53750675 13.5593394,7.463209 C13.076404,6.77223992 12.54889,6.11098995 11.9767973,5.49060373 C12.1216779,5.3531529 12.2628437,5.22313183 12.4114392,5.09311077 Z M7.5820854,12.117963 C7.75297022,12.4448731 7.92756994,12.7680684 8.11331431,13.0875487 C8.30277357,13.4107439 8.49594773,13.7339391 8.70026654,14.0497045 C8.12074409,13.9865515 7.54493652,13.8936793 6.97655874,13.771088 C7.14001379,13.2361442 7.3443326,12.6826259 7.5820854,12.117963 Z M7.5820854,10.23823 C7.34804749,9.68471173 7.15115845,9.14233815 6.9877034,8.61853901 C7.5226472,8.49966261 8.09102499,8.40307554 8.6816921,8.32877779 C8.48480306,8.63711345 8.29162891,8.95287889 8.10959942,9.27235921 C7.92756994,9.58812465 7.74925534,9.91131986 7.5820854,10.23823 Z M8.00558257,11.1780965 C8.25076515,10.665442 8.51823705,10.1639322 8.8005685,9.66985218 C9.08289995,9.17577214 9.38752073,8.69655165 9.70700105,8.22476094 C10.2642342,8.18389717 10.832612,8.16160785 11.4121344,8.16160785 C11.9916569,8.16160785 12.5637495,8.18389717 13.1172678,8.22476094 C13.4330332,8.69283676 13.7339391,9.17205725 14.0199854,9.6624224 C14.3060318,10.1527876 14.5735037,10.6542974 14.826116,11.163237 C14.5772186,11.6758914 14.3097467,12.1811161 14.0237003,12.6789111 C13.7413689,13.1729911 13.440463,13.6522116 13.1246976,14.1277172 C12.5711793,14.1685809 11.9953718,14.1871554 11.4121344,14.1871554 C10.8288971,14.1871554 10.2642342,14.1685809 9.71814571,14.135147 C9.3949505,13.6633562 9.09032973,13.1804209 8.80428339,12.6863408 C8.51823705,12.1922608 8.25448004,11.690751 8.00558257,11.1780965 Z M14.7146694,13.0801189 C14.9041287,12.7532088 15.0824433,12.4225838 15.257043,12.0882439 C15.4947958,12.6269026 15.7028295,13.1729911 15.884859,13.7339391 C15.3090514,13.8639602 14.7258141,13.9642621 14.1388618,14.0311301 C14.3394658,13.7190796 14.528925,13.3995992 14.7146694,13.0801189 Z M15.2496132,10.23823 C15.0750135,9.91131986 14.8966989,9.58440976 14.7109545,9.26492944 C14.528925,8.949164 14.3394658,8.63711345 14.1425767,8.32877779 C14.7406736,8.40307554 15.3127663,8.5033775 15.8477101,8.62596879 C15.6768253,9.17577214 15.4762213,9.71071594 15.2496132,10.23823 Z M11.4195642,6.05898152 C11.8096274,6.4824787 12.1774012,6.9282652 12.5191709,7.38891125 C11.7836232,7.35547726 11.0443606,7.35547726 10.3088128,7.38891125 C10.6728718,6.90969076 11.0480754,6.46390426 11.4195642,6.05898152 Z M7.11029469,3.78175548 C7.73439579,3.41769651 9.12004883,3.93778076 10.5799996,5.23056161 C10.6728718,5.31228913 10.765744,5.40144643 10.8623311,5.49060373 C10.2865235,6.11098995 9.75529459,6.77223992 9.26864433,7.463209 C8.42907975,7.53750675 7.59694495,7.66752781 6.77223992,7.8495573 C6.72394638,7.66009804 6.68308262,7.46692389 6.64221886,7.27374974 C6.29301943,5.47574418 6.52334246,4.11981024 7.11029469,3.78175548 Z M6.20014725,13.5741989 C6.04412197,13.5296203 5.89181158,13.4813268 5.7395012,13.4293183 C4.94823016,13.1804209 4.04922738,12.7866428 3.39912207,12.2702734 C3.02391843,12.0102313 2.77130608,11.6090235 2.70072322,11.1595221 C2.70072322,10.4796977 3.87462767,9.61041398 5.56861637,9.01974686 C5.78036496,8.94544911 5.99582843,8.87858114 6.21129191,8.81542805 C6.46390426,9.62155864 6.76852504,10.4128297 7.12143935,11.1780965 C6.76481015,11.954508 6.45647448,12.7569237 6.20014725,13.5741989 Z M10.5317061,17.2147887 C9.91874964,17.7757367 9.20920613,18.2215232 8.43650952,18.526144 C8.02415701,18.723033 7.54865141,18.7416075 7.12515424,18.5744375 C6.53448712,18.2326679 6.28930455,16.9213126 6.62364442,15.156741 C6.66450818,14.9487073 6.70908683,14.7406736 6.76109526,14.5363548 C7.59323006,14.7146694 8.43279464,14.8372607 9.28350388,14.9004138 C9.77386903,15.5950977 10.3125277,16.2600626 10.8883353,16.8841637 C10.7694589,16.9993252 10.6505825,17.1107719 10.5317061,17.2147887 Z M11.4418535,16.312071 C11.062935,15.9034334 10.6840165,15.4502171 10.3162426,14.9635669 C10.6728718,14.9784264 11.0406457,14.9858562 11.4121344,14.9858562 C11.7947678,14.9858562 12.1699715,14.9784264 12.5414602,14.959852 C12.1996906,15.4316427 11.8319167,15.8811441 11.4418535,16.312071 Z M16.2972115,17.4265373 C16.2637775,17.8797536 16.0408842,18.3032507 15.684255,18.5892971 C15.0935879,18.9310667 13.8342411,18.4852802 12.4745922,17.3188056 C12.318567,17.1850696 12.1625417,17.040189 12.0028015,16.8915935 C12.5711793,16.2637775 13.0949785,15.5988126 13.5704841,14.9004138 C14.4211933,14.8298309 15.2681876,14.6998099 16.1040373,14.5103506 C16.1411862,14.662661 16.1746202,14.8149714 16.2043393,14.9635669 C16.3863688,15.7659826 16.4160879,16.6018323 16.2972115,17.4265373 Z M16.973321,13.4330332 C16.8693042,13.4664672 16.7652873,13.4999012 16.6575556,13.5296203 C16.3975134,12.7197748 16.0780331,11.9285038 15.7102593,11.1595221 C16.0668885,10.401685 16.3677943,9.62155864 16.6204067,8.82285783 C16.8135808,8.87858114 16.9993252,8.93801934 17.1776398,8.99745754 C18.9087774,9.59183954 20.1235456,10.4759828 20.1235456,11.1520923 C20.1235456,11.8802102 18.8270499,12.8200768 16.973321,13.4330332 Z M11.4121344,9.47296314 C12.352001,9.47296314 13.1135529,10.2345151 13.1135529,11.1743816 C13.1135529,12.1142482 12.352001,12.8758001 11.4121344,12.8758001 C10.4722679,12.8758001 9.71071594,12.1142482 9.71071594,11.1743816 C9.71071594,10.2345151 10.4722679,9.47296314 11.4121344,9.47296314 Z" id="Shape" fill="#FFFFFF" opacity="0.2"></path>
                        <rect id="Rectangle-5" x="0" y="0" width="22.8242688" height="22.8242688"></rect>
                    </g>
                    <g id="react" opacity="0.2" transform="translate(812.797959, 266.797959) rotate(-15.000000) translate(-812.797959, -266.797959) translate(804.797959, 258.797959)" fill-rule="nonzero">
                        <path d="M14.4013856,6.53719262 C14.2326446,6.48094562 14.0639036,6.42782346 13.8951626,6.37782613 C13.9232861,6.2622073 13.9482847,6.14658848 13.9732834,6.03096965 C14.3576379,4.16856909 14.1045264,2.67177402 13.251447,2.17805038 C12.4296158,1.70620057 11.0890624,2.19679938 9.73288483,3.37798631 C9.59851701,3.49360513 9.46727402,3.61547363 9.34228069,3.73734212 C9.25791019,3.65609646 9.17041487,3.5748508 9.08291954,3.49672997 C7.66112046,2.23429738 6.23619654,1.70307574 5.38311709,2.19992421 C4.56441081,2.67489885 4.32067382,4.0841986 4.66440547,5.84660449 C4.69877863,6.02159515 4.73627663,6.19346097 4.78002429,6.36845163 C4.58003497,6.42469863 4.38317048,6.48719529 4.19880533,6.55281679 C2.53014443,7.13091092 1.33333333,8.0433622 1.33333333,8.98706181 C1.33333333,9.96200975 2.60826526,10.9400825 4.34254765,11.5338008 C4.48316515,11.5806733 4.62378264,11.6275458 4.76752496,11.6681686 C4.72065246,11.8556586 4.68002963,12.0400238 4.64253164,12.2306386 C4.31442416,13.964921 4.57066047,15.3398476 5.38936676,15.8116974 C6.23307171,16.2991714 7.65174596,15.7991981 9.03292221,14.5898876 C9.14229137,14.4930178 9.25166053,14.3930232 9.36102969,14.2867788 C9.49852235,14.4211467 9.64226467,14.5492648 9.786007,14.6742581 C11.1234356,15.8241967 12.44524,16.2897969 13.2608215,15.8179471 C14.1045264,15.3304731 14.3795117,13.852427 14.0232807,12.0525231 C13.9951572,11.9150305 13.9639089,11.774413 13.9295357,11.6306706 C14.0295304,11.6025472 14.1264002,11.5712988 14.2232701,11.5400505 C16.0262988,10.9432074 17.332479,9.97763391 17.332479,8.98706181 C17.332479,8.04023736 16.1012948,7.12153642 14.4013856,6.53719262 Z M10.1734863,3.88420928 C11.3359242,2.87176334 12.4202413,2.47490953 12.913965,2.75926934 C13.4420618,3.06237816 13.6451759,4.28731275 13.3139436,5.89660182 C13.2920698,6.00284615 13.270196,6.10596565 13.2420725,6.20908514 C12.5483595,6.05284348 11.845272,5.94034949 11.1390597,5.87785283 C10.7328314,5.29663386 10.2891051,4.74041356 9.80788083,4.21856642 C9.92974932,4.1029476 10.048493,3.99357844 10.1734863,3.88420928 Z M6.11120322,9.79326876 C6.25494554,10.0682541 6.4018127,10.3401146 6.55805436,10.6088502 C6.71742085,10.8807107 6.87991217,11.1525712 7.05177799,11.418182 C6.56430402,11.3650598 6.07995488,11.286939 5.60185541,11.1838195 C5.73934807,10.7338435 5.91121389,10.2682434 6.11120322,9.79326876 Z M6.11120322,8.21210319 C5.91433873,7.74650305 5.74872257,7.29027741 5.61122991,6.84967593 C6.06120589,6.74968127 6.53930536,6.66843561 7.03615383,6.60593895 C6.87053767,6.8653001 6.70804635,7.13091092 6.55492952,7.39964657 C6.4018127,7.66525739 6.25182071,7.93711787 6.11120322,8.21210319 Z M6.46743419,9.00268597 C6.67367318,8.571459 6.89866117,8.14960652 7.13614849,7.73400372 C7.37363581,7.31840091 7.62987212,6.91529743 7.89860778,6.51844362 C8.36733275,6.48407046 8.84543222,6.46532146 9.33290619,6.46532146 C9.82038016,6.46532146 10.3016045,6.48407046 10.7672046,6.51844362 C11.0328154,6.9121726 11.2859269,7.31527607 11.5265391,7.72775405 C11.7671512,8.14023202 11.9921392,8.5620845 12.2046279,8.99018664 C11.995264,9.42141361 11.770276,9.84639092 11.5296639,10.2651186 C11.2921766,10.6807214 11.0390651,11.0838248 10.7734543,11.4838035 C10.3078541,11.5181767 9.82350499,11.5338008 9.33290619,11.5338008 C8.84230739,11.5338008 8.36733275,11.5181767 7.90798228,11.4900532 C7.63612179,11.0931993 7.37988547,10.686971 7.13927332,10.2713682 C6.89866117,9.85576542 6.67679802,9.43391295 6.46743419,9.00268597 Z M12.1108829,10.6026005 C12.2702493,10.3276152 12.4202413,10.0495051 12.5671085,9.76827009 C12.7670978,10.2213709 12.9420885,10.6807214 13.0952053,11.1525712 C12.6108562,11.2619403 12.1202574,11.3463108 11.6265337,11.4025578 C11.7952747,11.1400718 11.9546412,10.8713362 12.1108829,10.6026005 Z M12.5608588,8.21210319 C12.4139917,7.93711787 12.2639997,7.66213255 12.107758,7.3933969 C11.9546412,7.12778608 11.7952747,6.8653001 11.6296586,6.60593895 C12.1327567,6.66843561 12.613981,6.75280611 13.063957,6.8559256 C12.9202146,7.31840091 12.7514737,7.76837688 12.5608588,8.21210319 Z M9.33915586,4.6966659 C9.66726334,5.05289687 9.97662182,5.42787685 10.2641065,5.81535616 C9.6453895,5.78723266 9.02354771,5.78723266 8.40483075,5.81535616 C8.71106439,5.41225269 9.02667254,5.03727271 9.33915586,4.6966659 Z M5.71434941,2.78114318 C6.23932137,2.47490953 7.40488414,2.91238617 8.63294357,3.9998281 C8.71106439,4.06857443 8.78918522,4.14357043 8.87043088,4.21856642 C8.38608175,4.74041356 7.93923061,5.29663386 7.52987746,5.87785283 C6.82366517,5.94034949 6.12370255,6.04971865 5.42998959,6.20283547 C5.38936676,6.04346898 5.35499359,5.88097766 5.32062043,5.71848634 C5.02688611,4.20606709 5.22062577,3.06550299 5.71434941,2.78114318 Z M4.94876528,11.0182034 C4.81752229,10.9807054 4.68940413,10.9400825 4.56128597,10.8963349 C3.89569651,10.686971 3.13948689,10.3557387 2.59264109,9.92138692 C2.27703294,9.7026486 2.06454429,9.36516662 2.00517246,8.98706181 C2.00517246,8.41521734 2.99261973,7.68400638 4.41754365,7.18715791 C4.59565914,7.12466125 4.77689946,7.06841425 4.95813978,7.01529209 C5.17062844,7.69338088 5.42686476,8.35897034 5.72372391,9.00268597 C5.42373992,9.6557761 5.16437877,10.3307401 4.94876528,11.0182034 Z M8.59232073,14.0805398 C8.07672326,14.5523896 7.47988013,14.9273696 6.82991484,15.1836059 C6.48305836,15.3492221 6.08307972,15.3648463 5.72684874,15.2242288 C5.23000027,14.9367441 5.02376128,13.833678 5.30499626,12.3493823 C5.33936943,12.1743916 5.37686743,11.999401 5.42061509,11.8275351 C6.12057771,11.9775271 6.82679001,12.0806466 7.5423768,12.1337688 C7.95485477,12.7181126 8.40795558,13.2774577 8.89230472,13.8024297 C8.79231006,13.8992995 8.69231539,13.9930445 8.59232073,14.0805398 Z M9.35790486,13.3212054 C9.03917187,12.9774737 8.72043889,12.5962441 8.41108041,12.1868909 C8.71106439,12.1993903 9.02042288,12.2056399 9.33290619,12.2056399 C9.654764,12.2056399 9.97037215,12.1993903 10.2828555,12.1837661 C9.99537082,12.5806199 9.68601234,12.9587247 9.35790486,13.3212054 Z M13.4420618,14.2586553 C13.4139383,14.639885 13.2264483,14.9961159 12.9264643,15.2367281 C12.4296158,15.5242128 11.3702974,15.1492328 10.2266085,14.1680352 C10.0953655,14.0555412 9.96412249,13.9336727 9.82975466,13.8086794 C10.3078541,13.2805826 10.7484556,12.7212374 11.1484342,12.1337688 C11.864021,12.074397 12.576483,11.9650278 13.2795705,11.8056613 C13.3108188,11.9337795 13.3389423,12.0618976 13.363941,12.1868909 C13.5170578,12.8618549 13.5420564,13.5649424 13.4420618,14.2586553 Z M14.0107814,10.8994597 C13.9232861,10.9275832 13.8357908,10.9557067 13.7451706,10.9807054 C13.5264323,10.2994917 13.2576966,9.63390227 12.9483381,8.98706181 C13.2483221,8.34959585 13.5014336,7.69338088 13.7139223,7.02154176 C13.8764136,7.06841425 14.0326552,7.11841159 14.1826472,7.16840892 C15.6388195,7.66838222 16.6606399,8.41209251 16.6606399,8.98081214 C16.6606399,9.59327944 15.5700732,10.3838622 14.0107814,10.8994597 Z M9.33290619,7.56838756 C10.123489,7.56838756 10.7640798,8.20897835 10.7640798,8.99956114 C10.7640798,9.79014393 10.123489,10.4307347 9.33290619,10.4307347 C8.5423234,10.4307347 7.90173261,9.79014393 7.90173261,8.99956114 C7.90173261,8.20897835 8.5423234,7.56838756 9.33290619,7.56838756 Z" id="Shape" fill="#FFFFFF"></path>
                        <rect id="Rectangle-5" x="0" y="0" width="16" height="16"></rect>
                    </g>
                </g>
                <g id="react" opacity="0.3" transform="translate(826.494897, 108.494897) rotate(-15.000000) translate(-826.494897, -108.494897) translate(806.494897, 88.494897)" fill-rule="nonzero">
                    <path d="M36.0034639,16.3429815 C35.5816114,16.2023641 35.1597589,16.0695586 34.7379065,15.9445653 C34.8082152,15.6555183 34.8707119,15.3664712 34.9332085,15.0774241 C35.8940947,10.4214227 35.261316,6.67943504 33.1286174,5.44512595 C31.0740396,4.26550144 27.722656,5.49199845 24.3322121,8.44496577 C23.9962925,8.73401284 23.668185,9.03868407 23.3557017,9.3433553 C23.1447755,9.14024115 22.9260372,8.93712699 22.7072988,8.74182492 C19.1528011,5.58574344 15.5904914,4.25768935 13.4577927,5.49981053 C11.411027,6.68724712 10.8016846,10.2104965 11.6610137,14.6165112 C11.7469466,15.0539879 11.8406916,15.4836524 11.9500607,15.9211291 C11.4500874,16.0617466 10.9579262,16.2179882 10.4970133,16.382042 C6.32536107,17.8272773 3.33333333,20.1084055 3.33333333,22.4676545 C3.33333333,24.9050244 6.52066314,27.3502063 10.8563691,28.8345021 C11.2079129,28.9516833 11.5594566,29.0688645 11.9188124,29.1704216 C11.8016312,29.6391466 11.7000741,30.1000595 11.6063291,30.5765965 C10.7860604,34.9123025 11.4266512,38.349619 13.4734169,39.5292435 C15.5826793,40.7479284 19.1293649,39.4979952 22.5823055,36.4747191 C22.8557284,36.2325445 23.1291513,35.9825579 23.4025742,35.7169471 C23.7463059,36.0528666 24.1056617,36.373162 24.4650175,36.6856453 C27.808589,39.5604918 31.1131,40.7244922 33.1520536,39.5448677 C35.261316,38.3261827 35.9487793,34.6310675 35.0582019,30.1313078 C34.9878931,29.7875762 34.9097723,29.4360324 34.8238394,29.0766766 C35.073826,29.0063679 35.3160006,28.928247 35.5581752,28.8501262 C40.065747,27.3580184 43.3311976,24.9440848 43.3311976,22.4676545 C43.3311976,20.1005934 40.253237,17.803841 36.0034639,16.3429815 Z M25.4337158,9.71052319 C28.3398106,7.17940835 31.0506033,6.18727382 32.2849124,6.89817336 C33.6051544,7.6559454 34.1129398,10.7182819 33.284859,14.7415046 C33.2301745,15.0071154 33.1754899,15.2649141 33.1051811,15.5227128 C31.3708987,15.1321087 29.6131801,14.8508737 27.8476494,14.6946321 C26.8320786,13.2415847 25.7227628,11.8510339 24.5197021,10.5464161 C24.8243733,10.257369 25.1212325,9.98394609 25.4337158,9.71052319 Z M15.278008,24.4831719 C15.6373639,25.1706352 16.0045317,25.8502864 16.3951359,26.5221255 C16.7935521,27.2017767 17.1997804,27.8814279 17.629445,28.545455 C16.4107601,28.4126496 15.1998872,28.2173475 14.0046385,27.9595488 C14.3483702,26.8346088 14.7780347,25.6706085 15.278008,24.4831719 Z M15.278008,20.530258 C14.7858468,19.3662576 14.3718064,18.2256935 14.0280748,17.1241898 C15.1530147,16.8742032 16.3482634,16.671089 17.5903846,16.5148474 C17.1763442,17.1632503 16.7701159,17.8272773 16.3873238,18.4991164 C16.0045317,19.1631435 15.6295518,19.8427947 15.278008,20.530258 Z M16.1685855,22.5067149 C16.684183,21.4286475 17.2466529,20.3740163 17.8403712,19.3350093 C18.4340895,18.2960023 19.0746803,17.2882436 19.7465194,16.2961091 C20.9183319,16.2101761 22.1135805,16.1633036 23.3322655,16.1633036 C24.5509504,16.1633036 25.7540112,16.2101761 26.9180115,16.2961091 C27.5820386,17.2804315 28.2148173,18.2881902 28.8163476,19.3193851 C29.417878,20.3505801 29.980348,21.4052112 30.5115696,22.4754666 C29.9881601,23.553534 29.4256901,24.6159773 28.8241597,25.6627964 C28.2304414,26.7018034 27.5976627,27.7095621 26.9336357,28.7095087 C25.7696353,28.7954416 24.5587625,28.8345021 23.3322655,28.8345021 C22.1057685,28.8345021 20.9183319,28.7954416 19.7699557,28.7251329 C19.0903045,27.7329984 18.4497137,26.7174276 17.8481833,25.6784206 C17.2466529,24.6394136 16.691995,23.5847824 16.1685855,22.5067149 Z M30.2772071,26.5065014 C30.6756234,25.8190381 31.0506033,25.1237627 31.4177712,24.4206752 C31.9177445,25.5534273 32.3552212,26.7018034 32.7380132,27.8814279 C31.5271404,28.1548508 30.3006434,28.3657771 29.0663343,28.5063946 C29.4881868,27.8501796 29.886603,27.1783405 30.2772071,26.5065014 Z M31.4021471,20.530258 C31.0349792,19.8427947 30.6599992,19.1553314 30.2693951,18.4834923 C29.886603,17.8194652 29.4881868,17.1632503 29.0741464,16.5148474 C30.3318917,16.671089 31.5349525,16.8820153 32.6598924,17.139814 C32.3005366,18.2960023 31.8786841,19.4209422 31.4021471,20.530258 Z M23.3478896,11.7416647 C24.1681583,12.6322422 24.9415545,13.5696921 25.6602662,14.5383904 C24.1134738,14.4680817 22.5588693,14.4680817 21.0120769,14.5383904 C21.777661,13.5306317 22.5666814,12.5931818 23.3478896,11.7416647 Z M14.2858735,6.95285794 C15.5983034,6.18727382 18.5122103,7.28096542 21.5823589,9.99957026 C21.777661,10.1714361 21.9729631,10.3589261 22.1760772,10.5464161 C20.9652044,11.8510339 19.8480765,13.2415847 18.8246937,14.6946321 C17.0591629,14.8508737 15.3092564,15.1242966 13.574974,15.5070887 C13.4734169,15.1086725 13.387484,14.7024441 13.3015511,14.2962158 C12.5672153,10.5151677 13.0515644,7.66375748 14.2858735,6.95285794 Z M12.3719132,27.5455084 C12.0438057,27.4517634 11.7235103,27.3502063 11.4032149,27.2408372 C9.73924129,26.7174276 7.84871723,25.8893468 6.48160273,24.8034673 C5.69258236,24.2566215 5.16136072,23.4129165 5.01293115,22.4676545 C5.01293115,21.0380434 7.48154934,19.210016 11.0438591,17.9678948 C11.4891478,17.8116531 11.9422487,17.6710356 12.3953495,17.5382302 C12.9265711,19.2334522 13.5671619,20.8974259 14.3093098,22.5067149 C13.5593498,24.1394403 12.9109469,25.8268502 12.3719132,27.5455084 Z M21.4808018,35.2013496 C20.1918082,36.3809741 18.6997003,37.318424 17.0747871,37.9590148 C16.2076459,38.3730552 15.2076993,38.4121157 14.3171218,38.0605719 C13.0750007,37.3418603 12.5594032,34.584195 13.2624907,30.8734557 C13.3484236,30.435979 13.4421686,29.9985024 13.5515377,29.5688378 C15.3014443,29.9438178 17.066975,30.2016166 18.855942,30.334422 C19.8871369,31.7952815 21.0198889,33.1936443 22.2307618,34.5060742 C21.9807751,34.7482488 21.7307885,34.9826113 21.4808018,35.2013496 Z M23.3947621,33.3030135 C22.5979297,32.4436843 21.8010972,31.4906102 21.027701,30.4672274 C21.777661,30.4984757 22.5510572,30.5140999 23.3322655,30.5140999 C24.13691,30.5140999 24.9259304,30.4984757 25.7071387,30.4594153 C24.988427,31.4515498 24.2150308,32.3968118 23.3947621,33.3030135 Z M33.6051544,35.6466383 C33.5348457,36.5997124 33.0661207,37.4902899 32.3161608,38.0918203 C31.0740396,38.8105319 28.4257435,37.8730819 25.5665212,35.4200879 C25.2384137,35.1388529 24.9103062,34.8341817 24.5743867,34.5216984 C25.7696353,33.2014564 26.871139,31.8030935 27.8710856,30.334422 C29.6600526,30.1859924 31.4412075,29.9125695 33.1989261,29.5141533 C33.277047,29.8344487 33.3473557,30.1547441 33.4098524,30.4672274 C33.7926444,32.1546373 33.8551411,33.9123559 33.6051544,35.6466383 Z M35.0269535,27.2486492 C34.8082152,27.318958 34.5894769,27.3892667 34.3629265,27.4517634 C33.8160807,25.7487293 33.1442416,24.0847557 32.3708454,22.4676545 C33.1208053,20.8739896 33.753584,19.2334522 34.2848057,17.5538544 C34.691034,17.6710356 35.0816381,17.796029 35.4566181,17.9210223 C39.0970487,19.1709555 41.6515998,21.0302313 41.6515998,22.4520304 C41.6515998,23.9831986 38.9251829,25.9596556 35.0269535,27.2486492 Z M23.3322655,18.9209689 C25.3087224,18.9209689 26.9101994,20.5224459 26.9101994,22.4989028 C26.9101994,24.4753598 25.3087224,26.0768368 23.3322655,26.0768368 C21.3558085,26.0768368 19.7543315,24.4753598 19.7543315,22.4989028 C19.7543315,20.5224459 21.3558085,18.9209689 23.3322655,18.9209689 Z" id="Shape" fill="#FFFFFF"></path>
                    <rect id="Rectangle-5" x="0" y="0" width="40" height="40"></rect>
                </g>
                <g id="lightning-logo" opacity="0.3" transform="translate(213.000000, 222.000000)">
                    <g id="Group-7" transform="translate(8.553849, 4.185632)"></g>
                    <rect id="Rectangle-4" fill-rule="nonzero" x="0" y="0" width="36" height="36"></rect>
                    <path d="M16.1502638,30.0760623 L16.2791658,29.1169436 C16.7505157,29.1802912 17.2291017,29.2122504 17.712207,29.2122504 C23.636982,29.2122504 28.4414096,24.3653287 28.4414096,18.3842981 C28.4414096,17.1105047 28.2234366,15.8669109 27.8025814,14.6942683 L28.7134381,14.3673668 C29.1717993,15.6445139 29.4091515,16.9986711 29.4091515,18.3842981 C29.4091515,24.8978994 24.173368,30.1799923 17.712207,30.1799923 C17.1860285,30.1799923 16.664379,30.1451575 16.1502638,30.0760623 Z" id="Stroke-1" fill="#FFFFFF" fill-rule="nonzero"></path>
                    <path d="M14.1644464,7.14064709 L14.4599081,8.06218211 C14.2377411,8.13341311 14.0191506,8.21150361 13.8042155,8.29644129 C9.72480738,9.90760458 6.98332217,13.887077 6.98332217,18.3841485 C6.98332217,21.9468586 8.69968866,25.2170853 11.5288419,27.2346093 L10.966962,28.0225277 C7.88535063,25.8249709 6.01558024,22.2624607 6.01558024,18.3841485 C6.01558024,13.4875327 9.00193064,9.15262001 13.4486381,7.39639178 C13.683367,7.30363201 13.9220373,7.21836809 14.1644464,7.14064709 Z" id="Stroke-3" fill="#FFFFFF" fill-rule="nonzero"></path>
                    <polygon id="Fill-5" fill="#FFFFFF" points="26.1642543 13.3812293 11.264981 32.9220486 18.3699635 14.7707569 13.5554002 14.8787125 18.1923919 3.03758614 26.5969526 3.03758614 20.8809698 13.2893067"></polygon>
                </g>
                <g id="lightning-logo" opacity="0.3" transform="translate(627.000000, 59.000000)">
                    <g id="Group-7" transform="translate(4.752138, 2.325351)"></g>
                    <rect id="Rectangle-4" fill-rule="nonzero" x="0" y="0" width="20" height="20"></rect>
                    <path d="M8.9723688,16.7089235 L9.04398101,16.1760798 C9.30584205,16.2112729 9.57172317,16.229028 9.84011498,16.229028 C13.1316567,16.229028 15.8007831,13.5362937 15.8007831,10.213499 C15.8007831,9.50583595 15.679687,8.81495052 15.4458786,8.1634824 L15.9519101,7.98187042 C16.2065552,8.6913966 16.3384175,9.44370614 16.3384175,10.213499 C16.3384175,13.8321664 13.4296489,16.7666624 9.84011498,16.7666624 C9.54779363,16.7666624 9.25798836,16.7473097 8.9723688,16.7089235 Z" id="Stroke-1" fill="#FFFFFF" fill-rule="nonzero"></path>
                    <path d="M7.86913686,3.96702616 L8.0332823,4.47899006 C7.90985618,4.51856284 7.788417,4.56194645 7.66900863,4.60913405 C5.40267077,5.50422477 3.87962343,7.71504278 3.87962343,10.2134158 C3.87962343,12.1926992 4.83316037,14.0094918 6.40491215,15.1303385 L6.09275665,15.5680709 C4.38075035,14.3472061 3.34198902,12.3680337 3.34198902,10.2134158 C3.34198902,7.49307374 5.00107258,5.08478889 7.47146561,4.10910654 C7.60187053,4.05757334 7.73446515,4.01020449 7.86913686,3.96702616 Z" id="Stroke-3" fill="#FFFFFF" fill-rule="nonzero"></path>
                    <polygon id="Fill-5" fill="#FFFFFF" points="14.5356968 7.43401629 6.25832278 18.290027 10.2055353 8.20597605 7.53077789 8.26595138 10.1068844 1.68754785 14.7760848 1.68754785 11.6005388 7.38294818"></polygon>
                </g>
                <circle id="Oval" fill="#FFFFFF" fill-rule="nonzero" cx="144" cy="150" r="1"></circle>
                <circle id="Oval-Copy-10" fill="#FFFFFF" fill-rule="nonzero" cx="116" cy="295" r="1"></circle>
                <circle id="Oval" fill="#FFFFFF" fill-rule="nonzero" cx="154" cy="73" r="1"></circle>
                <circle id="Oval" fill="#FFFFFF" fill-rule="nonzero" cx="343" cy="71" r="1"></circle>
                <circle id="Oval" fill="#FFFFFF" fill-rule="nonzero" cx="409.5" cy="26.5" r="2"></circle>
                <circle id="Oval" fill="#FFFFFF" fill-rule="nonzero" opacity="0.3" cx="444" cy="92" r="1"></circle>
                <circle id="Oval" fill="#FFFFFF" fill-rule="nonzero" cx="715" cy="116" r="2"></circle>
                <circle id="Oval" fill="#FFFFFF" fill-rule="nonzero" cx="761" cy="23" r="1"></circle>
                <circle id="Oval" fill="#FFFFFF" fill-rule="nonzero" cx="913" cy="32" r="1"></circle>
                <circle id="Oval" fill="#FFFFFF" fill-rule="nonzero" cx="938" cy="134" r="1"></circle>
                <circle id="Oval" fill="#FFFFFF" fill-rule="nonzero" opacity="0.4" cx="900" cy="90" r="2"></circle>
                <circle id="Oval" fill="#FFFFFF" fill-rule="nonzero" cx="798" cy="189" r="2"></circle>
                <circle id="Oval" fill-opacity="0.4" fill="#FFFFFF" fill-rule="nonzero" cx="765" cy="243" r="1"></circle>
                <circle id="Oval" fill="#FFFFFF" fill-rule="nonzero" cx="899" cy="190" r="2"></circle>
                <circle id="Oval" fill="#FFFFFF" fill-rule="nonzero" cx="941" cy="224" r="1"></circle>
                <circle id="Oval-Copy" fill="#FFFFFF" fill-rule="nonzero" opacity="0.4" cx="247" cy="99" r="2"></circle>
                <circle id="Oval-Copy-2" fill="#FFFFFF" fill-rule="nonzero" cx="53" cy="91" r="1"></circle>
                <circle id="Oval-Copy-3" fill="#FFFFFF" fill-rule="nonzero" opacity="0.2" cx="2" cy="223" r="2"></circle>
                <circle id="Oval-Copy-6" fill="#FFFFFF" fill-rule="nonzero" cx="337" cy="254" r="1"></circle>
                <circle id="Oval-Copy-7" fill="#FFFFFF" fill-rule="nonzero" cx="137" cy="227" r="2"></circle>
                <circle id="Oval-Copy-8" fill="#FFFFFF" fill-rule="nonzero" cx="287" cy="186" r="2"></circle>
                <circle id="Oval-Copy-11" fill="#FFFFFF" fill-rule="nonzero" cx="459" cy="279" r="2"></circle>
                <polygon id="/" fill="#FFFFFF" points="91.832 148 86.136 161.888 85 161.888 90.696 148"></polygon>
                <polygon id="/-copy" fill="#FFFFFF" opacity="0.3" points="535.919355 249 531.817972 259 531 259 535.101382 249"></polygon>
                <polygon id="/" fill="#FFFFFF" opacity="0.4" points="25.9354839 12 22.6543779 20 22 20 25.281106 12"></polygon>
                <polygon id="/" fill="#FFFFFF" points="599.443548 15 596.572581 22 596 22 598.870968 15"></polygon>
                <polygon id="/" fill="#FFFFFF" points="998.935484 91 995.654378 99 995 99 998.281106 91"></polygon>
                <g id="code" transform="translate(65.600735, 258.600735) rotate(-24.000000) translate(-65.600735, -258.600735) translate(55.600735, 248.600735)">
                    <rect id="shape" x="0" y="0" width="20" height="20"></rect>
                    <g id="open-tag-" transform="translate(1.380952, 5.833333)">
                        <polygon id="Line-2" fill="#FFFFFF" points="6.4733288 0 0 3.53332114 0 4.69178709 6.4733288 8.22510823 6.4733288 7.06664228 1.04849692 4.11255411 6.4733288 1.15846595"></polygon>
                        <polygon id="Line-3" fill-opacity="0.246490036" fill="#000000" points="0 4.69178709 2.11295368 4.69178709 1.04849692 4.11255411"></polygon>
                    </g>
                    <g id="close-tag-" transform="translate(15.333333, 9.976190) scale(-1, 1) translate(-15.333333, -9.976190) translate(12.047619, 5.833333)">
                        <polygon id="Line-2" fill="#FFFFFF" points="6.4733288 0 0 3.53332114 0 4.69178709 6.4733288 8.22510823 6.4733288 7.06664228 1.04849692 4.11255411 6.4733288 1.15846595"></polygon>
                        <polygon id="Line-3" fill-opacity="0.246490036" fill="#000000" points="0 4.69178709 2.11295368 4.69178709 1.04849692 4.11255411"></polygon>
                    </g>
                </g>
            </g>
            <path d="M336.664,128 L332.156,120.748 L328.012,120.748 L328.012,128 L325.52,128 L325.52,108.176 L332.044,108.176 C333.332006,108.176 334.503328,108.413998 335.558,108.89 C336.612672,109.366002 337.447997,110.084662 338.064,111.046 C338.680003,112.007338 338.988,113.17866 338.988,114.56 C338.988,116.128008 338.582004,117.387995 337.77,118.34 C336.957996,119.292005 335.880007,119.963998 334.536,120.356 L339.52,128 L336.664,128 Z M331.96,118.844 C333.248006,118.844 334.316662,118.480004 335.166,117.752 C336.015338,117.023996 336.44,115.960007 336.44,114.56 C336.44,113.103993 336.001338,112.007337 335.124,111.27 C334.246662,110.532663 333.164006,110.164 331.876,110.164 L327.984,110.164 L327.984,118.844 L331.96,118.844 Z M354.444,121.728 L343.86,121.728 C343.953334,123.184007 344.391996,124.341329 345.176,125.2 C345.960004,126.058671 347.079993,126.488 348.536,126.488 C349.394671,126.488 350.164663,126.371335 350.846,126.138 C351.527337,125.904665 352.21333,125.554669 352.904,125.088 L353.968,126.628 C353.165329,127.20667 352.311338,127.645332 351.406,127.944 C350.500662,128.242668 349.497339,128.392 348.396,128.392 C346.211989,128.392 344.508673,127.70134 343.286,126.32 C342.063327,124.93866 341.452,123.100011 341.452,120.804 C341.452,119.329326 341.713331,118.032006 342.236,116.912 C342.758669,115.791994 343.519328,114.919336 344.518,114.294 C345.516672,113.668664 346.715993,113.356 348.116,113.356 C350.18801,113.356 351.769995,114.027993 352.862,115.372 C353.954005,116.716007 354.5,118.498656 354.5,120.72 C354.5,121.168002 354.481334,121.503999 354.444,121.728 Z M352.176,119.88 C352.138666,118.461326 351.77467,117.322671 351.084,116.464 C350.39333,115.605329 349.394673,115.176 348.088,115.176 C346.76266,115.176 345.736004,115.619329 345.008,116.506 C344.279996,117.392671 343.888,118.517327 343.832,119.88 L352.176,119.88 Z M357.048,124.108 C357.048,122.259991 357.715327,120.97667 359.05,120.258 C360.384673,119.53933 362.395987,119.18 365.084,119.18 C365.737337,119.18 366.231998,119.189333 366.568,119.208 L366.568,118.396 C366.568,117.331995 366.27867,116.538669 365.7,116.016 C365.12133,115.493331 364.234673,115.232 363.04,115.232 C361.527992,115.232 360.100007,115.633329 358.756,116.436 L357.916,114.84 C359.521341,113.850662 361.27599,113.356 363.18,113.356 C365.177343,113.356 366.637995,113.822662 367.562,114.756 C368.486005,115.689338 368.948,117.10799 368.948,119.012 L368.948,124.836 C368.948,125.862672 369.013333,126.917328 369.144,128 L366.96,128 C366.829333,127.178663 366.764,126.534669 366.764,126.068 L366.68,126.068 C366.157331,126.833337 365.499337,127.411998 364.706,127.804 C363.912663,128.196002 362.890673,128.392 361.64,128.392 C360.25866,128.392 359.148004,128.023337 358.308,127.286 C357.467996,126.548663 357.048,125.48934 357.048,124.108 Z M366.568,122.736 L366.568,120.888 L365.308,120.86 C363.907993,120.86 362.792671,120.953332 361.962,121.14 C361.131329,121.326668 360.515335,121.643998 360.114,122.092 C359.712665,122.540002 359.512,123.165329 359.512,123.968 C359.512,124.789337 359.754664,125.419331 360.24,125.858 C360.725336,126.296669 361.397329,126.516 362.256,126.516 C363.152004,126.516 363.926663,126.324669 364.58,125.942 C365.233337,125.559331 365.727998,125.07867 366.064,124.5 C366.400002,123.92133 366.568,123.333336 366.568,122.736 Z M379.616,113.356 C380.512004,113.356 381.365996,113.491332 382.178,113.762 C382.990004,114.032668 383.71333,114.410664 384.348,114.896 L383.396,116.548 C382.313328,115.745329 381.053341,115.344 379.616,115.344 C378.085326,115.344 376.928004,115.843328 376.144,116.842 C375.359996,117.840672 374.968,119.179992 374.968,120.86 C374.968,122.502675 375.359996,123.832662 376.144,124.85 C376.928004,125.867338 378.075992,126.376 379.588,126.376 C380.876006,126.376 382.15466,125.974671 383.424,125.172 L384.292,126.852 C382.873326,127.878672 381.249342,128.392 379.42,128.392 C377.814659,128.392 376.498672,128.03267 375.472,127.314 C374.445328,126.59533 373.703336,125.666672 373.246,124.528 C372.788664,123.389328 372.56,122.166673 372.56,120.86 C372.56,118.582655 373.185327,116.762673 374.436,115.4 C375.686673,114.037327 377.413322,113.356 379.616,113.356 Z M391.124,113.748 L394.904,113.748 L394.904,115.568 L391.124,115.568 L391.124,124.164 C391.124,125.694674 391.823993,126.46 393.224,126.46 C393.728003,126.46 394.194665,126.394667 394.624,126.264 L394.988,128.028 C394.35333,128.270668 393.616004,128.392 392.776,128.392 C391.525327,128.392 390.54067,128.042003 389.822,127.342 C389.10333,126.641997 388.744,125.648006 388.744,124.36 L388.744,115.568 L386.224,115.568 L386.224,114.028 L388.716,113.748 L388.716,110.248 L391.124,109.408 L391.124,113.748 Z M408.036,125.9 L417.108,125.9 L417.108,128 L405.544,128 L405.544,108.176 L408.036,108.176 L408.036,125.9 Z M422.008,128 L419.628,128 L419.628,113.748 L422.008,113.748 L422.008,128 Z M419.264,108.876 C419.264,107.867995 419.786661,107.364 420.832,107.364 C421.858672,107.364 422.372,107.867995 422.372,108.876 C422.372,109.305335 422.250668,109.655332 422.008,109.926 C421.765332,110.196668 421.373336,110.332 420.832,110.332 C420.271997,110.332 419.870668,110.196668 419.628,109.926 C419.385332,109.655332 419.264,109.305335 419.264,108.876 Z M424.976,130.912 C424.976,130.109329 425.204664,129.386003 425.662,128.742 C426.119336,128.097997 426.870661,127.514669 427.916,126.992 C427.001329,126.581331 426.544,125.956004 426.544,125.116 C426.544,124.611997 426.725998,124.164002 427.09,123.772 C427.454002,123.379998 427.962663,123.090668 428.616,122.904 C427.738662,122.549332 427.052669,122.008004 426.558,121.28 C426.063331,120.551996 425.816,119.628006 425.816,118.508 C425.816,116.921325 426.338661,115.670671 427.384,114.756 C428.429339,113.841329 429.885324,113.384 431.752,113.384 C432.256003,113.384 432.680665,113.412 433.026,113.468 C433.371335,113.524 433.786664,113.617333 434.272,113.748 L439.228,113.748 L439.228,115.652 L436.064,115.316 C436.512002,115.633335 436.875999,116.08133 437.156,116.66 C437.436001,117.23867 437.576,117.929329 437.576,118.732 C437.576,120.244008 437.062672,121.424662 436.036,122.274 C435.009328,123.123338 433.572009,123.548 431.724,123.548 C430.790662,123.548 430.058003,123.669332 429.526,123.912 C428.993997,124.154668 428.728,124.490665 428.728,124.92 C428.728,125.685337 429.633324,126.077333 431.444,126.096 C434.076013,126.133334 435.984661,126.48333 437.17,127.146 C438.355339,127.80867 438.948,128.811993 438.948,130.156 C438.948,131.761341 438.280673,133.002662 436.946,133.88 C435.611327,134.757338 433.740012,135.196 431.332,135.196 C429.241323,135.196 427.659339,134.82267 426.586,134.076 C425.512661,133.32933 424.976,132.274673 424.976,130.912 Z M435.364,118.536 C435.364,117.509328 435.056003,116.688003 434.44,116.072 C433.823997,115.455997 432.909339,115.148 431.696,115.148 C430.575994,115.148 429.68467,115.446664 429.022,116.044 C428.35933,116.641336 428.028,117.443995 428.028,118.452 C428.028,119.516005 428.33133,120.346664 428.938,120.944 C429.54467,121.541336 430.463994,121.84 431.696,121.84 C434.141346,121.84 435.364,120.738678 435.364,118.536 Z M436.596,130.352 C436.596,129.791997 436.386002,129.334668 435.966,128.98 C435.545998,128.625332 434.832005,128.354668 433.824,128.168 C432.815995,127.981332 431.434675,127.888 429.68,127.888 C428.839996,128.261335 428.233335,128.685998 427.86,129.162 C427.486665,129.638002 427.3,130.183997 427.3,130.8 C427.3,132.536009 428.671986,133.404 431.416,133.404 C433.114675,133.404 434.402662,133.142669 435.28,132.62 C436.157338,132.097331 436.596,131.341338 436.596,130.352 Z M442.308,108.176 L444.688,108.176 L444.688,115.736 L444.744,115.736 C445.210669,115.026663 445.845329,114.452669 446.648,114.014 C447.450671,113.575331 448.439994,113.356 449.616,113.356 C451.408009,113.356 452.733329,113.873995 453.592,114.91 C454.450671,115.946005 454.88,117.238659 454.88,118.788 L454.88,128 L452.5,128 L452.5,119.264 C452.5,118.125328 452.220003,117.187337 451.66,116.45 C451.099997,115.712663 450.194673,115.344 448.944,115.344 C447.655994,115.344 446.624671,115.768662 445.85,116.618 C445.075329,117.467338 444.688,118.535994 444.688,119.824 L444.688,128 L442.308,128 L442.308,108.176 Z M462.244,113.748 L466.024,113.748 L466.024,115.568 L462.244,115.568 L462.244,124.164 C462.244,125.694674 462.943993,126.46 464.344,126.46 C464.848003,126.46 465.314665,126.394667 465.744,126.264 L466.108,128.028 C465.47333,128.270668 464.736004,128.392 463.896,128.392 C462.645327,128.392 461.66067,128.042003 460.942,127.342 C460.22333,126.641997 459.864,125.648006 459.864,124.36 L459.864,115.568 L457.344,115.568 L457.344,114.028 L459.836,113.748 L459.836,110.248 L462.244,109.408 L462.244,113.748 Z M469.328,116.94 C469.328,115.894661 469.262667,114.830672 469.132,113.748 L471.4,113.748 C471.493334,114.252003 471.558666,114.923996 471.596,115.764 L471.652,115.764 C472.118669,115.035996 472.771996,114.452669 473.612,114.014 C474.452004,113.575331 475.450661,113.356 476.608,113.356 C478.400009,113.356 479.729996,113.873995 480.598,114.91 C481.466004,115.946005 481.9,117.238659 481.9,118.788 L481.9,128 L479.52,128 L479.52,119.264 C479.52,118.125328 479.240003,117.187337 478.68,116.45 C478.119997,115.712663 477.214673,115.344 475.964,115.344 C474.675994,115.344 473.644671,115.768662 472.87,116.618 C472.095329,117.467338 471.708,118.535994 471.708,119.824 L471.708,128 L469.328,128 L469.328,116.94 Z M488.928,128 L486.548,128 L486.548,113.748 L488.928,113.748 L488.928,128 Z M486.184,108.876 C486.184,107.867995 486.706661,107.364 487.752,107.364 C488.778672,107.364 489.292,107.867995 489.292,108.876 C489.292,109.305335 489.170668,109.655332 488.928,109.926 C488.685332,110.196668 488.293336,110.332 487.752,110.332 C487.191997,110.332 486.790668,110.196668 486.548,109.926 C486.305332,109.655332 486.184,109.305335 486.184,108.876 Z M493.744,116.94 C493.744,115.894661 493.678667,114.830672 493.548,113.748 L495.816,113.748 C495.909334,114.252003 495.974666,114.923996 496.012,115.764 L496.068,115.764 C496.534669,115.035996 497.187996,114.452669 498.028,114.014 C498.868004,113.575331 499.866661,113.356 501.024,113.356 C502.816009,113.356 504.145996,113.873995 505.014,114.91 C505.882004,115.946005 506.316,117.238659 506.316,118.788 L506.316,128 L503.936,128 L503.936,119.264 C503.936,118.125328 503.656003,117.187337 503.096,116.45 C502.535997,115.712663 501.630673,115.344 500.38,115.344 C499.091994,115.344 498.060671,115.768662 497.286,116.618 C496.511329,117.467338 496.124,118.535994 496.124,119.824 L496.124,128 L493.744,128 L493.744,116.94 Z M509.088,130.912 C509.088,130.109329 509.316664,129.386003 509.774,128.742 C510.231336,128.097997 510.982661,127.514669 512.028,126.992 C511.113329,126.581331 510.656,125.956004 510.656,125.116 C510.656,124.611997 510.837998,124.164002 511.202,123.772 C511.566002,123.379998 512.074663,123.090668 512.728,122.904 C511.850662,122.549332 511.164669,122.008004 510.67,121.28 C510.175331,120.551996 509.928,119.628006 509.928,118.508 C509.928,116.921325 510.450661,115.670671 511.496,114.756 C512.541339,113.841329 513.997324,113.384 515.864,113.384 C516.368003,113.384 516.792665,113.412 517.138,113.468 C517.483335,113.524 517.898664,113.617333 518.384,113.748 L523.34,113.748 L523.34,115.652 L520.176,115.316 C520.624002,115.633335 520.987999,116.08133 521.268,116.66 C521.548001,117.23867 521.688,117.929329 521.688,118.732 C521.688,120.244008 521.174672,121.424662 520.148,122.274 C519.121328,123.123338 517.684009,123.548 515.836,123.548 C514.902662,123.548 514.170003,123.669332 513.638,123.912 C513.105997,124.154668 512.84,124.490665 512.84,124.92 C512.84,125.685337 513.745324,126.077333 515.556,126.096 C518.188013,126.133334 520.096661,126.48333 521.282,127.146 C522.467339,127.80867 523.06,128.811993 523.06,130.156 C523.06,131.761341 522.392673,133.002662 521.058,133.88 C519.723327,134.757338 517.852012,135.196 515.444,135.196 C513.353323,135.196 511.771339,134.82267 510.698,134.076 C509.624661,133.32933 509.088,132.274673 509.088,130.912 Z M519.476,118.536 C519.476,117.509328 519.168003,116.688003 518.552,116.072 C517.935997,115.455997 517.021339,115.148 515.808,115.148 C514.687994,115.148 513.79667,115.446664 513.134,116.044 C512.47133,116.641336 512.14,117.443995 512.14,118.452 C512.14,119.516005 512.44333,120.346664 513.05,120.944 C513.65667,121.541336 514.575994,121.84 515.808,121.84 C518.253346,121.84 519.476,120.738678 519.476,118.536 Z M520.708,130.352 C520.708,129.791997 520.498002,129.334668 520.078,128.98 C519.657998,128.625332 518.944005,128.354668 517.936,128.168 C516.927995,127.981332 515.546675,127.888 513.792,127.888 C512.951996,128.261335 512.345335,128.685998 511.972,129.162 C511.598665,129.638002 511.412,130.183997 511.412,130.8 C511.412,132.536009 512.783986,133.404 515.528,133.404 C517.226675,133.404 518.514662,133.142669 519.392,132.62 C520.269338,132.097331 520.708,131.341338 520.708,130.352 Z M549.128,110.108 L547.672,111.704 C546.98133,111.087997 546.192671,110.616668 545.306,110.29 C544.419329,109.963332 543.481338,109.8 542.492,109.8 C540.065321,109.8 538.236006,110.555992 537.004,112.068 C535.771994,113.580008 535.156,115.577321 535.156,118.06 C535.156,120.524012 535.771994,122.511992 537.004,124.024 C538.236006,125.536008 540.046655,126.292 542.436,126.292 C543.500005,126.292 544.507995,126.091335 545.46,125.69 C546.412005,125.288665 547.242663,124.74267 547.952,124.052 L549.464,125.704 C548.605329,126.562671 547.564673,127.239331 546.342,127.734 C545.119327,128.228669 543.789341,128.476 542.352,128.476 C540.27999,128.476 538.511341,128.037338 537.046,127.16 C535.580659,126.282662 534.470004,125.060008 533.714,123.492 C532.957996,121.923992 532.58,120.113344 532.58,118.06 C532.58,116.006656 532.957996,114.196008 533.714,112.628 C534.470004,111.059992 535.585326,109.842004 537.06,108.974 C538.534674,108.105996 540.317323,107.672 542.408,107.672 C543.73334,107.672 544.974661,107.881998 546.132,108.302 C547.289339,108.722002 548.287996,109.323996 549.128,110.108 Z M565.06,120.832 C565.06,122.306674 564.775336,123.617994 564.206,124.766 C563.636664,125.914006 562.815339,126.80533 561.742,127.44 C560.668661,128.07467 559.385341,128.392 557.892,128.392 C556.417326,128.392 555.138672,128.070003 554.056,127.426 C552.973328,126.781997 552.152003,125.890672 551.592,124.752 C551.031997,123.613328 550.752,122.306674 550.752,120.832 C550.752,118.554655 551.377327,116.73934 552.628,115.386 C553.878673,114.03266 555.633322,113.356 557.892,113.356 C559.404008,113.356 560.696661,113.668664 561.77,114.294 C562.843339,114.919336 563.659997,115.791994 564.22,116.912 C564.780003,118.032006 565.06,119.338659 565.06,120.832 Z M553.216,120.832 C553.216,122.530675 553.603329,123.897995 554.378,124.934 C555.152671,125.970005 556.323992,126.488 557.892,126.488 C559.478675,126.488 560.663996,125.970005 561.448,124.934 C562.232004,123.897995 562.624,122.530675 562.624,120.832 C562.624,119.133325 562.232004,117.780005 561.448,116.772 C560.663996,115.763995 559.478675,115.26 557.892,115.26 C556.305325,115.26 555.129337,115.763995 554.364,116.772 C553.598663,117.780005 553.216,119.133325 553.216,120.832 Z M568.868,116.94 C568.868,115.894661 568.802667,114.830672 568.672,113.748 L570.94,113.748 C571.033334,114.252003 571.098666,114.923996 571.136,115.764 L571.192,115.764 C571.640002,115.054663 572.269996,114.476002 573.082,114.028 C573.894004,113.579998 574.831995,113.356 575.896,113.356 C577.109339,113.356 578.098663,113.612664 578.864,114.126 C579.629337,114.639336 580.189332,115.343996 580.544,116.24 L580.6,116.24 C581.085336,115.343996 581.747996,114.639336 582.588,114.126 C583.428004,113.612664 584.435994,113.356 585.612,113.356 C586.788006,113.356 587.767996,113.612664 588.552,114.126 C589.336004,114.639336 589.914665,115.311329 590.288,116.142 C590.661335,116.972671 590.848,117.882662 590.848,118.872 L590.848,128 L588.468,128 L588.468,119.208 C588.468,118.106661 588.202003,117.18267 587.67,116.436 C587.137997,115.68933 586.284006,115.316 585.108,115.316 C584.249329,115.316 583.512003,115.539998 582.896,115.988 C582.279997,116.436002 581.813335,117.03333 581.496,117.78 C581.178665,118.52667 581.02,119.329329 581.02,120.188 L581.02,128 L578.64,128 L578.64,119.152 C578.64,118.069328 578.369336,117.159337 577.828,116.422 C577.286664,115.684663 576.437339,115.316 575.28,115.316 C574.047994,115.316 573.068004,115.749996 572.34,116.618 C571.611996,117.486004 571.248,118.55466 571.248,119.824 L571.248,128 L568.868,128 L568.868,116.94 Z M609.104,120.86 C609.104,122.278674 608.842669,123.557328 608.32,124.696 C607.797331,125.834672 607.036672,126.73533 606.038,127.398 C605.039328,128.06067 603.868007,128.392 602.524,128.392 C600.713324,128.392 599.154673,127.804006 597.848,126.628 L597.848,134.832 L595.468,134.832 L595.468,116.94 C595.468,115.894661 595.402667,114.830672 595.272,113.748 L597.54,113.748 C597.633334,114.364003 597.698666,115.091996 597.736,115.932 L597.792,115.932 C598.258669,115.147996 598.911996,114.522669 599.752,114.056 C600.592004,113.589331 601.618661,113.356 602.832,113.356 C604.194673,113.356 605.342662,113.68733 606.276,114.35 C607.209338,115.01267 607.913998,115.908661 608.39,117.038 C608.866002,118.167339 609.104,119.441326 609.104,120.86 Z M606.64,120.86 C606.64,119.142658 606.262004,117.780005 605.506,116.772 C604.749996,115.763995 603.700007,115.26 602.356,115.26 C601.478662,115.26 600.69467,115.465331 600.004,115.876 C599.31333,116.286669 598.781335,116.846663 598.408,117.556 C598.034665,118.265337 597.848,119.039996 597.848,119.88 L597.848,124.612 C598.501337,125.265337 599.149997,125.741332 599.794,126.04 C600.438003,126.338668 601.179996,126.488 602.02,126.488 C603.513341,126.488 604.656663,125.970005 605.45,124.934 C606.243337,123.897995 606.64,122.540008 606.64,120.86 Z M626.184,120.832 C626.184,122.306674 625.899336,123.617994 625.33,124.766 C624.760664,125.914006 623.939339,126.80533 622.866,127.44 C621.792661,128.07467 620.509341,128.392 619.016,128.392 C617.541326,128.392 616.262672,128.070003 615.18,127.426 C614.097328,126.781997 613.276003,125.890672 612.716,124.752 C612.155997,123.613328 611.876,122.306674 611.876,120.832 C611.876,118.554655 612.501327,116.73934 613.752,115.386 C615.002673,114.03266 616.757322,113.356 619.016,113.356 C620.528008,113.356 621.820661,113.668664 622.894,114.294 C623.967339,114.919336 624.783997,115.791994 625.344,116.912 C625.904003,118.032006 626.184,119.338659 626.184,120.832 Z M614.34,120.832 C614.34,122.530675 614.727329,123.897995 615.502,124.934 C616.276671,125.970005 617.447992,126.488 619.016,126.488 C620.602675,126.488 621.787996,125.970005 622.572,124.934 C623.356004,123.897995 623.748,122.530675 623.748,120.832 C623.748,119.133325 623.356004,117.780005 622.572,116.772 C621.787996,115.763995 620.602675,115.26 619.016,115.26 C617.429325,115.26 616.253337,115.763995 615.488,116.772 C614.722663,117.780005 614.34,119.133325 614.34,120.832 Z M629.992,116.94 C629.992,115.894661 629.926667,114.830672 629.796,113.748 L632.064,113.748 C632.157334,114.252003 632.222666,114.923996 632.26,115.764 L632.316,115.764 C632.782669,115.035996 633.435996,114.452669 634.276,114.014 C635.116004,113.575331 636.114661,113.356 637.272,113.356 C639.064009,113.356 640.393996,113.873995 641.262,114.91 C642.130004,115.946005 642.564,117.238659 642.564,118.788 L642.564,128 L640.184,128 L640.184,119.264 C640.184,118.125328 639.904003,117.187337 639.344,116.45 C638.783997,115.712663 637.878673,115.344 636.628,115.344 C635.339994,115.344 634.308671,115.768662 633.534,116.618 C632.759329,117.467338 632.372,118.535994 632.372,119.824 L632.372,128 L629.992,128 L629.992,116.94 Z M659.168,121.728 L648.584,121.728 C648.677334,123.184007 649.115996,124.341329 649.9,125.2 C650.684004,126.058671 651.803993,126.488 653.26,126.488 C654.118671,126.488 654.888663,126.371335 655.57,126.138 C656.251337,125.904665 656.93733,125.554669 657.628,125.088 L658.692,126.628 C657.889329,127.20667 657.035338,127.645332 656.13,127.944 C655.224662,128.242668 654.221339,128.392 653.12,128.392 C650.935989,128.392 649.232673,127.70134 648.01,126.32 C646.787327,124.93866 646.176,123.100011 646.176,120.804 C646.176,119.329326 646.437331,118.032006 646.96,116.912 C647.482669,115.791994 648.243328,114.919336 649.242,114.294 C650.240672,113.668664 651.439993,113.356 652.84,113.356 C654.91201,113.356 656.493995,114.027993 657.586,115.372 C658.678005,116.716007 659.224,118.498656 659.224,120.72 C659.224,121.168002 659.205334,121.503999 659.168,121.728 Z M656.9,119.88 C656.862666,118.461326 656.49867,117.322671 655.808,116.464 C655.11733,115.605329 654.118673,115.176 652.812,115.176 C651.48666,115.176 650.460004,115.619329 649.732,116.506 C649.003996,117.392671 648.612,118.517327 648.556,119.88 L656.9,119.88 Z M663.004,116.94 C663.004,115.894661 662.938667,114.830672 662.808,113.748 L665.076,113.748 C665.169334,114.252003 665.234666,114.923996 665.272,115.764 L665.328,115.764 C665.794669,115.035996 666.447996,114.452669 667.288,114.014 C668.128004,113.575331 669.126661,113.356 670.284,113.356 C672.076009,113.356 673.405996,113.873995 674.274,114.91 C675.142004,115.946005 675.576,117.238659 675.576,118.788 L675.576,128 L673.196,128 L673.196,119.264 C673.196,118.125328 672.916003,117.187337 672.356,116.45 C671.795997,115.712663 670.890673,115.344 669.64,115.344 C668.351994,115.344 667.320671,115.768662 666.546,116.618 C665.771329,117.467338 665.384,118.535994 665.384,119.824 L665.384,128 L663.004,128 L663.004,116.94 Z M682.94,113.748 L686.72,113.748 L686.72,115.568 L682.94,115.568 L682.94,124.164 C682.94,125.694674 683.639993,126.46 685.04,126.46 C685.544003,126.46 686.010665,126.394667 686.44,126.264 L686.804,128.028 C686.16933,128.270668 685.432004,128.392 684.592,128.392 C683.341327,128.392 682.35667,128.042003 681.638,127.342 C680.91933,126.641997 680.56,125.648006 680.56,124.36 L680.56,115.568 L678.04,115.568 L678.04,114.028 L680.532,113.748 L680.532,110.248 L682.94,109.408 L682.94,113.748 Z M698.648,114.868 L697.584,116.352 C696.482661,115.586663 695.288006,115.204 694,115.204 C693.103996,115.204 692.404003,115.376665 691.9,115.722 C691.395997,116.067335 691.144,116.55733 691.144,117.192 C691.144,117.658669 691.246666,118.041332 691.452,118.34 C691.657334,118.638668 692.002664,118.890666 692.488,119.096 C692.973336,119.301334 693.682662,119.515999 694.616,119.74 C696.072007,120.094668 697.149997,120.612663 697.85,121.294 C698.550004,121.975337 698.9,122.866661 698.9,123.968 C698.9,125.368007 698.377339,126.455329 697.332,127.23 C696.286661,128.004671 694.998674,128.392 693.468,128.392 C691.414656,128.392 689.69734,127.841339 688.316,126.74 L689.408,125.256 C690.04267,125.685335 690.667997,126.002666 691.284,126.208 C691.900003,126.413334 692.599996,126.516 693.384,126.516 C694.336005,126.516 695.087331,126.310669 695.638,125.9 C696.188669,125.489331 696.464,124.901337 696.464,124.136 C696.464,123.631997 696.361334,123.226002 696.156,122.918 C695.950666,122.609998 695.610002,122.353334 695.134,122.148 C694.657998,121.942666 693.944005,121.718668 692.992,121.476 C691.517326,121.102665 690.444003,120.59867 689.772,119.964 C689.099997,119.32933 688.764,118.452006 688.764,117.332 C688.764,116.118661 689.235329,115.15267 690.178,114.434 C691.120671,113.71533 692.366659,113.356 693.916,113.356 C695.745342,113.356 697.32266,113.859995 698.648,114.868 Z" id="React-Lightning-Comp" fill="#FFFFFF"></path>
            <g id="Group-10" transform="translate(404.000000, 170.000000)">
                <g id="lightning-logo" transform="translate(143.500000, 0.000000)">
                    <g id="Group-7" transform="translate(16.632485, 8.138728)"></g>
                    <rect id="Rectangle-4" fill-rule="nonzero" x="0" y="0" width="70" height="70"></rect>
                    <path d="M31.4032908,58.4812322 L31.6539335,56.6162792 C32.5704472,56.7394552 33.5010311,56.801598 34.4404024,56.801598 C45.9607983,56.801598 55.3027409,47.377028 55.3027409,35.7472464 C55.3027409,33.2704258 54.8789045,30.8523268 54.060575,28.5721884 L55.8316852,27.9365465 C56.7229431,30.4198881 57.1844613,33.0529715 57.1844613,35.7472464 C57.1844613,48.4125823 47.0037711,58.6833184 34.4404024,58.6833184 C33.4172777,58.6833184 32.4029593,58.615584 31.4032908,58.4812322 Z" id="Stroke-1" fill="#FFFFFF" fill-rule="nonzero"></path>
                    <path d="M27.541979,13.8845916 L28.116488,15.6764652 C27.6844966,15.8149699 27.2594595,15.9668126 26.8415302,16.1319692 C18.9093477,19.2647867 13.578682,27.0026497 13.578682,35.7469554 C13.578682,42.6744472 16.9160613,49.0332214 22.4171925,52.9561847 L21.3246483,54.4882483 C15.3326262,50.2152212 11.6969616,43.2881181 11.6969616,35.7469554 C11.6969616,26.2257581 17.503754,17.7967611 26.1501296,14.3818729 C26.6065469,14.2015067 27.070628,14.0357157 27.541979,13.8845916 Z" id="Stroke-3" fill="#FFFFFF" fill-rule="nonzero"></path>
                    <polygon id="Fill-5" fill="#FFFFFF" points="50.8749389 26.019057 21.9041297 64.0150944 35.7193734 28.7209162 26.3577226 28.9308298 35.3740954 5.90641749 51.7162967 5.90641749 40.6018858 25.8403186"></polygon>
                </g>
                <g id="react" fill-rule="nonzero">
                    <path d="M53.4798177,25.2929687 C52.8645833,25.0878906 52.249349,24.8942057 51.6341146,24.7119141 C51.7366536,24.2903646 51.8277995,23.8688151 51.9189453,23.4472656 C53.3203125,16.656901 52.3974609,11.1995443 49.2871094,9.39941406 C46.2906901,7.67903646 41.4029948,9.46777344 36.4583333,13.7744141 C35.9684245,14.1959635 35.4899089,14.6402995 35.0341797,15.0846354 C34.7265625,14.7884115 34.4075521,14.4921875 34.0885417,14.2073568 C28.9046224,9.60449219 23.7093099,7.66764323 20.5989583,9.47916667 C17.6139323,11.2109375 16.7252604,16.3492839 17.9785156,22.7750651 C18.1038411,23.4130859 18.2405599,24.0397135 18.4000651,24.6777344 C17.6708984,24.8828125 16.953125,25.1106771 16.2809245,25.3499349 C10.1969401,27.4576823 5.83333333,30.7845052 5.83333333,34.2252604 C5.83333333,37.7799479 10.4817708,41.3460286 16.805013,43.5107422 C17.3177083,43.6816406 17.8304036,43.8525391 18.3544922,44.000651 C18.1835937,44.6842448 18.0354818,45.3564453 17.898763,46.0514323 C16.702474,52.3746745 17.6367187,57.3876953 20.6217448,59.1080729 C23.6979167,60.8854167 28.8704427,59.0625 33.90625,54.6533203 C34.305013,54.3001302 34.703776,53.9355469 35.1025391,53.5481771 C35.6038411,54.0380859 36.1279297,54.5052083 36.6520182,54.9609375 C41.5283203,59.1536458 46.3476562,60.851237 49.3212891,59.1308594 C52.3974609,57.3535156 53.4000651,51.9645182 52.101237,45.4020182 C51.9986979,44.9007161 51.8847656,44.3880208 51.7594401,43.8639323 C52.1240234,43.7613932 52.4772135,43.6474609 52.8304036,43.5335286 C59.4042969,41.3574219 64.1666667,37.8369141 64.1666667,34.2252604 C64.1666667,30.773112 59.6777344,27.4235026 53.4798177,25.2929687 Z M38.0647786,15.6201172 C42.3030599,11.9287109 46.2565104,10.4817708 48.0566406,11.5185547 C49.9820964,12.6236979 50.7226562,17.0898437 49.514974,22.9573568 C49.4352214,23.3447266 49.3554687,23.7207031 49.2529297,24.0966797 C46.7236328,23.5270182 44.1601562,23.116862 41.5852865,22.8889974 C40.1041667,20.7698568 38.4863281,18.741862 36.7317708,16.8391927 C37.1761068,16.4176432 37.6090495,16.0188802 38.0647786,15.6201172 Z M23.2535807,37.1647135 C23.7776693,38.1673177 24.313151,39.1585286 24.8828125,40.1383464 C25.4638672,41.1295573 26.0563151,42.1207682 26.6829427,43.0891927 C24.905599,42.8955078 23.1396484,42.6106771 21.3964844,42.2347005 C21.8977865,40.5940755 22.5244141,38.8964844 23.2535807,37.1647135 Z M23.2535807,31.3997396 C22.5358073,29.7021484 21.9319661,28.038737 21.4306641,26.4322917 C23.0712891,26.0677083 24.8144531,25.7714844 26.6259766,25.5436198 C26.0221354,26.4892578 25.4296875,27.4576823 24.8714193,28.4375 C24.313151,29.4059245 23.766276,30.3971354 23.2535807,31.3997396 Z M24.5524089,34.2822266 C25.304362,32.7099609 26.1246745,31.171875 26.9905599,29.6565755 C27.8564453,28.141276 28.7906901,26.6715495 29.7705078,25.2246094 C31.4794922,25.0992839 33.2226562,25.0309245 35,25.0309245 C36.7773437,25.0309245 38.531901,25.0992839 40.2294922,25.2246094 C41.1979167,26.6601562 42.1207682,28.1298828 42.9980469,29.6337891 C43.8753255,31.1376953 44.695638,32.6757812 45.4703776,34.2366536 C44.7070312,35.8089193 43.8867187,37.3583984 43.0094401,38.8850911 C42.1435547,40.4003906 41.2207031,41.8701172 40.2522786,43.3284505 C38.5546875,43.453776 36.788737,43.5107422 35,43.5107422 C33.211263,43.5107422 31.4794922,43.453776 29.8046875,43.351237 C28.8134766,41.9042969 27.8792318,40.4231771 27.0019531,38.9078776 C26.1246745,37.3925781 25.3157552,35.8544922 24.5524089,34.2822266 Z M45.1285807,40.1155599 C45.7096354,39.1129557 46.2565104,38.0989583 46.7919922,37.0735677 C47.5211589,38.7255859 48.1591797,40.4003906 48.7174479,42.1207682 C46.9514974,42.5195312 45.1627604,42.8271484 43.3626302,43.0322266 C43.9778646,42.0751953 44.5589193,41.0953776 45.1285807,40.1155599 Z M46.7692057,31.3997396 C46.233724,30.3971354 45.686849,29.3945312 45.1171875,28.4147135 C44.5589193,27.4462891 43.9778646,26.4892578 43.3740234,25.5436198 C45.2083333,25.7714844 46.9628906,26.0791016 48.6035156,26.4550781 C48.0794271,28.141276 47.4641927,29.781901 46.7692057,31.3997396 Z M35.0227865,18.5823568 C36.2190755,19.8811849 37.3470052,21.2483724 38.3951823,22.6611328 C36.1393229,22.5585937 33.8720703,22.5585937 31.6162109,22.6611328 C32.7327474,21.1914062 33.8834635,19.8242187 35.0227865,18.5823568 Z M21.8066406,11.5983073 C23.7207031,10.4817708 27.9703776,12.0768229 32.4479167,16.0416667 C32.7327474,16.2923177 33.0175781,16.5657552 33.3138021,16.8391927 C31.5478516,18.741862 29.9186198,20.7698568 28.4261068,22.8889974 C25.851237,23.116862 23.2991536,23.515625 20.7698568,24.0738932 C20.6217448,23.4928385 20.4964193,22.9003906 20.3710937,22.3079427 C19.3001302,16.7936198 20.0065104,12.6350911 21.8066406,11.5983073 Z M19.0152995,41.6308594 C18.5367839,41.4941406 18.0696615,41.3460286 17.6025391,41.1865234 C15.1757812,40.4231771 12.4186198,39.2154948 10.4248047,37.6318359 C9.27408854,36.8343099 8.49934896,35.6038411 8.2828776,34.2252604 C8.2828776,32.1402995 11.883138,29.4742839 17.0784505,27.6627604 C17.7278646,27.4348958 18.3886719,27.2298177 19.0494792,27.0361328 C19.8242187,29.5084635 20.7584635,31.9352214 21.8408203,34.2822266 C20.7470703,36.6634115 19.8014323,39.124349 19.0152995,41.6308594 Z M32.2998047,52.796224 C30.4199219,54.5166016 28.2438151,55.8837891 25.8740234,56.8180339 C24.609375,57.421875 23.1510417,57.4788411 21.8522135,56.9661458 C20.0406901,55.9179687 19.288737,51.8961589 20.3141276,46.484375 C20.4394531,45.8463542 20.5761719,45.2083333 20.7356771,44.5817057 C23.2877604,45.1285807 25.8626302,45.5045573 28.4716797,45.6982422 C29.9755859,47.828776 31.6276042,49.8681641 33.3935547,51.7822266 C33.0289714,52.1354167 32.664388,52.4772135 32.2998047,52.796224 Z M35.0911458,50.0276693 C33.9290365,48.7744141 32.7669271,47.3844401 31.6389974,45.8919271 C32.7327474,45.9375 33.8606771,45.9602865 35,45.9602865 C36.1735026,45.9602865 37.3242187,45.9375 38.4635417,45.8805339 C37.4153646,47.327474 36.2874349,48.7060547 35.0911458,50.0276693 Z M49.9820964,53.445638 C49.8795573,54.835612 49.1959635,56.1344401 48.1022135,57.0117187 C46.2906901,58.0598958 42.4283854,56.6927083 38.2584635,53.1152344 C37.7799479,52.7050781 37.3014323,52.2607422 36.8115234,51.805013 C38.5546875,49.8795573 40.1611328,47.8401693 41.6194661,45.6982422 C44.2285156,45.4817708 46.8261719,45.0830078 49.3896484,44.5019531 C49.5035807,44.9690755 49.6061198,45.4361979 49.6972656,45.8919271 C50.2555339,48.3528646 50.3466797,50.9163411 49.9820964,53.445638 Z M52.0556641,41.1979167 C51.7366536,41.3004557 51.4176432,41.4029948 51.0872396,41.4941406 C50.2897135,39.0104167 49.3098958,36.5836589 48.1819661,34.2252604 C49.2757161,31.9010417 50.1985677,29.5084635 50.9733073,27.0589193 C51.5657552,27.2298177 52.1354167,27.4121094 52.6822917,27.594401 C57.9915365,29.4173177 61.7171224,32.1289062 61.7171224,34.202474 C61.7171224,36.4355469 57.7408854,39.3180339 52.0556641,41.1979167 Z M35,29.0527344 C37.882487,29.0527344 40.218099,31.3883464 40.218099,34.2708333 C40.218099,37.1533203 37.882487,39.4889323 35,39.4889323 C32.117513,39.4889323 29.781901,37.1533203 29.781901,34.2708333 C29.781901,31.3883464 32.117513,29.0527344 35,29.0527344 Z" id="Shape" fill="#00D8FF"></path>
                    <rect id="Rectangle-5" x="0" y="0" width="70" height="70"></rect>
                </g>
                <polygon id="+" fill-opacity="0.4" fill="#FFFFFF" points="115.5 34.8133333 107.193333 34.8133333 107.193333 43.1666667 105.14 43.1666667 105.14 34.8133333 96.8333333 34.8133333 96.8333333 32.8533333 105.14 32.8533333 105.14 24.5 107.193333 24.5 107.193333 32.8533333 115.5 32.8533333"></polygon>
            </g>
        </g>
    </g>
</svg>