<?xml version="1.0" encoding="UTF-8"?>
<svg width="36px" height="36px" viewBox="0 0 79 81" version="1.1" xmlns="http://www.w3.org/2000/svg" xmlns:xlink="http://www.w3.org/1999/xlink">
    <g id="design-logos-to-link-libraries" stroke="none" stroke-width="1" fill="none" fill-rule="evenodd">
        <g id="react-prismic">
            <g id="Group-34">
                <g id="Group-23">
                    <path d="M12.1627474,31.5215725 C12.5087474,33.8325725 11.1677474,37.8005725 13.1607474,41.3535725 C14.0327474,42.9095725 15.2437474,44.9605725 17.1607474,44.6685725 C19.6297474,44.2925725 18.7257474,41.7565725 18.8607474,40.0845725 C19.0347474,37.9355725 18.9577474,35.7605725 18.9057474,33.5995725 C18.7497474,27.0835725 18.2207474,20.5695725 24.5217474,15.9765725 C26.7097474,14.3815725 25.4717474,13.2965725 23.1697474,13.0605725 C17.4087474,12.4695725 12.6527474,16.2565725 12.1977474,22.0905725 C11.9917474,24.7365725 12.1627474,27.4115725 12.1627474,31.5215725" fill="#D275D4"></path>
                    <path d="M20.6742817,64.3020153 C23.6612817,64.0670153 26.6452817,63.7910153 29.6352817,63.6110153 C32.2962817,63.4500153 35.0122817,63.6740153 37.6152817,63.2190153 C40.1812817,62.7710153 42.9232817,60.8990153 42.8152817,58.5240153 C42.6802817,55.5730153 39.3762817,57.1080153 37.4472817,56.7690153 C36.3142817,56.5700153 35.1142817,56.6840153 33.9482817,56.7390153 C26.7672817,57.0800153 19.2162817,59.2140153 13.8472817,51.7880153 C12.7332817,50.2480153 11.6292817,51.1440153 11.2472817,52.9360153 C9.98528171,58.8490153 14.5942817,64.5120153 20.6742817,64.3020153" fill="#78B6FF"></path>
                    <path d="M49.3066958,12.0468961 C47.1476958,11.8118961 44.3806958,12.5188961 41.5746958,12.8648961 C38.3136958,13.2678961 34.8086958,12.6758961 32.1786958,15.3788961 C31.2766958,16.3068961 29.7246958,17.0498961 30.0936958,18.5408961 C30.5066958,20.2108961 32.2296958,19.8448961 33.4856958,19.8448961 C35.6456958,19.8458961 37.8396958,19.8638961 39.9586958,19.5058961 C47.1006958,18.2988961 53.9466958,17.8818961 58.9646958,24.5928961 C59.5346958,25.3558961 60.4036958,26.1408961 61.5226958,25.7038961 C62.6786958,25.2528961 62.4976958,24.0858961 62.5806958,23.1188961 C63.1916958,15.9738961 58.7266958,12.0448961 49.3066958,12.0468961" fill="#FE654E"></path>
                    <path d="M21.7615471,75.5097008 C24.0725471,75.0547008 27.1095471,76.0177008 29.5695471,74.1297008 C31.0295471,73.0097008 32.7875471,71.4337008 32.4465471,69.7177008 C32.0375471,67.6567008 29.6505471,68.6247008 28.1135471,68.5217008 C26.4605471,68.4107008 24.7775471,68.5597008 23.1205471,68.7277008 C14.6235471,69.5897008 7.68454706,63.8247008 7.15854706,55.3337008 C6.99354706,52.6717008 6.99654706,49.9927008 7.05454706,47.3247008 C7.11854706,44.3877008 5.72354706,42.2347008 3.64754706,40.3907008 C2.92254706,39.7467008 2.25754706,38.6957008 1.15954706,39.0837008 C-0.00545293695,39.4947008 0.224547063,40.7527008 0.223547063,41.7027008 C0.218547063,46.7087008 -0.308452937,51.8037008 0.436547063,56.7017008 C2.04954706,67.3017008 8.86954706,77.1757008 21.7615471,75.5097008" fill="#78B6FF"></path>
                    <path d="M74.726057,30.0531259 C74.442057,25.7131259 74.295057,21.0401259 73.800057,16.4041259 C72.558057,4.76812594 59.163057,-3.12187406 48.201057,1.19812594 C45.966057,2.07812594 44.107057,3.45912594 42.659057,5.33212594 C41.483057,6.85512594 42.020057,7.88112594 43.907057,7.91512594 C45.051057,7.93612594 46.197057,7.54012594 47.350057,7.39512594 C60.732057,5.70612594 67.617057,11.6841259 67.886057,25.1841259 C67.929057,27.3471259 67.824057,29.5581259 68.242057,31.6571259 C68.749057,34.2101259 70.422057,36.9821259 72.912057,36.7961259 C75.723057,36.5861259 74.346057,33.3241259 74.717057,31.3691259 C74.778057,31.0471259 74.726057,30.7041259 74.726057,30.0531259" fill="#FE654E"></path>
                    <path d="M47.4983423,75.3302451 L47.4983423,75.2592451 C49.8293423,75.2592451 52.1713423,75.4062451 54.4883423,75.2322451 C62.4473423,74.6342451 69.5803423,71.9942451 72.2233423,63.8232451 C74.2103423,57.6812451 76.1953423,50.9592451 71.5293423,44.8312451 C70.8573423,43.9472451 70.0063423,42.7172451 68.7423423,43.0582451 C67.3013423,43.4462451 67.7133423,44.9782451 67.6603423,46.0752451 C67.5313423,48.7342451 67.6863423,51.4162451 67.4193423,54.0582451 C66.4843423,63.2892451 61.2773423,68.1012451 52.0163423,68.4312451 C49.5213423,68.5202451 47.0223423,68.5102451 44.5253423,68.5402451 C42.4273423,68.5662451 40.6143423,69.3132451 39.1103423,70.7522451 C38.1713423,71.6502451 36.7063423,72.4552451 37.1053423,73.9532451 C37.5423423,75.5962451 39.2353423,75.2632451 40.5063423,75.3072451 C42.8343423,75.3862451 45.1673423,75.3302451 47.4983423,75.3302451" fill="#01B6F5"></path>
                    <path d="M26.8229993,1.03592214 L26.8229993,1.05292214 C24.9899993,1.05292214 23.1579993,1.02492214 21.3259993,1.05792214 C4.88399928,1.34592214 -0.93100072,11.9999221 0.16699928,26.7209221 C0.35799928,29.2779221 2.10899928,30.8879221 3.82399928,32.4729221 C5.74199928,34.2449221 6.76499928,33.6209221 6.84899928,31.1619221 C6.92799928,28.8319221 6.88099928,26.4979221 6.92299928,24.1669221 C7.10899928,13.6709221 12.5909993,8.12392214 22.9669993,7.93192214 C24.9659993,7.89392214 26.9669993,7.83892214 28.9629993,7.89892214 C31.6629993,7.98092214 33.8119993,6.92992214 35.5599993,4.94592214 C36.3119993,4.09292214 37.7169993,3.34292214 37.3239993,2.13792214 C36.7969993,0.521922136 35.0629993,1.11792214 33.8179993,1.06492214 C31.4899993,0.965922136 29.1549993,1.03592214 26.8229993,1.03592214" fill="#D275D4"></path>
                </g>
            </g>
            <g id="rainbow-logo" transform="translate(24.000000, 26.000000)" fill-rule="nonzero">
                <polygon id="Rectangle-path" fill="#323B45" points="52.5555556 2.44444444 52.5555556 52.5555556 2.44444444 52.5555556"></polygon>
                <rect id="Rectangle-path" fill="#1DE9B6" x="39.1111111" y="0" width="15.8888889" height="15.8888889" rx="2"></rect>
                <rect id="Rectangle-path" fill="#F4F6F9" x="39.1111111" y="19.5555556" width="15.8888889" height="15.8888889" rx="2"></rect>
                <rect id="Rectangle-path" fill="#FFCC00" x="19.5555556" y="19.5555556" width="15.8888889" height="15.8888889" rx="2"></rect>
                <rect id="Rectangle-path" fill="#01B6F5" x="39.1111111" y="39.1111111" width="15.8888889" height="15.8888889" rx="2"></rect>
                <rect id="Rectangle-path" fill="#EA4243" x="19.5555556" y="39.1111111" width="15.8888889" height="15.8888889" rx="2"></rect>
                <rect id="Rectangle-path" fill="#1AD1A3" x="0" y="39.1111111" width="15.8888889" height="15.8888889" rx="2"></rect>
            </g>
        </g>
    </g>
</svg>
