<svg xmlns="http://www.w3.org/2000/svg" width="135" height="75" viewBox="0 0 135 75">
    <g fill="none" fill-rule="nonzero">
        <path fill="#01B6F5" d="M132.077 1.102l-1.975 1.975a.347.347 0 0 0 0 .492l.329.329a.347.347 0 0 0 .492 0l1.4-1.4 1.4 1.4a.347.347 0 0 0 .492 0l.328-.329a.347.347 0 0 0 0-.492l-1.975-1.975a.345.345 0 0 0-.49 0z"/>
        <path fill="#A4A7B5" d="M2 4.218a2 2 0 1 1 0-4h75a2 2 0 0 1 0 4H2zM6 17.218a1 1 0 1 1 0-2h123.5a1 1 0 1 1 0 2H6zm0 5a1 1 0 1 1 0-2h123.5a1 1 0 1 1 0 2H6zm0 6a1 1 0 1 1 0-2h69.5a1 1 0 0 1 0 2H6z"/>
        <g>
            <path fill="#01B6F5" d="M132.077 49.398l-1.975-1.975a.347.347 0 0 1 0-.492l.329-.329a.347.347 0 0 1 .492 0l1.4 1.4 1.4-1.4a.347.347 0 0 1 .492 0l.328.329a.347.347 0 0 1 0 .492l-1.975 1.975a.345.345 0 0 1-.49 0z"/>
            <path fill="#A4A7B5" d="M2 50.218a2 2 0 1 1 0-4h56a2 2 0 0 1 0 4H2z"/>
        </g>
        <g>
            <path fill="#01B6F5" d="M132.077 73.398l-1.975-1.975a.347.347 0 0 1 0-.492l.329-.329a.347.347 0 0 1 .492 0l1.4 1.4 1.4-1.4a.347.347 0 0 1 .492 0l.328.329a.347.347 0 0 1 0 .492l-1.975 1.975a.345.345 0 0 1-.49 0z"/>
            <path fill="#A4A7B5" d="M2 74.218a2 2 0 1 1 0-4h75a2 2 0 0 1 0 4H2z"/>
        </g>
    </g>
</svg>
