<svg xmlns="http://www.w3.org/2000/svg" width="134" height="69" viewBox="0 0 134 69">
    <g fill="none" fill-rule="nonzero">
        <path fill="#01B6F5" d="M131.077.602l-1.975 1.975a.347.347 0 0 0 0 .492l.329.329a.347.347 0 0 0 .492 0l1.4-1.4 1.4 1.4a.347.347 0 0 0 .492 0l.328-.329a.347.347 0 0 0 0-.492L131.568.602a.345.345 0 0 0-.49 0z"/>
        <path fill="#A4A7B5" d="M2 4.218a2 2 0 1 1 0-4h75a2 2 0 0 1 0 4H2zM6 17.218a1 1 0 1 1 0-2h123.5a1 1 0 1 1 0 2H6zm0 5a1 1 0 1 1 0-2h123.5a1 1 0 1 1 0 2H6zm0 6a1 1 0 1 1 0-2h69.5a1 1 0 0 1 0 2H6zM6 38.218a1 1 0 1 1 0-2h123.5a1 1 0 1 1 0 2H6zm0 5a1 1 0 1 1 0-2h123.5a1 1 0 1 1 0 2H6zm0 6a1 1 0 1 1 0-2h69.5a1 1 0 0 1 0 2H6z"/>
        <g fill="#A4A7B5">
            <path d="M6 62.218a1 1 0 1 1 0-2h123.5a1 1 0 1 1 0 2H6zm0 6a1 1 0 1 1 0-2h69.5a1 1 0 0 1 0 2H6z"/>
        </g>
    </g>
</svg>
