<?xml version="1.0" encoding="UTF-8"?>
<svg width="126px" height="74px" viewBox="0 0 126 74" version="1.1" xmlns="http://www.w3.org/2000/svg" xmlns:xlink="http://www.w3.org/1999/xlink">
    <!-- Generator: Sketch 55.1 (78136) - https://sketchapp.com -->
    <title>ActivityTimeline</title>
    <desc>Created with Sketch.</desc>
    <g id="pages" stroke="none" stroke-width="1" fill="none" fill-rule="evenodd">
        <g id="componentes-V2" transform="translate(-393.000000, -859.000000)">
            <g id="ActivityTimeline" transform="translate(393.106262, 859.000000)">
                <g id="Group-95" transform="translate(13.935484, 1.161290)">
                    <path d="M13.2105958,2.32258065 L1.26894877,2.32258065 C0.568106262,2.32258065 -1.24344979e-14,1.80267289 -1.24344979e-14,1.16129032 C-1.24344979e-14,0.519907755 0.568106262,0 1.26894877,0 L13.2105958,0 C13.9114383,0 14.4795446,0.519907755 14.4795446,1.16129032 C14.4795446,1.80267289 13.9113169,2.32258065 13.2105958,2.32258065 Z" id="Path" fill="#576574"></path>
                    <path d="M110.16885,2.32258065 L98.227203,2.32258065 C97.5263605,2.32258065 96.9582543,1.80267289 96.9582543,1.16129032 C96.9582543,0.519907755 97.5263605,-1.46771484e-13 98.227203,-1.46771484e-13 L110.16885,-1.46771484e-13 C110.869693,-1.46771484e-13 111.437799,0.519907755 111.437799,1.16129032 C111.437799,1.80267289 110.869571,2.32258065 110.16885,2.32258065 Z" id="Path-Copy-13" fill="#C6CBD4"></path>
                    <path d="M109.910178,7.12942694 L1.26894877,7.12942694 C0.568106262,7.12942694 0,6.60951919 0,5.96813662 C0,5.32675405 0.568106262,4.8068463 1.26894877,4.8068463 L109.910178,4.8068463 C110.611021,4.8068463 111.179127,5.32675405 111.179127,5.96813662 C111.179127,6.60951919 110.610899,7.12942694 109.910178,7.12942694 Z" id="Path" fill="#A4A7B5"></path>
                </g>
                <g id="Group-95-Copy" transform="translate(13.935484, 53.000000)">
                    <path d="M13.2105958,2.32258065 L1.26894877,2.32258065 C0.568106262,2.32258065 -1.24344979e-14,1.80267289 -1.24344979e-14,1.16129032 C-1.24344979e-14,0.519907755 0.568106262,0 1.26894877,0 L13.2105958,0 C13.9114383,0 14.4795446,0.519907755 14.4795446,1.16129032 C14.4795446,1.80267289 13.9113169,2.32258065 13.2105958,2.32258065 Z" id="Path" fill="#576574"></path>
                    <path d="M110.16885,2.32258065 L98.227203,2.32258065 C97.5263605,2.32258065 96.9582543,1.80267289 96.9582543,1.16129032 C96.9582543,0.519907755 97.5263605,-1.46771484e-13 98.227203,-1.46771484e-13 L110.16885,-1.46771484e-13 C110.869693,-1.46771484e-13 111.437799,0.519907755 111.437799,1.16129032 C111.437799,1.80267289 110.869571,2.32258065 110.16885,2.32258065 Z" id="Path-Copy-13" fill="#C6CBD4"></path>
                    <path d="M109.910178,7.12942694 L1.26894877,7.12942694 C0.568106262,7.12942694 0,6.60951919 0,5.96813662 C0,5.32675405 0.568106262,4.8068463 1.26894877,4.8068463 L109.910178,4.8068463 C110.611021,4.8068463 111.179127,5.32675405 111.179127,5.96813662 C111.179127,6.60951919 110.610899,7.12942694 109.910178,7.12942694 Z" id="Path" fill="#A4A7B5"></path>
                </g>
                <polygon id="Rectangle" fill="#C6CBD4" points="3.48387097 5.6582315 5.02345473 5.6582315 5.02345473 51.9808121 3.48387097 51.9808121"></polygon>
                <path d="M3.48387097,59 L5.02345473,59 L5.02345473,73.1787622 C5.02345473,73.6039065 4.67880716,73.9485541 4.25366285,73.9485541 C3.82851853,73.9485541 3.48387097,73.6039065 3.48387097,73.1787622 L3.48387097,59 Z" id="Rectangle-Copy-2" fill="#C6CBD4" fill-rule="nonzero"></path>
                <path d="M4.35872684,51.9677419 C1.9504089,51.9687972 -0.00105488419,53.9219879 1.73194792e-13,56.3303058 C0.00105573983,58.7370888 1.9519439,60.6879769 4.35872684,60.6890323 C6.76704478,60.6890323 8.719372,58.736705 8.719372,56.3283871 C8.719372,53.9200692 6.76704478,51.967646 4.35872684,51.9677419 L4.35872684,51.9677419 Z" id="Path" fill="#01B6F5"></path>
                <path d="M4.36526151,2.17603713e-13 C1.95439403,2.17603713e-13 4.4408921e-15,1.95141989 4.4408921e-15,4.3586186 C4.4408921e-15,6.7658173 1.95439403,8.71723719 4.36526151,8.71723719 C6.78438835,8.71742898 8.75318822,6.7738723 8.78075142,4.3586186 C8.75328426,1.94336489 6.78438835,-9.58928692e-05 4.36526151,2.17603713e-13 Z" id="Path" fill="#01B6F5"></path>
                <g id="Group-94" transform="translate(13.893738, 15.000000)">
                    <path d="M3,-2.64677169e-13 L107.888865,-2.64677169e-13 C109.54572,-2.64981528e-13 110.888865,1.34314575 110.888865,3 L110.888865,20.2044934 C110.888865,21.8613476 109.54572,23.2044934 107.888865,23.2044934 L3,23.2044934 C1.34314575,23.2044934 -2.82188033e-14,21.8613476 -2.84217094e-14,20.2044934 L-2.84217094e-14,3 C-2.86246156e-14,1.34314575 1.34314575,-2.6437281e-13 3,-2.64677169e-13 Z" id="Rectangle" fill="#F4F6F9"></path>
                    <path d="M13.1667249,5.71020873 L5.87023909,5.71020873 C5.16939658,5.71020873 4.60129032,5.14210247 4.60129032,4.44125996 C4.60129032,3.74041746 5.16939658,3.1723112 5.87023909,3.1723112 L13.1667249,3.1723112 C13.8675674,3.1723112 14.4356736,3.74041746 14.4356736,4.44125996 C14.4356736,5.14210247 13.8674459,5.71020873 13.1667249,5.71020873 Z" id="Path" fill="#D4D5DD"></path>
                    <path d="M104.862398,15.1508008 L5.72720304,15.1508008 C5.02636053,15.1508008 4.45825427,14.5826945 4.45825427,13.881852 C4.45825427,13.1810095 5.02636053,12.6129032 5.72720304,12.6129032 L104.862398,12.6129032 C105.563241,12.6129032 106.131347,13.1810095 106.131347,13.881852 C106.131347,14.5826945 105.56312,15.1508008 104.862398,15.1508008 Z" id="Path-Copy-14" fill="#D4D5DD"></path>
                    <path d="M104.862398,19.6024137 L5.72720304,19.6024137 C5.02636053,19.6024137 4.45825427,19.0343074 4.45825427,18.3334649 C4.45825427,17.6326224 5.02636053,17.0645161 5.72720304,17.0645161 L104.862398,17.0645161 C105.563241,17.0645161 106.131347,17.6326224 106.131347,18.3334649 C106.131347,19.0343074 105.56312,19.6024137 104.862398,19.6024137 Z" id="Path-Copy-15" fill="#D4D5DD"></path>
                    <path d="M105.543727,10.517055 L5.87023909,10.517055 C5.16939658,10.517055 4.60129032,9.94894877 4.60129032,9.24810626 C4.60129032,8.54726376 5.16939658,7.9791575 5.87023909,7.9791575 L105.543727,7.9791575 C106.244569,7.9791575 106.812676,8.54726376 106.812676,9.24810626 C106.812676,9.94894877 106.244448,10.517055 105.543727,10.517055 Z" id="Path" fill="#D4D5DD"></path>
                </g>
            </g>
        </g>
    </g>
</svg>