<svg xmlns="http://www.w3.org/2000/svg" width="146" height="78" viewBox="0 0 146 78">
    <g fill="none" fill-rule="nonzero">
        <g fill="#01B6F5">
            <path d="M11.77 15.622L1.343 8.772a1 1 0 0 1 0-1.672L11.77.25a1 1 0 0 1 1.385.286l.292.445a1 1 0 0 1-.286 1.385l-8.48 5.57 8.48 5.57a1 1 0 0 1 .286 1.384l-.292.445a1 1 0 0 1-1.385.287zM32.536 8.772l-10.43 6.85a1 1 0 0 1-1.384-.286l-.294-.446a1 1 0 0 1 .287-1.385l8.48-5.568-8.48-5.57A1 1 0 0 1 20.428.98l.294-.446A1 1 0 0 1 22.106.25L32.536 7.1a1 1 0 0 1 0 1.671z"/>
            <g>
                <path d="M121.043 73.853l-7.813-5.45a1 1 0 0 1 0-1.64l7.813-5.449a.982.982 0 0 1 1.396.289l.048.077a1 1 0 0 1-.278 1.346l-6.534 4.558 6.534 4.557a1 1 0 0 1 .278 1.346l-.048.078a.982.982 0 0 1-1.396.288zM144.742 68.405l-7.812 5.448a.982.982 0 0 1-1.397-.288l-.048-.077a1 1 0 0 1 .279-1.347l6.534-4.557-6.535-4.558a1 1 0 0 1-.278-1.346l.048-.077a.982.982 0 0 1 1.397-.289l7.813 5.45a1 1 0 0 1 0 1.64zM131.612 58.568l-4.805 18.563a.968.968 0 0 1-1.208.687l-.027-.008a1 1 0 0 1-.688-1.21l4.803-18.563a.969.969 0 0 1 1.21-.687l.027.008a1 1 0 0 1 .688 1.21z"/>
            </g>
        </g>
        <path fill="#576574" d="M89.193 23.596c-.393-1.564-1.047-3.128-1.832-4.562l1.57-3.65-5.495-5.343-3.663 1.564c-1.44-.782-2.878-1.434-4.579-1.825L73.886 6h-7.72l-1.438 3.78c-1.57.391-3.14 1.043-4.58 1.825l-3.663-1.564-5.364 5.344 1.57 3.65c-.785 1.433-1.439 2.867-1.832 4.561l-3.794 1.434v7.69l3.794 1.434c.393 1.564 1.047 3.128 1.832 4.562l-1.57 3.65 5.495 5.344 3.663-1.565c1.44.782 2.879 1.434 4.58 1.825l1.438 3.78h7.589l1.439-3.78c1.57-.39 3.14-1.042 4.579-1.825l3.663 1.565 5.495-5.345-1.57-3.65c.785-1.433 1.44-2.867 1.832-4.561l3.794-1.434v-7.69l-3.925-1.434zM69.96 38.195c-5.233 0-9.42-4.171-9.42-9.385 0-5.214 4.187-9.385 9.42-9.385s9.42 4.171 9.42 9.385c0 5.214-4.187 9.385-9.42 9.385z"/>
        <g fill="#A4A7B5">
            <path d="M76.633 35.457a9.342 9.342 0 0 1-13.214 0l-3.401 3.39c5.495 5.474 14.522 5.474 20.017 0 5.494-5.475 5.495-14.338 0-19.943l-3.402 3.389a9.258 9.258 0 0 1 0 13.164z"/>
            <path d="M60.018 18.904c-5.495 5.474-5.495 14.338 0 19.942l3.401-3.389a9.259 9.259 0 0 1 0-13.164 9.342 9.342 0 0 1 13.214 0l3.402-3.39c-5.495-5.474-14.522-5.474-20.017 0z"/>
        </g>
        <path fill="#009ACF" d="M91.417 59.44c.13-.782.13-1.433 0-2.215l1.308-1.304-1.308-3.258h-1.832c-.392-.522-1.046-1.043-1.57-1.564v-1.825l-3.27-1.304-1.309 1.304a6.373 6.373 0 0 0-2.224 0l-1.308-1.304-3.27 1.304v1.825c-.524.39-1.047 1.042-1.57 1.564h-1.832l-1.309 3.258 1.309 1.304a6.303 6.303 0 0 0 0 2.215l-1.309 1.304 1.309 3.258h1.831c.393.522 1.047 1.043 1.57 1.564v1.825l3.27 1.304 1.31-1.304c.784.13 1.438.13 2.223 0l1.309 1.304 3.27-1.304v-1.825c.524-.39 1.047-1.042 1.57-1.564h1.832l1.308-3.258-1.308-1.304zm-10.466 2.738c-2.225-.913-3.271-3.39-2.355-5.475.915-2.216 3.401-3.258 5.495-2.346 2.224.912 3.27 3.389 2.354 5.474-.915 2.216-3.401 3.259-5.494 2.347z"/>
        <path fill="#01B6F5" d="M108.556 42.366c.13-.782.13-1.434 0-2.216l1.308-1.304-1.308-3.258h-1.832c-.392-.522-1.047-1.043-1.57-1.564v-1.825l-3.27-1.304-1.309 1.304a6.373 6.373 0 0 0-2.224 0l-1.308-1.304-3.271 1.304v1.825c-.523.39-1.047 1.042-1.57 1.564H90.37l-1.308 3.258 1.308 1.304a6.303 6.303 0 0 0 0 2.216l-1.308 1.303 1.308 3.259h1.832c.392.52 1.047 1.042 1.57 1.564v1.825l3.27 1.303 1.309-1.303c.785.13 1.44.13 2.224 0l1.308 1.303 3.271-1.303v-1.825c.523-.391 1.047-1.043 1.57-1.564h1.832l1.308-3.259-1.308-1.303zm-10.597 2.867c-2.225-.912-3.271-3.389-2.355-5.474.915-2.216 3.401-3.259 5.495-2.347 2.224.913 3.27 3.39 2.354 5.475-.785 2.216-3.27 3.259-5.494 2.346z"/>
    </g>
</svg>
