<svg xmlns="http://www.w3.org/2000/svg" xmlns:xlink="http://www.w3.org/1999/xlink" width="108" height="86" viewBox="0 0 108 86">
    <defs>
        <rect id="a" width="29.951" height="29.951" rx="14.975"/>
    </defs>
    <g fill="none" fill-rule="evenodd">
        <g transform="translate(78)">
            <mask id="b" fill="#fff">
                <use xlink:href="#a"/>
            </mask>
            <use fill="#E3E5ED" fill-rule="nonzero" xlink:href="#a"/>
            <g mask="url(#b)">
                <path fill="#543B2E" d="M21.176 10.868a6.173 6.173 0 1 0-12.345 0 6.173 6.173 0 0 0 12.345 0"/>
                <path fill="#E5C5A6" d="M17.069 24.087l-2.092 5.867-2.039-5.867v-4.53h4.13v4.53"/>
                <path fill="#EFD4B6" d="M9.826 13.488c0 3.084 1.203 4.539 1.64 5.098.404.514 2.474 2.177 3.537 2.177 7.066-5.788 0-13.757 0-13.757-2.005 0-5.177 1.14-5.177 6.482z"/>
                <path fill="#EFD4B6" d="M8.829 14.762c-.089-.854.318-1.611.908-1.692.59-.081 1.14.545 1.229 1.399.088.853-.319 1.61-.909 1.692-.59.08-1.14-.546-1.228-1.4M14.987 7.006c2.005 0 5.177 1.14 5.177 6.482 0 3.084-1.202 4.539-1.64 5.098-.404.514-2.473 2.177-3.537 2.177V7.006"/>
                <path fill="#EFD4B6" d="M21.178 14.762c.089-.854-.318-1.611-.908-1.692-.59-.081-1.14.545-1.229 1.399-.088.853.318 1.61.909 1.692.59.08 1.14-.546 1.228-1.4"/>
                <path fill="#543B2E" d="M14.936 5.712a2.607 2.607 0 0 0-.305-.022s-3.387.254-4.33 4.665c-.452.34-1.282 1.66-.188 3.13.15-1.244.606-2.146 1.395-2.489 1.399-.608 1.975-.043 3.596-1.287.947-.727 1.288-2.188 1.078-3.005-.376-1.014-1.338-.976-1.246-.992"/>
                <path fill="#543B2E" d="M15.968 6.937s-1.22 4.555 4.11 6.463c1.277-4.17-1.056-6.89-4.11-6.463"/>
                <path fill="#E5C5A6" d="M14.977 29.954v-5.642s-1.54-.382-1.88-1.63c-.163-.6-.159-1.081-.159-1.081s-3.369 1.138-4.121 2.313c-.626 1.863-.798 6.04-.798 6.04h6.958M14.977 29.954v-5.642s1.541-.382 1.881-1.63c.163-.6.158-1.081.158-1.081s3.37 1.138 4.122 2.313c.626 1.863.797 6.04.797 6.04h-6.958"/>
                <path fill="#FFFFFE" d="M15.004 18.881c.781 0 1.415-.48 1.415-1.072h-2.831c0 .592.634 1.072 1.416 1.072"/>
                <path fill="#543B2E" d="M16.952 4.695a1.949 1.949 0 1 0-3.897 0 1.949 1.949 0 0 0 3.897 0"/>
                <path fill="#1DE9B6" d="M11.814 22.03c-.682.284-.96.382-1.467.692-.06.414-.517 1.554-.73 3.27-.209 1.691.283 3.962.283 3.962h5.077l3.94-2.368-3.94-1.853c-1.725 0-3.126-1.65-3.163-3.702z"/>
                <path fill="#1DE9B6" d="M14.977 25.733c1.725 0 3.127-1.65 3.164-3.702.682.283.959.381 1.467.69.06.415.516 1.555.729 3.271.21 1.691-.282 3.962-.282 3.962h-5.078v-4.221"/>
            </g>
        </g>
        <g fill-rule="nonzero">
            <path fill="#B1B4BD" d="M7 35.5A6.5 6.5 0 0 0 .5 42v37A6.5 6.5 0 0 0 7 85.5h94a6.5 6.5 0 0 0 6.5-6.5V42a6.5 6.5 0 0 0-6.5-6.5H7zm0-.5h94a7 7 0 0 1 7 7v37a7 7 0 0 1-7 7H7a7 7 0 0 1-7-7V42a7 7 0 0 1 7-7z"/>
            <path fill="#A4A7B5" d="M15.322 47.5c-.73 0-1.322-.672-1.322-1.5s.592-1.5 1.322-1.5h77.356c.73 0 1.322.672 1.322 1.5s-.592 1.5-1.322 1.5H15.322zm.011 7C14.597 54.5 14 53.828 14 53s.597-1.5 1.333-1.5h67.334c.736 0 1.333.672 1.333 1.5s-.597 1.5-1.333 1.5H15.333zm.01 7C14.601 61.5 14 60.828 14 60s.601-1.5 1.343-1.5h42.314c.742 0 1.343.672 1.343 1.5s-.601 1.5-1.343 1.5H15.343zm-.01 8C14.597 69.5 14 68.828 14 68s.597-1.5 1.333-1.5h67.334c.736 0 1.333.672 1.333 1.5s-.597 1.5-1.333 1.5H15.333zm.01 7C14.601 76.5 14 75.828 14 75s.601-1.5 1.343-1.5h42.314c.742 0 1.343.672 1.343 1.5s-.601 1.5-1.343 1.5H15.343z"/>
        </g>
    </g>
</svg>
