<svg xmlns="http://www.w3.org/2000/svg" width="133" height="52" viewBox="0 0 133 52">
    <g fill="none" fill-rule="nonzero">
        <g fill="#D4D5DD">
            <path d="M18.5 29a1.5 1.5 0 0 1 0-3H131a1.5 1.5 0 0 1 0 3H18.5zM18.5 40a1.5 1.5 0 0 1 0-3H105a1.5 1.5 0 0 1 0 3H18.5zM18.5 52a1.5 1.5 0 0 1 0-3H77a1.5 1.5 0 0 1 0 3H18.5z"/>
        </g>
        <path fill="#A4A7B5" d="M1.5 3a1.5 1.5 0 0 1 0-3H37a1.5 1.5 0 0 1 0 3H1.5z"/>
        <path fill="#576574" d="M41.37 2.958a.137.137 0 0 1-.198 0l-.131-.134a.144.144 0 0 1 0-.2L41.9 1.5 41.04.377a.144.144 0 0 1 0-.201l.131-.134a.137.137 0 0 1 .197 0L42.46 1.4a.143.143 0 0 1 0 .2l-1.09 1.358z"/>
        <g>
            <path fill="#A4A7B5" d="M47.5 3a1.5 1.5 0 0 1 0-3H83a1.5 1.5 0 0 1 0 3H47.5z"/>
            <path fill="#576574" d="M92.5 3a1.5 1.5 0 0 1 0-3H128a1.5 1.5 0 0 1 0 3H92.5zM87.37 2.958a.137.137 0 0 1-.198 0l-.131-.134a.144.144 0 0 1 0-.2L87.9 1.5 87.04.377a.144.144 0 0 1 0-.201l.131-.134a.137.137 0 0 1 .197 0L88.46 1.4a.143.143 0 0 1 0 .2l-1.09 1.358z"/>
        </g>
    </g>
</svg>
