<?xml version="1.0" encoding="UTF-8"?>
<svg width="114px" height="60px" viewBox="0 0 114 60" version="1.1" xmlns="http://www.w3.org/2000/svg" xmlns:xlink="http://www.w3.org/1999/xlink">
    <!-- Generator: Sketch 52.5 (67469) - http://www.bohemiancoding.com/sketch -->
    <title>breadcrumb</title>
    <desc>Created with Sketch.</desc>
    <g id="re-design-layout" stroke="none" stroke-width="1" fill="none" fill-rule="evenodd">
        <g id="re-design-layout-componentes-V2" transform="translate(-1072.000000, -307.000000)" fill-rule="nonzero">
            <g id="Group-110" transform="translate(1029.000000, 272.000000)">
                <g id="breadcrumb" transform="translate(43.000000, 35.000000)">
                    <g transform="translate(0.000000, 0.000000)" id="Group-108">
                        <g>
                            <path d="M4,8 C1.790861,8 -3.55271368e-14,6.209139 -3.55271368e-14,4 C-3.55271368e-14,1.790861 1.790861,0 4,0 L98.6666667,0 C100.875806,0 102.666667,1.790861 102.666667,4 C102.666667,6.209139 100.875806,8 98.6666667,8 L4,8 Z" id="Line-10-Copy" fill="#A4A7B5"></path>
                            <path d="M107.444831,2.98431752 C107.296167,2.83872217 107.296167,2.60329138 107.444831,2.45924492 L107.802256,2.10919652 C107.95092,1.96360116 108.191312,1.96360116 108.338394,2.10919652 L111.333333,4.40232333 L114.328272,2.10919652 C114.476936,1.96360116 114.717328,1.96360116 114.86441,2.10919652 L115.221836,2.45924492 C115.370499,2.60484027 115.370499,2.84027106 115.221836,2.98431752 L111.600612,5.89080348 C111.455111,6.03639884 111.214719,6.03639884 111.066055,5.89080348 L107.444831,2.98431752 Z" id="Shape" fill="#576574" transform="translate(111.333333, 4.000000) rotate(-90.000000) translate(-111.333333, -4.000000) "></path>
                        </g>
                    </g>
                    <g id="Group-109" transform="translate(12.000000, 34.000000)" fill="#D4D5DD">
                        <path d="M1.5,3 C0.671572875,3 0,2.32842712 0,1.5 C0,0.671572875 0.671572875,0 1.5,0 L75,0 C75.8284271,0 76.5,0.671572875 76.5,1.5 C76.5,2.32842712 75.8284271,3 75,3 L1.5,3 Z" id="Line-10"></path>
                        <path d="M1.5,14 C0.671572875,14 -2.84217094e-14,13.3284271 -2.84217094e-14,12.5 C-2.84217094e-14,11.6715729 0.671572875,11 1.5,11 L88,11 C88.8284271,11 89.5,11.6715729 89.5,12.5 C89.5,13.3284271 88.8284271,14 88,14 L1.5,14 Z" id="Line-10"></path>
                        <path d="M1.5,26 C0.671572875,26 0,25.3284271 0,24.5 C0,23.6715729 0.671572875,23 1.5,23 L60,23 C60.8284271,23 61.5,23.6715729 61.5,24.5 C61.5,25.3284271 60.8284271,26 60,26 L1.5,26 Z" id="Line-10"></path>
                    </g>
                </g>
            </g>
        </g>
    </g>
</svg>