<?xml version="1.0" encoding="UTF-8"?>
<svg width="151px" height="77px" viewBox="0 0 151 77" version="1.1" xmlns="http://www.w3.org/2000/svg" xmlns:xlink="http://www.w3.org/1999/xlink">
    <!-- Generator: Sketch 64 (93537) - https://sketch.com -->
    <title>ButtonGroupPicker</title>
    <desc>Created with Sketch.</desc>
    <g id="pages" stroke="none" stroke-width="1" fill="none" fill-rule="evenodd">
        <g id="ButtonGroupPicker" fill-rule="nonzero">
            <g id="menu-button-of-three-horizontal-lines">
                <g id="Group-18" transform="translate(56.000000, 26.000000)">
                    <g id="Group-4">
                        <path d="M85.2256561,0.5 C90.1080323,0.5 94.1016799,4.47297646 94.1016799,9.33266964 C94.1016799,14.1923628 90.1080323,18.1653393 85.2256561,18.1653393 L8.91940484,18.1653393 C4.03702855,18.1653393 0.0433810376,14.1923628 0.0433810376,9.33266964 C0.0433810376,4.47297646 4.03702855,0.5 8.91940484,0.5 L85.2256561,0.5 Z M85.2256561,1.5 L8.91940484,1.5 C4.58815495,1.5 1.04338104,5.02642622 1.04338104,9.33266964 C1.04338104,13.6389131 4.58815495,17.1653393 8.91940484,17.1653393 L85.2256561,17.1653393 C89.5569059,17.1653393 93.1016799,13.6389131 93.1016799,9.33266964 C93.1016799,5.02642622 89.5569059,1.5 85.2256561,1.5 Z" id="Path" fill="#E3E5ED"></path>
                        <path d="M62.5930233,0.5 L62.5930233,18.1653393 L28.1046512,18.1653393 L28.1046512,0.5 L62.5930233,0.5 Z M62.5930233,1.5 L28.1046512,1.5 L28.1046512,17.1653393 L62.5930233,17.1653393 L62.5930233,1.5 Z" id="Path" fill="#01B6F5"></path>
                        <path d="M10.7468694,10.9024371 C9.87991079,10.9024371 9.17710197,10.1996283 9.17710197,9.33266964 C9.17710197,8.46571102 9.87991079,7.7629022 10.7468694,7.7629022 L20.0346601,7.7629022 C20.9016187,7.7629022 21.6044275,8.46571102 21.6044275,9.33266964 C21.6044275,10.1996283 20.9016187,10.9024371 20.0346601,10.9024371 L10.7468694,10.9024371 Z" id="Path" fill="#576574"></path>
                        <path d="M37.2584973,10.9024371 C36.3915387,10.9024371 35.6887299,10.1996283 35.6887299,9.33266964 C35.6887299,8.46571102 36.3915387,7.7629022 37.2584973,7.7629022 L53.5230322,7.7629022 C54.3899908,7.7629022 55.0927996,8.46571102 55.0927996,9.33266964 C55.0927996,10.1996283 54.3899908,10.9024371 53.5230322,10.9024371 L37.2584973,10.9024371 Z" id="Path" fill="#01B6F5"></path>
                        <path d="M69.3515206,10.9024371 C68.484562,10.9024371 67.7817531,10.1996283 67.7817531,9.33266964 C67.7817531,8.46571102 68.484562,7.7629022 69.3515206,7.7629022 L78.6393113,7.7629022 C79.5062699,7.7629022 80.2090787,8.46571102 80.2090787,9.33266964 C80.2090787,10.1996283 79.5062699,10.9024371 78.6393113,10.9024371 L69.3515206,10.9024371 Z" id="Path" fill="#576574"></path>
                        <path d="M83.3050089,10.9024371 C82.4380503,10.9024371 81.7352415,10.1996283 81.7352415,9.33266964 C81.7352415,8.46571102 82.4380503,7.7629022 83.3050089,7.7629022 L84.2207066,7.7629022 C85.0876652,7.7629022 85.7904741,8.46571102 85.7904741,9.33266964 C85.7904741,10.1996283 85.0876652,10.9024371 84.2207066,10.9024371 L83.3050089,10.9024371 Z" id="Path" fill="#576574"></path>
                    </g>
                    <polygon id="Line-4" fill="#01B6F5" points="29.1046512 17.5465116 28.1046512 17.5465116 28.1046512 1.19767442 29.1046512 1.19767442"></polygon>
                    <polygon id="Line-4" fill="#01B6F5" points="62.5930233 17.5465116 61.5930233 17.5465116 61.5930233 1.19767442 62.5930233 1.19767442"></polygon>
                </g>
                <g id="Group-4-Copy">
                    <path d="M54.5279816,0.5 C59.4103579,0.5 63.4040054,4.47297646 63.4040054,9.33266964 C63.4040054,14.1923628 59.4103579,18.1653393 54.5279816,18.1653393 L8.91940484,18.1653393 C4.03702855,18.1653393 0.0433810376,14.1923628 0.0433810376,9.33266964 C0.0433810376,4.47297646 4.03702855,0.5 8.91940484,0.5 L54.5279816,0.5 Z M54.5279816,1.5 L8.91940484,1.5 C4.58815495,1.5 1.04338104,5.02642622 1.04338104,9.33266964 C1.04338104,13.6389131 4.58815495,17.1653393 8.91940484,17.1653393 L54.5279816,17.1653393 C58.8592315,17.1653393 62.4040054,13.6389131 62.4040054,9.33266964 C62.4040054,5.02642622 58.8592315,1.5 54.5279816,1.5 Z" id="Path" fill="#E3E5ED"></path>
                    <path d="M31.8953488,0.5 L31.8953488,18.1653393 L8.91940484,18.1653393 C4.03702855,18.1653393 0.0433810376,14.1923628 0.0433810376,9.33266964 C0.0433810376,4.47297646 4.03702855,0.5 8.91940484,0.5 L31.8953488,0.5 Z M31.8953488,1.5 L8.91940484,1.5 C4.58815495,1.5 1.04338104,5.02642622 1.04338104,9.33266964 C1.04338104,13.6389131 4.58815495,17.1653393 8.91940484,17.1653393 L31.8953488,17.1653393 L31.8953488,1.5 Z" id="Path" fill="#01B6F5"></path>
                    <path d="M10.7468694,10.9024371 C9.87991079,10.9024371 9.17710197,10.1996283 9.17710197,9.33266964 C9.17710197,8.46571102 9.87991079,7.7629022 10.7468694,7.7629022 L21.4300089,7.7629022 C22.2969676,7.7629022 22.9997764,8.46571102 22.9997764,9.33266964 C22.9997764,10.1996283 22.2969676,10.9024371 21.4300089,10.9024371 L10.7468694,10.9024371 Z" id="Line-2" fill="#01B6F5"></path>
                    <path d="M38.6538462,10.9024371 C37.7868875,10.9024371 37.0840787,10.1996283 37.0840787,9.33266964 C37.0840787,8.46571102 37.7868875,7.7629022 38.6538462,7.7629022 L53.5230322,7.7629022 C54.3899908,7.7629022 55.0927996,8.46571102 55.0927996,9.33266964 C55.0927996,10.1996283 54.3899908,10.9024371 53.5230322,10.9024371 L38.6538462,10.9024371 Z" id="Line-2" fill="#576574"></path>
                </g>
                <g id="Group-20" transform="translate(94.000000, 58.000000)">
                    <g id="Group-5">
                        <path d="M40.1794201,0.5 C45.0617964,0.5 49.0554439,4.47297646 49.0554439,9.33266964 C49.0554439,14.1923628 45.0617964,18.1653393 40.1794201,18.1653393 L9.49677514,18.1653393 C4.61439885,18.1653393 0.620751342,14.1923628 0.620751342,9.33266964 C0.620751342,4.47297646 4.61439885,0.5 9.49677514,0.5 L40.1794201,0.5 Z M40.1794201,1.5 L9.49677514,1.5 C5.16552525,1.5 1.62075134,5.02642622 1.62075134,9.33266964 C1.62075134,13.6389131 5.16552525,17.1653393 9.49677514,17.1653393 L40.1794201,17.1653393 C44.51067,17.1653393 48.0554439,13.6389131 48.0554439,9.33266964 C48.0554439,5.02642622 44.51067,1.5 40.1794201,1.5 Z" id="Path" fill="#E3E5ED"></path>
                        <path d="M40.1794201,0.5 C45.0617964,0.5 49.0554439,4.47297646 49.0554439,9.33266964 C49.0554439,14.1923628 45.0617964,18.1653393 40.1794201,18.1653393 L16.5465116,18.1653393 L16.5465116,0.5 L40.1794201,0.5 Z M40.1794201,1.5 L16.5465116,1.5 L16.5465116,17.1653393 L40.1794201,17.1653393 C44.51067,17.1653393 48.0554439,13.6389131 48.0554439,9.33266964 C48.0554439,5.02642622 44.51067,1.5 40.1794201,1.5 Z" id="Path" fill="#01B6F5"></path>
                        <path d="M8.96958855,10.9024371 C8.10262993,10.9024371 7.39982111,10.1996283 7.39982111,9.33266964 C7.39982111,8.46571102 8.10262993,7.7629022 8.96958855,7.7629022 L9.88528623,7.7629022 C10.7522448,7.7629022 11.4550537,8.46571102 11.4550537,9.33266964 C11.4550537,10.1996283 10.7522448,10.9024371 9.88528623,10.9024371 L8.96958855,10.9024371 Z" id="Path" fill="#576574"></path>
                        <path d="M24.3148211,10.9024371 C23.4478625,10.9024371 22.7450537,10.1996283 22.7450537,9.33266964 C22.7450537,8.46571102 23.4478625,7.7629022 24.3148211,7.7629022 L25.2305188,7.7629022 C26.0974774,7.7629022 26.8002862,8.46571102 26.8002862,9.33266964 C26.8002862,10.1996283 26.0974774,10.9024371 25.2305188,10.9024371 L24.3148211,10.9024371 Z" id="Path" fill="#01B6F5"></path>
                        <path d="M39.6600537,10.9024371 C38.793095,10.9024371 38.0902862,10.1996283 38.0902862,9.33266964 C38.0902862,8.46571102 38.793095,7.7629022 39.6600537,7.7629022 L40.5757513,7.7629022 C41.44271,7.7629022 42.1455188,8.46571102 42.1455188,9.33266964 C42.1455188,10.1996283 41.44271,10.9024371 40.5757513,10.9024371 L39.6600537,10.9024371 Z" id="Path" fill="#01B6F5"></path>
                    </g>
                    <polygon id="Line-4" fill="#01B6F5" points="17.5465116 17.5465116 16.5465116 17.5465116 16.5465116 1.19767442 17.5465116 1.19767442"></polygon>
                    <polygon id="Line-4-Copy" fill="#01B6F5" points="32.8953488 17.5465116 31.8953488 17.5465116 31.8953488 1.19767442 32.8953488 1.19767442"></polygon>
                </g>
            </g>
            <polygon id="Line-4" fill="#01B6F5" points="31.8953488 17.5465116 30.8953488 17.5465116 30.8953488 1.19767442 31.8953488 1.19767442"></polygon>
        </g>
    </g>
</svg>