<svg xmlns="http://www.w3.org/2000/svg" width="151" height="77" viewBox="0 0 151 77">
    <g fill="none" fill-rule="nonzero">
        <path fill="#E3E5ED" d="M141.226 26.5c4.882 0 8.876 3.973 8.876 8.833s-3.994 8.832-8.876 8.832H64.919c-4.882 0-8.876-3.973-8.876-8.832 0-4.86 3.994-8.833 8.876-8.833h76.307zm0 1H64.919c-4.33 0-7.876 3.526-7.876 7.833 0 4.306 3.545 7.832 7.876 7.832h76.307c4.33 0 7.876-3.526 7.876-7.832 0-4.307-3.545-7.833-7.876-7.833z"/>
        <path fill="#01B6F5" d="M66.747 36.902a1.57 1.57 0 1 1 0-3.14h9.288a1.57 1.57 0 0 1 0 3.14h-9.288zm26.511 0a1.57 1.57 0 0 1 0-3.14h16.265a1.57 1.57 0 0 1 0 3.14H93.258zm32.094 0a1.57 1.57 0 1 1 0-3.14h9.287a1.57 1.57 0 0 1 0 3.14h-9.287zm13.953 0a1.57 1.57 0 0 1 0-3.14h.916a1.57 1.57 0 0 1 0 3.14h-.916z"/>
        <path fill="#E3E5ED" d="M85.105 43.547h-1v-16.35h1zM118.593 43.547h-1v-16.35h1z"/>
        <g fill="#01B6F5">
            <path d="M54.528.5c4.882 0 8.876 3.973 8.876 8.833s-3.994 8.832-8.876 8.832H8.919c-4.882 0-8.876-3.973-8.876-8.832C.043 4.473 4.037.5 8.92.5h45.609zm0 1H8.919c-4.33 0-7.876 3.526-7.876 7.833 0 4.306 3.545 7.832 7.876 7.832h45.609c4.331 0 7.876-3.526 7.876-7.832 0-4.307-3.545-7.833-7.876-7.833z"/>
            <path d="M10.747 10.902a1.57 1.57 0 1 1 0-3.14H21.43a1.57 1.57 0 1 1 0 3.14H10.747zM38.654 10.902a1.57 1.57 0 1 1 0-3.14h14.869a1.57 1.57 0 0 1 0 3.14h-14.87z"/>
        </g>
        <g fill="#01B6F5">
            <path d="M134.18 58.5c4.882 0 8.875 3.973 8.875 8.833s-3.993 8.832-8.876 8.832h-30.682c-4.883 0-8.876-3.973-8.876-8.832 0-4.86 3.993-8.833 8.876-8.833h30.682zm0 1h-30.683c-4.331 0-7.876 3.526-7.876 7.833 0 4.306 3.545 7.832 7.876 7.832h30.682c4.332 0 7.876-3.526 7.876-7.832 0-4.307-3.544-7.833-7.876-7.833z"/>
            <path d="M102.97 68.902a1.57 1.57 0 1 1 0-3.14h.915a1.57 1.57 0 0 1 0 3.14h-.915zm15.348 0a1.57 1.57 0 1 1 0-3.14h.916a1.57 1.57 0 1 1 0 3.14h-.916zm15.35 0a1.57 1.57 0 1 1 0-3.14h.915a1.57 1.57 0 1 1 0 3.14h-.916zM111.547 75.547h-1v-16.35h1zM126.895 75.547h-1v-16.35h1z"/>
        </g>
        <path fill="#01B6F5" d="M31.895 17.547h-1V1.197h1z"/>
    </g>
</svg>
