<svg xmlns="http://www.w3.org/2000/svg" width="117" height="82" viewBox="0 0 117 82">
    <g fill="none" fill-rule="nonzero">
        <path fill="#B1B4BD" d="M7 22.5A6.5 6.5 0 0 0 .5 29v46A6.5 6.5 0 0 0 7 81.5h103a6.5 6.5 0 0 0 6.5-6.5V29a6.5 6.5 0 0 0-6.5-6.5H7zm0-.5h103a7 7 0 0 1 7 7v46a7 7 0 0 1-7 7H7a7 7 0 0 1-7-7V29a7 7 0 0 1 7-7z"/>
        <path fill="#E3E5ED" d="M10 19.5a9.5 9.5 0 1 1 0-19 9.5 9.5 0 0 1 0 19zm0-1a8.5 8.5 0 1 0 0-17 8.5 8.5 0 0 0 0 17z"/>
        <path fill="#01B6F5" d="M9.577 11.398L7.602 9.423a.347.347 0 0 1 0-.492l.329-.329a.347.347 0 0 1 .492 0l1.4 1.4 1.4-1.4a.347.347 0 0 1 .492 0l.328.329a.347.347 0 0 1 0 .492l-1.975 1.975a.345.345 0 0 1-.49 0z"/>
    </g>
</svg>
