<svg xmlns="http://www.w3.org/2000/svg" width="132" height="73" viewBox="0 0 132 73">
    <g fill="none" fill-rule="nonzero">
        <path fill="#E3E5ED" d="M13 25.5C6.096 25.5.5 19.904.5 13S6.096.5 13 .5 25.5 6.096 25.5 13 19.904 25.5 13 25.5zm0-1c6.351 0 11.5-5.149 11.5-11.5S19.351 1.5 13 1.5 1.5 6.649 1.5 13 6.649 24.5 13 24.5z"/>
        <path fill="#576574" d="M13 11.452c.737 0 1.333.692 1.333 1.548 0 .856-.596 1.548-1.333 1.548s-1.333-.692-1.333-1.548c0-.856.596-1.548 1.333-1.548zm-1.333-2.237c0 .856.596 1.548 1.333 1.548s1.333-.692 1.333-1.548c0-.856-.596-1.548-1.333-1.548s-1.333.692-1.333 1.548zm0 7.57c0 .856.596 1.548 1.333 1.548s1.333-.692 1.333-1.548c0-.856-.596-1.548-1.333-1.548s-1.333.692-1.333 1.548z"/>
        <path fill="#01B6F5" d="M63.667 41.667C56.67 41.667 51 35.996 51 29c0-6.996 5.671-12.667 12.667-12.667 6.995 0 12.666 5.671 12.666 12.667 0 6.996-5.67 12.667-12.666 12.667z"/>
        <path fill="#FFF" d="M62.267 31a2 2 0 0 1 0-4h3.4a2 2 0 1 1 0 4h-3.4z"/>
        <g>
            <path fill="#1DE9B6" d="M101 72.333c-6.996 0-12.667-5.67-12.667-12.666S94.004 47 101 47c6.996 0 12.667 5.671 12.667 12.667 0 6.995-5.671 12.666-12.667 12.666z"/>
            <path fill="#FFF" d="M99.6 61.667a2 2 0 0 1 0-4h3.4a2 2 0 1 1 0 4h-3.4z"/>
        </g>
        <path fill="#01B6F5" d="M128.418 13.4a1.68 1.68 0 0 1-1.264-.931l-.687-1.417-.687 1.416c-.241.5-.714.85-1.266.932l-1.586.234 1.165 1.156c.389.386.565.939.474 1.479l-.269 1.6 1.38-.74a1.684 1.684 0 0 1 1.58.002l1.377.737-.269-1.599a1.69 1.69 0 0 1 .475-1.48l1.164-1.155-1.587-.235zm3.278.434l-1.915 1.901a.357.357 0 0 0-.1.312l.452 2.685a.792.792 0 0 1-.171.648.78.78 0 0 1-.602.287.765.765 0 0 1-.364-.093l-2.368-1.268a.349.349 0 0 0-.322 0l-2.368 1.268a.783.783 0 0 1-.966-.194.792.792 0 0 1-.171-.648l.451-2.685a.357.357 0 0 0-.1-.312l-1.915-1.9a.804.804 0 0 1-.198-.82.783.783 0 0 1 .633-.543l2.647-.391a.347.347 0 0 0 .261-.193l1.184-2.443a.778.778 0 0 1 1.406 0l1.183 2.442c.05.105.148.177.261.193l2.647.392c.298.044.54.252.633.544a.804.804 0 0 1-.198.818z"/>
    </g>
</svg>
