<?xml version="1.0" encoding="UTF-8"?>
<svg width="144px" height="77px" viewBox="0 0 144 77" version="1.1" xmlns="http://www.w3.org/2000/svg" xmlns:xlink="http://www.w3.org/1999/xlink">
    <!-- Generator: Sketch 64 (93537) - https://sketch.com -->
    <title>ButtonOption</title>
    <desc>Created with Sketch.</desc>
    <g id="pages" stroke="none" stroke-width="1" fill="none" fill-rule="evenodd">
        <g id="ButtonOption" fill-rule="nonzero">
            <g id="menu-button-of-three-horizontal-lines">
                <g id="Group-18" transform="translate(58.000000, 26.000000)">
                    <g id="Group-4">
                        <path d="M27.1046512,0.5 L27.1046512,18.1653393 L0.919404838,18.1653393 L0.919404838,0.5 L27.1046512,0.5 Z M27.1046512,1.5 L1.91940484,1.5 L1.91940484,17.1653393 L27.1046512,17.1653393 L27.1046512,1.5 Z" id="Path" fill="#E3E5ED"></path>
                        <path d="M9.56976744,10.9024371 C8.70280882,10.9024371 8,10.1996283 8,9.33266964 C8,8.46571102 8.70280882,7.7629022 9.56976744,7.7629022 L18.8575581,7.7629022 C19.7245168,7.7629022 20.4273256,8.46571102 20.4273256,9.33266964 C20.4273256,10.1996283 19.7245168,10.9024371 18.8575581,10.9024371 L9.56976744,10.9024371 Z" id="Path" fill="#576574"></path>
                    </g>
                    <polygon id="Line-4" fill="#E3E5ED" points="27.1046512 17.5465116 26.1046512 17.5465116 26.1046512 1.19767442 27.1046512 1.19767442"></polygon>
                </g>
                <g id="Group-4-Copy" fill="#01B6F5">
                    <path d="M31.8953488,0.5 L31.8953488,18.1653393 L8.91940484,18.1653393 C4.03702855,18.1653393 0.0433810376,14.1923628 0.0433810376,9.33266964 C0.0433810376,4.47297646 4.03702855,0.5 8.91940484,0.5 L31.8953488,0.5 Z M31.8953488,1.5 L8.91940484,1.5 C4.58815495,1.5 1.04338104,5.02642622 1.04338104,9.33266964 C1.04338104,13.6389131 4.58815495,17.1653393 8.91940484,17.1653393 L31.8953488,17.1653393 L31.8953488,1.5 Z" id="Path"></path>
                    <path d="M10.7468694,10.9024371 C9.87991079,10.9024371 9.17710197,10.1996283 9.17710197,9.33266964 C9.17710197,8.46571102 9.87991079,7.7629022 10.7468694,7.7629022 L21.4300089,7.7629022 C22.2969676,7.7629022 22.9997764,8.46571102 22.9997764,9.33266964 C22.9997764,10.1996283 22.2969676,10.9024371 21.4300089,10.9024371 L10.7468694,10.9024371 Z" id="Line-2"></path>
                </g>
                <g id="Group-20" transform="translate(110.000000, 58.000000)" fill="#01B6F5">
                    <g id="Group-5">
                        <path d="M24.1794201,0.5 C29.0617964,0.5 33.0554439,4.47297646 33.0554439,9.33266964 C33.0554439,14.1923628 29.0617964,18.1653393 24.1794201,18.1653393 L0.546511628,18.1653393 L0.546511628,0.5 L24.1794201,0.5 Z M24.1794201,1.5 L0.546511628,1.5 L0.546511628,17.1653393 L24.1794201,17.1653393 C28.51067,17.1653393 32.0554439,13.6389131 32.0554439,9.33266964 C32.0554439,5.02642622 28.51067,1.5 24.1794201,1.5 Z" id="Path"></path>
                        <path d="M8.31482111,10.9024371 C7.44786249,10.9024371 6.74505367,10.1996283 6.74505367,9.33266964 C6.74505367,8.46571102 7.44786249,7.7629022 8.31482111,7.7629022 L9.23051878,7.7629022 C10.0974774,7.7629022 10.8002862,8.46571102 10.8002862,9.33266964 C10.8002862,10.1996283 10.0974774,10.9024371 9.23051878,10.9024371 L8.31482111,10.9024371 Z" id="Path"></path>
                        <path d="M23.6600537,10.9024371 C22.793095,10.9024371 22.0902862,10.1996283 22.0902862,9.33266964 C22.0902862,8.46571102 22.793095,7.7629022 23.6600537,7.7629022 L24.5757513,7.7629022 C25.44271,7.7629022 26.1455188,8.46571102 26.1455188,9.33266964 C26.1455188,10.1996283 25.44271,10.9024371 24.5757513,10.9024371 L23.6600537,10.9024371 Z" id="Path"></path>
                    </g>
                    <polygon id="Line-4" points="1.54651163 17.5465116 0.546511628 17.5465116 0.546511628 1.19767442 1.54651163 1.19767442"></polygon>
                    <polygon id="Line-4-Copy" points="16.8953488 17.5465116 15.8953488 17.5465116 15.8953488 1.19767442 16.8953488 1.19767442"></polygon>
                </g>
            </g>
            <polygon id="Line-4" fill="#01B6F5" points="31.8953488 17.5465116 30.8953488 17.5465116 30.8953488 1.19767442 31.8953488 1.19767442"></polygon>
        </g>
    </g>
</svg>