<svg xmlns="http://www.w3.org/2000/svg" width="146" height="70" viewBox="0 0 146 70">
    <g fill="none" fill-rule="evenodd">
        <g fill-rule="nonzero">
            <path fill="#E3E5ED" d="M127.881.5c4.992 0 9.076 4.062 9.076 9.031s-4.084 9.031-9.076 9.031H81.187c-4.992 0-9.076-4.062-9.076-9.03 0-4.97 4.084-9.032 9.076-9.032h46.694zm0 1H81.187c-4.441 0-8.076 3.616-8.076 8.031 0 4.415 3.635 8.031 8.076 8.031h46.694c4.441 0 8.076-3.616 8.076-8.03 0-4.416-3.635-8.032-8.076-8.032z"/>
            <path fill="#01B6F5" d="M83.058 11.138a1.607 1.607 0 0 1 0-3.214h43.794a1.607 1.607 0 1 1 0 3.214H83.058z"/>
        </g>
        <g fill="#01B6F5" fill-rule="nonzero">
            <path d="M55.826.5c4.992 0 9.076 4.062 9.076 9.031s-4.084 9.031-9.076 9.031H9.132C4.14 18.562.056 14.5.056 9.532.056 4.561 4.14.5 9.132.5h46.694zm0 1H9.132c-4.441 0-8.076 3.616-8.076 8.031 0 4.415 3.635 8.031 8.076 8.031h46.694c4.441 0 8.076-3.616 8.076-8.03 0-4.416-3.635-8.032-8.076-8.032z"/>
            <path d="M11.003 11.138a1.607 1.607 0 1 1 0-3.214h43.794a1.607 1.607 0 1 1 0 3.214H11.003z"/>
        </g>
        <path fill="#01B6F5" d="M91.827 26.714H48.985c-4.717 0-8.576 3.84-8.576 8.531 0 4.692 3.86 8.531 8.576 8.531h42.842c4.716 0 8.575-3.839 8.575-8.53 0-4.693-3.859-8.532-8.575-8.532z"/>
        <path fill="#FFF" fill-rule="nonzero" d="M48.445 36.852a1.607 1.607 0 0 1 0-3.214H92.24a1.607 1.607 0 1 1 0 3.214H48.445z"/>
        <path fill="#1DE9B6" d="M60.72 51.893H14.026c-4.716 0-8.575 3.839-8.575 8.53 0 4.693 3.859 8.532 8.575 8.532H60.72c4.717 0 8.576-3.839 8.576-8.531s-3.859-8.531-8.576-8.531z"/>
        <path fill="#FFF" fill-rule="nonzero" d="M15.897 62.031a1.607 1.607 0 0 1 0-3.214h43.795a1.607 1.607 0 1 1 0 3.214H15.897z"/>
        <g>
            <path fill="#FE4849" d="M136.984 52.552H90.29c-4.717 0-8.576 3.84-8.576 8.531 0 4.692 3.86 8.531 8.576 8.531h46.694c4.717 0 8.576-3.839 8.576-8.53 0-4.693-3.86-8.532-8.576-8.532z"/>
            <path fill="#FFF" fill-rule="nonzero" d="M92.16 62.69a1.607 1.607 0 0 1 0-3.214h43.795a1.607 1.607 0 1 1 0 3.214H92.161z"/>
        </g>
    </g>
</svg>
