<?xml version="1.0" encoding="UTF-8"?>
<svg width="71px" height="60px" viewBox="0 0 71 60" version="1.1" xmlns="http://www.w3.org/2000/svg" xmlns:xlink="http://www.w3.org/1999/xlink">
    <!-- Generator: Sketch 53.2 (72643) - https://sketchapp.com -->
    <title>Calendar</title>
    <desc>Created with Sketch.</desc>
    <defs>
        <ellipse id="path-1" cx="2.47772015" cy="2.46979264" rx="2.47772015" ry="2.46979264"></ellipse>
    </defs>
    <g id="pages" stroke="none" stroke-width="1" fill="none" fill-rule="evenodd">
        <g id="Calendar">
            <path d="M11.0217121,0.5 L60,0.5 C65.5228475,0.5 70,4.9771525 70,10.5 L70,49.5 C70,55.0228475 65.5228475,59.5 60,59.5 L11.0217121,59.5 C5.49886465,59.5 1.02171215,55.0228475 1.02171215,49.5 L1.02171215,10.5 C1.02171215,4.9771525 5.49886465,0.5 11.0217121,0.5 Z" id="Path" fill="#FDFEFF" fill-rule="nonzero"></path>
            <path d="M11.0217121,0.625 C5.56790024,0.625 1.14671215,5.0461881 1.14671215,10.5 L1.14671215,49.5 C1.14671215,54.9538119 5.56790024,59.375 11.0217121,59.375 L60,59.375 C65.4538119,59.375 69.875,54.9538119 69.875,49.5 L69.875,10.5 C69.875,5.0461881 65.4538119,0.625 60,0.625 L11.0217121,0.625 Z M11.0217121,0.375 L60,0.375 C65.5918831,0.375 70.125,4.90811691 70.125,10.5 L70.125,49.5 C70.125,55.0918831 65.5918831,59.625 60,59.625 L11.0217121,59.625 C5.42982906,59.625 0.896712148,55.0918831 0.896712148,49.5 L0.896712148,10.5 C0.896712148,4.90811691 5.42982906,0.375 11.0217121,0.375 Z" id="Path" fill="#DBDDE3" fill-rule="nonzero"></path>
            <path d="M9.51596395,10.2657769 L8.60321866,9.35303165 C8.54013185,9.28994484 8.54013185,9.18793213 8.60321866,9.12551646 L8.75489545,8.97383967 C8.81798226,8.91075286 8.91999497,8.91075286 8.98241064,8.97383967 L9.62938598,9.62081501 L10.2763613,8.97383967 C10.3394481,8.91075286 10.4414608,8.91075286 10.5038765,8.97383967 L10.6555533,9.12551646 C10.7186401,9.18860327 10.7186401,9.29061598 10.6555533,9.35303165 L9.74280801,10.2657769 C9.68106347,10.3288638 9.57905076,10.3288638 9.51596395,10.2657769 L9.51596395,10.2657769 Z" id="Shape-Copy" fill="#01B6F5" fill-rule="nonzero" transform="translate(9.629386, 9.619808) scale(1, -1) rotate(-270.000000) translate(-9.629386, -9.619808) "></path>
            <path d="M46.5798617,10.2657769 L45.6671164,9.35303165 C45.6040296,9.28994484 45.6040296,9.18793213 45.6671164,9.12551646 L45.8187932,8.97383967 C45.88188,8.91075286 45.9838927,8.91075286 46.0463084,8.97383967 L46.6932837,9.62081501 L47.3402591,8.97383967 C47.4033459,8.91075286 47.5053586,8.91075286 47.5677743,8.97383967 L47.7194511,9.12551646 C47.7825379,9.18860327 47.7825379,9.29061598 47.7194511,9.35303165 L46.8067058,10.2657769 C46.7449612,10.3288638 46.6429485,10.3288638 46.5798617,10.2657769 L46.5798617,10.2657769 Z" id="Shape-Copy" fill="#01B6F5" fill-rule="nonzero" transform="translate(46.693284, 9.619808) rotate(-90.000000) translate(-46.693284, -9.619808) "></path>
            <g id="Group-120" transform="translate(51.000000, 7.500000)" fill-rule="nonzero">
                <g id="Group-46">
                    <g id="Group-16" transform="translate(8.000000, 2.000000)" fill="#01B6F5">
                        <path d="M0.594534158,0.939191225 L0.0293007048,0.336275541 C-0.00976690159,0.294603427 -0.00976690159,0.227218733 0.0293007048,0.18598994 L0.123229205,0.0857995396 C0.162296812,0.0441274262 0.225469962,0.0441274262 0.264121956,0.0857995396 L0.664772727,0.513160363 L1.0654235,0.0857995396 C1.10449111,0.0441274262 1.16766426,0.0441274262 1.20631625,0.0857995396 L1.30024475,0.18598994 C1.33931236,0.227662053 1.33931236,0.295046748 1.30024475,0.336275541 L0.735011296,0.939191225 C0.696774915,0.980863338 0.633601765,0.980863338 0.594534158,0.939191225 L0.594534158,0.939191225 Z" id="Shape-Copy" transform="translate(0.664773, 0.512495) rotate(-360.000000) translate(-0.664773, -0.512495) "></path>
                    </g>
                    <path d="M0.357142857,2.30031949 C0.357142857,3.37178682 1.22914903,4.24349612 2.30288913,4.24349612 L8.43193515,4.24349612 C9.50772676,4.24349612 10.3776814,3.37405881 10.3776814,2.30031949 C10.3776814,1.22885216 9.50567525,0.357142857 8.43193515,0.357142857 L2.30288913,0.357142857 C1.22709752,0.357142857 0.357142857,1.22658017 0.357142857,2.30031949 Z M0,2.30031949 C0,1.02988812 1.02930008,0 2.30288913,0 L8.43193515,0 C9.7037857,0 10.7348243,1.03247319 10.7348243,2.30031949 C10.7348243,3.57075086 9.7055242,4.60063898 8.43193515,4.60063898 L2.30288913,4.60063898 C1.03103858,4.60063898 0,3.56816579 0,2.30031949 Z" id="Rectangle-2" fill="#E3E5ED"></path>
                </g>
                <path d="M1.82623931,2.91693291 C1.59400992,2.91693291 1.4057508,2.69307528 1.4057508,2.41693291 C1.4057508,2.14079053 1.59400992,1.91693291 1.82623931,1.91693291 L6.48046996,1.91693291 C6.71269935,1.91693291 6.90095847,2.14079053 6.90095847,2.41693291 C6.90095847,2.69307528 6.71269935,2.91693291 6.48046996,2.91693291 L1.82623931,2.91693291 Z" id="Line-12-Copy-3" fill="#A4A7B5"></path>
            </g>
            <g id="Day-31----" transform="translate(25.241822, 34.514919)">
                <mask id="mask-2" fill="white">
                    <use xlink:href="#path-1"></use>
                </mask>
                <use id="Oval-2" fill="#01B6F5" xlink:href="#path-1"></use>
                <g id="BG" mask="url(#mask-2)" fill="#FFFFFF" fill-opacity="0">
                    <g transform="translate(-1.252396, -1.073482)" id="box">
                        <rect x="0" y="0" width="7.61958331" height="7.61674663"></rect>
                    </g>
                </g>
            </g>
            <path d="M11.4408946,16.2396166 C10.9468379,16.2396166 10.5463259,15.8391046 10.5463259,15.3450479 C10.5463259,14.8509913 10.9468379,14.4504792 11.4408946,14.4504792 L14.1246006,14.4504792 C14.6186573,14.4504792 15.0191693,14.8509913 15.0191693,15.3450479 C15.0191693,15.8391046 14.6186573,16.2396166 14.1246006,16.2396166 L11.4408946,16.2396166 Z M19.1341853,16.2396166 C18.6401287,16.2396166 18.2396166,15.8391046 18.2396166,15.3450479 C18.2396166,14.8509913 18.6401287,14.4504792 19.1341853,14.4504792 L21.8178914,14.4504792 C22.311948,14.4504792 22.7124601,14.8509913 22.7124601,15.3450479 C22.7124601,15.8391046 22.311948,16.2396166 21.8178914,16.2396166 L19.1341853,16.2396166 Z M26.827476,16.2396166 C26.3334194,16.2396166 25.9329073,15.8391046 25.9329073,15.3450479 C25.9329073,14.8509913 26.3334194,14.4504792 26.827476,14.4504792 L29.5111821,14.4504792 C30.0052388,14.4504792 30.4057508,14.8509913 30.4057508,15.3450479 C30.4057508,15.8391046 30.0052388,16.2396166 29.5111821,16.2396166 L26.827476,16.2396166 Z M34.5207668,16.2396166 C34.0267101,16.2396166 33.6261981,15.8391046 33.6261981,15.3450479 C33.6261981,14.8509913 34.0267101,14.4504792 34.5207668,14.4504792 L37.2044728,14.4504792 C37.6985295,14.4504792 38.0990415,14.8509913 38.0990415,15.3450479 C38.0990415,15.8391046 37.6985295,16.2396166 37.2044728,16.2396166 L34.5207668,16.2396166 Z M42.2140575,16.2396166 C41.7200009,16.2396166 41.3194888,15.8391046 41.3194888,15.3450479 C41.3194888,14.8509913 41.7200009,14.4504792 42.2140575,14.4504792 L44.8977636,14.4504792 C45.3918202,14.4504792 45.7923323,14.8509913 45.7923323,15.3450479 C45.7923323,15.8391046 45.3918202,16.2396166 44.8977636,16.2396166 L42.2140575,16.2396166 Z M49.9073482,16.2396166 C49.4132916,16.2396166 49.0127796,15.8391046 49.0127796,15.3450479 C49.0127796,14.8509913 49.4132916,14.4504792 49.9073482,14.4504792 L52.5910543,14.4504792 C53.085111,14.4504792 53.485623,14.8509913 53.485623,15.3450479 C53.485623,15.8391046 53.085111,16.2396166 52.5910543,16.2396166 L49.9073482,16.2396166 Z M57.600639,16.2396166 C57.1065823,16.2396166 56.7060703,15.8391046 56.7060703,15.3450479 C56.7060703,14.8509913 57.1065823,14.4504792 57.600639,14.4504792 L60.284345,14.4504792 C60.7784017,14.4504792 61.1789137,14.8509913 61.1789137,15.3450479 C61.1789137,15.8391046 60.7784017,16.2396166 60.284345,16.2396166 L57.600639,16.2396166 Z" id="Line-12" fill="#E3E5ED" fill-rule="nonzero"></path>
            <path d="M21.5734824,10.514377 C20.9806145,10.514377 20.5,10.0337625 20.5,9.44089457 C20.5,8.84802659 20.9806145,8.36741214 21.5734824,8.36741214 L35.4648562,8.36741214 C36.0577242,8.36741214 36.5383387,8.84802659 36.5383387,9.44089457 C36.5383387,10.0337625 36.0577242,10.514377 35.4648562,10.514377 L21.5734824,10.514377 Z" id="Line-12-Copy-2" fill="#01B6F5" fill-rule="nonzero"></path>
            <circle id="Oval" fill="#F4F6F9" fill-rule="nonzero" cx="12.6932907" cy="22.3226837" r="1.07348243"></circle>
            <circle id="Oval-Copy-9" fill="#576574" fill-rule="nonzero" cx="20.3865815" cy="22.3226837" r="1.07348243"></circle>
            <circle id="Oval-Copy-10" fill="#576574" fill-rule="nonzero" cx="27.9009585" cy="22.3226837" r="1.07348243"></circle>
            <circle id="Oval-Copy-11" fill="#576574" fill-rule="nonzero" cx="35.4153355" cy="22.3226837" r="1.07348243"></circle>
            <circle id="Oval-Copy-12" fill="#576574" fill-rule="nonzero" cx="42.9297125" cy="22.3226837" r="1.07348243"></circle>
            <circle id="Oval-Copy-13" fill="#576574" fill-rule="nonzero" cx="50.4440895" cy="22.3226837" r="1.07348243"></circle>
            <circle id="Oval-Copy-14" fill="#576574" fill-rule="nonzero" cx="57.9584665" cy="22.3226837" r="1.07348243"></circle>
            <circle id="Oval-Copy-15" fill="#576574" fill-rule="nonzero" cx="57.9584665" cy="29.8370607" r="1.07348243"></circle>
            <circle id="Oval-Copy-16" fill="#576574" fill-rule="nonzero" cx="50.4440895" cy="29.8370607" r="1.07348243"></circle>
            <circle id="Oval-Copy-22" fill="#576574" fill-rule="nonzero" cx="50.4440895" cy="37.172524" r="1.07348243"></circle>
            <circle id="Oval-Copy-29" fill="#576574" fill-rule="nonzero" cx="50.4440895" cy="44.8658147" r="1.07348243"></circle>
            <circle id="Oval-Copy-41" fill="#576574" fill-rule="nonzero" cx="57.9584665" cy="44.8658147" r="1.07348243"></circle>
            <circle id="Oval-Copy-42" fill="#F4F6F9" fill-rule="nonzero" cx="57.9584665" cy="52.201278" r="1.07348243"></circle>
            <circle id="Oval-Copy-40" fill="#F4F6F9" fill-rule="nonzero" cx="50.4440895" cy="52.0223642" r="1.07348243"></circle>
            <circle id="Oval-Copy-28" fill="#576574" fill-rule="nonzero" cx="57.9584665" cy="37.172524" r="1.07348243"></circle>
            <circle id="Oval-Copy-17" fill="#576574" fill-rule="nonzero" cx="42.9297125" cy="29.8370607" r="1.07348243"></circle>
            <circle id="Oval-Copy-23" fill="#576574" fill-rule="nonzero" cx="42.9297125" cy="37.172524" r="1.07348243"></circle>
            <circle id="Oval-Copy-30" fill="#576574" fill-rule="nonzero" cx="42.9297125" cy="44.8658147" r="1.07348243"></circle>
            <circle id="Oval-Copy-35" fill="#F4F6F9" fill-rule="nonzero" cx="42.9297125" cy="52.0223642" r="1.07348243"></circle>
            <circle id="Oval-Copy-18" fill="#576574" fill-rule="nonzero" cx="35.7731629" cy="29.8370607" r="1.07348243"></circle>
            <circle id="Oval-Copy-24" fill="#576574" fill-rule="nonzero" cx="35.7731629" cy="37.172524" r="1.07348243"></circle>
            <circle id="Oval-Copy-31" fill="#576574" fill-rule="nonzero" cx="35.7731629" cy="44.8658147" r="1.07348243"></circle>
            <circle id="Oval-Copy-36" fill="#576574" fill-rule="nonzero" cx="35.7731629" cy="52.0223642" r="1.07348243"></circle>
            <circle id="Oval-Copy-19" fill="#576574" fill-rule="nonzero" cx="27.9009585" cy="29.8370607" r="1.07348243"></circle>
            <circle id="Oval-Copy-25" fill="#FFFFFF" fill-rule="nonzero" cx="27.6734824" cy="36.9734824" r="1.07348243"></circle>
            <circle id="Oval-Copy-32" fill="#576574" fill-rule="nonzero" cx="27.9009585" cy="44.8658147" r="1.07348243"></circle>
            <circle id="Oval-Copy-37" fill="#576574" fill-rule="nonzero" cx="27.9009585" cy="52.0223642" r="1.07348243"></circle>
            <circle id="Oval-Copy-20" fill="#576574" fill-rule="nonzero" cx="20.3865815" cy="29.8370607" r="1.07348243"></circle>
            <circle id="Oval-Copy-26" fill="#576574" fill-rule="nonzero" cx="20.3865815" cy="37.172524" r="1.07348243"></circle>
            <circle id="Oval-Copy-33" fill="#576574" fill-rule="nonzero" cx="20.3865815" cy="44.8658147" r="1.07348243"></circle>
            <circle id="Oval-Copy-38" fill="#576574" fill-rule="nonzero" cx="20.3865815" cy="52.0223642" r="1.07348243"></circle>
            <circle id="Oval-Copy-21" fill="#576574" fill-rule="nonzero" cx="12.8722045" cy="29.8370607" r="1.07348243"></circle>
            <circle id="Oval-Copy-27" fill="#576574" fill-rule="nonzero" cx="12.8722045" cy="37.172524" r="1.07348243"></circle>
            <circle id="Oval-Copy-34" fill="#576574" fill-rule="nonzero" cx="12.8722045" cy="44.8658147" r="1.07348243"></circle>
            <circle id="Oval-Copy-39" fill="#576574" fill-rule="nonzero" cx="12.8722045" cy="52.0223642" r="1.07348243"></circle>
        </g>
    </g>
</svg>