<svg xmlns="http://www.w3.org/2000/svg" width="114" height="89" viewBox="0 0 114 89">
    <g fill="none" fill-rule="nonzero">
        <path fill="#FFF" d="M11 .75h92c5.66 0 10.25 4.59 10.25 10.25v67c0 5.66-4.59 10.25-10.25 10.25H11C5.34 88.25.75 83.66.75 78V11C.75 5.34 5.34.75 11 .75z"/>
        <path fill="#E3E5ED" d="M11 1.5A9.5 9.5 0 0 0 1.5 11v67a9.5 9.5 0 0 0 9.5 9.5h92a9.5 9.5 0 0 0 9.5-9.5V11a9.5 9.5 0 0 0-9.5-9.5H11zm0-.5h92c5.523 0 10 4.477 10 10v67c0 5.523-4.477 10-10 10H11C5.477 88 1 83.523 1 78V11C1 5.477 5.477 1 11 1z"/>
        <path fill="#A4A7B5" d="M39 15a1 1 0 0 1 0-2h36.5a1 1 0 0 1 0 2H39z"/>
        <path fill="#FE4849" d="M79.093 54.917a19.4 19.4 0 0 0-1.45-7.336 19.05 19.05 0 0 0-4.159-6.217 19.343 19.343 0 0 0-6.217-4.159 19.137 19.137 0 0 0-7.336-1.45 19.4 19.4 0 0 0-7.336 1.45 19.05 19.05 0 0 0-6.217 4.159 19.343 19.343 0 0 0-4.159 6.217 19.137 19.137 0 0 0-1.45 7.336H39c0-2.722.539-5.47 1.589-8a21.025 21.025 0 0 1 4.531-6.783 20.877 20.877 0 0 1 6.784-4.531 20.968 20.968 0 0 1 8-1.59c2.721 0 5.47.54 7.999 1.59a21.025 21.025 0 0 1 6.783 4.531 20.877 20.877 0 0 1 4.532 6.784 20.968 20.968 0 0 1 1.589 8h-1.714z"/>
        <path fill="#FF8A53" d="M77.325 54.917c0-2.266-.442-4.545-1.326-6.66a17.269 17.269 0 0 0-3.772-5.636 17.489 17.489 0 0 0-5.637-3.772 17.46 17.46 0 0 0-6.66-1.326c-2.265 0-4.544.442-6.658 1.326-2.1.87-4.034 2.156-5.637 3.772a17.489 17.489 0 0 0-3.772 5.637 17.46 17.46 0 0 0-1.326 6.66h-1.74c0-2.502.496-5.016 1.45-7.337a19.05 19.05 0 0 1 4.158-6.217 19.343 19.343 0 0 1 6.217-4.159 19.137 19.137 0 0 1 7.337-1.45c2.5 0 5.015.497 7.336 1.45a19.05 19.05 0 0 1 6.217 4.159 19.343 19.343 0 0 1 4.158 6.217 19.137 19.137 0 0 1 1.451 7.336h-1.796z"/>
        <path fill="#F6DB65" d="M75.557 54.917c0-2.045-.401-4.09-1.189-5.982a15.919 15.919 0 0 0-3.384-5.07 15.475 15.475 0 0 0-5.07-3.385 15.61 15.61 0 0 0-5.983-1.189c-2.045 0-4.09.401-5.982 1.189a15.919 15.919 0 0 0-5.07 3.384 15.475 15.475 0 0 0-3.386 5.07 15.61 15.61 0 0 0-1.188 5.983h-1.768c0-2.266.442-4.545 1.326-6.66.87-2.1 2.155-4.033 3.772-5.636a17.489 17.489 0 0 1 5.637-3.772 17.46 17.46 0 0 1 6.659-1.326c2.266 0 4.545.442 6.66 1.326 2.1.87 4.033 2.156 5.636 3.772a17.489 17.489 0 0 1 3.772 5.637 17.46 17.46 0 0 1 1.326 6.66h-1.768z"/>
        <path fill="#8DD46F" d="M73.802 54.917c0-1.824-.36-3.633-1.05-5.305a13.88 13.88 0 0 0-3.012-4.49 14.103 14.103 0 0 0-4.49-3.012 13.92 13.92 0 0 0-10.61 0 13.88 13.88 0 0 0-4.49 3.012 14.103 14.103 0 0 0-3.013 4.49 13.92 13.92 0 0 0-1.05 5.305H44.32c0-2.045.4-4.09 1.188-5.982a15.919 15.919 0 0 1 3.385-5.07 15.475 15.475 0 0 1 5.07-3.385 15.61 15.61 0 0 1 5.983-1.189c2.044 0 4.09.401 5.982 1.189a15.919 15.919 0 0 1 5.07 3.384 15.475 15.475 0 0 1 3.385 5.07 15.61 15.61 0 0 1 1.188 5.983h-1.768z"/>
        <path fill="#01B6F5" d="M72.034 54.917c0-1.589-.318-3.164-.912-4.628a12.157 12.157 0 0 0-2.625-3.924 12.157 12.157 0 0 0-3.924-2.625 12.071 12.071 0 0 0-4.628-.912c-1.59 0-3.164.318-4.629.912a12.157 12.157 0 0 0-3.923 2.625 12.157 12.157 0 0 0-2.625 3.924 12.071 12.071 0 0 0-.912 4.628h-1.768c0-1.824.359-3.633 1.05-5.305a13.88 13.88 0 0 1 3.011-4.49 14.103 14.103 0 0 1 4.49-3.012 13.92 13.92 0 0 1 10.611 0 13.88 13.88 0 0 1 4.49 3.012 14.103 14.103 0 0 1 3.012 4.49 13.92 13.92 0 0 1 1.05 5.305h-1.768z"/>
        <path fill="#5C56B6" d="M70.265 54.917c0-1.368-.262-2.708-.787-3.951a10.511 10.511 0 0 0-2.239-3.357 10.362 10.362 0 0 0-7.308-3.026c-1.368 0-2.708.262-3.951.787a10.511 10.511 0 0 0-3.358 2.239 10.362 10.362 0 0 0-3.025 7.308h-1.769c0-1.589.318-3.164.912-4.628a12.157 12.157 0 0 1 2.625-3.924 12.157 12.157 0 0 1 3.924-2.625 12.071 12.071 0 0 1 4.628-.912c1.589 0 3.164.318 4.628.912a12.157 12.157 0 0 1 3.924 2.625 12.157 12.157 0 0 1 2.625 3.924c.608 1.464.912 3.04.912 4.628h-1.74z"/>
        <path fill="#F4F6F9" d="M28 55.514C28 51.368 31.29 48 35.342 48c2.96 0 5.517 1.797 6.679 4.373.193-.015.387-.029.58-.029 1.853 0 3.485.948 4.48 2.378.443-.198.94-.297 1.452-.297 1.01 0 1.936.41 2.614 1.09a2.632 2.632 0 0 1 2.212-1.232c1.466 0 2.641 1.217 2.641 2.703L28.138 57A7.516 7.516 0 0 1 28 55.514zM92 60H61c.014-1.53 1.327-2.757 2.946-2.757.503 0 .964.118 1.383.33.516-1.61 2.108-2.784 3.98-2.784.195 0 .39.013.586.04C70.37 52.097 72.883 50 75.914 50c2.764 0 5.096 1.728 5.85 4.103a8.84 8.84 0 0 1 2.235-.29c3.937 0 7.247 2.665 8.001 6.187z"/>
    </g>
</svg>
