<svg xmlns="http://www.w3.org/2000/svg" width="101" height="80" viewBox="0 0 101 80">
    <g fill="none" fill-rule="nonzero">
        <g transform="translate(45.09 74.182)">
            <circle cx="1.091" cy="1.091" r="1.091" fill="#01B6F5"/>
            <circle cx="5.455" cy="1.091" r="1.091" fill="#E3E5ED"/>
            <circle cx="9.818" cy="1.091" r="1.091" fill="#E3E5ED"/>
        </g>
        <path fill="#FFF" d="M8 0h84.364a8 8 0 0 1 8 8v53.818a8 8 0 0 1-8 8H8a8 8 0 0 1-8-8V8a8 8 0 0 1 8-8z"/>
        <path fill="#E3E5ED" d="M8 .5A7.5 7.5 0 0 0 .5 8v53.818a7.5 7.5 0 0 0 7.5 7.5h84.364a7.5 7.5 0 0 0 7.5-7.5V8a7.5 7.5 0 0 0-7.5-7.5H8zM8 0h84.364a8 8 0 0 1 8 8v53.818a8 8 0 0 1-8 8H8a8 8 0 0 1-8-8V8a8 8 0 0 1 8-8z"/>
        <path fill="#FE4849" d="M75.576 39.542c0-3.336-.665-6.69-1.938-9.787a25.412 25.412 0 0 0-5.553-8.294 25.833 25.833 0 0 0-8.303-5.548 25.579 25.579 0 0 0-9.797-1.936c-3.34 0-6.697.664-9.797 1.936a25.44 25.44 0 0 0-8.303 5.548 25.804 25.804 0 0 0-5.553 8.294 25.509 25.509 0 0 0-1.937 9.787h-2.362c0-3.63.72-7.299 2.122-10.672a27.882 27.882 0 0 1 15.11-15.096 28.026 28.026 0 0 1 10.683-2.12c3.635 0 7.306.72 10.683 2.12a28.08 28.08 0 0 1 9.059 6.046 27.851 27.851 0 0 1 8.173 19.722h-2.287z"/>
        <path fill="#FF8A53" d="M73.214 39.542c0-3.023-.59-6.064-1.771-8.884a23.037 23.037 0 0 0-5.037-7.52 23.357 23.357 0 0 0-7.528-5.032 23.336 23.336 0 0 0-8.893-1.77c-3.026 0-6.07.59-8.893 1.77a23.063 23.063 0 0 0-7.528 5.032 23.33 23.33 0 0 0-5.037 7.52 23.272 23.272 0 0 0-1.77 8.884H24.43c0-3.336.665-6.69 1.938-9.787a25.412 25.412 0 0 1 5.553-8.294 25.833 25.833 0 0 1 8.303-5.548 25.579 25.579 0 0 1 9.797-1.936c3.34 0 6.697.664 9.797 1.936a25.44 25.44 0 0 1 8.303 5.548 25.804 25.804 0 0 1 5.553 8.294 25.509 25.509 0 0 1 1.937 9.787h-2.398z"/>
        <path fill="#F6DB65" d="M70.852 39.542c0-2.728-.535-5.456-1.586-7.98a21.236 21.236 0 0 0-4.52-6.765 20.667 20.667 0 0 0-6.772-4.516 20.866 20.866 0 0 0-7.989-1.585c-2.73 0-5.461.534-7.989 1.585a21.26 21.26 0 0 0-6.771 4.516 20.644 20.644 0 0 0-4.52 6.764 20.809 20.809 0 0 0-1.587 7.981h-2.362c0-3.023.59-6.064 1.771-8.884a23.037 23.037 0 0 1 5.037-7.52 23.357 23.357 0 0 1 7.528-5.032 23.336 23.336 0 0 1 8.893-1.77c3.026 0 6.07.59 8.893 1.77a23.063 23.063 0 0 1 7.528 5.032 23.33 23.33 0 0 1 5.037 7.52 23.272 23.272 0 0 1 1.77 8.884h-2.36z"/>
        <path fill="#8DD46F" d="M68.51 39.542c0-2.433-.48-4.847-1.403-7.078a18.515 18.515 0 0 0-4.022-5.99 18.835 18.835 0 0 0-5.997-4.018 18.605 18.605 0 0 0-14.17 0 18.536 18.536 0 0 0-5.996 4.018 18.814 18.814 0 0 0-4.022 5.99 18.554 18.554 0 0 0-1.402 7.078h-2.362c0-2.728.535-5.456 1.587-7.98a21.236 21.236 0 0 1 4.52-6.765 20.667 20.667 0 0 1 6.772-4.516 20.866 20.866 0 0 1 7.988-1.585c2.731 0 5.462.534 7.99 1.585a21.26 21.26 0 0 1 6.77 4.516 20.644 20.644 0 0 1 4.521 6.764 20.809 20.809 0 0 1 1.587 7.981h-2.362z"/>
        <path fill="#01B6F5" d="M66.147 39.542c0-2.12-.424-4.22-1.217-6.174a16.218 16.218 0 0 0-3.506-5.235 16.236 16.236 0 0 0-5.24-3.502 16.134 16.134 0 0 0-6.18-1.217c-2.122 0-4.226.424-6.181 1.217a16.236 16.236 0 0 0-5.24 3.502 16.218 16.218 0 0 0-3.506 5.235 16.09 16.09 0 0 0-1.217 6.174h-2.362c0-2.433.48-4.847 1.402-7.078a18.515 18.515 0 0 1 4.022-5.99 18.835 18.835 0 0 1 5.997-4.018 18.605 18.605 0 0 1 14.17 0 18.536 18.536 0 0 1 5.996 4.018 18.814 18.814 0 0 1 4.022 5.99 18.554 18.554 0 0 1 1.402 7.078h-2.362z"/>
        <path fill="#5C56B6" d="M63.786 39.542c0-1.825-.35-3.612-1.052-5.271a14.022 14.022 0 0 0-2.989-4.48 13.839 13.839 0 0 0-4.483-2.985 13.891 13.891 0 0 0-5.277-1.05c-1.827 0-3.616.35-5.277 1.05a14.038 14.038 0 0 0-4.483 2.986 13.823 13.823 0 0 0-4.04 9.75h-2.362c0-2.12.424-4.22 1.217-6.174a16.218 16.218 0 0 1 3.506-5.235 16.236 16.236 0 0 1 5.24-3.502 16.134 16.134 0 0 1 6.18-1.217c2.122 0 4.226.424 6.181 1.217a16.236 16.236 0 0 1 5.24 3.502 16.218 16.218 0 0 1 3.506 5.235 16.09 16.09 0 0 1 1.218 6.174h-2.325z"/>
        <path fill="#F4F6F9" d="M7.383 40.39c0-5.4 4.392-9.787 9.798-9.787a9.824 9.824 0 0 1 8.911 5.695 10.9 10.9 0 0 1 .775-.037c2.472 0 4.65 1.235 5.978 3.097a4.848 4.848 0 0 1 1.937-.387c1.347 0 2.583.534 3.487 1.42a3.522 3.522 0 0 1 6.476 1.917l-37.177.017a9.564 9.564 0 0 1-.185-1.935zM92.974 46.528h-40.96a3.884 3.884 0 0 1 5.72-3.392 5.502 5.502 0 0 1 6.033-3.833c.628-3.816 3.949-6.746 7.952-6.746a8.064 8.064 0 0 1 7.731 5.732 11.083 11.083 0 0 1 2.952-.406c5.203 0 9.576 3.724 10.572 8.645z"/>
        <path fill="#E3E5ED" d="M.5 54.745v-.4h99.336v.4z"/>
        <path fill="#A4A7B5" d="M30.182 63.273a1.09 1.09 0 0 1 0-2.182H70a1.09 1.09 0 1 1 0 2.182H30.182z"/>
        <g>
            <path fill="#576574" d="M5.065 76.364h-.468a.234.234 0 0 1-.233-.234v-1.714c0-.13.104-.234.233-.234h.468c.129 0 .234.105.234.234v1.714c0 .129-.105.234-.234.234zm1.48-.234v-1.714a.234.234 0 0 0-.233-.234h-.468a.234.234 0 0 0-.234.234v1.714c0 .129.105.234.234.234h.468c.129 0 .233-.105.233-.234z"/>
            <path fill="#E3E5ED" d="M5.527 79.132a3.786 3.786 0 1 1 0-7.573 3.786 3.786 0 0 1 0 7.573zm0-.3a3.486 3.486 0 1 0 0-6.973 3.486 3.486 0 0 0 0 6.973z"/>
        </g>
    </g>
</svg>
