<svg xmlns="http://www.w3.org/2000/svg" width="115" height="80" viewBox="0 0 115 80">
    <g fill="none" fill-rule="nonzero">
        <path fill="#FFF" d="M8 0h99a8 8 0 0 1 8 8v64a8 8 0 0 1-8 8H8a8 8 0 0 1-8-8V8a8 8 0 0 1 8-8z"/>
        <path fill="#E3E5ED" d="M8 .5A7.5 7.5 0 0 0 .5 8v64A7.5 7.5 0 0 0 8 79.5h99a7.5 7.5 0 0 0 7.5-7.5V8A7.5 7.5 0 0 0 107 .5H8zM8 0h99a8 8 0 0 1 8 8v64a8 8 0 0 1-8 8H8a8 8 0 0 1-8-8V8a8 8 0 0 1 8-8z"/>
        <path fill="#FE4849" d="M86.597 45.309a29.63 29.63 0 0 0-2.22-11.215 29.118 29.118 0 0 0-6.363-9.504 29.6 29.6 0 0 0-9.514-6.357c-3.551-1.478-7.399-2.217-11.225-2.217-3.827 0-7.675.76-11.226 2.217a29.151 29.151 0 0 0-9.514 6.357 29.567 29.567 0 0 0-6.363 9.504c-1.48 3.548-2.22 7.392-2.22 11.215h-2.706c0-4.16.825-8.364 2.431-12.229a32.138 32.138 0 0 1 6.934-10.37 31.949 31.949 0 0 1 10.38-6.927 32.113 32.113 0 0 1 12.241-2.429c4.165 0 8.372.824 12.24 2.43a32.174 32.174 0 0 1 10.381 6.927 31.913 31.913 0 0 1 9.365 22.598h-2.621z"/>
        <path fill="#FF8A53" d="M83.89 45.309c0-3.464-.676-6.949-2.029-10.18a26.397 26.397 0 0 0-5.771-8.617 26.763 26.763 0 0 0-8.626-5.766 26.74 26.74 0 0 0-10.19-2.027 26.5 26.5 0 0 0-10.19 2.027 26.427 26.427 0 0 0-8.625 5.766 26.733 26.733 0 0 0-5.771 8.617 26.666 26.666 0 0 0-2.03 10.18h-2.664c0-3.823.761-7.667 2.22-11.215a29.118 29.118 0 0 1 6.364-9.504 29.6 29.6 0 0 1 9.513-6.357c3.552-1.478 7.4-2.217 11.226-2.217 3.826 0 7.674.76 11.226 2.217a29.151 29.151 0 0 1 9.513 6.357 29.567 29.567 0 0 1 6.363 9.504c1.48 3.548 2.22 7.392 2.22 11.215h-2.748z"/>
        <path fill="#F6DB65" d="M81.185 45.309c0-3.126-.613-6.252-1.818-9.145a24.333 24.333 0 0 0-5.18-7.751 23.68 23.68 0 0 0-7.758-5.174 23.908 23.908 0 0 0-9.154-1.817c-3.13 0-6.258.613-9.154 1.817a24.36 24.36 0 0 0-7.76 5.174 23.654 23.654 0 0 0-5.179 7.75 23.843 23.843 0 0 0-1.818 9.146h-2.706c0-3.464.677-6.949 2.03-10.18a26.397 26.397 0 0 1 5.771-8.617 26.763 26.763 0 0 1 8.626-5.766 26.74 26.74 0 0 1 10.19-2.027 26.5 26.5 0 0 1 10.19 2.027 26.427 26.427 0 0 1 8.625 5.766 26.733 26.733 0 0 1 5.771 8.617 26.666 26.666 0 0 1 2.03 10.18h-2.706z"/>
        <path fill="#8DD46F" d="M78.5 45.309c0-2.788-.55-5.555-1.607-8.11a21.215 21.215 0 0 0-4.608-6.864 21.582 21.582 0 0 0-6.871-4.604 21.318 21.318 0 0 0-16.236 0 21.24 21.24 0 0 0-6.871 4.604 21.558 21.558 0 0 0-4.609 6.864 21.26 21.26 0 0 0-1.607 8.11h-2.706c0-3.126.613-6.252 1.818-9.145a24.333 24.333 0 0 1 5.18-7.751 23.68 23.68 0 0 1 7.759-5.174 23.908 23.908 0 0 1 9.154-1.817c3.129 0 6.257.613 9.154 1.817a24.36 24.36 0 0 1 7.758 5.174 23.654 23.654 0 0 1 5.18 7.75 23.843 23.843 0 0 1 1.818 9.146H78.5z"/>
        <path fill="#01B6F5" d="M75.794 45.309a18.84 18.84 0 0 0-1.395-7.075 18.583 18.583 0 0 0-4.017-5.998 18.604 18.604 0 0 0-6.004-4.013 18.487 18.487 0 0 0-7.082-1.394c-2.432 0-4.842.486-7.083 1.394a18.604 18.604 0 0 0-6.004 4.013 18.583 18.583 0 0 0-4.016 5.998 18.437 18.437 0 0 0-1.396 7.075h-2.706c0-2.788.55-5.555 1.607-8.11a21.215 21.215 0 0 1 4.609-6.864 21.582 21.582 0 0 1 6.87-4.604 21.318 21.318 0 0 1 16.237 0 21.24 21.24 0 0 1 6.87 4.604 21.558 21.558 0 0 1 4.61 6.864 21.26 21.26 0 0 1 1.606 8.11h-2.706z"/>
        <path fill="#5C56B6" d="M73.088 45.309c0-2.091-.402-4.14-1.205-6.04-.782-1.901-1.966-3.654-3.425-5.133a15.857 15.857 0 0 0-5.137-3.421 15.917 15.917 0 0 0-6.046-1.204c-2.093 0-4.144.401-6.047 1.204-1.902.781-3.657 1.964-5.137 3.421a15.839 15.839 0 0 0-4.63 11.173h-2.706c0-2.429.486-4.837 1.395-7.075a18.583 18.583 0 0 1 4.017-5.998 18.604 18.604 0 0 1 6.004-4.013 18.487 18.487 0 0 1 7.082-1.394c2.432 0 4.842.486 7.083 1.394 2.24.93 4.291 2.302 6.004 4.013a18.583 18.583 0 0 1 4.016 5.998 18.437 18.437 0 0 1 1.396 7.075h-2.664z"/>
        <path fill="#F4F6F9" d="M8.46 46.28c0-6.188 5.032-11.214 11.226-11.214 4.524 0 8.435 2.682 10.211 6.526.296-.021.592-.043.888-.043 2.833 0 5.327 1.415 6.85 3.549a5.555 5.555 0 0 1 2.22-.444 5.7 5.7 0 0 1 3.995 1.626 4.036 4.036 0 0 1 7.42 2.196l-42.598.022a10.958 10.958 0 0 1-.212-2.218zM106.533 53.313H59.6a4.45 4.45 0 0 1 6.554-3.886 6.305 6.305 0 0 1 6.913-4.393c.719-4.372 4.524-7.73 9.112-7.73a9.24 9.24 0 0 1 8.858 6.569 12.7 12.7 0 0 1 3.382-.465c5.962 0 10.972 4.266 12.114 9.905z"/>
        <path fill="#E3E5ED" d="M.602 62.7v-.4h113.765v.4z"/>
    </g>
</svg>
