<svg xmlns="http://www.w3.org/2000/svg" width="159" height="63" viewBox="0 0 159 63">
    <g fill="none" fill-rule="nonzero">
        <path fill="#FC0" d="M132.445 61.245c14.249 0 25.8-11.229 25.8-25.478 0 0-26.445 0-26.445.323l-16.06 19.017a25.698 25.698 0 0 0 16.705 6.138z"/>
        <path fill="#FF6837" d="M133.09 35.122l25.155-.322c0-10.115-5.821-18.87-14.296-23.1 0 0-10.86 23.1-10.86 23.422z"/>
        <path fill="#FE4849" d="M143.152 11.303c-3.141-1.542-6.641-2.141-10.341-2.284 0 0-.044 25.78-.366 25.78.043 0 10.707-23.496 10.707-23.496z"/>
        <path fill="#1AD1A3" d="M131.8 34.8V9C117.55 9 106 20.551 106 34.8c0 7.923 3.572 15.013 9.193 19.745L131.8 34.8z"/>
        <g>
            <path fill="#FE6D6D" d="M35.418 49.129a3.287 3.287 0 0 1 3.287 3.287v10.278h-6.574V52.416a3.287 3.287 0 0 1 3.287-3.287z"/>
            <path fill="#FE4849" d="M33.13 61.694h4.575v-9.278a2.287 2.287 0 0 0-4.574 0v9.278zm2.288-12.565a3.287 3.287 0 0 1 3.287 3.287v10.278h-6.574V52.416a3.287 3.287 0 0 1 3.287-3.287z"/>
            <path fill="#FF865F" d="M42.979 0a3.287 3.287 0 0 1 3.287 3.287v59.04h-6.575V3.287A3.287 3.287 0 0 1 42.98 0z"/>
            <path fill="#FF6837" d="M40.691 61.327h4.575V3.287a2.287 2.287 0 0 0-4.575 0v58.04zM42.98 0a3.287 3.287 0 0 1 3.287 3.287v59.04h-6.575V3.287A3.287 3.287 0 0 1 42.98 0z"/>
            <path fill="#FFD633" d="M53.827 21.252v41.442h-6.575V21.252a3.287 3.287 0 0 1 6.575 0z"/>
            <path fill="#FC0" d="M52.827 61.694V21.252a2.287 2.287 0 0 0-4.575 0v40.442h4.575zm-2.287-43.73a3.287 3.287 0 0 1 3.287 3.288v41.442h-6.575V21.252a3.287 3.287 0 0 1 3.288-3.287z"/>
            <path fill="#48DAB5" d="M61.388 34.45v27.877h-6.575V34.451a3.287 3.287 0 0 1 6.575 0z"/>
            <path fill="#1AD1A3" d="M60.388 61.327V34.451a2.287 2.287 0 1 0-4.575 0v26.876h4.575zm1-26.876v27.876h-6.575V34.451a3.287 3.287 0 0 1 6.575 0z"/>
            <g>
                <path fill="#FF865F" d="M71.868 40.275a3.166 3.166 0 0 1 3.167 3.166v18.885h-6.333V43.441a3.166 3.166 0 0 1 3.166-3.166z"/>
                <path fill="#FF6837" d="M74.035 61.326V43.441a2.166 2.166 0 0 0-4.333 0v17.885h4.333zm-2.167-21.051a3.166 3.166 0 0 1 3.167 3.166v18.885h-6.333V43.441a3.166 3.166 0 0 1 3.166-3.166z"/>
                <path fill="#FFD633" d="M79.151 27.41a3.166 3.166 0 0 1 3.166 3.167v32.117h-6.332V30.577a3.166 3.166 0 0 1 3.166-3.166z"/>
                <path fill="#FC0" d="M81.317 61.694V30.577a2.166 2.166 0 1 0-4.332 0v31.117h4.332zM79.151 27.41a3.166 3.166 0 0 1 3.166 3.166v32.117h-6.332V30.577a3.166 3.166 0 0 1 3.166-3.166z"/>
                <path fill="#48DAB5" d="M89.6 5.953v56.373h-6.333V5.953a3.166 3.166 0 1 1 6.333 0z"/>
                <path fill="#1AD1A3" d="M84.267 61.326H88.6V5.953a2.166 2.166 0 0 0-4.333 0v55.373zm2.167-58.54A3.166 3.166 0 0 1 89.6 5.953v56.373h-6.333V5.953a3.166 3.166 0 0 1 3.167-3.167z"/>
            </g>
            <g>
                <path fill="#FC6765" d="M3.287 32.119a3.287 3.287 0 0 1 3.288 3.287v27.288H0V35.406a3.287 3.287 0 0 1 3.287-3.287z"/>
                <path fill="#FE4849" d="M1 61.694h4.575V35.406a2.287 2.287 0 0 0-4.575 0v26.288zm2.287-29.575a3.287 3.287 0 0 1 3.288 3.287v27.288H0V35.406a3.287 3.287 0 0 1 3.287-3.287z"/>
                <path fill="#FF865F" d="M10.848 29.935a3.287 3.287 0 0 1 3.287 3.287v29.472H7.561V33.222a3.287 3.287 0 0 1 3.287-3.287z"/>
                <path fill="#FF6837" d="M8.56 61.694h4.575V33.222a2.287 2.287 0 1 0-4.574 0v28.472zm2.288-31.76a3.287 3.287 0 0 1 3.287 3.288v29.472H7.561V33.222a3.287 3.287 0 0 1 3.287-3.287z"/>
                <path fill="#48DAB5" d="M24.664 22.291a3.287 3.287 0 0 1 3.287 3.287v37.116h-6.575V25.578a3.287 3.287 0 0 1 3.288-3.287z"/>
                <path fill="#1AD1A3" d="M26.951 61.694V25.578a2.287 2.287 0 0 0-4.575 0v36.116h4.575zM24.664 22.29a3.287 3.287 0 0 1 3.287 3.287v37.116h-6.575V25.578a3.287 3.287 0 0 1 3.288-3.287z"/>
            </g>
        </g>
    </g>
</svg>
