<?xml version="1.0" encoding="UTF-8"?>
<svg width="147px" height="72px" viewBox="0 0 147 72" version="1.1" xmlns="http://www.w3.org/2000/svg" xmlns:xlink="http://www.w3.org/1999/xlink">
    <!-- Generator: Sketch 53.2 (72643) - https://sketchapp.com -->
    <title>chip</title>
    <desc>Created with Sketch.</desc>
    <g id="pages" stroke="none" stroke-width="1" fill="none" fill-rule="evenodd">
        <g id="componentes-V2" transform="translate(-831.000000, -2477.000000)">
            <g id="chip" transform="translate(831.000000, 2477.000000)">
                <g id="Group-90" transform="translate(85.000000, 3.000000)">
                    <g id="like" transform="translate(5.000000, 3.000000)" fill="#576574" fill-rule="nonzero">
                        <path d="M3.60881057,6.38821498 C3.55910485,6.38821498 3.50939912,6.370763 3.46953304,6.33587313 L3.46029956,6.3277815 C3.15280352,6.05874185 2.86397181,5.81262379 2.5846696,5.57459736 C1.83512247,4.93588018 1.18783436,4.38429604 0.737903084,3.84917709 C0.234474009,3.25043877 0,2.69186256 0,2.09129163 C0,1.53956652 0.187023789,1.02350661 0.526590308,0.638181498 C0.882593833,0.234234361 1.3764511,0.011785022 1.91718062,0.011785022 C2.67768106,0.011785022 3.15916123,0.465987665 3.42914537,0.847027313 C3.49920705,0.945903084 3.55878062,1.0450467 3.60881057,1.13834009 C3.65884053,1.0450467 3.71842819,0.945903084 3.78847577,0.847027313 C4.05845991,0.466001762 4.53994009,0.011785022 5.30044053,0.011785022 C5.84117004,0.011785022 6.33502731,0.234248458 6.69101674,0.638181498 C7.03059736,1.02350661 7.21762115,1.53956652 7.21762115,2.09129163 C7.21762115,2.69186256 6.98314714,3.25045286 6.47971806,3.84917709 C6.02978678,4.38429604 5.38249868,4.93588018 4.63299383,5.57456916 C4.35364934,5.81262379 4.06481762,6.05874185 3.75732159,6.3277815 L3.74808811,6.33587313 C3.70822203,6.37077709 3.6585163,6.38821498 3.60881057,6.38821498 Z"></path>
                    </g>
                    <path d="M0.3375,6 C0.3375,9.12295301 2.87521192,11.6625 6.00031854,11.6625 L52.9996815,11.6625 C56.1261314,11.6625 58.6625,9.12673713 58.6625,6 C58.6625,2.87704699 56.1247881,0.3375 52.9996815,0.3375 L6.00031854,0.3375 C2.87386861,0.3375 0.3375,2.87326287 0.3375,6 Z M5.32907052e-14,6 C5.32907052e-14,2.6862915 2.6880479,0 6.00031854,0 L52.9996815,0 C56.3135659,0 59,2.69303423 59,6 C59,9.3137085 56.3119521,12 52.9996815,12 L6.00031854,12 C2.68643412,12 5.32907052e-14,9.30696577 5.32907052e-14,6 Z" id="button-[0-16]" fill="#D4D7E2" fill-rule="nonzero"></path>
                    <path d="M16,6 C16,5.17157288 16.6715729,4.5 17.5,4.5 L44.4125,4.5 C45.2409271,4.5 45.9125,5.17157288 45.9125,6 C45.9125,6.82842712 45.2409271,7.5 44.4125,7.5 L17.5,7.5 C16.6715729,7.5 16,6.82842712 16,6 Z" fill="#576574" fill-rule="nonzero"></path>
                    <g id="Group-29" transform="translate(50.000000, 3.000000)">
                        <rect id="bkgd" x="0" y="0" width="6" height="6" rx="3"></rect>
                        <path d="M3.26539015,3.00003127 L4.44515208,1.82026934 C4.51844942,1.74703454 4.51844942,1.6282078 4.44515208,1.554973 C4.37185474,1.48167567 4.25315308,1.48167567 4.17985574,1.554973 L3.00009381,2.73473493 L1.82026934,1.554973 C1.746972,1.48167567 1.62827034,1.48167567 1.554973,1.554973 C1.48167567,1.6282078 1.48167567,1.74703454 1.554973,1.82026934 L2.73479747,3.00003127 L1.554973,4.1797932 C1.48167567,4.253028 1.48167567,4.37185474 1.554973,4.44508954 C1.59162167,4.48167567 1.63965269,4.5 1.68762117,4.5 C1.73558965,4.5 1.78362067,4.48167567 1.82026934,4.445027 L3.00009381,3.26526507 L4.17985574,4.445027 C4.21650441,4.48167567 4.26453543,4.5 4.31250391,4.5 C4.36047239,4.5 4.40850341,4.48167567 4.44515208,4.445027 C4.51844942,4.3717922 4.51844942,4.25296546 4.44515208,4.17973066 L3.26539015,3.00003127 Z" id="Shape" fill="#8592A0" fill-rule="nonzero"></path>
                    </g>
                </g>
                <g id="Group-88" fill-rule="nonzero">
                    <path d="M0.3375,6 C0.3375,9.12295301 2.87521192,11.6625 6.00031854,11.6625 L44.9996815,11.6625 C48.1261314,11.6625 50.6625,9.12673713 50.6625,6 C50.6625,2.87704699 48.1247881,0.3375 44.9996815,0.3375 L6.00031854,0.3375 C2.87386861,0.3375 0.3375,2.87326287 0.3375,6 Z M0,6 C0,2.6862915 2.6880479,0 6.00031854,0 L44.9996815,0 C48.3135659,0 51,2.69303423 51,6 C51,9.3137085 48.3119521,12 44.9996815,12 L6.00031854,12 C2.68643412,12 0,9.30696577 0,6 Z" id="button-[0-16]" fill="#01B6F5"></path>
                    <path d="M16.5,6 C16.5,5.17157288 17.1715729,4.5 18,4.5 L41.9125,4.5 C42.7409271,4.5 43.4125,5.17157288 43.4125,6 C43.4125,6.82842712 42.7409271,7.5 41.9125,7.5 L18,7.5 C17.1715729,7.5 16.5,6.82842712 16.5,6 Z" fill="#01B6F5"></path>
                    <g id="Group-18">
                        <circle id="Oval" fill="#01B6F5" cx="6" cy="6" r="6"></circle>
                        <g id="person" transform="translate(2.000000, 2.500000)" fill="#FFFFFF">
                            <path d="M4.10412531,4.11937832 C3.00085152,4.11937832 2.10346396,3.22199072 2.10346396,2.11871693 C2.10346396,1.01544312 3.00085152,0.118055556 4.10412531,0.118055556 C5.20739915,0.118055556 6.10478669,1.01544312 6.10478669,2.11871693 C6.10478669,3.22199072 5.20739915,4.11937832 4.10412531,4.11937832 Z M4.10412531,0.481812168 C3.20164516,0.481812168 2.46722057,1.21623677 2.46722057,2.11871693 C2.46722057,3.02119709 3.20164516,3.75562168 4.10412531,3.75562168 C5.00660551,3.75562168 5.74103011,3.02119709 5.74103011,2.11871693 C5.74103011,1.21623677 5.00660551,0.481812168 4.10412531,0.481812168 Z" id="Shape"></path>
                            <path d="M0.408529169,7.47512369 C0.353232385,7.56267693 0.237429557,7.58882595 0.149876314,7.53352917 C0.0623230715,7.47823238 0.0361740459,7.36242956 0.0914708307,7.27487631 C1.12424234,5.63965476 2.47381063,4.8125 4.125,4.8125 C5.77618937,4.8125 7.12575766,5.63965476 8.15852917,7.27487631 C8.21382595,7.36242956 8.18767693,7.47823238 8.10012369,7.53352917 C8.01257044,7.58882595 7.89676762,7.56267693 7.84147083,7.47512369 C6.87424234,5.94367858 5.64047729,5.1875 4.125,5.1875 C2.60952271,5.1875 1.37575766,5.94367858 0.408529169,7.47512369 Z" id="Line-2"></path>
                        </g>
                    </g>
                </g>
                <g id="Group-92" transform="translate(45.000000, 30.000000)">
                    <path d="M0.3375,6 C0.3375,9.12295301 2.87521192,11.6625 6.00031854,11.6625 L44.9996815,11.6625 C48.1261314,11.6625 50.6625,9.12673713 50.6625,6 C50.6625,2.87704699 48.1247881,0.3375 44.9996815,0.3375 L6.00031854,0.3375 C2.87386861,0.3375 0.3375,2.87326287 0.3375,6 Z M0,6 C0,2.6862915 2.6880479,0 6.00031854,0 L44.9996815,0 C48.3135659,0 51,2.69303423 51,6 C51,9.3137085 48.3119521,12 44.9996815,12 L6.00031854,12 C2.68643412,12 0,9.30696577 0,6 Z" id="button-[0-16]" fill="#D4D7E2" fill-rule="nonzero"></path>
                    <path d="M6,6 C6,5.17157288 6.67157288,4.5 7.5,4.5 L31.4125,4.5 C32.2409271,4.5 32.9125,5.17157288 32.9125,6 C32.9125,6.82842712 32.2409271,7.5 31.4125,7.5 L7.5,7.5 C6.67157288,7.5 6,6.82842712 6,6 Z" fill="#576574" fill-rule="nonzero"></path>
                    <g id="Group-29" transform="translate(42.000000, 3.000000)">
                        <rect id="bkgd" x="0" y="0" width="6" height="6" rx="3"></rect>
                        <path d="M3.26539015,3.00003127 L4.44515208,1.82026934 C4.51844942,1.74703454 4.51844942,1.6282078 4.44515208,1.554973 C4.37185474,1.48167567 4.25315308,1.48167567 4.17985574,1.554973 L3.00009381,2.73473493 L1.82026934,1.554973 C1.746972,1.48167567 1.62827034,1.48167567 1.554973,1.554973 C1.48167567,1.6282078 1.48167567,1.74703454 1.554973,1.82026934 L2.73479747,3.00003127 L1.554973,4.1797932 C1.48167567,4.253028 1.48167567,4.37185474 1.554973,4.44508954 C1.59162167,4.48167567 1.63965269,4.5 1.68762117,4.5 C1.73558965,4.5 1.78362067,4.48167567 1.82026934,4.445027 L3.00009381,3.26526507 L4.17985574,4.445027 C4.21650441,4.48167567 4.26453543,4.5 4.31250391,4.5 C4.36047239,4.5 4.40850341,4.48167567 4.44515208,4.445027 C4.51844942,4.3717922 4.51844942,4.25296546 4.44515208,4.17973066 L3.26539015,3.00003127 Z" id="Shape" fill="#8592A0" fill-rule="nonzero"></path>
                    </g>
                </g>
                <g id="Group-92" transform="translate(96.000000, 54.000000)">
                    <path d="M0,6 C0,2.6862915 2.6880479,0 6.00031854,0 L44.9996815,0 C48.3135659,0 51,2.69303423 51,6 C51,9.3137085 48.3119521,12 44.9996815,12 L6.00031854,12 C2.68643412,12 0,9.30696577 0,6 Z" fill="#01B6F5" fill-rule="nonzero"></path>
                    <path d="M6,6 C6,5.17157288 6.67157288,4.5 7.5,4.5 L31.4125,4.5 C32.2409271,4.5 32.9125,5.17157288 32.9125,6 C32.9125,6.82842712 32.2409271,7.5 31.4125,7.5 L7.5,7.5 C6.67157288,7.5 6,6.82842712 6,6 Z" fill="#FFFFFF" fill-rule="nonzero"></path>
                    <g id="Group-29" transform="translate(42.000000, 3.000000)">
                        <rect id="bkgd" x="0" y="0" width="6" height="6" rx="3"></rect>
                        <path d="M3.26539015,3.00003127 L4.44515208,1.82026934 C4.51844942,1.74703454 4.51844942,1.6282078 4.44515208,1.554973 C4.37185474,1.48167567 4.25315308,1.48167567 4.17985574,1.554973 L3.00009381,2.73473493 L1.82026934,1.554973 C1.746972,1.48167567 1.62827034,1.48167567 1.554973,1.554973 C1.48167567,1.6282078 1.48167567,1.74703454 1.554973,1.82026934 L2.73479747,3.00003127 L1.554973,4.1797932 C1.48167567,4.253028 1.48167567,4.37185474 1.554973,4.44508954 C1.59162167,4.48167567 1.63965269,4.5 1.68762117,4.5 C1.73558965,4.5 1.78362067,4.48167567 1.82026934,4.445027 L3.00009381,3.26526507 L4.17985574,4.445027 C4.21650441,4.48167567 4.26453543,4.5 4.31250391,4.5 C4.36047239,4.5 4.40850341,4.48167567 4.44515208,4.445027 C4.51844942,4.3717922 4.51844942,4.25296546 4.44515208,4.17973066 L3.26539015,3.00003127 Z" id="Shape" fill="#FFFFFF" fill-rule="nonzero"></path>
                    </g>
                </g>
                <g id="Group-93" transform="translate(0.000000, 60.000000)" fill-rule="nonzero">
                    <path d="M4.61852778e-14,6 C4.61852778e-14,2.6862915 2.6880479,0 6.00031854,0 L48.9996815,0 C52.3135659,0 55,2.69303423 55,6 C55,9.3137085 52.3119521,12 48.9996815,12 L6.00031854,12 C2.68643412,12 4.61852778e-14,9.30696577 4.61852778e-14,6 Z" id="button-[0-16]" fill="#E3E5ED"></path>
                    <path d="M15,6 C15,5.17157288 15.6715729,4.5 16.5,4.5 L47.4125,4.5 C48.2409271,4.5 48.9125,5.17157288 48.9125,6 C48.9125,6.82842712 48.2409271,7.5 47.4125,7.5 L16.5,7.5 C15.6715729,7.5 15,6.82842712 15,6 Z" fill="#576574"></path>
                    <g id="like" transform="translate(4.000000, 3.000000)" fill="#576574">
                        <path d="M3.60881057,6.38821498 C3.55910485,6.38821498 3.50939912,6.370763 3.46953304,6.33587313 L3.46029956,6.3277815 C3.15280352,6.05874185 2.86397181,5.81262379 2.5846696,5.57459736 C1.83512247,4.93588018 1.18783436,4.38429604 0.737903084,3.84917709 C0.234474009,3.25043877 0,2.69186256 0,2.09129163 C0,1.53956652 0.187023789,1.02350661 0.526590308,0.638181498 C0.882593833,0.234234361 1.3764511,0.011785022 1.91718062,0.011785022 C2.67768106,0.011785022 3.15916123,0.465987665 3.42914537,0.847027313 C3.49920705,0.945903084 3.55878062,1.0450467 3.60881057,1.13834009 C3.65884053,1.0450467 3.71842819,0.945903084 3.78847577,0.847027313 C4.05845991,0.466001762 4.53994009,0.011785022 5.30044053,0.011785022 C5.84117004,0.011785022 6.33502731,0.234248458 6.69101674,0.638181498 C7.03059736,1.02350661 7.21762115,1.53956652 7.21762115,2.09129163 C7.21762115,2.69186256 6.98314714,3.25045286 6.47971806,3.84917709 C6.02978678,4.38429604 5.38249868,4.93588018 4.63299383,5.57456916 C4.35364934,5.81262379 4.06481762,6.05874185 3.75732159,6.3277815 L3.74808811,6.33587313 C3.70822203,6.37077709 3.6585163,6.38821498 3.60881057,6.38821498 Z"></path>
                    </g>
                </g>
            </g>
        </g>
    </g>
</svg>