<?xml version="1.0" encoding="UTF-8"?>
<svg width="152px" height="76px" viewBox="0 0 152 76" version="1.1" xmlns="http://www.w3.org/2000/svg" xmlns:xlink="http://www.w3.org/1999/xlink">
    <title>CodeInput</title>
    <defs>
        <path d="M10.4047289,0 L5.90532464,0 C2.64326162,0 0,2.64357645 0,5.90532464 L0,10.4047289 C0,13.6667919 2.64357645,16.3100535 5.90532464,16.3100535 L10.4047289,16.3100535 C13.6667919,16.3100535 16.3100535,13.666477 16.3100535,10.4047289 L16.3100535,5.90532464 C16.3100535,2.64326162 13.666477,0 10.4047289,0 Z M5.90532464,0.562415638 L10.4047289,0.562415638 C13.3558785,0.562415638 15.7476379,2.95389019 15.7476379,5.90532464 L15.7476379,10.4047289 C15.7476379,13.3558785 13.3561633,15.7476379 10.4047289,15.7476379 L5.90532464,15.7476379 C2.95417504,15.7476379 0.562415638,13.3561633 0.562415638,10.4047289 L0.562415638,5.90532464 C0.562415638,2.95417504 2.95389019,0.562415638 5.90532464,0.562415638 Z" id="path-1"></path>
        <filter x="-4.6%" y="-4.6%" width="109.2%" height="109.2%" filterUnits="objectBoundingBox" id="filter-2">
            <feOffset dx="0" dy="0" in="SourceAlpha" result="shadowOffsetOuter1"></feOffset>
            <feGaussianBlur stdDeviation="0.25" in="shadowOffsetOuter1" result="shadowBlurOuter1"></feGaussianBlur>
            <feColorMatrix values="0 0 0 0 0.00392156863   0 0 0 0 0.71372549   0 0 0 0 0.960784314  0 0 0 1 0" type="matrix" in="shadowBlurOuter1"></feColorMatrix>
        </filter>
        <path d="M10.4047289,3.27448911e-13 L5.90532464,3.27448911e-13 C2.64326162,3.27448911e-13 4.81542517e-15,2.64357645 4.81542517e-15,5.90532464 L4.81542517e-15,10.4047289 C4.81542517e-15,13.6667919 2.64357645,16.3100535 5.90532464,16.3100535 L10.4047289,16.3100535 C13.6667919,16.3100535 16.3100535,13.666477 16.3100535,10.4047289 L16.3100535,5.90532464 C16.3100535,2.64326162 13.666477,3.27448911e-13 10.4047289,3.27448911e-13 Z M5.90532464,0.562415638 L10.4047289,0.562415638 C13.3558785,0.562415638 15.7476379,2.95389019 15.7476379,5.90532464 L15.7476379,10.4047289 C15.7476379,13.3558785 13.3561633,15.7476379 10.4047289,15.7476379 L5.90532464,15.7476379 C2.95417504,15.7476379 0.562415638,13.3561633 0.562415638,10.4047289 L0.562415638,5.90532464 C0.562415638,2.95417504 2.95389019,0.562415638 5.90532464,0.562415638 Z" id="path-3"></path>
        <filter x="-4.6%" y="-4.6%" width="109.2%" height="109.2%" filterUnits="objectBoundingBox" id="filter-4">
            <feOffset dx="0" dy="0" in="SourceAlpha" result="shadowOffsetOuter1"></feOffset>
            <feGaussianBlur stdDeviation="0.25" in="shadowOffsetOuter1" result="shadowBlurOuter1"></feGaussianBlur>
            <feColorMatrix values="0 0 0 0 0.00392156863   0 0 0 0 0.71372549   0 0 0 0 0.960784314  0 0 0 1 0" type="matrix" in="shadowBlurOuter1"></feColorMatrix>
        </filter>
        <path d="M67.63052,0 L63.1311158,0 C59.8690527,0 57.2257911,2.64357645 57.2257911,5.90532464 L57.2257911,10.4047289 C57.2257911,13.6667919 59.8693676,16.3100535 63.1311158,16.3100535 L67.63052,16.3100535 C70.892583,16.3100535 73.5358446,13.666477 73.5358446,10.4047289 L73.5358446,5.90532464 C73.5358446,2.64326162 70.8922682,0 67.63052,0 Z M63.1311158,0.562415638 L67.63052,0.562415638 C70.5816696,0.562415638 72.973429,2.95389019 72.973429,5.90532464 L72.973429,10.4047289 C72.973429,13.3558785 70.5819544,15.7476379 67.63052,15.7476379 L63.1311158,15.7476379 C60.1799662,15.7476379 57.7882068,13.3561633 57.7882068,10.4047289 L57.7882068,5.90532464 C57.7882068,2.95417504 60.1796813,0.562415638 63.1311158,0.562415638 Z" id="path-5"></path>
        <filter x="-4.6%" y="-4.6%" width="109.2%" height="109.2%" filterUnits="objectBoundingBox" id="filter-6">
            <feOffset dx="0" dy="0" in="SourceAlpha" result="shadowOffsetOuter1"></feOffset>
            <feGaussianBlur stdDeviation="0.25" in="shadowOffsetOuter1" result="shadowBlurOuter1"></feGaussianBlur>
            <feColorMatrix values="0 0 0 0 0.00392156863   0 0 0 0 0.71372549   0 0 0 0 0.960784314  0 0 0 1 0" type="matrix" in="shadowBlurOuter1"></feColorMatrix>
        </filter>
    </defs>
    <g id="pages" stroke="none" stroke-width="1" fill="none" fill-rule="evenodd">
        <g id="CodeInput" transform="translate(1.000000, 1.000000)" fill-rule="nonzero">
            <g id="Group-188" transform="translate(54.690446, 0.000000)">
                <g id="Rectangle-2-Copy">
                    <use fill="black" fill-opacity="1" filter="url(#filter-2)" xlink:href="#path-1"></use>
                    <use fill="#01B6F5" xlink:href="#path-1"></use>
                </g>
                <path d="M48.6489922,0.140603909 L44.149588,0.140603909 C40.9651821,0.140603909 38.3848673,2.7212261 38.3848673,5.90532464 L38.3848673,10.4047289 C38.3848673,13.5891347 40.9654895,16.1694496 44.149588,16.1694496 L48.6489922,16.1694496 C51.8333981,16.1694496 54.4137129,13.5888274 54.4137129,10.4047289 L54.4137129,5.90532464 C54.4137129,2.72091876 51.8330908,0.140603909 48.6489922,0.140603909 Z M44.149588,0.421811728 L48.6489922,0.421811728 C51.6777915,0.421811728 54.1325051,2.87623305 54.1325051,5.90532464 L54.1325051,10.4047289 C54.1325051,13.4335281 51.6780838,15.8882418 48.6489922,15.8882418 L44.149588,15.8882418 C41.1207888,15.8882418 38.6660751,13.4338204 38.6660751,10.4047289 L38.6660751,5.90532464 C38.6660751,2.87652539 41.1204964,0.421811728 44.149588,0.421811728 Z" id="Rectangle-2-Copy-2" fill="#BBBDC7"></path>
                <path d="M29.5268605,0.140603909 L25.0274563,0.140603909 C21.8430504,0.140603909 19.2627356,2.7212261 19.2627356,5.90532464 L19.2627356,10.4047289 C19.2627356,13.5891347 21.8433578,16.1694496 25.0274563,16.1694496 L29.5268605,16.1694496 C32.7112664,16.1694496 35.2915813,13.5888274 35.2915813,10.4047289 L35.2915813,5.90532464 C35.2915813,2.72091876 32.7109591,0.140603909 29.5268605,0.140603909 Z M25.0274563,0.421811728 L29.5268605,0.421811728 C32.5556598,0.421811728 35.0103734,2.87623305 35.0103734,5.90532464 L35.0103734,10.4047289 C35.0103734,13.4335281 32.5559521,15.8882418 29.5268605,15.8882418 L25.0274563,15.8882418 C21.9986571,15.8882418 19.5439434,13.4338204 19.5439434,10.4047289 L19.5439434,5.90532464 C19.5439434,2.87652539 21.9983647,0.421811728 25.0274563,0.421811728 Z" id="Rectangle-2-Copy-6" fill="#BBBDC7"></path>
                <path d="M67.7711239,0.140603909 L63.2717197,0.140603909 C60.0873138,0.140603909 57.506999,2.7212261 57.506999,5.90532464 L57.506999,10.4047289 C57.506999,13.5891347 60.0876211,16.1694496 63.2717197,16.1694496 L67.7711239,16.1694496 C70.9555298,16.1694496 73.5358446,13.5888274 73.5358446,10.4047289 L73.5358446,5.90532464 C73.5358446,2.72091876 70.9552224,0.140603909 67.7711239,0.140603909 Z M63.2717197,0.421811728 L67.7711239,0.421811728 C70.7999231,0.421811728 73.2546368,2.87623305 73.2546368,5.90532464 L73.2546368,10.4047289 C73.2546368,13.4335281 70.8002155,15.8882418 67.7711239,15.8882418 L63.2717197,15.8882418 C60.2429204,15.8882418 57.7882068,13.4338204 57.7882068,10.4047289 L57.7882068,5.90532464 C57.7882068,2.87652539 60.2426281,0.421811728 63.2717197,0.421811728 Z" id="Rectangle-2-Copy-3" fill="#BBBDC7"></path>
            </g>
            <g id="Group-192" transform="translate(0.000000, 28.915663)">
                <g id="Rectangle-2-Copy">
                    <use fill="black" fill-opacity="1" filter="url(#filter-4)" xlink:href="#path-3"></use>
                    <use fill="#01B6F5" xlink:href="#path-3"></use>
                </g>
                <path d="M48.6489922,0.140603909 L44.149588,0.140603909 C40.9651821,0.140603909 38.3848673,2.7212261 38.3848673,5.90532464 L38.3848673,10.4047289 C38.3848673,13.5891347 40.9654895,16.1694496 44.149588,16.1694496 L48.6489922,16.1694496 C51.8333981,16.1694496 54.4137129,13.5888274 54.4137129,10.4047289 L54.4137129,5.90532464 C54.4137129,2.72091876 51.8330908,0.140603909 48.6489922,0.140603909 Z M44.149588,0.421811728 L48.6489922,0.421811728 C51.6777915,0.421811728 54.1325051,2.87623305 54.1325051,5.90532464 L54.1325051,10.4047289 C54.1325051,13.4335281 51.6780838,15.8882418 48.6489922,15.8882418 L44.149588,15.8882418 C41.1207888,15.8882418 38.6660751,13.4338204 38.6660751,10.4047289 L38.6660751,5.90532464 C38.6660751,2.87652539 41.1204964,0.421811728 44.149588,0.421811728 Z" id="Rectangle-2-Copy-2" fill="#BBBDC7"></path>
                <path d="M29.5268605,0.140603909 L25.0274563,0.140603909 C21.8430504,0.140603909 19.2627356,2.7212261 19.2627356,5.90532464 L19.2627356,10.4047289 C19.2627356,13.5891347 21.8433578,16.1694496 25.0274563,16.1694496 L29.5268605,16.1694496 C32.7112664,16.1694496 35.2915813,13.5888274 35.2915813,10.4047289 L35.2915813,5.90532464 C35.2915813,2.72091876 32.7109591,0.140603909 29.5268605,0.140603909 Z M25.0274563,0.421811728 L29.5268605,0.421811728 C32.5556598,0.421811728 35.0103734,2.87623305 35.0103734,5.90532464 L35.0103734,10.4047289 C35.0103734,13.4335281 32.5559521,15.8882418 29.5268605,15.8882418 L25.0274563,15.8882418 C21.9986571,15.8882418 19.5439434,13.4338204 19.5439434,10.4047289 L19.5439434,5.90532464 C19.5439434,2.87652539 21.9983647,0.421811728 25.0274563,0.421811728 Z" id="Rectangle-2-Copy-6" fill="#BBBDC7"></path>
                <path d="M67.7711239,0.140603909 L63.2717197,0.140603909 C60.0873138,0.140603909 57.506999,2.7212261 57.506999,5.90532464 L57.506999,10.4047289 C57.506999,13.5891347 60.0876211,16.1694496 63.2717197,16.1694496 L67.7711239,16.1694496 C70.9555298,16.1694496 73.5358446,13.5888274 73.5358446,10.4047289 L73.5358446,5.90532464 C73.5358446,2.72091876 70.9552224,0.140603909 67.7711239,0.140603909 Z M63.2717197,0.421811728 L67.7711239,0.421811728 C70.7999231,0.421811728 73.2546368,2.87623305 73.2546368,5.90532464 L73.2546368,10.4047289 C73.2546368,13.4335281 70.8002155,15.8882418 67.7711239,15.8882418 L63.2717197,15.8882418 C60.2429204,15.8882418 57.7882068,13.4338204 57.7882068,10.4047289 L57.7882068,5.90532464 C57.7882068,2.87652539 60.2426281,0.421811728 63.2717197,0.421811728 Z" id="Rectangle-2-Copy-3" fill="#BBBDC7"></path>
                <path d="M86.7526517,0.140603909 L82.2532474,0.140603909 C79.0688416,0.140603909 76.4885267,2.7212261 76.4885267,5.90532464 L76.4885267,10.4047289 C76.4885267,13.5891347 79.0691489,16.1694496 82.2532474,16.1694496 L86.7526517,16.1694496 C89.9370575,16.1694496 92.5173724,13.5888274 92.5173724,10.4047289 L92.5173724,5.90532464 C92.5173724,2.72091876 89.9367502,0.140603909 86.7526517,0.140603909 Z M82.2532474,0.421811728 L86.7526517,0.421811728 C89.7814509,0.421811728 92.2361646,2.87623305 92.2361646,5.90532464 L92.2361646,10.4047289 C92.2361646,13.4335281 89.7817433,15.8882418 86.7526517,15.8882418 L82.2532474,15.8882418 C79.2244482,15.8882418 76.7697345,13.4338204 76.7697345,10.4047289 L76.7697345,5.90532464 C76.7697345,2.87652539 79.2241559,0.421811728 82.2532474,0.421811728 Z" id="Rectangle-2-Copy-4" fill="#BBBDC7"></path>
                <path d="M105.874783,0.140603909 L101.375379,0.140603909 C98.1909733,0.140603909 95.6106584,2.7212261 95.6106584,5.90532464 L95.6106584,10.4047289 C95.6106584,13.5891347 98.1912806,16.1694496 101.375379,16.1694496 L105.874783,16.1694496 C109.059189,16.1694496 111.639504,13.5888274 111.639504,10.4047289 L111.639504,5.90532464 C111.639504,2.72091876 109.058882,0.140603909 105.874783,0.140603909 Z M101.375379,0.421811728 L105.874783,0.421811728 C108.903583,0.421811728 111.358296,2.87623305 111.358296,5.90532464 L111.358296,10.4047289 C111.358296,13.4335281 108.903875,15.8882418 105.874783,15.8882418 L101.375379,15.8882418 C98.3465799,15.8882418 95.8918662,13.4338204 95.8918662,10.4047289 L95.8918662,5.90532464 C95.8918662,2.87652539 98.3462875,0.421811728 101.375379,0.421811728 Z" id="Rectangle-2-Copy-5" fill="#BBBDC7"></path>
                <polygon id="|-copy" fill="#3E454C" points="8.34287357 11.4125381 8.34287357 5.06174074 7.87381893 5.06174074 7.87381893 11.4125381"></polygon>
            </g>
            <g id="Group-190" transform="translate(76.000000, 57.831325)">
                <g id="Rectangle-2-Copy" transform="translate(65.380818, 8.155027) scale(-1, 1) translate(-65.380818, -8.155027) ">
                    <use fill="black" fill-opacity="1" filter="url(#filter-6)" xlink:href="#path-5"></use>
                    <use fill="#01B6F5" xlink:href="#path-5"></use>
                </g>
                <path d="M29.3862566,0.140603909 L24.8868524,0.140603909 C21.7024465,0.140603909 19.1221317,2.7212261 19.1221317,5.90532464 L19.1221317,10.4047289 C19.1221317,13.5891347 21.7027539,16.1694496 24.8868524,16.1694496 L29.3862566,16.1694496 C32.5706625,16.1694496 35.1509774,13.5888274 35.1509774,10.4047289 L35.1509774,5.90532464 C35.1509774,2.72091876 32.5703552,0.140603909 29.3862566,0.140603909 Z M24.8868524,0.421811728 L29.3862566,0.421811728 C32.4150559,0.421811728 34.8697695,2.87623305 34.8697695,5.90532464 L34.8697695,10.4047289 C34.8697695,13.4335281 32.4153482,15.8882418 29.3862566,15.8882418 L24.8868524,15.8882418 C21.8580532,15.8882418 19.4033395,13.4338204 19.4033395,10.4047289 L19.4033395,5.90532464 C19.4033395,2.87652539 21.8577608,0.421811728 24.8868524,0.421811728 Z" id="Rectangle-2-Copy-2" fill="#BBBDC7" transform="translate(27.136555, 8.155027) scale(-1, 1) translate(-27.136555, -8.155027) "></path>
                <path d="M48.5083883,0.140603909 L44.0089841,0.140603909 C40.8245782,0.140603909 38.2442634,2.7212261 38.2442634,5.90532464 L38.2442634,10.4047289 C38.2442634,13.5891347 40.8248856,16.1694496 44.0089841,16.1694496 L48.5083883,16.1694496 C51.6927942,16.1694496 54.273109,13.5888274 54.273109,10.4047289 L54.273109,5.90532464 C54.273109,2.72091876 51.6924868,0.140603909 48.5083883,0.140603909 Z M44.0089841,0.421811728 L48.5083883,0.421811728 C51.5371876,0.421811728 53.9919012,2.87623305 53.9919012,5.90532464 L53.9919012,10.4047289 C53.9919012,13.4335281 51.5374799,15.8882418 48.5083883,15.8882418 L44.0089841,15.8882418 C40.9801848,15.8882418 38.5254712,13.4338204 38.5254712,10.4047289 L38.5254712,5.90532464 C38.5254712,2.87652539 40.9798925,0.421811728 44.0089841,0.421811728 Z" id="Rectangle-2-Copy-6" fill="#BBBDC7" transform="translate(46.258686, 8.155027) scale(-1, 1) translate(-46.258686, -8.155027) "></path>
                <path d="M10.2641249,0.140603909 L5.76472073,0.140603909 C2.58031485,0.140603909 0,2.7212261 0,5.90532464 L0,10.4047289 C0,13.5891347 2.58062219,16.1694496 5.76472073,16.1694496 L10.2641249,16.1694496 C13.4485308,16.1694496 16.0288457,13.5888274 16.0288457,10.4047289 L16.0288457,5.90532464 C16.0288457,2.72091876 13.4482235,0.140603909 10.2641249,0.140603909 Z M5.76472073,0.421811728 L10.2641249,0.421811728 C13.2929242,0.421811728 15.7476379,2.87623305 15.7476379,5.90532464 L15.7476379,10.4047289 C15.7476379,13.4335281 13.2932165,15.8882418 10.2641249,15.8882418 L5.76472073,15.8882418 C2.73592148,15.8882418 0.281207819,13.4338204 0.281207819,10.4047289 L0.281207819,5.90532464 C0.281207819,2.87652539 2.73562914,0.421811728 5.76472073,0.421811728 Z" id="Rectangle-2-Copy-3" fill="#BBBDC7" transform="translate(8.014423, 8.155027) scale(-1, 1) translate(-8.014423, -8.155027) "></path>
                <path d="M9.35184722,10.6858971 L9.35184722,10.226966 L8.40023996,10.226966 L8.40023996,5.84012398 L7.91093836,5.84012398 L6.4700295,7.0853122 L6.65900115,7.34514823 C6.67024946,7.36089587 6.68655952,7.37551867 6.70793131,7.38901665 C6.7293031,7.40251462 6.75236215,7.41151327 6.77710843,7.4160126 C6.80185472,7.42051192 6.82885067,7.41994951 6.85809629,7.41432535 C6.8873419,7.40870119 6.91658751,7.39351597 6.94583313,7.36876968 L6.94583313,7.36876968 L7.80632905,6.62975554 C7.79958006,6.73099035 7.79620557,6.83110033 7.79620557,6.93008549 L7.79620557,6.93008549 L7.79620557,10.226966 L6.76023596,10.226966 L6.76023596,10.6858971 L9.35184722,10.6858971 Z" id="1" fill="#3E454C"></path>
                <path d="M28.6123332,10.6858971 L28.6123332,10.226966 L27.6607259,10.226966 L27.6607259,5.84012398 L27.1714243,5.84012398 L25.7305154,7.0853122 L25.9194871,7.34514823 C25.9307354,7.36089587 25.9470454,7.37551867 25.9684172,7.38901665 C25.989789,7.40251462 26.0128481,7.41151327 26.0375944,7.4160126 C26.0623406,7.42051192 26.0893366,7.41994951 26.1185822,7.41432535 C26.1478278,7.40870119 26.1770734,7.39351597 26.2063191,7.36876968 L26.2063191,7.36876968 L27.066815,6.62975554 C27.060066,6.73099035 27.0566915,6.83110033 27.0566915,6.93008549 L27.0566915,6.93008549 L27.0566915,10.226966 L26.0207219,10.226966 L26.0207219,10.6858971 L28.6123332,10.6858971 Z" id="1-copy" fill="#3E454C"></path>
                <path d="M47.7344648,10.6858971 L47.7344648,10.226966 L46.7828576,10.226966 L46.7828576,5.84012398 L46.293556,5.84012398 L44.8526471,7.0853122 L45.0416188,7.34514823 C45.0528671,7.36089587 45.0691771,7.37551867 45.0905489,7.38901665 C45.1119207,7.40251462 45.1349798,7.41151327 45.159726,7.4160126 C45.1844723,7.42051192 45.2114683,7.41994951 45.2407139,7.41432535 C45.2699595,7.40870119 45.2992051,7.39351597 45.3284507,7.36876968 L45.3284507,7.36876968 L46.1889467,6.62975554 C46.1821977,6.73099035 46.1788232,6.83110033 46.1788232,6.93008549 L46.1788232,6.93008549 L46.1788232,10.226966 L45.1428536,10.226966 L45.1428536,10.6858971 L47.7344648,10.6858971 Z" id="1-copy-2" fill="#3E454C"></path>
                <path d="M66.8565965,10.6858971 L66.8565965,10.226966 L65.9049893,10.226966 L65.9049893,5.84012398 L65.4156876,5.84012398 L63.9747788,7.0853122 L64.1637504,7.34514823 C64.1749988,7.36089587 64.1913088,7.37551867 64.2126806,7.38901665 C64.2340524,7.40251462 64.2571114,7.41151327 64.2818577,7.4160126 C64.306604,7.42051192 64.3336,7.41994951 64.3628456,7.41432535 C64.3920912,7.40870119 64.4213368,7.39351597 64.4505824,7.36876968 L64.4505824,7.36876968 L65.3110783,6.62975554 C65.3043294,6.73099035 65.3009549,6.83110033 65.3009549,6.93008549 L65.3009549,6.93008549 L65.3009549,10.226966 L64.2649853,10.226966 L64.2649853,10.6858971 L66.8565965,10.6858971 Z" id="1-copy-3" fill="#3E454C"></path>
            </g>
            <polygon id="|" fill="#3E454C" points="62.9393966 11.5823876 62.9393966 5.23159026 62.4703419 5.23159026 62.4703419 11.5823876"></polygon>
        </g>
    </g>
</svg>