<?xml version="1.0" encoding="UTF-8"?>
<svg width="135px" height="71px" viewBox="0 0 135 71" version="1.1" xmlns="http://www.w3.org/2000/svg" xmlns:xlink="http://www.w3.org/1999/xlink">
    <title>ColorPicker</title>
    <g id="pages" stroke="none" stroke-width="1" fill="none" fill-rule="evenodd">
        <g id="ColorPicker" fill-rule="nonzero">
            <g id="Group-5-Copy" transform="translate(85.000000, 0.000000)">
                <path d="M-1.42108547e-14,11 C-1.42108547e-14,4.92486775 4.92817249,0 10.991074,0 L38.1815451,0 C44.1522361,0 49.0109701,4.76342789 49.1686683,10.7021035 L49.172619,11 C49.172619,17.0751322 44.2444466,22 38.1815451,22 L10.991074,22 C5.02038296,22 0.161648924,17.2365721 0.00395076211,11.2978965 L-1.42108547e-14,11 Z" id="Path" fill="#FFB900"></path>
                <path d="M8.9375,15.8125 L12.1325784,15.8125 C12.6349885,15.8125 13.0823824,15.7502178 13.4747605,15.6256533 C13.8671385,15.5010889 14.1982725,15.3266986 14.468162,15.1024826 C14.7380519,14.8782666 14.9435833,14.6094149 15.0847561,14.2959277 C15.2259289,13.9824404 15.2965157,13.6346981 15.2965157,13.2527003 C15.2965157,12.7046167 15.1314678,12.2592988 14.801372,11.9167465 C14.4712761,11.5741943 13.9844366,11.3385599 13.3408537,11.2098432 C13.6190477,11.1226481 13.8619484,11.0095019 14.0695557,10.8704051 C14.2771634,10.7313082 14.4494774,10.5756026 14.5864983,10.4032883 C14.7235192,10.230974 14.8262848,10.0441273 14.8947953,9.84274826 C14.9633057,9.64138096 14.997561,9.43273549 14.997561,9.21681185 C14.997561,8.85557491 14.9363165,8.52963099 14.8138284,8.23898084 C14.6913403,7.94833068 14.5013795,7.70231587 14.243946,7.50093641 C13.9865129,7.29955695 13.658493,7.14488992 13.2598868,7.0369338 C12.8612805,6.92897768 12.3837833,6.875 11.8273955,6.875 L8.9375,6.875 L8.9375,15.8125 Z M10.2205139,11.7641551 L12.1138937,11.7641551 C12.7574766,11.7641551 13.2370498,11.8949477 13.5526132,12.1565331 C13.8681767,12.4181185 14.0259582,12.7731272 14.0259582,13.2215592 C14.0259582,13.4499273 13.989627,13.659611 13.9169643,13.8506098 C13.8443244,14.0416085 13.7311782,14.2066564 13.5775261,14.3457535 C13.4239071,14.4848504 13.22668,14.5938443 12.9858449,14.6727352 C12.7450202,14.751626 12.4543697,14.7910714 12.1138937,14.7910714 L10.2205139,14.7910714 L10.2205139,11.7641551 Z M10.2205139,10.8548345 L10.2205139,7.88397213 L11.8273955,7.88397213 C12.4709784,7.88397213 12.9474374,8.00334615 13.2567726,8.24209495 C13.5661079,8.48084375 13.7207753,8.85765124 13.7207753,9.37251742 C13.7207753,9.59673345 13.68133,9.80018886 13.602439,9.98288328 C13.5235697,10.1655777 13.4041953,10.3212833 13.2443162,10.45 C13.0844584,10.5787167 12.8820411,10.6783683 12.6370645,10.7489547 C12.3920878,10.8195411 12.1035132,10.8548345 11.7713415,10.8548345 L10.2205139,10.8548345 Z M23.2935526,6.875 L17.7628906,6.875 L17.7628906,15.8125 L23.2935526,15.8125 L23.2997808,14.7661585 L19.0521327,14.7661585 L19.0521327,11.8077526 L22.4714272,11.8077526 L22.4714272,10.7987805 L19.0521327,10.7987805 L19.0521327,7.92134146 L23.2935526,7.92134146 L23.2935526,6.875 Z M31.776391,6.875 L24.7696402,6.875 L24.7696402,7.95248258 L27.6346227,7.95248258 L27.6346227,15.8125 L28.9176367,15.8125 L28.9176367,7.95248258 L31.776391,7.95248258 L31.776391,6.875 Z M40.2841425,15.8125 L36.7153707,6.875 L35.4136721,6.875 L31.8511286,15.8125 L32.8476442,15.8125 C32.9555979,15.8125 33.0479832,15.7813589 33.1248002,15.7190767 C33.2016149,15.6567944 33.2524787,15.5862079 33.2773916,15.5073171 L34.0808324,13.4084059 L38.0482104,13.4084059 L38.8516512,15.5073171 C38.8890205,15.5986643 38.9429982,15.672365 39.013585,15.728419 C39.0841718,15.784473 39.1755188,15.8125 39.2876268,15.8125 L40.2841425,15.8125 Z M37.6932017,12.4866289 L34.4358411,12.4866289 L35.7873655,8.97391115 C35.8329778,8.86180314 35.8786513,8.73101045 35.9243864,8.5815331 L36.0614073,8.09573171 L36.0614073,8.09573171 C36.1070808,8.27012195 36.1537925,8.43101797 36.2015423,8.57841899 L36.2489461,8.71993794 L36.2489461,8.71993794 L37.6932017,12.4866289 Z" id="BETA" fill="#FFFFFF"></path>
            </g>
            <g id="Group-223" transform="translate(0.000000, 15.000000)">
                <path d="M18.0876118,39.1897745 L9.01260121,50.0069249 C9.011905,50.0069249 9.01134062,50.0063606 9.01134062,50.0056644 C-0.359396781,42.1395511 -2.73331028,28.6825917 3.3802707,18.0849228 L15.6092855,25.1442449 C12.918916,29.8074093 13.9637729,35.7289736 18.0876118,39.1897745 L18.0876118,39.1897745 Z" id="Path" fill="#8E9C4C"></path>
                <path d="M21.4218809,20.2657491 C16.3670717,22.1137194 13.3628517,27.318131 14.290705,32.6195627 L0.38510121,35.0714165 C-1.73850207,23.0199337 5.09451141,11.1826693 16.5925482,6.99422368 L21.4218809,20.2657491 Z" id="Path" fill="#8E9C4C"></path>
                <path d="M25.2175271,41.785336 L25.2175271,55.90398 L25.1469338,55.90398 C25.0738194,55.90398 25.000705,55.90398 24.9288512,55.9027194 C19.0998743,55.84473 13.4727168,53.7602839 9.01260121,50.0069249 C9.011905,50.0069249 9.01134062,50.0063606 9.01134062,50.0056644 C8.99747409,49.994319 8.98360757,49.9817131 8.96974104,49.9703677 C4.44840731,46.1653884 1.40951833,40.8912873 0.38510121,35.0714165 L14.290705,32.6195627 C15.229232,37.9198144 19.8348236,41.7831342 25.2175271,41.785336 L25.2175271,41.785336 Z" id="Path" fill="#FCB442"></path>
                <path d="M41.3531203,50.0056644 C36.8929531,53.7599369 31.2652159,55.8448782 25.4356097,55.9027194 C25.3637559,55.90398 25.2906415,55.90398 25.2175271,55.90398 L25.1469338,55.90398 C25.0738194,55.90398 25.000705,55.90398 24.9288512,55.9027194 C19.0754554,55.8616985 13.4204626,53.7761914 8.94200799,50.0069249 C8.94131178,50.0069249 8.9407474,50.0063606 8.9407474,50.0056644 L8.96974104,49.9703677 L18.0687029,39.1733868 C22.1841198,42.6440372 28.1978162,42.6573277 32.3285334,39.2049016 L41.3531203,50.0056644 Z" id="Path" fill="#FC8D36"></path>
                <path d="M50.0499529,35.0701559 L50.0499529,35.0714165 C47.9363061,47.0389924 37.5879419,55.7968905 25.4356097,55.9027194 C25.3637559,55.90398 25.2906415,55.90398 25.2175271,55.90398 L25.2175271,41.785336 C27.8177714,41.7893949 30.336015,40.8755774 32.3285334,39.2049016 L32.3474423,39.1897745 C34.3467406,37.5146949 35.6912299,35.1881749 36.1443491,32.6195627 L50.0499529,35.0701559 Z" id="Path" fill="#E74444"></path>
                <path d="M50.4294241,30.6921156 C50.4301196,32.1597049 50.3031613,33.624575 50.0499529,35.0701559 L50.0499529,35.0714165 C49.0218019,40.9095956 45.9671592,46.1979708 41.4237135,50.0056644 L32.3474423,39.1897745 C36.4712751,35.7295112 37.5161731,29.8082453 34.8257686,25.1455055 L34.8257686,25.1442449 L47.0547834,18.0849228 C49.2722575,21.9159835 50.4365296,26.2655858 50.4294241,30.6921156 L50.4294241,30.6921156 Z" id="Path" fill="#B01641"></path>
                <path d="M50.4293946,30.6921156 C50.4301196,32.1597049 50.3031613,33.624575 50.0499529,35.0701559 L50.0499529,35.0714165 L36.1443491,32.6195627 C36.2554412,31.9831001 36.3111159,31.3382007 36.3107474,30.6921156 C36.3137383,28.7446175 35.8014099,26.830997 34.8257686,25.1455055 L34.8257686,25.1442449 C33.5191549,22.8869348 31.4615759,21.1599426 29.0119127,20.2644885 L33.8425059,6.99422368 C43.8035379,10.6210961 50.4320567,20.0913442 50.4293946,30.6921156 L50.4293946,30.6921156 Z" id="Path" fill="#B75382"></path>
                <path d="M34.8257686,25.1455055 L34.8257686,25.1442449 C32.8465157,21.7091952 29.1819925,19.5942336 25.2175271,19.5988953 L25.2175271,5.4802383 C28.1587699,5.47727293 31.077826,5.98923834 33.8425059,6.99296308 L33.8425059,6.99422368 C39.4103855,9.02827107 44.0867368,12.9537113 47.0547834,18.0849228 L34.8257686,25.1455055 Z" id="Path" fill="#80588F"></path>
                <path d="M25.2175271,5.48023689 L25.2175271,19.5988953 C21.2533687,19.5953823 17.5893794,21.7100357 15.6092855,25.1442449 L3.3802707,18.0849228 C7.87880774,10.2778495 16.2071366,5.47065911 25.2175271,5.48023689 Z" id="Path" fill="#298057"></path>
                <path d="M33.8425059,6.99296308 L33.8425059,6.99422368 L29.0119127,20.2644885 C26.5597263,19.3765955 23.8737722,19.3770416 21.4218809,20.2657491 L16.5925482,6.99422368 C22.1653651,4.97602389 28.2693941,4.97557782 33.8425059,6.99296308 Z" id="Path" fill="#2B70A8"></path>
                <g id="Group-224" transform="translate(59.386583, 18.242745) rotate(-330.000000) translate(-59.386583, -18.242745) translate(50.636583, 2.492745)">
                    <path d="M15.2431119,9.20163363 L7.78947629,6.11444084 L2.68167862,18.4448074 L0.841968876,22.8844906 C0.513911149,23.6803341 0.539065815,24.5780212 0.911175444,25.3542449 L0.230455105,26.9978063 C-0.18329671,27.9963816 -0.0328855573,29.1398372 0.625030136,29.9974444 C1.28294583,30.8550517 2.34841302,31.2965196 3.4200805,31.1555515 C4.49174799,31.0145833 5.40680398,30.3125956 5.82055574,29.3140203 L6.5021585,27.6690722 C7.31399319,27.384094 7.96628137,26.7672369 8.29610871,25.9725658 L15.2431119,9.20163363 Z M6.43244769,25.2017131 C6.29434888,25.5337597 5.98988038,25.7671423 5.63335765,25.8142353 C5.27621716,25.8612719 4.97128398,26.0952334 4.83338519,26.4280182 L3.9572729,28.542033 C3.82381728,28.8814892 3.51746459,29.122427 3.15611772,29.1721193 C2.79477084,29.2218116 2.43475296,29.0725127 2.21462052,28.7816818 C1.99448809,28.4908509 1.94855318,28.1038199 2.0944943,27.7695415 L2.969346,25.6569133 C3.10699546,25.3240847 3.05684131,24.9431245 2.83774006,24.6572629 C2.6188084,24.3710181 2.56849744,23.9899894 2.70562989,23.65673 L6.43282587,25.2007046 L6.43244769,25.2017131 Z" id="Shape" fill="#A4D4F4"></path>
                    <path d="M12.8179312,0.875 C14.489215,0.875 15.8440583,2.22984323 15.8440583,3.90112706 L15.8440583,8.21814948 L9.79180416,8.21814948 L9.79180416,3.90112706 C9.79180416,2.22984323 11.1466474,0.875 12.8179312,0.875 Z" id="Path" fill="#757C80" transform="translate(12.817931, 4.546575) rotate(22.514113) translate(-12.817931, -4.546575) "></path>
                    <polygon id="Path" fill="#757C80" transform="translate(11.133813, 8.608788) rotate(22.514113) translate(-11.133813, -8.608788) " points="6.09026799 6.59136995 16.1773582 6.59136995 16.1773582 10.626206 6.09026799 10.626206"></polygon>
                    <g id="Group" transform="translate(1.937929, 16.158217)" fill="#B75382">
                        <path d="M1.08411017,15.0234979 C1.2010929,15.0227937 1.31793619,15.0153016 1.43405085,15.0010593 L0.725471398,15.0010593 C0.844458705,15.0157328 0.964221825,15.0232259 1.08411017,15.0234979 Z" id="Path"></path>
                        <path d="M4.49451907,9.04349576 L7.58209004,1.58834746 L3.8560286,0.0453813559 L0.767575212,7.49813453 C0.630203699,7.83142927 0.680477214,8.21263407 0.899559322,8.49891949 C1.11866057,8.78478117 1.16881472,9.16574131 1.03116525,9.49856992 L0.156313559,11.6111981 C0.0103724418,11.9454765 0.0563073519,12.3325076 0.276439783,12.6233384 C0.496572215,12.9141693 0.856590098,13.0634682 1.21793697,13.0137759 C1.57928385,12.9640837 1.88563654,12.7231458 2.01909216,12.3836896 L2.89520445,10.2696748 C3.03310323,9.93689003 3.33803642,9.70292853 3.69517691,9.65589195 C4.05176525,9.60890717 4.35634059,9.37556432 4.49451907,9.04349576 L4.49451907,9.04349576 Z" id="Path"></path>
                    </g>
                </g>
            </g>
        </g>
    </g>
</svg>