<?xml version="1.0" encoding="UTF-8"?>
<svg width="137px" height="72px" viewBox="0 0 137 72" version="1.1" xmlns="http://www.w3.org/2000/svg" xmlns:xlink="http://www.w3.org/1999/xlink">
    <title>colorInput</title>
    <g id="pages" stroke="none" stroke-width="1" fill="none" fill-rule="evenodd">
        <g id="colorInput">
            <g id="Group-5" transform="translate(87.000000, 0.000000)" fill-rule="nonzero">
                <path d="M0,11 C0,4.92486775 4.92817249,0 10.991074,0 L38.1815451,0 C44.1522361,0 49.0109701,4.76342789 49.1686683,10.7021035 L49.172619,11 C49.172619,17.0751322 44.2444466,22 38.1815451,22 L10.991074,22 C5.02038296,22 0.161648924,17.2365721 0.00395076211,11.2978965 L0,11 Z" id="Path" fill="#FFB900"></path>
                <path d="M8.9375,15.8125 L12.1325784,15.8125 C12.6349885,15.8125 13.0823824,15.7502178 13.4747605,15.6256533 C13.8671385,15.5010889 14.1982725,15.3266986 14.468162,15.1024826 C14.7380519,14.8782666 14.9435833,14.6094149 15.0847561,14.2959277 C15.2259289,13.9824404 15.2965157,13.6346981 15.2965157,13.2527003 C15.2965157,12.7046167 15.1314678,12.2592988 14.801372,11.9167465 C14.4712761,11.5741943 13.9844366,11.3385599 13.3408537,11.2098432 C13.6190477,11.1226481 13.8619484,11.0095019 14.0695557,10.8704051 C14.2771634,10.7313082 14.4494774,10.5756026 14.5864983,10.4032883 C14.7235192,10.230974 14.8262848,10.0441273 14.8947953,9.84274826 C14.9633057,9.64138096 14.997561,9.43273549 14.997561,9.21681185 C14.997561,8.85557491 14.9363165,8.52963099 14.8138284,8.23898084 C14.6913403,7.94833068 14.5013795,7.70231587 14.243946,7.50093641 C13.9865129,7.29955695 13.658493,7.14488992 13.2598868,7.0369338 C12.8612805,6.92897768 12.3837833,6.875 11.8273955,6.875 L8.9375,6.875 L8.9375,15.8125 Z M10.2205139,11.7641551 L12.1138937,11.7641551 C12.7574766,11.7641551 13.2370498,11.8949477 13.5526132,12.1565331 C13.8681767,12.4181185 14.0259582,12.7731272 14.0259582,13.2215592 C14.0259582,13.4499273 13.989627,13.659611 13.9169643,13.8506098 C13.8443244,14.0416085 13.7311782,14.2066564 13.5775261,14.3457535 C13.4239071,14.4848504 13.22668,14.5938443 12.9858449,14.6727352 C12.7450202,14.751626 12.4543697,14.7910714 12.1138937,14.7910714 L10.2205139,14.7910714 L10.2205139,11.7641551 Z M10.2205139,10.8548345 L10.2205139,7.88397213 L11.8273955,7.88397213 C12.4709784,7.88397213 12.9474374,8.00334615 13.2567726,8.24209495 C13.5661079,8.48084375 13.7207753,8.85765124 13.7207753,9.37251742 C13.7207753,9.59673345 13.68133,9.80018886 13.602439,9.98288328 C13.5235697,10.1655777 13.4041953,10.3212833 13.2443162,10.45 C13.0844584,10.5787167 12.8820411,10.6783683 12.6370645,10.7489547 C12.3920878,10.8195411 12.1035132,10.8548345 11.7713415,10.8548345 L10.2205139,10.8548345 Z M23.2935526,6.875 L17.7628906,6.875 L17.7628906,15.8125 L23.2935526,15.8125 L23.2997808,14.7661585 L19.0521327,14.7661585 L19.0521327,11.8077526 L22.4714272,11.8077526 L22.4714272,10.7987805 L19.0521327,10.7987805 L19.0521327,7.92134146 L23.2935526,7.92134146 L23.2935526,6.875 Z M31.776391,6.875 L24.7696402,6.875 L24.7696402,7.95248258 L27.6346227,7.95248258 L27.6346227,15.8125 L28.9176367,15.8125 L28.9176367,7.95248258 L31.776391,7.95248258 L31.776391,6.875 Z M40.2841425,15.8125 L36.7153707,6.875 L35.4136721,6.875 L31.8511286,15.8125 L32.8476442,15.8125 C32.9555979,15.8125 33.0479832,15.7813589 33.1248002,15.7190767 C33.2016149,15.6567944 33.2524787,15.5862079 33.2773916,15.5073171 L34.0808324,13.4084059 L38.0482104,13.4084059 L38.8516512,15.5073171 C38.8890205,15.5986643 38.9429982,15.672365 39.013585,15.728419 C39.0841718,15.784473 39.1755188,15.8125 39.2876268,15.8125 L40.2841425,15.8125 Z M37.6932017,12.4866289 L34.4358411,12.4866289 L35.7873655,8.97391115 C35.8329778,8.86180314 35.8786513,8.73101045 35.9243864,8.5815331 L36.0614073,8.09573171 L36.0614073,8.09573171 C36.1070808,8.27012195 36.1537925,8.43101797 36.2015423,8.57841899 L36.2489461,8.71993794 L36.2489461,8.71993794 L37.6932017,12.4866289 Z" id="BETA" fill="#FFFFFF"></path>
            </g>
            <path d="M4.40559441,21.4636364 C2.13466131,21.4636364 0.293706294,23.3045914 0.293706294,25.5755245 C0.293706294,27.8464576 2.13466131,29.6874126 4.40559441,29.6874126 L77.4213287,29.6874126 C79.6922618,29.6874126 81.5332168,27.8464576 81.5332168,25.5755245 C81.5332168,23.3045914 79.6922618,21.4636364 77.4213287,21.4636364 L4.40559441,21.4636364 Z M4.40559441,21.1699301 L77.4213287,21.1699301 C79.8544713,21.1699301 81.8269231,23.1423819 81.8269231,25.5755245 C81.8269231,28.0086671 79.8544713,29.9811189 77.4213287,29.9811189 L4.40559441,29.9811189 C1.9724518,29.9811189 2.13162821e-14,28.0086671 2.13162821e-14,25.5755245 C2.13162821e-14,23.1423819 1.9724518,21.1699301 4.40559441,21.1699301 Z" id="Rectangle" fill="#A4A7B5" fill-rule="nonzero"></path>
            <g id="Group-225" transform="translate(16.000000, 24.841259)" fill-rule="nonzero">
                <path d="M4.73426573,1.46853147 C4.32874197,1.46853147 4,1.1397895 4,0.734265734 C4,0.328741967 4.32874197,2.13040696e-12 4.73426573,2.13040696e-12 L17.1282116,2.13040696e-12 C17.5337354,2.13040696e-12 17.8624773,0.328741967 17.8624773,0.734265734 C17.8624773,1.1397895 17.5337354,1.46853147 17.1282116,1.46853147 L4.73426573,1.46853147 Z" id="Line-12" fill="#576574"></path>
                <path d="M0.734265734,1.46853147 C0.328741967,1.46853147 -1.11022302e-15,1.1397895 -1.11022302e-15,0.734265734 C-1.11022302e-15,0.328741967 0.328741967,3.11417558e-13 0.734265734,3.11417558e-13 L1.72937063,3.11417558e-13 C2.1348944,3.11417558e-13 2.46363636,0.328741967 2.46363636,0.734265734 C2.46363636,1.1397895 2.1348944,1.46853147 1.72937063,1.46853147 L0.734265734,1.46853147 Z" id="Line-12" fill="#A4A7B5"></path>
            </g>
            <path d="M33.66,19.32 C33.2954921,19.32 33,19.0245079 33,18.66 C33,18.2954921 33.2954921,18 33.66,18 L47.85,18 C48.2145079,18 48.51,18.2954921 48.51,18.66 C48.51,19.0245079 48.2145079,19.32 47.85,19.32 L33.66,19.32 Z" id="Line-12" fill="#A4A7B5" fill-rule="nonzero"></path>
            <path d="M10.1919539,26.2487311 C10.1547439,26.2487311 10.1175385,26.2361021 10.0891692,26.2108972 L9.19644146,25.4173533 C9.13965231,25.3668741 9.13965231,25.2850306 9.19644146,25.2345718 C9.25320762,25.184113 9.3452631,25.184113 9.40205684,25.2345718 L10.1919539,25.9367434 L10.9818555,25.2345963 C11.0386447,25.1841375 11.1306909,25.1841375 11.1874525,25.2345963 C11.2442692,25.2850551 11.2442692,25.3668986 11.1874525,25.4173778 L10.2947386,26.2109217 C10.2663555,26.2361307 10.2291501,26.2487311 10.1919539,26.2487311 Z" id="Path" fill="#B8B8C6" fill-rule="nonzero"></path>
            <polygon id="Line-21" fill="#A4A7B5" fill-rule="nonzero" points="13.75 23.25 13.75 27.75 13.25 27.75 13.25 23.25"></polygon>
            <polygon id="Line-21-Copy" fill="#A4A7B5" fill-rule="nonzero" points="67.75 23.25 67.75 27.75 67.25 27.75 67.25 23.25"></polygon>
            <rect id="Rectangle" fill="#FF6837" x="2.5" y="23" width="5" height="5" rx="2.5"></rect>
            <g id="Group-225" transform="translate(74.500000, 25.841259) scale(-1, 1) translate(-74.500000, -25.841259) translate(70.000000, 24.841259)" fill-rule="nonzero">
                <path d="M4.73426573,1.46853147 C4.32874197,1.46853147 4,1.1397895 4,0.734265734 C4,0.328741967 4.32874197,1.8189894e-12 4.73426573,1.8189894e-12 L8.12821159,1.8189894e-12 C8.53373536,1.8189894e-12 8.86247733,0.328741967 8.86247733,0.734265734 C8.86247733,1.1397895 8.53373536,1.46853147 8.12821159,1.46853147 L4.73426573,1.46853147 Z" id="Line-12" fill="#576574"></path>
                <path d="M0.734265734,1.46853147 C0.328741967,1.46853147 -1.11022302e-15,1.1397895 -1.11022302e-15,0.734265734 C-1.11022302e-15,0.328741967 0.328741967,3.11417558e-13 0.734265734,3.11417558e-13 L1.72937063,3.11417558e-13 C2.1348944,3.11417558e-13 2.46363636,0.328741967 2.46363636,0.734265734 C2.46363636,1.1397895 2.1348944,1.46853147 1.72937063,1.46853147 L0.734265734,1.46853147 Z" id="Line-12" fill="#A4A7B5"></path>
            </g>
            <g id="Group-223" transform="translate(0.000000, 32.000000)" fill-rule="nonzero">
                <path d="M12.9197227,27.9926961 L6.43757229,35.7192321 C6.437075,35.7192321 6.43667187,35.718829 6.43667187,35.7183317 C-0.256711987,30.0996793 -1.95236449,20.4875655 2.41447907,12.917802 L11.1494897,17.9601749 C9.22779713,21.2910066 9.97412347,25.5206954 12.9197227,27.9926961 L12.9197227,27.9926961 Z" id="Path" fill="#8E9C4C"></path>
                <path d="M15.3013435,14.4755351 C11.6907655,15.7955138 9.54489405,19.5129507 10.2076464,23.2996876 L0.275072293,25.0510118 C-1.24178719,16.4428098 3.63893672,7.9876209 11.8518202,4.99587405 L15.3013435,14.4755351 Z" id="Path" fill="#8E9C4C"></path>
                <path d="M18.0125193,29.8466685 L18.0125193,39.9314143 L17.9620956,39.9314143 C17.909871,39.9314143 17.8576464,39.9314143 17.8063223,39.9305139 C13.6427674,39.8890928 9.62336913,38.4002028 6.43757229,35.7192321 C6.437075,35.7192321 6.43667187,35.718829 6.43667187,35.7183317 C6.42676721,35.7102279 6.41686255,35.7012236 6.40695789,35.6931198 C3.17743379,32.9752774 1.00679881,29.2080623 0.275072293,25.0510118 L10.2076464,23.2996876 C10.8780229,27.0855817 14.1677312,29.8450959 18.0125193,29.8466685 L18.0125193,29.8466685 Z" id="Path" fill="#FCB442"></path>
                <path d="M29.5379431,35.7183317 C26.3521093,38.3999549 22.3322971,39.8891987 18.1682926,39.9305139 C18.1169685,39.9314143 18.0647439,39.9314143 18.0125193,39.9314143 L17.9620956,39.9314143 C17.909871,39.9314143 17.8576464,39.9314143 17.8063223,39.9305139 C13.6253253,39.9012132 9.58604472,38.4115653 6.38714856,35.7192321 C6.38665127,35.7192321 6.38624814,35.718829 6.38624814,35.7183317 L6.40695789,35.6931198 L12.9062164,27.9809906 C15.8457998,30.4600266 20.1412973,30.4695198 23.0918096,28.0035012 L29.5379431,35.7183317 Z" id="Path" fill="#FC8D36"></path>
                <path d="M35.7499664,25.0501113 L35.7499664,25.0510118 C34.2402186,33.5992803 26.8485299,39.8549218 18.1682926,39.9305139 C18.1169685,39.9314143 18.0647439,39.9314143 18.0125193,39.9314143 L18.0125193,29.8466685 C19.8698367,29.8495678 21.6685821,29.196841 23.0918096,28.0035012 L23.1053159,27.9926961 C24.5333862,26.7962106 25.4937357,25.1344106 25.8173922,23.2996876 L35.7499664,25.0501113 Z" id="Path" fill="#E74444"></path>
                <path d="M36.0210172,21.9229397 C36.021514,22.9712178 35.9308295,24.0175535 35.7499664,25.0501113 L35.7499664,25.0510118 C35.0155728,29.2211397 32.8336852,32.9985506 29.5883668,35.7183317 L23.1053159,27.9926961 C26.0509108,25.5210794 26.7972665,21.2916038 24.875549,17.9610753 L24.875549,17.9601749 L33.6105596,12.917802 C35.1944696,15.654274 36.0260926,18.7611327 36.0210172,21.9229397 L36.0210172,21.9229397 Z" id="Path" fill="#B01641"></path>
                <path d="M36.0209961,21.9229397 C36.021514,22.9712178 35.9308295,24.0175535 35.7499664,25.0501113 L35.7499664,25.0510118 L25.8173922,23.2996876 C25.8967437,22.8450715 25.9365114,22.3844291 25.9362481,21.9229397 C25.9383845,20.5318697 25.5724357,19.1649979 24.875549,17.9610753 L24.875549,17.9601749 C23.9422535,16.3478106 22.4725542,15.1142447 20.7227948,14.4746346 L24.1732185,4.99587405 C31.2882413,7.58649718 36.0228976,14.3509602 36.0209961,21.9229397 L36.0209961,21.9229397 Z" id="Path" fill="#B75382"></path>
                <path d="M24.875549,17.9610753 L24.875549,17.9601749 C23.4617969,15.506568 20.8442804,13.9958811 18.0125193,13.9992109 L18.0125193,3.91445593 C20.113407,3.91233781 22.1984471,4.27802739 24.1732185,4.99497363 L24.1732185,4.99587405 C28.1502753,6.44876505 31.4905263,9.25265095 33.6105596,12.917802 L24.875549,17.9610753 Z" id="Path" fill="#80588F"></path>
                <path d="M18.0125193,3.91445492 L18.0125193,13.9992109 C15.1809776,13.9967016 12.5638425,15.5071684 11.1494897,17.9601749 L2.41447907,12.917802 C5.62771981,7.34132111 11.5765261,3.90761365 18.0125193,3.91445492 Z" id="Path" fill="#298057"></path>
                <path d="M24.1732185,4.99497363 L24.1732185,4.99587405 L20.7227948,14.4746346 C18.9712331,13.8404253 17.0526944,13.840744 15.3013435,14.4755351 L11.8518202,4.99587405 C15.8324036,3.55430278 20.1924244,3.55398416 24.1732185,4.99497363 Z" id="Path" fill="#2B70A8"></path>
                <g id="Group-224" transform="translate(42.418988, 13.030532) rotate(-330.000000) translate(-42.418988, -13.030532) translate(36.168988, 1.780532)">
                    <path d="M10.8879371,6.57259545 L5.56391164,4.36745774 L1.91548473,13.1748624 L0.60140634,16.3460647 C0.367079392,16.9145244 0.385047011,17.5557294 0.650839603,18.1101749 L0.164610789,19.2841474 C-0.130926222,19.9974154 -0.0234896838,20.8141694 0.446450097,21.426746 C0.916389879,22.0393226 1.67743787,22.3546568 2.44291464,22.2539653 C3.20839142,22.1532738 3.86200285,21.651854 4.15753981,20.9385859 L4.64439893,19.763623 C5.22428085,19.5600672 5.69020098,19.1194549 5.92579193,18.5518327 L10.8879371,6.57259545 Z M4.59460549,18.0012236 C4.49596348,18.2383998 4.27848599,18.4051016 4.02382689,18.4387395 C3.76872654,18.4723371 3.55091713,18.6394524 3.45241799,18.8771558 L2.8266235,20.3871664 C2.73129806,20.6296351 2.51247471,20.8017336 2.2543698,20.8372281 C1.99626488,20.8727226 1.73910925,20.7660805 1.5818718,20.5583442 C1.42463435,20.3506078 1.3918237,20.0741571 1.49606736,19.8353868 L2.12096143,18.3263666 C2.21928247,18.0886319 2.18345808,17.8165175 2.02695719,17.6123306 C1.87057743,17.4078701 1.83464103,17.1357067 1.93259278,16.8976643 L4.59487562,18.0005033 L4.59460549,18.0012236 Z" id="Shape" fill="#A4D4F4"></path>
                    <path d="M9.15566515,0.625 C10.3494393,0.625 11.3171845,1.59274517 11.3171845,2.78651933 L11.3171845,5.87010677 L6.99414583,5.87010677 L6.99414583,2.78651933 C6.99414583,1.59274517 7.96189099,0.625 9.15566515,0.625 Z" id="Path" fill="#757C80" transform="translate(9.155665, 3.247553) rotate(22.514113) translate(-9.155665, -3.247553) "></path>
                    <polygon id="Path" fill="#757C80" transform="translate(7.952724, 6.149134) rotate(22.514113) translate(-7.952724, -6.149134) " points="4.35019142 4.70812139 11.5552558 4.70812139 11.5552558 7.59014716 4.35019142 7.59014716"></polygon>
                    <g id="Group" transform="translate(1.384235, 11.541584)" fill="#B75382">
                        <path d="M0.774364407,10.736935 C0.857923498,10.7363763 0.941382994,10.730433 1.02432203,10.719135 L0.518193856,10.719135 C0.603184789,10.7307751 0.688729875,10.7367192 0.774364407,10.736935 Z" id="Path"></path>
                        <path d="M3.21037076,6.45963983 L5.4157786,1.1345339 L2.75430614,0.0324152542 L0.548268008,5.35581038 C0.450145499,5.59387805 0.486055153,5.8661672 0.642542373,6.07065678 C0.799043262,6.27484369 0.834867654,6.54695808 0.73654661,6.7846928 L0.111652542,8.29371292 C0.00740888697,8.53248324 0.0402195371,8.80893397 0.197456988,9.01667032 C0.354694439,9.22440666 0.61185007,9.33104872 0.869954982,9.29555424 C1.12805989,9.26005976 1.34688324,9.08796127 1.44220869,8.84549258 L2.06800318,7.33548199 C2.16650231,7.0977786 2.38431173,6.93066324 2.63941208,6.89706568 C2.89411803,6.86350512 3.11167185,6.69683165 3.21037076,6.45963983 L3.21037076,6.45963983 Z" id="Path"></path>
                    </g>
                </g>
            </g>
        </g>
    </g>
</svg>