<?xml version="1.0" encoding="UTF-8"?>
<svg width="39px" height="75px" viewBox="0 0 39 75" version="1.1" xmlns="http://www.w3.org/2000/svg" xmlns:xlink="http://www.w3.org/1999/xlink">
    <!-- Generator: Sketch 52.5 (67469) - http://www.bohemiancoding.com/sketch -->
    <title>column</title>
    <desc>Created with Sketch.</desc>
    <g id="re-design-layout" stroke="none" stroke-width="1" fill="none" fill-rule="evenodd">
        <g id="re-design-layout-componentes-V2" transform="translate(-661.000000, -2105.000000)" fill-rule="nonzero">
            <g id="column" transform="translate(661.000000, 2105.000000)">
                <rect id="Rectangle" fill="#E3E5ED" x="0" y="0" width="39" height="16"></rect>
                <path d="M0.295454545,1 L0.295454545,74 L38.7045455,74 L38.7045455,1 L0.295454545,1 Z M0,0 L39,0 L39,75 L0,75 L0,0 Z" id="Rectangle" fill="#E3E5ED"></path>
                <g id="Group-13" transform="translate(8.000000, 7.000000)" fill="#576574">
                    <path d="M1.33333333,2.66666667 C0.596953667,2.66666667 0,2.069713 0,1.33333333 C0,0.596953667 0.596953667,0 1.33333333,0 L20.3333333,0 C21.069713,0 21.6666667,0.596953667 21.6666667,1.33333333 C21.6666667,2.069713 21.069713,2.66666667 20.3333333,2.66666667 L1.33333333,2.66666667 Z" id="Line-3"></path>
                </g>
                <g id="Group-13-Copy-2" transform="translate(8.000000, 22.000000)" fill="#A4A7B5">
                    <path d="M1.33333333,2.95742471 C0.596953667,2.95742471 0,2.36047105 0,1.62409138 C0,0.887711715 0.596953667,0.290758048 1.33333333,0.290758048 L16.3333333,0.290758048 C17.069713,0.290758048 17.6666667,0.887711715 17.6666667,1.62409138 C17.6666667,2.36047105 17.069713,2.95742471 16.3333333,2.95742471 L1.33333333,2.95742471 Z" id="Line-3"></path>
                </g>
                <g id="Group-13-Copy-3" transform="translate(8.000000, 36.000000)" fill="#A4A7B5">
                    <path d="M1.33333333,2.95742471 C0.596953667,2.95742471 0,2.36047105 0,1.62409138 C0,0.887711715 0.596953667,0.290758048 1.33333333,0.290758048 L19.3333333,0.290758048 C20.069713,0.290758048 20.6666667,0.887711715 20.6666667,1.62409138 C20.6666667,2.36047105 20.069713,2.95742471 19.3333333,2.95742471 L1.33333333,2.95742471 Z" id="Line-3"></path>
                </g>
                <g id="Group-13-Copy-4" transform="translate(8.000000, 51.000000)" fill="#A4A7B5">
                    <path d="M1.33333333,2.95742471 C0.596953667,2.95742471 0,2.36047105 0,1.62409138 C0,0.887711715 0.596953667,0.290758048 1.33333333,0.290758048 L17.3333333,0.290758048 C18.069713,0.290758048 18.6666667,0.887711715 18.6666667,1.62409138 C18.6666667,2.36047105 18.069713,2.95742471 17.3333333,2.95742471 L1.33333333,2.95742471 Z" id="Line-3"></path>
                </g>
                <g id="Group-13-Copy-5" transform="translate(8.000000, 66.000000)" fill="#A4A7B5">
                    <path d="M1.33333333,2.95742471 C0.596953667,2.95742471 0,2.36047105 0,1.62409138 C0,0.887711715 0.596953667,0.290758048 1.33333333,0.290758048 L17.3333333,0.290758048 C18.069713,0.290758048 18.6666667,0.887711715 18.6666667,1.62409138 C18.6666667,2.36047105 18.069713,2.95742471 17.3333333,2.95742471 L1.33333333,2.95742471 Z" id="Line-3"></path>
                </g>
                <polygon id="Line-7" fill="#B1B4BD" points="0.135840713 16.25 0.135840713 15.75 38.9862846 15.75 38.9862846 16.25"></polygon>
                <polygon id="Line-7-Copy" fill="#B1B4BD" points="-7.10542736e-14 30.5 -7.10542736e-14 30 38.8504439 30 38.8504439 30.5"></polygon>
                <polygon id="Line-7-Copy-2" fill="#B1B4BD" points="-7.10542736e-14 44.5 -7.10542736e-14 44 38.8504439 44 38.8504439 44.5"></polygon>
                <polygon id="Line-7-Copy-3" fill="#B1B4BD" points="-7.10542736e-14 59.5 -7.10542736e-14 59 38.8504439 59 38.8504439 59.5"></polygon>
            </g>
        </g>
    </g>
</svg>