<?xml version="1.0" encoding="UTF-8"?>
<svg width="137px" height="71px" viewBox="0 0 137 71" version="1.1" xmlns="http://www.w3.org/2000/svg" xmlns:xlink="http://www.w3.org/1999/xlink">
    <title>CounterInput</title>
    <g id="pages" stroke="none" stroke-width="1" fill="none" fill-rule="evenodd">
        <g id="CounterInput" transform="translate(0.000000, 0.000000)">
            <g id="Group-226" transform="translate(87.000000, 0.000000)" fill-rule="nonzero">
                <g id="Group-5">
                    <path d="M0,11 C0,4.92486775 4.92817249,0 10.991074,0 L38.1815451,0 C44.1522361,0 49.0109701,4.76342789 49.1686683,10.7021035 L49.172619,11 C49.172619,17.0751322 44.2444466,22 38.1815451,22 L10.991074,22 C5.02038296,22 0.161648924,17.2365721 0.00395076211,11.2978965 L0,11 Z" id="Path" fill="#FFB900"></path>
                    <path d="M8.9375,15.8125 L12.1325784,15.8125 C12.6349885,15.8125 13.0823824,15.7502178 13.4747605,15.6256533 C13.8671385,15.5010889 14.1982725,15.3266986 14.468162,15.1024826 C14.7380519,14.8782666 14.9435833,14.6094149 15.0847561,14.2959277 C15.2259289,13.9824404 15.2965157,13.6346981 15.2965157,13.2527003 C15.2965157,12.7046167 15.1314678,12.2592988 14.801372,11.9167465 C14.4712761,11.5741943 13.9844366,11.3385599 13.3408537,11.2098432 C13.6190477,11.1226481 13.8619484,11.0095019 14.0695557,10.8704051 C14.2771634,10.7313082 14.4494774,10.5756026 14.5864983,10.4032883 C14.7235192,10.230974 14.8262848,10.0441273 14.8947953,9.84274826 C14.9633057,9.64138096 14.997561,9.43273549 14.997561,9.21681185 C14.997561,8.85557491 14.9363165,8.52963099 14.8138284,8.23898084 C14.6913403,7.94833068 14.5013795,7.70231587 14.243946,7.50093641 C13.9865129,7.29955695 13.658493,7.14488992 13.2598868,7.0369338 C12.8612805,6.92897768 12.3837833,6.875 11.8273955,6.875 L8.9375,6.875 L8.9375,15.8125 Z M10.2205139,11.7641551 L12.1138937,11.7641551 C12.7574766,11.7641551 13.2370498,11.8949477 13.5526132,12.1565331 C13.8681767,12.4181185 14.0259582,12.7731272 14.0259582,13.2215592 C14.0259582,13.4499273 13.989627,13.659611 13.9169643,13.8506098 C13.8443244,14.0416085 13.7311782,14.2066564 13.5775261,14.3457535 C13.4239071,14.4848504 13.22668,14.5938443 12.9858449,14.6727352 C12.7450202,14.751626 12.4543697,14.7910714 12.1138937,14.7910714 L10.2205139,14.7910714 L10.2205139,11.7641551 Z M10.2205139,10.8548345 L10.2205139,7.88397213 L11.8273955,7.88397213 C12.4709784,7.88397213 12.9474374,8.00334615 13.2567726,8.24209495 C13.5661079,8.48084375 13.7207753,8.85765124 13.7207753,9.37251742 C13.7207753,9.59673345 13.68133,9.80018886 13.602439,9.98288328 C13.5235697,10.1655777 13.4041953,10.3212833 13.2443162,10.45 C13.0844584,10.5787167 12.8820411,10.6783683 12.6370645,10.7489547 C12.3920878,10.8195411 12.1035132,10.8548345 11.7713415,10.8548345 L10.2205139,10.8548345 Z M23.2935526,6.875 L17.7628906,6.875 L17.7628906,15.8125 L23.2935526,15.8125 L23.2997808,14.7661585 L19.0521327,14.7661585 L19.0521327,11.8077526 L22.4714272,11.8077526 L22.4714272,10.7987805 L19.0521327,10.7987805 L19.0521327,7.92134146 L23.2935526,7.92134146 L23.2935526,6.875 Z M31.776391,6.875 L24.7696402,6.875 L24.7696402,7.95248258 L27.6346227,7.95248258 L27.6346227,15.8125 L28.9176367,15.8125 L28.9176367,7.95248258 L31.776391,7.95248258 L31.776391,6.875 Z M40.2841425,15.8125 L36.7153707,6.875 L35.4136721,6.875 L31.8511286,15.8125 L32.8476442,15.8125 C32.9555979,15.8125 33.0479832,15.7813589 33.1248002,15.7190767 C33.2016149,15.6567944 33.2524787,15.5862079 33.2773916,15.5073171 L34.0808324,13.4084059 L38.0482104,13.4084059 L38.8516512,15.5073171 C38.8890205,15.5986643 38.9429982,15.672365 39.013585,15.728419 C39.0841718,15.784473 39.1755188,15.8125 39.2876268,15.8125 L40.2841425,15.8125 Z M37.6932017,12.4866289 L34.4358411,12.4866289 L35.7873655,8.97391115 C35.8329778,8.86180314 35.8786513,8.73101045 35.9243864,8.5815331 L36.0614073,8.09573171 L36.0614073,8.09573171 C36.1070808,8.27012195 36.1537925,8.43101797 36.2015423,8.57841899 L36.2489461,8.71993794 L36.2489461,8.71993794 L37.6932017,12.4866289 Z" id="BETA" fill="#FFFFFF"></path>
                </g>
            </g>
            <g id="Group-229" transform="translate(27.000000, 28.000000)" fill-rule="nonzero">
                <g id="Group-72" fill="#A4A7B5">
                    <path d="M8.83679071,6.03280904 C4.44127996,6.03280904 0.878014462,9.59607454 0.878014462,13.9915853 C0.878014462,18.387096 4.44127996,21.9503615 8.83679071,21.9503615 L68.9830811,21.9503615 C73.3785918,21.9503615 76.9418573,18.387096 76.9418573,13.9915853 C76.9418573,9.59607454 73.3785918,6.03280904 68.9830811,6.03280904 L8.83679071,6.03280904 Z M8.83679071,5.15479458 L68.9830811,5.15479458 C73.8635058,5.15479458 77.8198718,9.11116054 77.8198718,13.9915853 C77.8198718,18.87201 73.8635058,22.828376 68.9830811,22.828376 L8.83679071,22.828376 C3.95636596,22.828376 3.9587381e-13,18.87201 3.9587381e-13,13.9915853 C3.9587381e-13,9.11116054 3.95636596,5.15479458 8.83679071,5.15479458 Z" id="Rectangle"></path>
                    <path d="M27.3526499,2.22857143 C26.7425968,2.22857143 26.2480511,1.72968872 26.2480511,1.11428571 C26.2480511,0.498882707 26.7425968,-6.23691575e-13 27.3526499,-6.23691575e-13 L51.101525,-6.23691575e-13 C51.7115781,-6.23691575e-13 52.2061238,0.498882707 52.2061238,1.11428571 C52.2061238,1.72968872 51.7115781,2.22857143 51.101525,2.22857143 L27.3526499,2.22857143 Z" id="Line-12"></path>
                </g>
                <g id="Group-92" transform="translate(30.062615, 11.330702)" fill="#576574">
                    <path d="M1.00324409,2.7175298 C1.00324409,1.86893031 1.6911699,1.18100449 2.5397694,1.18100449 L15.6203557,1.18100449 C16.4689552,1.18100449 17.156881,1.86893031 17.156881,2.7175298 C17.156881,3.5661293 16.4689552,4.25405511 15.6203557,4.25405511 L2.5397694,4.25405511 C1.6911699,4.25405511 1.00324409,3.5661293 1.00324409,2.7175298 Z" id="Path"></path>
                </g>
                <g id="Group-20" transform="translate(63.811765, 8.914286)">
                    <path d="M5.24369748,0 C8.13971163,0 10.487395,2.34768333 10.487395,5.24369748 C10.487395,8.13971163 8.13971163,10.487395 5.24369748,10.487395 C2.34768333,10.487395 0,8.13971163 0,5.24369748 C0,2.34768333 2.34768333,0 5.24369748,0 Z" id="Oval" fill-opacity="0.5" fill="#E3E5ED"></path>
                    <path d="M7.33356988,4.82571457 L5.66168039,4.82571457 L5.66168039,3.15382508 C5.66168039,2.92310188 5.47484224,2.73584216 5.24369748,2.73584216 C5.01255272,2.73584216 4.82571457,2.92310188 4.82571457,3.15382508 L4.82571457,4.82571457 L3.15382508,4.82571457 C2.92268031,4.82571457 2.73584216,5.01297428 2.73584216,5.24369748 C2.73584216,5.47442067 2.92268031,5.66168039 3.15382508,5.66168039 L4.82571457,5.66168039 L4.82571457,7.33356988 C4.82571457,7.56429308 5.01255272,7.7515528 5.24369748,7.7515528 C5.47484224,7.7515528 5.66168039,7.56429308 5.66168039,7.33356988 L5.66168039,5.66168039 L7.33356988,5.66168039 C7.56471464,5.66168039 7.7515528,5.47442067 7.7515528,5.24369748 C7.7515528,5.01297428 7.56471464,4.82571457 7.33356988,4.82571457 Z" id="Path" fill="#01B6F5"></path>
                </g>
                <g id="Group-20-Copy-3" transform="translate(3.811765, 8.914286)">
                    <path d="M5.24369748,0 C8.13971163,0 10.487395,2.34768333 10.487395,5.24369748 C10.487395,8.13971163 8.13971163,10.487395 5.24369748,10.487395 C2.34768333,10.487395 0,8.13971163 0,5.24369748 C0,2.34768333 2.34768333,0 5.24369748,0 Z" id="Oval" fill-opacity="0.5" fill="#E3E5ED"></path>
                    <path d="M7.33356988,4.82571457 L3.15382508,4.82571457 C2.92268031,4.82571457 2.73584216,5.01297428 2.73584216,5.24369748 C2.73584216,5.47442067 2.92268031,5.66168039 3.15382508,5.66168039 L7.33356988,5.66168039 C7.56471464,5.66168039 7.7515528,5.47442067 7.7515528,5.24369748 C7.7515528,5.01297428 7.56471464,4.82571457 7.33356988,4.82571457 Z" id="Path" fill="#01B6F5"></path>
                </g>
            </g>
            <rect id="Rectangle" fill-opacity="0.02" fill="#FFFFFF" x="0" y="65" width="11" height="6"></rect>
        </g>
    </g>
</svg>