<?xml version="1.0" encoding="UTF-8"?>
<svg width="138px" height="71px" viewBox="0 0 138 71" version="1.1" xmlns="http://www.w3.org/2000/svg" xmlns:xlink="http://www.w3.org/1999/xlink">
    <title>currencyInput</title>
    <g id="pages" stroke="none" stroke-width="1" fill="none" fill-rule="evenodd">
        <g id="currencyInput" fill-rule="nonzero">
            <g id="Group-61" transform="translate(0.000000, 44.374046)">
                <path d="M12.6412214,0.842748092 C6.12510451,0.842748092 0.842748092,6.12510451 0.842748092,12.6412214 C0.842748092,19.1573382 6.12510451,24.4396947 12.6412214,24.4396947 L125.358779,24.4396947 C131.874895,24.4396947 137.157252,19.1573382 137.157252,12.6412214 C137.157252,6.12510451 131.874895,0.842748092 125.358779,0.842748092 L12.6412214,0.842748092 Z M12.6412214,0 L125.358779,0 C132.340332,0 138,5.65966759 138,12.6412214 C138,19.6227752 132.340332,25.2824427 125.358779,25.2824427 L12.6412214,25.2824427 C5.65966759,25.2824427 0,19.6227752 0,12.6412214 C0,5.65966759 5.65966759,0 12.6412214,0 Z" id="Rectangle" fill="#A4A7B5"></path>
                <path d="M28.9694656,14.7480916 C27.8058734,14.7480916 26.8625954,13.8048137 26.8625954,12.6412214 C26.8625954,11.4776291 27.8058734,10.5343511 28.9694656,10.5343511 L98.4961832,10.5343511 C99.6597755,10.5343511 100.603053,11.4776291 100.603053,12.6412214 C100.603053,13.8048137 99.6597755,14.7480916 98.4961832,14.7480916 L28.9694656,14.7480916 Z" id="Line-12" fill="#E3E5ED"></path>
            </g>
            <path d="M51.0916031,40.1603053 C50.2189088,40.1603053 49.5114504,39.4528469 49.5114504,38.5801527 C49.5114504,37.7074584 50.2189088,37 51.0916031,37 L85.0648855,37 C85.9375797,37 86.6450382,37.7074584 86.6450382,38.5801527 C86.6450382,39.4528469 85.9375797,40.1603053 85.0648855,40.1603053 L51.0916031,40.1603053 Z" id="Line-12" fill="#A4A7B5"></path>
            <g id="Group-5-Copy" transform="translate(88.000000, 0.000000)">
                <path d="M0,11 C0,4.92486775 4.92817249,0 10.991074,0 L38.1815451,0 C44.1522361,0 49.0109701,4.76342789 49.1686683,10.7021035 L49.172619,11 C49.172619,17.0751322 44.2444466,22 38.1815451,22 L10.991074,22 C5.02038296,22 0.161648924,17.2365721 0.00395076211,11.2978965 L0,11 Z" id="Path" fill="#FFB900"></path>
                <path d="M8.9375,15.8125 L12.1325784,15.8125 C12.6349885,15.8125 13.0823824,15.7502178 13.4747605,15.6256533 C13.8671385,15.5010889 14.1982725,15.3266986 14.468162,15.1024826 C14.7380519,14.8782666 14.9435833,14.6094149 15.0847561,14.2959277 C15.2259289,13.9824404 15.2965157,13.6346981 15.2965157,13.2527003 C15.2965157,12.7046167 15.1314678,12.2592988 14.801372,11.9167465 C14.4712761,11.5741943 13.9844366,11.3385599 13.3408537,11.2098432 C13.6190477,11.1226481 13.8619484,11.0095019 14.0695557,10.8704051 C14.2771634,10.7313082 14.4494774,10.5756026 14.5864983,10.4032883 C14.7235192,10.230974 14.8262848,10.0441273 14.8947953,9.84274826 C14.9633057,9.64138096 14.997561,9.43273549 14.997561,9.21681185 C14.997561,8.85557491 14.9363165,8.52963099 14.8138284,8.23898084 C14.6913403,7.94833068 14.5013795,7.70231587 14.243946,7.50093641 C13.9865129,7.29955695 13.658493,7.14488992 13.2598868,7.0369338 C12.8612805,6.92897768 12.3837833,6.875 11.8273955,6.875 L8.9375,6.875 L8.9375,15.8125 Z M10.2205139,11.7641551 L12.1138937,11.7641551 C12.7574766,11.7641551 13.2370498,11.8949477 13.5526132,12.1565331 C13.8681767,12.4181185 14.0259582,12.7731272 14.0259582,13.2215592 C14.0259582,13.4499273 13.989627,13.659611 13.9169643,13.8506098 C13.8443244,14.0416085 13.7311782,14.2066564 13.5775261,14.3457535 C13.4239071,14.4848504 13.22668,14.5938443 12.9858449,14.6727352 C12.7450202,14.751626 12.4543697,14.7910714 12.1138937,14.7910714 L10.2205139,14.7910714 L10.2205139,11.7641551 Z M10.2205139,10.8548345 L10.2205139,7.88397213 L11.8273955,7.88397213 C12.4709784,7.88397213 12.9474374,8.00334615 13.2567726,8.24209495 C13.5661079,8.48084375 13.7207753,8.85765124 13.7207753,9.37251742 C13.7207753,9.59673345 13.68133,9.80018886 13.602439,9.98288328 C13.5235697,10.1655777 13.4041953,10.3212833 13.2443162,10.45 C13.0844584,10.5787167 12.8820411,10.6783683 12.6370645,10.7489547 C12.3920878,10.8195411 12.1035132,10.8548345 11.7713415,10.8548345 L10.2205139,10.8548345 Z M23.2935526,6.875 L17.7628906,6.875 L17.7628906,15.8125 L23.2935526,15.8125 L23.2997808,14.7661585 L19.0521327,14.7661585 L19.0521327,11.8077526 L22.4714272,11.8077526 L22.4714272,10.7987805 L19.0521327,10.7987805 L19.0521327,7.92134146 L23.2935526,7.92134146 L23.2935526,6.875 Z M31.776391,6.875 L24.7696402,6.875 L24.7696402,7.95248258 L27.6346227,7.95248258 L27.6346227,15.8125 L28.9176367,15.8125 L28.9176367,7.95248258 L31.776391,7.95248258 L31.776391,6.875 Z M40.2841425,15.8125 L36.7153707,6.875 L35.4136721,6.875 L31.8511286,15.8125 L32.8476442,15.8125 C32.9555979,15.8125 33.0479832,15.7813589 33.1248002,15.7190767 C33.2016149,15.6567944 33.2524787,15.5862079 33.2773916,15.5073171 L34.0808324,13.4084059 L38.0482104,13.4084059 L38.8516512,15.5073171 C38.8890205,15.5986643 38.9429982,15.672365 39.013585,15.728419 C39.0841718,15.784473 39.1755188,15.8125 39.2876268,15.8125 L40.2841425,15.8125 Z M37.6932017,12.4866289 L34.4358411,12.4866289 L35.7873655,8.97391115 C35.8329778,8.86180314 35.8786513,8.73101045 35.9243864,8.5815331 L36.0614073,8.09573171 L36.0614073,8.09573171 C36.1070808,8.27012195 36.1537925,8.43101797 36.2015423,8.57841899 L36.2489461,8.71993794 L36.2489461,8.71993794 L37.6932017,12.4866289 Z" id="BETA" fill="#FFFFFF"></path>
            </g>
            <path d="M12.5,50.0832978 C12.7454599,50.0832978 12.9496084,50.2601729 12.9919443,50.4934221 L13,50.5832978 L13,52.4162978 L15.4166375,52.4166988 C15.6927799,52.4166988 15.9166375,52.6405564 15.9166375,52.9166988 C15.9166375,53.1621586 15.7397623,53.3663071 15.5065131,53.4086431 L15.4166375,53.4166988 L13,53.4162978 L13,56.4992978 L13.9583363,56.500035 C14.6324227,56.500035 15.2789093,56.7678159 15.7555703,57.244466 C16.2322338,57.7211077 16.5,58.3675966 16.5,59.041725 C16.5,59.7158048 16.2322314,60.3622879 15.7555784,60.8389409 C15.326588,61.2679313 14.7600365,61.5277205 14.159596,61.5753884 L13.9583363,61.5833625 L13,61.5832978 L13,63.4166375 C13,63.6927799 12.7761424,63.9166375 12.5,63.9166375 C12.2545401,63.9166375 12.0503916,63.7397623 12.0080557,63.5065131 L12,63.4166375 L12,61.5832978 L9,61.5833625 C8.72385763,61.5833625 8.5,61.3595049 8.5,61.0833625 C8.5,60.8379026 8.67687516,60.6337541 8.91012437,60.5914182 L9,60.5833625 L12,60.5832978 L12,57.4992978 L11.0416637,57.500035 C10.3675667,57.500035 9.7210848,57.2322525 9.24444315,56.7555999 C8.76778252,56.2789502 8.5,55.6324683 8.5,54.9583713 C8.5,54.2842766 8.76778066,53.6377963 9.24443911,53.1611379 C9.67342743,52.7321495 10.2399766,52.4723445 10.8404075,52.4246734 L11.0416637,52.4166988 L12,52.4162978 L12,50.5832978 C12,50.3071554 12.2238576,50.0832978 12.5,50.0832978 Z M13,60.5832978 L13.9583363,60.5833625 C14.3672295,60.5833625 14.7593577,60.420948 15.0484716,60.1318341 C15.3375837,59.842722 15.5,59.4505947 15.5,59.041725 C15.5,58.6328082 15.3375878,58.2406839 15.0484756,57.9515849 C14.795487,57.698602 14.463634,57.5426213 14.1107106,57.507579 L13.9583363,57.500035 L13,57.4992978 L13,60.5832978 Z M12,56.4992978 L12,53.4162978 L11.0416637,53.4166988 C10.6327931,53.4166988 10.2406645,53.579126 9.95154589,53.8682446 C9.6624239,54.1573666 9.5,54.549493 9.5,54.9583713 C9.5,55.3672494 9.66242368,55.7593735 9.95154993,56.0484931 C10.2045225,56.3014715 10.5363641,56.4574495 10.8892883,56.4924912 L11.0416637,56.500035 L12,56.4992978 Z" id="Combined-Shape" fill="#576574"></path>
        </g>
    </g>
</svg>