<svg xmlns="http://www.w3.org/2000/svg" width="50" height="64" viewBox="0 0 50 64">
    <g fill="none" fill-rule="nonzero">
        <path fill="#FE6D6D" d="M4.067 49.6h3.2a4 4 0 0 1 4 4V64H.067V53.6a4 4 0 0 1 4-4z"/>
        <path fill="#FE4849" d="M10.267 63v-9.4a3 3 0 0 0-3-3h-3.2a3 3 0 0 0-3 3V63h9.2zm-6.2-13.4h3.2a4 4 0 0 1 4 4V64H.067V53.6a4 4 0 0 1 4-4z"/>
        <path fill="#FF865F" d="M16.867 0h3.2a4 4 0 0 1 4 4v60h-11.2V4a4 4 0 0 1 4-4z"/>
        <path fill="#FF6837" d="M13.867 63h9.2V4a3 3 0 0 0-3-3h-3.2a3 3 0 0 0-3 3v59zm3-63h3.2a4 4 0 0 1 4 4v60h-11.2V4a4 4 0 0 1 4-4z"/>
        <path fill="#FFD633" d="M29.667 17.6h3.2a4 4 0 0 1 4 4V64h-11.2V21.6a4 4 0 0 1 4-4z"/>
        <path fill="#FC0" d="M35.867 63V21.6a3 3 0 0 0-3-3h-3.2a3 3 0 0 0-3 3V63h9.2zm-6.2-45.4h3.2a4 4 0 0 1 4 4V64h-11.2V21.6a4 4 0 0 1 4-4z"/>
        <path fill="#48DAB5" d="M42.467 32h3.2a4 4 0 0 1 4 4v28h-11.2V36a4 4 0 0 1 4-4z"/>
        <path fill="#1AD1A3" d="M48.667 63V36a3 3 0 0 0-3-3h-3.2a3 3 0 0 0-3 3v27h9.2zm-6.2-31h3.2a4 4 0 0 1 4 4v28h-11.2V36a4 4 0 0 1 4-4z"/>
    </g>
</svg>
