<?xml version="1.0" encoding="UTF-8"?>
<svg width="145px" height="87px" viewBox="0 0 145 87" version="1.1" xmlns="http://www.w3.org/2000/svg" xmlns:xlink="http://www.w3.org/1999/xlink">
    <!-- Generator: Sketch 53.2 (72643) - https://sketchapp.com -->
    <title>DatePicker</title>
    <desc>Created with Sketch.</desc>
    <defs>
        <ellipse id="path-1" cx="2.47772015" cy="2.46979264" rx="2.47772015" ry="2.46979264"></ellipse>
    </defs>
    <g id="pages" stroke="none" stroke-width="1" fill="none" fill-rule="evenodd">
        <g id="componentes-V2" transform="translate(-162.000000, -1477.000000)">
            <g id="DatePicker" transform="translate(162.000000, 1477.000000)">
                <path d="M4,0 L141,0 C143.209139,-4.05812251e-16 145,1.790861 145,4 L145,83 C145,85.209139 143.209139,87 141,87 L4,87 C1.790861,87 2.705415e-16,85.209139 0,83 L0,4 C-2.705415e-16,1.790861 1.790861,4.05812251e-16 4,0 Z" id="Rectangle" fill="#E3E5ED" fill-rule="nonzero"></path>
                <g id="Group-116" transform="translate(19.000000, 15.000000)">
                    <g id="Group-112">
                        <g id="z-embedded-/-List-Box" transform="translate(0.000000, 0.500000)" fill="#FFFFFF" fill-rule="nonzero">
                            <path d="M0,8.13642198 C0,3.6428002 3.58809249,0 8.02171215,0 L61,0 L61,57 L8.02171215,57 C3.59144286,57 0,53.3476838 0,48.863578 L0,8.13642198 Z" id="overflow-bkgd"></path>
                        </g>
                        <path d="M4.51596395,8.26577695 L3.60321866,7.35303165 C3.54013185,7.28994484 3.54013185,7.18793213 3.60321866,7.12551646 L3.75489545,6.97383967 C3.81798226,6.91075286 3.91999497,6.91075286 3.98241064,6.97383967 L4.62938598,7.62081501 L5.27636132,6.97383967 C5.33944813,6.91075286 5.44146084,6.91075286 5.50387651,6.97383967 L5.6555533,7.12551646 C5.71864011,7.18860327 5.71864011,7.29061598 5.6555533,7.35303165 L4.74280801,8.26577695 C4.68106347,8.32886375 4.57905076,8.32886375 4.51596395,8.26577695 L4.51596395,8.26577695 Z" id="Shape-Copy" fill="#01B6F5" fill-rule="nonzero" transform="translate(4.629386, 7.619808) scale(1, -1) rotate(-270.000000) translate(-4.629386, -7.619808) "></path>
                        <path d="M55.685293,8.26577695 L54.7725477,7.35303165 C54.7094609,7.28994484 54.7094609,7.18793213 54.7725477,7.12551646 L54.9242245,6.97383967 C54.9873113,6.91075286 55.089324,6.91075286 55.1517397,6.97383967 L55.7987151,7.62081501 L56.4456904,6.97383967 C56.5087772,6.91075286 56.6107899,6.91075286 56.6732056,6.97383967 L56.8248824,7.12551646 C56.8879692,7.18860327 56.8879692,7.29061598 56.8248824,7.35303165 L55.9121371,8.26577695 C55.8503925,8.32886375 55.7483798,8.32886375 55.685293,8.26577695 L55.685293,8.26577695 Z" id="Shape-Copy" fill="#01B6F5" fill-rule="nonzero" transform="translate(55.798715, 7.619808) rotate(-90.000000) translate(-55.798715, -7.619808) "></path>
                        <path d="M61.6517572,2 L61.6517572,56 L99.1693291,56 C103.035322,56 106.169329,52.8659932 106.169329,49 L106.169329,9 C106.169329,5.13400675 103.035322,2 99.1693291,2 L61.6517572,2 Z M60.6517572,1 L99.1693291,1 C103.587607,1 107.169329,4.581722 107.169329,9 L107.169329,49 C107.169329,53.418278 103.587607,57 99.1693291,57 L60.6517572,57 L60.6517572,1 Z" id="Rectangle-23" fill="#44BDFB" fill-rule="nonzero"></path>
                        <path d="M99.1693291,0.5 C103.863749,0.5 107.669329,4.30557963 107.669329,9 L107.669329,49 C107.669329,53.6944204 103.863749,57.5 99.1693291,57.5 L60.1517572,57.5 L60.1517572,0.5 L99.1693291,0.5 Z" id="Rectangle-23" fill="#FFFFFF" fill-rule="nonzero"></path>
                        <g id="Group-46" transform="translate(76.396166, 47.338658)" fill-rule="nonzero">
                            <g id="Group-16" transform="translate(11.808307, 2.862620)" fill="#01B6F5">
                                <path d="M0.56730842,0.939191225 L0.027958926,0.336275541 C-0.00931964198,0.294603427 -0.00931964198,0.227218733 0.027958926,0.18598994 L0.117586121,0.0857995396 C0.154864689,0.0441274262 0.215144927,0.0441274262 0.252026914,0.0857995396 L0.634330526,0.513160363 L1.01663414,0.0857995396 C1.05391271,0.0441274262 1.11419294,0.0441274262 1.15107493,0.0857995396 L1.24070213,0.18598994 C1.27798069,0.227662053 1.27798069,0.295046748 1.24070213,0.336275541 L0.701352632,0.939191225 C0.664867225,0.980863338 0.604586987,0.980863338 0.56730842,0.939191225 L0.56730842,0.939191225 Z" id="Shape-Copy" transform="translate(0.634331, 0.512495) rotate(-360.000000) translate(-0.634331, -0.512495) "></path>
                            </g>
                            <path d="M0.5,3.22044728 C0.5,4.72050155 1.72080865,5.94089457 3.22404478,5.94089457 L11.8047092,5.94089457 C13.3108175,5.94089457 14.528754,4.72368233 14.528754,3.22044728 C14.528754,1.72039302 13.3079453,0.5 11.8047092,0.5 L3.22404478,0.5 C1.71793653,0.5 0.5,1.71721224 0.5,3.22044728 Z M0,3.22044728 C0,1.44184336 1.44102011,0 3.22404478,0 L11.8047092,0 C13.5853,0 15.028754,1.44546246 15.028754,3.22044728 C15.028754,4.99905121 13.5877339,6.44089457 11.8047092,6.44089457 L3.22404478,6.44089457 C1.44345402,6.44089457 0,4.99543211 0,3.22044728 Z" id="Rectangle-2" fill="#E3E5ED"></path>
                        </g>
                        <path d="M78.4293422,26.1080383 L80.5226333,26.1080383 L80.5226333,18.7138901 C80.5226333,18.5678967 80.5290742,18.4133152 80.5419559,18.2501456 L78.5323965,20.0342737 C78.4894573,20.0729191 78.4379301,20.0922417 78.377815,20.0922417 C78.3048181,20.0922417 78.2489971,20.0664782 78.2103517,20.014951 L78.0235658,19.7573152 L80.6578921,17.4321519 L81.1345183,17.4321519 L81.1345183,26.1080383 L83.1247551,26.1080383 L83.1247551,26.5846645 L78.4293422,26.5846645 L78.4293422,26.1080383 Z M87.9554256,21.1356668 C88.3461734,21.1356668 88.7068635,21.2000758 89.037496,21.3288937 C89.3681286,21.4577116 89.6526016,21.6391303 89.8909147,21.8731494 C90.1292279,22.1071685 90.3160138,22.3905679 90.4512726,22.7233476 C90.5865314,23.0561273 90.6541608,23.4286257 90.6541608,23.840843 C90.6541608,24.2530603 90.5800906,24.6330732 90.43195,24.9808815 C90.2838094,25.3286899 90.0777007,25.6292651 89.813624,25.8826069 C89.5495473,26.1359489 89.2328698,26.3334697 88.8635919,26.4751693 C88.494314,26.616869 88.0885376,26.6877189 87.6462626,26.6877189 C87.2211635,26.6877189 86.8325627,26.6190159 86.4804605,26.4816102 C86.1283583,26.3442045 85.8267096,26.1466836 85.5755146,25.8890478 C85.3243197,25.631412 85.1300193,25.3168816 84.9926136,24.9454566 C84.8552079,24.5740317 84.7865049,24.1542999 84.7865049,23.6862615 C84.7865049,23.3298654 84.8766775,22.9273094 85.0570226,22.4785936 C85.2373676,22.0298734 85.5336488,21.5264099 85.9458661,20.9682036 L88.4320519,17.6189378 C88.5050485,17.5201772 88.6145438,17.4707972 88.7605375,17.4707972 L89.3015728,17.4707972 L86.5835148,21.0197307 C86.450403,21.1957817 86.328026,21.3610982 86.2163838,21.5156797 C86.1047415,21.6702612 86.0038342,21.8226958 85.9136617,21.9729833 C86.1670036,21.7110534 86.4675787,21.5060183 86.8153871,21.3578777 C87.1631954,21.2097371 87.5432083,21.1356668 87.9554256,21.1356668 Z M85.3855082,23.8344021 C85.3855082,24.1736237 85.4381089,24.4870806 85.5433102,24.7747729 C85.6485115,25.0624662 85.7977255,25.3104407 85.9909524,25.5186963 C86.1841793,25.7269523 86.4203454,25.8890482 86.6994509,26.0049839 C86.9785565,26.1209201 87.2920133,26.1788881 87.6398217,26.1788881 C88.0090996,26.1788881 88.3418793,26.1209201 88.6381605,26.0049839 C88.9344417,25.8890474 89.1867103,25.7290985 89.3949658,25.5251372 C89.6032212,25.3211749 89.7631704,25.0785678 89.8748125,24.797316 C89.9864545,24.5160636 90.0422758,24.2101211 90.0422758,23.8794884 C90.0422758,23.5316771 89.9875282,23.2171466 89.8780329,22.9358972 C89.7685377,22.6546446 89.6139562,22.4163315 89.4142884,22.2209578 C89.2146207,22.025584 88.9773812,21.8752962 88.7025695,21.7700951 C88.4277578,21.6648939 88.1228889,21.6122931 87.7879623,21.6122931 C87.4100963,21.6122931 87.0719495,21.6777757 86.7735212,21.8087404 C86.475093,21.9397142 86.2228247,22.1093243 86.016716,22.3175712 C85.8106073,22.5258345 85.6538788,22.7630741 85.5465306,23.0292902 C85.4391823,23.2955139 85.3855082,23.5638845 85.3855082,23.8344021 Z" id="16" fill="#01B6F5"></path>
                        <g id="Day-31----" transform="translate(20.241822, 32.514919)">
                            <mask id="mask-2" fill="white">
                                <use xlink:href="#path-1"></use>
                            </mask>
                            <use id="Oval-2" fill="#01B6F5" xlink:href="#path-1"></use>
                            <g id="BG" mask="url(#mask-2)" fill="#FFFFFF" fill-opacity="0">
                                <g transform="translate(-1.252396, -1.073482)" id="box">
                                    <rect x="0" y="0" width="7.61958331" height="7.61674663"></rect>
                                </g>
                            </g>
                        </g>
                        <path d="M6.44089457,14.2396166 C5.94683792,14.2396166 5.54632588,13.8391046 5.54632588,13.3450479 C5.54632588,12.8509913 5.94683792,12.4504792 6.44089457,12.4504792 L9.12460064,12.4504792 C9.61865728,12.4504792 10.0191693,12.8509913 10.0191693,13.3450479 C10.0191693,13.8391046 9.61865728,14.2396166 9.12460064,14.2396166 L6.44089457,14.2396166 Z M14.1341853,14.2396166 C13.6401287,14.2396166 13.2396166,13.8391046 13.2396166,13.3450479 C13.2396166,12.8509913 13.6401287,12.4504792 14.1341853,12.4504792 L16.8178914,12.4504792 C17.311948,12.4504792 17.7124601,12.8509913 17.7124601,13.3450479 C17.7124601,13.8391046 17.311948,14.2396166 16.8178914,14.2396166 L14.1341853,14.2396166 Z M21.827476,14.2396166 C21.3334194,14.2396166 20.9329073,13.8391046 20.9329073,13.3450479 C20.9329073,12.8509913 21.3334194,12.4504792 21.827476,12.4504792 L24.5111821,12.4504792 C25.0052388,12.4504792 25.4057508,12.8509913 25.4057508,13.3450479 C25.4057508,13.8391046 25.0052388,14.2396166 24.5111821,14.2396166 L21.827476,14.2396166 Z M29.5207668,14.2396166 C29.0267101,14.2396166 28.6261981,13.8391046 28.6261981,13.3450479 C28.6261981,12.8509913 29.0267101,12.4504792 29.5207668,12.4504792 L32.2044728,12.4504792 C32.6985295,12.4504792 33.0990415,12.8509913 33.0990415,13.3450479 C33.0990415,13.8391046 32.6985295,14.2396166 32.2044728,14.2396166 L29.5207668,14.2396166 Z M37.2140575,14.2396166 C36.7200009,14.2396166 36.3194888,13.8391046 36.3194888,13.3450479 C36.3194888,12.8509913 36.7200009,12.4504792 37.2140575,12.4504792 L39.8977636,12.4504792 C40.3918202,12.4504792 40.7923323,12.8509913 40.7923323,13.3450479 C40.7923323,13.8391046 40.3918202,14.2396166 39.8977636,14.2396166 L37.2140575,14.2396166 Z M44.9073482,14.2396166 C44.4132916,14.2396166 44.0127796,13.8391046 44.0127796,13.3450479 C44.0127796,12.8509913 44.4132916,12.4504792 44.9073482,12.4504792 L47.5910543,12.4504792 C48.085111,12.4504792 48.485623,12.8509913 48.485623,13.3450479 C48.485623,13.8391046 48.085111,14.2396166 47.5910543,14.2396166 L44.9073482,14.2396166 Z M52.600639,14.2396166 C52.1065823,14.2396166 51.7060703,13.8391046 51.7060703,13.3450479 C51.7060703,12.8509913 52.1065823,12.4504792 52.600639,12.4504792 L55.284345,12.4504792 C55.7784017,12.4504792 56.1789137,12.8509913 56.1789137,13.3450479 C56.1789137,13.8391046 55.7784017,14.2396166 55.284345,14.2396166 L52.600639,14.2396166 Z" id="Line-12" fill="#E3E5ED" fill-rule="nonzero"></path>
                        <path d="M21.6485623,8.514377 C21.0556943,8.514377 20.5750799,8.03376254 20.5750799,7.44089457 C20.5750799,6.84802659 21.0556943,6.36741214 21.6485623,6.36741214 L39.5399361,6.36741214 C40.1328041,6.36741214 40.6134185,6.84802659 40.6134185,7.44089457 C40.6134185,8.03376254 40.1328041,8.514377 39.5399361,8.514377 L21.6485623,8.514377 Z" id="Line-12-Copy-2" fill="#01B6F5" fill-rule="nonzero"></path>
                        <path d="M77.2907348,32.3099042 C76.6978669,32.3099042 76.2172524,31.8292897 76.2172524,31.2364217 C76.2172524,30.6435538 76.6978669,30.1629393 77.2907348,30.1629393 L91.7827476,30.1629393 C92.3756156,30.1629393 92.85623,30.6435538 92.85623,31.2364217 C92.85623,31.8292897 92.3756156,32.3099042 91.7827476,32.3099042 L77.2907348,32.3099042 Z" id="Line-12-Copy-2" fill="#01B6F5" fill-rule="nonzero"></path>
                        <path d="M100,9 C98.8954305,9 98,8.1045695 98,7 C98,5.8954305 98.8954305,5 100,5 L101.4,5 C102.504569,5 103.4,5.8954305 103.4,7 C103.4,8.1045695 102.504569,9 101.4,9 L100,9 Z" id="Line-12-Copy-2" fill="#E3E5ED" fill-rule="nonzero" opacity="0.703148251"></path>
                        <path d="M78.9529012,51.2747604 C78.62778,51.2747604 78.3642173,50.994402 78.3642173,50.6485623 C78.3642173,50.3027226 78.62778,50.0223642 78.9529012,50.0223642 L85.4688241,50.0223642 C85.7939452,50.0223642 86.057508,50.3027226 86.057508,50.6485623 C86.057508,50.994402 85.7939452,51.2747604 85.4688241,51.2747604 L78.9529012,51.2747604 Z" id="Line-12-Copy-3" fill="#A4A7B5" fill-rule="nonzero"></path>
                        <circle id="Oval" fill="#F4F6F9" fill-rule="nonzero" cx="7.69329073" cy="20.3226837" r="1.07348243"></circle>
                        <circle id="Oval-Copy-9" fill="#576574" fill-rule="nonzero" cx="15.3865815" cy="20.3226837" r="1.07348243"></circle>
                        <circle id="Oval-Copy-10" fill="#576574" fill-rule="nonzero" cx="22.9009585" cy="20.3226837" r="1.07348243"></circle>
                        <circle id="Oval-Copy-11" fill="#576574" fill-rule="nonzero" cx="30.4153355" cy="20.3226837" r="1.07348243"></circle>
                        <circle id="Oval-Copy-12" fill="#576574" fill-rule="nonzero" cx="37.9297125" cy="20.3226837" r="1.07348243"></circle>
                        <circle id="Oval-Copy-13" fill="#576574" fill-rule="nonzero" cx="45.4440895" cy="20.3226837" r="1.07348243"></circle>
                        <circle id="Oval-Copy-14" fill="#576574" fill-rule="nonzero" cx="52.9584665" cy="20.3226837" r="1.07348243"></circle>
                        <circle id="Oval-Copy-15" fill="#576574" fill-rule="nonzero" cx="52.9584665" cy="27.8370607" r="1.07348243"></circle>
                        <circle id="Oval-Copy-16" fill="#576574" fill-rule="nonzero" cx="45.4440895" cy="27.8370607" r="1.07348243"></circle>
                        <circle id="Oval-Copy-22" fill="#576574" fill-rule="nonzero" cx="45.4440895" cy="35.172524" r="1.07348243"></circle>
                        <circle id="Oval-Copy-29" fill="#576574" fill-rule="nonzero" cx="45.4440895" cy="42.8658147" r="1.07348243"></circle>
                        <circle id="Oval-Copy-41" fill="#576574" fill-rule="nonzero" cx="52.9584665" cy="42.8658147" r="1.07348243"></circle>
                        <circle id="Oval-Copy-42" fill="#F4F6F9" fill-rule="nonzero" cx="52.9584665" cy="50.201278" r="1.07348243"></circle>
                        <circle id="Oval-Copy-40" fill="#F4F6F9" fill-rule="nonzero" cx="45.4440895" cy="50.0223642" r="1.07348243"></circle>
                        <circle id="Oval-Copy-28" fill="#576574" fill-rule="nonzero" cx="52.9584665" cy="35.172524" r="1.07348243"></circle>
                        <circle id="Oval-Copy-17" fill="#576574" fill-rule="nonzero" cx="37.9297125" cy="27.8370607" r="1.07348243"></circle>
                        <circle id="Oval-Copy-23" fill="#576574" fill-rule="nonzero" cx="37.9297125" cy="35.172524" r="1.07348243"></circle>
                        <circle id="Oval-Copy-30" fill="#576574" fill-rule="nonzero" cx="37.9297125" cy="42.8658147" r="1.07348243"></circle>
                        <circle id="Oval-Copy-35" fill="#F4F6F9" fill-rule="nonzero" cx="37.9297125" cy="50.0223642" r="1.07348243"></circle>
                        <circle id="Oval-Copy-18" fill="#576574" fill-rule="nonzero" cx="30.7731629" cy="27.8370607" r="1.07348243"></circle>
                        <circle id="Oval-Copy-24" fill="#576574" fill-rule="nonzero" cx="30.7731629" cy="35.172524" r="1.07348243"></circle>
                        <circle id="Oval-Copy-31" fill="#576574" fill-rule="nonzero" cx="30.7731629" cy="42.8658147" r="1.07348243"></circle>
                        <circle id="Oval-Copy-36" fill="#576574" fill-rule="nonzero" cx="30.7731629" cy="50.0223642" r="1.07348243"></circle>
                        <circle id="Oval-Copy-19" fill="#576574" fill-rule="nonzero" cx="22.9009585" cy="27.8370607" r="1.07348243"></circle>
                        <circle id="Oval-Copy-25" fill="#FFFFFF" fill-rule="nonzero" cx="22.6734824" cy="34.9734824" r="1.07348243"></circle>
                        <circle id="Oval-Copy-32" fill="#576574" fill-rule="nonzero" cx="22.9009585" cy="42.8658147" r="1.07348243"></circle>
                        <circle id="Oval-Copy-37" fill="#576574" fill-rule="nonzero" cx="22.9009585" cy="50.0223642" r="1.07348243"></circle>
                        <circle id="Oval-Copy-20" fill="#576574" fill-rule="nonzero" cx="15.3865815" cy="27.8370607" r="1.07348243"></circle>
                        <circle id="Oval-Copy-26" fill="#576574" fill-rule="nonzero" cx="15.3865815" cy="35.172524" r="1.07348243"></circle>
                        <circle id="Oval-Copy-33" fill="#576574" fill-rule="nonzero" cx="15.3865815" cy="42.8658147" r="1.07348243"></circle>
                        <circle id="Oval-Copy-38" fill="#576574" fill-rule="nonzero" cx="15.3865815" cy="50.0223642" r="1.07348243"></circle>
                        <circle id="Oval-Copy-21" fill="#576574" fill-rule="nonzero" cx="7.87220447" cy="27.8370607" r="1.07348243"></circle>
                        <circle id="Oval-Copy-27" fill="#576574" fill-rule="nonzero" cx="7.87220447" cy="35.172524" r="1.07348243"></circle>
                        <circle id="Oval-Copy-34" fill="#576574" fill-rule="nonzero" cx="7.87220447" cy="42.8658147" r="1.07348243"></circle>
                        <circle id="Oval-Copy-39" fill="#576574" fill-rule="nonzero" cx="7.87220447" cy="50.0223642" r="1.07348243"></circle>
                    </g>
                </g>
                <polygon id="Line-16" fill="#E3E5ED" fill-rule="nonzero" points="82.0267572 19.375 82.2767572 19.375 82.2767572 68.625 82.0267572 68.625"></polygon>
            </g>
        </g>
    </g>
</svg>