<?xml version="1.0" encoding="UTF-8"?>
<svg width="145px" height="87px" viewBox="0 0 145 87" version="1.1" xmlns="http://www.w3.org/2000/svg" xmlns:xlink="http://www.w3.org/1999/xlink">
    <!-- Generator: Sketch 58 (84663) - https://sketch.com -->
    <title>DateTimePicker</title>
    <desc>Created with Sketch.</desc>
    <defs>
        <ellipse id="path-1" cx="2.47772015" cy="2.46979264" rx="2.47772015" ry="2.46979264"></ellipse>
    </defs>
    <g id="pages" stroke="none" stroke-width="1" fill="none" fill-rule="evenodd">
        <g id="DateTimePicker">
            <path d="M4,0 L141,0 C143.209139,0 145,1.790861 145,4 L145,83 C145,85.209139 143.209139,87 141,87 L4,87 C1.790861,87 0,85.209139 0,83 L0,4 C0,1.790861 1.790861,0 4,0 Z" id="Rectangle" fill="#E3E5ED" fill-rule="nonzero"></path>
            <g id="Group-116" transform="translate(13.000000, 15.000000)">
                <g id="Group-112">
                    <g id="z-embedded-/-List-Box" transform="translate(0.000000, 0.500000)" fill="#FFFFFF" fill-rule="nonzero">
                        <path d="M0,8.13642198 C0,3.6428002 3.58809249,0 8.02171215,0 L61,0 L61,57 L8.02171215,57 C3.59144286,57 0,53.3476838 0,48.863578 L0,8.13642198 Z" id="overflow-bkgd"></path>
                    </g>
                    <path d="M4.51596395,8.26577695 L3.60321866,7.35303165 C3.54013185,7.28994484 3.54013185,7.18793213 3.60321866,7.12551646 L3.75489545,6.97383967 C3.81798226,6.91075286 3.91999497,6.91075286 3.98241064,6.97383967 L4.62938598,7.62081501 L5.27636132,6.97383967 C5.33944813,6.91075286 5.44146084,6.91075286 5.50387651,6.97383967 L5.6555533,7.12551646 C5.71864011,7.18860327 5.71864011,7.29061598 5.6555533,7.35303165 L4.74280801,8.26577695 C4.68106347,8.32886375 4.57905076,8.32886375 4.51596395,8.26577695 L4.51596395,8.26577695 Z" id="Shape-Copy" fill="#01B6F5" fill-rule="nonzero" transform="translate(4.629386, 7.619808) scale(1, -1) rotate(-270.000000) translate(-4.629386, -7.619808) "></path>
                    <path d="M55.685293,8.26577695 L54.7725477,7.35303165 C54.7094609,7.28994484 54.7094609,7.18793213 54.7725477,7.12551646 L54.9242245,6.97383967 C54.9873113,6.91075286 55.089324,6.91075286 55.1517397,6.97383967 L55.7987151,7.62081501 L56.4456904,6.97383967 C56.5087772,6.91075286 56.6107899,6.91075286 56.6732056,6.97383967 L56.8248824,7.12551646 C56.8879692,7.18860327 56.8879692,7.29061598 56.8248824,7.35303165 L55.9121371,8.26577695 C55.8503925,8.32886375 55.7483798,8.32886375 55.685293,8.26577695 L55.685293,8.26577695 Z" id="Shape-Copy" fill="#01B6F5" fill-rule="nonzero" transform="translate(55.798715, 7.619808) rotate(-90.000000) translate(-55.798715, -7.619808) "></path>
                    <path d="M61.6517572,2 L61.6517572,56 L99.1693291,56 C103.035322,56 106.169329,52.8659932 106.169329,49 L106.169329,9 C106.169329,5.13400675 103.035322,2 99.1693291,2 L61.6517572,2 Z M60.6517572,1 L99.1693291,1 C103.587607,1 107.169329,4.581722 107.169329,9 L107.169329,49 C107.169329,53.418278 103.587607,57 99.1693291,57 L60.6517572,57 L60.6517572,1 Z" id="Rectangle-23" fill="#44BDFB" fill-rule="nonzero"></path>
                    <path d="M109.169329,0.5 C113.863749,0.5 117.669329,4.30557963 117.669329,9 L117.669329,49 C117.669329,53.6944204 113.863749,57.5 109.169329,57.5 L60.1517572,57.5 L60.1517572,0.5 L109.169329,0.5 Z" id="Rectangle-23" fill="#FFFFFF" fill-rule="nonzero"></path>
                    <g id="Day-31----" transform="translate(20.241822, 32.514919)">
                        <mask id="mask-2" fill="white">
                            <use xlink:href="#path-1"></use>
                        </mask>
                        <use id="Oval-2" fill="#01B6F5" xlink:href="#path-1"></use>
                        <g id="BG" mask="url(#mask-2)" fill="#FFFFFF" fill-opacity="0">
                            <g transform="translate(-1.252396, -1.073482)" id="box">
                                <rect x="0" y="0" width="7.61958331" height="7.61674663"></rect>
                            </g>
                        </g>
                    </g>
                    <path d="M6.44089457,14.2396166 C5.94683792,14.2396166 5.54632588,13.8391046 5.54632588,13.3450479 C5.54632588,12.8509913 5.94683792,12.4504792 6.44089457,12.4504792 L9.12460064,12.4504792 C9.61865728,12.4504792 10.0191693,12.8509913 10.0191693,13.3450479 C10.0191693,13.8391046 9.61865728,14.2396166 9.12460064,14.2396166 L6.44089457,14.2396166 Z M14.1341853,14.2396166 C13.6401287,14.2396166 13.2396166,13.8391046 13.2396166,13.3450479 C13.2396166,12.8509913 13.6401287,12.4504792 14.1341853,12.4504792 L16.8178914,12.4504792 C17.311948,12.4504792 17.7124601,12.8509913 17.7124601,13.3450479 C17.7124601,13.8391046 17.311948,14.2396166 16.8178914,14.2396166 L14.1341853,14.2396166 Z M21.827476,14.2396166 C21.3334194,14.2396166 20.9329073,13.8391046 20.9329073,13.3450479 C20.9329073,12.8509913 21.3334194,12.4504792 21.827476,12.4504792 L24.5111821,12.4504792 C25.0052388,12.4504792 25.4057508,12.8509913 25.4057508,13.3450479 C25.4057508,13.8391046 25.0052388,14.2396166 24.5111821,14.2396166 L21.827476,14.2396166 Z M29.5207668,14.2396166 C29.0267101,14.2396166 28.6261981,13.8391046 28.6261981,13.3450479 C28.6261981,12.8509913 29.0267101,12.4504792 29.5207668,12.4504792 L32.2044728,12.4504792 C32.6985295,12.4504792 33.0990415,12.8509913 33.0990415,13.3450479 C33.0990415,13.8391046 32.6985295,14.2396166 32.2044728,14.2396166 L29.5207668,14.2396166 Z M37.2140575,14.2396166 C36.7200009,14.2396166 36.3194888,13.8391046 36.3194888,13.3450479 C36.3194888,12.8509913 36.7200009,12.4504792 37.2140575,12.4504792 L39.8977636,12.4504792 C40.3918202,12.4504792 40.7923323,12.8509913 40.7923323,13.3450479 C40.7923323,13.8391046 40.3918202,14.2396166 39.8977636,14.2396166 L37.2140575,14.2396166 Z M44.9073482,14.2396166 C44.4132916,14.2396166 44.0127796,13.8391046 44.0127796,13.3450479 C44.0127796,12.8509913 44.4132916,12.4504792 44.9073482,12.4504792 L47.5910543,12.4504792 C48.085111,12.4504792 48.485623,12.8509913 48.485623,13.3450479 C48.485623,13.8391046 48.085111,14.2396166 47.5910543,14.2396166 L44.9073482,14.2396166 Z M52.600639,14.2396166 C52.1065823,14.2396166 51.7060703,13.8391046 51.7060703,13.3450479 C51.7060703,12.8509913 52.1065823,12.4504792 52.600639,12.4504792 L55.284345,12.4504792 C55.7784017,12.4504792 56.1789137,12.8509913 56.1789137,13.3450479 C56.1789137,13.8391046 55.7784017,14.2396166 55.284345,14.2396166 L52.600639,14.2396166 Z" id="Line-12" fill="#E3E5ED" fill-rule="nonzero"></path>
                    <path d="M21.6485623,8.514377 C21.0556943,8.514377 20.5750799,8.03376254 20.5750799,7.44089457 C20.5750799,6.84802659 21.0556943,6.36741214 21.6485623,6.36741214 L39.5399361,6.36741214 C40.1328041,6.36741214 40.6134185,6.84802659 40.6134185,7.44089457 C40.6134185,8.03376254 40.1328041,8.514377 39.5399361,8.514377 L21.6485623,8.514377 Z" id="Line-12-Copy-2" fill="#01B6F5" fill-rule="nonzero"></path>
                    <path d="M109,9 C107.895431,9 107,8.1045695 107,7 C107,5.8954305 107.895431,5 109,5 L110.4,5 C111.504569,5 112.4,5.8954305 112.4,7 C112.4,8.1045695 111.504569,9 110.4,9 L109,9 Z" id="Line-12-Copy-2" fill="#E3E5ED" fill-rule="nonzero" opacity="0.703148251"></path>
                    <circle id="Oval" fill="#F4F6F9" fill-rule="nonzero" cx="7.69329073" cy="20.3226837" r="1.07348243"></circle>
                    <circle id="Oval-Copy-9" fill="#576574" fill-rule="nonzero" cx="15.3865815" cy="20.3226837" r="1.07348243"></circle>
                    <circle id="Oval-Copy-10" fill="#576574" fill-rule="nonzero" cx="22.9009585" cy="20.3226837" r="1.07348243"></circle>
                    <circle id="Oval-Copy-11" fill="#576574" fill-rule="nonzero" cx="30.4153355" cy="20.3226837" r="1.07348243"></circle>
                    <circle id="Oval-Copy-12" fill="#576574" fill-rule="nonzero" cx="37.9297125" cy="20.3226837" r="1.07348243"></circle>
                    <circle id="Oval-Copy-13" fill="#576574" fill-rule="nonzero" cx="45.4440895" cy="20.3226837" r="1.07348243"></circle>
                    <circle id="Oval-Copy-14" fill="#576574" fill-rule="nonzero" cx="52.9584665" cy="20.3226837" r="1.07348243"></circle>
                    <circle id="Oval-Copy-15" fill="#576574" fill-rule="nonzero" cx="52.9584665" cy="27.8370607" r="1.07348243"></circle>
                    <circle id="Oval-Copy-16" fill="#576574" fill-rule="nonzero" cx="45.4440895" cy="27.8370607" r="1.07348243"></circle>
                    <circle id="Oval-Copy-22" fill="#576574" fill-rule="nonzero" cx="45.4440895" cy="35.172524" r="1.07348243"></circle>
                    <circle id="Oval-Copy-29" fill="#576574" fill-rule="nonzero" cx="45.4440895" cy="42.8658147" r="1.07348243"></circle>
                    <circle id="Oval-Copy-41" fill="#576574" fill-rule="nonzero" cx="52.9584665" cy="42.8658147" r="1.07348243"></circle>
                    <circle id="Oval-Copy-42" fill="#F4F6F9" fill-rule="nonzero" cx="52.9584665" cy="50.201278" r="1.07348243"></circle>
                    <circle id="Oval-Copy-40" fill="#F4F6F9" fill-rule="nonzero" cx="45.4440895" cy="50.0223642" r="1.07348243"></circle>
                    <circle id="Oval-Copy-28" fill="#576574" fill-rule="nonzero" cx="52.9584665" cy="35.172524" r="1.07348243"></circle>
                    <circle id="Oval-Copy-17" fill="#576574" fill-rule="nonzero" cx="37.9297125" cy="27.8370607" r="1.07348243"></circle>
                    <circle id="Oval-Copy-23" fill="#576574" fill-rule="nonzero" cx="37.9297125" cy="35.172524" r="1.07348243"></circle>
                    <circle id="Oval-Copy-30" fill="#576574" fill-rule="nonzero" cx="37.9297125" cy="42.8658147" r="1.07348243"></circle>
                    <circle id="Oval-Copy-35" fill="#F4F6F9" fill-rule="nonzero" cx="37.9297125" cy="50.0223642" r="1.07348243"></circle>
                    <circle id="Oval-Copy-18" fill="#576574" fill-rule="nonzero" cx="30.7731629" cy="27.8370607" r="1.07348243"></circle>
                    <circle id="Oval-Copy-24" fill="#576574" fill-rule="nonzero" cx="30.7731629" cy="35.172524" r="1.07348243"></circle>
                    <circle id="Oval-Copy-31" fill="#576574" fill-rule="nonzero" cx="30.7731629" cy="42.8658147" r="1.07348243"></circle>
                    <circle id="Oval-Copy-36" fill="#576574" fill-rule="nonzero" cx="30.7731629" cy="50.0223642" r="1.07348243"></circle>
                    <circle id="Oval-Copy-19" fill="#576574" fill-rule="nonzero" cx="22.9009585" cy="27.8370607" r="1.07348243"></circle>
                    <circle id="Oval-Copy-25" fill="#FFFFFF" fill-rule="nonzero" cx="22.6734824" cy="34.9734824" r="1.07348243"></circle>
                    <circle id="Oval-Copy-32" fill="#576574" fill-rule="nonzero" cx="22.9009585" cy="42.8658147" r="1.07348243"></circle>
                    <circle id="Oval-Copy-37" fill="#576574" fill-rule="nonzero" cx="22.9009585" cy="50.0223642" r="1.07348243"></circle>
                    <circle id="Oval-Copy-20" fill="#576574" fill-rule="nonzero" cx="15.3865815" cy="27.8370607" r="1.07348243"></circle>
                    <circle id="Oval-Copy-26" fill="#576574" fill-rule="nonzero" cx="15.3865815" cy="35.172524" r="1.07348243"></circle>
                    <circle id="Oval-Copy-33" fill="#576574" fill-rule="nonzero" cx="15.3865815" cy="42.8658147" r="1.07348243"></circle>
                    <circle id="Oval-Copy-38" fill="#576574" fill-rule="nonzero" cx="15.3865815" cy="50.0223642" r="1.07348243"></circle>
                    <circle id="Oval-Copy-21" fill="#576574" fill-rule="nonzero" cx="7.87220447" cy="27.8370607" r="1.07348243"></circle>
                    <circle id="Oval-Copy-27" fill="#576574" fill-rule="nonzero" cx="7.87220447" cy="35.172524" r="1.07348243"></circle>
                    <circle id="Oval-Copy-34" fill="#576574" fill-rule="nonzero" cx="7.87220447" cy="42.8658147" r="1.07348243"></circle>
                    <circle id="Oval-Copy-39" fill="#576574" fill-rule="nonzero" cx="7.87220447" cy="50.0223642" r="1.07348243"></circle>
                </g>
            </g>
            <polygon id="Line-16" fill="#E3E5ED" fill-rule="nonzero" points="76.0267572 19.375 76.2767572 19.375 76.2767572 68.625 76.0267572 68.625"></polygon>
            <g id="Group-125" transform="translate(80.000000, 38.000000)">
                <g id="Group-122" transform="translate(0.062378, 0.124756)">
                    <path d="M0.991609458,0 L45.1182304,0 C45.6658811,0 46.1098398,0.443958677 46.1098398,0.991609458 L46.1098398,11.8993135 C46.1098398,12.4469643 45.6658811,12.890923 45.1182304,12.890923 L0.991609458,12.890923 C0.443958677,12.890923 0,12.4469643 0,11.8993135 L0,0.991609458 C0,0.443958677 0.443958677,0 0.991609458,0 Z" fill="#F4F6F9" fill-rule="nonzero"></path>
                    <path d="M1.48741419,0.495804729 L10.907704,0.495804729 C11.4553548,0.495804729 11.8993135,0.939763406 11.8993135,1.48741419 L11.8993135,11.4035088 C11.8993135,11.9511596 11.4553548,12.3951182 10.907704,12.3951182 L1.48741419,12.3951182 C0.939763406,12.3951182 0.495804729,11.9511596 0.495804729,11.4035088 L0.495804729,1.48741419 C0.495804729,0.939763406 0.939763406,0.495804729 1.48741419,0.495804729 Z" fill="#01B6F5" fill-rule="nonzero"></path>
                    <path d="M2.77219514,8.49852419 L3.83451066,8.49852419 L3.83451066,5.12877657 C3.83451066,5.02760316 3.8379597,4.92528158 3.84485789,4.82180878 L2.96189434,5.5771565 C2.93890038,5.59555167 2.91590677,5.608773 2.89291281,5.61682088 C2.86991885,5.62486877 2.84807492,5.62889265 2.82738036,5.62889265 C2.79288942,5.62889265 2.76184805,5.62141972 2.7342553,5.60647365 C2.70666255,5.59152758 2.6859683,5.57370753 2.67217192,5.55301297 L2.47902365,5.28743409 L3.94833018,4.0147249 L4.44844626,4.0147249 L4.44844626,8.49852419 L5.4210858,8.49852419 L5.4210858,8.96759858 L2.77219514,8.96759858 L2.77219514,8.49852419 Z M9.7927901,6.49805989 C9.7927901,6.9303463 9.74622804,7.30456734 9.65310251,7.62073426 C9.55997698,7.93690117 9.43293727,8.19845351 9.27197957,8.40539913 C9.11102187,8.61234475 8.92074972,8.76640195 8.70115743,8.86757537 C8.48156514,8.96874878 8.24645545,9.01933473 7.99582131,9.01933473 C7.74288778,9.01933473 7.50777809,8.96874878 7.29048519,8.86757537 C7.07319229,8.76640195 6.88406983,8.61234475 6.72311213,8.40539913 C6.56215443,8.19845351 6.43568956,7.93690117 6.34371373,7.62073426 C6.2517379,7.30456734 6.20575067,6.9303463 6.20575067,6.49805989 C6.20575067,6.06577349 6.2517379,5.69097761 6.34371373,5.373661 C6.43568956,5.05634438 6.56215443,4.79364236 6.72311213,4.58554704 C6.88406983,4.37745173 7.07319229,4.22281968 7.29048519,4.12164627 C7.50777809,4.02047286 7.74288778,3.96988691 7.99582131,3.96988691 C8.24645545,3.96988691 8.48156514,4.02047286 8.70115743,4.12164627 C8.92074972,4.22281968 9.11102187,4.37745173 9.27197957,4.58554704 C9.43293727,4.79364236 9.55997698,5.05634438 9.65310251,5.373661 C9.74622804,5.69097761 9.7927901,6.06577349 9.7927901,6.49805989 Z M9.15471097,6.49805989 C9.15471097,6.12095899 9.12309476,5.80422198 9.05986137,5.54783935 C8.99662799,5.29145673 8.91155162,5.08508905 8.80462972,4.92873014 C8.69770782,4.77237123 8.57411715,4.66027737 8.43385401,4.5924452 C8.29359087,4.52461302 8.14758143,4.49069744 7.99582131,4.49069744 C7.84406119,4.49069744 7.69805175,4.52461302 7.55778861,4.5924452 C7.41752547,4.66027737 7.29450964,4.77237123 7.18873744,4.92873014 C7.08296523,5.08508905 6.99846371,5.29145673 6.93523033,5.54783935 C6.87199694,5.80422198 6.84038072,6.12095899 6.84038072,6.49805989 C6.84038072,6.8751608 6.87199694,7.19132297 6.93523033,7.4465559 C6.99846371,7.70178883 7.08296523,7.90758166 7.18873744,8.06394057 C7.29450964,8.22029948 7.41752547,8.33239334 7.55778861,8.40022552 C7.69805175,8.46805769 7.84406119,8.50197327 7.99582131,8.50197327 C8.14758143,8.50197327 8.29359087,8.46805769 8.43385401,8.40022552 C8.57411715,8.33239334 8.69770782,8.22029948 8.80462972,8.06394057 C8.91155162,7.90758166 8.99662799,7.70178883 9.05986137,7.4465559 C9.12309476,7.19132297 9.15471097,6.8751608 9.15471097,6.49805989 Z" id="10" fill="#FFFFFF"></path>
                    <path d="M13.1961662,8.37263291 C13.1961662,8.31284862 13.2088836,8.25651427 13.2343188,8.20362816 C13.259754,8.15074206 13.2945596,8.10475484 13.3387365,8.06566511 C13.3829134,8.02657538 13.4357911,7.995534 13.497371,7.97254005 C13.558951,7.94954609 13.6245461,7.93804928 13.6941582,7.93804928 C13.7637703,7.93804928 13.8293654,7.94954609 13.8909453,7.97254005 C13.9525253,7.995534 14.0060723,8.02657538 14.0515879,8.06566511 C14.0971035,8.10475484 14.1325784,8.15074206 14.1580136,8.20362816 C14.1834488,8.25651427 14.1961662,8.31284862 14.1961662,8.37263291 C14.1961662,8.43471659 14.1834488,8.49162578 14.1580136,8.54336219 C14.1325784,8.59509859 14.0971035,8.64051098 14.0515879,8.6796007 C14.0060723,8.71869043 13.9525253,8.74915697 13.8909453,8.77100123 C13.8293654,8.79284549 13.7637703,8.80376745 13.6941582,8.80376745 C13.6245461,8.80376745 13.558951,8.79284549 13.497371,8.77100123 C13.4357911,8.74915697 13.3829134,8.71869043 13.3387365,8.6796007 C13.2945596,8.64051098 13.259754,8.59509859 13.2343188,8.54336219 C13.2088836,8.49162578 13.1961662,8.43471659 13.1961662,8.37263291 Z M13.1961662,5.78582562 C13.1961662,5.72604133 13.2088836,5.66970698 13.2343188,5.61682088 C13.259754,5.56393478 13.2945596,5.51794755 13.3387365,5.47885783 C13.3829134,5.4397681 13.4357911,5.40872672 13.497371,5.38573276 C13.558951,5.36273881 13.6245461,5.351242 13.6941582,5.351242 C13.7637703,5.351242 13.8293654,5.36273881 13.8909453,5.38573276 C13.9525253,5.40872672 14.0060723,5.4397681 14.0515879,5.47885783 C14.0971035,5.51794755 14.1325784,5.56393478 14.1580136,5.61682088 C14.1834488,5.66970698 14.1961662,5.72604133 14.1961662,5.78582562 C14.1961662,5.84790931 14.1834488,5.9048185 14.1580136,5.9565549 C14.1325784,6.00829131 14.0971035,6.05370369 14.0515879,6.09279342 C14.0060723,6.13188315 13.9525253,6.16234968 13.8909453,6.18419394 C13.8293654,6.2060382 13.7637703,6.21696017 13.6941582,6.21696017 C13.6245461,6.21696017 13.558951,6.2060382 13.497371,6.18419394 C13.4357911,6.16234968 13.3829134,6.13188315 13.3387365,6.09279342 C13.2945596,6.05370369 13.259754,6.00829131 13.2343188,5.9565549 C13.2088836,5.9048185 13.1961662,5.84790931 13.1961662,5.78582562 Z" id=":" fill="#01B6F5"></path>
                    <path d="M18.5715518,3.96988691 C18.7807968,3.96988691 18.9762425,4.00092829 19.1578947,4.06301197 C19.339547,4.12509566 19.4964784,4.21534559 19.6286937,4.33376447 C19.7609089,4.45218335 19.864955,4.59646827 19.9408351,4.76662355 C20.0167151,4.93677884 20.0546546,5.12992518 20.0546546,5.34606838 C20.0546546,5.53002004 20.0270623,5.70017278 19.9718768,5.85653169 C19.9166913,6.0128906 19.841962,6.16292392 19.7476868,6.30663616 C19.6534116,6.45034839 19.5447668,6.58945975 19.4217491,6.7239744 C19.2987314,6.85848905 19.1682427,6.99587588 19.0302789,7.13613902 L17.7299771,8.46748251 C17.8219529,8.44218915 17.9150771,8.42206974 18.0093523,8.40712367 C18.1036275,8.3921776 18.1944523,8.38470467 18.2818293,8.38470467 L19.937386,8.38470467 C20.0040685,8.38470467 20.0569538,8.40424924 20.0960435,8.44333897 C20.1351332,8.4824287 20.1546778,8.53301465 20.1546778,8.59509833 L20.1546778,8.96759858 L16.8573608,8.96759858 L16.8573608,8.75720492 C16.8573608,8.7135164 16.8659834,8.66867886 16.8832289,8.62269094 C16.9004743,8.57670303 16.9286415,8.53416484 16.9677312,8.49507512 L18.5508573,6.90505091 C18.6819229,6.77168595 18.8014896,6.64349656 18.9095612,6.52047889 C19.0176328,6.39746122 19.1101821,6.27387055 19.1872119,6.14970318 C19.2642416,6.02553581 19.3234502,5.89964578 19.3648393,5.77202932 C19.4062284,5.64441285 19.4269227,5.5081757 19.4269227,5.36331377 C19.4269227,5.21845183 19.4039291,5.09141212 19.3579412,4.98219083 C19.3119533,4.87296953 19.2487208,4.7827196 19.168242,4.71143833 C19.0877631,4.64015706 18.9934893,4.58669691 18.8854177,4.55105628 C18.7773461,4.51541565 18.6612284,4.4975956 18.537061,4.4975956 C18.4128936,4.4975956 18.2979256,4.51599049 18.1921534,4.55278082 C18.0863811,4.58957115 17.9926822,4.64073194 17.9110536,4.70626472 C17.8294251,4.7717975 17.7604442,4.84940094 17.704109,4.93907737 C17.6477738,5.02875381 17.6081099,5.12762634 17.5851159,5.23569794 C17.5667207,5.30238042 17.5391284,5.350667 17.5023381,5.38055915 C17.4655477,5.41045129 17.4172612,5.42539714 17.3574769,5.42539714 C17.3459799,5.42539714 17.3339082,5.4248223 17.3212616,5.4236726 C17.3086149,5.42252291 17.2942439,5.42079838 17.2781481,5.41849899 L16.957384,5.36331377 C16.9895755,5.13797298 17.0516583,4.93850339 17.1436341,4.76489902 C17.23561,4.59129464 17.3523025,4.44586004 17.4937154,4.32859085 C17.6351282,4.21132167 17.7972332,4.12222142 17.9800352,4.06128743 C18.1628371,4.00035345 18.3600073,3.96988691 18.5715518,3.96988691 Z M24.5091367,6.49805989 C24.5091367,6.9303463 24.4625747,7.30456734 24.3694491,7.62073426 C24.2763236,7.93690117 24.1492839,8.19845351 23.9883262,8.40539913 C23.8273685,8.61234475 23.6370964,8.76640195 23.4175041,8.86757537 C23.1979118,8.96874878 22.9628021,9.01933473 22.7121679,9.01933473 C22.4592344,9.01933473 22.2241247,8.96874878 22.0068318,8.86757537 C21.7895389,8.76640195 21.6004165,8.61234475 21.4394588,8.40539913 C21.2785011,8.19845351 21.1520362,7.93690117 21.0600604,7.62073426 C20.9680845,7.30456734 20.9220973,6.9303463 20.9220973,6.49805989 C20.9220973,6.06577349 20.9680845,5.69097761 21.0600604,5.373661 C21.1520362,5.05634438 21.2785011,4.79364236 21.4394588,4.58554704 C21.6004165,4.37745173 21.7895389,4.22281968 22.0068318,4.12164627 C22.2241247,4.02047286 22.4592344,3.96988691 22.7121679,3.96988691 C22.9628021,3.96988691 23.1979118,4.02047286 23.4175041,4.12164627 C23.6370964,4.22281968 23.8273685,4.37745173 23.9883262,4.58554704 C24.1492839,4.79364236 24.2763236,5.05634438 24.3694491,5.373661 C24.4625747,5.69097761 24.5091367,6.06577349 24.5091367,6.49805989 Z M23.8710576,6.49805989 C23.8710576,6.12095899 23.8394414,5.80422198 23.776208,5.54783935 C23.7129746,5.29145673 23.6278983,5.08508905 23.5209764,4.92873014 C23.4140545,4.77237123 23.2904638,4.66027737 23.1502006,4.5924452 C23.0099375,4.52461302 22.8639281,4.49069744 22.7121679,4.49069744 C22.5604078,4.49069744 22.4143984,4.52461302 22.2741352,4.5924452 C22.1338721,4.66027737 22.0108563,4.77237123 21.9050841,4.92873014 C21.7993119,5.08508905 21.7148103,5.29145673 21.651577,5.54783935 C21.5883436,5.80422198 21.5567274,6.12095899 21.5567274,6.49805989 C21.5567274,6.8751608 21.5883436,7.19132297 21.651577,7.4465559 C21.7148103,7.70178883 21.7993119,7.90758166 21.9050841,8.06394057 C22.0108563,8.22029948 22.1338721,8.33239334 22.2741352,8.40022552 C22.4143984,8.46805769 22.5604078,8.50197327 22.7121679,8.50197327 C22.8639281,8.50197327 23.0099375,8.46805769 23.1502006,8.40022552 C23.2904638,8.33239334 23.4140545,8.22029948 23.5209764,8.06394057 C23.6278983,7.90758166 23.7129746,7.70178883 23.776208,7.4465559 C23.8394414,7.19132297 23.8710576,6.8751608 23.8710576,6.49805989 Z" id="20" fill="#01B6F5"></path>
                    <path d="M31.9159157,8.92448513 L31.3969296,8.92448513 C31.3369576,8.92448513 31.2885194,8.90949234 31.2516135,8.87950633 C31.2147077,8.84952032 31.1870287,8.81146172 31.1685757,8.76532939 L30.7049481,7.56820143 L28.4802277,7.56820143 L28.0166001,8.76532939 C28.0004538,8.80684848 27.9727748,8.84375379 27.9335623,8.87604642 C27.8943498,8.90833905 27.8459116,8.92448513 27.7882462,8.92448513 L27.2692601,8.92448513 L29.251787,3.96643783 L29.9333888,3.96643783 L31.9159157,8.92448513 Z M28.6670627,7.08381439 L30.5181131,7.08381439 L29.739634,5.06668838 C29.6888884,4.9421311 29.6392969,4.78643682 29.590858,4.59960089 C29.5654852,4.69417216 29.5406894,4.78124563 29.51647,4.86082389 C29.4922505,4.94040216 29.468608,5.01017626 29.4455419,5.07014829 L28.6670627,7.08381439 Z M34.9813937,7.1322531 C35.0136863,7.18761189 35.0419419,7.24585308 35.0661614,7.30697842 C35.0903809,7.36810376 35.1140234,7.42980482 35.1370895,7.49208347 C35.1601557,7.4274982 35.1843748,7.36579714 35.2097476,7.30697842 C35.2351204,7.2481597 35.2639526,7.18876522 35.2962453,7.12879319 L36.9743003,4.08061478 C37.0042864,4.0275626 37.0354252,3.99527045 37.0677178,3.98373737 C37.1000105,3.97220429 37.1461421,3.96643783 37.2061141,3.96643783 L37.7008809,3.96643783 L37.7008809,8.92448513 L37.1126966,8.92448513 L37.1126966,5.28120264 C37.1126966,5.2327637 37.1138499,5.1808656 37.1161565,5.12550681 C37.1184632,5.07014801 37.121923,5.01363676 37.1265363,4.95597135 L35.4277217,8.05604837 C35.3700563,8.15984611 35.289326,8.2117442 35.1855282,8.2117442 L35.0886508,8.2117442 C34.9848531,8.2117442 34.9041227,8.15984611 34.8464573,8.05604837 L33.1095838,4.94559163 C33.1165036,5.00556365 33.1216934,5.06438149 33.1251534,5.1220469 C33.1286133,5.17971231 33.1303432,5.2327637 33.1303432,5.28120264 L33.1303432,8.92448513 L32.542159,8.92448513 L32.542159,3.96643783 L33.0369257,3.96643783 C33.0968978,3.96643783 33.1430294,3.97220429 33.175322,3.98373737 C33.2076147,3.99527045 33.2387535,4.0275626 33.2687395,4.08061478 L34.9813937,7.1322531 Z" id="AM" fill="#01B6F5" fill-rule="nonzero"></path>
                    <path d="M43.1350114,3.4706331 C43.9564876,3.4706331 44.6224256,4.13657112 44.6224256,4.95804729 L44.6224256,7.93287567 C44.6224256,8.75435184 43.9564876,9.42028986 43.1350114,9.42028986 C42.3135353,9.42028986 41.6475973,8.75435184 41.6475973,7.93287567 L41.6475973,4.95804729 C41.6475973,4.13657112 42.3135353,3.4706331 43.1350114,3.4706331 Z" id="Rectangle" fill="#FFFFFF" transform="translate(43.135011, 6.445461) rotate(-540.000000) translate(-43.135011, -6.445461) "></path>
                    <path d="M44.573121,4.80116413 C45.4649598,4.80116413 46.194459,5.52688748 46.194459,6.41458285 C46.194459,7.30227822 45.4649598,8.02800157 44.573121,8.02800157 L41.7084522,8.02800157 C40.8166134,8.02800157 40.0871142,7.30227822 40.0871142,6.41458285 C40.0871142,5.52688748 40.8166134,4.80116413 41.7084522,4.80116413 L44.573121,4.80116413 Z M44.573121,4.98382903 L41.7084522,4.98382903 C40.9172849,4.98382903 40.2697791,5.62798333 40.2697791,6.41458285 C40.2697791,7.20118237 40.9172849,7.84533667 41.7084522,7.84533667 L44.573121,7.84533667 C45.3642883,7.84533667 46.0117941,7.20118237 46.0117941,6.41458285 C46.0117941,5.62798333 45.3642883,4.98382903 44.573121,4.98382903 Z" fill="#E3E5ED" fill-rule="nonzero" transform="translate(43.140787, 6.414583) rotate(-270.000000) translate(-43.140787, -6.414583) "></path>
                    <path d="M43.0546757,5.25880231 C42.8963128,5.25880231 42.7679343,5.12931436 42.7679343,4.96958289 C42.7679343,4.80985141 42.8963128,4.68036346 43.0546757,4.68036346 L43.2219415,4.68036346 C43.3803044,4.68036346 43.5086829,4.80985141 43.5086829,4.96958289 C43.5086829,5.12931436 43.3803044,5.25880231 43.2219415,5.25880231 L43.0546757,5.25880231 Z" fill="#01B6F5" fill-rule="nonzero" transform="translate(43.138309, 4.969583) rotate(-270.000000) translate(-43.138309, -4.969583) "></path>
                    <path d="M43.0546757,8.29107233 C42.8963128,8.29107233 42.7679343,8.16158439 42.7679343,8.00185291 C42.7679343,7.84212143 42.8963128,7.71263348 43.0546757,7.71263348 L43.2219415,7.71263348 C43.3803044,7.71263348 43.5086829,7.84212143 43.5086829,8.00185291 C43.5086829,8.16158439 43.3803044,8.29107233 43.2219415,8.29107233 L43.0546757,8.29107233 Z" fill="#01B6F5" fill-rule="nonzero" transform="translate(43.138309, 8.001853) rotate(-270.000000) translate(-43.138309, -8.001853) "></path>
                    <polygon fill="#E3E5ED" fill-rule="nonzero" points="41.577193 6.59891304 41.577193 6.40108696 44.601106 6.40108696 44.601106 6.59891304"></polygon>
                </g>
                <g id="Group-123" transform="translate(4.000000, 24.000000)">
                    <g id="Group-4" fill-rule="nonzero">
                        <path d="M13.6293474,0.157894737 C15.2057882,0.157894737 16.49528,1.44071212 16.49528,3.00981049 C16.49528,4.57890885 15.2057882,5.86172623 13.6293474,5.86172623 L2.88371735,5.86172623 C1.30727662,5.86172623 0.0177848467,4.57890885 0.0177848467,3.00981049 C0.0177848467,1.44071212 1.30727662,0.157894737 2.88371735,0.157894737 L13.6293474,0.157894737 Z M13.6293474,0.473684211 L2.88371735,0.473684211 C1.48131654,0.473684211 0.33357432,1.61548573 0.33357432,3.00981049 C0.33357432,4.40413524 1.48131654,5.54593676 2.88371735,5.54593676 L13.6293474,5.54593676 C15.0317483,5.54593676 16.1794905,4.40413524 16.1794905,3.00981049 C16.1794905,1.61548573 15.0317483,0.473684211 13.6293474,0.473684211 Z"></path>
                        <path d="M3.47455176,3.70229169 C3.19425687,3.70229169 2.96703297,3.43366254 2.96703297,3.10229169 C2.96703297,2.77092084 3.19425687,2.50229169 3.47455176,2.50229169 L12.804439,2.50229169 C13.0847339,2.50229169 13.3119578,2.77092084 13.3119578,3.10229169 C13.3119578,3.43366254 13.0847339,3.70229169 12.804439,3.70229169 L3.47455176,3.70229169 Z" id="Line-2" fill="#01B6F5"></path>
                    </g>
                    <g id="Group-5" transform="translate(21.898438, 0.315789)">
                        <path d="M14.2760531,-1.0658141e-14 L2.74707768,-1.0658141e-14 C1.2576569,-1.0658141e-14 0.0390399075,1.21230946 0.0390399075,2.69402101 C0.0390399075,4.17573257 1.2576569,5.38804202 2.74707768,5.38804202 L14.2760531,5.38804202 C15.7654739,5.38804202 16.9840909,4.17573257 16.9840909,2.69402101 C16.9840909,1.21230946 15.7654739,-1.0658141e-14 14.2760531,-1.0658141e-14 Z" fill="#01B6F5"></path>
                        <path d="M6.18189705,3.48650221 C5.90160216,3.48650221 5.67437825,3.1954873 5.67437825,2.83650221 C5.67437825,2.47751713 5.90160216,2.18650221 6.18189705,2.18650221 L10.6170474,2.18650221 C10.8973423,2.18650221 11.1245662,2.47751713 11.1245662,2.83650221 C11.1245662,3.1954873 10.8973423,3.48650221 10.6170474,3.48650221 L6.18189705,3.48650221 Z" id="Line-2" fill="#FFFFFF" fill-rule="nonzero"></path>
                    </g>
                </g>
            </g>
        </g>
    </g>
</svg>