<?xml version="1.0" encoding="UTF-8"?>
<svg width="145px" height="87px" viewBox="0 0 145 87" version="1.1" xmlns="http://www.w3.org/2000/svg" xmlns:xlink="http://www.w3.org/1999/xlink">
    <!-- Generator: Sketch 53.2 (72643) - https://sketchapp.com -->
    <title>DatePicker</title>
    <desc>Created with Sketch.</desc>
    <defs>
        <ellipse id="path-1" cx="2.47772015" cy="2.46979264" rx="2.47772015" ry="2.46979264"></ellipse>
    </defs>
    <g id="pages" stroke="none" stroke-width="1" fill="none" fill-rule="evenodd">
        <g id="DatePicker">
            <path d="M4,0 L141,0 C143.209139,-4.05812251e-16 145,1.790861 145,4 L145,83 C145,85.209139 143.209139,87 141,87 L4,87 C1.790861,87 2.705415e-16,85.209139 0,83 L0,4 C-2.705415e-16,1.790861 1.790861,4.05812251e-16 4,0 Z" id="Rectangle" fill="#E3E5ED" fill-rule="nonzero"></path>
            <g id="Group-121" transform="translate(36.000000, 9.500000)">
                <path d="M63.0175719,1 C67.7119923,1 71.5175719,4.80557963 71.5175719,9.5 L71.5175719,60.5 C71.5175719,65.1944204 67.7119923,69 63.0175719,69 L28,69 L28,1 L63.0175719,1 Z" id="Rectangle-23" fill="#FFFFFF" fill-rule="nonzero"></path>
                <g id="z-embedded-/-List-Box" transform="translate(0.000000, 1.000000)" fill="#FFFFFF" fill-rule="nonzero">
                    <path d="M0,8.13642198 C0,3.6428002 3.58809249,1.17961196e-16 8.02171215,1.17961196e-16 L61,0 L61,68 L8.02171215,68 C3.59144286,68 0,64.3476838 0,59.863578 L0,8.13642198 Z" id="overflow-bkgd"></path>
                </g>
                <path d="M9.51596395,19.7657769 L8.60321866,18.8530316 C8.54013185,18.7899448 8.54013185,18.6879321 8.60321866,18.6255165 L8.75489545,18.4738397 C8.81798226,18.4107529 8.91999497,18.4107529 8.98241064,18.4738397 L9.62938598,19.120815 L10.2763613,18.4738397 C10.3394481,18.4107529 10.4414608,18.4107529 10.5038765,18.4738397 L10.6555533,18.6255165 C10.7186401,18.6886033 10.7186401,18.790616 10.6555533,18.8530316 L9.74280801,19.7657769 C9.68106347,19.8288638 9.57905076,19.8288638 9.51596395,19.7657769 L9.51596395,19.7657769 Z" id="Shape-Copy" fill="#01B6F5" fill-rule="nonzero" transform="translate(9.629386, 19.119808) scale(1, -1) rotate(-270.000000) translate(-9.629386, -19.119808) "></path>
                <path d="M46.5798617,19.7657769 L45.6671164,18.8530316 C45.6040296,18.7899448 45.6040296,18.6879321 45.6671164,18.6255165 L45.8187932,18.4738397 C45.88188,18.4107529 45.9838927,18.4107529 46.0463084,18.4738397 L46.6932837,19.120815 L47.3402591,18.4738397 C47.4033459,18.4107529 47.5053586,18.4107529 47.5677743,18.4738397 L47.7194511,18.6255165 C47.7825379,18.6886033 47.7825379,18.790616 47.7194511,18.8530316 L46.8067058,19.7657769 C46.7449612,19.8288638 46.6429485,19.8288638 46.5798617,19.7657769 L46.5798617,19.7657769 Z" id="Shape-Copy" fill="#01B6F5" fill-rule="nonzero" transform="translate(46.693284, 19.119808) rotate(-90.000000) translate(-46.693284, -19.119808) "></path>
                <g id="Group-120" transform="translate(51.000000, 17.000000)" fill-rule="nonzero">
                    <g id="Group-46">
                        <g id="Group-16" transform="translate(8.000000, 2.000000)" fill="#01B6F5">
                            <path d="M0.594534158,0.939191225 L0.0293007048,0.336275541 C-0.00976690159,0.294603427 -0.00976690159,0.227218733 0.0293007048,0.18598994 L0.123229205,0.0857995396 C0.162296812,0.0441274262 0.225469962,0.0441274262 0.264121956,0.0857995396 L0.664772727,0.513160363 L1.0654235,0.0857995396 C1.10449111,0.0441274262 1.16766426,0.0441274262 1.20631625,0.0857995396 L1.30024475,0.18598994 C1.33931236,0.227662053 1.33931236,0.295046748 1.30024475,0.336275541 L0.735011296,0.939191225 C0.696774915,0.980863338 0.633601765,0.980863338 0.594534158,0.939191225 L0.594534158,0.939191225 Z" id="Shape-Copy" transform="translate(0.664773, 0.512495) rotate(-360.000000) translate(-0.664773, -0.512495) "></path>
                        </g>
                        <path d="M0.357142857,2.30031949 C0.357142857,3.37178682 1.22914903,4.24349612 2.30288913,4.24349612 L8.43193515,4.24349612 C9.50772676,4.24349612 10.3776814,3.37405881 10.3776814,2.30031949 C10.3776814,1.22885216 9.50567525,0.357142857 8.43193515,0.357142857 L2.30288913,0.357142857 C1.22709752,0.357142857 0.357142857,1.22658017 0.357142857,2.30031949 Z M0,2.30031949 C0,1.02988812 1.02930008,0 2.30288913,0 L8.43193515,0 C9.7037857,0 10.7348243,1.03247319 10.7348243,2.30031949 C10.7348243,3.57075086 9.7055242,4.60063898 8.43193515,4.60063898 L2.30288913,4.60063898 C1.03103858,4.60063898 0,3.56816579 0,2.30031949 Z" id="Rectangle-2" fill="#E3E5ED"></path>
                    </g>
                    <path d="M1.82623931,2.91693291 C1.59400992,2.91693291 1.4057508,2.69307528 1.4057508,2.41693291 C1.4057508,2.14079053 1.59400992,1.91693291 1.82623931,1.91693291 L6.48046996,1.91693291 C6.71269935,1.91693291 6.90095847,2.14079053 6.90095847,2.41693291 C6.90095847,2.69307528 6.71269935,2.91693291 6.48046996,2.91693291 L1.82623931,2.91693291 Z" id="Line-12-Copy-3" fill="#A4A7B5"></path>
                </g>
                <g id="Day-31----" transform="translate(25.241822, 44.014919)">
                    <mask id="mask-2" fill="white">
                        <use xlink:href="#path-1"></use>
                    </mask>
                    <use id="Oval-2" fill="#01B6F5" xlink:href="#path-1"></use>
                    <g id="BG" mask="url(#mask-2)" fill="#FFFFFF" fill-opacity="0">
                        <g transform="translate(-1.252396, -1.073482)" id="box">
                            <rect x="0" y="0" width="7.61958331" height="7.61674663"></rect>
                        </g>
                    </g>
                </g>
                <path d="M11.4408946,25.7396166 C10.9468379,25.7396166 10.5463259,25.3391046 10.5463259,24.8450479 C10.5463259,24.3509913 10.9468379,23.9504792 11.4408946,23.9504792 L14.1246006,23.9504792 C14.6186573,23.9504792 15.0191693,24.3509913 15.0191693,24.8450479 C15.0191693,25.3391046 14.6186573,25.7396166 14.1246006,25.7396166 L11.4408946,25.7396166 Z M19.1341853,25.7396166 C18.6401287,25.7396166 18.2396166,25.3391046 18.2396166,24.8450479 C18.2396166,24.3509913 18.6401287,23.9504792 19.1341853,23.9504792 L21.8178914,23.9504792 C22.311948,23.9504792 22.7124601,24.3509913 22.7124601,24.8450479 C22.7124601,25.3391046 22.311948,25.7396166 21.8178914,25.7396166 L19.1341853,25.7396166 Z M26.827476,25.7396166 C26.3334194,25.7396166 25.9329073,25.3391046 25.9329073,24.8450479 C25.9329073,24.3509913 26.3334194,23.9504792 26.827476,23.9504792 L29.5111821,23.9504792 C30.0052388,23.9504792 30.4057508,24.3509913 30.4057508,24.8450479 C30.4057508,25.3391046 30.0052388,25.7396166 29.5111821,25.7396166 L26.827476,25.7396166 Z M34.5207668,25.7396166 C34.0267101,25.7396166 33.6261981,25.3391046 33.6261981,24.8450479 C33.6261981,24.3509913 34.0267101,23.9504792 34.5207668,23.9504792 L37.2044728,23.9504792 C37.6985295,23.9504792 38.0990415,24.3509913 38.0990415,24.8450479 C38.0990415,25.3391046 37.6985295,25.7396166 37.2044728,25.7396166 L34.5207668,25.7396166 Z M42.2140575,25.7396166 C41.7200009,25.7396166 41.3194888,25.3391046 41.3194888,24.8450479 C41.3194888,24.3509913 41.7200009,23.9504792 42.2140575,23.9504792 L44.8977636,23.9504792 C45.3918202,23.9504792 45.7923323,24.3509913 45.7923323,24.8450479 C45.7923323,25.3391046 45.3918202,25.7396166 44.8977636,25.7396166 L42.2140575,25.7396166 Z M49.9073482,25.7396166 C49.4132916,25.7396166 49.0127796,25.3391046 49.0127796,24.8450479 C49.0127796,24.3509913 49.4132916,23.9504792 49.9073482,23.9504792 L52.5910543,23.9504792 C53.085111,23.9504792 53.485623,24.3509913 53.485623,24.8450479 C53.485623,25.3391046 53.085111,25.7396166 52.5910543,25.7396166 L49.9073482,25.7396166 Z M57.600639,25.7396166 C57.1065823,25.7396166 56.7060703,25.3391046 56.7060703,24.8450479 C56.7060703,24.3509913 57.1065823,23.9504792 57.600639,23.9504792 L60.284345,23.9504792 C60.7784017,23.9504792 61.1789137,24.3509913 61.1789137,24.8450479 C61.1789137,25.3391046 60.7784017,25.7396166 60.284345,25.7396166 L57.600639,25.7396166 Z" id="Line-12" fill="#E3E5ED" fill-rule="nonzero"></path>
                <path d="M21.5734824,20.014377 C20.9806145,20.014377 20.5,19.5337625 20.5,18.9408946 C20.5,18.3480266 20.9806145,17.8674121 21.5734824,17.8674121 L35.4648562,17.8674121 C36.0577242,17.8674121 36.5383387,18.3480266 36.5383387,18.9408946 C36.5383387,19.5337625 36.0577242,20.014377 35.4648562,20.014377 L21.5734824,20.014377 Z" id="Line-12-Copy-2" fill="#01B6F5" fill-rule="nonzero"></path>
                <circle id="Oval" fill="#F4F6F9" fill-rule="nonzero" cx="12.6932907" cy="31.8226837" r="1.07348243"></circle>
                <circle id="Oval-Copy-9" fill="#576574" fill-rule="nonzero" cx="20.3865815" cy="31.8226837" r="1.07348243"></circle>
                <circle id="Oval-Copy-10" fill="#576574" fill-rule="nonzero" cx="27.9009585" cy="31.8226837" r="1.07348243"></circle>
                <circle id="Oval-Copy-11" fill="#576574" fill-rule="nonzero" cx="35.4153355" cy="31.8226837" r="1.07348243"></circle>
                <circle id="Oval-Copy-12" fill="#576574" fill-rule="nonzero" cx="42.9297125" cy="31.8226837" r="1.07348243"></circle>
                <circle id="Oval-Copy-13" fill="#576574" fill-rule="nonzero" cx="50.4440895" cy="31.8226837" r="1.07348243"></circle>
                <circle id="Oval-Copy-14" fill="#576574" fill-rule="nonzero" cx="57.9584665" cy="31.8226837" r="1.07348243"></circle>
                <circle id="Oval-Copy-15" fill="#576574" fill-rule="nonzero" cx="57.9584665" cy="39.3370607" r="1.07348243"></circle>
                <circle id="Oval-Copy-16" fill="#576574" fill-rule="nonzero" cx="50.4440895" cy="39.3370607" r="1.07348243"></circle>
                <circle id="Oval-Copy-22" fill="#576574" fill-rule="nonzero" cx="50.4440895" cy="46.672524" r="1.07348243"></circle>
                <circle id="Oval-Copy-29" fill="#576574" fill-rule="nonzero" cx="50.4440895" cy="54.3658147" r="1.07348243"></circle>
                <circle id="Oval-Copy-41" fill="#576574" fill-rule="nonzero" cx="57.9584665" cy="54.3658147" r="1.07348243"></circle>
                <circle id="Oval-Copy-42" fill="#F4F6F9" fill-rule="nonzero" cx="57.9584665" cy="61.701278" r="1.07348243"></circle>
                <circle id="Oval-Copy-40" fill="#F4F6F9" fill-rule="nonzero" cx="50.4440895" cy="61.5223642" r="1.07348243"></circle>
                <circle id="Oval-Copy-28" fill="#576574" fill-rule="nonzero" cx="57.9584665" cy="46.672524" r="1.07348243"></circle>
                <circle id="Oval-Copy-17" fill="#576574" fill-rule="nonzero" cx="42.9297125" cy="39.3370607" r="1.07348243"></circle>
                <circle id="Oval-Copy-23" fill="#576574" fill-rule="nonzero" cx="42.9297125" cy="46.672524" r="1.07348243"></circle>
                <circle id="Oval-Copy-30" fill="#576574" fill-rule="nonzero" cx="42.9297125" cy="54.3658147" r="1.07348243"></circle>
                <circle id="Oval-Copy-35" fill="#F4F6F9" fill-rule="nonzero" cx="42.9297125" cy="61.5223642" r="1.07348243"></circle>
                <circle id="Oval-Copy-18" fill="#576574" fill-rule="nonzero" cx="35.7731629" cy="39.3370607" r="1.07348243"></circle>
                <circle id="Oval-Copy-24" fill="#576574" fill-rule="nonzero" cx="35.7731629" cy="46.672524" r="1.07348243"></circle>
                <circle id="Oval-Copy-31" fill="#576574" fill-rule="nonzero" cx="35.7731629" cy="54.3658147" r="1.07348243"></circle>
                <circle id="Oval-Copy-36" fill="#576574" fill-rule="nonzero" cx="35.7731629" cy="61.5223642" r="1.07348243"></circle>
                <circle id="Oval-Copy-19" fill="#576574" fill-rule="nonzero" cx="27.9009585" cy="39.3370607" r="1.07348243"></circle>
                <circle id="Oval-Copy-25" fill="#FFFFFF" fill-rule="nonzero" cx="27.6734824" cy="46.4734824" r="1.07348243"></circle>
                <circle id="Oval-Copy-32" fill="#576574" fill-rule="nonzero" cx="27.9009585" cy="54.3658147" r="1.07348243"></circle>
                <circle id="Oval-Copy-37" fill="#576574" fill-rule="nonzero" cx="27.9009585" cy="61.5223642" r="1.07348243"></circle>
                <circle id="Oval-Copy-20" fill="#576574" fill-rule="nonzero" cx="20.3865815" cy="39.3370607" r="1.07348243"></circle>
                <circle id="Oval-Copy-26" fill="#576574" fill-rule="nonzero" cx="20.3865815" cy="46.672524" r="1.07348243"></circle>
                <circle id="Oval-Copy-33" fill="#576574" fill-rule="nonzero" cx="20.3865815" cy="54.3658147" r="1.07348243"></circle>
                <circle id="Oval-Copy-38" fill="#576574" fill-rule="nonzero" cx="20.3865815" cy="61.5223642" r="1.07348243"></circle>
                <circle id="Oval-Copy-21" fill="#576574" fill-rule="nonzero" cx="12.8722045" cy="39.3370607" r="1.07348243"></circle>
                <circle id="Oval-Copy-27" fill="#576574" fill-rule="nonzero" cx="12.8722045" cy="46.672524" r="1.07348243"></circle>
                <circle id="Oval-Copy-34" fill="#576574" fill-rule="nonzero" cx="12.8722045" cy="54.3658147" r="1.07348243"></circle>
                <circle id="Oval-Copy-39" fill="#576574" fill-rule="nonzero" cx="12.8722045" cy="61.5223642" r="1.07348243"></circle>
                <path d="M8,-9.05941988e-14 L63.5,-9.14823772e-14 C67.918278,-9.22940017e-14 71.5,3.581722 71.5,8 L71.5,13.5 L-7.10542736e-15,13.5 L-7.10542736e-15,8 C-7.64651036e-15,3.581722 3.581722,-9.06707527e-14 8,-9.05941988e-14 Z" id="Rectangle" fill="#01B6F5" fill-rule="nonzero"></path>
                <path d="M8.07348243,8.14696486 C7.48061445,8.14696486 7,7.6663504 7,7.07348243 C7,6.48061445 7.48061445,6 8.07348243,6 L27.5654952,6 C28.1583632,6 28.6389776,6.48061445 28.6389776,7.07348243 C28.6389776,7.6663504 28.1583632,8.14696486 27.5654952,8.14696486 L8.07348243,8.14696486 Z" id="Line-12-Copy-2" fill="#FFFFFF" fill-rule="nonzero"></path>
                <path d="M63.5,7.5 C62.6715729,7.5 62,6.82842712 62,6 C62,5.17157288 62.6715729,4.5 63.5,4.5 L64.55,4.5 C65.3784271,4.5 66.05,5.17157288 66.05,6 C66.05,6.82842712 65.3784271,7.5 64.55,7.5 L63.5,7.5 Z" id="Line-12-Copy-2" fill="#FFFFFF" fill-rule="nonzero" opacity="0.495768229"></path>
            </g>
        </g>
    </g>
</svg>