<?xml version="1.0" encoding="UTF-8"?>
<svg width="145px" height="87px" viewBox="0 0 145 87" version="1.1" xmlns="http://www.w3.org/2000/svg" xmlns:xlink="http://www.w3.org/1999/xlink">
    <title>DatePicker</title>
    <defs>
        <ellipse id="path-1" cx="1.95331782" cy="1.94539031" rx="1.95331782" ry="1.94539031"></ellipse>
    </defs>
    <g id="pages" stroke="none" stroke-width="1" fill="none" fill-rule="evenodd">
        <g id="DatePicker">
            <g transform="translate(28.000000, 17.000000)">
                <path d="M3.2183908,0 L113.781609,0 C115.559077,0 117,1.44092264 117,3.2183908 L117,66.7816092 C117,68.5590774 115.559077,70 113.781609,70 L3.2183908,70 C1.44092264,70 0,68.5590774 0,66.7816092 L0,3.2183908 C0,1.44092264 1.44092264,0 3.2183908,0 Z" id="Rectangle" fill="#E3E5ED" fill-rule="nonzero"></path>
                <g id="Group-121" transform="translate(28.965517, 8.448276)">
                    <path d="M50.7037935,1.46355469e-12 C54.4809133,1.46355469e-12 57.5428739,3.06196062 57.5428739,6.83908046 L57.5428739,47.8735632 C57.5428739,51.6506831 54.4809133,54.7126437 50.7037935,54.7126437 L22.5287356,54.7126437 L22.5287356,1.46355469e-12 L50.7037935,1.46355469e-12 Z" id="Rectangle-23" fill="#FFFFFF" fill-rule="nonzero"></path>
                    <g id="z-embedded-/-List-Box" fill="#FFFFFF" fill-rule="nonzero">
                        <path d="M0,6.54654642 C0,2.93098867 2.88697097,0 6.45425115,0 L49.0804598,0 L49.0804598,54.7126437 L6.45425115,54.7126437 C2.88966667,54.7126437 0,51.7739984 0,48.1660973 L0,6.54654642 Z" id="overflow-bkgd"></path>
                    </g>
                    <path d="M7.65652272,15.098901 L6.92212995,14.3645082 C6.87137045,14.3137487 6.87137045,14.2316695 6.92212995,14.18145 L7.04416875,14.0594112 C7.09492825,14.0086517 7.17700744,14.0086517 7.22722695,14.0594112 L7.74778182,14.5799661 L8.2683367,14.0594112 C8.3190962,14.0086517 8.40117539,14.0086517 8.45139489,14.0594112 L8.57343369,14.18145 C8.62419319,14.2322095 8.62419319,14.3142887 8.57343369,14.3645082 L7.83904092,15.098901 C7.78936141,15.1496605 7.70728222,15.1496605 7.65652272,15.098901 L7.65652272,15.098901 Z" id="Shape-Copy" fill="#01B6F5" fill-rule="nonzero" transform="translate(7.747782, 14.579156) scale(1, -1) rotate(-270.000000) translate(-7.747782, -14.579156) "></path>
                    <path d="M37.4780497,15.098901 L36.7436569,14.3645082 C36.6928974,14.3137487 36.6928974,14.2316695 36.7436569,14.18145 L36.8656957,14.0594112 C36.9164552,14.0086517 36.9985344,14.0086517 37.0487539,14.0594112 L37.5693088,14.5799661 L38.0898636,14.0594112 C38.1406231,14.0086517 38.2227023,14.0086517 38.2729218,14.0594112 L38.3949606,14.18145 C38.4457201,14.2322095 38.4457201,14.3142887 38.3949606,14.3645082 L37.6605679,15.098901 C37.6108883,15.1496605 37.5288092,15.1496605 37.4780497,15.098901 L37.4780497,15.098901 Z" id="Shape-Copy" fill="#01B6F5" fill-rule="nonzero" transform="translate(37.569309, 14.579156) rotate(-90.000000) translate(-37.569309, -14.579156) "></path>
                    <g id="Group-120" transform="translate(41.034483, 12.873563)" fill-rule="nonzero">
                        <g id="Group-46">
                            <g id="Group-16" transform="translate(6.436782, 1.609195)" fill="#01B6F5">
                                <path d="M0.478360817,1.0957231 L0.0235752797,0.392321464 C-0.00785842657,0.343703998 -0.00785842657,0.265088522 0.0235752797,0.216988263 L0.0991499352,0.100099463 C0.130583641,0.0514819972 0.181412613,0.0514819972 0.212511918,0.100099463 L0.534874608,0.59868709 L0.857237298,0.100099463 C0.888671004,0.0514819972 0.939499976,0.0514819972 0.970599281,0.100099463 L1.04617394,0.216988263 C1.07760764,0.265605729 1.07760764,0.344221205 1.04617394,0.392321464 L0.591388399,1.0957231 C0.560623495,1.14434056 0.509794523,1.14434056 0.478360817,1.0957231 L0.478360817,1.0957231 Z" id="Shape-Copy" transform="translate(0.534875, 0.597911) rotate(-360.000000) translate(-0.534875, -0.597911) "></path>
                            </g>
                            <path d="M0.287356322,1.85083177 C0.287356322,2.71293192 0.988970487,3.41430722 1.8528993,3.41430722 L6.78431564,3.41430722 C7.64989509,3.41430722 8.34985862,2.71475996 8.34985862,1.85083177 C8.34985862,0.988731622 7.64824445,0.287356322 6.78431564,0.287356322 L1.8528993,0.287356322 C0.987319844,0.287356322 0.287356322,0.986903586 0.287356322,1.85083177 Z M0,1.85083177 C0,0.82864561 0.828172478,0 1.8528993,0 L6.78431564,0 C7.80764366,0 8.63721494,0.830725553 8.63721494,1.85083177 C8.63721494,2.87301794 7.80904246,3.70166355 6.78431564,3.70166355 L1.8528993,3.70166355 C0.829571274,3.70166355 0,2.87093799 0,1.85083177 Z" id="Rectangle-2" fill="#E3E5ED"></path>
                        </g>
                        <path d="M1.46938795,2.70902648 C1.28253671,2.70902648 1.13106386,2.44785925 1.13106386,2.12569314 C1.13106386,1.80352704 1.28253671,1.54235981 1.46938795,1.54235981 L5.21417123,1.54235981 C5.40102246,1.54235981 5.55249532,1.80352704 5.55249532,2.12569314 C5.55249532,2.44785925 5.40102246,2.70902648 5.21417123,2.70902648 L1.46938795,2.70902648 Z" id="Line-12-Copy-3" fill="#A4A7B5"></path>
                    </g>
                    <g id="Day-31----" transform="translate(20.309512, 34.609705)">
                        <mask id="mask-2" fill="white">
                            <use xlink:href="#path-1"></use>
                        </mask>
                        <use id="Oval-2" fill="#01B6F5" xlink:href="#path-1"></use>
                        <g id="BG" mask="url(#mask-2)" fill="#FFFFFF" fill-opacity="0">
                            <g transform="translate(-1.007675, -0.863721)" id="box">
                                <rect x="0" y="0" width="6.13069922" height="6.12841683"></rect>
                            </g>
                        </g>
                    </g>
                    <path d="M9.20531747,19.9054387 C8.80780063,19.9054387 8.48554956,19.5831876 8.48554956,19.1856707 C8.48554956,18.7881539 8.80780063,18.4659028 9.20531747,18.4659028 L11.3646212,18.4659028 C11.762138,18.4659028 12.0843891,18.7881539 12.0843891,19.1856707 C12.0843891,19.5831876 11.762138,19.9054387 11.3646212,19.9054387 L9.20531747,19.9054387 Z M15.3953215,19.9054387 C14.9978047,19.9054387 14.6755536,19.5831876 14.6755536,19.1856707 C14.6755536,18.7881539 14.9978047,18.4659028 15.3953215,18.4659028 L17.5546252,18.4659028 C17.9521421,18.4659028 18.2743932,18.7881539 18.2743932,19.1856707 C18.2743932,19.5831876 17.9521421,19.9054387 17.5546252,19.9054387 L15.3953215,19.9054387 Z M21.5853255,19.9054387 C21.1878087,19.9054387 20.8655576,19.5831876 20.8655576,19.1856707 C20.8655576,18.7881539 21.1878087,18.4659028 21.5853255,18.4659028 L23.7446293,18.4659028 C24.1421461,18.4659028 24.4643972,18.7881539 24.4643972,19.1856707 C24.4643972,19.5831876 24.1421461,19.9054387 23.7446293,19.9054387 L21.5853255,19.9054387 Z M27.7753296,19.9054387 C27.3778127,19.9054387 27.0555617,19.5831876 27.0555617,19.1856707 C27.0555617,18.7881539 27.3778127,18.4659028 27.7753296,18.4659028 L29.9346333,18.4659028 C30.3321502,18.4659028 30.6544012,18.7881539 30.6544012,19.1856707 C30.6544012,19.5831876 30.3321502,19.9054387 29.9346333,19.9054387 L27.7753296,19.9054387 Z M33.9653336,19.9054387 C33.5678168,19.9054387 33.2455657,19.5831876 33.2455657,19.1856707 C33.2455657,18.7881539 33.5678168,18.4659028 33.9653336,18.4659028 L36.1246374,18.4659028 C36.5221542,18.4659028 36.8444053,18.7881539 36.8444053,19.1856707 C36.8444053,19.5831876 36.5221542,19.9054387 36.1246374,19.9054387 L33.9653336,19.9054387 Z M40.1553377,19.9054387 C39.7578208,19.9054387 39.4355698,19.5831876 39.4355698,19.1856707 C39.4355698,18.7881539 39.7578208,18.4659028 40.1553377,18.4659028 L42.3146414,18.4659028 C42.7121582,18.4659028 43.0344093,18.7881539 43.0344093,19.1856707 C43.0344093,19.5831876 42.7121582,19.9054387 42.3146414,19.9054387 L40.1553377,19.9054387 Z M46.3453417,19.9054387 C45.9478249,19.9054387 45.6255738,19.5831876 45.6255738,19.1856707 C45.6255738,18.7881539 45.9478249,18.4659028 46.3453417,18.4659028 L48.5046454,18.4659028 C48.9021623,18.4659028 49.2244134,18.7881539 49.2244134,19.1856707 C49.2244134,19.5831876 48.9021623,19.9054387 48.5046454,19.9054387 L46.3453417,19.9054387 Z" id="Line-12" fill="#E3E5ED" fill-rule="nonzero"></path>
                    <path d="M17.3579744,15.298924 C16.8809542,15.298924 16.4942529,14.9122227 16.4942529,14.4352025 C16.4942529,13.9581823 16.8809542,13.571481 17.3579744,13.571481 L28.5349418,13.571481 C29.011962,13.571481 29.3986633,13.9581823 29.3986633,14.4352025 C29.3986633,14.9122227 29.011962,15.298924 28.5349418,15.298924 L17.3579744,15.298924 Z" id="Line-12-Copy-2" fill="#01B6F5" fill-rule="nonzero"></path>
                    <circle id="Oval" fill="#F4F6F9" fill-rule="nonzero" cx="10.2129925" cy="24.7998605" r="1"></circle>
                    <circle id="Oval-Copy-9" fill="#576574" fill-rule="nonzero" cx="16.4029966" cy="24.7998605" r="1"></circle>
                    <circle id="Oval-Copy-10" fill="#576574" fill-rule="nonzero" cx="22.449047" cy="24.7998605" r="1"></circle>
                    <circle id="Oval-Copy-11" fill="#576574" fill-rule="nonzero" cx="28.4950975" cy="24.7998605" r="1"></circle>
                    <circle id="Oval-Copy-12" fill="#576574" fill-rule="nonzero" cx="34.541148" cy="24.7998605" r="1"></circle>
                    <circle id="Oval-Copy-13" fill="#576574" fill-rule="nonzero" cx="40.5871984" cy="24.7998605" r="1"></circle>
                    <circle id="Oval-Copy-14" fill="#576574" fill-rule="nonzero" cx="46.6332489" cy="24.7998605" r="1"></circle>
                    <circle id="Oval-Copy-15" fill="#576574" fill-rule="nonzero" cx="46.6332489" cy="30.8459109" r="1"></circle>
                    <circle id="Oval-Copy-16" fill="#576574" fill-rule="nonzero" cx="40.5871984" cy="30.8459109" r="1"></circle>
                    <circle id="Oval-Copy-22" fill="#576574" fill-rule="nonzero" cx="40.5871984" cy="36.7480078" r="1"></circle>
                    <circle id="Oval-Copy-29" fill="#576574" fill-rule="nonzero" cx="40.5871984" cy="42.9380118" r="1"></circle>
                    <circle id="Oval-Copy-41" fill="#576574" fill-rule="nonzero" cx="46.6332489" cy="42.9380118" r="1"></circle>
                    <circle id="Oval-Copy-42" fill="#F4F6F9" fill-rule="nonzero" cx="46.6332489" cy="48.8401087" r="1"></circle>
                    <circle id="Oval-Copy-40" fill="#F4F6F9" fill-rule="nonzero" cx="40.5871984" cy="48.6961551" r="1"></circle>
                    <circle id="Oval-Copy-28" fill="#576574" fill-rule="nonzero" cx="46.6332489" cy="36.7480078" r="1"></circle>
                    <circle id="Oval-Copy-17" fill="#576574" fill-rule="nonzero" cx="34.541148" cy="30.8459109" r="1"></circle>
                    <circle id="Oval-Copy-23" fill="#576574" fill-rule="nonzero" cx="34.541148" cy="36.7480078" r="1"></circle>
                    <circle id="Oval-Copy-30" fill="#576574" fill-rule="nonzero" cx="34.541148" cy="42.9380118" r="1"></circle>
                    <circle id="Oval-Copy-35" fill="#F4F6F9" fill-rule="nonzero" cx="34.541148" cy="48.6961551" r="1"></circle>
                    <circle id="Oval-Copy-18" fill="#576574" fill-rule="nonzero" cx="28.7830047" cy="30.8459109" r="1"></circle>
                    <circle id="Oval-Copy-24" fill="#576574" fill-rule="nonzero" cx="28.7830047" cy="36.7480078" r="1"></circle>
                    <circle id="Oval-Copy-31" fill="#576574" fill-rule="nonzero" cx="28.7830047" cy="42.9380118" r="1"></circle>
                    <circle id="Oval-Copy-36" fill="#576574" fill-rule="nonzero" cx="28.7830047" cy="48.6961551" r="1"></circle>
                    <circle id="Oval-Copy-19" fill="#576574" fill-rule="nonzero" cx="22.449047" cy="30.8459109" r="1"></circle>
                    <circle id="Oval-Copy-25" fill="#FFFFFF" fill-rule="nonzero" cx="22.2660203" cy="36.5878594" r="1"></circle>
                    <circle id="Oval-Copy-32" fill="#576574" fill-rule="nonzero" cx="22.449047" cy="42.9380118" r="1"></circle>
                    <circle id="Oval-Copy-37" fill="#576574" fill-rule="nonzero" cx="22.449047" cy="48.6961551" r="1"></circle>
                    <circle id="Oval-Copy-20" fill="#576574" fill-rule="nonzero" cx="16.4029966" cy="30.8459109" r="1"></circle>
                    <circle id="Oval-Copy-26" fill="#576574" fill-rule="nonzero" cx="16.4029966" cy="36.7480078" r="1"></circle>
                    <circle id="Oval-Copy-33" fill="#576574" fill-rule="nonzero" cx="16.4029966" cy="42.9380118" r="1"></circle>
                    <circle id="Oval-Copy-38" fill="#576574" fill-rule="nonzero" cx="16.4029966" cy="48.6961551" r="1"></circle>
                    <circle id="Oval-Copy-21" fill="#576574" fill-rule="nonzero" cx="10.3569461" cy="30.8459109" r="1"></circle>
                    <circle id="Oval-Copy-27" fill="#576574" fill-rule="nonzero" cx="10.3569461" cy="36.7480078" r="1"></circle>
                    <circle id="Oval-Copy-34" fill="#576574" fill-rule="nonzero" cx="10.3569461" cy="42.9380118" r="1"></circle>
                    <circle id="Oval-Copy-39" fill="#576574" fill-rule="nonzero" cx="10.3569461" cy="48.6961551" r="1"></circle>
                    <path d="M6.82963627,6.83908046 C6.16830159,6.83908046 5.63218391,6.29873447 5.63218391,5.63218391 C5.63218391,4.96563335 6.16830159,4.42528736 6.82963627,4.42528736 L28.5726626,4.42528736 C29.2339973,4.42528736 29.7701149,4.96563335 29.7701149,5.63218391 C29.7701149,6.29873447 29.2339973,6.83908046 28.5726626,6.83908046 L6.82963627,6.83908046 Z" id="Line-12-Copy-2" fill="#01B6F5" fill-rule="nonzero"></path>
                    <path d="M51.091954,5.22988506 C50.4254035,5.22988506 49.8850575,4.68953907 49.8850575,4.02298851 C49.8850575,3.35643795 50.4254035,2.81609195 51.091954,2.81609195 L51.9367816,2.81609195 C52.6033322,2.81609195 53.1436782,3.35643795 53.1436782,4.02298851 C53.1436782,4.68953907 52.6033322,5.22988506 51.9367816,5.22988506 L51.091954,5.22988506 Z" id="Line-12-Copy-2" fill="#E3E5ED" fill-rule="nonzero" opacity="0.495768229"></path>
                </g>
            </g>
            <g id="Group-202" fill-rule="nonzero">
                <g id="Group-179">
                    <path d="M4.40559441,3.46363636 C2.13466131,3.46363636 0.293706294,5.30459138 0.293706294,7.57552448 C0.293706294,9.84645757 2.13466131,11.6874126 4.40559441,11.6874126 L64.4213287,11.6874126 C66.6922618,11.6874126 68.5332168,9.84645757 68.5332168,7.57552448 C68.5332168,5.30459138 66.6922618,3.46363636 64.4213287,3.46363636 L4.40559441,3.46363636 Z M4.40559441,3.16993007 L64.4213287,3.16993007 C66.8544713,3.16993007 68.8269231,5.14238187 68.8269231,7.57552448 C68.8269231,10.0086671 66.8544713,11.9811189 64.4213287,11.9811189 L4.40559441,11.9811189 C1.9724518,11.9811189 0,10.0086671 0,7.57552448 C0,5.14238187 1.9724518,3.16993007 4.40559441,3.16993007 Z" id="Rectangle" fill="#A4A7B5"></path>
                    <path d="M5.53426573,8.30979021 C5.12874197,8.30979021 4.8,7.98104824 4.8,7.57552448 C4.8,7.17000071 5.12874197,6.84125874 5.53426573,6.84125874 L31.5293706,6.84125874 C31.9348944,6.84125874 32.2636364,7.17000071 32.2636364,7.57552448 C32.2636364,7.98104824 31.9348944,8.30979021 31.5293706,8.30979021 L5.53426573,8.30979021 Z" id="Line-12" fill="#E3E5ED"></path>
                    <path d="M27.06,1.32 C26.6954921,1.32 26.4,1.02450793 26.4,0.66 C26.4,0.295492065 26.6954921,2.18225438e-13 27.06,2.18225438e-13 L41.25,2.18225438e-13 C41.6145079,2.18225438e-13 41.91,0.295492065 41.91,0.66 C41.91,1.02450793 41.6145079,1.32 41.25,1.32 L27.06,1.32 Z" id="Line-12" fill="#A4A7B5"></path>
                </g>
                <g id="calendar" transform="translate(62.000000, 4.500000)">
                    <path d="M4,2.2 L4,4.55903556 C4,4.80258325 3.79623258,5 3.54482685,5 L0.455081595,5 C0.203736904,5 0,4.80258325 0,4.55903556 L0,2.2" id="Shape" fill="#E3E5ED"></path>
                    <path d="M3.7476177,2.6 L0.2523823,2.6 C0.113007456,2.6 0,2.49015489 0,2.35461397 L0,1.84538603 C0,1.70987479 0.113007456,1.6 0.2523823,1.6 L3.7476177,1.6 C3.88702306,1.6 4,1.70987479 4,1.84538603 L4,2.35461397 C4,2.49015489 3.88702306,2.6 3.7476177,2.6 Z" id="Shape" fill="#F34344"></path>
                    <path d="M3.7476177,2.4 L0.2523823,2.4 C0.113007456,2.4 0,2.29015488 0,2.15461397 L0,1.64538603 C0,1.50987479 0.113007456,1.4 0.2523823,1.4 L3.7476177,1.4 C3.88702306,1.4 4,1.50987479 4,1.64538603 L4,2.15461397 C4,2.29015488 3.88702306,2.4 3.7476177,2.4 Z" id="Shape" fill="#FF5253"></path>
                    <path d="M1.2,1.25637329 L1.2,1.6 C1.2,1.67081067 1.1775818,1.73490399 1.14141104,1.7813356 C1.10524028,1.82770168 1.05518916,1.85637329 1,1.85637329 C0.889493863,1.85637329 0.8,1.7416541 0.8,1.6 L0.8,1.25637329 C0.8,1.11481748 0.889493863,1 1,1 C1.11042945,1 1.2,1.11481748 1.2,1.25637329 Z" id="Shape" fill="#576574"></path>
                    <path d="M3.2,1.25637329 L3.2,1.6 C3.2,1.67081067 3.1775818,1.73490399 3.14141104,1.7813356 C3.10524028,1.82770168 3.0551636,1.85637329 3,1.85637329 C2.88949386,1.85637329 2.8,1.7416541 2.8,1.6 L2.8,1.25637329 C2.8,1.11481748 2.88949386,1 3,1 C3.11042945,1 3.2,1.11481748 3.2,1.25637329 Z" id="Shape" fill="#576574"></path>
                </g>
            </g>
        </g>
    </g>
</svg>