<?xml version="1.0" encoding="UTF-8"?>
<svg width="40px" height="56px" viewBox="0 0 40 56" version="1.1" xmlns="http://www.w3.org/2000/svg" xmlns:xlink="http://www.w3.org/1999/xlink">
    <!-- Generator: Sketch 52.5 (67469) - http://www.bohemiancoding.com/sketch -->
    <title>default-image</title>
    <desc>Created with Sketch.</desc>
    <g id="re-design-layout" stroke="none" stroke-width="1" fill="none" fill-rule="evenodd">
        <g id="re-design-layout-componentes-V2" transform="translate(-663.000000, -685.000000)">
            <g id="default-image" transform="translate(663.000000, 685.000000)">
                <path d="M9.21989847,47.5457896 L30.6940702,47.5457896 L8.27501998,47.5457896 C8.58951287,47.6064441 8.90540558,47.6064441 9.21989847,47.5457896 Z" id="Path" fill="#FFA83D"></path>
                <path d="M30.8161602,25.8243687 C30.8920875,25.6584122 30.8920875,25.491056 30.8161602,25.324944 L30.8161602,25.4868565 C30.8541239,25.5988421 30.8541239,25.7122275 30.8161602,25.8243687 Z" id="Path" fill="#FFA83D"></path>
                <polygon id="Path" fill="#FFA83D" points="30.8344842 17.8810491 30.8344842 17.8810491 30.8344842 17.9190128"></polygon>
                <path d="M37.0101812,43.8194156 C32.8478984,46.547345 27.263928,45.3833343 24.5357911,41.2229203 C21.8078618,37.0625062 22.9718724,31.4766671 27.1322864,28.7485302 C28.6710811,27.7394164 30.4837484,27.2259312 32.3234084,27.2782556 C33.9072602,27.2620599 35.4641193,27.6800324 36.8280839,28.4854546 C37.8515246,28.9538827 39.0587236,28.503519 39.5273594,27.4800783 C39.5724165,27.379167 39.6102064,27.2763869 39.6390679,27.1700769 C39.6571322,27.0205786 39.6571322,26.8692115 39.6390679,26.7197132 L39.6390679,16.3590634 L34.6840286,16.3590634 L29.4046611,16.3590634 C28.411743,16.4130489 27.5612636,15.6526838 27.5072781,14.6581046 C27.4875526,14.3084446 27.5720607,13.9589923 27.7468907,13.6562581 C28.5433846,12.288556 28.961357,10.7335657 28.9540897,9.15158265 C28.952221,4.09563207 24.8549285,-0.00186809023 19.7987703,6.38943233e-07 C19.533826,6.38943233e-07 19.2707505,0.0107977408 19.0076749,0.0342606737 C18.6075592,0.0558548774 18.2095199,0.109840387 17.8185403,0.196424838 C15.782456,0.646788568 13.9697887,1.80187083 12.7013369,3.45777251 C10.7192381,5.69381078 10.1498987,8.84884853 11.223795,11.6382383 C11.4148207,12.3138877 11.6922231,12.9625443 12.0526802,13.5661439 C12.4851872,14.2417933 12.4851872,15.1068072 12.0526802,15.7824567 L11.9445016,15.8906353 C11.7516072,16.0671264 11.5246604,16.2006367 11.2777805,16.2870135 L10.8110135,16.3590634 L0,16.3590634 L0,45.1887788 C0.0685200695,50.716895 4.22166683,55.3405462 9.71199313,56 L39.6409366,56 L39.6409366,45.4051362 C39.6336693,44.410557 38.8193187,43.6105332 37.8247395,43.6175929 C37.5417308,43.6194616 37.2624596,43.6896428 37.0101812,43.8194156 Z" id="Path" fill="#E3E5ED"></path>
            </g>
        </g>
    </g>
</svg>