<?xml version="1.0" encoding="UTF-8"?>
<svg width="146px" height="73px" viewBox="0 0 146 73" version="1.1" xmlns="http://www.w3.org/2000/svg" xmlns:xlink="http://www.w3.org/1999/xlink">
    <title>DraggableList</title>
    <defs>
        <filter x="-3.4%" y="-19.2%" width="106.8%" height="138.5%" filterUnits="objectBoundingBox" id="filter-1">
            <feOffset dx="0" dy="0" in="SourceAlpha" result="shadowOffsetOuter1"></feOffset>
            <feGaussianBlur stdDeviation="0.5" in="shadowOffsetOuter1" result="shadowBlurOuter1"></feGaussianBlur>
            <feColorMatrix values="0 0 0 0 0   0 0 0 0 0   0 0 0 0 0  0 0 0 0.124037096 0" type="matrix" in="shadowBlurOuter1" result="shadowMatrixOuter1"></feColorMatrix>
            <feMerge>
                <feMergeNode in="shadowMatrixOuter1"></feMergeNode>
                <feMergeNode in="SourceGraphic"></feMergeNode>
            </feMerge>
        </filter>
        <filter x="-14.2%" y="-86.8%" width="128.4%" height="281.2%" filterUnits="objectBoundingBox" id="filter-2">
            <feOffset dx="0" dy="1" in="SourceAlpha" result="shadowOffsetOuter1"></feOffset>
            <feGaussianBlur stdDeviation="2" in="shadowOffsetOuter1" result="shadowBlurOuter1"></feGaussianBlur>
            <feColorMatrix values="0 0 0 0 0   0 0 0 0 0   0 0 0 0 0  0 0 0 0.233080884 0" type="matrix" in="shadowBlurOuter1" result="shadowMatrixOuter1"></feColorMatrix>
            <feMerge>
                <feMergeNode in="shadowMatrixOuter1"></feMergeNode>
                <feMergeNode in="SourceGraphic"></feMergeNode>
            </feMerge>
        </filter>
        <filter x="-3.4%" y="-20.7%" width="106.8%" height="148.9%" filterUnits="objectBoundingBox" id="filter-3">
            <feOffset dx="0" dy="0" in="SourceAlpha" result="shadowOffsetOuter1"></feOffset>
            <feGaussianBlur stdDeviation="0.5" in="shadowOffsetOuter1" result="shadowBlurOuter1"></feGaussianBlur>
            <feColorMatrix values="0 0 0 0 0   0 0 0 0 0   0 0 0 0 0  0 0 0 0.124037096 0" type="matrix" in="shadowBlurOuter1" result="shadowMatrixOuter1"></feColorMatrix>
            <feMerge>
                <feMergeNode in="shadowMatrixOuter1"></feMergeNode>
                <feMergeNode in="SourceGraphic"></feMergeNode>
            </feMerge>
        </filter>
        <filter x="-3.4%" y="-20.7%" width="106.8%" height="148.9%" filterUnits="objectBoundingBox" id="filter-4">
            <feOffset dx="0" dy="0" in="SourceAlpha" result="shadowOffsetOuter1"></feOffset>
            <feGaussianBlur stdDeviation="0.5" in="shadowOffsetOuter1" result="shadowBlurOuter1"></feGaussianBlur>
            <feColorMatrix values="0 0 0 0 0   0 0 0 0 0   0 0 0 0 0  0 0 0 0.124037096 0" type="matrix" in="shadowBlurOuter1" result="shadowMatrixOuter1"></feColorMatrix>
            <feMerge>
                <feMergeNode in="shadowMatrixOuter1"></feMergeNode>
                <feMergeNode in="SourceGraphic"></feMergeNode>
            </feMerge>
        </filter>
    </defs>
    <g id="components-icons" stroke="none" stroke-width="1" fill="none" fill-rule="evenodd">
        <g id="DraggableList" transform="translate(8.000000, 0.000000)" fill-rule="nonzero">
            <g id="Group-5-Copy" transform="translate(88.000000, 0.000000)">
                <path d="M0,11 C0,4.92486775 4.92817249,0 10.991074,0 L38.1815451,0 C44.1522361,0 49.0109701,4.76342789 49.1686683,10.7021035 L49.172619,11 C49.172619,17.0751322 44.2444466,22 38.1815451,22 L10.991074,22 C5.02038296,22 0.161648924,17.2365721 0.00395076211,11.2978965 L0,11 Z" id="Path" fill="#FFB900"></path>
                <path d="M8.9375,15.8125 L12.1325784,15.8125 C12.6349885,15.8125 13.0823824,15.7502178 13.4747605,15.6256533 C13.8671385,15.5010889 14.1982725,15.3266986 14.468162,15.1024826 C14.7380519,14.8782666 14.9435833,14.6094149 15.0847561,14.2959277 C15.2259289,13.9824404 15.2965157,13.6346981 15.2965157,13.2527003 C15.2965157,12.7046167 15.1314678,12.2592988 14.801372,11.9167465 C14.4712761,11.5741943 13.9844366,11.3385599 13.3408537,11.2098432 C13.6190477,11.1226481 13.8619484,11.0095019 14.0695557,10.8704051 C14.2771634,10.7313082 14.4494774,10.5756026 14.5864983,10.4032883 C14.7235192,10.230974 14.8262848,10.0441273 14.8947953,9.84274826 C14.9633057,9.64138096 14.997561,9.43273549 14.997561,9.21681185 C14.997561,8.85557491 14.9363165,8.52963099 14.8138284,8.23898084 C14.6913403,7.94833068 14.5013795,7.70231587 14.243946,7.50093641 C13.9865129,7.29955695 13.658493,7.14488992 13.2598868,7.0369338 C12.8612805,6.92897768 12.3837833,6.875 11.8273955,6.875 L8.9375,6.875 L8.9375,15.8125 Z M10.2205139,11.7641551 L12.1138937,11.7641551 C12.7574766,11.7641551 13.2370498,11.8949477 13.5526132,12.1565331 C13.8681767,12.4181185 14.0259582,12.7731272 14.0259582,13.2215592 C14.0259582,13.4499273 13.989627,13.659611 13.9169643,13.8506098 C13.8443244,14.0416085 13.7311782,14.2066564 13.5775261,14.3457535 C13.4239071,14.4848504 13.22668,14.5938443 12.9858449,14.6727352 C12.7450202,14.751626 12.4543697,14.7910714 12.1138937,14.7910714 L10.2205139,14.7910714 L10.2205139,11.7641551 Z M10.2205139,10.8548345 L10.2205139,7.88397213 L11.8273955,7.88397213 C12.4709784,7.88397213 12.9474374,8.00334615 13.2567726,8.24209495 C13.5661079,8.48084375 13.7207753,8.85765124 13.7207753,9.37251742 C13.7207753,9.59673345 13.68133,9.80018886 13.602439,9.98288328 C13.5235697,10.1655777 13.4041953,10.3212833 13.2443162,10.45 C13.0844584,10.5787167 12.8820411,10.6783683 12.6370645,10.7489547 C12.3920878,10.8195411 12.1035132,10.8548345 11.7713415,10.8548345 L10.2205139,10.8548345 Z M23.2935526,6.875 L17.7628906,6.875 L17.7628906,15.8125 L23.2935526,15.8125 L23.2997808,14.7661585 L19.0521327,14.7661585 L19.0521327,11.8077526 L22.4714272,11.8077526 L22.4714272,10.7987805 L19.0521327,10.7987805 L19.0521327,7.92134146 L23.2935526,7.92134146 L23.2935526,6.875 Z M31.776391,6.875 L24.7696402,6.875 L24.7696402,7.95248258 L27.6346227,7.95248258 L27.6346227,15.8125 L28.9176367,15.8125 L28.9176367,7.95248258 L31.776391,7.95248258 L31.776391,6.875 Z M40.2841425,15.8125 L36.7153707,6.875 L35.4136721,6.875 L31.8511286,15.8125 L32.8476442,15.8125 C32.9555979,15.8125 33.0479832,15.7813589 33.1248002,15.7190767 C33.2016149,15.6567944 33.2524787,15.5862079 33.2773916,15.5073171 L34.0808324,13.4084059 L38.0482104,13.4084059 L38.8516512,15.5073171 C38.8890205,15.5986643 38.9429982,15.672365 39.013585,15.728419 C39.0841718,15.784473 39.1755188,15.8125 39.2876268,15.8125 L40.2841425,15.8125 Z M37.6932017,12.4866289 L34.4358411,12.4866289 L35.7873655,8.97391115 C35.8329778,8.86180314 35.8786513,8.73101045 35.9243864,8.5815331 L36.0614073,8.09573171 L36.0614073,8.09573171 C36.1070808,8.27012195 36.1537925,8.43101797 36.2015423,8.57841899 L36.2489461,8.71993794 L36.2489461,8.71993794 L37.6932017,12.4866289 Z" id="BETA" fill="#FFFFFF"></path>
            </g>
            <g id="Group-42" filter="url(#filter-1)" transform="translate(4.318182, 19.000000)">
                <path d="M70.9333333,0 C72.6027395,0 73.9560606,1.3533211 73.9560606,3.02272727 L73.9560606,9.06818182 C73.9560606,10.737588 72.6027395,12.0909091 70.9333333,12.0909091 L3.02272727,12.0909091 C1.3533211,12.0909091 -4.29555381e-15,10.737588 -4.29555381e-15,9.06818182 L-4.29555381e-15,3.02272727 C-4.29555381e-15,1.3533211 1.3533211,0 3.02272727,0 L70.9333333,0 Z" id="Rectangle" fill="#FFFFFF"></path>
                <path d="M70.9333333,0 C72.6027395,0 73.9560606,1.3533211 73.9560606,3.02272727 L73.9560606,9.06818182 C73.9560606,10.737588 72.6027395,12.0909091 70.9333333,12.0909091 L3.02272727,12.0909091 C1.3533211,12.0909091 -4.29555381e-15,10.737588 -4.29555381e-15,9.06818182 L-4.29555381e-15,3.02272727 C-4.29555381e-15,1.3533211 1.3533211,0 3.02272727,0 L70.9333333,0 Z M70.9333333,0.251893939 L3.02272727,0.251893939 C1.51672858,0.251893939 0.291349301,1.45336848 0.252827812,2.95007918 L0.251893939,3.02272727 L0.251893939,9.06818182 C0.251893939,10.5741805 1.45336848,11.7995598 2.95007918,11.8380813 L3.02272727,11.8390152 L70.9333333,11.8390152 C72.439332,11.8390152 73.6647113,10.6375406 73.7032328,9.14082991 L73.7041667,9.06818182 L73.7041667,3.02272727 C73.7041667,1.51672858 72.5026921,0.291349301 71.0059814,0.252827812 L70.9333333,0.251893939 Z" id="Rectangle" fill="#F4F6F9"></path>
                <path d="M3.81280945,7.99160383 C4.02662795,7.99160383 4.19996208,8.16493796 4.19996208,8.37875646 C4.19996208,8.59257495 4.02662795,8.76590909 3.81280945,8.76590909 C3.59899096,8.76590909 3.42565682,8.59257495 3.42565682,8.37875646 C3.42565682,8.16493796 3.59899096,7.99160383 3.81280945,7.99160383 Z M5.0831441,7.99160383 C5.29696259,7.99160383 5.47029673,8.16493796 5.47029673,8.37875646 C5.47029673,8.59257495 5.29696259,8.76590909 5.0831441,8.76590909 C4.86932561,8.76590909 4.69599147,8.59257495 4.69599147,8.37875646 C4.69599147,8.16493796 4.86932561,7.99160383 5.0831441,7.99160383 Z M3.81280945,6.63960481 C4.02662795,6.63960481 4.19996208,6.81293894 4.19996208,7.02675744 C4.19996208,7.24057593 4.02662795,7.41391007 3.81280945,7.41391007 C3.59899096,7.41391007 3.42565682,7.24057593 3.42565682,7.02675744 C3.42565682,6.81293894 3.59899096,6.63960481 3.81280945,6.63960481 Z M5.0831441,6.63960481 C5.29696259,6.63960481 5.47029673,6.81293894 5.47029673,7.02675744 C5.47029673,7.24057593 5.29696259,7.41391007 5.0831441,7.41391007 C4.86932561,7.41391007 4.69599147,7.24057593 4.69599147,7.02675744 C4.69599147,6.81293894 4.86932561,6.63960481 5.0831441,6.63960481 Z M3.81280945,5.28457513 C4.02662795,5.28457513 4.19996208,5.45790927 4.19996208,5.67172776 C4.19996208,5.88554626 4.02662795,6.05888039 3.81280945,6.05888039 C3.59899096,6.05888039 3.42565682,5.88554626 3.42565682,5.67172776 C3.42565682,5.45790927 3.59899096,5.28457513 3.81280945,5.28457513 Z M5.0831441,5.28457513 C5.29696259,5.28457513 5.47029673,5.45790927 5.47029673,5.67172776 C5.47029673,5.88554626 5.29696259,6.05888039 5.0831441,6.05888039 C4.86932561,6.05888039 4.69599147,5.88554626 4.69599147,5.67172776 C4.69599147,5.45790927 4.86932561,5.28457513 5.0831441,5.28457513 Z M3.81280945,3.92954545 C4.02662795,3.92954545 4.19996208,4.10287959 4.19996208,4.31669809 C4.19996208,4.53051658 4.02662795,4.70385072 3.81280945,4.70385072 C3.59899096,4.70385072 3.42565682,4.53051658 3.42565682,4.31669809 C3.42565682,4.10287959 3.59899096,3.92954545 3.81280945,3.92954545 Z M5.0831441,3.92954545 C5.29696259,3.92954545 5.47029673,4.10287959 5.47029673,4.31669809 C5.47029673,4.53051658 5.29696259,4.70385072 5.0831441,4.70385072 C4.86932561,4.70385072 4.69599147,4.53051658 4.69599147,4.31669809 C4.69599147,4.10287959 4.86932561,3.92954545 5.0831441,3.92954545 Z" id="Combined-Shape" fill="#A4A7B5"></path>
            </g>
            <path d="M44.673913,24.5 C45.5023402,24.5 46.173913,25.1715729 46.173913,26 C46.173913,26.8284271 45.5023402,27.5 44.673913,27.5 L14.5,27.5 C13.6715729,27.5 13,26.8284271 13,26 C13,25.1715729 13.6715729,24.5 14.5,24.5 L44.673913,24.5 Z" id="Path-Copy-39" fill="#C1C3CB"></path>
            <g id="Group-42" filter="url(#filter-2)" transform="translate(0.000000, 25.045455)">
                <path d="M70.9333333,0 C72.6027395,0 73.9560606,1.3533211 73.9560606,3.02272727 L73.9560606,9.06818182 C73.9560606,10.737588 72.6027395,12.0909091 70.9333333,12.0909091 L3.02272727,12.0909091 C1.3533211,12.0909091 -4.29555381e-15,10.737588 -4.29555381e-15,9.06818182 L-4.29555381e-15,3.02272727 C-4.29555381e-15,1.3533211 1.3533211,0 3.02272727,0 L70.9333333,0 Z" id="Rectangle" fill="#FFFFFF"></path>
                <path d="M70.9333333,0 C72.6027395,0 73.9560606,1.3533211 73.9560606,3.02272727 L73.9560606,9.06818182 C73.9560606,10.737588 72.6027395,12.0909091 70.9333333,12.0909091 L3.02272727,12.0909091 C1.3533211,12.0909091 -4.29555381e-15,10.737588 -4.29555381e-15,9.06818182 L-4.29555381e-15,3.02272727 C-4.29555381e-15,1.3533211 1.3533211,0 3.02272727,0 L70.9333333,0 Z M70.9333333,0.251893939 L3.02272727,0.251893939 C1.51672858,0.251893939 0.291349301,1.45336848 0.252827812,2.95007918 L0.251893939,3.02272727 L0.251893939,9.06818182 C0.251893939,10.5741805 1.45336848,11.7995598 2.95007918,11.8380813 L3.02272727,11.8390152 L70.9333333,11.8390152 C72.439332,11.8390152 73.6647113,10.6375406 73.7032328,9.14082991 L73.7041667,9.06818182 L73.7041667,3.02272727 C73.7041667,1.51672858 72.5026921,0.291349301 71.0059814,0.252827812 L70.9333333,0.251893939 Z" id="Rectangle" fill="#F4F6F9"></path>
                <path d="M3.81280945,7.99160383 C4.02662795,7.99160383 4.19996208,8.16493796 4.19996208,8.37875646 C4.19996208,8.59257495 4.02662795,8.76590909 3.81280945,8.76590909 C3.59899096,8.76590909 3.42565682,8.59257495 3.42565682,8.37875646 C3.42565682,8.16493796 3.59899096,7.99160383 3.81280945,7.99160383 Z M5.0831441,7.99160383 C5.29696259,7.99160383 5.47029673,8.16493796 5.47029673,8.37875646 C5.47029673,8.59257495 5.29696259,8.76590909 5.0831441,8.76590909 C4.86932561,8.76590909 4.69599147,8.59257495 4.69599147,8.37875646 C4.69599147,8.16493796 4.86932561,7.99160383 5.0831441,7.99160383 Z M3.81280945,6.63960481 C4.02662795,6.63960481 4.19996208,6.81293894 4.19996208,7.02675744 C4.19996208,7.24057593 4.02662795,7.41391007 3.81280945,7.41391007 C3.59899096,7.41391007 3.42565682,7.24057593 3.42565682,7.02675744 C3.42565682,6.81293894 3.59899096,6.63960481 3.81280945,6.63960481 Z M5.0831441,6.63960481 C5.29696259,6.63960481 5.47029673,6.81293894 5.47029673,7.02675744 C5.47029673,7.24057593 5.29696259,7.41391007 5.0831441,7.41391007 C4.86932561,7.41391007 4.69599147,7.24057593 4.69599147,7.02675744 C4.69599147,6.81293894 4.86932561,6.63960481 5.0831441,6.63960481 Z M3.81280945,5.28457513 C4.02662795,5.28457513 4.19996208,5.45790927 4.19996208,5.67172776 C4.19996208,5.88554626 4.02662795,6.05888039 3.81280945,6.05888039 C3.59899096,6.05888039 3.42565682,5.88554626 3.42565682,5.67172776 C3.42565682,5.45790927 3.59899096,5.28457513 3.81280945,5.28457513 Z M5.0831441,5.28457513 C5.29696259,5.28457513 5.47029673,5.45790927 5.47029673,5.67172776 C5.47029673,5.88554626 5.29696259,6.05888039 5.0831441,6.05888039 C4.86932561,6.05888039 4.69599147,5.88554626 4.69599147,5.67172776 C4.69599147,5.45790927 4.86932561,5.28457513 5.0831441,5.28457513 Z M3.81280945,3.92954545 C4.02662795,3.92954545 4.19996208,4.10287959 4.19996208,4.31669809 C4.19996208,4.53051658 4.02662795,4.70385072 3.81280945,4.70385072 C3.59899096,4.70385072 3.42565682,4.53051658 3.42565682,4.31669809 C3.42565682,4.10287959 3.59899096,3.92954545 3.81280945,3.92954545 Z M5.0831441,3.92954545 C5.29696259,3.92954545 5.47029673,4.10287959 5.47029673,4.31669809 C5.47029673,4.53051658 5.29696259,4.70385072 5.0831441,4.70385072 C4.86932561,4.70385072 4.69599147,4.53051658 4.69599147,4.31669809 C4.69599147,4.10287959 4.86932561,3.92954545 5.0831441,3.92954545 Z" id="Combined-Shape" fill="#A4A7B5"></path>
            </g>
            <g id="Group-42" filter="url(#filter-3)" transform="translate(4.318182, 44.909091)">
                <path d="M70.9333333,0 C72.6027395,0 73.9560606,1.3533211 73.9560606,3.02272727 L73.9560606,9.06818182 C73.9560606,10.737588 72.6027395,12.0909091 70.9333333,12.0909091 L3.02272727,12.0909091 C1.3533211,12.0909091 -4.29555381e-15,10.737588 -4.29555381e-15,9.06818182 L-4.29555381e-15,3.02272727 C-4.29555381e-15,1.3533211 1.3533211,0 3.02272727,0 L70.9333333,0 Z" id="Rectangle" fill="#FFFFFF"></path>
                <path d="M70.9333333,0 C72.6027395,0 73.9560606,1.3533211 73.9560606,3.02272727 L73.9560606,9.06818182 C73.9560606,10.737588 72.6027395,12.0909091 70.9333333,12.0909091 L3.02272727,12.0909091 C1.3533211,12.0909091 -4.29555381e-15,10.737588 -4.29555381e-15,9.06818182 L-4.29555381e-15,3.02272727 C-4.29555381e-15,1.3533211 1.3533211,0 3.02272727,0 L70.9333333,0 Z M70.9333333,0.251893939 L3.02272727,0.251893939 C1.51672858,0.251893939 0.291349301,1.45336848 0.252827812,2.95007918 L0.251893939,3.02272727 L0.251893939,9.06818182 C0.251893939,10.5741805 1.45336848,11.7995598 2.95007918,11.8380813 L3.02272727,11.8390152 L70.9333333,11.8390152 C72.439332,11.8390152 73.6647113,10.6375406 73.7032328,9.14082991 L73.7041667,9.06818182 L73.7041667,3.02272727 C73.7041667,1.51672858 72.5026921,0.291349301 71.0059814,0.252827812 L70.9333333,0.251893939 Z" id="Rectangle" fill="#F4F6F9"></path>
                <path d="M3.81280945,7.99160383 C4.02662795,7.99160383 4.19996208,8.16493796 4.19996208,8.37875646 C4.19996208,8.59257495 4.02662795,8.76590909 3.81280945,8.76590909 C3.59899096,8.76590909 3.42565682,8.59257495 3.42565682,8.37875646 C3.42565682,8.16493796 3.59899096,7.99160383 3.81280945,7.99160383 Z M5.0831441,7.99160383 C5.29696259,7.99160383 5.47029673,8.16493796 5.47029673,8.37875646 C5.47029673,8.59257495 5.29696259,8.76590909 5.0831441,8.76590909 C4.86932561,8.76590909 4.69599147,8.59257495 4.69599147,8.37875646 C4.69599147,8.16493796 4.86932561,7.99160383 5.0831441,7.99160383 Z M3.81280945,6.63960481 C4.02662795,6.63960481 4.19996208,6.81293894 4.19996208,7.02675744 C4.19996208,7.24057593 4.02662795,7.41391007 3.81280945,7.41391007 C3.59899096,7.41391007 3.42565682,7.24057593 3.42565682,7.02675744 C3.42565682,6.81293894 3.59899096,6.63960481 3.81280945,6.63960481 Z M5.0831441,6.63960481 C5.29696259,6.63960481 5.47029673,6.81293894 5.47029673,7.02675744 C5.47029673,7.24057593 5.29696259,7.41391007 5.0831441,7.41391007 C4.86932561,7.41391007 4.69599147,7.24057593 4.69599147,7.02675744 C4.69599147,6.81293894 4.86932561,6.63960481 5.0831441,6.63960481 Z M3.81280945,5.28457513 C4.02662795,5.28457513 4.19996208,5.45790927 4.19996208,5.67172776 C4.19996208,5.88554626 4.02662795,6.05888039 3.81280945,6.05888039 C3.59899096,6.05888039 3.42565682,5.88554626 3.42565682,5.67172776 C3.42565682,5.45790927 3.59899096,5.28457513 3.81280945,5.28457513 Z M5.0831441,5.28457513 C5.29696259,5.28457513 5.47029673,5.45790927 5.47029673,5.67172776 C5.47029673,5.88554626 5.29696259,6.05888039 5.0831441,6.05888039 C4.86932561,6.05888039 4.69599147,5.88554626 4.69599147,5.67172776 C4.69599147,5.45790927 4.86932561,5.28457513 5.0831441,5.28457513 Z M3.81280945,3.92954545 C4.02662795,3.92954545 4.19996208,4.10287959 4.19996208,4.31669809 C4.19996208,4.53051658 4.02662795,4.70385072 3.81280945,4.70385072 C3.59899096,4.70385072 3.42565682,4.53051658 3.42565682,4.31669809 C3.42565682,4.10287959 3.59899096,3.92954545 3.81280945,3.92954545 Z M5.0831441,3.92954545 C5.29696259,3.92954545 5.47029673,4.10287959 5.47029673,4.31669809 C5.47029673,4.53051658 5.29696259,4.70385072 5.0831441,4.70385072 C4.86932561,4.70385072 4.69599147,4.53051658 4.69599147,4.31669809 C4.69599147,4.10287959 4.86932561,3.92954545 5.0831441,3.92954545 Z" id="Combined-Shape" fill="#A4A7B5"></path>
            </g>
            <g id="Group-42-Copy" filter="url(#filter-4)" transform="translate(4.318182, 57.909091)">
                <path d="M70.9333333,0 C72.6027395,0 73.9560606,1.3533211 73.9560606,3.02272727 L73.9560606,9.06818182 C73.9560606,10.737588 72.6027395,12.0909091 70.9333333,12.0909091 L3.02272727,12.0909091 C1.3533211,12.0909091 -4.29555381e-15,10.737588 -4.29555381e-15,9.06818182 L-4.29555381e-15,3.02272727 C-4.29555381e-15,1.3533211 1.3533211,0 3.02272727,0 L70.9333333,0 Z" id="Rectangle" fill="#FFFFFF"></path>
                <path d="M70.9333333,0 C72.6027395,0 73.9560606,1.3533211 73.9560606,3.02272727 L73.9560606,9.06818182 C73.9560606,10.737588 72.6027395,12.0909091 70.9333333,12.0909091 L3.02272727,12.0909091 C1.3533211,12.0909091 -4.29555381e-15,10.737588 -4.29555381e-15,9.06818182 L-4.29555381e-15,3.02272727 C-4.29555381e-15,1.3533211 1.3533211,0 3.02272727,0 L70.9333333,0 Z M70.9333333,0.251893939 L3.02272727,0.251893939 C1.51672858,0.251893939 0.291349301,1.45336848 0.252827812,2.95007918 L0.251893939,3.02272727 L0.251893939,9.06818182 C0.251893939,10.5741805 1.45336848,11.7995598 2.95007918,11.8380813 L3.02272727,11.8390152 L70.9333333,11.8390152 C72.439332,11.8390152 73.6647113,10.6375406 73.7032328,9.14082991 L73.7041667,9.06818182 L73.7041667,3.02272727 C73.7041667,1.51672858 72.5026921,0.291349301 71.0059814,0.252827812 L70.9333333,0.251893939 Z" id="Rectangle" fill="#F4F6F9"></path>
                <path d="M3.81280945,7.99160383 C4.02662795,7.99160383 4.19996208,8.16493796 4.19996208,8.37875646 C4.19996208,8.59257495 4.02662795,8.76590909 3.81280945,8.76590909 C3.59899096,8.76590909 3.42565682,8.59257495 3.42565682,8.37875646 C3.42565682,8.16493796 3.59899096,7.99160383 3.81280945,7.99160383 Z M5.0831441,7.99160383 C5.29696259,7.99160383 5.47029673,8.16493796 5.47029673,8.37875646 C5.47029673,8.59257495 5.29696259,8.76590909 5.0831441,8.76590909 C4.86932561,8.76590909 4.69599147,8.59257495 4.69599147,8.37875646 C4.69599147,8.16493796 4.86932561,7.99160383 5.0831441,7.99160383 Z M3.81280945,6.63960481 C4.02662795,6.63960481 4.19996208,6.81293894 4.19996208,7.02675744 C4.19996208,7.24057593 4.02662795,7.41391007 3.81280945,7.41391007 C3.59899096,7.41391007 3.42565682,7.24057593 3.42565682,7.02675744 C3.42565682,6.81293894 3.59899096,6.63960481 3.81280945,6.63960481 Z M5.0831441,6.63960481 C5.29696259,6.63960481 5.47029673,6.81293894 5.47029673,7.02675744 C5.47029673,7.24057593 5.29696259,7.41391007 5.0831441,7.41391007 C4.86932561,7.41391007 4.69599147,7.24057593 4.69599147,7.02675744 C4.69599147,6.81293894 4.86932561,6.63960481 5.0831441,6.63960481 Z M3.81280945,5.28457513 C4.02662795,5.28457513 4.19996208,5.45790927 4.19996208,5.67172776 C4.19996208,5.88554626 4.02662795,6.05888039 3.81280945,6.05888039 C3.59899096,6.05888039 3.42565682,5.88554626 3.42565682,5.67172776 C3.42565682,5.45790927 3.59899096,5.28457513 3.81280945,5.28457513 Z M5.0831441,5.28457513 C5.29696259,5.28457513 5.47029673,5.45790927 5.47029673,5.67172776 C5.47029673,5.88554626 5.29696259,6.05888039 5.0831441,6.05888039 C4.86932561,6.05888039 4.69599147,5.88554626 4.69599147,5.67172776 C4.69599147,5.45790927 4.86932561,5.28457513 5.0831441,5.28457513 Z M3.81280945,3.92954545 C4.02662795,3.92954545 4.19996208,4.10287959 4.19996208,4.31669809 C4.19996208,4.53051658 4.02662795,4.70385072 3.81280945,4.70385072 C3.59899096,4.70385072 3.42565682,4.53051658 3.42565682,4.31669809 C3.42565682,4.10287959 3.59899096,3.92954545 3.81280945,3.92954545 Z M5.0831441,3.92954545 C5.29696259,3.92954545 5.47029673,4.10287959 5.47029673,4.31669809 C5.47029673,4.53051658 5.29696259,4.70385072 5.0831441,4.70385072 C4.86932561,4.70385072 4.69599147,4.53051658 4.69599147,4.31669809 C4.69599147,4.10287959 4.86932561,3.92954545 5.0831441,3.92954545 Z" id="Combined-Shape" fill="#A4A7B5"></path>
            </g>
            <path d="M40.673913,30 C41.5023402,30 42.173913,30.6715729 42.173913,31.5 C42.173913,32.3284271 41.5023402,33 40.673913,33 L10.5,33 C9.67157288,33 9,32.3284271 9,31.5 C9,30.6715729 9.67157288,30 10.5,30 L40.673913,30 Z" id="Path" fill="#C1C3CB"></path>
            <path d="M44.673913,49.5 C45.5023402,49.5 46.173913,50.1715729 46.173913,51 C46.173913,51.8284271 45.5023402,52.5 44.673913,52.5 L14.5,52.5 C13.6715729,52.5 13,51.8284271 13,51 C13,50.1715729 13.6715729,49.5 14.5,49.5 L44.673913,49.5 Z" id="Path-Copy-37" fill="#C1C3CB"></path>
            <path d="M44.673913,62.5 C45.5023402,62.5 46.173913,63.1715729 46.173913,64 C46.173913,64.8284271 45.5023402,65.5 44.673913,65.5 L14.5,65.5 C13.6715729,65.5 13,64.8284271 13,64 C13,63.1715729 13.6715729,62.5 14.5,62.5 L44.673913,62.5 Z" id="Path-Copy-38" fill="#C1C3CB"></path>
        </g>
    </g>
</svg>