<?xml version="1.0" encoding="UTF-8"?>
<svg width="134px" height="76px" viewBox="0 0 134 76" version="1.1" xmlns="http://www.w3.org/2000/svg" xmlns:xlink="http://www.w3.org/1999/xlink">
    <title>FileSelector</title>
    <g id="pages" stroke="none" stroke-width="1" fill="none" fill-rule="evenodd">
        <g id="FileSelector" fill-rule="nonzero">
            <g id="Group-194" transform="translate(-0.000000, -0.000000)">
                <g id="Group-193" transform="translate(0.000000, 2.994652)">
                    <path d="M67.828877,0 C70.3097283,0 72.3208556,2.01112733 72.3208556,4.49197861 C72.3208556,6.97282989 70.3097283,8.98395722 67.828877,8.98395722 L4.49197861,8.98395722 C2.01112733,8.98395722 0,6.97282989 0,4.49197861 C0,2.01112733 2.01112733,0 4.49197861,0 L67.828877,0 Z" id="Path" fill="#F3F4F5"></path>
                    <path d="M4.36537067,8.98220735 C4.40743138,8.98337138 4.44963658,8.98395722 4.49197861,8.98395722 L4.36552941,8.98395722 L4.35301067,8.98203728 C4.39925853,8.98331656 4.44558414,8.98395722 4.49197861,8.98395722 L5.03923824,8.98395722 L5.03923824,8.53475936 L4.49197861,8.53475936 C4.4538662,8.53475936 4.41582188,8.53423323 4.37785215,8.53318293 L4.36537067,8.98220735 Z M6.38683183,8.53475936 L5.71303503,8.53475936 L5.71303503,8.98395722 L6.38683183,8.98395722 L6.38683183,8.53475936 Z M7.73442541,8.53475936 L7.06062862,8.53475936 L7.06062862,8.98395722 L7.73442541,8.98395722 L7.73442541,8.53475936 Z M9.08201899,8.53475936 L8.4082222,8.53475936 L8.4082222,8.98395722 L9.08201899,8.98395722 L9.08201899,8.53475936 Z M10.4296126,8.53475936 L9.75581578,8.53475936 L9.75581578,8.98395722 L10.4296126,8.98395722 L10.4296126,8.53475936 Z M11.7772062,8.53475936 L11.1034094,8.53475936 L11.1034094,8.98395722 L11.7772062,8.98395722 L11.7772062,8.53475936 Z M13.1247997,8.53475936 L12.4510029,8.53475936 L12.4510029,8.98395722 L13.1247997,8.98395722 L13.1247997,8.53475936 Z M14.4723933,8.53475936 L13.7985965,8.53475936 L13.7985965,8.98395722 L14.4723933,8.98395722 L14.4723933,8.53475936 Z M15.8199869,8.53475936 L15.1461901,8.53475936 L15.1461901,8.98395722 L15.8199869,8.98395722 L15.8199869,8.53475936 Z M17.1675805,8.53475936 L16.4937837,8.53475936 L16.4937837,8.98395722 L17.1675805,8.98395722 L17.1675805,8.53475936 Z M18.5151741,8.53475936 L17.8413773,8.53475936 L17.8413773,8.98395722 L18.5151741,8.98395722 L18.5151741,8.53475936 Z M67.0285431,8.53475936 L66.3547463,8.53475936 L66.3547463,8.98395722 L67.0285431,8.98395722 L67.0285431,8.53475936 Z M65.6809495,8.53475936 L65.0071527,8.53475936 L65.0071527,8.98395722 L65.6809495,8.98395722 L65.6809495,8.53475936 Z M64.3333559,8.53475936 L63.6595591,8.53475936 L63.6595591,8.98395722 L64.3333559,8.98395722 L64.3333559,8.53475936 Z M62.9857623,8.53475936 L62.3119655,8.53475936 L62.3119655,8.98395722 L62.9857623,8.98395722 L62.9857623,8.53475936 Z M61.6381687,8.53475936 L60.9643719,8.53475936 L60.9643719,8.98395722 L61.6381687,8.98395722 L61.6381687,8.53475936 Z M60.2905751,8.53475936 L59.6167784,8.53475936 L59.6167784,8.98395722 L60.2905751,8.98395722 L60.2905751,8.53475936 Z M58.9429816,8.53475936 L58.2691848,8.53475936 L58.2691848,8.98395722 L58.9429816,8.98395722 L58.9429816,8.53475936 Z M57.595388,8.53475936 L56.9215912,8.53475936 L56.9215912,8.98395722 L57.595388,8.98395722 L57.595388,8.53475936 Z M56.2477944,8.53475936 L55.5739976,8.53475936 L55.5739976,8.98395722 L56.2477944,8.98395722 L56.2477944,8.53475936 Z M54.9002008,8.53475936 L54.226404,8.53475936 L54.226404,8.98395722 L54.9002008,8.98395722 L54.9002008,8.53475936 Z M53.5526072,8.53475936 L52.8788104,8.53475936 L52.8788104,8.98395722 L53.5526072,8.98395722 L53.5526072,8.53475936 Z M52.2050136,8.53475936 L51.5312169,8.53475936 L51.5312169,8.98395722 L52.2050136,8.98395722 L52.2050136,8.53475936 Z M50.8574201,8.53475936 L50.1836233,8.53475936 L50.1836233,8.98395722 L50.8574201,8.98395722 L50.8574201,8.53475936 Z M49.5098265,8.53475936 L48.8360297,8.53475936 L48.8360297,8.98395722 L49.5098265,8.98395722 L49.5098265,8.53475936 Z M48.1622329,8.53475936 L47.4884361,8.53475936 L47.4884361,8.98395722 L48.1622329,8.98395722 L48.1622329,8.53475936 Z M46.8146393,8.53475936 L46.1408425,8.53475936 L46.1408425,8.98395722 L46.8146393,8.98395722 L46.8146393,8.53475936 Z M45.4670457,8.53475936 L44.7932489,8.53475936 L44.7932489,8.98395722 L45.4670457,8.98395722 L45.4670457,8.53475936 Z M44.1194521,8.53475936 L43.4456554,8.53475936 L43.4456554,8.98395722 L44.1194521,8.98395722 L44.1194521,8.53475936 Z M42.7718586,8.53475936 L42.0980618,8.53475936 L42.0980618,8.98395722 L42.7718586,8.98395722 L42.7718586,8.53475936 Z M41.424265,8.53475936 L40.7504682,8.53475936 L40.7504682,8.98395722 L41.424265,8.98395722 L41.424265,8.53475936 Z M40.0766714,8.53475936 L39.4028746,8.53475936 L39.4028746,8.98395722 L40.0766714,8.98395722 L40.0766714,8.53475936 Z M38.7290778,8.53475936 L38.055281,8.53475936 L38.055281,8.98395722 L38.7290778,8.98395722 L38.7290778,8.53475936 Z M37.3814842,8.53475936 L36.7076874,8.53475936 L36.7076874,8.98395722 L37.3814842,8.98395722 L37.3814842,8.53475936 Z M36.0338906,8.53475936 L35.3600939,8.53475936 L35.3600939,8.98395722 L36.0338906,8.98395722 L36.0338906,8.53475936 Z M34.6862971,8.53475936 L34.0125003,8.53475936 L34.0125003,8.98395722 L34.6862971,8.98395722 L34.6862971,8.53475936 Z M33.3387035,8.53475936 L32.6649067,8.53475936 L32.6649067,8.98395722 L33.3387035,8.98395722 L33.3387035,8.53475936 Z M31.9911099,8.53475936 L31.3173131,8.53475936 L31.3173131,8.98395722 L31.9911099,8.98395722 L31.9911099,8.53475936 Z M30.6435163,8.53475936 L29.9697195,8.53475936 L29.9697195,8.98395722 L30.6435163,8.98395722 L30.6435163,8.53475936 Z M29.2959227,8.53475936 L28.6221259,8.53475936 L28.6221259,8.98395722 L29.2959227,8.98395722 L29.2959227,8.53475936 Z M27.9483292,8.53475936 L27.2745324,8.53475936 L27.2745324,8.98395722 L27.9483292,8.98395722 L27.9483292,8.53475936 Z M26.6007356,8.53475936 L25.9269388,8.53475936 L25.9269388,8.98395722 L26.6007356,8.98395722 L26.6007356,8.53475936 Z M25.253142,8.53475936 L24.5793452,8.53475936 L24.5793452,8.98395722 L25.253142,8.98395722 L25.253142,8.53475936 Z M23.9055484,8.53475936 L23.2317516,8.53475936 L23.2317516,8.98395722 L23.9055484,8.98395722 L23.9055484,8.53475936 Z M22.5579548,8.53475936 L21.884158,8.53475936 L21.884158,8.98395722 L22.5579548,8.98395722 L22.5579548,8.53475936 Z M21.2103612,8.53475936 L20.5365644,8.53475936 L20.5365644,8.98395722 L21.2103612,8.98395722 L21.2103612,8.53475936 Z M19.8627677,8.53475936 L19.1889709,8.53475936 L19.1889709,8.98395722 L19.8627677,8.98395722 L19.8627677,8.53475936 Z M68.3844407,8.94993995 L68.3295169,8.50411252 C68.167202,8.52413649 68.0029782,8.5344095 67.8374057,8.53475057 L67.7023077,8.53475936 L67.702372,8.98395722 L67.8383632,8.98394748 L67.9596715,8.98224528 C68.1210507,8.97804146 68.2809747,8.96610928 68.4395136,8.94655112 L68.3888021,8.98395722 L67.828877,8.98395722 C68.0169896,8.98395722 68.2024015,8.97239413 68.3844407,8.94993995 Z M3.04252123,8.74496884 C3.25337263,8.8168084 3.47127615,8.87340863 3.69491891,8.91345666 L3.77406269,8.4712859 C3.57426795,8.43550654 3.37825651,8.38480821 3.18730072,8.31974227 L3.04252123,8.74496884 Z M69.6936079,8.57982493 L69.5069257,8.1712561 C69.323173,8.25521304 69.1331843,8.32527546 68.9383211,8.38075096 L69.0611888,8.81281839 C69.2792111,8.75075673 69.4904707,8.672639 69.6936079,8.57982493 Z M1.84790657,8.12372361 C2.02895265,8.25575939 2.22024678,8.37458611 2.42037178,8.47878659 L2.627829,8.08036442 C2.44829263,7.98688437 2.27601804,7.87998783 2.11243982,7.76067965 L1.84790657,8.12372361 Z M70.8094173,7.85273706 L70.5113644,7.51666679 C70.3598806,7.65112198 70.1985581,7.77408842 70.0288057,7.88442034 L70.2735844,8.26106622 C70.4624788,8.13829402 70.6415672,8.00170695 70.8094173,7.85273706 Z M0.882228646,7.16595064 C1.01638116,7.34675293 1.16379505,7.51712622 1.32303196,7.67563211 L1.639877,7.35721738 C1.49631754,7.21431159 1.3635932,7.06085976 1.24293105,6.89823344 L0.882228646,7.16595064 Z M71.6806957,6.80443092 L71.2958155,6.57281498 C71.1914663,6.74625945 71.0741877,6.91169678 70.945076,7.0677046 L71.2911955,7.35402605 C71.4341914,7.18123417 71.5645006,6.99756002 71.6806957,6.80443092 Z M0.254959436,5.98748521 C0.330269439,6.20085075 0.421239804,6.4068244 0.526489878,6.60402551 L0.922839967,6.39263643 C0.827636947,6.21427407 0.745946166,6.0289276 0.67855379,5.83799761 L0.254959436,5.98748521 Z M72.1935206,5.55833936 L71.757077,5.45205825 C71.7091292,5.64899774 71.6464515,5.84149264 71.5696799,6.02821292 L71.9851735,6.19892838 C72.0699786,5.99265519 72.1398747,5.7786784 72.1935206,5.55833936 Z M0.00281381736,4.65247582 C0.0108192006,4.88043468 0.0358105307,5.10407261 0.0765609482,5.32216275 L0.518139765,5.23978021 C0.481158352,5.04189523 0.458896415,4.84052901 0.451737666,4.63678814 L0.00281381736,4.65247582 Z M72.3208556,4.21302674 L72.3208556,4.49197861 L72.3202027,4.41460665 C72.3190648,4.34723229 72.3164436,4.2802191 72.3123703,4.21359833 L71.8640075,4.24097629 C71.8690107,4.32279344 71.8715669,4.40500333 71.8716554,4.48753871 C71.8716575,4.61225885 71.8664161,4.73242311 71.8558568,4.85218973 L72.3033074,4.89177198 C72.3126958,4.78532094 72.318371,4.67780368 72.3202027,4.56935057 L72.3208556,4.49197861 L72.3208556,4.8931123 L72.3208556,4.21302674 Z M0.15855146,3.30478521 C0.0999117937,3.51932306 0.0567779285,3.74026407 0.0304290924,3.96632902 L0.476613508,4.01827312 C0.500150928,3.81635535 0.538725419,3.61759267 0.591863118,3.42319013 L0.15855146,3.30478521 Z M72.2171513,3.52789602 C72.1686358,3.30604862 72.1037256,3.0903336 72.0237544,2.88208471 L71.6044596,3.04323861 C71.6768135,3.23166976 71.7349591,3.42560026 71.7782932,3.62372055 L72.2171513,3.52789602 Z M0.710704209,2.06612434 C0.589630494,2.25445638 0.482242474,2.45242255 0.389944908,2.65861807 L0.79989631,2.84224427 C0.88259868,2.65747084 0.979130588,2.47924662 1.08857849,2.3090024 L0.710704209,2.06612434 Z M71.7303,2.26404915 C71.6182681,2.06828756 71.4919266,1.88176689 71.3527011,1.70591278 L71.0005412,1.98477128 C71.1262322,2.14353334 71.2398793,2.31146678 71.3404182,2.48714306 L71.7303,2.26404915 Z M1.59941826,1.0551385 C1.42737702,1.20008373 1.26637159,1.35771088 1.11784285,1.52657907 L1.45523602,1.8231336 C1.58899534,1.67106873 1.73397117,1.52914704 1.88884509,1.39866555 L1.59941826,1.0551385 Z M70.898627,1.21255133 C70.7347111,1.05905282 70.5592802,0.917701412 70.3737701,0.789932914 L70.1189195,1.15983811 C70.2856925,1.27469757 70.4437108,1.40195355 70.591579,1.54042362 L70.898627,1.21255133 Z M2.73876528,0.355006854 C2.5307627,0.443266975 2.3307859,0.546755959 2.14023377,0.664074929 L2.37566986,1.04663025 C2.54796389,0.940547646 2.72799765,0.847532764 2.91434539,0.768468293 L2.73876528,0.355006854 Z M69.7880636,0.448630096 C69.5871244,0.3510855 69.3778201,0.268078483 69.1615179,0.200976287 L69.0284637,0.630016269 C69.2218946,0.690025461 69.4101863,0.764516473 69.5919614,0.85276209 L69.7880636,0.448630096 Z M4.0544476,0.0210362063 C3.82782448,0.0429421062 3.60612699,0.0816874176 3.39062179,0.136005496 L3.50040511,0.571581368 C3.69577037,0.522339384 3.89527725,0.487709611 4.09774384,0.468142637 L4.0544476,0.0210362063 Z M67.828877,-2.55339422e-14 L67.828877,0.449197861 C68.0331034,0.449197861 68.2352743,0.464304681 68.4343276,0.49416895 L68.5010867,0.049959598 C68.2818025,0.0170544275 68.0573314,-2.55339422e-14 67.828877,-2.55339422e-14 L68.5085134,-2.55339422e-14 L68.5676234,0.0549147385 C68.3244836,0.0184360809 68.0777579,-2.55339422e-14 67.828877,-2.55339422e-14 Z M10.809224,-2.55339422e-14 L10.1354273,-2.55339422e-14 L10.1354273,0.449197861 L10.809224,0.449197861 L10.809224,-2.55339422e-14 Z M12.1568176,-2.55339422e-14 L11.4830208,-2.55339422e-14 L11.4830208,0.449197861 L12.1568176,0.449197861 L12.1568176,-2.55339422e-14 Z M13.5044112,-2.55339422e-14 L12.8306144,-2.55339422e-14 L12.8306144,0.449197861 L13.5044112,0.449197861 L13.5044112,-2.55339422e-14 Z M14.8520048,-2.55339422e-14 L14.178208,-2.55339422e-14 L14.178208,0.449197861 L14.8520048,0.449197861 L14.8520048,-2.55339422e-14 Z M16.1995984,-2.55339422e-14 L15.5258016,-2.55339422e-14 L15.5258016,0.449197861 L16.1995984,0.449197861 L16.1995984,-2.55339422e-14 Z M17.547192,-2.55339422e-14 L16.8733952,-2.55339422e-14 L16.8733952,0.449197861 L17.547192,0.449197861 L17.547192,-2.55339422e-14 Z M18.8947855,-2.55339422e-14 L18.2209888,-2.55339422e-14 L18.2209888,0.449197861 L18.8947855,0.449197861 L18.8947855,-2.55339422e-14 Z M20.2423791,-2.55339422e-14 L19.5685823,-2.55339422e-14 L19.5685823,0.449197861 L20.2423791,0.449197861 L20.2423791,-2.55339422e-14 Z M21.5899727,-2.55339422e-14 L20.9161759,-2.55339422e-14 L20.9161759,0.449197861 L21.5899727,0.449197861 L21.5899727,-2.55339422e-14 Z M22.9375663,-2.55339422e-14 L22.2637695,-2.55339422e-14 L22.2637695,0.449197861 L22.9375663,0.449197861 L22.9375663,-2.55339422e-14 Z M24.2851599,-2.55339422e-14 L23.6113631,-2.55339422e-14 L23.6113631,0.449197861 L24.2851599,0.449197861 L24.2851599,-2.55339422e-14 Z M25.6327535,-2.55339422e-14 L24.9589567,-2.55339422e-14 L24.9589567,0.449197861 L25.6327535,0.449197861 L25.6327535,-2.55339422e-14 Z M26.980347,-2.55339422e-14 L26.3065503,-2.55339422e-14 L26.3065503,0.449197861 L26.980347,0.449197861 L26.980347,-2.55339422e-14 Z M28.3279406,-2.55339422e-14 L27.6541438,-2.55339422e-14 L27.6541438,0.449197861 L28.3279406,0.449197861 L28.3279406,-2.55339422e-14 Z M29.6755342,-2.55339422e-14 L29.0017374,-2.55339422e-14 L29.0017374,0.449197861 L29.6755342,0.449197861 L29.6755342,-2.55339422e-14 Z M31.0231278,-2.55339422e-14 L30.349331,-2.55339422e-14 L30.349331,0.449197861 L31.0231278,0.449197861 L31.0231278,-2.55339422e-14 Z M32.3707214,-2.55339422e-14 L31.6969246,-2.55339422e-14 L31.6969246,0.449197861 L32.3707214,0.449197861 L32.3707214,-2.55339422e-14 Z M33.718315,-2.55339422e-14 L33.0445182,-2.55339422e-14 L33.0445182,0.449197861 L33.718315,0.449197861 L33.718315,-2.55339422e-14 Z M9.46163046,-2.55339422e-14 L8.78783367,-2.55339422e-14 L8.78783367,0.449197861 L9.46163046,0.449197861 L9.46163046,-2.55339422e-14 Z M36.4135021,-2.55339422e-14 L35.7397053,-2.55339422e-14 L35.7397053,0.449197861 L36.4135021,0.449197861 L36.4135021,-2.55339422e-14 Z M37.7610957,-2.55339422e-14 L37.0872989,-2.55339422e-14 L37.0872989,0.449197861 L37.7610957,0.449197861 L37.7610957,-2.55339422e-14 Z M39.1086893,-2.55339422e-14 L38.4348925,-2.55339422e-14 L38.4348925,0.449197861 L39.1086893,0.449197861 L39.1086893,-2.55339422e-14 Z M40.4562829,-2.55339422e-14 L39.7824861,-2.55339422e-14 L39.7824861,0.449197861 L40.4562829,0.449197861 L40.4562829,-2.55339422e-14 Z M41.8038765,-2.55339422e-14 L41.1300797,-2.55339422e-14 L41.1300797,0.449197861 L41.8038765,0.449197861 L41.8038765,-2.55339422e-14 Z M43.15147,-2.55339422e-14 L42.4776732,-2.55339422e-14 L42.4776732,0.449197861 L43.15147,0.449197861 L43.15147,-2.55339422e-14 Z M44.4990636,-2.55339422e-14 L43.8252668,-2.55339422e-14 L43.8252668,0.449197861 L44.4990636,0.449197861 L44.4990636,-2.55339422e-14 Z M45.8466572,-2.55339422e-14 L45.1728604,-2.55339422e-14 L45.1728604,0.449197861 L45.8466572,0.449197861 L45.8466572,-2.55339422e-14 Z M47.1942508,-2.55339422e-14 L46.520454,-2.55339422e-14 L46.520454,0.449197861 L47.1942508,0.449197861 L47.1942508,-2.55339422e-14 Z M48.5418444,-2.55339422e-14 L47.8680476,-2.55339422e-14 L47.8680476,0.449197861 L48.5418444,0.449197861 L48.5418444,-2.55339422e-14 Z M49.889438,-2.55339422e-14 L49.2156412,-2.55339422e-14 L49.2156412,0.449197861 L49.889438,0.449197861 L49.889438,-2.55339422e-14 Z M51.2370315,-2.55339422e-14 L50.5632347,-2.55339422e-14 L50.5632347,0.449197861 L51.2370315,0.449197861 L51.2370315,-2.55339422e-14 Z M52.5846251,-2.55339422e-14 L51.9108283,-2.55339422e-14 L51.9108283,0.449197861 L52.5846251,0.449197861 L52.5846251,-2.55339422e-14 Z M53.9322187,-2.55339422e-14 L53.2584219,-2.55339422e-14 L53.2584219,0.449197861 L53.9322187,0.449197861 L53.9322187,-2.55339422e-14 Z M55.2798123,-2.55339422e-14 L54.6060155,-2.55339422e-14 L54.6060155,0.449197861 L55.2798123,0.449197861 L55.2798123,-2.55339422e-14 Z M56.6274059,-2.55339422e-14 L55.9536091,-2.55339422e-14 L55.9536091,0.449197861 L56.6274059,0.449197861 L56.6274059,-2.55339422e-14 Z M57.9749994,-2.55339422e-14 L57.3012027,-2.55339422e-14 L57.3012027,0.449197861 L57.9749994,0.449197861 L57.9749994,-2.55339422e-14 Z M59.322593,-2.55339422e-14 L58.6487962,-2.55339422e-14 L58.6487962,0.449197861 L59.322593,0.449197861 L59.322593,-2.55339422e-14 Z M60.6701866,-2.55339422e-14 L59.9963898,-2.55339422e-14 L59.9963898,0.449197861 L60.6701866,0.449197861 L60.6701866,-2.55339422e-14 Z M62.0177802,-2.55339422e-14 L61.3439834,-2.55339422e-14 L61.3439834,0.449197861 L62.0177802,0.449197861 L62.0177802,-2.55339422e-14 Z M63.3653738,-2.55339422e-14 L62.691577,-2.55339422e-14 L62.691577,0.449197861 L63.3653738,0.449197861 L63.3653738,-2.55339422e-14 Z M64.7129674,-2.55339422e-14 L64.0391706,-2.55339422e-14 L64.0391706,0.449197861 L64.7129674,0.449197861 L64.7129674,-2.55339422e-14 Z M66.0605609,-2.55339422e-14 L65.3867642,-2.55339422e-14 L65.3867642,0.449197861 L66.0605609,0.449197861 L66.0605609,-2.55339422e-14 Z M67.4081545,-2.55339422e-14 L66.7343577,-2.55339422e-14 L66.7343577,0.449197861 L67.4081545,0.449197861 L67.4081545,-2.55339422e-14 Z M8.11403688,-2.55339422e-14 L7.44024009,-2.55339422e-14 L7.44024009,0.449197861 L8.11403688,0.449197861 L8.11403688,-2.55339422e-14 Z M6.7664433,-2.55339422e-14 L6.09264651,-2.55339422e-14 L6.09264651,0.449197861 L6.7664433,0.449197861 L6.7664433,-2.55339422e-14 Z M5.41884972,-2.55339422e-14 L4.74505292,-2.55339422e-14 L4.74505292,0.449197861 L5.41884972,0.449197861 L5.41884972,-2.55339422e-14 Z M35.0659085,-2.55339422e-14 L34.3921117,-2.55339422e-14 L34.3921117,0.449197861 L35.0659085,0.449197861 L35.0659085,-2.55339422e-14 Z" id="Rectangle" fill="#D0D5DD"></path>
                    <g id="Group-12" transform="translate(4.267380, 2.919786)">
                        <g id="uploading-files">
                            <path d="M3.50251743,1.33095663 C3.39687275,1.33095663 3.29164837,1.34818025 3.19187041,1.38139288 C3.21211496,1.29653563 3.22231604,1.20935798 3.22231604,1.12080558 C3.22231604,0.502786378 2.71952091,0 2.10151046,0 C1.50412984,0 1.01440786,0.469792663 0.982368577,1.05931889 C0.426554086,1.12794196 0,1.60460831 0,2.17156081 C0,2.78958001 0.502795134,3.29236639 1.12080558,3.29236639 L3.50251743,3.29236639 C4.04327986,3.29236639 4.48322232,2.85242393 4.48322232,2.31166151 C4.48322232,1.77089908 4.04327986,1.33095663 3.50251743,1.33095663 Z" id="Path" fill="#71D2F6"></path>
                            <path d="M3.57256778,3.15226569 L1.19085593,3.15226569 C0.572845483,3.15226569 0.0700503487,2.64947931 0.0700503487,2.03146011 C0.0700503487,1.88057166 0.100268318,1.73608406 0.155091472,1.60397786 C0.0565043625,1.77103043 2.3642539e-13,1.96530631 2.3642539e-13,2.17156081 C2.3642539e-13,2.78958001 0.502795134,3.29236639 1.12080558,3.29236639 L3.50251743,3.29236639 C3.91400194,3.29236639 4.2670557,3.03760203 4.41236639,2.67755199 C4.24044532,2.96182506 3.92833599,3.15226569 3.57256778,3.15226569 Z" id="Path" fill-opacity="0.102272727" fill="#000000"></path>
                            <g id="Group-23" transform="translate(1.576133, 1.401007)" fill="#FFFFFF">
                                <path d="M1.10028958,0.510868437 L0.609937142,0.0205159959 C0.582573725,-0.00683866529 0.538231854,-0.00683866529 0.510868437,0.0205159959 L0.0205159959,0.510868437 C-0.0227313381,0.554115771 0.00908903274,0.630453138 0.0700503487,0.630453138 L0.210151046,0.630453138 L0.210151046,1.33095663 C0.210151046,1.36964193 0.24151609,1.40100697 0.280201395,1.40100697 L0.840604184,1.40100697 C0.879289489,1.40100697 0.910654533,1.36964193 0.910654533,1.33095663 L0.910654533,0.630453138 L1.05075523,0.630453138 C1.11171655,0.630453138 1.14353692,0.554115771 1.10028958,0.510868437 Z" id="Path"></path>
                            </g>
                        </g>
                    </g>
                </g>
                <path d="M14.973262,8.48484848 C14.4219617,8.48484848 13.9750446,8.0379313 13.9750446,7.48663102 C13.9750446,6.93533073 14.4219617,6.48841355 14.973262,6.48841355 L59.2969697,6.48841355 C59.84827,6.48841355 60.2951872,6.93533073 60.2951872,7.48663102 C60.2951872,8.0379313 59.84827,8.48484848 59.2969697,8.48484848 L14.973262,8.48484848 Z" id="Line-12" fill="#8D8F96"></path>
                <path d="M28.6089127,1.31764706 C28.2450545,1.31764706 27.9500891,1.02268172 27.9500891,0.658823529 C27.9500891,0.294965341 28.2450545,-1.45290791e-13 28.6089127,-1.45290791e-13 L42.7736185,-1.45290791e-13 C43.1374767,-1.45290791e-13 43.4324421,0.294965341 43.4324421,0.658823529 C43.4324421,1.02268172 43.1374767,1.31764706 42.7736185,1.31764706 L28.6089127,1.31764706 Z" id="Line-12" fill="#A4A7B5"></path>
            </g>
            <g id="Group-194-Copy" transform="translate(64.000000, 15.000000)">
                <g id="Group-193" transform="translate(0.000000, 0.165289)">
                    <path d="M65.5165289,0 C67.9128057,0 69.8553719,1.94256617 69.8553719,4.33884298 C69.8553719,6.73511978 67.9128057,8.67768595 65.5165289,8.67768595 L4.33884298,8.67768595 C1.94256617,8.67768595 0,6.73511978 0,4.33884298 C0,1.94256617 1.94256617,0 4.33884298,0 L65.5165289,0 Z" id="Path" fill="#EDF5FC"></path>
                    <path d="M4.21655122,8.67599574 C4.25717803,8.67712008 4.29794442,8.67768595 4.33884298,8.67768595 L4.21670455,8.67768595 L4.20461258,8.67583146 C4.24928381,8.67706714 4.29403013,8.67768595 4.33884298,8.67768595 L4.86744603,8.67768595 L4.86744603,8.24380165 L4.33884298,8.24380165 C4.30202986,8.24380165 4.2652825,8.24329346 4.22860719,8.24227896 L4.21655122,8.67599574 Z M6.16909892,8.24380165 L5.51827248,8.24380165 L5.51827248,8.67768595 L6.16909892,8.67768595 L6.16909892,8.24380165 Z M7.47075182,8.24380165 L6.81992537,8.24380165 L6.81992537,8.67768595 L7.47075182,8.67768595 L7.47075182,8.24380165 Z M8.77240471,8.24380165 L8.12157826,8.24380165 L8.12157826,8.67768595 L8.77240471,8.67768595 L8.77240471,8.24380165 Z M10.0740576,8.24380165 L9.42323115,8.24380165 L9.42323115,8.67768595 L10.0740576,8.67768595 L10.0740576,8.24380165 Z M11.3757105,8.24380165 L10.724884,8.24380165 L10.724884,8.67768595 L11.3757105,8.67768595 L11.3757105,8.24380165 Z M12.6773634,8.24380165 L12.0265369,8.24380165 L12.0265369,8.67768595 L12.6773634,8.67768595 L12.6773634,8.24380165 Z M13.9790163,8.24380165 L13.3281898,8.24380165 L13.3281898,8.67768595 L13.9790163,8.67768595 L13.9790163,8.24380165 Z M15.2806692,8.24380165 L14.6298427,8.24380165 L14.6298427,8.67768595 L15.2806692,8.67768595 L15.2806692,8.24380165 Z M16.5823221,8.24380165 L15.9314956,8.24380165 L15.9314956,8.67768595 L16.5823221,8.67768595 L16.5823221,8.24380165 Z M17.883975,8.24380165 L17.2331485,8.24380165 L17.2331485,8.67768595 L17.883975,8.67768595 L17.883975,8.24380165 Z M64.7434791,8.24380165 L64.0926526,8.24380165 L64.0926526,8.67768595 L64.7434791,8.67768595 L64.7434791,8.24380165 Z M63.4418262,8.24380165 L62.7909997,8.24380165 L62.7909997,8.67768595 L63.4418262,8.67768595 L63.4418262,8.24380165 Z M62.1401733,8.24380165 L61.4893469,8.24380165 L61.4893469,8.67768595 L62.1401733,8.67768595 L62.1401733,8.24380165 Z M60.8385204,8.24380165 L60.187694,8.24380165 L60.187694,8.67768595 L60.8385204,8.67768595 L60.8385204,8.24380165 Z M59.5368675,8.24380165 L58.8860411,8.24380165 L58.8860411,8.67768595 L59.5368675,8.67768595 L59.5368675,8.24380165 Z M58.2352146,8.24380165 L57.5843882,8.24380165 L57.5843882,8.67768595 L58.2352146,8.67768595 L58.2352146,8.24380165 Z M56.9335617,8.24380165 L56.2827353,8.24380165 L56.2827353,8.67768595 L56.9335617,8.67768595 L56.9335617,8.24380165 Z M55.6319088,8.24380165 L54.9810824,8.24380165 L54.9810824,8.67768595 L55.6319088,8.67768595 L55.6319088,8.24380165 Z M54.3302559,8.24380165 L53.6794295,8.24380165 L53.6794295,8.67768595 L54.3302559,8.67768595 L54.3302559,8.24380165 Z M53.0286031,8.24380165 L52.3777766,8.24380165 L52.3777766,8.67768595 L53.0286031,8.67768595 L53.0286031,8.24380165 Z M51.7269502,8.24380165 L51.0761237,8.24380165 L51.0761237,8.67768595 L51.7269502,8.67768595 L51.7269502,8.24380165 Z M50.4252973,8.24380165 L49.7744708,8.24380165 L49.7744708,8.67768595 L50.4252973,8.67768595 L50.4252973,8.24380165 Z M49.1236444,8.24380165 L48.4728179,8.24380165 L48.4728179,8.67768595 L49.1236444,8.67768595 L49.1236444,8.24380165 Z M47.8219915,8.24380165 L47.171165,8.24380165 L47.171165,8.67768595 L47.8219915,8.67768595 L47.8219915,8.24380165 Z M46.5203386,8.24380165 L45.8695121,8.24380165 L45.8695121,8.67768595 L46.5203386,8.67768595 L46.5203386,8.24380165 Z M45.2186857,8.24380165 L44.5678593,8.24380165 L44.5678593,8.67768595 L45.2186857,8.67768595 L45.2186857,8.24380165 Z M43.9170328,8.24380165 L43.2662064,8.24380165 L43.2662064,8.67768595 L43.9170328,8.67768595 L43.9170328,8.24380165 Z M42.6153799,8.24380165 L41.9645535,8.24380165 L41.9645535,8.67768595 L42.6153799,8.67768595 L42.6153799,8.24380165 Z M41.313727,8.24380165 L40.6629006,8.24380165 L40.6629006,8.67768595 L41.313727,8.67768595 L41.313727,8.24380165 Z M40.0120741,8.24380165 L39.3612477,8.24380165 L39.3612477,8.67768595 L40.0120741,8.67768595 L40.0120741,8.24380165 Z M38.7104212,8.24380165 L38.0595948,8.24380165 L38.0595948,8.67768595 L38.7104212,8.67768595 L38.7104212,8.24380165 Z M37.4087683,8.24380165 L36.7579419,8.24380165 L36.7579419,8.67768595 L37.4087683,8.67768595 L37.4087683,8.24380165 Z M36.1071155,8.24380165 L35.456289,8.24380165 L35.456289,8.67768595 L36.1071155,8.67768595 L36.1071155,8.24380165 Z M34.8054626,8.24380165 L34.1546361,8.24380165 L34.1546361,8.67768595 L34.8054626,8.67768595 L34.8054626,8.24380165 Z M33.5038097,8.24380165 L32.8529832,8.24380165 L32.8529832,8.67768595 L33.5038097,8.67768595 L33.5038097,8.24380165 Z M32.2021568,8.24380165 L31.5513303,8.24380165 L31.5513303,8.67768595 L32.2021568,8.67768595 L32.2021568,8.24380165 Z M30.9005039,8.24380165 L30.2496774,8.24380165 L30.2496774,8.67768595 L30.9005039,8.67768595 L30.9005039,8.24380165 Z M29.598851,8.24380165 L28.9480245,8.24380165 L28.9480245,8.67768595 L29.598851,8.67768595 L29.598851,8.24380165 Z M28.2971981,8.24380165 L27.6463717,8.24380165 L27.6463717,8.67768595 L28.2971981,8.67768595 L28.2971981,8.24380165 Z M26.9955452,8.24380165 L26.3447188,8.24380165 L26.3447188,8.67768595 L26.9955452,8.67768595 L26.9955452,8.24380165 Z M25.6938923,8.24380165 L25.0430659,8.24380165 L25.0430659,8.67768595 L25.6938923,8.67768595 L25.6938923,8.24380165 Z M24.3922394,8.24380165 L23.741413,8.24380165 L23.741413,8.67768595 L24.3922394,8.67768595 L24.3922394,8.24380165 Z M23.0905865,8.24380165 L22.4397601,8.24380165 L22.4397601,8.67768595 L23.0905865,8.67768595 L23.0905865,8.24380165 Z M21.7889336,8.24380165 L21.1381072,8.24380165 L21.1381072,8.67768595 L21.7889336,8.67768595 L21.7889336,8.24380165 Z M20.4872807,8.24380165 L19.8364543,8.24380165 L19.8364543,8.67768595 L20.4872807,8.67768595 L20.4872807,8.24380165 Z M19.1856278,8.24380165 L18.5348014,8.24380165 L18.5348014,8.67768595 L19.1856278,8.67768595 L19.1856278,8.24380165 Z M66.0531529,8.64482836 L66.0001015,8.21419959 C65.8433201,8.23354093 65.6846949,8.24346372 65.5247668,8.24379317 L65.3942745,8.24380165 L65.3943366,8.67768595 L65.5256917,8.67767654 L65.6428645,8.67603238 C65.7987421,8.67197187 65.9532142,8.66044646 66.1063484,8.64155506 L66.0573657,8.67768595 L65.5165289,8.67768595 C65.6982286,8.67768595 65.8773196,8.66651706 66.0531529,8.64482836 Z M2.93879892,8.4468449 C3.1424622,8.51623539 3.35293719,8.57090607 3.56895576,8.60958882 L3.64540146,8.18249207 C3.45241791,8.14793245 3.26308868,8.09896248 3.07864274,8.0361147 L2.93879892,8.4468449 Z M67.3176894,8.2873309 L67.1373714,7.89269055 C66.959883,7.97378532 66.7763712,8.04145925 66.5881511,8.09504354 L66.7068301,8.5123814 C66.9174198,8.45243548 67.1214773,8.37698086 67.3176894,8.2873309 Z M1.78490975,7.84677849 C1.95978381,7.97431305 2.14455655,8.08908886 2.33785911,8.18973704 L2.53824392,7.80489745 C2.36482811,7.71460422 2.19842651,7.61135188 2.04042483,7.49611103 L1.78490975,7.84677849 Z M68.3954599,7.58503012 L68.1075679,7.26041679 C67.9612483,7.39028827 67.8054254,7.50906268 67.6414601,7.61563329 L67.877894,7.97943897 C68.0603489,7.86085218 68.2333319,7.72892148 68.3954599,7.58503012 Z M0.852152669,6.92165687 C0.981731798,7.09629545 1.12412022,7.26086055 1.27792859,7.41396283 L1.5839721,7.10640315 C1.44530672,6.96836915 1.31710707,6.82014864 1.2005584,6.66306639 L0.852152669,6.92165687 Z M69.2370356,6.57246169 L68.8652763,6.34874175 C68.7644845,6.51627333 68.651204,6.67607075 68.5264938,6.82676012 L68.8608139,7.10332061 C68.9989349,6.93641937 69.1248017,6.75900684 69.2370356,6.57246169 Z M0.246267637,5.7833664 C0.319010253,5.98945811 0.406879356,6.18840993 0.50854136,6.37888828 L0.891379514,6.17470564 C0.799422051,6.00242382 0.720516183,5.82339598 0.655421274,5.63897497 L0.246267637,5.7833664 Z M69.7323778,5.36885051 L69.310813,5.26619263 C69.2644998,5.45641827 69.2039588,5.64235085 69.1298045,5.82270566 L69.5311335,5.98760128 C69.6130475,5.78836013 69.6805608,5.581678 69.7323778,5.36885051 Z M0.00271789177,4.49386869 C0.0104503642,4.71405622 0.0345897172,4.93007013 0.0739509159,5.14072539 L0.50047591,5.06115134 C0.464755226,4.87001243 0.443252219,4.67551098 0.436337518,4.47871582 L0.00271789177,4.49386869 Z M69.8553719,4.06940083 L69.8553719,4.33884298 L69.8547412,4.2641087 C69.8536421,4.19903119 69.8511103,4.13430254 69.8471758,4.06995294 L69.4140982,4.09639755 C69.4189308,4.17542548 69.4213998,4.25483276 69.4214853,4.33455444 C69.4214873,4.45502275 69.4164246,4.5710905 69.4062253,4.68677417 L69.8384219,4.72500703 C69.8474903,4.622185 69.852972,4.5183331 69.8547412,4.41357725 L69.8553719,4.33884298 L69.8553719,4.72630165 L69.8553719,4.06940083 Z M0.153146297,3.19212207 C0.0965057098,3.39934613 0.0548423173,3.61275507 0.0293917369,3.83111326 L0.460365321,3.88128654 C0.483100328,3.68625233 0.520359779,3.49426565 0.571685967,3.30649047 L0.153146297,3.19212207 Z M69.755203,3.40762684 C69.7083414,3.19334242 69.645644,2.98498132 69.5683991,2.78383182 L69.1633985,2.93949184 C69.2332858,3.1214992 69.2894491,3.30881843 69.331306,3.50018462 L69.755203,3.40762684 Z M0.686475656,1.99568828 C0.569529455,2.17759992 0.465802389,2.36881723 0.376651332,2.56798336 L0.772627117,2.74534958 C0.852510088,2.56687525 0.945751136,2.39472685 1.05146786,2.2302864 L0.686475656,1.99568828 Z M69.2849489,2.18686566 C69.1767362,1.99777776 69.0547018,1.81761574 68.9202227,1.64775666 L68.5800682,1.91710862 C68.7014743,2.07045834 68.8112471,2.23266678 68.9083585,2.40235409 L69.2849489,2.18686566 Z M1.54489264,1.01916787 C1.37871644,1.15917179 1.22319983,1.31142528 1.07973457,1.47453661 L1.4056257,1.76098132 C1.53482505,1.61410047 1.67485852,1.47701702 1.82445264,1.35098377 L1.54489264,1.01916787 Z M68.4816284,1.17121435 C68.3233005,1.02294874 68.1538502,0.886416136 67.9746643,0.763003383 L67.7285018,1.12029818 C67.8895894,1.23124197 68.0422207,1.35415968 68.1850479,1.48790917 L68.4816284,1.17121435 Z M2.64539828,0.342904348 C2.4444867,0.428155601 2.25132729,0.528116551 2.06727125,0.641436011 L2.29468111,1.01094967 C2.46110149,0.908483522 2.63499773,0.818639601 2.8149927,0.74227051 L2.64539828,0.342904348 Z M67.4089251,0.433335888 C67.2148361,0.339116676 67.0126671,0.258939444 66.8037389,0.194124823 L66.6752206,0.608538441 C66.8620572,0.666501865 67.0439299,0.738453411 67.2195082,0.823690655 L67.4089251,0.433335888 Z M3.9162278,0.0203190629 C3.69733046,0.0414781708 3.48319085,0.0789026193 3.27503241,0.131368945 L3.38107312,0.552095639 C3.5697782,0.50453236 3.76248371,0.471083147 3.95804803,0.452183229 L3.9162278,0.0203190629 Z M65.5165289,-2.46634669e-14 L65.5165289,0.433884298 C65.713793,0.433884298 65.9090718,0.448476112 66.1013391,0.477322281 L66.1658224,0.0482564298 C65.9540138,0.0164730266 65.7371951,-2.46634669e-14 65.5165289,-2.46634669e-14 L66.1729959,-2.46634669e-14 L66.2300908,0.0530426451 C65.9952398,0.0178075782 65.7569252,-2.46634669e-14 65.5165289,-2.46634669e-14 Z M10.4407278,-2.46634669e-14 L9.78990133,-2.46634669e-14 L9.78990133,0.433884298 L10.4407278,0.433884298 L10.4407278,-2.46634669e-14 Z M11.7423807,-2.46634669e-14 L11.0915542,-2.46634669e-14 L11.0915542,0.433884298 L11.7423807,0.433884298 L11.7423807,-2.46634669e-14 Z M13.0440336,-2.46634669e-14 L12.3932071,-2.46634669e-14 L12.3932071,0.433884298 L13.0440336,0.433884298 L13.0440336,-2.46634669e-14 Z M14.3456865,-2.46634669e-14 L13.69486,-2.46634669e-14 L13.69486,0.433884298 L14.3456865,0.433884298 L14.3456865,-2.46634669e-14 Z M15.6473393,-2.46634669e-14 L14.9965129,-2.46634669e-14 L14.9965129,0.433884298 L15.6473393,0.433884298 L15.6473393,-2.46634669e-14 Z M16.9489922,-2.46634669e-14 L16.2981658,-2.46634669e-14 L16.2981658,0.433884298 L16.9489922,0.433884298 L16.9489922,-2.46634669e-14 Z M18.2506451,-2.46634669e-14 L17.5998187,-2.46634669e-14 L17.5998187,0.433884298 L18.2506451,0.433884298 L18.2506451,-2.46634669e-14 Z M19.552298,-2.46634669e-14 L18.9014716,-2.46634669e-14 L18.9014716,0.433884298 L19.552298,0.433884298 L19.552298,-2.46634669e-14 Z M20.8539509,-2.46634669e-14 L20.2031245,-2.46634669e-14 L20.2031245,0.433884298 L20.8539509,0.433884298 L20.8539509,-2.46634669e-14 Z M22.1556038,-2.46634669e-14 L21.5047774,-2.46634669e-14 L21.5047774,0.433884298 L22.1556038,0.433884298 L22.1556038,-2.46634669e-14 Z M23.4572567,-2.46634669e-14 L22.8064303,-2.46634669e-14 L22.8064303,0.433884298 L23.4572567,0.433884298 L23.4572567,-2.46634669e-14 Z M24.7589096,-2.46634669e-14 L24.1080831,-2.46634669e-14 L24.1080831,0.433884298 L24.7589096,0.433884298 L24.7589096,-2.46634669e-14 Z M26.0605625,-2.46634669e-14 L25.409736,-2.46634669e-14 L25.409736,0.433884298 L26.0605625,0.433884298 L26.0605625,-2.46634669e-14 Z M27.3622154,-2.46634669e-14 L26.7113889,-2.46634669e-14 L26.7113889,0.433884298 L27.3622154,0.433884298 L27.3622154,-2.46634669e-14 Z M28.6638683,-2.46634669e-14 L28.0130418,-2.46634669e-14 L28.0130418,0.433884298 L28.6638683,0.433884298 L28.6638683,-2.46634669e-14 Z M29.9655212,-2.46634669e-14 L29.3146947,-2.46634669e-14 L29.3146947,0.433884298 L29.9655212,0.433884298 L29.9655212,-2.46634669e-14 Z M31.2671741,-2.46634669e-14 L30.6163476,-2.46634669e-14 L30.6163476,0.433884298 L31.2671741,0.433884298 L31.2671741,-2.46634669e-14 Z M32.5688269,-2.46634669e-14 L31.9180005,-2.46634669e-14 L31.9180005,0.433884298 L32.5688269,0.433884298 L32.5688269,-2.46634669e-14 Z M9.13907488,-2.46634669e-14 L8.48824843,-2.46634669e-14 L8.48824843,0.433884298 L9.13907488,0.433884298 L9.13907488,-2.46634669e-14 Z M35.1721327,-2.46634669e-14 L34.5213063,-2.46634669e-14 L34.5213063,0.433884298 L35.1721327,0.433884298 L35.1721327,-2.46634669e-14 Z M36.4737856,-2.46634669e-14 L35.8229592,-2.46634669e-14 L35.8229592,0.433884298 L36.4737856,0.433884298 L36.4737856,-2.46634669e-14 Z M37.7754385,-2.46634669e-14 L37.1246121,-2.46634669e-14 L37.1246121,0.433884298 L37.7754385,0.433884298 L37.7754385,-2.46634669e-14 Z M39.0770914,-2.46634669e-14 L38.426265,-2.46634669e-14 L38.426265,0.433884298 L39.0770914,0.433884298 L39.0770914,-2.46634669e-14 Z M40.3787443,-2.46634669e-14 L39.7279179,-2.46634669e-14 L39.7279179,0.433884298 L40.3787443,0.433884298 L40.3787443,-2.46634669e-14 Z M41.6803972,-2.46634669e-14 L41.0295707,-2.46634669e-14 L41.0295707,0.433884298 L41.6803972,0.433884298 L41.6803972,-2.46634669e-14 Z M42.9820501,-2.46634669e-14 L42.3312236,-2.46634669e-14 L42.3312236,0.433884298 L42.9820501,0.433884298 L42.9820501,-2.46634669e-14 Z M44.283703,-2.46634669e-14 L43.6328765,-2.46634669e-14 L43.6328765,0.433884298 L44.283703,0.433884298 L44.283703,-2.46634669e-14 Z M45.5853559,-2.46634669e-14 L44.9345294,-2.46634669e-14 L44.9345294,0.433884298 L45.5853559,0.433884298 L45.5853559,-2.46634669e-14 Z M46.8870088,-2.46634669e-14 L46.2361823,-2.46634669e-14 L46.2361823,0.433884298 L46.8870088,0.433884298 L46.8870088,-2.46634669e-14 Z M48.1886617,-2.46634669e-14 L47.5378352,-2.46634669e-14 L47.5378352,0.433884298 L48.1886617,0.433884298 L48.1886617,-2.46634669e-14 Z M49.4903146,-2.46634669e-14 L48.8394881,-2.46634669e-14 L48.8394881,0.433884298 L49.4903146,0.433884298 L49.4903146,-2.46634669e-14 Z M50.7919674,-2.46634669e-14 L50.141141,-2.46634669e-14 L50.141141,0.433884298 L50.7919674,0.433884298 L50.7919674,-2.46634669e-14 Z M52.0936203,-2.46634669e-14 L51.4427939,-2.46634669e-14 L51.4427939,0.433884298 L52.0936203,0.433884298 L52.0936203,-2.46634669e-14 Z M53.3952732,-2.46634669e-14 L52.7444468,-2.46634669e-14 L52.7444468,0.433884298 L53.3952732,0.433884298 L53.3952732,-2.46634669e-14 Z M54.6969261,-2.46634669e-14 L54.0460997,-2.46634669e-14 L54.0460997,0.433884298 L54.6969261,0.433884298 L54.6969261,-2.46634669e-14 Z M55.998579,-2.46634669e-14 L55.3477526,-2.46634669e-14 L55.3477526,0.433884298 L55.998579,0.433884298 L55.998579,-2.46634669e-14 Z M57.3002319,-2.46634669e-14 L56.6494055,-2.46634669e-14 L56.6494055,0.433884298 L57.3002319,0.433884298 L57.3002319,-2.46634669e-14 Z M58.6018848,-2.46634669e-14 L57.9510584,-2.46634669e-14 L57.9510584,0.433884298 L58.6018848,0.433884298 L58.6018848,-2.46634669e-14 Z M59.9035377,-2.46634669e-14 L59.2527112,-2.46634669e-14 L59.2527112,0.433884298 L59.9035377,0.433884298 L59.9035377,-2.46634669e-14 Z M61.2051906,-2.46634669e-14 L60.5543641,-2.46634669e-14 L60.5543641,0.433884298 L61.2051906,0.433884298 L61.2051906,-2.46634669e-14 Z M62.5068435,-2.46634669e-14 L61.856017,-2.46634669e-14 L61.856017,0.433884298 L62.5068435,0.433884298 L62.5068435,-2.46634669e-14 Z M63.8084964,-2.46634669e-14 L63.1576699,-2.46634669e-14 L63.1576699,0.433884298 L63.8084964,0.433884298 L63.8084964,-2.46634669e-14 Z M65.1101493,-2.46634669e-14 L64.4593228,-2.46634669e-14 L64.4593228,0.433884298 L65.1101493,0.433884298 L65.1101493,-2.46634669e-14 Z M7.83742199,-2.46634669e-14 L7.18659554,-2.46634669e-14 L7.18659554,0.433884298 L7.83742199,0.433884298 L7.83742199,-2.46634669e-14 Z M6.5357691,-2.46634669e-14 L5.88494265,-2.46634669e-14 L5.88494265,0.433884298 L6.5357691,0.433884298 L6.5357691,-2.46634669e-14 Z M5.2341162,-2.46634669e-14 L4.58328976,-2.46634669e-14 L4.58328976,0.433884298 L5.2341162,0.433884298 L5.2341162,-2.46634669e-14 Z M33.8704798,-2.46634669e-14 L33.2196534,-2.46634669e-14 L33.2196534,0.433884298 L33.8704798,0.433884298 L33.8704798,-2.46634669e-14 Z" id="Rectangle" fill="#01B6F5"></path>
                    <g id="Group-12" transform="translate(4.121901, 2.820248)">
                        <g id="uploading-files">
                            <path d="M3.38311343,1.2855831 C3.28107027,1.2855831 3.17943309,1.30221956 3.08305664,1.33429994 C3.10261104,1.25233556 3.11246436,1.16812986 3.11246436,1.0825963 C3.11246436,0.485645933 2.62680997,0 2.02986806,0 C1.45285269,0 0.97982577,0.453777004 0.94887874,1.02320574 C0.412012469,1.08948939 0,1.54990576 0,2.09753033 C0,2.69448069 0.485654391,3.18012663 1.0825963,3.18012663 L3.38311343,3.18012663 C3.90544077,3.18012663 4.33038519,2.7551822 4.33038519,2.23285486 C4.33038519,1.71052752 3.90544077,1.2855831 3.38311343,1.2855831 Z" id="Path" fill="#71D2F6"></path>
                            <path d="M3.4507757,3.04480209 L1.15025857,3.04480209 C0.553316659,3.04480209 0.0676622686,2.55915615 0.0676622686,1.96220579 C0.0676622686,1.81646126 0.0968500797,1.67689938 0.149804263,1.5492968 C0.0545780774,1.71065439 2.28365434e-13,1.89830724 2.28365434e-13,2.09753033 C2.28365434e-13,2.69448069 0.485654391,3.18012663 1.0825963,3.18012663 L3.38311343,3.18012663 C3.78057005,3.18012663 4.12158789,2.93404741 4.26194481,2.58627181 C4.09588468,2.86085375 3.79441545,3.04480209 3.4507757,3.04480209 Z" id="Path" fill-opacity="0.102272727" fill="#000000"></path>
                            <g id="Group-23" transform="translate(1.522401, 1.353245)" fill="#FFFFFF">
                                <path d="M1.06277971,0.493452467 L0.589143831,0.0198165869 C0.562713257,-0.00660552897 0.519883041,-0.00660552897 0.493452467,0.0198165869 L0.0198165869,0.493452467 C-0.0219564062,0.53522546 0.00877917935,0.608960418 0.0676622686,0.608960418 L0.202986806,0.608960418 L0.202986806,1.2855831 C0.202986806,1.32294959 0.233282587,1.35324537 0.270649074,1.35324537 L0.811947223,1.35324537 C0.849313711,1.35324537 0.879609492,1.32294959 0.879609492,1.2855831 L0.879609492,0.608960418 L1.01493403,0.608960418 C1.07381712,0.608960418 1.1045527,0.53522546 1.06277971,0.493452467 Z" id="Path"></path>
                            </g>
                        </g>
                    </g>
                </g>
                <path d="M14.4628099,5.46831956 C13.930304,5.46831956 13.4986226,5.03663819 13.4986226,4.50413223 C13.4986226,3.97162627 13.930304,3.5399449 14.4628099,3.5399449 L57.2754821,3.5399449 C57.8079881,3.5399449 58.2396694,3.97162627 58.2396694,4.50413223 C58.2396694,5.03663819 57.8079881,5.46831956 57.2754821,5.46831956 L14.4628099,5.46831956 Z" id="Line-12" fill="#01B6F5"></path>
            </g>
            <g id="Group-198" transform="translate(13.176471, 27.235294)">
                <g id="Group-196" transform="translate(0.000000, 0.000000)">
                    <path d="M55.972947,0 C58.802042,0 61.0954767,2.29343464 61.0954767,5.12252964 L61.0954767,42.8774704 C61.0954767,45.7065654 58.802042,48 55.972947,48 L5.12709722,48 C2.29800222,48 0.00456757435,45.7065654 0.00456757435,42.8774704 L0.00456757435,5.12252964 C0.00456757435,2.29343464 2.29800222,0 5.12709722,0 L55.972947,0 Z" id="Rectangle" fill="#F2F3F4"></path>
                    <g id="Group-195">
                        <path d="M31.2517067,47.8102767 L30.6825367,47.8102767 L30.6825367,48 L31.2517067,48 L31.2517067,47.8102767 Z M6.20822843,47.8102767 L5.63905847,47.8102767 L5.63905847,48 L6.20822843,48 L6.20822843,47.8102767 Z M7.34656835,47.8102767 L6.77739839,47.8102767 L6.77739839,48 L7.34656835,48 L7.34656835,47.8102767 Z M8.48490827,47.8102767 L7.91573831,47.8102767 L7.91573831,48 L8.48490827,48 L8.48490827,47.8102767 Z M9.62324819,47.8102767 L9.05407823,47.8102767 L9.05407823,48 L9.62324819,48 L9.62324819,47.8102767 Z M10.7615881,47.8102767 L10.1924182,47.8102767 L10.1924182,48 L10.7615881,48 L10.7615881,47.8102767 Z M11.899928,47.8102767 L11.3307581,47.8102767 L11.3307581,48 L11.899928,48 L11.899928,47.8102767 Z M13.038268,47.8102767 L12.469098,47.8102767 L12.469098,48 L13.038268,48 L13.038268,47.8102767 Z M14.1766079,47.8102767 L13.6074379,47.8102767 L13.6074379,48 L14.1766079,48 L14.1766079,47.8102767 Z M15.3149478,47.8102767 L14.7457778,47.8102767 L14.7457778,48 L15.3149478,48 L15.3149478,47.8102767 Z M16.4532877,47.8102767 L15.8841178,47.8102767 L15.8841178,48 L16.4532877,48 L16.4532877,47.8102767 Z M17.5916276,47.8102767 L17.0224577,47.8102767 L17.0224577,48 L17.5916276,48 L17.5916276,47.8102767 Z M18.7299676,47.8102767 L18.1607976,47.8102767 L18.1607976,48 L18.7299676,48 L18.7299676,47.8102767 Z M19.8683075,47.8102767 L19.2991375,47.8102767 L19.2991375,48 L19.8683075,48 L19.8683075,47.8102767 Z M21.0066474,47.8102767 L20.4374774,47.8102767 L20.4374774,48 L21.0066474,48 L21.0066474,47.8102767 Z M22.1449873,47.8102767 L21.5758174,47.8102767 L21.5758174,48 L22.1449873,48 L22.1449873,47.8102767 Z M23.2833272,47.8102767 L22.7141573,47.8102767 L22.7141573,48 L23.2833272,48 L23.2833272,47.8102767 Z M24.4216672,47.8102767 L23.8524972,47.8102767 L23.8524972,48 L24.4216672,48 L24.4216672,47.8102767 Z M25.5600071,47.8102767 L24.9908371,47.8102767 L24.9908371,48 L25.5600071,48 L25.5600071,47.8102767 Z M26.698347,47.8102767 L26.129177,47.8102767 L26.129177,48 L26.698347,48 L26.698347,47.8102767 Z M27.8366869,47.8102767 L27.267517,47.8102767 L27.267517,48 L27.8366869,48 L27.8366869,47.8102767 Z M28.9750268,47.8102767 L28.4058569,47.8102767 L28.4058569,48 L28.9750268,48 L28.9750268,47.8102767 Z M30.1133668,47.8102767 L29.5441968,47.8102767 L29.5441968,48 L30.1133668,48 L30.1133668,47.8102767 Z M32.3900466,47.8102767 L31.8208767,47.8102767 L31.8208767,48 L32.3900466,48 L32.3900466,47.8102767 Z M33.5283865,47.8102767 L32.9592166,47.8102767 L32.9592166,48 L33.5283865,48 L33.5283865,47.8102767 Z M34.6667265,47.8102767 L34.0975565,47.8102767 L34.0975565,48 L34.6667265,48 L34.6667265,47.8102767 Z M35.8050664,47.8102767 L35.2358964,47.8102767 L35.2358964,48 L35.8050664,48 L35.8050664,47.8102767 Z M36.9434063,47.8102767 L36.3742363,47.8102767 L36.3742363,48 L36.9434063,48 L36.9434063,47.8102767 Z M38.0817462,47.8102767 L37.5125763,47.8102767 L37.5125763,48 L38.0817462,48 L38.0817462,47.8102767 Z M39.2200861,47.8102767 L38.6509162,47.8102767 L38.6509162,48 L39.2200861,48 L39.2200861,47.8102767 Z M40.3584261,47.8102767 L39.7892561,47.8102767 L39.7892561,48 L40.3584261,48 L40.3584261,47.8102767 Z M41.496766,47.8102767 L40.927596,47.8102767 L40.927596,48 L41.496766,48 L41.496766,47.8102767 Z M42.6351059,47.8102767 L42.0659359,47.8102767 L42.0659359,48 L42.6351059,48 L42.6351059,47.8102767 Z M43.7734458,47.8102767 L43.2042759,47.8102767 L43.2042759,48 L43.7734458,48 L43.7734458,47.8102767 Z M44.9117857,47.8102767 L44.3426158,47.8102767 L44.3426158,48 L44.9117857,48 L44.9117857,47.8102767 Z M46.0501257,47.8102767 L45.4809557,47.8102767 L45.4809557,48 L46.0501257,48 L46.0501257,47.8102767 Z M47.1884656,47.8102767 L46.6192956,47.8102767 L46.6192956,48 L47.1884656,48 L47.1884656,47.8102767 Z M48.3268055,47.8102767 L47.7576355,47.8102767 L47.7576355,48 L48.3268055,48 L48.3268055,47.8102767 Z M49.4651454,47.8102767 L48.8959755,47.8102767 L48.8959755,48 L49.4651454,48 L49.4651454,47.8102767 Z M50.6034853,47.8102767 L50.0343154,47.8102767 L50.0343154,48 L50.6034853,48 L50.6034853,47.8102767 Z M51.7418253,47.8102767 L51.1726553,47.8102767 L51.1726553,48 L51.7418253,48 L51.7418253,47.8102767 Z M52.8801652,47.8102767 L52.3109952,47.8102767 L52.3109952,48 L52.8801652,48 L52.8801652,47.8102767 Z M54.0185051,47.8102767 L53.4493351,47.8102767 L53.4493351,48 L54.0185051,48 L54.0185051,47.8102767 Z M55.156845,47.8102767 L54.5876751,47.8102767 L54.5876751,48 L55.156845,48 L55.156845,47.8102767 Z M56.2801936,47.8012144 L56.2690374,47.8015427 C56.1707558,47.8073577 56.0720318,47.8102767 55.972947,47.8102767 L55.726015,47.8102767 L55.726015,48 L55.972947,48 L56.0793838,47.9989542 C56.1502563,47.9975604 56.2209537,47.9947745 56.2914489,47.9906036 L56.280868,47.8102767 C56.0068166,47.8102767 55.9041763,47.8102767 55.972947,47.8102767 C56.0761031,47.8102767 56.1785471,47.8072275 56.2801936,47.8012144 Z M5.0699905,47.8102767 L4.49759524,47.8102767 L4.47910962,47.9608572 C4.67358389,47.9845166 4.87003333,47.9975131 5.06785488,47.9996762 L5.0699905,47.8102767 Z M57.3989232,47.7989035 L57.3460725,47.6166899 C57.1708967,47.6673522 56.9926638,47.7082864 56.8120028,47.7392355 L56.8440759,47.9262282 C57.0327492,47.893905 57.2178989,47.8512628 57.3989232,47.7989035 Z M3.39408306,47.6994274 C3.57154624,47.7632169 3.75354907,47.8174881 3.93947584,47.8616253 L3.98335484,47.6770459 C3.80516494,47.6347476 3.62987074,47.5825794 3.45812998,47.5208414 L3.39408306,47.6994274 Z M58.458991,47.3573652 L58.3667505,47.1915743 C58.2070348,47.2803941 58.0424539,47.3602772 57.8737117,47.4308031 L57.9468053,47.605881 C58.1227245,47.5323585 58.2936682,47.4493047 58.458991,47.3573652 Z M2.37253346,47.1971045 C2.53202869,47.299024 2.69754433,47.3923522 2.86842795,47.4764366 L2.9522807,47.3062495 C2.78820547,47.2255193 2.62878498,47.1356995 2.47472834,47.0372573 L2.37253346,47.1971045 Z M59.3905772,46.6933064 L59.2640342,46.5519493 C59.1278299,46.6740278 58.9849723,46.7884915 58.8361492,46.8947583 L58.9463079,47.0492252 C59.1010233,46.9387561 59.2493347,46.8198949 59.3905772,46.6933064 Z M1.48049394,46.4750532 C1.61372702,46.6100903 1.75440527,46.7377633 1.90186298,46.8574065 L2.02151133,46.7101678 C1.87953199,46.5949763 1.74399742,46.4719908 1.61557322,46.3418296 L1.48049394,46.4750532 Z M60.1452457,45.8500694 L59.9908066,45.7398719 C59.8845976,45.8886767 59.7701947,46.0315206 59.6481795,46.1677166 L59.7894649,46.2943395 C59.9160062,46.1530935 60.0348213,46.0047819 60.1452457,45.8500694 Z M0.780234165,45.5889528 C0.881063347,45.750254 0.990621284,45.905539 1.10824658,46.0541463 L1.25705611,45.9364575 C1.14355768,45.7930685 1.03807938,45.6435048 0.941162039,45.4884681 L0.780234165,45.5889528 Z M60.70207,44.8496233 L60.5270046,44.7764997 C60.4565569,44.9452369 60.376754,45.1098173 60.288016,45.2695377 L60.453891,45.3616269 C60.5457102,45.1963562 60.6286513,45.0254736 60.70207,44.8496233 Z M0.28597248,44.5561959 C0.348483554,44.7364915 0.420782422,44.9122135 0.502233328,45.082726 L0.673441936,45.0009791 C0.594705652,44.8361523 0.525183531,44.666965 0.465249048,44.4941084 L0.28597248,44.5561959 Z M61.0203679,43.7563669 L60.8334167,43.7240532 C60.8021965,43.90461 60.7609993,44.082729 60.7100827,44.2577808 L60.8922334,44.3108473 C60.9448526,44.1299528 60.9877646,43.9449255 61.0203679,43.7563669 Z M0.0344616995,43.4341092 C0.0550540545,43.6246717 0.0860972369,43.8121011 0.127006417,43.9958125 L0.3121888,43.9545521 C0.272581568,43.7766833 0.242810415,43.5962282 0.223093138,43.4137838 L0.0344616995,43.4341092 Z M61.0954767,42.6214897 L60.9057533,42.6214897 L60.9057533,42.8774704 C60.9057533,42.978373 60.9027263,43.0789012 60.8966964,43.1789689 L61.0860747,43.1904053 C61.0906332,43.1147615 61.0935502,43.0386749 61.0947904,42.9621807 L61.0954767,42.8774704 L61.0954767,43.1908933 L61.0857327,43.2017921 C61.0922204,43.0941266 61.0954767,42.9859872 61.0954767,42.8774704 L61.0954767,42.6214897 Z M0.00456757435,42.317349 L0.00456757435,42.8868625 L0.194298457,42.8862054 L0.194290895,42.317349 L0.00456757435,42.317349 Z M61.0954767,41.4831498 L60.9057533,41.4831498 L60.9057533,42.0523198 L61.0954767,42.0523198 L61.0954767,41.4831498 Z M0.194290895,41.1790091 L0.00456757435,41.1790091 L0.00456757435,41.748179 L0.194290895,41.748179 L0.194290895,41.1790091 Z M61.0954767,40.3448099 L60.9057533,40.3448099 L60.9057533,40.9139798 L61.0954767,40.9139798 L61.0954767,40.3448099 Z M0.194290895,40.0406691 L0.00456757435,40.0406691 L0.00456757435,40.6098391 L0.194290895,40.6098391 L0.194290895,40.0406691 Z M61.0954767,39.20647 L60.9057533,39.20647 L60.9057533,39.7756399 L61.0954767,39.7756399 L61.0954767,39.20647 Z M0.194290895,38.9023292 L0.00456757435,38.9023292 L0.00456757435,39.4714992 L0.194290895,39.4714992 L0.194290895,38.9023292 Z M61.0954767,38.06813 L60.9057533,38.06813 L60.9057533,38.6373 L61.0954767,38.6373 L61.0954767,38.06813 Z M0.194290895,37.7639893 L0.00456757435,37.7639893 L0.00456757435,38.3331593 L0.194290895,38.3331593 L0.194290895,37.7639893 Z M61.0954767,36.9297901 L60.9057533,36.9297901 L60.9057533,37.4989601 L61.0954767,37.4989601 L61.0954767,36.9297901 Z M0.194290895,36.6256494 L0.00456757435,36.6256494 L0.00456757435,37.1948193 L0.194290895,37.1948193 L0.194290895,36.6256494 Z M61.0954767,35.7914502 L60.9057533,35.7914502 L60.9057533,36.3606202 L61.0954767,36.3606202 L61.0954767,35.7914502 Z M0.194290895,35.4873095 L0.00456757435,35.4873095 L0.00456757435,36.0564794 L0.194290895,36.0564794 L0.194290895,35.4873095 Z M61.0954767,34.6531103 L60.9057533,34.6531103 L60.9057533,35.2222802 L61.0954767,35.2222802 L61.0954767,34.6531103 Z M0.194290895,34.3489695 L0.00456757435,34.3489695 L0.00456757435,34.9181395 L0.194290895,34.9181395 L0.194290895,34.3489695 Z M61.0954767,33.5147704 L60.9057533,33.5147704 L60.9057533,34.0839403 L61.0954767,34.0839403 L61.0954767,33.5147704 Z M0.194290895,33.2106296 L0.00456757435,33.2106296 L0.00456757435,33.7797996 L0.194290895,33.7797996 L0.194290895,33.2106296 Z M61.0954767,32.3764304 L60.9057533,32.3764304 L60.9057533,32.9456004 L61.0954767,32.9456004 L61.0954767,32.3764304 Z M0.194290895,32.0722897 L0.00456757435,32.0722897 L0.00456757435,32.6414597 L0.194290895,32.6414597 L0.194290895,32.0722897 Z M61.0954767,31.2380905 L60.9057533,31.2380905 L60.9057533,31.8072605 L61.0954767,31.8072605 L61.0954767,31.2380905 Z M0.194290895,30.9339498 L0.00456757435,30.9339498 L0.00456757435,31.5031197 L0.194290895,31.5031197 L0.194290895,30.9339498 Z M61.0954767,30.0997506 L60.9057533,30.0997506 L60.9057533,30.6689206 L61.0954767,30.6689206 L61.0954767,30.0997506 Z M0.194290895,29.7956099 L0.00456757435,29.7956099 L0.00456757435,30.3647798 L0.194290895,30.3647798 L0.194290895,29.7956099 Z M61.0954767,28.9614107 L60.9057533,28.9614107 L60.9057533,29.5305806 L61.0954767,29.5305806 L61.0954767,28.9614107 Z M0.194290895,28.6572699 L0.00456757435,28.6572699 L0.00456757435,29.2264399 L0.194290895,29.2264399 L0.194290895,28.6572699 Z M61.0954767,27.8230708 L60.9057533,27.8230708 L60.9057533,28.3922407 L61.0954767,28.3922407 L61.0954767,27.8230708 Z M0.194290895,27.51893 L0.00456757435,27.51893 L0.00456757435,28.0881 L0.194290895,28.0881 L0.194290895,27.51893 Z M61.0954767,26.6847308 L60.9057533,26.6847308 L60.9057533,27.2539008 L61.0954767,27.2539008 L61.0954767,26.6847308 Z M0.194290895,26.3805901 L0.00456757435,26.3805901 L0.00456757435,26.9497601 L0.194290895,26.9497601 L0.194290895,26.3805901 Z M61.0954767,25.5463909 L60.9057533,25.5463909 L60.9057533,26.1155609 L61.0954767,26.1155609 L61.0954767,25.5463909 Z M0.194290895,25.2422502 L0.00456757435,25.2422502 L0.00456757435,25.8114201 L0.194290895,25.8114201 L0.194290895,25.2422502 Z M61.0954767,24.408051 L60.9057533,24.408051 L60.9057533,24.977221 L61.0954767,24.977221 L61.0954767,24.408051 Z M0.194290895,24.1039103 L0.00456757435,24.1039103 L0.00456757435,24.6730802 L0.194290895,24.6730802 L0.194290895,24.1039103 Z M61.0954767,23.2697111 L60.9057533,23.2697111 L60.9057533,23.838881 L61.0954767,23.838881 L61.0954767,23.2697111 Z M0.194290895,22.9655703 L0.00456757435,22.9655703 L0.00456757435,23.5347403 L0.194290895,23.5347403 L0.194290895,22.9655703 Z M61.0954767,22.1313712 L60.9057533,22.1313712 L60.9057533,22.7005411 L61.0954767,22.7005411 L61.0954767,22.1313712 Z M0.194290895,21.8272304 L0.00456757435,21.8272304 L0.00456757435,22.3964004 L0.194290895,22.3964004 L0.194290895,21.8272304 Z M61.0954767,20.9930312 L60.9057533,20.9930312 L60.9057533,21.5622012 L61.0954767,21.5622012 L61.0954767,20.9930312 Z M0.194290895,20.6888905 L0.00456757435,20.6888905 L0.00456757435,21.2580605 L0.194290895,21.2580605 L0.194290895,20.6888905 Z M61.0954767,19.8546913 L60.9057533,19.8546913 L60.9057533,20.4238613 L61.0954767,20.4238613 L61.0954767,19.8546913 Z M0.194290895,19.5505506 L0.00456757435,19.5505506 L0.00456757435,20.1197205 L0.194290895,20.1197205 L0.194290895,19.5505506 Z M61.0954767,18.7163514 L60.9057533,18.7163514 L60.9057533,19.2855214 L61.0954767,19.2855214 L61.0954767,18.7163514 Z M0.194290895,18.4122107 L0.00456757435,18.4122107 L0.00456757435,18.9813806 L0.194290895,18.9813806 L0.194290895,18.4122107 Z M61.0954767,17.5780115 L60.9057533,17.5780115 L60.9057533,18.1471814 L61.0954767,18.1471814 L61.0954767,17.5780115 Z M0.194290895,17.2738707 L0.00456757435,17.2738707 L0.00456757435,17.8430407 L0.194290895,17.8430407 L0.194290895,17.2738707 Z M61.0954767,16.4396715 L60.9057533,16.4396715 L60.9057533,17.0088415 L61.0954767,17.0088415 L61.0954767,16.4396715 Z M0.194290895,16.1355308 L0.00456757435,16.1355308 L0.00456757435,16.7047008 L0.194290895,16.7047008 L0.194290895,16.1355308 Z M61.0954767,15.3013316 L60.9057533,15.3013316 L60.9057533,15.8705016 L61.0954767,15.8705016 L61.0954767,15.3013316 Z M0.194290895,14.9971909 L0.00456757435,14.9971909 L0.00456757435,15.5663608 L0.194290895,15.5663608 L0.194290895,14.9971909 Z M61.0954767,14.1629917 L60.9057533,14.1629917 L60.9057533,14.7321617 L61.0954767,14.7321617 L61.0954767,14.1629917 Z M0.194290895,13.858851 L0.00456757435,13.858851 L0.00456757435,14.4280209 L0.194290895,14.4280209 L0.194290895,13.858851 Z M61.0954767,13.0246518 L60.9057533,13.0246518 L60.9057533,13.5938217 L61.0954767,13.5938217 L61.0954767,13.0246518 Z M0.194290895,12.720511 L0.00456757435,12.720511 L0.00456757435,13.289681 L0.194290895,13.289681 L0.194290895,12.720511 Z M61.0954767,11.8863119 L60.9057533,11.8863119 L60.9057533,12.4554818 L61.0954767,12.4554818 L61.0954767,11.8863119 Z M0.194290895,11.5821711 L0.00456757435,11.5821711 L0.00456757435,12.1513411 L0.194290895,12.1513411 L0.194290895,11.5821711 Z M61.0954767,10.7479719 L60.9057533,10.7479719 L60.9057533,11.3171419 L61.0954767,11.3171419 L61.0954767,10.7479719 Z M0.194290895,10.4438312 L0.00456757435,10.4438312 L0.00456757435,11.0130012 L0.194290895,11.0130012 L0.194290895,10.4438312 Z M61.0954767,9.60963202 L60.9057533,9.60963202 L60.9057533,10.178802 L61.0954767,10.178802 L61.0954767,9.60963202 Z M0.194290895,9.30549128 L0.00456757435,9.30549128 L0.00456757435,9.87466124 L0.194290895,9.87466124 L0.194290895,9.30549128 Z M61.0954767,8.4712921 L60.9057533,8.4712921 L60.9057533,9.04046206 L61.0954767,9.04046206 L61.0954767,8.4712921 Z M0.194290895,8.16715136 L0.00456757435,8.16715136 L0.00456757435,8.73632132 L0.194290895,8.73632132 L0.194290895,8.16715136 Z M61.0954767,7.33295218 L60.9057533,7.33295218 L60.9057533,7.90212214 L61.0954767,7.90212214 L61.0954767,7.33295218 Z M0.194290895,7.02881144 L0.00456757435,7.02881144 L0.00456757435,7.5979814 L0.194290895,7.5979814 L0.194290895,7.02881144 Z M61.0954767,6.19461226 L60.9057533,6.19461226 L60.9057533,6.76378222 L61.0954767,6.76378222 L61.0954767,6.19461226 Z M0.194290895,5.89047152 L0.00456757435,5.89047152 L0.00456757435,6.45964148 L0.194290895,6.45964148 L0.194290895,5.89047152 Z M61.0954767,5.05593676 L61.0954767,5.12252964 L61.0950972,5.05593676 L60.9053463,5.05847576 L60.9056509,5.09038938 L60.9057533,5.6254423 L61.0954767,5.6254423 L61.0954767,5.12232041 C61.0954767,5.09940898 61.0953298,5.07652143 61.0950389,5.05365108 L61.0954767,5.05593676 Z M-5.39226108e-15,5.32130156 L0.194290895,5.32130156 L0.194290895,5.12252964 C0.194290895,5.00313069 0.198529463,4.88425899 0.206965667,4.76605794 L0.0177164223,4.75265376 C0.00900031115,4.87481083 0.00456757435,4.99815257 0.00456757435,5.12252964 L-5.39226108e-15,5.32130156 Z M61.0589953,4.50800801 C61.0362569,4.31781737 61.0030974,4.13082822 60.9601042,3.94762785 L60.7753773,3.99088163 C60.8170207,4.16831529 60.8488436,4.34842028 60.8706211,4.53059346 L61.0589953,4.50800801 Z M0.224318901,3.63358467 C0.169573478,3.81408591 0.124523036,3.99880316 0.089773651,4.18713034 L0.276377594,4.22139308 C0.309648257,4.04111408 0.35289149,3.86335814 0.405841624,3.68876123 L0.224318901,3.63358467 Z M60.7948358,3.38932573 C60.7302796,3.209752 60.6559772,3.03482693 60.5725666,2.8651885 L60.4023448,2.94897083 C60.4829525,3.11291517 60.554393,3.28131243 60.6162843,3.4534685 L60.7948358,3.38932573 Z M0.674468068,2.58807822 C0.580743556,2.75238306 0.49585121,2.92237814 0.420437504,3.097417 L0.594656772,3.17253416 C0.667035934,3.00453372 0.74873246,2.84078425 0.839317237,2.68199149 L0.674468068,2.58807822 Z M60.2888304,2.36210504 C60.1862187,2.20200577 60.0749425,2.04799191 59.9556636,1.9007252 L59.8082678,2.02017986 C59.9233827,2.16230873 60.0305478,2.3107023 60.1292142,2.46466064 L60.2888304,2.36210504 Z M1.34978821,1.66239111 C1.22160926,1.80224369 1.10109526,1.94923653 0.988911653,2.10270417 L1.14207605,2.21466669 C1.24999992,2.06702636 1.36605169,1.92544044 1.48964216,1.79059333 L1.34978821,1.66239111 Z M59.5784931,1.48380036 C59.4437087,1.35023744 59.301543,1.22411073 59.1526622,1.10608649 L59.0348374,1.25478833 C59.178109,1.36836817 59.3150235,1.48981769 59.4449107,1.61852478 L59.5784931,1.48380036 Z M2.2007486,0.917603304 C2.04480119,1.02633551 1.89518644,1.1435212 1.75256852,1.26849619 L1.87755159,1.41123433 C2.01509706,1.2907007 2.1592083,1.17785679 2.3091947,1.07327729 L2.2007486,0.917603304 Z M58.6789048,0.772218056 C58.5183006,0.672108165 58.3517495,0.580644524 58.1799029,0.498478326 L58.0981432,0.669680832 C58.263072,0.748543043 58.4234393,0.83654171 58.5785369,0.933218692 L58.6789048,0.772218056 Z M3.20643878,0.372237338 C3.02971676,0.443759942 2.85789472,0.524857947 2.691616,0.614888018 L2.78189945,0.781752755 C2.94260727,0.69473662 3.10808902,0.61671247 3.27764256,0.54809228 L3.20643878,0.372237338 Z M57.6516725,0.281404905 C57.4735039,0.219631288 57.2908688,0.167415889 57.1043809,0.125372229 L57.0626415,0.310447239 C57.2413124,0.350728026 57.4171728,0.400901699 57.5895697,0.46067615 L57.6516725,0.281404905 Z M4.31303696,0.0643272586 C4.12395278,0.0945208271 3.9383211,0.135061791 3.75674075,0.185351317 L3.80746838,0.368167221 C3.98318771,0.319504505 4.16187725,0.280593405 4.34291346,0.251683429 L4.31303696,0.0643272586 Z M55.972947,0.18972332 C56.1569094,0.18972332 56.3395958,0.199785044 56.5204726,0.219750228 L56.5413409,0.0311780789 C56.3547134,0.0105761801 56.1650653,0 55.972947,0 L55.972947,0.18972332 Z M5.43123796,0 L5.12709722,0 L4.99759027,0.00154880495 C4.95448477,0.00258082887 4.91144476,0.00412809566 4.86847632,0.00618906718 L4.87742133,0 L5.12709722,0 C5.04343775,0 4.96024669,0.00200549465 4.87756949,0.0059710306 L4.8866555,0.195476658 C4.9665377,0.191645126 5.04669938,0.18972332 5.12709722,0.18972332 L5.43123796,0.18972332 L5.43123796,0 Z M11.1229376,0 L10.5537676,0 L10.5537676,0.18972332 L11.1229376,0.18972332 L11.1229376,0 Z M12.2612775,0 L11.6921075,0 L11.6921075,0.18972332 L12.2612775,0.18972332 L12.2612775,0 Z M13.3996174,0 L12.8304474,0 L12.8304474,0.18972332 L13.3996174,0.18972332 L13.3996174,0 Z M14.5379573,0 L13.9687874,0 L13.9687874,0.18972332 L14.5379573,0.18972332 L14.5379573,0 Z M15.6762972,0 L15.1071273,0 L15.1071273,0.18972332 L15.6762972,0.18972332 L15.6762972,0 Z M16.8146372,0 L16.2454672,0 L16.2454672,0.18972332 L16.8146372,0.18972332 L16.8146372,0 Z M17.9529771,0 L17.3838071,0 L17.3838071,0.18972332 L17.9529771,0.18972332 L17.9529771,0 Z M19.091317,0 L18.522147,0 L18.522147,0.18972332 L19.091317,0.18972332 L19.091317,0 Z M20.2296569,0 L19.660487,0 L19.660487,0.18972332 L20.2296569,0.18972332 L20.2296569,0 Z M21.3679969,0 L20.7988269,0 L20.7988269,0.18972332 L21.3679969,0.18972332 L21.3679969,0 Z M22.5063368,0 L21.9371668,0 L21.9371668,0.18972332 L22.5063368,0.18972332 L22.5063368,0 Z M23.6446767,0 L23.0755067,0 L23.0755067,0.18972332 L23.6446767,0.18972332 L23.6446767,0 Z M24.7830166,0 L24.2138467,0 L24.2138467,0.18972332 L24.7830166,0.18972332 L24.7830166,0 Z M25.9213565,0 L25.3521866,0 L25.3521866,0.18972332 L25.9213565,0.18972332 L25.9213565,0 Z M27.0596965,0 L26.4905265,0 L26.4905265,0.18972332 L27.0596965,0.18972332 L27.0596965,0 Z M28.1980364,0 L27.6288664,0 L27.6288664,0.18972332 L28.1980364,0.18972332 L28.1980364,0 Z M29.3363763,0 L28.7672063,0 L28.7672063,0.18972332 L29.3363763,0.18972332 L29.3363763,0 Z M30.4747162,0 L29.9055463,0 L29.9055463,0.18972332 L30.4747162,0.18972332 L30.4747162,0 Z M31.6130561,0 L31.0438862,0 L31.0438862,0.18972332 L31.6130561,0.18972332 L31.6130561,0 Z M32.7513961,0 L32.1822261,0 L32.1822261,0.18972332 L32.7513961,0.18972332 L32.7513961,0 Z M33.889736,0 L33.320566,0 L33.320566,0.18972332 L33.889736,0.18972332 L33.889736,0 Z M35.0280759,0 L34.4589059,0 L34.4589059,0.18972332 L35.0280759,0.18972332 L35.0280759,0 Z M36.1664158,0 L35.5972459,0 L35.5972459,0.18972332 L36.1664158,0.18972332 L36.1664158,0 Z M37.3047557,0 L36.7355858,0 L36.7355858,0.18972332 L37.3047557,0.18972332 L37.3047557,0 Z M38.4430957,0 L37.8739257,0 L37.8739257,0.18972332 L38.4430957,0.18972332 L38.4430957,0 Z M39.5814356,0 L39.0122656,0 L39.0122656,0.18972332 L39.5814356,0.18972332 L39.5814356,0 Z M40.7197755,0 L40.1506055,0 L40.1506055,0.18972332 L40.7197755,0.18972332 L40.7197755,0 Z M41.8581154,0 L41.2889455,0 L41.2889455,0.18972332 L41.8581154,0.18972332 L41.8581154,0 Z M42.9964553,0 L42.4272854,0 L42.4272854,0.18972332 L42.9964553,0.18972332 L42.9964553,0 Z M44.1347953,0 L43.5656253,0 L43.5656253,0.18972332 L44.1347953,0.18972332 L44.1347953,0 Z M45.2731352,0 L44.7039652,0 L44.7039652,0.18972332 L45.2731352,0.18972332 L45.2731352,0 Z M46.4114751,0 L45.8423052,0 L45.8423052,0.18972332 L46.4114751,0.18972332 L46.4114751,0 Z M47.549815,0 L46.9806451,0 L46.9806451,0.18972332 L47.549815,0.18972332 L47.549815,0 Z M48.688155,0 L48.118985,0 L48.118985,0.18972332 L48.688155,0.18972332 L48.688155,0 Z M49.8264949,0 L49.2573249,0 L49.2573249,0.18972332 L49.8264949,0.18972332 L49.8264949,0 Z M50.9648348,0 L50.3956648,0 L50.3956648,0.18972332 L50.9648348,0.18972332 L50.9648348,0 Z M52.1031747,0 L51.5340048,0 L51.5340048,0.18972332 L52.1031747,0.18972332 L52.1031747,0 Z M53.2415146,0 L52.6723447,0 L52.6723447,0.18972332 L53.2415146,0.18972332 L53.2415146,0 Z M54.3798546,0 L53.8106846,0 L53.8106846,0.18972332 L54.3798546,0.18972332 L54.3798546,0 Z M55.5181945,0 L54.9490245,0 L54.9490245,0.18972332 L55.5181945,0.18972332 L55.5181945,0 Z M9.98459764,0 L9.41542768,0 L9.41542768,0.18972332 L9.98459764,0.18972332 L9.98459764,0 Z M7.7079178,0 L7.13874784,0 L7.13874784,0.18972332 L7.7079178,0.18972332 L7.7079178,0 Z M6.56957788,0 L6.00040792,0 L6.00040792,0.18972332 L6.56957788,0.18972332 L6.56957788,0 Z M8.84625772,0 L8.27708776,0 L8.27708776,0.18972332 L8.84625772,0.18972332 L8.84625772,0 Z" id="Rectangle" fill="#D0D5DD"></path>
                        <g id="Group-34" transform="translate(24.478876, 14.039526)">
                            <g id="Group-12">
                                <g id="uploading-files">
                                    <path d="M9.46767446,3.59771629 C9.18210573,3.59771629 8.89767312,3.64427358 8.62796274,3.73405081 C8.6826859,3.50467272 8.7102605,3.26902231 8.7102605,3.02965583 C8.7102605,1.35908467 7.35115216,0 5.68060467,0 C4.06582179,0 2.74205155,1.26989917 2.65544599,2.8634508 C1.15302073,3.04894621 0,4.3374257 0,5.86995816 C0,7.54052932 1.35910834,8.89961399 3.02965583,8.89961399 L9.46767446,8.89961399 C10.9294124,8.89961399 12.1186233,7.71040307 12.1186233,6.24866514 C12.1186233,4.78692721 10.9294124,3.59771629 9.46767446,3.59771629 Z" id="Path" fill="#71D2F6"></path>
                                    <path d="M9.65702795,8.52090701 L3.21900932,8.52090701 C1.54846183,8.52090701 0.189353489,7.16182234 0.189353489,5.49125118 C0.189353489,5.08338377 0.27103585,4.69281853 0.419228625,4.33572152 C0.152737258,4.78728225 6.39082794e-13,5.31243048 6.39082794e-13,5.86995816 C6.39082794e-13,7.54052932 1.35910834,8.89961399 3.02965583,8.89961399 L9.46767446,8.89961399 C10.5799605,8.89961399 11.5343021,8.21095902 11.9270922,7.23770575 C11.4623714,8.00612588 10.618707,8.52090701 9.65702795,8.52090701 Z" id="Path" fill-opacity="0.102272727" fill="#000000"></path>
                                    <g id="Group-23" transform="translate(4.260454, 3.787070)" fill="#FFFFFF">
                                        <path d="M2.97419892,1.38093133 L1.6487245,0.0554569031 C1.57475829,-0.0184856344 1.45489753,-0.0184856344 1.38093133,0.0554569031 L0.0554569031,1.38093133 C-0.0614452072,1.49783344 0.0245686152,1.7041814 0.189353489,1.7041814 L0.568060467,1.7041814 L0.568060467,3.59771629 C0.568060467,3.70228676 0.652843492,3.78706978 0.757413956,3.78706978 L2.27224187,3.78706978 C2.37681233,3.78706978 2.46159536,3.70228676 2.46159536,3.59771629 L2.46159536,1.7041814 L2.84030234,1.7041814 C3.00508721,1.7041814 3.09110103,1.49783344 2.97419892,1.38093133 Z" id="Path"></path>
                                    </g>
                                </g>
                            </g>
                        </g>
                    </g>
                </g>
                <path d="M15.0857143,28.1142857 C14.7070047,28.1142857 14.4,27.807281 14.4,27.4285714 C14.4,27.0498619 14.7070047,26.7428571 15.0857143,26.7428571 L45.5333878,26.7428571 C45.9120973,26.7428571 46.219102,27.0498619 46.219102,27.4285714 C46.219102,27.807281 45.9120973,28.1142857 45.5333878,28.1142857 L15.0857143,28.1142857 Z" id="Line-12" fill="#8D8F96"></path>
                <path d="M19.8857143,32.2285714 C19.5070047,32.2285714 19.2,31.9215667 19.2,31.5428571 C19.2,31.1641476 19.5070047,30.8571429 19.8857143,30.8571429 L40.7333878,30.8571429 C41.1120973,30.8571429 41.419102,31.1641476 41.419102,31.5428571 C41.419102,31.9215667 41.1120973,32.2285714 40.7333878,32.2285714 L19.8857143,32.2285714 Z" id="Line-12-Copy-11" fill="#8D8F96"></path>
            </g>
        </g>
    </g>
</svg>