<svg xmlns="http://www.w3.org/2000/svg" width="108" height="80" viewBox="0 0 108 80">
    <g fill="none" fill-rule="evenodd">
        <g fill="#44C868">
            <path d="M107.625 78.048l-8.458-46.452a1.574 1.574 0 0 0-.786-1.094L77.095 18.699a1.578 1.578 0 0 0-.89-.191l3.872 49.804-.13.058 25.476 11.394a1.588 1.588 0 0 0 1.62-.197 1.57 1.57 0 0 0 .582-1.52zM53.825 29.983l-21.77-11.305a1.58 1.58 0 0 0-.61-.17l-3.872 49.804 25.605 11.452c.207.092.427.138.647.138v-49.92z"/>
        </g>
        <g fill="#4CE166">
            <path d="M31.446 18.508a1.58 1.58 0 0 0-.89.191L9.268 30.502c-.414.229-.702.63-.787 1.094L.025 78.048a1.57 1.57 0 0 0 .581 1.52 1.583 1.583 0 0 0 1.621.196l25.337-11.332 3.882-49.924zM76.204 18.507c-.21.016-.416.072-.608.172L53.825 29.983v49.92c.22 0 .44-.046.647-.139l25.605-11.451-3.873-49.806z"/>
        </g>
        <path fill="#FFDB56" d="M5.92 45.673L4.201 55.11 29.64 41.714l.59-7.596.099-1.26z"/>
        <path fill="#A8EEFC" d="M29.87 38.769l-.229 2.945L4.201 55.11.026 78.048a1.57 1.57 0 0 0 .581 1.52 1.583 1.583 0 0 0 1.621.196l25.337-11.332L29.87 38.77z"/>
        <g fill="#FFBB24">
            <path d="M53.831 36.209l-23.501-3.35-.689 8.855 24.184 36.614V65.015L39.394 42.36l14.437 1.721zM96.705 29.573l-10.225-5.67-9.68 2.255.12 1.558.478 6.15z"/>
        </g>
        <path fill="#FFDB56" d="M78.257 44.907l-.917-11.79-.54-6.96L53.83 36.21v7.873l15.003-6.504z"/>
        <path fill="#FFBB24" d="M107.625 78.048L105.5 66.38 77.398 33.865l.86 11.042 28.819 34.631c.438-.362.65-.93.548-1.49z"/>
        <path fill="#FF4A4A" fill-rule="nonzero" d="M48.536.067c-8.405 0-15.243 6.811-15.243 15.184 0 5.178 2.466 10.739 7.33 16.526 3.573 4.25 7.098 6.984 7.246 7.098a1.09 1.09 0 0 0 1.334 0c.148-.114 3.672-2.848 7.245-7.098 4.864-5.787 7.33-11.347 7.33-16.526C63.779 6.878 56.94.067 48.537.067zM54.18 15.25c0 3.106-2.528 5.623-5.645 5.623-3.118 0-5.645-2.517-5.645-5.623 0-3.105 2.527-5.623 5.645-5.623 3.117 0 5.645 2.518 5.645 5.623z"/>
        <path fill="#E7343F" d="M48.536.067c-.666 0-1.323.043-1.966.126 7.48.964 13.276 7.349 13.276 15.058 0 5.178-2.466 10.739-7.33 16.526A54.428 54.428 0 0 1 46.57 37.8a33.175 33.175 0 0 0 1.299 1.075 1.09 1.09 0 0 0 1.334 0c.148-.114 3.672-2.848 7.245-7.098 4.864-5.787 7.33-11.347 7.33-16.526C63.779 6.878 56.94.067 48.537.067z"/>
        <path fill="#FFDB56" d="M54.472 79.764l9.522-4.258-10.169-10.491v14.887c.22 0 .44-.045.647-.138z"/>
        <g fill="#1EA4E9">
            <path d="M99.167 31.596a1.574 1.574 0 0 0-.786-1.094l-1.676-.93-19.307 4.293L105.5 66.379l-6.333-34.783zM53.825 79.902v-1.574L29.64 41.714l-2.068 26.599 25.605 11.451c.206.093.427.138.647.138z"/>
        </g>
    </g>
</svg>
