<?xml version="1.0" encoding="UTF-8"?>
<svg width="640px" height="608px" viewBox="0 0 640 608" version="1.1" xmlns="http://www.w3.org/2000/svg" xmlns:xlink="http://www.w3.org/1999/xlink">
    <!-- Generator: Sketch 62 (91390) - https://sketch.com -->
    <title>GMap</title>
    <desc>Created with Sketch.</desc>
    <defs>
        <polygon id="path-1" points="0.5157 0.39574403 228.491 0.39574403 228.491 366.9992 0.5157 366.9992"></polygon>
    </defs>
    <g id="pages" stroke="none" stroke-width="1" fill="none" fill-rule="evenodd">
        <g id="GMap">
            <g id="map" transform="translate(0.000000, 414.000000)" fill-rule="nonzero">
                <path d="M639.282125,183.556235 L547.027141,4.64490112 C545.57667,1.83211649 542.173064,0 538.398087,0 L101.603623,0 C97.8286463,0 94.4237897,1.83311819 92.9745687,4.64490112 L0.71833426,183.556235 C-0.483306288,185.884195 -0.16320225,188.543719 1.57236183,190.641287 C3.3066755,192.739856 6.22387363,194 9.34863922,194 L630.653071,194 C633.776586,194 636.695035,192.738855 638.429348,190.641287 C640.163662,188.54472 640.482516,185.885196 639.282125,183.556235 Z" id="Path" fill="#CCCCCC"></path>
                <path d="M185.828098,-1.60582658e-12 L153.99724,68 L60,68 L92.4822533,4.66941121 C93.9313269,1.84279114 97.3358371,-1.60582658e-12 101.11043,-1.60582658e-12 L101.11043,-1.60582658e-12 L185.828098,-1.60582658e-12 Z M537.860457,-8.31335001e-13 C541.63505,-8.31335001e-13 545.03831,1.84379813 546.489884,4.6704182 L546.489884,4.6704182 L575,60.2572562 L329.497679,60.2572562 L243.69977,-8.31335001e-13 Z" id="Combined-Shape" fill="#518EF8"></path>
                <polygon id="Path" fill="#FFDB56" points="603 114.960551 574.621764 59.9409614 357.783673 59.9409614 259.442978 0 185.603028 0 178.27582 0 147.205854 59.9259359 63.3882424 59.9259359 44.561144 96.4240202 35 114.960551 118.906419 114.960551 78.1389713 194 154.411735 194 219.891312 65.6065989 408.720155 194 548.97028 194 436.117761 114.960551"></polygon>
                <polygon id="Path" fill="#28B446" points="155 194 409 194 220.400165 66"></polygon>
            </g>
            <g id="Group-14" transform="translate(59.000000, 0.000000)">
                <g id="Group-3" transform="translate(87.000000, 84.765000)">
                    <mask id="mask-2" fill="white">
                        <use xlink:href="#path-1"></use>
                    </mask>
                    <g id="Clip-2"></g>
                    <path d="M210.5677,0.4264 C220.4127,19.0014 226.0817,38.7914 227.8387,59.7234 C232.1277,110.8054 215.0037,155.0334 184.4127,194.8804 C167.1027,217.4284 149.4287,239.6964 132.1917,262.2974 C112.2197,288.4844 96.1777,316.7554 87.5667,348.8484 C86.6717,352.1794 85.1837,355.3884 83.6707,358.5084 C81.1787,363.6464 77.2877,366.8764 71.2317,366.9954 C65.0467,367.1174 60.7737,364.2994 58.0307,358.9084 C53.7137,350.4234 51.6487,341.1394 48.6107,332.2014 C39.6217,305.7434 24.4597,282.7964 8.0527,260.5444 C5.4947,257.0734 3.0257,253.5374 0.5157,250.0314 C0.8377,245.5644 4.5467,243.2154 7.0337,240.2864 C31.2507,211.7684 55.2117,183.0334 79.3257,154.4284 C89.2877,142.6134 99.6077,131.0774 108.8617,118.6724 C113.0497,113.9724 117.0477,109.1044 121.2087,104.3754 C135.9517,87.2614 150.3037,69.8184 164.9287,52.6064 C178.9107,36.1514 192.5577,19.4124 206.7417,3.1284 C207.7727,1.9444 208.4587,0.1384 210.5677,0.4264" id="Fill-1" fill="#34A753" mask="url(#mask-2)"></path>
                </g>
                <path d="M196.7631,203.5903 C196.6851,205.8403 194.8271,206.9883 193.5971,208.4533 C159.6121,248.9063 125.5811,289.3213 91.5661,329.7503 C90.1781,331.4003 88.8641,333.1133 87.5161,334.7973 C63.7861,304.3003 37.5741,275.5973 19.6571,240.9063 C18.2191,238.1233 17.0661,235.1933 15.7801,232.3313 C19.2181,225.1823 25.0861,219.8773 30.0371,213.9193 C48.8121,191.3273 67.8841,168.9843 86.7151,146.4383 C92.1391,139.9443 97.5181,133.4003 103.2041,127.1273 C104.2571,125.9663 105.1821,123.7873 107.4271,125.5803 C107.7631,127.2143 106.8041,128.4423 106.1251,129.7573 C91.0811,158.8913 100.8431,193.2623 129.6001,208.9603 C150.2781,220.2473 171.1161,218.6273 191.0471,205.9993 C192.8011,204.8873 194.2331,202.9013 196.7631,203.5903" id="Fill-4" fill="#FABB04"></path>
                <path d="M297.5677,85.1914 C274.0757,113.0284 250.6207,140.8974 227.0667,168.6804 C220.9537,175.8904 215.3247,183.5244 208.5357,190.1514 C207.5277,187.7584 209.1717,186.0134 210.0777,184.1314 C224.5897,153.9644 213.2977,119.3224 183.0887,104.8724 C162.8707,95.2024 142.6717,97.2074 123.8377,109.8254 C122.2137,110.9134 120.9557,112.6814 118.6937,112.5584 C116.1257,110.2244 118.5517,108.6364 119.7497,107.2174 C128.5517,96.7904 137.2327,86.2604 146.0417,75.8404 C163.1217,55.6364 180.2057,35.4374 197.1287,15.1014 C199.3607,12.4184 201.7967,9.9094 203.9117,7.1284 C234.5197,16.3074 259.7137,33.5804 279.9387,58.1904 C286.7937,66.5304 292.9247,75.3854 297.5677,85.1914" id="Fill-6" fill="#4284F3"></path>
                <path d="M107.1508,124.8086 C98.1658,133.9416 90.4008,144.1286 82.1278,153.8726 C63.5068,175.8046 45.0858,197.9056 26.5568,219.9146 C23.0278,224.1066 19.3748,228.1936 15.7798,232.3296 C8.6548,218.3136 4.7628,203.2496 2.3468,187.8726 C-2.0752,159.7326 -0.4912,131.9276 9.1808,104.9226 C15.5568,87.1206 24.5568,70.7556 37.2388,56.5706 C39.3768,56.1546 40.5848,57.6686 41.9778,58.8296 C64.2108,77.3646 86.2708,96.1056 108.4748,114.6756 C109.8888,115.8576 111.2988,117.0316 111.7178,118.9666 C111.3888,121.8456 110.4158,124.2246 107.1508,124.8086" id="Fill-8" fill="#E94335"></path>
                <path d="M111.4457,118.958 C86.7107,98.162 61.9747,77.366 37.2387,56.57 C51.9907,38.183 70.3937,24.499 91.6587,14.579 C115.9597,3.242 141.5757,-1.366 168.2847,0.348 C180.4087,1.126 192.3937,2.991 203.9117,7.128 C204.0947,11.869 199.7337,13.73 197.3837,16.647 C186.2987,30.403 174.6717,43.721 163.2767,57.229 C152.2037,70.358 141.0417,83.415 130.2057,96.736 C126.0677,101.823 120.8097,106.071 118.0587,112.25 C117.2177,115.831 114.9307,117.985 111.4457,118.958" id="Fill-10" fill="#1A73E7"></path>
                <path d="M111.4457,118.958 C113.6497,116.722 115.8547,114.486 118.0587,112.25 C127.0057,105.455 136.6197,100.17 147.9357,98.425 C183.6427,92.921 212.1317,117.959 217.0647,148.153 C219.5477,163.346 215.8347,177.05 208.5407,190.147 C204.8157,194.81 201.3967,199.732 196.7627,203.591 C179.4487,217.044 160.1867,221.316 139.1807,214.689 C104.3747,203.709 87.7557,163.765 104.0187,131.026 C105.0497,128.951 106.1007,126.886 107.1467,124.812 C108.5827,122.858 110.0137,120.908 111.4457,118.958" id="Fill-12" fill="#FEFEFE"></path>
            </g>
        </g>
    </g>
</svg>