<?xml version="1.0" encoding="UTF-8"?>
<svg width="122px" height="77px" viewBox="0 0 122 77" version="1.1" xmlns="http://www.w3.org/2000/svg" xmlns:xlink="http://www.w3.org/1999/xlink">
    <!-- Generator: Sketch 55.1 (78136) - https://sketchapp.com -->
    <title>GoogleAddressLookup</title>
    <desc>Created with Sketch.</desc>
    <defs>
        <path d="M7.77777778,0.555555556 C3.78905458,0.555555556 0.555555556,3.78905458 0.555555556,7.77777778 L0.555555556,41.2222222 C0.555555556,45.2109454 3.78905458,48.4444444 7.77777778,48.4444444 L112.222222,48.4444444 C116.210945,48.4444444 119.444444,45.2109454 119.444444,41.2222222 L119.444444,7.77777778 C119.444444,3.78905458 116.210945,0.555555556 112.222222,0.555555556 L7.77777778,0.555555556 Z" id="path-1"></path>
        <filter x="-1.3%" y="-3.1%" width="102.5%" height="106.3%" filterUnits="objectBoundingBox" id="filter-2">
            <feOffset dx="0" dy="0" in="SourceAlpha" result="shadowOffsetOuter1"></feOffset>
            <feGaussianBlur stdDeviation="0.5" in="shadowOffsetOuter1" result="shadowBlurOuter1"></feGaussianBlur>
            <feColorMatrix values="0 0 0 0 0.643254082   0 0 0 0 0.656386854   0 0 0 0 0.708917942  0 0 0 1 0" type="matrix" in="shadowBlurOuter1"></feColorMatrix>
        </filter>
    </defs>
    <g id="pages" stroke="none" stroke-width="1" fill="none" fill-rule="evenodd">
        <g id="componentes-V2" transform="translate(-845.000000, -1483.000000)" fill-rule="nonzero">
            <g id="GoogleAddressLookup" transform="translate(846.000000, 1483.000000)">
                <g id="Group-124" transform="translate(0.000000, 27.000000)">
                    <g>
                        <use fill="black" fill-opacity="1" filter="url(#filter-2)" xlink:href="#path-1"></use>
                        <use fill="#FFFFFF" xlink:href="#path-1"></use>
                    </g>
                    <path d="M7.77777778,0.555555556 C3.78905458,0.555555556 0.555555556,3.78905458 0.555555556,7.77777778 L0.555555556,41.2222222 C0.555555556,45.2109454 3.78905458,48.4444444 7.77777778,48.4444444 L112.222222,48.4444444 C116.210945,48.4444444 119.444444,45.2109454 119.444444,41.2222222 L119.444444,7.77777778 C119.444444,3.78905458 116.210945,0.555555556 112.222222,0.555555556 L7.77777778,0.555555556 Z M7.77777778,-1.59872116e-13 L112.222222,-1.59872116e-13 C116.51777,-1.59872116e-13 120,3.48222972 120,7.77777778 L120,41.2222222 C120,45.5177703 116.51777,49 112.222222,49 L7.77777778,49 C3.48222972,49 0,45.5177703 0,41.2222222 L0,7.77777778 C0,3.48222972 3.48222972,-1.59872116e-13 7.77777778,-1.59872116e-13 Z" id="Rectangle" fill="#E3E5ED"></path>
                    <g id="Group-86" transform="translate(21.000000, 11.000000)" fill="#A4A7B5">
                        <path d="M1.61111111,16 C0.782683986,16 0.111111111,15.3284271 0.111111111,14.5 C0.111111111,13.6715729 0.782683986,13 1.61111111,13 L37.3611111,13 C38.1895382,13 38.8611111,13.6715729 38.8611111,14.5 C38.8611111,15.3284271 38.1895382,16 37.3611111,16 L1.61111111,16 Z" id="Path-Copy" fill-opacity="0.6"></path>
                        <path d="M1.61111111,3 C0.782683986,3 0.111111111,2.32842712 0.111111111,1.5 C0.111111111,0.671572875 0.782683986,0 1.61111111,0 L24.3611111,0 C25.1895382,0 25.8611111,0.671572875 25.8611111,1.5 C25.8611111,2.32842712 25.1895382,3 24.3611111,3 L1.61111111,3 Z" id="Path-Copy-3" fill-opacity="0.6"></path>
                        <path d="M29.5,3 C28.6715729,3 28,2.32842712 28,1.5 C28,0.671572875 28.6715729,0 29.5,0 L42.25,0 C43.0784271,0 43.75,0.671572875 43.75,1.5 C43.75,2.32842712 43.0784271,3 42.25,3 L29.5,3 Z" id="Path-Copy-4"></path>
                        <path d="M42.5,16 C41.6715729,16 41,15.3284271 41,14.5 C41,13.6715729 41.6715729,13 42.5,13 L55.25,13 C56.0784271,13 56.75,13.6715729 56.75,14.5 C56.75,15.3284271 56.0784271,16 55.25,16 L42.5,16 Z" id="Path-Copy-5"></path>
                        <path d="M1.5,29 C0.671572875,29 -4.4408921e-14,28.3284271 -4.4408921e-14,27.5 C-4.4408921e-14,26.6715729 0.671572875,26 1.5,26 L14.25,26 C15.0784271,26 15.75,26.6715729 15.75,27.5 C15.75,28.3284271 15.0784271,29 14.25,29 L1.5,29 Z" id="Path-Copy-12"></path>
                        <path d="M19.5,29 C18.6715729,29 18,28.3284271 18,27.5 C18,26.6715729 18.6715729,26 19.5,26 L45.75,26 C46.5784271,26 47.25,26.6715729 47.25,27.5 C47.25,28.3284271 46.5784271,29 45.75,29 L19.5,29 Z" fill-opacity="0.6"></path>
                    </g>
                </g>
                <g id="Group-72" fill="#A4A7B5">
                    <path d="M10.0645161,6.87096774 C5.05832211,6.87096774 1,10.9292898 1,15.9354839 C1,20.9416779 5.05832211,25 10.0645161,25 L109.806452,25 C114.812646,25 118.870968,20.9416779 118.870968,15.9354839 C118.870968,10.9292898 114.812646,6.87096774 109.806452,6.87096774 L10.0645161,6.87096774 Z M10.0645161,5.87096774 L109.806452,5.87096774 C115.36493,5.87096774 119.870968,10.3770051 119.870968,15.9354839 C119.870968,21.4939626 115.36493,26 109.806452,26 L10.0645161,26 C4.50603736,26 4.54747351e-13,21.4939626 4.54747351e-13,15.9354839 C4.54747351e-13,10.3770051 4.50603736,5.87096774 10.0645161,5.87096774 Z" id="Rectangle"></path>
                    <path d="M11.6774194,17.3548387 C10.7510062,17.3548387 10,16.6038325 10,15.6774194 C10,14.7510062 10.7510062,14 11.6774194,14 L21.0322581,14 C21.9586712,14 22.7096774,14.7510062 22.7096774,15.6774194 C22.7096774,16.6038325 21.9586712,17.3548387 21.0322581,17.3548387 L11.6774194,17.3548387 Z" id="Line-12"></path>
                    <path d="M50.6774194,2.51612903 C49.9826095,2.51612903 49.4193548,1.95287436 49.4193548,1.25806452 C49.4193548,0.56325467 49.9826095,0 50.6774194,0 L77.7258065,0 C78.4206163,0 78.983871,0.56325467 78.983871,1.25806452 C78.983871,1.95287436 78.4206163,2.51612903 77.7258065,2.51612903 L50.6774194,2.51612903 Z" id="Line-12"></path>
                </g>
                <polygon id="|" fill="#01B6F5" points="25 12 25.516129 12 25.516129 18.6148782 25 18.6148782"></polygon>
                <g id="location" transform="translate(104.000000, 11.000000)">
                    <path d="M9.14705078,7.01117187 C9.53615234,7.22492187 10,7.58871094 10,8.10783203 C10,8.50576172 9.72632812,9.07310547 8.42261719,9.51603516 C7.50402344,9.828125 6.28851562,10 5,10 C3.71148437,10 2.49597656,9.828125 1.57738281,9.51603516 C0.273671875,9.07310547 0,8.50576172 0,8.10783203 C0,7.58871094 0.463847656,7.22492187 0.852949219,7.01115234 C0.994804687,6.93324219 1.17287109,6.98505859 1.25078125,7.12685547 C1.32869141,7.26867187 1.27689453,7.44679687 1.13507812,7.5246875 C0.78609375,7.71642578 0.5859375,7.92896484 0.5859375,8.10783203 C0.5859375,8.32660156 0.895898437,8.66568359 1.76587891,8.96123047 C2.62535156,9.25326172 3.77392578,9.4140625 5,9.4140625 C6.22607422,9.4140625 7.37464844,9.25326172 8.23412109,8.96123047 C9.10410156,8.66566406 9.4140625,8.32660156 9.4140625,8.10783203 C9.4140625,7.92896484 9.21390625,7.71642578 8.86492187,7.52470703 C8.72310547,7.44681641 8.67130859,7.26869141 8.74921875,7.126875 C8.82708984,6.98507812 9.00519531,6.93326172 9.14705078,7.01117187 Z M2.788125,8.53769531 C2.06052734,8.33214844 1.69160156,8.03462891 1.69160156,7.65341797 C1.69160156,7.27220703 2.06052734,6.9746875 2.788125,6.76916016 C2.94962891,6.72353516 3.1253125,6.68353516 3.31207031,6.649375 C3.41349609,6.82458984 3.51976562,7.005 3.63087891,7.19054687 C3.42414062,7.2215625 3.23005859,7.25960937 3.05380859,7.30449219 C2.51833984,7.44087891 2.32271484,7.59441406 2.2825,7.6534375 C2.32271484,7.71246094 2.51832031,7.86601562 3.05378906,8.00238281 C3.56060547,8.13148437 4.21267578,8.20509766 4.89945312,8.21167969 C4.93273437,8.21414062 4.96623047,8.21552734 5,8.21552734 C5.03375,8.21552734 5.06726562,8.21414062 5.10052734,8.21167969 C5.78730469,8.20509766 6.439375,8.13146484 6.94619141,8.00238281 C7.48166016,7.86601562 7.67724609,7.71248047 7.71748047,7.6534375 C7.67726562,7.59441406 7.48164062,7.44087891 6.94617187,7.30449219 C6.76992187,7.25958984 6.57583984,7.2215625 6.36912109,7.19054687 C6.48023437,7.00498047 6.58650391,6.82460937 6.68792969,6.649375 C6.8746875,6.68351562 7.05035156,6.72353516 7.211875,6.76916016 C7.93947266,6.9746875 8.30839844,7.2721875 8.30839844,7.65341797 C8.30839844,8.03462891 7.93947266,8.33216797 7.211875,8.53769531 C6.61714844,8.70572266 5.83162109,8.79824219 5,8.79824219 C4.16837891,8.79824219 3.38285156,8.70570312 2.788125,8.53769531 Z" id="Combined-Shape" fill="#A4A7B5"></path>
                    <path d="M5,7.62957031 C5.26080078,7.62957031 5.49769531,7.49667969 5.63375,7.27408203 C6.58707031,5.714375 7.7234375,3.65878906 7.7234375,2.72341797 C7.7234375,1.22171875 6.50171875,0 5,0 C3.49828125,0 2.2765625,1.22171875 2.2765625,2.72341797 C2.2765625,3.65878906 3.41294922,5.714375 4.36625,7.27408203 C4.50230469,7.49667969 4.73921875,7.62957031 5,7.62957031 Z M3.90533203,2.53642578 C3.90533203,1.93285156 4.39640625,1.44179687 5,1.44179687 C5.60359375,1.44179687 6.09466797,1.93285156 6.09466797,2.53642578 C6.09466797,3.14001953 5.60359375,3.63107422 5,3.63107422 C4.39640625,3.63107422 3.90533203,3.14003906 3.90533203,2.53642578 Z" id="Shape" fill="#EE3840"></path>
                </g>
                <g id="map-marker-alt" transform="translate(11.000000, 36.000000)" fill="#E3E5ED">
                    <path d="M2.35522656,6.85876953 C0.368730469,3.97893945 0,3.68338086 0,2.625 C0,1.17524805 1.17524805,0 2.625,0 C4.07475195,0 5.25,1.17524805 5.25,2.625 C5.25,3.68338086 4.88126953,3.97893945 2.89477344,6.85876953 C2.76441211,7.04708594 2.48557422,7.04707227 2.35522656,6.85876953 Z M2.625,3.71875 C3.22906445,3.71875 3.71875,3.22906445 3.71875,2.625 C3.71875,2.02093555 3.22906445,1.53125 2.625,1.53125 C2.02093555,1.53125 1.53125,2.02093555 1.53125,2.625 C1.53125,3.22906445 2.02093555,3.71875 2.625,3.71875 Z" id="Shape"></path>
                </g>
                <g id="map-marker-alt-copy" transform="translate(11.000000, 48.500000)" fill="#E3E5ED">
                    <path d="M2.35522656,6.85876953 C0.368730469,3.97893945 0,3.68338086 0,2.625 C0,1.17524805 1.17524805,0 2.625,0 C4.07475195,0 5.25,1.17524805 5.25,2.625 C5.25,3.68338086 4.88126953,3.97893945 2.89477344,6.85876953 C2.76441211,7.04708594 2.48557422,7.04707227 2.35522656,6.85876953 Z M2.625,3.71875 C3.22906445,3.71875 3.71875,3.22906445 3.71875,2.625 C3.71875,2.02093555 3.22906445,1.53125 2.625,1.53125 C2.02093555,1.53125 1.53125,2.02093555 1.53125,2.625 C1.53125,3.22906445 2.02093555,3.71875 2.625,3.71875 Z" id="Shape"></path>
                </g>
                <g id="map-marker-alt-copy-2" transform="translate(11.000000, 61.500000)" fill="#E3E5ED">
                    <path d="M2.35522656,6.85876953 C0.368730469,3.97893945 0,3.68338086 0,2.625 C0,1.17524805 1.17524805,0 2.625,0 C4.07475195,0 5.25,1.17524805 5.25,2.625 C5.25,3.68338086 4.88126953,3.97893945 2.89477344,6.85876953 C2.76441211,7.04708594 2.48557422,7.04707227 2.35522656,6.85876953 Z M2.625,3.71875 C3.22906445,3.71875 3.71875,3.22906445 3.71875,2.625 C3.71875,2.02093555 3.22906445,1.53125 2.625,1.53125 C2.02093555,1.53125 1.53125,2.02093555 1.53125,2.625 C1.53125,3.22906445 2.02093555,3.71875 2.625,3.71875 Z" id="Shape"></path>
                </g>
                <g id="Asset-1" transform="translate(85.000000, 68.000000)">
                    <path d="M18.4653289,0 C18.6549678,0.0609271523 18.8514834,0.0990728477 19.0260465,0.207682119 C19.3336477,0.398940397 19.3399954,0.467549669 19.0524954,0.688211921 C19.0070032,0.723443709 18.9861086,0.702516556 18.9525184,0.676291391 C18.3698482,0.22013245 17.5697677,0.393642384 17.263489,1.05960265 C17.0746435,1.47046358 17.1172263,1.8807947 17.40023,2.24291391 C17.6647194,2.58172185 18.0291858,2.70092715 18.4460212,2.6389404 C18.85069,2.57854305 19.1294618,2.3602649 19.2394894,1.95019868 C19.2685833,1.84211921 19.23658,1.82463576 19.137132,1.82675497 C18.8771389,1.83284768 18.6171458,1.82675497 18.3571527,1.83072848 C18.2764834,1.83072848 18.2534729,1.80847682 18.2513569,1.72662252 C18.2479186,1.40662252 18.2447447,1.40662252 18.5629255,1.40662252 C18.8977691,1.40662252 19.2326127,1.40662252 19.5679853,1.40662252 C19.6306693,1.40662252 19.6721941,1.40980132 19.6830382,1.49218543 C19.7597401,2.07496689 19.4920768,2.64397351 18.9853151,2.90701987 C18.0897539,3.37165563 16.9503335,2.88317881 16.7289558,1.84741722 C16.5570377,1.03072848 17.0579807,0.272847682 17.8723436,0.0508609272 C17.9207452,0.0378807947 17.9781394,0.0474172185 18.0156969,0 L18.4653289,0 Z" fill="#4586F3"></path>
                    <path d="M24.9717686,3.97350993 C24.7905934,3.91072848 24.6033349,3.86384106 24.4591881,3.72211921 C24.3814321,3.64423392 24.3135632,3.55704162 24.2571182,3.46251656 C24.2187672,3.4002649 24.2325207,3.36794702 24.2986431,3.34675497 C24.3322664,3.3361818 24.364777,3.32234111 24.3957107,3.30543046 C24.5179048,3.23761589 24.6038638,3.22092715 24.6961707,3.37642384 C24.8064627,3.5618543 25.0553473,3.61880795 25.2613845,3.55549669 C25.47615,3.48927152 25.5919963,3.33748344 25.6115685,3.09562914 C25.6223174,3.02319786 25.6198079,2.94941161 25.6041628,2.87788079 C25.3642709,3.07152318 25.1016329,3.13086093 24.8128105,3.03231788 C24.5899777,2.95649617 24.4012245,2.80396343 24.2801288,2.6018543 C24.0487006,2.23099338 24.1145584,1.68927152 24.4290363,1.38331126 C24.6998735,1.1184106 25.1516214,0.947284768 25.6094526,1.29509934 C25.5996665,1.16662252 25.6734591,1.1594702 25.7713201,1.16264901 C26.0358096,1.16821192 26.0358096,1.16423841 26.0358096,1.42463576 C26.0358096,1.94966887 26.0408349,2.47496689 26.0334292,3.0002649 C26.0286684,3.34225166 25.9215501,3.6407947 25.6155359,3.83708609 C25.4991605,3.91178808 25.3605681,3.9210596 25.237845,3.97589404 L24.9717686,3.97350993 Z M25.1246435,2.68238411 C25.4282774,2.68238411 25.6517709,2.43443709 25.6536224,2.09430464 C25.6554738,1.75417219 25.42431,1.48503311 25.1246435,1.48768212 C24.8154554,1.48927152 24.574241,1.75602649 24.5758202,2.09456954 C24.5768859,2.42569536 24.8167778,2.68238411 25.1246435,2.68238411 L25.1246435,2.68238411 Z" id="Shape" fill="#4586F3"></path>
                    <path d="M28.7275184,1.85430464 C28.5971251,1.86437086 28.4910649,1.94066225 28.3741605,1.98675497 C28.076081,2.10437086 27.7819687,2.23178808 27.4841536,2.35046358 C27.411419,2.37960265 27.3992525,2.40344371 27.4489765,2.46913907 C27.6513109,2.73960265 28.0670883,2.76476821 28.286879,2.50516556 C28.3572332,2.42225166 28.4045768,2.42834437 28.4775759,2.48450331 C28.550575,2.54066225 28.6209292,2.58543046 28.6928703,2.63549669 C28.4918583,2.96900662 28.0580957,3.14807947 27.6737925,3.05721854 C27.2376495,2.95364238 26.9332222,2.61509934 26.9025414,2.19470199 C26.874241,1.80238411 26.9935258,1.47390728 27.3291628,1.24397351 C27.7666283,0.944635762 28.3942617,1.1181457 28.6211937,1.5989404 C28.6537259,1.66754967 28.6632475,1.74913907 28.7269894,1.8013245 L28.7275184,1.85430464 Z M27.3315432,1.97006623 C27.3191122,2.0407947 27.3460902,2.04768212 27.4108901,2.02013245 C27.6404669,1.92264901 27.8724241,1.83019868 28.1027944,1.73456954 C28.2189052,1.68635762 28.2239305,1.66172185 28.1308303,1.57854305 C28.0977568,1.54997565 28.0596288,1.52787197 28.0184223,1.51337748 C27.7034154,1.4010596 27.3601081,1.62860927 27.3315432,1.97006623 L27.3315432,1.97006623 Z" id="Shape" fill="#E94638"></path>
                    <path d="M22.9859821,3.07709197 C22.6324839,3.07486206 22.3070227,2.88392469 22.1321967,2.57619825 C21.9573707,2.26847182 21.95974,1.89070727 22.1384122,1.58520487 C22.3170844,1.27970248 22.6449149,1.0928753 22.9984131,1.0950797 C23.5538408,1.10251656 23.9886615,1.53774834 23.9889261,2.08635762 C23.9891904,2.6418543 23.5464351,3.0789404 22.9859821,3.07709197 Z M23.5445837,2.09271523 C23.5445837,1.74357616 23.3065432,1.48503311 22.9862466,1.48927152 C22.6730911,1.49324503 22.4324057,1.75417219 22.43267,2.08953642 C22.4329347,2.42490066 22.675207,2.68397351 22.9896849,2.68476821 C23.3089236,2.68423841 23.5437902,2.43390728 23.5445837,2.09271523 Z" id="Shape" fill="#FABC09"></path>
                    <path d="M20.8557843,3.07735698 C20.2910994,3.0792053 19.8620975,2.65033113 19.862626,2.08450331 C19.862626,1.52476821 20.2858096,1.10013245 20.8467916,1.09536424 C21.111839,1.09038704 21.3675629,1.19331796 21.5554608,1.38060923 C21.7433587,1.56790049 21.8473528,1.82352637 21.8436523,2.08900662 C21.8396849,2.64688742 21.4112121,3.07549669 20.8557843,3.07735698 Z M21.4072447,2.08609272 C21.4072447,1.74781457 21.1655014,1.48768212 20.8518169,1.48794682 C20.5381325,1.48821192 20.2934798,1.75284768 20.2940079,2.08768212 C20.2945377,2.42251656 20.5389259,2.68370861 20.8531394,2.68370861 C21.1673528,2.68370861 21.4069802,2.42490066 21.4072447,2.08609272 Z" id="Shape" fill="#E94638"></path>
                    <path d="M4.57037718,1.95178808 C4.48018629,2.26013245 4.3950207,2.53748344 4.31937672,2.81748344 C4.29768859,2.89695364 4.26118905,2.9194702 4.18237121,2.9194702 C3.8800598,2.9194702 3.87767939,2.92370861 3.78722401,2.63470199 C3.67640294,2.2781457 3.57060718,1.9189404 3.4574057,1.56291391 C3.42778289,1.47019868 3.43809798,1.43496689 3.54336477,1.4381457 C3.87371205,1.44794702 3.79965501,1.39231788 3.87715041,1.69086093 C3.94538868,1.95576159 4.01865225,2.21695364 4.08874195,2.4797351 C4.13820147,2.47708609 4.12682843,2.43629139 4.13396964,2.41033113 C4.21331647,2.12662252 4.29689512,1.84397351 4.36645584,1.55788079 C4.39528519,1.4392053 4.46669733,1.43311258 4.5600621,1.4389404 C4.6476081,1.44423841 4.73674103,1.41245033 4.76980221,1.55125828 C4.84571744,1.86588141 4.93851153,2.17617709 5.04778059,2.4807947 C5.07819687,2.38410596 5.10676173,2.28847682 5.13109476,2.19125828 C5.18875345,1.97006623 5.24614765,1.74860927 5.3001035,1.52662252 C5.31888224,1.44900662 5.36781279,1.4392053 5.43605106,1.4381457 C5.71640984,1.43443709 5.71455842,1.43205298 5.63468261,1.69271523 C5.51883625,2.07125828 5.40378335,2.44980132 5.29428473,2.83019868 C5.27391904,2.90066225 5.24138684,2.91735099 5.17473551,2.9192053 C4.86343146,2.92715232 4.86210902,2.92927152 4.77138914,2.63284768 C4.70579577,2.41483444 4.6425828,2.19602649 4.57037718,1.95178808 Z" fill="#868686"></path>
                    <path d="M11.2709522,1.56847682 C11.2709522,1.34887417 11.2733326,1.15496689 11.2709522,0.961324503 C11.2696297,0.893774834 11.2897309,0.871523179 11.3598206,0.868609272 C11.6428243,0.856953642 11.6425598,0.854304636 11.6425598,1.13615894 C11.6425598,1.69245033 11.6404439,2.24688742 11.6446757,2.80211921 C11.6446757,2.89483444 11.6182268,2.93245033 11.5267134,2.9181457 C11.5091801,2.91549502 11.4913489,2.91549502 11.4738155,2.9181457 C11.3442157,2.93774834 11.2571987,2.91046358 11.3034844,2.7194702 C11.1670078,2.85536424 11.0456072,2.94437086 10.8731601,2.94754967 C10.5192732,2.95417219 10.2780589,2.77059603 10.2100851,2.42039735 C10.1585097,2.15364238 10.161419,1.89271523 10.3343951,1.66357616 C10.5459867,1.38304636 10.9088661,1.32397351 11.2019204,1.51761589 C11.2180543,1.52900662 11.2344526,1.54198675 11.2709522,1.56847682 Z M10.5531279,2.17059603 C10.5462739,2.25525067 10.5602598,2.34029677 10.5938592,2.41827815 C10.6562787,2.55072848 10.7554623,2.6392053 10.9086017,2.6410596 C11.061741,2.64291391 11.1730911,2.57086093 11.2318077,2.43284768 C11.3058648,2.25880795 11.3079807,2.0805298 11.2162029,1.91072848 C11.0839581,1.66887417 10.7665708,1.66198675 10.6226886,1.89562914 C10.5715009,1.97780317 10.5471844,2.07392406 10.5531279,2.17059603 L10.5531279,2.17059603 Z" id="Shape" fill="#868686"></path>
                    <path d="M0.391708832,2.78543046 C0.391708832,2.99735099 0.388799448,3.18993377 0.391708832,3.38357616 C0.393295768,3.46304636 0.377426403,3.49986755 0.284061638,3.49934338 C0.0251264949,3.49934338 0.0251264949,3.50331126 0.0251264949,3.24635762 L0.0251264949,1.60635762 C0.0251264949,1.4394702 0.0251264949,1.4410596 0.198102576,1.4386755 C0.295170193,1.4386755 0.39699862,1.42304636 0.361028059,1.59576159 C0.423976541,1.55443709 0.466823827,1.52291391 0.514431923,1.49536424 C0.654986948,1.40947304 0.824033849,1.38354142 0.98381305,1.42336167 C1.14359225,1.46318192 1.28079167,1.56543639 1.36476541,1.70728477 C1.58693652,2.07125828 1.5025644,2.59761589 1.18729301,2.83443709 C0.963270469,3.0010596 0.692168813,2.98887417 0.391708832,2.78543046 Z M1.11297148,2.19443709 C1.11603266,2.10595847 1.09789425,2.01803207 1.0600736,1.93801325 C0.946078657,1.69668874 0.653288868,1.65006623 0.483486661,1.84529801 C0.313684453,2.0405298 0.348597056,2.41615894 0.546964121,2.57774834 C0.574291371,2.5997525 0.606052902,2.61556759 0.640064397,2.62410596 C0.904024839,2.69245033 1.11085557,2.50596026 1.11297148,2.19443709 Z" id="Shape" fill="#868686"></path>
                    <path d="M13.11365,1.58304636 C13.4336822,1.36662252 13.6656394,1.34463576 13.9190202,1.52529801 C14.1446297,1.68556291 14.2014949,1.93086093 14.2012314,2.19019868 C14.2012314,2.42145695 14.1425138,2.63761589 13.9573712,2.79417219 C13.7016099,3.01006623 13.425483,3.00609272 13.1155014,2.78649007 C13.0594296,2.81139073 13.123965,2.90384106 13.0551978,2.91152318 C12.9672277,2.91903941 12.8788223,2.92001338 12.7907084,2.91443709 C12.7391329,2.91258278 12.7478611,2.86701987 12.7478611,2.83496689 C12.7478611,2.20891832 12.7478611,1.58295806 12.7478611,0.957086093 C12.7478611,0.897218543 12.7653174,0.874172185 12.8295883,0.869668874 C13.1139144,0.850066225 13.1139144,0.847682119 13.1139144,1.12529801 L13.11365,1.58304636 Z M13.0961937,2.18463576 C13.0928027,2.26512583 13.1090529,2.34523057 13.1435373,2.41801325 C13.2022539,2.54807947 13.2956187,2.63523179 13.4439972,2.6405298 C13.5825897,2.64556291 13.687592,2.58463576 13.7613845,2.46543046 C13.8706187,2.29139073 13.8526334,1.99735099 13.7193307,1.84264901 C13.6306876,1.73980771 13.4887514,1.70086637 13.3601541,1.74410596 C13.1943192,1.7989404 13.099103,1.95337748 13.0961937,2.18463576 Z" id="Shape" fill="#868686"></path>
                    <path d="M2.49016789,2.94649007 C2.00826817,2.96847682 1.67025069,2.59496689 1.67025069,2.18384106 C1.67025069,1.74675497 2.02651794,1.40529801 2.48329117,1.40556276 C2.94905704,1.40556276 3.29051288,1.73562914 3.28998451,2.18437086 C3.28945492,2.63311258 2.96228151,2.94569536 2.49016789,2.94649007 Z M2.91335097,2.18807947 C2.91335097,1.9184106 2.7324402,1.7213245 2.48329117,1.72211681 C2.24048988,1.72211681 2.04132935,1.93403974 2.04344526,2.18675497 C2.04556118,2.4394702 2.2325552,2.63046358 2.48355566,2.63125947 C2.74169733,2.63178808 2.91361546,2.45509934 2.91467341,2.18807947 L2.91335097,2.18807947 Z" id="Shape" fill="#868686"></path>
                    <path d="M15.0584407,2.45615894 C15.1602691,2.14966887 15.2597171,1.85986755 15.3520239,1.56741722 C15.3811178,1.47470199 15.4221136,1.43496689 15.5268514,1.43655629 C15.8101196,1.44344371 15.8080037,1.43655629 15.7019434,1.70728477 C15.5104531,2.19381898 15.3204615,2.6816777 15.1319687,3.17086093 C15.0211956,3.45641273 14.7007594,3.5985239 14.4152024,3.48874172 C14.338236,3.45880795 14.2996205,3.42543046 14.3406164,3.33456954 C14.3855796,3.23417219 14.4080612,3.13589404 14.5622585,3.20211921 C14.6540363,3.2418543 14.749517,3.18066225 14.7981831,3.09615894 C14.8468491,3.01165563 14.9177323,2.92900662 14.862983,2.80476821 C14.6751955,2.38649007 14.500368,1.9602649 14.3154899,1.53642384 C14.2795193,1.45430464 14.2982981,1.43708609 14.3792318,1.4394702 C14.7778174,1.45218543 14.6535074,1.36556291 14.8084982,1.75443709 C14.8989535,1.98066225 14.9730106,2.21456954 15.0584407,2.45615894 Z" fill="#868686"></path>
                    <path d="M9.47163063,2.25165563 C9.33065777,2.25165563 9.18968491,2.25536424 9.04844756,2.25006623 C8.95957912,2.24688742 8.95561178,2.28662252 8.97571297,2.35602649 C9.04130635,2.57854305 9.33462511,2.69774834 9.59038638,2.60397351 C9.62344756,2.59178808 9.65386385,2.57165563 9.687454,2.56291391 C9.73876495,2.54940397 9.77764489,2.45430464 9.83027829,2.50993377 C9.88291168,2.56556291 9.90962511,2.65456954 9.94453772,2.73059603 C9.95405934,2.75258278 9.92708142,2.76741722 9.9098896,2.78092715 C9.62450552,3.00688742 9.05109246,3.03072848 8.77417203,2.70807947 C8.4901104,2.37509934 8.51655934,1.85430464 8.83659154,1.57642384 C9.05664673,1.38596026 9.40683073,1.35099338 9.66655934,1.49350993 C9.87418353,1.60768212 10.0069572,1.90834437 9.97680543,2.17801325 C9.96913523,2.24768212 9.93475161,2.25271523 9.88106026,2.25218543 C9.74458372,2.25165563 9.60810718,2.25165563 9.47163063,2.25165563 Z M8.97518399,1.98993377 C9.14974701,1.98993377 9.31637534,1.98993377 9.48273919,1.98993377 C9.61022309,1.98993377 9.62873735,1.9607947 9.57187213,1.84529801 C9.53860919,1.77688591 9.47780975,1.72591611 9.40471481,1.70516556 C9.25712971,1.66119205 9.02623045,1.72821192 8.97518399,1.99019868 L8.97518399,1.98993377 Z" id="Shape" fill="#868686"></path>
                    <path d="M6.74104186,2.25165563 C6.60456532,2.25165563 6.46782429,2.25721854 6.33187672,2.24980132 C6.23613155,2.24450331 6.23084177,2.28953642 6.24909154,2.3607947 C6.27818537,2.47576159 6.42788638,2.60503311 6.55404784,2.62278146 C6.71617985,2.64529801 6.87408004,2.63099338 7.00685373,2.52927152 C7.08170423,2.47205298 7.10524379,2.50066225 7.14121435,2.56662252 C7.24410074,2.75523179 7.24701012,2.75390728 7.05393284,2.85668874 C6.75691122,3.01562914 6.30939512,2.96768212 6.08907544,2.75390728 C5.83622355,2.50860927 5.77512649,2.12609272 5.93540708,1.79072848 C6.07664443,1.49483444 6.46808878,1.33218543 6.80425483,1.43655629 C7.14042088,1.54092715 7.26235051,1.84715232 7.24701012,2.17827815 C7.24383625,2.24794702 7.20389834,2.25271523 7.15047148,2.25192053 C7.01399494,2.25165563 6.87672493,2.25165563 6.74104186,2.25165563 Z M6.55933763,1.99019868 C6.63868445,1.99019868 6.71803128,1.98728477 6.7973781,1.99019868 C6.8724931,1.99364238 6.8899494,1.96715232 6.86455842,1.89642384 C6.82329807,1.78251656 6.74871205,1.71099338 6.62651794,1.69562914 C6.47549448,1.67735099 6.36202852,1.74198675 6.28268169,1.86754967 C6.23613155,1.94119205 6.22581647,2 6.34880405,1.99046358 C6.41677783,1.98675497 6.48766099,1.99019868 6.55933763,1.99019868 Z" id="Shape" fill="#868686"></path>
                    <path d="M26.7173988,1.56291391 C26.7173988,2.00423841 26.7147539,2.44556291 26.7192502,2.88741722 C26.7192502,2.98437086 26.7049678,3.02516556 26.5933533,3.02251656 C26.2926288,3.01536424 26.2926288,3.02251656 26.2926288,2.7202649 C26.2926288,1.89907285 26.2942157,1.07788079 26.2902484,0.256688742 C26.2902484,0.148874172 26.3037374,0.101721854 26.4301633,0.106490066 C26.7168698,0.117086093 26.7173988,0.109139073 26.7173988,0.397880795 L26.7173988,1.56291391 Z" fill="#34A853"></path>
                    <path d="M7.91378795,1.73562914 C8.00371435,1.58781457 8.09522769,1.48450331 8.23672953,1.4407947 C8.40309338,1.38966887 8.43932843,1.41430464 8.43959292,1.58622517 C8.43959292,1.63019868 8.43959292,1.67443709 8.43959292,1.7186755 C8.43959292,1.76291391 8.43060028,1.79682119 8.37479301,1.79284768 C8.0574057,1.76953642 7.9225161,2.0394702 7.91669733,2.3186755 C7.91325897,2.48635762 7.91299448,2.65403974 7.91669733,2.82198675 C7.91881325,2.89668874 7.89315777,2.9184106 7.81883625,2.9202649 C7.54482521,2.92768212 7.54482521,2.93059603 7.54482521,2.65536424 C7.54482521,2.29377483 7.54905704,1.93218543 7.54218031,1.57086093 C7.5400644,1.46225166 7.57709292,1.43655629 7.67786339,1.4384106 C7.89527369,1.4415894 7.89553818,1.43682119 7.91378795,1.73562914 Z" fill="#868686"></path>
                </g>
            </g>
        </g>
    </g>
</svg>