<?xml version="1.0" encoding="UTF-8"?>
<svg width="139px" height="71px" viewBox="0 0 139 71" version="1.1" xmlns="http://www.w3.org/2000/svg" xmlns:xlink="http://www.w3.org/1999/xlink">
    <title>HelpText</title>
    <defs>
        <path d="M3.98358413,0.284541724 C1.94065942,0.284541724 0.284541724,1.94065942 0.284541724,3.98358413 L0.284541724,33.6169032 C0.284541724,35.6598279 1.94065942,37.3159456 3.98358413,37.3159456 L57.4774282,37.3159456 C59.5203529,37.3159456 61.1764706,35.6598279 61.1764706,33.6169032 L61.1764706,3.98358413 C61.1764706,1.94065942 59.5203529,0.284541724 57.4774282,0.284541724 L3.98358413,0.284541724 Z" id="path-1"></path>
        <filter x="-2.5%" y="-4.1%" width="104.9%" height="108.1%" filterUnits="objectBoundingBox" id="filter-2">
            <feOffset dx="0" dy="0" in="SourceAlpha" result="shadowOffsetOuter1"></feOffset>
            <feGaussianBlur stdDeviation="0.5" in="shadowOffsetOuter1" result="shadowBlurOuter1"></feGaussianBlur>
            <feColorMatrix values="0 0 0 0 0.643254082   0 0 0 0 0.656386854   0 0 0 0 0.708917942  0 0 0 1 0" type="matrix" in="shadowBlurOuter1"></feColorMatrix>
        </filter>
        <path d="M3.98358413,0.284541724 C1.94065942,0.284541724 0.284541724,1.94065942 0.284541724,3.98358413 L0.284541724,25.6169032 C0.284541724,27.6598279 1.94065942,29.3159456 3.98358413,29.3159456 L57.4774282,29.3159456 C59.5203529,29.3159456 61.1764706,27.6598279 61.1764706,25.6169032 L61.1764706,3.98358413 C61.1764706,1.94065942 59.5203529,0.284541724 57.4774282,0.284541724 L3.98358413,0.284541724 Z" id="path-3"></path>
        <filter x="-2.5%" y="-5.2%" width="104.9%" height="110.3%" filterUnits="objectBoundingBox" id="filter-4">
            <feOffset dx="0" dy="0" in="SourceAlpha" result="shadowOffsetOuter1"></feOffset>
            <feGaussianBlur stdDeviation="0.5" in="shadowOffsetOuter1" result="shadowBlurOuter1"></feGaussianBlur>
            <feColorMatrix values="0 0 0 0 0.643254082   0 0 0 0 0.656386854   0 0 0 0 0.708917942  0 0 0 1 0" type="matrix" in="shadowBlurOuter1"></feColorMatrix>
        </filter>
    </defs>
    <g id="pages" stroke="none" stroke-width="1" fill="none" fill-rule="evenodd">
        <g id="HelpText" transform="translate(1.000000, 0.000000)" fill-rule="nonzero">
            <g id="Group-209" transform="translate(0.000000, 11.000000)">
                <g id="Group-124" transform="translate(0.000000, 10.828728)">
                    <g id="Path">
                        <use fill="black" fill-opacity="1" filter="url(#filter-2)" xlink:href="#path-1"></use>
                        <use fill="#FFFFFF" xlink:href="#path-1"></use>
                    </g>
                    <path d="M3.98358413,0.284541724 C1.94065942,0.284541724 0.284541724,1.94065942 0.284541724,3.98358413 L0.284541724,33.608045 C0.284541724,35.6509697 1.94065942,37.3070874 3.98358413,37.3070874 L57.4774282,37.3070874 C59.5203529,37.3070874 61.1764706,35.6509697 61.1764706,33.608045 L61.1764706,3.98358413 C61.1764706,1.94065942 59.5203529,0.284541724 57.4774282,0.284541724 L3.98358413,0.284541724 Z M3.98358413,-4.34125894e-11 L57.4774282,-4.34125894e-11 C59.6775009,-4.34125894e-11 61.4610123,1.78351137 61.4610123,3.98358413 L61.4610123,33.608045 C61.4610123,35.8081177 59.6775009,37.5916291 57.4774282,37.5916291 L3.98358413,37.5916291 C1.78351137,37.5916291 0,35.8081177 0,33.608045 L0,3.98358413 C0,1.78351137 1.78351137,-4.34125894e-11 3.98358413,-4.34125894e-11 Z" id="Rectangle" fill="#E3E5ED"></path>
                    <path d="M6.45909713,15.3652531 C6.03479738,15.3652531 5.69083447,15.0212902 5.69083447,14.5969904 C5.69083447,14.1726907 6.03479738,13.8287278 6.45909713,13.8287278 L54.6954856,13.8287278 C55.1197854,13.8287278 55.4637483,14.1726907 55.4637483,14.5969904 C55.4637483,15.0212902 55.1197854,15.3652531 54.6954856,15.3652531 L6.45909713,15.3652531 Z" id="Path-Copy" fill-opacity="0.6" fill="#A4A7B5"></path>
                    <path d="M6.45909713,31.7548564 C6.03479738,31.7548564 5.69083447,31.4108935 5.69083447,30.9865937 C5.69083447,30.562294 6.03479738,30.2183311 6.45909713,30.2183311 L30.6974626,30.2183311 C31.1217623,30.2183311 31.4657253,30.562294 31.4657253,30.9865937 C31.4657253,31.4108935 31.1217623,31.7548564 30.6974626,31.7548564 L6.45909713,31.7548564 Z" id="Path-Copy-29" fill-opacity="0.6" fill="#A4A7B5"></path>
                    <path d="M33.4590971,31.7548564 C33.0347974,31.7548564 32.6908345,31.4108935 32.6908345,30.9865937 C32.6908345,30.562294 33.0347974,30.2183311 33.4590971,30.2183311 L38.6974626,30.2183311 C39.1217623,30.2183311 39.4657253,30.562294 39.4657253,30.9865937 C39.4657253,31.4108935 39.1217623,31.7548564 38.6974626,31.7548564 L33.4590971,31.7548564 Z" id="Path-Copy-29" fill-opacity="0.6" fill="#A4A7B5"></path>
                    <path d="M13.4590971,8.17045144 C13.0347974,8.17045144 12.6908345,7.82648853 12.6908345,7.40218878 C12.6908345,6.97788903 13.0347974,6.63392613 13.4590971,6.63392613 L18.1110807,6.63392613 C18.5353805,6.63392613 18.8793434,6.97788903 18.8793434,7.40218878 C18.8793434,7.82648853 18.5353805,8.17045144 18.1110807,8.17045144 L13.4590971,8.17045144 Z" id="Path-Copy-3" fill="#FE4849"></path>
                    <path d="M23.2552668,8.17045144 C22.830967,8.17045144 22.4870041,7.82648853 22.4870041,7.40218878 C22.4870041,6.97788903 22.830967,6.63392613 23.2552668,6.63392613 L49.2481532,6.63392613 C49.672453,6.63392613 50.0164159,6.97788903 50.0164159,7.40218878 C50.0164159,7.82648853 49.672453,8.17045144 49.2481532,8.17045144 L23.2552668,8.17045144 Z" id="Path-Copy-16" fill="#FE4849"></path>
                    <path d="M6.40218878,23.5600547 C5.97788903,23.5600547 5.63392613,23.2160918 5.63392613,22.7917921 C5.63392613,22.3674923 5.97788903,22.0235294 6.40218878,22.0235294 L12.9324213,22.0235294 C13.3567211,22.0235294 13.700684,22.3674923 13.700684,22.7917921 C13.700684,23.2160918 13.3567211,23.5600547 12.9324213,23.5600547 L6.40218878,23.5600547 Z" id="Path-Copy-12" fill="#C8CAD3"></path>
                    <path d="M15.6213406,23.5600547 C15.1970409,23.5600547 14.853078,23.2160918 14.853078,22.7917921 C14.853078,22.3674923 15.1970409,22.0235294 15.6213406,22.0235294 L32.6511628,22.0235294 C33.0754625,22.0235294 33.4194254,22.3674923 33.4194254,22.7917921 C33.4194254,23.2160918 33.0754625,23.5600547 32.6511628,23.5600547 L15.6213406,23.5600547 Z" id="Path" fill-opacity="0.6" fill="#A4A7B5"></path>
                    <path d="M35.6213406,23.5600547 C35.1970409,23.5600547 34.853078,23.2160918 34.853078,22.7917921 C34.853078,22.3674923 35.1970409,22.0235294 35.6213406,22.0235294 L52.6511628,22.0235294 C53.0754625,22.0235294 53.4194254,22.3674923 53.4194254,22.7917921 C53.4194254,23.2160918 53.0754625,23.5600547 52.6511628,23.5600547 L35.6213406,23.5600547 Z" id="Path" fill-opacity="0.6" fill="#A4A7B5"></path>
                </g>
                <g id="cancel" fill="#FE4849">
                    <path d="M3.99221053,-6.23460879e-13 C6.19704752,-6.23460879e-13 7.98442105,1.78737353 7.98442105,3.99221053 C7.98442105,6.19704752 6.19704752,7.98442105 3.99221053,7.98442105 C1.78737353,7.98442105 -6.23460879e-13,6.19704752 -6.23460879e-13,3.99221053 C-6.23460879e-13,1.78737353 1.78737353,-6.23460879e-13 3.99221053,-6.23460879e-13 Z M4.09665105,5.45215106 C3.95756737,5.45215106 3.83989812,5.49812398 3.74389485,5.5900397 C3.64801736,5.68207586 3.6,5.79362114 3.6,5.92473578 C3.6,6.07478753 3.65012421,6.19160149 3.75059275,6.27496691 C3.85084117,6.35842266 3.96851042,6.4 4.10322317,6.4 C4.23570328,6.4 4.3514858,6.35773021 4.45079086,6.27340137 C4.55034747,6.18880157 4.6,6.07264995 4.6,5.92473578 C4.6,5.79359104 4.55081916,5.68195543 4.45258325,5.5900397 C4.35422157,5.49800355 4.23582906,5.45215106 4.09665105,5.45215106 Z M4.1231282,1.6 C3.96649791,1.6 3.83989812,1.64901369 3.74389485,1.747583 C3.64801736,1.84582113 3.6,1.98268614 3.6,2.15808772 C3.6,2.28694436 3.60977957,2.49940727 3.62965316,2.79535604 L3.62965316,2.79535604 L3.73565611,4.31390741 C3.75543536,4.51047399 3.78861042,4.65691294 3.83508695,4.75292317 C3.88131191,4.84923447 3.96404516,4.89710411 4.08334958,4.89710411 C4.20020125,4.89710411 4.28422377,4.84751839 4.33503978,4.74828674 C4.38598157,4.64881424 4.41906229,4.50619884 4.43447061,4.32010939 L4.43447061,4.32010939 L4.57695041,2.75706033 C4.59223295,2.61366217 4.6,2.47182955 4.6,2.33225493 C4.6,2.09579698 4.56789409,1.91443428 4.50399673,1.78858831 C4.44009937,1.66286277 4.31302789,1.6 4.1231282,1.6 Z" id="Combined-Shape"></path>
                </g>
                <path d="M8,15 C9.65685425,15 11,16.3431458 11,18 C11,19.6568542 9.65685425,21 8,21 C6.34314575,21 5,19.6568542 5,18 C5,16.3431458 6.34314575,15 8,15 Z M8,15.2862452 C6.50123459,15.2862452 5.28624517,16.5012346 5.28624517,18 C5.28624517,19.4987654 6.50123459,20.7137548 8,20.7137548 C9.49876541,20.7137548 10.7137548,19.4987654 10.7137548,18 C10.7137548,16.5012346 9.49876541,15.2862452 8,15.2862452 Z M7.99665105,19 C8.13582906,19 8.25422157,19.0483753 8.35258325,19.1454753 C8.45081916,19.2424483 8.5,19.3602262 8.5,19.4985865 C8.5,19.654639 8.45034747,19.7771813 8.35079086,19.8664359 C8.2514858,19.9554045 8.13570328,20 8.00322317,20 C7.86851042,20 7.75084117,19.9561351 7.65059275,19.8680875 C7.55012421,19.7801353 7.5,19.6568942 7.5,19.4985865 C7.5,19.3602579 7.54801736,19.2425754 7.64389485,19.1454753 C7.73989812,19.0485024 7.85756737,19 7.99665105,19 Z M8.0231282,16 C8.21302789,16 8.34009937,16.0381321 8.40399673,16.1143963 C8.46789409,16.1907336 8.5,16.3007469 8.5,16.4441807 C8.5,16.5288456 8.49223295,16.6148803 8.47695041,16.7018646 L8.35112103,18.1513312 C8.33571271,18.2642118 8.30263199,18.3507213 8.2516902,18.4110606 C8.20087419,18.4712538 8.11685167,18.5013322 8,18.5013322 C7.88069558,18.5013322 7.79796233,18.4722948 7.75173737,18.413873 C7.70526084,18.3556339 7.67208578,18.2668051 7.65230653,18.1475692 L7.52965316,16.7250945 C7.50977957,16.5455741 7.5,16.4166956 7.5,16.3385321 C7.5,16.2321347 7.54801736,16.1491134 7.64389485,16.0895228 C7.73989812,16.0297314 7.86649791,16 8.0231282,16 Z" id="Combined-Shape" fill="#FE4849"></path>
            </g>
            <g id="Group-210" transform="translate(75.000000, 30.000000)">
                <g id="Group-124" transform="translate(0.000000, 10.000000)">
                    <g id="Path">
                        <use fill="black" fill-opacity="1" filter="url(#filter-4)" xlink:href="#path-3"></use>
                        <use fill="#FFFFFF" xlink:href="#path-3"></use>
                    </g>
                    <path d="M3.98358413,0.284541724 C1.94065942,0.284541724 0.284541724,1.94065942 0.284541724,3.98358413 L0.284541724,25.608045 C0.284541724,27.6509697 1.94065942,29.3070874 3.98358413,29.3070874 L57.4774282,29.3070874 C59.5203529,29.3070874 61.1764706,27.6509697 61.1764706,25.608045 L61.1764706,3.98358413 C61.1764706,1.94065942 59.5203529,0.284541724 57.4774282,0.284541724 L3.98358413,0.284541724 Z M3.98358413,-4.73347853e-11 L57.4774282,-4.73347853e-11 C59.6775009,-4.73347853e-11 61.4610123,1.78351137 61.4610123,3.98358413 L61.4610123,25.608045 C61.4610123,27.8081177 59.6775009,29.5916291 57.4774282,29.5916291 L3.98358413,29.5916291 C1.78351137,29.5916291 0,27.8081177 0,25.608045 L0,3.98358413 C0,1.78351137 1.78351137,-4.73347853e-11 3.98358413,-4.73347853e-11 Z" id="Rectangle" fill="#E3E5ED"></path>
                    <path d="M6.45909713,15.3652531 C6.03479738,15.3652531 5.69083447,15.0212902 5.69083447,14.5969904 C5.69083447,14.1726907 6.03479738,13.8287278 6.45909713,13.8287278 L54.6954856,13.8287278 C55.1197854,13.8287278 55.4637483,14.1726907 55.4637483,14.5969904 C55.4637483,15.0212902 55.1197854,15.3652531 54.6954856,15.3652531 L6.45909713,15.3652531 Z" id="Path-Copy" fill-opacity="0.6" fill="#A4A7B5"></path>
                    <path d="M13.4590971,7.53652531 C13.0347974,7.53652531 12.6908345,7.1925624 12.6908345,6.76826265 C12.6908345,6.34396291 13.0347974,6 13.4590971,6 L23.6149719,6 C24.0392717,6 24.3832346,6.34396291 24.3832346,6.76826265 C24.3832346,7.1925624 24.0392717,7.53652531 23.6149719,7.53652531 L13.4590971,7.53652531 Z" id="Path-Copy-3" fill="#01B6F5"></path>
                    <path d="M27.2552668,7.53652531 C26.830967,7.53652531 26.4870041,7.1925624 26.4870041,6.76826265 C26.4870041,6.34396291 26.830967,6 27.2552668,6 L44.2481532,6 C44.672453,6 45.0164159,6.34396291 45.0164159,6.76826265 C45.0164159,7.1925624 44.672453,7.53652531 44.2481532,7.53652531 L27.2552668,7.53652531 Z" id="Path-Copy-16" fill="#01B6F5"></path>
                    <path d="M6.40218878,23.5600547 C5.97788903,23.5600547 5.63392613,23.2160918 5.63392613,22.7917921 C5.63392613,22.3674923 5.97788903,22.0235294 6.40218878,22.0235294 L12.9324213,22.0235294 C13.3567211,22.0235294 13.700684,22.3674923 13.700684,22.7917921 C13.700684,23.2160918 13.3567211,23.5600547 12.9324213,23.5600547 L6.40218878,23.5600547 Z" id="Path-Copy-12" fill="#C8CAD3"></path>
                    <path d="M15.6213406,23.5600547 C15.1970409,23.5600547 14.853078,23.2160918 14.853078,22.7917921 C14.853078,22.3674923 15.1970409,22.0235294 15.6213406,22.0235294 L32.6511628,22.0235294 C33.0754625,22.0235294 33.4194254,22.3674923 33.4194254,22.7917921 C33.4194254,23.2160918 33.0754625,23.5600547 32.6511628,23.5600547 L15.6213406,23.5600547 Z" id="Path" fill-opacity="0.6" fill="#A4A7B5"></path>
                    <path d="M35.6213406,23.5600547 C35.1970409,23.5600547 34.853078,23.2160918 34.853078,22.7917921 C34.853078,22.3674923 35.1970409,22.0235294 35.6213406,22.0235294 L52.6511628,22.0235294 C53.0754625,22.0235294 53.4194254,22.3674923 53.4194254,22.7917921 C53.4194254,23.2160918 53.0754625,23.5600547 52.6511628,23.5600547 L35.6213406,23.5600547 Z" id="Path" fill-opacity="0.6" fill="#A4A7B5"></path>
                </g>
                <path d="M6.99987906,14 C8.65656682,14 10,15.3432761 10,16.9998791 C10,18.6565244 8.65652443,20 6.99987906,20 C5.34327608,20 4,18.6565668 4,16.9998791 C4,15.3432337 5.3432337,14 6.99987906,14 Z M6.99987906,14.2857143 C5.50102934,14.2857143 4.28571429,15.5010293 4.28571429,16.9998791 C4.28571429,18.4987787 5.50107921,19.7142857 6.99987906,19.7142857 C8.49872878,19.7142857 9.71428571,18.4987288 9.71428571,16.9998791 C9.71428571,15.5010792 8.49877865,14.2857143 6.99987906,14.2857143 Z M6.84701436,16.4283296 C7.02382464,16.4283296 7.16024187,16.4713832 7.25626606,16.5565231 C7.3518065,16.6419048 7.39993953,16.7529252 7.39993953,16.8893424 C7.39993953,16.9176417 7.39655329,16.9674679 7.39002268,17.038579 C7.38349206,17.109932 7.37115646,17.1749962 7.35325775,17.2347392 L7.17015873,17.882963 C7.15516251,17.934966 7.14185941,17.9944671 7.12976568,18.0609826 C7.11791383,18.1274981 7.11210884,18.1782918 7.11210884,18.2123961 C7.11210884,18.2985034 7.13121693,18.3572789 7.16991686,18.3884807 C7.20813303,18.4196825 7.27513228,18.4354044 7.36994709,18.4354044 C7.41469388,18.4354044 7.4647619,18.4274225 7.52136054,18.4119426 C7.57747543,18.3964626 7.61811036,18.3826757 7.64374906,18.3708239 L7.59464853,18.5708541 C7.44758881,18.628904 7.33052154,18.6729252 7.24272109,18.7034014 C7.15516251,18.7338776 7.05333333,18.7491156 6.93747543,18.7491156 C6.75945578,18.7491156 6.62086168,18.7055782 6.52217687,18.6187453 C6.42349206,18.5319123 6.37439153,18.4218594 6.37439153,18.2881028 C6.37439153,18.2360998 6.37801965,18.1828874 6.38527589,18.1287075 C6.392774,18.0745276 6.40462585,18.0135752 6.42083144,17.9451247 L6.60489796,17.294966 C6.62110355,17.2325624 6.63513228,17.1733031 6.6462585,17.1181557 C6.65738473,17.0625246 6.66270597,17.011489 6.66270597,16.9650491 C6.66270597,16.882328 6.64553288,16.8242782 6.61142857,16.7916251 C6.57684051,16.758972 6.51177627,16.7430083 6.41478458,16.7430083 C6.36737717,16.7430083 6.31851852,16.7500227 6.26845049,16.764777 C6.21886621,16.7800151 6.17581255,16.793802 6.14049887,16.8073469 L6.18911565,16.6070748 C6.30956916,16.5579743 6.42494331,16.5158881 6.53499622,16.4810582 C6.64504913,16.4457445 6.74905518,16.4283296 6.84701436,16.4283296 Z M7.25384732,15.2416931 C7.37405896,15.2416931 7.47709751,15.2816024 7.56223734,15.3619048 C7.64761905,15.4419652 7.69043084,15.538715 7.69043084,15.6511867 C7.69043084,15.7641421 7.64761905,15.8604082 7.56223734,15.939743 C7.47685563,16.0190779 7.37405896,16.0587453 7.25384732,16.0587453 C7.13387755,16.0587453 7.03035525,16.0190779 6.94424792,15.939743 C6.85862434,15.8604082 6.8153288,15.7639002 6.8153288,15.6511867 C6.8153288,15.538715 6.85886621,15.4419652 6.94424792,15.3619048 C7.03035525,15.2816024 7.13387755,15.2416931 7.25384732,15.2416931 Z" id="Combined-Shape" fill="#01B6F5"></path>
                <g id="Group-13" transform="translate(53.000000, 0.000000)" fill="#01B6F5">
                    <path d="M3.99983069,0 C6.20867725,0 8,1.79098413 8,3.99983069 C8,6.20867725 6.20867725,8 3.99983069,8 C1.79098413,8 0,6.20867725 0,3.99983069 C0,1.79098413 1.79098413,0 3.99983069,0 Z M3.78582011,3.19966138 C3.64867725,3.19966138 3.50306878,3.22404233 3.34899471,3.27348148 C3.19492063,3.32224339 3.03339683,3.38116402 2.8647619,3.44990476 L2.8647619,3.44990476 L2.79669841,3.73028571 C2.84613757,3.71132275 2.9064127,3.69202116 2.97583069,3.67068783 C3.04592593,3.65003175 3.11432804,3.64021164 3.18069841,3.64021164 C3.31648677,3.64021164 3.40757672,3.66256085 3.456,3.70827513 C3.50374603,3.75398942 3.52778836,3.83525926 3.52778836,3.95106878 C3.52778836,4.01608466 3.52033862,4.08753439 3.5047619,4.16541799 C3.48918519,4.24262434 3.46954497,4.3255873 3.44685714,4.41295238 L3.44685714,4.41295238 L3.18916402,5.3231746 C3.16647619,5.41900529 3.1498836,5.50433862 3.13938624,5.58019048 C3.12922751,5.65604233 3.12414815,5.73053968 3.12414815,5.80334392 C3.12414815,5.99060317 3.19288889,6.14467725 3.33104762,6.26624339 C3.46920635,6.38780952 3.6632381,6.4487619 3.91246561,6.4487619 C4.07466667,6.4487619 4.21722751,6.42742857 4.33980952,6.3847619 C4.46273016,6.34209524 4.62662434,6.28046561 4.83250794,6.19919577 L4.83250794,6.19919577 L4.90124868,5.91915344 C4.8653545,5.93574603 4.80846561,5.95504762 4.72990476,5.97671958 C4.65066667,5.99839153 4.58057143,6.00956614 4.51792593,6.00956614 C4.38518519,6.00956614 4.29138624,5.98755556 4.2378836,5.94387302 C4.1837037,5.90019048 4.15695238,5.81790476 4.15695238,5.6973545 C4.15695238,5.64960847 4.16507937,5.57849735 4.18167196,5.48537566 C4.19860317,5.39225397 4.21722751,5.30895238 4.23822222,5.23614815 L4.23822222,5.23614815 L4.49456085,4.32863492 C4.51961905,4.24499471 4.53688889,4.15390476 4.54603175,4.05401058 C4.5551746,3.95445503 4.55991534,3.88469841 4.55991534,3.84507937 C4.55991534,3.65409524 4.4925291,3.49866667 4.35877249,3.37913228 C4.22433862,3.25993651 4.0333545,3.19966138 3.78582011,3.19966138 Z M4.35538624,1.53837037 C4.18742857,1.53837037 4.04249735,1.59424339 3.92194709,1.70666667 C3.8024127,1.81875132 3.74146032,1.95420106 3.74146032,2.11166138 C3.74146032,2.26946032 3.80207407,2.40457143 3.92194709,2.51564021 C4.04249735,2.62670899 4.18742857,2.68224339 4.35538624,2.68224339 C4.52368254,2.68224339 4.66759788,2.62670899 4.78713228,2.51564021 C4.90666667,2.40457143 4.96660317,2.26979894 4.96660317,2.11166138 C4.96660317,1.95420106 4.90666667,1.81875132 4.78713228,1.70666667 C4.66793651,1.59424339 4.52368254,1.53837037 4.35538624,1.53837037 Z" id="Combined-Shape"></path>
                </g>
            </g>
            <g id="Group-5-Copy" transform="translate(88.000000, 0.000000)">
                <path d="M0,11 C0,4.92486775 4.92817249,0 10.991074,0 L38.1815451,0 C44.1522361,0 49.0109701,4.76342789 49.1686683,10.7021035 L49.172619,11 C49.172619,17.0751322 44.2444466,22 38.1815451,22 L10.991074,22 C5.02038296,22 0.161648924,17.2365721 0.00395076211,11.2978965 L0,11 Z" id="Path" fill="#FFB900"></path>
                <path d="M8.9375,15.8125 L12.1325784,15.8125 C12.6349885,15.8125 13.0823824,15.7502178 13.4747605,15.6256533 C13.8671385,15.5010889 14.1982725,15.3266986 14.468162,15.1024826 C14.7380519,14.8782666 14.9435833,14.6094149 15.0847561,14.2959277 C15.2259289,13.9824404 15.2965157,13.6346981 15.2965157,13.2527003 C15.2965157,12.7046167 15.1314678,12.2592988 14.801372,11.9167465 C14.4712761,11.5741943 13.9844366,11.3385599 13.3408537,11.2098432 C13.6190477,11.1226481 13.8619484,11.0095019 14.0695557,10.8704051 C14.2771634,10.7313082 14.4494774,10.5756026 14.5864983,10.4032883 C14.7235192,10.230974 14.8262848,10.0441273 14.8947953,9.84274826 C14.9633057,9.64138096 14.997561,9.43273549 14.997561,9.21681185 C14.997561,8.85557491 14.9363165,8.52963099 14.8138284,8.23898084 C14.6913403,7.94833068 14.5013795,7.70231587 14.243946,7.50093641 C13.9865129,7.29955695 13.658493,7.14488992 13.2598868,7.0369338 C12.8612805,6.92897768 12.3837833,6.875 11.8273955,6.875 L8.9375,6.875 L8.9375,15.8125 Z M10.2205139,11.7641551 L12.1138937,11.7641551 C12.7574766,11.7641551 13.2370498,11.8949477 13.5526132,12.1565331 C13.8681767,12.4181185 14.0259582,12.7731272 14.0259582,13.2215592 C14.0259582,13.4499273 13.989627,13.659611 13.9169643,13.8506098 C13.8443244,14.0416085 13.7311782,14.2066564 13.5775261,14.3457535 C13.4239071,14.4848504 13.22668,14.5938443 12.9858449,14.6727352 C12.7450202,14.751626 12.4543697,14.7910714 12.1138937,14.7910714 L10.2205139,14.7910714 L10.2205139,11.7641551 Z M10.2205139,10.8548345 L10.2205139,7.88397213 L11.8273955,7.88397213 C12.4709784,7.88397213 12.9474374,8.00334615 13.2567726,8.24209495 C13.5661079,8.48084375 13.7207753,8.85765124 13.7207753,9.37251742 C13.7207753,9.59673345 13.68133,9.80018886 13.602439,9.98288328 C13.5235697,10.1655777 13.4041953,10.3212833 13.2443162,10.45 C13.0844584,10.5787167 12.8820411,10.6783683 12.6370645,10.7489547 C12.3920878,10.8195411 12.1035132,10.8548345 11.7713415,10.8548345 L10.2205139,10.8548345 Z M23.2935526,6.875 L17.7628906,6.875 L17.7628906,15.8125 L23.2935526,15.8125 L23.2997808,14.7661585 L19.0521327,14.7661585 L19.0521327,11.8077526 L22.4714272,11.8077526 L22.4714272,10.7987805 L19.0521327,10.7987805 L19.0521327,7.92134146 L23.2935526,7.92134146 L23.2935526,6.875 Z M31.776391,6.875 L24.7696402,6.875 L24.7696402,7.95248258 L27.6346227,7.95248258 L27.6346227,15.8125 L28.9176367,15.8125 L28.9176367,7.95248258 L31.776391,7.95248258 L31.776391,6.875 Z M40.2841425,15.8125 L36.7153707,6.875 L35.4136721,6.875 L31.8511286,15.8125 L32.8476442,15.8125 C32.9555979,15.8125 33.0479832,15.7813589 33.1248002,15.7190767 C33.2016149,15.6567944 33.2524787,15.5862079 33.2773916,15.5073171 L34.0808324,13.4084059 L38.0482104,13.4084059 L38.8516512,15.5073171 C38.8890205,15.5986643 38.9429982,15.672365 39.013585,15.728419 C39.0841718,15.784473 39.1755188,15.8125 39.2876268,15.8125 L40.2841425,15.8125 Z M37.6932017,12.4866289 L34.4358411,12.4866289 L35.7873655,8.97391115 C35.8329778,8.86180314 35.8786513,8.73101045 35.9243864,8.5815331 L36.0614073,8.09573171 L36.0614073,8.09573171 C36.1070808,8.27012195 36.1537925,8.43101797 36.2015423,8.57841899 L36.2489461,8.71993794 L36.2489461,8.71993794 L37.6932017,12.4866289 Z" id="BETA" fill="#FFFFFF"></path>
            </g>
        </g>
    </g>
</svg>