<?xml version="1.0" encoding="UTF-8"?>
<svg width="151px" height="76px" viewBox="0 0 151 76" version="1.1" xmlns="http://www.w3.org/2000/svg" xmlns:xlink="http://www.w3.org/1999/xlink">
    <title>HighlightText</title>
    <g id="pages" stroke="none" stroke-width="1" fill="none" fill-rule="evenodd">
        <g id="HighlightText" fill-rule="nonzero">
            <g id="Group-227" transform="translate(65.000000, 63.000000)">
                <path d="M65.1785714,-1.47437618e-13 C65.6322339,-1.47437618e-13 66,0.412369309 66,0.921052632 L66,11.9736842 C66,12.4823675 65.6322339,12.8947368 65.1785714,12.8947368 L20.8214286,12.8947368 C20.3677661,12.8947368 20,12.4823675 20,11.9736842 L20,0.921052632 C20,0.412369309 20.3677661,-1.47437618e-13 20.8214286,-1.47437618e-13 L65.1785714,-1.47437618e-13 Z" id="Path" fill="#EFEFF2"></path>
                <path d="M2.19892473,10.1666667 C2.44623656,10.1666667 2.68637993,10.1227599 2.91935484,10.0349462 C3.15232975,9.94713262 3.35125448,9.82616487 3.51612903,9.67204301 L3.51612903,9.67204301 L3.23655914,9.21505376 C3.19713262,9.15412186 3.15232975,9.12365591 3.10215054,9.12365591 C3.0734767,9.12365591 3.04032258,9.13709677 3.00268817,9.16397849 C2.96505376,9.19086022 2.91935484,9.22043011 2.8655914,9.25268817 C2.81182796,9.28494624 2.74820789,9.31451613 2.67473118,9.34139785 C2.60125448,9.36827957 2.51433692,9.38172043 2.41397849,9.38172043 C2.23835125,9.38172043 2.09498208,9.32616487 1.98387097,9.21505376 C1.87275986,9.10394265 1.8172043,8.93369176 1.8172043,8.70430108 L1.8172043,8.70430108 L1.8172043,5.43548387 L3.39247312,5.43548387 L3.39247312,4.74193548 L1.8172043,4.74193548 L1.8172043,2.8655914 L1.33333333,2.8655914 C1.27240143,2.8655914 1.22311828,2.88261649 1.18548387,2.91666667 C1.14784946,2.95071685 1.12365591,2.99462366 1.11290323,3.0483871 L1.11290323,3.0483871 L0.892473118,4.7311828 L-2.13162821e-14,4.84408602 L-2.13162821e-14,5.22580645 C-2.13162821e-14,5.29749104 0.0197132616,5.35035842 0.0591397849,5.3844086 C0.0985663082,5.41845878 0.146953405,5.43548387 0.204301075,5.43548387 L0.204301075,5.43548387 L0.860215054,5.43548387 L0.860215054,8.7688172 C0.860215054,9.22043011 0.975806452,9.56630824 1.20698925,9.80645161 C1.43817204,10.046595 1.7688172,10.1666667 2.19892473,10.1666667 Z M6.66666667,10.155914 C6.86379928,10.155914 7.06272401,10.1388889 7.26344086,10.1048387 C7.46415771,10.0707885 7.65860215,10.0197133 7.84677419,9.9516129 C8.03494624,9.88351254 8.21146953,9.79659498 8.37634409,9.69086022 C8.54121864,9.58512545 8.6827957,9.46057348 8.80107527,9.3172043 L8.80107527,9.3172043 L8.53225806,8.96774194 C8.48924731,8.90681004 8.42831541,8.87634409 8.34946237,8.87634409 C8.28853047,8.87634409 8.21594982,8.90412186 8.13172043,8.95967742 C8.04749104,9.01523297 7.94265233,9.07526882 7.8172043,9.13978495 C7.69175627,9.20430108 7.5421147,9.26433692 7.36827957,9.31989247 C7.19444444,9.37544803 6.9874552,9.40322581 6.74731183,9.40322581 C6.48924731,9.40322581 6.2562724,9.36111111 6.0483871,9.27688172 C5.84050179,9.19265233 5.66129032,9.06541219 5.51075269,8.89516129 C5.36021505,8.72491039 5.24283154,8.5125448 5.15860215,8.25806452 C5.07437276,8.00358423 5.02688172,7.70430108 5.01612903,7.36021505 L5.01612903,7.36021505 L8.65591398,7.36021505 C8.74551971,7.36021505 8.80645161,7.33512545 8.83870968,7.28494624 C8.87096774,7.23476703 8.88709677,7.1344086 8.88709677,6.98387097 C8.88709677,6.59677419 8.8297491,6.25179211 8.71505376,5.94892473 C8.60035842,5.64605735 8.44175627,5.39157706 8.23924731,5.18548387 C8.03673835,4.97939068 7.79659498,4.82168459 7.5188172,4.71236559 C7.24103943,4.60304659 6.9390681,4.5483871 6.61290323,4.5483871 C6.21863799,4.5483871 5.86379928,4.61738351 5.5483871,4.75537634 C5.23297491,4.89336918 4.96594982,5.08333333 4.74731183,5.32526882 C4.52867384,5.5672043 4.36111111,5.85304659 4.24462366,6.1827957 C4.1281362,6.5125448 4.06989247,6.86738351 4.06989247,7.24731183 C4.06989247,7.71684588 4.1344086,8.13261649 4.26344086,8.49462366 C4.39247312,8.85663082 4.57258065,9.16039427 4.80376344,9.40591398 C5.03494624,9.65143369 5.30913978,9.83781362 5.62634409,9.96505376 C5.94354839,10.0922939 6.29032258,10.155914 6.66666667,10.155914 Z M8.02688172,6.76344086 L5.0483871,6.76344086 C5.11290323,6.29032258 5.27867384,5.9202509 5.54569892,5.65322581 C5.81272401,5.38620072 6.17562724,5.25268817 6.6344086,5.25268817 C6.85304659,5.25268817 7.0483871,5.28942652 7.22043011,5.36290323 C7.39247312,5.43637993 7.53853047,5.54032258 7.65860215,5.67473118 C7.77867384,5.80913978 7.87007168,5.96863799 7.9327957,6.15322581 C7.99551971,6.33781362 8.02688172,6.54121864 8.02688172,6.76344086 L8.02688172,6.76344086 Z M10.2795699,10.0806452 C10.3512545,10.0806452 10.4077061,10.0600358 10.4489247,10.0188172 C10.4901434,9.97759857 10.5286738,9.93189964 10.5645161,9.88172043 L10.5645161,9.88172043 L11.8333333,8.02688172 C11.8620072,7.9874552 11.8844086,7.94354839 11.9005376,7.89516129 C11.9166667,7.84677419 11.9318996,7.79749104 11.9462366,7.74731183 L11.9462366,7.74731183 L13.3172043,9.88172043 C13.3458781,9.93189964 13.3826165,9.97759857 13.4274194,10.0188172 C13.4722222,10.0600358 13.5340502,10.0806452 13.6129032,10.0806452 L13.6129032,10.0806452 L14.5322581,10.0806452 L12.6236559,7.23655914 L14.4569892,4.6344086 L13.5752688,4.6344086 C13.5215054,4.6344086 13.4758065,4.64964158 13.438172,4.68010753 C13.4005376,4.71057348 13.3655914,4.75089606 13.3333333,4.80107527 L13.3333333,4.80107527 L12.1612903,6.52150538 C12.1003584,6.61827957 12.0555556,6.71863799 12.0268817,6.82258065 L12.0268817,6.82258065 L10.688172,4.77956989 C10.6594982,4.73297491 10.6272401,4.69713262 10.5913978,4.67204301 C10.5555556,4.64695341 10.4982079,4.6344086 10.4193548,4.6344086 L10.4193548,4.6344086 L9.5,4.6344086 L11.3333333,7.28494624 L9.42473118,10.0806452 L10.2795699,10.0806452 Z M17.0860215,10.1666667 C17.3333333,10.1666667 17.5734767,10.1227599 17.8064516,10.0349462 C18.0394265,9.94713262 18.2383513,9.82616487 18.4032258,9.67204301 L18.4032258,9.67204301 L18.1236559,9.21505376 C18.0842294,9.15412186 18.0394265,9.12365591 17.9892473,9.12365591 C17.9605735,9.12365591 17.9274194,9.13709677 17.8897849,9.16397849 C17.8521505,9.19086022 17.8064516,9.22043011 17.7526882,9.25268817 C17.6989247,9.28494624 17.6353047,9.31451613 17.561828,9.34139785 C17.4883513,9.36827957 17.4014337,9.38172043 17.3010753,9.38172043 C17.125448,9.38172043 16.9820789,9.32616487 16.8709677,9.21505376 C16.7598566,9.10394265 16.7043011,8.93369176 16.7043011,8.70430108 L16.7043011,8.70430108 L16.7043011,5.43548387 L18.2795699,5.43548387 L18.2795699,4.74193548 L16.7043011,4.74193548 L16.7043011,2.8655914 L16.2204301,2.8655914 C16.1594982,2.8655914 16.1102151,2.88261649 16.0725806,2.91666667 C16.0349462,2.95071685 16.0107527,2.99462366 16,3.0483871 L16,3.0483871 L15.7795699,4.7311828 L14.8870968,4.84408602 L14.8870968,5.22580645 C14.8870968,5.29749104 14.90681,5.35035842 14.9462366,5.3844086 C14.9856631,5.41845878 15.0340502,5.43548387 15.0913978,5.43548387 L15.0913978,5.43548387 L15.7473118,5.43548387 L15.7473118,8.7688172 C15.7473118,9.22043011 15.8629032,9.56630824 16.094086,9.80645161 C16.3252688,10.046595 16.655914,10.1666667 17.0860215,10.1666667 Z M23.4946237,10.0806452 L23.4946237,6.10215054 C23.6451613,5.96953405 23.8001792,5.86469534 23.9596774,5.78763441 C24.1191756,5.71057348 24.2903226,5.67204301 24.4731183,5.67204301 C24.7168459,5.67204301 24.9014337,5.74820789 25.0268817,5.90053763 C25.1523297,6.05286738 25.2150538,6.26523297 25.2150538,6.53763441 L25.2150538,6.53763441 L25.2150538,10.0806452 L26.8817204,10.0806452 L26.8817204,6.53763441 C26.8817204,6.23297491 26.8405018,5.95071685 26.7580645,5.69086022 C26.6756272,5.43100358 26.5537634,5.20698925 26.3924731,5.0188172 C26.2311828,4.83064516 26.0331541,4.68369176 25.7983871,4.57795699 C25.5636201,4.47222222 25.2939068,4.41935484 24.9892473,4.41935484 C24.6630824,4.41935484 24.3826165,4.47222222 24.1478495,4.57795699 C23.9130824,4.68369176 23.6953405,4.82258065 23.4946237,4.99462366 L23.4946237,4.99462366 L23.4946237,2.03225806 L21.827957,2.03225806 L21.827957,10.0806452 L23.4946237,10.0806452 Z M28.811828,3.94623656 C28.9516129,3.94623656 29.0833333,3.9202509 29.2069892,3.86827957 C29.3306452,3.81630824 29.4390681,3.74641577 29.5322581,3.65860215 C29.625448,3.57078853 29.6989247,3.46863799 29.7526882,3.35215054 C29.8064516,3.23566308 29.8333333,3.11111111 29.8333333,2.97849462 C29.8333333,2.84229391 29.8064516,2.71505376 29.7526882,2.59677419 C29.6989247,2.47849462 29.625448,2.37455197 29.5322581,2.28494624 C29.4390681,2.1953405 29.3306452,2.12544803 29.2069892,2.07526882 C29.0833333,2.02508961 28.9516129,2 28.811828,2 C28.6756272,2 28.5483871,2.02508961 28.4301075,2.07526882 C28.311828,2.12544803 28.2069892,2.1953405 28.1155914,2.28494624 C28.0241935,2.37455197 27.952509,2.47849462 27.9005376,2.59677419 C27.8485663,2.71505376 27.8225806,2.84229391 27.8225806,2.97849462 C27.8225806,3.11111111 27.8485663,3.23566308 27.9005376,3.35215054 C27.952509,3.46863799 28.0241935,3.57078853 28.1155914,3.65860215 C28.2069892,3.74641577 28.311828,3.81630824 28.4301075,3.86827957 C28.5483871,3.9202509 28.6756272,3.94623656 28.811828,3.94623656 Z M29.6612903,10.0806452 L29.6612903,4.50537634 L27.9946237,4.50537634 L27.9946237,10.0806452 L29.6612903,10.0806452 Z M33.0053763,12 C33.4498208,12 33.844086,11.9435484 34.188172,11.8306452 C34.5322581,11.7177419 34.8225806,11.5681004 35.0591398,11.3817204 C35.2956989,11.1953405 35.4749104,10.9820789 35.5967742,10.7419355 C35.718638,10.5017921 35.7795699,10.2562724 35.7795699,10.0053763 C35.7795699,9.73655914 35.7293907,9.51523297 35.6290323,9.34139785 C35.5286738,9.16756272 35.3960573,9.02867384 35.2311828,8.92473118 C35.0663082,8.82078853 34.8790323,8.74551971 34.6693548,8.69892473 C34.4596774,8.65232975 34.2455197,8.61917563 34.0268817,8.59946237 C33.8082437,8.5797491 33.594086,8.5672043 33.3844086,8.56182796 C33.1747312,8.55645161 32.9874552,8.54569892 32.8225806,8.52956989 C32.6577061,8.51344086 32.5250896,8.48476703 32.4247312,8.44354839 C32.3243728,8.40232975 32.2741935,8.33512545 32.2741935,8.24193548 C32.2741935,8.14874552 32.3351254,8.06451613 32.4569892,7.98924731 C32.5358423,8.00358423 32.6164875,8.01344086 32.6989247,8.0188172 C32.781362,8.02419355 32.8655914,8.02688172 32.9516129,8.02688172 C33.2670251,8.02688172 33.562724,7.98476703 33.8387097,7.90053763 C34.1146953,7.81630824 34.3539427,7.69623656 34.5564516,7.54032258 C34.7589606,7.3844086 34.9184588,7.1953405 35.0349462,6.97311828 C35.1514337,6.75089606 35.2096774,6.5 35.2096774,6.22043011 C35.2096774,6.13082437 35.203405,6.04480287 35.1908602,5.96236559 C35.1783154,5.87992832 35.1612903,5.79928315 35.1397849,5.72043011 L35.1397849,5.72043011 L35.5430108,5.62903226 C35.6684588,5.60035842 35.7571685,5.55913978 35.8091398,5.50537634 C35.8611111,5.4516129 35.8870968,5.3781362 35.8870968,5.28494624 L35.8870968,5.28494624 L35.8870968,4.67741935 L34.2096774,4.67741935 C33.844086,4.49820789 33.4247312,4.40860215 32.9516129,4.40860215 C32.625448,4.40860215 32.3225806,4.45071685 32.0430108,4.53494624 C31.7634409,4.61917563 31.5206093,4.73924731 31.3145161,4.89516129 C31.1084229,5.05107527 30.9462366,5.24103943 30.827957,5.46505376 C30.7096774,5.6890681 30.6505376,5.94086022 30.6505376,6.22043011 C30.6505376,6.55734767 30.734767,6.85215054 30.9032258,7.10483871 C31.0716846,7.35752688 31.3010753,7.5609319 31.5913978,7.71505376 C31.4623656,7.77598566 31.3512545,7.84587814 31.2580645,7.92473118 C31.1648746,8.00358423 31.0869176,8.08691756 31.0241935,8.17473118 C30.9614695,8.2625448 30.9157706,8.35215054 30.8870968,8.44354839 C30.8584229,8.53494624 30.844086,8.6218638 30.844086,8.70430108 C30.844086,8.90860215 30.8835125,9.07526882 30.9623656,9.20430108 C31.0412186,9.33333333 31.1487455,9.4390681 31.2849462,9.52150538 C31.0268817,9.6218638 30.8261649,9.75448029 30.6827957,9.91935484 C30.5394265,10.0842294 30.4677419,10.2903226 30.4677419,10.5376344 C30.4677419,10.7275986 30.5179211,10.9103943 30.6182796,11.0860215 C30.718638,11.2616487 30.8736559,11.4166667 31.0833333,11.5510753 C31.2930108,11.6854839 31.5564516,11.7939068 31.8736559,11.8763441 C32.1908602,11.9587814 32.5681004,12 33.0053763,12 Z M32.9516129,7 C32.8154122,7 32.6980287,6.9811828 32.5994624,6.94354839 C32.5008961,6.90591398 32.4193548,6.85394265 32.3548387,6.78763441 C32.2903226,6.72132616 32.2428315,6.64336918 32.2123656,6.55376344 C32.1818996,6.46415771 32.1666667,6.3655914 32.1666667,6.25806452 C32.1666667,6.03225806 32.2284946,5.85483871 32.3521505,5.72580645 C32.4758065,5.59677419 32.6756272,5.53225806 32.9516129,5.53225806 C33.2275986,5.53225806 33.4274194,5.59677419 33.5510753,5.72580645 C33.6747312,5.85483871 33.7365591,6.03225806 33.7365591,6.25806452 C33.7365591,6.47670251 33.6747312,6.65501792 33.5510753,6.79301075 C33.4274194,6.93100358 33.2275986,7 32.9516129,7 Z M33.0376344,10.8548387 C32.8154122,10.8548387 32.6317204,10.8413978 32.4865591,10.8145161 C32.3413978,10.7876344 32.2258065,10.7508961 32.1397849,10.7043011 C32.0537634,10.6577061 31.9937276,10.6021505 31.9596774,10.5376344 C31.9256272,10.4731183 31.9086022,10.4014337 31.9086022,10.3225806 C31.9086022,10.2114695 31.9417563,10.1120072 32.0080645,10.0241935 C32.0743728,9.93637993 32.1594982,9.85663082 32.2634409,9.78494624 C32.4964158,9.80645161 32.7302867,9.81989247 32.9650538,9.82526882 C33.1998208,9.83064516 33.4121864,9.84587814 33.6021505,9.87096774 C33.7921147,9.89605735 33.9462366,9.93817204 34.0645161,9.99731183 C34.1827957,10.0564516 34.2419355,10.1523297 34.2419355,10.2849462 C34.2419355,10.3673835 34.2240143,10.4435484 34.188172,10.5134409 C34.1523297,10.5833333 34.0887097,10.6433692 33.9973118,10.6935484 C33.905914,10.7437276 33.7831541,10.7831541 33.6290323,10.811828 C33.4749104,10.8405018 33.2777778,10.8548387 33.0376344,10.8548387 Z M38.2526882,10.0806452 L38.2526882,6.10215054 C38.4032258,5.96953405 38.5582437,5.86469534 38.7177419,5.78763441 C38.8772401,5.71057348 39.0483871,5.67204301 39.2311828,5.67204301 C39.4749104,5.67204301 39.6594982,5.74820789 39.7849462,5.90053763 C39.9103943,6.05286738 39.9731183,6.26523297 39.9731183,6.53763441 L39.9731183,6.53763441 L39.9731183,10.0806452 L41.6397849,10.0806452 L41.6397849,6.53763441 C41.6397849,6.23297491 41.5985663,5.95071685 41.516129,5.69086022 C41.4336918,5.43100358 41.311828,5.20698925 41.1505376,5.0188172 C40.9892473,4.83064516 40.7912186,4.68369176 40.5564516,4.57795699 C40.3216846,4.47222222 40.0519713,4.41935484 39.7473118,4.41935484 C39.421147,4.41935484 39.140681,4.47222222 38.905914,4.57795699 C38.671147,4.68369176 38.453405,4.82258065 38.2526882,4.99462366 L38.2526882,4.99462366 L38.2526882,2.03225806 L36.5860215,2.03225806 L36.5860215,10.0806452 L38.2526882,10.0806452 Z M44.3817204,10.0806452 L44.3817204,2.03225806 L42.7150538,2.03225806 L42.7150538,10.0806452 L44.3817204,10.0806452 Z M46.3655914,3.94623656 C46.5053763,3.94623656 46.6370968,3.9202509 46.7607527,3.86827957 C46.8844086,3.81630824 46.9928315,3.74641577 47.0860215,3.65860215 C47.1792115,3.57078853 47.2526882,3.46863799 47.3064516,3.35215054 C47.3602151,3.23566308 47.3870968,3.11111111 47.3870968,2.97849462 C47.3870968,2.84229391 47.3602151,2.71505376 47.3064516,2.59677419 C47.2526882,2.47849462 47.1792115,2.37455197 47.0860215,2.28494624 C46.9928315,2.1953405 46.8844086,2.12544803 46.7607527,2.07526882 C46.6370968,2.02508961 46.5053763,2 46.3655914,2 C46.2293907,2 46.1021505,2.02508961 45.983871,2.07526882 C45.8655914,2.12544803 45.7607527,2.1953405 45.6693548,2.28494624 C45.577957,2.37455197 45.5062724,2.47849462 45.4543011,2.59677419 C45.4023297,2.71505376 45.3763441,2.84229391 45.3763441,2.97849462 C45.3763441,3.11111111 45.4023297,3.23566308 45.4543011,3.35215054 C45.5062724,3.46863799 45.577957,3.57078853 45.6693548,3.65860215 C45.7607527,3.74641577 45.8655914,3.81630824 45.983871,3.86827957 C46.1021505,3.9202509 46.2293907,3.94623656 46.3655914,3.94623656 Z M47.2150538,10.0806452 L47.2150538,4.50537634 L45.5483871,4.50537634 L45.5483871,10.0806452 L47.2150538,10.0806452 Z M50.5591398,12 C51.0035842,12 51.3978495,11.9435484 51.7419355,11.8306452 C52.0860215,11.7177419 52.3763441,11.5681004 52.6129032,11.3817204 C52.8494624,11.1953405 53.0286738,10.9820789 53.1505376,10.7419355 C53.2724014,10.5017921 53.3333333,10.2562724 53.3333333,10.0053763 C53.3333333,9.73655914 53.2831541,9.51523297 53.1827957,9.34139785 C53.0824373,9.16756272 52.9498208,9.02867384 52.7849462,8.92473118 C52.6200717,8.82078853 52.4327957,8.74551971 52.2231183,8.69892473 C52.0134409,8.65232975 51.7992832,8.61917563 51.5806452,8.59946237 C51.3620072,8.5797491 51.1478495,8.5672043 50.938172,8.56182796 C50.7284946,8.55645161 50.5412186,8.54569892 50.3763441,8.52956989 C50.2114695,8.51344086 50.078853,8.48476703 49.9784946,8.44354839 C49.8781362,8.40232975 49.827957,8.33512545 49.827957,8.24193548 C49.827957,8.14874552 49.8888889,8.06451613 50.0107527,7.98924731 C50.0896057,8.00358423 50.1702509,8.01344086 50.2526882,8.0188172 C50.3351254,8.02419355 50.4193548,8.02688172 50.5053763,8.02688172 C50.8207885,8.02688172 51.1164875,7.98476703 51.3924731,7.90053763 C51.6684588,7.81630824 51.9077061,7.69623656 52.1102151,7.54032258 C52.312724,7.3844086 52.4722222,7.1953405 52.5887097,6.97311828 C52.7051971,6.75089606 52.7634409,6.5 52.7634409,6.22043011 C52.7634409,6.13082437 52.7571685,6.04480287 52.7446237,5.96236559 C52.7320789,5.87992832 52.7150538,5.79928315 52.6935484,5.72043011 L52.6935484,5.72043011 L53.0967742,5.62903226 C53.2222222,5.60035842 53.3109319,5.55913978 53.3629032,5.50537634 C53.4148746,5.4516129 53.4408602,5.3781362 53.4408602,5.28494624 L53.4408602,5.28494624 L53.4408602,4.67741935 L51.7634409,4.67741935 C51.3978495,4.49820789 50.9784946,4.40860215 50.5053763,4.40860215 C50.1792115,4.40860215 49.8763441,4.45071685 49.5967742,4.53494624 C49.3172043,4.61917563 49.0743728,4.73924731 48.8682796,4.89516129 C48.6621864,5.05107527 48.5,5.24103943 48.3817204,5.46505376 C48.2634409,5.6890681 48.2043011,5.94086022 48.2043011,6.22043011 C48.2043011,6.55734767 48.2885305,6.85215054 48.4569892,7.10483871 C48.625448,7.35752688 48.8548387,7.5609319 49.1451613,7.71505376 C49.016129,7.77598566 48.9050179,7.84587814 48.811828,7.92473118 C48.718638,8.00358423 48.640681,8.08691756 48.577957,8.17473118 C48.515233,8.2625448 48.4695341,8.35215054 48.4408602,8.44354839 C48.4121864,8.53494624 48.3978495,8.6218638 48.3978495,8.70430108 C48.3978495,8.90860215 48.437276,9.07526882 48.516129,9.20430108 C48.5949821,9.33333333 48.702509,9.4390681 48.8387097,9.52150538 C48.5806452,9.6218638 48.3799283,9.75448029 48.2365591,9.91935484 C48.09319,10.0842294 48.0215054,10.2903226 48.0215054,10.5376344 C48.0215054,10.7275986 48.0716846,10.9103943 48.172043,11.0860215 C48.2724014,11.2616487 48.4274194,11.4166667 48.6370968,11.5510753 C48.8467742,11.6854839 49.1102151,11.7939068 49.4274194,11.8763441 C49.7446237,11.9587814 50.1218638,12 50.5591398,12 Z M50.5053763,7 C50.3691756,7 50.2517921,6.9811828 50.1532258,6.94354839 C50.0546595,6.90591398 49.9731183,6.85394265 49.9086022,6.78763441 C49.844086,6.72132616 49.796595,6.64336918 49.766129,6.55376344 C49.7356631,6.46415771 49.7204301,6.3655914 49.7204301,6.25806452 C49.7204301,6.03225806 49.7822581,5.85483871 49.905914,5.72580645 C50.0295699,5.59677419 50.2293907,5.53225806 50.5053763,5.53225806 C50.781362,5.53225806 50.9811828,5.59677419 51.1048387,5.72580645 C51.2284946,5.85483871 51.2903226,6.03225806 51.2903226,6.25806452 C51.2903226,6.47670251 51.2284946,6.65501792 51.1048387,6.79301075 C50.9811828,6.93100358 50.781362,7 50.5053763,7 Z M50.5913978,10.8548387 C50.3691756,10.8548387 50.1854839,10.8413978 50.0403226,10.8145161 C49.8951613,10.7876344 49.7795699,10.7508961 49.6935484,10.7043011 C49.6075269,10.6577061 49.547491,10.6021505 49.5134409,10.5376344 C49.4793907,10.4731183 49.4623656,10.4014337 49.4623656,10.3225806 C49.4623656,10.2114695 49.4955197,10.1120072 49.561828,10.0241935 C49.6281362,9.93637993 49.7132616,9.85663082 49.8172043,9.78494624 C50.0501792,9.80645161 50.2840502,9.81989247 50.5188172,9.82526882 C50.7535842,9.83064516 50.9659498,9.84587814 51.155914,9.87096774 C51.3458781,9.89605735 51.5,9.93817204 51.6182796,9.99731183 C51.7365591,10.0564516 51.7956989,10.1523297 51.7956989,10.2849462 C51.7956989,10.3673835 51.7777778,10.4435484 51.7419355,10.5134409 C51.7060932,10.5833333 51.6424731,10.6433692 51.5510753,10.6935484 C51.4596774,10.7437276 51.3369176,10.7831541 51.1827957,10.811828 C51.0286738,10.8405018 50.8315412,10.8548387 50.5913978,10.8548387 Z M55.8064516,10.0806452 L55.8064516,6.10215054 C55.9569892,5.96953405 56.1120072,5.86469534 56.2715054,5.78763441 C56.4310036,5.71057348 56.6021505,5.67204301 56.7849462,5.67204301 C57.0286738,5.67204301 57.2132616,5.74820789 57.3387097,5.90053763 C57.4641577,6.05286738 57.5268817,6.26523297 57.5268817,6.53763441 L57.5268817,6.53763441 L57.5268817,10.0806452 L59.1935484,10.0806452 L59.1935484,6.53763441 C59.1935484,6.23297491 59.1523297,5.95071685 59.0698925,5.69086022 C58.9874552,5.43100358 58.8655914,5.20698925 58.7043011,5.0188172 C58.5430108,4.83064516 58.3449821,4.68369176 58.1102151,4.57795699 C57.875448,4.47222222 57.6057348,4.41935484 57.3010753,4.41935484 C56.9749104,4.41935484 56.6944444,4.47222222 56.4596774,4.57795699 C56.2249104,4.68369176 56.0071685,4.82258065 55.8064516,4.99462366 L55.8064516,4.99462366 L55.8064516,2.03225806 L54.1397849,2.03225806 L54.1397849,10.0806452 L55.8064516,10.0806452 Z M62.2634409,10.1666667 C62.5501792,10.1666667 62.827957,10.1263441 63.0967742,10.0456989 C63.3655914,9.96505376 63.6075269,9.84408602 63.8225806,9.6827957 L63.8225806,9.6827957 L63.3172043,8.89247312 C63.2849462,8.84229391 63.2535842,8.80555556 63.2231183,8.78225806 C63.1926523,8.75896057 63.1523297,8.74731183 63.1021505,8.74731183 C63.0663082,8.74731183 63.0349462,8.75358423 63.0080645,8.76612903 C62.9811828,8.77867384 62.952509,8.79301075 62.922043,8.80913978 C62.8915771,8.82526882 62.8557348,8.83960573 62.8145161,8.85215054 C62.7732975,8.86469534 62.7222222,8.87096774 62.6612903,8.87096774 C62.5430108,8.87096774 62.452509,8.82885305 62.3897849,8.74462366 C62.3270609,8.66039427 62.2956989,8.55376344 62.2956989,8.42473118 L62.2956989,8.42473118 L62.2956989,5.65591398 L63.6774194,5.65591398 L63.6774194,4.51612903 L62.2956989,4.51612903 L62.2956989,2.88709677 L61.4247312,2.88709677 C61.2240143,2.88709677 61.1021505,2.97311828 61.0591398,3.14516129 L61.0591398,3.14516129 L60.7311828,4.50537634 L59.844086,4.67741935 L59.844086,5.32795699 C59.844086,5.43548387 59.874552,5.51702509 59.9354839,5.57258065 C59.9964158,5.6281362 60.0698925,5.65591398 60.155914,5.65591398 L60.155914,5.65591398 L60.6290323,5.65591398 L60.6290323,8.53763441 C60.6290323,8.78494624 60.6648746,9.00896057 60.7365591,9.20967742 C60.8082437,9.41039427 60.9130824,9.58154122 61.0510753,9.72311828 C61.1890681,9.86469534 61.359319,9.97401434 61.561828,10.0510753 C61.7643369,10.1281362 61.9982079,10.1666667 62.2634409,10.1666667 Z M68.8763441,10.1666667 C69.1236559,10.1666667 69.3637993,10.1227599 69.5967742,10.0349462 C69.8297491,9.94713262 70.0286738,9.82616487 70.1935484,9.67204301 L70.1935484,9.67204301 L69.9139785,9.21505376 C69.874552,9.15412186 69.8297491,9.12365591 69.7795699,9.12365591 C69.7508961,9.12365591 69.7177419,9.13709677 69.6801075,9.16397849 C69.6424731,9.19086022 69.5967742,9.22043011 69.5430108,9.25268817 C69.4892473,9.28494624 69.4256272,9.31451613 69.3521505,9.34139785 C69.2786738,9.36827957 69.1917563,9.38172043 69.0913978,9.38172043 C68.9157706,9.38172043 68.7724014,9.32616487 68.6612903,9.21505376 C68.5501792,9.10394265 68.4946237,8.93369176 68.4946237,8.70430108 L68.4946237,8.70430108 L68.4946237,5.43548387 L70.0698925,5.43548387 L70.0698925,4.74193548 L68.4946237,4.74193548 L68.4946237,2.8655914 L68.0107527,2.8655914 C67.9498208,2.8655914 67.9005376,2.88261649 67.8629032,2.91666667 C67.8252688,2.95071685 67.8010753,2.99462366 67.7903226,3.0483871 L67.7903226,3.0483871 L67.5698925,4.7311828 L66.6774194,4.84408602 L66.6774194,5.22580645 C66.6774194,5.29749104 66.6971326,5.35035842 66.7365591,5.3844086 C66.7759857,5.41845878 66.8243728,5.43548387 66.8817204,5.43548387 L66.8817204,5.43548387 L67.5376344,5.43548387 L67.5376344,8.7688172 C67.5376344,9.22043011 67.6532258,9.56630824 67.8844086,9.80645161 C68.1155914,10.046595 68.4462366,10.1666667 68.8763441,10.1666667 Z M73.344086,10.155914 C73.5412186,10.155914 73.7401434,10.1388889 73.9408602,10.1048387 C74.1415771,10.0707885 74.3360215,10.0197133 74.5241935,9.9516129 C74.7123656,9.88351254 74.8888889,9.79659498 75.0537634,9.69086022 C75.218638,9.58512545 75.3602151,9.46057348 75.4784946,9.3172043 L75.4784946,9.3172043 L75.2096774,8.96774194 C75.1666667,8.90681004 75.1057348,8.87634409 75.0268817,8.87634409 C74.9659498,8.87634409 74.8933692,8.90412186 74.8091398,8.95967742 C74.7249104,9.01523297 74.6200717,9.07526882 74.4946237,9.13978495 C74.3691756,9.20430108 74.2195341,9.26433692 74.0456989,9.31989247 C73.8718638,9.37544803 73.6648746,9.40322581 73.4247312,9.40322581 C73.1666667,9.40322581 72.9336918,9.36111111 72.7258065,9.27688172 C72.5179211,9.19265233 72.3387097,9.06541219 72.188172,8.89516129 C72.0376344,8.72491039 71.9202509,8.5125448 71.8360215,8.25806452 C71.7517921,8.00358423 71.7043011,7.70430108 71.6935484,7.36021505 L71.6935484,7.36021505 L75.3333333,7.36021505 C75.4229391,7.36021505 75.483871,7.33512545 75.516129,7.28494624 C75.5483871,7.23476703 75.5645161,7.1344086 75.5645161,6.98387097 C75.5645161,6.59677419 75.5071685,6.25179211 75.3924731,5.94892473 C75.2777778,5.64605735 75.1191756,5.39157706 74.9166667,5.18548387 C74.7141577,4.97939068 74.4740143,4.82168459 74.1962366,4.71236559 C73.9184588,4.60304659 73.6164875,4.5483871 73.2903226,4.5483871 C72.8960573,4.5483871 72.5412186,4.61738351 72.2258065,4.75537634 C71.9103943,4.89336918 71.6433692,5.08333333 71.4247312,5.32526882 C71.2060932,5.5672043 71.0385305,5.85304659 70.922043,6.1827957 C70.8055556,6.5125448 70.7473118,6.86738351 70.7473118,7.24731183 C70.7473118,7.71684588 70.811828,8.13261649 70.9408602,8.49462366 C71.0698925,8.85663082 71.25,9.16039427 71.4811828,9.40591398 C71.7123656,9.65143369 71.9865591,9.83781362 72.3037634,9.96505376 C72.6209677,10.0922939 72.9677419,10.155914 73.344086,10.155914 Z M74.7043011,6.76344086 L71.7258065,6.76344086 C71.7903226,6.29032258 71.9560932,5.9202509 72.2231183,5.65322581 C72.4901434,5.38620072 72.8530466,5.25268817 73.311828,5.25268817 C73.5304659,5.25268817 73.7258065,5.28942652 73.8978495,5.36290323 C74.0698925,5.43637993 74.2159498,5.54032258 74.3360215,5.67473118 C74.4560932,5.80913978 74.547491,5.96863799 74.6102151,6.15322581 C74.6729391,6.33781362 74.7043011,6.54121864 74.7043011,6.76344086 L74.7043011,6.76344086 Z M76.9569892,10.0806452 C77.0286738,10.0806452 77.0851254,10.0600358 77.1263441,10.0188172 C77.1675627,9.97759857 77.2060932,9.93189964 77.2419355,9.88172043 L77.2419355,9.88172043 L78.5107527,8.02688172 C78.5394265,7.9874552 78.561828,7.94354839 78.577957,7.89516129 C78.594086,7.84677419 78.609319,7.79749104 78.6236559,7.74731183 L78.6236559,7.74731183 L79.9946237,9.88172043 C80.0232975,9.93189964 80.0600358,9.97759857 80.1048387,10.0188172 C80.1496416,10.0600358 80.2114695,10.0806452 80.2903226,10.0806452 L80.2903226,10.0806452 L81.2096774,10.0806452 L79.3010753,7.23655914 L81.1344086,4.6344086 L80.2526882,4.6344086 C80.1989247,4.6344086 80.1532258,4.64964158 80.1155914,4.68010753 C80.077957,4.71057348 80.0430108,4.75089606 80.0107527,4.80107527 L80.0107527,4.80107527 L78.8387097,6.52150538 C78.7777778,6.61827957 78.7329749,6.71863799 78.7043011,6.82258065 L78.7043011,6.82258065 L77.3655914,4.77956989 C77.3369176,4.73297491 77.3046595,4.69713262 77.2688172,4.67204301 C77.2329749,4.64695341 77.1756272,4.6344086 77.0967742,4.6344086 L77.0967742,4.6344086 L76.1774194,4.6344086 L78.0107527,7.28494624 L76.1021505,10.0806452 L76.9569892,10.0806452 Z M83.7634409,10.1666667 C84.0107527,10.1666667 84.2508961,10.1227599 84.483871,10.0349462 C84.7168459,9.94713262 84.9157706,9.82616487 85.0806452,9.67204301 L85.0806452,9.67204301 L84.8010753,9.21505376 C84.7616487,9.15412186 84.7168459,9.12365591 84.6666667,9.12365591 C84.6379928,9.12365591 84.6048387,9.13709677 84.5672043,9.16397849 C84.5295699,9.19086022 84.483871,9.22043011 84.4301075,9.25268817 C84.3763441,9.28494624 84.312724,9.31451613 84.2392473,9.34139785 C84.1657706,9.36827957 84.078853,9.38172043 83.9784946,9.38172043 C83.8028674,9.38172043 83.6594982,9.32616487 83.5483871,9.21505376 C83.437276,9.10394265 83.3817204,8.93369176 83.3817204,8.70430108 L83.3817204,8.70430108 L83.3817204,5.43548387 L84.9569892,5.43548387 L84.9569892,4.74193548 L83.3817204,4.74193548 L83.3817204,2.8655914 L82.8978495,2.8655914 C82.8369176,2.8655914 82.7876344,2.88261649 82.75,2.91666667 C82.7123656,2.95071685 82.688172,2.99462366 82.6774194,3.0483871 L82.6774194,3.0483871 L82.4569892,4.7311828 L81.5645161,4.84408602 L81.5645161,5.22580645 C81.5645161,5.29749104 81.5842294,5.35035842 81.6236559,5.3844086 C81.6630824,5.41845878 81.7114695,5.43548387 81.7688172,5.43548387 L81.7688172,5.43548387 L82.4247312,5.43548387 L82.4247312,8.7688172 C82.4247312,9.22043011 82.5403226,9.56630824 82.7715054,9.80645161 C83.0026882,10.046595 83.3333333,10.1666667 83.7634409,10.1666667 Z" id="texthighlighttext-copy" fill="#252525"></path>
            </g>
            <g id="Group-5" transform="translate(101.000000, 0.000000)">
                <path d="M0,11 C0,4.92486775 4.92817249,0 10.991074,0 L38.1815451,0 C44.1522361,0 49.0109701,4.76342789 49.1686683,10.7021035 L49.172619,11 C49.172619,17.0751322 44.2444466,22 38.1815451,22 L10.991074,22 C5.02038296,22 0.161648924,17.2365721 0.00395076211,11.2978965 L0,11 Z" id="Path" fill="#FFB900"></path>
                <path d="M8.9375,15.8125 L12.1325784,15.8125 C12.6349885,15.8125 13.0823824,15.7502178 13.4747605,15.6256533 C13.8671385,15.5010889 14.1982725,15.3266986 14.468162,15.1024826 C14.7380519,14.8782666 14.9435833,14.6094149 15.0847561,14.2959277 C15.2259289,13.9824404 15.2965157,13.6346981 15.2965157,13.2527003 C15.2965157,12.7046167 15.1314678,12.2592988 14.801372,11.9167465 C14.4712761,11.5741943 13.9844366,11.3385599 13.3408537,11.2098432 C13.6190477,11.1226481 13.8619484,11.0095019 14.0695557,10.8704051 C14.2771634,10.7313082 14.4494774,10.5756026 14.5864983,10.4032883 C14.7235192,10.230974 14.8262848,10.0441273 14.8947953,9.84274826 C14.9633057,9.64138096 14.997561,9.43273549 14.997561,9.21681185 C14.997561,8.85557491 14.9363165,8.52963099 14.8138284,8.23898084 C14.6913403,7.94833068 14.5013795,7.70231587 14.243946,7.50093641 C13.9865129,7.29955695 13.658493,7.14488992 13.2598868,7.0369338 C12.8612805,6.92897768 12.3837833,6.875 11.8273955,6.875 L8.9375,6.875 L8.9375,15.8125 Z M10.2205139,11.7641551 L12.1138937,11.7641551 C12.7574766,11.7641551 13.2370498,11.8949477 13.5526132,12.1565331 C13.8681767,12.4181185 14.0259582,12.7731272 14.0259582,13.2215592 C14.0259582,13.4499273 13.989627,13.659611 13.9169643,13.8506098 C13.8443244,14.0416085 13.7311782,14.2066564 13.5775261,14.3457535 C13.4239071,14.4848504 13.22668,14.5938443 12.9858449,14.6727352 C12.7450202,14.751626 12.4543697,14.7910714 12.1138937,14.7910714 L10.2205139,14.7910714 L10.2205139,11.7641551 Z M10.2205139,10.8548345 L10.2205139,7.88397213 L11.8273955,7.88397213 C12.4709784,7.88397213 12.9474374,8.00334615 13.2567726,8.24209495 C13.5661079,8.48084375 13.7207753,8.85765124 13.7207753,9.37251742 C13.7207753,9.59673345 13.68133,9.80018886 13.602439,9.98288328 C13.5235697,10.1655777 13.4041953,10.3212833 13.2443162,10.45 C13.0844584,10.5787167 12.8820411,10.6783683 12.6370645,10.7489547 C12.3920878,10.8195411 12.1035132,10.8548345 11.7713415,10.8548345 L10.2205139,10.8548345 Z M23.2935526,6.875 L17.7628906,6.875 L17.7628906,15.8125 L23.2935526,15.8125 L23.2997808,14.7661585 L19.0521327,14.7661585 L19.0521327,11.8077526 L22.4714272,11.8077526 L22.4714272,10.7987805 L19.0521327,10.7987805 L19.0521327,7.92134146 L23.2935526,7.92134146 L23.2935526,6.875 Z M31.776391,6.875 L24.7696402,6.875 L24.7696402,7.95248258 L27.6346227,7.95248258 L27.6346227,15.8125 L28.9176367,15.8125 L28.9176367,7.95248258 L31.776391,7.95248258 L31.776391,6.875 Z M40.2841425,15.8125 L36.7153707,6.875 L35.4136721,6.875 L31.8511286,15.8125 L32.8476442,15.8125 C32.9555979,15.8125 33.0479832,15.7813589 33.1248002,15.7190767 C33.2016149,15.6567944 33.2524787,15.5862079 33.2773916,15.5073171 L34.0808324,13.4084059 L38.0482104,13.4084059 L38.8516512,15.5073171 C38.8890205,15.5986643 38.9429982,15.672365 39.013585,15.728419 C39.0841718,15.784473 39.1755188,15.8125 39.2876268,15.8125 L40.2841425,15.8125 Z M37.6932017,12.4866289 L34.4358411,12.4866289 L35.7873655,8.97391115 C35.8329778,8.86180314 35.8786513,8.73101045 35.9243864,8.5815331 L36.0614073,8.09573171 L36.0614073,8.09573171 C36.1070808,8.27012195 36.1537925,8.43101797 36.2015423,8.57841899 L36.2489461,8.71993794 L36.2489461,8.71993794 L37.6932017,12.4866289 Z" id="BETA" fill="#FFFFFF"></path>
            </g>
            <path d="M2.19892473,25.1666667 C2.44623656,25.1666667 2.68637993,25.1227599 2.91935484,25.0349462 C3.15232975,24.9471326 3.35125448,24.8261649 3.51612903,24.672043 L3.51612903,24.672043 L3.23655914,24.2150538 C3.19713262,24.1541219 3.15232975,24.1236559 3.10215054,24.1236559 C3.0734767,24.1236559 3.04032258,24.1370968 3.00268817,24.1639785 C2.96505376,24.1908602 2.91935484,24.2204301 2.8655914,24.2526882 C2.81182796,24.2849462 2.74820789,24.3145161 2.67473118,24.3413978 C2.60125448,24.3682796 2.51433692,24.3817204 2.41397849,24.3817204 C2.23835125,24.3817204 2.09498208,24.3261649 1.98387097,24.2150538 C1.87275986,24.1039427 1.8172043,23.9336918 1.8172043,23.7043011 L1.8172043,23.7043011 L1.8172043,20.4354839 L3.39247312,20.4354839 L3.39247312,19.7419355 L1.8172043,19.7419355 L1.8172043,17.8655914 L1.33333333,17.8655914 C1.27240143,17.8655914 1.22311828,17.8826165 1.18548387,17.9166667 C1.14784946,17.9507168 1.12365591,17.9946237 1.11290323,18.0483871 L1.11290323,18.0483871 L0.892473118,19.7311828 L-2.84217094e-14,19.844086 L-2.84217094e-14,20.2258065 C-2.84217094e-14,20.297491 0.0197132616,20.3503584 0.0591397849,20.3844086 C0.0985663082,20.4184588 0.146953405,20.4354839 0.204301075,20.4354839 L0.204301075,20.4354839 L0.860215054,20.4354839 L0.860215054,23.7688172 C0.860215054,24.2204301 0.975806452,24.5663082 1.20698925,24.8064516 C1.43817204,25.046595 1.7688172,25.1666667 2.19892473,25.1666667 Z M6.66666667,25.155914 C6.86379928,25.155914 7.06272401,25.1388889 7.26344086,25.1048387 C7.46415771,25.0707885 7.65860215,25.0197133 7.84677419,24.9516129 C8.03494624,24.8835125 8.21146953,24.796595 8.37634409,24.6908602 C8.54121864,24.5851254 8.6827957,24.4605735 8.80107527,24.3172043 L8.80107527,24.3172043 L8.53225806,23.9677419 C8.48924731,23.90681 8.42831541,23.8763441 8.34946237,23.8763441 C8.28853047,23.8763441 8.21594982,23.9041219 8.13172043,23.9596774 C8.04749104,24.015233 7.94265233,24.0752688 7.8172043,24.1397849 C7.69175627,24.2043011 7.5421147,24.2643369 7.36827957,24.3198925 C7.19444444,24.375448 6.9874552,24.4032258 6.74731183,24.4032258 C6.48924731,24.4032258 6.2562724,24.3611111 6.0483871,24.2768817 C5.84050179,24.1926523 5.66129032,24.0654122 5.51075269,23.8951613 C5.36021505,23.7249104 5.24283154,23.5125448 5.15860215,23.2580645 C5.07437276,23.0035842 5.02688172,22.7043011 5.01612903,22.3602151 L5.01612903,22.3602151 L8.65591398,22.3602151 C8.74551971,22.3602151 8.80645161,22.3351254 8.83870968,22.2849462 C8.87096774,22.234767 8.88709677,22.1344086 8.88709677,21.983871 C8.88709677,21.5967742 8.8297491,21.2517921 8.71505376,20.9489247 C8.60035842,20.6460573 8.44175627,20.3915771 8.23924731,20.1854839 C8.03673835,19.9793907 7.79659498,19.8216846 7.5188172,19.7123656 C7.24103943,19.6030466 6.9390681,19.5483871 6.61290323,19.5483871 C6.21863799,19.5483871 5.86379928,19.6173835 5.5483871,19.7553763 C5.23297491,19.8933692 4.96594982,20.0833333 4.74731183,20.3252688 C4.52867384,20.5672043 4.36111111,20.8530466 4.24462366,21.1827957 C4.1281362,21.5125448 4.06989247,21.8673835 4.06989247,22.2473118 C4.06989247,22.7168459 4.1344086,23.1326165 4.26344086,23.4946237 C4.39247312,23.8566308 4.57258065,24.1603943 4.80376344,24.405914 C5.03494624,24.6514337 5.30913978,24.8378136 5.62634409,24.9650538 C5.94354839,25.0922939 6.29032258,25.155914 6.66666667,25.155914 Z M8.02688172,21.7634409 L5.0483871,21.7634409 C5.11290323,21.2903226 5.27867384,20.9202509 5.54569892,20.6532258 C5.81272401,20.3862007 6.17562724,20.2526882 6.6344086,20.2526882 C6.85304659,20.2526882 7.0483871,20.2894265 7.22043011,20.3629032 C7.39247312,20.4363799 7.53853047,20.5403226 7.65860215,20.6747312 C7.77867384,20.8091398 7.87007168,20.968638 7.9327957,21.1532258 C7.99551971,21.3378136 8.02688172,21.5412186 8.02688172,21.7634409 L8.02688172,21.7634409 Z M10.2795699,25.0806452 C10.3512545,25.0806452 10.4077061,25.0600358 10.4489247,25.0188172 C10.4901434,24.9775986 10.5286738,24.9318996 10.5645161,24.8817204 L10.5645161,24.8817204 L11.8333333,23.0268817 C11.8620072,22.9874552 11.8844086,22.9435484 11.9005376,22.8951613 C11.9166667,22.8467742 11.9318996,22.797491 11.9462366,22.7473118 L11.9462366,22.7473118 L13.3172043,24.8817204 C13.3458781,24.9318996 13.3826165,24.9775986 13.4274194,25.0188172 C13.4722222,25.0600358 13.5340502,25.0806452 13.6129032,25.0806452 L13.6129032,25.0806452 L14.5322581,25.0806452 L12.6236559,22.2365591 L14.4569892,19.6344086 L13.5752688,19.6344086 C13.5215054,19.6344086 13.4758065,19.6496416 13.438172,19.6801075 C13.4005376,19.7105735 13.3655914,19.7508961 13.3333333,19.8010753 L13.3333333,19.8010753 L12.1612903,21.5215054 C12.1003584,21.6182796 12.0555556,21.718638 12.0268817,21.8225806 L12.0268817,21.8225806 L10.688172,19.7795699 C10.6594982,19.7329749 10.6272401,19.6971326 10.5913978,19.672043 C10.5555556,19.6469534 10.4982079,19.6344086 10.4193548,19.6344086 L10.4193548,19.6344086 L9.5,19.6344086 L11.3333333,22.2849462 L9.42473118,25.0806452 L10.2795699,25.0806452 Z M17.0860215,25.1666667 C17.3333333,25.1666667 17.5734767,25.1227599 17.8064516,25.0349462 C18.0394265,24.9471326 18.2383513,24.8261649 18.4032258,24.672043 L18.4032258,24.672043 L18.1236559,24.2150538 C18.0842294,24.1541219 18.0394265,24.1236559 17.9892473,24.1236559 C17.9605735,24.1236559 17.9274194,24.1370968 17.8897849,24.1639785 C17.8521505,24.1908602 17.8064516,24.2204301 17.7526882,24.2526882 C17.6989247,24.2849462 17.6353047,24.3145161 17.561828,24.3413978 C17.4883513,24.3682796 17.4014337,24.3817204 17.3010753,24.3817204 C17.125448,24.3817204 16.9820789,24.3261649 16.8709677,24.2150538 C16.7598566,24.1039427 16.7043011,23.9336918 16.7043011,23.7043011 L16.7043011,23.7043011 L16.7043011,20.4354839 L18.2795699,20.4354839 L18.2795699,19.7419355 L16.7043011,19.7419355 L16.7043011,17.8655914 L16.2204301,17.8655914 C16.1594982,17.8655914 16.1102151,17.8826165 16.0725806,17.9166667 C16.0349462,17.9507168 16.0107527,17.9946237 16,18.0483871 L16,18.0483871 L15.7795699,19.7311828 L14.8870968,19.844086 L14.8870968,20.2258065 C14.8870968,20.297491 14.90681,20.3503584 14.9462366,20.3844086 C14.9856631,20.4184588 15.0340502,20.4354839 15.0913978,20.4354839 L15.0913978,20.4354839 L15.7473118,20.4354839 L15.7473118,23.7688172 C15.7473118,24.2204301 15.8629032,24.5663082 16.094086,24.8064516 C16.3252688,25.046595 16.655914,25.1666667 17.0860215,25.1666667 Z M23.4946237,25.0806452 L23.4946237,21.1021505 C23.6451613,20.9695341 23.8001792,20.8646953 23.9596774,20.7876344 C24.1191756,20.7105735 24.2903226,20.672043 24.4731183,20.672043 C24.7168459,20.672043 24.9014337,20.7482079 25.0268817,20.9005376 C25.1523297,21.0528674 25.2150538,21.265233 25.2150538,21.5376344 L25.2150538,21.5376344 L25.2150538,25.0806452 L26.8817204,25.0806452 L26.8817204,21.5376344 C26.8817204,21.2329749 26.8405018,20.9507168 26.7580645,20.6908602 C26.6756272,20.4310036 26.5537634,20.2069892 26.3924731,20.0188172 C26.2311828,19.8306452 26.0331541,19.6836918 25.7983871,19.577957 C25.5636201,19.4722222 25.2939068,19.4193548 24.9892473,19.4193548 C24.6630824,19.4193548 24.3826165,19.4722222 24.1478495,19.577957 C23.9130824,19.6836918 23.6953405,19.8225806 23.4946237,19.9946237 L23.4946237,19.9946237 L23.4946237,17.0322581 L21.827957,17.0322581 L21.827957,25.0806452 L23.4946237,25.0806452 Z M28.811828,18.9462366 C28.9516129,18.9462366 29.0833333,18.9202509 29.2069892,18.8682796 C29.3306452,18.8163082 29.4390681,18.7464158 29.5322581,18.6586022 C29.625448,18.5707885 29.6989247,18.468638 29.7526882,18.3521505 C29.8064516,18.2356631 29.8333333,18.1111111 29.8333333,17.9784946 C29.8333333,17.8422939 29.8064516,17.7150538 29.7526882,17.5967742 C29.6989247,17.4784946 29.625448,17.374552 29.5322581,17.2849462 C29.4390681,17.1953405 29.3306452,17.125448 29.2069892,17.0752688 C29.0833333,17.0250896 28.9516129,17 28.811828,17 C28.6756272,17 28.5483871,17.0250896 28.4301075,17.0752688 C28.311828,17.125448 28.2069892,17.1953405 28.1155914,17.2849462 C28.0241935,17.374552 27.952509,17.4784946 27.9005376,17.5967742 C27.8485663,17.7150538 27.8225806,17.8422939 27.8225806,17.9784946 C27.8225806,18.1111111 27.8485663,18.2356631 27.9005376,18.3521505 C27.952509,18.468638 28.0241935,18.5707885 28.1155914,18.6586022 C28.2069892,18.7464158 28.311828,18.8163082 28.4301075,18.8682796 C28.5483871,18.9202509 28.6756272,18.9462366 28.811828,18.9462366 Z M29.6612903,25.0806452 L29.6612903,19.5053763 L27.9946237,19.5053763 L27.9946237,25.0806452 L29.6612903,25.0806452 Z M33.0053763,27 C33.4498208,27 33.844086,26.9435484 34.188172,26.8306452 C34.5322581,26.7177419 34.8225806,26.5681004 35.0591398,26.3817204 C35.2956989,26.1953405 35.4749104,25.9820789 35.5967742,25.7419355 C35.718638,25.5017921 35.7795699,25.2562724 35.7795699,25.0053763 C35.7795699,24.7365591 35.7293907,24.515233 35.6290323,24.3413978 C35.5286738,24.1675627 35.3960573,24.0286738 35.2311828,23.9247312 C35.0663082,23.8207885 34.8790323,23.7455197 34.6693548,23.6989247 C34.4596774,23.6523297 34.2455197,23.6191756 34.0268817,23.5994624 C33.8082437,23.5797491 33.594086,23.5672043 33.3844086,23.561828 C33.1747312,23.5564516 32.9874552,23.5456989 32.8225806,23.5295699 C32.6577061,23.5134409 32.5250896,23.484767 32.4247312,23.4435484 C32.3243728,23.4023297 32.2741935,23.3351254 32.2741935,23.2419355 C32.2741935,23.1487455 32.3351254,23.0645161 32.4569892,22.9892473 C32.5358423,23.0035842 32.6164875,23.0134409 32.6989247,23.0188172 C32.781362,23.0241935 32.8655914,23.0268817 32.9516129,23.0268817 C33.2670251,23.0268817 33.562724,22.984767 33.8387097,22.9005376 C34.1146953,22.8163082 34.3539427,22.6962366 34.5564516,22.5403226 C34.7589606,22.3844086 34.9184588,22.1953405 35.0349462,21.9731183 C35.1514337,21.7508961 35.2096774,21.5 35.2096774,21.2204301 C35.2096774,21.1308244 35.203405,21.0448029 35.1908602,20.9623656 C35.1783154,20.8799283 35.1612903,20.7992832 35.1397849,20.7204301 L35.1397849,20.7204301 L35.5430108,20.6290323 C35.6684588,20.6003584 35.7571685,20.5591398 35.8091398,20.5053763 C35.8611111,20.4516129 35.8870968,20.3781362 35.8870968,20.2849462 L35.8870968,20.2849462 L35.8870968,19.6774194 L34.2096774,19.6774194 C33.844086,19.4982079 33.4247312,19.4086022 32.9516129,19.4086022 C32.625448,19.4086022 32.3225806,19.4507168 32.0430108,19.5349462 C31.7634409,19.6191756 31.5206093,19.7392473 31.3145161,19.8951613 C31.1084229,20.0510753 30.9462366,20.2410394 30.827957,20.4650538 C30.7096774,20.6890681 30.6505376,20.9408602 30.6505376,21.2204301 C30.6505376,21.5573477 30.734767,21.8521505 30.9032258,22.1048387 C31.0716846,22.3575269 31.3010753,22.5609319 31.5913978,22.7150538 C31.4623656,22.7759857 31.3512545,22.8458781 31.2580645,22.9247312 C31.1648746,23.0035842 31.0869176,23.0869176 31.0241935,23.1747312 C30.9614695,23.2625448 30.9157706,23.3521505 30.8870968,23.4435484 C30.8584229,23.5349462 30.844086,23.6218638 30.844086,23.7043011 C30.844086,23.9086022 30.8835125,24.0752688 30.9623656,24.2043011 C31.0412186,24.3333333 31.1487455,24.4390681 31.2849462,24.5215054 C31.0268817,24.6218638 30.8261649,24.7544803 30.6827957,24.9193548 C30.5394265,25.0842294 30.4677419,25.2903226 30.4677419,25.5376344 C30.4677419,25.7275986 30.5179211,25.9103943 30.6182796,26.0860215 C30.718638,26.2616487 30.8736559,26.4166667 31.0833333,26.5510753 C31.2930108,26.6854839 31.5564516,26.7939068 31.8736559,26.8763441 C32.1908602,26.9587814 32.5681004,27 33.0053763,27 Z M32.9516129,22 C32.8154122,22 32.6980287,21.9811828 32.5994624,21.9435484 C32.5008961,21.905914 32.4193548,21.8539427 32.3548387,21.7876344 C32.2903226,21.7213262 32.2428315,21.6433692 32.2123656,21.5537634 C32.1818996,21.4641577 32.1666667,21.3655914 32.1666667,21.2580645 C32.1666667,21.0322581 32.2284946,20.8548387 32.3521505,20.7258065 C32.4758065,20.5967742 32.6756272,20.5322581 32.9516129,20.5322581 C33.2275986,20.5322581 33.4274194,20.5967742 33.5510753,20.7258065 C33.6747312,20.8548387 33.7365591,21.0322581 33.7365591,21.2580645 C33.7365591,21.4767025 33.6747312,21.6550179 33.5510753,21.7930108 C33.4274194,21.9310036 33.2275986,22 32.9516129,22 Z M33.0376344,25.8548387 C32.8154122,25.8548387 32.6317204,25.8413978 32.4865591,25.8145161 C32.3413978,25.7876344 32.2258065,25.7508961 32.1397849,25.7043011 C32.0537634,25.6577061 31.9937276,25.6021505 31.9596774,25.5376344 C31.9256272,25.4731183 31.9086022,25.4014337 31.9086022,25.3225806 C31.9086022,25.2114695 31.9417563,25.1120072 32.0080645,25.0241935 C32.0743728,24.9363799 32.1594982,24.8566308 32.2634409,24.7849462 C32.4964158,24.8064516 32.7302867,24.8198925 32.9650538,24.8252688 C33.1998208,24.8306452 33.4121864,24.8458781 33.6021505,24.8709677 C33.7921147,24.8960573 33.9462366,24.938172 34.0645161,24.9973118 C34.1827957,25.0564516 34.2419355,25.1523297 34.2419355,25.2849462 C34.2419355,25.3673835 34.2240143,25.4435484 34.188172,25.5134409 C34.1523297,25.5833333 34.0887097,25.6433692 33.9973118,25.6935484 C33.905914,25.7437276 33.7831541,25.7831541 33.6290323,25.811828 C33.4749104,25.8405018 33.2777778,25.8548387 33.0376344,25.8548387 Z M38.2526882,25.0806452 L38.2526882,21.1021505 C38.4032258,20.9695341 38.5582437,20.8646953 38.7177419,20.7876344 C38.8772401,20.7105735 39.0483871,20.672043 39.2311828,20.672043 C39.4749104,20.672043 39.6594982,20.7482079 39.7849462,20.9005376 C39.9103943,21.0528674 39.9731183,21.265233 39.9731183,21.5376344 L39.9731183,21.5376344 L39.9731183,25.0806452 L41.6397849,25.0806452 L41.6397849,21.5376344 C41.6397849,21.2329749 41.5985663,20.9507168 41.516129,20.6908602 C41.4336918,20.4310036 41.311828,20.2069892 41.1505376,20.0188172 C40.9892473,19.8306452 40.7912186,19.6836918 40.5564516,19.577957 C40.3216846,19.4722222 40.0519713,19.4193548 39.7473118,19.4193548 C39.421147,19.4193548 39.140681,19.4722222 38.905914,19.577957 C38.671147,19.6836918 38.453405,19.8225806 38.2526882,19.9946237 L38.2526882,19.9946237 L38.2526882,17.0322581 L36.5860215,17.0322581 L36.5860215,25.0806452 L38.2526882,25.0806452 Z M44.3817204,25.0806452 L44.3817204,17.0322581 L42.7150538,17.0322581 L42.7150538,25.0806452 L44.3817204,25.0806452 Z M46.3655914,18.9462366 C46.5053763,18.9462366 46.6370968,18.9202509 46.7607527,18.8682796 C46.8844086,18.8163082 46.9928315,18.7464158 47.0860215,18.6586022 C47.1792115,18.5707885 47.2526882,18.468638 47.3064516,18.3521505 C47.3602151,18.2356631 47.3870968,18.1111111 47.3870968,17.9784946 C47.3870968,17.8422939 47.3602151,17.7150538 47.3064516,17.5967742 C47.2526882,17.4784946 47.1792115,17.374552 47.0860215,17.2849462 C46.9928315,17.1953405 46.8844086,17.125448 46.7607527,17.0752688 C46.6370968,17.0250896 46.5053763,17 46.3655914,17 C46.2293907,17 46.1021505,17.0250896 45.983871,17.0752688 C45.8655914,17.125448 45.7607527,17.1953405 45.6693548,17.2849462 C45.577957,17.374552 45.5062724,17.4784946 45.4543011,17.5967742 C45.4023297,17.7150538 45.3763441,17.8422939 45.3763441,17.9784946 C45.3763441,18.1111111 45.4023297,18.2356631 45.4543011,18.3521505 C45.5062724,18.468638 45.577957,18.5707885 45.6693548,18.6586022 C45.7607527,18.7464158 45.8655914,18.8163082 45.983871,18.8682796 C46.1021505,18.9202509 46.2293907,18.9462366 46.3655914,18.9462366 Z M47.2150538,25.0806452 L47.2150538,19.5053763 L45.5483871,19.5053763 L45.5483871,25.0806452 L47.2150538,25.0806452 Z M50.5591398,27 C51.0035842,27 51.3978495,26.9435484 51.7419355,26.8306452 C52.0860215,26.7177419 52.3763441,26.5681004 52.6129032,26.3817204 C52.8494624,26.1953405 53.0286738,25.9820789 53.1505376,25.7419355 C53.2724014,25.5017921 53.3333333,25.2562724 53.3333333,25.0053763 C53.3333333,24.7365591 53.2831541,24.515233 53.1827957,24.3413978 C53.0824373,24.1675627 52.9498208,24.0286738 52.7849462,23.9247312 C52.6200717,23.8207885 52.4327957,23.7455197 52.2231183,23.6989247 C52.0134409,23.6523297 51.7992832,23.6191756 51.5806452,23.5994624 C51.3620072,23.5797491 51.1478495,23.5672043 50.938172,23.561828 C50.7284946,23.5564516 50.5412186,23.5456989 50.3763441,23.5295699 C50.2114695,23.5134409 50.078853,23.484767 49.9784946,23.4435484 C49.8781362,23.4023297 49.827957,23.3351254 49.827957,23.2419355 C49.827957,23.1487455 49.8888889,23.0645161 50.0107527,22.9892473 C50.0896057,23.0035842 50.1702509,23.0134409 50.2526882,23.0188172 C50.3351254,23.0241935 50.4193548,23.0268817 50.5053763,23.0268817 C50.8207885,23.0268817 51.1164875,22.984767 51.3924731,22.9005376 C51.6684588,22.8163082 51.9077061,22.6962366 52.1102151,22.5403226 C52.312724,22.3844086 52.4722222,22.1953405 52.5887097,21.9731183 C52.7051971,21.7508961 52.7634409,21.5 52.7634409,21.2204301 C52.7634409,21.1308244 52.7571685,21.0448029 52.7446237,20.9623656 C52.7320789,20.8799283 52.7150538,20.7992832 52.6935484,20.7204301 L52.6935484,20.7204301 L53.0967742,20.6290323 C53.2222222,20.6003584 53.3109319,20.5591398 53.3629032,20.5053763 C53.4148746,20.4516129 53.4408602,20.3781362 53.4408602,20.2849462 L53.4408602,20.2849462 L53.4408602,19.6774194 L51.7634409,19.6774194 C51.3978495,19.4982079 50.9784946,19.4086022 50.5053763,19.4086022 C50.1792115,19.4086022 49.8763441,19.4507168 49.5967742,19.5349462 C49.3172043,19.6191756 49.0743728,19.7392473 48.8682796,19.8951613 C48.6621864,20.0510753 48.5,20.2410394 48.3817204,20.4650538 C48.2634409,20.6890681 48.2043011,20.9408602 48.2043011,21.2204301 C48.2043011,21.5573477 48.2885305,21.8521505 48.4569892,22.1048387 C48.625448,22.3575269 48.8548387,22.5609319 49.1451613,22.7150538 C49.016129,22.7759857 48.9050179,22.8458781 48.811828,22.9247312 C48.718638,23.0035842 48.640681,23.0869176 48.577957,23.1747312 C48.515233,23.2625448 48.4695341,23.3521505 48.4408602,23.4435484 C48.4121864,23.5349462 48.3978495,23.6218638 48.3978495,23.7043011 C48.3978495,23.9086022 48.437276,24.0752688 48.516129,24.2043011 C48.5949821,24.3333333 48.702509,24.4390681 48.8387097,24.5215054 C48.5806452,24.6218638 48.3799283,24.7544803 48.2365591,24.9193548 C48.09319,25.0842294 48.0215054,25.2903226 48.0215054,25.5376344 C48.0215054,25.7275986 48.0716846,25.9103943 48.172043,26.0860215 C48.2724014,26.2616487 48.4274194,26.4166667 48.6370968,26.5510753 C48.8467742,26.6854839 49.1102151,26.7939068 49.4274194,26.8763441 C49.7446237,26.9587814 50.1218638,27 50.5591398,27 Z M50.5053763,22 C50.3691756,22 50.2517921,21.9811828 50.1532258,21.9435484 C50.0546595,21.905914 49.9731183,21.8539427 49.9086022,21.7876344 C49.844086,21.7213262 49.796595,21.6433692 49.766129,21.5537634 C49.7356631,21.4641577 49.7204301,21.3655914 49.7204301,21.2580645 C49.7204301,21.0322581 49.7822581,20.8548387 49.905914,20.7258065 C50.0295699,20.5967742 50.2293907,20.5322581 50.5053763,20.5322581 C50.781362,20.5322581 50.9811828,20.5967742 51.1048387,20.7258065 C51.2284946,20.8548387 51.2903226,21.0322581 51.2903226,21.2580645 C51.2903226,21.4767025 51.2284946,21.6550179 51.1048387,21.7930108 C50.9811828,21.9310036 50.781362,22 50.5053763,22 Z M50.5913978,25.8548387 C50.3691756,25.8548387 50.1854839,25.8413978 50.0403226,25.8145161 C49.8951613,25.7876344 49.7795699,25.7508961 49.6935484,25.7043011 C49.6075269,25.6577061 49.547491,25.6021505 49.5134409,25.5376344 C49.4793907,25.4731183 49.4623656,25.4014337 49.4623656,25.3225806 C49.4623656,25.2114695 49.4955197,25.1120072 49.561828,25.0241935 C49.6281362,24.9363799 49.7132616,24.8566308 49.8172043,24.7849462 C50.0501792,24.8064516 50.2840502,24.8198925 50.5188172,24.8252688 C50.7535842,24.8306452 50.9659498,24.8458781 51.155914,24.8709677 C51.3458781,24.8960573 51.5,24.938172 51.6182796,24.9973118 C51.7365591,25.0564516 51.7956989,25.1523297 51.7956989,25.2849462 C51.7956989,25.3673835 51.7777778,25.4435484 51.7419355,25.5134409 C51.7060932,25.5833333 51.6424731,25.6433692 51.5510753,25.6935484 C51.4596774,25.7437276 51.3369176,25.7831541 51.1827957,25.811828 C51.0286738,25.8405018 50.8315412,25.8548387 50.5913978,25.8548387 Z M55.8064516,25.0806452 L55.8064516,21.1021505 C55.9569892,20.9695341 56.1120072,20.8646953 56.2715054,20.7876344 C56.4310036,20.7105735 56.6021505,20.672043 56.7849462,20.672043 C57.0286738,20.672043 57.2132616,20.7482079 57.3387097,20.9005376 C57.4641577,21.0528674 57.5268817,21.265233 57.5268817,21.5376344 L57.5268817,21.5376344 L57.5268817,25.0806452 L59.1935484,25.0806452 L59.1935484,21.5376344 C59.1935484,21.2329749 59.1523297,20.9507168 59.0698925,20.6908602 C58.9874552,20.4310036 58.8655914,20.2069892 58.7043011,20.0188172 C58.5430108,19.8306452 58.3449821,19.6836918 58.1102151,19.577957 C57.875448,19.4722222 57.6057348,19.4193548 57.3010753,19.4193548 C56.9749104,19.4193548 56.6944444,19.4722222 56.4596774,19.577957 C56.2249104,19.6836918 56.0071685,19.8225806 55.8064516,19.9946237 L55.8064516,19.9946237 L55.8064516,17.0322581 L54.1397849,17.0322581 L54.1397849,25.0806452 L55.8064516,25.0806452 Z M62.2634409,25.1666667 C62.5501792,25.1666667 62.827957,25.1263441 63.0967742,25.0456989 C63.3655914,24.9650538 63.6075269,24.844086 63.8225806,24.6827957 L63.8225806,24.6827957 L63.3172043,23.8924731 C63.2849462,23.8422939 63.2535842,23.8055556 63.2231183,23.7822581 C63.1926523,23.7589606 63.1523297,23.7473118 63.1021505,23.7473118 C63.0663082,23.7473118 63.0349462,23.7535842 63.0080645,23.766129 C62.9811828,23.7786738 62.952509,23.7930108 62.922043,23.8091398 C62.8915771,23.8252688 62.8557348,23.8396057 62.8145161,23.8521505 C62.7732975,23.8646953 62.7222222,23.8709677 62.6612903,23.8709677 C62.5430108,23.8709677 62.452509,23.828853 62.3897849,23.7446237 C62.3270609,23.6603943 62.2956989,23.5537634 62.2956989,23.4247312 L62.2956989,23.4247312 L62.2956989,20.655914 L63.6774194,20.655914 L63.6774194,19.516129 L62.2956989,19.516129 L62.2956989,17.8870968 L61.4247312,17.8870968 C61.2240143,17.8870968 61.1021505,17.9731183 61.0591398,18.1451613 L61.0591398,18.1451613 L60.7311828,19.5053763 L59.844086,19.6774194 L59.844086,20.327957 C59.844086,20.4354839 59.874552,20.5170251 59.9354839,20.5725806 C59.9964158,20.6281362 60.0698925,20.655914 60.155914,20.655914 L60.155914,20.655914 L60.6290323,20.655914 L60.6290323,23.5376344 C60.6290323,23.7849462 60.6648746,24.0089606 60.7365591,24.2096774 C60.8082437,24.4103943 60.9130824,24.5815412 61.0510753,24.7231183 C61.1890681,24.8646953 61.359319,24.9740143 61.561828,25.0510753 C61.7643369,25.1281362 61.9982079,25.1666667 62.2634409,25.1666667 Z M68.8763441,25.1666667 C69.1236559,25.1666667 69.3637993,25.1227599 69.5967742,25.0349462 C69.8297491,24.9471326 70.0286738,24.8261649 70.1935484,24.672043 L70.1935484,24.672043 L69.9139785,24.2150538 C69.874552,24.1541219 69.8297491,24.1236559 69.7795699,24.1236559 C69.7508961,24.1236559 69.7177419,24.1370968 69.6801075,24.1639785 C69.6424731,24.1908602 69.5967742,24.2204301 69.5430108,24.2526882 C69.4892473,24.2849462 69.4256272,24.3145161 69.3521505,24.3413978 C69.2786738,24.3682796 69.1917563,24.3817204 69.0913978,24.3817204 C68.9157706,24.3817204 68.7724014,24.3261649 68.6612903,24.2150538 C68.5501792,24.1039427 68.4946237,23.9336918 68.4946237,23.7043011 L68.4946237,23.7043011 L68.4946237,20.4354839 L70.0698925,20.4354839 L70.0698925,19.7419355 L68.4946237,19.7419355 L68.4946237,17.8655914 L68.0107527,17.8655914 C67.9498208,17.8655914 67.9005376,17.8826165 67.8629032,17.9166667 C67.8252688,17.9507168 67.8010753,17.9946237 67.7903226,18.0483871 L67.7903226,18.0483871 L67.5698925,19.7311828 L66.6774194,19.844086 L66.6774194,20.2258065 C66.6774194,20.297491 66.6971326,20.3503584 66.7365591,20.3844086 C66.7759857,20.4184588 66.8243728,20.4354839 66.8817204,20.4354839 L66.8817204,20.4354839 L67.5376344,20.4354839 L67.5376344,23.7688172 C67.5376344,24.2204301 67.6532258,24.5663082 67.8844086,24.8064516 C68.1155914,25.046595 68.4462366,25.1666667 68.8763441,25.1666667 Z M73.344086,25.155914 C73.5412186,25.155914 73.7401434,25.1388889 73.9408602,25.1048387 C74.1415771,25.0707885 74.3360215,25.0197133 74.5241935,24.9516129 C74.7123656,24.8835125 74.8888889,24.796595 75.0537634,24.6908602 C75.218638,24.5851254 75.3602151,24.4605735 75.4784946,24.3172043 L75.4784946,24.3172043 L75.2096774,23.9677419 C75.1666667,23.90681 75.1057348,23.8763441 75.0268817,23.8763441 C74.9659498,23.8763441 74.8933692,23.9041219 74.8091398,23.9596774 C74.7249104,24.015233 74.6200717,24.0752688 74.4946237,24.1397849 C74.3691756,24.2043011 74.2195341,24.2643369 74.0456989,24.3198925 C73.8718638,24.375448 73.6648746,24.4032258 73.4247312,24.4032258 C73.1666667,24.4032258 72.9336918,24.3611111 72.7258065,24.2768817 C72.5179211,24.1926523 72.3387097,24.0654122 72.188172,23.8951613 C72.0376344,23.7249104 71.9202509,23.5125448 71.8360215,23.2580645 C71.7517921,23.0035842 71.7043011,22.7043011 71.6935484,22.3602151 L71.6935484,22.3602151 L75.3333333,22.3602151 C75.4229391,22.3602151 75.483871,22.3351254 75.516129,22.2849462 C75.5483871,22.234767 75.5645161,22.1344086 75.5645161,21.983871 C75.5645161,21.5967742 75.5071685,21.2517921 75.3924731,20.9489247 C75.2777778,20.6460573 75.1191756,20.3915771 74.9166667,20.1854839 C74.7141577,19.9793907 74.4740143,19.8216846 74.1962366,19.7123656 C73.9184588,19.6030466 73.6164875,19.5483871 73.2903226,19.5483871 C72.8960573,19.5483871 72.5412186,19.6173835 72.2258065,19.7553763 C71.9103943,19.8933692 71.6433692,20.0833333 71.4247312,20.3252688 C71.2060932,20.5672043 71.0385305,20.8530466 70.922043,21.1827957 C70.8055556,21.5125448 70.7473118,21.8673835 70.7473118,22.2473118 C70.7473118,22.7168459 70.811828,23.1326165 70.9408602,23.4946237 C71.0698925,23.8566308 71.25,24.1603943 71.4811828,24.405914 C71.7123656,24.6514337 71.9865591,24.8378136 72.3037634,24.9650538 C72.6209677,25.0922939 72.9677419,25.155914 73.344086,25.155914 Z M74.7043011,21.7634409 L71.7258065,21.7634409 C71.7903226,21.2903226 71.9560932,20.9202509 72.2231183,20.6532258 C72.4901434,20.3862007 72.8530466,20.2526882 73.311828,20.2526882 C73.5304659,20.2526882 73.7258065,20.2894265 73.8978495,20.3629032 C74.0698925,20.4363799 74.2159498,20.5403226 74.3360215,20.6747312 C74.4560932,20.8091398 74.547491,20.968638 74.6102151,21.1532258 C74.6729391,21.3378136 74.7043011,21.5412186 74.7043011,21.7634409 L74.7043011,21.7634409 Z M76.9569892,25.0806452 C77.0286738,25.0806452 77.0851254,25.0600358 77.1263441,25.0188172 C77.1675627,24.9775986 77.2060932,24.9318996 77.2419355,24.8817204 L77.2419355,24.8817204 L78.5107527,23.0268817 C78.5394265,22.9874552 78.561828,22.9435484 78.577957,22.8951613 C78.594086,22.8467742 78.609319,22.797491 78.6236559,22.7473118 L78.6236559,22.7473118 L79.9946237,24.8817204 C80.0232975,24.9318996 80.0600358,24.9775986 80.1048387,25.0188172 C80.1496416,25.0600358 80.2114695,25.0806452 80.2903226,25.0806452 L80.2903226,25.0806452 L81.2096774,25.0806452 L79.3010753,22.2365591 L81.1344086,19.6344086 L80.2526882,19.6344086 C80.1989247,19.6344086 80.1532258,19.6496416 80.1155914,19.6801075 C80.077957,19.7105735 80.0430108,19.7508961 80.0107527,19.8010753 L80.0107527,19.8010753 L78.8387097,21.5215054 C78.7777778,21.6182796 78.7329749,21.718638 78.7043011,21.8225806 L78.7043011,21.8225806 L77.3655914,19.7795699 C77.3369176,19.7329749 77.3046595,19.6971326 77.2688172,19.672043 C77.2329749,19.6469534 77.1756272,19.6344086 77.0967742,19.6344086 L77.0967742,19.6344086 L76.1774194,19.6344086 L78.0107527,22.2849462 L76.1021505,25.0806452 L76.9569892,25.0806452 Z M83.7634409,25.1666667 C84.0107527,25.1666667 84.2508961,25.1227599 84.483871,25.0349462 C84.7168459,24.9471326 84.9157706,24.8261649 85.0806452,24.672043 L85.0806452,24.672043 L84.8010753,24.2150538 C84.7616487,24.1541219 84.7168459,24.1236559 84.6666667,24.1236559 C84.6379928,24.1236559 84.6048387,24.1370968 84.5672043,24.1639785 C84.5295699,24.1908602 84.483871,24.2204301 84.4301075,24.2526882 C84.3763441,24.2849462 84.312724,24.3145161 84.2392473,24.3413978 C84.1657706,24.3682796 84.078853,24.3817204 83.9784946,24.3817204 C83.8028674,24.3817204 83.6594982,24.3261649 83.5483871,24.2150538 C83.437276,24.1039427 83.3817204,23.9336918 83.3817204,23.7043011 L83.3817204,23.7043011 L83.3817204,20.4354839 L84.9569892,20.4354839 L84.9569892,19.7419355 L83.3817204,19.7419355 L83.3817204,17.8655914 L82.8978495,17.8655914 C82.8369176,17.8655914 82.7876344,17.8826165 82.75,17.9166667 C82.7123656,17.9507168 82.688172,17.9946237 82.6774194,18.0483871 L82.6774194,18.0483871 L82.4569892,19.7311828 L81.5645161,19.844086 L81.5645161,20.2258065 C81.5645161,20.297491 81.5842294,20.3503584 81.6236559,20.3844086 C81.6630824,20.4184588 81.7114695,20.4354839 81.7688172,20.4354839 L81.7688172,20.4354839 L82.4247312,20.4354839 L82.4247312,23.7688172 C82.4247312,24.2204301 82.5403226,24.5663082 82.7715054,24.8064516 C83.0026882,25.046595 83.3333333,25.1666667 83.7634409,25.1666667 Z" id="texthighlighttext" fill="#252525"></path>
        </g>
    </g>
</svg>