<?xml version="1.0" encoding="UTF-8"?>
<svg width="145px" height="87px" viewBox="0 0 145 87" version="1.1" xmlns="http://www.w3.org/2000/svg" xmlns:xlink="http://www.w3.org/1999/xlink">
    <!-- Generator: Sketch 56.3 (81716) - https://sketch.com -->
    <title>ImportRecordsFlow</title>
    <desc>Created with Sketch.</desc>
    <defs>
        <filter x="-83.3%" y="-83.3%" width="266.7%" height="266.7%" filterUnits="objectBoundingBox" id="filter-1">
            <feOffset dx="0" dy="0" in="SourceAlpha" result="shadowOffsetOuter1"></feOffset>
            <feGaussianBlur stdDeviation="0.5" in="shadowOffsetOuter1" result="shadowBlurOuter1"></feGaussianBlur>
            <feColorMatrix values="0 0 0 0 0.890196078   0 0 0 0 0.898039216   0 0 0 0 0.929411765  0 0 0 1 0" type="matrix" in="shadowBlurOuter1" result="shadowMatrixOuter1"></feColorMatrix>
            <feMerge>
                <feMergeNode in="shadowMatrixOuter1"></feMergeNode>
                <feMergeNode in="SourceGraphic"></feMergeNode>
            </feMerge>
        </filter>
        <filter x="-83.3%" y="-83.3%" width="266.7%" height="266.7%" filterUnits="objectBoundingBox" id="filter-2">
            <feOffset dx="0" dy="0" in="SourceAlpha" result="shadowOffsetOuter1"></feOffset>
            <feGaussianBlur stdDeviation="0.5" in="shadowOffsetOuter1" result="shadowBlurOuter1"></feGaussianBlur>
            <feColorMatrix values="0 0 0 0 0.890196078   0 0 0 0 0.898039216   0 0 0 0 0.929411765  0 0 0 1 0" type="matrix" in="shadowBlurOuter1" result="shadowMatrixOuter1"></feColorMatrix>
            <feMerge>
                <feMergeNode in="shadowMatrixOuter1"></feMergeNode>
                <feMergeNode in="SourceGraphic"></feMergeNode>
            </feMerge>
        </filter>
    </defs>
    <g id="pages" stroke="none" stroke-width="1" fill="none" fill-rule="evenodd">
        <g id="ImportRecordsFlow" fill-rule="nonzero">
            <path d="M4,0 L141,0 C143.209139,0 145,1.790861 145,4 L145,83 C145,85.209139 143.209139,87 141,87 L4,87 C1.790861,87 0,85.209139 0,83 L0,4 C0,1.790861 1.790861,0 4,0 Z" id="Rectangle" fill="#E3E5ED"></path>
            <path d="M32.1666667,9.5 L115.166667,9.5 C120.413372,9.5 124.666667,13.7532949 124.666667,19 L124.666667,69 C124.666667,74.2467051 120.413372,78.5 115.166667,78.5 L32.1666667,78.5 C26.9199615,78.5 22.6666667,74.2467051 22.6666667,69 L22.6666667,19 C22.6666667,13.7532949 26.9199615,9.5 32.1666667,9.5 Z" id="Path" fill="#FFFFFF"></path>
            <path d="M115,19 C113.895431,19 113,18.1045695 113,17 C113,15.8954305 113.895431,15 115,15 L116.5,15 C117.604569,15 118.5,15.8954305 118.5,17 C118.5,18.1045695 117.604569,19 116.5,19 L115,19 Z" id="Line-9" fill="#A4A7B5" opacity="0.403645833"></path>
            <g id="progress-indicator" transform="translate(22.000000, 68.000000)">
                <g id="Group-36" transform="translate(25.750000, 4.500000)" fill="#E3E5ED">
                    <polygon id="Line-2-Copy" points="0.25 1.5 0.25 1 50.4943644 1 50.4943644 1.5"></polygon>
                    <path d="M50,2.25 C49.4477153,2.25 49,1.80228475 49,1.25 C49,0.69771525 49.4477153,0.25 50,0.25 C50.5522847,0.25 51,0.69771525 51,1.25 C51,1.80228475 50.5522847,2.25 50,2.25 Z" id="medium"></path>
                    <g id="Group-14-Copy-7" transform="translate(31.000000, 0.250000)">
                        <g id="step">
                            <path d="M1,2 C0.44771525,2 0,1.55228475 0,1 C0,0.44771525 0.44771525,0 1,0 C1.55228475,0 2,0.44771525 2,1 C2,1.55228475 1.55228475,2 1,2 Z" id="medium"></path>
                        </g>
                    </g>
                </g>
                <polygon id="Path" fill-opacity="0.3" fill="#E3E5ED" points="0.666666667 1.5 0.666666667 1 102.666667 1 102.666667 1.5"></polygon>
                <g id="Group-16" filter="url(#filter-1)" transform="translate(40.000000, 4.250000)" fill="#01B6F5">
                    <g id="cancel">
                        <circle id="Oval" cx="1.49707895" cy="1.49707895" r="1.49707895"></circle>
                    </g>
                </g>
                <g id="Group-16-Copy" filter="url(#filter-2)" transform="translate(24.000000, 4.250000)" fill="#01B6F5">
                    <g id="cancel">
                        <circle id="Oval" cx="1.49707895" cy="1.49707895" r="1.49707895"></circle>
                    </g>
                </g>
            </g>
            <g id="outbox" transform="translate(62.000000, 31.000000)">
                <polygon id="Path" fill="#71D2F6" points="3.98542955 6.69209622 17.2701031 6.69209622 21.2555326 10.6775258 0 10.6775258"></polygon>
                <path d="M4.64962199,8.02116838 L16.6058419,8.02116838 L19.9270103,11.3423368 C19.9270103,11.3423368 19.6547079,14.6635052 19.174433,14.6635052 L1.95553265,14.6635052 C1.55436426,14.6635052 1.32852234,11.3423368 1.32852234,11.3423368 L4.64962199,8.02116838 Z" id="Path" fill="#5EAFCD"></path>
                <path d="M14.6131271,10.6781443 L14.6131271,12.0065979 C14.6131271,12.7399313 14.0180069,13.3350515 13.2846735,13.3350515 L7.97079038,13.3350515 C7.23745704,13.3350515 6.64233677,12.7399313 6.64233677,12.0065979 L6.64233677,10.6781443 L0,10.6781443 L0,18.6489347 C0,19.382268 0.595120275,19.9773883 1.32845361,19.9773883 L19.9270103,19.9773883 C20.6603436,19.9773883 21.2554639,19.382268 21.2554639,18.6489347 L21.2554639,10.6781443 C21.2554639,10.6781443 14.6131271,10.6781443 14.6131271,10.6781443 Z" id="Path" fill="#71D2F6"></path>
                <path d="M15.123299,4.28618557 L11.2833677,0.481443299 C10.9226804,-0.105773196 10.3328522,-0.105773196 9.97216495,0.481443299 L6.13154639,4.28618557 C5.77085911,4.87402062 6.0657732,5.35360825 6.78646048,5.35360825 L8.63505155,5.35360825 L8.63505155,9.34762887 C8.63505155,9.71560137 8.93195876,10.0131959 9.29931271,10.0131959 L11.9562199,10.0131959 C12.3235739,10.0131959 12.6204811,9.71498282 12.6204811,9.34762887 L12.6204811,5.35429553 L14.4676976,5.35429553 C15.1883849,5.35429553 15.4839175,4.87408935 15.123299,4.28618557 Z" id="Path" fill="#D4D4E1"></path>
            </g>
        </g>
    </g>
</svg>