<svg xmlns="http://www.w3.org/2000/svg" width="131" height="80" viewBox="0 0 131 80">
    <g fill="none" fill-rule="evenodd">
        <path fill="#01B6F5" fill-rule="nonzero" d="M12 56.8C5.814 56.8.8 61.814.8 68c0 6.186 5.014 11.2 11.2 11.2h107c6.186 0 11.2-5.014 11.2-11.2 0-6.186-5.014-11.2-11.2-11.2H12zm0-.8h107c6.627 0 12 5.373 12 12s-5.373 12-12 12H12C5.373 80 0 74.627 0 68s5.373-12 12-12z"/>
        <path fill="#A4A7B5" fill-rule="nonzero" d="M12 7.8C5.814 7.8.8 12.814.8 19c0 6.186 5.014 11.2 11.2 11.2h107c6.186 0 11.2-5.014 11.2-11.2 0-6.186-5.014-11.2-11.2-11.2H12zm0-.8h107c6.627 0 12 5.373 12 12s-5.373 12-12 12H12C5.373 31 0 25.627 0 19S5.373 7 12 7z"/>
        <path fill="#061C3F" d="M23 63h1.176v11.072H23z"/>
        <path fill="#01B6F5" fill-rule="nonzero" d="M12 73a5 5 0 0 1 0-10h1.5a5 5 0 0 1 0 10H12z"/>
        <path fill="#A4A7B5" fill-rule="nonzero" d="M48.5 52a1.5 1.5 0 0 1 0-3h32.25a1.5 1.5 0 0 1 0 3H48.5zM48.5 3a1.5 1.5 0 0 1 0-3h32.25a1.5 1.5 0 0 1 0 3H48.5z"/>
        <path fill="#E3E5ED" fill-rule="nonzero" d="M12 24a5 5 0 0 1 0-10h1.5a5 5 0 0 1 0 10H12zM27.5 21a2 2 0 1 1 0-4h66a2 2 0 1 1 0 4h-66z"/>
    </g>
</svg>
