<?xml version="1.0" encoding="UTF-8"?>
<svg width="151px" height="77px" viewBox="0 0 151 77" version="1.1" xmlns="http://www.w3.org/2000/svg" xmlns:xlink="http://www.w3.org/1999/xlink">
    <title>InternalOverlay</title>
    <defs>
        <filter x="-4.2%" y="-4.5%" width="108.5%" height="108.9%" filterUnits="objectBoundingBox" id="filter-1">
            <feOffset dx="0" dy="0" in="SourceAlpha" result="shadowOffsetOuter1"></feOffset>
            <feGaussianBlur stdDeviation="0.5" in="shadowOffsetOuter1" result="shadowBlurOuter1"></feGaussianBlur>
            <feColorMatrix values="0 0 0 0 0.533333333   0 0 0 0 0.596078431   0 0 0 0 0.666666667  0 0 0 0.5 0" type="matrix" in="shadowBlurOuter1" result="shadowMatrixOuter1"></feColorMatrix>
            <feMerge>
                <feMergeNode in="shadowMatrixOuter1"></feMergeNode>
                <feMergeNode in="SourceGraphic"></feMergeNode>
            </feMerge>
        </filter>
        <filter x="-4.7%" y="-5.4%" width="109.4%" height="110.9%" filterUnits="objectBoundingBox" id="filter-2">
            <feOffset dx="0" dy="0" in="SourceAlpha" result="shadowOffsetOuter1"></feOffset>
            <feGaussianBlur stdDeviation="0.5" in="shadowOffsetOuter1" result="shadowBlurOuter1"></feGaussianBlur>
            <feColorMatrix values="0 0 0 0 0.533333333   0 0 0 0 0.596078431   0 0 0 0 0.666666667  0 0 0 0.5 0" type="matrix" in="shadowBlurOuter1" result="shadowMatrixOuter1"></feColorMatrix>
            <feMerge>
                <feMergeNode in="shadowMatrixOuter1"></feMergeNode>
                <feMergeNode in="SourceGraphic"></feMergeNode>
            </feMerge>
        </filter>
    </defs>
    <g id="pages" stroke="none" stroke-width="1" fill="none" fill-rule="evenodd">
        <g id="InternalOverlay" transform="translate(2.000000, 0.000000)" fill-rule="nonzero">
            <g id="Group-203" transform="translate(0.000000, 4.000000)">
                <g id="price_active-copy" filter="url(#filter-1)">
                    <path d="M5.28466294,0.480423903 C2.63135498,0.480423903 0.480423903,2.63135498 0.480423903,5.28466294 L0.480423903,49.8254342 C0.480423903,52.4787422 2.63135498,54.6296732 5.28466294,54.6296732 L53.2254342,54.6296732 C55.8787422,54.6296732 58.0296732,52.4787422 58.0296732,49.8254342 L58.0296732,5.28466294 C58.0296732,2.63135498 55.8787422,0.480423903 53.2254342,0.480423903 L5.28466294,0.480423903 Z" id="Rectangle-17" fill="#FFFFFF"></path>
                    <path d="M5.28466294,0 L53.2254342,0 C56.144073,0 58.5100971,2.36602419 58.5100971,5.28466294 L58.5100971,49.8254342 C58.5100971,52.744073 56.144073,55.1100971 53.2254342,55.1100971 L5.28466294,55.1100971 C2.36602419,55.1100971 0,52.744073 0,49.8254342 L0,5.28466294 C0,2.36602419 2.36602419,0 5.28466294,0 Z M5.28466294,0.480423903 C2.63135498,0.480423903 0.480423903,2.63135498 0.480423903,5.28466294 L0.480423903,49.8254342 C0.480423903,52.4787422 2.63135498,54.6296732 5.28466294,54.6296732 L53.2254342,54.6296732 C55.8787422,54.6296732 58.0296732,52.4787422 58.0296732,49.8254342 L58.0296732,5.28466294 C58.0296732,2.63135498 55.8787422,0.480423903 53.2254342,0.480423903 L5.28466294,0.480423903 Z" id="Rectangle-17" fill="#E6E6EB"></path>
                </g>
                <g id="price_active-copy-2" filter="url(#filter-2)" transform="translate(83.000000, 24.400000)">
                    <path d="M5.28466294,0.480423903 C2.63135498,0.480423903 0.480423903,2.63135498 0.480423903,5.28466294 L0.480423903,40.0254342 C0.480423903,42.6787422 2.63135498,44.8296732 5.28466294,44.8296732 L46.8254342,44.8296732 C49.4787422,44.8296732 51.6296732,42.6787422 51.6296732,40.0254342 L51.6296732,5.28466294 C51.6296732,2.63135498 49.4787422,0.480423903 46.8254342,0.480423903 L5.28466294,0.480423903 Z" id="Rectangle-17" fill="#FFFFFF"></path>
                    <path d="M5.28466294,0 L46.8254342,0 C49.744073,0 52.1100971,2.36602419 52.1100971,5.28466294 L52.1100971,40.0254342 C52.1100971,42.944073 49.744073,45.3100971 46.8254342,45.3100971 L5.28466294,45.3100971 C2.36602419,45.3100971 0,42.944073 0,40.0254342 L0,5.28466294 C0,2.36602419 2.36602419,0 5.28466294,0 Z M5.28466294,0.480423903 C2.63135498,0.480423903 0.480423903,2.63135498 0.480423903,5.28466294 L0.480423903,40.0254342 C0.480423903,42.6787422 2.63135498,44.8296732 5.28466294,44.8296732 L46.8254342,44.8296732 C49.4787422,44.8296732 51.6296732,42.6787422 51.6296732,40.0254342 L51.6296732,5.28466294 C51.6296732,2.63135498 49.4787422,0.480423903 46.8254342,0.480423903 L5.28466294,0.480423903 Z" id="Rectangle-17" fill="#E6E6EB"></path>
                </g>
            </g>
            <path d="M75,11 C75,4.92486775 79.9281725,0 85.991074,0 L137.181545,0 C143.152236,0 148.01097,4.76342789 148.168668,10.7021035 L148.172619,11 C148.172619,17.0751322 143.244447,22 137.181545,22 L85.991074,22 C80.020383,22 75.1616489,17.2365721 75.0039508,11.2978965 L75,11 Z" id="Path" fill="#8592A0"></path>
            <path d="M85.1507327,15.5 L85.1507327,7 L84,7 L84,15.5 L85.1507327,15.5 Z M88.3300768,15.5 L88.3300768,9.44382415 C88.3300768,9.36078158 88.3280996,9.2718074 88.3241452,9.17690161 C88.3201907,9.08199581 88.3142591,8.98511282 88.3063503,8.88625262 L88.3063503,8.88625262 L93.2236567,15.2923936 C93.2829728,15.3675273 93.3432775,15.4209118 93.4045708,15.4525471 C93.4658642,15.4841824 93.5419865,15.5 93.6329379,15.5 L93.6329379,15.5 L94.2083043,15.5 L94.2083043,7 L93.1999302,7 L93.1999302,13.0205862 C93.1999302,13.1075832 93.202896,13.1995231 93.2088276,13.2964061 C93.2147592,13.3932891 93.2216795,13.4931379 93.2295883,13.5959525 L93.2295883,13.5959525 L88.3122819,7.1957432 C88.2806467,7.15619912 88.2509886,7.12357525 88.2233077,7.0978716 C88.1956269,7.07216795 88.167946,7.05239591 88.1402652,7.03855548 C88.1125843,7.02471505 88.0809491,7.01482903 88.0453594,7.00889742 C88.0097697,7.00296581 87.9662712,7 87.9148639,7 L87.9148639,7 L87.3217027,7 L87.3217027,15.5 L88.3300768,15.5 Z M99.3747383,15.5 L99.3747383,7.96685276 L102.127006,7.96685276 L102.127006,7 L95.4717376,7 L95.4717376,7.96685276 L98.2299372,7.96685276 L98.2299372,15.5 L99.3747383,15.5 Z M108.622121,15.5 L108.628053,14.5628053 L104.535241,14.5628053 L104.535241,11.662247 L107.84508,11.662247 L107.84508,10.760642 L104.535241,10.760642 L104.535241,7.9371947 L108.622121,7.9371947 L108.622121,7 L103.384508,7 L103.384508,15.5 L108.622121,15.5 Z M111.380321,15.5 L111.380321,11.952896 L112.252268,11.952896 C112.414399,11.952896 112.53402,11.9736567 112.61113,12.0151779 C112.688241,12.0566992 112.760409,12.1249128 112.827634,12.2198186 L112.827634,12.2198186 L115.034194,15.2568039 C115.133054,15.4189346 115.287276,15.5 115.49686,15.5 L115.49686,15.5 L116.517097,15.5 L114.037683,12.1249128 C113.930914,11.9667365 113.804373,11.846127 113.65806,11.7630844 C113.986276,11.6879507 114.279891,11.5772273 114.538904,11.4309142 C114.797918,11.2846011 115.017388,11.1076413 115.197313,10.9000349 C115.377239,10.6924285 115.514655,10.4581298 115.60956,10.1971389 C115.704466,9.93614794 115.751919,9.65538497 115.751919,9.35484997 C115.751919,8.99499884 115.690626,8.66974878 115.568039,8.37909979 C115.445452,8.0884508 115.256629,7.8403117 115.00157,7.63468248 C114.746511,7.42905327 114.423238,7.27186555 114.031752,7.16311933 C113.640265,7.05437311 113.175622,7 112.637823,7 L112.637823,7 L110.23552,7 L110.23552,15.5 L111.380321,15.5 Z M112.59037,11.1165387 L111.380321,11.1165387 L111.380321,7.90753664 L112.637823,7.90753664 C113.302163,7.90753664 113.800419,8.0360549 114.132589,8.29309142 C114.464759,8.55012794 114.630844,8.93172831 114.630844,9.43789253 C114.630844,9.68702024 114.587346,9.9143987 114.500349,10.1200279 C114.413352,10.3256571 114.283845,10.5026169 114.111828,10.6509072 C113.939812,10.7991975 113.726274,10.9138753 113.471214,10.9949407 C113.216155,11.076006 112.92254,11.1165387 112.59037,11.1165387 L112.59037,11.1165387 Z M118.676204,15.5 L118.676204,9.44382415 C118.676204,9.36078158 118.674227,9.2718074 118.670272,9.17690161 C118.666318,9.08199581 118.660386,8.98511282 118.652477,8.88625262 L118.652477,8.88625262 L123.569784,15.2923936 C123.6291,15.3675273 123.689405,15.4209118 123.750698,15.4525471 C123.811991,15.4841824 123.888114,15.5 123.979065,15.5 L123.979065,15.5 L124.554431,15.5 L124.554431,7 L123.546057,7 L123.546057,13.0205862 C123.546057,13.1075832 123.549023,13.1995231 123.554955,13.2964061 C123.560886,13.3932891 123.567806,13.4931379 123.575715,13.5959525 L123.575715,13.5959525 L118.658409,7.1957432 C118.626774,7.15619912 118.597116,7.12357525 118.569435,7.0978716 C118.541754,7.07216795 118.514073,7.05239591 118.486392,7.03855548 C118.458711,7.02471505 118.427076,7.01482903 118.391486,7.00889742 C118.355897,7.00296581 118.312398,7 118.260991,7 L118.260991,7 L117.66783,7 L117.66783,15.5 L118.676204,15.5 Z M126.565248,15.5 C126.664108,15.5 126.747151,15.4723191 126.814375,15.4169574 C126.8816,15.3615957 126.927076,15.2983252 126.950803,15.2271458 L126.950803,15.2271458 L127.745639,13.1748081 L131.559665,13.1748081 L132.354501,15.2271458 C132.386136,15.306234 132.433589,15.3714817 132.49686,15.422889 C132.56013,15.4742963 132.643173,15.5 132.745987,15.5 L132.745987,15.5 L133.635729,15.5 L130.236916,7 L129.07432,7 L125.675506,15.5 L126.565248,15.5 Z M131.239358,12.3443824 L128.065946,12.3443824 L129.400558,8.89218423 C129.487555,8.6786462 129.572575,8.41172366 129.655618,8.09141661 C129.695162,8.24563852 129.736683,8.39096301 129.780181,8.52739009 C129.82368,8.66381717 129.865201,8.78343801 129.904745,8.88625262 L129.904745,8.88625262 L131.239358,12.3443824 Z M139.579204,15.5 L139.579204,14.5331472 L135.901605,14.5331472 L135.901605,7 L134.756804,7 L134.756804,15.5 L139.579204,15.5 Z" id="INTERNAL" fill="#FFFFFF"></path>
            <g id="travel" transform="translate(11.000000, 14.000000)">
                <path d="M33,23.4 C34.3253906,23.4 35.4,24.4746094 35.4,25.8 L35.4,29.4 C35.4,30.7253906 34.3253906,31.8 33,31.8 C31.6746094,31.8 30.6,30.7253906 30.6,29.4 L30.6,25.8 C30.6,24.4746094 31.6746094,23.4 33,23.4 Z" id="Path" fill="#85BC94"></path>
                <path d="M3,24.6 C4.32539062,24.6 5.4,25.6746094 5.4,27 L5.4,30.6 C5.4,31.9253906 4.32539062,33 3,33 C1.67460938,33 0.6,31.9253906 0.6,30.6 L0.6,27 C0.6,25.6746094 1.67460938,24.6 3,24.6 Z" id="Path" fill="#FD9226"></path>
                <polygon id="Path" fill="#5D9AA4" points="19.2 5.4 16.8 5.4 16.8 3.6 17.4 3 18.6 3 19.2 3.6"></polygon>
                <path d="M20.7234375,20.1275391 L19.2,5.4 L16.8,5.4 L15.2765625,20.1275391 C15.0931641,21.9020508 14.6830079,23.6455079 14.0569336,25.3157227 L13.2,27.6 L14.025,28.2 L15.4453125,28.4083008 L16.2,27.6 L17.4,23.4 L18.6,23.4 L20.1,27.6 L20.9334961,28.2 L21.9635742,28.4689453 L22.8,27.6 L21.9430664,25.3157227 C21.3169921,23.6455078 20.9068359,21.9020508 20.7234375,20.1275391 L20.7234375,20.1275391 Z" id="Path" fill="#64A8B2"></path>
                <polygon id="Path" fill="#5D9AA4" points="24 30 23.2872071 30.6366211 12.3372071 30.6 12 30 11.4 27.6 24.6 27.6"></polygon>
                <path d="M12,30 L9.6,35.4 L13.8,35.4 L14.3651367,34.4581055 C15.13125,33.1810547 16.5111329,32.4 18,32.4 C19.4888672,32.4 20.86875,33.1810547 21.6348633,34.4581055 L22.2,35.4 L26.4,35.4 L24,30 L12,30 Z" id="Path" fill="#64A8B2"></path>
                <path d="M31.2,10.8 C31.2,12.1253906 30.1253906,13.2 28.8,13.2 C27.4746094,13.2 26.4,12.1253906 26.4,10.8 C26.4,9.47460938 27.4746094,8.4 28.8,8.4 C30.1253906,8.4 31.2,9.47460938 31.2,10.8 Z" id="Path" fill="#FD9226"></path>
                <g id="Group" transform="translate(22.350000, 4.350000)" fill="#FBEDBF">
                    <polygon id="Path" points="3.05126955 3.0603516 6.02109375 0.03046875 6.87832035 0.870703125 3.9087891 3.9005859"></polygon>
                    <polygon id="Path" points="1.60693357 2.21337892 2.80693357 2.20136715 2.84970705 6.44443357 1.64970705 6.45644535"></polygon>
                    <polygon id="Path" points="0.02988285 6.8786133 0.87011715 6.02109375 3.90029295 8.99091795 3.05976562 9.84814455"></polygon>
                    <polygon id="Path" points="2.2010742 10.0936523 6.44414062 10.050293 6.45644535 11.250293 2.21337892 11.2936523"></polygon>
                    <polygon id="Path" points="6.02167965 12.0301758 8.9912109 9.00029295 9.84873045 9.84052732 6.87890625 12.8704102"></polygon>
                    <polygon id="Path" points="10.0505859 6.45585938 11.2505859 6.44384767 11.2933594 10.6866211 10.0933594 10.6989258"></polygon>
                    <polygon id="Path" points="9 3.9087891 9.84052733 3.05126955 12.8704102 6.0208008 12.0298829 6.87832035"></polygon>
                    <polygon id="Path" points="6.44384768 1.6505859 10.6869141 1.6072266 10.6992188 2.8072266 6.45615233 2.8505859"></polygon>
                </g>
                <path d="M18,3.6 C17.6686523,3.6 17.4,3.33134767 17.4,3 L17.4,0.6 C17.4,0.268652325 17.6686523,0 18,0 C18.3313477,0 18.6,0.268652325 18.6,0.6 L18.6,3 C18.6,3.33134767 18.3313477,3.6 18,3.6 Z" id="Path" fill="#5D9AA4"></path>
                <path d="M6.6,14.4 C6.6,13.0746094 5.52539063,12 4.2,12 C2.87460938,12 1.8,13.0746094 1.8,14.4 C1.13730465,14.4 0.6,14.9373047 0.6,15.6 L0.6,16.8 L7.8,16.8 L7.8,15.6 C7.8,14.9373047 7.26269535,14.4 6.6,14.4 Z" id="Path" fill="#EBEBEB"></path>
                <path d="M9,16.8 C9,15.4746094 7.92539063,14.4 6.6,14.4 C5.27460938,14.4 4.2,15.4746094 4.2,16.8 C3.53730465,16.8 3,17.3373047 3,18 L3,19.2 L10.2,19.2 L10.2,18 C10.2,17.3373047 9.66269535,16.8 9,16.8 Z" id="Path" fill="#EBEBEB"></path>
                <path d="M6.6,14.4 C6.6,13.0746094 5.52539063,12 4.2,12 C2.87460938,12 1.8,13.0746094 1.8,14.4 C1.13730465,14.4 0.6,14.9373047 0.6,15.6 L0.6,16.8 L7.8,16.8 L7.8,15.6 C7.8,14.9373047 7.26269535,14.4 6.6,14.4 Z" id="Path" fill="#EAEAE8"></path>
                <path d="M9,16.8 C9,15.4746094 7.92539063,14.4 6.6,14.4 C5.27460938,14.4 4.2,15.4746094 4.2,16.8 C3.53730465,16.8 3,17.3373047 3,18 L3,19.2 L10.2,19.2 L10.2,18 C10.2,17.3373047 9.66269535,16.8 9,16.8 Z" id="Path" fill="#F5F5F5"></path>
                <path d="M3,36 C2.66865233,36 2.4,35.7313477 2.4,35.4 L2.4,25.8 C2.4,25.4686523 2.66865233,25.2 3,25.2 C3.33134767,25.2 3.6,25.4686523 3.6,25.8 L3.6,35.4 C3.6,35.7313477 3.33134767,36 3,36 Z" id="Path" fill="#A45E14"></path>
                <path d="M2.4,24.684668 L2.4,32.915332 C2.59570313,32.9689453 2.79726563,32.9973633 3,33 C3.20273438,32.9973633 3.40429688,32.9689453 3.6,32.915332 L3.6,24.684668 C3.40429688,24.6310546 3.20273438,24.6026367 3,24.6 C2.79726563,24.6026367 2.59570313,24.6310547 2.4,24.684668 Z" id="Path" fill="#A45E14"></path>
                <path d="M5.4,27 C5.3973633,26.6103516 5.2989258,26.2277344 5.11318358,25.8852539 C5.0879883,25.8952148 5.06367188,25.9066406 5.03994143,25.9201172 L2.63994143,27.7201172 C2.37480465,27.91875 2.32119143,28.2949219 2.52011715,28.5600586 C2.71875,28.8251954 3.09492188,28.8788086 3.36005858,28.6798829 L5.4,27.15 L5.4,27 Z" id="Path" fill="#A45E14"></path>
                <path d="M35.1131836,24.6852539 C35.0879883,24.6952148 35.0636719,24.7066406 35.0399414,24.7201172 L33.6,25.8 L33.6,23.484668 C33.2080079,23.371875 32.7919922,23.371875 32.4,23.484668 L32.4,28.2 L30.9600586,27.1201171 C30.8551758,27.0448242 30.7289063,27.0064453 30.6,27.0102539 L30.6,28.35 L32.4,29.7 L32.4,35.4 C32.4,35.7313477 32.6686523,36 33,36 C33.3313477,36 33.6,35.7313477 33.6,35.4 L33.6,27.3 L35.4,25.95 L35.4,25.8 C35.3973633,25.4103516 35.2989258,25.0277344 35.1131836,24.6852539 L35.1131836,24.6852539 Z" id="Path" fill="#A45E14"></path>
                <path d="M35.4,36 L0.6,36 C0.268652325,36 0,35.7313477 0,35.4 C0,35.0686523 0.268652325,34.8 0.6,34.8 L35.4,34.8 C35.7313477,34.8 36,35.0686523 36,35.4 C36,35.7313477 35.7313477,36 35.4,36 Z" id="Path" fill="#85BC94"></path>
                <path d="M15.0665039,21.6 L20.9334961,21.6 C20.8631836,21.2021484 20.8075196,20.8019531 20.7606446,20.4 L15.2399414,20.4 C15.1924805,20.8019531 15.1368164,21.2021484 15.0665039,21.6 L15.0665039,21.6 Z" id="Path" fill="#5D9AA4"></path>
                <polygon id="Path" fill="#5D9AA4" points="19.8 11.2001954 19.696875 10.2 16.303125 10.2 16.2 11.2001954 16.2 11.4 19.8 11.4"></polygon>
                <polygon id="Path" fill="#4E838B" points="24.2663086 30.6 24 30 12 30 11.7336914 30.6"></polygon>
                <path d="M14.9455079,22.2 L21.0544922,22.2 C21.0131836,22.0001954 20.9689454,21.8009766 20.934668,21.6 L15.0665039,21.6 C15.0310547,21.8009766 14.9868164,22.0001954 14.9455079,22.2 L14.9455079,22.2 Z" id="Path" fill="#4E838B"></path>
                <polygon id="Path" fill="#4E838B" points="16.1170898 12 19.8829102 12 19.8205078 11.4 16.1794921 11.4"></polygon>
                <polygon id="Path" fill="#5D9AA4" points="17.4 10.8 18.6 10.8 18.6 21 17.4 21"></polygon>
                <polygon id="Path" fill="#4E838B" points="16.6757813 6.6 19.3242188 6.6 19.2618164 6 16.7381836 6"></polygon>
                <polygon id="Path" fill="#5D9AA4" points="15.6 4.8 20.4 4.8 20.4 6 15.6 6"></polygon>
                <path d="M0.960058575,28.3201172 C0.8551758,28.2448242 0.72890625,28.2064454 0.6,28.2102539 L0.6,29.55 L2.63994143,31.0798829 C2.90507813,31.2788086 3.28125,31.2251954 3.47988285,30.9600586 C3.67880858,30.6949219 3.62519535,30.31875 3.36005858,30.1201172 L0.960058575,28.3201172 Z" id="Path" fill="#A45E14"></path>
            </g>
        </g>
    </g>
</svg>