<?xml version="1.0" encoding="UTF-8"?>
<svg width="151px" height="77px" viewBox="0 0 151 77" version="1.1" xmlns="http://www.w3.org/2000/svg" xmlns:xlink="http://www.w3.org/1999/xlink">
    <title>Overlay</title>
    <defs>
        <filter x="-4.2%" y="-4.5%" width="108.5%" height="108.9%" filterUnits="objectBoundingBox" id="filter-1">
            <feOffset dx="0" dy="0" in="SourceAlpha" result="shadowOffsetOuter1"></feOffset>
            <feGaussianBlur stdDeviation="0.5" in="shadowOffsetOuter1" result="shadowBlurOuter1"></feGaussianBlur>
            <feColorMatrix values="0 0 0 0 0.533333333   0 0 0 0 0.596078431   0 0 0 0 0.666666667  0 0 0 0.5 0" type="matrix" in="shadowBlurOuter1" result="shadowMatrixOuter1"></feColorMatrix>
            <feMerge>
                <feMergeNode in="shadowMatrixOuter1"></feMergeNode>
                <feMergeNode in="SourceGraphic"></feMergeNode>
            </feMerge>
        </filter>
        <filter x="-4.7%" y="-5.4%" width="109.4%" height="110.9%" filterUnits="objectBoundingBox" id="filter-2">
            <feOffset dx="0" dy="0" in="SourceAlpha" result="shadowOffsetOuter1"></feOffset>
            <feGaussianBlur stdDeviation="0.5" in="shadowOffsetOuter1" result="shadowBlurOuter1"></feGaussianBlur>
            <feColorMatrix values="0 0 0 0 0.533333333   0 0 0 0 0.596078431   0 0 0 0 0.666666667  0 0 0 0.5 0" type="matrix" in="shadowBlurOuter1" result="shadowMatrixOuter1"></feColorMatrix>
            <feMerge>
                <feMergeNode in="shadowMatrixOuter1"></feMergeNode>
                <feMergeNode in="SourceGraphic"></feMergeNode>
            </feMerge>
        </filter>
    </defs>
    <g id="pages" stroke="none" stroke-width="1" fill="none" fill-rule="evenodd">
        <g id="Overlay" transform="translate(2.000000, 0.000000)" fill-rule="nonzero">
            <g id="Group-203" transform="translate(0.000000, 4.000000)">
                <g id="price_active-copy" filter="url(#filter-1)">
                    <path d="M5.28466294,0.480423903 C2.63135498,0.480423903 0.480423903,2.63135498 0.480423903,5.28466294 L0.480423903,49.8254342 C0.480423903,52.4787422 2.63135498,54.6296732 5.28466294,54.6296732 L53.2254342,54.6296732 C55.8787422,54.6296732 58.0296732,52.4787422 58.0296732,49.8254342 L58.0296732,5.28466294 C58.0296732,2.63135498 55.8787422,0.480423903 53.2254342,0.480423903 L5.28466294,0.480423903 Z" id="Rectangle-17" fill="#FFFFFF"></path>
                    <path d="M5.28466294,0 L53.2254342,0 C56.144073,0 58.5100971,2.36602419 58.5100971,5.28466294 L58.5100971,49.8254342 C58.5100971,52.744073 56.144073,55.1100971 53.2254342,55.1100971 L5.28466294,55.1100971 C2.36602419,55.1100971 0,52.744073 0,49.8254342 L0,5.28466294 C0,2.36602419 2.36602419,0 5.28466294,0 Z M5.28466294,0.480423903 C2.63135498,0.480423903 0.480423903,2.63135498 0.480423903,5.28466294 L0.480423903,49.8254342 C0.480423903,52.4787422 2.63135498,54.6296732 5.28466294,54.6296732 L53.2254342,54.6296732 C55.8787422,54.6296732 58.0296732,52.4787422 58.0296732,49.8254342 L58.0296732,5.28466294 C58.0296732,2.63135498 55.8787422,0.480423903 53.2254342,0.480423903 L5.28466294,0.480423903 Z" id="Rectangle-17" fill="#E6E6EB"></path>
                </g>
                <g id="price_active-copy-2" filter="url(#filter-2)" transform="translate(83.000000, 24.400000)">
                    <path d="M5.28466294,0.480423903 C2.63135498,0.480423903 0.480423903,2.63135498 0.480423903,5.28466294 L0.480423903,40.0254342 C0.480423903,42.6787422 2.63135498,44.8296732 5.28466294,44.8296732 L46.8254342,44.8296732 C49.4787422,44.8296732 51.6296732,42.6787422 51.6296732,40.0254342 L51.6296732,5.28466294 C51.6296732,2.63135498 49.4787422,0.480423903 46.8254342,0.480423903 L5.28466294,0.480423903 Z" id="Rectangle-17" fill="#FFFFFF"></path>
                    <path d="M5.28466294,0 L46.8254342,0 C49.744073,0 52.1100971,2.36602419 52.1100971,5.28466294 L52.1100971,40.0254342 C52.1100971,42.944073 49.744073,45.3100971 46.8254342,45.3100971 L5.28466294,45.3100971 C2.36602419,45.3100971 0,42.944073 0,40.0254342 L0,5.28466294 C0,2.36602419 2.36602419,0 5.28466294,0 Z M5.28466294,0.480423903 C2.63135498,0.480423903 0.480423903,2.63135498 0.480423903,5.28466294 L0.480423903,40.0254342 C0.480423903,42.6787422 2.63135498,44.8296732 5.28466294,44.8296732 L46.8254342,44.8296732 C49.4787422,44.8296732 51.6296732,42.6787422 51.6296732,40.0254342 L51.6296732,5.28466294 C51.6296732,2.63135498 49.4787422,0.480423903 46.8254342,0.480423903 L5.28466294,0.480423903 Z" id="Rectangle-17" fill="#E6E6EB"></path>
                </g>
            </g>
            <path d="M75,11 C75,4.92486775 79.9281725,0 85.991074,0 L137.181545,0 C143.152236,0 148.01097,4.76342789 148.168668,10.7021035 L148.172619,11 C148.172619,17.0751322 143.244447,22 137.181545,22 L85.991074,22 C80.020383,22 75.1616489,17.2365721 75.0039508,11.2978965 L75,11 Z" id="Path" fill="#8592A0"></path>
            <path d="M85.1507327,15.5 L85.1507327,7 L84,7 L84,15.5 L85.1507327,15.5 Z M88.3300768,15.5 L88.3300768,9.44382415 C88.3300768,9.36078158 88.3280996,9.2718074 88.3241452,9.17690161 C88.3201907,9.08199581 88.3142591,8.98511282 88.3063503,8.88625262 L88.3063503,8.88625262 L93.2236567,15.2923936 C93.2829728,15.3675273 93.3432775,15.4209118 93.4045708,15.4525471 C93.4658642,15.4841824 93.5419865,15.5 93.6329379,15.5 L93.6329379,15.5 L94.2083043,15.5 L94.2083043,7 L93.1999302,7 L93.1999302,13.0205862 C93.1999302,13.1075832 93.202896,13.1995231 93.2088276,13.2964061 C93.2147592,13.3932891 93.2216795,13.4931379 93.2295883,13.5959525 L93.2295883,13.5959525 L88.3122819,7.1957432 C88.2806467,7.15619912 88.2509886,7.12357525 88.2233077,7.0978716 C88.1956269,7.07216795 88.167946,7.05239591 88.1402652,7.03855548 C88.1125843,7.02471505 88.0809491,7.01482903 88.0453594,7.00889742 C88.0097697,7.00296581 87.9662712,7 87.9148639,7 L87.9148639,7 L87.3217027,7 L87.3217027,15.5 L88.3300768,15.5 Z M99.3747383,15.5 L99.3747383,7.96685276 L102.127006,7.96685276 L102.127006,7 L95.4717376,7 L95.4717376,7.96685276 L98.2299372,7.96685276 L98.2299372,15.5 L99.3747383,15.5 Z M108.622121,15.5 L108.628053,14.5628053 L104.535241,14.5628053 L104.535241,11.662247 L107.84508,11.662247 L107.84508,10.760642 L104.535241,10.760642 L104.535241,7.9371947 L108.622121,7.9371947 L108.622121,7 L103.384508,7 L103.384508,15.5 L108.622121,15.5 Z M111.380321,15.5 L111.380321,11.952896 L112.252268,11.952896 C112.414399,11.952896 112.53402,11.9736567 112.61113,12.0151779 C112.688241,12.0566992 112.760409,12.1249128 112.827634,12.2198186 L112.827634,12.2198186 L115.034194,15.2568039 C115.133054,15.4189346 115.287276,15.5 115.49686,15.5 L115.49686,15.5 L116.517097,15.5 L114.037683,12.1249128 C113.930914,11.9667365 113.804373,11.846127 113.65806,11.7630844 C113.986276,11.6879507 114.279891,11.5772273 114.538904,11.4309142 C114.797918,11.2846011 115.017388,11.1076413 115.197313,10.9000349 C115.377239,10.6924285 115.514655,10.4581298 115.60956,10.1971389 C115.704466,9.93614794 115.751919,9.65538497 115.751919,9.35484997 C115.751919,8.99499884 115.690626,8.66974878 115.568039,8.37909979 C115.445452,8.0884508 115.256629,7.8403117 115.00157,7.63468248 C114.746511,7.42905327 114.423238,7.27186555 114.031752,7.16311933 C113.640265,7.05437311 113.175622,7 112.637823,7 L112.637823,7 L110.23552,7 L110.23552,15.5 L111.380321,15.5 Z M112.59037,11.1165387 L111.380321,11.1165387 L111.380321,7.90753664 L112.637823,7.90753664 C113.302163,7.90753664 113.800419,8.0360549 114.132589,8.29309142 C114.464759,8.55012794 114.630844,8.93172831 114.630844,9.43789253 C114.630844,9.68702024 114.587346,9.9143987 114.500349,10.1200279 C114.413352,10.3256571 114.283845,10.5026169 114.111828,10.6509072 C113.939812,10.7991975 113.726274,10.9138753 113.471214,10.9949407 C113.216155,11.076006 112.92254,11.1165387 112.59037,11.1165387 L112.59037,11.1165387 Z M118.676204,15.5 L118.676204,9.44382415 C118.676204,9.36078158 118.674227,9.2718074 118.670272,9.17690161 C118.666318,9.08199581 118.660386,8.98511282 118.652477,8.88625262 L118.652477,8.88625262 L123.569784,15.2923936 C123.6291,15.3675273 123.689405,15.4209118 123.750698,15.4525471 C123.811991,15.4841824 123.888114,15.5 123.979065,15.5 L123.979065,15.5 L124.554431,15.5 L124.554431,7 L123.546057,7 L123.546057,13.0205862 C123.546057,13.1075832 123.549023,13.1995231 123.554955,13.2964061 C123.560886,13.3932891 123.567806,13.4931379 123.575715,13.5959525 L123.575715,13.5959525 L118.658409,7.1957432 C118.626774,7.15619912 118.597116,7.12357525 118.569435,7.0978716 C118.541754,7.07216795 118.514073,7.05239591 118.486392,7.03855548 C118.458711,7.02471505 118.427076,7.01482903 118.391486,7.00889742 C118.355897,7.00296581 118.312398,7 118.260991,7 L118.260991,7 L117.66783,7 L117.66783,15.5 L118.676204,15.5 Z M126.565248,15.5 C126.664108,15.5 126.747151,15.4723191 126.814375,15.4169574 C126.8816,15.3615957 126.927076,15.2983252 126.950803,15.2271458 L126.950803,15.2271458 L127.745639,13.1748081 L131.559665,13.1748081 L132.354501,15.2271458 C132.386136,15.306234 132.433589,15.3714817 132.49686,15.422889 C132.56013,15.4742963 132.643173,15.5 132.745987,15.5 L132.745987,15.5 L133.635729,15.5 L130.236916,7 L129.07432,7 L125.675506,15.5 L126.565248,15.5 Z M131.239358,12.3443824 L128.065946,12.3443824 L129.400558,8.89218423 C129.487555,8.6786462 129.572575,8.41172366 129.655618,8.09141661 C129.695162,8.24563852 129.736683,8.39096301 129.780181,8.52739009 C129.82368,8.66381717 129.865201,8.78343801 129.904745,8.88625262 L129.904745,8.88625262 L131.239358,12.3443824 Z M139.579204,15.5 L139.579204,14.5331472 L135.901605,14.5331472 L135.901605,7 L134.756804,7 L134.756804,15.5 L139.579204,15.5 Z" id="INTERNAL" fill="#FFFFFF"></path>
        </g>
    </g>
</svg>