<?xml version="1.0" encoding="UTF-8"?>
<svg width="177px" height="77px" viewBox="0 0 177 77" version="1.1" xmlns="http://www.w3.org/2000/svg" xmlns:xlink="http://www.w3.org/1999/xlink">
    <title>InternalDropdown</title>
    <defs>
        <filter x="-4.2%" y="-4.5%" width="108.5%" height="108.9%" filterUnits="objectBoundingBox" id="filter-1">
            <feOffset dx="0" dy="0" in="SourceAlpha" result="shadowOffsetOuter1"></feOffset>
            <feGaussianBlur stdDeviation="0.5" in="shadowOffsetOuter1" result="shadowBlurOuter1"></feGaussianBlur>
            <feColorMatrix values="0 0 0 0 0.533333333   0 0 0 0 0.596078431   0 0 0 0 0.666666667  0 0 0 0.5 0" type="matrix" in="shadowBlurOuter1" result="shadowMatrixOuter1"></feColorMatrix>
            <feMerge>
                <feMergeNode in="shadowMatrixOuter1"></feMergeNode>
                <feMergeNode in="SourceGraphic"></feMergeNode>
            </feMerge>
        </filter>
        <filter x="-3.8%" y="-5.4%" width="107.7%" height="110.9%" filterUnits="objectBoundingBox" id="filter-2">
            <feOffset dx="0" dy="0" in="SourceAlpha" result="shadowOffsetOuter1"></feOffset>
            <feGaussianBlur stdDeviation="0.5" in="shadowOffsetOuter1" result="shadowBlurOuter1"></feGaussianBlur>
            <feColorMatrix values="0 0 0 0 0.533333333   0 0 0 0 0.596078431   0 0 0 0 0.666666667  0 0 0 0.5 0" type="matrix" in="shadowBlurOuter1" result="shadowMatrixOuter1"></feColorMatrix>
            <feMerge>
                <feMergeNode in="shadowMatrixOuter1"></feMergeNode>
                <feMergeNode in="SourceGraphic"></feMergeNode>
            </feMerge>
        </filter>
    </defs>
    <g id="pages" stroke="none" stroke-width="1" fill="none" fill-rule="evenodd">
        <g id="InternalDropdown" fill-rule="nonzero">
            <g id="Group-218" transform="translate(116.000000, 18.000000)">
                <g id="price_active-copy" filter="url(#filter-1)">
                    <path d="M5.28466294,0.480423903 C2.63135498,0.480423903 0.480423903,2.63135498 0.480423903,5.28466294 L0.480423903,49.8254342 C0.480423903,52.4787422 2.63135498,54.6296732 5.28466294,54.6296732 L53.2254342,54.6296732 C55.8787422,54.6296732 58.0296732,52.4787422 58.0296732,49.8254342 L58.0296732,5.28466294 C58.0296732,2.63135498 55.8787422,0.480423903 53.2254342,0.480423903 L5.28466294,0.480423903 Z" id="Rectangle-17" fill="#FFFFFF"></path>
                    <path d="M5.28466294,0 L53.2254342,0 C56.144073,0 58.5100971,2.36602419 58.5100971,5.28466294 L58.5100971,49.8254342 C58.5100971,52.744073 56.144073,55.1100971 53.2254342,55.1100971 L5.28466294,55.1100971 C2.36602419,55.1100971 0,52.744073 0,49.8254342 L0,5.28466294 C0,2.36602419 2.36602419,0 5.28466294,0 Z M5.28466294,0.480423903 C2.63135498,0.480423903 0.480423903,2.63135498 0.480423903,5.28466294 L0.480423903,49.8254342 C0.480423903,52.4787422 2.63135498,54.6296732 5.28466294,54.6296732 L53.2254342,54.6296732 C55.8787422,54.6296732 58.0296732,52.4787422 58.0296732,49.8254342 L58.0296732,5.28466294 C58.0296732,2.63135498 55.8787422,0.480423903 53.2254342,0.480423903 L5.28466294,0.480423903 Z" id="Rectangle-17" fill="#E6E6EB"></path>
                </g>
                <g id="Group-204" transform="translate(8.000000, 3.000000)">
                    <g id="Group-130" transform="translate(0.000000, 11.000000)">
                        <path d="M1.23931624,15.1538462 C0.602064605,15.1538462 0.0854700855,14.6372516 0.0854700855,14 C0.0854700855,13.3627484 0.602064605,12.8461538 1.23931624,12.8461538 L40.6623932,12.8461538 C41.2996448,12.8461538 41.8162393,13.3627484 41.8162393,14 C41.8162393,14.6372516 41.2996448,15.1538462 40.6623932,15.1538462 L1.23931624,15.1538462 Z" id="Path-Copy" fill-opacity="0.6" fill="#A4A7B5"></path>
                        <path d="M18.7393162,-1.32938105e-12 C19.3765679,-1.32938105e-12 19.8931624,0.516594519 19.8931624,1.15384615 C19.8931624,1.79109779 19.3765679,2.30769231 18.7393162,2.30769231 L1.23931624,2.30769231 C0.602064605,2.30769231 0.0854700855,1.79109779 0.0854700855,1.15384615 C0.0854700855,0.516594519 0.602064605,-1.32938105e-12 1.23931624,-1.32938105e-12 L18.7393162,-1.32938105e-12 Z M32.5,-1.32938105e-12 C33.1372516,-1.32938105e-12 33.6538462,0.516594519 33.6538462,1.15384615 C33.6538462,1.79109779 33.1372516,2.30769231 32.5,2.30769231 L23.4615385,2.30769231 C22.8242868,2.30769231 22.3076923,1.79109779 22.3076923,1.15384615 C22.3076923,0.516594519 22.8242868,-1.32938105e-12 23.4615385,-1.32938105e-12 L32.5,-1.32938105e-12 Z" id="Combined-Shape" fill-opacity="0.6" fill="#A4A7B5"></path>
                        <path d="M10.9615385,25.6923077 C11.5987901,25.6923077 12.1153846,26.2089022 12.1153846,26.8461538 C12.1153846,27.4834055 11.5987901,28 10.9615385,28 L1.15384615,28 C0.516594519,28 -3.55271368e-14,27.4834055 -3.55271368e-14,26.8461538 C-3.55271368e-14,26.2089022 0.516594519,25.6923077 1.15384615,25.6923077 L10.9615385,25.6923077 Z M41.5769231,25.6923077 C42.2141747,25.6923077 42.7307692,26.2089022 42.7307692,26.8461538 C42.7307692,27.4834055 42.2141747,28 41.5769231,28 L15,28 C14.3627484,28 13.8461538,27.4834055 13.8461538,26.8461538 C13.8461538,26.2089022 14.3627484,25.6923077 15,25.6923077 L41.5769231,25.6923077 Z" id="Combined-Shape" fill="#C8CAD3"></path>
                    </g>
                    <path d="M21.3848015,49.9317522 L20.0682478,48.6151985 C19.9772507,48.5242014 19.9772507,48.3770571 20.0682478,48.2870281 L20.2870281,48.0682478 C20.3780252,47.9772507 20.5251694,47.9772507 20.6151985,48.0682478 L21.5484027,49.0014521 L22.481607,48.0682478 C22.5726041,47.9772507 22.7197483,47.9772507 22.8097773,48.0682478 L23.0285576,48.2870281 C23.1195547,48.3780252 23.1195547,48.5251694 23.0285576,48.6151985 L21.7120039,49.9317522 C21.6229429,50.0227493 21.4757986,50.0227493 21.3848015,49.9317522 L21.3848015,49.9317522 Z" id="Shape" fill="#A4A7B5" transform="translate(21.548403, 49.000000) rotate(-360.000000) translate(-21.548403, -49.000000) "></path>
                    <path d="M21.3848015,1.93175218 L20.0682478,0.615198451 C19.9772507,0.524201355 19.9772507,0.377057115 20.0682478,0.287028074 L20.2870281,0.0682478219 C20.3780252,-0.022749274 20.5251694,-0.022749274 20.6151985,0.0682478219 L21.5484027,1.00145208 L22.481607,0.0682478219 C22.5726041,-0.022749274 22.7197483,-0.022749274 22.8097773,0.0682478219 L23.0285576,0.287028074 C23.1195547,0.378025169 23.1195547,0.525169409 23.0285576,0.615198451 L21.7120039,1.93175218 C21.6229429,2.02274927 21.4757986,2.02274927 21.3848015,1.93175218 L21.3848015,1.93175218 Z" id="Shape-Copy-4" fill="#A4A7B5" transform="translate(21.548403, 1.000000) scale(1, -1) rotate(-360.000000) translate(-21.548403, -1.000000) "></path>
                </g>
            </g>
            <g id="Group-220" transform="translate(31.000000, 28.400000)">
                <g id="price_active-copy-2" filter="url(#filter-2)">
                    <path d="M5.28466294,0.480423903 C2.63135498,0.480423903 0.480423903,2.63135498 0.480423903,5.28466294 L0.480423903,40.0254342 C0.480423903,42.6787422 2.63135498,44.8296732 5.28466294,44.8296732 L58.8254342,44.8296732 C61.4787422,44.8296732 63.6296732,42.6787422 63.6296732,40.0254342 L63.6296732,5.28466294 C63.6296732,2.63135498 61.4787422,0.480423903 58.8254342,0.480423903 L5.28466294,0.480423903 Z" id="Rectangle-17" fill="#FFFFFF"></path>
                    <path d="M5.28466294,0 L58.8254342,0 C61.744073,0 64.1100971,2.36602419 64.1100971,5.28466294 L64.1100971,40.0254342 C64.1100971,42.944073 61.744073,45.3100971 58.8254342,45.3100971 L5.28466294,45.3100971 C2.36602419,45.3100971 0,42.944073 0,40.0254342 L0,5.28466294 C0,2.36602419 2.36602419,0 5.28466294,0 Z M5.28466294,0.480423903 C2.63135498,0.480423903 0.480423903,2.63135498 0.480423903,5.28466294 L0.480423903,40.0254342 C0.480423903,42.6787422 2.63135498,44.8296732 5.28466294,44.8296732 L58.8254342,44.8296732 C61.4787422,44.8296732 63.6296732,42.6787422 63.6296732,40.0254342 L63.6296732,5.28466294 C63.6296732,2.63135498 61.4787422,0.480423903 58.8254342,0.480423903 L5.28466294,0.480423903 Z" id="Rectangle-17" fill="#E6E6EB"></path>
                </g>
                <g id="Group-204" transform="translate(10.000000, 2.600000)" fill="#A4A7B5">
                    <g id="Group-130" transform="translate(0.000000, 11.000000)" fill-opacity="0.6">
                        <path d="M1.23931624,17.1538462 C0.602064605,17.1538462 0.0854700855,16.6372516 0.0854700855,16 C0.0854700855,15.3627484 0.602064605,14.8461538 1.23931624,14.8461538 L37.6623932,14.8461538 C38.2996448,14.8461538 38.8162393,15.3627484 38.8162393,16 C38.8162393,16.6372516 38.2996448,17.1538462 37.6623932,17.1538462 L1.23931624,17.1538462 Z" id="Path-Copy"></path>
                        <path d="M18.7393162,-7.20778992e-12 C19.3765679,-7.20778992e-12 19.8931624,0.516594519 19.8931624,1.15384615 C19.8931624,1.79109779 19.3765679,2.30769231 18.7393162,2.30769231 L1.23931624,2.30769231 C0.602064605,2.30769231 0.0854700855,1.79109779 0.0854700855,1.15384615 C0.0854700855,0.516594519 0.602064605,-7.20778992e-12 1.23931624,-7.20778992e-12 L18.7393162,-7.20778992e-12 Z M42.5,-7.20778992e-12 C43.1372516,-7.20778992e-12 43.6538462,0.516594519 43.6538462,1.15384615 C43.6538462,1.79109779 43.1372516,2.30769231 42.5,2.30769231 L23.4615385,2.30769231 C22.8242868,2.30769231 22.3076923,1.79109779 22.3076923,1.15384615 C22.3076923,0.516594519 22.8242868,-7.20778992e-12 23.4615385,-7.20778992e-12 L42.5,-7.20778992e-12 Z" id="Combined-Shape"></path>
                    </g>
                    <path d="M23.8097773,38.0682478 L24.0285576,38.2870281 C24.1195547,38.3780252 24.1195547,38.5251694 24.0285576,38.6151985 L22.7120039,39.9317522 C22.6229429,40.0227493 22.4757986,40.0227493 22.3848015,39.9317522 L21.0682478,38.6151985 C20.9772507,38.5242014 20.9772507,38.3770571 21.0682478,38.2870281 L21.2870281,38.0682478 C21.3780252,37.9772507 21.5251694,37.9772507 21.6151985,38.0682478 L22.5484027,39.0014521 L23.481607,38.0682478 C23.5726041,37.9772507 23.7197483,37.9772507 23.8097773,38.0682478 Z M22.3848015,0.0682478219 C22.4757986,-0.022749274 22.6229429,-0.022749274 22.7120039,0.0682478219 L22.7120039,0.0682478219 L24.0285576,1.38480155 C24.1195547,1.47483059 24.1195547,1.62197483 24.0285576,1.71297193 L24.0285576,1.71297193 L23.8097773,1.93175218 C23.7197483,2.02274927 23.5726041,2.02274927 23.481607,1.93175218 L23.481607,1.93175218 L22.5484027,0.998547919 L21.6151985,1.93175218 C21.5251694,2.02274927 21.3780252,2.02274927 21.2870281,1.93175218 L21.2870281,1.93175218 L21.0682478,1.71297193 C20.9772507,1.62294288 20.9772507,1.47579864 21.0682478,1.38480155 L21.0682478,1.38480155 Z" id="Combined-Shape"></path>
                </g>
            </g>
            <g id="Group-219">
                <path d="M-7.10542736e-15,11 C-7.10542736e-15,4.92486775 4.92817249,0 10.991074,0 L62.1815451,0 C68.1522361,0 73.0109701,4.76342789 73.1686683,10.7021035 L73.172619,11 C73.172619,17.0751322 68.2444466,22 62.1815451,22 L10.991074,22 C5.02038296,22 0.161648924,17.2365721 0.00395076211,11.2978965 L-7.10542736e-15,11 Z" id="Path" fill="#BAC0C6"></path>
                <path d="M10.1507327,15.5 L10.1507327,7 L9,7 L9,15.5 L10.1507327,15.5 Z M13.3300768,15.5 L13.3300768,9.44382415 C13.3300768,9.36078158 13.3280996,9.2718074 13.3241452,9.17690161 C13.3201907,9.08199581 13.3142591,8.98511282 13.3063503,8.88625262 L13.3063503,8.88625262 L18.2236567,15.2923936 C18.2829728,15.3675273 18.3432775,15.4209118 18.4045708,15.4525471 C18.4658642,15.4841824 18.5419865,15.5 18.6329379,15.5 L18.6329379,15.5 L19.2083043,15.5 L19.2083043,7 L18.1999302,7 L18.1999302,13.0205862 C18.1999302,13.1075832 18.202896,13.1995231 18.2088276,13.2964061 C18.2147592,13.3932891 18.2216795,13.4931379 18.2295883,13.5959525 L18.2295883,13.5959525 L13.3122819,7.1957432 C13.2806467,7.15619912 13.2509886,7.12357525 13.2233077,7.0978716 C13.1956269,7.07216795 13.167946,7.05239591 13.1402652,7.03855548 C13.1125843,7.02471505 13.0809491,7.01482903 13.0453594,7.00889742 C13.0097697,7.00296581 12.9662712,7 12.9148639,7 L12.9148639,7 L12.3217027,7 L12.3217027,15.5 L13.3300768,15.5 Z M24.3747383,15.5 L24.3747383,7.96685276 L27.1270063,7.96685276 L27.1270063,7 L20.4717376,7 L20.4717376,7.96685276 L23.2299372,7.96685276 L23.2299372,15.5 L24.3747383,15.5 Z M33.6221214,15.5 L33.628053,14.5628053 L29.5352408,14.5628053 L29.5352408,11.662247 L32.8450803,11.662247 L32.8450803,10.760642 L29.5352408,10.760642 L29.5352408,7.9371947 L33.6221214,7.9371947 L33.6221214,7 L28.384508,7 L28.384508,15.5 L33.6221214,15.5 Z M36.380321,15.5 L36.380321,11.952896 L37.252268,11.952896 C37.4143987,11.952896 37.5340195,11.9736567 37.6111305,12.0151779 C37.6882415,12.0566992 37.7604094,12.1249128 37.8276343,12.2198186 L37.8276343,12.2198186 L40.034194,15.2568039 C40.1330542,15.4189346 40.2872761,15.5 40.4968597,15.5 L40.4968597,15.5 L41.517097,15.5 L39.0376832,12.1249128 C38.9309142,11.9667365 38.8043731,11.846127 38.65806,11.7630844 C38.9862759,11.6879507 39.2798907,11.5772273 39.5389044,11.4309142 C39.7979181,11.2846011 40.0173878,11.1076413 40.1973133,10.9000349 C40.3772389,10.6924285 40.5146546,10.4581298 40.6095604,10.1971389 C40.7044662,9.93614794 40.7519191,9.65538497 40.7519191,9.35484997 C40.7519191,8.99499884 40.6906257,8.66974878 40.5680391,8.37909979 C40.4454524,8.0884508 40.2566294,7.8403117 40.0015701,7.63468248 C39.7465108,7.42905327 39.423238,7.27186555 39.0317516,7.16311933 C38.6402652,7.05437311 38.1756222,7 37.6378227,7 L37.6378227,7 L35.2355199,7 L35.2355199,15.5 L36.380321,15.5 Z M37.5903699,11.1165387 L36.380321,11.1165387 L36.380321,7.90753664 L37.6378227,7.90753664 C38.3021633,7.90753664 38.8004187,8.0360549 39.132589,8.29309142 C39.4647592,8.55012794 39.6308444,8.93172831 39.6308444,9.43789253 C39.6308444,9.68702024 39.5873459,9.9143987 39.5003489,10.1200279 C39.4133519,10.3256571 39.2838451,10.5026169 39.1118283,10.6509072 C38.9398116,10.7991975 38.7262736,10.9138753 38.4712142,10.9949407 C38.2161549,11.076006 37.9225401,11.1165387 37.5903699,11.1165387 L37.5903699,11.1165387 Z M43.6762038,15.5 L43.6762038,9.44382415 C43.6762038,9.36078158 43.6742266,9.2718074 43.6702722,9.17690161 C43.6663177,9.08199581 43.6603861,8.98511282 43.6524773,8.88625262 L43.6524773,8.88625262 L48.5697837,15.2923936 C48.6290998,15.3675273 48.6894045,15.4209118 48.7506978,15.4525471 C48.8119912,15.4841824 48.8881135,15.5 48.9790649,15.5 L48.9790649,15.5 L49.5544313,15.5 L49.5544313,7 L48.5460572,7 L48.5460572,13.0205862 C48.5460572,13.1075832 48.549023,13.1995231 48.5549546,13.2964061 C48.5608863,13.3932891 48.5678065,13.4931379 48.5757153,13.5959525 L48.5757153,13.5959525 L43.6584089,7.1957432 C43.6267737,7.15619912 43.5971156,7.12357525 43.5694348,7.0978716 C43.5417539,7.07216795 43.514073,7.05239591 43.4863922,7.03855548 C43.4587113,7.02471505 43.4270761,7.01482903 43.3914864,7.00889742 C43.3558967,7.00296581 43.3123982,7 43.2609909,7 L43.2609909,7 L42.6678297,7 L42.6678297,15.5 L43.6762038,15.5 Z M51.5652477,15.5 C51.6641079,15.5 51.7471505,15.4723191 51.8143754,15.4169574 C51.8816004,15.3615957 51.9270761,15.2983252 51.9508025,15.2271458 L51.9508025,15.2271458 L52.7456385,13.1748081 L56.559665,13.1748081 L57.354501,15.2271458 C57.3861363,15.306234 57.4335892,15.3714817 57.4968597,15.422889 C57.5601303,15.4742963 57.6431728,15.5 57.7459874,15.5 L57.7459874,15.5 L58.6357292,15.5 L55.2369156,7 L54.0743196,7 L50.6755059,15.5 L51.5652477,15.5 Z M56.239358,12.3443824 L53.0659456,12.3443824 L54.4005583,8.89218423 C54.4875552,8.6786462 54.572575,8.41172366 54.6556176,8.09141661 C54.6951617,8.24563852 54.7366829,8.39096301 54.7801814,8.52739009 C54.8236799,8.66381717 54.8652012,8.78343801 54.9047453,8.88625262 L54.9047453,8.88625262 L56.239358,12.3443824 Z M64.5792045,15.5 L64.5792045,14.5331472 L60.901605,14.5331472 L60.901605,7 L59.7568039,7 L59.7568039,15.5 L64.5792045,15.5 Z" id="INTERNAL" fill="#FFFFFF"></path>
            </g>
        </g>
    </g>
</svg>