<?xml version="1.0" encoding="UTF-8"?>
<svg width="151px" height="75px" viewBox="0 0 151 75" version="1.1" xmlns="http://www.w3.org/2000/svg" xmlns:xlink="http://www.w3.org/1999/xlink">
    <title>LoadingShape</title>
    <defs>
        <linearGradient x1="0%" y1="20.2528688%" x2="100%" y2="20.2528688%" id="linearGradient-1">
            <stop stop-color="#B1B3B9" offset="0%"></stop>
            <stop stop-color="#E0E0E1" offset="40.5697901%"></stop>
            <stop stop-color="#F0F0F0" offset="53.7736489%"></stop>
            <stop stop-color="#D9D9DB" offset="68.7545914%"></stop>
            <stop stop-color="#B4B6BD" offset="100%"></stop>
        </linearGradient>
        <linearGradient x1="0%" y1="20.2528688%" x2="100%" y2="20.2528688%" id="linearGradient-2">
            <stop stop-color="#BDC0C7" offset="0%"></stop>
            <stop stop-color="#D2D2D4" offset="23.1796152%"></stop>
            <stop stop-color="#F0F0F0" offset="53.7736489%"></stop>
            <stop stop-color="#E1E1E1" offset="72.8694349%"></stop>
            <stop stop-color="#C3C4CA" offset="100%"></stop>
        </linearGradient>
        <linearGradient x1="0%" y1="20.2528688%" x2="100%" y2="20.2528688%" id="linearGradient-3">
            <stop stop-color="#999BA1" offset="0%"></stop>
            <stop stop-color="#D2D2D4" offset="23.1796152%"></stop>
            <stop stop-color="#F0F0F0" offset="53.7736489%"></stop>
            <stop stop-color="#E1E1E1" offset="72.8694349%"></stop>
            <stop stop-color="#999BA1" offset="100%"></stop>
        </linearGradient>
    </defs>
    <g id="pages" stroke="none" stroke-width="1" fill="none" fill-rule="evenodd">
        <g id="LoadingShape">
            <path d="M63.3478261,4 C65.0046803,4 66.3478261,5.34314575 66.3478261,7 C66.3478261,8.65685425 65.0046803,10 63.3478261,10 L3,10 C1.34314575,10 -2.84217094e-14,8.65685425 -2.84217094e-14,7 C-2.84217094e-14,5.34314575 1.34314575,4 3,4 L63.3478261,4 Z" id="Path" fill-opacity="0.6" fill="url(#linearGradient-1)" fill-rule="nonzero"></path>
            <polygon id="Path-Copy-30" fill="url(#linearGradient-2)" fill-rule="nonzero" opacity="0.6" points="101 48 101 66 56 66 56 48"></polygon>
            <g id="Group-5" transform="translate(101.000000, 0.000000)" fill-rule="nonzero">
                <path d="M0,11 C0,4.92486775 4.92817249,0 10.991074,0 L38.1815451,0 C44.1522361,0 49.0109701,4.76342789 49.1686683,10.7021035 L49.172619,11 C49.172619,17.0751322 44.2444466,22 38.1815451,22 L10.991074,22 C5.02038296,22 0.161648924,17.2365721 0.00395076211,11.2978965 L0,11 Z" id="Path" fill="#FFB900"></path>
                <path d="M8.9375,15.8125 L12.1325784,15.8125 C12.6349885,15.8125 13.0823824,15.7502178 13.4747605,15.6256533 C13.8671385,15.5010889 14.1982725,15.3266986 14.468162,15.1024826 C14.7380519,14.8782666 14.9435833,14.6094149 15.0847561,14.2959277 C15.2259289,13.9824404 15.2965157,13.6346981 15.2965157,13.2527003 C15.2965157,12.7046167 15.1314678,12.2592988 14.801372,11.9167465 C14.4712761,11.5741943 13.9844366,11.3385599 13.3408537,11.2098432 C13.6190477,11.1226481 13.8619484,11.0095019 14.0695557,10.8704051 C14.2771634,10.7313082 14.4494774,10.5756026 14.5864983,10.4032883 C14.7235192,10.230974 14.8262848,10.0441273 14.8947953,9.84274826 C14.9633057,9.64138096 14.997561,9.43273549 14.997561,9.21681185 C14.997561,8.85557491 14.9363165,8.52963099 14.8138284,8.23898084 C14.6913403,7.94833068 14.5013795,7.70231587 14.243946,7.50093641 C13.9865129,7.29955695 13.658493,7.14488992 13.2598868,7.0369338 C12.8612805,6.92897768 12.3837833,6.875 11.8273955,6.875 L8.9375,6.875 L8.9375,15.8125 Z M10.2205139,11.7641551 L12.1138937,11.7641551 C12.7574766,11.7641551 13.2370498,11.8949477 13.5526132,12.1565331 C13.8681767,12.4181185 14.0259582,12.7731272 14.0259582,13.2215592 C14.0259582,13.4499273 13.989627,13.659611 13.9169643,13.8506098 C13.8443244,14.0416085 13.7311782,14.2066564 13.5775261,14.3457535 C13.4239071,14.4848504 13.22668,14.5938443 12.9858449,14.6727352 C12.7450202,14.751626 12.4543697,14.7910714 12.1138937,14.7910714 L10.2205139,14.7910714 L10.2205139,11.7641551 Z M10.2205139,10.8548345 L10.2205139,7.88397213 L11.8273955,7.88397213 C12.4709784,7.88397213 12.9474374,8.00334615 13.2567726,8.24209495 C13.5661079,8.48084375 13.7207753,8.85765124 13.7207753,9.37251742 C13.7207753,9.59673345 13.68133,9.80018886 13.602439,9.98288328 C13.5235697,10.1655777 13.4041953,10.3212833 13.2443162,10.45 C13.0844584,10.5787167 12.8820411,10.6783683 12.6370645,10.7489547 C12.3920878,10.8195411 12.1035132,10.8548345 11.7713415,10.8548345 L10.2205139,10.8548345 Z M23.2935526,6.875 L17.7628906,6.875 L17.7628906,15.8125 L23.2935526,15.8125 L23.2997808,14.7661585 L19.0521327,14.7661585 L19.0521327,11.8077526 L22.4714272,11.8077526 L22.4714272,10.7987805 L19.0521327,10.7987805 L19.0521327,7.92134146 L23.2935526,7.92134146 L23.2935526,6.875 Z M31.776391,6.875 L24.7696402,6.875 L24.7696402,7.95248258 L27.6346227,7.95248258 L27.6346227,15.8125 L28.9176367,15.8125 L28.9176367,7.95248258 L31.776391,7.95248258 L31.776391,6.875 Z M40.2841425,15.8125 L36.7153707,6.875 L35.4136721,6.875 L31.8511286,15.8125 L32.8476442,15.8125 C32.9555979,15.8125 33.0479832,15.7813589 33.1248002,15.7190767 C33.2016149,15.6567944 33.2524787,15.5862079 33.2773916,15.5073171 L34.0808324,13.4084059 L38.0482104,13.4084059 L38.8516512,15.5073171 C38.8890205,15.5986643 38.9429982,15.672365 39.013585,15.728419 C39.0841718,15.784473 39.1755188,15.8125 39.2876268,15.8125 L40.2841425,15.8125 Z M37.6932017,12.4866289 L34.4358411,12.4866289 L35.7873655,8.97391115 C35.8329778,8.86180314 35.8786513,8.73101045 35.9243864,8.5815331 L36.0614073,8.09573171 L36.0614073,8.09573171 C36.1070808,8.27012195 36.1537925,8.43101797 36.2015423,8.57841899 L36.2489461,8.71993794 L36.2489461,8.71993794 L37.6932017,12.4866289 Z" id="BETA" fill="#FFFFFF"></path>
            </g>
            <g id="Group-226" transform="translate(11.000000, 20.000000)">
                <circle id="Oval" fill-opacity="0.7" fill="url(#linearGradient-3)" cx="14" cy="14" r="14"></circle>
                <path d="M14.2916419,15.8666667 C17.6088659,15.8666667 20.6330041,17.1414833 22.75,18.3390083 C20.8172805,21.3642333 17.7503231,23.3333333 14.2916419,23.3333333 C10.8330102,23.3333333 7.76605284,21.3642917 5.83333333,18.339125 C7.95077583,17.1413083 10.9746659,15.8666667 14.2916419,15.8666667 Z M14.2916833,5.83333333 C16.5431232,5.83333333 18.3750333,7.66521014 18.3750333,9.91668331 C18.3750333,12.1681565 16.5431232,14 14.2916833,14 C12.0402434,14 10.2083333,12.1681232 10.2083333,9.91665002 C10.2083333,7.66517685 12.0402434,5.83333333 14.2916833,5.83333333 Z" id="Combined-Shape-Copy-2" fill="#FFFFFF" fill-rule="nonzero"></path>
            </g>
            <g id="Group-225" transform="translate(119.000000, 43.000000)">
                <rect id="Rectangle" fill-opacity="0.7" fill="url(#linearGradient-3)" x="0" y="0" width="32" height="32"></rect>
                <path d="M12.0444335,14.3418998 L18.0960741,22.2504256 C18.684625,23.0196146 19.7133265,23.0850569 20.3941845,22.3959246 L21.8746421,20.8967692 C22.5549627,20.207637 23.5573369,20.2929591 24.1125757,21.0861113 L27.9461625,26.562096 C28.5003267,27.3564302 28.1660229,28 27.1974982,28 L5.13366108,28 C4.16513639,28 3.73379742,27.2992622 4.17040186,26.4347575 L10.1887303,14.5143709 C10.6247974,13.6499736 11.4558825,13.5728183 12.0444335,14.3418998 Z M20.6222117,6.66666667 C22.5586163,6.66666667 24.1290169,8.23717464 24.1290169,10.1734718 C24.1290169,12.109769 22.5585089,13.680277 20.6222117,13.680277 C18.6852698,13.680277 17.1154065,12.109769 17.1154065,10.1734718 C17.1154065,8.23717464 18.6852698,6.66666667 20.6222117,6.66666667 Z" id="Combined-Shape" fill="#FFFFFF" fill-rule="nonzero"></path>
            </g>
        </g>
    </g>
</svg>