<?xml version="1.0" encoding="UTF-8"?>
<svg width="148px" height="90px" viewBox="0 0 148 90" version="1.1" xmlns="http://www.w3.org/2000/svg" xmlns:xlink="http://www.w3.org/1999/xlink">
    <!-- Generator: Sketch 53.2 (72643) - https://sketchapp.com -->
    <title>Lookups</title>
    <desc>Created with Sketch.</desc>
    <defs>
        <path d="M7.77777778,0.555555556 C3.78905458,0.555555556 0.555555556,3.78905458 0.555555556,7.77777778 L0.555555556,58.2222222 C0.555555556,62.2109454 3.78905458,65.4444444 7.77777778,65.4444444 L92.2222222,65.4444444 C96.2109454,65.4444444 99.4444444,62.2109454 99.4444444,58.2222222 L99.4444444,7.77777778 C99.4444444,3.78905458 96.2109454,0.555555556 92.2222222,0.555555556 L7.77777778,0.555555556 Z" id="path-1"></path>
        <filter x="-1.5%" y="-2.3%" width="103.0%" height="104.6%" filterUnits="objectBoundingBox" id="filter-2">
            <feOffset dx="0" dy="0" in="SourceAlpha" result="shadowOffsetOuter1"></feOffset>
            <feGaussianBlur stdDeviation="0.5" in="shadowOffsetOuter1" result="shadowBlurOuter1"></feGaussianBlur>
            <feColorMatrix values="0 0 0 0 0.643254082   0 0 0 0 0.656386854   0 0 0 0 0.708917942  0 0 0 1 0" type="matrix" in="shadowBlurOuter1"></feColorMatrix>
        </filter>
    </defs>
    <g id="pages" stroke="none" stroke-width="1" fill="none" fill-rule="evenodd">
        <g id="componentes-V2" transform="translate(-833.000000, -1289.000000)">
            <g id="Lookups" transform="translate(833.000000, 1289.000000)">
                <g id="Group-87" transform="translate(47.000000, 23.000000)">
                    <g id="Group-65" transform="translate(6.000000, 6.000000)" fill-rule="nonzero">
                        <path d="M85.188684,5.51810261 L83.4881525,3.93823814 C83.3706158,3.82904163 83.3706158,3.65246854 83.4881525,3.54443369 L83.7707409,3.28189739 C83.8882776,3.17270087 84.078337,3.17270087 84.1946233,3.28189739 L85.4,4.4017425 L86.6053767,3.28189739 C86.7229134,3.17270087 86.9129728,3.17270087 87.0292591,3.28189739 L87.3118475,3.54443369 C87.4293842,3.6536302 87.4293842,3.83020329 87.3118475,3.93823814 L85.611316,5.51810261 C85.4962801,5.62729913 85.3062207,5.62729913 85.188684,5.51810261 L85.188684,5.51810261 Z" id="Shape" fill="#A4A7B5" transform="translate(85.400000, 4.400000) rotate(-360.000000) translate(-85.400000, -4.400000) "></path>
                        <path d="M13.8,5.8 C12.6954305,5.8 12,5.12842712 12,4.3 C12,3.47157288 12.6954305,2.8 13.8,2.8 L54.075,2.8 C55.1795695,2.8 55.875,3.47157288 55.875,4.3 C55.875,5.12842712 55.1795695,5.8 54.075,5.8 L13.8,5.8 Z" id="Line-11" fill="#A4A7B5"></path>
                        <g id="like" transform="translate(0.600000, 0.800000)" fill="#F7076A">
                            <path d="M3.60881057,6.38821498 C3.55910485,6.38821498 3.50939912,6.370763 3.46953304,6.33587313 L3.46029956,6.3277815 C3.15280352,6.05874185 2.86397181,5.81262379 2.5846696,5.57459736 C1.83512247,4.93588018 1.18783436,4.38429604 0.737903084,3.84917709 C0.234474009,3.25043877 0,2.69186256 0,2.09129163 C0,1.53956652 0.187023789,1.02350661 0.526590308,0.638181498 C0.882593833,0.234234361 1.3764511,0.011785022 1.91718062,0.011785022 C2.67768106,0.011785022 3.15916123,0.465987665 3.42914537,0.847027313 C3.49920705,0.945903084 3.55878062,1.0450467 3.60881057,1.13834009 C3.65884053,1.0450467 3.71842819,0.945903084 3.78847577,0.847027313 C4.05845991,0.466001762 4.53994009,0.011785022 5.30044053,0.011785022 C5.84117004,0.011785022 6.33502731,0.234248458 6.69101674,0.638181498 C7.03059736,1.02350661 7.21762115,1.53956652 7.21762115,2.09129163 C7.21762115,2.69186256 6.98314714,3.25045286 6.47971806,3.84917709 C6.02978678,4.38429604 5.38249868,4.93588018 4.63299383,5.57456916 C4.35364934,5.81262379 4.06481762,6.05874185 3.75732159,6.3277815 L3.74808811,6.33587313 C3.70822203,6.37077709 3.6585163,6.38821498 3.60881057,6.38821498 Z M1.91718062,0.434692511 C1.49961586,0.434692511 1.11844934,0.606266079 0.843869604,0.91780793 C0.572405286,1.22582555 0.422907489,1.64258678 0.422907489,2.09129163 C0.422907489,3.17685286 1.392,4.00266432 2.85891101,5.25268018 C3.09972863,5.45788899 3.34753833,5.66906079 3.60881057,5.89617621 C3.87009692,5.6690467 4.11789251,5.45788899 4.35866784,5.25270837 C5.82562115,4.00266432 6.79471366,3.17685286 6.79471366,2.09129163 C6.79471366,1.64258678 6.64521586,1.22582555 6.37373744,0.917793833 C6.09917181,0.606266079 5.71800529,0.434692511 5.30044053,0.434692511 C4.72064846,0.434692511 4.34585374,0.791880176 4.13355419,1.09152423 C3.94311894,1.36028194 3.84374978,1.63118238 3.80986079,1.73518943 C3.78151189,1.82223789 3.70035595,1.8811489 3.60881057,1.8811489 C3.5172652,1.8811489 3.43610925,1.82223789 3.40776035,1.73518943 C3.37387137,1.63119648 3.2745022,1.36028194 3.08406696,1.09153833 C2.8717674,0.791880176 2.49697269,0.434692511 1.91718062,0.434692511 Z" id="Shape"></path>
                        </g>
                    </g>
                    <g id="Path" fill-rule="nonzero">
                        <use fill="black" fill-opacity="1" filter="url(#filter-2)" xlink:href="#path-1"></use>
                        <use fill="#FFFFFF" xlink:href="#path-1"></use>
                    </g>
                    <path d="M7.77777778,0.555555556 C3.78905458,0.555555556 0.555555556,3.78905458 0.555555556,7.77777778 L0.555555556,58.2222222 C0.555555556,62.2109454 3.78905458,65.4444444 7.77777778,65.4444444 L92.2222222,65.4444444 C96.2109454,65.4444444 99.4444444,62.2109454 99.4444444,58.2222222 L99.4444444,7.77777778 C99.4444444,3.78905458 96.2109454,0.555555556 92.2222222,0.555555556 L7.77777778,0.555555556 Z M7.77777778,-4.54747351e-13 L92.2222222,-4.54747351e-13 C96.5177703,-4.55302462e-13 100,3.48222972 100,7.77777778 L100,58.2222222 C100,62.5177703 96.5177703,66 92.2222222,66 L7.77777778,66 C3.48222972,66 5.26052918e-16,62.5177703 0,58.2222222 L0,7.77777778 C-5.26052918e-16,3.48222972 3.48222972,-4.53775906e-13 7.77777778,-4.54747351e-13 Z" id="Rectangle" fill="#E3E5ED" fill-rule="nonzero"></path>
                    <path d="M12.6111111,44 C11.782684,44 11.1111111,43.3284271 11.1111111,42.5 C11.1111111,41.6715729 11.782684,41 12.6111111,41 L48.3611111,41 C49.1895382,41 49.8611111,41.6715729 49.8611111,42.5 C49.8611111,43.3284271 49.1895382,44 48.3611111,44 L12.6111111,44 Z" id="Path-Copy" fill-opacity="0.6" fill="#A4A7B5" fill-rule="nonzero"></path>
                    <path d="M12.6111111,31 C11.782684,31 11.1111111,30.3284271 11.1111111,29.5 C11.1111111,28.6715729 11.782684,28 12.6111111,28 L35.3611111,28 C36.1895382,28 36.8611111,28.6715729 36.8611111,29.5 C36.8611111,30.3284271 36.1895382,31 35.3611111,31 L12.6111111,31 Z" id="Path-Copy-3" fill-opacity="0.6" fill="#A4A7B5" fill-rule="nonzero"></path>
                    <path d="M40.5,31 C39.6715729,31 39,30.3284271 39,29.5 C39,28.6715729 39.6715729,28 40.5,28 L53.25,28 C54.0784271,28 54.75,28.6715729 54.75,29.5 C54.75,30.3284271 54.0784271,31 53.25,31 L40.5,31 Z" id="Path-Copy-4" fill="#A4A7B5" fill-rule="nonzero"></path>
                    <path d="M53.5,44 C52.6715729,44 52,43.3284271 52,42.5 C52,41.6715729 52.6715729,41 53.5,41 L66.25,41 C67.0784271,41 67.75,41.6715729 67.75,42.5 C67.75,43.3284271 67.0784271,44 66.25,44 L53.5,44 Z" id="Path-Copy-5" fill="#A4A7B5" fill-rule="nonzero"></path>
                    <path d="M12.5,57 C11.6715729,57 11,56.3284271 11,55.5 C11,54.6715729 11.6715729,54 12.5,54 L25.25,54 C26.0784271,54 26.75,54.6715729 26.75,55.5 C26.75,56.3284271 26.0784271,57 25.25,57 L12.5,57 Z" id="Path-Copy-12" fill="#A4A7B5" fill-rule="nonzero"></path>
                    <path d="M30.5,57 C29.6715729,57 29,56.3284271 29,55.5 C29,54.6715729 29.6715729,54 30.5,54 L56.75,54 C57.5784271,54 58.25,54.6715729 58.25,55.5 C58.25,56.3284271 57.5784271,57 56.75,57 L30.5,57 Z" id="Path" fill-opacity="0.6" fill="#A4A7B5" fill-rule="nonzero"></path>
                    <polygon id="Line-7" fill="#D4D6DB" fill-rule="nonzero" points="5 17.75 5 17.25 94 17.25 94 17.75"></polygon>
                    <polygon id="|" fill="#01B6F5" fill-rule="nonzero" points="22 6 22.516129 6 22.516129 12.6148782 22 12.6148782"></polygon>
                    <path d="M8.5,11 C7.67157288,11 7,10.3284271 7,9.5 C7,8.67157288 7.67157288,8 8.5,8 L19.75,8 C20.5784271,8 21.25,8.67157288 21.25,9.5 C21.25,10.3284271 20.5784271,11 19.75,11 L8.5,11 Z" id="Path" fill="#A4A7B5" fill-rule="nonzero"></path>
                    <g id="Group-29" transform="translate(88.000000, 7.000000)">
                        <rect id="bkgd" x="0" y="0" width="6" height="6" rx="3"></rect>
                        <path d="M3.26539015,3.00003127 L4.44515208,1.82026934 C4.51844942,1.74703454 4.51844942,1.6282078 4.44515208,1.554973 C4.37185474,1.48167567 4.25315308,1.48167567 4.17985574,1.554973 L3.00009381,2.73473493 L1.82026934,1.554973 C1.746972,1.48167567 1.62827034,1.48167567 1.554973,1.554973 C1.48167567,1.6282078 1.48167567,1.74703454 1.554973,1.82026934 L2.73479747,3.00003127 L1.554973,4.1797932 C1.48167567,4.253028 1.48167567,4.37185474 1.554973,4.44508954 C1.59162167,4.48167567 1.63965269,4.5 1.68762117,4.5 C1.73558965,4.5 1.78362067,4.48167567 1.82026934,4.445027 L3.00009381,3.26526507 L4.17985574,4.445027 C4.21650441,4.48167567 4.26453543,4.5 4.31250391,4.5 C4.36047239,4.5 4.40850341,4.48167567 4.44515208,4.445027 C4.51844942,4.3717922 4.51844942,4.25296546 4.44515208,4.17973066 L3.26539015,3.00003127 Z" id="Shape" fill="#01B6F5" fill-rule="nonzero"></path>
                    </g>
                </g>
                <g id="Group-86">
                    <g id="Group-71" transform="translate(0.000000, 3.612903)" fill-rule="nonzero">
                        <path d="M6.19354839,0.412903226 C3.00098622,0.412903226 0.412903226,3.00098622 0.412903226,6.19354839 C0.412903226,9.38611055 3.00098622,11.9741935 6.19354839,11.9741935 L71.4193548,11.9741935 C74.611917,11.9741935 77.2,9.38611055 77.2,6.19354839 C77.2,3.00098622 74.611917,0.412903226 71.4193548,0.412903226 L6.19354839,0.412903226 Z M6.19354839,0 L71.4193548,0 C74.8399572,-4.58414668e-16 77.6129032,2.77294607 77.6129032,6.19354839 C77.6129032,9.61415071 74.8399572,12.3870968 71.4193548,12.3870968 L6.19354839,12.3870968 C2.77294607,12.3870968 2.55953636e-13,9.61415071 2.55549726e-13,6.19354839 C2.55011178e-13,2.77294607 2.77294607,4.58414668e-16 6.19354839,0 Z" id="Rectangle" fill="#A4A7B5"></path>
                        <path d="M6.19354839,0.412903226 C3.00098622,0.412903226 0.412903226,3.00098622 0.412903226,6.19354839 C0.412903226,9.38611055 3.00098622,11.9741935 6.19354839,11.9741935 L71.4193548,11.9741935 C74.611917,11.9741935 77.2,9.38611055 77.2,6.19354839 C77.2,3.00098622 74.611917,0.412903226 71.4193548,0.412903226 L6.19354839,0.412903226 Z" id="Path" fill="#FFFFFF"></path>
                    </g>
                    <g id="icon-search" transform="translate(67.806452, 6.193548)">
                        <g id="icon">
                            <rect id="Rectangle" fill-rule="nonzero" x="0" y="0" width="7" height="7"></rect>
                        </g>
                        <g id="search" transform="translate(3.500000, 3.500000) scale(-1, 1) translate(-3.500000, -3.500000) translate(0.875000, 0.875000)">
                            <path d="M2.55162048,2.93049431 L2.31950569,2.69837952 C2.28746223,2.66633606 2.23547173,2.66633606 2.20342827,2.69837952 L1.66998481,3.23182297 C1.63794136,3.26386643 1.63794136,3.31581688 1.66998481,3.34790039 L1.90209961,3.58001519 C1.91816139,3.59603691 1.93914985,3.60404778 1.96013832,3.60404778 C1.98116684,3.60404778 2.0021553,3.59603691 2.01817703,3.58001519 L2.55166054,3.04657173 C2.58370399,3.01452827 2.58370399,2.96253777 2.55162048,2.93049431 L2.55162048,2.93049431 Z" id="Path" fill="#E3E5ED"></path>
                            <path d="M3.52650261,0 C2.57617378,0 1.80304528,0.773128515 1.80304528,1.72349739 C1.80304528,2.67382622 2.57617378,3.44695472 3.52650261,3.44695472 C4.47687149,3.44695472 5.25,2.67382622 5.25,1.72349739 C5.25,0.773128515 4.47687149,2.91433544e-16 3.52650261,0 Z" id="Path" fill="#A4A7B5"></path>
                            <path d="M3.52650261,0.307777405 C2.74588394,0.307777405 2.11078262,0.942838671 2.11078262,1.72349739 C2.11078262,2.50411606 2.74588394,3.13921738 3.52650261,3.13921738 C4.30716133,3.13921738 4.9422226,2.50411606 4.9422226,1.72349739 C4.9422226,0.942838671 4.30716133,0.307777405 3.52650261,0.307777405 L3.52650261,0.307777405 Z" id="Path" fill="#E3E5ED"></path>
                            <path d="M2.1893692,3.46686172 L1.78313828,3.0606308 C1.75109482,3.02858734 1.69910431,3.02858734 1.66706085,3.0606308 L0.107746119,4.61998558 C-0.00120163477,4.72889329 -0.0312023188,4.89932441 0.0346870371,5.03875351 C0.0528316523,5.0771656 0.0777053833,5.11225319 0.107746119,5.14225388 C0.21244812,5.24699592 0.37739182,5.27907944 0.513696668,5.22108079 C0.5570755,5.20261574 0.596689222,5.17557908 0.630014417,5.14225388 L2.1893692,3.58293915 C2.22141266,3.55089569 2.22141266,3.49890518 2.1893692,3.46686172 L2.1893692,3.46686172 Z" id="Path" fill="#01B6F5"></path>
                            <path d="M2.1893692,3.46686172 L1.98417091,3.26170349 C2.01625442,3.29374695 2.01625442,3.3456974 1.98417091,3.37774086 L0.424856188,4.93709564 C0.391530993,4.97042084 0.351917262,4.99741746 0.308538439,5.01588249 C0.218135839,5.05437469 0.11523628,5.05301284 0.0255947139,5.01732445 C0.0283985112,5.02453423 0.0313224844,5.03170395 0.0346870371,5.03875351 C0.0528316523,5.0771656 0.0777053833,5.11225319 0.107746119,5.14225388 C0.21244812,5.24699592 0.37739182,5.27907944 0.513696668,5.22108079 C0.5570755,5.20261574 0.596689222,5.17557908 0.630014417,5.14225388 L2.1893692,3.58293915 C2.22141266,3.55089569 2.22141266,3.49890518 2.1893692,3.46686172 L2.1893692,3.46686172 Z" id="Path" fill="#009ACF"></path>
                        </g>
                    </g>
                    <path d="M30.7741935,1.5483871 C30.3466183,1.5483871 30,1.20176884 30,0.774193548 C30,0.346618258 30.3466183,2.05169215e-13 30.7741935,2.05169215e-13 L47.4193548,2.05169215e-13 C47.8469301,2.05169215e-13 48.1935484,0.346618258 48.1935484,0.774193548 C48.1935484,1.20176884 47.8469301,1.5483871 47.4193548,1.5483871 L30.7741935,1.5483871 Z" id="Line-12" fill="#A4A7B5" fill-rule="nonzero"></path>
                </g>
            </g>
        </g>
    </g>
</svg>