<?xml version="1.0" encoding="UTF-8"?>
<svg width="122px" height="77px" viewBox="0 0 122 77" version="1.1" xmlns="http://www.w3.org/2000/svg" xmlns:xlink="http://www.w3.org/1999/xlink">
    <!-- Generator: Sketch 55 (78076) - https://sketchapp.com -->
    <title>Lookup</title>
    <desc>Created with Sketch.</desc>
    <defs>
        <path d="M7.77777778,0.555555556 C3.78905458,0.555555556 0.555555556,3.78905458 0.555555556,7.77777778 L0.555555556,41.2222222 C0.555555556,45.2109454 3.78905458,48.4444444 7.77777778,48.4444444 L112.222222,48.4444444 C116.210945,48.4444444 119.444444,45.2109454 119.444444,41.2222222 L119.444444,7.77777778 C119.444444,3.78905458 116.210945,0.555555556 112.222222,0.555555556 L7.77777778,0.555555556 Z" id="path-1"></path>
        <filter x="-1.3%" y="-3.1%" width="102.5%" height="106.3%" filterUnits="objectBoundingBox" id="filter-2">
            <feOffset dx="0" dy="0" in="SourceAlpha" result="shadowOffsetOuter1"></feOffset>
            <feGaussianBlur stdDeviation="0.5" in="shadowOffsetOuter1" result="shadowBlurOuter1"></feGaussianBlur>
            <feColorMatrix values="0 0 0 0 0.643254082   0 0 0 0 0.656386854   0 0 0 0 0.708917942  0 0 0 1 0" type="matrix" in="shadowBlurOuter1"></feColorMatrix>
        </filter>
    </defs>
    <g id="pages" stroke="none" stroke-width="1" fill="none" fill-rule="evenodd">
        <g id="Lookup" transform="translate(1.000000, 0.000000)">
            <g id="Group-124" transform="translate(0.000000, 27.000000)" fill-rule="nonzero">
                <g id="Path">
                    <use fill="black" fill-opacity="1" filter="url(#filter-2)" xlink:href="#path-1"></use>
                    <use fill="#FFFFFF" xlink:href="#path-1"></use>
                </g>
                <path d="M7.77777778,0.555555556 C3.78905458,0.555555556 0.555555556,3.78905458 0.555555556,7.77777778 L0.555555556,41.2222222 C0.555555556,45.2109454 3.78905458,48.4444444 7.77777778,48.4444444 L112.222222,48.4444444 C116.210945,48.4444444 119.444444,45.2109454 119.444444,41.2222222 L119.444444,7.77777778 C119.444444,3.78905458 116.210945,0.555555556 112.222222,0.555555556 L7.77777778,0.555555556 Z M7.77777778,-1.59702113e-13 L112.222222,-1.59872116e-13 C116.51777,-1.60382124e-13 120,3.48222972 120,7.77777778 L120,41.2222222 C120,45.5177703 116.51777,49 112.222222,49 L7.77777778,49 C3.48222972,49 5.26052918e-16,45.5177703 0,41.2222222 L0,7.77777778 C-5.26052918e-16,3.48222972 3.48222972,-1.58852098e-13 7.77777778,-1.59702113e-13 Z" id="Rectangle" fill="#E3E5ED"></path>
                <path d="M12.6111111,27 C11.782684,27 11.1111111,26.3284271 11.1111111,25.5 C11.1111111,24.6715729 11.782684,24 12.6111111,24 L48.3611111,24 C49.1895382,24 49.8611111,24.6715729 49.8611111,25.5 C49.8611111,26.3284271 49.1895382,27 48.3611111,27 L12.6111111,27 Z" id="Path-Copy" fill-opacity="0.6" fill="#A4A7B5"></path>
                <path d="M12.6111111,14 C11.782684,14 11.1111111,13.3284271 11.1111111,12.5 C11.1111111,11.6715729 11.782684,11 12.6111111,11 L35.3611111,11 C36.1895382,11 36.8611111,11.6715729 36.8611111,12.5 C36.8611111,13.3284271 36.1895382,14 35.3611111,14 L12.6111111,14 Z" id="Path-Copy-3" fill-opacity="0.6" fill="#A4A7B5"></path>
                <path d="M40.5,14 C39.6715729,14 39,13.3284271 39,12.5 C39,11.6715729 39.6715729,11 40.5,11 L53.25,11 C54.0784271,11 54.75,11.6715729 54.75,12.5 C54.75,13.3284271 54.0784271,14 53.25,14 L40.5,14 Z" id="Path-Copy-4" fill="#A4A7B5"></path>
                <path d="M53.5,27 C52.6715729,27 52,26.3284271 52,25.5 C52,24.6715729 52.6715729,24 53.5,24 L66.25,24 C67.0784271,24 67.75,24.6715729 67.75,25.5 C67.75,26.3284271 67.0784271,27 66.25,27 L53.5,27 Z" id="Path-Copy-5" fill="#A4A7B5"></path>
                <path d="M12.5,40 C11.6715729,40 11,39.3284271 11,38.5 C11,37.6715729 11.6715729,37 12.5,37 L25.25,37 C26.0784271,37 26.75,37.6715729 26.75,38.5 C26.75,39.3284271 26.0784271,40 25.25,40 L12.5,40 Z" id="Path-Copy-12" fill="#A4A7B5"></path>
                <path d="M30.5,40 C29.6715729,40 29,39.3284271 29,38.5 C29,37.6715729 29.6715729,37 30.5,37 L56.75,37 C57.5784271,37 58.25,37.6715729 58.25,38.5 C58.25,39.3284271 57.5784271,40 56.75,40 L30.5,40 Z" id="Path" fill-opacity="0.6" fill="#A4A7B5"></path>
            </g>
            <g id="Group-72" fill="#A4A7B5" fill-rule="nonzero">
                <path d="M10.0645161,6.87096774 C5.05832211,6.87096774 1,10.9292898 1,15.9354839 C1,20.9416779 5.05832211,25 10.0645161,25 L109.806452,25 C114.812646,25 118.870968,20.9416779 118.870968,15.9354839 C118.870968,10.9292898 114.812646,6.87096774 109.806452,6.87096774 L10.0645161,6.87096774 Z M10.0645161,5.87096774 L109.806452,5.87096774 C115.36493,5.87096774 119.870968,10.3770051 119.870968,15.9354839 C119.870968,21.4939626 115.36493,26 109.806452,26 L10.0645161,26 C4.50603736,26 4.55428068e-13,21.4939626 4.54747351e-13,15.9354839 C4.54066634e-13,10.3770051 4.50603736,5.87096774 10.0645161,5.87096774 Z" id="Rectangle"></path>
                <path d="M11.6774194,17.3548387 C10.7510062,17.3548387 10,16.6038325 10,15.6774194 C10,14.7510062 10.7510062,14 11.6774194,14 L21.0322581,14 C21.9586712,14 22.7096774,14.7510062 22.7096774,15.6774194 C22.7096774,16.6038325 21.9586712,17.3548387 21.0322581,17.3548387 L11.6774194,17.3548387 Z" id="Line-12"></path>
                <path d="M50.6774194,2.51612903 C49.9826095,2.51612903 49.4193548,1.95287436 49.4193548,1.25806452 C49.4193548,0.56325467 49.9826095,0 50.6774194,0 L77.7258065,0 C78.4206163,0 78.983871,0.56325467 78.983871,1.25806452 C78.983871,1.95287436 78.4206163,2.51612903 77.7258065,2.51612903 L50.6774194,2.51612903 Z" id="Line-12"></path>
            </g>
            <polygon id="|" fill="#01B6F5" fill-rule="nonzero" points="25 12 25.516129 12 25.516129 18.6148782 25 18.6148782"></polygon>
            <g id="icon-search" transform="translate(104.000000, 11.000000)">
                <g id="icon">
                    <rect id="Rectangle" fill-rule="nonzero" x="0" y="0" width="10" height="10"></rect>
                </g>
                <g id="search" transform="translate(5.000000, 5.000000) scale(-1, 1) translate(-5.000000, -5.000000) translate(1.250000, 1.250000)">
                    <path d="M3.64517212,4.18642044 L3.31357956,3.85482788 C3.26780319,3.80905151 3.19353104,3.80905151 3.14775467,3.85482788 L2.38569259,4.61688996 C2.33991623,4.66266633 2.33991623,4.73688126 2.38569259,4.78271484 L2.71728516,5.11430741 C2.74023056,5.13719559 2.77021408,5.14863968 2.8001976,5.14863968 C2.83023835,5.14863968 2.86022186,5.13719559 2.88311004,5.11430741 L3.64522934,4.35224533 C3.6910057,4.30646896 3.6910057,4.23219681 3.64517212,4.18642044 L3.64517212,4.18642044 Z" id="Path" fill="#E3E5ED"></path>
                    <path d="M5.03786087,0 C3.68024826,0 2.57577896,1.10446931 2.57577896,2.46213913 C2.57577896,3.81975174 3.68024826,4.92422104 5.03786087,4.92422104 C6.39553069,4.92422104 7.5,3.81975174 7.5,2.46213913 C7.5,1.10446931 6.39553069,4.16333634e-16 5.03786087,0 Z" id="Path" fill="#A4A7B5"></path>
                    <path d="M5.03786087,0.439682007 C3.92269134,0.439682007 3.01540374,1.34691239 3.01540374,2.46213913 C3.01540374,3.57730866 3.92269134,4.48459626 5.03786087,4.48459626 C6.15308761,4.48459626 7.06031799,3.57730866 7.06031799,2.46213913 C7.06031799,1.34691239 6.15308761,0.439682007 5.03786087,0.439682007 L5.03786087,0.439682007 Z" id="Path" fill="#E3E5ED"></path>
                    <path d="M3.12767029,4.9526596 L2.5473404,4.37232971 C2.50156403,4.32655334 2.42729187,4.32655334 2.3815155,4.37232971 L0.153923027,6.5999794 C-0.00171662109,6.75556184 -0.0445747412,6.99903488 0.0495529102,7.19821931 C0.0754737891,7.25309372 0.11100769,7.30321884 0.153923027,7.34607697 C0.303497314,7.49570846 0.539131172,7.54154206 0.733852383,7.45868684 C0.795822144,7.43230819 0.852413174,7.39368439 0.900020596,7.34607697 L3.12767029,5.1184845 C3.17344666,5.07270813 3.17344666,4.99843597 3.12767029,4.9526596 L3.12767029,4.9526596 Z" id="Path" fill="#01B6F5"></path>
                    <path d="M3.12767029,4.9526596 L2.83452987,4.65957642 C2.88036346,4.70535278 2.88036346,4.77956771 2.83452987,4.82534408 L0.606937412,7.05299377 C0.55932999,7.1006012 0.502738945,7.13916779 0.440769199,7.16554642 C0.311622627,7.22053528 0.164623257,7.21858978 0.036563877,7.16760636 C0.0405693018,7.17790604 0.0447464063,7.18814851 0.0495529102,7.19821931 C0.0754737891,7.25309372 0.11100769,7.30321884 0.153923027,7.34607697 C0.303497314,7.49570846 0.539131172,7.54154206 0.733852383,7.45868684 C0.795822144,7.43230819 0.852413174,7.39368439 0.900020596,7.34607697 L3.12767029,5.1184845 C3.17344666,5.07270813 3.17344666,4.99843597 3.12767029,4.9526596 L3.12767029,4.9526596 Z" id="Path" fill="#009ACF"></path>
                </g>
            </g>
        </g>
    </g>
</svg>