<?xml version="1.0" encoding="UTF-8"?>
<svg width="159px" height="42px" viewBox="0 0 159 42" version="1.1" xmlns="http://www.w3.org/2000/svg" xmlns:xlink="http://www.w3.org/1999/xlink">
    <!-- Generator: Sketch 55 (78076) - https://sketchapp.com -->
    <title>MapMarker</title>
    <desc>Created with Sketch.</desc>
    <g id="pages" stroke="none" stroke-width="1" fill="none" fill-rule="evenodd">
        <g id="componentes-V2" transform="translate(-601.000000, -2114.000000)">
            <g id="Group-52" transform="translate(581.000000, 2073.000000)">
                <g id="MapMarker" transform="translate(20.000000, 41.000000)">
                    <g id="Group-30" fill="#F4F6F9" fill-rule="nonzero">
                        <circle id="Oval" cx="21" cy="21" r="21"></circle>
                    </g>
                    <path d="M53.75,15.5 C51.6789322,15.5 50,13.8210678 50,11.75 C50,9.67893219 51.6789322,8 53.75,8 L112.0625,8 C114.133568,8 115.8125,9.67893219 115.8125,11.75 C115.8125,13.8210678 114.133568,15.5 112.0625,15.5 L53.75,15.5 Z" id="Line-8" fill="#A4A7B5" fill-rule="nonzero"></path>
                    <path d="M53.75,36.5 C51.6789322,36.5 50,34.8210678 50,32.75 C50,30.6789322 51.6789322,29 53.75,29 L154.5625,29 C156.633568,29 158.3125,30.6789322 158.3125,32.75 C158.3125,34.8210678 156.633568,36.5 154.5625,36.5 L53.75,36.5 Z" id="Line-8" fill="#E3E5ED" fill-rule="nonzero"></path>
                    <g id="Group-87" transform="translate(13.000000, 12.000000)">
                        <g id="Group-50" transform="translate(-0.000000, 0.000000)">
                            <path d="M7.80754014,0.0319289264 C3.81526404,0.0319289264 0.567265082,3.26725614 0.567265082,7.24402108 C0.567265082,9.70399036 1.73878181,12.3450962 4.04937454,15.0938678 C5.74641732,17.1128059 7.42038654,18.4113176 7.49084698,18.4656311 C7.58410547,18.5375227 7.69582281,18.5734341 7.80760902,18.5734341 C7.91932635,18.5734341 8.03111256,18.5375227 8.12437105,18.4656311 C8.19476261,18.4113176 9.86880072,17.1128059 11.5658435,15.0938678 C13.8764362,12.3450962 15.047953,9.70405903 15.047953,7.24402108 C15.0478152,3.26725614 11.7998162,0.0319289264 7.80754014,0.0319289264 Z M10.4888939,7.24395242 C10.4888939,8.71900015 9.28838026,9.91485861 7.80754014,9.91485861 C6.32670002,9.91485861 5.12618637,8.71906881 5.12618637,7.24395242 C5.12618637,5.76883602 6.32670002,4.57304623 7.80754014,4.57304623 C9.28838026,4.57304623 10.4888939,5.76890468 10.4888939,7.24395242 Z" id="Shape" fill="#FF4A4A" fill-rule="nonzero"></path>
                            <path d="M7.80754014,0.0319289264 C7.49112249,0.0319289264 7.1794573,0.052390905 6.87364659,0.0918042463 C10.426492,0.54958952 13.180097,3.58242554 13.180097,7.24402108 C13.180097,9.70399036 12.0085803,12.3450962 9.69798753,15.0938678 C8.6066428,16.3921735 7.52562951,17.3918579 6.87371547,17.9550429 C7.23559147,18.2676031 7.46577602,18.4462677 7.49084698,18.4656311 C7.58410547,18.5375227 7.69582281,18.5734341 7.80760902,18.5734341 C7.91932635,18.5734341 8.03111256,18.5375227 8.12437105,18.4656311 C8.19476261,18.4113176 9.86880072,17.1128059 11.5658435,15.0938678 C13.8764362,12.3450962 15.047953,9.70405903 15.047953,7.24402108 C15.0478152,3.26725614 11.7998162,0.0319289264 7.80754014,0.0319289264 Z" fill="#E7343F"></path>
                        </g>
                        <path d="M8,10.5 C9.65685425,10.5 11,9.15685425 11,7.5 C11,5.84314575 9.65685425,4.5 8,4.5 C6.34314575,4.5 5,5.84314575 5,7.5 C5,9.15685425 6.34314575,10.5 8,10.5 Z" id="Oval" fill="#FFFFFF" fill-rule="nonzero"></path>
                    </g>
                </g>
            </g>
        </g>
    </g>
</svg>