<svg xmlns="http://www.w3.org/2000/svg" width="159" height="42" viewBox="0 0 159 42">
    <g fill="none" fill-rule="nonzero">
        <g>
            <circle cx="21" cy="21" r="21" fill="#5C56B6"/>
            <path fill="#FFF" d="M20.238 30.484c-5.609-8.132-6.65-8.966-6.65-11.955a7.412 7.412 0 1 1 14.824 0c0 2.989-1.041 3.823-6.65 11.955a.927.927 0 0 1-1.524 0zM21 21.618a3.088 3.088 0 1 0 0-6.177 3.088 3.088 0 0 0 0 6.177z"/>
        </g>
        <path fill="#01B6F5" fill-opacity=".6" d="M53.75 15.5a3.75 3.75 0 0 1 0-7.5h58.313a3.75 3.75 0 1 1 0 7.5H53.75z"/>
        <path fill="#A4A7B5" d="M53.75 36.5a3.75 3.75 0 0 1 0-7.5h100.813a3.75 3.75 0 1 1 0 7.5H53.75z"/>
    </g>
</svg>
