<?xml version="1.0" encoding="UTF-8"?>
<svg width="135px" height="71px" viewBox="0 0 135 71" version="1.1" xmlns="http://www.w3.org/2000/svg" xmlns:xlink="http://www.w3.org/1999/xlink">
    <title>MarkdownOutput</title>
    <g id="pages" stroke="none" stroke-width="1" fill="none" fill-rule="evenodd">
        <g id="MarkdownOutput" fill-rule="nonzero">
            <g id="Group-214" transform="translate(0.000000, 3.000000)">
                <path d="M1.76842105,8.14026316 L1.76842105,4.01763158 C1.98210526,3.77815789 2.21513158,3.58842105 2.4675,3.44842105 C2.71986842,3.30842105 2.99157895,3.23842105 3.28263158,3.23842105 C3.67684211,3.23842105 3.97065789,3.35539474 4.16407895,3.58934211 C4.3575,3.82328947 4.45421053,4.15210526 4.45421053,4.57578947 L4.45421053,4.57578947 L4.45421053,8.14026316 L5.44342105,8.14026316 L5.44342105,4.57578947 C5.44342105,4.25894737 5.40289474,3.96973684 5.32184211,3.70815789 C5.24078947,3.44657895 5.12197368,3.22276316 4.96539474,3.03671053 C4.80881579,2.85065789 4.61355263,2.70697368 4.37960526,2.60565789 C4.14565789,2.50434211 3.87578947,2.45368421 3.57,2.45368421 C3.19052632,2.45368421 2.85526316,2.52921053 2.56421053,2.68026316 C2.27315789,2.83131579 2.00789474,3.03394737 1.76842105,3.28815789 L1.76842105,3.28815789 L1.76842105,2.09423122e-13 L0.779210526,2.09423122e-13 L0.779210526,8.14026316 L1.76842105,8.14026316 Z M11.7931579,8.14026316 L11.7931579,7.38868421 L10.2347368,7.38868421 L10.2347368,0.204473684 L9.43342105,0.204473684 L7.07368421,2.24368421 L7.38315789,2.66921053 C7.40157895,2.695 7.42828947,2.71894737 7.46328947,2.74105263 C7.49828947,2.76315789 7.53605263,2.77789474 7.57657895,2.78526316 C7.61710526,2.79263158 7.66131579,2.79171053 7.70921053,2.7825 C7.75710526,2.77328947 7.805,2.74842105 7.85289474,2.70789474 L7.85289474,2.70789474 L9.26210526,1.49763158 C9.25105263,1.66342105 9.24552632,1.82736842 9.24552632,1.98947368 L9.24552632,1.98947368 L9.24552632,7.38868421 L7.54894737,7.38868421 L7.54894737,8.14026316 L11.7931579,8.14026316 Z" id="h1" fill="#061C3F"></path>
                <g id="Group-213" transform="translate(69.000000, 22.416579)">
                    <path d="M3.74407895,6.71907895 L3.74407895,5.96842105 L0.888815789,5.96842105 L0.888815789,0.119736842 L7.99360578e-15,0.119736842 L7.99360578e-15,6.71907895 L3.74407895,6.71907895 Z M4.98289474,1.16973684 C5.0627193,1.16973684 5.13870614,1.15438596 5.21085526,1.12368421 C5.28300439,1.09298246 5.34594298,1.05076754 5.39967105,0.997039474 C5.45339912,0.943311404 5.49638158,0.881907895 5.52861842,0.812828947 C5.56085526,0.74375 5.57697368,0.669298246 5.57697368,0.589473684 C5.57697368,0.509649123 5.56085526,0.433662281 5.52861842,0.361513158 C5.49638158,0.289364035 5.45339912,0.226425439 5.39967105,0.172697368 C5.34594298,0.118969298 5.28300439,0.076754386 5.21085526,0.0460526316 C5.13870614,0.0153508772 5.0627193,1.43884904e-13 4.98289474,1.43884904e-13 C4.90307018,1.43884904e-13 4.82861842,0.0153508772 4.75953947,0.0460526316 C4.69046053,0.076754386 4.62982456,0.118969298 4.57763158,0.172697368 C4.5254386,0.226425439 4.48399123,0.289364035 4.45328947,0.361513158 C4.42258772,0.433662281 4.40723684,0.509649123 4.40723684,0.589473684 C4.40723684,0.669298246 4.42258772,0.74375 4.45328947,0.812828947 C4.48399123,0.881907895 4.5254386,0.943311404 4.57763158,0.997039474 C4.62982456,1.05076754 4.69046053,1.09298246 4.75953947,1.12368421 C4.82861842,1.15438596 4.90307018,1.16973684 4.98289474,1.16973684 Z M5.40197368,6.71907895 L5.40197368,2.05394737 L4.58223684,2.05394737 L4.58223684,6.71907895 L5.40197368,6.71907895 Z M7.9625,6.79276316 C8.24802632,6.79276316 8.4997807,6.75438596 8.71776316,6.67763158 C8.93574561,6.60087719 9.11995614,6.49572368 9.27039474,6.36217105 C9.42083333,6.22861842 9.53442982,6.07050439 9.61118421,5.88782895 C9.6879386,5.70515351 9.72631579,5.50635965 9.72631579,5.29144737 C9.72631579,5.10416667 9.69177632,4.94375 9.62269737,4.81019737 C9.55361842,4.67664474 9.4622807,4.56381579 9.34868421,4.47171053 C9.23508772,4.37960526 9.10614035,4.30285088 8.96184211,4.24144737 C8.81754386,4.18004386 8.66940789,4.12401316 8.51743421,4.07335526 C8.36546053,4.02269737 8.21732456,3.97510965 8.07302632,3.93059211 C7.92872807,3.88607456 7.7997807,3.83464912 7.68618421,3.77631579 C7.57258772,3.71798246 7.48125,3.64890351 7.41217105,3.56907895 C7.34309211,3.48925439 7.30855263,3.38947368 7.30855263,3.26973684 C7.30855263,3.1745614 7.32927632,3.08629386 7.37072368,3.00493421 C7.41217105,2.92357456 7.47203947,2.85219298 7.55032895,2.79078947 C7.62861842,2.72938596 7.72302632,2.6810307 7.83355263,2.64572368 C7.94407895,2.61041667 8.06842105,2.59276316 8.20657895,2.59276316 C8.36622807,2.59276316 8.50438596,2.61041667 8.62105263,2.64572368 C8.7377193,2.6810307 8.83826754,2.71940789 8.92269737,2.76085526 C9.00712719,2.80230263 9.07850877,2.83991228 9.13684211,2.87368421 C9.19517544,2.90745614 9.24736842,2.92434211 9.29342105,2.92434211 C9.37017544,2.92434211 9.42697368,2.89057018 9.46381579,2.82302632 L9.46381579,2.82302632 L9.64802632,2.52368421 C9.46995614,2.35482456 9.25888158,2.22203947 9.01480263,2.12532895 C8.77072368,2.02861842 8.49517544,1.98026316 8.18815789,1.98026316 C7.92412281,1.98026316 7.68925439,2.01710526 7.48355263,2.09078947 C7.27785088,2.16447368 7.10438596,2.26348684 6.96315789,2.38782895 C6.82192982,2.51217105 6.71447368,2.6564693 6.64078947,2.82072368 C6.56710526,2.98497807 6.53026316,3.15614035 6.53026316,3.33421053 C6.53026316,3.53377193 6.56480263,3.70339912 6.63388158,3.84309211 C6.70296053,3.98278509 6.79429825,4.1002193 6.90789474,4.19539474 C7.02149123,4.29057018 7.15120614,4.36962719 7.29703947,4.43256579 C7.44287281,4.49550439 7.59177632,4.55153509 7.74375,4.60065789 C7.89572368,4.6497807 8.04462719,4.69660088 8.19046053,4.74111842 C8.33629386,4.78563596 8.46600877,4.83782895 8.57960526,4.89769737 C8.69320175,4.95756579 8.78453947,5.02971491 8.85361842,5.11414474 C8.92269737,5.19857456 8.95723684,5.30526316 8.95723684,5.43421053 C8.95723684,5.53859649 8.93804825,5.63684211 8.89967105,5.72894737 C8.86129386,5.82105263 8.80219298,5.90241228 8.72236842,5.97302632 C8.64254386,6.04364035 8.54276316,6.09967105 8.42302632,6.14111842 C8.30328947,6.18256579 8.16359649,6.20328947 8.00394737,6.20328947 C7.81666667,6.20328947 7.66008772,6.18179825 7.53421053,6.13881579 C7.40833333,6.09583333 7.30164474,6.04824561 7.21414474,5.99605263 C7.12664474,5.94385965 7.05219298,5.89627193 6.99078947,5.85328947 C6.92938596,5.81030702 6.87105263,5.78881579 6.81578947,5.78881579 C6.76359649,5.78881579 6.72061404,5.7995614 6.68684211,5.82105263 C6.65307018,5.84254386 6.62390351,5.87324561 6.59934211,5.91315789 L6.59934211,5.91315789 L6.40592105,6.22631579 C6.59013158,6.39210526 6.81425439,6.52796053 7.07828947,6.63388158 C7.34232456,6.73980263 7.6370614,6.79276316 7.9625,6.79276316 Z M12.1671053,6.79276316 C12.3789474,6.79276316 12.5846491,6.75515351 12.7842105,6.67993421 C12.9837719,6.60471491 13.1541667,6.50109649 13.2953947,6.36907895 L13.2953947,6.36907895 L13.0559211,5.97763158 C13.0221491,5.9254386 12.9837719,5.89934211 12.9407895,5.89934211 C12.9162281,5.89934211 12.8878289,5.91085526 12.8555921,5.93388158 C12.8233553,5.95690789 12.7842105,5.98223684 12.7381579,6.00986842 C12.6921053,6.0375 12.6376096,6.06282895 12.5746711,6.08585526 C12.5117325,6.10888158 12.4372807,6.12039474 12.3513158,6.12039474 C12.2008772,6.12039474 12.0780702,6.07280702 11.9828947,5.97763158 C11.8877193,5.88245614 11.8401316,5.73662281 11.8401316,5.54013158 L11.8401316,5.54013158 L11.8401316,2.74013158 L13.1894737,2.74013158 L13.1894737,2.14605263 L11.8401316,2.14605263 L11.8401316,0.538815789 L11.4256579,0.538815789 C11.3734649,0.538815789 11.33125,0.553399123 11.2990132,0.582565789 C11.2667763,0.611732456 11.2460526,0.649342105 11.2368421,0.695394737 L11.2368421,0.695394737 L11.0480263,2.13684211 L10.2835526,2.23355263 L10.2835526,2.56052632 C10.2835526,2.62192982 10.3004386,2.66721491 10.3342105,2.69638158 C10.3679825,2.72554825 10.4094298,2.74013158 10.4585526,2.74013158 L10.4585526,2.74013158 L11.0203947,2.74013158 L11.0203947,5.59539474 C11.0203947,5.98223684 11.1194079,6.27850877 11.3174342,6.48421053 C11.5154605,6.68991228 11.7986842,6.79276316 12.1671053,6.79276316 Z" id="List" fill="#061C3F"></path>
                    <path d="M2.21144737,16.2580263 C2.40057018,16.2580263 2.57802632,16.2217982 2.74381579,16.1493421 C2.90960526,16.076886 3.05451754,15.9792544 3.17855263,15.8564474 C3.30258772,15.7336404 3.40083333,15.5893421 3.47328947,15.4235526 C3.54574561,15.2577632 3.58197368,15.080307 3.58197368,14.8911842 C3.58197368,14.7020614 3.54574561,14.5239912 3.47328947,14.3569737 C3.40083333,14.1899561 3.30258772,14.0444298 3.17855263,13.9203947 C3.05451754,13.7963596 2.90960526,13.698114 2.74381579,13.6256579 C2.57802632,13.5532018 2.40057018,13.5169737 2.21144737,13.5169737 C2.0247807,13.5169737 1.84855263,13.5532018 1.68276316,13.6256579 C1.51697368,13.698114 1.37267544,13.7963596 1.24986842,13.9203947 C1.1270614,14.0444298 1.02942982,14.1899561 0.956973684,14.3569737 C0.884517544,14.5239912 0.848289474,14.7020614 0.848289474,14.8911842 C0.848289474,15.080307 0.884517544,15.2577632 0.956973684,15.4235526 C1.02942982,15.5893421 1.1270614,15.7336404 1.24986842,15.8564474 C1.37267544,15.9792544 1.51697368,16.076886 1.68276316,16.1493421 C1.84855263,16.2217982 2.0247807,16.2580263 2.21144737,16.2580263 Z M7.62723684,17.0832895 L7.62723684,11.8038158 L6.9125,11.8038158 L6.9125,17.0832895 L7.62723684,17.0832895 Z M9.85986842,17.1422368 C10.0293421,17.1422368 10.1939035,17.1121491 10.3535526,17.0519737 C10.5132018,16.9917982 10.6495175,16.9089035 10.7625,16.8032895 L10.7625,16.8032895 L10.5709211,16.4901316 C10.5439035,16.4483772 10.5132018,16.4275 10.4788158,16.4275 C10.4591667,16.4275 10.4364474,16.4367105 10.4106579,16.4551316 C10.3848684,16.4735526 10.3535526,16.4938158 10.3167105,16.5159211 C10.2798684,16.5380263 10.2362719,16.5582895 10.1859211,16.5767105 C10.1355702,16.5951316 10.0760088,16.6043421 10.0072368,16.6043421 C9.88688596,16.6043421 9.78864035,16.5662719 9.7125,16.4901316 C9.63635965,16.4139912 9.59828947,16.2973246 9.59828947,16.1401316 L9.59828947,16.1401316 L9.59828947,13.9001316 L10.6777632,13.9001316 L10.6777632,13.4248684 L9.59828947,13.4248684 L9.59828947,12.1390789 L9.26671053,12.1390789 C9.22495614,12.1390789 9.19118421,12.1507456 9.16539474,12.1740789 C9.13960526,12.1974123 9.12302632,12.2275 9.11565789,12.2643421 L9.11565789,12.2643421 L8.96460526,13.4175 L8.35302632,13.4948684 L8.35302632,13.7564474 C8.35302632,13.8055702 8.36653509,13.8417982 8.39355263,13.8651316 C8.42057018,13.8884649 8.45372807,13.9001316 8.49302632,13.9001316 L8.49302632,13.9001316 L8.9425,13.9001316 L8.9425,16.1843421 C8.9425,16.4938158 9.02171053,16.7308333 9.18013158,16.8953947 C9.33855263,17.0599561 9.56513158,17.1422368 9.85986842,17.1422368 Z M12.9030263,17.1348684 C13.038114,17.1348684 13.1744298,17.1232018 13.3119737,17.0998684 C13.4495175,17.0765351 13.5827632,17.0415351 13.7117105,16.9948684 C13.8406579,16.9482018 13.9616228,16.8886404 14.0746053,16.8161842 C14.1875877,16.7437281 14.2846053,16.6583772 14.3656579,16.5601316 L14.3656579,16.5601316 L14.1814474,16.3206579 C14.1519737,16.2789035 14.1102193,16.2580263 14.0561842,16.2580263 C14.0144298,16.2580263 13.964693,16.2770614 13.9069737,16.3151316 C13.8492544,16.3532018 13.7774123,16.3943421 13.6914474,16.4385526 C13.6054825,16.4827632 13.5029386,16.5239035 13.3838158,16.5619737 C13.264693,16.6000439 13.1228509,16.6190789 12.9582895,16.6190789 C12.7814474,16.6190789 12.6217982,16.5902193 12.4793421,16.5325 C12.336886,16.4747807 12.2140789,16.3875877 12.1109211,16.2709211 C12.0077632,16.1542544 11.9273246,16.0087281 11.8696053,15.8343421 C11.811886,15.6599561 11.7793421,15.4548684 11.7719737,15.2190789 L11.7719737,15.2190789 L14.2661842,15.2190789 C14.3275877,15.2190789 14.3693421,15.201886 14.3914474,15.1675 C14.4135526,15.133114 14.4246053,15.0643421 14.4246053,14.9611842 C14.4246053,14.6959211 14.385307,14.4595175 14.3067105,14.2519737 C14.228114,14.0444298 14.1194298,13.8700439 13.9806579,13.7288158 C13.841886,13.5875877 13.6773246,13.4795175 13.4869737,13.4046053 C13.2966228,13.329693 13.089693,13.2922368 12.8661842,13.2922368 C12.5960088,13.2922368 12.3528509,13.3395175 12.1367105,13.4340789 C11.9205702,13.5286404 11.7375877,13.6588158 11.5877632,13.8246053 C11.4379386,13.9903947 11.323114,14.1862719 11.2432895,14.4122368 C11.1634649,14.6382018 11.1235526,14.8813596 11.1235526,15.1417105 C11.1235526,15.4634649 11.1677632,15.7483772 11.2561842,15.9964474 C11.3446053,16.2445175 11.4680263,16.4526754 11.6264474,16.6209211 C11.7848684,16.7891667 11.9727632,16.916886 12.1901316,17.0040789 C12.4075,17.0912719 12.6451316,17.1348684 12.9030263,17.1348684 Z M13.8351316,14.8101316 L11.7940789,14.8101316 C11.8382895,14.4859211 11.951886,14.2323246 12.1348684,14.0493421 C12.3178509,13.8663596 12.5665351,13.7748684 12.8809211,13.7748684 C13.0307456,13.7748684 13.1646053,13.8000439 13.2825,13.8503947 C13.4003947,13.9007456 13.5004825,13.9719737 13.5827632,14.0640789 C13.6650439,14.1561842 13.7276754,14.2654825 13.7706579,14.3919737 C13.8136404,14.5184649 13.8351316,14.6578509 13.8351316,14.8101316 L13.8351316,14.8101316 Z M15.8872368,17.0832895 L15.8872368,14.3017105 C16.0026754,14.151886 16.1291667,14.0333772 16.2667105,13.9461842 C16.4042544,13.8589912 16.5540789,13.8153947 16.7161842,13.8153947 C16.9470614,13.8153947 17.1226754,13.8890789 17.2430263,14.0364474 C17.3633772,14.1838158 17.4235526,14.4073246 17.4235526,14.7069737 L17.4235526,14.7069737 L17.4235526,17.0832895 L18.0830263,17.0832895 L18.0830263,14.7069737 C18.0830263,14.5596053 18.1045175,14.4300439 18.1475,14.3182895 C18.1904825,14.2065351 18.2488158,14.1138158 18.3225,14.0401316 C18.3961842,13.9664474 18.4815351,13.9105702 18.5785526,13.8725 C18.6755702,13.8344298 18.778114,13.8153947 18.8861842,13.8153947 C19.126886,13.8153947 19.3110965,13.8909211 19.4388158,14.0419737 C19.5665351,14.1930263 19.6303947,14.414693 19.6303947,14.7069737 L19.6303947,14.7069737 L19.6303947,17.0832895 L20.2898684,17.0832895 L20.2898684,14.7069737 C20.2898684,14.4810088 20.2616228,14.2802193 20.2051316,14.1046053 C20.1486404,13.9289912 20.0669737,13.7810088 19.9601316,13.6606579 C19.8532895,13.540307 19.723114,13.4488158 19.5696053,13.3861842 C19.4160965,13.3235526 19.2410965,13.2922368 19.0446053,13.2922368 C18.9217982,13.2922368 18.8008333,13.3069737 18.6817105,13.3364474 C18.5625877,13.3659211 18.4502193,13.4125877 18.3446053,13.4764474 C18.2389912,13.540307 18.1438158,13.6213596 18.0590789,13.7196053 C17.9743421,13.8178509 17.9049561,13.9345175 17.8509211,14.0696053 C17.7821491,13.8313596 17.6697807,13.6422368 17.5138158,13.5022368 C17.3578509,13.3622368 17.1546053,13.2922368 16.9040789,13.2922368 C16.678114,13.2922368 16.4791667,13.3462719 16.3072368,13.4543421 C16.135307,13.5624123 15.9805702,13.7011842 15.8430263,13.8706579 L15.8430263,13.8706579 L15.7951316,13.4875 C15.7730263,13.3966228 15.715307,13.3511842 15.6219737,13.3511842 L15.6219737,13.3511842 L15.2277632,13.3511842 L15.2277632,17.0832895 L15.8872368,17.0832895 Z M26.4056579,17.0832895 L26.4056579,16.5822368 L25.3667105,16.5822368 L25.3667105,11.7927632 L24.8325,11.7927632 L23.2593421,13.1522368 L23.4656579,13.4359211 C23.4779386,13.453114 23.4957456,13.4690789 23.5190789,13.4838158 C23.5424123,13.4985526 23.5675877,13.5083772 23.5946053,13.5132895 C23.6216228,13.5182018 23.6510965,13.5175877 23.6830263,13.5114474 C23.7149561,13.505307 23.746886,13.4887281 23.7788158,13.4617105 L23.7788158,13.4617105 L24.7182895,12.6548684 C24.7109211,12.7653947 24.7072368,12.874693 24.7072368,12.9827632 L24.7072368,12.9827632 L24.7072368,16.5822368 L23.5761842,16.5822368 L23.5761842,17.0832895 L26.4056579,17.0832895 Z M2.21144737,29.8435526 C2.40057018,29.8435526 2.57802632,29.8073246 2.74381579,29.7348684 C2.90960526,29.6624123 3.05451754,29.5647807 3.17855263,29.4419737 C3.30258772,29.3191667 3.40083333,29.1748684 3.47328947,29.0090789 C3.54574561,28.8432895 3.58197368,28.6658333 3.58197368,28.4767105 C3.58197368,28.2875877 3.54574561,28.1095175 3.47328947,27.9425 C3.40083333,27.7754825 3.30258772,27.6299561 3.17855263,27.5059211 C3.05451754,27.381886 2.90960526,27.2836404 2.74381579,27.2111842 C2.57802632,27.1387281 2.40057018,27.1025 2.21144737,27.1025 C2.0247807,27.1025 1.84855263,27.1387281 1.68276316,27.2111842 C1.51697368,27.2836404 1.37267544,27.381886 1.24986842,27.5059211 C1.1270614,27.6299561 1.02942982,27.7754825 0.956973684,27.9425 C0.884517544,28.1095175 0.848289474,28.2875877 0.848289474,28.4767105 C0.848289474,28.6658333 0.884517544,28.8432895 0.956973684,29.0090789 C1.02942982,29.1748684 1.1270614,29.3191667 1.24986842,29.4419737 C1.37267544,29.5647807 1.51697368,29.6624123 1.68276316,29.7348684 C1.84855263,29.8073246 2.0247807,29.8435526 2.21144737,29.8435526 Z M7.62723684,30.6688158 L7.62723684,25.3893421 L6.9125,25.3893421 L6.9125,30.6688158 L7.62723684,30.6688158 Z M9.85986842,30.7277632 C10.0293421,30.7277632 10.1939035,30.6976754 10.3535526,30.6375 C10.5132018,30.5773246 10.6495175,30.4944298 10.7625,30.3888158 L10.7625,30.3888158 L10.5709211,30.0756579 C10.5439035,30.0339035 10.5132018,30.0130263 10.4788158,30.0130263 C10.4591667,30.0130263 10.4364474,30.0222368 10.4106579,30.0406579 C10.3848684,30.0590789 10.3535526,30.0793421 10.3167105,30.1014474 C10.2798684,30.1235526 10.2362719,30.1438158 10.1859211,30.1622368 C10.1355702,30.1806579 10.0760088,30.1898684 10.0072368,30.1898684 C9.88688596,30.1898684 9.78864035,30.1517982 9.7125,30.0756579 C9.63635965,29.9995175 9.59828947,29.8828509 9.59828947,29.7256579 L9.59828947,29.7256579 L9.59828947,27.4856579 L10.6777632,27.4856579 L10.6777632,27.0103947 L9.59828947,27.0103947 L9.59828947,25.7246053 L9.26671053,25.7246053 C9.22495614,25.7246053 9.19118421,25.7362719 9.16539474,25.7596053 C9.13960526,25.7829386 9.12302632,25.8130263 9.11565789,25.8498684 L9.11565789,25.8498684 L8.96460526,27.0030263 L8.35302632,27.0803947 L8.35302632,27.3419737 C8.35302632,27.3910965 8.36653509,27.4273246 8.39355263,27.4506579 C8.42057018,27.4739912 8.45372807,27.4856579 8.49302632,27.4856579 L8.49302632,27.4856579 L8.9425,27.4856579 L8.9425,29.7698684 C8.9425,30.0793421 9.02171053,30.3163596 9.18013158,30.4809211 C9.33855263,30.6454825 9.56513158,30.7277632 9.85986842,30.7277632 Z M12.9030263,30.7203947 C13.038114,30.7203947 13.1744298,30.7087281 13.3119737,30.6853947 C13.4495175,30.6620614 13.5827632,30.6270614 13.7117105,30.5803947 C13.8406579,30.5337281 13.9616228,30.4741667 14.0746053,30.4017105 C14.1875877,30.3292544 14.2846053,30.2439035 14.3656579,30.1456579 L14.3656579,30.1456579 L14.1814474,29.9061842 C14.1519737,29.8644298 14.1102193,29.8435526 14.0561842,29.8435526 C14.0144298,29.8435526 13.964693,29.8625877 13.9069737,29.9006579 C13.8492544,29.9387281 13.7774123,29.9798684 13.6914474,30.0240789 C13.6054825,30.0682895 13.5029386,30.1094298 13.3838158,30.1475 C13.264693,30.1855702 13.1228509,30.2046053 12.9582895,30.2046053 C12.7814474,30.2046053 12.6217982,30.1757456 12.4793421,30.1180263 C12.336886,30.060307 12.2140789,29.973114 12.1109211,29.8564474 C12.0077632,29.7397807 11.9273246,29.5942544 11.8696053,29.4198684 C11.811886,29.2454825 11.7793421,29.0403947 11.7719737,28.8046053 L11.7719737,28.8046053 L14.2661842,28.8046053 C14.3275877,28.8046053 14.3693421,28.7874123 14.3914474,28.7530263 C14.4135526,28.7186404 14.4246053,28.6498684 14.4246053,28.5467105 C14.4246053,28.2814474 14.385307,28.0450439 14.3067105,27.8375 C14.228114,27.6299561 14.1194298,27.4555702 13.9806579,27.3143421 C13.841886,27.173114 13.6773246,27.0650439 13.4869737,26.9901316 C13.2966228,26.9152193 13.089693,26.8777632 12.8661842,26.8777632 C12.5960088,26.8777632 12.3528509,26.9250439 12.1367105,27.0196053 C11.9205702,27.1141667 11.7375877,27.2443421 11.5877632,27.4101316 C11.4379386,27.5759211 11.323114,27.7717982 11.2432895,27.9977632 C11.1634649,28.2237281 11.1235526,28.466886 11.1235526,28.7272368 C11.1235526,29.0489912 11.1677632,29.3339035 11.2561842,29.5819737 C11.3446053,29.8300439 11.4680263,30.0382018 11.6264474,30.2064474 C11.7848684,30.374693 11.9727632,30.5024123 12.1901316,30.5896053 C12.4075,30.6767982 12.6451316,30.7203947 12.9030263,30.7203947 Z M13.8351316,28.3956579 L11.7940789,28.3956579 C11.8382895,28.0714474 11.951886,27.8178509 12.1348684,27.6348684 C12.3178509,27.451886 12.5665351,27.3603947 12.8809211,27.3603947 C13.0307456,27.3603947 13.1646053,27.3855702 13.2825,27.4359211 C13.4003947,27.4862719 13.5004825,27.5575 13.5827632,27.6496053 C13.6650439,27.7417105 13.7276754,27.8510088 13.7706579,27.9775 C13.8136404,28.1039912 13.8351316,28.2433772 13.8351316,28.3956579 L13.8351316,28.3956579 Z M15.8872368,30.6688158 L15.8872368,27.8872368 C16.0026754,27.7374123 16.1291667,27.6189035 16.2667105,27.5317105 C16.4042544,27.4445175 16.5540789,27.4009211 16.7161842,27.4009211 C16.9470614,27.4009211 17.1226754,27.4746053 17.2430263,27.6219737 C17.3633772,27.7693421 17.4235526,27.9928509 17.4235526,28.2925 L17.4235526,28.2925 L17.4235526,30.6688158 L18.0830263,30.6688158 L18.0830263,28.2925 C18.0830263,28.1451316 18.1045175,28.0155702 18.1475,27.9038158 C18.1904825,27.7920614 18.2488158,27.6993421 18.3225,27.6256579 C18.3961842,27.5519737 18.4815351,27.4960965 18.5785526,27.4580263 C18.6755702,27.4199561 18.778114,27.4009211 18.8861842,27.4009211 C19.126886,27.4009211 19.3110965,27.4764474 19.4388158,27.6275 C19.5665351,27.7785526 19.6303947,28.0002193 19.6303947,28.2925 L19.6303947,28.2925 L19.6303947,30.6688158 L20.2898684,30.6688158 L20.2898684,28.2925 C20.2898684,28.0665351 20.2616228,27.8657456 20.2051316,27.6901316 C20.1486404,27.5145175 20.0669737,27.3665351 19.9601316,27.2461842 C19.8532895,27.1258333 19.723114,27.0343421 19.5696053,26.9717105 C19.4160965,26.9090789 19.2410965,26.8777632 19.0446053,26.8777632 C18.9217982,26.8777632 18.8008333,26.8925 18.6817105,26.9219737 C18.5625877,26.9514474 18.4502193,26.998114 18.3446053,27.0619737 C18.2389912,27.1258333 18.1438158,27.206886 18.0590789,27.3051316 C17.9743421,27.4033772 17.9049561,27.5200439 17.8509211,27.6551316 C17.7821491,27.416886 17.6697807,27.2277632 17.5138158,27.0877632 C17.3578509,26.9477632 17.1546053,26.8777632 16.9040789,26.8777632 C16.678114,26.8777632 16.4791667,26.9317982 16.3072368,27.0398684 C16.135307,27.1479386 15.9805702,27.2867105 15.8430263,27.4561842 L15.8430263,27.4561842 L15.7951316,27.0730263 C15.7730263,26.9821491 15.715307,26.9367105 15.6219737,26.9367105 L15.6219737,26.9367105 L15.2277632,26.9367105 L15.2277632,30.6688158 L15.8872368,30.6688158 Z M26.5235526,30.6688158 L26.5235526,30.2709211 C26.5235526,30.2046053 26.5026754,30.1505702 26.4609211,30.1088158 C26.4191667,30.0670614 26.3626754,30.0461842 26.2914474,30.0461842 L26.2914474,30.0461842 L24.5230263,30.0461842 C24.429693,30.0461842 24.3326754,30.0541667 24.2319737,30.0701316 C24.1312719,30.0860965 24.0317982,30.1075877 23.9335526,30.1346053 L23.9335526,30.1346053 L25.3261842,28.7125 C25.4735526,28.5651316 25.6129386,28.4189912 25.7443421,28.2740789 C25.8757456,28.1291667 25.9917982,27.9805702 26.0925,27.8282895 C26.1932018,27.6760088 26.2730263,27.5157456 26.3319737,27.3475 C26.3909211,27.1792544 26.4203947,26.996886 26.4203947,26.8003947 C26.4203947,26.5695175 26.3798684,26.3632018 26.2988158,26.1814474 C26.2177632,25.999693 26.1060088,25.8455702 25.9635526,25.7190789 C25.8210965,25.5925877 25.6528509,25.4961842 25.4588158,25.4298684 C25.2647807,25.3635526 25.0560088,25.3303947 24.8325,25.3303947 C24.6065351,25.3303947 24.3965351,25.3629386 24.2025,25.4280263 C24.0084649,25.493114 23.8359211,25.5882895 23.6848684,25.7135526 C23.5338158,25.8388158 23.4085526,25.9941667 23.3090789,26.1796053 C23.2096053,26.3650439 23.1426754,26.578114 23.1082895,26.8188158 L23.1082895,26.8188158 L23.4509211,26.8777632 C23.5417982,26.8900439 23.6124123,26.8820614 23.6627632,26.8538158 C23.713114,26.8255702 23.7530263,26.7684649 23.7825,26.6825 C23.8070614,26.5670614 23.8488158,26.4614474 23.9077632,26.3656579 C23.9667105,26.2698684 24.0397807,26.1869737 24.1269737,26.1169737 C24.2141667,26.0469737 24.3142544,25.9923246 24.4272368,25.9530263 C24.5402193,25.9137281 24.6642544,25.8940789 24.7993421,25.8940789 C24.9319737,25.8940789 25.0560088,25.913114 25.1714474,25.9511842 C25.286886,25.9892544 25.3869737,26.0463596 25.4717105,26.1225 C25.5564474,26.1986404 25.6233772,26.2950439 25.6725,26.4117105 C25.7216228,26.5283772 25.7461842,26.6640789 25.7461842,26.8188158 C25.7461842,26.9735526 25.7240789,27.1190789 25.6798684,27.2553947 C25.6356579,27.3917105 25.5730263,27.5261842 25.4919737,27.6588158 C25.4109211,27.7914474 25.3126754,27.9234649 25.1972368,28.0548684 C25.0817982,28.1862719 24.9540789,28.3232018 24.8140789,28.4656579 L24.8140789,28.4656579 L23.1230263,30.1640789 C23.0812719,30.2058333 23.0505702,30.2512719 23.0309211,30.3003947 C23.0112719,30.3495175 23.0014474,30.3974123 23.0014474,30.4440789 L23.0014474,30.4440789 L23.0014474,30.6688158 L26.5235526,30.6688158 Z M2.21144737,43.4290789 C2.40057018,43.4290789 2.57802632,43.3928509 2.74381579,43.3203947 C2.90960526,43.2479386 3.05451754,43.150307 3.17855263,43.0275 C3.30258772,42.904693 3.40083333,42.7603947 3.47328947,42.5946053 C3.54574561,42.4288158 3.58197368,42.2513596 3.58197368,42.0622368 C3.58197368,41.873114 3.54574561,41.6950439 3.47328947,41.5280263 C3.40083333,41.3610088 3.30258772,41.2154825 3.17855263,41.0914474 C3.05451754,40.9674123 2.90960526,40.8691667 2.74381579,40.7967105 C2.57802632,40.7242544 2.40057018,40.6880263 2.21144737,40.6880263 C2.0247807,40.6880263 1.84855263,40.7242544 1.68276316,40.7967105 C1.51697368,40.8691667 1.37267544,40.9674123 1.24986842,41.0914474 C1.1270614,41.2154825 1.02942982,41.3610088 0.956973684,41.5280263 C0.884517544,41.6950439 0.848289474,41.873114 0.848289474,42.0622368 C0.848289474,42.2513596 0.884517544,42.4288158 0.956973684,42.5946053 C1.02942982,42.7603947 1.1270614,42.904693 1.24986842,43.0275 C1.37267544,43.150307 1.51697368,43.2479386 1.68276316,43.3203947 C1.84855263,43.3928509 2.0247807,43.4290789 2.21144737,43.4290789 Z M7.62723684,44.2543421 L7.62723684,38.9748684 L6.9125,38.9748684 L6.9125,44.2543421 L7.62723684,44.2543421 Z M9.85986842,44.3132895 C10.0293421,44.3132895 10.1939035,44.2832018 10.3535526,44.2230263 C10.5132018,44.1628509 10.6495175,44.0799561 10.7625,43.9743421 L10.7625,43.9743421 L10.5709211,43.6611842 C10.5439035,43.6194298 10.5132018,43.5985526 10.4788158,43.5985526 C10.4591667,43.5985526 10.4364474,43.6077632 10.4106579,43.6261842 C10.3848684,43.6446053 10.3535526,43.6648684 10.3167105,43.6869737 C10.2798684,43.7090789 10.2362719,43.7293421 10.1859211,43.7477632 C10.1355702,43.7661842 10.0760088,43.7753947 10.0072368,43.7753947 C9.88688596,43.7753947 9.78864035,43.7373246 9.7125,43.6611842 C9.63635965,43.5850439 9.59828947,43.4683772 9.59828947,43.3111842 L9.59828947,43.3111842 L9.59828947,41.0711842 L10.6777632,41.0711842 L10.6777632,40.5959211 L9.59828947,40.5959211 L9.59828947,39.3101316 L9.26671053,39.3101316 C9.22495614,39.3101316 9.19118421,39.3217982 9.16539474,39.3451316 C9.13960526,39.3684649 9.12302632,39.3985526 9.11565789,39.4353947 L9.11565789,39.4353947 L8.96460526,40.5885526 L8.35302632,40.6659211 L8.35302632,40.9275 C8.35302632,40.9766228 8.36653509,41.0128509 8.39355263,41.0361842 C8.42057018,41.0595175 8.45372807,41.0711842 8.49302632,41.0711842 L8.49302632,41.0711842 L8.9425,41.0711842 L8.9425,43.3553947 C8.9425,43.6648684 9.02171053,43.901886 9.18013158,44.0664474 C9.33855263,44.2310088 9.56513158,44.3132895 9.85986842,44.3132895 Z M12.9030263,44.3059211 C13.038114,44.3059211 13.1744298,44.2942544 13.3119737,44.2709211 C13.4495175,44.2475877 13.5827632,44.2125877 13.7117105,44.1659211 C13.8406579,44.1192544 13.9616228,44.059693 14.0746053,43.9872368 C14.1875877,43.9147807 14.2846053,43.8294298 14.3656579,43.7311842 L14.3656579,43.7311842 L14.1814474,43.4917105 C14.1519737,43.4499561 14.1102193,43.4290789 14.0561842,43.4290789 C14.0144298,43.4290789 13.964693,43.448114 13.9069737,43.4861842 C13.8492544,43.5242544 13.7774123,43.5653947 13.6914474,43.6096053 C13.6054825,43.6538158 13.5029386,43.6949561 13.3838158,43.7330263 C13.264693,43.7710965 13.1228509,43.7901316 12.9582895,43.7901316 C12.7814474,43.7901316 12.6217982,43.7612719 12.4793421,43.7035526 C12.336886,43.6458333 12.2140789,43.5586404 12.1109211,43.4419737 C12.0077632,43.325307 11.9273246,43.1797807 11.8696053,43.0053947 C11.811886,42.8310088 11.7793421,42.6259211 11.7719737,42.3901316 L11.7719737,42.3901316 L14.2661842,42.3901316 C14.3275877,42.3901316 14.3693421,42.3729386 14.3914474,42.3385526 C14.4135526,42.3041667 14.4246053,42.2353947 14.4246053,42.1322368 C14.4246053,41.8669737 14.385307,41.6305702 14.3067105,41.4230263 C14.228114,41.2154825 14.1194298,41.0410965 13.9806579,40.8998684 C13.841886,40.7586404 13.6773246,40.6505702 13.4869737,40.5756579 C13.2966228,40.5007456 13.089693,40.4632895 12.8661842,40.4632895 C12.5960088,40.4632895 12.3528509,40.5105702 12.1367105,40.6051316 C11.9205702,40.699693 11.7375877,40.8298684 11.5877632,40.9956579 C11.4379386,41.1614474 11.323114,41.3573246 11.2432895,41.5832895 C11.1634649,41.8092544 11.1235526,42.0524123 11.1235526,42.3127632 C11.1235526,42.6345175 11.1677632,42.9194298 11.2561842,43.1675 C11.3446053,43.4155702 11.4680263,43.6237281 11.6264474,43.7919737 C11.7848684,43.9602193 11.9727632,44.0879386 12.1901316,44.1751316 C12.4075,44.2623246 12.6451316,44.3059211 12.9030263,44.3059211 Z M13.8351316,41.9811842 L11.7940789,41.9811842 C11.8382895,41.6569737 11.951886,41.4033772 12.1348684,41.2203947 C12.3178509,41.0374123 12.5665351,40.9459211 12.8809211,40.9459211 C13.0307456,40.9459211 13.1646053,40.9710965 13.2825,41.0214474 C13.4003947,41.0717982 13.5004825,41.1430263 13.5827632,41.2351316 C13.6650439,41.3272368 13.7276754,41.4365351 13.7706579,41.5630263 C13.8136404,41.6895175 13.8351316,41.8289035 13.8351316,41.9811842 L13.8351316,41.9811842 Z M15.8872368,44.2543421 L15.8872368,41.4727632 C16.0026754,41.3229386 16.1291667,41.2044298 16.2667105,41.1172368 C16.4042544,41.0300439 16.5540789,40.9864474 16.7161842,40.9864474 C16.9470614,40.9864474 17.1226754,41.0601316 17.2430263,41.2075 C17.3633772,41.3548684 17.4235526,41.5783772 17.4235526,41.8780263 L17.4235526,41.8780263 L17.4235526,44.2543421 L18.0830263,44.2543421 L18.0830263,41.8780263 C18.0830263,41.7306579 18.1045175,41.6010965 18.1475,41.4893421 C18.1904825,41.3775877 18.2488158,41.2848684 18.3225,41.2111842 C18.3961842,41.1375 18.4815351,41.0816228 18.5785526,41.0435526 C18.6755702,41.0054825 18.778114,40.9864474 18.8861842,40.9864474 C19.126886,40.9864474 19.3110965,41.0619737 19.4388158,41.2130263 C19.5665351,41.3640789 19.6303947,41.5857456 19.6303947,41.8780263 L19.6303947,41.8780263 L19.6303947,44.2543421 L20.2898684,44.2543421 L20.2898684,41.8780263 C20.2898684,41.6520614 20.2616228,41.4512719 20.2051316,41.2756579 C20.1486404,41.1000439 20.0669737,40.9520614 19.9601316,40.8317105 C19.8532895,40.7113596 19.723114,40.6198684 19.5696053,40.5572368 C19.4160965,40.4946053 19.2410965,40.4632895 19.0446053,40.4632895 C18.9217982,40.4632895 18.8008333,40.4780263 18.6817105,40.5075 C18.5625877,40.5369737 18.4502193,40.5836404 18.3446053,40.6475 C18.2389912,40.7113596 18.1438158,40.7924123 18.0590789,40.8906579 C17.9743421,40.9889035 17.9049561,41.1055702 17.8509211,41.2406579 C17.7821491,41.0024123 17.6697807,40.8132895 17.5138158,40.6732895 C17.3578509,40.5332895 17.1546053,40.4632895 16.9040789,40.4632895 C16.678114,40.4632895 16.4791667,40.5173246 16.3072368,40.6253947 C16.135307,40.7334649 15.9805702,40.8722368 15.8430263,41.0417105 L15.8430263,41.0417105 L15.7951316,40.6585526 C15.7730263,40.5676754 15.715307,40.5222368 15.6219737,40.5222368 L15.6219737,40.5222368 L15.2277632,40.5222368 L15.2277632,44.2543421 L15.8872368,44.2543421 Z M24.7588158,44.3132895 C25.0019737,44.3132895 25.2297807,44.2770614 25.4422368,44.2046053 C25.654693,44.1321491 25.8407456,44.0277632 26.0003947,43.8914474 C26.1600439,43.7551316 26.2859211,43.5899561 26.3780263,43.3959211 C26.4701316,43.201886 26.5161842,42.9832895 26.5161842,42.7401316 C26.5161842,42.4183772 26.4296053,42.1500439 26.2564474,41.9351316 C26.0832895,41.7202193 25.8247807,41.5685526 25.4809211,41.4801316 C25.6209211,41.4359211 25.7474123,41.3794298 25.8603947,41.3106579 C25.9733772,41.241886 26.0697807,41.1583772 26.1496053,41.0601316 C26.2294298,40.961886 26.2908333,40.8470614 26.3338158,40.7156579 C26.3767982,40.5842544 26.3982895,40.4350439 26.3982895,40.2680263 C26.3982895,40.0641667 26.3602193,39.8787281 26.2840789,39.7117105 C26.2079386,39.544693 26.1017105,39.4022368 25.9653947,39.2843421 C25.8290789,39.1664474 25.6663596,39.0755702 25.4772368,39.0117105 C25.288114,38.9478509 25.0817982,38.9159211 24.8582895,38.9159211 C24.6323246,38.9159211 24.4217105,38.9484649 24.2264474,39.0135526 C24.0311842,39.0786404 23.8580263,39.1738158 23.7069737,39.2990789 C23.5559211,39.4243421 23.4312719,39.579693 23.3330263,39.7651316 C23.2347807,39.9505702 23.1684649,40.1636404 23.1340789,40.4043421 L23.1340789,40.4043421 L23.4767105,40.4632895 C23.5675877,40.4755702 23.6369737,40.4675877 23.6848684,40.4393421 C23.7327632,40.4110965 23.7726754,40.3539912 23.8046053,40.2680263 C23.8291667,40.1525877 23.8709211,40.0469737 23.9298684,39.9511842 C23.9888158,39.8553947 24.061886,39.7725 24.1490789,39.7025 C24.2362719,39.6325 24.3369737,39.5778509 24.4511842,39.5385526 C24.5653947,39.4992544 24.6888158,39.4796053 24.8214474,39.4796053 C24.9540789,39.4796053 25.0775,39.4980263 25.1917105,39.5348684 C25.3059211,39.5717105 25.4047807,39.6269737 25.4882895,39.7006579 C25.5717982,39.7743421 25.6375,39.8676754 25.6853947,39.9806579 C25.7332895,40.0936404 25.7572368,40.2262719 25.7572368,40.3785526 C25.7572368,40.5160965 25.7345175,40.6413596 25.6890789,40.7543421 C25.6436404,40.8673246 25.5711842,40.9643421 25.4717105,41.0453947 C25.3722368,41.1264474 25.2432895,41.190307 25.0848684,41.2369737 C24.9264474,41.2836404 24.7342544,41.3082018 24.5082895,41.3106579 L24.5082895,41.3106579 L24.5082895,41.7859211 C24.7833772,41.7859211 25.0087281,41.8104825 25.1843421,41.8596053 C25.3599561,41.9087281 25.498114,41.9762719 25.5988158,42.0622368 C25.6995175,42.1482018 25.7682895,42.2501316 25.8051316,42.3680263 C25.8419737,42.4859211 25.8603947,42.6160965 25.8603947,42.7585526 C25.8603947,42.8739912 25.8370614,42.9906579 25.7903947,43.1085526 C25.7437281,43.2264474 25.6743421,43.3332895 25.5822368,43.4290789 C25.4901316,43.5248684 25.374693,43.6028509 25.2359211,43.6630263 C25.0971491,43.7232018 24.9356579,43.7532895 24.7514474,43.7532895 C24.5525,43.7532895 24.3885526,43.7225877 24.2596053,43.6611842 C24.1306579,43.5997807 24.0244298,43.5248684 23.9409211,43.4364474 C23.8574123,43.3480263 23.7917105,43.2559211 23.7438158,43.1601316 C23.6959211,43.0643421 23.6560088,42.9820614 23.6240789,42.9132895 C23.5921491,42.8469737 23.5411842,42.8064474 23.4711842,42.7917105 C23.4011842,42.7769737 23.3293421,42.7855702 23.2556579,42.8175 L23.2556579,42.8175 L22.9719737,42.9353947 C23.0333772,43.131886 23.1082895,43.3142544 23.1967105,43.4825 C23.2851316,43.6507456 23.398114,43.7962719 23.5356579,43.9190789 C23.6732018,44.041886 23.8414474,44.1382895 24.0403947,44.2082895 C24.2393421,44.2782895 24.4788158,44.3132895 24.7588158,44.3132895 Z" id="•Item1•Item2•Item3" fill="#576574"></path>
                </g>
                <g id="Group-211" transform="translate(0.000000, 33.469211)">
                    <path d="M50.6578947,0 C51.1665781,0 51.5789474,0.412369309 51.5789474,0.921052632 L51.5789474,11.9736842 C51.5789474,12.4823675 51.1665781,12.8947368 50.6578947,12.8947368 L0.921052632,12.8947368 C0.412369309,12.8947368 0,12.4823675 0,11.9736842 L0,0.921052632 C0,0.412369309 0.412369309,0 0.921052632,0 L50.6578947,0 Z" id="Path" fill="#EFEFF2"></path>
                    <path d="M5.19171464,8.75 L5.19171464,6.74599095 C5.19171464,6.25668174 5.30084978,5.88250411 5.51912007,5.62345806 C5.73739035,5.36441201 6.05280291,5.23488898 6.46535773,5.23488898 C6.64045367,5.23488898 6.80115817,5.26007401 6.94747122,5.31044408 C7.09378427,5.36081414 7.23769874,5.44116639 7.37921464,5.55150082 L7.37921464,5.55150082 L7.37921464,4.8751028 C7.24969161,4.78875411 7.11417215,4.72519189 6.97265625,4.68441612 C6.83114035,4.64364035 6.67883087,4.62325247 6.5157278,4.62325247 C6.20151453,4.62325247 5.92987596,4.69940721 5.70081209,4.85171669 C5.47174822,5.00402618 5.30204907,5.22289611 5.19171464,5.50832648 L5.19171464,5.50832648 L5.19171464,4.72039474 L4.5261102,4.72039474 L4.5261102,8.75 L5.19171464,8.75 Z M10.0991982,8.85433799 C10.3174685,8.85433799 10.5435341,8.82855332 10.7773951,8.77698396 C11.0112562,8.72541461 11.2541118,8.64806058 11.5059622,8.54492188 L11.5059622,8.54492188 L11.5059622,7.88651316 C11.2445175,8.02323191 10.9986637,8.12517133 10.7684005,8.19233141 C10.5381373,8.2594915 10.3174685,8.29307155 10.1063939,8.29307155 C9.68904194,8.29307155 9.36583402,8.17314282 9.13677015,7.93328536 C8.90770628,7.69342791 8.80276864,7.29886239 8.82195724,6.74958882 L8.82195724,6.74958882 L8.82195724,6.72800164 L11.6894531,6.72800164 L11.6894531,6.40419408 C11.6702645,5.91248629 11.5125583,5.49273575 11.2163343,5.14494243 C10.9201103,4.79714912 10.5153509,4.62325247 10.0020559,4.62325247 C9.42639803,4.62325247 8.96587171,4.81513843 8.62047697,5.19891036 C8.27508224,5.58268229 8.10238487,6.09597725 8.10238487,6.73879523 C8.10238487,7.39840323 8.2786801,7.9158957 8.63127056,8.29127262 C8.98386102,8.66664953 9.47317023,8.85433799 10.0991982,8.85433799 Z M8.84714227,6.2135074 C8.86633087,5.9496642 8.97906387,5.71220532 9.18534128,5.50113076 C9.3916187,5.2900562 9.65426261,5.18451891 9.97327303,5.18451891 C10.2994792,5.18451891 10.5495306,5.28585869 10.7234272,5.48853824 C10.8973239,5.69121779 10.9986637,5.93167489 11.0274465,6.20990954 L11.0274465,6.20990954 L8.84714227,6.2135074 Z M13.9237253,8.85433799 C14.2307429,8.85433799 14.4915879,8.79737185 14.7062603,8.68343956 C14.9209327,8.56950726 15.0990269,8.39261239 15.2405428,8.15275493 L15.2405428,8.15275493 L15.2405428,8.75 L15.9061472,8.75 L15.9061472,6.45096628 C15.9061472,6.09837582 15.8869586,5.83393298 15.8485814,5.65763775 C15.8102042,5.48134252 15.7454427,5.33323054 15.6542969,5.21330181 C15.5079838,5.0166187 15.3166975,4.86910636 15.0804379,4.7707648 C14.8441783,4.67242325 14.5593476,4.62325247 14.2259457,4.62325247 C14.0148712,4.62325247 13.7972005,4.64663857 13.5729338,4.69341077 C13.3486671,4.74018298 13.1142064,4.81034128 12.8695518,4.90388569 L12.8695518,4.90388569 L12.8695518,5.56589227 C13.0878221,5.44116639 13.3120888,5.3464227 13.542352,5.28166118 C13.7726151,5.21689967 14.0004797,5.18451891 14.2259457,5.18451891 C14.5785362,5.18451891 14.8351837,5.25707579 14.9958882,5.40218956 C15.1565927,5.54730332 15.2381442,5.78056469 15.2405428,6.10197368 L15.2405428,6.10197368 L15.2405428,6.20631168 L14.3518709,6.20631168 C13.7690173,6.20631168 13.3270799,6.32264254 13.0260588,6.55530428 C12.7250377,6.78796601 12.5745271,7.1285636 12.5745271,7.57709704 C12.5745271,7.96566612 12.6968544,8.27568188 12.941509,8.50714433 C13.1861637,8.73860677 13.5135691,8.85433799 13.9237253,8.85433799 Z M14.0640419,8.30026727 C13.8049959,8.30026727 13.6023163,8.23310718 13.4560033,8.09878701 C13.3096902,7.96446683 13.2365337,7.77617873 13.2365337,7.5339227 C13.2365337,7.26528235 13.3342756,7.06320244 13.5297595,6.92768298 C13.7252433,6.79216351 14.0160704,6.72440378 14.402241,6.72440378 L14.402241,6.72440378 L15.2405428,6.72440378 L15.2405428,6.87191612 C15.2381442,7.31805099 15.1326069,7.66764323 14.9239309,7.92069285 C14.7152549,8.17374246 14.4286253,8.30026727 14.0640419,8.30026727 Z M19.2233758,8.85433799 C19.4200589,8.85433799 19.6125445,8.82855332 19.8008326,8.77698396 C19.9891208,8.72541461 20.1720121,8.64806058 20.3495066,8.54492188 L20.3495066,8.54492188 L20.3495066,7.85773026 C20.1935992,8.00644189 20.0244997,8.11617667 19.8422081,8.18693462 C19.6599164,8.25769257 19.453639,8.29307155 19.2233758,8.29307155 C18.810821,8.29307155 18.4924102,8.15815173 18.2681435,7.88831209 C18.0438768,7.61847245 17.9317434,7.23530016 17.9317434,6.73879523 C17.9317434,6.23989172 18.0432771,5.85611979 18.2663446,5.58747944 C18.489412,5.31883909 18.8084224,5.18451891 19.2233758,5.18451891 C19.4464433,5.18451891 19.6461246,5.21929825 19.8224198,5.28885691 C19.998715,5.35841557 20.1744106,5.47114857 20.3495066,5.62705592 L20.3495066,5.62705592 L20.3495066,4.93266859 C20.1624178,4.8271313 19.9765282,4.74917763 19.791838,4.69880757 C19.6071478,4.6484375 19.4176604,4.62325247 19.2233758,4.62325247 C18.5997464,4.62325247 18.1122362,4.81034128 17.760845,5.18451891 C17.4094538,5.55869655 17.2337582,6.07678865 17.2337582,6.73879523 C17.2337582,7.40080181 17.4094538,7.91889391 17.760845,8.29307155 C18.1122362,8.66724918 18.5997464,8.85433799 19.2233758,8.85433799 Z M24.6813322,8.75 L24.6813322,8.22111431 L23.9365748,8.22111431 C23.6559416,8.22111431 23.4592585,8.16234923 23.3465255,8.04481908 C23.2337925,7.92728893 23.177426,7.71981223 23.177426,7.42238898 L23.177426,7.42238898 L23.177426,5.23488898 L24.6813322,5.23488898 L24.6813322,4.72039474 L23.177426,4.72039474 L23.177426,3.57627467 L22.5154194,3.57627467 L22.5154194,4.72039474 L21.4396587,4.72039474 L21.4396587,5.23488898 L22.5154194,5.23488898 L22.5154194,7.42238898 C22.5154194,7.90929962 22.6173588,8.25229578 22.8212377,8.45137747 C23.0251165,8.65045916 23.3753084,8.75 23.8718133,8.75 L23.8718133,8.75 L24.6813322,8.75 Z M32.5318668,8.85433799 C32.7285499,8.85433799 32.9210355,8.82855332 33.1093236,8.77698396 C33.2976117,8.72541461 33.480503,8.64806058 33.6579975,8.54492188 L33.6579975,8.54492188 L33.6579975,7.85773026 C33.5020902,8.00644189 33.3329907,8.11617667 33.150699,8.18693462 C32.9684073,8.25769257 32.7621299,8.29307155 32.5318668,8.29307155 C32.119312,8.29307155 31.8009012,8.15815173 31.5766345,7.88831209 C31.3523677,7.61847245 31.2402344,7.23530016 31.2402344,6.73879523 C31.2402344,6.23989172 31.3517681,5.85611979 31.5748355,5.58747944 C31.797903,5.31883909 32.1169134,5.18451891 32.5318668,5.18451891 C32.7549342,5.18451891 32.9546155,5.21929825 33.1309108,5.28885691 C33.307206,5.35841557 33.4829016,5.47114857 33.6579975,5.62705592 L33.6579975,5.62705592 L33.6579975,4.93266859 C33.4709087,4.8271313 33.2850192,4.74917763 33.1003289,4.69880757 C32.9156387,4.6484375 32.7261513,4.62325247 32.5318668,4.62325247 C31.9082374,4.62325247 31.4207271,4.81034128 31.0693359,5.18451891 C30.7179448,5.55869655 30.5422492,6.07678865 30.5422492,6.73879523 C30.5422492,7.40080181 30.7179448,7.91889391 31.0693359,8.29307155 C31.4207271,8.66724918 31.9082374,8.85433799 32.5318668,8.85433799 Z M36.4931127,8.85433799 C37.0543791,8.85433799 37.4825247,8.67384526 37.7775493,8.31285979 C38.072574,7.95187431 38.2200863,7.42718613 38.2200863,6.73879523 C38.2200863,6.05280291 38.0719744,5.52871436 37.7757504,5.16652961 C37.4795265,4.80434485 37.0519805,4.62325247 36.4931127,4.62325247 C35.9342448,4.62325247 35.5072985,4.80434485 35.2122738,5.16652961 C34.9172492,5.52871436 34.7697368,6.05280291 34.7697368,6.73879523 C34.7697368,7.42718613 34.9172492,7.95187431 35.2122738,8.31285979 C35.5072985,8.67384526 35.9342448,8.85433799 36.4931127,8.85433799 Z M36.4931127,8.29307155 C36.1573122,8.29307155 35.9030633,8.16174959 35.730366,7.89910567 C35.5576686,7.63646176 35.4713199,7.24969161 35.4713199,6.73879523 C35.4713199,6.22550027 35.5576686,5.83813048 35.730366,5.57668586 C35.9030633,5.31524123 36.1573122,5.18451891 36.4931127,5.18451891 C36.8313117,5.18451891 37.0867599,5.31524123 37.2594572,5.57668586 C37.4321546,5.83813048 37.5185033,6.22550027 37.5185033,6.73879523 C37.5185033,7.24969161 37.4321546,7.63646176 37.2594572,7.89910567 C37.0867599,8.16174959 36.8313117,8.29307155 36.4931127,8.29307155 Z M40.7241982,8.85433799 C40.9640556,8.85433799 41.1757299,8.802169 41.3592208,8.697831 C41.5427118,8.59349301 41.6896245,8.44178317 41.7999589,8.24270148 L41.7999589,8.24270148 L41.7999589,8.75 L42.4619655,8.75 L42.4619655,3.15172697 L41.7999589,3.15172697 L41.7999589,5.23488898 C41.6944216,5.03580729 41.5493078,4.88409745 41.3646176,4.77975946 C41.1799274,4.67542146 40.9664542,4.62325247 40.7241982,4.62325247 C40.2396861,4.62325247 39.8571135,4.80974164 39.5764803,5.18271998 C39.295847,5.55569833 39.1555304,6.06959293 39.1555304,6.72440378 C39.1555304,7.38880894 39.2952474,7.90989926 39.5746813,8.28767475 C39.8541153,8.66545025 40.2372876,8.85433799 40.7241982,8.85433799 Z M40.8213405,8.29307155 C40.50233,8.29307155 40.2612733,8.16234923 40.0981702,7.90090461 C39.9350672,7.63945998 39.8535156,7.25209019 39.8535156,6.73879523 C39.8535156,6.22550027 39.9350672,5.83813048 40.0981702,5.57668586 C40.2612733,5.31524123 40.50233,5.18451891 40.8213405,5.18451891 C41.1403509,5.18451891 41.3832066,5.31584087 41.5499075,5.57848479 C41.7166084,5.8411287 41.7999589,6.22789885 41.7999589,6.73879523 C41.7999589,7.24729304 41.7166084,7.63346354 41.5499075,7.89730674 C41.3832066,8.16114995 41.1403509,8.29307155 40.8213405,8.29307155 Z M45.5885074,8.85433799 C45.8067777,8.85433799 46.0328433,8.82855332 46.2667044,8.77698396 C46.5005654,8.72541461 46.7434211,8.64806058 46.9952714,8.54492188 L46.9952714,8.54492188 L46.9952714,7.88651316 C46.7338268,8.02323191 46.4879729,8.12517133 46.2577097,8.19233141 C46.0274465,8.2594915 45.8067777,8.29307155 45.5957031,8.29307155 C45.1783512,8.29307155 44.8551432,8.17314282 44.6260794,7.93328536 C44.3970155,7.69342791 44.2920779,7.29886239 44.3112664,6.74958882 L44.3112664,6.74958882 L44.3112664,6.72800164 L47.1787623,6.72800164 L47.1787623,6.40419408 C47.1595737,5.91248629 47.0018675,5.49273575 46.7056435,5.14494243 C46.4094195,4.79714912 46.0046601,4.62325247 45.4913651,4.62325247 C44.9157072,4.62325247 44.4551809,4.81513843 44.1097862,5.19891036 C43.7643914,5.58268229 43.5916941,6.09597725 43.5916941,6.73879523 C43.5916941,7.39840323 43.7679893,7.9158957 44.1205798,8.29127262 C44.4731702,8.66664953 44.9624794,8.85433799 45.5885074,8.85433799 Z M44.3364515,6.2135074 C44.3556401,5.9496642 44.4683731,5.71220532 44.6746505,5.50113076 C44.8809279,5.2900562 45.1435718,5.18451891 45.4625822,5.18451891 C45.7887884,5.18451891 46.0388398,5.28585869 46.2127364,5.48853824 C46.3866331,5.69121779 46.4879729,5.93167489 46.5167558,6.20990954 L46.5167558,6.20990954 L44.3364515,6.2135074 Z" id="reactcode" fill="#576574"></path>
                </g>
                <path d="M3.23842105,22.3760526 C3.59701754,22.3760526 3.92675439,22.3287719 4.22763158,22.2342105 C4.52850877,22.1396491 4.81157895,21.9965789 5.07684211,21.805 L5.07684211,21.805 L5.07684211,19.7786842 L3.45578947,19.7786842 L3.45578947,20.1839474 C3.45578947,20.2232456 3.46991228,20.2564035 3.49815789,20.2834211 C3.52640351,20.3104386 3.56385965,20.3239474 3.61052632,20.3239474 L3.61052632,20.3239474 L4.43210526,20.3239474 L4.43210526,21.4844737 C4.25035088,21.5827193 4.06429825,21.6594737 3.87394737,21.7147368 C3.68359649,21.77 3.46561404,21.7976316 3.22,21.7976316 C2.90807018,21.7976316 2.62684211,21.7497368 2.37631579,21.6539474 C2.12578947,21.5581579 1.9127193,21.4187719 1.73710526,21.2357895 C1.56149123,21.052807 1.42640351,20.8305263 1.33184211,20.5689474 C1.2372807,20.3073684 1.19,20.0107895 1.19,19.6792105 C1.19,19.3599123 1.2354386,19.0719298 1.32631579,18.8152632 C1.41719298,18.5585965 1.54736842,18.34 1.71684211,18.1594737 C1.88631579,17.9789474 2.09140351,17.8401754 2.33210526,17.7431579 C2.57280702,17.6461404 2.84175439,17.5976316 3.13894737,17.5976316 C3.34280702,17.5976316 3.51903509,17.6135965 3.66763158,17.6455263 C3.81622807,17.6774561 3.94517544,17.7161404 4.05447368,17.7615789 C4.16377193,17.8070175 4.25649123,17.8542982 4.33263158,17.9034211 C4.40877193,17.9525439 4.47631579,17.9942982 4.53526316,18.0286842 C4.59666667,18.0655263 4.65254386,18.077193 4.70289474,18.0636842 C4.75324561,18.0501754 4.79438596,18.0188596 4.82631579,17.9697368 L4.82631579,17.9697368 L5.02894737,17.6455263 C4.91596491,17.5423684 4.79438596,17.4496491 4.66421053,17.3673684 C4.53403509,17.2850877 4.39280702,17.2150877 4.24052632,17.1573684 C4.08824561,17.0996491 3.92245614,17.0554386 3.74315789,17.0247368 C3.56385965,16.9940351 3.36982456,16.9786842 3.16105263,16.9786842 C2.74842105,16.9786842 2.37508772,17.0437719 2.04105263,17.1739474 C1.70701754,17.3041228 1.42333333,17.4877193 1.19,17.7247368 C0.956666667,17.9617544 0.776754386,18.2460526 0.650263158,18.5776316 C0.52377193,18.9092105 0.460526316,19.2764035 0.460526316,19.6792105 C0.460526316,20.0771053 0.525614035,20.4418421 0.655789474,20.7734211 C0.785964912,21.105 0.972017544,21.3892982 1.21394737,21.6263158 C1.45587719,21.8633333 1.74754386,22.0475439 2.08894737,22.1789474 C2.43035088,22.3103509 2.81350877,22.3760526 3.23842105,22.3760526 Z M6.34421053,17.8776316 C6.40807018,17.8776316 6.46885965,17.8653509 6.52657895,17.8407895 C6.58429825,17.8162281 6.63464912,17.7824561 6.67763158,17.7394737 C6.72061404,17.6964912 6.755,17.6473684 6.78078947,17.5921053 C6.80657895,17.5368421 6.81947368,17.4772807 6.81947368,17.4134211 C6.81947368,17.3495614 6.80657895,17.2887719 6.78078947,17.2310526 C6.755,17.1733333 6.72061404,17.1229825 6.67763158,17.08 C6.63464912,17.0370175 6.58429825,17.0032456 6.52657895,16.9786842 C6.46885965,16.9541228 6.40807018,16.9418421 6.34421053,16.9418421 C6.28035088,16.9418421 6.22078947,16.9541228 6.16552632,16.9786842 C6.11026316,17.0032456 6.06175439,17.0370175 6.02,17.08 C5.97824561,17.1229825 5.94508772,17.1733333 5.92052632,17.2310526 C5.89596491,17.2887719 5.88368421,17.3495614 5.88368421,17.4134211 C5.88368421,17.4772807 5.89596491,17.5368421 5.92052632,17.5921053 C5.94508772,17.6473684 5.97824561,17.6964912 6.02,17.7394737 C6.06175439,17.7824561 6.11026316,17.8162281 6.16552632,17.8407895 C6.22078947,17.8653509 6.28035088,17.8776316 6.34421053,17.8776316 Z M6.67947368,22.3171053 L6.67947368,18.585 L6.02368421,18.585 L6.02368421,22.3171053 L6.67947368,22.3171053 Z M9.43157895,22.3171053 L10.9531579,18.585 L10.4410526,18.585 C10.394386,18.585 10.3538596,18.5978947 10.3194737,18.6236842 C10.2850877,18.6494737 10.2605263,18.6820175 10.2457895,18.7213158 L10.2457895,18.7213158 L9.28789474,21.1234211 C9.25596491,21.2142982 9.22894737,21.3027193 9.20684211,21.3886842 C9.18473684,21.4746491 9.16385965,21.560614 9.14421053,21.6465789 C9.1245614,21.560614 9.10368421,21.4746491 9.08157895,21.3886842 C9.05947368,21.3027193 9.03368421,21.2142982 9.00421053,21.1234211 L9.00421053,21.1234211 L8.05736842,18.7213158 C8.04508772,18.6844737 8.02175439,18.6525439 7.98736842,18.6255263 C7.95298246,18.5985088 7.90877193,18.585 7.85473684,18.585 L7.85473684,18.585 L7.32052632,18.585 L8.84210526,22.3171053 L9.43157895,22.3171053 Z M13.02,22.3686842 C13.1550877,22.3686842 13.2914035,22.3570175 13.4289474,22.3336842 C13.5664912,22.3103509 13.6997368,22.2753509 13.8286842,22.2286842 C13.9576316,22.1820175 14.0785965,22.1224561 14.1915789,22.05 C14.3045614,21.9775439 14.4015789,21.892193 14.4826316,21.7939474 L14.4826316,21.7939474 L14.2984211,21.5544737 C14.2689474,21.5127193 14.227193,21.4918421 14.1731579,21.4918421 C14.1314035,21.4918421 14.0816667,21.5108772 14.0239474,21.5489474 C13.9662281,21.5870175 13.894386,21.6281579 13.8084211,21.6723684 C13.7224561,21.7165789 13.6199123,21.7577193 13.5007895,21.7957895 C13.3816667,21.8338596 13.2398246,21.8528947 13.0752632,21.8528947 C12.8984211,21.8528947 12.7387719,21.8240351 12.5963158,21.7663158 C12.4538596,21.7085965 12.3310526,21.6214035 12.2278947,21.5047368 C12.1247368,21.3880702 12.0442982,21.2425439 11.9865789,21.0681579 C11.9288596,20.8937719 11.8963158,20.6886842 11.8889474,20.4528947 L11.8889474,20.4528947 L14.3831579,20.4528947 C14.4445614,20.4528947 14.4863158,20.4357018 14.5084211,20.4013158 C14.5305263,20.3669298 14.5415789,20.2981579 14.5415789,20.195 C14.5415789,19.9297368 14.5022807,19.6933333 14.4236842,19.4857895 C14.3450877,19.2782456 14.2364035,19.1038596 14.0976316,18.9626316 C13.9588596,18.8214035 13.7942982,18.7133333 13.6039474,18.6384211 C13.4135965,18.5635088 13.2066667,18.5260526 12.9831579,18.5260526 C12.7129825,18.5260526 12.4698246,18.5733333 12.2536842,18.6678947 C12.0375439,18.7624561 11.8545614,18.8926316 11.7047368,19.0584211 C11.5549123,19.2242105 11.4400877,19.4200877 11.3602632,19.6460526 C11.2804386,19.8720175 11.2405263,20.1151754 11.2405263,20.3755263 C11.2405263,20.6972807 11.2847368,20.982193 11.3731579,21.2302632 C11.4615789,21.4783333 11.585,21.6864912 11.7434211,21.8547368 C11.9018421,22.0229825 12.0897368,22.1507018 12.3071053,22.2378947 C12.5244737,22.3250877 12.7621053,22.3686842 13.02,22.3686842 Z M13.9521053,20.0439474 L11.9110526,20.0439474 C11.9552632,19.7197368 12.0688596,19.4661404 12.2518421,19.2831579 C12.4348246,19.1001754 12.6835088,19.0086842 12.9978947,19.0086842 C13.1477193,19.0086842 13.2815789,19.0338596 13.3994737,19.0842105 C13.5173684,19.1345614 13.6174561,19.2057895 13.6997368,19.2978947 C13.7820175,19.39 13.8446491,19.4992982 13.8876316,19.6257895 C13.930614,19.7522807 13.9521053,19.8916667 13.9521053,20.0439474 L13.9521053,20.0439474 Z M17.5884211,17.8776316 C17.6522807,17.8776316 17.7130702,17.8653509 17.7707895,17.8407895 C17.8285088,17.8162281 17.8788596,17.7824561 17.9218421,17.7394737 C17.9648246,17.6964912 17.9992105,17.6473684 18.025,17.5921053 C18.0507895,17.5368421 18.0636842,17.4772807 18.0636842,17.4134211 C18.0636842,17.3495614 18.0507895,17.2887719 18.025,17.2310526 C17.9992105,17.1733333 17.9648246,17.1229825 17.9218421,17.08 C17.8788596,17.0370175 17.8285088,17.0032456 17.7707895,16.9786842 C17.7130702,16.9541228 17.6522807,16.9418421 17.5884211,16.9418421 C17.5245614,16.9418421 17.465,16.9541228 17.4097368,16.9786842 C17.3544737,17.0032456 17.3059649,17.0370175 17.2642105,17.08 C17.2224561,17.1229825 17.1892982,17.1733333 17.1647368,17.2310526 C17.1401754,17.2887719 17.1278947,17.3495614 17.1278947,17.4134211 C17.1278947,17.4772807 17.1401754,17.5368421 17.1647368,17.5921053 C17.1892982,17.6473684 17.2224561,17.6964912 17.2642105,17.7394737 C17.3059649,17.7824561 17.3544737,17.8162281 17.4097368,17.8407895 C17.465,17.8653509 17.5245614,17.8776316 17.5884211,17.8776316 Z M17.9236842,22.3171053 L17.9236842,18.585 L17.2678947,18.585 L17.2678947,22.3171053 L17.9236842,22.3171053 Z M20.1452632,22.3760526 C20.3147368,22.3760526 20.4792982,22.3459649 20.6389474,22.2857895 C20.7985965,22.225614 20.9349123,22.1427193 21.0478947,22.0371053 L21.0478947,22.0371053 L20.8563158,21.7239474 C20.8292982,21.682193 20.7985965,21.6613158 20.7642105,21.6613158 C20.7445614,21.6613158 20.7218421,21.6705263 20.6960526,21.6889474 C20.6702632,21.7073684 20.6389474,21.7276316 20.6021053,21.7497368 C20.5652632,21.7718421 20.5216667,21.7921053 20.4713158,21.8105263 C20.4209649,21.8289474 20.3614035,21.8381579 20.2926316,21.8381579 C20.1722807,21.8381579 20.0740351,21.8000877 19.9978947,21.7239474 C19.9217544,21.647807 19.8836842,21.5311404 19.8836842,21.3739474 L19.8836842,21.3739474 L19.8836842,19.1339474 L20.9631579,19.1339474 L20.9631579,18.6586842 L19.8836842,18.6586842 L19.8836842,17.3728947 L19.5521053,17.3728947 C19.5103509,17.3728947 19.4765789,17.3845614 19.4507895,17.4078947 C19.425,17.4312281 19.4084211,17.4613158 19.4010526,17.4981579 L19.4010526,17.4981579 L19.25,18.6513158 L18.6384211,18.7286842 L18.6384211,18.9902632 C18.6384211,19.039386 18.6519298,19.075614 18.6789474,19.0989474 C18.7059649,19.1222807 18.7391228,19.1339474 18.7784211,19.1339474 L18.7784211,19.1339474 L19.2278947,19.1339474 L19.2278947,21.4181579 C19.2278947,21.7276316 19.3071053,21.9646491 19.4655263,22.1292105 C19.6239474,22.2937719 19.8505263,22.3760526 20.1452632,22.3760526 Z M24.2973684,22.3760526 C24.4398246,22.3760526 24.569386,22.3631579 24.6860526,22.3373684 C24.8027193,22.3115789 24.9126316,22.2747368 25.0157895,22.2268421 C25.1189474,22.1789474 25.217193,22.12 25.3105263,22.05 C25.4038596,21.98 25.4996491,21.8995614 25.5978947,21.8086842 L25.5978947,21.8086842 L25.6715789,22.1623684 C25.6912281,22.2237719 25.7182456,22.2649123 25.7526316,22.2857895 C25.7870175,22.3066667 25.8361404,22.3171053 25.9,22.3171053 L25.9,22.3171053 L26.1910526,22.3171053 L26.1910526,19.9297368 C26.1910526,19.7209649 26.162807,19.529386 26.1063158,19.355 C26.0498246,19.180614 25.9663158,19.0320175 25.8557895,18.9092105 C25.7452632,18.7864035 25.6089474,18.690614 25.4468421,18.6218421 C25.2847368,18.5530702 25.0992982,18.5186842 24.8905263,18.5186842 C24.6007018,18.5186842 24.3366667,18.567807 24.0984211,18.6660526 C23.8601754,18.7642982 23.6378947,18.9128947 23.4315789,19.1118421 L23.4315789,19.1118421 L23.5494737,19.3218421 C23.5715789,19.3562281 23.5985965,19.3850877 23.6305263,19.4084211 C23.6624561,19.4317544 23.7005263,19.4434211 23.7447368,19.4434211 C23.8012281,19.4434211 23.8583333,19.4231579 23.9160526,19.3826316 C23.9737719,19.3421053 24.0425439,19.2966667 24.1223684,19.2463158 C24.202193,19.1959649 24.2967544,19.1505263 24.4060526,19.11 C24.5153509,19.0694737 24.6510526,19.0492105 24.8131579,19.0492105 C25.0538596,19.0492105 25.2368421,19.1235088 25.3621053,19.2721053 C25.4873684,19.4207018 25.55,19.6399123 25.55,19.9297368 L25.55,19.9297368 L25.55,20.2207895 C25.1250877,20.230614 24.7664912,20.2692982 24.4742105,20.3368421 C24.1819298,20.404386 23.9449123,20.4909649 23.7631579,20.5965789 C23.5814035,20.702193 23.45,20.8231579 23.3689474,20.9594737 C23.2878947,21.0957895 23.2473684,21.2376316 23.2473684,21.385 C23.2473684,21.5544737 23.275,21.7012281 23.3302632,21.8252632 C23.3855263,21.9492982 23.4604386,22.0518421 23.555,22.1328947 C23.6495614,22.2139474 23.7607018,22.2747368 23.8884211,22.3152632 C24.0161404,22.3557895 24.1524561,22.3760526 24.2973684,22.3760526 Z M24.4926316,21.9155263 C24.4066667,21.9155263 24.3262281,21.9050877 24.2513158,21.8842105 C24.1764035,21.8633333 24.1113158,21.8301754 24.0560526,21.7847368 C24.0007895,21.7392982 23.957193,21.6809649 23.9252632,21.6097368 C23.8933333,21.5385088 23.8773684,21.4537719 23.8773684,21.3555263 C23.8773684,21.2523684 23.9074561,21.1590351 23.9676316,21.0755263 C24.027807,20.9920175 24.1248246,20.9195614 24.2586842,20.8581579 C24.3925439,20.7967544 24.5657018,20.7470175 24.7781579,20.7089474 C24.990614,20.6708772 25.2478947,20.6469298 25.55,20.6371053 L25.55,20.6371053 L25.55,21.4107895 C25.4763158,21.489386 25.4007895,21.559386 25.3234211,21.6207895 C25.2460526,21.682193 25.165,21.735 25.0802632,21.7792105 C24.9955263,21.8234211 24.9052632,21.857193 24.8094737,21.8805263 C24.7136842,21.9038596 24.6080702,21.9155263 24.4926316,21.9155263 Z M29.7352632,22.3171053 L29.7352632,19.5686842 C29.8777193,19.4090351 30.0330702,19.2825439 30.2013158,19.1892105 C30.3695614,19.0958772 30.5507018,19.0492105 30.7447368,19.0492105 C31.0075439,19.0492105 31.2034211,19.127193 31.3323684,19.2831579 C31.4613158,19.4391228 31.5257895,19.6583333 31.5257895,19.9407895 L31.5257895,19.9407895 L31.5257895,22.3171053 L32.1852632,22.3171053 L32.1852632,19.9407895 C32.1852632,19.7295614 32.1582456,19.5367544 32.1042105,19.3623684 C32.0501754,19.1879825 31.9709649,19.0387719 31.8665789,18.9147368 C31.762193,18.7907018 31.6320175,18.6949123 31.4760526,18.6273684 C31.3200877,18.5598246 31.1401754,18.5260526 30.9363158,18.5260526 C30.6833333,18.5260526 30.4598246,18.5764035 30.2657895,18.6771053 C30.0717544,18.777807 29.8949123,18.9128947 29.7352632,19.0823684 L29.7352632,19.0823684 L29.7352632,16.8902632 L29.0757895,16.8902632 L29.0757895,22.3171053 L29.7352632,22.3171053 Z M33.9573684,22.3760526 C34.0998246,22.3760526 34.229386,22.3631579 34.3460526,22.3373684 C34.4627193,22.3115789 34.5726316,22.2747368 34.6757895,22.2268421 C34.7789474,22.1789474 34.877193,22.12 34.9705263,22.05 C35.0638596,21.98 35.1596491,21.8995614 35.2578947,21.8086842 L35.2578947,21.8086842 L35.3315789,22.1623684 C35.3512281,22.2237719 35.3782456,22.2649123 35.4126316,22.2857895 C35.4470175,22.3066667 35.4961404,22.3171053 35.56,22.3171053 L35.56,22.3171053 L35.8510526,22.3171053 L35.8510526,19.9297368 C35.8510526,19.7209649 35.822807,19.529386 35.7663158,19.355 C35.7098246,19.180614 35.6263158,19.0320175 35.5157895,18.9092105 C35.4052632,18.7864035 35.2689474,18.690614 35.1068421,18.6218421 C34.9447368,18.5530702 34.7592982,18.5186842 34.5505263,18.5186842 C34.2607018,18.5186842 33.9966667,18.567807 33.7584211,18.6660526 C33.5201754,18.7642982 33.2978947,18.9128947 33.0915789,19.1118421 L33.0915789,19.1118421 L33.2094737,19.3218421 C33.2315789,19.3562281 33.2585965,19.3850877 33.2905263,19.4084211 C33.3224561,19.4317544 33.3605263,19.4434211 33.4047368,19.4434211 C33.4612281,19.4434211 33.5183333,19.4231579 33.5760526,19.3826316 C33.6337719,19.3421053 33.7025439,19.2966667 33.7823684,19.2463158 C33.862193,19.1959649 33.9567544,19.1505263 34.0660526,19.11 C34.1753509,19.0694737 34.3110526,19.0492105 34.4731579,19.0492105 C34.7138596,19.0492105 34.8968421,19.1235088 35.0221053,19.2721053 C35.1473684,19.4207018 35.21,19.6399123 35.21,19.9297368 L35.21,19.9297368 L35.21,20.2207895 C34.7850877,20.230614 34.4264912,20.2692982 34.1342105,20.3368421 C33.8419298,20.404386 33.6049123,20.4909649 33.4231579,20.5965789 C33.2414035,20.702193 33.11,20.8231579 33.0289474,20.9594737 C32.9478947,21.0957895 32.9073684,21.2376316 32.9073684,21.385 C32.9073684,21.5544737 32.935,21.7012281 32.9902632,21.8252632 C33.0455263,21.9492982 33.1204386,22.0518421 33.215,22.1328947 C33.3095614,22.2139474 33.4207018,22.2747368 33.5484211,22.3152632 C33.6761404,22.3557895 33.8124561,22.3760526 33.9573684,22.3760526 Z M34.1526316,21.9155263 C34.0666667,21.9155263 33.9862281,21.9050877 33.9113158,21.8842105 C33.8364035,21.8633333 33.7713158,21.8301754 33.7160526,21.7847368 C33.6607895,21.7392982 33.617193,21.6809649 33.5852632,21.6097368 C33.5533333,21.5385088 33.5373684,21.4537719 33.5373684,21.3555263 C33.5373684,21.2523684 33.5674561,21.1590351 33.6276316,21.0755263 C33.687807,20.9920175 33.7848246,20.9195614 33.9186842,20.8581579 C34.0525439,20.7967544 34.2257018,20.7470175 34.4381579,20.7089474 C34.650614,20.6708772 34.9078947,20.6469298 35.21,20.6371053 L35.21,20.6371053 L35.21,21.4107895 C35.1363158,21.489386 35.0607895,21.559386 34.9834211,21.6207895 C34.9060526,21.682193 34.825,21.735 34.7402632,21.7792105 C34.6555263,21.8234211 34.5652632,21.857193 34.4694737,21.8805263 C34.3736842,21.9038596 34.2680702,21.9155263 34.1526316,21.9155263 Z M38.2826316,22.3686842 C38.4177193,22.3686842 38.5503509,22.3576316 38.6805263,22.3355263 C38.8107018,22.3134211 38.9353509,22.2784211 39.0544737,22.2305263 C39.1735965,22.1826316 39.2847368,22.1230702 39.3878947,22.0518421 C39.4910526,21.980614 39.5831579,21.8946491 39.6642105,21.7939474 L39.6642105,21.7939474 L39.48,21.5544737 C39.4505263,21.5127193 39.4087719,21.4918421 39.3547368,21.4918421 C39.3105263,21.4918421 39.2657018,21.5108772 39.2202632,21.5489474 C39.1748246,21.5870175 39.1183333,21.629386 39.0507895,21.6760526 C38.9832456,21.7227193 38.8978947,21.7650877 38.7947368,21.8031579 C38.6915789,21.8412281 38.5601754,21.8602632 38.4005263,21.8602632 C38.2335088,21.8602632 38.0830702,21.8289474 37.9492105,21.7663158 C37.8153509,21.7036842 37.7011404,21.612807 37.6065789,21.4936842 C37.5120175,21.3745614 37.4389474,21.227193 37.3873684,21.0515789 C37.3357895,20.8759649 37.31,20.6751754 37.31,20.4492105 C37.31,20.2330702 37.3339474,20.037807 37.3818421,19.8634211 C37.4297368,19.6890351 37.5009649,19.5404386 37.5955263,19.4176316 C37.6900877,19.2948246 37.8073684,19.2008772 37.9473684,19.1357895 C38.0873684,19.0707018 38.2494737,19.0381579 38.4336842,19.0381579 C38.5712281,19.0381579 38.6872807,19.0535088 38.7818421,19.0842105 C38.8764035,19.1149123 38.9562281,19.1486842 39.0213158,19.1855263 C39.0864035,19.2223684 39.1410526,19.2561404 39.1852632,19.2868421 C39.2294737,19.3175439 39.27,19.3328947 39.3068421,19.3328947 C39.3412281,19.3328947 39.3682456,19.3255263 39.3878947,19.3107895 C39.4075439,19.2960526 39.427193,19.2751754 39.4468421,19.2481579 L39.4468421,19.2481579 L39.62,19.0123684 C39.4652632,18.8576316 39.287807,18.7378947 39.0876316,18.6531579 C38.8874561,18.5684211 38.6559649,18.5260526 38.3931579,18.5260526 C38.1107018,18.5260526 37.8607895,18.5739474 37.6434211,18.6697368 C37.4260526,18.7655263 37.2430702,18.8987719 37.0944737,19.0694737 C36.9458772,19.2401754 36.8328947,19.4434211 36.7555263,19.6792105 C36.6781579,19.915 36.6394737,20.1716667 36.6394737,20.4492105 C36.6394737,20.7537719 36.6812281,21.0251754 36.7647368,21.2634211 C36.8482456,21.5016667 36.9636842,21.7024561 37.1110526,21.8657895 C37.2584211,22.0291228 37.432193,22.1537719 37.6323684,22.2397368 C37.8325439,22.3257018 38.0492982,22.3686842 38.2826316,22.3686842 Z M41.0273684,22.3171053 L41.0273684,20.5339474 L41.2152632,20.5339474 C41.2889474,20.5339474 41.3435965,20.5419298 41.3792105,20.5578947 C41.4148246,20.5738596 41.4510526,20.6076316 41.4878947,20.6592105 L41.4878947,20.6592105 L42.7147368,22.1881579 C42.7442105,22.2372807 42.7792105,22.2710526 42.8197368,22.2894737 C42.8602632,22.3078947 42.9087719,22.3171053 42.9652632,22.3171053 L42.9652632,22.3171053 L43.5510526,22.3171053 L42.0921053,20.475 C42.0601754,20.4258772 42.0264035,20.3822807 41.9907895,20.3442105 C41.9551754,20.3061404 41.9152632,20.2723684 41.8710526,20.2428947 C41.947193,20.1962281 42.0184211,20.1311404 42.0847368,20.0476316 L42.0847368,20.0476316 L43.4589474,18.585 L42.8657895,18.585 C42.8019298,18.585 42.7509649,18.5966667 42.7128947,18.62 C42.6748246,18.6433333 42.6385965,18.6758772 42.6042105,18.7176316 L42.6042105,18.7176316 L41.4252632,19.9813158 C41.3884211,20.0230702 41.3534211,20.0507018 41.3202632,20.0642105 C41.2871053,20.0777193 41.2459649,20.0844737 41.1968421,20.0844737 L41.1968421,20.0844737 L41.0273684,20.0844737 L41.0273684,16.8902632 L40.3678947,16.8902632 L40.3678947,22.3171053 L41.0273684,22.3171053 Z M44.4573684,22.3723684 C44.5212281,22.3723684 44.5814035,22.3607018 44.6378947,22.3373684 C44.694386,22.3140351 44.7435088,22.2814912 44.7852632,22.2397368 C44.8270175,22.1979825 44.8601754,22.1494737 44.8847368,22.0942105 C44.9092982,22.0389474 44.9215789,21.9781579 44.9215789,21.9118421 C44.9215789,21.8479825 44.9092982,21.787807 44.8847368,21.7313158 C44.8601754,21.6748246 44.8270175,21.6257018 44.7852632,21.5839474 C44.7435088,21.542193 44.694386,21.5090351 44.6378947,21.4844737 C44.5814035,21.4599123 44.5212281,21.4476316 44.4573684,21.4476316 C44.3935088,21.4476316 44.3333333,21.4599123 44.2768421,21.4844737 C44.2203509,21.5090351 44.1718421,21.542193 44.1313158,21.5839474 C44.0907895,21.6257018 44.0588596,21.6748246 44.0355263,21.7313158 C44.012193,21.787807 44.0005263,21.8479825 44.0005263,21.9118421 C44.0005263,21.9781579 44.012193,22.0389474 44.0355263,22.0942105 C44.0588596,22.1494737 44.0907895,22.1979825 44.1313158,22.2397368 C44.1718421,22.2814912 44.2203509,22.3140351 44.2768421,22.3373684 C44.3333333,22.3607018 44.3935088,22.3723684 44.4573684,22.3723684 Z" id="Giveitahack." fill="#576574"></path>
            </g>
            <g id="Group-5-Copy" transform="translate(85.000000, 0.000000)">
                <path d="M0,11 C0,4.92486775 4.92817249,0 10.991074,0 L38.1815451,0 C44.1522361,0 49.0109701,4.76342789 49.1686683,10.7021035 L49.172619,11 C49.172619,17.0751322 44.2444466,22 38.1815451,22 L10.991074,22 C5.02038296,22 0.161648924,17.2365721 0.00395076211,11.2978965 L0,11 Z" id="Path" fill="#FFB900"></path>
                <path d="M8.9375,15.8125 L12.1325784,15.8125 C12.6349885,15.8125 13.0823824,15.7502178 13.4747605,15.6256533 C13.8671385,15.5010889 14.1982725,15.3266986 14.468162,15.1024826 C14.7380519,14.8782666 14.9435833,14.6094149 15.0847561,14.2959277 C15.2259289,13.9824404 15.2965157,13.6346981 15.2965157,13.2527003 C15.2965157,12.7046167 15.1314678,12.2592988 14.801372,11.9167465 C14.4712761,11.5741943 13.9844366,11.3385599 13.3408537,11.2098432 C13.6190477,11.1226481 13.8619484,11.0095019 14.0695557,10.8704051 C14.2771634,10.7313082 14.4494774,10.5756026 14.5864983,10.4032883 C14.7235192,10.230974 14.8262848,10.0441273 14.8947953,9.84274826 C14.9633057,9.64138096 14.997561,9.43273549 14.997561,9.21681185 C14.997561,8.85557491 14.9363165,8.52963099 14.8138284,8.23898084 C14.6913403,7.94833068 14.5013795,7.70231587 14.243946,7.50093641 C13.9865129,7.29955695 13.658493,7.14488992 13.2598868,7.0369338 C12.8612805,6.92897768 12.3837833,6.875 11.8273955,6.875 L8.9375,6.875 L8.9375,15.8125 Z M10.2205139,11.7641551 L12.1138937,11.7641551 C12.7574766,11.7641551 13.2370498,11.8949477 13.5526132,12.1565331 C13.8681767,12.4181185 14.0259582,12.7731272 14.0259582,13.2215592 C14.0259582,13.4499273 13.989627,13.659611 13.9169643,13.8506098 C13.8443244,14.0416085 13.7311782,14.2066564 13.5775261,14.3457535 C13.4239071,14.4848504 13.22668,14.5938443 12.9858449,14.6727352 C12.7450202,14.751626 12.4543697,14.7910714 12.1138937,14.7910714 L10.2205139,14.7910714 L10.2205139,11.7641551 Z M10.2205139,10.8548345 L10.2205139,7.88397213 L11.8273955,7.88397213 C12.4709784,7.88397213 12.9474374,8.00334615 13.2567726,8.24209495 C13.5661079,8.48084375 13.7207753,8.85765124 13.7207753,9.37251742 C13.7207753,9.59673345 13.68133,9.80018886 13.602439,9.98288328 C13.5235697,10.1655777 13.4041953,10.3212833 13.2443162,10.45 C13.0844584,10.5787167 12.8820411,10.6783683 12.6370645,10.7489547 C12.3920878,10.8195411 12.1035132,10.8548345 11.7713415,10.8548345 L10.2205139,10.8548345 Z M23.2935526,6.875 L17.7628906,6.875 L17.7628906,15.8125 L23.2935526,15.8125 L23.2997808,14.7661585 L19.0521327,14.7661585 L19.0521327,11.8077526 L22.4714272,11.8077526 L22.4714272,10.7987805 L19.0521327,10.7987805 L19.0521327,7.92134146 L23.2935526,7.92134146 L23.2935526,6.875 Z M31.776391,6.875 L24.7696402,6.875 L24.7696402,7.95248258 L27.6346227,7.95248258 L27.6346227,15.8125 L28.9176367,15.8125 L28.9176367,7.95248258 L31.776391,7.95248258 L31.776391,6.875 Z M40.2841425,15.8125 L36.7153707,6.875 L35.4136721,6.875 L31.8511286,15.8125 L32.8476442,15.8125 C32.9555979,15.8125 33.0479832,15.7813589 33.1248002,15.7190767 C33.2016149,15.6567944 33.2524787,15.5862079 33.2773916,15.5073171 L34.0808324,13.4084059 L38.0482104,13.4084059 L38.8516512,15.5073171 C38.8890205,15.5986643 38.9429982,15.672365 39.013585,15.728419 C39.0841718,15.784473 39.1755188,15.8125 39.2876268,15.8125 L40.2841425,15.8125 Z M37.6932017,12.4866289 L34.4358411,12.4866289 L35.7873655,8.97391115 C35.8329778,8.86180314 35.8786513,8.73101045 35.9243864,8.5815331 L36.0614073,8.09573171 L36.0614073,8.09573171 C36.1070808,8.27012195 36.1537925,8.43101797 36.2015423,8.57841899 L36.2489461,8.71993794 L36.2489461,8.71993794 L37.6932017,12.4866289 Z" id="BETA" fill="#FFFFFF"></path>
            </g>
        </g>
    </g>
</svg>