<svg xmlns="http://www.w3.org/2000/svg" width="120" height="72" viewBox="0 0 120 72">
    <g fill="none" fill-rule="nonzero">
        <path fill="#B1B4BD" d="M9.333.667A8.667 8.667 0 0 0 .667 9.333v53.334a8.667 8.667 0 0 0 8.666 8.666h101.334a8.667 8.667 0 0 0 8.666-8.666V9.333a8.667 8.667 0 0 0-8.666-8.666H9.333zm0-.667h101.334A9.333 9.333 0 0 1 120 9.333v53.334A9.333 9.333 0 0 1 110.667 72H9.333A9.333 9.333 0 0 1 0 62.667V9.333A9.333 9.333 0 0 1 9.333 0z"/>
        <path fill="#A4A7B5" d="M14.667 14.957a1.333 1.333 0 1 1 0-2.666h78a1.333 1.333 0 1 1 0 2.666h-78zm87.079 48c-.964 0-1.746-2.412-1.746-3.333 0-.92.782-3.333 1.746-3.333h2.62c.963 0 1.745 2.413 1.745 3.333 0 .92-.782 3.333-1.746 3.333h-2.619zM28 37.624a1.333 1.333 0 0 1 0-2.667h51.333a1.333 1.333 0 1 1 0 2.667H28zm-13.333 24a1.333 1.333 0 0 1 0-2.667h42a1.333 1.333 0 1 1 0 2.667h-42z"/>
        <path fill="#B1B4BD" d="M.417 24.25v-.5h119.166v.5zM.417 48.25v-.5h119.166v.5z"/>
        <path fill="#A4A7B5" d="M15.08 39.333c-.965 0-1.747-2.413-1.747-3.333 0-.92.782-3.333 1.746-3.333h2.62c.964 0 1.745 2.413 1.745 3.333 0 .92-.781 3.333-1.746 3.333H15.08z"/>
    </g>
</svg>
