<svg xmlns="http://www.w3.org/2000/svg" width="120" height="72" viewBox="0 0 120 72">
    <g fill="#B1B4BD" fill-rule="nonzero">
        <path d="M9.333.667A8.667 8.667 0 0 0 .667 9.333v53.334a8.667 8.667 0 0 0 8.666 8.666h101.334a8.667 8.667 0 0 0 8.666-8.666V9.333a8.667 8.667 0 0 0-8.666-8.666H9.333zm0-.667h101.334A9.333 9.333 0 0 1 120 9.333v53.334A9.333 9.333 0 0 1 110.667 72H9.333A9.333 9.333 0 0 1 0 62.667V9.333A9.333 9.333 0 0 1 9.333 0z"/>
        <path d="M.167 24.5v-1h119.666v1zM.167 48.5v-1h119.666v1z"/>
    </g>
</svg>
