<svg xmlns="http://www.w3.org/2000/svg" width="145" height="87" viewBox="0 0 145 87">
    <g fill="none" fill-rule="nonzero">
        <path fill="#E3E5ED" d="M4 0h137a4 4 0 0 1 4 4v79a4 4 0 0 1-4 4H4a4 4 0 0 1-4-4V4a4 4 0 0 1 4-4z"/>
        <path fill="#FFF" d="M49 21h48c5.523 0 10 4.477 10 10v28c0 5.523-4.477 10-10 10H49c-5.523 0-10-4.477-10-10V31c0-5.523 4.477-10 10-10z"/>
        <path fill="#FE4849" d="M82.512 51.263c0-1.346-.268-2.7-.781-3.95a10.257 10.257 0 0 0-2.24-3.348 10.415 10.415 0 0 0-3.347-2.24 10.305 10.305 0 0 0-3.95-.78c-1.347 0-2.7.268-3.95.78a10.257 10.257 0 0 0-3.348 2.24 10.415 10.415 0 0 0-2.24 3.348 10.305 10.305 0 0 0-.78 3.95h-.953c0-1.465.29-2.946.856-4.307a11.242 11.242 0 0 1 10.4-6.948c1.465 0 2.946.29 4.307.855a11.242 11.242 0 0 1 6.948 10.4h-.922z"/>
        <path fill="#FF8A53" d="M81.56 51.263c0-1.22-.238-2.447-.715-3.586a9.299 9.299 0 0 0-2.03-3.035 9.417 9.417 0 0 0-3.036-2.03 9.401 9.401 0 0 0-3.585-.715c-1.22 0-2.448.238-3.586.714a9.299 9.299 0 0 0-3.035 2.031 9.417 9.417 0 0 0-2.031 3.035 9.401 9.401 0 0 0-.714 3.586h-.938c0-1.346.268-2.7.781-3.95a10.257 10.257 0 0 1 2.24-3.348 10.415 10.415 0 0 1 3.347-2.24c1.25-.52 2.604-.78 3.95-.78 1.347 0 2.7.268 3.95.78 1.25.514 2.389 1.28 3.348 2.24a10.415 10.415 0 0 1 2.24 3.348c.52 1.25.78 2.604.78 3.95h-.966z"/>
        <path fill="#F6DB65" d="M80.607 51.263a8.406 8.406 0 0 0-2.462-5.951 8.406 8.406 0 0 0-5.951-2.462 8.406 8.406 0 0 0-5.952 2.462 8.406 8.406 0 0 0-2.462 5.951h-.952c0-1.22.238-2.447.714-3.586a9.299 9.299 0 0 1 2.03-3.035 9.417 9.417 0 0 1 3.036-2.03 9.401 9.401 0 0 1 3.586-.715c1.22 0 2.447.238 3.585.714a9.299 9.299 0 0 1 3.036 2.031 9.417 9.417 0 0 1 2.03 3.035 9.401 9.401 0 0 1 .715 3.586h-.953z"/>
        <path fill="#8DD46F" d="M79.663 51.263c0-.982-.194-1.956-.566-2.857a7.473 7.473 0 0 0-1.622-2.417 7.594 7.594 0 0 0-2.417-1.622 7.495 7.495 0 0 0-5.714 0c-.9.372-1.726.93-2.417 1.622a7.594 7.594 0 0 0-1.622 2.417 7.495 7.495 0 0 0-.566 2.857h-.952a8.406 8.406 0 0 1 2.463-5.951A8.406 8.406 0 0 1 72.2 42.85a8.406 8.406 0 0 1 5.951 2.462 8.406 8.406 0 0 1 2.462 5.951h-.951z"/>
        <path fill="#01B6F5" d="M78.71 51.263c0-.855-.17-1.704-.49-2.492a6.546 6.546 0 0 0-3.527-3.526 6.5 6.5 0 0 0-2.492-.491c-.856 0-1.704.17-2.492.49a6.546 6.546 0 0 0-3.526 3.527 6.5 6.5 0 0 0-.491 2.492h-.953c0-.982.194-1.956.566-2.857.372-.9.93-1.726 1.622-2.417a7.594 7.594 0 0 1 2.417-1.622 7.495 7.495 0 0 1 5.714 0c.9.372 1.726.93 2.417 1.622a7.594 7.594 0 0 1 1.622 2.417c.372.9.566 1.875.566 2.857h-.953z"/>
        <path fill="#5C56B6" d="M77.758 51.263c0-.736-.141-1.458-.424-2.128a5.66 5.66 0 0 0-1.205-1.807 5.58 5.58 0 0 0-3.935-1.63c-.737 0-1.459.142-2.128.425a5.66 5.66 0 0 0-1.808 1.205 5.58 5.58 0 0 0-1.629 3.935h-.952c0-.855.17-1.704.49-2.492a6.546 6.546 0 0 1 3.527-3.526 6.5 6.5 0 0 1 2.492-.491c.856 0 1.704.17 2.492.49a6.546 6.546 0 0 1 3.527 3.527 6.5 6.5 0 0 1 .49 2.492h-.937z"/>
        <path fill="#F4F6F9" d="M55 51.585c0-2.233 1.772-4.047 3.954-4.047 1.593 0 2.97.968 3.596 2.355a2.942 2.942 0 0 1 2.725 1.265 1.983 1.983 0 0 1 2.189.427 1.417 1.417 0 0 1 1.19-.663c.79 0 1.423.655 1.423 1.455l-15.003.008a4.047 4.047 0 0 1-.074-.8zM89.462 54H72.769c.008-.824.715-1.485 1.587-1.485.27 0 .519.064.744.178.278-.867 1.136-1.499 2.143-1.499.105 0 .21.007.316.021.256-1.47 1.609-2.6 3.24-2.6 1.49 0 2.745.931 3.151 2.21a4.76 4.76 0 0 1 1.203-.157c2.12 0 3.903 1.435 4.309 3.332z"/>
        <path fill="#A4A7B5" d="M97 32.5a2 2 0 1 1 0-4h1.5a2 2 0 1 1 0 4H97z"/>
    </g>
</svg>
