<?xml version="1.0" encoding="UTF-8"?>
<svg width="154px" height="73px" viewBox="0 0 154 73" version="1.1" xmlns="http://www.w3.org/2000/svg" xmlns:xlink="http://www.w3.org/1999/xlink">
    <!-- Generator: Sketch 64 (93537) - https://sketch.com -->
    <title>MonthlyCalendar</title>
    <desc>Created with Sketch.</desc>
    <g id="pages" stroke="none" stroke-width="1" fill="none" fill-rule="evenodd">
        <g id="MonthlyCalendar" fill-rule="nonzero">
            <g id="Group-180" transform="translate(0.000000, 7.000000)">
                <path d="M15.25,4 C14.5596441,4 14,3.44035594 14,2.75 C14,2.05964406 14.5596441,1.5 15.25,1.5 L29.625,1.5 C30.3153559,1.5 30.875,2.05964406 30.875,2.75 C30.875,3.44035594 30.3153559,4 29.625,4 L15.25,4 Z" id="Line-12" fill="#01B6F5"></path>
                <path d="M43.3558528,0.000530819013 L43.4105221,6.82121026e-13 C44.8866878,6.82121026e-13 46.097211,1.14060359 46.2091516,2.58794696 L46.2175992,2.80724478 L46.2175992,2.91693798 C46.2175992,4.36989137 45.1130281,5.56802863 43.6920679,5.71011081 L43.4651914,5.72365194 L43.4105221,5.72418276 C41.9343564,5.72418276 40.7238332,4.58357918 40.6118926,3.1362358 L40.603445,2.91693798 L40.603445,2.80724478 C40.603445,1.3542914 41.7080161,0.156154134 43.1289763,0.0140719511 L43.3558528,0.000530819013 Z M43.6751089,0.557297399 L43.4109965,0.540771174 L43.3647149,0.542614345 C42.2223051,0.565199838 41.2879886,1.43338419 41.160473,2.54482931 L41.145607,2.80724478 L41.145607,2.91693798 C41.145607,4.07653816 42.0192237,5.03638697 43.1445006,5.16688856 L43.4070493,5.18203781 L43.4563293,5.18156842 C44.598739,5.15898293 45.5330556,4.29079857 45.6605633,3.18047479 L45.67487,2.96959884 L45.6754372,2.80724478 C45.6754372,1.6474273 44.8016176,0.687768704 43.6751089,0.557297399 Z" id="button" fill="#E8EAF0"></path>
                <path d="M43.6247223,3.44881413 L42.6165701,2.46139884 C42.5468889,2.39315102 42.5468889,2.28279284 42.6165701,2.21527106 L42.7841012,2.05118587 C42.8537823,1.98293804 42.9664582,1.98293804 43.035398,2.05118587 L43.75,2.75108906 L44.464602,2.05118587 C44.5342831,1.98293804 44.646959,1.98293804 44.7158988,2.05118587 L44.8834299,2.21527106 C44.9531111,2.28351888 44.9531111,2.39387706 44.8834299,2.46139884 L43.8752777,3.44881413 C43.8070792,3.51706196 43.6944034,3.51706196 43.6247223,3.44881413 L43.6247223,3.44881413 Z" id="Shape-Copy" fill="#01B6F5" transform="translate(43.750000, 2.750000) rotate(-90.000000) translate(-43.750000, -2.750000) "></path>
                <path d="M2.75240779,0.000530819013 L2.8070771,6.82121026e-13 C4.28324279,6.82121026e-13 5.49376598,1.14060359 5.60570659,2.58794696 L5.61415419,2.80724478 L5.61415419,2.91693798 C5.61415419,4.36989137 4.5095831,5.56802863 3.0886229,5.71011081 L2.86174641,5.72365194 L2.8070771,5.72418276 C1.3309114,5.72418276 0.120388213,4.58357918 0.00844760439,3.1362358 L8.52651283e-14,2.91693798 L8.52651283e-14,2.80724478 C8.52651283e-14,1.3542914 1.10457109,0.156154134 2.52553129,0.0140719511 L2.75240779,0.000530819013 Z M3.07166393,0.557297399 L2.8089965,0.540771174 L2.76126993,0.542614345 C1.61886015,0.565199838 0.68454362,1.43338419 0.557027993,2.54482931 L0.542161961,2.80724478 L0.542161961,2.91693798 C0.542161961,4.07653816 1.41577873,5.03638697 2.5410556,5.16688856 L2.80360426,5.18203781 L2.85288426,5.18156842 C3.99529404,5.15898293 4.92961057,4.29079857 5.05711827,3.18047479 L5.071425,2.96959884 L5.07199223,2.80724478 C5.07199223,1.6474273 4.19817264,0.687768704 3.07166393,0.557297399 Z" id="button" fill="#E8EAF0" transform="translate(2.807077, 2.862091) scale(-1, 1) translate(-2.807077, -2.862091) "></path>
                <path d="M2.62472226,3.44881413 L1.61657005,2.46139884 C1.54688894,2.39315102 1.54688894,2.28279284 1.61657005,2.21527106 L1.78410123,2.05118587 C1.85378234,1.98293804 1.96645817,1.98293804 2.03539799,2.05118587 L2.75,2.75108906 L3.46460201,2.05118587 C3.53428312,1.98293804 3.64695895,1.98293804 3.71589877,2.05118587 L3.88342995,2.21527106 C3.95311106,2.28351888 3.95311106,2.39387706 3.88342995,2.46139884 L2.87527774,3.44881413 C2.80707921,3.51706196 2.69440337,3.51706196 2.62472226,3.44881413 L2.62472226,3.44881413 Z" id="Shape-Copy" fill="#01B6F5" transform="translate(2.750000, 2.750000) scale(-1, 1) rotate(-90.000000) translate(-2.750000, -2.750000) "></path>
            </g>
            <path d="M8.25,17.5 C7.97385763,17.5 7.75,17.2761424 7.75,17 C7.75,16.7238576 7.97385763,16.5 8.25,16.5 L13,16.5 C13.2761424,16.5 13.5,16.7238576 13.5,17 C13.5,17.2761424 13.2761424,17.5 13,17.5 L8.25,17.5 Z" id="Line-12" fill="#01B6F5"></path>
            <path d="M18.75,22.2 C18.4738576,22.2 18.25,21.9313708 18.25,21.6 C18.25,21.2686292 18.4738576,21 18.75,21 L19.5,21 C19.7761424,21 20,21.2686292 20,21.6 C20,21.9313708 19.7761424,22.2 19.5,22.2 L18.75,22.2 Z" id="Path" fill-opacity="0.31" fill="#202020"></path>
            <path d="M39.75,22.2 C39.4738576,22.2 39.25,21.9313708 39.25,21.6 C39.25,21.2686292 39.4738576,21 39.75,21 L40.5,21 C40.7761424,21 41,21.2686292 41,21.6 C41,21.9313708 40.7761424,22.2 40.5,22.2 L39.75,22.2 Z" id="Path-Copy-20" fill="#202020"></path>
            <path d="M61.75,22.2 C61.4738576,22.2 61.25,21.9313708 61.25,21.6 C61.25,21.2686292 61.4738576,21 61.75,21 L62.5,21 C62.7761424,21 63,21.2686292 63,21.6 C63,21.9313708 62.7761424,22.2 62.5,22.2 L61.75,22.2 Z" id="Path-Copy-21" fill="#202020"></path>
            <path d="M82.75,22.2 C82.4738576,22.2 82.25,21.9313708 82.25,21.6 C82.25,21.2686292 82.4738576,21 82.75,21 L83.5,21 C83.7761424,21 84,21.2686292 84,21.6 C84,21.9313708 83.7761424,22.2 83.5,22.2 L82.75,22.2 Z" id="Path-Copy-22" fill="#202020"></path>
            <path d="M104.75,22.2 C104.473858,22.2 104.25,21.9313708 104.25,21.6 C104.25,21.2686292 104.473858,21 104.75,21 L105.5,21 C105.776142,21 106,21.2686292 106,21.6 C106,21.9313708 105.776142,22.2 105.5,22.2 L104.75,22.2 Z" id="Path-Copy-23" fill="#202020"></path>
            <path d="M18.75,35.2 C18.4738576,35.2 18.25,34.9313708 18.25,34.6 C18.25,34.2686292 18.4738576,34 18.75,34 L19.5,34 C19.7761424,34 20,34.2686292 20,34.6 C20,34.9313708 19.7761424,35.2 19.5,35.2 L18.75,35.2 Z" id="Path" fill="#202020"></path>
            <path d="M39.75,35.2 C39.4738576,35.2 39.25,34.9313708 39.25,34.6 C39.25,34.2686292 39.4738576,34 39.75,34 L40.5,34 C40.7761424,34 41,34.2686292 41,34.6 C41,34.9313708 40.7761424,35.2 40.5,35.2 L39.75,35.2 Z" id="Path-Copy-20" fill="#202020"></path>
            <path d="M61.75,35.2 C61.4738576,35.2 61.25,34.9313708 61.25,34.6 C61.25,34.2686292 61.4738576,34 61.75,34 L62.5,34 C62.7761424,34 63,34.2686292 63,34.6 C63,34.9313708 62.7761424,35.2 62.5,35.2 L61.75,35.2 Z" id="Path-Copy-21" fill="#202020"></path>
            <path d="M82.75,35.2 C82.4738576,35.2 82.25,34.9313708 82.25,34.6 C82.25,34.2686292 82.4738576,34 82.75,34 L83.5,34 C83.7761424,34 84,34.2686292 84,34.6 C84,34.9313708 83.7761424,35.2 83.5,35.2 L82.75,35.2 Z" id="Path-Copy-22" fill="#202020"></path>
            <path d="M104.75,35.2 C104.473858,35.2 104.25,34.9313708 104.25,34.6 C104.25,34.2686292 104.473858,34 104.75,34 L105.5,34 C105.776142,34 106,34.2686292 106,34.6 C106,34.9313708 105.776142,35.2 105.5,35.2 L104.75,35.2 Z" id="Path-Copy-23" fill="#202020"></path>
            <g id="Group-183" transform="translate(125.250000, 34.000000)" fill="#202020">
                <path d="M0.5,1.2 C0.223857625,1.2 7.10542736e-15,0.93137085 7.10542736e-15,0.6 C7.10542736e-15,0.26862915 0.223857625,-5.45674617e-13 0.5,-5.45674617e-13 L1.25,-5.45674617e-13 C1.52614237,-5.45674617e-13 1.75,0.26862915 1.75,0.6 C1.75,0.93137085 1.52614237,1.2 1.25,1.2 L0.5,1.2 Z" id="Path-Copy-24"></path>
            </g>
            <g id="Group-183-Copy" transform="translate(125.250000, 47.000000)" fill="#202020">
                <path d="M0.5,1.2 C0.223857625,1.2 7.10542736e-15,0.93137085 7.10542736e-15,0.6 C7.10542736e-15,0.26862915 0.223857625,-5.45674617e-13 0.5,-5.45674617e-13 L1.25,-5.45674617e-13 C1.52614237,-5.45674617e-13 1.75,0.26862915 1.75,0.6 C1.75,0.93137085 1.52614237,1.2 1.25,1.2 L0.5,1.2 Z" id="Path-Copy-24"></path>
            </g>
            <path d="M125.75,62.2 C125.473858,62.2 125.25,61.9313708 125.25,61.6 C125.25,61.2686292 125.473858,61 125.75,61 L126.5,61 C126.776142,61 127,61.2686292 127,61.6 C127,61.9313708 126.776142,62.2 126.5,62.2 L125.75,62.2 Z" id="Path-Copy-24" fill="#202020" opacity="0.373953683"></path>
            <g id="Group-181-Copy-2" transform="translate(18.250000, 47.000000)" fill="#202020">
                <path d="M0.5,1.2 C0.223857625,1.2 4.88498131e-15,0.93137085 4.88498131e-15,0.6 C4.88498131e-15,0.26862915 0.223857625,0 0.5,0 L1.25,0 C1.52614237,0 1.75,0.26862915 1.75,0.6 C1.75,0.93137085 1.52614237,1.2 1.25,1.2 L0.5,1.2 Z" id="Path"></path>
                <path d="M21.5,1.2 C21.2238576,1.2 21,0.93137085 21,0.6 C21,0.26862915 21.2238576,0 21.5,0 L22.25,0 C22.5261424,0 22.75,0.26862915 22.75,0.6 C22.75,0.93137085 22.5261424,1.2 22.25,1.2 L21.5,1.2 Z" id="Path-Copy-20"></path>
                <path d="M43.5,1.2 C43.2238576,1.2 43,0.93137085 43,0.6 C43,0.26862915 43.2238576,0 43.5,0 L44.25,0 C44.5261424,0 44.75,0.26862915 44.75,0.6 C44.75,0.93137085 44.5261424,1.2 44.25,1.2 L43.5,1.2 Z" id="Path-Copy-21"></path>
                <path d="M64.5,1.2 C64.2238576,1.2 64,0.93137085 64,0.6 C64,0.26862915 64.2238576,0 64.5,0 L65.25,0 C65.5261424,0 65.75,0.26862915 65.75,0.6 C65.75,0.93137085 65.5261424,1.2 65.25,1.2 L64.5,1.2 Z" id="Path-Copy-22"></path>
                <path d="M86.5,1.2 C86.2238576,1.2 86,0.93137085 86,0.6 C86,0.26862915 86.2238576,0 86.5,0 L87.25,0 C87.5261424,0 87.75,0.26862915 87.75,0.6 C87.75,0.93137085 87.5261424,1.2 87.25,1.2 L86.5,1.2 Z" id="Path-Copy-23"></path>
            </g>
            <g id="Group-181-Copy-3" transform="translate(18.250000, 61.000000)" fill="#202020">
                <path d="M0.5,1.2 C0.223857625,1.2 4.88498131e-15,0.93137085 4.88498131e-15,0.6 C4.88498131e-15,0.26862915 0.223857625,0 0.5,0 L1.25,0 C1.52614237,0 1.75,0.26862915 1.75,0.6 C1.75,0.93137085 1.52614237,1.2 1.25,1.2 L0.5,1.2 Z" id="Path"></path>
                <path d="M21.5,1.2 C21.2238576,1.2 21,0.93137085 21,0.6 C21,0.26862915 21.2238576,0 21.5,0 L22.25,0 C22.5261424,0 22.75,0.26862915 22.75,0.6 C22.75,0.93137085 22.5261424,1.2 22.25,1.2 L21.5,1.2 Z" id="Path-Copy-20"></path>
                <path d="M43.5,1.2 C43.2238576,1.2 43,0.93137085 43,0.6 C43,0.26862915 43.2238576,0 43.5,0 L44.25,0 C44.5261424,0 44.75,0.26862915 44.75,0.6 C44.75,0.93137085 44.5261424,1.2 44.25,1.2 L43.5,1.2 Z" id="Path-Copy-21"></path>
                <path d="M64.5,1.2 C64.2238576,1.2 64,0.93137085 64,0.6 C64,0.26862915 64.2238576,0 64.5,0 L65.25,0 C65.5261424,0 65.75,0.26862915 65.75,0.6 C65.75,0.93137085 65.5261424,1.2 65.25,1.2 L64.5,1.2 Z" id="Path-Copy-22"></path>
                <path d="M86.5,1.2 C86.2238576,1.2 86,0.93137085 86,0.6 C86,0.26862915 86.2238576,0 86.5,0 L87.25,0 C87.5261424,0 87.75,0.26862915 87.75,0.6 C87.75,0.93137085 87.5261424,1.2 87.25,1.2 L86.5,1.2 Z" id="Path-Copy-23"></path>
            </g>
            <path d="M29.75,17.5 C29.4738576,17.5 29.25,17.2761424 29.25,17 C29.25,16.7238576 29.4738576,16.5 29.75,16.5 L34.5,16.5 C34.7761424,16.5 35,16.7238576 35,17 C35,17.2761424 34.7761424,17.5 34.5,17.5 L29.75,17.5 Z" id="Line-12-Copy-6" fill="#01B6F5"></path>
            <path d="M51.75,17.5 C51.4738576,17.5 51.25,17.2761424 51.25,17 C51.25,16.7238576 51.4738576,16.5 51.75,16.5 L56.5,16.5 C56.7761424,16.5 57,16.7238576 57,17 C57,17.2761424 56.7761424,17.5 56.5,17.5 L51.75,17.5 Z" id="Line-12-Copy-7" fill="#01B6F5"></path>
            <path d="M72.75,17.5 C72.4738576,17.5 72.25,17.2761424 72.25,17 C72.25,16.7238576 72.4738576,16.5 72.75,16.5 L77.5,16.5 C77.7761424,16.5 78,16.7238576 78,17 C78,17.2761424 77.7761424,17.5 77.5,17.5 L72.75,17.5 Z" id="Line-12-Copy-8" fill="#01B6F5"></path>
            <path d="M93.75,17.5 C93.4738576,17.5 93.25,17.2761424 93.25,17 C93.25,16.7238576 93.4738576,16.5 93.75,16.5 L98.5,16.5 C98.7761424,16.5 99,16.7238576 99,17 C99,17.2761424 98.7761424,17.5 98.5,17.5 L93.75,17.5 Z" id="Line-12-Copy-9" fill="#01B6F5"></path>
            <path d="M115.75,17.5 C115.473858,17.5 115.25,17.2761424 115.25,17 C115.25,16.7238576 115.473858,16.5 115.75,16.5 L120.5,16.5 C120.776142,16.5 121,16.7238576 121,17 C121,17.2761424 120.776142,17.5 120.5,17.5 L115.75,17.5 Z" id="Line-12-Copy-10" fill="#01B6F5"></path>
            <path d="M22.0104587,14.5479198 L22.0104587,19.5055721 L0,19.5055721 L0,14.5479198 L22.0104587,14.5479198 Z M21.399,15.159 L0.611,15.159 L0.611,18.894 L21.399,18.894 L21.399,15.159 Z" id="Rectangle" fill="#B6B8C0"></path>
            <path d="M43.4065001,14.5479198 L43.4065001,19.5055721 L21.3960414,19.5055721 L21.3960414,14.5479198 L43.4065001,14.5479198 Z M42.795,15.159 L22.007,15.159 L22.007,18.894 L42.795,18.894 L42.795,15.159 Z" id="Rectangle-Copy" fill="#B6B8C0"></path>
            <path d="M64.8025415,14.5479198 L64.8025415,19.5055721 L42.7920827,19.5055721 L42.7920827,14.5479198 L64.8025415,14.5479198 Z M64.191,15.159 L43.403,15.159 L43.403,18.894 L64.191,18.894 L64.191,15.159 Z" id="Rectangle-Copy-2" fill="#B6B8C0"></path>
            <path d="M86.1985828,14.5479198 L86.1985828,19.5055721 L64.1881241,19.5055721 L64.1881241,14.5479198 L86.1985828,14.5479198 Z M85.587,15.159 L64.799,15.159 L64.799,18.894 L85.587,18.894 L85.587,15.159 Z" id="Rectangle-Copy-3" fill="#B6B8C0"></path>
            <path d="M107.709042,14.5479198 L107.709042,19.5055721 L85.5841655,19.5055721 L85.5841655,14.5479198 L107.709042,14.5479198 Z M107.097,15.159 L86.195,15.159 L86.195,18.894 L107.097,18.894 L107.097,15.159 Z" id="Rectangle-Copy-4" fill="#B6B8C0"></path>
            <path d="M128.990666,14.5479198 L128.990666,19.5055721 L107.094624,19.5055721 L107.094624,14.5479198 L128.990666,14.5479198 Z M128.379,15.159 L107.705,15.159 L107.705,18.894 L128.379,18.894 L128.379,15.159 Z" id="Rectangle-Copy-5" fill="#B6B8C0"></path>
            <path d="M22.0104587,18.8941308 L22.0104587,32.7670877 L0,32.7670877 L0,18.8941308 L22.0104587,18.8941308 Z M21.399,19.505 L0.611,19.505 L0.611,32.155 L21.399,32.155 L21.399,19.505 Z" id="Rectangle" fill="#B6B8C0"></path>
            <path d="M43.4065001,18.8941308 L43.4065001,32.7670877 L21.3960414,32.7670877 L21.3960414,18.8941308 L43.4065001,18.8941308 Z M42.795,19.505 L22.007,19.505 L22.007,32.155 L42.795,32.155 L42.795,19.505 Z" id="Rectangle-Copy" fill="#B6B8C0"></path>
            <path d="M64.8025415,18.8941308 L64.8025415,32.7670877 L42.7920827,32.7670877 L42.7920827,18.8941308 L64.8025415,18.8941308 Z M64.191,19.505 L43.403,19.505 L43.403,32.155 L64.191,32.155 L64.191,19.505 Z" id="Rectangle-Copy-2" fill="#B6B8C0"></path>
            <path d="M86.1985828,18.8941308 L86.1985828,32.7670877 L64.1881241,32.7670877 L64.1881241,18.8941308 L86.1985828,18.8941308 Z M85.587,19.505 L64.799,19.505 L64.799,32.155 L85.587,32.155 L85.587,19.505 Z" id="Rectangle-Copy-3" fill="#B6B8C0"></path>
            <path d="M107.709042,18.8941308 L107.709042,32.7670877 L85.5841655,32.7670877 L85.5841655,18.8941308 L107.709042,18.8941308 Z M107.097,19.505 L86.195,19.505 L86.195,32.155 L107.097,32.155 L107.097,19.505 Z" id="Rectangle-Copy-4" fill="#B6B8C0"></path>
            <path d="M128.990666,18.8941308 L128.990666,32.7670877 L107.094624,32.7670877 L107.094624,18.8941308 L128.990666,18.8941308 Z M128.379,19.505 L107.705,19.505 L107.705,32.155 L128.379,32.155 L128.379,19.505 Z" id="Rectangle-Copy-5" fill="#B6B8C0"></path>
            <path d="M22.0104587,32.1556464 L22.0104587,46.0286033 L0,46.0286033 L0,32.1556464 L22.0104587,32.1556464 Z M21.399,32.767 L0.611,32.767 L0.611,45.417 L21.399,45.417 L21.399,32.767 Z" id="Rectangle" fill="#B6B8C0"></path>
            <path d="M43.4065001,32.1556464 L43.4065001,46.0286033 L21.3960414,46.0286033 L21.3960414,32.1556464 L43.4065001,32.1556464 Z M42.795,32.767 L22.007,32.767 L22.007,45.417 L42.795,45.417 L42.795,32.767 Z" id="Rectangle-Copy" fill="#B6B8C0"></path>
            <path d="M64.8025415,32.1556464 L64.8025415,46.0286033 L42.7920827,46.0286033 L42.7920827,32.1556464 L64.8025415,32.1556464 Z M64.191,32.767 L43.403,32.767 L43.403,45.417 L64.191,45.417 L64.191,32.767 Z" id="Rectangle-Copy-2" fill="#B6B8C0"></path>
            <path d="M86.1985828,32.1556464 L86.1985828,46.0286033 L64.1881241,46.0286033 L64.1881241,32.1556464 L86.1985828,32.1556464 Z M85.587,32.767 L64.799,32.767 L64.799,45.417 L85.587,45.417 L85.587,32.767 Z" id="Rectangle-Copy-3" fill="#B6B8C0"></path>
            <path d="M107.709042,32.1556464 L107.709042,46.0286033 L85.5841655,46.0286033 L85.5841655,32.1556464 L107.709042,32.1556464 Z M107.097,32.767 L86.195,32.767 L86.195,45.417 L107.097,45.417 L107.097,32.767 Z" id="Rectangle-Copy-4" fill="#B6B8C0"></path>
            <path d="M128.990666,32.1556464 L128.990666,46.0286033 L107.094624,46.0286033 L107.094624,32.1556464 L128.990666,32.1556464 Z M128.379,32.767 L107.705,32.767 L107.705,45.417 L128.379,45.417 L128.379,32.767 Z" id="Rectangle-Copy-5" fill="#B6B8C0"></path>
            <path d="M22.0104587,45.417162 L22.0104587,59.2901189 L0,59.2901189 L0,45.417162 L22.0104587,45.417162 Z M21.399,46.028 L0.611,46.028 L0.611,58.678 L21.399,58.678 L21.399,46.028 Z" id="Rectangle" fill="#B6B8C0"></path>
            <path d="M43.4065001,45.417162 L43.4065001,59.2901189 L21.3960414,59.2901189 L21.3960414,45.417162 L43.4065001,45.417162 Z M42.795,46.028 L22.007,46.028 L22.007,58.678 L42.795,58.678 L42.795,46.028 Z" id="Rectangle-Copy" fill="#B6B8C0"></path>
            <path d="M64.8025415,45.417162 L64.8025415,59.2901189 L42.7920827,59.2901189 L42.7920827,45.417162 L64.8025415,45.417162 Z M64.191,46.028 L43.403,46.028 L43.403,58.678 L64.191,58.678 L64.191,46.028 Z" id="Rectangle-Copy-2" fill="#B6B8C0"></path>
            <path d="M86.1985828,45.417162 L86.1985828,59.2901189 L64.1881241,59.2901189 L64.1881241,45.417162 L86.1985828,45.417162 Z M85.587,46.028 L64.799,46.028 L64.799,58.678 L85.587,58.678 L85.587,46.028 Z" id="Rectangle-Copy-3" fill="#B6B8C0"></path>
            <path d="M107.709042,45.417162 L107.709042,59.2901189 L85.5841655,59.2901189 L85.5841655,45.417162 L107.709042,45.417162 Z M107.097,46.028 L86.195,46.028 L86.195,58.678 L107.097,58.678 L107.097,46.028 Z" id="Rectangle-Copy-4" fill="#B6B8C0"></path>
            <path d="M128.990666,45.417162 L128.990666,59.2901189 L107.094624,59.2901189 L107.094624,45.417162 L128.990666,45.417162 Z M128.379,46.028 L107.705,46.028 L107.705,58.678 L128.379,58.678 L128.379,46.028 Z" id="Rectangle-Copy-5" fill="#B6B8C0"></path>
            <path d="M22.0104587,58.6786776 L22.0104587,72.5516345 L0,72.5516345 L0,58.6786776 L22.0104587,58.6786776 Z M21.399,59.29 L0.611,59.29 L0.611,71.94 L21.399,71.94 L21.399,59.29 Z" id="Rectangle" fill="#B6B8C0"></path>
            <path d="M43.4065001,58.6786776 L43.4065001,72.5516345 L21.3960414,72.5516345 L21.3960414,58.6786776 L43.4065001,58.6786776 Z M42.795,59.29 L22.007,59.29 L22.007,71.94 L42.795,71.94 L42.795,59.29 Z" id="Rectangle-Copy" fill="#B6B8C0"></path>
            <path d="M64.8025415,58.6786776 L64.8025415,72.5516345 L42.7920827,72.5516345 L42.7920827,58.6786776 L64.8025415,58.6786776 Z M64.191,59.29 L43.403,59.29 L43.403,71.94 L64.191,71.94 L64.191,59.29 Z" id="Rectangle-Copy-2" fill="#B6B8C0"></path>
            <path d="M86.1985828,58.6786776 L86.1985828,72.5516345 L64.1881241,72.5516345 L64.1881241,58.6786776 L86.1985828,58.6786776 Z M85.587,59.29 L64.799,59.29 L64.799,71.94 L85.587,71.94 L85.587,59.29 Z" id="Rectangle-Copy-3" fill="#B6B8C0"></path>
            <path d="M107.709042,58.6786776 L107.709042,72.5516345 L85.5841655,72.5516345 L85.5841655,58.6786776 L107.709042,58.6786776 Z M107.097,59.29 L86.195,59.29 L86.195,71.94 L107.097,71.94 L107.097,59.29 Z" id="Rectangle-Copy-4" fill="#B6B8C0"></path>
            <path d="M128.990666,58.6786776 L128.990666,72.5516345 L107.094624,72.5516345 L107.094624,58.6786776 L128.990666,58.6786776 Z M128.379,59.29 L107.705,59.29 L107.705,71.94 L128.379,71.94 L128.379,59.29 Z" id="Rectangle-Copy-5" fill="#B6B8C0"></path>
            <g id="Group-5" transform="translate(104.000000, 0.000000)">
                <path d="M0,11 C0,4.92486775 4.92817249,0 10.991074,0 L38.1815451,0 C44.1522361,0 49.0109701,4.76342789 49.1686683,10.7021035 L49.172619,11 C49.172619,17.0751322 44.2444466,22 38.1815451,22 L10.991074,22 C5.02038296,22 0.161648924,17.2365721 0.00395076211,11.2978965 L0,11 Z" id="Path" fill="#FFB900"></path>
                <path d="M8.9375,15.8125 L12.1325784,15.8125 C12.6349885,15.8125 13.0823824,15.7502178 13.4747605,15.6256533 C13.8671385,15.5010889 14.1982725,15.3266986 14.468162,15.1024826 C14.7380519,14.8782666 14.9435833,14.6094149 15.0847561,14.2959277 C15.2259289,13.9824404 15.2965157,13.6346981 15.2965157,13.2527003 C15.2965157,12.7046167 15.1314678,12.2592988 14.801372,11.9167465 C14.4712761,11.5741943 13.9844366,11.3385599 13.3408537,11.2098432 C13.6190477,11.1226481 13.8619484,11.0095019 14.0695557,10.8704051 C14.2771634,10.7313082 14.4494774,10.5756026 14.5864983,10.4032883 C14.7235192,10.230974 14.8262848,10.0441273 14.8947953,9.84274826 C14.9633057,9.64138096 14.997561,9.43273549 14.997561,9.21681185 C14.997561,8.85557491 14.9363165,8.52963099 14.8138284,8.23898084 C14.6913403,7.94833068 14.5013795,7.70231587 14.243946,7.50093641 C13.9865129,7.29955695 13.658493,7.14488992 13.2598868,7.0369338 C12.8612805,6.92897768 12.3837833,6.875 11.8273955,6.875 L8.9375,6.875 L8.9375,15.8125 Z M10.2205139,11.7641551 L12.1138937,11.7641551 C12.7574766,11.7641551 13.2370498,11.8949477 13.5526132,12.1565331 C13.8681767,12.4181185 14.0259582,12.7731272 14.0259582,13.2215592 C14.0259582,13.4499273 13.989627,13.659611 13.9169643,13.8506098 C13.8443244,14.0416085 13.7311782,14.2066564 13.5775261,14.3457535 C13.4239071,14.4848504 13.22668,14.5938443 12.9858449,14.6727352 C12.7450202,14.751626 12.4543697,14.7910714 12.1138937,14.7910714 L10.2205139,14.7910714 L10.2205139,11.7641551 Z M10.2205139,10.8548345 L10.2205139,7.88397213 L11.8273955,7.88397213 C12.4709784,7.88397213 12.9474374,8.00334615 13.2567726,8.24209495 C13.5661079,8.48084375 13.7207753,8.85765124 13.7207753,9.37251742 C13.7207753,9.59673345 13.68133,9.80018886 13.602439,9.98288328 C13.5235697,10.1655777 13.4041953,10.3212833 13.2443162,10.45 C13.0844584,10.5787167 12.8820411,10.6783683 12.6370645,10.7489547 C12.3920878,10.8195411 12.1035132,10.8548345 11.7713415,10.8548345 L10.2205139,10.8548345 Z M23.2935526,6.875 L17.7628906,6.875 L17.7628906,15.8125 L23.2935526,15.8125 L23.2997808,14.7661585 L19.0521327,14.7661585 L19.0521327,11.8077526 L22.4714272,11.8077526 L22.4714272,10.7987805 L19.0521327,10.7987805 L19.0521327,7.92134146 L23.2935526,7.92134146 L23.2935526,6.875 Z M31.776391,6.875 L24.7696402,6.875 L24.7696402,7.95248258 L27.6346227,7.95248258 L27.6346227,15.8125 L28.9176367,15.8125 L28.9176367,7.95248258 L31.776391,7.95248258 L31.776391,6.875 Z M40.2841425,15.8125 L36.7153707,6.875 L35.4136721,6.875 L31.8511286,15.8125 L32.8476442,15.8125 C32.9555979,15.8125 33.0479832,15.7813589 33.1248002,15.7190767 C33.2016149,15.6567944 33.2524787,15.5862079 33.2773916,15.5073171 L34.0808324,13.4084059 L38.0482104,13.4084059 L38.8516512,15.5073171 C38.8890205,15.5986643 38.9429982,15.672365 39.013585,15.728419 C39.0841718,15.784473 39.1755188,15.8125 39.2876268,15.8125 L40.2841425,15.8125 Z M37.6932017,12.4866289 L34.4358411,12.4866289 L35.7873655,8.97391115 C35.8329778,8.86180314 35.8786513,8.73101045 35.9243864,8.5815331 L36.0614073,8.09573171 L36.0614073,8.09573171 C36.1070808,8.27012195 36.1537925,8.43101797 36.2015423,8.57841899 L36.2489461,8.71993794 L36.2489461,8.71993794 L37.6932017,12.4866289 Z" id="BETA" fill="#FFFFFF"></path>
            </g>
        </g>
    </g>
</svg>