<?xml version="1.0" encoding="UTF-8"?>
<svg width="150px" height="76px" viewBox="0 0 150 76" version="1.1" xmlns="http://www.w3.org/2000/svg" xmlns:xlink="http://www.w3.org/1999/xlink">
    <!-- Generator: Sketch 64 (93537) - https://sketch.com -->
    <title>MonthlyCalendar</title>
    <desc>Created with Sketch.</desc>
    <g id="pages" stroke="none" stroke-width="1" fill="none" fill-rule="evenodd">
        <g id="MonthlyCalendar" fill-rule="nonzero">
            <g id="Group-180" transform="translate(0.000000, 5.000000)">
                <path d="M9.95689655,3.56285546 C9.62362127,3.56285546 9.35344828,3.29268246 9.35344828,2.95940718 C9.35344828,2.6261319 9.62362127,2.35595891 9.95689655,2.35595891 L15.6896552,2.35595891 C16.0229305,2.35595891 16.2931034,2.6261319 16.2931034,2.95940718 C16.2931034,3.29268246 16.0229305,3.56285546 15.6896552,3.56285546 L9.95689655,3.56285546 Z" id="Line-12" fill="#01B6F5"></path>
                <path d="M22.6293103,9.23526925 C22.2960351,9.23526925 22.0258621,8.91106166 22.0258621,8.51113132 C22.0258621,8.11120099 22.2960351,7.78699339 22.6293103,7.78699339 L23.5344828,7.78699339 C23.867758,7.78699339 24.137931,8.11120099 24.137931,8.51113132 C24.137931,8.91106166 23.867758,9.23526925 23.5344828,9.23526925 L22.6293103,9.23526925 Z" id="Path" fill-opacity="0.31" fill="#202020"></path>
                <path d="M47.9741379,9.23526925 C47.6408627,9.23526925 47.3706897,8.91106166 47.3706897,8.51113132 C47.3706897,8.11120099 47.6408627,7.78699339 47.9741379,7.78699339 L48.8793103,7.78699339 C49.2125856,7.78699339 49.4827586,8.11120099 49.4827586,8.51113132 C49.4827586,8.91106166 49.2125856,9.23526925 48.8793103,9.23526925 L47.9741379,9.23526925 Z" id="Path-Copy-20" fill="#202020"></path>
                <path d="M74.5258621,9.23526925 C74.1925868,9.23526925 73.9224138,8.91106166 73.9224138,8.51113132 C73.9224138,8.11120099 74.1925868,7.78699339 74.5258621,7.78699339 L75.4310345,7.78699339 C75.7643098,7.78699339 76.0344828,8.11120099 76.0344828,8.51113132 C76.0344828,8.91106166 75.7643098,9.23526925 75.4310345,9.23526925 L74.5258621,9.23526925 Z" id="Path-Copy-21" fill="#202020"></path>
                <path d="M99.8706897,9.23526925 C99.5374144,9.23526925 99.2672414,8.91106166 99.2672414,8.51113132 C99.2672414,8.11120099 99.5374144,7.78699339 99.8706897,7.78699339 L100.775862,7.78699339 C101.109137,7.78699339 101.37931,8.11120099 101.37931,8.51113132 C101.37931,8.91106166 101.109137,9.23526925 100.775862,9.23526925 L99.8706897,9.23526925 Z" id="Path-Copy-22" fill="#202020"></path>
                <path d="M126.422414,9.23526925 C126.089139,9.23526925 125.818966,8.91106166 125.818966,8.51113132 C125.818966,8.11120099 126.089139,7.78699339 126.422414,7.78699339 L127.327586,7.78699339 C127.660861,7.78699339 127.931034,8.11120099 127.931034,8.51113132 C127.931034,8.91106166 127.660861,9.23526925 127.327586,9.23526925 L126.422414,9.23526925 Z" id="Path-Copy-23" fill="#202020"></path>
                <path d="M22.6293103,24.9249244 C22.2960351,24.9249244 22.0258621,24.6007168 22.0258621,24.2007865 C22.0258621,23.8008562 22.2960351,23.4766486 22.6293103,23.4766486 L23.5344828,23.4766486 C23.867758,23.4766486 24.137931,23.8008562 24.137931,24.2007865 C24.137931,24.6007168 23.867758,24.9249244 23.5344828,24.9249244 L22.6293103,24.9249244 Z" id="Path" fill="#202020"></path>
                <path d="M47.9741379,24.9249244 C47.6408627,24.9249244 47.3706897,24.6007168 47.3706897,24.2007865 C47.3706897,23.8008562 47.6408627,23.4766486 47.9741379,23.4766486 L48.8793103,23.4766486 C49.2125856,23.4766486 49.4827586,23.8008562 49.4827586,24.2007865 C49.4827586,24.6007168 49.2125856,24.9249244 48.8793103,24.9249244 L47.9741379,24.9249244 Z" id="Path-Copy-20" fill="#202020"></path>
                <path d="M74.5258621,24.9249244 C74.1925868,24.9249244 73.9224138,24.6007168 73.9224138,24.2007865 C73.9224138,23.8008562 74.1925868,23.4766486 74.5258621,23.4766486 L75.4310345,23.4766486 C75.7643098,23.4766486 76.0344828,23.8008562 76.0344828,24.2007865 C76.0344828,24.6007168 75.7643098,24.9249244 75.4310345,24.9249244 L74.5258621,24.9249244 Z" id="Path-Copy-21" fill="#202020"></path>
                <path d="M99.8706897,24.9249244 C99.5374144,24.9249244 99.2672414,24.6007168 99.2672414,24.2007865 C99.2672414,23.8008562 99.5374144,23.4766486 99.8706897,23.4766486 L100.775862,23.4766486 C101.109137,23.4766486 101.37931,23.8008562 101.37931,24.2007865 C101.37931,24.6007168 101.109137,24.9249244 100.775862,24.9249244 L99.8706897,24.9249244 Z" id="Path-Copy-22" fill="#202020"></path>
                <path d="M126.422414,24.9249244 C126.089139,24.9249244 125.818966,24.6007168 125.818966,24.2007865 C125.818966,23.8008562 126.089139,23.4766486 126.422414,23.4766486 L127.327586,23.4766486 C127.660861,23.4766486 127.931034,23.8008562 127.931034,24.2007865 C127.931034,24.6007168 127.660861,24.9249244 127.327586,24.9249244 L126.422414,24.9249244 Z" id="Path-Copy-23" fill="#202020"></path>
                <g id="Group-181-Copy-2" transform="translate(22.025862, 39.166304)" fill="#202020">
                    <path d="M0.603448276,1.44827586 C0.270172996,1.44827586 5.8956671e-15,1.12406827 5.8956671e-15,0.724137931 C5.8956671e-15,0.324207595 0.270172996,0 0.603448276,0 L1.50862069,0 C1.84189597,0 2.11206897,0.324207595 2.11206897,0.724137931 C2.11206897,1.12406827 1.84189597,1.44827586 1.50862069,1.44827586 L0.603448276,1.44827586 Z" id="Path"></path>
                    <path d="M25.9482759,1.44827586 C25.6150006,1.44827586 25.3448276,1.12406827 25.3448276,0.724137931 C25.3448276,0.324207595 25.6150006,0 25.9482759,0 L26.8534483,0 C27.1867236,0 27.4568966,0.324207595 27.4568966,0.724137931 C27.4568966,1.12406827 27.1867236,1.44827586 26.8534483,1.44827586 L25.9482759,1.44827586 Z" id="Path-Copy-20"></path>
                    <path d="M52.5,1.44827586 C52.1667247,1.44827586 51.8965517,1.12406827 51.8965517,0.724137931 C51.8965517,0.324207595 52.1667247,0 52.5,0 L53.4051724,0 C53.7384477,0 54.0086207,0.324207595 54.0086207,0.724137931 C54.0086207,1.12406827 53.7384477,1.44827586 53.4051724,1.44827586 L52.5,1.44827586 Z" id="Path-Copy-21"></path>
                    <path d="M77.8448276,1.44827586 C77.5115523,1.44827586 77.2413793,1.12406827 77.2413793,0.724137931 C77.2413793,0.324207595 77.5115523,0 77.8448276,0 L78.75,0 C79.0832753,0 79.3534483,0.324207595 79.3534483,0.724137931 C79.3534483,1.12406827 79.0832753,1.44827586 78.75,1.44827586 L77.8448276,1.44827586 Z" id="Path-Copy-22"></path>
                    <path d="M104.396552,1.44827586 C104.063276,1.44827586 103.793103,1.12406827 103.793103,0.724137931 C103.793103,0.324207595 104.063276,0 104.396552,0 L105.301724,0 C105.634999,0 105.905172,0.324207595 105.905172,0.724137931 C105.905172,1.12406827 105.634999,1.44827586 105.301724,1.44827586 L104.396552,1.44827586 Z" id="Path-Copy-23"></path>
                </g>
                <g id="Group-181-Copy-3" transform="translate(22.025862, 56.062855)" fill="#202020">
                    <path d="M0.603448276,1.44827586 C0.270172996,1.44827586 5.8956671e-15,1.12406827 5.8956671e-15,0.724137931 C5.8956671e-15,0.324207595 0.270172996,0 0.603448276,0 L1.50862069,0 C1.84189597,0 2.11206897,0.324207595 2.11206897,0.724137931 C2.11206897,1.12406827 1.84189597,1.44827586 1.50862069,1.44827586 L0.603448276,1.44827586 Z" id="Path"></path>
                    <path d="M25.9482759,1.44827586 C25.6150006,1.44827586 25.3448276,1.12406827 25.3448276,0.724137931 C25.3448276,0.324207595 25.6150006,0 25.9482759,0 L26.8534483,0 C27.1867236,0 27.4568966,0.324207595 27.4568966,0.724137931 C27.4568966,1.12406827 27.1867236,1.44827586 26.8534483,1.44827586 L25.9482759,1.44827586 Z" id="Path-Copy-20"></path>
                    <path d="M52.5,1.44827586 C52.1667247,1.44827586 51.8965517,1.12406827 51.8965517,0.724137931 C51.8965517,0.324207595 52.1667247,0 52.5,0 L53.4051724,0 C53.7384477,0 54.0086207,0.324207595 54.0086207,0.724137931 C54.0086207,1.12406827 53.7384477,1.44827586 53.4051724,1.44827586 L52.5,1.44827586 Z" id="Path-Copy-21"></path>
                    <path d="M77.8448276,1.44827586 C77.5115523,1.44827586 77.2413793,1.12406827 77.2413793,0.724137931 C77.2413793,0.324207595 77.5115523,0 77.8448276,0 L78.75,0 C79.0832753,0 79.3534483,0.324207595 79.3534483,0.724137931 C79.3534483,1.12406827 79.0832753,1.44827586 78.75,1.44827586 L77.8448276,1.44827586 Z" id="Path-Copy-22"></path>
                    <path d="M104.396552,1.44827586 C104.063276,1.44827586 103.793103,1.12406827 103.793103,0.724137931 C103.793103,0.324207595 104.063276,0 104.396552,0 L105.301724,0 C105.634999,0 105.905172,0.324207595 105.905172,0.724137931 C105.905172,1.12406827 105.634999,1.44827586 105.301724,1.44827586 L104.396552,1.44827586 Z" id="Path-Copy-23"></path>
                </g>
                <path d="M35.9051724,3.56285546 C35.5718971,3.56285546 35.3017241,3.29268246 35.3017241,2.95940718 C35.3017241,2.6261319 35.5718971,2.35595891 35.9051724,2.35595891 L41.637931,2.35595891 C41.9712063,2.35595891 42.2413793,2.6261319 42.2413793,2.95940718 C42.2413793,3.29268246 41.9712063,3.56285546 41.637931,3.56285546 L35.9051724,3.56285546 Z" id="Line-12-Copy-6" fill="#01B6F5"></path>
                <path d="M62.4568966,3.56285546 C62.1236213,3.56285546 61.8534483,3.29268246 61.8534483,2.95940718 C61.8534483,2.6261319 62.1236213,2.35595891 62.4568966,2.35595891 L68.1896552,2.35595891 C68.5229305,2.35595891 68.7931034,2.6261319 68.7931034,2.95940718 C68.7931034,3.29268246 68.5229305,3.56285546 68.1896552,3.56285546 L62.4568966,3.56285546 Z" id="Line-12-Copy-7" fill="#01B6F5"></path>
                <path d="M87.8017241,3.56285546 C87.4684489,3.56285546 87.1982759,3.29268246 87.1982759,2.95940718 C87.1982759,2.6261319 87.4684489,2.35595891 87.8017241,2.35595891 L93.5344828,2.35595891 C93.867758,2.35595891 94.137931,2.6261319 94.137931,2.95940718 C94.137931,3.29268246 93.867758,3.56285546 93.5344828,3.56285546 L87.8017241,3.56285546 Z" id="Line-12-Copy-8" fill="#01B6F5"></path>
                <path d="M113.146552,3.56285546 C112.813276,3.56285546 112.543103,3.29268246 112.543103,2.95940718 C112.543103,2.6261319 112.813276,2.35595891 113.146552,2.35595891 L118.87931,2.35595891 C119.212586,2.35595891 119.482759,2.6261319 119.482759,2.95940718 C119.482759,3.29268246 119.212586,3.56285546 118.87931,3.56285546 L113.146552,3.56285546 Z" id="Line-12-Copy-9" fill="#01B6F5"></path>
                <path d="M26.5643467,5.4883301e-13 L26.5643467,5.98337347 L6.64602473e-14,5.98337347 L6.64602473e-14,5.4883301e-13 L26.5643467,5.4883301e-13 Z M25.8263793,0.737510632 L0.737413793,0.737510632 L0.737413793,5.24526925 L25.8263793,5.24526925 L25.8263793,0.737510632 Z" id="Rectangle" fill="#F1F2F5"></path>
                <path d="M52.3871553,5.4883301e-13 L52.3871553,5.98337347 L25.8228086,5.98337347 L25.8228086,5.4883301e-13 L52.3871553,5.4883301e-13 Z M51.6491379,0.737510632 L26.5601724,0.737510632 L26.5601724,5.24526925 L51.6491379,5.24526925 L51.6491379,0.737510632 Z" id="Rectangle-Copy" fill="#F1F2F5"></path>
                <path d="M78.2099638,5.4883301e-13 L78.2099638,5.98337347 L51.6456171,5.98337347 L51.6456171,5.4883301e-13 L78.2099638,5.4883301e-13 Z M77.4718966,0.737510632 L52.382931,0.737510632 L52.382931,5.24526925 L77.4718966,5.24526925 L77.4718966,0.737510632 Z" id="Rectangle-Copy-2" fill="#F1F2F5"></path>
                <path d="M104.032772,5.4883301e-13 L104.032772,5.98337347 L77.4684257,5.98337347 L77.4684257,5.4883301e-13 L104.032772,5.4883301e-13 Z M103.294655,0.737510632 L78.2056897,0.737510632 L78.2056897,5.24526925 L103.294655,5.24526925 L103.294655,0.737510632 Z" id="Rectangle-Copy-3" fill="#F1F2F5"></path>
                <path d="M129.993671,5.4883301e-13 L129.993671,5.98337347 L103.291234,5.98337347 L103.291234,5.4883301e-13 L129.993671,5.4883301e-13 Z M129.255,0.737510632 L104.028448,0.737510632 L104.028448,5.24526925 L129.255,5.24526925 L129.255,0.737510632 Z" id="Rectangle-Copy-4" fill="#F1F2F5"></path>
                <path d="M26.5643467,5.24542706 L26.5643467,21.9886509 L6.64602473e-14,21.9886509 L6.64602473e-14,5.24542706 L26.5643467,5.24542706 Z M25.8263793,5.98268305 L0.737413793,5.98268305 L0.737413793,21.2499244 L25.8263793,21.2499244 L25.8263793,5.98268305 Z" id="Rectangle" fill="#F1F2F5"></path>
                <path d="M52.3871553,5.24542706 L52.3871553,21.9886509 L25.8228086,21.9886509 L25.8228086,5.24542706 L52.3871553,5.24542706 Z M51.6491379,5.98268305 L26.5601724,5.98268305 L26.5601724,21.2499244 L51.6491379,21.2499244 L51.6491379,5.98268305 Z" id="Rectangle-Copy" fill="#F1F2F5"></path>
                <path d="M78.2099638,5.24542706 L78.2099638,21.9886509 L51.6456171,21.9886509 L51.6456171,5.24542706 L78.2099638,5.24542706 Z M77.4718966,5.98268305 L52.382931,5.98268305 L52.382931,21.2499244 L77.4718966,21.2499244 L77.4718966,5.98268305 Z" id="Rectangle-Copy-2" fill="#F1F2F5"></path>
                <path d="M104.032772,5.24542706 L104.032772,21.9886509 L77.4684257,21.9886509 L77.4684257,5.24542706 L104.032772,5.24542706 Z M103.294655,5.98268305 L78.2056897,5.98268305 L78.2056897,21.2499244 L103.294655,21.2499244 L103.294655,5.98268305 Z" id="Rectangle-Copy-3" fill="#F1F2F5"></path>
                <path d="M129.993671,5.24542706 L129.993671,21.9886509 L103.291234,21.9886509 L103.291234,5.24542706 L129.993671,5.24542706 Z M129.255,5.98268305 L104.028448,5.98268305 L104.028448,21.2499244 L129.255,21.2499244 L129.255,5.98268305 Z" id="Rectangle-Copy-4" fill="#F1F2F5"></path>
                <path d="M26.5643467,21.2507045 L26.5643467,37.9939284 L6.64602473e-14,37.9939284 L6.64602473e-14,21.2507045 L26.5643467,21.2507045 Z M25.8263793,21.9885451 L0.737413793,21.9885451 L0.737413793,37.2557865 L25.8263793,37.2557865 L25.8263793,21.9885451 Z" id="Rectangle" fill="#F1F2F5"></path>
                <path d="M52.3871553,21.2507045 L52.3871553,37.9939284 L25.8228086,37.9939284 L25.8228086,21.2507045 L52.3871553,21.2507045 Z M51.6491379,21.9885451 L26.5601724,21.9885451 L26.5601724,37.2557865 L51.6491379,37.2557865 L51.6491379,21.9885451 Z" id="Rectangle-Copy" fill="#F1F2F5"></path>
                <path d="M78.2099638,21.2507045 L78.2099638,37.9939284 L51.6456171,37.9939284 L51.6456171,21.2507045 L78.2099638,21.2507045 Z M77.4718966,21.9885451 L52.382931,21.9885451 L52.382931,37.2557865 L77.4718966,37.2557865 L77.4718966,21.9885451 Z" id="Rectangle-Copy-2" fill="#F1F2F5"></path>
                <path d="M104.032772,21.2507045 L104.032772,37.9939284 L77.4684257,37.9939284 L77.4684257,21.2507045 L104.032772,21.2507045 Z M103.294655,21.9885451 L78.2056897,21.9885451 L78.2056897,37.2557865 L103.294655,37.2557865 L103.294655,21.9885451 Z" id="Rectangle-Copy-3" fill="#F1F2F5"></path>
                <path d="M129.993671,21.2507045 L129.993671,37.9939284 L103.291234,37.9939284 L103.291234,21.2507045 L129.993671,21.2507045 Z M129.255,21.9885451 L104.028448,21.9885451 L104.028448,37.2557865 L129.255,37.2557865 L129.255,21.9885451 Z" id="Rectangle-Copy-4" fill="#F1F2F5"></path>
                <path d="M26.5643467,37.255982 L26.5643467,53.9992058 L6.64602473e-14,53.9992058 L6.64602473e-14,37.255982 L26.5643467,37.255982 Z M25.8263793,37.9932003 L0.737413793,37.9932003 L0.737413793,53.2604417 L25.8263793,53.2604417 L25.8263793,37.9932003 Z" id="Rectangle" fill="#F1F2F5"></path>
                <path d="M52.3871553,37.255982 L52.3871553,53.9992058 L25.8228086,53.9992058 L25.8228086,37.255982 L52.3871553,37.255982 Z M51.6491379,37.9932003 L26.5601724,37.9932003 L26.5601724,53.2604417 L51.6491379,53.2604417 L51.6491379,37.9932003 Z" id="Rectangle-Copy" fill="#F1F2F5"></path>
                <path d="M78.2099638,37.255982 L78.2099638,53.9992058 L51.6456171,53.9992058 L51.6456171,37.255982 L78.2099638,37.255982 Z M77.4718966,37.9932003 L52.382931,37.9932003 L52.382931,53.2604417 L77.4718966,53.2604417 L77.4718966,37.9932003 Z" id="Rectangle-Copy-2" fill="#F1F2F5"></path>
                <path d="M104.032772,37.255982 L104.032772,53.9992058 L77.4684257,53.9992058 L77.4684257,37.255982 L104.032772,37.255982 Z M103.294655,37.9932003 L78.2056897,37.9932003 L78.2056897,53.2604417 L103.294655,53.2604417 L103.294655,37.9932003 Z" id="Rectangle-Copy-3" fill="#F1F2F5"></path>
                <path d="M129.993671,37.255982 L129.993671,53.9992058 L103.291234,53.9992058 L103.291234,37.255982 L129.993671,37.255982 Z M129.255,37.9932003 L104.028448,37.9932003 L104.028448,53.2604417 L129.255,53.2604417 L129.255,37.9932003 Z" id="Rectangle-Copy-4" fill="#F1F2F5"></path>
                <path d="M26.5643467,53.2612594 L26.5643467,70.0044833 L6.64602473e-14,70.0044833 L6.64602473e-14,53.2612594 L26.5643467,53.2612594 Z M25.8263793,53.9990624 L0.737413793,53.9990624 L0.737413793,69.2663037 L25.8263793,69.2663037 L25.8263793,53.9990624 Z" id="Rectangle" fill="#F1F2F5"></path>
                <path d="M52.3871553,53.2612594 L52.3871553,70.0044833 L25.8228086,70.0044833 L25.8228086,53.2612594 L52.3871553,53.2612594 Z M51.6491379,53.9990624 L26.5601724,53.9990624 L26.5601724,69.2663037 L51.6491379,69.2663037 L51.6491379,53.9990624 Z" id="Rectangle-Copy" fill="#F1F2F5"></path>
                <path d="M78.2099638,53.2612594 L78.2099638,70.0044833 L51.6456171,70.0044833 L51.6456171,53.2612594 L78.2099638,53.2612594 Z M77.4718966,53.9990624 L52.382931,53.9990624 L52.382931,69.2663037 L77.4718966,69.2663037 L77.4718966,53.9990624 Z" id="Rectangle-Copy-2" fill="#F1F2F5"></path>
                <path d="M104.032772,53.2612594 L104.032772,70.0044833 L77.4684257,70.0044833 L77.4684257,53.2612594 L104.032772,53.2612594 Z M103.294655,53.9990624 L78.2056897,53.9990624 L78.2056897,69.2663037 L103.294655,69.2663037 L103.294655,53.9990624 Z" id="Rectangle-Copy-3" fill="#F1F2F5"></path>
                <path d="M129.993671,53.2612594 L129.993671,70.0044833 L103.291234,70.0044833 L103.291234,53.2612594 L129.993671,53.2612594 Z M129.255,53.9990624 L104.028448,53.9990624 L104.028448,69.2663037 L129.255,69.2663037 L129.255,53.9990624 Z" id="Rectangle-Copy-4" fill="#F1F2F5"></path>
            </g>
            <g id="Group-5" transform="translate(100.000000, 0.000000)">
                <path d="M0,11 C0,4.92486775 4.92817249,0 10.991074,0 L38.1815451,0 C44.1522361,0 49.0109701,4.76342789 49.1686683,10.7021035 L49.172619,11 C49.172619,17.0751322 44.2444466,22 38.1815451,22 L10.991074,22 C5.02038296,22 0.161648924,17.2365721 0.00395076211,11.2978965 L0,11 Z" id="Path" fill="#FFB900"></path>
                <path d="M8.9375,15.8125 L12.1325784,15.8125 C12.6349885,15.8125 13.0823824,15.7502178 13.4747605,15.6256533 C13.8671385,15.5010889 14.1982725,15.3266986 14.468162,15.1024826 C14.7380519,14.8782666 14.9435833,14.6094149 15.0847561,14.2959277 C15.2259289,13.9824404 15.2965157,13.6346981 15.2965157,13.2527003 C15.2965157,12.7046167 15.1314678,12.2592988 14.801372,11.9167465 C14.4712761,11.5741943 13.9844366,11.3385599 13.3408537,11.2098432 C13.6190477,11.1226481 13.8619484,11.0095019 14.0695557,10.8704051 C14.2771634,10.7313082 14.4494774,10.5756026 14.5864983,10.4032883 C14.7235192,10.230974 14.8262848,10.0441273 14.8947953,9.84274826 C14.9633057,9.64138096 14.997561,9.43273549 14.997561,9.21681185 C14.997561,8.85557491 14.9363165,8.52963099 14.8138284,8.23898084 C14.6913403,7.94833068 14.5013795,7.70231587 14.243946,7.50093641 C13.9865129,7.29955695 13.658493,7.14488992 13.2598868,7.0369338 C12.8612805,6.92897768 12.3837833,6.875 11.8273955,6.875 L8.9375,6.875 L8.9375,15.8125 Z M10.2205139,11.7641551 L12.1138937,11.7641551 C12.7574766,11.7641551 13.2370498,11.8949477 13.5526132,12.1565331 C13.8681767,12.4181185 14.0259582,12.7731272 14.0259582,13.2215592 C14.0259582,13.4499273 13.989627,13.659611 13.9169643,13.8506098 C13.8443244,14.0416085 13.7311782,14.2066564 13.5775261,14.3457535 C13.4239071,14.4848504 13.22668,14.5938443 12.9858449,14.6727352 C12.7450202,14.751626 12.4543697,14.7910714 12.1138937,14.7910714 L10.2205139,14.7910714 L10.2205139,11.7641551 Z M10.2205139,10.8548345 L10.2205139,7.88397213 L11.8273955,7.88397213 C12.4709784,7.88397213 12.9474374,8.00334615 13.2567726,8.24209495 C13.5661079,8.48084375 13.7207753,8.85765124 13.7207753,9.37251742 C13.7207753,9.59673345 13.68133,9.80018886 13.602439,9.98288328 C13.5235697,10.1655777 13.4041953,10.3212833 13.2443162,10.45 C13.0844584,10.5787167 12.8820411,10.6783683 12.6370645,10.7489547 C12.3920878,10.8195411 12.1035132,10.8548345 11.7713415,10.8548345 L10.2205139,10.8548345 Z M23.2935526,6.875 L17.7628906,6.875 L17.7628906,15.8125 L23.2935526,15.8125 L23.2997808,14.7661585 L19.0521327,14.7661585 L19.0521327,11.8077526 L22.4714272,11.8077526 L22.4714272,10.7987805 L19.0521327,10.7987805 L19.0521327,7.92134146 L23.2935526,7.92134146 L23.2935526,6.875 Z M31.776391,6.875 L24.7696402,6.875 L24.7696402,7.95248258 L27.6346227,7.95248258 L27.6346227,15.8125 L28.9176367,15.8125 L28.9176367,7.95248258 L31.776391,7.95248258 L31.776391,6.875 Z M40.2841425,15.8125 L36.7153707,6.875 L35.4136721,6.875 L31.8511286,15.8125 L32.8476442,15.8125 C32.9555979,15.8125 33.0479832,15.7813589 33.1248002,15.7190767 C33.2016149,15.6567944 33.2524787,15.5862079 33.2773916,15.5073171 L34.0808324,13.4084059 L38.0482104,13.4084059 L38.8516512,15.5073171 C38.8890205,15.5986643 38.9429982,15.672365 39.013585,15.728419 C39.0841718,15.784473 39.1755188,15.8125 39.2876268,15.8125 L40.2841425,15.8125 Z M37.6932017,12.4866289 L34.4358411,12.4866289 L35.7873655,8.97391115 C35.8329778,8.86180314 35.8786513,8.73101045 35.9243864,8.5815331 L36.0614073,8.09573171 L36.0614073,8.09573171 C36.1070808,8.27012195 36.1537925,8.43101797 36.2015423,8.57841899 L36.2489461,8.71993794 L36.2489461,8.71993794 L37.6932017,12.4866289 Z" id="BETA" fill="#FFFFFF"></path>
            </g>
        </g>
    </g>
</svg>