<?xml version="1.0" encoding="UTF-8"?>
<svg width="139px" height="71px" viewBox="0 0 139 71" version="1.1" xmlns="http://www.w3.org/2000/svg" xmlns:xlink="http://www.w3.org/1999/xlink">
    <title>MultiSelect</title>
    <defs>
        <path d="M3.98358413,0.284541724 C1.94065942,0.284541724 0.284541724,1.94065942 0.284541724,3.98358413 L0.284541724,33.6169032 C0.284541724,35.6598279 1.94065942,37.3159456 3.98358413,37.3159456 L57.4774282,37.3159456 C59.5203529,37.3159456 61.1764706,35.6598279 61.1764706,33.6169032 L61.1764706,3.98358413 C61.1764706,1.94065942 59.5203529,0.284541724 57.4774282,0.284541724 L3.98358413,0.284541724 Z" id="path-1"></path>
        <filter x="-2.5%" y="-4.1%" width="104.9%" height="108.1%" filterUnits="objectBoundingBox" id="filter-2">
            <feOffset dx="0" dy="0" in="SourceAlpha" result="shadowOffsetOuter1"></feOffset>
            <feGaussianBlur stdDeviation="0.5" in="shadowOffsetOuter1" result="shadowBlurOuter1"></feGaussianBlur>
            <feColorMatrix values="0 0 0 0 0.643254082   0 0 0 0 0.656386854   0 0 0 0 0.708917942  0 0 0 1 0" type="matrix" in="shadowBlurOuter1"></feColorMatrix>
        </filter>
        <path d="M3.98358413,0.284541724 C1.94065942,0.284541724 0.284541724,1.94065942 0.284541724,3.98358413 L0.284541724,26.2347469 C0.284541724,28.2776716 1.94065942,29.9337893 3.98358413,29.9337893 L57.4774282,29.9337893 C59.5203529,29.9337893 61.1764706,28.2776716 61.1764706,26.2347469 L61.1764706,3.98358413 C61.1764706,1.94065942 59.5203529,0.284541724 57.4774282,0.284541724 L3.98358413,0.284541724 Z" id="path-3"></path>
        <filter x="-2.5%" y="-5.1%" width="104.9%" height="110.1%" filterUnits="objectBoundingBox" id="filter-4">
            <feOffset dx="0" dy="0" in="SourceAlpha" result="shadowOffsetOuter1"></feOffset>
            <feGaussianBlur stdDeviation="0.5" in="shadowOffsetOuter1" result="shadowBlurOuter1"></feGaussianBlur>
            <feColorMatrix values="0 0 0 0 0.643254082   0 0 0 0 0.656386854   0 0 0 0 0.708917942  0 0 0 1 0" type="matrix" in="shadowBlurOuter1"></feColorMatrix>
        </filter>
    </defs>
    <g id="pages" stroke="none" stroke-width="1" fill="none" fill-rule="evenodd">
        <g id="MultiSelect" transform="translate(1.000000, 0.000000)">
            <g id="Group-206" transform="translate(0.000000, 8.000000)">
                <g id="Group-207" fill-rule="nonzero">
                    <g id="Group-124" transform="translate(0.000000, 13.828728)">
                        <g id="Path">
                            <use fill="black" fill-opacity="1" filter="url(#filter-2)" xlink:href="#path-1"></use>
                            <use fill="#FFFFFF" xlink:href="#path-1"></use>
                        </g>
                        <path d="M3.98358413,0.284541724 C1.94065942,0.284541724 0.284541724,1.94065942 0.284541724,3.98358413 L0.284541724,33.608045 C0.284541724,35.6509697 1.94065942,37.3070874 3.98358413,37.3070874 L57.4774282,37.3070874 C59.5203529,37.3070874 61.1764706,35.6509697 61.1764706,33.608045 L61.1764706,3.98358413 C61.1764706,1.94065942 59.5203529,0.284541724 57.4774282,0.284541724 L3.98358413,0.284541724 Z M3.98358413,-4.34125894e-11 L57.4774282,-4.34125894e-11 C59.6775009,-4.34125894e-11 61.4610123,1.78351137 61.4610123,3.98358413 L61.4610123,33.608045 C61.4610123,35.8081177 59.6775009,37.5916291 57.4774282,37.5916291 L3.98358413,37.5916291 C1.78351137,37.5916291 0,35.8081177 0,33.608045 L0,3.98358413 C0,1.78351137 1.78351137,-4.34125894e-11 3.98358413,-4.34125894e-11 Z" id="Rectangle" fill="#E3E5ED"></path>
                        <path d="M6.45909713,15.3652531 C6.03479738,15.3652531 5.69083447,15.0212902 5.69083447,14.5969904 C5.69083447,14.1726907 6.03479738,13.8287278 6.45909713,13.8287278 L42.6954856,13.8287278 C43.1197854,13.8287278 43.4637483,14.1726907 43.4637483,14.5969904 C43.4637483,15.0212902 43.1197854,15.3652531 42.6954856,15.3652531 L6.45909713,15.3652531 Z" id="Path-Copy" fill-opacity="0.6" fill="#A4A7B5"></path>
                        <path d="M6.45909713,31.7548564 C6.03479738,31.7548564 5.69083447,31.4108935 5.69083447,30.9865937 C5.69083447,30.562294 6.03479738,30.2183311 6.45909713,30.2183311 L30.6974626,30.2183311 C31.1217623,30.2183311 31.4657253,30.562294 31.4657253,30.9865937 C31.4657253,31.4108935 31.1217623,31.7548564 30.6974626,31.7548564 L6.45909713,31.7548564 Z" id="Path-Copy-29" fill-opacity="0.6" fill="#A4A7B5"></path>
                        <path d="M6.45909713,7.17045144 C6.03479738,7.17045144 5.69083447,6.82648853 5.69083447,6.40218878 C5.69083447,5.97788903 6.03479738,5.63392613 6.45909713,5.63392613 L18.1110807,5.63392613 C18.5353805,5.63392613 18.8793434,5.97788903 18.8793434,6.40218878 C18.8793434,6.82648853 18.5353805,7.17045144 18.1110807,7.17045144 L6.45909713,7.17045144 Z" id="Path-Copy-3" fill-opacity="0.6" fill="#A4A7B5"></path>
                        <path d="M21.2552668,7.17045144 C20.830967,7.17045144 20.4870041,6.82648853 20.4870041,6.40218878 C20.4870041,5.97788903 20.830967,5.63392613 21.2552668,5.63392613 L47.2481532,5.63392613 C47.672453,5.63392613 48.0164159,5.97788903 48.0164159,6.40218878 C48.0164159,6.82648853 47.672453,7.17045144 47.2481532,7.17045144 L21.2552668,7.17045144 Z" id="Path-Copy-16" fill-opacity="0.6" fill="#A4A7B5"></path>
                        <path d="M6.40218878,23.5600547 C5.97788903,23.5600547 5.63392613,23.2160918 5.63392613,22.7917921 C5.63392613,22.3674923 5.97788903,22.0235294 6.40218878,22.0235294 L12.9324213,22.0235294 C13.3567211,22.0235294 13.700684,22.3674923 13.700684,22.7917921 C13.700684,23.2160918 13.3567211,23.5600547 12.9324213,23.5600547 L6.40218878,23.5600547 Z" id="Path-Copy-12" fill="#C8CAD3"></path>
                        <path d="M15.6213406,23.5600547 C15.1970409,23.5600547 14.853078,23.2160918 14.853078,22.7917921 C14.853078,22.3674923 15.1970409,22.0235294 15.6213406,22.0235294 L32.6511628,22.0235294 C33.0754625,22.0235294 33.4194254,22.3674923 33.4194254,22.7917921 C33.4194254,23.2160918 33.0754625,23.5600547 32.6511628,23.5600547 L15.6213406,23.5600547 Z" id="Path" fill-opacity="0.6" fill="#A4A7B5"></path>
                    </g>
                    <g id="Group-72" transform="translate(0.000000, -0.000000)" fill="#A4A7B5">
                        <path d="M5.15479458,3.51913861 C2.59074664,3.51913861 0.512175103,5.59771015 0.512175103,8.16175809 C0.512175103,10.725806 2.59074664,12.8043776 5.15479458,12.8043776 L56.2401306,12.8043776 C58.8041786,12.8043776 60.8827501,10.725806 60.8827501,8.16175809 C60.8827501,5.59771015 58.8041786,3.51913861 56.2401306,3.51913861 L5.15479458,3.51913861 Z M5.15479458,3.00696351 L56.2401306,3.00696351 C59.0870451,3.00696351 61.3949252,5.31484365 61.3949252,8.16175809 C61.3949252,11.0086725 59.0870451,13.3165527 56.2401306,13.3165527 L5.15479458,13.3165527 C2.30788015,13.3165527 2.32910271e-13,11.0086725 2.32910271e-13,8.16175809 C2.32910271e-13,5.31484365 2.30788015,3.00696351 5.15479458,3.00696351 Z" id="Rectangle"></path>
                        <path d="M5.98088346,8.8887163 C5.50639772,8.8887163 5.12175103,8.50406961 5.12175103,8.02958387 C5.12175103,7.55509813 5.50639772,7.17045144 5.98088346,7.17045144 L35.3566039,7.17045144 C35.8310896,7.17045144 36.2157363,7.55509813 36.2157363,8.02958387 C36.2157363,8.50406961 35.8310896,8.8887163 35.3566039,8.8887163 L5.98088346,8.8887163 Z" id="Line-12"></path>
                        <path d="M25.9557125,1.3 C25.5998482,1.3 25.3113631,1.00898509 25.3113631,0.65 C25.3113631,0.291014913 25.5998482,0 25.9557125,0 L39.8092229,0 C40.1650872,0 40.4535722,0.291014913 40.4535722,0.65 C40.4535722,1.00898509 40.1650872,1.3 39.8092229,1.3 L25.9557125,1.3 Z" id="Line-12"></path>
                    </g>
                    <g id="Group-20" transform="translate(53.223529, 5.200000)">
                        <path d="M3.05882353,0 C4.74816512,0 6.11764706,1.36948194 6.11764706,3.05882353 C6.11764706,4.74816512 4.74816512,6.11764706 3.05882353,6.11764706 C1.36948194,6.11764706 0,4.74816512 0,3.05882353 C0,1.36948194 1.36948194,0 3.05882353,0 Z M3.05882353,0.464285714 C1.62589986,0.464285714 0.464285714,1.62589986 0.464285714,3.05882353 C0.464285714,4.4917472 1.62589986,5.65336134 3.05882353,5.65336134 C4.4917472,5.65336134 5.65336134,4.4917472 5.65336134,3.05882353 C5.65336134,1.62589986 4.4917472,0.464285714 3.05882353,0.464285714 Z" id="Oval" fill="#E3E5ED"></path>
                        <path d="M4.27791577,2.81500016 L3.30264689,2.81500016 L3.30264689,1.83973129 C3.30264689,1.70514276 3.19365797,1.59590793 3.05882353,1.59590793 C2.92398909,1.59590793 2.81500016,1.70514276 2.81500016,1.83973129 L2.81500016,2.81500016 L1.83973129,2.81500016 C1.70489685,2.81500016 1.59590793,2.924235 1.59590793,3.05882353 C1.59590793,3.19341206 1.70489685,3.30264689 1.83973129,3.30264689 L2.81500016,3.30264689 L2.81500016,4.27791577 C2.81500016,4.4125043 2.92398909,4.52173913 3.05882353,4.52173913 C3.19365797,4.52173913 3.30264689,4.4125043 3.30264689,4.27791577 L3.30264689,3.30264689 L4.27791577,3.30264689 C4.41275021,3.30264689 4.52173913,3.19341206 4.52173913,3.05882353 C4.52173913,2.924235 4.41275021,2.81500016 4.27791577,2.81500016 Z" id="Path" fill="#01B6F5"></path>
                    </g>
                </g>
                <g id="Group-208" transform="translate(75.000000, 18.000000)">
                    <g id="Group-124" transform="translate(0.000000, 13.828728)" fill-rule="nonzero">
                        <g id="Path">
                            <use fill="black" fill-opacity="1" filter="url(#filter-4)" xlink:href="#path-3"></use>
                            <use fill="#FFFFFF" xlink:href="#path-3"></use>
                        </g>
                        <path d="M3.98358413,0.284541724 C1.94065942,0.284541724 0.284541724,1.94065942 0.284541724,3.98358413 L0.284541724,26.2347469 C0.284541724,28.2776716 1.94065942,29.9337893 3.98358413,29.9337893 L57.4774282,29.9337893 C59.5203529,29.9337893 61.1764706,28.2776716 61.1764706,26.2347469 L61.1764706,3.98358413 C61.1764706,1.94065942 59.5203529,0.284541724 57.4774282,0.284541724 L3.98358413,0.284541724 Z M3.98358413,-8.14154641e-14 L57.4774282,-8.14154641e-14 C59.6775009,-8.14154641e-14 61.4610123,1.78351137 61.4610123,3.98358413 L61.4610123,26.2347469 C61.4610123,28.4348197 59.6775009,30.2183311 57.4774282,30.2183311 L3.98358413,30.2183311 C1.78351137,30.2183311 0,28.4348197 0,26.2347469 L0,3.98358413 C0,1.78351137 1.78351137,-8.14154641e-14 3.98358413,-8.14154641e-14 Z" id="Rectangle" fill="#E3E5ED"></path>
                        <path d="M6.45909713,15.3652531 C6.03479738,15.3652531 5.69083447,15.0212902 5.69083447,14.5969904 C5.69083447,14.1726907 6.03479738,13.8287278 6.45909713,13.8287278 L42.6954856,13.8287278 C43.1197854,13.8287278 43.4637483,14.1726907 43.4637483,14.5969904 C43.4637483,15.0212902 43.1197854,15.3652531 42.6954856,15.3652531 L6.45909713,15.3652531 Z" id="Path-Copy" fill-opacity="0.6" fill="#A4A7B5"></path>
                        <path d="M6.45909713,7.17045144 C6.03479738,7.17045144 5.69083447,6.82648853 5.69083447,6.40218878 C5.69083447,5.97788903 6.03479738,5.63392613 6.45909713,5.63392613 L18.1110807,5.63392613 C18.5353805,5.63392613 18.8793434,5.97788903 18.8793434,6.40218878 C18.8793434,6.82648853 18.5353805,7.17045144 18.1110807,7.17045144 L6.45909713,7.17045144 Z" id="Path-Copy-3" fill-opacity="0.6" fill="#A4A7B5"></path>
                        <path d="M21.2552668,7.17045144 C20.830967,7.17045144 20.4870041,6.82648853 20.4870041,6.40218878 C20.4870041,5.97788903 20.830967,5.63392613 21.2552668,5.63392613 L47.2481532,5.63392613 C47.672453,5.63392613 48.0164159,5.97788903 48.0164159,6.40218878 C48.0164159,6.82648853 47.672453,7.17045144 47.2481532,7.17045144 L21.2552668,7.17045144 Z" id="Path-Copy-16" fill-opacity="0.6" fill="#A4A7B5"></path>
                        <path d="M6.40218878,23.5600547 C5.97788903,23.5600547 5.63392613,23.2160918 5.63392613,22.7917921 C5.63392613,22.3674923 5.97788903,22.0235294 6.40218878,22.0235294 L12.9324213,22.0235294 C13.3567211,22.0235294 13.700684,22.3674923 13.700684,22.7917921 C13.700684,23.2160918 13.3567211,23.5600547 12.9324213,23.5600547 L6.40218878,23.5600547 Z" id="Path-Copy-12" fill="#C8CAD3"></path>
                        <path d="M15.6213406,23.5600547 C15.1970409,23.5600547 14.853078,23.2160918 14.853078,22.7917921 C14.853078,22.3674923 15.1970409,22.0235294 15.6213406,22.0235294 L32.6511628,22.0235294 C33.0754625,22.0235294 33.4194254,22.3674923 33.4194254,22.7917921 C33.4194254,23.2160918 33.0754625,23.5600547 32.6511628,23.5600547 L15.6213406,23.5600547 Z" id="Path" fill-opacity="0.6" fill="#A4A7B5"></path>
                    </g>
                    <g id="Group-72" transform="translate(0.000000, -0.000000)" fill="#A4A7B5" fill-rule="nonzero">
                        <path d="M5.15479458,3.51913861 C2.59074664,3.51913861 0.512175103,5.59771015 0.512175103,8.16175809 C0.512175103,10.725806 2.59074664,12.8043776 5.15479458,12.8043776 L56.2401306,12.8043776 C58.8041786,12.8043776 60.8827501,10.725806 60.8827501,8.16175809 C60.8827501,5.59771015 58.8041786,3.51913861 56.2401306,3.51913861 L5.15479458,3.51913861 Z M5.15479458,3.00696351 L56.2401306,3.00696351 C59.0870451,3.00696351 61.3949252,5.31484365 61.3949252,8.16175809 C61.3949252,11.0086725 59.0870451,13.3165527 56.2401306,13.3165527 L5.15479458,13.3165527 C2.30788015,13.3165527 2.32910271e-13,11.0086725 2.32910271e-13,8.16175809 C2.32910271e-13,5.31484365 2.30788015,3.00696351 5.15479458,3.00696351 Z" id="Rectangle"></path>
                        <path d="M25.9557125,1.3 C25.5998482,1.3 25.3113631,1.00898509 25.3113631,0.65 C25.3113631,0.291014913 25.5998482,0 25.9557125,0 L39.8092229,0 C40.1650872,0 40.4535722,0.291014913 40.4535722,0.65 C40.4535722,1.00898509 40.1650872,1.3 39.8092229,1.3 L25.9557125,1.3 Z" id="Line-12"></path>
                    </g>
                    <path d="M57.4299212,19.771263 L56.2300116,20.9461887 C56.1940133,20.9814385 56.1467592,20.9991792 56.0995051,20.9991792 C56.0522509,20.9991792 56.0049968,20.9814385 55.9689985,20.9461887 L55.3690606,20.3587259 C55.2968612,20.2880609 55.2968612,20.1738053 55.3690606,20.1031403 C55.4412262,20.0324422 55.5578743,20.0324422 55.6300737,20.1031403 L56.0995051,20.5628104 L57.1689082,19.5156775 C57.2410738,19.4449794 57.3577218,19.4449794 57.4299212,19.5156775 C57.5020868,19.5863425 57.5020868,19.7005649 57.4299212,19.771263 Z" id="Path" fill="#01B6F5" fill-rule="nonzero"></path>
                    <path d="M57.4299212,27.9660647 L56.2300116,29.1409904 C56.1940133,29.1762401 56.1467592,29.1939808 56.0995051,29.1939808 C56.0522509,29.1939808 56.0049968,29.1762401 55.9689985,29.1409904 L55.3690606,28.5535275 C55.2968612,28.4828625 55.2968612,28.368607 55.3690606,28.297942 C55.4412262,28.2272439 55.5578743,28.2272439 55.6300737,28.297942 L56.0995051,28.757612 L57.1689082,27.7104791 C57.2410738,27.639781 57.3577218,27.639781 57.4299212,27.7104791 C57.5020868,27.7811441 57.5020868,27.8953666 57.4299212,27.9660647 Z" id="Path-Copy-27" fill="#01B6F5" fill-rule="nonzero"></path>
                    <g id="Group-92" transform="translate(1.536525, 4.609576)">
                        <path d="M0,3.58522572 C0,1.60516023 1.4966828,0 3.34092765,0 L17.6582516,0 C19.5033949,0 20.9991792,1.60918926 20.9991792,3.58522572 C20.9991792,5.56529121 19.5024964,7.17045144 17.6582516,7.17045144 L3.34092765,7.17045144 C1.49578426,7.17045144 0,5.56126217 0,3.58522572 Z" id="button-[0-16]" fill="#D4D7E2" fill-rule="nonzero"></path>
                        <path d="M3.58522572,3.58522572 C3.58522572,3.09020935 3.98651578,2.68891929 4.48153215,2.68891929 L12.1118741,2.68891929 C12.6068905,2.68891929 13.0081806,3.09020935 13.0081806,3.58522572 C13.0081806,4.08024209 12.6068905,4.48153215 12.1118741,4.48153215 L4.48153215,4.48153215 C3.98651578,4.48153215 3.58522572,4.08024209 3.58522572,3.58522572 Z" id="Path" fill="#576574" fill-rule="nonzero"></path>
                        <g id="Group-29" transform="translate(16.389603, 1.792613)">
                            <rect id="bkgd" x="0" y="0" width="3.58522572" height="3.58522572" rx="1.79261286"></rect>
                            <path d="M1.95119346,1.79263154 L2.65614559,1.08767941 C2.69994351,1.04391886 2.69994351,0.972915414 2.65614559,0.929154867 C2.61234767,0.88535695 2.54141897,0.88535695 2.49762105,0.929154867 L1.79266891,1.634107 L1.08767941,0.929154867 C1.04388149,0.88535695 0.972952784,0.88535695 0.929154867,0.929154867 C0.88535695,0.972915414 0.88535695,1.04391886 0.929154867,1.08767941 L1.63414437,1.79263154 L0.929154867,2.49758368 C0.88535695,2.54134423 0.88535695,2.61234767 0.929154867,2.65610822 C0.951053826,2.67796981 0.979754167,2.68891929 1.00841714,2.68891929 C1.03708011,2.68891929 1.06578045,2.67796981 1.08767941,2.65607085 L1.79266891,1.95111872 L2.49762105,2.65607085 C2.51952001,2.67796981 2.54822035,2.68891929 2.57688332,2.68891929 C2.60554629,2.68891929 2.63424663,2.67796981 2.65614559,2.65607085 C2.69994351,2.6123103 2.69994351,2.54130686 2.65614559,2.49754631 L1.95119346,1.79263154 Z" id="Shape" fill="#8592A0" fill-rule="nonzero"></path>
                        </g>
                    </g>
                    <g id="Group-92-Copy" transform="translate(24.072230, 4.609576)">
                        <path d="M0,3.58522572 C0,1.60516023 1.43074145,0 3.19373195,0 L23.9515485,0 C25.7153979,0 27.1452804,1.60918926 27.1452804,3.58522572 C27.1452804,5.56529121 25.714539,7.17045144 23.9515485,7.17045144 L3.19373195,7.17045144 C1.4298825,7.17045144 0,5.56126217 0,3.58522572 Z" id="button-[0-16]" fill="#D4D7E2" fill-rule="nonzero"></path>
                        <path d="M3.58522572,3.58522572 C3.58522572,3.09020935 3.98651578,2.68891929 4.48153215,2.68891929 L18.7701505,2.68891929 C19.2651669,2.68891929 19.6664569,3.09020935 19.6664569,3.58522572 C19.6664569,4.08024209 19.2651669,4.48153215 18.7701505,4.48153215 L4.48153215,4.48153215 C3.98651578,4.48153215 3.58522572,4.08024209 3.58522572,3.58522572 Z" id="Path" fill="#576574" fill-rule="nonzero"></path>
                        <g id="Group-29" transform="translate(22.023529, 1.792613)">
                            <rect id="bkgd" x="0" y="0" width="3.58522572" height="3.58522572" rx="1.79261286"></rect>
                            <path d="M1.95119346,1.79263154 L2.65614559,1.08767941 C2.69994351,1.04391886 2.69994351,0.972915414 2.65614559,0.929154867 C2.61234767,0.88535695 2.54141897,0.88535695 2.49762105,0.929154867 L1.79266891,1.634107 L1.08767941,0.929154867 C1.04388149,0.88535695 0.972952784,0.88535695 0.929154867,0.929154867 C0.88535695,0.972915414 0.88535695,1.04391886 0.929154867,1.08767941 L1.63414437,1.79263154 L0.929154867,2.49758368 C0.88535695,2.54134423 0.88535695,2.61234767 0.929154867,2.65610822 C0.951053826,2.67796981 0.979754167,2.68891929 1.00841714,2.68891929 C1.03708011,2.68891929 1.06578045,2.67796981 1.08767941,2.65607085 L1.79266891,1.95111872 L2.49762105,2.65607085 C2.51952001,2.67796981 2.54822035,2.68891929 2.57688332,2.68891929 C2.60554629,2.68891929 2.63424663,2.67796981 2.65614559,2.65607085 C2.69994351,2.6123103 2.69994351,2.54130686 2.65614559,2.49754631 L1.95119346,1.79263154 Z" id="Shape" fill="#8592A0" fill-rule="nonzero"></path>
                        </g>
                    </g>
                    <g id="Group-20" transform="translate(53.223529, 5.200000)" fill-rule="nonzero">
                        <path d="M3.05882353,0 C4.74816512,0 6.11764706,1.36948194 6.11764706,3.05882353 C6.11764706,4.74816512 4.74816512,6.11764706 3.05882353,6.11764706 C1.36948194,6.11764706 0,4.74816512 0,3.05882353 C0,1.36948194 1.36948194,0 3.05882353,0 Z M3.05882353,0.464285714 C1.62589986,0.464285714 0.464285714,1.62589986 0.464285714,3.05882353 C0.464285714,4.4917472 1.62589986,5.65336134 3.05882353,5.65336134 C4.4917472,5.65336134 5.65336134,4.4917472 5.65336134,3.05882353 C5.65336134,1.62589986 4.4917472,0.464285714 3.05882353,0.464285714 Z" id="Oval" fill="#E3E5ED"></path>
                        <path d="M4.27791577,2.81500016 L3.30264689,2.81500016 L3.30264689,1.83973129 C3.30264689,1.70514276 3.19365797,1.59590793 3.05882353,1.59590793 C2.92398909,1.59590793 2.81500016,1.70514276 2.81500016,1.83973129 L2.81500016,2.81500016 L1.83973129,2.81500016 C1.70489685,2.81500016 1.59590793,2.924235 1.59590793,3.05882353 C1.59590793,3.19341206 1.70489685,3.30264689 1.83973129,3.30264689 L2.81500016,3.30264689 L2.81500016,4.27791577 C2.81500016,4.4125043 2.92398909,4.52173913 3.05882353,4.52173913 C3.19365797,4.52173913 3.30264689,4.4125043 3.30264689,4.27791577 L3.30264689,3.30264689 L4.27791577,3.30264689 C4.41275021,3.30264689 4.52173913,3.19341206 4.52173913,3.05882353 C4.52173913,2.924235 4.41275021,2.81500016 4.27791577,2.81500016 Z" id="Path" fill="#01B6F5"></path>
                    </g>
                </g>
            </g>
            <g id="Group-5-Copy" transform="translate(87.000000, 0.000000)" fill-rule="nonzero">
                <path d="M0,11 C0,4.92486775 4.92817249,0 10.991074,0 L38.1815451,0 C44.1522361,0 49.0109701,4.76342789 49.1686683,10.7021035 L49.172619,11 C49.172619,17.0751322 44.2444466,22 38.1815451,22 L10.991074,22 C5.02038296,22 0.161648924,17.2365721 0.00395076211,11.2978965 L0,11 Z" id="Path" fill="#FFB900"></path>
                <path d="M8.9375,15.8125 L12.1325784,15.8125 C12.6349885,15.8125 13.0823824,15.7502178 13.4747605,15.6256533 C13.8671385,15.5010889 14.1982725,15.3266986 14.468162,15.1024826 C14.7380519,14.8782666 14.9435833,14.6094149 15.0847561,14.2959277 C15.2259289,13.9824404 15.2965157,13.6346981 15.2965157,13.2527003 C15.2965157,12.7046167 15.1314678,12.2592988 14.801372,11.9167465 C14.4712761,11.5741943 13.9844366,11.3385599 13.3408537,11.2098432 C13.6190477,11.1226481 13.8619484,11.0095019 14.0695557,10.8704051 C14.2771634,10.7313082 14.4494774,10.5756026 14.5864983,10.4032883 C14.7235192,10.230974 14.8262848,10.0441273 14.8947953,9.84274826 C14.9633057,9.64138096 14.997561,9.43273549 14.997561,9.21681185 C14.997561,8.85557491 14.9363165,8.52963099 14.8138284,8.23898084 C14.6913403,7.94833068 14.5013795,7.70231587 14.243946,7.50093641 C13.9865129,7.29955695 13.658493,7.14488992 13.2598868,7.0369338 C12.8612805,6.92897768 12.3837833,6.875 11.8273955,6.875 L8.9375,6.875 L8.9375,15.8125 Z M10.2205139,11.7641551 L12.1138937,11.7641551 C12.7574766,11.7641551 13.2370498,11.8949477 13.5526132,12.1565331 C13.8681767,12.4181185 14.0259582,12.7731272 14.0259582,13.2215592 C14.0259582,13.4499273 13.989627,13.659611 13.9169643,13.8506098 C13.8443244,14.0416085 13.7311782,14.2066564 13.5775261,14.3457535 C13.4239071,14.4848504 13.22668,14.5938443 12.9858449,14.6727352 C12.7450202,14.751626 12.4543697,14.7910714 12.1138937,14.7910714 L10.2205139,14.7910714 L10.2205139,11.7641551 Z M10.2205139,10.8548345 L10.2205139,7.88397213 L11.8273955,7.88397213 C12.4709784,7.88397213 12.9474374,8.00334615 13.2567726,8.24209495 C13.5661079,8.48084375 13.7207753,8.85765124 13.7207753,9.37251742 C13.7207753,9.59673345 13.68133,9.80018886 13.602439,9.98288328 C13.5235697,10.1655777 13.4041953,10.3212833 13.2443162,10.45 C13.0844584,10.5787167 12.8820411,10.6783683 12.6370645,10.7489547 C12.3920878,10.8195411 12.1035132,10.8548345 11.7713415,10.8548345 L10.2205139,10.8548345 Z M23.2935526,6.875 L17.7628906,6.875 L17.7628906,15.8125 L23.2935526,15.8125 L23.2997808,14.7661585 L19.0521327,14.7661585 L19.0521327,11.8077526 L22.4714272,11.8077526 L22.4714272,10.7987805 L19.0521327,10.7987805 L19.0521327,7.92134146 L23.2935526,7.92134146 L23.2935526,6.875 Z M31.776391,6.875 L24.7696402,6.875 L24.7696402,7.95248258 L27.6346227,7.95248258 L27.6346227,15.8125 L28.9176367,15.8125 L28.9176367,7.95248258 L31.776391,7.95248258 L31.776391,6.875 Z M40.2841425,15.8125 L36.7153707,6.875 L35.4136721,6.875 L31.8511286,15.8125 L32.8476442,15.8125 C32.9555979,15.8125 33.0479832,15.7813589 33.1248002,15.7190767 C33.2016149,15.6567944 33.2524787,15.5862079 33.2773916,15.5073171 L34.0808324,13.4084059 L38.0482104,13.4084059 L38.8516512,15.5073171 C38.8890205,15.5986643 38.9429982,15.672365 39.013585,15.728419 C39.0841718,15.784473 39.1755188,15.8125 39.2876268,15.8125 L40.2841425,15.8125 Z M37.6932017,12.4866289 L34.4358411,12.4866289 L35.7873655,8.97391115 C35.8329778,8.86180314 35.8786513,8.73101045 35.9243864,8.5815331 L36.0614073,8.09573171 L36.0614073,8.09573171 C36.1070808,8.27012195 36.1537925,8.43101797 36.2015423,8.57841899 L36.2489461,8.71993794 L36.2489461,8.71993794 L37.6932017,12.4866289 Z" id="BETA" fill="#FFFFFF"></path>
            </g>
        </g>
    </g>
</svg>