<?xml version="1.0" encoding="UTF-8"?>
<svg width="88px" height="77px" viewBox="0 0 88 77" version="1.1" xmlns="http://www.w3.org/2000/svg" xmlns:xlink="http://www.w3.org/1999/xlink">
    <!-- Generator: Sketch 52.5 (67469) - http://www.bohemiancoding.com/sketch -->
    <title>not-found</title>
    <desc>Created with Sketch.</desc>
    <g id="re-design-layout" stroke="none" stroke-width="1" fill="none" fill-rule="evenodd">
        <g id="re-design-layout-componentes-V2" transform="translate(-638.000000, -674.000000)">
            <g id="not-found" transform="translate(638.000000, 674.000000)">
                <g id="stop" transform="translate(0.328761, 0.000000)">
                    <path d="M24.2337058,76.9919934 C22.6679823,76.9919934 20.7465597,75.8826482 19.9637832,74.5268009 L0.587039823,40.9651925 C-0.195736726,39.6091748 -0.195736726,37.3906549 0.587039823,36.0348075 L19.9637832,2.47302876 C20.7465597,1.11701106 22.6681527,0.00783628319 24.2337058,0.00783628319 L62.9871925,0.00783628319 C64.5529159,0.00783628319 66.4743385,1.11718142 67.257115,2.47302876 L86.6340288,36.0346372 C87.4168053,37.3906549 87.4168053,39.6091748 86.6340288,40.9650221 L67.257115,74.5268009 C66.4743385,75.8828186 64.5527456,76.9919934 62.9871925,76.9919934 L24.2337058,76.9919934 Z" id="Path" fill="#E3E5ED"></path>
                    <g id="Group" transform="translate(4.769912, 4.599558)" fill="#FFFFFF" fill-rule="nonzero">
                        <path d="M57.5140597,67.6673274 L20.1671858,67.6673274 C19.6585088,67.6673274 19.1888429,67.3959535 18.9346748,66.9555885 L0.260982301,34.6121814 C0.00664380531,34.1718164 0.00664380531,33.6290686 0.260982301,33.1888739 L18.9345044,0.845466814 C19.1888429,0.405272124 19.6585088,0.133727876 20.1670155,0.133727876 L57.5138894,0.133727876 C58.0225664,0.133727876 58.4922323,0.40510177 58.7464004,0.845466814 L77.4199226,33.1888739 C77.6742611,33.6292389 77.6742611,34.1719867 77.4199226,34.6121814 L58.7465708,66.9555885 C58.4922323,67.3959535 58.0225664,67.6673274 57.5140597,67.6673274 Z M20.9888031,64.820542 L56.6922721,64.820542 L74.5440066,33.9004425 L56.6922721,2.98034292 L20.9888031,2.98034292 L3.13706858,33.9004425 L20.9888031,64.820542 Z" id="Shape"></path>
                    </g>
                </g>
                <g id="unknown" transform="translate(33.650000, 19.250000)" fill="#FFFFFF">
                    <path d="M12.0479601,30.4805591 C11.0634584,30.4805591 10.2655527,29.6819571 10.2655527,28.6981517 L10.2655527,27.5542083 C10.2293475,23.8967917 12.0006149,21.1117801 15.254901,19.729022 C18.3567075,18.4103189 20.3612196,15.3990252 20.3612196,12.0556189 C20.3612196,7.47148984 16.6320891,3.74166314 12.0479601,3.74166314 C7.46383102,3.74166314 3.73400431,7.47148984 3.73400431,12.0556189 C3.73400431,13.0401204 2.93609841,13.8380263 1.95159691,13.8380263 C0.967095225,13.8380263 0.169189498,13.0401204 0.169189498,12.0556189 C0.169189498,5.50596788 5.49761285,0.176848324 12.0479601,0.176848324 C18.5976111,0.176848324 23.9260344,5.50596788 23.9260344,12.0556189 C23.9260344,16.8312175 21.0700052,21.1312754 16.6494954,23.0097656 C14.7299262,23.8250778 13.8080874,25.3060076 13.8303675,27.5361056 L13.8303675,28.6981517 C13.8303675,29.6819571 13.0324617,30.4805591 12.0479601,30.4805591 Z" id="Path"></path>
                    <path d="M12.0479601,37.6101887 C13.0296766,37.6101887 13.8303675,36.809498 13.8303675,35.8277813 C13.8303675,34.8453686 13.0296766,34.0453739 12.0479601,34.0453739 C11.0662436,34.0453739 10.2655527,34.8453686 10.2655527,35.8277813 C10.2655527,36.809498 11.0662436,37.6101887 12.0479601,37.6101887 Z" id="Path"></path>
                </g>
            </g>
        </g>
    </g>
</svg>