<svg xmlns="http://www.w3.org/2000/svg" xmlns:xlink="http://www.w3.org/1999/xlink" width="87" height="78" viewBox="0 0 87 78">
    <defs>
        <rect id="a" width="7.583" height="7.583" rx="3.792"/>
        <rect id="c" width="7.583" height="7.583" rx="3.792"/>
        <rect id="e" width="7.583" height="7.583" rx="3.792"/>
        <rect id="g" width="7.583" height="7.583" rx="3.792"/>
    </defs>
    <g fill="none" fill-rule="evenodd">
        <path fill="#A4A7B5" fill-rule="nonzero" d="M15.6 7.8a1.114 1.114 0 0 1 0-2.229h22.007a1.114 1.114 0 0 1 0 2.229H15.6zm0 4.457a1.114 1.114 0 0 1 0-2.228h36.493a1.114 1.114 0 1 1 0 2.228H15.6zM15.6 27.857a1.114 1.114 0 0 1 0-2.228h22.007a1.114 1.114 0 1 1 0 2.228H15.6zm0 4.457a1.114 1.114 0 1 1 0-2.228h36.493a1.114 1.114 0 1 1 0 2.228H15.6zM15.6 47.914a1.114 1.114 0 1 1 0-2.228h22.007a1.114 1.114 0 1 1 0 2.228H15.6zm0 4.457a1.114 1.114 0 1 1 0-2.228h36.493a1.114 1.114 0 0 1 0 2.228H15.6zM15.6 67.94a1.114 1.114 0 1 1 0-2.228h22.007a1.114 1.114 0 1 1 0 2.228H15.6zm0 4.458a1.114 1.114 0 1 1 0-2.229h36.493a1.114 1.114 0 1 1 0 2.229H15.6z"/>
        <path fill="#A4A7B5" fill-rule="nonzero" d="M15.6 7.8a1.114 1.114 0 0 1 0-2.229h22.007a1.114 1.114 0 0 1 0 2.229H15.6zM15.6 12.257a1.114 1.114 0 0 1 0-2.228h36.493a1.114 1.114 0 1 1 0 2.228H15.6z"/>
        <path fill="#FFF" fill-rule="nonzero" d="M5 0h76.667a5 5 0 0 1 5 5v7.875a5 5 0 0 1-5 5H5a5 5 0 0 1-5-5V5a5 5 0 0 1 5-5z"/>
        <path fill="#E3E5ED" fill-rule="nonzero" d="M5 .5A4.5 4.5 0 0 0 .5 5v7.875a4.5 4.5 0 0 0 4.5 4.5h76.667a4.5 4.5 0 0 0 4.5-4.5V5a4.5 4.5 0 0 0-4.5-4.5H5zM5 0h76.667a5 5 0 0 1 5 5v7.875a5 5 0 0 1-5 5H5a5 5 0 0 1-5-5V5a5 5 0 0 1 5-5z"/>
        <g transform="translate(3.25 5.409)">
            <mask id="b" fill="#fff">
                <use xlink:href="#a"/>
            </mask>
            <use fill="#1DE9B6" xlink:href="#a"/>
            <g fill="#FC0" mask="url(#b)">
                <path d="M0 0h7.583v7.583H0z"/>
            </g>
        </g>
        <path d="M4.875 7.034h4.333v4.333H4.875z"/>
        <path fill="#FFF" fill-rule="nonzero" d="M7.685 10.504a.593.593 0 1 1-1.186-.001.593.593 0 0 1 1.186.001zM6.569 7.491l.1 2.015a.178.178 0 0 0 .178.169h.491a.178.178 0 0 0 .178-.17l.1-2.014a.178.178 0 0 0-.177-.186h-.693a.178.178 0 0 0-.177.186zM5 20.042h76.667a5 5 0 0 1 5 5v7.875a5 5 0 0 1-5 5H5a5 5 0 0 1-5-5v-7.875a5 5 0 0 1 5-5z"/>
        <path fill="#E3E5ED" fill-rule="nonzero" d="M5 20.542a4.5 4.5 0 0 0-4.5 4.5v7.875a4.5 4.5 0 0 0 4.5 4.5h76.667a4.5 4.5 0 0 0 4.5-4.5v-7.875a4.5 4.5 0 0 0-4.5-4.5H5zm0-.5h76.667a5 5 0 0 1 5 5v7.875a5 5 0 0 1-5 5H5a5 5 0 0 1-5-5v-7.875a5 5 0 0 1 5-5z"/>
        <g transform="translate(3.25 25.62)">
            <mask id="d" fill="#fff">
                <use xlink:href="#c"/>
            </mask>
            <use fill="#1DE9B6" xlink:href="#c"/>
            <g fill="#1DE9B6" mask="url(#d)">
                <path d="M0 0h7.583v7.583H0z"/>
            </g>
        </g>
        <path d="M4.875 27.246h4.333v4.333H4.875z"/>
        <path fill="#FFF" fill-rule="nonzero" d="M6.434 30.83L5.2 29.598a.19.19 0 0 1 0-.268l.268-.268a.19.19 0 0 1 .269 0l.83.83 1.778-1.778a.19.19 0 0 1 .268 0l.268.268a.19.19 0 0 1 0 .268l-2.18 2.18a.19.19 0 0 1-.268 0zM5 40.083h76.667a5 5 0 0 1 5 5v7.875a5 5 0 0 1-5 5H5a5 5 0 0 1-5-5v-7.875a5 5 0 0 1 5-5z"/>
        <path fill="#E3E5ED" fill-rule="nonzero" d="M5 40.583a4.5 4.5 0 0 0-4.5 4.5v7.875a4.5 4.5 0 0 0 4.5 4.5h76.667a4.5 4.5 0 0 0 4.5-4.5v-7.875a4.5 4.5 0 0 0-4.5-4.5H5zm0-.5h76.667a5 5 0 0 1 5 5v7.875a5 5 0 0 1-5 5H5a5 5 0 0 1-5-5v-7.875a5 5 0 0 1 5-5z"/>
        <g transform="translate(3.25 45.461)">
            <mask id="f" fill="#fff">
                <use xlink:href="#e"/>
            </mask>
            <use fill="#1DE9B6" xlink:href="#e"/>
            <g fill="#FE4849" mask="url(#f)">
                <path d="M0 0h7.583v7.583H0z"/>
            </g>
        </g>
        <path fill="#FFF" fill-rule="nonzero" d="M7.76 49.253l1.078-1.078a.339.339 0 0 0 0-.48l-.24-.239a.339.339 0 0 0-.478 0l-1.078 1.078-1.078-1.078a.339.339 0 0 0-.48 0l-.239.24a.339.339 0 0 0 0 .479l1.078 1.078-1.078 1.078a.339.339 0 0 0 0 .479l.24.24a.339.339 0 0 0 .479 0l1.078-1.078L8.12 51.05a.339.339 0 0 0 .479 0l.24-.24a.339.339 0 0 0 0-.48L7.76 49.254z"/>
        <path d="M4.875 47.086h4.333v4.333H4.875z"/>
        <path fill="#FFF" fill-rule="nonzero" d="M5 60.125h76.667a5 5 0 0 1 5 5V73a5 5 0 0 1-5 5H5a5 5 0 0 1-5-5v-7.875a5 5 0 0 1 5-5z"/>
        <path fill="#E3E5ED" fill-rule="nonzero" d="M5 60.625a4.5 4.5 0 0 0-4.5 4.5V73A4.5 4.5 0 0 0 5 77.5h76.667a4.5 4.5 0 0 0 4.5-4.5v-7.875a4.5 4.5 0 0 0-4.5-4.5H5zm0-.5h76.667a5 5 0 0 1 5 5V73a5 5 0 0 1-5 5H5a5 5 0 0 1-5-5v-7.875a5 5 0 0 1 5-5z"/>
        <g transform="translate(3.25 65.487)">
            <mask id="h" fill="#fff">
                <use xlink:href="#g"/>
            </mask>
            <use fill="#1DE9B6" xlink:href="#g"/>
            <g fill="#01B6F5" mask="url(#h)">
                <path d="M0 0h7.583v7.583H0z"/>
            </g>
        </g>
        <path fill="#FFF" fill-rule="nonzero" d="M6.513 70.525h.148v-1.07h-.148a.148.148 0 0 1-.148-.148v-.354c0-.081.066-.148.148-.148h.83c.08 0 .147.067.147.148v1.572h.148c.082 0 .148.066.148.148v.354a.148.148 0 0 1-.148.148H6.513a.148.148 0 0 1-.148-.148v-.354c0-.082.066-.148.148-.148zm.563-3.142a.533.533 0 1 0 0 1.067.533.533 0 0 0 0-1.067z"/>
        <path d="M4.875 67.112h4.333v4.334H4.875z"/>
        <path fill="#A4A7B5" fill-rule="nonzero" d="M80.229 5.571a1.114 1.114 0 0 1 0-2.228h.835a1.114 1.114 0 0 1 0 2.228h-.835zM80.229 25.629a1.114 1.114 0 1 1 0-2.229h.835a1.114 1.114 0 1 1 0 2.229h-.835zM80.229 45.686a1.114 1.114 0 1 1 0-2.229h.835a1.114 1.114 0 1 1 0 2.229h-.835zM80.229 65.743a1.114 1.114 0 1 1 0-2.229h.835a1.114 1.114 0 1 1 0 2.229h-.835zM15.6 7.8a1.114 1.114 0 0 1 0-2.229h22.007a1.114 1.114 0 0 1 0 2.229H15.6zm0 4.457a1.114 1.114 0 0 1 0-2.228h36.493a1.114 1.114 0 1 1 0 2.228H15.6zM15.6 27.857a1.114 1.114 0 0 1 0-2.228h22.007a1.114 1.114 0 1 1 0 2.228H15.6zm0 4.457a1.114 1.114 0 1 1 0-2.228h15.321a1.114 1.114 0 1 1 0 2.228H15.6zM15.6 47.914a1.114 1.114 0 1 1 0-2.228h22.007a1.114 1.114 0 1 1 0 2.228H15.6zm0 4.457a1.114 1.114 0 1 1 0-2.228h44.293a1.114 1.114 0 0 1 0 2.228H15.6zM15.6 67.94a1.114 1.114 0 1 1 0-2.228h14.207a1.114 1.114 0 1 1 0 2.228H15.6zm0 4.458a1.114 1.114 0 1 1 0-2.229h48.75a1.114 1.114 0 1 1 0 2.229H15.6z"/>
    </g>
</svg>
