<svg xmlns="http://www.w3.org/2000/svg" width="153" height="27" viewBox="0 0 153 27">
    <g fill="none" fill-rule="nonzero">
        <path fill="#E3E5ED" d="M110.79.737c7.196 0 13.081 5.855 13.081 13.016 0 7.162-5.885 13.017-13.08 13.017H43.469c-7.195 0-13.08-5.855-13.08-13.017 0-7.161 5.885-13.016 13.08-13.016h67.322zm0 1.474H43.47c-6.383 0-11.607 5.196-11.607 11.542s5.224 11.543 11.607 11.543h67.322c6.383 0 11.606-5.197 11.606-11.543 0-6.346-5.223-11.542-11.606-11.542z"/>
        <path fill="#576574" d="M42.692 16.067a2.313 2.313 0 0 1 0-4.627h1.35a2.313 2.313 0 1 1 0 4.627h-1.35zm22.62 0a2.313 2.313 0 1 1 0-4.627h1.349a2.313 2.313 0 0 1 0 4.627h-1.35zm23.064 0a2.313 2.313 0 0 1 0-4.627h1.35a2.313 2.313 0 0 1 0 4.627h-1.35zm20.632 0a2.313 2.313 0 0 1 0-4.627h1.35a2.313 2.313 0 0 1 0 4.627h-1.35z"/>
        <path fill="#E3E5ED" d="M55.332 25.858h-1.474V1.765h1.474zM78.105 25.567h-1.473V1.474h1.473zM100.21 25.567h-1.473V1.474h1.474z"/>
        <g>
            <path fill="#E3E5ED" d="M.59 14.737c0-6.186 5.014-11.2 11.2-11.2 6.185 0 11.2 5.014 11.2 11.2 0 6.185-5.015 11.2-11.2 11.2-6.186 0-11.2-5.015-11.2-11.2zm1.178 0c0 5.534 4.487 10.02 10.021 10.02 5.535 0 10.022-4.486 10.022-10.02 0-5.535-4.487-10.021-10.022-10.021-5.534 0-10.02 4.486-10.02 10.02z"/>
            <path fill="#01B6F5" d="M10.142 14.238l2.328-2.328a.41.41 0 0 1 .58 0l.387.387a.41.41 0 0 1 0 .58l-1.65 1.65 1.65 1.651a.41.41 0 0 1 0 .58l-.387.387a.41.41 0 0 1-.58 0l-2.328-2.328a.407.407 0 0 1 0-.579z"/>
        </g>
        <g>
            <path fill="#E3E5ED" d="M152.674 14.737c0-6.186-5.015-11.2-11.2-11.2-6.186 0-11.2 5.014-11.2 11.2 0 6.185 5.014 11.2 11.2 11.2 6.185 0 11.2-5.015 11.2-11.2zm-1.18 0c0 5.534-4.486 10.02-10.02 10.02-5.535 0-10.021-4.486-10.021-10.02 0-5.535 4.486-10.021 10.02-10.021 5.535 0 10.022 4.486 10.022 10.02z"/>
            <path fill="#01B6F5" d="M143.121 14.238l-2.328-2.328a.41.41 0 0 0-.58 0l-.387.387a.41.41 0 0 0 0 .58l1.65 1.65-1.65 1.651a.41.41 0 0 0 0 .58l.387.387c.16.161.421.161.58 0l2.328-2.328a.407.407 0 0 0 0-.579z"/>
        </g>
    </g>
</svg>
