<?xml version="1.0" encoding="UTF-8"?>
<svg width="142px" height="83px" viewBox="0 0 142 83" version="1.1" xmlns="http://www.w3.org/2000/svg" xmlns:xlink="http://www.w3.org/1999/xlink">
    <title>PathStep</title>
    <defs>
        <filter x="-13.8%" y="-50.0%" width="127.6%" height="200.0%" filterUnits="objectBoundingBox" id="filter-1">
            <feGaussianBlur stdDeviation="2" in="SourceGraphic"></feGaussianBlur>
        </filter>
        <filter x="-13.9%" y="-50.4%" width="127.8%" height="200.7%" filterUnits="objectBoundingBox" id="filter-2">
            <feGaussianBlur stdDeviation="2" in="SourceGraphic"></feGaussianBlur>
        </filter>
        <filter x="-14.1%" y="-50.9%" width="128.1%" height="201.8%" filterUnits="objectBoundingBox" id="filter-3">
            <feGaussianBlur stdDeviation="2" in="SourceGraphic"></feGaussianBlur>
        </filter>
    </defs>
    <g id="components-icons" stroke="none" stroke-width="1" fill="none" fill-rule="evenodd">
        <g id="PathStep" transform="translate(6.000000, 6.000000)" fill-rule="nonzero">
            <g id="Group-35" transform="translate(-0.000000, 0.000000)">
                <path d="M37.639145,0 C40.8032506,0 43.3745054,2.62990508 43.4277299,5.89663088 L43.4285714,6 C43.4285714,9.3137085 40.8339267,12 37.639145,12 L5.78942638,12 C2.59201448,12 0,9.31443709 0,6 C0,2.6862915 2.59464476,0 5.78942638,0 L37.639145,0 Z" id="Path" fill-opacity="0.06" fill="#061C3F" filter="url(#filter-1)"></path>
                <path d="M36.568745,0.285714286 C39.6932504,0.285714286 42.232325,2.79038579 42.2848833,5.90155322 L42.2857143,6 C42.2857143,9.15591286 39.7254361,11.7142857 36.568745,11.7142857 L6.57411218,11.7142857 C3.41671721,11.7142857 0.857142857,9.15660675 0.857142857,6 C0.857142857,2.84408714 3.41742106,0.285714286 6.57411218,0.285714286 L36.568745,0.285714286 Z" id="Path" fill="#FFFFFF"></path>
                <g id="cancel" transform="translate(36.139942, 6.084548) rotate(-270.000000) translate(-36.139942, -6.084548) translate(33.139942, 3.227405)" fill="#01B6F5">
                    <ellipse id="Oval" cx="2.90977444" cy="2.85157895" rx="2.90977444" ry="2.85157895"></ellipse>
                </g>
                <path d="M37.8315239,5.31622563 L36.0613658,7.06402921 C36.0082595,7.11646628 35.9385483,7.14285714 35.868837,7.14285714 C35.7991257,7.14285714 35.7294144,7.11646628 35.6763081,7.06402921 L34.791254,6.19012742 C34.6847423,6.08500713 34.6847423,5.9150421 34.791254,5.8099218 C34.8977158,5.70475226 35.0698,5.70475226 35.1763116,5.8099218 L35.868837,6.49372078 L37.4464663,4.93602001 C37.5529281,4.83085047 37.7250122,4.83085047 37.8315239,4.93602001 C37.9379857,5.04114031 37.9379857,5.21105609 37.8315239,5.31622563 Z" id="checkmark" fill="#FFFFFF"></path>
                <path d="M7.90590248,7.42857143 C7.16889289,7.42857143 6.57142857,6.78897821 6.57142857,6 C6.57142857,5.21102179 7.16889289,4.57142857 7.90590248,4.57142857 L27.5226689,4.57142857 C28.2596785,4.57142857 28.8571429,5.21102179 28.8571429,6 C28.8571429,6.78897821 28.2596785,7.42857143 27.5226689,7.42857143 L7.90590248,7.42857143 Z" id="Path" fill="#01B6F5"></path>
            </g>
            <g id="Group-35-Copy-3" transform="translate(47.000000, 22.000000)">
                <path d="M37.3722008,0 C40.5138658,0 43.0668848,2.61125327 43.1197318,5.8548108 L43.1205674,5.95744681 C43.1205674,9.24765383 40.5443244,11.9148936 37.3722008,11.9148936 L5.74836662,11.9148936 C2.5736314,11.9148936 0,9.24837725 0,5.95744681 C0,2.66723979 2.57624302,0 5.74836662,0 L37.3722008,0 Z" id="Path" fill-opacity="0.06" fill="#061C3F" filter="url(#filter-2)"></path>
                <path d="M36.3093922,0.283687943 C39.411738,0.283687943 41.9328049,2.77059582 41.9849905,5.85969823 L41.9858156,5.95744681 C41.9858156,9.0909773 39.4436954,11.6312057 36.3093922,11.6312057 L6.52748727,11.6312057 C3.39248517,11.6312057 0.85106383,9.09166628 0.85106383,5.95744681 C0.85106383,2.82391631 3.39318403,0.283687943 6.52748727,0.283687943 L36.3093922,0.283687943 Z" id="Path" fill="#01B6F5"></path>
                <g id="cancel" transform="translate(35.883630, 6.041395) rotate(-270.000000) translate(-35.883630, -6.041395) translate(32.904907, 3.204516)" fill="#01B6F5">
                    <ellipse id="Oval" cx="2.88913774" cy="2.83135498" rx="2.88913774" ry="2.83135498"></ellipse>
                </g>
                <path d="M37.5632152,5.27852191 L35.8056114,7.01392971 C35.7528818,7.06599489 35.6836649,7.09219858 35.614448,7.09219858 C35.5452312,7.09219858 35.4760143,7.06599489 35.4232847,7.01392971 L34.5445075,6.14622581 C34.4387513,6.04185105 34.4387513,5.87309145 34.5445075,5.76871668 C34.6502143,5.66429302 34.821078,5.66429302 34.9268343,5.76871668 L35.614448,6.44766603 L37.1808885,4.90101278 C37.2865952,4.79658912 37.457459,4.79658912 37.5632152,4.90101278 C37.668922,5.00538754 37.668922,5.17409825 37.5632152,5.27852191 Z" id="checkmark" fill="#FFFFFF"></path>
                <path d="M7.84983225,7.37588652 C7.11804968,7.37588652 6.5248227,6.74082943 6.5248227,5.95744681 C6.5248227,5.17406418 7.11804968,4.53900709 7.84983225,4.53900709 L27.3274727,4.53900709 C28.0592553,4.53900709 28.6524823,5.17406418 28.6524823,5.95744681 C28.6524823,6.74082943 28.0592553,7.37588652 27.3274727,7.37588652 L7.84983225,7.37588652 Z" id="Path" fill="#FFFFFF"></path>
            </g>
            <g id="Group-52" transform="translate(95.122302, 41.187050)">
                <path d="M33.950741,5.30242517e-13 C37.0170084,5.30242517e-13 39.5087569,2.45962346 39.5603356,5.51483463 L39.5611511,5.61151079 C39.5611511,8.71066262 37.0488836,11.2230216 33.950741,11.2230216 L-1.86517468e-14,11.2230216 L1.68249494,9.5583692 C3.88564871,7.37857949 3.88489454,3.84369592 1.68249494,1.66465238 L-1.86517468e-14,5.30242517e-13 L33.950741,5.30242517e-13 Z" id="brand-blue-[0-16]-copy" fill="#F1F3F4"></path>
                <path d="M11.1306165,7.01438849 C10.4068624,7.01438849 9.82014388,6.38629875 9.82014388,5.61151079 C9.82014388,4.83672283 10.4068624,4.20863309 11.1306165,4.20863309 L30.3945634,4.20863309 C31.1183174,4.20863309 31.705036,4.83672283 31.705036,5.61151079 C31.705036,6.38629875 31.1183174,7.01438849 30.3945634,7.01438849 L11.1306165,7.01438849 Z" id="Path-Copy-33" fill="#B7BEC2"></path>
            </g>
            <g id="Group-51" transform="translate(16.000000, 59.000000)">
                <g id="Group-35" transform="translate(-0.000000, 0.000000)">
                    <path d="M36.962182,0 C40.0693792,0 42.5943884,2.58260463 42.6466556,5.79057636 L42.647482,5.89208633 C42.647482,9.14619576 40.0995035,11.7841727 36.962182,11.7841727 L5.68530001,11.7841727 C2.54539552,11.7841727 0,9.14691125 0,5.89208633 C0,2.63797691 2.54797849,0 5.68530001,0 L36.962182,0 Z" id="Path" fill-opacity="0.06" fill="#061C3F" filter="url(#filter-3)"></path>
                    <path d="M35.9110337,0.28057554 C38.979343,0.28057554 41.4727508,2.740199 41.5243638,5.79541017 L41.5251799,5.89208633 C41.5251799,8.99123816 39.0109498,11.5035971 35.9110337,11.5035971 L6.45587275,11.5035971 C3.35526546,11.5035971 0.841726619,8.99191958 0.841726619,5.89208633 C0.841726619,2.7929345 3.35595665,0.28057554 6.45587275,0.28057554 L35.9110337,0.28057554 Z" id="Path" fill="#FFFFFF"></path>
                </g>
                <circle id="Oval" fill="#FE4849" cx="35.3470541" cy="5.88662249" r="2.80029156"></circle>
                <path d="M6.92198337,7.29496403 C6.19822935,7.29496403 5.61151079,6.66687429 5.61151079,5.89208633 C5.61151079,5.11729837 6.19822935,4.48920863 6.92198337,4.48920863 L25.9053548,4.48920863 C26.6291088,4.48920863 27.2158273,5.11729837 27.2158273,5.89208633 C27.2158273,6.66687429 26.6291088,7.29496403 25.9053548,7.29496403 L6.92198337,7.29496403 Z" id="Path-Copy-36" fill="#FE4849"></path>
            </g>
        </g>
    </g>
</svg>