<?xml version="1.0" encoding="UTF-8"?>
<svg width="141px" height="84px" viewBox="0 0 141 84" version="1.1" xmlns="http://www.w3.org/2000/svg" xmlns:xlink="http://www.w3.org/1999/xlink">
    <title>Path</title>
    <defs>
        <filter x="-13.3%" y="-59.7%" width="126.6%" height="219.4%" filterUnits="objectBoundingBox" id="filter-1">
            <feGaussianBlur stdDeviation="2" in="SourceGraphic"></feGaussianBlur>
        </filter>
        <filter x="-13.3%" y="-59.7%" width="126.6%" height="219.4%" filterUnits="objectBoundingBox" id="filter-2">
            <feGaussianBlur stdDeviation="2" in="SourceGraphic"></feGaussianBlur>
        </filter>
        <filter x="-16.5%" y="-59.7%" width="133.0%" height="219.4%" filterUnits="objectBoundingBox" id="filter-3">
            <feGaussianBlur stdDeviation="2" in="SourceGraphic"></feGaussianBlur>
        </filter>
        <filter x="-14.5%" y="-65.4%" width="129.1%" height="230.8%" filterUnits="objectBoundingBox" id="filter-4">
            <feGaussianBlur stdDeviation="2" in="SourceGraphic"></feGaussianBlur>
        </filter>
        <filter x="-14.5%" y="-65.4%" width="129.1%" height="230.8%" filterUnits="objectBoundingBox" id="filter-5">
            <feGaussianBlur stdDeviation="2" in="SourceGraphic"></feGaussianBlur>
        </filter>
        <filter x="-18.1%" y="-65.4%" width="136.1%" height="230.8%" filterUnits="objectBoundingBox" id="filter-6">
            <feGaussianBlur stdDeviation="2" in="SourceGraphic"></feGaussianBlur>
        </filter>
    </defs>
    <g id="components-icons" stroke="none" stroke-width="1" fill="none" fill-rule="evenodd">
        <g id="Path" transform="translate(6.000000, 6.000000)" fill-rule="nonzero">
            <g id="Group-44">
                <path d="M96.94125,9.81382979 L130.451251,9.81382979 C132.936837,9.81382979 134.956157,7.71656523 134.999304,5.11377263 L135.000009,5.02872182 L134.999338,4.94403421 C134.957934,2.36338105 132.978678,0.285475317 130.532947,0.240118695 L130.451251,0.239361702 L96.94125,0.239361702 L96.94125,9.81382979 Z" id="Path" fill="#F1F3F4"></path>
                <g id="Group-40" transform="translate(59.903376, 0.000000)">
                    <path d="M40.3262271,0 C42.977007,0 45.1311168,2.20324495 45.1757064,4.93999661 L45.1764114,5.02659574 C45.1764114,7.80270792 43.0027064,10.0531915 40.3262271,10.0531915 L0,10.0531915 L0,0 L40.3262271,0 Z" id="Path" fill-opacity="0.06" fill="#061C3F" filter="url(#filter-1)"></path>
                    <g id="Group-37" transform="translate(4.965894, 0.239362)">
                        <path d="M34.4635886,0 C37.0811929,0 39.2083431,2.09832852 39.2523748,4.70475868 L39.2530709,4.78723404 C39.2530709,7.4311504 37.108157,9.57446809 34.4635886,9.57446809 L0,9.57446809 L0,0 L34.4635886,0 Z" id="Path" fill="#01B6F5"></path>
                        <path d="M35.9356298,4.07118043 L34.081907,5.90149336 C34.0262937,5.95640585 33.9532916,5.98404255 33.8802894,5.98404255 C33.8072872,5.98404255 33.734285,5.95640585 33.6786718,5.90149336 L32.7518365,4.9863369 C32.6402967,4.87625414 32.6402967,4.6982655 32.7518365,4.58818274 C32.8633241,4.47804841 33.0435319,4.47804841 33.1550717,4.58818274 L33.8802894,5.30426212 L35.5323946,3.67302628 C35.6438821,3.56289195 35.82409,3.56289195 35.9356298,3.67302628 C36.0471174,3.78310904 36.0471174,3.96104611 35.9356298,4.07118043 Z" id="checkmark" fill="#FFFFFF"></path>
                        <path d="M10.450835,5.98404255 C9.83339342,5.98404255 9.33285815,5.44821313 9.33285815,4.78723404 C9.33285815,4.12625495 9.83339342,3.59042553 10.450835,3.59042553 L26.8850941,3.59042553 C27.5025356,3.59042553 28.0030709,4.12625495 28.0030709,4.78723404 C28.0030709,5.44821313 27.5025356,5.98404255 26.8850941,5.98404255 L10.450835,5.98404255 Z" id="Path" fill="#FFFFFF"></path>
                    </g>
                </g>
                <path d="M110.984998,6.22340426 C110.367557,6.22340426 109.867021,5.68757483 109.867021,5.02659574 C109.867021,4.36561666 110.367557,3.82978723 110.984998,3.82978723 L127.419257,3.82978723 C128.036699,3.82978723 128.537234,4.36561666 128.537234,5.02659574 C128.537234,5.68757483 128.036699,6.22340426 127.419257,6.22340426 L110.984998,6.22340426 Z" id="Path-Copy-33" fill="#B7BEC2"></path>
                <g id="Group-35-Copy" transform="translate(24.893617, 0.000000)">
                    <path d="M40.3891774,0 C43.0399573,0 45.1940671,2.20324495 45.2386567,4.93999661 L45.2393617,5.02659574 C45.2393617,7.80270792 43.0656567,10.0531915 40.3891774,10.0531915 L0.062950294,10.0531915 L0.062950294,0 L40.3891774,0 Z" id="Path" fill-opacity="0.06" fill="#061C3F" filter="url(#filter-2)"></path>
                    <path d="M39.4924326,0.239361702 C42.1100369,0.239361702 44.2371871,2.33769023 44.2812187,4.94412038 L44.2819149,5.02659574 C44.2819149,7.6705121 42.137001,9.81382979 39.4924326,9.81382979 L5.02884398,9.81382979 L5.02884398,0.239361702 L39.4924326,0.239361702 Z" id="Path" fill="#FFFFFF"></path>
                    <g id="cancel" transform="translate(39.133196, 5.097427) rotate(-270.000000) translate(-39.133196, -5.097427) translate(36.619898, 2.703810)" fill="#01B6F5">
                        <ellipse id="Oval" cx="2.43770997" cy="2.38895577" rx="2.43770997" ry="2.38895577"></ellipse>
                    </g>
                    <path d="M40.5503458,4.45375286 L39.0673676,5.9180032 C39.022877,5.96193319 38.9644753,5.98404255 38.9060735,5.98404255 C38.8476718,5.98404255 38.78927,5.96193319 38.7447794,5.9180032 L38.0033112,5.18587803 C37.9140794,5.09781182 37.9140794,4.95542091 38.0033112,4.8673547 C38.0925013,4.77924724 38.2366675,4.77924724 38.3258994,4.8673547 L38.9060735,5.44021821 L40.2277577,4.13522953 C40.3169477,4.04712207 40.461114,4.04712207 40.5503458,4.13522953 C40.6395359,4.22329574 40.6395359,4.36564539 40.5503458,4.45375286 Z" id="checkmark" fill="#FFFFFF"></path>
                    <path d="M15.4796789,6.22340426 C14.8622374,6.22340426 14.3617021,5.68757483 14.3617021,5.02659574 C14.3617021,4.36561666 14.8622374,3.82978723 15.4796789,3.82978723 L31.9139381,3.82978723 C32.5313796,3.82978723 33.0319149,4.36561666 33.0319149,5.02659574 C33.0319149,5.68757483 32.5313796,6.22340426 31.9139381,6.22340426 L15.4796789,6.22340426 Z" id="Path" fill="#01B6F5"></path>
                </g>
                <g id="Group-35">
                    <path d="M31.5327944,0 C34.1835743,0 36.3376841,2.20324495 36.3822737,4.93999661 L36.3829787,5.02659574 C36.3829787,7.80270792 34.2092737,10.0531915 31.5327944,10.0531915 L4.85018434,10.0531915 C2.17150149,10.0531915 0,7.80331831 0,5.02659574 C0,2.25048357 2.17370505,0 4.85018434,0 L31.5327944,0 Z" id="Path" fill-opacity="0.06" fill="#061C3F" filter="url(#filter-3)"></path>
                    <path d="M30.6360496,0.239361702 C33.2536539,0.239361702 35.3808041,2.33769023 35.4248358,4.94412038 L35.4255319,5.02659574 C35.4255319,7.6705121 33.280618,9.81382979 30.6360496,9.81382979 L5.50756738,9.81382979 C2.86240936,9.81382979 0.718085106,7.67109342 0.718085106,5.02659574 C0.718085106,2.38267939 2.86299902,0.239361702 5.50756738,0.239361702 L30.6360496,0.239361702 Z" id="Path" fill="#FFFFFF"></path>
                    <g id="cancel" transform="translate(30.276813, 5.097427) rotate(-270.000000) translate(-30.276813, -5.097427) translate(27.763515, 2.703810)" fill="#01B6F5">
                        <ellipse id="Oval" cx="2.43770997" cy="2.38895577" rx="2.43770997" ry="2.38895577"></ellipse>
                    </g>
                    <path d="M31.6939628,4.45375286 L30.2109846,5.9180032 C30.166494,5.96193319 30.1080923,5.98404255 30.0496905,5.98404255 C29.9912888,5.98404255 29.932887,5.96193319 29.8883964,5.9180032 L29.1469282,5.18587803 C29.0576964,5.09781182 29.0576964,4.95542091 29.1469282,4.8673547 C29.2361183,4.77924724 29.3802846,4.77924724 29.4695164,4.8673547 L30.0496905,5.44021821 L31.3713747,4.13522953 C31.4605647,4.04712207 31.604731,4.04712207 31.6939628,4.13522953 C31.7831529,4.22329574 31.7831529,4.36564539 31.6939628,4.45375286 Z" id="checkmark" fill="#FFFFFF"></path>
                    <path d="M6.62329596,6.22340426 C6.00585442,6.22340426 5.50531915,5.68757483 5.50531915,5.02659574 C5.50531915,4.36561666 6.00585442,3.82978723 6.62329596,3.82978723 L23.0575551,3.82978723 C23.6749966,3.82978723 24.1755319,4.36561666 24.1755319,5.02659574 C24.1755319,5.68757483 23.6749966,6.22340426 23.0575551,6.22340426 L6.62329596,6.22340426 Z" id="Path" fill="#01B6F5"></path>
                </g>
            </g>
            <g id="Group-43" transform="translate(10.000000, 62.000000)">
                <path d="M120.042207,0.218516775 C122.430266,0.218516775 124.37088,2.13411137 124.41105,4.51355932 L124.411686,4.58885228 C124.411686,7.00252193 122.455091,8.95918779 120.042207,8.95918779 L93.6008203,8.95918779 L94.9111746,7.66272955 C96.6270264,5.96507401 96.6264391,3.21204942 94.9111746,1.51497502 L93.6008203,0.218516775 L120.042207,0.218516775 Z" id="brand-blue-[0-16]-copy" fill="#F1F3F4"></path>
                <path d="M102.269525,5.68143616 C101.705853,5.68143616 101.248907,5.1922697 101.248907,4.58885228 C101.248907,3.98543487 101.705853,3.49626841 102.269525,3.49626841 L117.272599,3.49626841 C117.83627,3.49626841 118.293216,3.98543487 118.293216,4.58885228 C118.293216,5.1922697 117.83627,5.68143616 117.272599,5.68143616 L102.269525,5.68143616 Z" id="Path-Copy-33" fill="#B7BEC2"></path>
                <g id="Group-40" transform="translate(56.880234, 0.000000)">
                    <path d="M36.8143986,0 C39.234334,0 41.2008522,2.01137432 41.2415587,4.50979468 L41.2422023,4.58885228 C41.2422023,7.12320542 39.2577954,9.17770457 36.8143986,9.17770457 L0,9.17770457 L0,0 L36.8143986,0 Z" id="Path" fill-opacity="0.06" fill="#061C3F" filter="url(#filter-4)"></path>
                    <g id="Group-37" transform="translate(4.533436, 0.218517)">
                        <path d="M31.4623108,0 C33.8519597,0 35.7938661,1.91559459 35.8340632,4.29504255 L35.8346987,4.37033551 C35.8346987,6.78400516 33.8765756,8.74067101 31.4623108,8.74067101 L0,8.74067101 L0,0 L31.4623108,0 Z" id="Path" fill="#01B6F5"></path>
                        <path d="M33.0246753,3.71663977 L31.3323848,5.38755902 C31.2816147,5.43768944 31.2149699,5.46291938 31.1483252,5.46291938 C31.0816804,5.46291938 31.0150357,5.43768944 30.9642655,5.38755902 L30.1181441,4.55209939 C30.0163178,4.45160325 30.0163178,4.28911483 30.1181441,4.18861868 C30.2199228,4.08807545 30.3844371,4.08807545 30.4862634,4.18861868 L31.1483252,4.84233795 L32.656556,3.35315905 C32.7583346,3.25261582 32.922849,3.25261582 33.0246753,3.35315905 C33.1264539,3.4536552 33.1264539,3.61609654 33.0246753,3.71663977 Z" id="checkmark" fill="#FFFFFF"></path>
                        <path d="M9.75923584,5.46291938 C9.19556449,5.46291938 8.73861857,4.97375292 8.73861857,4.37033551 C8.73861857,3.76691809 9.19556449,3.27775163 9.75923584,3.27775163 L24.7623098,3.27775163 C25.3259811,3.27775163 25.782927,3.76691809 25.782927,4.37033551 C25.782927,4.97375292 25.3259811,5.46291938 24.7623098,5.46291938 L9.75923584,5.46291938 Z" id="Path" fill="#FFFFFF"></path>
                    </g>
                </g>
                <g id="Group-35-Copy-4" transform="translate(25.129429, 0.000000)">
                    <path d="M36.8718668,0 C39.2918023,0 41.2583204,2.01137432 41.299027,4.50979468 L41.2996705,4.58885228 C41.2996705,7.12320542 39.3152636,9.17770457 36.8718668,9.17770457 L0.0574682379,9.17770457 L0.0574682379,0 L36.8718668,0 Z" id="Path" fill-opacity="0.06" fill="#061C3F" filter="url(#filter-5)"></path>
                    <path d="M36.0532155,0.218516775 C38.4428645,0.218516775 40.3847708,2.13411137 40.4249679,4.51355932 L40.4256034,4.58885228 C40.4256034,7.00252193 38.4674804,8.95918779 36.0532155,8.95918779 L4.59090473,8.95918779 L4.59090473,0.218516775 L36.0532155,0.218516775 Z" id="Path" fill="#FFFFFF"></path>
                    <g id="Group-47" transform="translate(33.285581, 2.185081)">
                        <ellipse id="Oval" fill="#01B6F5" transform="translate(2.225421, 2.399429) rotate(-270.000000) translate(-2.225421, -2.399429) " cx="2.22542084" cy="2.3994292" rx="2.22542084" ry="2.18091243"></ellipse>
                        <path d="M3.51490234,1.88081478 L2.16106997,3.21755019 C2.12045386,3.25765451 2.06713806,3.27783847 2.01382226,3.27783847 C1.96050645,3.27783847 1.90719065,3.25765451 1.86657454,3.21755019 L1.18967743,2.54918248 C1.10821638,2.46878556 1.10821638,2.33879483 1.18967743,2.25839791 C1.27110034,2.17796333 1.40271181,2.17796333 1.48417286,2.25839791 L2.01382226,2.78137333 L3.2204069,1.59003021 C3.30182981,1.50959563 3.43344128,1.50959563 3.51490234,1.59003021 C3.59632525,1.67042713 3.59632525,1.8003802 3.51490234,1.88081478 Z" id="checkmark" fill="#FFFFFF"></path>
                    </g>
                    <path d="M13.4760735,5.89995293 C12.9124021,5.89995293 12.4554562,5.41078647 12.4554562,4.80736906 C12.4554562,4.20395164 12.9124021,3.71478518 13.4760735,3.71478518 L28.4791474,3.71478518 C29.0428188,3.71478518 29.4997647,4.20395164 29.4997647,4.80736906 C29.4997647,5.41078647 29.0428188,5.89995293 28.4791474,5.89995293 L13.4760735,5.89995293 Z" id="Path" fill="#01B6F5"></path>
                </g>
                <g id="Group-35">
                    <path d="M28.7867461,0 C31.2066816,0 33.1731997,2.01137432 33.2139063,4.50979468 L33.2145499,4.58885228 C33.2145499,7.12320542 31.2301429,9.17770457 28.7867461,9.17770457 L4.42780375,9.17770457 C1.98239526,9.17770457 0,7.12376265 0,4.58885228 C0,2.05449915 1.98440692,0 4.42780375,0 L28.7867461,0 Z" id="Path" fill-opacity="0.06" fill="#061C3F" filter="url(#filter-6)"></path>
                    <path d="M27.9680948,0.218516775 C30.3577438,0.218516775 32.2996501,2.13411137 32.3398472,4.51355932 L32.3404828,4.58885228 C32.3404828,7.00252193 30.3823597,8.95918779 27.9680948,8.95918779 L5.02793828,8.95918779 C2.61313509,8.95918779 0.655550326,7.00305263 0.655550326,4.58885228 C0.655550326,2.17518263 2.6136734,0.218516775 5.02793828,0.218516775 L27.9680948,0.218516775 Z" id="Path" fill="#FFFFFF"></path>
                </g>
                <circle id="Oval" fill="#FE4849" cx="27.5288584" cy="4.58459696" r="2.18091243"></circle>
                <path d="M5.39095278,5.68143616 C4.82728143,5.68143616 4.37033551,5.1922697 4.37033551,4.58885228 C4.37033551,3.98543487 4.82728143,3.49626841 5.39095278,3.49626841 L20.1755099,3.49626841 C20.7391813,3.49626841 21.1961272,3.98543487 21.1961272,4.58885228 C21.1961272,5.1922697 20.7391813,5.68143616 20.1755099,5.68143616 L5.39095278,5.68143616 Z" id="Path-Copy-36" fill="#FE4849"></path>
            </g>
        </g>
    </g>
</svg>