<?xml version="1.0" encoding="UTF-8"?>
<svg width="138px" height="71px" viewBox="0 0 138 71" version="1.1" xmlns="http://www.w3.org/2000/svg" xmlns:xlink="http://www.w3.org/1999/xlink">
    <title>percentInput</title>
    <g id="pages" stroke="none" stroke-width="1" fill="none" fill-rule="evenodd">
        <g id="percentInput" fill-rule="nonzero">
            <g id="Group-61" transform="translate(0.000000, 44.374046)">
                <path d="M12.6412214,0.842748092 C6.12510451,0.842748092 0.842748092,6.12510451 0.842748092,12.6412214 C0.842748092,19.1573382 6.12510451,24.4396947 12.6412214,24.4396947 L125.358779,24.4396947 C131.874895,24.4396947 137.157252,19.1573382 137.157252,12.6412214 C137.157252,6.12510451 131.874895,0.842748092 125.358779,0.842748092 L12.6412214,0.842748092 Z M12.6412214,0 L125.358779,0 C132.340332,0 138,5.65966759 138,12.6412214 C138,19.6227752 132.340332,25.2824427 125.358779,25.2824427 L12.6412214,25.2824427 C5.65966759,25.2824427 0,19.6227752 0,12.6412214 C0,5.65966759 5.65966759,0 12.6412214,0 Z" id="Rectangle" fill="#A4A7B5"></path>
                <path d="M28.9694656,14.7480916 C27.8058734,14.7480916 26.8625954,13.8048137 26.8625954,12.6412214 C26.8625954,11.4776291 27.8058734,10.5343511 28.9694656,10.5343511 L98.4961832,10.5343511 C99.6597755,10.5343511 100.603053,11.4776291 100.603053,12.6412214 C100.603053,13.8048137 99.6597755,14.7480916 98.4961832,14.7480916 L28.9694656,14.7480916 Z" id="Line-12" fill="#E3E5ED"></path>
            </g>
            <path d="M51.0916031,40.1603053 C50.2189088,40.1603053 49.5114504,39.4528469 49.5114504,38.5801527 C49.5114504,37.7074584 50.2189088,37 51.0916031,37 L85.0648855,37 C85.9375797,37 86.6450382,37.7074584 86.6450382,38.5801527 C86.6450382,39.4528469 85.9375797,40.1603053 85.0648855,40.1603053 L51.0916031,40.1603053 Z" id="Line-12" fill="#A4A7B5"></path>
            <g id="Group-5-Copy" transform="translate(88.000000, 0.000000)">
                <path d="M0,11 C0,4.92486775 4.92817249,0 10.991074,0 L38.1815451,0 C44.1522361,0 49.0109701,4.76342789 49.1686683,10.7021035 L49.172619,11 C49.172619,17.0751322 44.2444466,22 38.1815451,22 L10.991074,22 C5.02038296,22 0.161648924,17.2365721 0.00395076211,11.2978965 L0,11 Z" id="Path" fill="#FFB900"></path>
                <path d="M8.9375,15.8125 L12.1325784,15.8125 C12.6349885,15.8125 13.0823824,15.7502178 13.4747605,15.6256533 C13.8671385,15.5010889 14.1982725,15.3266986 14.468162,15.1024826 C14.7380519,14.8782666 14.9435833,14.6094149 15.0847561,14.2959277 C15.2259289,13.9824404 15.2965157,13.6346981 15.2965157,13.2527003 C15.2965157,12.7046167 15.1314678,12.2592988 14.801372,11.9167465 C14.4712761,11.5741943 13.9844366,11.3385599 13.3408537,11.2098432 C13.6190477,11.1226481 13.8619484,11.0095019 14.0695557,10.8704051 C14.2771634,10.7313082 14.4494774,10.5756026 14.5864983,10.4032883 C14.7235192,10.230974 14.8262848,10.0441273 14.8947953,9.84274826 C14.9633057,9.64138096 14.997561,9.43273549 14.997561,9.21681185 C14.997561,8.85557491 14.9363165,8.52963099 14.8138284,8.23898084 C14.6913403,7.94833068 14.5013795,7.70231587 14.243946,7.50093641 C13.9865129,7.29955695 13.658493,7.14488992 13.2598868,7.0369338 C12.8612805,6.92897768 12.3837833,6.875 11.8273955,6.875 L8.9375,6.875 L8.9375,15.8125 Z M10.2205139,11.7641551 L12.1138937,11.7641551 C12.7574766,11.7641551 13.2370498,11.8949477 13.5526132,12.1565331 C13.8681767,12.4181185 14.0259582,12.7731272 14.0259582,13.2215592 C14.0259582,13.4499273 13.989627,13.659611 13.9169643,13.8506098 C13.8443244,14.0416085 13.7311782,14.2066564 13.5775261,14.3457535 C13.4239071,14.4848504 13.22668,14.5938443 12.9858449,14.6727352 C12.7450202,14.751626 12.4543697,14.7910714 12.1138937,14.7910714 L10.2205139,14.7910714 L10.2205139,11.7641551 Z M10.2205139,10.8548345 L10.2205139,7.88397213 L11.8273955,7.88397213 C12.4709784,7.88397213 12.9474374,8.00334615 13.2567726,8.24209495 C13.5661079,8.48084375 13.7207753,8.85765124 13.7207753,9.37251742 C13.7207753,9.59673345 13.68133,9.80018886 13.602439,9.98288328 C13.5235697,10.1655777 13.4041953,10.3212833 13.2443162,10.45 C13.0844584,10.5787167 12.8820411,10.6783683 12.6370645,10.7489547 C12.3920878,10.8195411 12.1035132,10.8548345 11.7713415,10.8548345 L10.2205139,10.8548345 Z M23.2935526,6.875 L17.7628906,6.875 L17.7628906,15.8125 L23.2935526,15.8125 L23.2997808,14.7661585 L19.0521327,14.7661585 L19.0521327,11.8077526 L22.4714272,11.8077526 L22.4714272,10.7987805 L19.0521327,10.7987805 L19.0521327,7.92134146 L23.2935526,7.92134146 L23.2935526,6.875 Z M31.776391,6.875 L24.7696402,6.875 L24.7696402,7.95248258 L27.6346227,7.95248258 L27.6346227,15.8125 L28.9176367,15.8125 L28.9176367,7.95248258 L31.776391,7.95248258 L31.776391,6.875 Z M40.2841425,15.8125 L36.7153707,6.875 L35.4136721,6.875 L31.8511286,15.8125 L32.8476442,15.8125 C32.9555979,15.8125 33.0479832,15.7813589 33.1248002,15.7190767 C33.2016149,15.6567944 33.2524787,15.5862079 33.2773916,15.5073171 L34.0808324,13.4084059 L38.0482104,13.4084059 L38.8516512,15.5073171 C38.8890205,15.5986643 38.9429982,15.672365 39.013585,15.728419 C39.0841718,15.784473 39.1755188,15.8125 39.2876268,15.8125 L40.2841425,15.8125 Z M37.6932017,12.4866289 L34.4358411,12.4866289 L35.7873655,8.97391115 C35.8329778,8.86180314 35.8786513,8.73101045 35.9243864,8.5815331 L36.0614073,8.09573171 L36.0614073,8.09573171 C36.1070808,8.27012195 36.1537925,8.43101797 36.2015423,8.57841899 L36.2489461,8.71993794 L36.2489461,8.71993794 L37.6932017,12.4866289 Z" id="BETA" fill="#FFFFFF"></path>
            </g>
            <path d="M17.6667,58.5 C18.8632625,58.5 19.8333,59.4700777 19.8333,60.6667 C19.8333,61.8632424 18.8632424,62.8333 17.6667,62.8333 C16.4700777,62.8333 15.5,61.8632625 15.5,60.6667 C15.5,59.4700576 16.4700576,58.5 17.6667,58.5 Z M19.0208528,51.979696 C19.1944195,52.1532621 19.213705,52.4226865 19.0787093,52.6175548 L19.020854,52.6868028 L9.68753396,62.0201528 C9.49227213,62.2154153 9.17568964,62.2154158 8.98042718,62.020154 C8.80686055,61.8465879 8.78757496,61.5771635 8.9225707,61.3822952 L8.98042604,61.3130472 L18.313746,51.9796972 C18.5090079,51.7844347 18.8255904,51.7844342 19.0208528,51.979696 Z M17.6667,59.5 C17.0223424,59.5 16.5,60.0223424 16.5,60.6667 C16.5,61.3109684 17.0223532,61.8333 17.6667,61.8333 C18.3109576,61.8333 18.8333,61.3109576 18.8333,60.6667 C18.8333,60.0223532 18.3109684,59.5 17.6667,59.5 Z M10.33268,51.16675 C11.5293004,51.16675 12.49935,52.1367956 12.49935,53.33341 C12.49935,54.5300324 11.5293024,55.50008 10.33268,55.50008 C9.13606561,55.50008 8.16602,54.5300304 8.16602,53.33341 C8.16602,52.1367976 9.13606763,51.16675 10.33268,51.16675 Z M10.33268,52.16675 C9.68835237,52.16675 9.16602,52.6890824 9.16602,53.33341 C9.16602,53.9777465 9.68835129,54.50008 10.33268,54.50008 C10.9770176,54.50008 11.49935,53.9777476 11.49935,53.33341 C11.49935,52.6890813 10.9770165,52.16675 10.33268,52.16675 Z" id="Combined-Shape" fill="#576574"></path>
        </g>
    </g>
</svg>