<?xml version="1.0" encoding="UTF-8"?>
<svg width="138px" height="72px" viewBox="0 0 138 72" version="1.1" xmlns="http://www.w3.org/2000/svg" xmlns:xlink="http://www.w3.org/1999/xlink">
    <title>PhoneInput</title>
    <defs>
        <path d="M4.44444444,0.317460317 C2.16517405,0.317460317 0.317460317,2.16517405 0.317460317,4.44444444 L0.317460317,35.5555556 C0.317460317,37.834826 2.16517405,39.6825397 4.44444444,39.6825397 L78.1269841,39.6825397 C80.4062545,39.6825397 82.2539683,37.834826 82.2539683,35.5555556 L82.2539683,4.44444444 C82.2539683,2.16517405 80.4062545,0.317460317 78.1269841,0.317460317 L4.44444444,0.317460317 Z" id="path-1"></path>
        <filter x="-1.8%" y="-3.8%" width="103.7%" height="107.6%" filterUnits="objectBoundingBox" id="filter-2">
            <feOffset dx="0" dy="0" in="SourceAlpha" result="shadowOffsetOuter1"></feOffset>
            <feGaussianBlur stdDeviation="0.5" in="shadowOffsetOuter1" result="shadowBlurOuter1"></feGaussianBlur>
            <feColorMatrix values="0 0 0 0 0.643254082   0 0 0 0 0.656386854   0 0 0 0 0.708917942  0 0 0 1 0" type="matrix" in="shadowBlurOuter1"></feColorMatrix>
        </filter>
        <rect id="path-3" x="0" y="0" width="5.53846154" height="5.53846154" rx="2.76923077"></rect>
    </defs>
    <g id="pages" stroke="none" stroke-width="1" fill="none" fill-rule="evenodd">
        <g id="PhoneInput" transform="translate(1.000000, 0.000000)">
            <g id="Group-5" transform="translate(87.000000, 0.000000)" fill-rule="nonzero">
                <path d="M0,11 C0,4.92486775 4.92817249,0 10.991074,0 L38.1815451,0 C44.1522361,0 49.0109701,4.76342789 49.1686683,10.7021035 L49.172619,11 C49.172619,17.0751322 44.2444466,22 38.1815451,22 L10.991074,22 C5.02038296,22 0.161648924,17.2365721 0.00395076211,11.2978965 L0,11 Z" id="Path" fill="#FFB900"></path>
                <path d="M8.9375,15.8125 L12.1325784,15.8125 C12.6349885,15.8125 13.0823824,15.7502178 13.4747605,15.6256533 C13.8671385,15.5010889 14.1982725,15.3266986 14.468162,15.1024826 C14.7380519,14.8782666 14.9435833,14.6094149 15.0847561,14.2959277 C15.2259289,13.9824404 15.2965157,13.6346981 15.2965157,13.2527003 C15.2965157,12.7046167 15.1314678,12.2592988 14.801372,11.9167465 C14.4712761,11.5741943 13.9844366,11.3385599 13.3408537,11.2098432 C13.6190477,11.1226481 13.8619484,11.0095019 14.0695557,10.8704051 C14.2771634,10.7313082 14.4494774,10.5756026 14.5864983,10.4032883 C14.7235192,10.230974 14.8262848,10.0441273 14.8947953,9.84274826 C14.9633057,9.64138096 14.997561,9.43273549 14.997561,9.21681185 C14.997561,8.85557491 14.9363165,8.52963099 14.8138284,8.23898084 C14.6913403,7.94833068 14.5013795,7.70231587 14.243946,7.50093641 C13.9865129,7.29955695 13.658493,7.14488992 13.2598868,7.0369338 C12.8612805,6.92897768 12.3837833,6.875 11.8273955,6.875 L8.9375,6.875 L8.9375,15.8125 Z M10.2205139,11.7641551 L12.1138937,11.7641551 C12.7574766,11.7641551 13.2370498,11.8949477 13.5526132,12.1565331 C13.8681767,12.4181185 14.0259582,12.7731272 14.0259582,13.2215592 C14.0259582,13.4499273 13.989627,13.659611 13.9169643,13.8506098 C13.8443244,14.0416085 13.7311782,14.2066564 13.5775261,14.3457535 C13.4239071,14.4848504 13.22668,14.5938443 12.9858449,14.6727352 C12.7450202,14.751626 12.4543697,14.7910714 12.1138937,14.7910714 L10.2205139,14.7910714 L10.2205139,11.7641551 Z M10.2205139,10.8548345 L10.2205139,7.88397213 L11.8273955,7.88397213 C12.4709784,7.88397213 12.9474374,8.00334615 13.2567726,8.24209495 C13.5661079,8.48084375 13.7207753,8.85765124 13.7207753,9.37251742 C13.7207753,9.59673345 13.68133,9.80018886 13.602439,9.98288328 C13.5235697,10.1655777 13.4041953,10.3212833 13.2443162,10.45 C13.0844584,10.5787167 12.8820411,10.6783683 12.6370645,10.7489547 C12.3920878,10.8195411 12.1035132,10.8548345 11.7713415,10.8548345 L10.2205139,10.8548345 Z M23.2935526,6.875 L17.7628906,6.875 L17.7628906,15.8125 L23.2935526,15.8125 L23.2997808,14.7661585 L19.0521327,14.7661585 L19.0521327,11.8077526 L22.4714272,11.8077526 L22.4714272,10.7987805 L19.0521327,10.7987805 L19.0521327,7.92134146 L23.2935526,7.92134146 L23.2935526,6.875 Z M31.776391,6.875 L24.7696402,6.875 L24.7696402,7.95248258 L27.6346227,7.95248258 L27.6346227,15.8125 L28.9176367,15.8125 L28.9176367,7.95248258 L31.776391,7.95248258 L31.776391,6.875 Z M40.2841425,15.8125 L36.7153707,6.875 L35.4136721,6.875 L31.8511286,15.8125 L32.8476442,15.8125 C32.9555979,15.8125 33.0479832,15.7813589 33.1248002,15.7190767 C33.2016149,15.6567944 33.2524787,15.5862079 33.2773916,15.5073171 L34.0808324,13.4084059 L38.0482104,13.4084059 L38.8516512,15.5073171 C38.8890205,15.5986643 38.9429982,15.672365 39.013585,15.728419 C39.0841718,15.784473 39.1755188,15.8125 39.2876268,15.8125 L40.2841425,15.8125 Z M37.6932017,12.4866289 L34.4358411,12.4866289 L35.7873655,8.97391115 C35.8329778,8.86180314 35.8786513,8.73101045 35.9243864,8.5815331 L36.0614073,8.09573171 L36.0614073,8.09573171 C36.1070808,8.27012195 36.1537925,8.43101797 36.2015423,8.57841899 L36.2489461,8.71993794 L36.2489461,8.71993794 L37.6932017,12.4866289 Z" id="BETA" fill="#FFFFFF"></path>
            </g>
            <g id="Group-201" transform="translate(0.000000, 18.000000)">
                <g id="Group-199">
                    <g id="PicklistOption" transform="translate(0.000000, 13.000000)" fill-rule="nonzero">
                        <g id="Group-124">
                            <g id="Path">
                                <use fill="black" fill-opacity="1" filter="url(#filter-2)" xlink:href="#path-1"></use>
                                <use fill="#FFFFFF" xlink:href="#path-1"></use>
                            </g>
                            <polygon id="Line-22" fill="#E3E5ED" points="82.7 9.3 82.7 9.7 0.3 9.7 0.3 9.3"></polygon>
                            <path d="M4.44444444,0.317460317 C2.16517405,0.317460317 0.317460317,2.16517405 0.317460317,4.44444444 L0.317460317,35.5555556 C0.317460317,37.834826 2.16517405,39.6825397 4.44444444,39.6825397 L78.1269841,39.6825397 C80.4062545,39.6825397 82.2539683,37.834826 82.2539683,35.5555556 L82.2539683,4.44444444 C82.2539683,2.16517405 80.4062545,0.317460317 78.1269841,0.317460317 L4.44444444,0.317460317 Z M4.44444444,-3.94853674e-11 L78.1269841,-3.94853674e-11 C80.581583,-3.94853674e-11 82.5714286,1.98984556 82.5714286,4.44444444 L82.5714286,35.5555556 C82.5714286,38.0101544 80.581583,40 78.1269841,40 L4.44444444,40 C1.98984556,40 0,38.0101544 0,35.5555556 L0,4.44444444 C0,1.98984556 1.98984556,-3.94853674e-11 4.44444444,-3.94853674e-11 Z" id="Rectangle" fill="#E3E5ED"></path>
                            <g id="Group-130" transform="translate(6.285714, 15.142857)">
                                <path d="M0.920634921,9.99857143 C0.447247992,9.99857143 0.0634920635,9.6148155 0.0634920635,9.14142857 C0.0634920635,8.66804164 0.447247992,8.28428571 0.920634921,8.28428571 L22.4425349,8.28428571 C22.9159218,8.28428571 23.2996777,8.66804164 23.2996777,9.14142857 C23.2996777,9.6148155 22.9159218,9.99857143 22.4425349,9.99857143 L0.920634921,9.99857143 Z" id="Path-Copy" fill-opacity="0.6" fill="#A4A7B5"></path>
                                <path d="M0.920634921,1.71428571 C0.447247992,1.71428571 0.0634920635,1.33052979 0.0634920635,0.857142857 C0.0634920635,0.383755929 0.447247992,-9.09494702e-13 0.920634921,-9.09494702e-13 L22.4425349,-9.09494702e-13 C22.9159218,-9.09494702e-13 23.2996777,0.383755929 23.2996777,0.857142857 C23.2996777,1.33052979 22.9159218,1.71428571 22.4425349,1.71428571 L0.920634921,1.71428571 Z" id="Path-Copy-3" fill-opacity="0.6" fill="#A4A7B5"></path>
                                <path d="M0.857142857,18.2828571 C0.383755929,18.2828571 0,17.8991012 0,17.4257143 C0,16.9523274 0.383755929,16.5685714 0.857142857,16.5685714 L22.0296982,16.5685714 C22.5030851,16.5685714 22.886841,16.9523274 22.886841,17.4257143 C22.886841,17.8991012 22.5030851,18.2828571 22.0296982,18.2828571 L0.857142857,18.2828571 Z" id="Path-Copy-12" fill="#C8CAD3"></path>
                            </g>
                        </g>
                    </g>
                    <path d="M4.40559441,3.46363636 C2.13466131,3.46363636 0.293706294,5.30459138 0.293706294,7.57552448 C0.293706294,9.84645757 2.13466131,11.6874126 4.40559441,11.6874126 L77.4213287,11.6874126 C79.6922618,11.6874126 81.5332168,9.84645757 81.5332168,7.57552448 C81.5332168,5.30459138 79.6922618,3.46363636 77.4213287,3.46363636 L4.40559441,3.46363636 Z M4.40559441,3.16993007 L77.4213287,3.16993007 C79.8544713,3.16993007 81.8269231,5.14238187 81.8269231,7.57552448 C81.8269231,10.0086671 79.8544713,11.9811189 77.4213287,11.9811189 L4.40559441,11.9811189 C1.9724518,11.9811189 1.42108547e-14,10.0086671 1.42108547e-14,7.57552448 C1.42108547e-14,5.14238187 1.9724518,3.16993007 4.40559441,3.16993007 Z" id="Rectangle" fill="#A4A7B5" fill-rule="nonzero"></path>
                    <path d="M23.7342657,8.30979021 C23.328742,8.30979021 23,7.98104824 23,7.57552448 C23,7.17000071 23.328742,6.84125874 23.7342657,6.84125874 L61.7293706,6.84125874 C62.1348944,6.84125874 62.4636364,7.17000071 62.4636364,7.57552448 C62.4636364,7.98104824 62.1348944,8.30979021 61.7293706,8.30979021 L23.7342657,8.30979021 Z" id="Line-12" fill="#E3E5ED" fill-rule="nonzero"></path>
                    <path d="M16.7342657,8.30979021 C16.328742,8.30979021 16,7.98104824 16,7.57552448 C16,7.17000071 16.328742,6.84125874 16.7342657,6.84125874 L19.7293706,6.84125874 C20.1348944,6.84125874 20.4636364,7.17000071 20.4636364,7.57552448 C20.4636364,7.98104824 20.1348944,8.30979021 19.7293706,8.30979021 L16.7342657,8.30979021 Z" id="Line-12" fill="#576574" fill-rule="nonzero"></path>
                    <path d="M33.66,1.32 C33.2954921,1.32 33,1.02450793 33,0.66 C33,0.295492065 33.2954921,-1.45550239e-13 33.66,-1.45550239e-13 L47.85,-1.45550239e-13 C48.2145079,-1.45550239e-13 48.51,0.295492065 48.51,0.66 C48.51,1.02450793 48.2145079,1.32 47.85,1.32 L33.66,1.32 Z" id="Line-12" fill="#A4A7B5" fill-rule="nonzero"></path>
                    <g id="flag_US" transform="translate(2.000000, 4.870000)">
                        <g>
                            <mask id="mask-4" fill="white">
                                <use xlink:href="#path-3"></use>
                            </mask>
                            <rect stroke-opacity="0.5" stroke="#DDDADA" stroke-width="0.1" x="0.05" y="0.05" width="5.43846154" height="5.43846154" rx="2.71923077"></rect>
                            <rect id="Rectangle-4" fill="#D0021B" mask="url(#mask-4)" x="2.76923077" y="0" width="2.76923077" height="1"></rect>
                            <rect id="Rectangle-4" fill="#D0021B" mask="url(#mask-4)" x="2.76923077" y="0.923076923" width="2.76923077" height="1"></rect>
                            <rect id="Rectangle-4" fill="#D0021B" mask="url(#mask-4)" x="2.76923077" y="1.84615385" width="2.76923077" height="1"></rect>
                            <rect id="Rectangle-4" fill="#D0021B" mask="url(#mask-4)" x="0" y="2.76923077" width="5.53846154" height="1"></rect>
                            <rect id="Rectangle-4" fill="#D0021B" mask="url(#mask-4)" x="0" y="3.69230769" width="5.53846154" height="1"></rect>
                            <rect id="Rectangle-4" fill="#D0021B" mask="url(#mask-4)" x="0" y="4.61538462" width="5.53846154" height="1"></rect>
                            <g id="Group-2" mask="url(#mask-4)">
                                <g transform="translate(-0.461538, 0.000000)">
                                    <rect id="Rectangle-3" fill="#004493" x="0" y="0" width="3.23076923" height="3.23076923"></rect>
                                    <polygon id="Star" fill="#FFFFFF" points="2.53846154 2.69039059 2.39583831 2.76923077 2.42307692 2.60224459 2.30769231 2.48398431 2.46714992 2.45962136 2.53846154 2.30769231 2.60977315 2.45962136 2.76923077 2.48398431 2.65384615 2.60224459 2.68108477 2.76923077"></polygon>
                                    <polygon id="Star" fill="#FFFFFF" points="2.53846154 1.76731366 2.39583831 1.84615385 2.42307692 1.67916766 2.30769231 1.56090739 2.46714992 1.53654443 2.53846154 1.38461538 2.60977315 1.53654443 2.76923077 1.56090739 2.65384615 1.67916766 2.68108477 1.84615385"></polygon>
                                    <polygon id="Star" fill="#FFFFFF" points="1.61538462 2.69039059 1.47276139 2.76923077 1.5 2.60224459 1.38461538 2.48398431 1.544073 2.45962136 1.61538462 2.30769231 1.68669623 2.45962136 1.84615385 2.48398431 1.73076923 2.60224459 1.75800784 2.76923077"></polygon>
                                    <polygon id="Star" fill="#FFFFFF" points="1.61538462 1.76731366 1.47276139 1.84615385 1.5 1.67916766 1.38461538 1.56090739 1.544073 1.53654443 1.61538462 1.38461538 1.68669623 1.53654443 1.84615385 1.56090739 1.73076923 1.67916766 1.75800784 1.84615385"></polygon>
                                    <polygon id="Star" fill="#FFFFFF" points="0.692307692 2.69039059 0.549684464 2.76923077 0.576923077 2.60224459 0.461538462 2.48398431 0.620996078 2.45962136 0.692307692 2.30769231 0.763619306 2.45962136 0.923076923 2.48398431 0.807692308 2.60224459 0.83493092 2.76923077"></polygon>
                                    <polygon id="Star" fill="#FFFFFF" points="2.53846154 0.844236742 2.39583831 0.923076923 2.42307692 0.756090739 2.30769231 0.637830467 2.46714992 0.613467511 2.53846154 0.461538462 2.60977315 0.613467511 2.76923077 0.637830467 2.65384615 0.756090739 2.68108477 0.923076923"></polygon>
                                    <polygon id="Star" fill="#FFFFFF" points="0.692307692 0.844236742 0.549684464 0.923076923 0.576923077 0.756090739 0.461538462 0.637830467 0.620996078 0.613467511 0.692307692 0.461538462 0.763619306 0.613467511 0.923076923 0.637830467 0.807692308 0.756090739 0.83493092 0.923076923"></polygon>
                                </g>
                            </g>
                        </g>
                    </g>
                    <path d="M10.1919539,8.24873111 C10.1547439,8.24873111 10.1175385,8.23610211 10.0891692,8.21089721 L9.19644146,7.4173533 C9.13965231,7.36687406 9.13965231,7.28503063 9.19644146,7.23457182 C9.25320762,7.184113 9.3452631,7.184113 9.40205684,7.23457182 L10.1919539,7.93674336 L10.9818555,7.23459632 C11.0386447,7.18413751 11.1306909,7.18413751 11.1874525,7.23459632 C11.2442692,7.28505514 11.2442692,7.36689857 11.1874525,7.41737781 L10.2947386,8.21092172 C10.2663555,8.2361307 10.2291501,8.24873111 10.1919539,8.24873111 Z" id="Path" fill="#B8B8C6" fill-rule="nonzero"></path>
                    <polygon id="Line-21" fill="#A4A7B5" fill-rule="nonzero" points="13.75 5.25 13.75 9.75 13.25 9.75 13.25 5.25"></polygon>
                </g>
            </g>
        </g>
    </g>
</svg>