<?xml version="1.0" encoding="UTF-8"?>
<svg width="122px" height="77px" viewBox="0 0 122 77" version="1.1" xmlns="http://www.w3.org/2000/svg" xmlns:xlink="http://www.w3.org/1999/xlink">
    <!-- Generator: Sketch 56.2 (81672) - https://sketch.com -->
    <title>Picklist</title>
    <desc>Created with Sketch.</desc>
    <defs>
        <path d="M7.77777778,0.555555556 C3.78905458,0.555555556 0.555555556,3.78905458 0.555555556,7.77777778 L0.555555556,41.2222222 C0.555555556,45.2109454 3.78905458,48.4444444 7.77777778,48.4444444 L112.222222,48.4444444 C116.210945,48.4444444 119.444444,45.2109454 119.444444,41.2222222 L119.444444,7.77777778 C119.444444,3.78905458 116.210945,0.555555556 112.222222,0.555555556 L7.77777778,0.555555556 Z" id="path-1"></path>
        <filter x="-1.3%" y="-3.1%" width="102.5%" height="106.3%" filterUnits="objectBoundingBox" id="filter-2">
            <feOffset dx="0" dy="0" in="SourceAlpha" result="shadowOffsetOuter1"></feOffset>
            <feGaussianBlur stdDeviation="0.5" in="shadowOffsetOuter1" result="shadowBlurOuter1"></feGaussianBlur>
            <feColorMatrix values="0 0 0 0 0.643254082   0 0 0 0 0.656386854   0 0 0 0 0.708917942  0 0 0 1 0" type="matrix" in="shadowBlurOuter1"></feColorMatrix>
        </filter>
    </defs>
    <g id="pages" stroke="none" stroke-width="1" fill="none" fill-rule="evenodd">
        <g id="Picklist" transform="translate(1.000000, 0.000000)" fill-rule="nonzero">
            <g id="Group-124" transform="translate(0.000000, 27.000000)">
                <g>
                    <use fill="black" fill-opacity="1" filter="url(#filter-2)" xlink:href="#path-1"></use>
                    <use fill="#FFFFFF" xlink:href="#path-1"></use>
                </g>
                <path d="M7.77777778,0.555555556 C3.78905458,0.555555556 0.555555556,3.78905458 0.555555556,7.77777778 L0.555555556,41.2222222 C0.555555556,45.2109454 3.78905458,48.4444444 7.77777778,48.4444444 L112.222222,48.4444444 C116.210945,48.4444444 119.444444,45.2109454 119.444444,41.2222222 L119.444444,7.77777778 C119.444444,3.78905458 116.210945,0.555555556 112.222222,0.555555556 L7.77777778,0.555555556 Z M7.77777778,-1.59872116e-13 L112.222222,-1.59872116e-13 C116.51777,-1.59872116e-13 120,3.48222972 120,7.77777778 L120,41.2222222 C120,45.5177703 116.51777,49 112.222222,49 L7.77777778,49 C3.48222972,49 0,45.5177703 0,41.2222222 L0,7.77777778 C0,3.48222972 3.48222972,-1.59872116e-13 7.77777778,-1.59872116e-13 Z" id="Rectangle" fill="#E3E5ED"></path>
                <path d="M12.6111111,27 C11.782684,27 11.1111111,26.3284271 11.1111111,25.5 C11.1111111,24.6715729 11.782684,24 12.6111111,24 L83.3611111,24 C84.1895382,24 84.8611111,24.6715729 84.8611111,25.5 C84.8611111,26.3284271 84.1895382,27 83.3611111,27 L12.6111111,27 Z" id="Path-Copy" fill-opacity="0.6" fill="#A4A7B5"></path>
                <path d="M12.6111111,14 C11.782684,14 11.1111111,13.3284271 11.1111111,12.5 C11.1111111,11.6715729 11.782684,11 12.6111111,11 L35.3611111,11 C36.1895382,11 36.8611111,11.6715729 36.8611111,12.5 C36.8611111,13.3284271 36.1895382,14 35.3611111,14 L12.6111111,14 Z" id="Path-Copy-3" fill-opacity="0.6" fill="#A4A7B5"></path>
                <path d="M41.5,14 C40.6715729,14 40,13.3284271 40,12.5 C40,11.6715729 40.6715729,11 41.5,11 L92.25,11 C93.0784271,11 93.75,11.6715729 93.75,12.5 C93.75,13.3284271 93.0784271,14 92.25,14 L41.5,14 Z" id="Path-Copy-16" fill-opacity="0.6" fill="#A4A7B5"></path>
                <path d="M12.5,40 C11.6715729,40 11,39.3284271 11,38.5 C11,37.6715729 11.6715729,37 12.5,37 L25.25,37 C26.0784271,37 26.75,37.6715729 26.75,38.5 C26.75,39.3284271 26.0784271,40 25.25,40 L12.5,40 Z" id="Path-Copy-12" fill="#C8CAD3"></path>
                <path d="M30.5,40 C29.6715729,40 29,39.3284271 29,38.5 C29,37.6715729 29.6715729,37 30.5,37 L63.75,37 C64.5784271,37 65.25,37.6715729 65.25,38.5 C65.25,39.3284271 64.5784271,40 63.75,40 L30.5,40 Z" fill-opacity="0.6" fill="#A4A7B5"></path>
            </g>
            <g id="Group-72" fill="#A4A7B5">
                <path d="M10.0645161,6.87096774 C5.05832211,6.87096774 1,10.9292898 1,15.9354839 C1,20.9416779 5.05832211,25 10.0645161,25 L109.806452,25 C114.812646,25 118.870968,20.9416779 118.870968,15.9354839 C118.870968,10.9292898 114.812646,6.87096774 109.806452,6.87096774 L10.0645161,6.87096774 Z M10.0645161,5.87096774 L109.806452,5.87096774 C115.36493,5.87096774 119.870968,10.3770051 119.870968,15.9354839 C119.870968,21.4939626 115.36493,26 109.806452,26 L10.0645161,26 C4.50603736,26 4.54747351e-13,21.4939626 4.54747351e-13,15.9354839 C4.54747351e-13,10.3770051 4.50603736,5.87096774 10.0645161,5.87096774 Z" id="Rectangle"></path>
                <path d="M11.6774194,17.3548387 C10.7510062,17.3548387 10,16.6038325 10,15.6774194 C10,14.7510062 10.7510062,14 11.6774194,14 L69.0322581,14 C69.9586712,14 70.7096774,14.7510062 70.7096774,15.6774194 C70.7096774,16.6038325 69.9586712,17.3548387 69.0322581,17.3548387 L11.6774194,17.3548387 Z" id="Line-12"></path>
                <path d="M50.6774194,2.51612903 C49.9826095,2.51612903 49.4193548,1.95287436 49.4193548,1.25806452 C49.4193548,0.56325467 49.9826095,0 50.6774194,0 L77.7258065,0 C78.4206163,0 78.983871,0.56325467 78.983871,1.25806452 C78.983871,1.95287436 78.4206163,2.51612903 77.7258065,2.51612903 L50.6774194,2.51612903 Z" id="Line-12"></path>
            </g>
            <path d="M108.683026,17.7427321 L106.132229,15.191935 C105.955924,15.0156299 105.955924,14.7305408 106.132229,14.5561113 L106.556111,14.1322288 C106.732416,13.9559237 107.017505,13.9559237 107.191935,14.1322288 L109,15.9402938 L110.808065,14.1322288 C110.98437,13.9559237 111.269459,13.9559237 111.443889,14.1322288 L111.867771,14.5561113 C112.044076,14.7324164 112.044076,15.0175055 111.867771,15.191935 L109.316974,17.7427321 C109.14442,17.9190372 108.859331,17.9190372 108.683026,17.7427321 L108.683026,17.7427321 Z" id="Shape" fill="#01B6F5" transform="translate(109.000000, 15.937480) rotate(-360.000000) translate(-109.000000, -15.937480) "></path>
        </g>
    </g>
</svg>