<?xml version="1.0" encoding="UTF-8"?>
<svg width="122px" height="72px" viewBox="0 0 122 72" version="1.1" xmlns="http://www.w3.org/2000/svg" xmlns:xlink="http://www.w3.org/1999/xlink">
    <!-- Generator: Sketch 56.2 (81672) - https://sketch.com -->
    <title>PicklistOption</title>
    <desc>Created with Sketch.</desc>
    <defs>
        <path d="M7.77777778,0.555555556 C3.78905458,0.555555556 0.555555556,3.78905458 0.555555556,7.77777778 L0.555555556,62.2222222 C0.555555556,66.2109454 3.78905458,69.4444444 7.77777778,69.4444444 L112.222222,69.4444444 C116.210945,69.4444444 119.444444,66.2109454 119.444444,62.2222222 L119.444444,7.77777778 C119.444444,3.78905458 116.210945,0.555555556 112.222222,0.555555556 L7.77777778,0.555555556 Z" id="path-1"></path>
        <filter x="-1.3%" y="-2.2%" width="102.5%" height="104.4%" filterUnits="objectBoundingBox" id="filter-2">
            <feOffset dx="0" dy="0" in="SourceAlpha" result="shadowOffsetOuter1"></feOffset>
            <feGaussianBlur stdDeviation="0.5" in="shadowOffsetOuter1" result="shadowBlurOuter1"></feGaussianBlur>
            <feColorMatrix values="0 0 0 0 0.643254082   0 0 0 0 0.656386854   0 0 0 0 0.708917942  0 0 0 1 0" type="matrix" in="shadowBlurOuter1"></feColorMatrix>
        </filter>
    </defs>
    <g id="pages" stroke="none" stroke-width="1" fill="none" fill-rule="evenodd">
        <g id="PicklistOption" transform="translate(1.000000, 1.000000)" fill-rule="nonzero">
            <g id="Group-124">
                <g>
                    <use fill="black" fill-opacity="1" filter="url(#filter-2)" xlink:href="#path-1"></use>
                    <use fill="#FFFFFF" xlink:href="#path-1"></use>
                </g>
                <path d="M7.77777778,0.555555556 C3.78905458,0.555555556 0.555555556,3.78905458 0.555555556,7.77777778 L0.555555556,62.2222222 C0.555555556,66.2109454 3.78905458,69.4444444 7.77777778,69.4444444 L112.222222,69.4444444 C116.210945,69.4444444 119.444444,66.2109454 119.444444,62.2222222 L119.444444,7.77777778 C119.444444,3.78905458 116.210945,0.555555556 112.222222,0.555555556 L7.77777778,0.555555556 Z M7.77777778,-1.59872116e-13 L112.222222,-1.59872116e-13 C116.51777,-1.59872116e-13 120,3.48222972 120,7.77777778 L120,62.2222222 C120,66.5177703 116.51777,70 112.222222,70 L7.77777778,70 C3.48222972,70 0,66.5177703 0,62.2222222 L0,7.77777778 C0,3.48222972 3.48222972,-1.59872116e-13 7.77777778,-1.59872116e-13 Z" id="Rectangle" fill="#E3E5ED"></path>
                <g id="Group-130" transform="translate(11.000000, 16.000000)">
                    <path d="M1.61111111,21 C0.782683986,21 0.111111111,20.3284271 0.111111111,19.5 C0.111111111,18.6715729 0.782683986,18 1.61111111,18 L72.3611111,18 C73.1895382,18 73.8611111,18.6715729 73.8611111,19.5 C73.8611111,20.3284271 73.1895382,21 72.3611111,21 L1.61111111,21 Z" id="Path-Copy" fill-opacity="0.6" fill="#A4A7B5"></path>
                    <path d="M1.61111111,3 C0.782683986,3 0.111111111,2.32842712 0.111111111,1.5 C0.111111111,0.671572875 0.782683986,0 1.61111111,0 L24.3611111,0 C25.1895382,0 25.8611111,0.671572875 25.8611111,1.5 C25.8611111,2.32842712 25.1895382,3 24.3611111,3 L1.61111111,3 Z" id="Path-Copy-3" fill-opacity="0.6" fill="#A4A7B5"></path>
                    <path d="M30.5,3 C29.6715729,3 29,2.32842712 29,1.5 C29,0.671572875 29.6715729,0 30.5,0 L81.25,0 C82.0784271,0 82.75,0.671572875 82.75,1.5 C82.75,2.32842712 82.0784271,3 81.25,3 L30.5,3 Z" id="Path-Copy-16" fill-opacity="0.6" fill="#A4A7B5"></path>
                    <path d="M1.5,39 C0.671572875,39 -4.4408921e-14,38.3284271 -4.4408921e-14,37.5 C-4.4408921e-14,36.6715729 0.671572875,36 1.5,36 L14.25,36 C15.0784271,36 15.75,36.6715729 15.75,37.5 C15.75,38.3284271 15.0784271,39 14.25,39 L1.5,39 Z" id="Path-Copy-12" fill="#C8CAD3"></path>
                    <path d="M19.5,39 C18.6715729,39 18,38.3284271 18,37.5 C18,36.6715729 18.6715729,36 19.5,36 L52.75,36 C53.5784271,36 54.25,36.6715729 54.25,37.5 C54.25,38.3284271 53.5784271,39 52.75,39 L19.5,39 Z" fill-opacity="0.6" fill="#A4A7B5"></path>
                </g>
            </g>
        </g>
    </g>
</svg>