<?xml version="1.0" encoding="UTF-8"?>
<svg width="713px" height="445px" viewBox="0 0 713 445" version="1.1" xmlns="http://www.w3.org/2000/svg" xmlns:xlink="http://www.w3.org/1999/xlink">
    <!-- Generator: Sketch 62 (91390) - https://sketch.com -->
    <title>PresenceMap</title>
    <desc>Created with Sketch.</desc>
    <g id="pages" stroke="none" stroke-width="1" fill="none" fill-rule="evenodd">
        <g id="PresenceMap" transform="translate(-1.000000, -1.000000)">
            <g id="map" transform="translate(54.000000, 196.000000)" fill-rule="nonzero">
                <path d="M658.945876,236.564433 L563.868557,6.4007732 C562.373711,2.78221649 558.865979,0.425257732 554.975515,0.425257732 L104.818299,0.425257732 C100.927835,0.425257732 97.4188144,2.78350515 95.9252577,6.4007732 L0.846649485,236.564433 C-0.391752577,239.559278 -0.0618556701,242.98067 1.72680412,245.679124 C3.51417526,248.378866 6.52061856,250 9.74097938,250 L650.052835,250 C653.271907,250 656.279639,248.377577 658.06701,245.679124 C659.854381,242.981959 660.18299,239.560567 658.945876,236.564433 Z" id="Path" fill="#CCCCCC"></path>
                <path d="M554.365979,0.210051546 C558.256443,0.210051546 561.764175,2.56958763 563.260309,6.18685567 L563.260309,6.18685567 L580.645619,46.3221649 L339.606959,77.3221649 L252.033433,0.959051546 L178.822165,112.302835 L51.939433,112.302835 L95.3157216,6.18556701 C96.8092784,2.56829897 100.318299,0.210051546 104.208763,0.210051546 L104.208763,0.210051546 Z" id="Combined-Shape" fill="#518EF8"></path>
                <polygon id="Path" fill="#FFDB56" points="609.610647 117.103093 580.645619 46.3221649 393.244845 46.3221649 328.927835 0.210051546 245.304124 0.210051546 173.293814 112.302835 51.939433 112.302835 22.6920103 183.103093 144.137887 183.103093 116.136598 249.784794 210.717784 249.784794 288.179124 84.6108247 456.722938 249.784794 601.217784 249.784794 456.949742 117.103093"></polygon>
                <polygon id="Path" fill="#28B446" points="208.717784 249.784794 456.722938 249.784794 288.179124 84.6108247"></polygon>
            </g>
            <g id="Group-163" fill-rule="nonzero">
                <g id="Group-145" transform="translate(0.863713, 0.597360)">
                    <path d="M125.635595,0.402640264 C56.4357018,0.402640264 0.13628701,56.7377132 0.13628701,125.981435 C0.13628701,226.808263 114.43386,316.469206 119.300267,320.23596 C121.16653,321.680875 123.402447,322.40264 125.636979,322.40264 C127.871512,322.40264 130.107428,321.67949 131.973692,320.23596 C136.838715,316.469206 251.136287,226.808263 251.136287,125.981435 C251.136287,56.7390985 194.835488,0.402640264 125.635595,0.402640264 Z M125.635595,80.0281409 C150.999059,80.0281409 171.561186,100.601906 171.561186,125.98282 C171.561186,151.362349 151.000444,171.9375 125.635595,171.9375 C100.270746,171.9375 79.7100031,151.363734 79.7100031,125.98282 C79.7100031,100.603292 100.270746,80.0281409 125.635595,80.0281409 Z" id="Shape" fill="#FF4A4A"></path>
                    <path d="M125.478215,0.402640264 C118.901987,0.402640264 112.442202,0.912445198 106.136287,1.89049488 C166.27467,11.215215 212.453817,63.3095214 212.453817,125.980895 C212.453817,207.751944 137.187615,282.172381 106.136287,309.394302 C113.372355,315.737772 118.21165,319.522519 119.133486,320.235969 C121.00211,321.680878 123.240856,322.40264 125.478215,322.40264 C127.715574,322.40264 129.954319,321.679493 131.822944,320.235969 C136.694121,316.469231 251.136287,226.808674 251.136287,125.98228 C251.136287,56.7388561 194.76565,0.402640264 125.478215,0.402640264 Z" id="Path" fill="#E7343F"></path>
                </g>
                <ellipse id="Oval" fill-opacity="0.16" fill="#000000" cx="127.39604" cy="337.719472" rx="20.0660066" ry="5.28052805"></ellipse>
            </g>
            <g id="Group-161" transform="translate(518.000000, 33.000000)" fill-rule="nonzero">
                <g id="Group-160">
                    <path d="M90.5417228,1.19222152e-13 C40.616779,1.19222152e-13 0,40.616779 0,90.5417228 C0,121.277753 14.5274906,154.211835 43.1787266,188.430562 C64.1567041,213.484794 84.8693633,229.614682 85.7418727,230.290037 C87.1555056,231.38382 88.8491386,231.930187 90.5417228,231.930187 C92.2343071,231.930187 93.9279401,231.382772 95.341573,230.290037 C96.2140824,229.61573 116.92779,213.484794 137.904719,188.430562 C166.555955,154.210787 181.083446,121.275655 181.083446,90.5417228 C181.083446,40.616779 140.466667,1.19222152e-13 90.5417228,1.19222152e-13 Z M90.5417228,57.5562547 C108.758502,57.5562547 123.525094,72.3238951 123.525094,90.5396255 C123.525094,108.755356 108.758502,123.522996 90.5417228,123.522996 C72.3249438,123.522996 57.5583521,108.755356 57.5583521,90.5396255 C57.5583521,72.3238951 72.3249438,57.5562547 90.5417228,57.5562547 Z" id="Shape" fill="#FF4A4A"></path>
                    <path d="M90.5417228,1.19222152e-13 C85.5604494,1.19222152e-13 80.6735581,0.411086142 75.9093633,1.18816479 C118.901423,8.20389513 151.818727,45.5980524 151.818727,90.5417228 C151.818727,121.277753 137.291236,154.211835 108.64,188.430562 C96.3126592,203.153109 84.0807491,214.789363 75.9093633,222.02427 C81.6435955,227.099925 85.3821723,230.012135 85.7418727,230.290037 C87.1555056,231.38382 88.8491386,231.930187 90.5417228,231.930187 C92.2343071,231.930187 93.9279401,231.382772 95.341573,230.290037 C96.2140824,229.61573 116.92779,213.484794 137.904719,188.430562 C166.555955,154.210787 181.083446,121.275655 181.083446,90.5417228 C181.083446,40.616779 140.466667,1.19222152e-13 90.5417228,1.19222152e-13 Z" id="Path" fill="#E7343F"></path>
                </g>
                <ellipse id="Oval-Copy-43" fill-opacity="0.16" fill="#000000" cx="90.82397" cy="245.786517" rx="16.8539326" ry="4.21348315"></ellipse>
            </g>
            <g id="Group-162" transform="translate(275.000000, 45.000000)" fill-rule="nonzero">
                <g id="Group-119">
                    <path d="M61.0320596,9.84221358e-14 C27.3786234,9.84221358e-14 0,27.3793929 0,61.0328292 C0,81.7003115 9.7500466,103.825299 28.9808015,126.7937 C43.0379523,143.582711 56.9258048,154.397028 57.5106537,154.848747 C58.5479909,155.651375 59.7907948,156.052305 61.0328292,156.052305 C62.2748635,156.052305 63.518437,155.650606 64.5550047,154.848747 C65.1398535,154.396259 79.0269365,143.581172 93.0848569,126.7937 C112.316381,103.825299 122.066428,81.7003115 122.066428,61.0335987 C122.064889,27.3793929 94.6854959,9.84221358e-14 61.0320596,9.84221358e-14 Z M61.0320596,38.9855652 C73.2076901,38.9855652 83.0785541,48.8564292 83.0785541,61.0328292 C83.0785541,73.2084596 73.2076901,83.0793237 61.0320596,83.0793237 C48.8564292,83.0793237 38.9855652,73.2092291 38.9855652,61.0335987 C38.9855652,48.8564292 48.8564292,38.9855652 61.0320596,38.9855652 Z" id="Shape" fill="#FF4A4A"></path>
                    <path d="M61.0320596,1.74972686e-13 C57.3675196,1.74972686e-13 53.7837811,0.343213953 50.2946958,0.965000666 C78.8430169,6.05472507 100.590161,31.0439329 100.590161,61.0328292 C100.590161,81.7003115 90.8401145,103.825299 71.6085901,126.7937 C63.6561843,136.291338 55.7599547,143.875135 50.2939262,148.754006 C54.490217,152.499348 57.2551671,154.652515 57.5091146,154.849517 C58.5464519,155.652145 59.7892558,156.053074 61.0312901,156.053074 C62.2733245,156.053074 63.5168979,155.651375 64.5534656,154.849517 C65.1383145,154.397028 79.0253974,143.581941 93.0833178,126.794469 C112.314842,103.826068 122.064889,81.7010811 122.064889,61.0343683 C122.064889,27.3793929 94.6854959,1.74972686e-13 61.0320596,1.74972686e-13 Z" id="Path" fill="#E7343F"></path>
                </g>
                <ellipse id="Oval-Copy-44" fill-opacity="0.16" fill="#000000" cx="61.5675676" cy="164.243243" rx="11.027027" ry="2.75675676"></ellipse>
            </g>
            <path d="M182.0712,338.279639 L266.520069,338.279639 L330.777724,225.766108 L392.647775,278.522874 L565.0712,278.522874" id="Line-18" stroke-opacity="0.196569056" stroke="#000000" stroke-width="10" stroke-linecap="round" stroke-linejoin="round" stroke-dasharray="4,20"></path>
        </g>
    </g>
</svg>