<?xml version="1.0" encoding="UTF-8"?>
<svg width="159px" height="82px" viewBox="0 0 159 82" version="1.1" xmlns="http://www.w3.org/2000/svg" xmlns:xlink="http://www.w3.org/1999/xlink">
    <!-- Generator: Sketch 58 (84663) - https://sketch.com -->
    <title>ProgressCircular</title>
    <desc>Created with Sketch.</desc>
    <defs>
        <path d="M25,50 C11.1928813,50 0,38.8071187 0,25 C0,11.1928813 11.1928813,0 25,0 C38.8071187,0 50,11.1928813 50,25 C50,38.8071187 38.8071187,50 25,50 Z M25,48.0769231 C37.7450327,48.0769231 48.0769231,37.7450327 48.0769231,25 C48.0769231,12.2549673 37.7450327,1.92307692 25,1.92307692 C12.2549673,1.92307692 1.92307692,12.2549673 1.92307692,25 C1.92307692,37.7450327 12.2549673,48.0769231 25,48.0769231 Z" id="path-1"></path>
        <path d="M15,30 C6.71572875,30 0,23.2842712 0,15 C0,6.71572875 6.71572875,0 15,0 C23.2842712,0 30,6.71572875 30,15 C30,23.2842712 23.2842712,30 15,30 Z M15,28.8461538 C22.6470196,28.8461538 28.8461538,22.6470196 28.8461538,15 C28.8461538,7.35298039 22.6470196,1.15384615 15,1.15384615 C7.35298039,1.15384615 1.15384615,7.35298039 1.15384615,15 C1.15384615,22.6470196 7.35298039,28.8461538 15,28.8461538 Z" id="path-3"></path>
        <path d="M15,30 C6.71572875,30 0,23.2842712 0,15 C0,6.71572875 6.71572875,0 15,0 C23.2842712,0 30,6.71572875 30,15 C30,23.2842712 23.2842712,30 15,30 Z M15,28.8461538 C22.6470196,28.8461538 28.8461538,22.6470196 28.8461538,15 C28.8461538,7.35298039 22.6470196,1.15384615 15,1.15384615 C7.35298039,1.15384615 1.15384615,7.35298039 1.15384615,15 C1.15384615,22.6470196 7.35298039,28.8461538 15,28.8461538 Z" id="path-5"></path>
        <path d="M15,30 C6.71572875,30 0,23.2842712 0,15 C0,6.71572875 6.71572875,0 15,0 C23.2842712,0 30,6.71572875 30,15 C30,23.2842712 23.2842712,30 15,30 Z M15,28.8461538 C22.6470196,28.8461538 28.8461538,22.6470196 28.8461538,15 C28.8461538,7.35298039 22.6470196,1.15384615 15,1.15384615 C7.35298039,1.15384615 1.15384615,7.35298039 1.15384615,15 C1.15384615,22.6470196 7.35298039,28.8461538 15,28.8461538 Z" id="path-7"></path>
    </defs>
    <g id="pages" stroke="none" stroke-width="1" fill="none" fill-rule="evenodd">
        <g id="ProgressCircular">
            <g id="Group-131" transform="translate(74.000000, 2.000000)">
                <g id="Line-2">
                    <mask id="mask-2" fill="white">
                        <use xlink:href="#path-1"></use>
                    </mask>
                    <use id="Mask" fill="#01B6F5" fill-rule="nonzero" xlink:href="#path-1"></use>
                    <polygon fill="#E3E5ED" fill-rule="nonzero" mask="url(#mask-2)" points="25 -0.320512821 25 25 9.29487179 44.8717949 -0.641025641 44.8717949 -0.641025641 -0.383918618"></polygon>
                </g>
                <ellipse id="Oval" fill="#01B6F5" fill-rule="nonzero" cx="25" cy="0.968406593" rx="1" ry="1"></ellipse>
                <ellipse id="Oval" fill="#01B6F5" fill-rule="nonzero" cx="10.2472527" cy="43.9862637" rx="1" ry="1"></ellipse>
                <path d="M15.6357147,24.1428563 C15.5671433,24.2304752 15.5004767,24.3142849 15.4357147,24.3942849 C15.3709527,24.4742849 15.3100004,24.5542849 15.2528575,24.634285 C15.4395242,24.5123803 15.646191,24.4171421 15.8728576,24.3485706 C16.0995245,24.2799992 16.3442863,24.2457135 16.6071435,24.2457135 C16.9347625,24.2457135 17.2452389,24.2990467 17.5385722,24.4057135 C17.8319055,24.5123803 18.0900009,24.6695232 18.312858,24.8771421 C18.5357152,25.0847691 18.7119056,25.3409595 18.8414295,25.6457137 C18.9709531,25.9504755 19.0357153,26.299047 19.0357153,26.6914281 C19.0357153,27.0685711 18.9671439,27.420952 18.830001,27.7485712 C18.6928581,28.0761902 18.4995248,28.3599998 18.2500009,28.5999999 C18.0004769,28.8399999 17.7023819,29.0295237 17.355715,29.1685714 C17.0090482,29.307619 16.626191,29.3771429 16.2071434,29.3771429 C15.7880957,29.3771429 15.4109527,29.3104762 15.0757146,29.1771428 C14.7404748,29.0438094 14.4538082,28.8542856 14.2157145,28.6085713 C13.9776192,28.362857 13.794762,28.0666665 13.667143,27.7199997 C13.5395239,27.3733331 13.4757144,26.9866662 13.4757144,26.5599996 C13.4757144,26.1980948 13.5547621,25.8142851 13.7128573,25.4085708 C13.8709526,25.0028564 14.1214288,24.5695232 14.464286,24.1085706 L16.5271435,21.3485701 C16.5804767,21.2723794 16.658572,21.2095223 16.7614292,21.1599987 C16.8642864,21.1104751 16.9785721,21.0857129 17.1042864,21.0857129 L18.0700009,21.0857129 L15.6357147,24.1428563 Z M14.5157146,26.748571 C14.5157146,27.0038091 14.5528574,27.2371425 14.6271431,27.4485711 C14.7014289,27.6599997 14.8100003,27.8419045 14.9528575,27.9942855 C15.0957146,28.1466665 15.2709527,28.2647617 15.4785719,28.3485713 C15.686191,28.4323808 15.9214291,28.4742856 16.1842863,28.4742856 C16.4509531,28.4742856 16.6928578,28.4314284 16.9100007,28.3457141 C17.1271436,28.2599998 17.3128579,28.1409522 17.4671436,27.9885712 C17.6214293,27.8361903 17.7404769,27.6561903 17.8242865,27.4485711 C17.9080962,27.240952 17.9500008,27.0152377 17.9500008,26.7714282 C17.9500008,26.508571 17.9090483,26.2714281 17.8271437,26.0599995 C17.7452205,25.8485709 17.6290301,25.6704755 17.4785722,25.5257137 C17.3280877,25.3809519 17.1490402,25.2695233 16.9414292,25.1914279 C16.7338103,25.1133325 16.5042863,25.074285 16.2528577,25.074285 C15.9861909,25.074285 15.7452385,25.1190468 15.5300004,25.2085708 C15.3147624,25.2980947 15.1319052,25.4199994 14.9814289,25.574285 C14.8309526,25.7285708 14.7157146,25.9066662 14.6357146,26.1085709 C14.5557146,26.3104756 14.5157146,26.523809 14.5157146,26.748571 Z M26.5214296,25.1828565 C26.5214296,25.8990473 26.4442867,26.5199997 26.290001,27.0457139 C26.1357153,27.5714283 25.9242866,28.0066665 25.6557152,28.3514284 C25.3871437,28.6961904 25.0709533,28.9523808 24.7071436,29.12 C24.3433339,29.287619 23.9519053,29.3714286 23.5328577,29.3714286 C23.1138099,29.3714286 22.7233338,29.287619 22.3614289,29.12 C21.999524,28.9523808 21.684286,28.6961904 21.4157145,28.3514284 C21.147143,28.0066665 20.9366667,27.5714283 20.7842858,27.0457139 C20.6319047,26.5199995 20.5557143,25.8990469 20.5557143,25.1828565 C20.5557143,24.466666 20.6319049,23.8457134 20.7842858,23.319999 C20.9366667,22.7942847 21.147143,22.3590467 21.4157145,22.0142845 C21.6842859,21.669493 21.999524,21.4133023 22.3614289,21.245713 C22.723335,21.0780937 23.1138113,20.9942844 23.5328577,20.9942844 C23.9519053,20.9942844 24.3433339,21.0780937 24.7071436,21.245713 C25.0709533,21.4133323 25.3871437,21.6695223 25.6557152,22.0142845 C25.9242866,22.3590467 26.1357153,22.7942847 26.290001,23.319999 C26.4442867,23.8457134 26.5214296,24.466666 26.5214296,25.1828565 Z M25.3957151,25.1828565 C25.3957151,24.5657135 25.3442866,24.0476181 25.2414294,23.6285705 C25.1385722,23.2095226 25.0014294,22.8723797 24.8300008,22.6171418 C24.6585722,22.3619039 24.4604768,22.1799988 24.2357149,22.0714274 C24.0109531,21.9628559 23.7766674,21.9085702 23.5328577,21.9085702 C23.289048,21.9085702 23.0547624,21.9628559 22.8300004,22.0714274 C22.6052384,22.1799988 22.4071432,22.3619039 22.2357146,22.6171418 C22.064286,22.8723797 21.9280955,23.2095226 21.8271431,23.6285705 C21.7261906,24.0476181 21.6757145,24.5657135 21.6757145,25.1828565 C21.6757145,25.8038091 21.7261908,26.3238092 21.8271431,26.7428567 C21.9280955,27.1619045 22.064286,27.4980949 22.2357146,27.7514283 C22.4071432,28.0047617 22.6052384,28.1857141 22.8300004,28.2942856 C23.054765,28.402857 23.2890508,28.4571427 23.5328577,28.4571427 C23.7766674,28.4571427 24.0109531,28.402857 24.2357149,28.2942856 C24.4604768,28.1857141 24.6585722,28.0047617 24.8300008,27.7514283 C25.0014294,27.498094 25.1385722,27.1619034 25.2414294,26.7428567 C25.3442866,26.3238092 25.3957151,25.8038091 25.3957151,25.1828565 Z M31.715715,23.0628561 C31.715715,23.3828562 31.666191,23.6685705 31.5671435,23.9199991 C31.468096,24.1714277 31.3338103,24.384761 31.1642863,24.5599992 C30.9947624,24.7352375 30.7995245,24.8685707 30.5785719,24.9599993 C30.3576169,25.0514279 30.125236,25.0971422 29.881429,25.0971422 C29.6223812,25.0971422 29.3814289,25.0514279 29.1585717,24.9599993 C28.9357145,24.8685707 28.7433335,24.7352375 28.5814287,24.5599992 C28.419524,24.384761 28.2919049,24.1714277 28.1985715,23.9199991 C28.1052381,23.6685705 28.0585715,23.3828562 28.0585715,23.0628561 C28.0585715,22.7352368 28.1052381,22.4438082 28.1985715,22.1885703 C28.2919049,21.9333324 28.419524,21.7171416 28.5814287,21.5399987 C28.7433335,21.3628558 28.9357145,21.2285701 29.1585717,21.1371415 C29.3814289,21.0457129 29.6223812,20.9999986 29.881429,20.9999986 C30.1442861,20.9999986 30.3871433,21.0457129 30.6100005,21.1371415 C30.8328577,21.2285701 31.0261909,21.3628558 31.1900006,21.5399987 C31.3538103,21.7171416 31.4823817,21.9333324 31.5757149,22.1885703 C31.6690482,22.4438082 31.715715,22.7352368 31.715715,23.0628561 Z M30.8757148,23.0628561 C30.8757148,22.8190468 30.8500005,22.6114275 30.798572,22.4399989 C30.7471434,22.2685703 30.6757148,22.1295224 30.5842862,22.022856 C30.4928576,21.9161895 30.3871433,21.8390466 30.2671433,21.7914273 C30.1471433,21.7438081 30.0185718,21.7199988 29.881429,21.7199988 C29.7442861,21.7199988 29.6166669,21.7438081 29.4985717,21.7914273 C29.3804765,21.8390466 29.2776194,21.9161895 29.1900003,22.022856 C29.1023811,22.1295224 29.0328574,22.2685703 28.9814288,22.4399989 C28.9300002,22.6114275 28.9042859,22.8190468 28.9042859,23.0628561 C28.9042859,23.3028562 28.9300002,23.5066658 28.9814288,23.6742848 C29.0328574,23.8419142 29.1023811,23.9781046 29.1900003,24.0828563 C29.2776194,24.1876376 29.3804765,24.263828 29.4985717,24.3114278 C29.6166669,24.3590467 29.7442861,24.3828563 29.881429,24.3828563 C30.0185718,24.3828563 30.1471433,24.3590467 30.2671433,24.3114278 C30.3871433,24.2638088 30.4928576,24.1876181 30.5842862,24.0828563 C30.6757148,23.9780945 30.7471434,23.8419038 30.798572,23.6742848 C30.8500005,23.5066658 30.8757148,23.3028562 30.8757148,23.0628561 Z M34.5900012,21.2628558 C34.6280962,21.2171415 34.6738105,21.1761894 34.727144,21.1399987 C34.7804776,21.103808 34.8547633,21.0857129 34.9500012,21.0857129 L35.7328585,21.0857129 L29.7214289,29.1142857 C29.6833337,29.1638095 29.6357146,29.2047619 29.5785716,29.2371428 C29.5214289,29.2695238 29.4547623,29.2857143 29.3785717,29.2857143 L28.5785716,29.2857143 L34.5900012,21.2628558 Z M36.2700014,27.3485711 C36.2700014,27.6685712 36.2204778,27.9542855 36.12143,28.2057141 C36.0223821,28.4571427 35.8880964,28.6704761 35.7185728,28.8457142 C35.5490185,29.0209524 35.3537806,29.1542857 35.1328584,29.2457143 C34.9118783,29.3371429 34.6794975,29.3828572 34.4357154,29.3828572 C34.1766675,29.3828572 33.9357153,29.3371429 33.7128582,29.2457143 C33.490001,29.1542857 33.2966677,29.0209523 33.1328581,28.8457142 C32.9690484,28.6704761 32.8414294,28.4571427 32.7500008,28.2057141 C32.6585723,27.9542855 32.612858,27.6685712 32.612858,27.3485711 C32.612858,27.020952 32.6585723,26.7295233 32.7500008,26.4742853 C32.8414294,26.219047 32.9690484,26.0028566 33.1328581,25.8257137 C33.2966677,25.6485708 33.490001,25.5142851 33.7128582,25.4228565 C33.9357153,25.3314279 34.1766675,25.2857136 34.4357154,25.2857136 C34.6947905,25.2857136 34.9366955,25.3314279 35.1614298,25.4228565 C35.386192,25.5142851 35.5804777,25.6485708 35.7442871,25.8257137 C35.9080964,26.0028566 36.0366678,26.219047 36.1300014,26.4742853 C36.223335,26.7295233 36.2700014,27.020952 36.2700014,27.3485711 Z M35.4300013,27.3485711 C35.4300013,27.1047616 35.404287,26.8971425 35.3528584,26.7257139 C35.3014298,26.5542853 35.2300013,26.4142852 35.1385727,26.3057138 C35.0471441,26.1971424 34.9414298,26.119047 34.8214298,26.071428 C34.7014297,26.0238091 34.5728583,25.9999995 34.4357154,25.9999995 C34.2985725,25.9999995 34.1709532,26.0238091 34.0528582,26.071428 C33.9347144,26.119047 33.830905,26.1971424 33.7414296,26.3057138 C33.6518132,26.4142852 33.5822896,26.5542853 33.5328581,26.7257139 C33.4833345,26.8971425 33.4585724,27.1047616 33.4585724,27.3485711 C33.4585724,27.5885712 33.4833345,27.7923806 33.5328581,27.9599998 C33.5823817,28.127619 33.651906,28.2638095 33.7414296,28.3685713 C33.8309532,28.473334 33.9347632,28.5495244 34.0528582,28.5971427 C34.1709532,28.6447619 34.2985725,28.6685713 34.4357154,28.6685713 C34.5728583,28.6685713 34.7014297,28.6447619 34.8214298,28.5971427 C34.9414298,28.5495237 35.0471441,28.4733332 35.1385727,28.3685713 C35.2300013,28.2638094 35.3014298,28.1276188 35.3528584,27.9599998 C35.404287,27.7923806 35.4300013,27.5885712 35.4300013,27.3485711 Z" id="60%" fill="#01B6F5"></path>
            </g>
            <g id="Group-22">
                <g id="Line-2">
                    <mask id="mask-4" fill="white">
                        <use xlink:href="#path-3"></use>
                    </mask>
                    <use id="Mask" fill="#1DE9B6" fill-rule="nonzero" xlink:href="#path-3"></use>
                    <polygon fill="#1DE9B6" fill-rule="nonzero" mask="url(#mask-4)" points="15 -0.192307692 15 15 5.57692308 26.9230769 -0.384615385 26.9230769 -0.384615385 -0.230351171"></polygon>
                </g>
                <ellipse id="Oval" fill="#1DE9B6" fill-rule="nonzero" cx="15" cy="0.581043956" rx="1" ry="1"></ellipse>
                <ellipse id="Oval" fill="#1DE9B6" fill-rule="nonzero" cx="6.14835165" cy="26.3917582" rx="1" ry="1"></ellipse>
            </g>
            <path d="M5.3478854,17.3738063 L6.60845839,17.3738063 L6.60845839,13.3751705 C6.60845839,13.2551154 6.61255112,13.1336977 6.6207367,13.0109141 L5.57298772,13.9072306 C5.54570246,13.9290588 5.5184176,13.9447476 5.49113233,13.9542974 C5.46384707,13.9638473 5.43792645,13.9686221 5.41336971,13.9686221 C5.37244181,13.9686221 5.33560726,13.9597545 5.30286494,13.9420191 C5.27012262,13.9242837 5.24556625,13.9031379 5.22919509,13.8785812 L5,13.5634379 L6.74351978,12.053206 L7.33697135,12.053206 L7.33697135,17.3738063 L8.49113233,17.3738063 L8.49113233,17.9304229 L5.3478854,17.9304229 L5.3478854,17.3738063 Z M13.4229195,15 C13.4229195,15.512963 13.3676677,15.957024 13.2571623,16.3321965 C13.146657,16.7073689 12.9959082,17.0177341 12.8049113,17.2633015 C12.6139145,17.5088689 12.3881323,17.6916774 12.127558,17.8117326 C11.8669837,17.9317878 11.587996,17.9918145 11.2905866,17.9918145 C10.9904487,17.9918145 10.711461,17.9317878 10.4536153,17.8117326 C10.1957695,17.6916774 9.97135157,17.5088689 9.78035471,17.2633015 C9.58935784,17.0177341 9.43929113,16.7073689 9.33015007,16.3321965 C9.221009,15.957024 9.16643929,15.512963 9.16643929,15 C9.16643929,14.487037 9.221009,14.0422938 9.33015007,13.6657572 C9.43929113,13.2892205 9.58935784,12.977491 9.78035471,12.7305593 C9.97135157,12.4836277 10.1957695,12.300137 10.4536153,12.1800819 C10.711461,12.0600267 10.9904487,12 11.2905866,12 C11.587996,12 11.8669837,12.0600267 12.127558,12.1800819 C12.3881323,12.300137 12.6139145,12.4836277 12.8049113,12.7305593 C12.9959082,12.977491 13.146657,13.2892205 13.2571623,13.6657572 C13.3676677,14.0422938 13.4229195,14.487037 13.4229195,15 Z M12.6657572,15 C12.6657572,14.5525216 12.6282405,14.1766727 12.553206,13.872442 C12.4781715,13.5682113 12.3772176,13.3233297 12.2503411,13.1377899 C12.1234646,12.9522501 11.9768085,12.8192364 11.8103683,12.7387449 C11.6439282,12.6582533 11.4706694,12.6180082 11.2905866,12.6180082 C11.1105039,12.6180082 10.937245,12.6582533 10.7708049,12.7387449 C10.6043648,12.8192364 10.4583908,12.9522501 10.3328786,13.1377899 C10.2073664,13.3233297 10.1070945,13.5682113 10.03206,13.872442 C9.95702555,14.1766727 9.91950887,14.5525216 9.91950887,15 C9.91950887,15.4474784 9.95702555,15.8226451 10.03206,16.1255116 C10.1070945,16.428378 10.2073664,16.6725775 10.3328786,16.8581173 C10.4583908,17.0436571 10.6043648,17.1766708 10.7708049,17.2571623 C10.937245,17.3376539 11.1105039,17.377899 11.2905866,17.377899 C11.4706694,17.377899 11.6439282,17.3376539 11.8103683,17.2571623 C11.9768085,17.1766708 12.1234646,17.0436571 12.2503411,16.8581173 C12.3772176,16.6725775 12.4781715,16.428378 12.553206,16.1255116 C12.6282405,15.8226451 12.6657572,15.4474784 12.6657572,15 Z M18.1705321,15 C18.1705321,15.512963 18.1152802,15.957024 18.0047749,16.3321965 C17.8942696,16.7073689 17.7435207,17.0177341 17.5525239,17.2633015 C17.361527,17.5088689 17.1357448,17.6916774 16.8751705,17.8117326 C16.6145962,17.9317878 16.3356086,17.9918145 16.0381992,17.9918145 C15.7380613,17.9918145 15.4590736,17.9317878 15.2012278,17.8117326 C14.9433821,17.6916774 14.7189641,17.5088689 14.5279673,17.2633015 C14.3369704,17.0177341 14.1869037,16.7073689 14.0777626,16.3321965 C13.9686216,15.957024 13.9140518,15.512963 13.9140518,15 C13.9140518,14.487037 13.9686216,14.0422938 14.0777626,13.6657572 C14.1869037,13.2892205 14.3369704,12.977491 14.5279673,12.7305593 C14.7189641,12.4836277 14.9433821,12.300137 15.2012278,12.1800819 C15.4590736,12.0600267 15.7380613,12 16.0381992,12 C16.3356086,12 16.6145962,12.0600267 16.8751705,12.1800819 C17.1357448,12.300137 17.361527,12.4836277 17.5525239,12.7305593 C17.7435207,12.977491 17.8942696,13.2892205 18.0047749,13.6657572 C18.1152802,14.0422938 18.1705321,14.487037 18.1705321,15 Z M17.4133697,15 C17.4133697,14.5525216 17.375853,14.1766727 17.3008186,13.872442 C17.2257841,13.5682113 17.1248301,13.3233297 16.9979536,13.1377899 C16.8710771,12.9522501 16.724421,12.8192364 16.5579809,12.7387449 C16.3915408,12.6582533 16.2182819,12.6180082 16.0381992,12.6180082 C15.8581164,12.6180082 15.6848576,12.6582533 15.5184175,12.7387449 C15.3519773,12.8192364 15.2060034,12.9522501 15.0804911,13.1377899 C14.9549789,13.3233297 14.8547071,13.5682113 14.7796726,13.872442 C14.7046381,14.1766727 14.6671214,14.5525216 14.6671214,15 C14.6671214,15.4474784 14.7046381,15.8226451 14.7796726,16.1255116 C14.8547071,16.428378 14.9549789,16.6725775 15.0804911,16.8581173 C15.2060034,17.0436571 15.3519773,17.1766708 15.5184175,17.2571623 C15.6848576,17.3376539 15.8581164,17.377899 16.0381992,17.377899 C16.2182819,17.377899 16.3915408,17.3376539 16.5579809,17.2571623 C16.724421,17.1766708 16.8710771,17.0436571 16.9979536,16.8581173 C17.1248301,16.6725775 17.2257841,16.428378 17.3008186,16.1255116 C17.375853,15.8226451 17.4133697,15.4474784 17.4133697,15 Z M21.3096862,13.4815825 C21.3096862,13.7107788 21.2742159,13.9160973 21.2032742,14.0975443 C21.1323325,14.2789914 21.0375176,14.4317866 20.9188267,14.5559345 C20.8001358,14.6800825 20.6616652,14.7748974 20.5034106,14.840382 C20.3451561,14.9058666 20.1800827,14.9386085 20.0081855,14.9386085 C19.8226457,14.9386085 19.6514333,14.9058666 19.494543,14.840382 C19.3376527,14.7748974 19.2005463,14.6800825 19.0832196,14.5559345 C18.965893,14.4317866 18.8744887,14.2789914 18.8090041,14.0975443 C18.7435195,13.9160973 18.7107776,13.7107788 18.7107776,13.4815825 C18.7107776,13.2469292 18.7435195,13.0382001 18.8090041,12.8553888 C18.8744887,12.6725775 18.965893,12.5184181 19.0832196,12.3929059 C19.2005463,12.2673936 19.3376527,12.1718966 19.494543,12.106412 C19.6514333,12.0409274 19.8226457,12.0081855 20.0081855,12.0081855 C20.1909968,12.0081855 20.3622093,12.0409274 20.5218281,12.106412 C20.6814469,12.1718966 20.8192354,12.2673936 20.9351978,12.3929059 C21.0511602,12.5184181 21.1425645,12.6725775 21.2094134,12.8553888 C21.2762623,13.0382001 21.3096862,13.2469292 21.3096862,13.4815825 Z M20.7407913,13.4815825 C20.7407913,13.3014998 20.7216919,13.1487046 20.6834925,13.0231924 C20.6452931,12.8976801 20.5927698,12.7946798 20.5259209,12.7141883 C20.459072,12.6336967 20.3813101,12.5757164 20.292633,12.5402456 C20.2039559,12.5047747 20.109141,12.4870396 20.0081855,12.4870396 C19.9072301,12.4870396 19.8124152,12.5047747 19.7237381,12.5402456 C19.6350609,12.5757164 19.5579812,12.6336967 19.4924966,12.7141883 C19.427012,12.7946798 19.3758528,12.8976801 19.3390177,13.0231924 C19.3021826,13.1487046 19.2837653,13.3014998 19.2837653,13.4815825 C19.2837653,13.6589368 19.3021826,13.8096856 19.3390177,13.9338336 C19.3758528,14.0579815 19.427012,14.1589355 19.4924966,14.2366985 C19.5579812,14.3144615 19.6350609,14.3703955 19.7237381,14.404502 C19.8124152,14.4386086 19.9072301,14.4556617 20.0081855,14.4556617 C20.109141,14.4556617 20.2039559,14.4386086 20.292633,14.404502 C20.3813101,14.3703955 20.459072,14.3144615 20.5259209,14.2366985 C20.5927698,14.1589355 20.6452931,14.0579815 20.6834925,13.9338336 C20.7216919,13.8096856 20.7407913,13.6589368 20.7407913,13.4815825 Z M23.3601637,12.212824 C23.3956346,12.1664391 23.4331512,12.1302866 23.4727149,12.1043656 C23.5122785,12.0784446 23.5648019,12.0654843 23.6302865,12.0654843 L24.154161,12.0654843 L19.8690314,17.8117326 C19.8417461,17.8472035 19.8090043,17.8758526 19.7708049,17.8976808 C19.7326055,17.919509 19.6875855,17.9304229 19.6357435,17.9304229 L19.095498,17.9304229 L23.3601637,12.212824 Z M24.5511596,16.5470668 C24.5511596,16.7762631 24.5156893,16.9808995 24.4447476,17.1609823 C24.3738059,17.341065 24.278991,17.4931781 24.1603001,17.6173261 C24.0416092,17.741474 23.9038207,17.8362889 23.7469304,17.9017735 C23.5900401,17.9672582 23.4256489,18 23.2537517,18 C23.0682119,18 22.8969994,17.9672582 22.7401091,17.9017735 C22.5832189,17.8362889 22.4461125,17.741474 22.3287858,17.6173261 C22.2114592,17.4931781 22.1200549,17.341065 22.0545703,17.1609823 C21.9890856,16.9808995 21.9563438,16.7762631 21.9563438,16.5470668 C21.9563438,16.3124136 21.9890856,16.1030023 22.0545703,15.9188267 C22.1200549,15.7346512 22.2114592,15.5798096 22.3287858,15.4542974 C22.4461125,15.3287852 22.5832189,15.2332882 22.7401091,15.1678035 C22.8969994,15.1023189 23.0682119,15.0695771 23.2537517,15.0695771 C23.436563,15.0695771 23.6070933,15.1023189 23.7653479,15.1678035 C23.9236024,15.2332882 24.061391,15.3287852 24.1787176,15.4542974 C24.2960442,15.5798096 24.3874485,15.7346512 24.4529332,15.9188267 C24.5184178,16.1030023 24.5511596,16.3124136 24.5511596,16.5470668 Z M23.9863574,16.5470668 C23.9863574,16.3669841 23.967258,16.2135068 23.9290587,16.0866303 C23.8908593,15.9597538 23.8383359,15.8567535 23.771487,15.7776262 C23.7046381,15.6984989 23.6268763,15.6412007 23.5381992,15.6057299 C23.4495221,15.570259 23.3547072,15.5525239 23.2537517,15.5525239 C23.1527962,15.5525239 23.0579813,15.570259 22.9693042,15.6057299 C22.8806271,15.6412007 22.8035474,15.6984989 22.7380628,15.7776262 C22.6725781,15.8567535 22.621419,15.9597538 22.5845839,16.0866303 C22.5477488,16.2135068 22.5293315,16.3669841 22.5293315,16.5470668 C22.5293315,16.7244211 22.5477488,16.8744878 22.5845839,16.9972715 C22.621419,17.1200552 22.6725781,17.220327 22.7380628,17.29809 C22.8035474,17.375853 22.8806271,17.431787 22.9693042,17.4658936 C23.0579813,17.5000002 23.1527962,17.5170532 23.2537517,17.5170532 C23.3547072,17.5170532 23.4495221,17.5000002 23.5381992,17.4658936 C23.6268763,17.431787 23.7046381,17.375853 23.771487,17.29809 C23.8383359,17.220327 23.8908593,17.1200552 23.9290587,16.9972715 C23.967258,16.8744878 23.9863574,16.7244211 23.9863574,16.5470668 Z" id="100%" fill="#1DE9B6" fill-rule="nonzero"></path>
            <path d="M45.3478854,69.3738063 L46.6084584,69.3738063 L46.6084584,65.3751705 C46.6084584,65.2551154 46.6125511,65.1336977 46.6207367,65.0109141 L45.5729877,65.9072306 C45.5457025,65.9290588 45.5184176,65.9447476 45.4911323,65.9542974 C45.4638471,65.9638473 45.4379265,65.9686221 45.4133697,65.9686221 C45.3724418,65.9686221 45.3356073,65.9597545 45.3028649,65.9420191 C45.2701226,65.9242837 45.2455662,65.9031379 45.2291951,65.8785812 L45,65.5634379 L46.7435198,64.053206 L47.3369714,64.053206 L47.3369714,69.3738063 L48.4911323,69.3738063 L48.4911323,69.9304229 L45.3478854,69.9304229 L45.3478854,69.3738063 Z M53.1705321,67 C53.1705321,67.512963 53.1152802,67.957024 53.0047749,68.3321965 C52.8942696,68.7073689 52.7435207,69.0177341 52.5525239,69.2633015 C52.361527,69.5088689 52.1357448,69.6916774 51.8751705,69.8117326 C51.6145962,69.9317878 51.3356086,69.9918145 51.0381992,69.9918145 C50.7380613,69.9918145 50.4590736,69.9317878 50.2012278,69.8117326 C49.9433821,69.6916774 49.7189641,69.5088689 49.5279673,69.2633015 C49.3369704,69.0177341 49.1869037,68.7073689 49.0777626,68.3321965 C48.9686216,67.957024 48.9140518,67.512963 48.9140518,67 C48.9140518,66.487037 48.9686216,66.0422938 49.0777626,65.6657572 C49.1869037,65.2892205 49.3369704,64.977491 49.5279673,64.7305593 C49.7189641,64.4836277 49.9433821,64.300137 50.2012278,64.1800819 C50.4590736,64.0600267 50.7380613,64 51.0381992,64 C51.3356086,64 51.6145962,64.0600267 51.8751705,64.1800819 C52.1357448,64.300137 52.361527,64.4836277 52.5525239,64.7305593 C52.7435207,64.977491 52.8942696,65.2892205 53.0047749,65.6657572 C53.1152802,66.0422938 53.1705321,66.487037 53.1705321,67 Z M52.4133697,67 C52.4133697,66.5525216 52.375853,66.1766727 52.3008186,65.872442 C52.2257841,65.5682113 52.1248301,65.3233297 51.9979536,65.1377899 C51.8710771,64.9522501 51.724421,64.8192364 51.5579809,64.7387449 C51.3915408,64.6582533 51.2182819,64.6180082 51.0381992,64.6180082 C50.8581164,64.6180082 50.6848576,64.6582533 50.5184175,64.7387449 C50.3519773,64.8192364 50.2060034,64.9522501 50.0804911,65.1377899 C49.9549789,65.3233297 49.8547071,65.5682113 49.7796726,65.872442 C49.7046381,66.1766727 49.6671214,66.5525216 49.6671214,67 C49.6671214,67.4474784 49.7046381,67.8226451 49.7796726,68.1255116 C49.8547071,68.428378 49.9549789,68.6725775 50.0804911,68.8581173 C50.2060034,69.0436571 50.3519773,69.1766708 50.5184175,69.2571623 C50.6848576,69.3376539 50.8581164,69.377899 51.0381992,69.377899 C51.2182819,69.377899 51.3915408,69.3376539 51.5579809,69.2571623 C51.724421,69.1766708 51.8710771,69.0436571 51.9979536,68.8581173 C52.1248301,68.6725775 52.2257841,68.428378 52.3008186,68.1255116 C52.375853,67.8226451 52.4133697,67.4474784 52.4133697,67 Z M56.3096862,65.4815825 C56.3096862,65.7107788 56.2742159,65.9160973 56.2032742,66.0975443 C56.1323325,66.2789914 56.0375176,66.4317866 55.9188267,66.5559345 C55.8001358,66.6800825 55.6616652,66.7748974 55.5034106,66.840382 C55.3451561,66.9058666 55.1800827,66.9386085 55.0081855,66.9386085 C54.8226457,66.9386085 54.6514333,66.9058666 54.494543,66.840382 C54.3376527,66.7748974 54.2005463,66.6800825 54.0832196,66.5559345 C53.965893,66.4317866 53.8744887,66.2789914 53.8090041,66.0975443 C53.7435195,65.9160973 53.7107776,65.7107788 53.7107776,65.4815825 C53.7107776,65.2469292 53.7435195,65.0382001 53.8090041,64.8553888 C53.8744887,64.6725775 53.965893,64.5184181 54.0832196,64.3929059 C54.2005463,64.2673936 54.3376527,64.1718966 54.494543,64.106412 C54.6514333,64.0409274 54.8226457,64.0081855 55.0081855,64.0081855 C55.1909968,64.0081855 55.3622093,64.0409274 55.5218281,64.106412 C55.6814469,64.1718966 55.8192354,64.2673936 55.9351978,64.3929059 C56.0511602,64.5184181 56.1425645,64.6725775 56.2094134,64.8553888 C56.2762623,65.0382001 56.3096862,65.2469292 56.3096862,65.4815825 Z M55.7407913,65.4815825 C55.7407913,65.3014998 55.7216919,65.1487046 55.6834925,65.0231924 C55.6452931,64.8976801 55.5927698,64.7946798 55.5259209,64.7141883 C55.459072,64.6336967 55.3813101,64.5757164 55.292633,64.5402456 C55.2039559,64.5047747 55.109141,64.4870396 55.0081855,64.4870396 C54.9072301,64.4870396 54.8124152,64.5047747 54.7237381,64.5402456 C54.6350609,64.5757164 54.5579812,64.6336967 54.4924966,64.7141883 C54.427012,64.7946798 54.3758528,64.8976801 54.3390177,65.0231924 C54.3021826,65.1487046 54.2837653,65.3014998 54.2837653,65.4815825 C54.2837653,65.6589368 54.3021826,65.8096856 54.3390177,65.9338336 C54.3758528,66.0579815 54.427012,66.1589355 54.4924966,66.2366985 C54.5579812,66.3144615 54.6350609,66.3703955 54.7237381,66.404502 C54.8124152,66.4386086 54.9072301,66.4556617 55.0081855,66.4556617 C55.109141,66.4556617 55.2039559,66.4386086 55.292633,66.404502 C55.3813101,66.3703955 55.459072,66.3144615 55.5259209,66.2366985 C55.5927698,66.1589355 55.6452931,66.0579815 55.6834925,65.9338336 C55.7216919,65.8096856 55.7407913,65.6589368 55.7407913,65.4815825 Z M58.3601637,64.212824 C58.3956346,64.1664391 58.4331512,64.1302866 58.4727149,64.1043656 C58.5122785,64.0784446 58.5648019,64.0654843 58.6302865,64.0654843 L59.154161,64.0654843 L54.8690314,69.8117326 C54.8417461,69.8472035 54.8090043,69.8758526 54.7708049,69.8976808 C54.7326055,69.919509 54.6875855,69.9304229 54.6357435,69.9304229 L54.095498,69.9304229 L58.3601637,64.212824 Z M59.5511596,68.5470668 C59.5511596,68.7762631 59.5156893,68.9808995 59.4447476,69.1609823 C59.3738059,69.341065 59.278991,69.4931781 59.1603001,69.6173261 C59.0416092,69.741474 58.9038207,69.8362889 58.7469304,69.9017735 C58.5900401,69.9672582 58.4256489,70 58.2537517,70 C58.0682119,70 57.8969994,69.9672582 57.7401091,69.9017735 C57.5832189,69.8362889 57.4461125,69.741474 57.3287858,69.6173261 C57.2114592,69.4931781 57.1200549,69.341065 57.0545703,69.1609823 C56.9890856,68.9808995 56.9563438,68.7762631 56.9563438,68.5470668 C56.9563438,68.3124136 56.9890856,68.1030023 57.0545703,67.9188267 C57.1200549,67.7346512 57.2114592,67.5798096 57.3287858,67.4542974 C57.4461125,67.3287852 57.5832189,67.2332882 57.7401091,67.1678035 C57.8969994,67.1023189 58.0682119,67.0695771 58.2537517,67.0695771 C58.436563,67.0695771 58.6070933,67.1023189 58.7653479,67.1678035 C58.9236024,67.2332882 59.061391,67.3287852 59.1787176,67.4542974 C59.2960442,67.5798096 59.3874485,67.7346512 59.4529332,67.9188267 C59.5184178,68.1030023 59.5511596,68.3124136 59.5511596,68.5470668 Z M58.9863574,68.5470668 C58.9863574,68.3669841 58.967258,68.2135068 58.9290587,68.0866303 C58.8908593,67.9597538 58.8383359,67.8567535 58.771487,67.7776262 C58.7046381,67.6984989 58.6268763,67.6412007 58.5381992,67.6057299 C58.4495221,67.570259 58.3547072,67.5525239 58.2537517,67.5525239 C58.1527962,67.5525239 58.0579813,67.570259 57.9693042,67.6057299 C57.8806271,67.6412007 57.8035474,67.6984989 57.7380628,67.7776262 C57.6725781,67.8567535 57.621419,67.9597538 57.5845839,68.0866303 C57.5477488,68.2135068 57.5293315,68.3669841 57.5293315,68.5470668 C57.5293315,68.7244211 57.5477488,68.8744878 57.5845839,68.9972715 C57.621419,69.1200552 57.6725781,69.220327 57.7380628,69.29809 C57.8035474,69.375853 57.8806271,69.431787 57.9693042,69.4658936 C58.0579813,69.5000002 58.1527962,69.5170532 58.2537517,69.5170532 C58.3547072,69.5170532 58.4495221,69.5000002 58.5381992,69.4658936 C58.6268763,69.431787 58.7046381,69.375853 58.771487,69.29809 C58.8383359,69.220327 58.8908593,69.1200552 58.9290587,68.9972715 C58.967258,68.8744878 58.9863574,68.7244211 58.9863574,68.5470668 Z" id="100%" fill="#FE4849" fill-rule="nonzero"></path>
            <g id="Group-22-Copy" transform="translate(37.000000, 52.000000)">
                <g id="Line-2">
                    <mask id="mask-6" fill="white">
                        <use xlink:href="#path-5"></use>
                    </mask>
                    <use id="Mask" fill="#FE4849" fill-rule="nonzero" xlink:href="#path-5"></use>
                    <polygon fill="#E3E5ED" fill-rule="nonzero" mask="url(#mask-6)" points="15 -0.192307692 15 15 31.6582938 -0.230351171 28.8461538 30.5267925 -0.384615385 30.5267925 -0.384615385 -0.230351171"></polygon>
                </g>
            </g>
            <g id="Group-22" transform="translate(129.000000, 52.000000)">
                <g id="Line-2">
                    <mask id="mask-8" fill="white">
                        <use xlink:href="#path-7"></use>
                    </mask>
                    <use id="Mask" fill="#FFCC00" fill-rule="nonzero" xlink:href="#path-7"></use>
                    <polygon fill="#E3E5ED" fill-rule="nonzero" mask="url(#mask-8)" points="15 -0.192307692 15 15 5.57692308 26.9230769 -0.384615385 26.9230769 -0.384615385 -0.230351171"></polygon>
                </g>
                <g id="Group-10" transform="translate(14.142857, 9.857143)"></g>
            </g>
            <path d="M137.544959,66.2520436 C137.495913,66.3147138 137.448229,66.3746594 137.401907,66.4318801 C137.355586,66.4891008 137.311989,66.5463215 137.271117,66.6035422 C137.404632,66.5163489 137.552452,66.4482289 137.714578,66.3991826 C137.876703,66.3501362 138.051771,66.3256131 138.239782,66.3256131 C138.474114,66.3256131 138.696185,66.3637601 138.905995,66.4400545 C139.115804,66.5163489 139.300409,66.6287467 139.459809,66.777248 C139.61921,66.925755 139.745232,67.1089974 139.837875,67.3269755 C139.930518,67.544959 139.976839,67.7942778 139.976839,68.0749319 C139.976839,68.3446866 139.927793,68.5967302 139.8297,68.8310627 C139.731608,69.0653951 139.593324,69.2683924 139.41485,69.4400545 C139.236376,69.6117166 139.023161,69.7472752 138.775204,69.8467302 C138.527248,69.9461853 138.253406,69.9959128 137.953678,69.9959128 C137.653951,69.9959128 137.384196,69.9482289 137.144414,69.852861 C136.904631,69.7574931 136.69959,69.6219345 136.529292,69.4461853 C136.358992,69.270436 136.228202,69.0585831 136.136921,68.8106267 C136.04564,68.5626703 136,68.2861035 136,67.9809264 C136,67.7220709 136.05654,67.4475477 136.169619,67.1573569 C136.282698,66.8671662 136.461853,66.5572208 136.707084,66.2275204 L138.182561,64.253406 C138.220708,64.1989099 138.276567,64.1539508 138.350136,64.1185286 C138.423706,64.0831064 138.50545,64.0653951 138.595368,64.0653951 L139.286104,64.0653951 L137.544959,66.2520436 Z M136.743869,68.1158038 C136.743869,68.2983651 136.770436,68.4652589 136.823569,68.616485 C136.876703,68.7677112 136.95436,68.8978201 137.05654,69.006812 C137.158719,69.1158038 137.28406,69.2002725 137.432561,69.260218 C137.581063,69.3201635 137.749319,69.3501362 137.93733,69.3501362 C138.128065,69.3501362 138.30109,69.3194823 138.456403,69.2581744 C138.611717,69.1968665 138.74455,69.1117166 138.854905,69.0027248 C138.965259,68.893733 139.050409,68.7649864 139.110354,68.616485 C139.1703,68.4679836 139.200272,68.3065395 139.200272,68.1321526 C139.200272,67.9441417 139.170981,67.7745232 139.112398,67.623297 C139.053802,67.4720708 138.970695,67.3446866 138.863079,67.2411444 C138.755444,67.1376023 138.627378,67.057902 138.478883,67.0020436 C138.330382,66.9461852 138.166213,66.9182561 137.986376,66.9182561 C137.79564,66.9182561 137.623297,66.9502724 137.469346,67.0143052 C137.315395,67.078338 137.184605,67.1655313 137.076975,67.2758856 C136.969346,67.3862398 136.886921,67.5136241 136.8297,67.6580381 C136.77248,67.8024522 136.743869,67.9550408 136.743869,68.1158038 Z M145.331062,66.9959128 C145.331062,67.5081746 145.275885,67.9523162 145.16553,68.3283379 C145.055176,68.7043597 144.90395,69.0156676 144.711852,69.2622616 C144.519754,69.5088556 144.293596,69.6920981 144.033378,69.8119891 C143.77316,69.9318801 143.493187,69.9918256 143.19346,69.9918256 C142.893732,69.9918256 142.614441,69.9318801 142.355585,69.8119891 C142.096729,69.6920981 141.871253,69.5088556 141.679154,69.2622616 C141.487056,69.0156676 141.336511,68.7043597 141.22752,68.3283379 C141.118528,67.9523161 141.064032,67.5081743 141.064032,66.9959128 C141.064032,66.4836513 141.118528,66.0395095 141.22752,65.6634877 C141.336511,65.2874659 141.487056,64.9761582 141.679154,64.729564 C141.871252,64.4829489 142.096729,64.2997062 142.355585,64.1798365 C142.614441,64.0599453 142.893733,64 143.19346,64 C143.493187,64 143.77316,64.0599453 144.033378,64.1798365 C144.293596,64.2997277 144.519754,64.4829699 144.711852,64.729564 C144.90395,64.9761582 145.055176,65.2874659 145.16553,65.6634877 C145.275885,66.0395095 145.331062,66.4836513 145.331062,66.9959128 Z M144.525885,66.9959128 C144.525885,66.5544959 144.4891,66.1839236 144.41553,65.8841962 C144.341961,65.5844685 144.243868,65.3433241 144.121253,65.1607629 C143.998637,64.9782018 143.856947,64.8480926 143.696184,64.770436 C143.535422,64.6927793 143.367847,64.653951 143.19346,64.653951 C143.019073,64.653951 142.851498,64.6927793 142.690735,64.770436 C142.529972,64.8480926 142.388283,64.9782018 142.265667,65.1607629 C142.143051,65.3433241 142.045639,65.5844685 141.973432,65.8841962 C141.901225,66.1839236 141.865122,66.5544959 141.865122,66.9959128 C141.865122,67.4400546 141.901225,67.8119892 141.973432,68.1117166 C142.045639,68.4114442 142.143051,68.6519073 142.265667,68.8331063 C142.388283,69.0143052 142.529972,69.143733 142.690735,69.2213896 C142.8515,69.2990463 143.019075,69.3378747 143.19346,69.3378747 C143.367847,69.3378747 143.535422,69.2990463 143.696184,69.2213896 C143.856947,69.143733 143.998637,69.0143052 144.121253,68.8331063 C144.243868,68.6519067 144.341961,68.4114434 144.41553,68.1117166 C144.4891,67.8119892 144.525885,67.4400546 144.525885,66.9959128 Z M149.04632,65.479564 C149.04632,65.7084469 149.010897,65.9128065 148.940053,66.0926431 C148.869208,66.2724796 148.773159,66.425068 148.651906,66.5504087 C148.530652,66.6757494 148.391007,66.7711172 148.232968,66.8365123 C148.074928,66.9019074 147.908716,66.9346049 147.734331,66.9346049 C147.549045,66.9346049 147.376701,66.9019074 147.217301,66.8365123 C147.0579,66.7711172 146.920298,66.6757494 146.804494,66.5504087 C146.68869,66.425068 146.59741,66.2724796 146.530652,66.0926431 C146.463895,65.9128065 146.430516,65.7084469 146.430516,65.479564 C146.430516,65.2452314 146.463895,65.0367846 146.530652,64.8542234 C146.59741,64.6716623 146.68869,64.51703 146.804494,64.390327 C146.920298,64.263624 147.0579,64.1675749 147.217301,64.1021798 C147.376701,64.0367847 147.549045,64.0040872 147.734331,64.0040872 C147.922342,64.0040872 148.096047,64.0367847 148.255448,64.1021798 C148.414848,64.1675749 148.553132,64.263624 148.670298,64.390327 C148.787464,64.51703 148.879426,64.6716623 148.946184,64.8542234 C149.012941,65.0367846 149.04632,65.2452314 149.04632,65.479564 Z M148.445502,65.479564 C148.445502,65.3051773 148.42711,65.1566757 148.390325,65.0340599 C148.353541,64.9114441 148.302451,64.8119889 148.237055,64.7356948 C148.17166,64.6594007 148.096047,64.6042236 148.010216,64.5701635 C147.924385,64.5361034 147.832423,64.5190736 147.734331,64.5190736 C147.636238,64.5190736 147.544957,64.5361034 147.460489,64.5701635 C147.37602,64.6042236 147.302451,64.6594007 147.23978,64.7356948 C147.17711,64.8119889 147.127382,64.9114441 147.090598,65.0340599 C147.053813,65.1566757 147.035421,65.3051773 147.035421,65.479564 C147.035421,65.6512262 147.053813,65.7970028 147.090598,65.9168937 C147.127382,66.0367921 147.17711,66.1342035 147.23978,66.2091281 C147.302451,66.2840738 147.37602,66.3385697 147.460489,66.3726158 C147.544957,66.4066757 147.636238,66.4237057 147.734331,66.4237057 C147.832423,66.4237057 147.924385,66.4066757 148.010216,66.3726158 C148.096047,66.3385559 148.17166,66.2840599 148.237055,66.2091281 C148.302451,66.1341963 148.353541,66.0367847 148.390325,65.9168937 C148.42711,65.7970028 148.445502,65.6512262 148.445502,65.479564 Z M151.102178,64.1920981 C151.129426,64.1594005 151.162123,64.1301092 151.200271,64.1042234 C151.238418,64.0783377 151.291552,64.0653951 151.359671,64.0653951 L151.919617,64.0653951 L147.619889,69.8079019 C147.592641,69.8433243 147.558581,69.8726158 147.517709,69.8957766 C147.476838,69.9189374 147.429154,69.9305177 147.374658,69.9305177 L146.802451,69.9305177 L151.102178,64.1920981 Z M152.303813,68.5449591 C152.303813,68.773842 152.268391,68.9782016 152.197546,69.1580381 C152.126701,69.3378747 152.030652,69.4904633 151.909399,69.6158038 C151.788124,69.7411444 151.648478,69.8365123 151.490461,69.9019074 C151.332404,69.9673025 151.166191,70 150.991824,70 C150.806538,70 150.634194,69.9673025 150.474794,69.9019074 C150.315393,69.8365123 150.17711,69.7411444 150.059944,69.6158038 C149.942777,69.4904633 149.851497,69.3378747 149.786102,69.1580381 C149.720707,68.9782016 149.688009,68.773842 149.688009,68.5449591 C149.688009,68.3106267 149.720707,68.1021798 149.786102,67.9196185 C149.851497,67.7370571 149.942777,67.5824251 150.059944,67.4557221 C150.17711,67.3290191 150.315393,67.23297 150.474794,67.1675749 C150.634194,67.1021798 150.806538,67.0694823 150.991824,67.0694823 C151.17713,67.0694823 151.350154,67.1021798 151.510897,67.1675749 C151.671661,67.23297 151.810625,67.3290191 151.927791,67.4557221 C152.044957,67.5824251 152.136919,67.7370571 152.203677,67.9196185 C152.270434,68.1021798 152.303813,68.3106267 152.303813,68.5449591 Z M151.702996,68.5449591 C151.702996,68.3705722 151.684603,68.2220708 151.647818,68.099455 C151.611034,67.9768392 151.559944,67.876703 151.494549,67.7990463 C151.429154,67.7213896 151.353541,67.6655313 151.267709,67.6314714 C151.181878,67.5974115 151.089917,67.5803815 150.991824,67.5803815 C150.893731,67.5803815 150.80245,67.5974115 150.717982,67.6314714 C150.633479,67.6655313 150.559228,67.7213896 150.49523,67.7990463 C150.431131,67.876703 150.381404,67.9768392 150.346047,68.099455 C150.310625,68.2220708 150.292914,68.3705722 150.292914,68.5449591 C150.292914,68.7166213 150.310625,68.8623978 150.346047,68.9822888 C150.38147,69.1021799 150.431197,69.1995914 150.49523,69.2745232 C150.559262,69.3494556 150.633513,69.4039515 150.717982,69.4380109 C150.80245,69.4720709 150.893731,69.4891008 150.991824,69.4891008 C151.089917,69.4891008 151.181878,69.4720709 151.267709,69.4380109 C151.353541,69.403951 151.429154,69.349455 151.494549,69.2745232 C151.559944,69.1995913 151.611034,69.1021798 151.647818,68.9822888 C151.684603,68.8623978 151.702996,68.7166213 151.702996,68.5449591 Z" id="60%" fill="#FFCC00"></path>
        </g>
    </g>
</svg>