<?xml version="1.0" encoding="UTF-8"?>
<svg width="161px" height="81px" viewBox="0 0 161 81" version="1.1" xmlns="http://www.w3.org/2000/svg" xmlns:xlink="http://www.w3.org/1999/xlink">
    <!-- Generator: Sketch 52.6 (67491) - http://www.bohemiancoding.com/sketch -->
    <title>ProgressCircular</title>
    <desc>Created with Sketch.</desc>
    <defs>
        <path d="M25,50 C11.1928813,50 0,38.8071187 0,25 C0,11.1928813 11.1928813,0 25,0 C38.8071187,0 50,11.1928813 50,25 C50,38.8071187 38.8071187,50 25,50 Z M25,48.0769231 C37.7450327,48.0769231 48.0769231,37.7450327 48.0769231,25 C48.0769231,12.2549673 37.7450327,1.92307692 25,1.92307692 C12.2549673,1.92307692 1.92307692,12.2549673 1.92307692,25 C1.92307692,37.7450327 12.2549673,48.0769231 25,48.0769231 Z" id="path-1"></path>
        <path d="M15,30 C6.71572875,30 0,23.2842712 0,15 C0,6.71572875 6.71572875,0 15,0 C23.2842712,0 30,6.71572875 30,15 C30,23.2842712 23.2842712,30 15,30 Z M15,28.8461538 C22.6470196,28.8461538 28.8461538,22.6470196 28.8461538,15 C28.8461538,7.35298039 22.6470196,1.15384615 15,1.15384615 C7.35298039,1.15384615 1.15384615,7.35298039 1.15384615,15 C1.15384615,22.6470196 7.35298039,28.8461538 15,28.8461538 Z" id="path-3"></path>
        <path d="M15,30 C6.71572875,30 0,23.2842712 0,15 C0,6.71572875 6.71572875,0 15,0 C23.2842712,0 30,6.71572875 30,15 C30,23.2842712 23.2842712,30 15,30 Z M15,28.8461538 C22.6470196,28.8461538 28.8461538,22.6470196 28.8461538,15 C28.8461538,7.35298039 22.6470196,1.15384615 15,1.15384615 C7.35298039,1.15384615 1.15384615,7.35298039 1.15384615,15 C1.15384615,22.6470196 7.35298039,28.8461538 15,28.8461538 Z" id="path-5"></path>
    </defs>
    <g id="pages" stroke="none" stroke-width="1" fill="none" fill-rule="evenodd">
        <g id="componentes-V2" transform="translate(-154.000000, -2105.000000)">
            <g id="ProgressCircular" transform="translate(154.000000, 2105.000000)">
                <g id="Group-22" transform="translate(54.000000, 16.000000)">
                    <g id="Line-2">
                        <mask id="mask-2" fill="white">
                            <use xlink:href="#path-1"></use>
                        </mask>
                        <use id="Mask" fill="#01B6F5" fill-rule="nonzero" xlink:href="#path-1"></use>
                        <polygon fill="#E3E5ED" fill-rule="nonzero" mask="url(#mask-2)" points="25 -0.320512821 25 25 9.29487179 44.8717949 -0.641025641 44.8717949 -0.641025641 -0.383918618"></polygon>
                    </g>
                    <ellipse id="Oval" fill="#01B6F5" fill-rule="nonzero" cx="25" cy="0.968406593" rx="1" ry="1"></ellipse>
                    <ellipse id="Oval" fill="#01B6F5" fill-rule="nonzero" cx="10.2472527" cy="43.9862637" rx="1" ry="1"></ellipse>
                    <path d="M15.6357147,24.1428563 C15.5671433,24.2304752 15.5004767,24.3142849 15.4357147,24.3942849 C15.3709527,24.4742849 15.3100004,24.5542849 15.2528575,24.634285 C15.4395242,24.5123803 15.646191,24.4171421 15.8728576,24.3485706 C16.0995245,24.2799992 16.3442863,24.2457135 16.6071435,24.2457135 C16.9347625,24.2457135 17.2452389,24.2990467 17.5385722,24.4057135 C17.8319055,24.5123803 18.0900009,24.6695232 18.312858,24.8771421 C18.5357152,25.0847691 18.7119056,25.3409595 18.8414295,25.6457137 C18.9709531,25.9504755 19.0357153,26.299047 19.0357153,26.6914281 C19.0357153,27.0685711 18.9671439,27.420952 18.830001,27.7485712 C18.6928581,28.0761902 18.4995248,28.3599998 18.2500009,28.5999999 C18.0004769,28.8399999 17.7023819,29.0295237 17.355715,29.1685714 C17.0090482,29.307619 16.626191,29.3771429 16.2071434,29.3771429 C15.7880957,29.3771429 15.4109527,29.3104762 15.0757146,29.1771428 C14.7404748,29.0438094 14.4538082,28.8542856 14.2157145,28.6085713 C13.9776192,28.362857 13.794762,28.0666665 13.667143,27.7199997 C13.5395239,27.3733331 13.4757144,26.9866662 13.4757144,26.5599996 C13.4757144,26.1980948 13.5547621,25.8142851 13.7128573,25.4085708 C13.8709526,25.0028564 14.1214288,24.5695232 14.464286,24.1085706 L16.5271435,21.3485701 C16.5804767,21.2723794 16.658572,21.2095223 16.7614292,21.1599987 C16.8642864,21.1104751 16.9785721,21.0857129 17.1042864,21.0857129 L18.0700009,21.0857129 L15.6357147,24.1428563 Z M14.5157146,26.748571 C14.5157146,27.0038091 14.5528574,27.2371425 14.6271431,27.4485711 C14.7014289,27.6599997 14.8100003,27.8419045 14.9528575,27.9942855 C15.0957146,28.1466665 15.2709527,28.2647617 15.4785719,28.3485713 C15.686191,28.4323808 15.9214291,28.4742856 16.1842863,28.4742856 C16.4509531,28.4742856 16.6928578,28.4314284 16.9100007,28.3457141 C17.1271436,28.2599998 17.3128579,28.1409522 17.4671436,27.9885712 C17.6214293,27.8361903 17.7404769,27.6561903 17.8242865,27.4485711 C17.9080962,27.240952 17.9500008,27.0152377 17.9500008,26.7714282 C17.9500008,26.508571 17.9090483,26.2714281 17.8271437,26.0599995 C17.7452205,25.8485709 17.6290301,25.6704755 17.4785722,25.5257137 C17.3280877,25.3809519 17.1490402,25.2695233 16.9414292,25.1914279 C16.7338103,25.1133325 16.5042863,25.074285 16.2528577,25.074285 C15.9861909,25.074285 15.7452385,25.1190468 15.5300004,25.2085708 C15.3147624,25.2980947 15.1319052,25.4199994 14.9814289,25.5742851 C14.8309526,25.7285708 14.7157146,25.9066662 14.6357146,26.1085709 C14.5557146,26.3104756 14.5157146,26.523809 14.5157146,26.748571 Z M26.5214296,25.1828565 C26.5214296,25.8990473 26.4442867,26.5199997 26.290001,27.0457139 C26.1357153,27.5714283 25.9242866,28.0066665 25.6557152,28.3514284 C25.3871437,28.6961904 25.0709533,28.9523808 24.7071436,29.12 C24.3433339,29.287619 23.9519053,29.3714286 23.5328577,29.3714286 C23.1138099,29.3714286 22.7233338,29.287619 22.3614289,29.12 C21.999524,28.9523808 21.684286,28.6961904 21.4157145,28.3514284 C21.147143,28.0066665 20.9366667,27.5714283 20.7842858,27.0457139 C20.6319047,26.5199995 20.5557142,25.8990469 20.5557143,25.1828565 C20.5557143,24.466666 20.6319049,23.8457134 20.7842858,23.319999 C20.9366667,22.7942847 21.147143,22.3590467 21.4157145,22.0142845 C21.6842859,21.669493 21.999524,21.4133023 22.3614289,21.245713 C22.723335,21.0780937 23.1138113,20.9942844 23.5328577,20.9942844 C23.9519053,20.9942844 24.3433339,21.0780937 24.7071436,21.245713 C25.0709533,21.4133323 25.3871437,21.6695223 25.6557152,22.0142845 C25.9242866,22.3590467 26.1357153,22.7942847 26.290001,23.319999 C26.4442867,23.8457134 26.5214296,24.466666 26.5214296,25.1828565 Z M25.3957151,25.1828565 C25.3957151,24.5657135 25.3442866,24.0476181 25.2414294,23.6285705 C25.1385722,23.2095226 25.0014294,22.8723797 24.8300008,22.6171418 C24.6585722,22.3619039 24.4604768,22.1799988 24.2357149,22.0714274 C24.0109531,21.9628559 23.7766674,21.9085702 23.5328577,21.9085702 C23.289048,21.9085702 23.0547624,21.9628559 22.8300004,22.0714274 C22.6052384,22.1799988 22.4071432,22.3619039 22.2357146,22.6171418 C22.064286,22.8723797 21.9280955,23.2095226 21.8271431,23.6285705 C21.7261906,24.0476181 21.6757144,24.5657135 21.6757145,25.1828565 C21.6757145,25.8038091 21.7261908,26.3238092 21.8271431,26.7428567 C21.9280955,27.1619045 22.064286,27.4980949 22.2357146,27.7514283 C22.4071432,28.0047617 22.6052384,28.1857141 22.8300004,28.2942856 C23.054765,28.402857 23.2890508,28.4571427 23.5328577,28.4571427 C23.7766674,28.4571427 24.0109531,28.402857 24.2357149,28.2942856 C24.4604768,28.1857141 24.6585722,28.0047617 24.8300008,27.7514283 C25.0014294,27.498094 25.1385722,27.1619034 25.2414294,26.7428567 C25.3442866,26.3238092 25.3957151,25.8038091 25.3957151,25.1828565 Z M31.715715,23.0628561 C31.715715,23.3828562 31.666191,23.6685705 31.5671435,23.9199991 C31.468096,24.1714277 31.3338103,24.384761 31.1642863,24.5599992 C30.9947624,24.7352375 30.7995245,24.8685707 30.5785719,24.9599993 C30.3576169,25.0514279 30.125236,25.0971422 29.881429,25.0971422 C29.6223812,25.0971422 29.3814289,25.0514279 29.1585717,24.9599993 C28.9357145,24.8685707 28.7433335,24.7352375 28.5814287,24.5599992 C28.419524,24.384761 28.2919049,24.1714277 28.1985715,23.9199991 C28.1052381,23.6685705 28.0585715,23.3828562 28.0585715,23.0628561 C28.0585715,22.7352368 28.1052381,22.4438082 28.1985715,22.1885703 C28.2919049,21.9333324 28.419524,21.7171416 28.5814287,21.5399987 C28.7433335,21.3628558 28.9357145,21.2285701 29.1585717,21.1371415 C29.3814289,21.0457129 29.6223812,20.9999986 29.881429,20.9999986 C30.1442861,20.9999986 30.3871433,21.0457129 30.6100005,21.1371415 C30.8328577,21.2285701 31.0261909,21.3628558 31.1900006,21.5399987 C31.3538103,21.7171416 31.4823817,21.9333324 31.5757149,22.1885703 C31.6690482,22.4438082 31.715715,22.7352368 31.715715,23.0628561 Z M30.8757148,23.0628561 C30.8757148,22.8190468 30.8500005,22.6114275 30.798572,22.4399989 C30.7471434,22.2685703 30.6757148,22.1295224 30.5842862,22.022856 C30.4928576,21.9161895 30.3871433,21.8390466 30.2671433,21.7914273 C30.1471433,21.7438081 30.0185718,21.7199988 29.881429,21.7199988 C29.7442861,21.7199988 29.6166669,21.7438081 29.4985717,21.7914273 C29.3804765,21.8390466 29.2776194,21.9161895 29.1900003,22.022856 C29.1023811,22.1295224 29.0328574,22.2685703 28.9814288,22.4399989 C28.9300002,22.6114275 28.9042859,22.8190468 28.9042859,23.0628561 C28.9042859,23.3028562 28.9300002,23.5066658 28.9814288,23.6742848 C29.0328574,23.8419142 29.1023811,23.9781046 29.1900003,24.0828563 C29.2776194,24.1876376 29.3804765,24.263828 29.4985717,24.3114278 C29.6166669,24.3590467 29.7442861,24.3828563 29.881429,24.3828563 C30.0185718,24.3828563 30.1471433,24.3590467 30.2671433,24.3114278 C30.3871433,24.2638088 30.4928576,24.1876181 30.5842862,24.0828563 C30.6757148,23.9780945 30.7471434,23.8419038 30.798572,23.6742848 C30.8500005,23.5066658 30.8757148,23.3028562 30.8757148,23.0628561 Z M34.5900012,21.2628558 C34.6280962,21.2171415 34.6738105,21.1761894 34.727144,21.1399987 C34.7804776,21.103808 34.8547633,21.0857129 34.9500012,21.0857129 L35.7328585,21.0857129 L29.7214289,29.1142857 C29.6833337,29.1638095 29.6357146,29.2047619 29.5785718,29.2371428 C29.5214289,29.2695238 29.4547623,29.2857143 29.3785717,29.2857143 L28.5785716,29.2857143 L34.5900012,21.2628558 Z M36.2700014,27.3485711 C36.2700014,27.6685712 36.2204778,27.9542855 36.12143,28.2057141 C36.0223821,28.4571427 35.8880964,28.6704761 35.7185728,28.8457142 C35.5490185,29.0209524 35.3537806,29.1542857 35.1328584,29.2457143 C34.9118783,29.3371429 34.6794975,29.3828572 34.4357154,29.3828572 C34.1766675,29.3828572 33.9357153,29.3371429 33.7128582,29.2457143 C33.490001,29.1542857 33.2966677,29.0209523 33.1328581,28.8457142 C32.9690484,28.6704761 32.8414294,28.4571427 32.7500008,28.2057141 C32.6585723,27.9542855 32.612858,27.6685712 32.612858,27.3485711 C32.612858,27.020952 32.6585723,26.7295233 32.7500008,26.4742853 C32.8414294,26.219047 32.9690484,26.0028566 33.1328581,25.8257137 C33.2966677,25.6485708 33.490001,25.5142851 33.7128582,25.4228565 C33.9357153,25.3314279 34.1766675,25.2857136 34.4357154,25.2857136 C34.6947905,25.2857136 34.9366955,25.3314279 35.1614298,25.4228565 C35.386192,25.5142851 35.5804777,25.6485708 35.7442871,25.8257137 C35.9080964,26.0028566 36.0366678,26.219047 36.1300014,26.4742853 C36.223335,26.7295233 36.2700014,27.020952 36.2700014,27.3485711 Z M35.4300013,27.3485711 C35.4300013,27.1047616 35.404287,26.8971425 35.3528584,26.7257139 C35.3014298,26.5542853 35.2300013,26.4142852 35.1385727,26.3057138 C35.0471441,26.1971424 34.9414298,26.119047 34.8214298,26.071428 C34.7014297,26.0238091 34.5728583,25.9999995 34.4357154,25.9999995 C34.2985725,25.9999995 34.1709532,26.0238091 34.0528582,26.071428 C33.9347144,26.119047 33.830905,26.1971424 33.7414296,26.3057138 C33.6518132,26.4142852 33.5822896,26.5542853 33.5328581,26.7257139 C33.4833345,26.8971425 33.4585724,27.1047616 33.4585724,27.3485711 C33.4585724,27.5885712 33.4833345,27.7923806 33.5328581,27.9599998 C33.5823817,28.127619 33.651906,28.2638095 33.7414296,28.3685713 C33.8309532,28.473334 33.9347632,28.5495244 34.0528582,28.5971427 C34.1709532,28.6447619 34.2985725,28.6685713 34.4357154,28.6685713 C34.5728583,28.6685713 34.7014297,28.6447619 34.8214298,28.5971427 C34.9414298,28.5495237 35.0471441,28.4733332 35.1385727,28.3685713 C35.2300013,28.2638094 35.3014298,28.1276188 35.3528584,27.9599998 C35.404287,27.7923806 35.4300013,27.5885712 35.4300013,27.3485711 Z" id="60%" fill="#01B6F5"></path>
                </g>
                <g id="Group-22">
                    <g id="Line-2">
                        <mask id="mask-4" fill="white">
                            <use xlink:href="#path-3"></use>
                        </mask>
                        <use id="Mask" fill="#1DE9B6" fill-rule="nonzero" xlink:href="#path-3"></use>
                        <polygon fill="#1DE9B6" fill-rule="nonzero" mask="url(#mask-4)" points="15 -0.192307692 15 15 5.57692308 26.9230769 -0.384615385 26.9230769 -0.384615385 -0.230351171"></polygon>
                    </g>
                    <ellipse id="Oval" fill="#1DE9B6" fill-rule="nonzero" cx="15" cy="0.581043956" rx="1" ry="1"></ellipse>
                    <ellipse id="Oval" fill="#1DE9B6" fill-rule="nonzero" cx="6.14835165" cy="26.3917582" rx="1" ry="1"></ellipse>
                    <g id="done" transform="translate(10.285714, 11.357143)" fill="#1DE9B6" fill-rule="nonzero">
                        <path d="M9.2740523,0.405260184 C9.07709149,-0.102622158 8.67575011,-0.0224550603 8.24085119,0.0637152952 C7.98112598,0.117845792 6.82593732,0.455984338 4.99814773,2.38329985 C4.23964624,3.18318334 3.73928484,3.8208777 3.40984764,4.30720902 C3.20860361,4.06013112 2.97805153,3.79578543 2.73593138,3.5535641 C1.99132508,2.80916015 1.16095313,2.29793892 1.12604655,2.27645535 C0.777587799,2.06344089 0.322689265,2.17305093 0.109067726,2.52123987 C-0.104284004,2.86942881 0.00498877585,3.32506932 0.35290791,3.53889322 C0.360024131,3.5433788 1.07309647,3.98424725 1.6891049,4.60042431 C2.31732221,5.22870907 2.88651872,6.07837238 2.89211726,6.08660157 C3.03069808,6.29496182 3.2633749,6.41654465 3.50815942,6.41654465 C3.55018222,6.41654465 3.59260974,6.4130034 3.6348349,6.40568483 C3.92373324,6.35550029 4.15580299,6.13948419 4.22656049,5.85486907 C4.22834798,5.84802266 4.52186681,5.03680718 6.07239359,3.40206616 C7.32123981,2.08495818 8.15407376,1.666349 8.44263484,1.55022981 C8.44540039,1.54975764 8.44739023,1.54955529 8.45113384,1.54877959 C8.44975106,1.54911685 8.46047598,1.5441591 8.47787869,1.53633463 C8.52742243,1.51775151 8.55396492,1.51063529 8.5554826,1.5102643 C8.54125015,1.51380555 8.53386412,1.51468243 8.53386412,1.51468243 L8.53339196,1.51211924 C8.66691385,1.45387415 8.9168922,1.34632141 8.92235584,1.34402803 C9.29873985,1.18939356 9.42113211,0.784544652 9.2740523,0.405260184 Z" id="Shape"></path>
                    </g>
                </g>
                <g id="Group-22" transform="translate(131.000000, 51.000000)">
                    <g id="Line-2">
                        <mask id="mask-6" fill="white">
                            <use xlink:href="#path-5"></use>
                        </mask>
                        <use id="Mask" fill="#FF0000" fill-rule="nonzero" xlink:href="#path-5"></use>
                        <polygon fill="#E3E5ED" fill-rule="nonzero" mask="url(#mask-6)" points="15 -0.192307692 15 15 5.57692308 26.9230769 -0.384615385 26.9230769 -0.384615385 -0.230351171"></polygon>
                    </g>
                    <ellipse id="Oval" fill="#FF0000" fill-rule="nonzero" cx="15" cy="0.581043956" rx="1" ry="1"></ellipse>
                    <ellipse id="Oval" fill="#FF0000" fill-rule="nonzero" cx="6.14835165" cy="26.3917582" rx="1" ry="1"></ellipse>
                    <g id="Group-10" transform="translate(14.142857, 9.857143)"></g>
                    <g id="error" transform="translate(14.142857, 9.857143)" fill="#FF0000" fill-rule="nonzero">
                        <path d="M0.26043856,5.83007206 L0.0792070351,2.68696655 C0.0452294843,2.07441025 0.0285095187,1.63465341 0.0285095187,1.36794527 C0.0285095187,1.00489817 0.110604012,0.721614252 0.27452419,0.518280458 C0.438659416,0.314261198 0.655105016,0.212812403 0.922893277,0.212812403 C1.24756168,0.212812403 1.46481371,0.342926091 1.57405798,0.603153467 C1.68330226,0.863630102 1.73819321,1.23901557 1.73819321,1.72843746 C1.73819321,2.01732973 1.72491401,2.31089562 1.6987857,2.60770189 L1.45519032,5.84290894 C1.42884696,6.22807786 1.3722894,6.52326395 1.28519504,6.72915265 C1.19831573,6.93454284 1.05466381,7.03717562 0.854884413,7.03717562 C0.650911585,7.03717562 0.509463901,6.9380948 0.430433838,6.73874916 C0.35097368,6.54002668 0.294254825,6.23692659 0.26043856,5.83007206 Z M0.888861964,10.1478773 C0.658545781,10.1478773 0.457368574,10.0618203 0.285975485,9.88908321 C0.114206063,9.71653302 0.0285095187,9.47475088 0.0285095187,9.16417299 C0.0285095187,8.89279123 0.110604012,8.66191422 0.27452419,8.47141731 C0.438659416,8.28116966 0.639836623,8.18601468 0.877625717,8.18601468 C1.1155761,8.18601468 1.31798983,8.2809204 1.4861572,8.47141731 C1.65410952,8.66166496 1.73819321,8.89272892 1.73819321,9.16417299 C1.73819321,9.47032651 1.6533031,9.71073772 1.48309277,9.88584283 C1.31331254,10.0603871 1.11536105,10.1478773 0.888861964,10.1478773 Z" id="Shape"></path>
                    </g>
                </g>
            </g>
        </g>
    </g>
</svg>