<?xml version="1.0" encoding="UTF-8"?>
<svg width="159px" height="82px" viewBox="0 0 159 82" version="1.1" xmlns="http://www.w3.org/2000/svg" xmlns:xlink="http://www.w3.org/1999/xlink">
    <!-- Generator: Sketch 57.1 (83088) - https://sketch.com -->
    <title>ProgressCircular</title>
    <desc>Created with Sketch.</desc>
    <defs>
        <path d="M25,50 C11.1928813,50 0,38.8071187 0,25 C0,11.1928813 11.1928813,0 25,0 C38.8071187,0 50,11.1928813 50,25 C50,38.8071187 38.8071187,50 25,50 Z M25,48.0769231 C37.7450327,48.0769231 48.0769231,37.7450327 48.0769231,25 C48.0769231,12.2549673 37.7450327,1.92307692 25,1.92307692 C12.2549673,1.92307692 1.92307692,12.2549673 1.92307692,25 C1.92307692,37.7450327 12.2549673,48.0769231 25,48.0769231 Z" id="path-1"></path>
        <path d="M15,30 C6.71572875,30 0,23.2842712 0,15 C0,6.71572875 6.71572875,0 15,0 C23.2842712,0 30,6.71572875 30,15 C30,23.2842712 23.2842712,30 15,30 Z M15,28.8461538 C22.6470196,28.8461538 28.8461538,22.6470196 28.8461538,15 C28.8461538,7.35298039 22.6470196,1.15384615 15,1.15384615 C7.35298039,1.15384615 1.15384615,7.35298039 1.15384615,15 C1.15384615,22.6470196 7.35298039,28.8461538 15,28.8461538 Z" id="path-3"></path>
        <path d="M15,30 C6.71572875,30 0,23.2842712 0,15 C0,6.71572875 6.71572875,0 15,0 C23.2842712,0 30,6.71572875 30,15 C30,23.2842712 23.2842712,30 15,30 Z M15,28.8461538 C22.6470196,28.8461538 28.8461538,22.6470196 28.8461538,15 C28.8461538,7.35298039 22.6470196,1.15384615 15,1.15384615 C7.35298039,1.15384615 1.15384615,7.35298039 1.15384615,15 C1.15384615,22.6470196 7.35298039,28.8461538 15,28.8461538 Z" id="path-5"></path>
    </defs>
    <g id="pages" stroke="none" stroke-width="1" fill="none" fill-rule="evenodd">
        <g id="ProgressCircular">
            <g id="Group-22" transform="translate(5.000000, 12.000000)">
                <g id="Line-2" transform="translate(47.000000, 5.000000)">
                    <mask id="mask-2" fill="white">
                        <use xlink:href="#path-1"></use>
                    </mask>
                    <use id="Mask" fill="#01B6F5" fill-rule="nonzero" xlink:href="#path-1"></use>
                    <polygon fill="#E3E5ED" fill-rule="nonzero" mask="url(#mask-2)" points="25 -0.320512821 25 25 9.29487179 44.8717949 -0.641025641 44.8717949 -0.641025641 -0.383918618"></polygon>
                </g>
                <path d="M0.347885402,5.37380628 L1.60845839,5.37380628 L1.60845839,1.37517053 C1.60845839,1.25511536 1.61255112,1.13369775 1.6207367,1.01091405 L0.572987722,1.90723056 C0.545702456,1.92905877 0.518417599,1.94474756 0.491132333,1.95429741 C0.463847067,1.96384725 0.437926453,1.9686221 0.413369714,1.9686221 C0.372441814,1.9686221 0.335607258,1.95975452 0.302864939,1.9420191 C0.270122619,1.92428368 0.245566248,1.90313791 0.229195089,1.87858117 L-2.48689958e-14,1.56343793 L1.74351978,0.0532060027 L2.33697135,0.0532060027 L2.33697135,5.37380628 L3.49113233,5.37380628 L3.49113233,5.93042292 L0.347885402,5.93042292 L0.347885402,5.37380628 Z M8.42291951,3 C8.42291951,3.512963 8.36766767,3.95702405 8.25716235,4.33219645 C8.14665702,4.70736886 7.99590819,5.01773411 7.80491132,5.2633015 C7.61391446,5.50886889 7.38813227,5.69167744 7.12755798,5.81173261 C6.86698369,5.93178778 6.58799603,5.99181446 6.29058663,5.99181446 C5.9904487,5.99181446 5.71146104,5.93178778 5.45361528,5.81173261 C5.19576952,5.69167744 4.97135157,5.50886889 4.78035471,5.2633015 C4.58935784,5.01773411 4.43929113,4.70736886 4.33015007,4.33219645 C4.221009,3.95702405 4.16643929,3.512963 4.16643929,3 C4.16643929,2.487037 4.221009,2.04229383 4.33015007,1.66575716 C4.43929113,1.28922049 4.58935784,0.977491003 4.78035471,0.730559345 C4.97135157,0.483627688 5.19576952,0.300137026 5.45361528,0.180081855 C5.71146104,0.0600266849 5.9904487,0 6.29058663,0 C6.58799603,0 6.86698369,0.0600266849 7.12755798,0.180081855 C7.38813227,0.300137026 7.61391446,0.483627688 7.80491132,0.730559345 C7.99590819,0.977491003 8.14665702,1.28922049 8.25716235,1.66575716 C8.36766767,2.04229383 8.42291951,2.487037 8.42291951,3 Z M7.66575716,3 C7.66575716,2.55252164 7.62824048,2.17667274 7.553206,1.87244202 C7.47817152,1.5682113 7.37721755,1.32332971 7.25034106,1.1377899 C7.12346458,0.952250095 6.97680847,0.819236419 6.81036835,0.738744884 C6.64392823,0.658253349 6.47066939,0.618008186 6.29058663,0.618008186 C6.11050387,0.618008186 5.93724503,0.658253349 5.77080491,0.738744884 C5.60436479,0.819236419 5.4583908,0.952250095 5.33287858,1.1377899 C5.20736636,1.32332971 5.10709451,1.5682113 5.03206003,1.87244202 C4.95702555,2.17667274 4.91950887,2.55252164 4.91950887,3 C4.91950887,3.44747836 4.95702555,3.82264514 5.03206003,4.1255116 C5.10709451,4.42837805 5.20736636,4.67257752 5.33287858,4.85811733 C5.4583908,5.04365714 5.60436479,5.17667081 5.77080491,5.25716235 C5.93724503,5.33765388 6.11050387,5.37789905 6.29058663,5.37789905 C6.47066939,5.37789905 6.64392823,5.33765388 6.81036835,5.25716235 C6.97680847,5.17667081 7.12346458,5.04365714 7.25034106,4.85811733 C7.37721755,4.67257752 7.47817152,4.42837805 7.553206,4.1255116 C7.62824048,3.82264514 7.66575716,3.44747836 7.66575716,3 Z M13.1705321,3 C13.1705321,3.512963 13.1152802,3.95702405 13.0047749,4.33219645 C12.8942696,4.70736886 12.7435207,5.01773411 12.5525239,5.2633015 C12.361527,5.50886889 12.1357448,5.69167744 11.8751705,5.81173261 C11.6145962,5.93178778 11.3356086,5.99181446 11.0381992,5.99181446 C10.7380613,5.99181446 10.4590736,5.93178778 10.2012278,5.81173261 C9.94338207,5.69167744 9.71896412,5.50886889 9.52796726,5.2633015 C9.3369704,5.01773411 9.18690368,4.70736886 9.07776262,4.33219645 C8.96862156,3.95702405 8.91405184,3.512963 8.91405184,3 C8.91405184,2.487037 8.96862156,2.04229383 9.07776262,1.66575716 C9.18690368,1.28922049 9.3369704,0.977491003 9.52796726,0.730559345 C9.71896412,0.483627688 9.94338207,0.300137026 10.2012278,0.180081855 C10.4590736,0.0600266849 10.7380613,0 11.0381992,0 C11.3356086,0 11.6145962,0.0600266849 11.8751705,0.180081855 C12.1357448,0.300137026 12.361527,0.483627688 12.5525239,0.730559345 C12.7435207,0.977491003 12.8942696,1.28922049 13.0047749,1.66575716 C13.1152802,2.04229383 13.1705321,2.487037 13.1705321,3 Z M12.4133697,3 C12.4133697,2.55252164 12.375853,2.17667274 12.3008186,1.87244202 C12.2257841,1.5682113 12.1248301,1.32332971 11.9979536,1.1377899 C11.8710771,0.952250095 11.724421,0.819236419 11.5579809,0.738744884 C11.3915408,0.658253349 11.2182819,0.618008186 11.0381992,0.618008186 C10.8581164,0.618008186 10.6848576,0.658253349 10.5184175,0.738744884 C10.3519773,0.819236419 10.2060034,0.952250095 10.0804911,1.1377899 C9.95497891,1.32332971 9.85470706,1.5682113 9.77967258,1.87244202 C9.7046381,2.17667274 9.66712142,2.55252164 9.66712142,3 C9.66712142,3.44747836 9.7046381,3.82264514 9.77967258,4.1255116 C9.85470706,4.42837805 9.95497891,4.67257752 10.0804911,4.85811733 C10.2060034,5.04365714 10.3519773,5.17667081 10.5184175,5.25716235 C10.6848576,5.33765388 10.8581164,5.37789905 11.0381992,5.37789905 C11.2182819,5.37789905 11.3915408,5.33765388 11.5579809,5.25716235 C11.724421,5.17667081 11.8710771,5.04365714 11.9979536,4.85811733 C12.1248301,4.67257752 12.2257841,4.42837805 12.3008186,4.1255116 C12.375853,3.82264514 12.4133697,3.44747836 12.4133697,3 Z M16.3096862,1.48158254 C16.3096862,1.71077877 16.2742159,1.91609732 16.2032742,2.09754434 C16.1323325,2.27899136 16.0375176,2.43178656 15.9188267,2.55593452 C15.8001358,2.68008248 15.6616652,2.77489735 15.5034106,2.84038199 C15.3451561,2.90586663 15.1800827,2.93860846 15.0081855,2.93860846 C14.8226457,2.93860846 14.6514333,2.90586663 14.494543,2.84038199 C14.3376527,2.77489735 14.2005463,2.68008248 14.0832196,2.55593452 C13.965893,2.43178656 13.8744887,2.27899136 13.8090041,2.09754434 C13.7435195,1.91609732 13.7107776,1.71077877 13.7107776,1.48158254 C13.7107776,1.24692925 13.7435195,1.0382001 13.8090041,0.855388813 C13.8744887,0.672577531 13.965893,0.51841809 14.0832196,0.392905866 C14.2005463,0.267393643 14.3376527,0.171896644 14.494543,0.106412005 C14.6514333,0.040927367 14.8226457,0.00818553888 15.0081855,0.00818553888 C15.1909968,0.00818553888 15.3622093,0.040927367 15.5218281,0.106412005 C15.6814469,0.171896644 15.8192354,0.267393643 15.9351978,0.392905866 C16.0511602,0.51841809 16.1425645,0.672577531 16.2094134,0.855388813 C16.2762623,1.0382001 16.3096862,1.24692925 16.3096862,1.48158254 Z M15.7407913,1.48158254 C15.7407913,1.30149978 15.7216919,1.14870458 15.6834925,1.02319236 C15.6452931,0.897680136 15.5927698,0.794679802 15.5259209,0.714188267 C15.459072,0.633696733 15.3813101,0.575716412 15.292633,0.540245566 C15.2039559,0.50477472 15.109141,0.487039563 15.0081855,0.487039563 C14.9072301,0.487039563 14.8124152,0.50477472 14.7237381,0.540245566 C14.6350609,0.575716412 14.5579812,0.633696733 14.4924966,0.714188267 C14.427012,0.794679802 14.3758528,0.897680136 14.3390177,1.02319236 C14.3021826,1.14870458 14.2837653,1.30149978 14.2837653,1.48158254 C14.2837653,1.65893677 14.3021826,1.8096856 14.3390177,1.93383356 C14.3758528,2.05798152 14.427012,2.15893549 14.4924966,2.2366985 C14.5579812,2.31446151 14.6350609,2.37039546 14.7237381,2.40450205 C14.8124152,2.43860863 14.9072301,2.45566166 15.0081855,2.45566166 C15.109141,2.45566166 15.2039559,2.43860863 15.292633,2.40450205 C15.3813101,2.37039546 15.459072,2.31446151 15.5259209,2.2366985 C15.5927698,2.15893549 15.6452931,2.05798152 15.6834925,1.93383356 C15.7216919,1.8096856 15.7407913,1.65893677 15.7407913,1.48158254 Z M18.3601637,0.212824011 C18.3956346,0.166439059 18.4331512,0.130286623 18.4727149,0.104365621 C18.5122785,0.078444618 18.5648019,0.0654843111 18.6302865,0.0654843111 L19.154161,0.0654843111 L14.8690314,5.81173261 C14.8417461,5.84720345 14.8090043,5.87585255 14.7708049,5.89768076 C14.7326055,5.91950898 14.6875855,5.93042292 14.6357435,5.93042292 L14.095498,5.93042292 L18.3601637,0.212824011 Z M19.5511596,4.54706685 C19.5511596,4.77626308 19.5156893,4.98089951 19.4447476,5.16098226 C19.3738059,5.34106502 19.278991,5.4931781 19.1603001,5.61732606 C19.0416092,5.74147402 18.9038207,5.83628889 18.7469304,5.90177353 C18.5900401,5.96725817 18.4256489,6 18.2537517,6 C18.0682119,6 17.8969994,5.96725817 17.7401091,5.90177353 C17.5832189,5.83628889 17.4461125,5.74147402 17.3287858,5.61732606 C17.2114592,5.4931781 17.1200549,5.34106502 17.0545703,5.16098226 C16.9890856,4.98089951 16.9563438,4.77626308 16.9563438,4.54706685 C16.9563438,4.31241356 16.9890856,4.10300229 17.0545703,3.91882674 C17.1200549,3.73465119 17.2114592,3.57980963 17.3287858,3.45429741 C17.4461125,3.32878518 17.5832189,3.23328819 17.7401091,3.16780355 C17.8969994,3.10231891 18.0682119,3.06957708 18.2537517,3.06957708 C18.436563,3.06957708 18.6070933,3.10231891 18.7653479,3.16780355 C18.9236024,3.23328819 19.061391,3.32878518 19.1787176,3.45429741 C19.2960442,3.57980963 19.3874485,3.73465119 19.4529332,3.91882674 C19.5184178,4.10300229 19.5511596,4.31241356 19.5511596,4.54706685 Z M18.9863574,4.54706685 C18.9863574,4.36698409 18.967258,4.21350677 18.9290587,4.08663029 C18.8908593,3.9597538 18.8383359,3.85675347 18.771487,3.77762619 C18.7046381,3.69849892 18.6268763,3.64120072 18.5381992,3.60572988 C18.4495221,3.57025903 18.3547072,3.55252387 18.2537517,3.55252387 C18.1527962,3.55252387 18.0579813,3.57025903 17.9693042,3.60572988 C17.8806271,3.64120072 17.8035474,3.69849892 17.7380628,3.77762619 C17.6725781,3.85675347 17.621419,3.9597538 17.5845839,4.08663029 C17.5477488,4.21350677 17.5293315,4.36698409 17.5293315,4.54706685 C17.5293315,4.72442108 17.5477488,4.87448779 17.5845839,4.99727149 C17.621419,5.12005518 17.6725781,5.22032703 17.7380628,5.29809004 C17.8035474,5.37585305 17.8806271,5.43178701 17.9693042,5.46589359 C18.0579813,5.50000017 18.1527962,5.51705321 18.2537517,5.51705321 C18.3547072,5.51705321 18.4495221,5.50000017 18.5381992,5.46589359 C18.6268763,5.43178701 18.7046381,5.37585305 18.771487,5.29809004 C18.8383359,5.22032703 18.8908593,5.12005518 18.9290587,4.99727149 C18.967258,4.87448779 18.9863574,4.72442108 18.9863574,4.54706685 Z" id="100%" fill="#1DE9B6" fill-rule="nonzero"></path>
                <ellipse id="Oval" fill="#01B6F5" fill-rule="nonzero" cx="72" cy="5.96840659" rx="1" ry="1"></ellipse>
                <ellipse id="Oval" fill="#01B6F5" fill-rule="nonzero" cx="57.2472527" cy="48.9862637" rx="1" ry="1"></ellipse>
                <path d="M62.6357147,29.1428563 C62.5671433,29.2304752 62.5004767,29.3142849 62.4357147,29.3942849 C62.3709527,29.4742849 62.3100004,29.5542849 62.2528575,29.634285 C62.4395242,29.5123803 62.646191,29.4171421 62.8728576,29.3485706 C63.0995245,29.2799992 63.3442863,29.2457135 63.6071435,29.2457135 C63.9347625,29.2457135 64.2452389,29.2990467 64.5385722,29.4057135 C64.8319055,29.5123803 65.0900009,29.6695232 65.312858,29.8771421 C65.5357152,30.0847691 65.7119056,30.3409595 65.8414295,30.6457137 C65.9709531,30.9504755 66.0357153,31.299047 66.0357153,31.6914281 C66.0357153,32.0685711 65.9671439,32.420952 65.830001,32.7485712 C65.6928581,33.0761902 65.4995248,33.3599998 65.2500009,33.5999999 C65.0004769,33.8399999 64.7023819,34.0295237 64.355715,34.1685714 C64.0090482,34.307619 63.626191,34.3771429 63.2071434,34.3771429 C62.7880957,34.3771429 62.4109527,34.3104762 62.0757146,34.1771428 C61.7404748,34.0438094 61.4538082,33.8542856 61.2157145,33.6085713 C60.9776192,33.362857 60.794762,33.0666665 60.667143,32.7199997 C60.5395239,32.3733331 60.4757144,31.9866662 60.4757144,31.5599996 C60.4757144,31.1980948 60.5547621,30.8142851 60.7128573,30.4085708 C60.8709526,30.0028564 61.1214288,29.5695232 61.464286,29.1085706 L63.5271435,26.3485701 C63.5804767,26.2723794 63.658572,26.2095223 63.7614292,26.1599987 C63.8642864,26.1104751 63.9785721,26.0857129 64.1042864,26.0857129 L65.0700009,26.0857129 L62.6357147,29.1428563 Z M61.5157146,31.748571 C61.5157146,32.0038091 61.5528574,32.2371425 61.6271431,32.4485711 C61.7014289,32.6599997 61.8100003,32.8419045 61.9528575,32.9942855 C62.0957146,33.1466665 62.2709527,33.2647617 62.4785719,33.3485713 C62.686191,33.4323808 62.9214291,33.4742856 63.1842863,33.4742856 C63.4509531,33.4742856 63.6928578,33.4314284 63.9100007,33.3457141 C64.1271436,33.2599998 64.3128579,33.1409522 64.4671436,32.9885712 C64.6214293,32.8361903 64.7404769,32.6561903 64.8242865,32.4485711 C64.9080962,32.240952 64.9500008,32.0152377 64.9500008,31.7714282 C64.9500008,31.508571 64.9090483,31.2714281 64.8271437,31.0599995 C64.7452205,30.8485709 64.6290301,30.6704755 64.4785722,30.5257137 C64.3280877,30.3809519 64.1490402,30.2695233 63.9414292,30.1914279 C63.7338103,30.1133325 63.5042863,30.074285 63.2528577,30.074285 C62.9861909,30.074285 62.7452385,30.1190468 62.5300004,30.2085708 C62.3147624,30.2980947 62.1319052,30.4199994 61.9814289,30.574285 C61.8309526,30.7285708 61.7157146,30.9066662 61.6357146,31.1085709 C61.5557146,31.3104756 61.5157146,31.523809 61.5157146,31.748571 Z M73.5214296,30.1828565 C73.5214296,30.8990473 73.4442867,31.5199997 73.290001,32.0457139 C73.1357153,32.5714283 72.9242866,33.0066665 72.6557152,33.3514284 C72.3871437,33.6961904 72.0709533,33.9523808 71.7071436,34.12 C71.3433339,34.287619 70.9519053,34.3714286 70.5328577,34.3714286 C70.1138099,34.3714286 69.7233338,34.287619 69.3614289,34.12 C68.999524,33.9523808 68.684286,33.6961904 68.4157145,33.3514284 C68.147143,33.0066665 67.9366667,32.5714283 67.7842858,32.0457139 C67.6319047,31.5199995 67.5557143,30.8990469 67.5557143,30.1828565 C67.5557143,29.466666 67.6319049,28.8457134 67.7842858,28.319999 C67.9366667,27.7942847 68.147143,27.3590467 68.4157145,27.0142845 C68.6842859,26.669493 68.999524,26.4133023 69.3614289,26.245713 C69.723335,26.0780937 70.1138113,25.9942844 70.5328577,25.9942844 C70.9519053,25.9942844 71.3433339,26.0780937 71.7071436,26.245713 C72.0709533,26.4133323 72.3871437,26.6695223 72.6557152,27.0142845 C72.9242866,27.3590467 73.1357153,27.7942847 73.290001,28.319999 C73.4442867,28.8457134 73.5214296,29.466666 73.5214296,30.1828565 Z M72.3957151,30.1828565 C72.3957151,29.5657135 72.3442866,29.0476181 72.2414294,28.6285705 C72.1385722,28.2095226 72.0014294,27.8723797 71.8300008,27.6171418 C71.6585722,27.3619039 71.4604768,27.1799988 71.2357149,27.0714274 C71.0109531,26.9628559 70.7766674,26.9085702 70.5328577,26.9085702 C70.289048,26.9085702 70.0547624,26.9628559 69.8300004,27.0714274 C69.6052384,27.1799988 69.4071432,27.3619039 69.2357146,27.6171418 C69.064286,27.8723797 68.9280955,28.2095226 68.8271431,28.6285705 C68.7261906,29.0476181 68.6757145,29.5657135 68.6757145,30.1828565 C68.6757145,30.8038091 68.7261908,31.3238092 68.8271431,31.7428567 C68.9280955,32.1619045 69.064286,32.4980949 69.2357146,32.7514283 C69.4071432,33.0047617 69.6052384,33.1857141 69.8300004,33.2942856 C70.054765,33.402857 70.2890508,33.4571427 70.5328577,33.4571427 C70.7766674,33.4571427 71.0109531,33.402857 71.2357149,33.2942856 C71.4604768,33.1857141 71.6585722,33.0047617 71.8300008,32.7514283 C72.0014294,32.498094 72.1385722,32.1619034 72.2414294,31.7428567 C72.3442866,31.3238092 72.3957151,30.8038091 72.3957151,30.1828565 Z M78.715715,28.0628561 C78.715715,28.3828562 78.666191,28.6685705 78.5671435,28.9199991 C78.468096,29.1714277 78.3338103,29.384761 78.1642863,29.5599992 C77.9947624,29.7352375 77.7995245,29.8685707 77.5785719,29.9599993 C77.3576169,30.0514279 77.125236,30.0971422 76.881429,30.0971422 C76.6223812,30.0971422 76.3814289,30.0514279 76.1585717,29.9599993 C75.9357145,29.8685707 75.7433335,29.7352375 75.5814287,29.5599992 C75.419524,29.384761 75.2919049,29.1714277 75.1985715,28.9199991 C75.1052381,28.6685705 75.0585715,28.3828562 75.0585715,28.0628561 C75.0585715,27.7352368 75.1052381,27.4438082 75.1985715,27.1885703 C75.2919049,26.9333324 75.419524,26.7171416 75.5814287,26.5399987 C75.7433335,26.3628558 75.9357145,26.2285701 76.1585717,26.1371415 C76.3814289,26.0457129 76.6223812,25.9999986 76.881429,25.9999986 C77.1442861,25.9999986 77.3871433,26.0457129 77.6100005,26.1371415 C77.8328577,26.2285701 78.0261909,26.3628558 78.1900006,26.5399987 C78.3538103,26.7171416 78.4823817,26.9333324 78.5757149,27.1885703 C78.6690482,27.4438082 78.715715,27.7352368 78.715715,28.0628561 Z M77.8757148,28.0628561 C77.8757148,27.8190468 77.8500005,27.6114275 77.798572,27.4399989 C77.7471434,27.2685703 77.6757148,27.1295224 77.5842862,27.022856 C77.4928576,26.9161895 77.3871433,26.8390466 77.2671433,26.7914273 C77.1471433,26.7438081 77.0185718,26.7199988 76.881429,26.7199988 C76.7442861,26.7199988 76.6166669,26.7438081 76.4985717,26.7914273 C76.3804765,26.8390466 76.2776194,26.9161895 76.1900003,27.022856 C76.1023811,27.1295224 76.0328574,27.2685703 75.9814288,27.4399989 C75.9300002,27.6114275 75.9042859,27.8190468 75.9042859,28.0628561 C75.9042859,28.3028562 75.9300002,28.5066658 75.9814288,28.6742848 C76.0328574,28.8419142 76.1023811,28.9781046 76.1900003,29.0828563 C76.2776194,29.1876376 76.3804765,29.263828 76.4985717,29.3114278 C76.6166669,29.3590467 76.7442861,29.3828563 76.881429,29.3828563 C77.0185718,29.3828563 77.1471433,29.3590467 77.2671433,29.3114278 C77.3871433,29.2638088 77.4928576,29.1876181 77.5842862,29.0828563 C77.6757148,28.9780945 77.7471434,28.8419038 77.798572,28.6742848 C77.8500005,28.5066658 77.8757148,28.3028562 77.8757148,28.0628561 Z M81.5900012,26.2628558 C81.6280962,26.2171415 81.6738105,26.1761894 81.727144,26.1399987 C81.7804776,26.103808 81.8547633,26.0857129 81.9500012,26.0857129 L82.7328585,26.0857129 L76.7214289,34.1142857 C76.6833337,34.1638095 76.6357146,34.2047619 76.5785716,34.2371428 C76.5214289,34.2695238 76.4547623,34.2857143 76.3785717,34.2857143 L75.5785716,34.2857143 L81.5900012,26.2628558 Z M83.2700014,32.3485711 C83.2700014,32.6685712 83.2204778,32.9542855 83.12143,33.2057141 C83.0223821,33.4571427 82.8880964,33.6704761 82.7185728,33.8457142 C82.5490185,34.0209524 82.3537806,34.1542857 82.1328584,34.2457143 C81.9118783,34.3371429 81.6794975,34.3828572 81.4357154,34.3828572 C81.1766675,34.3828572 80.9357153,34.3371429 80.7128582,34.2457143 C80.490001,34.1542857 80.2966677,34.0209523 80.1328581,33.8457142 C79.9690484,33.6704761 79.8414294,33.4571427 79.7500008,33.2057141 C79.6585723,32.9542855 79.612858,32.6685712 79.612858,32.3485711 C79.612858,32.020952 79.6585723,31.7295233 79.7500008,31.4742853 C79.8414294,31.219047 79.9690484,31.0028566 80.1328581,30.8257137 C80.2966677,30.6485708 80.490001,30.5142851 80.7128582,30.4228565 C80.9357153,30.3314279 81.1766675,30.2857136 81.4357154,30.2857136 C81.6947905,30.2857136 81.9366955,30.3314279 82.1614298,30.4228565 C82.386192,30.5142851 82.5804777,30.6485708 82.7442871,30.8257137 C82.9080964,31.0028566 83.0366678,31.219047 83.1300014,31.4742853 C83.223335,31.7295233 83.2700014,32.020952 83.2700014,32.3485711 Z M82.4300013,32.3485711 C82.4300013,32.1047616 82.404287,31.8971425 82.3528584,31.7257139 C82.3014298,31.5542853 82.2300013,31.4142852 82.1385727,31.3057138 C82.0471441,31.1971424 81.9414298,31.119047 81.8214298,31.071428 C81.7014297,31.0238091 81.5728583,30.9999995 81.4357154,30.9999995 C81.2985725,30.9999995 81.1709532,31.0238091 81.0528582,31.071428 C80.9347144,31.119047 80.830905,31.1971424 80.7414296,31.3057138 C80.6518132,31.4142852 80.5822896,31.5542853 80.5328581,31.7257139 C80.4833345,31.8971425 80.4585724,32.1047616 80.4585724,32.3485711 C80.4585724,32.5885712 80.4833345,32.7923806 80.5328581,32.9599998 C80.5823817,33.127619 80.651906,33.2638095 80.7414296,33.3685713 C80.8309532,33.473334 80.9347632,33.5495244 81.0528582,33.5971427 C81.1709532,33.6447619 81.2985725,33.6685713 81.4357154,33.6685713 C81.5728583,33.6685713 81.7014297,33.6447619 81.8214298,33.5971427 C81.9414298,33.5495237 82.0471441,33.4733332 82.1385727,33.3685713 C82.2300013,33.2638094 82.3014298,33.1276188 82.3528584,32.9599998 C82.404287,32.7923806 82.4300013,32.5885712 82.4300013,32.3485711 Z" id="60%" fill="#01B6F5"></path>
            </g>
            <g id="Group-22">
                <g id="Line-2">
                    <mask id="mask-4" fill="white">
                        <use xlink:href="#path-3"></use>
                    </mask>
                    <use id="Mask" fill="#1DE9B6" fill-rule="nonzero" xlink:href="#path-3"></use>
                    <polygon fill="#1DE9B6" fill-rule="nonzero" mask="url(#mask-4)" points="15 -0.192307692 15 15 5.57692308 26.9230769 -0.384615385 26.9230769 -0.384615385 -0.230351171"></polygon>
                </g>
                <ellipse id="Oval" fill="#1DE9B6" fill-rule="nonzero" cx="15" cy="0.581043956" rx="1" ry="1"></ellipse>
                <ellipse id="Oval" fill="#1DE9B6" fill-rule="nonzero" cx="6.14835165" cy="26.3917582" rx="1" ry="1"></ellipse>
            </g>
            <g id="Group-22" transform="translate(129.000000, 52.000000)">
                <g id="Line-2">
                    <mask id="mask-6" fill="white">
                        <use xlink:href="#path-5"></use>
                    </mask>
                    <use id="Mask" fill="#01B6F5" fill-rule="nonzero" xlink:href="#path-5"></use>
                    <polygon fill="#E3E5ED" fill-rule="nonzero" mask="url(#mask-6)" points="15 -0.192307692 15 15 5.57692308 26.9230769 -0.384615385 26.9230769 -0.384615385 -0.230351171"></polygon>
                </g>
                <ellipse id="Oval" fill="#01B6F5" fill-rule="nonzero" cx="15" cy="0.581043956" rx="1" ry="1"></ellipse>
                <ellipse id="Oval" fill="#01B6F5" fill-rule="nonzero" cx="6.14835165" cy="26.3917582" rx="1" ry="1"></ellipse>
                <g id="Group-10" transform="translate(14.142857, 9.857143)"></g>
            </g>
        </g>
    </g>
</svg>