<svg xmlns="http://www.w3.org/2000/svg" width="91" height="70" viewBox="0 0 91 70">
    <g fill="none" fill-rule="nonzero">
        <path fill="#E3E5ED" d="M6.687 0C3 0 0 3 0 6.687c0 3.687 3 6.687 6.687 6.687 3.687 0 6.687-3 6.687-6.687C13.374 3 10.374 0 6.687 0zm0 11.795a5.113 5.113 0 0 1-5.108-5.108 5.113 5.113 0 0 1 5.108-5.108 5.113 5.113 0 0 1 5.107 5.108 5.113 5.113 0 0 1-5.107 5.108z"/>
        <path fill="#A4A7B5" d="M19.61 4.487h61.634c1.413 0 2.558 1.206 2.558 2.692 0 1.487-1.145 2.693-2.558 2.693H19.609c-1.413 0-2.558-1.206-2.558-2.693 0-1.486 1.145-2.692 2.558-2.692z"/>
        <path fill="#01B6F5" d="M6.687 18.846C3 18.846 0 21.846 0 25.533c0 3.687 3 6.687 6.687 6.687 3.687 0 6.687-3 6.687-6.687 0-3.687-3-6.687-6.687-6.687zm0 11.795a5.113 5.113 0 0 1-5.108-5.108 5.113 5.113 0 0 1 5.108-5.107 5.113 5.113 0 0 1 5.107 5.107 5.113 5.113 0 0 1-5.107 5.108zm2.682-5.108a2.682 2.682 0 1 1-5.365-.001 2.682 2.682 0 0 1 5.365.001z"/>
        <path fill="#A4A7B5" d="M19.61 23.333h53.557c1.413 0 2.558 1.206 2.558 2.693s-1.145 2.692-2.558 2.692H19.61c-1.413 0-2.558-1.205-2.558-2.692s1.145-2.693 2.558-2.693z"/>
        <g>
            <path fill="#E3E5ED" d="M6.687 37.692C3 37.692 0 40.692 0 44.38c0 3.688 3 6.687 6.687 6.687 3.687 0 6.687-3 6.687-6.687 0-3.687-3-6.687-6.687-6.687zm0 11.795a5.113 5.113 0 0 1-5.108-5.108 5.113 5.113 0 0 1 5.108-5.107 5.113 5.113 0 0 1 5.107 5.107 5.113 5.113 0 0 1-5.107 5.108z"/>
            <path fill="#A4A7B5" d="M19.61 42.18h67.916c1.413 0 2.558 1.205 2.558 2.692s-1.145 2.692-2.558 2.692H19.61c-1.413 0-2.558-1.205-2.558-2.692s1.145-2.693 2.558-2.693z"/>
        </g>
        <g>
            <path fill="#E3E5ED" d="M6.687 56.538C3 56.538 0 59.538 0 63.225c0 3.688 3 6.687 6.687 6.687 3.687 0 6.687-3 6.687-6.687 0-3.686-3-6.687-6.687-6.687zm0 11.795a5.113 5.113 0 0 1-5.108-5.108 5.113 5.113 0 0 1 5.108-5.107 5.113 5.113 0 0 1 5.107 5.107 5.113 5.113 0 0 1-5.107 5.108z"/>
            <path fill="#A4A7B5" d="M19.61 61.026h44.583c1.412 0 2.558 1.205 2.558 2.692s-1.146 2.692-2.558 2.692H19.609c-1.413 0-2.558-1.205-2.558-2.692s1.145-2.692 2.558-2.692z"/>
        </g>
    </g>
</svg>
