<?xml version="1.0" encoding="UTF-8"?>
<svg width="138px" height="72px" viewBox="0 0 138 72">
    <title>RainbowThemeContainer</title>
    <defs>
        <path d="M4.44444444,0.317460317 C2.16517405,0.317460317 0.317460317,2.16517405 0.317460317,4.44444444 L0.317460317,44.5555556 C0.317460317,46.834826 2.16517405,48.6825397 4.44444444,48.6825397 L78.1269841,48.6825397 C80.4062545,48.6825397 82.2539683,46.834826 82.2539683,44.5555556 L82.2539683,4.44444444 C82.2539683,2.16517405 80.4062545,0.317460317 78.1269841,0.317460317 L4.44444444,0.317460317 Z" id="path-1"></path>
        <filter x="-1.8%" y="-3.1%" width="103.7%" height="106.2%" filterUnits="objectBoundingBox" id="filter-2">
            <feOffset dx="0" dy="0" in="SourceAlpha" result="shadowOffsetOuter1"></feOffset>
            <feGaussianBlur stdDeviation="0.5" in="shadowOffsetOuter1" result="shadowBlurOuter1"></feGaussianBlur>
            <feColorMatrix values="0 0 0 0 0.643254082   0 0 0 0 0.656386854   0 0 0 0 0.708917942  0 0 0 1 0" type="matrix" in="shadowBlurOuter1"></feColorMatrix>
        </filter>
    </defs>
    <g id="components-icons" stroke="none" stroke-width="1" fill="none" fill-rule="evenodd">
        <g id="RainbowThemeContainer" transform="translate(1.000000, 0.000000)" fill-rule="nonzero">
            <g id="Group-5" transform="translate(87.000000, 0.000000)">
                <path d="M0,11 C0,4.92486775 4.92817249,0 10.991074,0 L38.1815451,0 C44.1522361,0 49.0109701,4.76342789 49.1686683,10.7021035 L49.172619,11 C49.172619,17.0751322 44.2444466,22 38.1815451,22 L10.991074,22 C5.02038296,22 0.161648924,17.2365721 0.00395076211,11.2978965 L0,11 Z" id="Path" fill="#FFB900"></path>
                <path d="M8.9375,15.8125 L12.1325784,15.8125 C12.6349885,15.8125 13.0823824,15.7502178 13.4747605,15.6256533 C13.8671385,15.5010889 14.1982725,15.3266986 14.468162,15.1024826 C14.7380519,14.8782666 14.9435833,14.6094149 15.0847561,14.2959277 C15.2259289,13.9824404 15.2965157,13.6346981 15.2965157,13.2527003 C15.2965157,12.7046167 15.1314678,12.2592988 14.801372,11.9167465 C14.4712761,11.5741943 13.9844366,11.3385599 13.3408537,11.2098432 C13.6190477,11.1226481 13.8619484,11.0095019 14.0695557,10.8704051 C14.2771634,10.7313082 14.4494774,10.5756026 14.5864983,10.4032883 C14.7235192,10.230974 14.8262848,10.0441273 14.8947953,9.84274826 C14.9633057,9.64138096 14.997561,9.43273549 14.997561,9.21681185 C14.997561,8.85557491 14.9363165,8.52963099 14.8138284,8.23898084 C14.6913403,7.94833068 14.5013795,7.70231587 14.243946,7.50093641 C13.9865129,7.29955695 13.658493,7.14488992 13.2598868,7.0369338 C12.8612805,6.92897768 12.3837833,6.875 11.8273955,6.875 L8.9375,6.875 L8.9375,15.8125 Z M10.2205139,11.7641551 L12.1138937,11.7641551 C12.7574766,11.7641551 13.2370498,11.8949477 13.5526132,12.1565331 C13.8681767,12.4181185 14.0259582,12.7731272 14.0259582,13.2215592 C14.0259582,13.4499273 13.989627,13.659611 13.9169643,13.8506098 C13.8443244,14.0416085 13.7311782,14.2066564 13.5775261,14.3457535 C13.4239071,14.4848504 13.22668,14.5938443 12.9858449,14.6727352 C12.7450202,14.751626 12.4543697,14.7910714 12.1138937,14.7910714 L10.2205139,14.7910714 L10.2205139,11.7641551 Z M10.2205139,10.8548345 L10.2205139,7.88397213 L11.8273955,7.88397213 C12.4709784,7.88397213 12.9474374,8.00334615 13.2567726,8.24209495 C13.5661079,8.48084375 13.7207753,8.85765124 13.7207753,9.37251742 C13.7207753,9.59673345 13.68133,9.80018886 13.602439,9.98288328 C13.5235697,10.1655777 13.4041953,10.3212833 13.2443162,10.45 C13.0844584,10.5787167 12.8820411,10.6783683 12.6370645,10.7489547 C12.3920878,10.8195411 12.1035132,10.8548345 11.7713415,10.8548345 L10.2205139,10.8548345 Z M23.2935526,6.875 L17.7628906,6.875 L17.7628906,15.8125 L23.2935526,15.8125 L23.2997808,14.7661585 L19.0521327,14.7661585 L19.0521327,11.8077526 L22.4714272,11.8077526 L22.4714272,10.7987805 L19.0521327,10.7987805 L19.0521327,7.92134146 L23.2935526,7.92134146 L23.2935526,6.875 Z M31.776391,6.875 L24.7696402,6.875 L24.7696402,7.95248258 L27.6346227,7.95248258 L27.6346227,15.8125 L28.9176367,15.8125 L28.9176367,7.95248258 L31.776391,7.95248258 L31.776391,6.875 Z M40.2841425,15.8125 L36.7153707,6.875 L35.4136721,6.875 L31.8511286,15.8125 L32.8476442,15.8125 C32.9555979,15.8125 33.0479832,15.7813589 33.1248002,15.7190767 C33.2016149,15.6567944 33.2524787,15.5862079 33.2773916,15.5073171 L34.0808324,13.4084059 L38.0482104,13.4084059 L38.8516512,15.5073171 C38.8890205,15.5986643 38.9429982,15.672365 39.013585,15.728419 C39.0841718,15.784473 39.1755188,15.8125 39.2876268,15.8125 L40.2841425,15.8125 Z M37.6932017,12.4866289 L34.4358411,12.4866289 L35.7873655,8.97391115 C35.8329778,8.86180314 35.8786513,8.73101045 35.9243864,8.5815331 L36.0614073,8.09573171 L36.0614073,8.09573171 C36.1070808,8.27012195 36.1537925,8.43101797 36.2015423,8.57841899 L36.2489461,8.71993794 L36.2489461,8.71993794 L37.6932017,12.4866289 Z" id="BETA" fill="#FFFFFF"></path>
            </g>
            <g id="Group-124" transform="translate(0.000000, 22.000000)">
                <g id="Path">
                    <use fill="black" fill-opacity="1" filter="url(#filter-2)" xlink:href="#path-1"></use>
                    <use fill="#FFFFFF" xlink:href="#path-1"></use>
                </g>
                <path d="M4.44444444,0.317460317 C2.16517405,0.317460317 0.317460317,2.16517405 0.317460317,4.44444444 L0.317460317,44.5555556 C0.317460317,46.834826 2.16517405,48.6825397 4.44444444,48.6825397 L78.1269841,48.6825397 C80.4062545,48.6825397 82.2539683,46.834826 82.2539683,44.5555556 L82.2539683,4.44444444 C82.2539683,2.16517405 80.4062545,0.317460317 78.1269841,0.317460317 L4.44444444,0.317460317 Z M4.44444444,-3.91082722e-11 L78.1269841,-3.91082722e-11 C80.581583,-3.91082722e-11 82.5714286,1.98984556 82.5714286,4.44444444 L82.5714286,44.5555556 C82.5714286,47.0101544 80.581583,49 78.1269841,49 L4.44444444,49 C1.98984556,49 0,47.0101544 0,44.5555556 L0,4.44444444 C0,1.98984556 1.98984556,-3.91082722e-11 4.44444444,-3.91082722e-11 Z" id="Rectangle" fill="#E3E5ED"></path>
            </g>
            <g id="color-circle" transform="translate(27.000000, 32.000000)">
                <path d="M30,15 L25.1612903,15 C25.1612903,12.1930645 24.0241935,9.65274194 22.1854839,7.81403226 L25.6064516,4.39354839 C28.3209677,7.10758065 30,10.8575806 30,15 Z" id="Path" fill="#F6BB42"></path>
                <path d="M25.1612903,15 L30,15 C30,19.1370968 28.3258065,22.8870968 25.6064516,25.601129 L22.1854839,22.185 C24.0241935,20.3467742 25.1612903,17.8064516 25.1612903,15 Z" id="Path" fill="#8CC152"></path>
                <path d="M25.6064516,25.601129 L25.6064516,25.6064516 C22.8919355,28.3204839 19.1467742,30 15,30 L15,25.1612903 C17.8064516,25.1612903 20.3467742,24.0237097 22.1854839,22.1854839 L25.6064516,25.601129 Z" id="Path" fill="#37BC9B"></path>
                <path d="M25.6064516,4.39354839 L22.1854839,7.81403226 C20.3467742,5.97580645 17.8064516,4.83870968 15,4.83870968 L15,0 C19.1467742,0 22.8919355,1.67903226 25.6064516,4.39354839 Z" id="Path" fill="#E9573F"></path>
                <path d="M25.1612903,15 L20.3274194,15 L20.3225806,15 C20.3225806,13.5290323 19.7274194,12.1983871 18.7645161,11.2354839 L22.185,7.81451613 C24.0241935,9.65274194 25.1612903,12.1930645 25.1612903,15 Z" id="Path" fill="#FFCE54"></path>
                <path d="M18.7645161,18.7640323 L22.185,22.185 C20.3467742,24.0237097 17.8064516,25.1612903 15,25.1612903 L15,20.3225806 C16.4709677,20.3225806 17.8016129,19.7274194 18.7645161,18.7640323 L18.7645161,18.7640323 Z" id="Path" fill="#48CFAD"></path>
                <path d="M15,25.1612903 L15,30 C10.8580645,30 7.10806452,28.3204839 4.39354839,25.6064516 L7.81451613,22.1854839 C9.65322581,24.0237097 12.1983871,25.1612903 15,25.1612903 Z" id="Path" fill="#4A89DC"></path>
                <path d="M15,20.3225806 L15,25.1612903 C12.1983871,25.1612903 9.65322581,24.0237097 7.81451613,22.1854839 L11.235,18.7645161 C12.1983871,19.7274194 13.533871,20.3225806 15,20.3225806 L15,20.3225806 Z" id="Path" fill="#5D9CEC"></path>
                <path d="M15,4.83870968 L15,9.67741935 C13.533871,9.67741935 12.2032258,10.2720968 11.2403226,11.2354839 L11.2354839,11.2354839 L7.815,7.81451613 C9.65322581,5.97580645 12.1983871,4.83870968 15,4.83870968 Z" id="Path" fill="#ED5565"></path>
                <path d="M7.81451613,22.1854839 L4.39354839,25.6064516 C1.67903226,22.8919355 -8.59527503e-16,19.1419355 -8.59527503e-16,15 L4.83870968,15 C4.83870968,17.8064516 5.97580645,20.3467742 7.81451613,22.1854839 Z" id="Path" fill="#967ADC"></path>
                <path d="M20.3274194,15 L25.1612903,15 C25.1612903,17.8064516 24.0241935,20.3467742 22.1854839,22.1854839 L18.765,18.7645161 C19.7274194,17.8016129 20.3225806,16.4656452 20.3225806,15 L20.3274194,15 Z" id="Path" fill="#A0D468"></path>
                <path d="M7.81451613,7.81403226 L11.235,11.235 C10.2725806,12.1983871 9.67741935,13.5290323 9.67741935,15 L4.83870968,15 C4.83870968,12.1930645 5.97580645,9.65274194 7.81451613,7.81403226 Z" id="Path" fill="#EC87C0"></path>
                <path d="M11.2354839,18.7640323 L7.815,22.185 C5.97580645,20.3467742 4.83870968,17.8064516 4.83870968,15 L9.67741935,15 C9.67741935,16.4656452 10.2725806,17.8016129 11.2354839,18.7640323 L11.2354839,18.7640323 Z" id="Path" fill="#AC92EC"></path>
                <path d="M4.39354839,4.39354839 L7.81451613,7.81403226 C5.97580645,9.65274194 4.83870968,12.1930645 4.83870968,15 L-8.59527503e-16,15 C-8.59527503e-16,10.8575806 1.67903226,7.10758065 4.39354839,4.39354839 Z" id="Path" fill="#D770AD"></path>
                <path d="M22.1854839,7.81403226 L18.765,11.235 C17.8016129,10.2720968 16.4709677,9.67741935 15,9.67741935 L15,4.83870968 C17.8064516,4.83870968 20.3467742,5.97580645 22.1854839,7.81403226 Z" id="Path" fill="#FC6E51"></path>
                <path d="M15,0 L15,4.83870968 C12.1983871,4.83870968 9.65322581,5.97580645 7.81451613,7.81403226 L4.39354839,4.39354839 C7.10806452,1.67903226 10.8580645,0 15,0 Z" id="Path" fill="#DA4453"></path>
            </g>
        </g>
    </g>
</svg>
