<svg xmlns="http://www.w3.org/2000/svg" width="110" height="31" viewBox="0 0 110 31">
    <g fill="none" fill-rule="nonzero">
        <g fill="#FFB900">
            <path d="M16.044 22.25l-2.873 2.853a.535.535 0 0 0-.15.468l.678 4.027c.06.354-.03.7-.256.971-.226.274-.555.431-.903.431-.19 0-.374-.047-.547-.14l-3.551-1.9a.523.523 0 0 0-.484 0l-3.55 1.9c-.49.262-1.1.133-1.45-.29a1.188 1.188 0 0 1-.257-.972l.678-4.027a.536.536 0 0 0-.15-.468L.356 22.251a1.205 1.205 0 0 1-.298-1.227c.14-.437.504-.75.95-.816l3.971-.587a.52.52 0 0 0 .391-.29l1.776-3.664a1.167 1.167 0 0 1 2.109 0l1.775 3.664a.52.52 0 0 0 .391.29l3.97.587c.448.066.811.378.95.815.14.437.026.908-.297 1.228zM39.244 22.25l-2.873 2.853a.535.535 0 0 0-.15.468l.678 4.027c.06.354-.03.7-.256.971-.226.274-.555.431-.903.431-.19 0-.374-.047-.547-.14l-3.551-1.9a.523.523 0 0 0-.484 0l-3.55 1.9c-.49.262-1.1.133-1.45-.29a1.188 1.188 0 0 1-.257-.972l.678-4.027a.536.536 0 0 0-.15-.468l-2.873-2.852a1.205 1.205 0 0 1-.298-1.227c.14-.437.504-.75.95-.816l3.971-.587a.52.52 0 0 0 .391-.29l1.776-3.664a1.167 1.167 0 0 1 2.109 0l1.775 3.664a.52.52 0 0 0 .391.29l3.97.587c.448.066.811.378.95.815.14.437.026.908-.297 1.228zM62.444 22.25l-2.873 2.853a.535.535 0 0 0-.15.468l.678 4.027c.06.354-.03.7-.256.971-.226.274-.555.431-.903.431-.19 0-.374-.047-.547-.14l-3.551-1.9a.523.523 0 0 0-.484 0l-3.55 1.9c-.49.262-1.1.133-1.45-.29a1.188 1.188 0 0 1-.257-.972l.678-4.027a.536.536 0 0 0-.15-.468l-2.873-2.852a1.205 1.205 0 0 1-.298-1.227c.14-.437.504-.75.95-.816l3.971-.587a.52.52 0 0 0 .391-.29l1.776-3.664a1.167 1.167 0 0 1 2.109 0l1.775 3.664a.52.52 0 0 0 .391.29l3.97.587c.448.066.811.378.95.815.14.437.026.908-.297 1.228zM84.94 21.541a.205.205 0 0 0 .049-.213c-.024-.076-.076-.12-.143-.13l-3.972-.588a1.52 1.52 0 0 1-1.144-.843l-1.775-3.664c-.033-.068-.089-.103-.155-.103s-.121.035-.154.104l-1.776 3.663a1.52 1.52 0 0 1-1.145.843l-3.97.588c-.068.01-.12.054-.144.13a.206.206 0 0 0 .05.214l2.873 2.852c.353.35.514.853.43 1.343l-.677 4.028a.19.19 0 0 0 .041.167c.051.062.144.08.207.047l3.552-1.902a1.525 1.525 0 0 1 1.427 0l3.552 1.902a.15.15 0 0 0 .074.021.173.173 0 0 0 .133-.07.19.19 0 0 0 .04-.166l-.678-4.027a1.535 1.535 0 0 1 .431-1.344l2.874-2.852zm.704.71l-2.873 2.852a.535.535 0 0 0-.15.468l.678 4.027c.06.354-.03.7-.256.971-.226.274-.555.431-.903.431-.19 0-.374-.047-.547-.14l-3.551-1.9a.523.523 0 0 0-.484 0l-3.55 1.9c-.49.262-1.1.133-1.45-.29a1.188 1.188 0 0 1-.257-.972l.678-4.027a.536.536 0 0 0-.15-.468l-2.873-2.852a1.205 1.205 0 0 1-.298-1.227c.14-.437.504-.75.95-.816l3.971-.587a.52.52 0 0 0 .391-.29l1.776-3.664a1.167 1.167 0 0 1 2.109 0l1.775 3.664a.52.52 0 0 0 .391.29l3.97.587c.448.066.811.378.95.815.14.437.026.908-.297 1.228zM108.14 21.541a.205.205 0 0 0 .049-.213c-.024-.076-.076-.12-.143-.13l-3.972-.588a1.52 1.52 0 0 1-1.144-.843l-1.775-3.664c-.033-.068-.089-.103-.155-.103s-.121.035-.154.104l-1.776 3.663a1.52 1.52 0 0 1-1.145.843l-3.97.588c-.068.01-.12.054-.144.13a.206.206 0 0 0 .05.214l2.873 2.852c.353.35.514.853.43 1.343l-.677 4.028a.19.19 0 0 0 .041.167c.051.062.144.08.207.047l3.552-1.902a1.525 1.525 0 0 1 1.427 0l3.552 1.902a.15.15 0 0 0 .074.021.173.173 0 0 0 .133-.07.19.19 0 0 0 .04-.166l-.678-4.027a1.535 1.535 0 0 1 .431-1.344l2.874-2.852zm.704.71l-2.873 2.852a.535.535 0 0 0-.15.468l.678 4.027c.06.354-.03.7-.256.971-.226.274-.555.431-.903.431-.19 0-.374-.047-.547-.14l-3.551-1.9a.523.523 0 0 0-.484 0l-3.55 1.9c-.49.262-1.1.133-1.45-.29a1.188 1.188 0 0 1-.257-.972l.678-4.027a.536.536 0 0 0-.15-.468l-2.873-2.852a1.205 1.205 0 0 1-.298-1.227c.14-.437.504-.75.95-.816l3.971-.587a.52.52 0 0 0 .391-.29l1.776-3.664a1.167 1.167 0 0 1 2.109 0l1.775 3.664a.52.52 0 0 0 .391.29l3.97.587c.448.066.811.378.95.815.14.437.026.908-.297 1.228z"/>
        </g>
        <path fill="#A4A7B5" d="M27.5 5a2.5 2.5 0 1 1 0-5h53.75a2.5 2.5 0 1 1 0 5H27.5z"/>
    </g>
</svg>
