<svg xmlns="http://www.w3.org/2000/svg" xmlns:xlink="http://www.w3.org/1999/xlink" width="139" height="44" viewBox="0 0 139 44">
    <defs>
        <path id="a" d="M.009.258h22.673V13H.01z"/>
        <path id="c" d="M.263.265H13.02v12.668H.263z"/>
        <path id="e" d="M0 .285h12.664v12.678H0z"/>
    </defs>
    <g fill="none" fill-rule="evenodd">
        <path fill="#B1B4BD" fill-rule="nonzero" d="M5 .5A4.5 4.5 0 0 0 .5 5v34A4.5 4.5 0 0 0 5 43.5h128.818a4.5 4.5 0 0 0 4.5-4.5V5a4.5 4.5 0 0 0-4.5-4.5H5zM5 0h128.818a5 5 0 0 1 5 5v34a5 5 0 0 1-5 5H5a5 5 0 0 1-5-5V5a5 5 0 0 1 5-5z"/>
        <g transform="translate(107 21.735)">
            <mask id="b" fill="#fff">
                <use xlink:href="#a"/>
            </mask>
            <path fill="#ACACAC" d="M6.301.258h3.904c-.444 1.247-1.42 1.83-2.16 2.58-.642.65-.62 1.11-.012 1.769 2.313 2.501 6.239 2.75 8.816.36.88-.817 1.448-.774 2.274-.09.85.703 1.724 1.407 2.68 1.948 1.313.744.988 1.326.116 2.214-5.094 5.181-13.068 5.316-18.239.19-.798-.79-1.328-.941-2 .004C1.277 9.8.862 10.357.452 10.92l-.443-.33V.265L6.301.258" mask="url(#b)"/>
        </g>
        <g transform="translate(119.395 9.038)">
            <mask id="d" fill="#fff">
                <use xlink:href="#c"/>
            </mask>
            <path fill="#2A449B" d="M.263.285C3.742.083 6.7 1.361 9.074 3.78c1.09 1.11 1.7 1.008 2.495-.096.346-.48.7-.954 1.05-1.43l.393.272c0 3.21-.008 6.42.008 9.629.003.584-.213.782-.794.779-3.148-.02-6.296-.01-9.444-.01l-.365-.5c.897-.758 1.78-1.532 2.694-2.27.559-.45.529-.842.062-1.347C3.846 7.369 2.27 6.513.27 6.575L.263.285" mask="url(#d)"/>
        </g>
        <g transform="translate(107 9.038)">
            <mask id="f" fill="#fff">
                <use xlink:href="#e"/>
            </mask>
            <path fill="#567EBF" d="M12.658.285l.006 6.29v4.26c-1.026-1.008-1.89-1.804-2.688-2.66-.537-.575-.957-.537-1.514-.031-1.428 1.298-2.12 2.903-2.16 4.812l-6.293.007c-.125-3.388 1.038-6.34 3.396-8.69 1.152-1.15 1.154-1.838-.073-2.743-.353-.26-.615-.642-1.176-1.245h10.502z" mask="url(#f)"/>
        </g>
        <g fill="#E3E5ED" fill-rule="nonzero">
            <path d="M9.641 19.02v5.037c0 1.841 1.47 3.345 3.277 3.345h4.933c1.804 0 3.277-1.502 3.277-3.345V19.02c0-1.841-1.47-3.345-3.277-3.345h-4.933c-1.804 0-3.277 1.502-3.277 3.345zM8 19.02C8 16.248 10.211 14 12.918 14h4.933c2.716 0 4.918 2.257 4.918 5.02v5.037c0 2.772-2.21 5.02-4.918 5.02h-4.933C10.202 29.077 8 26.82 8 24.057V19.02z"/>
        </g>
        <path fill="#A4A7B5" fill-rule="nonzero" d="M29.785 22.5C28.8 22.5 28 21.716 28 20.75S28.8 19 29.785 19h40.282c.986 0 1.785.784 1.785 1.75s-.8 1.75-1.785 1.75H29.785z"/>
    </g>
</svg>
