<?xml version="1.0" encoding="UTF-8"?>
<svg width="143px" height="42px" viewBox="0 0 143 42" version="1.1" xmlns="http://www.w3.org/2000/svg" xmlns:xlink="http://www.w3.org/1999/xlink">
    <title>RenderIf</title>
    <g id="pages" stroke="none" stroke-width="1" fill="none" fill-rule="evenodd">
        <g id="RenderIf" fill-rule="nonzero">
            <path d="M140.446429,0 C141.856727,0 143,1.31513742 143,2.93744164 L143,38.1867414 C143,39.8090456 141.856727,41.124183 140.446429,41.124183 L2.55357143,41.124183 C1.14327287,41.124183 0,39.8090456 0,38.1867414 L0,2.93744164 C0,1.31513742 1.14327287,0 2.55357143,0 L140.446429,0 Z" id="Path" fill="#EFEFF2"></path>
            <path d="M12.8237923,12.0885235 L12.8237923,11.4864782 L10.0274072,10.4435911 L12.8237923,9.39083435 L12.8237923,8.79207896 L9.34640523,10.1672425 L9.34640523,10.71336 L12.8237923,12.0885235 Z M14.2515937,12.5523944 L14.2515937,10.4764897 L14.8865376,10.4764897 C15.1036687,10.4764897 15.2796764,10.5274826 15.4145609,10.6294685 C15.5494453,10.7314543 15.7013274,10.9590032 15.8702072,11.3121154 L15.8702072,11.3121154 L16.4558031,12.5523944 L17.1697038,12.5523944 L16.5018612,11.2101296 C16.3220153,10.8460512 16.1717781,10.6031495 16.0511497,10.4814245 C15.9305213,10.3596995 15.7846707,10.2769046 15.6135977,10.2330397 C15.9338112,10.1869816 16.182196,10.0614185 16.3587521,9.85635023 C16.5353082,9.65128199 16.6235862,9.38644787 16.6235862,9.06184787 C16.6235862,8.6012668 16.4799288,8.24925126 16.1926139,8.00580127 C15.905299,7.76235127 15.4918727,7.64062627 14.9523349,7.64062627 L14.9523349,7.64062627 L13.5837511,7.64062627 L13.5837511,12.5523944 L14.2515937,12.5523944 Z M14.9786538,9.93037218 L14.2515937,9.93037218 L14.2515937,8.18674383 L14.9523349,8.18674383 C15.2681619,8.18674383 15.5088703,8.26186241 15.6744602,8.41209957 C15.8400501,8.56233673 15.922845,8.7789195 15.922845,9.06184787 C15.922845,9.35574246 15.8449849,9.57397016 15.6892646,9.71653097 C15.5335443,9.85909178 15.2966741,9.93037218 14.9786538,9.93037218 L14.9786538,9.93037218 Z M19.4002321,12.6478005 C19.5998172,12.6478005 19.8065304,12.6242232 20.0203716,12.5770684 C20.2342128,12.5299137 20.4562787,12.4591816 20.6865692,12.3648721 L20.6865692,12.3648721 L20.6865692,11.7628269 C20.4475057,11.8878417 20.2226983,11.9810546 20.012147,12.0424654 C19.8015956,12.1038762 19.5998172,12.1345816 19.4068118,12.1345816 C19.0251875,12.1345816 18.729648,12.0249194 18.5201933,11.8055951 C18.3107385,11.5862708 18.2147841,11.2254823 18.2323301,10.7232296 L18.2323301,10.7232296 L18.2323301,10.7034904 L20.8543524,10.7034904 L20.8543524,10.4074026 C20.8368064,9.95778772 20.6926007,9.57397016 20.4217351,9.2559499 C20.1508696,8.93792963 19.7807598,8.7789195 19.3114058,8.7789195 C18.7850274,8.7789195 18.3639247,8.95437896 18.0480977,9.30529787 C17.7322706,9.65621678 17.5743571,10.1255708 17.5743571,10.71336 C17.5743571,11.3165019 17.7355605,11.7896941 18.0579673,12.1329367 C18.380374,12.4761792 18.8277956,12.6478005 19.4002321,12.6478005 Z M18.2553591,10.2330397 C18.2729051,9.99178299 18.3759875,9.77465192 18.5646064,9.58164651 C18.7532254,9.38864111 18.9933855,9.29213841 19.2850868,9.29213841 C19.5833679,9.29213841 19.8120135,9.38480294 19.9710236,9.57013199 C20.1300338,9.75546104 20.2226983,9.97533367 20.2490172,10.2297499 L20.2490172,10.2297499 L18.2553591,10.2330397 Z M22.4729658,12.5523944 L22.4729658,10.46991 C22.4729658,10.0948654 22.549181,9.80700225 22.7016114,9.6063205 C22.8540418,9.40563875 23.0717212,9.30529787 23.3546496,9.30529787 C23.6024861,9.30529787 23.7845253,9.383158 23.9007672,9.53887827 C24.0170091,9.69459854 24.07513,9.93804853 24.07513,10.2692283 L24.07513,10.2692283 L24.07513,12.5523944 L24.683755,12.5523944 L24.683755,10.2692283 C24.683755,9.76916881 24.5910905,9.39576915 24.4057614,9.14902929 C24.2204324,8.90228943 23.9402455,8.7789195 23.565201,8.7789195 C23.312978,8.7789195 23.0947503,8.83320227 22.9105179,8.94176781 C22.7262854,9.05033335 22.5804348,9.20989179 22.4729658,9.42044314 L22.4729658,9.42044314 L22.4729658,8.86774585 L21.8676307,8.86774585 L21.8676307,12.5523944 L22.4729658,12.5523944 Z M27.1215448,12.6478005 C27.3408691,12.6478005 27.5344229,12.6000975 27.702206,12.5046914 C27.8699891,12.4092853 28.0043252,12.2705627 28.1052144,12.0885235 L28.1052144,12.0885235 L28.1052144,12.5523944 L28.7105495,12.5523944 L28.7105495,7.43336479 L28.1052144,7.43336479 L28.1052144,9.33819652 C28.0087117,9.15615733 27.8760205,9.0174347 27.7071408,8.92202862 C27.538261,8.82662254 27.3430624,8.7789195 27.1215448,8.7789195 C26.6785097,8.7789195 26.3286874,8.94944416 26.0720779,9.29049348 C25.8154685,9.6315428 25.6871638,10.1014452 25.6871638,10.7002006 C25.6871638,11.3077289 25.8149202,11.784211 26.070433,12.1296468 C26.3259458,12.4750826 26.6763165,12.6478005 27.1215448,12.6478005 Z M27.2103712,12.1345816 C26.9186698,12.1345816 26.6982489,12.0150499 26.5491083,11.7759863 C26.3999678,11.5369228 26.3253975,11.1827141 26.3253975,10.71336 C26.3253975,10.244006 26.3999678,9.88979718 26.5491083,9.65073367 C26.6982489,9.41167016 26.9186698,9.29213841 27.2103712,9.29213841 C27.5020725,9.29213841 27.7241384,9.41221848 27.8765688,9.65237861 C28.0289992,9.89253874 28.1052144,10.2461992 28.1052144,10.71336 C28.1052144,11.1783276 28.0289992,11.5314397 27.8765688,11.7726965 C27.7241384,12.0139532 27.5020725,12.1345816 27.2103712,12.1345816 Z M31.5694421,12.6478005 C31.7690272,12.6478005 31.9757404,12.6242232 32.1895816,12.5770684 C32.4034228,12.5299137 32.6254887,12.4591816 32.8557792,12.3648721 L32.8557792,12.3648721 L32.8557792,11.7628269 C32.6167157,11.8878417 32.3919083,11.9810546 32.1813569,12.0424654 C31.9708056,12.1038762 31.7690272,12.1345816 31.5760218,12.1345816 C31.1943975,12.1345816 30.8988579,12.0249194 30.6894032,11.8055951 C30.4799485,11.5862708 30.3839941,11.2254823 30.40154,10.7232296 L30.40154,10.7232296 L30.40154,10.7034904 L33.0235623,10.7034904 L33.0235623,10.4074026 C33.0060164,9.95778772 32.8618106,9.57397016 32.5909451,9.2559499 C32.3200795,8.93792963 31.9499697,8.7789195 31.4806157,8.7789195 C30.9542373,8.7789195 30.5331346,8.95437896 30.2173076,9.30529787 C29.9014806,9.65621678 29.7435671,10.1255708 29.7435671,10.71336 C29.7435671,11.3165019 29.9047705,11.7896941 30.2271772,12.1329367 C30.549584,12.4761792 30.9970056,12.6478005 31.5694421,12.6478005 Z M30.4245691,10.2330397 C30.442115,9.99178299 30.5451975,9.77465192 30.7338164,9.58164651 C30.9224353,9.38864111 31.1625954,9.29213841 31.4542968,9.29213841 C31.7525779,9.29213841 31.9812235,9.38480294 32.1402336,9.57013199 C32.2992437,9.75546104 32.3919083,9.97533367 32.4182272,10.2297499 L32.4182272,10.2297499 L30.4245691,10.2330397 Z M35.1948731,12.5523944 L35.1948731,10.7199397 C35.1948731,10.2725181 35.2946656,9.93037218 35.4942508,9.69350192 C35.6938359,9.45663165 35.9822474,9.33819652 36.3594852,9.33819652 C36.519592,9.33819652 36.6665393,9.36122557 36.8003271,9.40728368 C36.9341149,9.45334179 37.0657095,9.52681543 37.1951109,9.62770462 L37.1951109,9.62770462 L37.1951109,9.00921004 C37.0766758,8.93025328 36.9527575,8.87213233 36.8233562,8.8348472 C36.6939548,8.79756207 36.5546839,8.7789195 36.4055433,8.7789195 C36.1182285,8.7789195 35.8698437,8.84855497 35.660389,8.98782591 C35.4509342,9.12709686 35.2957623,9.3272303 35.1948731,9.58822624 L35.1948731,9.58822624 L35.1948731,8.86774585 L34.5862481,8.86774585 L34.5862481,12.5523944 L35.1948731,12.5523944 Z M40.8402811,12.5523944 L40.8402811,11.9931174 L39.8105534,11.9931174 L39.8105534,8.19990329 L40.8402811,8.19990329 L40.8402811,7.64062627 L38.1129832,7.64062627 L38.1129832,8.19990329 L39.1427109,8.19990329 L39.1427109,11.9931174 L38.1129832,11.9931174 L38.1129832,12.5523944 L40.8402811,12.5523944 Z M43.738652,12.5523944 L43.738652,9.33819652 L45.00525,9.33819652 L45.00525,8.86774585 L43.738652,8.86774585 L43.738652,8.54204923 C43.738652,8.31614518 43.7808719,8.15877998 43.8653118,8.06995363 C43.9497517,7.98112728 44.1005371,7.93671411 44.3176682,7.93671411 L44.3176682,7.93671411 L45.00525,7.93671411 L45.00525,7.43336479 L44.2781898,7.43336479 C43.8855993,7.43336479 43.5966395,7.52877087 43.4113105,7.71958303 C43.2259814,7.91039519 43.1333169,8.20757964 43.1333169,8.61113639 L43.1333169,8.61113639 L43.1333169,8.86774585 L42.1496473,8.86774585 L42.1496473,9.33819652 L43.1333169,9.33819652 L43.1333169,12.5523944 L43.738652,12.5523944 Z M52.2100539,8.21306275 L52.2100539,7.44981411 L51.6047188,7.44981411 L51.6047188,8.21306275 L52.2100539,8.21306275 Z M53.4108546,12.5523944 L53.4108546,12.0819438 L52.2100539,12.0819438 L52.2100539,8.88090531 L50.6605276,8.88090531 L50.6605276,9.35135598 L51.6047188,9.35135598 L51.6047188,12.0819438 L50.4039181,12.0819438 L50.4039181,12.5523944 L53.4108546,12.5523944 Z M55.5986147,12.6478005 C56.0591957,12.6478005 56.4188876,12.5452664 56.6776903,12.3401982 C56.936493,12.1351299 57.0658944,11.8505566 57.0658944,11.4864782 C57.0658944,11.2123228 56.9885825,10.9897087 56.8339589,10.8186357 C56.6793353,10.6475627 56.4517863,10.5335141 56.1513119,10.4764897 L56.1513119,10.4764897 L55.907862,10.4304316 C55.5064984,10.3536681 55.2553721,10.2747114 55.1544829,10.1935614 C55.0535937,10.1124114 55.0031491,9.98958975 55.0031491,9.82509651 C55.0031491,9.64305732 55.0705914,9.50762455 55.2054758,9.4187982 C55.3403603,9.32997185 55.5448802,9.28555868 55.8190356,9.28555868 C56.0010748,9.28555868 56.1798241,9.31078098 56.3552836,9.36122557 C56.530743,9.41167016 56.7051059,9.48733706 56.8783721,9.58822624 L56.8783721,9.58822624 L56.8783721,8.99605058 C56.7029126,8.92367355 56.5241633,8.86939078 56.3421241,8.83320227 C56.1600849,8.79701375 55.9703694,8.7789195 55.7729775,8.7789195 C55.3299424,8.7789195 54.988893,8.87487389 54.7498295,9.06678267 C54.510766,9.25869145 54.3912343,9.53120192 54.3912343,9.88431408 C54.3912343,10.162856 54.4712877,10.3827286 54.6313944,10.543932 C54.7915012,10.7051353 55.0459174,10.8197323 55.394643,10.8877228 L55.394643,10.8877228 L55.6216437,10.933781 L55.6479626,10.9403607 C56.1853072,11.0478296 56.4539795,11.2419316 56.4539795,11.5226668 C56.4539795,11.7178654 56.3805059,11.8697475 56.2335586,11.978313 C56.0866113,12.0868786 55.8793498,12.1411613 55.6117741,12.1411613 C55.4275417,12.1411613 55.232343,12.1121009 55.0261782,12.0539799 C54.8200133,11.995859 54.6039789,11.9086776 54.3780748,11.7924357 L54.3780748,11.7924357 L54.3780748,12.41751 C54.6105586,12.4942735 54.8265931,12.5518461 55.0261782,12.5902279 C55.2257633,12.6286096 55.4165755,12.6478005 55.5986147,12.6478005 Z M60.0991497,12.5523944 L60.0991497,8.19990329 L61.6355166,8.19990329 L61.6355166,7.64062627 L57.8883606,7.64062627 L57.8883606,8.19990329 L59.4313072,8.19990329 L59.4313072,12.5523944 L60.0991497,12.5523944 Z M63.5896963,12.5523944 L63.5896963,10.7199397 C63.5896963,10.2725181 63.6894889,9.93037218 63.889074,9.69350192 C64.0886591,9.45663165 64.3770706,9.33819652 64.7543084,9.33819652 C64.9144152,9.33819652 65.0613625,9.36122557 65.1951503,9.40728368 C65.3289382,9.45334179 65.4605328,9.52681543 65.5899341,9.62770462 L65.5899341,9.62770462 L65.5899341,9.00921004 C65.471499,8.93025328 65.3475807,8.87213233 65.2181794,8.8348472 C65.088778,8.79756207 64.9495071,8.7789195 64.8003665,8.7789195 C64.5130517,8.7789195 64.2646669,8.84855497 64.0552122,8.98782591 C63.8457574,9.12709686 63.6905855,9.3272303 63.5896963,9.58822624 L63.5896963,9.58822624 L63.5896963,8.86774585 L62.9810713,8.86774585 L62.9810713,12.5523944 L63.5896963,12.5523944 Z M67.6066212,12.6478005 C67.8544577,12.6478005 68.0710405,12.5929694 68.2563695,12.4833073 C68.4416986,12.3736451 68.5880976,12.2124417 68.6955665,11.9996972 L68.6955665,11.9996972 L68.6955665,12.5523944 L69.3041915,12.5523944 L69.3041915,8.87432558 L68.6955665,8.87432558 L68.6955665,10.95681 C68.6955665,11.3318546 68.6198996,11.6197178 68.4685658,11.8203995 C68.317232,12.0210813 68.0990043,12.1214222 67.8138827,12.1214222 C67.5682395,12.1214222 67.3867486,12.043562 67.2694101,11.8878417 C67.1520716,11.7321215 67.0934023,11.4886715 67.0934023,11.1574918 L67.0934023,11.1574918 L67.0934023,8.87432558 L66.4880672,8.87432558 L66.4880672,11.1574918 C66.4880672,11.6575512 66.5801834,12.0309509 66.7644158,12.2776907 C66.9486483,12.5244306 67.2293834,12.6478005 67.6066212,12.6478005 Z M72.1334752,12.6478005 C72.3330604,12.6478005 72.5397735,12.6242232 72.7536147,12.5770684 C72.967456,12.5299137 73.1895218,12.4591816 73.4198124,12.3648721 L73.4198124,12.3648721 L73.4198124,11.7628269 C73.1807489,11.8878417 72.9559414,11.9810546 72.7453901,12.0424654 C72.5348387,12.1038762 72.3330604,12.1345816 72.1400549,12.1345816 C71.7584306,12.1345816 71.4628911,12.0249194 71.2534364,11.8055951 C71.0439817,11.5862708 70.9480273,11.2254823 70.9655732,10.7232296 L70.9655732,10.7232296 L70.9655732,10.7034904 L73.5875955,10.7034904 L73.5875955,10.4074026 C73.5700495,9.95778772 73.4258438,9.57397016 73.1549782,9.2559499 C72.8841127,8.93792963 72.5140029,8.7789195 72.0446489,8.7789195 C71.5182705,8.7789195 71.0971678,8.95437896 70.7813408,9.30529787 C70.4655138,9.65621678 70.3076002,10.1255708 70.3076002,10.71336 C70.3076002,11.3165019 70.4688036,11.7896941 70.7912104,12.1329367 C71.1136171,12.4761792 71.5610387,12.6478005 72.1334752,12.6478005 Z M70.9886023,10.2330397 C71.0061482,9.99178299 71.1092306,9.77465192 71.2978496,9.58164651 C71.4864685,9.38864111 71.7266286,9.29213841 72.01833,9.29213841 C72.316611,9.29213841 72.5452566,9.38480294 72.7042668,9.57013199 C72.8632769,9.75546104 72.9559414,9.97533367 72.9822603,10.2297499 L72.9822603,10.2297499 L70.9886023,10.2330397 Z M77.7262454,9.91392286 L77.7262454,9.35793571 L74.2488583,9.35793571 L74.2488583,9.91392286 L77.7262454,9.91392286 Z M77.7262454,11.4634492 L77.7262454,10.907462 L74.2488583,10.907462 L74.2488583,11.4634492 L77.7262454,11.4634492 Z M81.410894,13.1939181 L81.410894,12.7201775 L81.1806035,12.7201775 C80.8735494,12.7201775 80.673416,12.6730228 80.5802031,12.5787134 C80.4869903,12.4844039 80.4403839,12.2804323 80.4403839,11.9667985 L80.4403839,11.9667985 L80.4403839,11.2792168 C80.4403839,10.9041722 80.3614271,10.6448212 80.2035136,10.5011637 C80.0456001,10.3575063 79.7538988,10.2604553 79.3284096,10.2100107 C79.7670582,10.1507931 80.0620494,10.0548387 80.2133832,9.92214752 C80.364717,9.78945631 80.4403839,9.5301053 80.4403839,9.14409449 L80.4403839,9.14409449 L80.4403839,8.26241072 C80.4403839,7.95097019 80.4869903,7.74754688 80.5802031,7.6521408 C80.673416,7.55673472 80.8735494,7.50903168 81.1806035,7.50903168 L81.1806035,7.50903168 L81.410894,7.50903168 L81.410894,7.03858101 L81.2003426,7.03858101 C80.6542251,7.03858101 80.2885018,7.1191827 80.1031727,7.28038608 C79.9178437,7.44158945 79.8251792,7.76454451 79.8251792,8.24925126 L79.8251792,8.24925126 L79.8251792,9.10461612 C79.8251792,9.38973773 79.7643167,9.60577219 79.6425917,9.75271948 C79.5208667,9.89966678 79.3053805,9.97314043 78.9961332,9.97314043 L78.9961332,9.97314043 L78.5947697,9.97314043 L78.5947697,10.4435911 L78.9961332,10.4435911 C79.2790616,10.4435911 79.487968,10.5302242 79.6228525,10.7034904 C79.7577369,10.8767566 79.8251792,11.0829215 79.8251792,11.321985 L79.8251792,11.321985 L79.8251792,11.979958 C79.8251792,12.4646647 79.9178437,12.7881681 80.1031727,12.9504681 C80.2885018,13.1127681 80.6542251,13.1939181 81.2003426,13.1939181 L81.2003426,13.1939181 L81.410894,13.1939181 Z M83.9934379,12.6478005 C84.454019,12.6478005 84.8137108,12.5452664 85.0725135,12.3401982 C85.3313162,12.1351299 85.4607176,11.8505566 85.4607176,11.4864782 C85.4607176,11.2123228 85.3834058,10.9897087 85.2287821,10.8186357 C85.0741585,10.6475627 84.8466095,10.5335141 84.5461352,10.4764897 L84.5461352,10.4764897 L84.3026852,10.4304316 C83.9013217,10.3536681 83.6501953,10.2747114 83.5493061,10.1935614 C83.4484169,10.1124114 83.3979723,9.98958975 83.3979723,9.82509651 C83.3979723,9.64305732 83.4654146,9.50762455 83.600299,9.4187982 C83.7351835,9.32997185 83.9397034,9.28555868 84.2138588,9.28555868 C84.395898,9.28555868 84.5746473,9.31078098 84.7501068,9.36122557 C84.9255662,9.41167016 85.0999291,9.48733706 85.2731953,9.58822624 L85.2731953,9.58822624 L85.2731953,8.99605058 C85.0977358,8.92367355 84.9189865,8.86939078 84.7369473,8.83320227 C84.5549081,8.79701375 84.3651926,8.7789195 84.1678007,8.7789195 C83.7247656,8.7789195 83.3837163,8.87487389 83.1446528,9.06678267 C82.9055892,9.25869145 82.7860575,9.53120192 82.7860575,9.88431408 C82.7860575,10.162856 82.8661109,10.3827286 83.0262176,10.543932 C83.1863244,10.7051353 83.4407406,10.8197323 83.7894663,10.8877228 L83.7894663,10.8877228 L84.0164669,10.933781 L84.0427858,10.9403607 C84.5801304,11.0478296 84.8488027,11.2419316 84.8488027,11.5226668 C84.8488027,11.7178654 84.7753291,11.8697475 84.6283818,11.978313 C84.4814345,12.0868786 84.274173,12.1411613 84.0065973,12.1411613 C83.8223649,12.1411613 83.6271663,12.1121009 83.4210014,12.0539799 C83.2148365,11.995859 82.9988021,11.9086776 82.772898,11.7924357 L82.772898,11.7924357 L82.772898,12.41751 C83.0053818,12.4942735 83.2214163,12.5518461 83.4210014,12.5902279 C83.6205865,12.6286096 83.8113987,12.6478005 83.9934379,12.6478005 Z M87.3754189,12.5523944 L87.3754189,10.46991 C87.3754189,10.0948654 87.4516341,9.80700225 87.6040645,9.6063205 C87.7564949,9.40563875 87.9741743,9.30529787 88.2571027,9.30529787 C88.5049392,9.30529787 88.6869783,9.383158 88.8032202,9.53887827 C88.9194621,9.69459854 88.9775831,9.93804853 88.9775831,10.2692283 L88.9775831,10.2692283 L88.9775831,12.5523944 L89.5862081,12.5523944 L89.5862081,10.2692283 C89.5862081,9.76916881 89.4935435,9.39576915 89.3082145,9.14902929 C89.1228854,8.90228943 88.8426986,8.7789195 88.467654,8.7789195 C88.2154311,8.7789195 87.9972034,8.83320227 87.8129709,8.94176781 C87.6287385,9.05033335 87.4828878,9.20989179 87.3754189,9.42044314 L87.3754189,9.42044314 L87.3754189,7.43336479 L86.7700838,7.43336479 L86.7700838,12.5523944 L87.3754189,12.5523944 Z M92.2115202,12.6478005 C92.7247391,12.6478005 93.116233,12.482759 93.3860019,12.1526759 C93.6557708,11.8225928 93.7906553,11.3428208 93.7906553,10.71336 C93.7906553,10.0860925 93.6552225,9.60686881 93.384357,9.27568909 C93.1134915,8.94450936 92.7225459,8.7789195 92.2115202,8.7789195 C91.7004945,8.7789195 91.3100972,8.94450936 91.0403283,9.27568909 C90.7705594,9.60686881 90.6356749,10.0860925 90.6356749,10.71336 C90.6356749,11.3428208 90.7705594,11.8225928 91.0403283,12.1526759 C91.3100972,12.482759 91.7004945,12.6478005 92.2115202,12.6478005 Z M92.2115202,12.1345816 C91.9044661,12.1345816 91.6719824,12.0145015 91.5140688,11.7743414 C91.3561553,11.5341813 91.2771986,11.1805208 91.2771986,10.71336 C91.2771986,10.244006 91.3561553,9.88979718 91.5140688,9.65073367 C91.6719824,9.41167016 91.9044661,9.29213841 92.2115202,9.29213841 C92.5207675,9.29213841 92.7543479,9.41167016 92.9122614,9.65073367 C93.0701749,9.88979718 93.1491317,10.244006 93.1491317,10.71336 C93.1491317,11.1805208 93.0701749,11.5341813 92.9122614,11.7743414 C92.7543479,12.0145015 92.5207675,12.1345816 92.2115202,12.1345816 Z M95.6823276,12.5523944 L96.2679235,10.5324174 L96.8568093,12.5523944 L97.4358255,12.5523944 L98.2977701,8.86774585 L97.6990147,8.86774585 L97.0574911,11.8450735 L96.524533,9.94353164 L96.0080242,9.94353164 L95.4816458,11.8450735 L94.8401222,8.86774585 L94.2413668,8.86774585 L95.1033114,12.5523944 L95.6823276,12.5523944 Z M99.1070768,12.5523944 L99.4623822,11.272637 L101.182982,11.272637 L101.544867,12.5523944 L102.232448,12.5523944 L100.72898,7.64062627 L99.9229633,7.64062627 L98.4194951,12.5523944 L99.1070768,12.5523944 Z M101.025068,10.7396789 L99.6235856,10.7396789 L100.324327,8.22622221 L101.025068,10.7396789 Z M104.772224,12.5523944 L106.08159,8.86774585 L105.453226,8.86774585 L104.38073,11.9602188 L103.311524,8.86774585 L102.68316,8.86774585 L103.992526,12.5523944 L104.772224,12.5523944 Z M108.081828,12.6478005 C108.362563,12.6478005 108.601078,12.595711 108.797374,12.4915319 C108.993669,12.3873529 109.156517,12.2256012 109.285919,12.0062769 L109.285919,12.0062769 L109.285919,12.5523944 L109.894544,12.5523944 L109.894544,10.4501708 C109.894544,10.1277641 109.876998,9.88595901 109.841906,9.72475563 C109.806814,9.56355226 109.747596,9.42811949 109.664253,9.31845733 C109.530465,9.13861138 109.355554,9.00372693 109.13952,8.91380396 C108.923485,8.82388098 108.663038,8.7789195 108.358177,8.7789195 C108.165171,8.7789195 107.966134,8.80030362 107.761066,8.84307186 C107.555998,8.8858401 107.341608,8.94999247 107.117898,9.03552895 L107.117898,9.03552895 L107.117898,9.64086408 C107.317483,9.52681543 107.522551,9.44018233 107.733102,9.38096476 C107.943654,9.32174719 108.152012,9.29213841 108.358177,9.29213841 C108.680583,9.29213841 108.91526,9.35848402 109.062208,9.49117523 C109.209155,9.62386644 109.283725,9.83715935 109.285919,10.1310539 L109.285919,10.1310539 L109.285919,10.22646 L108.473322,10.22646 C107.940364,10.22646 107.536259,10.3328323 107.261007,10.5455769 C106.985755,10.7583215 106.848129,11.069762 106.848129,11.4798985 C106.848129,11.8352039 106.959984,12.1186806 107.183695,12.3303286 C107.407406,12.5419765 107.706783,12.6478005 108.081828,12.6478005 Z M108.210133,12.1411613 C107.973263,12.1411613 107.787933,12.0797505 107.654146,11.9569289 C107.520358,11.8341073 107.453464,11.6619377 107.453464,11.4404201 C107.453464,11.1947769 107.542839,11.0099962 107.721588,10.8860779 C107.900337,10.7621597 108.166268,10.7002006 108.51938,10.7002006 L108.51938,10.7002006 L109.285919,10.7002006 L109.285919,10.835085 C109.283725,11.2430282 109.187223,11.5626934 108.99641,11.7940806 C108.805598,12.0254678 108.543506,12.1411613 108.210133,12.1411613 Z M113.862121,12.5523944 L113.862121,12.0687843 L113.181119,12.0687843 C112.924509,12.0687843 112.744663,12.0150499 112.641581,11.9075809 C112.538498,11.800112 112.486957,11.6103965 112.486957,11.3384343 L112.486957,11.3384343 L112.486957,9.33819652 L113.862121,9.33819652 L113.862121,8.86774585 L112.486957,8.86774585 L112.486957,7.82156884 L111.881622,7.82156884 L111.881622,8.86774585 L110.897952,8.86774585 L110.897952,9.33819652 L111.881622,9.33819652 L111.881622,11.3384343 C111.881622,11.7836627 111.974835,12.0972965 112.16126,12.2793357 C112.347686,12.4613748 112.6679,12.5523944 113.121901,12.5523944 L113.121901,12.5523944 L113.862121,12.5523944 Z M116.194635,12.6478005 C116.47537,12.6478005 116.713885,12.595711 116.91018,12.4915319 C117.106476,12.3873529 117.269324,12.2256012 117.398725,12.0062769 L117.398725,12.0062769 L117.398725,12.5523944 L118.00735,12.5523944 L118.00735,10.4501708 C118.00735,10.1277641 117.989804,9.88595901 117.954712,9.72475563 C117.91962,9.56355226 117.860403,9.42811949 117.77706,9.31845733 C117.643272,9.13861138 117.468361,9.00372693 117.252326,8.91380396 C117.036292,8.82388098 116.775844,8.7789195 116.470983,8.7789195 C116.277978,8.7789195 116.078941,8.80030362 115.873873,8.84307186 C115.668805,8.8858401 115.454415,8.94999247 115.230704,9.03552895 L115.230704,9.03552895 L115.230704,9.64086408 C115.430289,9.52681543 115.635358,9.44018233 115.845909,9.38096476 C116.05646,9.32174719 116.264818,9.29213841 116.470983,9.29213841 C116.79339,9.29213841 117.028067,9.35848402 117.175014,9.49117523 C117.321962,9.62386644 117.396532,9.83715935 117.398725,10.1310539 L117.398725,10.1310539 L117.398725,10.22646 L116.586129,10.22646 C116.05317,10.22646 115.649065,10.3328323 115.373813,10.5455769 C115.098561,10.7583215 114.960935,11.069762 114.960935,11.4798985 C114.960935,11.8352039 115.072791,12.1186806 115.296502,12.3303286 C115.520212,12.5419765 115.81959,12.6478005 116.194635,12.6478005 Z M116.322939,12.1411613 C116.086069,12.1411613 115.90074,12.0797505 115.766952,11.9569289 C115.633164,11.8341073 115.566271,11.6619377 115.566271,11.4404201 C115.566271,11.1947769 115.655645,11.0099962 115.834394,10.8860779 C116.013144,10.7621597 116.279075,10.7002006 116.632187,10.7002006 L116.632187,10.7002006 L117.398725,10.7002006 L117.398725,10.835085 C117.396532,11.2430282 117.300029,11.5626934 117.109217,11.7940806 C116.918405,12.0254678 116.656312,12.1411613 116.322939,12.1411613 Z M120.379343,12.5523944 L120.379343,10.7199397 C120.379343,10.2725181 120.479135,9.93037218 120.67872,9.69350192 C120.878306,9.45663165 121.166717,9.33819652 121.543955,9.33819652 C121.704062,9.33819652 121.851009,9.36122557 121.984797,9.40728368 C122.118585,9.45334179 122.250179,9.52681543 122.379581,9.62770462 L122.379581,9.62770462 L122.379581,9.00921004 C122.261145,8.93025328 122.137227,8.87213233 122.007826,8.8348472 C121.878424,8.79756207 121.739154,8.7789195 121.590013,8.7789195 C121.302698,8.7789195 121.054313,8.84855497 120.844859,8.98782591 C120.635404,9.12709686 120.480232,9.3272303 120.379343,9.58822624 L120.379343,9.58822624 L120.379343,8.86774585 L119.770718,8.86774585 L119.770718,12.5523944 L120.379343,12.5523944 Z M123.567222,13.1939181 C124.113339,13.1939181 124.479063,13.1127681 124.664392,12.9504681 C124.849721,12.7881681 124.942385,12.4646647 124.942385,11.979958 L124.942385,11.979958 L124.942385,11.321985 C124.942385,11.0829215 125.009827,10.8767566 125.144712,10.7034904 C125.279596,10.5302242 125.488503,10.4435911 125.771431,10.4435911 L125.771431,10.4435911 L126.172795,10.4435911 L126.172795,9.97314043 L125.771431,9.97314043 C125.462184,9.97314043 125.246698,9.89966678 125.124973,9.75271948 C125.003248,9.60577219 124.942385,9.38973773 124.942385,9.10461612 L124.942385,9.10461612 L124.942385,8.24925126 C124.942385,7.76454451 124.849721,7.44158945 124.664392,7.28038608 C124.479063,7.1191827 124.113339,7.03858101 123.567222,7.03858101 L123.567222,7.03858101 L123.35667,7.03858101 L123.35667,7.50903168 L123.586961,7.50903168 C123.894015,7.50903168 124.094148,7.55673472 124.187361,7.6521408 C124.280574,7.74754688 124.327181,7.95097019 124.327181,8.26241072 L124.327181,8.26241072 L124.327181,9.14409449 C124.327181,9.5301053 124.402847,9.78945631 124.554181,9.92214752 C124.705515,10.0548387 125.000506,10.1507931 125.439155,10.2100107 C125.013666,10.2604553 124.721964,10.3575063 124.564051,10.5011637 C124.406137,10.6448212 124.327181,10.9041722 124.327181,11.2792168 L124.327181,11.2792168 L124.327181,11.9667985 C124.327181,12.2804323 124.280574,12.4844039 124.187361,12.5787134 C124.094148,12.6730228 123.894015,12.7201775 123.586961,12.7201775 L123.586961,12.7201775 L123.35667,12.7201775 L123.35667,13.1939181 L123.567222,13.1939181 Z M126.982101,12.0885235 L130.459489,10.71336 L130.459489,10.1672425 L126.982101,8.79207896 L126.982101,9.39083435 L129.778487,10.4435911 L126.982101,11.4864782 L126.982101,12.0885235 Z M24.9930023,21.6579681 L24.9930023,21.0559229 L22.1966172,20.0130357 L24.9930023,18.960279 L24.9930023,18.3615236 L21.5156152,19.7366871 L21.5156152,20.2828046 L24.9930023,21.6579681 Z M26.0918171,22.1218391 L26.4471225,20.8420817 L28.1677218,20.8420817 L28.529607,22.1218391 L29.2171887,22.1218391 L27.7137205,17.2100709 L26.9077036,17.2100709 L25.4042354,22.1218391 L26.0918171,22.1218391 Z M28.0098083,20.3091236 L26.6083259,20.3091236 L27.3090671,17.7956668 L28.0098083,20.3091236 Z M31.7569643,22.1218391 L33.0663305,18.4371905 L32.4379664,18.4371905 L31.3654704,21.5296634 L30.2962644,18.4371905 L29.6679002,18.4371905 L30.9772664,22.1218391 L31.7569643,22.1218391 Z M35.0665684,22.2172452 C35.3473035,22.2172452 35.5858187,22.1651556 35.7821139,22.0609766 C35.9784092,21.9567975 36.1412575,21.7950458 36.2706589,21.5757215 L36.2706589,21.5757215 L36.2706589,22.1218391 L36.8792839,22.1218391 L36.8792839,20.0196155 C36.8792839,19.6972087 36.8617379,19.4554036 36.826646,19.2942003 C36.7915541,19.1329969 36.7323366,18.9975641 36.6489933,18.887902 C36.5152055,18.708056 36.3402943,18.5731716 36.1242599,18.4832486 C35.9082254,18.3933256 35.6477778,18.3483641 35.342917,18.3483641 C35.1499116,18.3483641 34.9508748,18.3697483 34.7458065,18.4125165 C34.5407383,18.4552847 34.3263488,18.5194371 34.102638,18.6049736 L34.102638,18.6049736 L34.102638,19.2103087 C34.3022231,19.0962601 34.5072913,19.009627 34.7178427,18.9504094 C34.928394,18.8911918 35.1367521,18.861583 35.342917,18.861583 C35.6653237,18.861583 35.9000008,18.9279287 36.0469481,19.0606199 C36.1938954,19.1933111 36.2684656,19.406604 36.2706589,19.7004986 L36.2706589,19.7004986 L36.2706589,19.7959047 L35.4580623,19.7959047 C34.9251042,19.7959047 34.5209991,19.9022769 34.2457471,20.1150215 C33.9704951,20.3277661 33.832869,20.6392067 33.832869,21.0493431 C33.832869,21.4046485 33.9447244,21.6881252 34.1684353,21.8997732 C34.3921461,22.1114212 34.6915238,22.2172452 35.0665684,22.2172452 Z M35.1948731,21.710606 C34.9580028,21.710606 34.7726738,21.6491952 34.6388859,21.5263735 C34.5050981,21.4035519 34.4382042,21.2313823 34.4382042,21.0098648 C34.4382042,20.7642215 34.5275788,20.5794408 34.7063282,20.4555225 C34.8850775,20.3316043 35.1510082,20.2696452 35.5041204,20.2696452 L35.5041204,20.2696452 L36.2706589,20.2696452 L36.2706589,20.4045296 C36.2684656,20.8124729 36.1719629,21.1321381 35.9811508,21.3635252 C35.7903386,21.5949124 35.528246,21.710606 35.1948731,21.710606 Z M40.8468608,22.1218391 L40.8468608,21.6382289 L40.1658588,21.6382289 C39.9092494,21.6382289 39.7294034,21.5844945 39.626321,21.4770256 C39.5232386,21.3695567 39.4716973,21.1798411 39.4716973,20.907879 L39.4716973,20.907879 L39.4716973,18.9076412 L40.8468608,18.9076412 L40.8468608,18.4371905 L39.4716973,18.4371905 L39.4716973,17.3910135 L38.8663622,17.3910135 L38.8663622,18.4371905 L37.8826926,18.4371905 L37.8826926,18.9076412 L38.8663622,18.9076412 L38.8663622,20.907879 C38.8663622,21.3531073 38.959575,21.6667411 39.1460007,21.8487803 C39.3324264,22.0308195 39.6526399,22.1218391 40.1066412,22.1218391 L40.1066412,22.1218391 L40.8468608,22.1218391 Z M43.179375,22.2172452 C43.4601101,22.2172452 43.6986253,22.1651556 43.8949206,22.0609766 C44.0912158,21.9567975 44.2540642,21.7950458 44.3834655,21.5757215 L44.3834655,21.5757215 L44.3834655,22.1218391 L44.9920905,22.1218391 L44.9920905,20.0196155 C44.9920905,19.6972087 44.9745446,19.4554036 44.9394527,19.2942003 C44.9043608,19.1329969 44.8451432,18.9975641 44.7618,18.887902 C44.6280121,18.708056 44.453101,18.5731716 44.2370665,18.4832486 C44.0210321,18.3933256 43.7605844,18.3483641 43.4557236,18.3483641 C43.2627182,18.3483641 43.0636814,18.3697483 42.8586132,18.4125165 C42.6535449,18.4552847 42.4391554,18.5194371 42.2154446,18.6049736 L42.2154446,18.6049736 L42.2154446,19.2103087 C42.4150297,19.0962601 42.620098,19.009627 42.8306493,18.9504094 C43.0412007,18.8911918 43.2495588,18.861583 43.4557236,18.861583 C43.7781304,18.861583 44.0128074,18.9279287 44.1597547,19.0606199 C44.306702,19.1933111 44.3812723,19.406604 44.3834655,19.7004986 L44.3834655,19.7004986 L44.3834655,19.7959047 L43.5708689,19.7959047 C43.0379108,19.7959047 42.6338057,19.9022769 42.3585537,20.1150215 C42.0833017,20.3277661 41.9456757,20.6392067 41.9456757,21.0493431 C41.9456757,21.4046485 42.0575311,21.6881252 42.2812419,21.8997732 C42.5049527,22.1114212 42.8043304,22.2172452 43.179375,22.2172452 Z M43.3076797,21.710606 C43.0708094,21.710606 42.8854804,21.6491952 42.7516926,21.5263735 C42.6179047,21.4035519 42.5510108,21.2313823 42.5510108,21.0098648 C42.5510108,20.7642215 42.6403855,20.5794408 42.8191348,20.4555225 C42.9978841,20.3316043 43.2638148,20.2696452 43.616927,20.2696452 L43.616927,20.2696452 L44.3834655,20.2696452 L44.3834655,20.4045296 C44.3812723,20.8124729 44.2847696,21.1321381 44.0939574,21.3635252 C43.9031452,21.5949124 43.6410527,21.710606 43.3076797,21.710606 Z M47.364083,22.1218391 L47.364083,20.2893844 C47.364083,19.8419628 47.4638756,19.4998168 47.6634607,19.2629466 C47.8630459,19.0260763 48.1514573,18.9076412 48.5286952,18.9076412 C48.6888019,18.9076412 48.8357492,18.9306702 48.9695371,18.9767283 C49.1033249,19.0227864 49.2349195,19.0962601 49.3643208,19.1971493 L49.3643208,19.1971493 L49.3643208,18.5786547 C49.2458857,18.4996979 49.1219675,18.441577 48.9925661,18.4042918 C48.8631648,18.3670067 48.7238938,18.3483641 48.5747533,18.3483641 C48.2874384,18.3483641 48.0390536,18.4179996 47.8295989,18.5572705 C47.6201442,18.6965415 47.4649722,18.8966749 47.364083,19.1576709 L47.364083,19.1576709 L47.364083,18.4371905 L46.755458,18.4371905 L46.755458,22.1218391 L47.364083,22.1218391 Z M53.902874,22.8564692 L56.4887077,17.3196268 L55.8636334,17.3196268 L53.2745098,22.8564692 L53.902874,22.8564692 Z M57.284855,21.767524 L60.7622421,20.3923605 L60.7622421,19.8462429 L57.284855,18.4710794 L57.284855,19.0698348 L60.0812401,20.1225916 L57.284855,21.1654787 L57.284855,21.767524 Z M12.8237923,33.0542109 L12.8237923,32.4521657 L10.0274072,31.4092785 L12.8237923,30.3565218 L12.8237923,29.7577664 L9.34640523,31.1329299 L9.34640523,31.6790474 L12.8237923,33.0542109 Z M14.0772308,34.1431562 L16.6630646,28.6063137 L16.0379903,28.6063137 L13.4488667,34.1431562 L14.0772308,34.1431562 Z M18.307997,33.5180819 L18.307997,31.4421772 L18.9429409,31.4421772 C19.160072,31.4421772 19.3360797,31.4931701 19.4709642,31.5951559 C19.6058487,31.6971417 19.7577307,31.9246907 19.9266105,32.2778028 L19.9266105,32.2778028 L20.5122064,33.5180819 L21.2261071,33.5180819 L20.5582645,32.175817 C20.3784186,31.8117386 20.2281814,31.568837 20.107553,31.447112 C19.9869247,31.325387 19.841074,31.242592 19.670001,31.1987272 C19.9902145,31.1526691 20.2385993,31.0271059 20.4151554,30.8220376 C20.5917115,30.6169694 20.6799895,30.3521353 20.6799895,30.0275353 C20.6799895,29.5669542 20.5363321,29.2149387 20.2490172,28.9714887 C19.9617024,28.7280387 19.548276,28.6063137 19.0087382,28.6063137 L19.0087382,28.6063137 L17.6401544,28.6063137 L17.6401544,33.5180819 L18.307997,33.5180819 Z M19.0350571,30.8960596 L18.307997,30.8960596 L18.307997,29.1524313 L19.0087382,29.1524313 C19.3245652,29.1524313 19.5652737,29.2275498 19.7308635,29.377787 C19.8964534,29.5280242 19.9792483,29.7446069 19.9792483,30.0275353 C19.9792483,30.3214299 19.9013882,30.5396576 19.7456679,30.6822184 C19.5899476,30.8247792 19.3530774,30.8960596 19.0350571,30.8960596 L19.0350571,30.8960596 Z M23.4566354,33.6134879 C23.6562206,33.6134879 23.8629337,33.5899106 24.0767749,33.5427558 C24.2906162,33.4956011 24.512682,33.424869 24.7429726,33.3305596 L24.7429726,33.3305596 L24.7429726,32.7285143 C24.5039091,32.8535292 24.2791016,32.946742 24.0685503,33.0081528 C23.8579989,33.0695636 23.6562206,33.100269 23.4632151,33.100269 C23.0815908,33.100269 22.7860513,32.9906069 22.5765966,32.7712825 C22.3671419,32.5519582 22.2711875,32.1911697 22.2887334,31.688917 L22.2887334,31.688917 L22.2887334,31.6691778 L24.9107557,31.6691778 L24.9107557,31.37309 C24.8932097,30.9234751 24.749004,30.5396576 24.4781384,30.2216373 C24.2072729,29.9036171 23.8371631,29.7446069 23.3678091,29.7446069 C22.8414307,29.7446069 22.420328,29.9200664 22.104501,30.2709853 C21.788674,30.6219042 21.6307604,31.0912582 21.6307604,31.6790474 C21.6307604,32.2821893 21.7919638,32.7553815 22.1143706,33.0986241 C22.4367773,33.4418667 22.8841989,33.6134879 23.4566354,33.6134879 Z M22.3117625,31.1987272 C22.3293084,30.9574704 22.4323908,30.7403393 22.6210098,30.5473339 C22.8096287,30.3543285 23.0497888,30.2578258 23.3414902,30.2578258 C23.6397712,30.2578258 23.8684168,30.3504904 24.027427,30.5358194 C24.1864371,30.7211485 24.2791016,30.9410211 24.3054205,31.1954373 L24.3054205,31.1954373 L22.3117625,31.1987272 Z M26.5293692,33.5180819 L26.5293692,31.4355974 C26.5293692,31.0605528 26.6055844,30.7726897 26.7580148,30.5720079 C26.9104452,30.3713262 27.1281246,30.2709853 27.4110529,30.2709853 C27.6588894,30.2709853 27.8409286,30.3488454 27.9571705,30.5045657 C28.0734124,30.660286 28.1315333,30.903736 28.1315333,31.2349157 L28.1315333,31.2349157 L28.1315333,33.5180819 L28.7401583,33.5180819 L28.7401583,31.2349157 C28.7401583,30.7348562 28.6474938,30.3614566 28.4621647,30.1147167 C28.2768357,29.8679768 27.9966489,29.7446069 27.6216043,29.7446069 C27.3693813,29.7446069 27.1511536,29.7988897 26.9669212,29.9074552 C26.7826887,30.0160208 26.6368381,30.1755792 26.5293692,30.3861306 L26.5293692,30.3861306 L26.5293692,29.8334333 L25.924034,29.8334333 L25.924034,33.5180819 L26.5293692,33.5180819 Z M31.1779481,33.6134879 C31.3972725,33.6134879 31.5908262,33.5657849 31.7586093,33.4703788 C31.9263924,33.3749727 32.0607285,33.2362501 32.1616177,33.0542109 L32.1616177,33.0542109 L32.1616177,33.5180819 L32.7669528,33.5180819 L32.7669528,28.3990522 L32.1616177,28.3990522 L32.1616177,30.3038839 C32.065115,30.1218447 31.9324238,29.9831221 31.7635441,29.887716 C31.5946643,29.79231 31.3994657,29.7446069 31.1779481,29.7446069 C30.734913,29.7446069 30.3850907,29.9151316 30.1284813,30.2561809 C29.8718718,30.5972302 29.7435671,31.0671326 29.7435671,31.665888 C29.7435671,32.2734163 29.8713235,32.7498984 30.1268363,33.0953342 C30.3823492,33.44077 30.7327198,33.6134879 31.1779481,33.6134879 Z M31.2667745,33.100269 C30.9750731,33.100269 30.7546522,32.9807373 30.6055117,32.7416738 C30.4563711,32.5026103 30.3818009,32.1484015 30.3818009,31.6790474 C30.3818009,31.2096934 30.4563711,30.8554846 30.6055117,30.6164211 C30.7546522,30.3773576 30.9750731,30.2578258 31.2667745,30.2578258 C31.5584758,30.2578258 31.7805417,30.3779059 31.9329721,30.618066 C32.0854025,30.8582262 32.1616177,31.2118866 32.1616177,31.6790474 C32.1616177,32.144015 32.0854025,32.4971271 31.9329721,32.7383839 C31.7805417,32.9796407 31.5584758,33.100269 31.2667745,33.100269 Z M35.6258454,33.6134879 C35.8254305,33.6134879 36.0321437,33.5899106 36.2459849,33.5427558 C36.4598261,33.4956011 36.681892,33.424869 36.9121825,33.3305596 L36.9121825,33.3305596 L36.9121825,32.7285143 C36.673119,32.8535292 36.4483116,32.946742 36.2377602,33.0081528 C36.0272089,33.0695636 35.8254305,33.100269 35.6324251,33.100269 C35.2508008,33.100269 34.9552613,32.9906069 34.7458065,32.7712825 C34.5363518,32.5519582 34.4403974,32.1911697 34.4579434,31.688917 L34.4579434,31.688917 L34.4579434,31.6691778 L37.0799656,31.6691778 L37.0799656,31.37309 C37.0624197,30.9234751 36.9182139,30.5396576 36.6473484,30.2216373 C36.3764829,29.9036171 36.0063731,29.7446069 35.537019,29.7446069 C35.0106406,29.7446069 34.589538,29.9200664 34.2737109,30.2709853 C33.9578839,30.6219042 33.7999704,31.0912582 33.7999704,31.6790474 C33.7999704,32.2821893 33.9611738,32.7553815 34.2835805,33.0986241 C34.6059873,33.4418667 35.0534089,33.6134879 35.6258454,33.6134879 Z M34.4809724,31.1987272 C34.4985184,30.9574704 34.6016008,30.7403393 34.7902197,30.5473339 C34.9788386,30.3543285 35.2189988,30.2578258 35.5107001,30.2578258 C35.8089812,30.2578258 36.0376268,30.3504904 36.1966369,30.5358194 C36.355647,30.7211485 36.4483116,30.9410211 36.4746305,31.1954373 L36.4746305,31.1954373 L34.4809724,31.1987272 Z M39.2512764,33.5180819 L39.2512764,31.6856272 C39.2512764,31.2382055 39.351069,30.8960596 39.5506541,30.6591893 C39.7502392,30.4223191 40.0386507,30.3038839 40.4158885,30.3038839 C40.5759953,30.3038839 40.7229426,30.326913 40.8567304,30.3729711 C40.9905183,30.4190292 41.1221129,30.4925029 41.2515142,30.593392 L41.2515142,30.593392 L41.2515142,29.9748975 C41.1330791,29.8959407 41.0091608,29.8378198 40.8797595,29.8005346 C40.7503581,29.7632495 40.6110872,29.7446069 40.4619466,29.7446069 C40.1746318,29.7446069 39.926247,29.8142424 39.7167923,29.9535133 C39.5073375,30.0927843 39.3521656,30.2929177 39.2512764,30.5539137 L39.2512764,30.5539137 L39.2512764,29.8334333 L38.6426514,29.8334333 L38.6426514,33.5180819 L39.2512764,33.5180819 Z M44.8966844,33.5180819 L44.8966844,32.9588048 L43.8669567,32.9588048 L43.8669567,29.1655907 L44.8966844,29.1655907 L44.8966844,28.6063137 L42.1693865,28.6063137 L42.1693865,29.1655907 L43.1991142,29.1655907 L43.1991142,32.9588048 L42.1693865,32.9588048 L42.1693865,33.5180819 L44.8966844,33.5180819 Z M47.7950553,33.5180819 L47.7950553,30.3038839 L49.0616533,30.3038839 L49.0616533,29.8334333 L47.7950553,29.8334333 L47.7950553,29.5077367 C47.7950553,29.2818326 47.8372753,29.1244674 47.9217151,29.035641 C48.006155,28.9468147 48.1569404,28.9024015 48.3740715,28.9024015 L48.3740715,28.9024015 L49.0616533,28.9024015 L49.0616533,28.3990522 L48.3345931,28.3990522 C47.9420026,28.3990522 47.6530428,28.4944583 47.4677138,28.6852704 C47.2823847,28.8760826 47.1897202,29.1732671 47.1897202,29.5768238 L47.1897202,29.5768238 L47.1897202,29.8334333 L46.2060506,29.8334333 L46.2060506,30.3038839 L47.1897202,30.3038839 L47.1897202,33.5180819 L47.7950553,33.5180819 Z M49.9104384,33.0542109 L53.3878255,31.6790474 L53.3878255,31.1329299 L49.9104384,29.7577664 L49.9104384,30.3565218 L52.7068235,31.4092785 L49.9104384,32.4521657 L49.9104384,33.0542109 Z" id="&lt;RenderIfisTrue={showAvatar}&gt;&lt;Avatarsrc={src}variant=&quot;circle&quot;className=&quot;rainbow-m-horizontal_medium&quot;/&gt;&lt;/RenderIf&gt;" fill="#576574"></path>
        </g>
    </g>
</svg>