<?xml version="1.0" encoding="UTF-8"?>
<svg width="153px" height="85px" viewBox="0 0 153 85" version="1.1" xmlns="http://www.w3.org/2000/svg" xmlns:xlink="http://www.w3.org/1999/xlink">
    <!-- Generator: Sketch 52.6 (67491) - http://www.bohemiancoding.com/sketch -->
    <title>MenuSelect</title>
    <desc>Created with Sketch.</desc>
    <g id="pages" stroke="none" stroke-width="1" fill="none" fill-rule="evenodd">
        <g id="componentes-V2" transform="translate(-159.000000, -2291.000000)" fill-rule="nonzero">
            <g id="MenuSelect" transform="translate(154.000000, 2287.000000)">
                <g id="Group-69" transform="translate(58.000000, 29.000000)">
                    <g id="Group-65" transform="translate(6.000000, 6.000000)">
                        <path d="M85.188684,5.51810261 L83.4881525,3.93823814 C83.3706158,3.82904163 83.3706158,3.65246854 83.4881525,3.54443369 L83.7707409,3.28189739 C83.8882776,3.17270087 84.078337,3.17270087 84.1946233,3.28189739 L85.4,4.4017425 L86.6053767,3.28189739 C86.7229134,3.17270087 86.9129728,3.17270087 87.0292591,3.28189739 L87.3118475,3.54443369 C87.4293842,3.6536302 87.4293842,3.83020329 87.3118475,3.93823814 L85.611316,5.51810261 C85.4962801,5.62729913 85.3062207,5.62729913 85.188684,5.51810261 Z" id="Shape" fill="#A4A7B5" transform="translate(85.400000, 4.400000) rotate(-360.000000) translate(-85.400000, -4.400000) "></path>
                        <path d="M13.8,5.8 C12.6954305,5.8 12,5.12842712 12,4.3 C12,3.47157288 12.6954305,2.8 13.8,2.8 L54.075,2.8 C55.1795695,2.8 55.875,3.47157288 55.875,4.3 C55.875,5.12842712 55.1795695,5.8 54.075,5.8 L13.8,5.8 Z" id="Line-11" fill="#A4A7B5"></path>
                        <g id="like" transform="translate(0.600000, 0.800000)" fill="#F7076A">
                            <path d="M3.60881057,6.38821498 C3.55910485,6.38821498 3.50939912,6.370763 3.46953304,6.33587313 L3.46029956,6.3277815 C3.15280352,6.05874185 2.86397181,5.81262379 2.5846696,5.57459736 C1.83512247,4.93588018 1.18783436,4.38429604 0.737903084,3.84917709 C0.234474009,3.25043877 0,2.69186256 0,2.09129163 C0,1.53956652 0.187023789,1.02350661 0.526590308,0.638181498 C0.882593833,0.234234361 1.3764511,0.011785022 1.91718062,0.011785022 C2.67768106,0.011785022 3.15916123,0.465987665 3.42914537,0.847027313 C3.49920705,0.945903084 3.55878062,1.0450467 3.60881057,1.13834009 C3.65884053,1.0450467 3.71842819,0.945903084 3.78847577,0.847027313 C4.05845991,0.466001762 4.53994009,0.011785022 5.30044053,0.011785022 C5.84117004,0.011785022 6.33502731,0.234248458 6.69101674,0.638181498 C7.03059736,1.02350661 7.21762115,1.53956652 7.21762115,2.09129163 C7.21762115,2.69186256 6.98314714,3.25045286 6.47971806,3.84917709 C6.02978678,4.38429604 5.38249868,4.93588018 4.63299383,5.57456916 C4.35364934,5.81262379 4.06481762,6.05874185 3.75732159,6.3277815 L3.74808811,6.33587313 C3.70822203,6.37077709 3.6585163,6.38821498 3.60881057,6.38821498 Z M1.91718062,0.434692511 C1.49961586,0.434692511 1.11844934,0.606266079 0.843869604,0.91780793 C0.572405286,1.22582555 0.422907489,1.64258678 0.422907489,2.09129163 C0.422907489,3.17685286 1.392,4.00266432 2.85891101,5.25268018 C3.09972863,5.45788899 3.34753833,5.66906079 3.60881057,5.89617621 C3.87009692,5.6690467 4.11789251,5.45788899 4.35866784,5.25270837 C5.82562115,4.00266432 6.79471366,3.17685286 6.79471366,2.09129163 C6.79471366,1.64258678 6.64521586,1.22582555 6.37373744,0.917793833 C6.09917181,0.606266079 5.71800529,0.434692511 5.30044053,0.434692511 C4.72064846,0.434692511 4.34585374,0.791880176 4.13355419,1.09152423 C3.94311894,1.36028194 3.84374978,1.63118238 3.80986079,1.73518943 C3.78151189,1.82223789 3.70035595,1.8811489 3.60881057,1.8811489 C3.5172652,1.8811489 3.43610925,1.82223789 3.40776035,1.73518943 C3.37387137,1.63119648 3.2745022,1.36028194 3.08406696,1.09153833 C2.8717674,0.791880176 2.49697269,0.434692511 1.91718062,0.434692511 Z" id="Shape"></path>
                        </g>
                    </g>
                    <path d="M7.77777778,0.555555556 C3.78905458,0.555555556 0.555555556,3.78905458 0.555555556,7.77777778 L0.555555556,52.2222222 C0.555555556,56.2109454 3.78905458,59.4444444 7.77777778,59.4444444 L92.2222222,59.4444444 C96.2109454,59.4444444 99.4444444,56.2109454 99.4444444,52.2222222 L99.4444444,7.77777778 C99.4444444,3.78905458 96.2109454,0.555555556 92.2222222,0.555555556 L7.77777778,0.555555556 Z M7.77777778,1.3500312e-12 L92.2222222,1.3500312e-12 C96.5177703,1.34947609e-12 100,3.48222972 100,7.77777778 L100,52.2222222 C100,56.5177703 96.5177703,60 92.2222222,60 L7.77777778,60 C3.48222972,60 5.26052918e-16,56.5177703 0,52.2222222 L0,7.77777778 C-5.26052918e-16,3.48222972 3.48222972,1.35100264e-12 7.77777778,1.3500312e-12 Z" id="Rectangle" fill="#B1B4BD"></path>
                    <g id="Group-13" transform="translate(11.111111, 31.000000)" fill="#A4A7B5">
                        <path d="M1.5,3.13118726 C0.671572875,3.13118726 0,2.45961439 0,1.63118726 C0,0.802760137 0.671572875,0.131187262 1.5,0.131187262 L59.25,0.131187262 C60.0784271,0.131187262 60.75,0.802760137 60.75,1.63118726 C60.75,2.45961439 60.0784271,3.13118726 59.25,3.13118726 L1.5,3.13118726 Z M1.5,19.1311873 C0.671572875,19.1311873 0,18.4596144 0,17.6311873 C0,16.8027601 0.671572875,16.1311873 1.5,16.1311873 L41.75,16.1311873 C42.5784271,16.1311873 43.25,16.8027601 43.25,17.6311873 C43.25,18.4596144 42.5784271,19.1311873 41.75,19.1311873 L1.5,19.1311873 Z" id="Line-3"></path>
                    </g>
                    <polygon id="Line-7" fill="#D4D6DB" points="5 19.75 5 19.25 94 19.25 94 19.75"></polygon>
                </g>
                <g id="Group-65" transform="translate(0.000000, 0.000000)">
                    <rect id="Rectangle" x="0" y="0" width="98.4" height="16"></rect>
                    <path d="M78.788684,9.31810261 L77.0881525,7.73823814 C76.9706158,7.62904163 76.9706158,7.45246854 77.0881525,7.34443369 L77.3707409,7.08189739 C77.4882776,6.97270087 77.678337,6.97270087 77.7946233,7.08189739 L79,8.2017425 L80.2053767,7.08189739 C80.3229134,6.97270087 80.5129728,6.97270087 80.6292591,7.08189739 L80.9118475,7.34443369 C81.0293842,7.4536302 81.0293842,7.63020329 80.9118475,7.73823814 L79.211316,9.31810261 C79.0962801,9.42729913 78.9062207,9.42729913 78.788684,9.31810261 Z" id="Shape" fill="#A4A7B5" transform="translate(79.000000, 8.200000) rotate(-360.000000) translate(-79.000000, -8.200000) "></path>
                    <path d="M19.28,8.93333333 C18.4945284,8.93333333 18,8.4557704 18,7.86666667 C18,7.27756293 18.4945284,6.8 19.28,6.8 L55.0311111,6.8 C55.8165828,6.8 56.3111111,7.27756293 56.3111111,7.86666667 C56.3111111,8.4557704 55.8165828,8.93333333 55.0311111,8.93333333 L19.28,8.93333333 Z" id="Line-11" fill="#A4A7B5"></path>
                    <g id="like" transform="translate(5.600000, 4.800000)" fill="#F7076A">
                        <path d="M3.60881057,6.38821498 C3.55910485,6.38821498 3.50939912,6.370763 3.46953304,6.33587313 L3.46029956,6.3277815 C3.15280352,6.05874185 2.86397181,5.81262379 2.5846696,5.57459736 C1.83512247,4.93588018 1.18783436,4.38429604 0.737903084,3.84917709 C0.234474009,3.25043877 0,2.69186256 0,2.09129163 C0,1.53956652 0.187023789,1.02350661 0.526590308,0.638181498 C0.882593833,0.234234361 1.3764511,0.011785022 1.91718062,0.011785022 C2.67768106,0.011785022 3.15916123,0.465987665 3.42914537,0.847027313 C3.49920705,0.945903084 3.55878062,1.0450467 3.60881057,1.13834009 C3.65884053,1.0450467 3.71842819,0.945903084 3.78847577,0.847027313 C4.05845991,0.466001762 4.53994009,0.011785022 5.30044053,0.011785022 C5.84117004,0.011785022 6.33502731,0.234248458 6.69101674,0.638181498 C7.03059736,1.02350661 7.21762115,1.53956652 7.21762115,2.09129163 C7.21762115,2.69186256 6.98314714,3.25045286 6.47971806,3.84917709 C6.02978678,4.38429604 5.38249868,4.93588018 4.63299383,5.57456916 C4.35364934,5.81262379 4.06481762,6.05874185 3.75732159,6.3277815 L3.74808811,6.33587313 C3.70822203,6.37077709 3.6585163,6.38821498 3.60881057,6.38821498 Z M1.91718062,0.434692511 C1.49961586,0.434692511 1.11844934,0.606266079 0.843869604,0.91780793 C0.572405286,1.22582555 0.422907489,1.64258678 0.422907489,2.09129163 C0.422907489,3.17685286 1.392,4.00266432 2.85891101,5.25268018 C3.09972863,5.45788899 3.34753833,5.66906079 3.60881057,5.89617621 C3.87009692,5.6690467 4.11789251,5.45788899 4.35866784,5.25270837 C5.82562115,4.00266432 6.79471366,3.17685286 6.79471366,2.09129163 C6.79471366,1.64258678 6.64521586,1.22582555 6.37373744,0.917793833 C6.09917181,0.606266079 5.71800529,0.434692511 5.30044053,0.434692511 C4.72064846,0.434692511 4.34585374,0.791880176 4.13355419,1.09152423 C3.94311894,1.36028194 3.84374978,1.63118238 3.80986079,1.73518943 C3.78151189,1.82223789 3.70035595,1.8811489 3.60881057,1.8811489 C3.5172652,1.8811489 3.43610925,1.82223789 3.40776035,1.73518943 C3.37387137,1.63119648 3.2745022,1.36028194 3.08406696,1.09153833 C2.8717674,0.791880176 2.49697269,0.434692511 1.91718062,0.434692511 Z" id="Shape"></path>
                    </g>
                </g>
            </g>
        </g>
    </g>
</svg>