<svg xmlns="http://www.w3.org/2000/svg" width="120" height="73" viewBox="0 0 120 73">
    <g fill="none" fill-rule="nonzero">
        <g fill="#A4A7B5">
            <path d="M10.065 6.871a9.065 9.065 0 0 0 0 18.129h99.741a9.065 9.065 0 0 0 0-18.129H10.065zm0-1h99.741c5.559 0 10.065 4.506 10.065 10.064 0 5.559-4.506 10.065-10.065 10.065H10.065C4.506 26 0 21.494 0 15.935 0 10.377 4.506 5.871 10.065 5.871z"/>
            <path d="M108.548 19.29a2.935 2.935 0 1 1 0-5.87h.881a2.935 2.935 0 1 1 0 5.87h-.88zM11.677 17.355a1.677 1.677 0 1 1 0-3.355h55.355a1.677 1.677 0 0 1 0 3.355H11.677zM50.677 2.516a1.258 1.258 0 1 1 0-2.516h27.049a1.258 1.258 0 0 1 0 2.516H50.677z"/>
        </g>
        <path fill="#E3E5ED" d="M25 30.5a6.5 6.5 0 0 0-6.5 6.5v29a6.5 6.5 0 0 0 6.5 6.5h88a6.5 6.5 0 0 0 6.5-6.5V37a6.5 6.5 0 0 0-6.5-6.5H25zm0-.5h88a7 7 0 0 1 7 7v29a7 7 0 0 1-7 7H25a7 7 0 0 1-7-7V37a7 7 0 0 1 7-7z"/>
        <path fill="#A4A7B5" d="M33.322 42.5c-.73 0-1.322-.672-1.322-1.5s.592-1.5 1.322-1.5h57.356c.73 0 1.322.672 1.322 1.5s-.592 1.5-1.322 1.5H33.322zm.011 10C32.597 52.5 32 51.828 32 51s.597-1.5 1.333-1.5h67.334c.736 0 1.333.672 1.333 1.5s-.597 1.5-1.333 1.5H33.333zm0 11C32.597 63.5 32 62.828 32 62s.597-1.5 1.333-1.5h53.334c.736 0 1.333.672 1.333 1.5s-.597 1.5-1.333 1.5H33.333z"/>
    </g>
</svg>
