<?xml version="1.0" encoding="UTF-8"?>
<svg width="138px" height="71px" viewBox="0 0 138 71" version="1.1" xmlns="http://www.w3.org/2000/svg" xmlns:xlink="http://www.w3.org/1999/xlink">
    <title>showIf</title>
    <g id="pages" stroke="none" stroke-width="1" fill="none" fill-rule="evenodd">
        <g id="showIf" fill-rule="nonzero">
            <path d="M134.619048,29 C136.029346,29 137.172619,30.3151374 137.172619,31.9374416 L137.172619,67.1867414 C137.172619,68.8090456 136.029346,70.124183 134.619048,70.124183 L2.55357143,70.124183 C1.14327287,70.124183 0,68.8090456 0,67.1867414 L0,31.9374416 C0,30.3151374 1.14327287,29 2.55357143,29 L134.619048,29 Z" id="Path" fill="#EFEFF2"></path>
            <g id="Group-5-Copy" transform="translate(88.000000, 0.000000)">
                <path d="M0,11 C0,4.92486775 4.92817249,0 10.991074,0 L38.1815451,0 C44.1522361,0 49.0109701,4.76342789 49.1686683,10.7021035 L49.172619,11 C49.172619,17.0751322 44.2444466,22 38.1815451,22 L10.991074,22 C5.02038296,22 0.161648924,17.2365721 0.00395076211,11.2978965 L0,11 Z" id="Path" fill="#FFB900"></path>
                <path d="M8.9375,15.8125 L12.1325784,15.8125 C12.6349885,15.8125 13.0823824,15.7502178 13.4747605,15.6256533 C13.8671385,15.5010889 14.1982725,15.3266986 14.468162,15.1024826 C14.7380519,14.8782666 14.9435833,14.6094149 15.0847561,14.2959277 C15.2259289,13.9824404 15.2965157,13.6346981 15.2965157,13.2527003 C15.2965157,12.7046167 15.1314678,12.2592988 14.801372,11.9167465 C14.4712761,11.5741943 13.9844366,11.3385599 13.3408537,11.2098432 C13.6190477,11.1226481 13.8619484,11.0095019 14.0695557,10.8704051 C14.2771634,10.7313082 14.4494774,10.5756026 14.5864983,10.4032883 C14.7235192,10.230974 14.8262848,10.0441273 14.8947953,9.84274826 C14.9633057,9.64138096 14.997561,9.43273549 14.997561,9.21681185 C14.997561,8.85557491 14.9363165,8.52963099 14.8138284,8.23898084 C14.6913403,7.94833068 14.5013795,7.70231587 14.243946,7.50093641 C13.9865129,7.29955695 13.658493,7.14488992 13.2598868,7.0369338 C12.8612805,6.92897768 12.3837833,6.875 11.8273955,6.875 L8.9375,6.875 L8.9375,15.8125 Z M10.2205139,11.7641551 L12.1138937,11.7641551 C12.7574766,11.7641551 13.2370498,11.8949477 13.5526132,12.1565331 C13.8681767,12.4181185 14.0259582,12.7731272 14.0259582,13.2215592 C14.0259582,13.4499273 13.989627,13.659611 13.9169643,13.8506098 C13.8443244,14.0416085 13.7311782,14.2066564 13.5775261,14.3457535 C13.4239071,14.4848504 13.22668,14.5938443 12.9858449,14.6727352 C12.7450202,14.751626 12.4543697,14.7910714 12.1138937,14.7910714 L10.2205139,14.7910714 L10.2205139,11.7641551 Z M10.2205139,10.8548345 L10.2205139,7.88397213 L11.8273955,7.88397213 C12.4709784,7.88397213 12.9474374,8.00334615 13.2567726,8.24209495 C13.5661079,8.48084375 13.7207753,8.85765124 13.7207753,9.37251742 C13.7207753,9.59673345 13.68133,9.80018886 13.602439,9.98288328 C13.5235697,10.1655777 13.4041953,10.3212833 13.2443162,10.45 C13.0844584,10.5787167 12.8820411,10.6783683 12.6370645,10.7489547 C12.3920878,10.8195411 12.1035132,10.8548345 11.7713415,10.8548345 L10.2205139,10.8548345 Z M23.2935526,6.875 L17.7628906,6.875 L17.7628906,15.8125 L23.2935526,15.8125 L23.2997808,14.7661585 L19.0521327,14.7661585 L19.0521327,11.8077526 L22.4714272,11.8077526 L22.4714272,10.7987805 L19.0521327,10.7987805 L19.0521327,7.92134146 L23.2935526,7.92134146 L23.2935526,6.875 Z M31.776391,6.875 L24.7696402,6.875 L24.7696402,7.95248258 L27.6346227,7.95248258 L27.6346227,15.8125 L28.9176367,15.8125 L28.9176367,7.95248258 L31.776391,7.95248258 L31.776391,6.875 Z M40.2841425,15.8125 L36.7153707,6.875 L35.4136721,6.875 L31.8511286,15.8125 L32.8476442,15.8125 C32.9555979,15.8125 33.0479832,15.7813589 33.1248002,15.7190767 C33.2016149,15.6567944 33.2524787,15.5862079 33.2773916,15.5073171 L34.0808324,13.4084059 L38.0482104,13.4084059 L38.8516512,15.5073171 C38.8890205,15.5986643 38.9429982,15.672365 39.013585,15.728419 C39.0841718,15.784473 39.1755188,15.8125 39.2876268,15.8125 L40.2841425,15.8125 Z M37.6932017,12.4866289 L34.4358411,12.4866289 L35.7873655,8.97391115 C35.8329778,8.86180314 35.8786513,8.73101045 35.9243864,8.5815331 L36.0614073,8.09573171 L36.0614073,8.09573171 C36.1070808,8.27012195 36.1537925,8.43101797 36.2015423,8.57841899 L36.2489461,8.71993794 L36.2489461,8.71993794 L37.6932017,12.4866289 Z" id="BETA" fill="#FFFFFF"></path>
            </g>
            <path d="M8.34814453,41.7108398 L8.34814453,41.3355469 L6.60498047,40.6854492 L8.34814453,40.0291992 L8.34814453,39.655957 L6.18046875,40.5131836 L6.18046875,40.8536133 L8.34814453,41.7108398 Z M9.72216797,42.0594727 C10.0666992,42.0594727 10.3291992,41.9829102 10.509668,41.8297852 C10.6901367,41.6766602 10.7803711,41.4544922 10.7803711,41.1632813 C10.7803711,40.9158203 10.7147461,40.7203125 10.5834961,40.5767578 C10.4522461,40.4332031 10.2430664,40.3279297 9.95595703,40.2609375 L9.95595703,40.2609375 L9.73857422,40.2117187 C9.53486328,40.1638672 9.39575195,40.1043945 9.32124023,40.0333008 C9.24672852,39.962207 9.20947266,39.8589844 9.20947266,39.7236328 C9.20947266,39.5691406 9.26621094,39.4464355 9.3796875,39.3555176 C9.49316406,39.2645996 9.64765625,39.2191406 9.84316406,39.2191406 C9.97167969,39.2191406 10.0991699,39.2396484 10.2256348,39.2806641 C10.3520996,39.3216797 10.4782227,39.3825195 10.6040039,39.4631836 L10.6040039,39.4631836 L10.6040039,39.0427734 C10.4604492,38.9894531 10.3237305,38.9494629 10.1938477,38.9228027 C10.0639648,38.8961426 9.94023438,38.8828125 9.82265625,38.8828125 C9.51777344,38.8828125 9.27338867,38.9651855 9.08950195,39.1299316 C8.90561523,39.2946777 8.81367188,39.5137695 8.81367188,39.787207 C8.81367188,40.005957 8.87792969,40.1802734 9.00644531,40.3101562 C9.13496094,40.4400391 9.34140625,40.5371094 9.62578125,40.6013672 L9.62578125,40.6013672 L9.84726563,40.6526367 C10.0455078,40.6963867 10.1846191,40.7585938 10.2645996,40.8392578 C10.3445801,40.9199219 10.3845703,41.0368164 10.3845703,41.1899414 C10.3845703,41.3581055 10.3264648,41.4890137 10.2102539,41.582666 C10.094043,41.6763184 9.93134766,41.7231445 9.72216797,41.7231445 C9.57998047,41.7231445 9.43881836,41.6999023 9.29868164,41.653418 C9.15854492,41.6069336 9.00986328,41.5337891 8.85263672,41.4339844 L8.85263672,41.4339844 L8.85263672,41.8749023 C8.99892578,41.9364258 9.14453125,41.9825684 9.28945313,42.0133301 C9.434375,42.0440918 9.57861328,42.0594727 9.72216797,42.0594727 Z M11.8344727,42 L11.8344727,40.7018555 C11.8344727,40.4680664 11.8819824,40.288623 11.977002,40.1635254 C12.0720215,40.0384277 12.2077148,39.9758789 12.384082,39.9758789 C12.5385742,39.9758789 12.6520508,40.0244141 12.7245117,40.1214844 C12.7969727,40.2185547 12.8332031,40.3703125 12.8332031,40.5767578 L12.8332031,40.5767578 L12.8332031,42 L13.2125977,42 L13.2125977,40.5767578 C13.2125977,40.2650391 13.154834,40.0322754 13.0393066,39.8784668 C12.9237793,39.7246582 12.7491211,39.6477539 12.515332,39.6477539 C12.3581055,39.6477539 12.2220703,39.6815918 12.1072266,39.7492676 C11.9923828,39.8169434 11.9014648,39.9164063 11.8344727,40.0476562 L11.8344727,40.0476562 L11.8344727,38.8089844 L11.4571289,38.8089844 L11.4571289,42 L11.8344727,42 Z M14.8491211,42.0594727 C15.169043,42.0594727 15.4130859,41.9565918 15.58125,41.7508301 C15.7494141,41.5450684 15.8334961,41.2459961 15.8334961,40.8536133 C15.8334961,40.4625977 15.7490723,40.1638672 15.5802246,39.9574219 C15.411377,39.7509766 15.1676758,39.6477539 14.8491211,39.6477539 C14.5305664,39.6477539 14.287207,39.7509766 14.119043,39.9574219 C13.9508789,40.1638672 13.8667969,40.4625977 13.8667969,40.8536133 C13.8667969,41.2459961 13.9508789,41.5450684 14.119043,41.7508301 C14.287207,41.9565918 14.5305664,42.0594727 14.8491211,42.0594727 Z M14.8491211,41.7395508 C14.6577148,41.7395508 14.512793,41.6646973 14.4143555,41.5149902 C14.315918,41.3652832 14.2666992,41.1448242 14.2666992,40.8536133 C14.2666992,40.5610352 14.315918,40.3402344 14.4143555,40.1912109 C14.512793,40.0421875 14.6577148,39.9676758 14.8491211,39.9676758 C15.0418945,39.9676758 15.1875,40.0421875 15.2859375,40.1912109 C15.384375,40.3402344 15.4335938,40.5610352 15.4335938,40.8536133 C15.4335938,41.1448242 15.384375,41.3652832 15.2859375,41.5149902 C15.1875,41.6646973 15.0418945,41.7395508 14.8491211,41.7395508 Z M17.0126953,42 L17.3777344,40.7408203 L17.7448242,42 L18.1057617,42 L18.6430664,39.703125 L18.2698242,39.703125 L17.8699219,41.559082 L17.5376953,40.3737305 L17.2157227,40.3737305 L16.8875977,41.559082 L16.4876953,39.703125 L16.1144531,39.703125 L16.6517578,42 L17.0126953,42 Z M20.7553711,42 L20.7553711,41.6513672 L20.1134766,41.6513672 L20.1134766,39.2868164 L20.7553711,39.2868164 L20.7553711,38.9381836 L19.0552734,38.9381836 L19.0552734,39.2868164 L19.697168,39.2868164 L19.697168,41.6513672 L19.0552734,41.6513672 L19.0552734,42 L20.7553711,42 Z M22.5621094,42 L22.5621094,39.9963867 L23.3516602,39.9963867 L23.3516602,39.703125 L22.5621094,39.703125 L22.5621094,39.5000977 C22.5621094,39.3592773 22.5884277,39.2611816 22.6410645,39.2058105 C22.6937012,39.1504395 22.7876953,39.1227539 22.9230469,39.1227539 L22.9230469,39.1227539 L23.3516602,39.1227539 L23.3516602,38.8089844 L22.8984375,38.8089844 C22.6537109,38.8089844 22.473584,38.868457 22.3580566,38.9874023 C22.2425293,39.1063477 22.1847656,39.2916016 22.1847656,39.5431641 L22.1847656,39.5431641 L22.1847656,39.703125 L21.571582,39.703125 L21.571582,39.9963867 L22.1847656,39.9963867 L22.1847656,42 L22.5621094,42 Z M27.8428711,39.2950195 L27.8428711,38.8192383 L27.4655273,38.8192383 L27.4655273,39.2950195 L27.8428711,39.2950195 Z M28.5914063,42 L28.5914063,41.7067383 L27.8428711,41.7067383 L27.8428711,39.7113281 L26.8769531,39.7113281 L26.8769531,40.0045898 L27.4655273,40.0045898 L27.4655273,41.7067383 L26.7169922,41.7067383 L26.7169922,42 L28.5914063,42 Z M29.9551758,42.0594727 C30.2422852,42.0594727 30.4665039,41.9955566 30.627832,41.8677246 C30.7891602,41.7398926 30.8698242,41.5625 30.8698242,41.3355469 C30.8698242,41.1646484 30.8216309,41.0258789 30.7252441,40.9192383 C30.6288574,40.8125977 30.4870117,40.7415039 30.299707,40.705957 L30.299707,40.705957 L30.1479492,40.6772461 C29.8977539,40.6293945 29.7412109,40.5801758 29.6783203,40.5295898 C29.6154297,40.4790039 29.5839844,40.4024414 29.5839844,40.2999023 C29.5839844,40.1864258 29.6260254,40.102002 29.7101074,40.0466309 C29.7941895,39.9912598 29.9216797,39.9635742 30.0925781,39.9635742 C30.2060547,39.9635742 30.3174805,39.9792969 30.4268555,40.0107422 C30.5362305,40.0421875 30.6449219,40.0893555 30.7529297,40.1522461 L30.7529297,40.1522461 L30.7529297,39.7831055 C30.6435547,39.7379883 30.5321289,39.7041504 30.4186523,39.6815918 C30.3051758,39.6590332 30.1869141,39.6477539 30.0638672,39.6477539 C29.7876953,39.6477539 29.5750977,39.7075684 29.4260742,39.8271973 C29.2770508,39.9468262 29.2025391,40.1166992 29.2025391,40.3368164 C29.2025391,40.5104492 29.2524414,40.6475098 29.3522461,40.747998 C29.4520508,40.8484863 29.6106445,40.9199219 29.8280273,40.9623047 L29.8280273,40.9623047 L29.9695313,40.9910156 L29.9859375,40.9951172 C30.3208984,41.0621094 30.4883789,41.1831055 30.4883789,41.3581055 C30.4883789,41.4797852 30.4425781,41.5744629 30.3509766,41.6421387 C30.259375,41.7098145 30.1301758,41.7436523 29.9633789,41.7436523 C29.8485352,41.7436523 29.7268555,41.7255371 29.5983398,41.6893066 C29.4698242,41.6530762 29.3351563,41.5987305 29.1943359,41.5262695 L29.1943359,41.5262695 L29.1943359,41.915918 C29.3392578,41.9637695 29.4739258,41.9996582 29.5983398,42.023584 C29.7227539,42.0475098 29.8416992,42.0594727 29.9551758,42.0594727 Z M32.7606445,42 L32.7606445,39.2868164 L33.7183594,39.2868164 L33.7183594,38.9381836 L31.3825195,38.9381836 L31.3825195,39.2868164 L32.3443359,39.2868164 L32.3443359,42 L32.7606445,42 Z M34.9365234,42 L34.9365234,40.8577148 C34.9365234,40.5788086 34.9987305,40.3655273 35.1231445,40.2178711 C35.2475586,40.0702148 35.4273438,39.9963867 35.6625,39.9963867 C35.7623047,39.9963867 35.8539063,40.0107422 35.9373047,40.0394531 C36.0207031,40.0681641 36.1027344,40.1139648 36.1833984,40.1768555 L36.1833984,40.1768555 L36.1833984,39.7913086 C36.1095703,39.7420898 36.0323242,39.7058594 35.9516602,39.6826172 C35.8709961,39.659375 35.7841797,39.6477539 35.6912109,39.6477539 C35.5121094,39.6477539 35.3572754,39.6911621 35.226709,39.7779785 C35.0961426,39.8647949 34.9994141,39.9895508 34.9365234,40.1522461 L34.9365234,40.1522461 L34.9365234,39.703125 L34.5571289,39.703125 L34.5571289,42 L34.9365234,42 Z M37.4405273,42.0594727 C37.5950195,42.0594727 37.7300293,42.025293 37.8455566,41.9569336 C37.961084,41.8885742 38.0523438,41.7880859 38.1193359,41.6554688 L38.1193359,41.6554688 L38.1193359,42 L38.4987305,42 L38.4987305,39.7072266 L38.1193359,39.7072266 L38.1193359,41.0053711 C38.1193359,41.2391602 38.072168,41.4186035 37.977832,41.5437012 C37.8834961,41.6687988 37.7474609,41.7313477 37.5697266,41.7313477 C37.4166016,41.7313477 37.3034668,41.6828125 37.2303223,41.5857422 C37.1571777,41.4886719 37.1206055,41.3369141 37.1206055,41.1304687 L37.1206055,41.1304687 L37.1206055,39.7072266 L36.7432617,39.7072266 L36.7432617,41.1304687 C36.7432617,41.4421875 36.8006836,41.6749512 36.9155273,41.8287598 C37.0303711,41.9825684 37.2053711,42.0594727 37.4405273,42.0594727 Z M40.2624023,42.0594727 C40.3868164,42.0594727 40.5156738,42.0447754 40.6489746,42.0153809 C40.7822754,41.9859863 40.9207031,41.9418945 41.0642578,41.8831055 L41.0642578,41.8831055 L41.0642578,41.5078125 C40.9152344,41.5857422 40.7750977,41.6438477 40.6438477,41.6821289 C40.5125977,41.7204102 40.3868164,41.7395508 40.2665039,41.7395508 C40.0286133,41.7395508 39.8443848,41.6711914 39.7138184,41.5344727 C39.583252,41.3977539 39.5234375,41.1728516 39.534375,40.8597656 L39.534375,40.8474609 L41.1688477,40.8474609 L41.1688477,40.6628906 C41.1579102,40.3826172 41.0680176,40.1433594 40.8991699,39.9451172 C40.7303223,39.746875 40.4996094,39.6477539 40.2070313,39.6477539 C39.8789063,39.6477539 39.6164063,39.7571289 39.4195313,39.9758789 C39.2226563,40.1946289 39.1242188,40.487207 39.1242188,40.8536133 C39.1242188,41.2295898 39.224707,41.5245605 39.4256836,41.7385254 C39.6266602,41.9524902 39.9055664,42.0594727 40.2624023,42.0594727 Z M39.5487305,40.5541992 C39.559668,40.4038086 39.6239258,40.268457 39.7415039,40.1481445 C39.859082,40.027832 40.0087891,39.9676758 40.190625,39.9676758 C40.3765625,39.9676758 40.5190918,40.0254395 40.6182129,40.1409668 C40.717334,40.2564941 40.7750977,40.3935547 40.7915039,40.5521484 L40.7915039,40.5521484 L39.5487305,40.5541992 Z M43.7487305,40.3552734 L43.7487305,40.0086914 L41.5810547,40.0086914 L41.5810547,40.3552734 L43.7487305,40.3552734 Z M43.7487305,41.3211914 L43.7487305,40.9746094 L41.5810547,40.9746094 L41.5810547,41.3211914 L43.7487305,41.3211914 Z M46.0456055,42.3999023 L46.0456055,42.1045898 L45.9020508,42.1045898 C45.7106445,42.1045898 45.5858887,42.0751953 45.5277832,42.0164062 C45.4696777,41.9576172 45.440625,41.8304688 45.440625,41.6349609 L45.440625,41.6349609 L45.440625,41.2063477 C45.440625,40.9725586 45.3914063,40.8108887 45.2929688,40.7213379 C45.1945313,40.6317871 45.0126953,40.5712891 44.7474609,40.5398437 C45.0208984,40.5029297 45.2047852,40.4431152 45.2991211,40.3604004 C45.393457,40.2776855 45.440625,40.1160156 45.440625,39.8753906 L45.440625,39.8753906 L45.440625,39.3257812 C45.440625,39.1316406 45.4696777,39.004834 45.5277832,38.9453613 C45.5858887,38.8858887 45.7106445,38.8561523 45.9020508,38.8561523 L45.9020508,38.8561523 L46.0456055,38.8561523 L46.0456055,38.5628906 L45.9143555,38.5628906 C45.5739258,38.5628906 45.3459473,38.6131348 45.2304199,38.713623 C45.1148926,38.8141113 45.0571289,39.0154297 45.0571289,39.3175781 L45.0571289,39.3175781 L45.0571289,39.8507813 C45.0571289,40.0285156 45.0191895,40.1631836 44.9433105,40.2547852 C44.8674316,40.3463867 44.7331055,40.3921875 44.540332,40.3921875 L44.540332,40.3921875 L44.2901367,40.3921875 L44.2901367,40.6854492 L44.540332,40.6854492 C44.7166992,40.6854492 44.8469238,40.7394531 44.9310059,40.8474609 C45.0150879,40.9554688 45.0571289,41.0839844 45.0571289,41.2330078 L45.0571289,41.2330078 L45.0571289,41.6431641 C45.0571289,41.9453125 45.1148926,42.1469727 45.2304199,42.2481445 C45.3459473,42.3493164 45.5739258,42.3999023 45.9143555,42.3999023 L45.9143555,42.3999023 L46.0456055,42.3999023 Z M47.6554688,42.0594727 C47.9425781,42.0594727 48.1667969,41.9955566 48.328125,41.8677246 C48.4894531,41.7398926 48.5701172,41.5625 48.5701172,41.3355469 C48.5701172,41.1646484 48.5219238,41.0258789 48.4255371,40.9192383 C48.3291504,40.8125977 48.1873047,40.7415039 48,40.705957 L48,40.705957 L47.8482422,40.6772461 C47.5980469,40.6293945 47.4415039,40.5801758 47.3786133,40.5295898 C47.3157227,40.4790039 47.2842773,40.4024414 47.2842773,40.2999023 C47.2842773,40.1864258 47.3263184,40.102002 47.4104004,40.0466309 C47.4944824,39.9912598 47.6219727,39.9635742 47.7928711,39.9635742 C47.9063477,39.9635742 48.0177734,39.9792969 48.1271484,40.0107422 C48.2365234,40.0421875 48.3452148,40.0893555 48.4532227,40.1522461 L48.4532227,40.1522461 L48.4532227,39.7831055 C48.3438477,39.7379883 48.2324219,39.7041504 48.1189453,39.6815918 C48.0054688,39.6590332 47.887207,39.6477539 47.7641602,39.6477539 C47.4879883,39.6477539 47.2753906,39.7075684 47.1263672,39.8271973 C46.9773438,39.9468262 46.902832,40.1166992 46.902832,40.3368164 C46.902832,40.5104492 46.9527344,40.6475098 47.0525391,40.747998 C47.1523438,40.8484863 47.3109375,40.9199219 47.5283203,40.9623047 L47.5283203,40.9623047 L47.6698242,40.9910156 L47.6862305,40.9951172 C48.0211914,41.0621094 48.1886719,41.1831055 48.1886719,41.3581055 C48.1886719,41.4797852 48.1428711,41.5744629 48.0512695,41.6421387 C47.959668,41.7098145 47.8304688,41.7436523 47.6636719,41.7436523 C47.5488281,41.7436523 47.4271484,41.7255371 47.2986328,41.6893066 C47.1701172,41.6530762 47.0354492,41.5987305 46.8946289,41.5262695 L46.8946289,41.5262695 L46.8946289,41.915918 C47.0395508,41.9637695 47.1742188,41.9996582 47.2986328,42.023584 C47.4230469,42.0475098 47.5419922,42.0594727 47.6554688,42.0594727 Z M49.7636719,42 L49.7636719,40.7018555 C49.7636719,40.4680664 49.8111816,40.288623 49.9062012,40.1635254 C50.0012207,40.0384277 50.1369141,39.9758789 50.3132813,39.9758789 C50.4677734,39.9758789 50.58125,40.0244141 50.6537109,40.1214844 C50.7261719,40.2185547 50.7624023,40.3703125 50.7624023,40.5767578 L50.7624023,40.5767578 L50.7624023,42 L51.1417969,42 L51.1417969,40.5767578 C51.1417969,40.2650391 51.0840332,40.0322754 50.9685059,39.8784668 C50.8529785,39.7246582 50.6783203,39.6477539 50.4445313,39.6477539 C50.2873047,39.6477539 50.1512695,39.6815918 50.0364258,39.7492676 C49.921582,39.8169434 49.8306641,39.9164063 49.7636719,40.0476562 L49.7636719,40.0476562 L49.7636719,38.8089844 L49.3863281,38.8089844 L49.3863281,42 L49.7636719,42 Z M52.7783203,42.0594727 C53.0982422,42.0594727 53.3422852,41.9565918 53.5104492,41.7508301 C53.6786133,41.5450684 53.7626953,41.2459961 53.7626953,40.8536133 C53.7626953,40.4625977 53.6782715,40.1638672 53.5094238,39.9574219 C53.3405762,39.7509766 53.096875,39.6477539 52.7783203,39.6477539 C52.4597656,39.6477539 52.2164063,39.7509766 52.0482422,39.9574219 C51.8800781,40.1638672 51.7959961,40.4625977 51.7959961,40.8536133 C51.7959961,41.2459961 51.8800781,41.5450684 52.0482422,41.7508301 C52.2164063,41.9565918 52.4597656,42.0594727 52.7783203,42.0594727 Z M52.7783203,41.7395508 C52.5869141,41.7395508 52.4419922,41.6646973 52.3435547,41.5149902 C52.2451172,41.3652832 52.1958984,41.1448242 52.1958984,40.8536133 C52.1958984,40.5610352 52.2451172,40.3402344 52.3435547,40.1912109 C52.4419922,40.0421875 52.5869141,39.9676758 52.7783203,39.9676758 C52.9710938,39.9676758 53.1166992,40.0421875 53.2151367,40.1912109 C53.3135742,40.3402344 53.362793,40.5610352 53.362793,40.8536133 C53.362793,41.1448242 53.3135742,41.3652832 53.2151367,41.5149902 C53.1166992,41.6646973 52.9710938,41.7395508 52.7783203,41.7395508 Z M54.9418945,42 L55.3069336,40.7408203 L55.6740234,42 L56.0349609,42 L56.5722656,39.703125 L56.1990234,39.703125 L55.7991211,41.559082 L55.4668945,40.3737305 L55.1449219,40.3737305 L54.8167969,41.559082 L54.4168945,39.703125 L54.0436523,39.703125 L54.580957,42 L54.9418945,42 Z M58.0959961,42.0594727 C58.2204102,42.0594727 58.3379883,42.045459 58.4487305,42.0174316 C58.5594727,41.9894043 58.6674805,41.9473633 58.7727539,41.8913086 L58.7727539,41.8913086 L58.7727539,41.4667969 C58.6729492,41.5501953 58.5652832,41.6137695 58.4497559,41.6575195 C58.3342285,41.7012695 58.2163086,41.7231445 58.0959961,41.7231445 C57.8266602,41.7231445 57.625,41.6192383 57.4910156,41.4114258 C57.3570313,41.2036133 57.2900391,40.8905273 57.2900391,40.472168 C57.2900391,40.0524414 57.3570313,39.7386719 57.4910156,39.5308594 C57.625,39.3230469 57.8266602,39.2191406 58.0959961,39.2191406 C58.2135742,39.2191406 58.3304688,39.2410156 58.4466797,39.2847656 C58.5628906,39.3285156 58.671582,39.3920898 58.7727539,39.4754883 L58.7727539,39.4754883 L58.7727539,39.0509766 C58.6674805,38.9949219 58.5594727,38.9528809 58.4487305,38.9248535 C58.3379883,38.8968262 58.2204102,38.8828125 58.0959961,38.8828125 C57.7063477,38.8828125 57.4024902,39.0226074 57.1844238,39.3021973 C56.9663574,39.5817871 56.8573242,39.9717773 56.8573242,40.472168 C56.8573242,40.975293 56.9656738,41.365625 57.182373,41.6431641 C57.3990723,41.9207031 57.7036133,42.0594727 58.0959961,42.0594727 Z M60.3641602,42.0594727 C60.684082,42.0594727 60.928125,41.9565918 61.0962891,41.7508301 C61.2644531,41.5450684 61.3485352,41.2459961 61.3485352,40.8536133 C61.3485352,40.4625977 61.2641113,40.1638672 61.0952637,39.9574219 C60.926416,39.7509766 60.6827148,39.6477539 60.3641602,39.6477539 C60.0456055,39.6477539 59.8022461,39.7509766 59.634082,39.9574219 C59.465918,40.1638672 59.3818359,40.4625977 59.3818359,40.8536133 C59.3818359,41.2459961 59.465918,41.5450684 59.634082,41.7508301 C59.8022461,41.9565918 60.0456055,42.0594727 60.3641602,42.0594727 Z M60.3641602,41.7395508 C60.1727539,41.7395508 60.027832,41.6646973 59.9293945,41.5149902 C59.830957,41.3652832 59.7817383,41.1448242 59.7817383,40.8536133 C59.7817383,40.5610352 59.830957,40.3402344 59.9293945,40.1912109 C60.027832,40.0421875 60.1727539,39.9676758 60.3641602,39.9676758 C60.5569336,39.9676758 60.7025391,40.0421875 60.8009766,40.1912109 C60.8994141,40.3402344 60.9486328,40.5610352 60.9486328,40.8536133 C60.9486328,41.1448242 60.8994141,41.3652832 60.8009766,41.5149902 C60.7025391,41.6646973 60.5569336,41.7395508 60.3641602,41.7395508 Z M62.4067383,42 L62.4067383,40.7018555 C62.4067383,40.4680664 62.454248,40.288623 62.5492676,40.1635254 C62.6442871,40.0384277 62.7799805,39.9758789 62.9563477,39.9758789 C63.1108398,39.9758789 63.2243164,40.0244141 63.2967773,40.1214844 C63.3692383,40.2185547 63.4054688,40.3703125 63.4054688,40.5767578 L63.4054688,40.5767578 L63.4054688,42 L63.7848633,42 L63.7848633,40.5767578 C63.7848633,40.2650391 63.7270996,40.0322754 63.6115723,39.8784668 C63.4960449,39.7246582 63.3213867,39.6477539 63.0875977,39.6477539 C62.9303711,39.6477539 62.7943359,39.6815918 62.6794922,39.7492676 C62.5646484,39.8169434 62.4737305,39.9164063 62.4067383,40.0476562 L62.4067383,40.0476562 L62.4067383,39.703125 L62.0293945,39.703125 L62.0293945,42 L62.4067383,42 Z M66.2745117,42 L66.2745117,41.6985352 L65.85,41.6985352 C65.6900391,41.6985352 65.5779297,41.6650391 65.5136719,41.5980469 C65.4494141,41.5310547 65.4172852,41.412793 65.4172852,41.2432617 L65.4172852,41.2432617 L65.4172852,39.9963867 L66.2745117,39.9963867 L66.2745117,39.703125 L65.4172852,39.703125 L65.4172852,39.0509766 L65.0399414,39.0509766 L65.0399414,39.703125 L64.4267578,39.703125 L64.4267578,39.9963867 L65.0399414,39.9963867 L65.0399414,41.2432617 C65.0399414,41.5208008 65.0980469,41.7163086 65.2142578,41.8297852 C65.3304688,41.9432617 65.5300781,42 65.8130859,42 L65.8130859,42 L66.2745117,42 Z M68.0771484,42.0594727 C68.2015625,42.0594727 68.3304199,42.0447754 68.4637207,42.0153809 C68.5970215,41.9859863 68.7354492,41.9418945 68.8790039,41.8831055 L68.8790039,41.8831055 L68.8790039,41.5078125 C68.7299805,41.5857422 68.5898438,41.6438477 68.4585938,41.6821289 C68.3273438,41.7204102 68.2015625,41.7395508 68.08125,41.7395508 C67.8433594,41.7395508 67.6591309,41.6711914 67.5285645,41.5344727 C67.397998,41.3977539 67.3381836,41.1728516 67.3491211,40.8597656 L67.3491211,40.8474609 L68.9835938,40.8474609 L68.9835938,40.6628906 C68.9726563,40.3826172 68.8827637,40.1433594 68.713916,39.9451172 C68.5450684,39.746875 68.3143555,39.6477539 68.0217773,39.6477539 C67.6936523,39.6477539 67.4311523,39.7571289 67.2342773,39.9758789 C67.0374023,40.1946289 66.9389648,40.487207 66.9389648,40.8536133 C66.9389648,41.2295898 67.0394531,41.5245605 67.2404297,41.7385254 C67.4414063,41.9524902 67.7203125,42.0594727 68.0771484,42.0594727 Z M67.3634766,40.5541992 C67.3744141,40.4038086 67.4386719,40.268457 67.55625,40.1481445 C67.6738281,40.027832 67.8235352,39.9676758 68.0053711,39.9676758 C68.1913086,39.9676758 68.3338379,40.0254395 68.432959,40.1409668 C68.5320801,40.2564941 68.5898438,40.3935547 68.60625,40.5521484 L68.60625,40.5521484 L67.3634766,40.5541992 Z M69.9925781,42 L69.9925781,40.7018555 C69.9925781,40.4680664 70.0400879,40.288623 70.1351074,40.1635254 C70.230127,40.0384277 70.3658203,39.9758789 70.5421875,39.9758789 C70.6966797,39.9758789 70.8101563,40.0244141 70.8826172,40.1214844 C70.9550781,40.2185547 70.9913086,40.3703125 70.9913086,40.5767578 L70.9913086,40.5767578 L70.9913086,42 L71.3707031,42 L71.3707031,40.5767578 C71.3707031,40.2650391 71.3129395,40.0322754 71.1974121,39.8784668 C71.0818848,39.7246582 70.9072266,39.6477539 70.6734375,39.6477539 C70.5162109,39.6477539 70.3801758,39.6815918 70.265332,39.7492676 C70.1504883,39.8169434 70.0595703,39.9164063 69.9925781,40.0476562 L69.9925781,40.0476562 L69.9925781,39.703125 L69.6152344,39.703125 L69.6152344,42 L69.9925781,42 Z M73.8603516,42 L73.8603516,41.6985352 L73.4358398,41.6985352 C73.2758789,41.6985352 73.1637695,41.6650391 73.0995117,41.5980469 C73.0352539,41.5310547 73.003125,41.412793 73.003125,41.2432617 L73.003125,41.2432617 L73.003125,39.9963867 L73.8603516,39.9963867 L73.8603516,39.703125 L73.003125,39.703125 L73.003125,39.0509766 L72.6257813,39.0509766 L72.6257813,39.703125 L72.0125977,39.703125 L72.0125977,39.9963867 L72.6257813,39.9963867 L72.6257813,41.2432617 C72.6257813,41.5208008 72.6838867,41.7163086 72.8000977,41.8297852 C72.9163086,41.9432617 73.115918,42 73.3989258,42 L73.3989258,42 L73.8603516,42 Z M74.8529297,42.3999023 C75.1933594,42.3999023 75.4213379,42.3493164 75.5368652,42.2481445 C75.6523926,42.1469727 75.7101563,41.9453125 75.7101563,41.6431641 L75.7101563,41.6431641 L75.7101563,41.2330078 C75.7101563,41.0839844 75.7521973,40.9554688 75.8362793,40.8474609 C75.9203613,40.7394531 76.0505859,40.6854492 76.2269531,40.6854492 L76.2269531,40.6854492 L76.4771484,40.6854492 L76.4771484,40.3921875 L76.2269531,40.3921875 C76.0341797,40.3921875 75.8998535,40.3463867 75.8239746,40.2547852 C75.7480957,40.1631836 75.7101563,40.0285156 75.7101563,39.8507813 L75.7101563,39.8507813 L75.7101563,39.3175781 C75.7101563,39.0154297 75.6523926,38.8141113 75.5368652,38.713623 C75.4213379,38.6131348 75.1933594,38.5628906 74.8529297,38.5628906 L74.8529297,38.5628906 L74.7216797,38.5628906 L74.7216797,38.8561523 L74.8652344,38.8561523 C75.0566406,38.8561523 75.1813965,38.8858887 75.239502,38.9453613 C75.2976074,39.004834 75.3266602,39.1316406 75.3266602,39.3257812 L75.3266602,39.3257812 L75.3266602,39.8753906 C75.3266602,40.1160156 75.3738281,40.2776855 75.4681641,40.3604004 C75.5625,40.4431152 75.7463867,40.5029297 76.0198242,40.5398437 C75.7545898,40.5712891 75.5727539,40.6317871 75.4743164,40.7213379 C75.3758789,40.8108887 75.3266602,40.9725586 75.3266602,41.2063477 L75.3266602,41.2063477 L75.3266602,41.6349609 C75.3266602,41.8304688 75.2976074,41.9576172 75.239502,42.0164062 C75.1813965,42.0751953 75.0566406,42.1045898 74.8652344,42.1045898 L74.8652344,42.1045898 L74.7216797,42.1045898 L74.7216797,42.3999023 L74.8529297,42.3999023 Z M80.94375,39.2950195 L80.94375,38.8192383 L80.5664063,38.8192383 L80.5664063,39.2950195 L80.94375,39.2950195 Z M81.6922852,42 L81.6922852,41.7067383 L80.94375,41.7067383 L80.94375,39.7113281 L79.977832,39.7113281 L79.977832,40.0045898 L80.5664063,40.0045898 L80.5664063,41.7067383 L79.8178711,41.7067383 L79.8178711,42 L81.6922852,42 Z M82.6356445,42 L82.6356445,40.7018555 C82.6356445,40.4680664 82.6831543,40.288623 82.7781738,40.1635254 C82.8731934,40.0384277 83.0088867,39.9758789 83.1852539,39.9758789 C83.3397461,39.9758789 83.4532227,40.0244141 83.5256836,40.1214844 C83.5981445,40.2185547 83.634375,40.3703125 83.634375,40.5767578 L83.634375,40.5767578 L83.634375,42 L84.0137695,42 L84.0137695,40.5767578 C84.0137695,40.2650391 83.9560059,40.0322754 83.8404785,39.8784668 C83.7249512,39.7246582 83.550293,39.6477539 83.3165039,39.6477539 C83.1592773,39.6477539 83.0232422,39.6815918 82.9083984,39.7492676 C82.7935547,39.8169434 82.7026367,39.9164063 82.6356445,40.0476562 L82.6356445,40.0476562 L82.6356445,39.703125 L82.2583008,39.703125 L82.2583008,42 L82.6356445,42 Z M84.8915039,42 L85.1129883,41.2022461 L86.1855469,41.2022461 L86.4111328,42 L86.8397461,42 L85.9025391,38.9381836 L85.4000977,38.9381836 L84.4628906,42 L84.8915039,42 Z M86.0871094,40.8700195 L85.2134766,40.8700195 L85.650293,39.3032227 L86.0871094,40.8700195 Z M87.6928711,42 L87.6928711,40.7018555 C87.6928711,40.4680664 87.7403809,40.288623 87.8354004,40.1635254 C87.9304199,40.0384277 88.0661133,39.9758789 88.2424805,39.9758789 C88.3969727,39.9758789 88.5104492,40.0244141 88.5829102,40.1214844 C88.6553711,40.2185547 88.6916016,40.3703125 88.6916016,40.5767578 L88.6916016,40.5767578 L88.6916016,42 L89.0709961,42 L89.0709961,40.5767578 C89.0709961,40.2650391 89.0132324,40.0322754 88.8977051,39.8784668 C88.7821777,39.7246582 88.6075195,39.6477539 88.3737305,39.6477539 C88.2165039,39.6477539 88.0804688,39.6815918 87.965625,39.7492676 C87.8507813,39.8169434 87.7598633,39.9164063 87.6928711,40.0476562 L87.6928711,40.0476562 L87.6928711,39.703125 L87.3155273,39.703125 L87.3155273,42 L87.6928711,42 Z M91.0582031,39.2950195 L91.0582031,38.8192383 L90.6808594,38.8192383 L90.6808594,39.2950195 L91.0582031,39.2950195 Z M91.8067383,42 L91.8067383,41.7067383 L91.0582031,41.7067383 L91.0582031,39.7113281 L90.0922852,39.7113281 L90.0922852,40.0045898 L90.6808594,40.0045898 L90.6808594,41.7067383 L89.9323242,41.7067383 L89.9323242,42 L91.8067383,42 Z M92.5388672,42 L92.5388672,40.6854492 C92.5388672,40.3723633 92.5583496,40.1737793 92.5973145,40.0896973 C92.6362793,40.0056152 92.7056641,39.9635742 92.8054688,39.9635742 C92.9066406,39.9635742 92.976709,40.0018555 93.0156738,40.078418 C93.0546387,40.1549805 93.0741211,40.3573242 93.0741211,40.6854492 L93.0741211,40.6854492 L93.0741211,42 L93.4186523,42 L93.4186523,40.6854492 C93.4186523,40.3723633 93.4388184,40.1737793 93.4791504,40.0896973 C93.5194824,40.0056152 93.5943359,39.9635742 93.7037109,39.9635742 C93.7994141,39.9635742 93.8653809,40.0028809 93.9016113,40.0814941 C93.9378418,40.1601074 93.955957,40.3614258 93.955957,40.6854492 L93.955957,40.6854492 L93.955957,42 L94.3004883,42 L94.3004883,40.669043 C94.3004883,40.2739258 94.2625488,40.0049316 94.1866699,39.8620605 C94.110791,39.7191895 93.9805664,39.6477539 93.7959961,39.6477539 C93.6948242,39.6477539 93.6083496,39.6713379 93.5365723,39.7185059 C93.4647949,39.7656738 93.4056641,39.8384766 93.3591797,39.9369141 C93.3208984,39.8398438 93.2672363,39.7673828 93.1981934,39.7195312 C93.1291504,39.6716797 93.0426758,39.6477539 92.9387695,39.6477539 C92.8526367,39.6477539 92.7757324,39.6692871 92.7080566,39.7123535 C92.6403809,39.7554199 92.5839844,39.8179687 92.5388672,39.9 L92.5388672,39.9 L92.5388672,39.703125 L92.1963867,39.703125 L92.1963867,42 L92.5388672,42 Z M95.5432617,42.0594727 C95.7182617,42.0594727 95.8669434,42.027002 95.9893066,41.9620605 C96.1116699,41.8971191 96.2131836,41.7962891 96.2938477,41.6595703 L96.2938477,41.6595703 L96.2938477,42 L96.6732422,42 L96.6732422,40.6895508 C96.6732422,40.4885742 96.6623047,40.3378418 96.6404297,40.2373535 C96.6185547,40.1368652 96.5816406,40.0524414 96.5296875,39.984082 C96.4462891,39.8719727 96.3372559,39.7878906 96.2025879,39.7318359 C96.0679199,39.6757812 95.9055664,39.6477539 95.7155273,39.6477539 C95.5952148,39.6477539 95.4711426,39.661084 95.3433105,39.6877441 C95.2154785,39.7144043 95.0818359,39.7543945 94.9423828,39.8077148 L94.9423828,39.8077148 L94.9423828,40.1850586 C95.0667969,40.1139648 95.1946289,40.0599609 95.3258789,40.0230469 C95.4571289,39.9861328 95.5870117,39.9676758 95.7155273,39.9676758 C95.9165039,39.9676758 96.062793,40.0090332 96.1543945,40.091748 C96.2459961,40.1744629 96.2924805,40.3074219 96.2938477,40.490625 L96.2938477,40.490625 L96.2938477,40.5500977 L95.7873047,40.5500977 C95.4550781,40.5500977 95.2031738,40.6164062 95.0315918,40.7490234 C94.8600098,40.8816406 94.7742188,41.0757813 94.7742188,41.3314453 C94.7742188,41.5529297 94.8439453,41.7296387 94.9833984,41.8615723 C95.1228516,41.9935059 95.3094727,42.0594727 95.5432617,42.0594727 Z M95.6232422,41.7436523 C95.4755859,41.7436523 95.3600586,41.7053711 95.2766602,41.6288086 C95.1932617,41.5522461 95.1515625,41.4449219 95.1515625,41.3068359 C95.1515625,41.1537109 95.2072754,41.0385254 95.3187012,40.9612793 C95.430127,40.8840332 95.5958984,40.8454102 95.8160156,40.8454102 L95.8160156,40.8454102 L96.2938477,40.8454102 L96.2938477,40.9294922 C96.2924805,41.1837891 96.2323242,41.3830566 96.1133789,41.5272949 C95.9944336,41.6715332 95.8310547,41.7436523 95.6232422,41.7436523 Z M99.1464844,42 L99.1464844,41.6985352 L98.7219727,41.6985352 C98.5620117,41.6985352 98.4499023,41.6650391 98.3856445,41.5980469 C98.3213867,41.5310547 98.2892578,41.412793 98.2892578,41.2432617 L98.2892578,41.2432617 L98.2892578,39.9963867 L99.1464844,39.9963867 L99.1464844,39.703125 L98.2892578,39.703125 L98.2892578,39.0509766 L97.9119141,39.0509766 L97.9119141,39.703125 L97.2987305,39.703125 L97.2987305,39.9963867 L97.9119141,39.9963867 L97.9119141,41.2432617 C97.9119141,41.5208008 97.9700195,41.7163086 98.0862305,41.8297852 C98.2024414,41.9432617 98.4020508,42 98.6850586,42 L98.6850586,42 L99.1464844,42 Z M101.172656,39.2950195 L101.172656,38.8192383 L100.795313,38.8192383 L100.795313,39.2950195 L101.172656,39.2950195 Z M101.921191,42 L101.921191,41.7067383 L101.172656,41.7067383 L101.172656,39.7113281 L100.206738,39.7113281 L100.206738,40.0045898 L100.795313,40.0045898 L100.795313,41.7067383 L100.046777,41.7067383 L100.046777,42 L101.921191,42 Z M103.350586,42.0594727 C103.670508,42.0594727 103.914551,41.9565918 104.082715,41.7508301 C104.250879,41.5450684 104.334961,41.2459961 104.334961,40.8536133 C104.334961,40.4625977 104.250537,40.1638672 104.081689,39.9574219 C103.912842,39.7509766 103.669141,39.6477539 103.350586,39.6477539 C103.032031,39.6477539 102.788672,39.7509766 102.620508,39.9574219 C102.452344,40.1638672 102.368262,40.4625977 102.368262,40.8536133 C102.368262,41.2459961 102.452344,41.5450684 102.620508,41.7508301 C102.788672,41.9565918 103.032031,42.0594727 103.350586,42.0594727 Z M103.350586,41.7395508 C103.15918,41.7395508 103.014258,41.6646973 102.91582,41.5149902 C102.817383,41.3652832 102.768164,41.1448242 102.768164,40.8536133 C102.768164,40.5610352 102.817383,40.3402344 102.91582,40.1912109 C103.014258,40.0421875 103.15918,39.9676758 103.350586,39.9676758 C103.543359,39.9676758 103.688965,40.0421875 103.787402,40.1912109 C103.88584,40.3402344 103.935059,40.5610352 103.935059,40.8536133 C103.935059,41.1448242 103.88584,41.3652832 103.787402,41.5149902 C103.688965,41.6646973 103.543359,41.7395508 103.350586,41.7395508 Z M105.393164,42 L105.393164,40.7018555 C105.393164,40.4680664 105.440674,40.288623 105.535693,40.1635254 C105.630713,40.0384277 105.766406,39.9758789 105.942773,39.9758789 C106.097266,39.9758789 106.210742,40.0244141 106.283203,40.1214844 C106.355664,40.2185547 106.391895,40.3703125 106.391895,40.5767578 L106.391895,40.5767578 L106.391895,42 L106.771289,42 L106.771289,40.5767578 C106.771289,40.2650391 106.713525,40.0322754 106.597998,39.8784668 C106.482471,39.7246582 106.307813,39.6477539 106.074023,39.6477539 C105.916797,39.6477539 105.780762,39.6815918 105.665918,39.7492676 C105.551074,39.8169434 105.460156,39.9164063 105.393164,40.0476562 L105.393164,40.0476562 L105.393164,39.703125 L105.01582,39.703125 L105.01582,42 L105.393164,42 Z M109.492676,40.3552734 L109.492676,40.0086914 L107.325,40.0086914 L107.325,40.3552734 L109.492676,40.3552734 Z M109.492676,41.3211914 L109.492676,40.9746094 L107.325,40.9746094 L107.325,41.3211914 L109.492676,41.3211914 Z M111.568066,40.0168945 L111.568066,39.5923828 L111.769043,38.8089844 L111.453223,38.8089844 L111.05127,39.5923828 L111.05127,40.0168945 L111.568066,40.0168945 Z M110.626758,40.0168945 L110.626758,39.5923828 L110.827734,38.8089844 L110.513965,38.8089844 L110.105859,39.5923828 L110.105859,40.0168945 L110.626758,40.0168945 Z M113.592188,42 L113.592188,39.9963867 L114.381738,39.9963867 L114.381738,39.703125 L113.592188,39.703125 L113.592188,39.5000977 C113.592188,39.3592773 113.618506,39.2611816 113.671143,39.2058105 C113.723779,39.1504395 113.817773,39.1227539 113.953125,39.1227539 L113.953125,39.1227539 L114.381738,39.1227539 L114.381738,38.8089844 L113.928516,38.8089844 C113.683789,38.8089844 113.503662,38.868457 113.388135,38.9874023 C113.272607,39.1063477 113.214844,39.2916016 113.214844,39.5431641 L113.214844,39.5431641 L113.214844,39.703125 L112.60166,39.703125 L112.60166,39.9963867 L113.214844,39.9963867 L113.214844,42 L113.592188,42 Z M115.772168,42.0594727 C115.947168,42.0594727 116.09585,42.027002 116.218213,41.9620605 C116.340576,41.8971191 116.44209,41.7962891 116.522754,41.6595703 L116.522754,41.6595703 L116.522754,42 L116.902148,42 L116.902148,40.6895508 C116.902148,40.4885742 116.891211,40.3378418 116.869336,40.2373535 C116.847461,40.1368652 116.810547,40.0524414 116.758594,39.984082 C116.675195,39.8719727 116.566162,39.7878906 116.431494,39.7318359 C116.296826,39.6757812 116.134473,39.6477539 115.944434,39.6477539 C115.824121,39.6477539 115.700049,39.661084 115.572217,39.6877441 C115.444385,39.7144043 115.310742,39.7543945 115.171289,39.8077148 L115.171289,39.8077148 L115.171289,40.1850586 C115.295703,40.1139648 115.423535,40.0599609 115.554785,40.0230469 C115.686035,39.9861328 115.815918,39.9676758 115.944434,39.9676758 C116.14541,39.9676758 116.291699,40.0090332 116.383301,40.091748 C116.474902,40.1744629 116.521387,40.3074219 116.522754,40.490625 L116.522754,40.490625 L116.522754,40.5500977 L116.016211,40.5500977 C115.683984,40.5500977 115.43208,40.6164062 115.260498,40.7490234 C115.088916,40.8816406 115.003125,41.0757813 115.003125,41.3314453 C115.003125,41.5529297 115.072852,41.7296387 115.212305,41.8615723 C115.351758,41.9935059 115.538379,42.0594727 115.772168,42.0594727 Z M115.852148,41.7436523 C115.704492,41.7436523 115.588965,41.7053711 115.505566,41.6288086 C115.422168,41.5522461 115.380469,41.4449219 115.380469,41.3068359 C115.380469,41.1537109 115.436182,41.0385254 115.547607,40.9612793 C115.659033,40.8840332 115.824805,40.8454102 116.044922,40.8454102 L116.044922,40.8454102 L116.522754,40.8454102 L116.522754,40.9294922 C116.521387,41.1837891 116.46123,41.3830566 116.342285,41.5272949 C116.22334,41.6715332 116.059961,41.7436523 115.852148,41.7436523 Z M118.405371,42.0594727 C118.54209,42.0594727 118.662744,42.0297363 118.767334,41.9702637 C118.871924,41.910791 118.955664,41.8243164 119.018555,41.7108398 L119.018555,41.7108398 L119.018555,42 L119.395898,42 L119.395898,38.8089844 L119.018555,38.8089844 L119.018555,39.9963867 C118.958398,39.8829102 118.875684,39.7964355 118.77041,39.7369629 C118.665137,39.6774902 118.543457,39.6477539 118.405371,39.6477539 C118.129199,39.6477539 117.911133,39.7540527 117.751172,39.9666504 C117.591211,40.179248 117.51123,40.472168 117.51123,40.8454102 C117.51123,41.2241211 117.590869,41.5211426 117.750146,41.7364746 C117.909424,41.9518066 118.127832,42.0594727 118.405371,42.0594727 Z M118.460742,41.7395508 C118.278906,41.7395508 118.141504,41.6650391 118.048535,41.5160156 C117.955566,41.3669922 117.909082,41.1461914 117.909082,40.8536133 C117.909082,40.5610352 117.955566,40.3402344 118.048535,40.1912109 C118.141504,40.0421875 118.278906,39.9676758 118.460742,39.9676758 C118.642578,39.9676758 118.781006,40.0425293 118.876025,40.1922363 C118.971045,40.3419434 119.018555,40.5624023 119.018555,40.8536133 C119.018555,41.143457 118.971045,41.3635742 118.876025,41.5139648 C118.781006,41.6643555 118.642578,41.7395508 118.460742,41.7395508 Z M121.178027,42.0594727 C121.302441,42.0594727 121.431299,42.0447754 121.5646,42.0153809 C121.6979,41.9859863 121.836328,41.9418945 121.979883,41.8831055 L121.979883,41.8831055 L121.979883,41.5078125 C121.830859,41.5857422 121.690723,41.6438477 121.559473,41.6821289 C121.428223,41.7204102 121.302441,41.7395508 121.182129,41.7395508 C120.944238,41.7395508 120.76001,41.6711914 120.629443,41.5344727 C120.498877,41.3977539 120.439063,41.1728516 120.45,40.8597656 L120.45,40.8474609 L122.084473,40.8474609 L122.084473,40.6628906 C122.073535,40.3826172 121.983643,40.1433594 121.814795,39.9451172 C121.645947,39.746875 121.415234,39.6477539 121.122656,39.6477539 C120.794531,39.6477539 120.532031,39.7571289 120.335156,39.9758789 C120.138281,40.1946289 120.039844,40.487207 120.039844,40.8536133 C120.039844,41.2295898 120.140332,41.5245605 120.341309,41.7385254 C120.542285,41.9524902 120.821191,42.0594727 121.178027,42.0594727 Z M120.464355,40.5541992 C120.475293,40.4038086 120.539551,40.268457 120.657129,40.1481445 C120.774707,40.027832 120.924414,39.9676758 121.10625,39.9676758 C121.292188,39.9676758 121.434717,40.0254395 121.533838,40.1409668 C121.632959,40.2564941 121.690723,40.3935547 121.707129,40.5521484 L121.707129,40.5521484 L120.464355,40.5541992 Z M124.004004,40.0168945 L124.408008,39.2314453 L124.408008,38.8089844 L123.891211,38.8089844 L123.891211,39.2314453 L123.690234,40.0168945 L124.004004,40.0168945 Z M123.064746,40.0168945 L123.466699,39.2314453 L123.466699,38.8089844 L122.949902,38.8089844 L122.949902,39.2314453 L122.748926,40.0168945 L123.064746,40.0168945 Z M125.025293,41.7108398 L127.192969,40.8536133 L127.192969,40.5131836 L125.025293,39.655957 L125.025293,40.0291992 L126.768457,40.6854492 L125.025293,41.3355469 L125.025293,41.7108398 Z M18.4625977,51.7108398 L18.4625977,51.3355469 L16.7194336,50.6854492 L18.4625977,50.0291992 L18.4625977,49.655957 L16.2949219,50.5131836 L16.2949219,50.8536133 L18.4625977,51.7108398 Z M19.4203125,52 L19.4203125,50.7018555 C19.4203125,50.4680664 19.4678223,50.288623 19.5628418,50.1635254 C19.6578613,50.0384277 19.7935547,49.9758789 19.9699219,49.9758789 C20.1244141,49.9758789 20.2378906,50.0244141 20.3103516,50.1214844 C20.3828125,50.2185547 20.419043,50.3703125 20.419043,50.5767578 L20.419043,50.5767578 L20.419043,52 L20.7984375,52 L20.7984375,50.5767578 C20.7984375,50.2650391 20.7406738,50.0322754 20.6251465,49.8784668 C20.5096191,49.7246582 20.3349609,49.6477539 20.1011719,49.6477539 C19.9439453,49.6477539 19.8079102,49.6815918 19.6930664,49.7492676 C19.5782227,49.8169434 19.4873047,49.9164063 19.4203125,50.0476562 L19.4203125,50.0476562 L19.4203125,48.8089844 L19.0429688,48.8089844 L19.0429688,52 L19.4203125,52 Z M23.4152344,52 L23.4152344,51.653418 L22.7794922,51.653418 L22.7794922,48.9484375 L22.3652344,48.9484375 L21.5982422,49.3134766 L21.5982422,49.7113281 L22.3693359,49.3401367 L22.3693359,51.653418 L21.7253906,51.653418 L21.7253906,52 L23.4152344,52 Z M23.8807617,51.7108398 L26.0484375,50.8536133 L26.0484375,50.5131836 L23.8807617,49.655957 L23.8807617,50.0291992 L25.6239258,50.6854492 L23.8807617,51.3355469 L23.8807617,51.7108398 Z M27.7526367,52.0594727 C27.8770508,52.0594727 27.9946289,52.045459 28.1053711,52.0174316 C28.2161133,51.9894043 28.3241211,51.9473633 28.4293945,51.8913086 L28.4293945,51.8913086 L28.4293945,51.4667969 C28.3295898,51.5501953 28.2219238,51.6137695 28.1063965,51.6575195 C27.9908691,51.7012695 27.8729492,51.7231445 27.7526367,51.7231445 C27.4833008,51.7231445 27.2816406,51.6192383 27.1476563,51.4114258 C27.0136719,51.2036133 26.9466797,50.8905273 26.9466797,50.472168 C26.9466797,50.0524414 27.0136719,49.7386719 27.1476563,49.5308594 C27.2816406,49.3230469 27.4833008,49.2191406 27.7526367,49.2191406 C27.8702148,49.2191406 27.9871094,49.2410156 28.1033203,49.2847656 C28.2195313,49.3285156 28.3282227,49.3920898 28.4293945,49.4754883 L28.4293945,49.4754883 L28.4293945,49.0509766 C28.3241211,48.9949219 28.2161133,48.9528809 28.1053711,48.9248535 C27.9946289,48.8968262 27.8770508,48.8828125 27.7526367,48.8828125 C27.3629883,48.8828125 27.0591309,49.0226074 26.8410645,49.3021973 C26.622998,49.5817871 26.5139648,49.9717773 26.5139648,50.472168 C26.5139648,50.975293 26.6223145,51.365625 26.8390137,51.6431641 C27.0557129,51.9207031 27.3602539,52.0594727 27.7526367,52.0594727 Z M30.0208008,52.0594727 C30.3407227,52.0594727 30.5847656,51.9565918 30.7529297,51.7508301 C30.9210938,51.5450684 31.0051758,51.2459961 31.0051758,50.8536133 C31.0051758,50.4625977 30.920752,50.1638672 30.7519043,49.9574219 C30.5830566,49.7509766 30.3393555,49.6477539 30.0208008,49.6477539 C29.7022461,49.6477539 29.4588867,49.7509766 29.2907227,49.9574219 C29.1225586,50.1638672 29.0384766,50.4625977 29.0384766,50.8536133 C29.0384766,51.2459961 29.1225586,51.5450684 29.2907227,51.7508301 C29.4588867,51.9565918 29.7022461,52.0594727 30.0208008,52.0594727 Z M30.0208008,51.7395508 C29.8293945,51.7395508 29.6844727,51.6646973 29.5860352,51.5149902 C29.4875977,51.3652832 29.4383789,51.1448242 29.4383789,50.8536133 C29.4383789,50.5610352 29.4875977,50.3402344 29.5860352,50.1912109 C29.6844727,50.0421875 29.8293945,49.9676758 30.0208008,49.9676758 C30.2135742,49.9676758 30.3591797,50.0421875 30.4576172,50.1912109 C30.5560547,50.3402344 30.6052734,50.5610352 30.6052734,50.8536133 C30.6052734,51.1448242 30.5560547,51.3652832 30.4576172,51.5149902 C30.3591797,51.6646973 30.2135742,51.7395508 30.0208008,51.7395508 Z M32.0633789,52 L32.0633789,50.7018555 C32.0633789,50.4680664 32.1108887,50.288623 32.2059082,50.1635254 C32.3009277,50.0384277 32.4366211,49.9758789 32.6129883,49.9758789 C32.7674805,49.9758789 32.880957,50.0244141 32.953418,50.1214844 C33.0258789,50.2185547 33.0621094,50.3703125 33.0621094,50.5767578 L33.0621094,50.5767578 L33.0621094,52 L33.4415039,52 L33.4415039,50.5767578 C33.4415039,50.2650391 33.3837402,50.0322754 33.2682129,49.8784668 C33.1526855,49.7246582 32.9780273,49.6477539 32.7442383,49.6477539 C32.5870117,49.6477539 32.4509766,49.6815918 32.3361328,49.7492676 C32.2212891,49.8169434 32.1303711,49.9164063 32.0633789,50.0476562 L32.0633789,50.0476562 L32.0633789,49.703125 L31.6860352,49.703125 L31.6860352,52 L32.0633789,52 Z M35.9311523,52 L35.9311523,51.6985352 L35.5066406,51.6985352 C35.3466797,51.6985352 35.2345703,51.6650391 35.1703125,51.5980469 C35.1060547,51.5310547 35.0739258,51.412793 35.0739258,51.2432617 L35.0739258,51.2432617 L35.0739258,49.9963867 L35.9311523,49.9963867 L35.9311523,49.703125 L35.0739258,49.703125 L35.0739258,49.0509766 L34.696582,49.0509766 L34.696582,49.703125 L34.0833984,49.703125 L34.0833984,49.9963867 L34.696582,49.9963867 L34.696582,51.2432617 C34.696582,51.5208008 34.7546875,51.7163086 34.8708984,51.8297852 C34.9871094,51.9432617 35.1867188,52 35.4697266,52 L35.4697266,52 L35.9311523,52 Z M37.7337891,52.0594727 C37.8582031,52.0594727 37.9870605,52.0447754 38.1203613,52.0153809 C38.2536621,51.9859863 38.3920898,51.9418945 38.5356445,51.8831055 L38.5356445,51.8831055 L38.5356445,51.5078125 C38.3866211,51.5857422 38.2464844,51.6438477 38.1152344,51.6821289 C37.9839844,51.7204102 37.8582031,51.7395508 37.7378906,51.7395508 C37.5,51.7395508 37.3157715,51.6711914 37.1852051,51.5344727 C37.0546387,51.3977539 36.9948242,51.1728516 37.0057617,50.8597656 L37.0057617,50.8597656 L37.0057617,50.8474609 L38.6402344,50.8474609 L38.6402344,50.6628906 C38.6292969,50.3826172 38.5394043,50.1433594 38.3705566,49.9451172 C38.201709,49.746875 37.9709961,49.6477539 37.678418,49.6477539 C37.350293,49.6477539 37.087793,49.7571289 36.890918,49.9758789 C36.694043,50.1946289 36.5956055,50.487207 36.5956055,50.8536133 C36.5956055,51.2295898 36.6960938,51.5245605 36.8970703,51.7385254 C37.0980469,51.9524902 37.3769531,52.0594727 37.7337891,52.0594727 Z M37.0201172,50.5541992 C37.0310547,50.4038086 37.0953125,50.268457 37.2128906,50.1481445 C37.3304688,50.027832 37.4801758,49.9676758 37.6620117,49.9676758 C37.8479492,49.9676758 37.9904785,50.0254395 38.0895996,50.1409668 C38.1887207,50.2564941 38.2464844,50.3935547 38.2628906,50.5521484 L38.2628906,50.5521484 L37.0201172,50.5541992 Z M39.6492188,52 L39.6492188,50.7018555 C39.6492188,50.4680664 39.6967285,50.288623 39.791748,50.1635254 C39.8867676,50.0384277 40.0224609,49.9758789 40.1988281,49.9758789 C40.3533203,49.9758789 40.4667969,50.0244141 40.5392578,50.1214844 C40.6117188,50.2185547 40.6479492,50.3703125 40.6479492,50.5767578 L40.6479492,50.5767578 L40.6479492,52 L41.0273438,52 L41.0273438,50.5767578 C41.0273438,50.2650391 40.9695801,50.0322754 40.8540527,49.8784668 C40.7385254,49.7246582 40.5638672,49.6477539 40.3300781,49.6477539 C40.1728516,49.6477539 40.0368164,49.6815918 39.9219727,49.7492676 C39.8071289,49.8169434 39.7162109,49.9164063 39.6492188,50.0476562 L39.6492188,50.0476562 L39.6492188,49.703125 L39.271875,49.703125 L39.271875,52 L39.6492188,52 Z M43.5169922,52 L43.5169922,51.6985352 L43.0924805,51.6985352 C42.9325195,51.6985352 42.8204102,51.6650391 42.7561523,51.5980469 C42.6918945,51.5310547 42.6597656,51.412793 42.6597656,51.2432617 L42.6597656,51.2432617 L42.6597656,49.9963867 L43.5169922,49.9963867 L43.5169922,49.703125 L42.6597656,49.703125 L42.6597656,49.0509766 L42.2824219,49.0509766 L42.2824219,49.703125 L41.6692383,49.703125 L41.6692383,49.9963867 L42.2824219,49.9963867 L42.2824219,51.2432617 C42.2824219,51.5208008 42.3405273,51.7163086 42.4567383,51.8297852 C42.5729492,51.9432617 42.7725586,52 43.0555664,52 L43.0555664,52 L43.5169922,52 Z M46.2773438,51.7108398 L46.2773438,51.3355469 L44.5341797,50.6854492 L46.2773438,50.0291992 L46.2773438,49.655957 L44.109668,50.5131836 L44.109668,50.8536133 L46.2773438,51.7108398 Z M47.0586914,52.3896484 L48.6706055,48.9381836 L48.280957,48.9381836 L46.6669922,52.3896484 L47.0586914,52.3896484 Z M49.7636719,52 L49.7636719,50.7018555 C49.7636719,50.4680664 49.8111816,50.288623 49.9062012,50.1635254 C50.0012207,50.0384277 50.1369141,49.9758789 50.3132813,49.9758789 C50.4677734,49.9758789 50.58125,50.0244141 50.6537109,50.1214844 C50.7261719,50.2185547 50.7624023,50.3703125 50.7624023,50.5767578 L50.7624023,50.5767578 L50.7624023,52 L51.1417969,52 L51.1417969,50.5767578 C51.1417969,50.2650391 51.0840332,50.0322754 50.9685059,49.8784668 C50.8529785,49.7246582 50.6783203,49.6477539 50.4445313,49.6477539 C50.2873047,49.6477539 50.1512695,49.6815918 50.0364258,49.7492676 C49.921582,49.8169434 49.8306641,49.9164063 49.7636719,50.0476562 L49.7636719,50.0476562 L49.7636719,48.8089844 L49.3863281,48.8089844 L49.3863281,52 L49.7636719,52 Z M53.7585938,52 L53.7585938,51.653418 L53.1228516,51.653418 L53.1228516,48.9484375 L52.7085938,48.9484375 L51.9416016,49.3134766 L51.9416016,49.7113281 L52.7126953,49.3401367 L52.7126953,51.653418 L52.06875,51.653418 L52.06875,52 L53.7585938,52 Z M54.2241211,51.7108398 L56.3917969,50.8536133 L56.3917969,50.5131836 L54.2241211,49.655957 L54.2241211,50.0291992 L55.9672852,50.6854492 L54.2241211,51.3355469 L54.2241211,51.7108398 Z M8.34814453,61.7108398 L8.34814453,61.3355469 L6.60498047,60.6854492 L8.34814453,60.0291992 L8.34814453,59.655957 L6.18046875,60.5131836 L6.18046875,60.8536133 L8.34814453,61.7108398 Z M9.12949219,62.3896484 L10.7414063,58.9381836 L10.3517578,58.9381836 L8.73779297,62.3896484 L9.12949219,62.3896484 Z M12.2507813,62.0594727 C12.5953125,62.0594727 12.8578125,61.9829102 13.0382813,61.8297852 C13.21875,61.6766602 13.3089844,61.4544922 13.3089844,61.1632813 C13.3089844,60.9158203 13.2433594,60.7203125 13.1121094,60.5767578 C12.9808594,60.4332031 12.7716797,60.3279297 12.4845703,60.2609375 L12.4845703,60.2609375 L12.2671875,60.2117187 C12.0634766,60.1638672 11.9243652,60.1043945 11.8498535,60.0333008 C11.7753418,59.962207 11.7380859,59.8589844 11.7380859,59.7236328 C11.7380859,59.5691406 11.7948242,59.4464355 11.9083008,59.3555176 C12.0217773,59.2645996 12.1762695,59.2191406 12.3717773,59.2191406 C12.500293,59.2191406 12.6277832,59.2396484 12.754248,59.2806641 C12.8807129,59.3216797 13.0068359,59.3825195 13.1326172,59.4631836 L13.1326172,59.4631836 L13.1326172,59.0427734 C12.9890625,58.9894531 12.8523438,58.9494629 12.7224609,58.9228027 C12.5925781,58.8961426 12.4688477,58.8828125 12.3512695,58.8828125 C12.0463867,58.8828125 11.802002,58.9651855 11.6181152,59.1299316 C11.4342285,59.2946777 11.3422852,59.5137695 11.3422852,59.787207 C11.3422852,60.005957 11.406543,60.1802734 11.5350586,60.3101562 C11.6635742,60.4400391 11.8700195,60.5371094 12.1543945,60.6013672 L12.1543945,60.6013672 L12.3758789,60.6526367 C12.5741211,60.6963867 12.7132324,60.7585938 12.7932129,60.8392578 C12.8731934,60.9199219 12.9131836,61.0368164 12.9131836,61.1899414 C12.9131836,61.3581055 12.8550781,61.4890137 12.7388672,61.582666 C12.6226563,61.6763184 12.4599609,61.7231445 12.2507813,61.7231445 C12.1085938,61.7231445 11.9674316,61.6999023 11.8272949,61.653418 C11.6871582,61.6069336 11.5384766,61.5337891 11.38125,61.4339844 L11.38125,61.4339844 L11.38125,61.8749023 C11.5275391,61.9364258 11.6731445,61.9825684 11.8180664,62.0133301 C11.9629883,62.0440918 12.1072266,62.0594727 12.2507813,62.0594727 Z M14.3630859,62 L14.3630859,60.7018555 C14.3630859,60.4680664 14.4105957,60.288623 14.5056152,60.1635254 C14.6006348,60.0384277 14.7363281,59.9758789 14.9126953,59.9758789 C15.0671875,59.9758789 15.1806641,60.0244141 15.253125,60.1214844 C15.3255859,60.2185547 15.3618164,60.3703125 15.3618164,60.5767578 L15.3618164,60.5767578 L15.3618164,62 L15.7412109,62 L15.7412109,60.5767578 C15.7412109,60.2650391 15.6834473,60.0322754 15.5679199,59.8784668 C15.4523926,59.7246582 15.2777344,59.6477539 15.0439453,59.6477539 C14.8867188,59.6477539 14.7506836,59.6815918 14.6358398,59.7492676 C14.5209961,59.8169434 14.4300781,59.9164063 14.3630859,60.0476562 L14.3630859,60.0476562 L14.3630859,58.8089844 L13.9857422,58.8089844 L13.9857422,62 L14.3630859,62 Z M17.3777344,62.0594727 C17.6976563,62.0594727 17.9416992,61.9565918 18.1098633,61.7508301 C18.2780273,61.5450684 18.3621094,61.2459961 18.3621094,60.8536133 C18.3621094,60.4625977 18.2776855,60.1638672 18.1088379,59.9574219 C17.9399902,59.7509766 17.6962891,59.6477539 17.3777344,59.6477539 C17.0591797,59.6477539 16.8158203,59.7509766 16.6476563,59.9574219 C16.4794922,60.1638672 16.3954102,60.4625977 16.3954102,60.8536133 C16.3954102,61.2459961 16.4794922,61.5450684 16.6476563,61.7508301 C16.8158203,61.9565918 17.0591797,62.0594727 17.3777344,62.0594727 Z M17.3777344,61.7395508 C17.1863281,61.7395508 17.0414063,61.6646973 16.9429688,61.5149902 C16.8445313,61.3652832 16.7953125,61.1448242 16.7953125,60.8536133 C16.7953125,60.5610352 16.8445313,60.3402344 16.9429688,60.1912109 C17.0414063,60.0421875 17.1863281,59.9676758 17.3777344,59.9676758 C17.5705078,59.9676758 17.7161133,60.0421875 17.8145508,60.1912109 C17.9129883,60.3402344 17.962207,60.5610352 17.962207,60.8536133 C17.962207,61.1448242 17.9129883,61.3652832 17.8145508,61.5149902 C17.7161133,61.6646973 17.5705078,61.7395508 17.3777344,61.7395508 Z M19.5413086,62 L19.9063477,60.7408203 L20.2734375,62 L20.634375,62 L21.1716797,59.703125 L20.7984375,59.703125 L20.3985352,61.559082 L20.0663086,60.3737305 L19.7443359,60.3737305 L19.4162109,61.559082 L19.0163086,59.703125 L18.6430664,59.703125 L19.1803711,62 L19.5413086,62 Z M23.2839844,62 L23.2839844,61.6513672 L22.6420898,61.6513672 L22.6420898,59.2868164 L23.2839844,59.2868164 L23.2839844,58.9381836 L21.5838867,58.9381836 L21.5838867,59.2868164 L22.2257813,59.2868164 L22.2257813,61.6513672 L21.5838867,61.6513672 L21.5838867,62 L23.2839844,62 Z M25.0907227,62 L25.0907227,59.9963867 L25.8802734,59.9963867 L25.8802734,59.703125 L25.0907227,59.703125 L25.0907227,59.5000977 C25.0907227,59.3592773 25.117041,59.2611816 25.1696777,59.2058105 C25.2223145,59.1504395 25.3163086,59.1227539 25.4516602,59.1227539 L25.4516602,59.1227539 L25.8802734,59.1227539 L25.8802734,58.8089844 L25.4270508,58.8089844 C25.1823242,58.8089844 25.0021973,58.868457 24.8866699,58.9874023 C24.7711426,59.1063477 24.7133789,59.2916016 24.7133789,59.5431641 L24.7133789,59.5431641 L24.7133789,59.703125 L24.1001953,59.703125 L24.1001953,59.9963867 L24.7133789,59.9963867 L24.7133789,62 L25.0907227,62 Z M26.409375,61.7108398 L28.5770508,60.8536133 L28.5770508,60.5131836 L26.409375,59.655957 L26.409375,60.0291992 L28.1525391,60.6854492 L26.409375,61.3355469 L26.409375,61.7108398 Z" id="&lt;ShowIfisTrue={showContent}inAnimation=fade&gt;&lt;h1&gt;Content&lt;/h1&gt;&lt;/ShowIf&gt;" fill="#576574"></path>
        </g>
    </g>
</svg>