<?xml version="1.0" encoding="UTF-8"?>
<svg width="123px" height="76px" viewBox="0 0 123 76" version="1.1" xmlns="http://www.w3.org/2000/svg" xmlns:xlink="http://www.w3.org/1999/xlink">
    <!-- Generator: Sketch 52.5 (67469) - http://www.bohemiancoding.com/sketch -->
    <title>Sidebar</title>
    <desc>Created with Sketch.</desc>
    <g id="pages" stroke="none" stroke-width="1" fill="none" fill-rule="evenodd">
        <g id="componentes-V2" transform="translate(-1069.000000, -674.000000)" fill-rule="nonzero">
            <g id="sidebar" transform="translate(1029.000000, 648.000000)">
                <g id="Sidebar" transform="translate(40.000000, 26.000000)">
                    <g id="Group-68" transform="translate(1.000000, 1.000000)">
                        <rect id="Rectangle" fill="#F4F6F9" x="0" y="0" width="18" height="74"></rect>
                        <path d="M17,3.44444444 C17,3.19898456 17.2238576,3 17.5,3 C17.7761424,3 18,3.19898456 18,3.44444444 L18,14.5555556 C18,14.8010154 17.7761424,15 17.5,15 C17.2238576,15 17,14.8010154 17,14.5555556 L17,3.44444444 Z" id="Line-15" fill="#FF6837"></path>
                        <path d="M8,24 C6.8954305,24 6,23.1045695 6,22 C6,20.8954305 6.8954305,20 8,20 L9,20 C10.1045695,20 11,20.8954305 11,22 C11,23.1045695 10.1045695,24 9,24 L8,24 Z" fill="#1DE9B6"></path>
                        <path d="M7.86510345,37.9506207 C6.71330408,37.9506207 5.77958621,37.0169028 5.77958621,35.8651034 C5.77958621,34.7133041 6.71330408,33.7795862 7.86510345,33.7795862 L8.90786207,33.7795862 C10.0596614,33.7795862 10.9933793,34.7133041 10.9933793,35.8651034 C10.9933793,37.0169028 10.0596614,37.9506207 8.90786207,37.9506207 L7.86510345,37.9506207 Z" fill="#01B6F5"></path>
                        <path d="M7.86510345,51.9506207 C6.71330408,51.9506207 5.77958621,51.0169028 5.77958621,49.8651034 C5.77958621,48.7133041 6.71330408,47.7795862 7.86510345,47.7795862 L8.90786207,47.7795862 C10.0596614,47.7795862 10.9933793,48.7133041 10.9933793,49.8651034 C10.9933793,51.0169028 10.0596614,51.9506207 8.90786207,51.9506207 L7.86510345,51.9506207 Z" fill="#5C56B6"></path>
                        <path d="M7.86510345,65.9506207 C6.71330408,65.9506207 5.77958621,65.0169028 5.77958621,63.8651034 C5.77958621,62.7133041 6.71330408,61.7795862 7.86510345,61.7795862 L8.90786207,61.7795862 C10.0596614,61.7795862 10.9933793,62.7133041 10.9933793,63.8651034 C10.9933793,65.0169028 10.0596614,65.9506207 8.90786207,65.9506207 L7.86510345,65.9506207 Z" fill="#FFCC00"></path>
                        <path d="M8,11 C6.8954305,11 6,10.1045695 6,9 C6,7.8954305 6.8954305,7 8,7 L9,7 C10.1045695,7 11,7.8954305 11,9 C11,10.1045695 10.1045695,11 9,11 L8,11 Z" fill="#FF6837"></path>
                    </g>
                    <path d="M4,1 C2.34314575,1 1,2.34314575 1,4 L1,72 C1,73.6568542 2.34314575,75 4,75 L119,75 C120.656854,75 122,73.6568542 122,72 L122,4 C122,2.34314575 120.656854,1 119,1 L4,1 Z M4,0 L119,0 C121.209139,-4.05812251e-16 123,1.790861 123,4 L123,72 C123,74.209139 121.209139,76 119,76 L4,76 C1.790861,76 2.705415e-16,74.209139 0,72 L0,4 C-2.705415e-16,1.790861 1.790861,4.05812251e-16 4,0 Z" id="Rectangle" fill="#E3E5ED"></path>
                    <path d="M38,15 C37.4477153,15 37,14.5522847 37,14 C37,13.4477153 37.4477153,13 38,13 L78,13 C78.5522847,13 79,13.4477153 79,14 C79,14.5522847 78.5522847,15 78,15 L38,15 Z" fill="#576574"></path>
                    <path d="M38,55 C37.4477153,55 37,54.5522847 37,54 C37,53.4477153 37.4477153,53 38,53 L78,53 C78.5522847,53 79,53.4477153 79,54 C79,54.5522847 78.5522847,55 78,55 L38,55 Z" fill="#576574"></path>
                    <path d="M38,59 C37.4477153,59 37,58.5522847 37,58 C37,57.4477153 37.4477153,57 38,57 L78,57 C78.5522847,57 79,57.4477153 79,58 C79,58.5522847 78.5522847,59 78,59 L38,59 Z" fill="#576574"></path>
                    <path d="M38,63 C37.4477153,63 37,62.5522847 37,62 C37,61.4477153 37.4477153,61 38,61 L97,61 C97.5522847,61 98,61.4477153 98,62 C98,62.5522847 97.5522847,63 97,63 L38,63 Z" fill="#576574"></path>
                    <path d="M38,19 C37.4477153,19 37,18.5522847 37,18 C37,17.4477153 37.4477153,17 38,17 L105,17 C105.552285,17 106,17.4477153 106,18 C106,18.5522847 105.552285,19 105,19 L38,19 Z" fill="#576574"></path>
                    <path d="M38,23 C37.4477153,23 37,22.5522847 37,22 C37,21.4477153 37.4477153,21 38,21 L105,21 C105.552285,21 106,21.4477153 106,22 C106,22.5522847 105.552285,23 105,23 L38,23 Z" fill="#576574"></path>
                    <path d="M38,31 C37.4477153,31 37,30.5522847 37,30 C37,29.4477153 37.4477153,29 38,29 L90,29 C90.5522847,29 91,29.4477153 91,30 C91,30.5522847 90.5522847,31 90,31 L38,31 Z" fill="#576574"></path>
                    <path d="M38,35 C37.4477153,35 37,34.5522847 37,34 C37,33.4477153 37.4477153,33 38,33 L64,33 C64.5522847,33 65,33.4477153 65,34 C65,34.5522847 64.5522847,35 64,35 L38,35 Z" fill="#576574"></path>
                    <path d="M38,39 C37.4477153,39 37,38.5522847 37,38 C37,37.4477153 37.4477153,37 38,37 L64,37 C64.5522847,37 65,37.4477153 65,38 C65,38.5522847 64.5522847,39 64,39 L38,39 Z" fill="#576574"></path>
                    <path d="M38,43 C37.4477153,43 37,42.5522847 37,42 C37,41.4477153 37.4477153,41 38,41 L103,41 C103.552285,41 104,41.4477153 104,42 C104,42.5522847 103.552285,43 103,43 L38,43 Z" fill="#576574"></path>
                    <path d="M38,47 C37.4477153,47 37,46.5522847 37,46 C37,45.4477153 37.4477153,45 38,45 L103,45 C103.552285,45 104,45.4477153 104,46 C104,46.5522847 103.552285,47 103,47 L38,47 Z" fill="#576574"></path>
                </g>
            </g>
        </g>
    </g>
</svg>