<?xml version="1.0" encoding="UTF-8"?>
<svg width="64px" height="64px" viewBox="0 0 64 64" version="1.1" xmlns="http://www.w3.org/2000/svg" xmlns:xlink="http://www.w3.org/1999/xlink">
    <!-- Generator: Sketch 52.5 (67469) - http://www.bohemiancoding.com/sketch -->
    <title>SidebarItem</title>
    <desc>Created with Sketch.</desc>
    <g id="pages" stroke="none" stroke-width="1" fill="none" fill-rule="evenodd">
        <g id="componentes-V2" transform="translate(-201.000000, -866.000000)" fill-rule="nonzero">
            <g id="sidebarItem" transform="translate(134.000000, 836.000000)">
                <g id="SidebarItem" transform="translate(67.000000, 30.000000)">
                    <rect id="Rectangle" fill="#F4F6F9" x="0" y="0" width="64" height="64"></rect>
                    <path d="M11.3111111,52 C9.347432,52 8.11111111,50.8060927 8.11111111,49.3333333 C8.11111111,47.860574 9.347432,46.6666667 11.3111111,46.6666667 L52.6888889,46.6666667 C54.652568,46.6666667 55.8888889,47.860574 55.8888889,49.3333333 C55.8888889,50.8060927 54.652568,52 52.6888889,52 L11.3111111,52 Z" id="Line-11" fill="#A4A7B5"></path>
                    <g id="like" transform="translate(19.000000, 13.000000)" fill="#F7076A">
                        <path d="M13.3680026,23.6636622 C13.1838792,23.6636622 12.9997559,23.5990154 12.8520812,23.4697739 L12.8178779,23.4398004 C11.6788301,22.4432053 10.60892,21.531518 9.57430966,20.6498042 C6.79778597,18.2838244 4.40005716,16.2406088 2.733391,14.2583847 C0.868554636,12.0404973 0,9.97138111 0,7.74670528 C0,5.70296744 0.69278629,3.79134308 1.95063178,2.36399549 C3.26936435,0.867666917 5.09874417,0.0436548834 7.10175137,0.0436548834 C9.91884904,0.0436548834 11.7023808,1.72614333 12.7024745,3.13761642 C12.9620017,3.5038788 13.1826782,3.87113334 13.3680026,4.21671709 C13.553327,3.87113334 13.7740557,3.5038788 14.0335307,3.13761642 C15.0336244,1.72619555 16.8171561,0.0436548834 19.6342538,0.0436548834 C21.637261,0.0436548834 23.4666408,0.867719136 24.7853212,2.36399549 C26.0432189,3.79134308 26.7360052,5.70296744 26.7360052,7.74670528 C26.7360052,9.97138111 25.8674505,12.0405495 24.0026142,14.2583847 C22.335948,16.2406088 19.9382192,18.2838244 17.1618522,20.6496998 C16.1270852,21.531518 15.057175,22.4432053 13.9181272,23.4398004 L13.8839239,23.4697739 C13.7362493,23.5990676 13.5521259,23.6636622 13.3680026,23.6636622 Z M7.10175137,1.61021769 C5.55497948,1.61021769 4.14303642,2.24577221 3.12591942,3.39980681 C2.12034275,4.54078672 1.5665628,6.08458214 1.5665628,7.74670528 C1.5665628,11.7679153 5.15634146,14.8269425 10.5901734,19.4573366 C11.4822265,20.2174851 12.4001801,20.9997221 13.3680026,21.8410186 C14.3358773,20.9996699 15.2537787,20.2174851 16.1456751,19.4574411 C21.5796637,14.8269425 25.1694424,11.7679153 25.1694424,7.74670528 C25.1694424,6.08458214 24.6156624,4.54078672 23.6100335,3.39975459 C22.5929687,2.24577221 21.1810257,1.61021769 19.6342538,1.61021769 C17.4865484,1.61021769 16.0982082,2.93333663 15.3117937,4.04329859 C14.6063705,5.03884925 14.2382804,6.04233717 14.1127465,6.42760718 C14.0077346,6.75005802 13.7071112,6.96828022 13.3680026,6.96828022 C13.028894,6.96828022 12.7282705,6.75005802 12.6232586,6.42760718 C12.4977247,6.04238938 12.1296347,5.03884925 11.4242115,4.04335081 C10.6377969,2.93333663 9.24945675,1.61021769 7.10175137,1.61021769 Z" id="Shape"></path>
                    </g>
                </g>
            </g>
        </g>
    </g>
</svg>