<?xml version="1.0" encoding="UTF-8"?>
<svg width="153px" height="70px" viewBox="0 0 153 70" version="1.1" xmlns="http://www.w3.org/2000/svg" xmlns:xlink="http://www.w3.org/1999/xlink">
    <!-- Generator: Sketch 64 (93537) - https://sketch.com -->
    <title>StripeCardInput</title>
    <desc>Created with Sketch.</desc>
    <g id="pages" stroke="none" stroke-width="1" fill="none" fill-rule="evenodd">
        <g id="StripeCardInput" transform="translate(-0.000000, 0.000000)" fill-rule="nonzero">
            <g id="Group-179" transform="translate(0.000000, 24.000000)">
                <path d="M7.34265734,5.77272727 C3.55776885,5.77272727 0.48951049,8.84098563 0.48951049,12.6258741 C0.48951049,16.4107626 3.55776885,19.479021 7.34265734,19.479021 L107.368881,19.479021 C111.15377,19.479021 114.222028,16.4107626 114.222028,12.6258741 C114.222028,8.84098563 111.15377,5.77272727 107.368881,5.77272727 L7.34265734,5.77272727 Z M7.34265734,5.28321678 L107.368881,5.28321678 C111.424119,5.28321678 114.711538,8.57063645 114.711538,12.6258741 C114.711538,16.6811118 111.424119,19.9685315 107.368881,19.9685315 L7.34265734,19.9685315 C3.28741967,19.9685315 0,16.6811118 0,12.6258741 C0,8.57063645 3.28741967,5.28321678 7.34265734,5.28321678 Z" id="Rectangle" fill="#A4A7B5"></path>
                <path d="M19.8863636,13.8496503 C19.2104907,13.8496503 18.6625874,13.3017471 18.6625874,12.6258741 C18.6625874,11.9500012 19.2104907,11.4020979 19.8863636,11.4020979 L63.2115385,11.4020979 C63.8874114,11.4020979 64.4353147,11.9500012 64.4353147,12.6258741 C64.4353147,13.3017471 63.8874114,13.8496503 63.2115385,13.8496503 L19.8863636,13.8496503 Z M82.2622378,13.8496503 C81.5863648,13.8496503 81.0384615,13.3017471 81.0384615,12.6258741 C81.0384615,11.9500012 81.5863648,11.4020979 82.2622378,11.4020979 L93.6048951,11.4020979 C94.2807681,11.4020979 94.8286713,11.9500012 94.8286713,12.6258741 C94.8286713,13.3017471 94.2807681,13.8496503 93.6048951,13.8496503 L82.2622378,13.8496503 Z M99.7237762,13.8496503 C99.0479033,13.8496503 98.5,13.3017471 98.5,12.6258741 C98.5,11.9500012 99.0479033,11.4020979 99.7237762,11.4020979 L106.006993,11.4020979 C106.682866,11.4020979 107.230769,11.9500012 107.230769,12.6258741 C107.230769,13.3017471 106.682866,13.8496503 106.006993,13.8496503 L99.7237762,13.8496503 Z" id="Line-12" fill="#E3E5ED"></path>
                <path d="M45.1,2.2 C44.4924868,2.2 44,1.70751322 44,1.1 C44,0.492486775 44.4924868,3.63709063e-13 45.1,3.63709063e-13 L68.75,3.63709063e-13 C69.3575132,3.63709063e-13 69.85,0.492486775 69.85,1.1 C69.85,1.70751322 69.3575132,2.2 68.75,2.2 L45.1,2.2 Z" id="Line-12" fill="#A4A7B5"></path>
                <g id="Group-178" transform="translate(4.895105, 10.000000)">
                    <path d="M8.17975427,0.529557171 L8.17975427,4.92362932 C8.17975427,5.21640796 7.93605228,5.45316952 7.63469119,5.45316952 L0.545063096,5.45316952 C0.243719447,5.45316952 0,5.21640796 0,4.92362932 L0,0.529557171 C0,0.236778543 0.243719447,-1.40735002e-13 0.545063096,-1.40735002e-13 L7.63469119,-1.40735002e-13 C7.93605228,-1.40735002e-13 8.17975427,0.236778543 8.17975427,0.529557171 Z" id="Shape" fill="#D5D6DB"></path>
                    <polygon id="Rectangle-path" fill-opacity="0.5" fill="#8898AA" points="0.340823095 3.06740785 3.74905404 3.06740785 3.74905404 3.40823095 0.340823095 3.40823095"></polygon>
                    <rect id="Rectangle-path" fill-opacity="0.5" fill="#8898AA" x="0.340823095" y="4.08987714" width="7.49810808" height="1"></rect>
                    <rect id="Rectangle-path" fill-opacity="0.5" fill="#8898AA" x="0" y="1.02246928" width="8.17975427" height="1"></rect>
                </g>
            </g>
            <g id="stripe-seeklogo.com" transform="translate(23.986014, 56.293706)" fill="#6772E5">
                <path d="M2.30459302,5.34702016 C2.30459302,4.9917667 2.59608304,4.85513074 3.0788634,4.85513074 C3.77115221,4.85513074 4.64562229,5.06463921 5.3379111,5.4381108 L5.3379111,3.29748092 C4.58185885,2.99688183 3.83491566,2.87846401 3.0788634,2.87846401 C1.22972355,2.87846401 0,3.84402472 0,5.45632892 C0,7.97043037 3.46144406,7.56963164 3.46144406,8.65361014 C3.46144406,9.07262704 3.09708153,9.20926303 2.58697398,9.20926303 C1.83092173,9.20926303 0.865361014,8.89955485 0.100199696,8.48053795 L0.100199696,10.648495 C0.947342584,11.0128576 1.80359454,11.1677116 2.58697398,11.1677116 C4.48165915,11.1677116 5.7842552,10.2294781 5.7842552,8.59895578 C5.77514614,5.8844549 2.30459302,6.36723525 2.30459302,5.34702016 Z M8.46231979,1.05665135 L6.23970837,1.53032263 L6.23059931,8.82668233 C6.23059931,10.1748237 7.24170536,11.1677116 8.58984673,11.1677116 C9.33678991,11.1677116 9.88333369,11.0310757 10.1839328,10.8671125 L10.1839328,9.01797268 C9.89244274,9.13639051 8.45321074,9.55540741 8.45321074,8.20726603 L8.45321074,4.97354857 L10.1839328,4.97354857 L10.1839328,3.03331808 L8.45321074,3.03331808 L8.46231979,1.05665135 Z M13.0168515,3.70738877 L12.8711065,3.03331808 L10.9035488,3.03331808 L10.9035488,11.0037485 L13.1808146,11.0037485 L13.1808146,5.60207394 C13.7182494,4.90067607 14.6291557,5.02820295 14.9115367,5.12840265 L14.9115367,3.03331808 C14.6200466,2.92400932 13.5542862,2.72360993 13.0168515,3.70738877 Z M15.4671895,3.03331808 L17.7535644,3.03331808 L17.7535644,11.0037485 L15.4671895,11.0037485 L15.4671895,3.03331808 Z M15.4671895,2.34102927 L17.7535644,1.84913985 L17.7535644,0 L15.4671895,0.482780356 L15.4671895,2.34102927 Z M22.5084954,2.87846401 C21.6158072,2.87846401 21.0419362,3.29748092 20.7231191,3.58897095 L20.6047012,3.02420902 L18.6007073,3.02420902 L18.6007073,13.6453769 L20.8779731,13.1625965 L20.8870822,10.5847316 C21.2150085,10.8215672 21.6977888,11.1586025 22.4993864,11.1586025 C24.1299087,11.1586025 25.614686,9.84689743 25.614686,6.95932439 C25.605577,4.31769601 24.1025815,2.87846401 22.5084954,2.87846401 Z M21.9619517,9.15460861 C21.4245169,9.15460861 21.1056997,8.96331832 20.8870822,8.72648266 L20.8779731,5.34702016 C21.1148088,5.08285733 21.442735,4.90067607 21.9619517,4.90067607 C22.7908764,4.90067607 23.3647474,5.82980052 23.3647474,7.02308779 C23.3647474,8.24370229 22.7999855,9.15460861 21.9619517,9.15460861 Z M32.7926279,7.05041501 C32.7926279,4.7184948 31.6631041,2.87846401 29.5042561,2.87846401 C27.336299,2.87846401 26.0245939,4.7184948 26.0245939,7.03219691 C26.0245939,9.77402491 27.5731347,11.1586025 29.7957461,11.1586025 C30.8797246,11.1586025 31.6995403,10.9126578 32.3189566,10.5665135 L32.3189566,8.74470076 C31.6995403,9.05440894 30.9890334,9.24569929 30.0872361,9.24569929 C29.203657,9.24569929 28.4202775,8.93599111 28.3200779,7.86112165 L32.7744098,7.86112165 C32.7744098,7.74270382 32.7926279,7.2690325 32.7926279,7.05041501 Z M28.2927506,6.18505399 C28.2927506,5.15572984 28.9212761,4.72760386 29.495147,4.72760386 C30.0507999,4.72760386 30.642889,5.15572984 30.642889,6.18505399 L28.2927506,6.18505399 L28.2927506,6.18505399 Z" id="Shape"></path>
            </g>
            <g id="Group-5" transform="translate(103.000000, 0.000000)">
                <path d="M0,11 C0,4.92486775 4.92817249,0 10.991074,0 L38.1815451,0 C44.1522361,0 49.0109701,4.76342789 49.1686683,10.7021035 L49.172619,11 C49.172619,17.0751322 44.2444466,22 38.1815451,22 L10.991074,22 C5.02038296,22 0.161648924,17.2365721 0.00395076211,11.2978965 L0,11 Z" id="Path" fill="#FFB900"></path>
                <path d="M8.9375,15.8125 L12.1325784,15.8125 C12.6349885,15.8125 13.0823824,15.7502178 13.4747605,15.6256533 C13.8671385,15.5010889 14.1982725,15.3266986 14.468162,15.1024826 C14.7380519,14.8782666 14.9435833,14.6094149 15.0847561,14.2959277 C15.2259289,13.9824404 15.2965157,13.6346981 15.2965157,13.2527003 C15.2965157,12.7046167 15.1314678,12.2592988 14.801372,11.9167465 C14.4712761,11.5741943 13.9844366,11.3385599 13.3408537,11.2098432 C13.6190477,11.1226481 13.8619484,11.0095019 14.0695557,10.8704051 C14.2771634,10.7313082 14.4494774,10.5756026 14.5864983,10.4032883 C14.7235192,10.230974 14.8262848,10.0441273 14.8947953,9.84274826 C14.9633057,9.64138096 14.997561,9.43273549 14.997561,9.21681185 C14.997561,8.85557491 14.9363165,8.52963099 14.8138284,8.23898084 C14.6913403,7.94833068 14.5013795,7.70231587 14.243946,7.50093641 C13.9865129,7.29955695 13.658493,7.14488992 13.2598868,7.0369338 C12.8612805,6.92897768 12.3837833,6.875 11.8273955,6.875 L8.9375,6.875 L8.9375,15.8125 Z M10.2205139,11.7641551 L12.1138937,11.7641551 C12.7574766,11.7641551 13.2370498,11.8949477 13.5526132,12.1565331 C13.8681767,12.4181185 14.0259582,12.7731272 14.0259582,13.2215592 C14.0259582,13.4499273 13.989627,13.659611 13.9169643,13.8506098 C13.8443244,14.0416085 13.7311782,14.2066564 13.5775261,14.3457535 C13.4239071,14.4848504 13.22668,14.5938443 12.9858449,14.6727352 C12.7450202,14.751626 12.4543697,14.7910714 12.1138937,14.7910714 L10.2205139,14.7910714 L10.2205139,11.7641551 Z M10.2205139,10.8548345 L10.2205139,7.88397213 L11.8273955,7.88397213 C12.4709784,7.88397213 12.9474374,8.00334615 13.2567726,8.24209495 C13.5661079,8.48084375 13.7207753,8.85765124 13.7207753,9.37251742 C13.7207753,9.59673345 13.68133,9.80018886 13.602439,9.98288328 C13.5235697,10.1655777 13.4041953,10.3212833 13.2443162,10.45 C13.0844584,10.5787167 12.8820411,10.6783683 12.6370645,10.7489547 C12.3920878,10.8195411 12.1035132,10.8548345 11.7713415,10.8548345 L10.2205139,10.8548345 Z M23.2935526,6.875 L17.7628906,6.875 L17.7628906,15.8125 L23.2935526,15.8125 L23.2997808,14.7661585 L19.0521327,14.7661585 L19.0521327,11.8077526 L22.4714272,11.8077526 L22.4714272,10.7987805 L19.0521327,10.7987805 L19.0521327,7.92134146 L23.2935526,7.92134146 L23.2935526,6.875 Z M31.776391,6.875 L24.7696402,6.875 L24.7696402,7.95248258 L27.6346227,7.95248258 L27.6346227,15.8125 L28.9176367,15.8125 L28.9176367,7.95248258 L31.776391,7.95248258 L31.776391,6.875 Z M40.2841425,15.8125 L36.7153707,6.875 L35.4136721,6.875 L31.8511286,15.8125 L32.8476442,15.8125 C32.9555979,15.8125 33.0479832,15.7813589 33.1248002,15.7190767 C33.2016149,15.6567944 33.2524787,15.5862079 33.2773916,15.5073171 L34.0808324,13.4084059 L38.0482104,13.4084059 L38.8516512,15.5073171 C38.8890205,15.5986643 38.9429982,15.672365 39.013585,15.728419 C39.0841718,15.784473 39.1755188,15.8125 39.2876268,15.8125 L40.2841425,15.8125 Z M37.6932017,12.4866289 L34.4358411,12.4866289 L35.7873655,8.97391115 C35.8329778,8.86180314 35.8786513,8.73101045 35.9243864,8.5815331 L36.0614073,8.09573171 L36.0614073,8.09573171 C36.1070808,8.27012195 36.1537925,8.43101797 36.2015423,8.57841899 L36.2489461,8.71993794 L36.2489461,8.71993794 L37.6932017,12.4866289 Z" id="BETA" fill="#FFFFFF"></path>
            </g>
        </g>
    </g>
</svg>