<?xml version="1.0" encoding="UTF-8"?>
<svg width="150px" height="76px" viewBox="0 0 150 76" version="1.1" xmlns="http://www.w3.org/2000/svg" xmlns:xlink="http://www.w3.org/1999/xlink">
    <!-- Generator: Sketch 64 (93537) - https://sketch.com -->
    <title>StrongPasswordInput</title>
    <desc>Created with Sketch.</desc>
    <g id="pages" stroke="none" stroke-width="1" fill="none" fill-rule="evenodd">
        <g id="StrongPasswordInput" fill-rule="nonzero">
            <g id="Group-179" transform="translate(40.000000, 0.000000)">
                <path d="M4.40559441,3.46363636 C2.13466131,3.46363636 0.293706294,5.30459138 0.293706294,7.57552448 C0.293706294,9.84645757 2.13466131,11.6874126 4.40559441,11.6874126 L64.4213287,11.6874126 C66.6922618,11.6874126 68.5332168,9.84645757 68.5332168,7.57552448 C68.5332168,5.30459138 66.6922618,3.46363636 64.4213287,3.46363636 L4.40559441,3.46363636 Z M4.40559441,3.16993007 L64.4213287,3.16993007 C66.8544713,3.16993007 68.8269231,5.14238187 68.8269231,7.57552448 C68.8269231,10.0086671 66.8544713,11.9811189 64.4213287,11.9811189 L4.40559441,11.9811189 C1.9724518,11.9811189 0,10.0086671 0,7.57552448 C0,5.14238187 1.9724518,3.16993007 4.40559441,3.16993007 Z" id="Rectangle" fill="#A4A7B5"></path>
                <path d="M5.53426573,8.30979021 C5.12874197,8.30979021 4.8,7.98104824 4.8,7.57552448 C4.8,7.17000071 5.12874197,6.84125874 5.53426573,6.84125874 L31.5293706,6.84125874 C31.9348944,6.84125874 32.2636364,7.17000071 32.2636364,7.57552448 C32.2636364,7.98104824 31.9348944,8.30979021 31.5293706,8.30979021 L5.53426573,8.30979021 Z" id="Line-12" fill="#E3E5ED"></path>
                <path d="M2.16,14.8 C1.96117749,14.8 1.8,14.5761424 1.8,14.3 C1.8,14.0238576 1.96117749,13.8 2.16,13.8 L66.472744,13.8 C66.6715665,13.8 66.832744,14.0238576 66.832744,14.3 C66.832744,14.5761424 66.6715665,14.8 66.472744,14.8 L2.16,14.8 Z" id="Line-12-Copy-10" fill-opacity="0.182118663" fill="#000000"></path>
                <path d="M27.06,1.32 C26.6954921,1.32 26.4,1.02450793 26.4,0.66 C26.4,0.295492065 26.6954921,2.18225438e-13 27.06,2.18225438e-13 L41.25,2.18225438e-13 C41.6145079,2.18225438e-13 41.91,0.295492065 41.91,0.66 C41.91,1.02450793 41.6145079,1.32 41.25,1.32 L27.06,1.32 Z" id="Line-12" fill="#A4A7B5"></path>
            </g>
            <g id="Group-189" transform="translate(0.000000, 26.000000)">
                <g id="Group-179-Copy">
                    <path d="M3.61114296,2.8390462 C1.74972238,2.8390462 0.240742864,4.34802572 0.240742864,6.20944629 C0.240742864,8.07086686 1.74972238,9.57984638 3.61114296,9.57984638 L52.8043678,9.57984638 C54.6657883,9.57984638 56.1747679,8.07086686 56.1747679,6.20944629 C56.1747679,4.34802572 54.6657883,2.8390462 52.8043678,2.8390462 L3.61114296,2.8390462 Z M3.61114296,2.59830334 L52.8043678,2.59830334 C54.7987469,2.59830334 56.4155107,4.21506711 56.4155107,6.20944629 C56.4155107,8.20382548 54.7987469,9.82058925 52.8043678,9.82058925 L3.61114296,9.82058925 C1.61676377,9.82058925 0,8.20382548 0,6.20944629 C0,4.21506711 1.61676377,2.59830334 3.61114296,2.59830334 Z" id="Rectangle" fill="#E02020"></path>
                    <path d="M4.53628339,6.81130345 C4.20388686,6.81130345 3.93442623,6.54184282 3.93442623,6.20944629 C3.93442623,5.87704976 4.20388686,5.60758913 4.53628339,5.60758913 L9.45030379,5.60758913 C9.78270033,5.60758913 10.052161,5.87704976 10.052161,6.20944629 C10.052161,6.54184282 9.78270033,6.81130345 9.45030379,6.81130345 L4.53628339,6.81130345 Z" id="Line-12" fill="#7D7F8C"></path>
                    <path d="M1.7704918,12.1311475 C1.60752253,12.1311475 1.47540984,11.9476577 1.47540984,11.7213115 C1.47540984,11.4949653 1.60752253,11.3114754 1.7704918,11.3114754 L54.4858557,11.3114754 C54.648825,11.3114754 54.7809377,11.4949653 54.7809377,11.7213115 C54.7809377,11.9476577 54.648825,12.1311475 54.4858557,12.1311475 L1.7704918,12.1311475 Z" id="Path" fill-opacity="0.235959353" fill="#E02020"></path>
                    <path d="M1.7704918,12.1311475 C1.60752253,12.1311475 1.47540984,11.9476577 1.47540984,11.7213115 C1.47540984,11.4949653 1.60752253,11.3114754 1.7704918,11.3114754 L10.2235606,11.3114754 C10.3865299,11.3114754 10.5186426,11.4949653 10.5186426,11.7213115 C10.5186426,11.9476577 10.3865299,12.1311475 10.2235606,12.1311475 L1.7704918,12.1311475 Z" id="Path" fill="#E02020"></path>
                    <path d="M22.1803279,1.08196721 C21.8815509,1.08196721 21.6393443,0.839760602 21.6393443,0.540983607 C21.6393443,0.242206611 21.8815509,1.7887331e-13 22.1803279,1.7887331e-13 L33.8114754,1.7887331e-13 C34.1102524,1.7887331e-13 34.352459,0.242206611 34.352459,0.540983607 C34.352459,0.839760602 34.1102524,1.08196721 33.8114754,1.08196721 L22.1803279,1.08196721 Z" id="Line-12" fill="#A4A7B5"></path>
                </g>
                <g id="Group-179-Copy-2" transform="translate(52.000000, 19.000000)">
                    <path d="M3.61114296,2.8390462 C1.74972238,2.8390462 0.240742864,4.34802572 0.240742864,6.20944629 C0.240742864,8.07086686 1.74972238,9.57984638 3.61114296,9.57984638 L52.8043678,9.57984638 C54.6657883,9.57984638 56.1747679,8.07086686 56.1747679,6.20944629 C56.1747679,4.34802572 54.6657883,2.8390462 52.8043678,2.8390462 L3.61114296,2.8390462 Z M3.61114296,2.59830334 L52.8043678,2.59830334 C54.7987469,2.59830334 56.4155107,4.21506711 56.4155107,6.20944629 C56.4155107,8.20382548 54.7987469,9.82058925 52.8043678,9.82058925 L3.61114296,9.82058925 C1.61676377,9.82058925 0,8.20382548 0,6.20944629 C0,4.21506711 1.61676377,2.59830334 3.61114296,2.59830334 Z" id="Rectangle" fill="#F7B500"></path>
                    <path d="M4.53628339,6.81130345 C4.20388686,6.81130345 3.93442623,6.54184282 3.93442623,6.20944629 C3.93442623,5.87704976 4.20388686,5.60758913 4.53628339,5.60758913 L18.4666972,5.60758913 C18.7990938,5.60758913 19.0685544,5.87704976 19.0685544,6.20944629 C19.0685544,6.54184282 18.7990938,6.81130345 18.4666972,6.81130345 L4.53628339,6.81130345 Z" id="Line-12" fill="#7D7F8C"></path>
                    <path d="M1.7704918,12.1311475 C1.60752253,12.1311475 1.47540984,11.9476577 1.47540984,11.7213115 C1.47540984,11.4949653 1.60752253,11.3114754 1.7704918,11.3114754 L54.4858557,11.3114754 C54.648825,11.3114754 54.7809377,11.4949653 54.7809377,11.7213115 C54.7809377,11.9476577 54.648825,12.1311475 54.4858557,12.1311475 L1.7704918,12.1311475 Z" id="Path" fill-opacity="0.335882867" fill="#F7B500"></path>
                    <path d="M1.7704918,12.1311475 C1.60752253,12.1311475 1.47540984,11.9476577 1.47540984,11.7213115 C1.47540984,11.4949653 1.60752253,11.3114754 1.7704918,11.3114754 L33.1743803,11.3114754 C33.3373496,11.3114754 33.4694623,11.4949653 33.4694623,11.7213115 C33.4694623,11.9476577 33.3373496,12.1311475 33.1743803,12.1311475 L1.7704918,12.1311475 Z" id="Path" fill="#F7B500"></path>
                    <path d="M22.1803279,1.08196721 C21.8815509,1.08196721 21.6393443,0.839760602 21.6393443,0.540983607 C21.6393443,0.242206611 21.8815509,1.7887331e-13 22.1803279,1.7887331e-13 L33.8114754,1.7887331e-13 C34.1102524,1.7887331e-13 34.352459,0.242206611 34.352459,0.540983607 C34.352459,0.839760602 34.1102524,1.08196721 33.8114754,1.08196721 L22.1803279,1.08196721 Z" id="Line-12" fill="#A4A7B5"></path>
                </g>
                <g id="Group-179-Copy-3" transform="translate(93.000000, 37.704918)">
                    <path d="M3.61114296,2.8390462 C1.74972238,2.8390462 0.240742864,4.34802572 0.240742864,6.20944629 C0.240742864,8.07086686 1.74972238,9.57984638 3.61114296,9.57984638 L52.8043678,9.57984638 C54.6657883,9.57984638 56.1747679,8.07086686 56.1747679,6.20944629 C56.1747679,4.34802572 54.6657883,2.8390462 52.8043678,2.8390462 L3.61114296,2.8390462 Z M3.61114296,2.59830334 L52.8043678,2.59830334 C54.7987469,2.59830334 56.4155107,4.21506711 56.4155107,6.20944629 C56.4155107,8.20382548 54.7987469,9.82058925 52.8043678,9.82058925 L3.61114296,9.82058925 C1.61676377,9.82058925 0,8.20382548 0,6.20944629 C0,4.21506711 1.61676377,2.59830334 3.61114296,2.59830334 Z" id="Rectangle" fill="#00AB8E"></path>
                    <path d="M4.53628339,6.81130345 C4.20388686,6.81130345 3.93442623,6.54184282 3.93442623,6.20944629 C3.93442623,5.87704976 4.20388686,5.60758913 4.53628339,5.60758913 L29.1224349,5.60758913 C29.4548315,5.60758913 29.7242921,5.87704976 29.7242921,6.20944629 C29.7242921,6.54184282 29.4548315,6.81130345 29.1224349,6.81130345 L4.53628339,6.81130345 Z" id="Line-12" fill="#7D7F8C"></path>
                    <path d="M1.7704918,12.1311475 C1.60752253,12.1311475 1.47540984,11.9476577 1.47540984,11.7213115 C1.47540984,11.4949653 1.60752253,11.3114754 1.7704918,11.3114754 L54.4858557,11.3114754 C54.648825,11.3114754 54.7809377,11.4949653 54.7809377,11.7213115 C54.7809377,11.9476577 54.648825,12.1311475 54.4858557,12.1311475 L1.7704918,12.1311475 Z" id="Path" fill="#00AB8E"></path>
                    <path d="M22.1803279,1.08196721 C21.8815509,1.08196721 21.6393443,0.839760602 21.6393443,0.540983607 C21.6393443,0.242206611 21.8815509,1.7887331e-13 22.1803279,1.7887331e-13 L33.8114754,1.7887331e-13 C34.1102524,1.7887331e-13 34.352459,0.242206611 34.352459,0.540983607 C34.352459,0.839760602 34.1102524,1.08196721 33.8114754,1.08196721 L22.1803279,1.08196721 Z" id="Line-12" fill="#A4A7B5"></path>
                </g>
            </g>
        </g>
    </g>
</svg>