<svg xmlns="http://www.w3.org/2000/svg" width="98" height="57" viewBox="0 0 98 57">
    <g fill="none" fill-rule="nonzero">
        <path fill="#E3E5ED" d="M.5 23.5V51A5.5 5.5 0 0 0 6 56.5h86a5.5 5.5 0 0 0 5.5-5.5V23.5H.5zM0 23h98v28a6 6 0 0 1-6 6H6a6 6 0 0 1-6-6V23z"/>
        <path fill="#E3E5ED" d="M4 0h90a4 4 0 0 1 4 4v29H0V4a4 4 0 0 1 4-4z"/>
        <path fill="#FFF" d="M22 12h54a8 8 0 0 1 8 8v14H14V20a8 8 0 0 1 8-8z"/>
        <path fill="#A4A7B5" d="M29.5 25.5a2 2 0 1 1 0-4h39a2 2 0 1 1 0 4h-39z"/>
    </g>
</svg>
