<?xml version="1.0" encoding="UTF-8"?>
<svg width="132px" height="90px" viewBox="0 0 132 90" version="1.1" xmlns="http://www.w3.org/2000/svg" xmlns:xlink="http://www.w3.org/1999/xlink">
    <!-- Generator: Sketch 55.2 (78181) - https://sketchapp.com -->
    <title>TableWithBrowserPagination</title>
    <desc>Created with Sketch.</desc>
    <g id="pages" stroke="none" stroke-width="1" fill="none" fill-rule="evenodd">
        <g id="componentes-V2" transform="translate(-1099.000000, -2704.000000)" fill-rule="nonzero">
            <g id="TableWithBrowserPagination" transform="translate(1099.000000, 2704.000000)">
                <g id="table">
                    <rect id="Rectangle" fill="#E3E5ED" x="0" y="0" width="132" height="16"></rect>
                    <rect id="Rectangle-Copy-3" fill="#E3E5ED" x="0" y="74" width="132" height="16"></rect>
                    <path d="M1,1 L1,74 L131,74 L131,1 L1,1 Z M0,0 L132,0 L132,75 L0,75 L0,0 Z" id="Rectangle" fill="#E3E5ED"></path>
                    <g id="Group-13" transform="translate(8.000000, 7.000000)" fill="#576574">
                        <path d="M1.33333333,2.66666667 C0.596953667,2.66666667 0,2.069713 0,1.33333333 C0,0.596953667 0.596953667,0 1.33333333,0 L20.3333333,0 C21.069713,0 21.6666667,0.596953667 21.6666667,1.33333333 C21.6666667,2.069713 21.069713,2.66666667 20.3333333,2.66666667 L1.33333333,2.66666667 Z" id="Line-3"></path>
                        <path d="M32.3333333,2.66666667 C31.5969537,2.66666667 31,2.069713 31,1.33333333 C31,0.596953667 31.5969537,0 32.3333333,0 L51.3333333,0 C52.069713,0 52.6666667,0.596953667 52.6666667,1.33333333 C52.6666667,2.069713 52.069713,2.66666667 51.3333333,2.66666667 L32.3333333,2.66666667 Z" id="Line-3-Copy"></path>
                        <path d="M65.3333333,2.66666667 C64.5969537,2.66666667 64,2.069713 64,1.33333333 C64,0.596953667 64.5969537,0 65.3333333,0 L84.3333333,0 C85.069713,0 85.6666667,0.596953667 85.6666667,1.33333333 C85.6666667,2.069713 85.069713,2.66666667 84.3333333,2.66666667 L65.3333333,2.66666667 Z" id="Line-3-Copy-2"></path>
                        <path d="M97.3333333,2.66666667 C96.5969537,2.66666667 96,2.069713 96,1.33333333 C96,0.596953667 96.5969537,0 97.3333333,0 L116.333333,0 C117.069713,0 117.666667,0.596953667 117.666667,1.33333333 C117.666667,2.069713 117.069713,2.66666667 116.333333,2.66666667 L97.3333333,2.66666667 Z" id="Line-3-Copy-3"></path>
                    </g>
                    <g id="Group-13-Copy-2" transform="translate(8.000000, 22.000000)" fill="#A4A7B5">
                        <path d="M1.33333333,2.95742471 C0.596953667,2.95742471 0,2.36047105 0,1.62409138 C0,0.887711715 0.596953667,0.290758048 1.33333333,0.290758048 L16.3333333,0.290758048 C17.069713,0.290758048 17.6666667,0.887711715 17.6666667,1.62409138 C17.6666667,2.36047105 17.069713,2.95742471 16.3333333,2.95742471 L1.33333333,2.95742471 Z" id="Line-3"></path>
                    </g>
                    <g id="Group-13-Copy-6" transform="translate(40.000000, 22.000000)" fill="#A4A7B5">
                        <path d="M1.33333333,2.95742471 C0.596953667,2.95742471 0,2.36047105 0,1.62409138 C0,0.887711715 0.596953667,0.290758048 1.33333333,0.290758048 L16.3333333,0.290758048 C17.069713,0.290758048 17.6666667,0.887711715 17.6666667,1.62409138 C17.6666667,2.36047105 17.069713,2.95742471 16.3333333,2.95742471 L1.33333333,2.95742471 Z" id="Line-3"></path>
                    </g>
                    <g id="Group-13-Copy-10" transform="translate(72.000000, 22.000000)" fill="#A4A7B5">
                        <path d="M1.33333333,2.95742471 C0.596953667,2.95742471 0,2.36047105 0,1.62409138 C0,0.887711715 0.596953667,0.290758048 1.33333333,0.290758048 L16.3333333,0.290758048 C17.069713,0.290758048 17.6666667,0.887711715 17.6666667,1.62409138 C17.6666667,2.36047105 17.069713,2.95742471 16.3333333,2.95742471 L1.33333333,2.95742471 Z" id="Line-3"></path>
                    </g>
                    <g id="Group-13-Copy-17" transform="translate(104.000000, 22.000000)" fill="#A4A7B5">
                        <path d="M1.33333333,2.95742471 C0.596953667,2.95742471 0,2.36047105 0,1.62409138 C0,0.887711715 0.596953667,0.290758048 1.33333333,0.290758048 L16.3333333,0.290758048 C17.069713,0.290758048 17.6666667,0.887711715 17.6666667,1.62409138 C17.6666667,2.36047105 17.069713,2.95742471 16.3333333,2.95742471 L1.33333333,2.95742471 Z" id="Line-3"></path>
                    </g>
                    <g id="Group-13-Copy-3" transform="translate(8.000000, 36.000000)" fill="#A4A7B5">
                        <path d="M1.33333333,2.95742471 C0.596953667,2.95742471 0,2.36047105 0,1.62409138 C0,0.887711715 0.596953667,0.290758048 1.33333333,0.290758048 L19.3333333,0.290758048 C20.069713,0.290758048 20.6666667,0.887711715 20.6666667,1.62409138 C20.6666667,2.36047105 20.069713,2.95742471 19.3333333,2.95742471 L1.33333333,2.95742471 Z" id="Line-3"></path>
                    </g>
                    <g id="Group-13-Copy-7" transform="translate(40.000000, 36.000000)" fill="#A4A7B5">
                        <path d="M1.33333333,2.95742471 C0.596953667,2.95742471 0,2.36047105 0,1.62409138 C0,0.887711715 0.596953667,0.290758048 1.33333333,0.290758048 L19.3333333,0.290758048 C20.069713,0.290758048 20.6666667,0.887711715 20.6666667,1.62409138 C20.6666667,2.36047105 20.069713,2.95742471 19.3333333,2.95742471 L1.33333333,2.95742471 Z" id="Line-3"></path>
                    </g>
                    <g id="Group-13-Copy-11" transform="translate(72.000000, 36.000000)" fill="#A4A7B5">
                        <path d="M1.33333333,2.95742471 C0.596953667,2.95742471 0,2.36047105 0,1.62409138 C0,0.887711715 0.596953667,0.290758048 1.33333333,0.290758048 L19.3333333,0.290758048 C20.069713,0.290758048 20.6666667,0.887711715 20.6666667,1.62409138 C20.6666667,2.36047105 20.069713,2.95742471 19.3333333,2.95742471 L1.33333333,2.95742471 Z" id="Line-3"></path>
                    </g>
                    <g id="Group-13-Copy-16" transform="translate(104.000000, 36.000000)" fill="#A4A7B5">
                        <path d="M1.33333333,2.95742471 C0.596953667,2.95742471 0,2.36047105 0,1.62409138 C0,0.887711715 0.596953667,0.290758048 1.33333333,0.290758048 L19.3333333,0.290758048 C20.069713,0.290758048 20.6666667,0.887711715 20.6666667,1.62409138 C20.6666667,2.36047105 20.069713,2.95742471 19.3333333,2.95742471 L1.33333333,2.95742471 Z" id="Line-3"></path>
                    </g>
                    <g id="Group-13-Copy-4" transform="translate(8.000000, 51.000000)" fill="#A4A7B5">
                        <path d="M1.33333333,2.95742471 C0.596953667,2.95742471 0,2.36047105 0,1.62409138 C0,0.887711715 0.596953667,0.290758048 1.33333333,0.290758048 L17.3333333,0.290758048 C18.069713,0.290758048 18.6666667,0.887711715 18.6666667,1.62409138 C18.6666667,2.36047105 18.069713,2.95742471 17.3333333,2.95742471 L1.33333333,2.95742471 Z" id="Line-3"></path>
                    </g>
                    <g id="Group-13-Copy-8" transform="translate(40.000000, 51.000000)" fill="#A4A7B5">
                        <path d="M1.33333333,2.95742471 C0.596953667,2.95742471 0,2.36047105 0,1.62409138 C0,0.887711715 0.596953667,0.290758048 1.33333333,0.290758048 L17.3333333,0.290758048 C18.069713,0.290758048 18.6666667,0.887711715 18.6666667,1.62409138 C18.6666667,2.36047105 18.069713,2.95742471 17.3333333,2.95742471 L1.33333333,2.95742471 Z" id="Line-3"></path>
                    </g>
                    <g id="Group-13-Copy-12" transform="translate(72.000000, 51.000000)" fill="#A4A7B5">
                        <path d="M1.33333333,2.95742471 C0.596953667,2.95742471 0,2.36047105 0,1.62409138 C0,0.887711715 0.596953667,0.290758048 1.33333333,0.290758048 L17.3333333,0.290758048 C18.069713,0.290758048 18.6666667,0.887711715 18.6666667,1.62409138 C18.6666667,2.36047105 18.069713,2.95742471 17.3333333,2.95742471 L1.33333333,2.95742471 Z" id="Line-3"></path>
                    </g>
                    <g id="Group-13-Copy-15" transform="translate(104.000000, 51.000000)" fill="#A4A7B5">
                        <path d="M1.33333333,2.95742471 C0.596953667,2.95742471 0,2.36047105 0,1.62409138 C0,0.887711715 0.596953667,0.290758048 1.33333333,0.290758048 L17.3333333,0.290758048 C18.069713,0.290758048 18.6666667,0.887711715 18.6666667,1.62409138 C18.6666667,2.36047105 18.069713,2.95742471 17.3333333,2.95742471 L1.33333333,2.95742471 Z" id="Line-3"></path>
                    </g>
                    <g id="Group-13-Copy-5" transform="translate(8.000000, 66.000000)" fill="#A4A7B5">
                        <path d="M1.33333333,2.95742471 C0.596953667,2.95742471 0,2.36047105 0,1.62409138 C0,0.887711715 0.596953667,0.290758048 1.33333333,0.290758048 L17.3333333,0.290758048 C18.069713,0.290758048 18.6666667,0.887711715 18.6666667,1.62409138 C18.6666667,2.36047105 18.069713,2.95742471 17.3333333,2.95742471 L1.33333333,2.95742471 Z" id="Line-3"></path>
                    </g>
                    <g id="Group-13-Copy-9" transform="translate(40.000000, 66.000000)" fill="#A4A7B5">
                        <path d="M1.33333333,2.95742471 C0.596953667,2.95742471 0,2.36047105 0,1.62409138 C0,0.887711715 0.596953667,0.290758048 1.33333333,0.290758048 L17.3333333,0.290758048 C18.069713,0.290758048 18.6666667,0.887711715 18.6666667,1.62409138 C18.6666667,2.36047105 18.069713,2.95742471 17.3333333,2.95742471 L1.33333333,2.95742471 Z" id="Line-3"></path>
                    </g>
                    <g id="Group-13-Copy-13" transform="translate(73.000000, 66.000000)" fill="#A4A7B5">
                        <path d="M1.33333333,2.95742471 C0.596953667,2.95742471 0,2.36047105 0,1.62409138 C0,0.887711715 0.596953667,0.290758048 1.33333333,0.290758048 L17.3333333,0.290758048 C18.069713,0.290758048 18.6666667,0.887711715 18.6666667,1.62409138 C18.6666667,2.36047105 18.069713,2.95742471 17.3333333,2.95742471 L1.33333333,2.95742471 Z" id="Line-3"></path>
                    </g>
                    <g id="Group-13-Copy-14" transform="translate(104.000000, 66.000000)" fill="#A4A7B5">
                        <path d="M1.33333333,2.95742471 C0.596953667,2.95742471 0,2.36047105 0,1.62409138 C0,0.887711715 0.596953667,0.290758048 1.33333333,0.290758048 L17.3333333,0.290758048 C18.069713,0.290758048 18.6666667,0.887711715 18.6666667,1.62409138 C18.6666667,2.36047105 18.069713,2.95742471 17.3333333,2.95742471 L1.33333333,2.95742471 Z" id="Line-3"></path>
                    </g>
                    <polygon id="Line-7" fill="#E3E5ED" points="0.459768566 16.25 0.459768566 15.75 131.953579 15.75 131.953579 16.25"></polygon>
                    <polygon id="Line-7-Copy" fill="#E3E5ED" points="-7.10542736e-14 30.5 -7.10542736e-14 30 131.49381 30 131.49381 30.5"></polygon>
                    <polygon id="Line-7-Copy-2" fill="#E3E5ED" points="-7.10542736e-14 44.5 -7.10542736e-14 44 131.49381 44 131.49381 44.5"></polygon>
                    <polygon id="Line-7-Copy-3" fill="#E3E5ED" points="-7.10542736e-14 59.5 -7.10542736e-14 59 131.49381 59 131.49381 59.5"></polygon>
                </g>
                <g id="Group-31" transform="translate(39.000000, 77.000000)">
                    <g id="Group-20" transform="translate(10.696613, 0.000000)">
                        <g id="Group-5">
                            <path d="M27.8006975,0.755735493 L4.78470003,0.755735493 C2.60251385,0.755735493 0.816572876,2.53243246 0.816572876,4.70201979 C0.816572876,6.87160712 2.60251385,8.64830409 4.78470003,8.64830409 L27.8006975,8.64830409 C29.9828837,8.64830409 31.7688246,6.87160712 31.7688246,4.70201979 C31.7688246,2.53243246 29.9828837,0.755735493 27.8006975,0.755735493 Z" id="Path" fill="#FFFFFF"></path>
                            <path d="M27.8006975,0.251911831 C30.2605542,0.251911831 32.2726483,2.25359138 32.2726483,4.70201979 C32.2726483,7.15044821 30.2605542,9.15212775 27.8006975,9.15212775 L4.78470003,9.15212775 C2.32484333,9.15212775 0.312749214,7.15044821 0.312749214,4.70201979 C0.312749214,2.25359138 2.32484333,0.251911831 4.78470003,0.251911831 L27.8006975,0.251911831 Z M27.8006975,0.755735493 L4.78470003,0.755735493 C2.60251385,0.755735493 0.816572876,2.53243246 0.816572876,4.70201979 C0.816572876,6.87160712 2.60251385,8.64830409 4.78470003,8.64830409 L27.8006975,8.64830409 C29.9828837,8.64830409 31.7688246,6.87160712 31.7688246,4.70201979 C31.7688246,2.53243246 29.9828837,0.755735493 27.8006975,0.755735493 Z" id="Path" fill="#C5C8D3"></path>
                            <path d="M4.51909095,5.49290577 C4.08229668,5.49290577 3.72820497,5.13881406 3.72820497,4.70201979 C3.72820497,4.26522553 4.08229668,3.91113381 4.51909095,3.91113381 L4.9804411,3.91113381 C5.41723537,3.91113381 5.77132708,4.26522553 5.77132708,4.70201979 C5.77132708,5.13881406 5.41723537,5.49290577 4.9804411,5.49290577 L4.51909095,5.49290577 Z" id="Path" fill="#061C3F"></path>
                            <path d="M12.2521983,5.49290577 C11.815404,5.49290577 11.4613123,5.13881406 11.4613123,4.70201979 C11.4613123,4.26522553 11.815404,3.91113381 12.2521983,3.91113381 L12.7135485,3.91113381 C13.1503427,3.91113381 13.5044344,4.26522553 13.5044344,4.70201979 C13.5044344,5.13881406 13.1503427,5.49290577 12.7135485,5.49290577 L12.2521983,5.49290577 Z" id="Path" fill="#8592A0"></path>
                            <path d="M20.1376245,5.49290577 C19.7008302,5.49290577 19.3467385,5.13881406 19.3467385,4.70201979 C19.3467385,4.26522553 19.7008302,3.91113381 20.1376245,3.91113381 L20.5989746,3.91113381 C21.0357689,3.91113381 21.3898606,4.26522553 21.3898606,4.70201979 C21.3898606,5.13881406 21.0357689,5.49290577 20.5989746,5.49290577 L20.1376245,5.49290577 Z" id="Path" fill="#8592A0"></path>
                            <path d="M27.1911557,5.49290577 C26.7543615,5.49290577 26.4002697,5.13881406 26.4002697,4.70201979 C26.4002697,4.26522553 26.7543615,3.91113381 27.1911557,3.91113381 L27.6525059,3.91113381 C28.0893001,3.91113381 28.4433919,4.26522553 28.4433919,4.70201979 C28.4433919,5.13881406 28.0893001,5.49290577 27.6525059,5.49290577 L27.1911557,5.49290577 Z" id="Path-Copy-2" fill="#8592A0"></path>
                        </g>
                        <polygon id="Path" fill="#C5C8D3" points="8.47737292 8.84034774 7.92352677 8.84034774 7.92352677 0.603416711 8.47737292 0.603416711"></polygon>
                        <polygon id="Path" fill="#C5C8D3" points="16.6762033 8.74075469 16.1223572 8.74075469 16.1223572 0.503823662 16.6762033 0.503823662"></polygon>
                        <polygon id="Path" fill="#C5C8D3" points="24.6312191 8.74075469 24.0773729 8.74075469 24.0773729 0.503823662 24.6312191 0.503823662"></polygon>
                    </g>
                    <g id="Group-21" transform="translate(4.450549, 5.238417) rotate(-270.000000) translate(-4.450549, -5.238417) translate(0.219780, 1.007647)">
                        <path d="M4.03058929,7.45659019 C5.92271734,7.45659019 7.45659019,5.92271734 7.45659019,4.03058929 C7.45659019,2.13846124 5.92271734,0.604588394 4.03058929,0.604588394 C2.13846124,0.604588394 0.604588394,2.13846124 0.604588394,4.03058929 C0.604588394,5.92271734 2.13846124,7.45659019 4.03058929,7.45659019 Z" id="Path" fill="#FFFFFF"></path>
                        <path d="M4.03058929,7.85964912 C1.91585794,7.85964912 0.201529465,6.14532064 0.201529465,4.03058929 C0.201529465,1.91585794 1.91585794,0.201529465 4.03058929,0.201529465 C6.14532064,0.201529465 7.85964912,1.91585794 7.85964912,4.03058929 C7.85964912,6.14532064 6.14532064,7.85964912 4.03058929,7.85964912 Z M4.03058929,7.45659019 C5.92271734,7.45659019 7.45659019,5.92271734 7.45659019,4.03058929 C7.45659019,2.13846124 5.92271734,0.604588394 4.03058929,0.604588394 C2.13846124,0.604588394 0.604588394,2.13846124 0.604588394,4.03058929 C0.604588394,5.92271734 2.13846124,7.45659019 4.03058929,7.45659019 Z" id="Oval" fill="#C5C8D3"></path>
                        <path d="M3.86017691,4.59391585 L3.06420381,3.79794274 C3.00918802,3.74292696 3.00918802,3.65396526 3.06420381,3.59953474 L3.19647581,3.46726274 C3.2514916,3.41224695 3.3404533,3.41224695 3.39488381,3.46726274 L3.95908828,4.03146721 L4.52329274,3.46726274 C4.57830853,3.41224695 4.66727023,3.41224695 4.72170074,3.46726274 L4.85397275,3.59953474 C4.90898853,3.65455053 4.90898853,3.74351223 4.85397275,3.79794274 L4.05799964,4.59391585 C4.0041544,4.64893163 3.9151927,4.64893163 3.86017691,4.59391585 L3.86017691,4.59391585 Z" id="Shape" fill="#01B6F5" transform="translate(3.959088, 4.030589) rotate(-360.000000) translate(-3.959088, -4.030589) "></path>
                    </g>
                    <g id="Group-21-Copy-3" transform="translate(49.356404, 5.219780) scale(-1, 1) rotate(-270.000000) translate(-49.356404, -5.219780) translate(45.125635, 0.989011)">
                        <path d="M4.03058929,7.45659019 C5.92271734,7.45659019 7.45659019,5.92271734 7.45659019,4.03058929 C7.45659019,2.13846124 5.92271734,0.604588394 4.03058929,0.604588394 C2.13846124,0.604588394 0.604588394,2.13846124 0.604588394,4.03058929 C0.604588394,5.92271734 2.13846124,7.45659019 4.03058929,7.45659019 Z" id="Path" fill="#FFFFFF"></path>
                        <path d="M4.03058929,7.85964912 C1.91585794,7.85964912 0.201529465,6.14532064 0.201529465,4.03058929 C0.201529465,1.91585794 1.91585794,0.201529465 4.03058929,0.201529465 C6.14532064,0.201529465 7.85964912,1.91585794 7.85964912,4.03058929 C7.85964912,6.14532064 6.14532064,7.85964912 4.03058929,7.85964912 Z M4.03058929,7.45659019 C5.92271734,7.45659019 7.45659019,5.92271734 7.45659019,4.03058929 C7.45659019,2.13846124 5.92271734,0.604588394 4.03058929,0.604588394 C2.13846124,0.604588394 0.604588394,2.13846124 0.604588394,4.03058929 C0.604588394,5.92271734 2.13846124,7.45659019 4.03058929,7.45659019 Z" id="Oval" fill="#C5C8D3"></path>
                        <path d="M3.86017691,4.59391585 L3.06420381,3.79794274 C3.00918802,3.74292696 3.00918802,3.65396526 3.06420381,3.59953474 L3.19647581,3.46726274 C3.2514916,3.41224695 3.3404533,3.41224695 3.39488381,3.46726274 L3.95908828,4.03146721 L4.52329274,3.46726274 C4.57830853,3.41224695 4.66727023,3.41224695 4.72170074,3.46726274 L4.85397275,3.59953474 C4.90898853,3.65455053 4.90898853,3.74351223 4.85397275,3.79794274 L4.05799964,4.59391585 C4.0041544,4.64893163 3.9151927,4.64893163 3.86017691,4.59391585 L3.86017691,4.59391585 Z" id="Shape" fill="#01B6F5" transform="translate(3.959088, 4.030589) rotate(-360.000000) translate(-3.959088, -4.030589) "></path>
                    </g>
                </g>
            </g>
        </g>
    </g>
</svg>