<?xml version="1.0" encoding="UTF-8"?>
<svg width="132px" height="75px" viewBox="0 0 132 75" version="1.1" xmlns="http://www.w3.org/2000/svg" xmlns:xlink="http://www.w3.org/1999/xlink">
    <!-- Generator: Sketch 52.5 (67469) - http://www.bohemiancoding.com/sketch -->
    <title>table</title>
    <desc>Created with Sketch.</desc>
    <g id="re-design-layout" stroke="none" stroke-width="1" fill="none" fill-rule="evenodd">
        <g id="re-design-layout-componentes-V2" transform="translate(-391.000000, -2105.000000)" fill-rule="nonzero">
            <g id="table" transform="translate(391.000000, 2105.000000)">
                <rect id="Rectangle" fill="#E3E5ED" x="0" y="0" width="132" height="16"></rect>
                <path d="M1,1 L1,74 L131,74 L131,1 L1,1 Z M0,0 L132,0 L132,75 L0,75 L0,0 Z" id="Rectangle" fill="#E3E5ED"></path>
                <g id="Group-13" transform="translate(8.000000, 7.000000)" fill="#576574">
                    <path d="M1.33333333,2.66666667 C0.596953667,2.66666667 0,2.069713 0,1.33333333 C0,0.596953667 0.596953667,0 1.33333333,0 L20.3333333,0 C21.069713,0 21.6666667,0.596953667 21.6666667,1.33333333 C21.6666667,2.069713 21.069713,2.66666667 20.3333333,2.66666667 L1.33333333,2.66666667 Z" id="Line-3"></path>
                    <path d="M32.3333333,2.66666667 C31.5969537,2.66666667 31,2.069713 31,1.33333333 C31,0.596953667 31.5969537,0 32.3333333,0 L51.3333333,0 C52.069713,0 52.6666667,0.596953667 52.6666667,1.33333333 C52.6666667,2.069713 52.069713,2.66666667 51.3333333,2.66666667 L32.3333333,2.66666667 Z" id="Line-3-Copy"></path>
                    <path d="M65.3333333,2.66666667 C64.5969537,2.66666667 64,2.069713 64,1.33333333 C64,0.596953667 64.5969537,0 65.3333333,0 L84.3333333,0 C85.069713,0 85.6666667,0.596953667 85.6666667,1.33333333 C85.6666667,2.069713 85.069713,2.66666667 84.3333333,2.66666667 L65.3333333,2.66666667 Z" id="Line-3-Copy-2"></path>
                    <path d="M97.3333333,2.66666667 C96.5969537,2.66666667 96,2.069713 96,1.33333333 C96,0.596953667 96.5969537,0 97.3333333,0 L116.333333,0 C117.069713,0 117.666667,0.596953667 117.666667,1.33333333 C117.666667,2.069713 117.069713,2.66666667 116.333333,2.66666667 L97.3333333,2.66666667 Z" id="Line-3-Copy-3"></path>
                </g>
                <g id="Group-13-Copy-2" transform="translate(8.000000, 22.000000)" fill="#A4A7B5">
                    <path d="M1.33333333,2.95742471 C0.596953667,2.95742471 0,2.36047105 0,1.62409138 C0,0.887711715 0.596953667,0.290758048 1.33333333,0.290758048 L16.3333333,0.290758048 C17.069713,0.290758048 17.6666667,0.887711715 17.6666667,1.62409138 C17.6666667,2.36047105 17.069713,2.95742471 16.3333333,2.95742471 L1.33333333,2.95742471 Z" id="Line-3"></path>
                </g>
                <g id="Group-13-Copy-6" transform="translate(40.000000, 22.000000)" fill="#A4A7B5">
                    <path d="M1.33333333,2.95742471 C0.596953667,2.95742471 0,2.36047105 0,1.62409138 C0,0.887711715 0.596953667,0.290758048 1.33333333,0.290758048 L16.3333333,0.290758048 C17.069713,0.290758048 17.6666667,0.887711715 17.6666667,1.62409138 C17.6666667,2.36047105 17.069713,2.95742471 16.3333333,2.95742471 L1.33333333,2.95742471 Z" id="Line-3"></path>
                </g>
                <g id="Group-13-Copy-10" transform="translate(72.000000, 22.000000)" fill="#A4A7B5">
                    <path d="M1.33333333,2.95742471 C0.596953667,2.95742471 0,2.36047105 0,1.62409138 C0,0.887711715 0.596953667,0.290758048 1.33333333,0.290758048 L16.3333333,0.290758048 C17.069713,0.290758048 17.6666667,0.887711715 17.6666667,1.62409138 C17.6666667,2.36047105 17.069713,2.95742471 16.3333333,2.95742471 L1.33333333,2.95742471 Z" id="Line-3"></path>
                </g>
                <g id="Group-13-Copy-17" transform="translate(104.000000, 22.000000)" fill="#A4A7B5">
                    <path d="M1.33333333,2.95742471 C0.596953667,2.95742471 0,2.36047105 0,1.62409138 C0,0.887711715 0.596953667,0.290758048 1.33333333,0.290758048 L16.3333333,0.290758048 C17.069713,0.290758048 17.6666667,0.887711715 17.6666667,1.62409138 C17.6666667,2.36047105 17.069713,2.95742471 16.3333333,2.95742471 L1.33333333,2.95742471 Z" id="Line-3"></path>
                </g>
                <g id="Group-13-Copy-3" transform="translate(8.000000, 36.000000)" fill="#A4A7B5">
                    <path d="M1.33333333,2.95742471 C0.596953667,2.95742471 0,2.36047105 0,1.62409138 C0,0.887711715 0.596953667,0.290758048 1.33333333,0.290758048 L19.3333333,0.290758048 C20.069713,0.290758048 20.6666667,0.887711715 20.6666667,1.62409138 C20.6666667,2.36047105 20.069713,2.95742471 19.3333333,2.95742471 L1.33333333,2.95742471 Z" id="Line-3"></path>
                </g>
                <g id="Group-13-Copy-7" transform="translate(40.000000, 36.000000)" fill="#A4A7B5">
                    <path d="M1.33333333,2.95742471 C0.596953667,2.95742471 0,2.36047105 0,1.62409138 C0,0.887711715 0.596953667,0.290758048 1.33333333,0.290758048 L19.3333333,0.290758048 C20.069713,0.290758048 20.6666667,0.887711715 20.6666667,1.62409138 C20.6666667,2.36047105 20.069713,2.95742471 19.3333333,2.95742471 L1.33333333,2.95742471 Z" id="Line-3"></path>
                </g>
                <g id="Group-13-Copy-11" transform="translate(72.000000, 36.000000)" fill="#A4A7B5">
                    <path d="M1.33333333,2.95742471 C0.596953667,2.95742471 0,2.36047105 0,1.62409138 C0,0.887711715 0.596953667,0.290758048 1.33333333,0.290758048 L19.3333333,0.290758048 C20.069713,0.290758048 20.6666667,0.887711715 20.6666667,1.62409138 C20.6666667,2.36047105 20.069713,2.95742471 19.3333333,2.95742471 L1.33333333,2.95742471 Z" id="Line-3"></path>
                </g>
                <g id="Group-13-Copy-16" transform="translate(104.000000, 36.000000)" fill="#A4A7B5">
                    <path d="M1.33333333,2.95742471 C0.596953667,2.95742471 0,2.36047105 0,1.62409138 C0,0.887711715 0.596953667,0.290758048 1.33333333,0.290758048 L19.3333333,0.290758048 C20.069713,0.290758048 20.6666667,0.887711715 20.6666667,1.62409138 C20.6666667,2.36047105 20.069713,2.95742471 19.3333333,2.95742471 L1.33333333,2.95742471 Z" id="Line-3"></path>
                </g>
                <g id="Group-13-Copy-4" transform="translate(8.000000, 51.000000)" fill="#A4A7B5">
                    <path d="M1.33333333,2.95742471 C0.596953667,2.95742471 0,2.36047105 0,1.62409138 C0,0.887711715 0.596953667,0.290758048 1.33333333,0.290758048 L17.3333333,0.290758048 C18.069713,0.290758048 18.6666667,0.887711715 18.6666667,1.62409138 C18.6666667,2.36047105 18.069713,2.95742471 17.3333333,2.95742471 L1.33333333,2.95742471 Z" id="Line-3"></path>
                </g>
                <g id="Group-13-Copy-8" transform="translate(40.000000, 51.000000)" fill="#A4A7B5">
                    <path d="M1.33333333,2.95742471 C0.596953667,2.95742471 0,2.36047105 0,1.62409138 C0,0.887711715 0.596953667,0.290758048 1.33333333,0.290758048 L17.3333333,0.290758048 C18.069713,0.290758048 18.6666667,0.887711715 18.6666667,1.62409138 C18.6666667,2.36047105 18.069713,2.95742471 17.3333333,2.95742471 L1.33333333,2.95742471 Z" id="Line-3"></path>
                </g>
                <g id="Group-13-Copy-12" transform="translate(72.000000, 51.000000)" fill="#A4A7B5">
                    <path d="M1.33333333,2.95742471 C0.596953667,2.95742471 0,2.36047105 0,1.62409138 C0,0.887711715 0.596953667,0.290758048 1.33333333,0.290758048 L17.3333333,0.290758048 C18.069713,0.290758048 18.6666667,0.887711715 18.6666667,1.62409138 C18.6666667,2.36047105 18.069713,2.95742471 17.3333333,2.95742471 L1.33333333,2.95742471 Z" id="Line-3"></path>
                </g>
                <g id="Group-13-Copy-15" transform="translate(104.000000, 51.000000)" fill="#A4A7B5">
                    <path d="M1.33333333,2.95742471 C0.596953667,2.95742471 0,2.36047105 0,1.62409138 C0,0.887711715 0.596953667,0.290758048 1.33333333,0.290758048 L17.3333333,0.290758048 C18.069713,0.290758048 18.6666667,0.887711715 18.6666667,1.62409138 C18.6666667,2.36047105 18.069713,2.95742471 17.3333333,2.95742471 L1.33333333,2.95742471 Z" id="Line-3"></path>
                </g>
                <g id="Group-13-Copy-5" transform="translate(8.000000, 66.000000)" fill="#A4A7B5">
                    <path d="M1.33333333,2.95742471 C0.596953667,2.95742471 0,2.36047105 0,1.62409138 C0,0.887711715 0.596953667,0.290758048 1.33333333,0.290758048 L17.3333333,0.290758048 C18.069713,0.290758048 18.6666667,0.887711715 18.6666667,1.62409138 C18.6666667,2.36047105 18.069713,2.95742471 17.3333333,2.95742471 L1.33333333,2.95742471 Z" id="Line-3"></path>
                </g>
                <g id="Group-13-Copy-9" transform="translate(40.000000, 66.000000)" fill="#A4A7B5">
                    <path d="M1.33333333,2.95742471 C0.596953667,2.95742471 0,2.36047105 0,1.62409138 C0,0.887711715 0.596953667,0.290758048 1.33333333,0.290758048 L17.3333333,0.290758048 C18.069713,0.290758048 18.6666667,0.887711715 18.6666667,1.62409138 C18.6666667,2.36047105 18.069713,2.95742471 17.3333333,2.95742471 L1.33333333,2.95742471 Z" id="Line-3"></path>
                </g>
                <g id="Group-13-Copy-13" transform="translate(73.000000, 66.000000)" fill="#A4A7B5">
                    <path d="M1.33333333,2.95742471 C0.596953667,2.95742471 0,2.36047105 0,1.62409138 C0,0.887711715 0.596953667,0.290758048 1.33333333,0.290758048 L17.3333333,0.290758048 C18.069713,0.290758048 18.6666667,0.887711715 18.6666667,1.62409138 C18.6666667,2.36047105 18.069713,2.95742471 17.3333333,2.95742471 L1.33333333,2.95742471 Z" id="Line-3"></path>
                </g>
                <g id="Group-13-Copy-14" transform="translate(104.000000, 66.000000)" fill="#A4A7B5">
                    <path d="M1.33333333,2.95742471 C0.596953667,2.95742471 0,2.36047105 0,1.62409138 C0,0.887711715 0.596953667,0.290758048 1.33333333,0.290758048 L17.3333333,0.290758048 C18.069713,0.290758048 18.6666667,0.887711715 18.6666667,1.62409138 C18.6666667,2.36047105 18.069713,2.95742471 17.3333333,2.95742471 L1.33333333,2.95742471 Z" id="Line-3"></path>
                </g>
                <polygon id="Line-7" fill="#E3E5ED" points="0.459768566 16.25 0.459768566 15.75 131.953579 15.75 131.953579 16.25"></polygon>
                <polygon id="Line-7-Copy" fill="#E3E5ED" points="-7.10542736e-14 30.5 -7.10542736e-14 30 131.49381 30 131.49381 30.5"></polygon>
                <polygon id="Line-7-Copy-2" fill="#E3E5ED" points="-7.10542736e-14 44.5 -7.10542736e-14 44 131.49381 44 131.49381 44.5"></polygon>
                <polygon id="Line-7-Copy-3" fill="#E3E5ED" points="-7.10542736e-14 59.5 -7.10542736e-14 59 131.49381 59 131.49381 59.5"></polygon>
            </g>
        </g>
    </g>
</svg>