<svg xmlns="http://www.w3.org/2000/svg" width="161" height="92" viewBox="0 0 161 92">
    <g fill="none" fill-rule="nonzero">
        <path fill="#E3E5ED" d="M.5 38.5V86A5.5 5.5 0 0 0 6 91.5h149a5.5 5.5 0 0 0 5.5-5.5V38.5H.5zM0 38h161v48a6 6 0 0 1-6 6H6a6 6 0 0 1-6-6V38z"/>
        <path fill="#E3E5ED" d="M4 0h153a4 4 0 0 1 4 4v37H0V4a4 4 0 0 1 4-4z"/>
        <path fill="#FFF" d="M22 19.5h54a8.5 8.5 0 0 1 8.5 8.5v14.5h-71V28a8.5 8.5 0 0 1 8.5-8.5z"/>
        <path fill="#A4A7B5" d="M25.5 33.5a2 2 0 1 1 0-4h43a2 2 0 1 1 0 4h-43zM104.5 33.5a2 2 0 1 1 0-4h43a2 2 0 0 1 0 4h-43zM25.5 59a1.5 1.5 0 0 1 0-3H138a1.5 1.5 0 0 1 0 3H25.5zM25.5 70a1.5 1.5 0 0 1 0-3H112a1.5 1.5 0 0 1 0 3H25.5zM25.5 81.5a1.5 1.5 0 0 1 0-3H84a1.5 1.5 0 0 1 0 3H25.5z"/>
    </g>
</svg>
