<svg xmlns="http://www.w3.org/2000/svg" width="131" height="77" viewBox="0 0 131 77">
    <g fill="none" fill-rule="nonzero">
        <path fill="#A4A7B5" d="M13 7.8C6.262 7.8.8 13.262.8 20v44c0 6.738 5.462 12.2 12.2 12.2h105c6.738 0 12.2-5.462 12.2-12.2V20c0-6.738-5.462-12.2-12.2-12.2H13zm0-.8h105c7.18 0 13 5.82 13 13v44c0 7.18-5.82 13-13 13H13C5.82 77 0 71.18 0 64V20C0 12.82 5.82 7 13 7z"/>
        <path fill="#E3E5ED" d="M15 24a2 2 0 1 1 0-4h66a2 2 0 1 1 0 4H15z"/>
        <path fill="#A4A7B5" d="M48.5 3a1.5 1.5 0 0 1 0-3h32.25a1.5 1.5 0 0 1 0 3H48.5z"/>
    </g>
</svg>
