<?xml version="1.0" encoding="UTF-8"?>
<svg width="152px" height="76px" viewBox="0 0 152 76" version="1.1" xmlns="http://www.w3.org/2000/svg" xmlns:xlink="http://www.w3.org/1999/xlink">
    <!-- Generator: Sketch 64 (93537) - https://sketch.com -->
    <title>TimeRangePicker</title>
    <desc>Created with Sketch.</desc>
    <defs>
        <path d="M4.44444444,0.317460317 C2.16517405,0.317460317 0.317460317,2.16517405 0.317460317,4.44444444 L0.317460317,35.5555556 C0.317460317,37.834826 2.16517405,39.6825397 4.44444444,39.6825397 L36.1269841,39.6825397 C38.4062545,39.6825397 40.2539683,37.834826 40.2539683,35.5555556 L40.2539683,4.44444444 C40.2539683,2.16517405 38.4062545,0.317460317 36.1269841,0.317460317 L4.44444444,0.317460317 Z" id="path-1"></path>
        <filter x="-3.8%" y="-3.8%" width="107.5%" height="107.6%" filterUnits="objectBoundingBox" id="filter-2">
            <feOffset dx="0" dy="0" in="SourceAlpha" result="shadowOffsetOuter1"></feOffset>
            <feGaussianBlur stdDeviation="0.5" in="shadowOffsetOuter1" result="shadowBlurOuter1"></feGaussianBlur>
            <feColorMatrix values="0 0 0 0 0.643254082   0 0 0 0 0.656386854   0 0 0 0 0.708917942  0 0 0 1 0" type="matrix" in="shadowBlurOuter1"></feColorMatrix>
        </filter>
    </defs>
    <g id="pages" stroke="none" stroke-width="1" fill="none" fill-rule="evenodd">
        <g id="TimeRangePicker" transform="translate(1.000000, 0.000000)">
            <g id="TimePicker-Copy" transform="translate(79.000000, 32.000000)">
                <path d="M1.9862069,0 L70.0137931,0 C71.1107449,0 72,0.889255118 72,1.9862069 L72,41.2137931 C72,42.3107449 71.1107449,43.2 70.0137931,43.2 L1.9862069,43.2 C0.889255118,43.2 0,42.3107449 0,41.2137931 L0,1.9862069 C0,0.889255118 0.889255118,0 1.9862069,0 Z" id="Rectangle" fill="#E3E5ED" fill-rule="nonzero"></path>
                <g id="Group-125" transform="translate(12.413793, 9.434483)">
                    <path d="M0,3.54399505 C0,1.58670063 1.5628715,2.99898037e-14 3.4940307,2.99898037e-14 L42.4682396,2.99898037e-14 C44.8738356,2.99898037e-14 46.8239564,1.95012087 46.8239564,4.35571688 L46.8239564,20.4718693 C46.8239564,22.8774653 44.8738356,24.8275862 42.4682396,24.8275862 L3.4940307,24.8275862 C1.56433083,24.8275862 0,23.2367407 0,21.2835912 L0,3.54399505 Z" id="Path" fill="#FFFFFF" fill-rule="nonzero"></path>
                    <g id="Group-122" transform="translate(3.049002, 6.098004)">
                        <path d="M0.871143376,0 L39.6370236,0 C40.1181428,0 40.508167,0.390024174 40.508167,0.871143376 L40.508167,10.4537205 C40.508167,10.9348397 40.1181428,11.3248639 39.6370236,11.3248639 L0.871143376,11.3248639 C0.390024174,11.3248639 0,10.9348397 0,10.4537205 L0,0.871143376 C0,0.390024174 0.390024174,0 0.871143376,0 Z" id="Path" fill="#F4F6F9" fill-rule="nonzero"></path>
                        <path d="M1.30671506,0.435571688 L9.58257713,0.435571688 C10.0636963,0.435571688 10.4537205,0.825595862 10.4537205,1.30671506 L10.4537205,10.0181488 C10.4537205,10.499268 10.0636963,10.8892922 9.58257713,10.8892922 L1.30671506,10.8892922 C0.825595862,10.8892922 0.435571688,10.499268 0.435571688,10.0181488 L0.435571688,1.30671506 C0.435571688,0.825595862 0.825595862,0.435571688 1.30671506,0.435571688 Z" id="Path" fill="#01B6F5" fill-rule="nonzero"></path>
                        <path d="M2.43541387,7.46607749 L3.36867356,7.46607749 L3.36867356,4.50570504 C3.36867356,4.41682272 3.37170359,4.32693173 3.37776375,4.23602935 L2.60206739,4.89961335 C2.58186686,4.91577377 2.56166664,4.9273889 2.54146611,4.93445909 C2.52126558,4.94152927 2.50207537,4.94506431 2.48389489,4.94506431 C2.4535941,4.94506431 2.4263238,4.93849924 2.40208317,4.92536889 C2.37784254,4.91223855 2.35966233,4.89658338 2.34754202,4.8784029 L2.17785844,4.64508798 L3.46866567,3.5269944 L3.90802493,3.5269944 L3.90802493,7.46607749 L4.76250296,7.46607749 L4.76250296,7.87816618 L2.43541387,7.87816618 L2.43541387,7.46607749 Z M8.60310897,5.70864042 C8.60310897,6.08841033 8.56220352,6.41716897 8.48039138,6.69492622 C8.39857925,6.97268347 8.28697301,7.20246102 8.14556932,7.38426576 C8.00416563,7.56607051 7.83700878,7.70141201 7.64409374,7.79029433 C7.45117871,7.87917665 7.24463142,7.92361714 7.02444567,7.92361714 C6.80223987,7.92361714 6.59569258,7.87917665 6.4047976,7.79029433 C6.21390262,7.70141201 6.04775578,7.56607051 5.90635209,7.38426576 C5.7649484,7.20246102 5.65384716,6.97268347 5.57304506,6.69492622 C5.49224295,6.41716897 5.4518425,6.08841033 5.4518425,5.70864042 C5.4518425,5.32887051 5.49224295,4.99960685 5.57304506,4.72083958 C5.65384716,4.44207231 5.7649484,4.21128475 5.90635209,4.02846998 C6.04775578,3.84565521 6.21390262,3.7098087 6.4047976,3.62092638 C6.59569258,3.53204406 6.80223987,3.48760357 7.02444567,3.48760357 C7.24463142,3.48760357 7.45117871,3.53204406 7.64409374,3.62092638 C7.83700878,3.7098087 8.00416563,3.84565521 8.14556932,4.02846998 C8.28697301,4.21128475 8.39857925,4.44207231 8.48039138,4.72083958 C8.56220352,4.99960685 8.60310897,5.32887051 8.60310897,5.70864042 Z M8.04254715,5.70864042 C8.04254715,5.37735177 8.01477184,5.09909369 7.95922039,4.87385781 C7.90366894,4.64862193 7.82892811,4.46732492 7.73499566,4.32996134 C7.64106321,4.19259775 7.532487,4.09412166 7.40926379,4.0345301 C7.28604057,3.97493855 7.15776915,3.94514322 7.02444567,3.94514322 C6.89112219,3.94514322 6.76285077,3.97493855 6.63962755,4.0345301 C6.51640434,4.09412166 6.40833314,4.19259775 6.31541072,4.32996134 C6.22248829,4.46732492 6.14825247,4.64862193 6.09270102,4.87385781 C6.03714957,5.09909369 6.00937426,5.37735177 6.00937426,5.70864042 C6.00937426,6.03992906 6.03714957,6.31768214 6.09270102,6.54190799 C6.14825247,6.76613384 6.22248829,6.94692585 6.31541072,7.08428943 C6.40833314,7.22165302 6.51640434,7.32012911 6.63962755,7.37972067 C6.76285077,7.43931222 6.89112219,7.46910755 7.02444567,7.46910755 C7.15776915,7.46910755 7.28604057,7.43931222 7.40926379,7.37972067 C7.532487,7.32012911 7.64106321,7.22165302 7.73499566,7.08428943 C7.82892811,6.94692585 7.90366894,6.76613384 7.95922039,6.54190799 C8.01477184,6.31768214 8.04254715,6.03992906 8.04254715,5.70864042 Z" id="10" fill="#FFFFFF"></path>
                        <path d="M11.5930245,7.35548015 C11.5930245,7.30295878 11.6057419,7.25346824 11.6311772,7.20700702 C11.6566124,7.16054581 11.6914179,7.12014536 11.7355948,7.08580447 C11.7797717,7.05146357 11.8326494,7.02419327 11.8942294,7.00399274 C11.9558093,6.98379221 12.0214044,6.9736921 12.0910165,6.9736921 C12.1606286,6.9736921 12.2262237,6.98379221 12.2878037,7.00399274 C12.3493836,7.02419327 12.4029306,7.05146357 12.4484462,7.08580447 C12.4939618,7.12014536 12.5294367,7.16054581 12.5548719,7.20700702 C12.5803071,7.25346824 12.5930245,7.30295878 12.5930245,7.35548015 C12.5930245,7.41002158 12.5803071,7.46001713 12.5548719,7.50546832 C12.5294367,7.5509195 12.4939618,7.59081495 12.4484462,7.62515584 C12.4029306,7.65949674 12.3493836,7.68626204 12.2878037,7.70545254 C12.2262237,7.72464304 12.1606286,7.73423814 12.0910165,7.73423814 C12.0214044,7.73423814 11.9558093,7.72464304 11.8942294,7.70545254 C11.8326494,7.68626204 11.7797717,7.65949674 11.7355948,7.62515584 C11.6914179,7.59081495 11.6566124,7.5509195 11.6311772,7.50546832 C11.6057419,7.46001713 11.5930245,7.41002158 11.5930245,7.35548015 Z M11.5930245,5.08293222 C11.5930245,5.03041085 11.6057419,4.9809203 11.6311772,4.93445909 C11.6566124,4.88799787 11.6914179,4.84759743 11.7355948,4.81325653 C11.7797717,4.77891563 11.8326494,4.75164533 11.8942294,4.7314448 C11.9558093,4.71124428 12.0214044,4.70114416 12.0910165,4.70114416 C12.1606286,4.70114416 12.2262237,4.71124428 12.2878037,4.7314448 C12.3493836,4.75164533 12.4029306,4.77891563 12.4484462,4.81325653 C12.4939618,4.84759743 12.5294367,4.88799787 12.5548719,4.93445909 C12.5803071,4.9809203 12.5930245,5.03041085 12.5930245,5.08293222 C12.5930245,5.13747364 12.5803071,5.1874692 12.5548719,5.23292038 C12.5294367,5.27837157 12.4939618,5.31826701 12.4484462,5.35260791 C12.4029306,5.3869488 12.3493836,5.4137141 12.2878037,5.4329046 C12.2262237,5.4520951 12.1606286,5.46169021 12.0910165,5.46169021 C12.0214044,5.46169021 11.9558093,5.4520951 11.8942294,5.4329046 C11.8326494,5.4137141 11.7797717,5.3869488 11.7355948,5.35260791 C11.6914179,5.31826701 11.6566124,5.27837157 11.6311772,5.23292038 C11.6057419,5.1874692 11.5930245,5.13747364 11.5930245,5.08293222 Z" id=":" fill="#01B6F5"></path>
                        <path d="M16.3153792,3.48760357 C16.4992039,3.48760357 16.6709059,3.51487387 16.83049,3.56941529 C16.9900742,3.62395672 17.1279407,3.7032426 17.2440937,3.80727531 C17.3602468,3.91130802 17.4516528,4.03806443 17.5183145,4.18754833 C17.5849763,4.33703223 17.6183066,4.50671411 17.6183066,4.69659907 C17.6183066,4.85820329 17.5940664,5.00768494 17.5455851,5.14504853 C17.4971038,5.28241211 17.4314531,5.41421857 17.3486309,5.54047187 C17.2658088,5.66672516 17.1703627,5.78893652 17.0622899,5.9071096 C16.9542171,6.02528269 16.8395808,6.14597903 16.7183777,6.26920224 L15.5760436,7.43880691 C15.6568457,7.41658633 15.7386566,7.39891114 15.8214787,7.38578079 C15.9043009,7.37265045 15.9840918,7.36608538 16.0608538,7.36608538 L17.5152845,7.36608538 C17.573866,7.36608538 17.6203265,7.38325557 17.6546674,7.41759646 C17.6890083,7.45193736 17.7061785,7.49637785 17.7061785,7.55091928 L17.7061785,7.87816618 L14.8094374,7.87816618 L14.8094374,7.69333228 C14.8094374,7.65495128 14.8170125,7.61556084 14.8321629,7.57515979 C14.8473133,7.53475873 14.8720585,7.49738832 14.9063994,7.46304742 L16.2971988,6.06618796 C16.4123418,5.9490249 16.5173829,5.83640865 16.6123254,5.72833583 C16.7072679,5.62026301 16.7885738,5.51168681 16.8562456,5.40260396 C16.9239173,5.29352111 16.9759329,5.18292489 17.0122939,5.07081196 C17.0486548,4.95869904 17.066835,4.83901271 17.066835,4.71174939 C17.066835,4.58448607 17.0466348,4.47287983 17.0062337,4.37692733 C16.9658327,4.28097482 16.9102821,4.20168894 16.8395802,4.13906731 C16.7688784,4.07644567 16.6860574,4.02948015 16.591115,3.99816934 C16.4961725,3.96685852 16.3941614,3.95120335 16.2850785,3.95120335 C16.1759957,3.95120335 16.0749945,3.96736352 15.9820721,3.99968437 C15.8891497,4.03200521 15.8068338,4.07695071 15.7351219,4.13452221 C15.66341,4.19209371 15.6028094,4.26026947 15.5533181,4.33905153 C15.5038268,4.41783358 15.4689814,4.50469455 15.4487809,4.59963702 C15.4326205,4.65821855 15.4083802,4.70063902 15.3760593,4.72689971 C15.3437385,4.75316039 15.301318,4.76629054 15.2487967,4.76629054 C15.2386964,4.76629054 15.2280913,4.76578553 15.216981,4.76477551 C15.2058707,4.76376548 15.1932456,4.76225046 15.1791052,4.76023041 L14.8973092,4.71174939 C14.92559,4.51378422 14.9801306,4.33854728 15.0609327,4.1860333 C15.1417348,4.03351932 15.2442509,3.9057529 15.3684842,3.80273021 C15.4927174,3.69970753 15.635129,3.62143166 15.7957232,3.56790026 C15.9563174,3.51436886 16.1295343,3.48760357 16.3153792,3.48760357 Z M21.5316342,5.70864042 C21.5316342,6.08841033 21.4907287,6.41716897 21.4089166,6.69492622 C21.3271045,6.97268347 21.2154982,7.20246102 21.0740945,7.38426576 C20.9326908,7.56607051 20.765534,7.70141201 20.572619,7.79029433 C20.3797039,7.87917665 20.1731566,7.92361714 19.9529709,7.92361714 C19.7307651,7.92361714 19.5242178,7.87917665 19.3333228,7.79029433 C19.1424278,7.70141201 18.976281,7.56607051 18.8348773,7.38426576 C18.6934736,7.20246102 18.5823724,6.97268347 18.5015703,6.69492622 C18.4207682,6.41716897 18.3803677,6.08841033 18.3803677,5.70864042 C18.3803677,5.32887051 18.4207682,4.99960685 18.5015703,4.72083958 C18.5823724,4.44207231 18.6934736,4.21128475 18.8348773,4.02846998 C18.976281,3.84565521 19.1424278,3.7098087 19.3333228,3.62092638 C19.5242178,3.53204406 19.7307651,3.48760357 19.9529709,3.48760357 C20.1731566,3.48760357 20.3797039,3.53204406 20.572619,3.62092638 C20.765534,3.7098087 20.9326908,3.84565521 21.0740945,4.02846998 C21.2154982,4.21128475 21.3271045,4.44207231 21.4089166,4.72083958 C21.4907287,4.99960685 21.5316342,5.32887051 21.5316342,5.70864042 Z M20.9710724,5.70864042 C20.9710724,5.37735177 20.9432971,5.09909369 20.8877456,4.87385781 C20.8321942,4.64862193 20.7574533,4.46732492 20.6635209,4.32996134 C20.5695884,4.19259775 20.4610122,4.09412166 20.337789,4.0345301 C20.2145658,3.97493855 20.0862944,3.94514322 19.9529709,3.94514322 C19.8196474,3.94514322 19.691376,3.97493855 19.5681528,4.0345301 C19.4449296,4.09412166 19.3368584,4.19259775 19.2439359,4.32996134 C19.1510135,4.46732492 19.0767777,4.64862193 19.0212262,4.87385781 C18.9656748,5.09909369 18.9378995,5.37735177 18.9378995,5.70864042 C18.9378995,6.03992906 18.9656748,6.31768214 19.0212262,6.54190799 C19.0767777,6.76613384 19.1510135,6.94692585 19.2439359,7.08428943 C19.3368584,7.22165302 19.4449296,7.32012911 19.5681528,7.37972067 C19.691376,7.43931222 19.8196474,7.46910755 19.9529709,7.46910755 C20.0862944,7.46910755 20.2145658,7.43931222 20.337789,7.37972067 C20.4610122,7.32012911 20.5695884,7.22165302 20.6635209,7.08428943 C20.7574533,6.94692585 20.8321942,6.76613384 20.8877456,6.54190799 C20.9432971,6.31768214 20.9710724,6.03992906 20.9710724,5.70864042 Z" id="20" fill="#01B6F5"></path>
                        <path d="M28.0385976,7.84029038 L27.5826607,7.84029038 C27.5299744,7.84029038 27.4874207,7.827119 27.4549984,7.80077585 C27.4225761,7.7744327 27.3982597,7.74099767 27.3820485,7.70046974 L26.9747449,6.64877537 L25.0202955,6.64877537 L24.6129919,7.70046974 C24.5988071,7.73694487 24.5744908,7.76936673 24.540042,7.79773627 C24.5055933,7.82610582 24.4630396,7.84029038 24.4123797,7.84029038 L23.9564428,7.84029038 L25.6981217,3.4845735 L26.2969188,3.4845735 L28.0385976,7.84029038 Z M25.1844328,6.22323429 L26.8106076,6.22323429 L26.1267023,4.45115966 C26.0821216,4.34173427 26.0385547,4.20495457 25.9960004,4.04081648 C25.9737101,4.12389873 25.9519266,4.20039404 25.9306495,4.27030471 C25.9093723,4.34021537 25.8886021,4.40151294 25.8683381,4.45419924 L25.1844328,6.22323429 Z M30.7316647,6.2657884 C30.7600342,6.31442191 30.7848572,6.36558764 30.8061344,6.41928714 C30.8274115,6.47298664 30.8481818,6.52719193 30.8684457,6.58190463 C30.8887097,6.52516553 30.9099866,6.47096025 30.9322769,6.41928714 C30.9545673,6.36761404 30.9798968,6.31543512 31.0082664,6.26274882 L32.4824623,3.58487961 C32.5088054,3.5382725 32.5361614,3.50990338 32.5645309,3.4997714 C32.5929004,3.48963942 32.6334278,3.4845735 32.6861141,3.4845735 L33.1207739,3.4845735 L33.1207739,7.84029038 L32.6040454,7.84029038 L32.6040454,4.63961357 C32.6040454,4.59705925 32.6050586,4.55146602 32.607085,4.50283251 C32.6091114,4.454199 32.612151,4.40455304 32.6162037,4.35389313 L31.1237704,7.07735602 C31.0731105,7.16854385 31.0021877,7.21413708 30.9109999,7.21413708 L30.8258916,7.21413708 C30.7347038,7.21413708 30.663781,7.16854385 30.6131211,7.07735602 L29.0872524,4.34477439 C29.0933316,4.3974607 29.0978909,4.44913302 29.1009305,4.49979293 C29.1039701,4.55045283 29.1054899,4.59705925 29.1054899,4.63961357 L29.1054899,7.84029038 L28.5887614,7.84029038 L28.5887614,3.4845735 L29.0234212,3.4845735 C29.0761075,3.4845735 29.1166348,3.48963942 29.1450044,3.4997714 C29.1733739,3.50990338 29.2007299,3.5382725 29.227073,3.58487961 L30.7316647,6.2657884 Z" id="AM" fill="#01B6F5" fill-rule="nonzero"></path>
                        <path d="M37.8947368,3.04900181 C38.6164156,3.04900181 39.2014519,3.63403808 39.2014519,4.35571688 L39.2014519,6.96914701 C39.2014519,7.69082581 38.6164156,8.27586207 37.8947368,8.27586207 C37.173058,8.27586207 36.5880218,7.69082581 36.5880218,6.96914701 L36.5880218,4.35571688 C36.5880218,3.63403808 37.173058,3.04900181 37.8947368,3.04900181 Z" id="Rectangle" fill="#FFFFFF" transform="translate(37.894737, 5.662432) rotate(-540.000000) translate(-37.894737, -5.662432) "></path>
                        <path d="M39.1581371,4.21789273 C39.9416304,4.21789273 40.5825061,4.85545128 40.5825061,5.63530462 C40.5825061,6.41515795 39.9416304,7.0527165 39.1581371,7.0527165 L36.6414837,7.0527165 C35.8579904,7.0527165 35.2171146,6.41515795 35.2171146,5.63530462 C35.2171146,4.85545128 35.8579904,4.21789273 36.6414837,4.21789273 L39.1581371,4.21789273 Z M39.1581371,4.37836651 L36.6414837,4.37836651 C35.9464317,4.37836651 35.3775884,4.94426546 35.3775884,5.63530462 C35.3775884,6.32634377 35.9464317,6.89224272 36.6414837,6.89224272 L39.1581371,6.89224272 C39.8531891,6.89224272 40.4220324,6.32634377 40.4220324,5.63530462 C40.4220324,4.94426546 39.8531891,4.37836651 39.1581371,4.37836651 Z" id="Path" fill="#E3E5ED" fill-rule="nonzero" transform="translate(37.899810, 5.635305) rotate(-270.000000) translate(-37.899810, -5.635305) "></path>
                        <path d="M37.8241607,4.61993455 C37.6850366,4.61993455 37.5722542,4.5061775 37.5722542,4.36585107 C37.5722542,4.22552463 37.6850366,4.11176758 37.8241607,4.11176758 L37.9711062,4.11176758 C38.1102303,4.11176758 38.2230127,4.22552463 38.2230127,4.36585107 C38.2230127,4.5061775 38.1102303,4.61993455 37.9711062,4.61993455 L37.8241607,4.61993455 Z" id="Path" fill="#01B6F5" fill-rule="nonzero" transform="translate(37.897633, 4.365851) rotate(-270.000000) translate(-37.897633, -4.365851) "></path>
                        <path d="M37.8241607,7.283828 C37.6850366,7.283828 37.5722542,7.17007095 37.5722542,7.02974452 C37.5722542,6.88941808 37.6850366,6.77566103 37.8241607,6.77566103 L37.9711062,6.77566103 C38.1102303,6.77566103 38.2230127,6.88941808 38.2230127,7.02974452 C38.2230127,7.17007095 38.1102303,7.283828 37.9711062,7.283828 L37.8241607,7.283828 Z" id="Path" fill="#01B6F5" fill-rule="nonzero" transform="translate(37.897633, 7.029745) rotate(-270.000000) translate(-37.897633, -7.029745) "></path>
                        <polygon id="Path" fill="#E3E5ED" fill-rule="nonzero" points="36.5261706 5.79724138 36.5261706 5.62344828 39.1827223 5.62344828 39.1827223 5.79724138"></polygon>
                    </g>
                    <path d="M42.6860254,3.26678766 C42.6860254,2.78566846 43.0759438,2.39564428 43.5571688,2.39564428 C44.038288,2.39564428 44.4283122,2.78556267 44.4283122,3.26678766 C44.4283122,3.74790686 44.0383938,4.13793103 43.5571688,4.13793103 C43.0760496,4.13793103 42.6860254,3.74801264 42.6860254,3.26678766 Z" id="Path" fill="#F4F6F9" fill-rule="nonzero" transform="translate(43.557169, 3.266788) scale(-1, 1) translate(-43.557169, -3.266788) "></path>
                    <g id="Group-123" transform="translate(9.147005, 19.382940)">
                        <g id="Group-4" fill-rule="nonzero">
                            <path d="M9.89426312,0.114624128 C11.0386847,0.114624128 11.9747949,1.04588902 11.9747949,2.18498039 C11.9747949,3.32407176 11.0386847,4.25533665 9.89426312,4.25533665 L2.09344272,4.25533665 C0.949021141,4.25533665 0.0129109595,3.32407176 0.0129109595,2.18498039 C0.0129109595,1.04588902 0.949021141,0.114624128 2.09344272,0.114624128 L9.89426312,0.114624128 Z M9.89426312,0.343872385 L2.09344272,0.343872385 C1.07536591,0.343872385 0.242159216,1.17276641 0.242159216,2.18498039 C0.242159216,3.19719436 1.07536591,4.02608839 2.09344272,4.02608839 L9.89426312,4.02608839 C10.9123399,4.02608839 11.7455466,3.19719436 11.7455466,2.18498039 C11.7455466,1.17276641 10.9123399,0.343872385 9.89426312,0.343872385 Z" id="Path"></path>
                            <path d="M2.52236063,2.81654569 C2.31887976,2.81654569 2.15392593,2.59268807 2.15392593,2.31654569 C2.15392593,2.04040332 2.31887976,1.81654569 2.52236063,1.81654569 L9.2954185,1.81654569 C9.49889936,1.81654569 9.6638532,2.04040332 9.6638532,2.31654569 C9.6638532,2.59268807 9.49889936,2.81654569 9.2954185,2.81654569 L2.52236063,2.81654569 Z" id="Line-2" fill="#01B6F5"></path>
                        </g>
                        <g id="Group-5" transform="translate(15.897233, 0.229248)">
                            <path d="M10.3637409,-5.29231831e-15 L1.99424877,-5.29231831e-15 C0.912999567,-5.29231831e-15 0.0283411306,0.880079459 0.0283411306,1.95573213 C0.0283411306,3.0313848 0.912999567,3.91146426 1.99424877,3.91146426 L10.3637409,3.91146426 C11.4449901,3.91146426 12.3296486,3.0313848 12.3296486,1.95573213 C12.3296486,0.880079459 11.4449901,-5.29231831e-15 10.3637409,-5.29231831e-15 Z" id="Path" fill="#01B6F5"></path>
                            <path d="M4.48776555,2.58729743 C4.28428469,2.58729743 4.11933086,2.36343981 4.11933086,2.08729743 C4.11933086,1.81115506 4.28428469,1.58729743 4.48776555,1.58729743 L7.70747545,1.58729743 C7.91095631,1.58729743 8.07591014,1.81115506 8.07591014,2.08729743 C8.07591014,2.36343981 7.91095631,2.58729743 7.70747545,2.58729743 L4.48776555,2.58729743 Z" id="Line-2" fill="#FFFFFF" fill-rule="nonzero"></path>
                        </g>
                    </g>
                </g>
            </g>
            <g id="Group-183" transform="translate(0.000000, 4.000000)" fill-rule="nonzero">
                <path d="M83.4700315,1.02774931e-13 C87.0764335,1.02774931e-13 90,2.92356646 90,6.52996845 C90,10.1363704 87.0764335,13.0599369 83.4700315,13.0599369 L6.52996845,13.0599369 C2.92356646,13.0599369 0,10.1363704 0,6.52996845 C0,2.92356646 2.92356646,1.02774931e-13 6.52996845,1.02774931e-13 L83.4700315,1.02774931e-13 Z" id="Path" fill="#E3E5ED"></path>
                <path d="M46.6618973,6.17507886 C46.8578974,6.17507886 47.0167868,6.46289581 47.0167868,6.81793601 C47.0167868,7.15078619 46.8771379,7.42455344 46.6981827,7.45747415 L46.6618973,7.46079315 L43.1048896,7.46079315 C42.9088895,7.46079315 42.75,7.1729762 42.75,6.81793601 C42.75,6.48508582 42.889649,6.21131857 43.0686042,6.17839786 L43.1048896,6.17507886 L46.6618973,6.17507886 Z" id="Line-16" fill="#A4A7B3"></path>
                <path d="M34.355401,0.851735016 C37.4575945,0.851735016 39.9785377,3.34060418 40.0307207,6.43214279 L40.0315457,6.52996845 C40.0315457,9.66597019 37.4910373,12.2082019 34.355401,12.2082019 L6.52787975,12.2082019 C3.39303158,12.2082019 0.851735016,9.66665971 0.851735016,6.52996845 C0.851735016,3.39396672 3.39224349,0.851735016 6.52787975,0.851735016 L34.355401,0.851735016 Z" id="Path" fill="#FFFFFF"></path>
                <g id="clock" transform="translate(30.378549, 3.123028)">
                    <circle id="Oval" fill="#E3E5ED" cx="3.40694006" cy="3.40694006" r="3.40694006"></circle>
                    <circle id="Oval" fill="#FFFFFF" cx="3.40694006" cy="3.40694006" r="3.29649399"></circle>
                    <circle id="Oval" fill="#B5BCC9" cx="3.40694006" cy="3.40694006" r="2.97298107"></circle>
                    <path d="M3.42841976,3.40694006 L3.38547368,3.40694006 C3.30555698,3.40694006 3.24074527,3.34215497 3.24074527,3.26221165 L3.24074527,1.50196816 C3.24074527,1.42205146 3.30553036,1.35723975 3.38547368,1.35723975 L3.42841976,1.35723975 C3.50833646,1.35723975 3.57314817,1.42202484 3.57314817,1.50196816 L3.57314817,3.26223827 C3.57312155,3.34215497 3.50833646,3.40694006 3.42841976,3.40694006 Z" id="Path" fill="#FFFFFF"></path>
                    <path d="M3.42841976,3.40694006 L3.45878943,3.43730974 C3.51529673,3.49381703 3.51529673,3.5854584 3.45878943,3.641979 L2.44244332,4.65832512 C2.38593602,4.71483241 2.29429466,4.71483241 2.23777405,4.65832512 L2.20740438,4.62795544 C2.15089708,4.57144815 2.15089708,4.47980678 2.20740438,4.42328618 L3.22375049,3.40694006 C3.28025779,3.35043277 3.37188584,3.35043277 3.42841976,3.40694006 Z" id="Path" fill="#FFFFFF"></path>
                    <path d="M5.42680304,2.91526272 L5.42680304,2.91526272 C5.43493444,2.94826745 5.41475897,2.9816182 5.38175424,2.98974961 L3.43770899,3.46849123 C3.40470426,3.47662263 3.37135351,3.45644716 3.3632221,3.42344243 L3.3632221,3.42344243 C3.35509069,3.3904377 3.37526617,3.35708695 3.4082709,3.34895554 L5.35231615,2.87021392 C5.38532088,2.86208251 5.41867163,2.88224468 5.42680304,2.91526272 Z" id="Path" fill="#061C3F"></path>
                    <circle id="Oval" fill="#061C3F" cx="3.40694006" cy="3.40694006" r="1"></circle>
                    <path d="M3.41754683,1.18180895 L3.3963333,1.18180895 C3.31040122,1.18180895 3.24074527,1.112153 3.24074527,1.02622092 L3.24074527,0.832664136 C3.24074527,0.746732058 3.31040122,0.677076104 3.3963333,0.677076104 L3.41754683,0.677076104 C3.5034789,0.677076104 3.57313486,0.746732058 3.57313486,0.832664136 L3.57313486,1.02622092 C3.57312155,1.112153 3.5034656,1.18180895 3.41754683,1.18180895 Z" id="Path" fill="#FFFFFF"></path>
                    <path d="M3.41754683,6.13680402 L3.3963333,6.13680402 C3.31040122,6.13680402 3.24074527,6.06714807 3.24074527,5.98121599 L3.24074527,5.78767252 C3.24074527,5.70174044 3.31040122,5.63208448 3.3963333,5.63208448 L3.41754683,5.63208448 C3.5034789,5.63208448 3.57313486,5.70174044 3.57313486,5.78767252 L3.57313486,5.9812293 C3.57312155,6.06713476 3.5034656,6.13680402 3.41754683,6.13680402 Z" id="Path" fill="#FFFFFF"></path>
                    <path d="M5.63207118,3.41754683 L5.63207118,3.3963333 C5.63207118,3.31040122 5.70172713,3.24074527 5.78765921,3.24074527 L5.98121599,3.24074527 C6.06714807,3.24074527 6.13680402,3.31040122 6.13680402,3.3963333 L6.13680402,3.41754683 C6.13680402,3.5034789 6.06714807,3.57313486 5.98121599,3.57313486 L5.78765921,3.57313486 C5.70172713,3.57312155 5.63207118,3.5034656 5.63207118,3.41754683 Z" id="Path" fill="#FFFFFF"></path>
                    <path d="M0.677076104,3.41754683 L0.677076104,3.3963333 C0.677076104,3.31040122 0.746732058,3.24074527 0.832664136,3.24074527 L1.02620761,3.24074527 C1.11213969,3.24074527 1.18179564,3.31040122 1.18179564,3.3963333 L1.18179564,3.41754683 C1.18179564,3.5034789 1.11213969,3.57313486 1.02620761,3.57313486 L0.832664136,3.57313486 C0.746745367,3.57312155 0.677076104,3.5034656 0.677076104,3.41754683 Z" id="Path" fill="#FFFFFF"></path>
                </g>
                <path d="M83.4721202,0.851735016 C86.5743138,0.851735016 89.0952569,3.34060418 89.1474399,6.43214279 L89.148265,6.52996845 C89.148265,9.66597019 86.6077565,12.2082019 83.4721202,12.2082019 L55.644599,12.2082019 C52.5097508,12.2082019 49.9684543,9.66665971 49.9684543,6.52996845 C49.9684543,3.39396672 52.5089627,0.851735016 55.644599,0.851735016 L83.4721202,0.851735016 Z" id="Rectangle-2" fill="#FFFFFF"></path>
                <g id="clock" transform="translate(79.495268, 3.123028)">
                    <circle id="Oval" fill="#E3E5ED" cx="3.40694006" cy="3.40694006" r="3.40694006"></circle>
                    <circle id="Oval" fill="#FFFFFF" cx="3.40694006" cy="3.40694006" r="3.29649399"></circle>
                    <circle id="Oval" fill="#B5BCC9" cx="3.40694006" cy="3.40694006" r="2.97298107"></circle>
                    <path d="M3.42841976,3.40694006 L3.38547368,3.40694006 C3.30555698,3.40694006 3.24074527,3.34215497 3.24074527,3.26221165 L3.24074527,1.50196816 C3.24074527,1.42205146 3.30553036,1.35723975 3.38547368,1.35723975 L3.42841976,1.35723975 C3.50833646,1.35723975 3.57314817,1.42202484 3.57314817,1.50196816 L3.57314817,3.26223827 C3.57312155,3.34215497 3.50833646,3.40694006 3.42841976,3.40694006 Z" id="Path" fill="#FFFFFF"></path>
                    <path d="M3.42841976,3.40694006 L3.45878943,3.43730974 C3.51529673,3.49381703 3.51529673,3.5854584 3.45878943,3.641979 L2.44244332,4.65832512 C2.38593602,4.71483241 2.29429466,4.71483241 2.23777405,4.65832512 L2.20740438,4.62795544 C2.15089708,4.57144815 2.15089708,4.47980678 2.20740438,4.42328618 L3.22375049,3.40694006 C3.28025779,3.35043277 3.37188584,3.35043277 3.42841976,3.40694006 Z" id="Path" fill="#FFFFFF"></path>
                    <path d="M5.42680304,2.91526272 L5.42680304,2.91526272 C5.43493444,2.94826745 5.41475897,2.9816182 5.38175424,2.98974961 L3.43770899,3.46849123 C3.40470426,3.47662263 3.37135351,3.45644716 3.3632221,3.42344243 L3.3632221,3.42344243 C3.35509069,3.3904377 3.37526617,3.35708695 3.4082709,3.34895554 L5.35231615,2.87021392 C5.38532088,2.86208251 5.41867163,2.88224468 5.42680304,2.91526272 Z" id="Path" fill="#061C3F"></path>
                    <circle id="Oval" fill="#061C3F" cx="3.40694006" cy="3.40694006" r="1"></circle>
                    <path d="M3.41754683,1.18180895 L3.3963333,1.18180895 C3.31040122,1.18180895 3.24074527,1.112153 3.24074527,1.02622092 L3.24074527,0.832664136 C3.24074527,0.746732058 3.31040122,0.677076104 3.3963333,0.677076104 L3.41754683,0.677076104 C3.5034789,0.677076104 3.57313486,0.746732058 3.57313486,0.832664136 L3.57313486,1.02622092 C3.57312155,1.112153 3.5034656,1.18180895 3.41754683,1.18180895 Z" id="Path" fill="#FFFFFF"></path>
                    <path d="M3.41754683,6.13680402 L3.3963333,6.13680402 C3.31040122,6.13680402 3.24074527,6.06714807 3.24074527,5.98121599 L3.24074527,5.78767252 C3.24074527,5.70174044 3.31040122,5.63208448 3.3963333,5.63208448 L3.41754683,5.63208448 C3.5034789,5.63208448 3.57313486,5.70174044 3.57313486,5.78767252 L3.57313486,5.9812293 C3.57312155,6.06713476 3.5034656,6.13680402 3.41754683,6.13680402 Z" id="Path" fill="#FFFFFF"></path>
                    <path d="M5.63207118,3.41754683 L5.63207118,3.3963333 C5.63207118,3.31040122 5.70172713,3.24074527 5.78765921,3.24074527 L5.98121599,3.24074527 C6.06714807,3.24074527 6.13680402,3.31040122 6.13680402,3.3963333 L6.13680402,3.41754683 C6.13680402,3.5034789 6.06714807,3.57313486 5.98121599,3.57313486 L5.78765921,3.57313486 C5.70172713,3.57312155 5.63207118,3.5034656 5.63207118,3.41754683 Z" id="Path" fill="#FFFFFF"></path>
                    <path d="M0.677076104,3.41754683 L0.677076104,3.3963333 C0.677076104,3.31040122 0.746732058,3.24074527 0.832664136,3.24074527 L1.02620761,3.24074527 C1.11213969,3.24074527 1.18179564,3.31040122 1.18179564,3.3963333 L1.18179564,3.41754683 C1.18179564,3.5034789 1.11213969,3.57313486 1.02620761,3.57313486 L0.832664136,3.57313486 C0.746745367,3.57312155 0.677076104,3.5034656 0.677076104,3.41754683 Z" id="Path" fill="#FFFFFF"></path>
                </g>
                <path d="M6.32142857,7.97142857 C5.67052154,7.97142857 5.14285714,7.33823129 5.14285714,6.55714286 C5.14285714,5.77605443 5.67052154,5.14285714 6.32142857,5.14285714 L20.7321429,5.14285714 C21.3830499,5.14285714 21.9107143,5.77605443 21.9107143,6.55714286 C21.9107143,7.33823129 21.3830499,7.97142857 20.7321429,7.97142857 L6.32142857,7.97142857 Z" id="Path" fill="#202020"></path>
                <path d="M55.1785714,7.97142857 C54.5276644,7.97142857 54,7.33823129 54,6.55714286 C54,5.77605443 54.5276644,5.14285714 55.1785714,5.14285714 L69.5892857,5.14285714 C70.2401927,5.14285714 70.7678571,5.77605443 70.7678571,6.55714286 C70.7678571,7.33823129 70.2401927,7.97142857 69.5892857,7.97142857 L55.1785714,7.97142857 Z" id="Path-Copy-24" fill="#202020"></path>
            </g>
            <g id="Group-5" transform="translate(101.000000, 0.000000)" fill-rule="nonzero">
                <path d="M0,11 C0,4.92486775 4.92817249,0 10.991074,0 L38.1815451,0 C44.1522361,0 49.0109701,4.76342789 49.1686683,10.7021035 L49.172619,11 C49.172619,17.0751322 44.2444466,22 38.1815451,22 L10.991074,22 C5.02038296,22 0.161648924,17.2365721 0.00395076211,11.2978965 L0,11 Z" id="Path" fill="#FFB900"></path>
                <path d="M8.9375,15.8125 L12.1325784,15.8125 C12.6349885,15.8125 13.0823824,15.7502178 13.4747605,15.6256533 C13.8671385,15.5010889 14.1982725,15.3266986 14.468162,15.1024826 C14.7380519,14.8782666 14.9435833,14.6094149 15.0847561,14.2959277 C15.2259289,13.9824404 15.2965157,13.6346981 15.2965157,13.2527003 C15.2965157,12.7046167 15.1314678,12.2592988 14.801372,11.9167465 C14.4712761,11.5741943 13.9844366,11.3385599 13.3408537,11.2098432 C13.6190477,11.1226481 13.8619484,11.0095019 14.0695557,10.8704051 C14.2771634,10.7313082 14.4494774,10.5756026 14.5864983,10.4032883 C14.7235192,10.230974 14.8262848,10.0441273 14.8947953,9.84274826 C14.9633057,9.64138096 14.997561,9.43273549 14.997561,9.21681185 C14.997561,8.85557491 14.9363165,8.52963099 14.8138284,8.23898084 C14.6913403,7.94833068 14.5013795,7.70231587 14.243946,7.50093641 C13.9865129,7.29955695 13.658493,7.14488992 13.2598868,7.0369338 C12.8612805,6.92897768 12.3837833,6.875 11.8273955,6.875 L8.9375,6.875 L8.9375,15.8125 Z M10.2205139,11.7641551 L12.1138937,11.7641551 C12.7574766,11.7641551 13.2370498,11.8949477 13.5526132,12.1565331 C13.8681767,12.4181185 14.0259582,12.7731272 14.0259582,13.2215592 C14.0259582,13.4499273 13.989627,13.659611 13.9169643,13.8506098 C13.8443244,14.0416085 13.7311782,14.2066564 13.5775261,14.3457535 C13.4239071,14.4848504 13.22668,14.5938443 12.9858449,14.6727352 C12.7450202,14.751626 12.4543697,14.7910714 12.1138937,14.7910714 L10.2205139,14.7910714 L10.2205139,11.7641551 Z M10.2205139,10.8548345 L10.2205139,7.88397213 L11.8273955,7.88397213 C12.4709784,7.88397213 12.9474374,8.00334615 13.2567726,8.24209495 C13.5661079,8.48084375 13.7207753,8.85765124 13.7207753,9.37251742 C13.7207753,9.59673345 13.68133,9.80018886 13.602439,9.98288328 C13.5235697,10.1655777 13.4041953,10.3212833 13.2443162,10.45 C13.0844584,10.5787167 12.8820411,10.6783683 12.6370645,10.7489547 C12.3920878,10.8195411 12.1035132,10.8548345 11.7713415,10.8548345 L10.2205139,10.8548345 Z M23.2935526,6.875 L17.7628906,6.875 L17.7628906,15.8125 L23.2935526,15.8125 L23.2997808,14.7661585 L19.0521327,14.7661585 L19.0521327,11.8077526 L22.4714272,11.8077526 L22.4714272,10.7987805 L19.0521327,10.7987805 L19.0521327,7.92134146 L23.2935526,7.92134146 L23.2935526,6.875 Z M31.776391,6.875 L24.7696402,6.875 L24.7696402,7.95248258 L27.6346227,7.95248258 L27.6346227,15.8125 L28.9176367,15.8125 L28.9176367,7.95248258 L31.776391,7.95248258 L31.776391,6.875 Z M40.2841425,15.8125 L36.7153707,6.875 L35.4136721,6.875 L31.8511286,15.8125 L32.8476442,15.8125 C32.9555979,15.8125 33.0479832,15.7813589 33.1248002,15.7190767 C33.2016149,15.6567944 33.2524787,15.5862079 33.2773916,15.5073171 L34.0808324,13.4084059 L38.0482104,13.4084059 L38.8516512,15.5073171 C38.8890205,15.5986643 38.9429982,15.672365 39.013585,15.728419 C39.0841718,15.784473 39.1755188,15.8125 39.2876268,15.8125 L40.2841425,15.8125 Z M37.6932017,12.4866289 L34.4358411,12.4866289 L35.7873655,8.97391115 C35.8329778,8.86180314 35.8786513,8.73101045 35.9243864,8.5815331 L36.0614073,8.09573171 L36.0614073,8.09573171 C36.1070808,8.27012195 36.1537925,8.43101797 36.2015423,8.57841899 L36.2489461,8.71993794 L36.2489461,8.71993794 L37.6932017,12.4866289 Z" id="BETA" fill="#FFFFFF"></path>
            </g>
            <g id="PicklistOption" transform="translate(0.000000, 18.000000)" fill-rule="nonzero">
                <g id="Group-124">
                    <g id="Path">
                        <use fill="black" fill-opacity="1" filter="url(#filter-2)" xlink:href="#path-1"></use>
                        <use fill="#FFFFFF" xlink:href="#path-1"></use>
                    </g>
                    <path d="M4.44444444,0.317460317 C2.16517405,0.317460317 0.317460317,2.16517405 0.317460317,4.44444444 L0.317460317,35.5555556 C0.317460317,37.834826 2.16517405,39.6825397 4.44444444,39.6825397 L36.1269841,39.6825397 C38.4062545,39.6825397 40.2539683,37.834826 40.2539683,35.5555556 L40.2539683,4.44444444 C40.2539683,2.16517405 38.4062545,0.317460317 36.1269841,0.317460317 L4.44444444,0.317460317 Z M4.44444444,-1.65064153e-11 L36.1269841,-1.65064153e-11 C38.581583,-1.65064153e-11 40.5714286,1.98984556 40.5714286,4.44444444 L40.5714286,35.5555556 C40.5714286,38.0101544 38.581583,40 36.1269841,40 L4.44444444,40 C1.98984556,40 0,38.0101544 0,35.5555556 L0,4.44444444 C0,1.98984556 1.98984556,-1.65064153e-11 4.44444444,-1.65064153e-11 Z" id="Rectangle" fill="#E3E5ED"></path>
                    <g id="Group-130" transform="translate(6.285714, 9.142857)">
                        <path d="M0.920634921,11.9985714 C0.447247992,11.9985714 0.0634920635,11.6148155 0.0634920635,11.1414286 C0.0634920635,10.6680416 0.447247992,10.2842857 0.920634921,10.2842857 L22.4425349,10.2842857 C22.9159218,10.2842857 23.2996777,10.6680416 23.2996777,11.1414286 C23.2996777,11.6148155 22.9159218,11.9985714 22.4425349,11.9985714 L0.920634921,11.9985714 Z" id="Path-Copy" fill-opacity="0.6" fill="#A4A7B5"></path>
                        <path d="M0.920634921,1.71428571 C0.447247992,1.71428571 0.0634920635,1.33052979 0.0634920635,0.857142857 C0.0634920635,0.383755929 0.447247992,-6.49591492e-13 0.920634921,-6.49591492e-13 L22.4425349,-6.49591492e-13 C22.9159218,-6.49591492e-13 23.2996777,0.383755929 23.2996777,0.857142857 C23.2996777,1.33052979 22.9159218,1.71428571 22.4425349,1.71428571 L0.920634921,1.71428571 Z" id="Path-Copy-3" fill-opacity="0.6" fill="#A4A7B5"></path>
                        <path d="M0.857142857,22.2828571 C0.383755929,22.2828571 -8.8817842e-15,21.8991012 -8.8817842e-15,21.4257143 C-8.8817842e-15,20.9523274 0.383755929,20.5685714 0.857142857,20.5685714 L22.0296982,20.5685714 C22.5030851,20.5685714 22.886841,20.9523274 22.886841,21.4257143 C22.886841,21.8991012 22.5030851,22.2828571 22.0296982,22.2828571 L0.857142857,22.2828571 Z" id="Path-Copy-12" fill="#C8CAD3"></path>
                    </g>
                </g>
            </g>
        </g>
    </g>
</svg>