<?xml version="1.0" encoding="UTF-8"?>
<svg width="145px" height="87px" viewBox="0 0 145 87" version="1.1" xmlns="http://www.w3.org/2000/svg" xmlns:xlink="http://www.w3.org/1999/xlink">
    <g id="pages" stroke="none" stroke-width="1" fill="none" fill-rule="evenodd">
        <g id="TimePicker">
            <path d="M4,0 L141,0 C143.209139,-4.05812251e-16 145,1.790861 145,4 L145,83 C145,85.209139 143.209139,87 141,87 L4,87 C1.790861,87 2.705415e-16,85.209139 0,83 L0,4 C-2.705415e-16,1.790861 1.790861,4.05812251e-16 4,0 Z" id="Rectangle" fill="#E3E5ED" fill-rule="nonzero"></path>
            <g id="Group-125" transform="translate(25.000000, 19.000000)">
                <path d="M0,7.13721226 C0,3.19543877 3.14744955,6.19543403e-14 7.0365896,6.19543403e-14 L85.5263158,6.03961325e-14 C90.3709189,5.95196407e-14 94.2982456,3.92732676 94.2982456,8.77192982 L94.2982456,41.2280702 C94.2982456,46.0726732 90.3709189,50 85.5263158,50 L7.0365896,50 C3.15038847,50 0,46.7962138 0,42.8627877 L0,7.13721226 Z" id="Path" fill="#FFFFFF" fill-rule="nonzero"></path>
                <g id="Group-122" transform="translate(6.140351, 12.280702)">
                    <path d="M1.75438596,0 L79.8245614,0 C80.793482,0 81.5789474,0.785465351 81.5789474,1.75438596 L81.5789474,21.0526316 C81.5789474,22.0215522 80.793482,22.8070175 79.8245614,22.8070175 L1.75438596,22.8070175 C0.785465351,22.8070175 0,22.0215522 0,21.0526316 L0,1.75438596 C0,0.785465351 0.785465351,0 1.75438596,0 Z" id="Path" fill="#F4F6F9" fill-rule="nonzero"></path>
                    <path d="M2.63157895,0.877192982 L19.2982456,0.877192982 C20.2671662,0.877192982 21.0526316,1.66265833 21.0526316,2.63157895 L21.0526316,20.1754386 C21.0526316,21.1443592 20.2671662,21.9298246 19.2982456,21.9298246 L2.63157895,21.9298246 C1.66265833,21.9298246 0.877192982,21.1443592 0.877192982,20.1754386 L0.877192982,2.63157895 C0.877192982,1.66265833 1.66265833,0.877192982 2.63157895,0.877192982 Z" id="Path" fill="#01B6F5" fill-rule="nonzero"></path>
                    <path d="M4.90465294,15.0358505 L6.78413425,15.0358505 L6.78413425,9.07398932 C6.78413425,8.89499021 6.7902364,8.71395973 6.80244088,8.53089245 L5.2402746,9.86727689 C5.19959298,9.89982218 5.15891198,9.92321376 5.11823036,9.93745233 C5.07754874,9.95169089 5.03890178,9.95881007 5.00228833,9.95881007 C4.9412659,9.95881007 4.88634654,9.94558874 4.8375286,9.91914569 C4.78871066,9.89270264 4.75209776,9.86117486 4.72768879,9.8245614 L4.38596491,9.35469108 L6.98550725,7.10297483 L7.87032799,7.10297483 L7.87032799,15.0358505 L9.59115179,15.0358505 L9.59115179,15.8657513 L4.90465294,15.8657513 L4.90465294,15.0358505 Z M17.3257056,11.4965675 C17.3257056,12.2613819 17.2433265,12.9234653 17.078566,13.4828375 C16.9138054,14.0422098 16.6890429,14.5049562 16.4042715,14.8710908 C16.1195002,15.2372253 15.7828649,15.5097881 15.3943555,15.6887872 C15.005846,15.8677863 14.5898827,15.9572845 14.1464531,15.9572845 C13.6989553,15.9572845 13.282992,15.8677863 12.8985507,15.6887872 C12.5141094,15.5097881 12.1795082,15.2372253 11.8947368,14.8710908 C11.6099655,14.5049562 11.38622,14.0422098 11.2234935,13.4828375 C11.060767,12.9234653 10.979405,12.2613819 10.979405,11.4965675 C10.979405,10.7317531 11.060767,10.0686527 11.2234935,9.50724638 C11.38622,8.94584006 11.6099655,8.48105956 11.8947368,8.11289092 C12.1795082,7.74472229 12.5141094,7.47114252 12.8985507,7.2921434 C13.282992,7.11314429 13.6989553,7.02364607 14.1464531,7.02364607 C14.5898827,7.02364607 15.005846,7.11314429 15.3943555,7.2921434 C15.7828649,7.47114252 16.1195002,7.74472229 16.4042715,8.11289092 C16.6890429,8.48105956 16.9138054,8.94584006 17.078566,9.50724638 C17.2433265,10.0686527 17.3257056,10.7317531 17.3257056,11.4965675 Z M16.1967963,11.4965675 C16.1967963,10.829389 16.14086,10.2690081 16.0289855,9.81540809 C15.9171111,9.36180805 15.7665913,8.99669602 15.5774218,8.72006102 C15.3882523,8.44342603 15.1695919,8.24510612 14.921434,8.12509535 C14.6732762,8.00508458 14.4149518,7.94508009 14.1464531,7.94508009 C13.8779544,7.94508009 13.61963,8.00508458 13.3714722,8.12509535 C13.1233143,8.24510612 12.9056709,8.44342603 12.7185355,8.72006102 C12.5314,8.99669602 12.3818973,9.36180805 12.2700229,9.81540809 C12.1581484,10.2690081 12.1022121,10.829389 12.1022121,11.4965675 C12.1022121,12.163746 12.1581484,12.7231099 12.2700229,13.1746758 C12.3818973,13.6262418 12.5314,13.9903368 12.7185355,14.2669718 C12.9056709,14.5436068 13.1233143,14.7419267 13.3714722,14.8619375 C13.61963,14.9819482 13.8779544,15.0419527 14.1464531,15.0419527 C14.4149518,15.0419527 14.6732762,14.9819482 14.921434,14.8619375 C15.1695919,14.7419267 15.3882523,14.5436068 15.5774218,14.2669718 C15.7665913,13.9903368 15.9171111,13.6262418 16.0289855,13.1746758 C16.14086,12.7231099 16.1967963,12.163746 16.1967963,11.4965675 Z" id="10" fill="#FFFFFF"></path>
                    <path d="M23.3470633,14.8131198 C23.3470633,14.7073476 23.3693746,14.6076791 23.4139977,14.5141114 C23.4586209,14.4205436 23.5196832,14.3391816 23.5971866,14.2700229 C23.67469,14.2008641 23.7674578,14.1459448 23.8754928,14.1052632 C23.9835278,14.0645815 24.0986069,14.044241 24.2207334,14.044241 C24.34286,14.044241 24.457939,14.0645815 24.565974,14.1052632 C24.6740091,14.1459448 24.7679511,14.2008641 24.8478031,14.2700229 C24.9276551,14.3391816 24.9898917,14.4205436 25.0345149,14.5141114 C25.079138,14.6076791 25.1014493,14.7073476 25.1014493,14.8131198 C25.1014493,14.9229601 25.079138,15.0236456 25.0345149,15.1151793 C24.9898917,15.2067129 24.9276551,15.2870579 24.8478031,15.3562166 C24.7679511,15.4253754 24.6740091,15.4792777 24.565974,15.5179252 C24.457939,15.5565728 24.34286,15.5758963 24.2207334,15.5758963 C24.0986069,15.5758963 23.9835278,15.5565728 23.8754928,15.5179252 C23.7674578,15.4792777 23.67469,15.4253754 23.5971866,15.3562166 C23.5196832,15.2870579 23.4586209,15.2067129 23.4139977,15.1151793 C23.3693746,15.0236456 23.3470633,14.9229601 23.3470633,14.8131198 Z M23.3470633,10.2364607 C23.3470633,10.1306885 23.3693746,10.03102 23.4139977,9.93745233 C23.4586209,9.84388461 23.5196832,9.76252259 23.5971866,9.69336384 C23.67469,9.6242051 23.7674578,9.56928574 23.8754928,9.52860412 C23.9835278,9.4879225 24.0986069,9.467582 24.2207334,9.467582 C24.34286,9.467582 24.457939,9.4879225 24.565974,9.52860412 C24.6740091,9.56928574 24.7679511,9.6242051 24.8478031,9.69336384 C24.9276551,9.76252259 24.9898917,9.84388461 25.0345149,9.93745233 C25.079138,10.03102 25.1014493,10.1306885 25.1014493,10.2364607 C25.1014493,10.3463011 25.079138,10.4469866 25.0345149,10.5385202 C24.9898917,10.6300539 24.9276551,10.7103988 24.8478031,10.7795576 C24.7679511,10.8487163 24.6740091,10.9026187 24.565974,10.9412662 C24.457939,10.9799137 24.34286,10.9992372 24.2207334,10.9992372 C24.0986069,10.9992372 23.9835278,10.9799137 23.8754928,10.9412662 C23.7674578,10.9026187 23.67469,10.8487163 23.5971866,10.7795576 C23.5196832,10.7103988 23.4586209,10.6300539 23.4139977,10.5385202 C23.3693746,10.4469866 23.3470633,10.3463011 23.3470633,10.2364607 Z" id=":" fill="#01B6F5"></path>
                    <path d="M32.8573608,7.02364607 C33.2275635,7.02364607 33.5733521,7.07856543 33.8947368,7.1884058 C34.2161216,7.29824616 34.4937695,7.45791912 34.7276888,7.66742944 C34.9616081,7.87693977 35.1456896,8.13221309 35.279939,8.43325706 C35.4141883,8.73430102 35.481312,9.07602148 35.481312,9.45842868 C35.481312,9.78388162 35.4324948,10.0849211 35.3348589,10.3615561 C35.237223,10.6381911 35.1050097,10.9036346 34.9382151,11.1578947 C34.7714205,11.4121548 34.5792027,11.6582749 34.3615561,11.8962624 C34.1439094,12.1342499 33.9130447,12.3773189 33.668955,12.6254767 L31.3684211,14.9809306 C31.5311475,14.9361808 31.6959056,14.9005849 31.8627002,14.8741419 C32.0294949,14.8476988 32.1901848,14.8344775 32.344775,14.8344775 L35.2738368,14.8344775 C35.3918135,14.8344775 35.4853798,14.8690564 35.5545385,14.9382151 C35.6236973,15.0073739 35.6582761,15.0968721 35.6582761,15.2067124 L35.6582761,15.8657513 L29.8245614,15.8657513 L29.8245614,15.4935164 C29.8245614,15.4162213 29.8398168,15.3368934 29.870328,15.2555301 C29.9008392,15.1741669 29.9506734,15.098907 30.0198322,15.0297483 L32.8207475,12.2166285 C33.0526327,11.9806751 33.264174,11.7538785 33.4553776,11.5362319 C33.6465812,11.3185852 33.8103222,11.0999248 33.9466056,10.8802441 C34.0828891,10.6605634 34.1876427,10.4378348 34.2608696,10.2120519 C34.3340965,9.98626889 34.3707094,9.74523393 34.3707094,9.48893974 C34.3707094,9.23264555 34.3300284,9.00788299 34.2486651,8.81464531 C34.1673019,8.62140763 34.0554291,8.46173468 33.9130435,8.33562166 C33.7706578,8.20950865 33.6038657,8.11492531 33.4126621,8.0518688 C33.2214585,7.9888123 33.0160194,7.95728452 32.7963387,7.95728452 C32.5766579,7.95728452 32.3732529,7.98982932 32.1861175,8.05491991 C31.998982,8.1200105 31.8332069,8.21052574 31.6887872,8.32646834 C31.5443674,8.44241095 31.4223244,8.57970935 31.3226545,8.73836766 C31.2229845,8.89702596 31.1528098,9.07195429 31.1121281,9.26315789 C31.0795829,9.38113458 31.0307656,9.4665647 30.9656751,9.5194508 C30.9005845,9.5723369 30.8151544,9.59877956 30.7093822,9.59877956 C30.6890413,9.59877956 30.6676838,9.59776253 30.6453089,9.59572845 C30.622934,9.59369437 30.5975084,9.5906433 30.5690313,9.58657513 L30.0015256,9.48893974 C30.0584798,9.09025989 30.1683185,8.73735216 30.331045,8.43020595 C30.4937715,8.12305974 30.7002276,7.86575237 30.9504195,7.65827613 C31.2006115,7.45079988 31.4874126,7.29316098 31.8108314,7.18535469 C32.1342503,7.07754841 32.4830899,7.02364607 32.8573608,7.02364607 Z M43.3623188,11.4965675 C43.3623188,12.2613819 43.2799398,12.9234653 43.1151793,13.4828375 C42.9504187,14.0422098 42.7256561,14.5049562 42.4408848,14.8710908 C42.1561135,15.2372253 41.8194782,15.5097881 41.4309687,15.6887872 C41.0424593,15.8677863 40.626496,15.9572845 40.1830664,15.9572845 C39.7355686,15.9572845 39.3196053,15.8677863 38.935164,15.6887872 C38.5507227,15.5097881 38.2161214,15.2372253 37.9313501,14.8710908 C37.6465788,14.5049562 37.4228333,14.0422098 37.2601068,13.4828375 C37.0973803,12.9234653 37.0160183,12.2613819 37.0160183,11.4965675 C37.0160183,10.7317531 37.0973803,10.0686527 37.2601068,9.50724638 C37.4228333,8.94584006 37.6465788,8.48105956 37.9313501,8.11289092 C38.2161214,7.74472229 38.5507227,7.47114252 38.935164,7.2921434 C39.3196053,7.11314429 39.7355686,7.02364607 40.1830664,7.02364607 C40.626496,7.02364607 41.0424593,7.11314429 41.4309687,7.2921434 C41.8194782,7.47114252 42.1561135,7.74472229 42.4408848,8.11289092 C42.7256561,8.48105956 42.9504187,8.94584006 43.1151793,9.50724638 C43.2799398,10.0686527 43.3623188,10.7317531 43.3623188,11.4965675 Z M42.2334096,11.4965675 C42.2334096,10.829389 42.1774732,10.2690081 42.0655988,9.81540809 C41.9537243,9.36180805 41.8032046,8.99669602 41.6140351,8.72006102 C41.4248656,8.44342603 41.2062052,8.24510612 40.9580473,8.12509535 C40.7098894,8.00508458 40.451565,7.94508009 40.1830664,7.94508009 C39.9145677,7.94508009 39.6562433,8.00508458 39.4080854,8.12509535 C39.1599276,8.24510612 38.9422842,8.44342603 38.7551487,8.72006102 C38.5680133,8.99669602 38.4185106,9.36180805 38.3066362,9.81540809 C38.1947617,10.2690081 38.1388253,10.829389 38.1388253,11.4965675 C38.1388253,12.163746 38.1947617,12.7231099 38.3066362,13.1746758 C38.4185106,13.6262418 38.5680133,13.9903368 38.7551487,14.2669718 C38.9422842,14.5436068 39.1599276,14.7419267 39.4080854,14.8619375 C39.6562433,14.9819482 39.9145677,15.0419527 40.1830664,15.0419527 C40.451565,15.0419527 40.7098894,14.9819482 40.9580473,14.8619375 C41.2062052,14.7419267 41.4248656,14.5436068 41.6140351,14.2669718 C41.8032046,13.9903368 41.9537243,13.6262418 42.0655988,13.1746758 C42.1774732,12.7231099 42.2334096,12.163746 42.2334096,11.4965675 Z" id="20" fill="#01B6F5"></path>
                    <path d="M56.4666201,15.7894737 L55.548414,15.7894737 C55.4423096,15.7894737 55.3566112,15.762948 55.2913162,15.7098958 C55.2260212,15.6568436 55.1770507,15.5895092 55.1444032,15.5078905 L54.324139,13.3898948 L50.3880952,13.3898948 L49.567831,15.5078905 C49.5392644,15.5813473 49.4902939,15.6466413 49.420918,15.7037744 C49.351542,15.7609076 49.2658436,15.7894737 49.1638202,15.7894737 L48.245614,15.7894737 L51.7531617,7.01754386 L52.9590725,7.01754386 L56.4666201,15.7894737 Z M50.7186494,12.5329024 L53.9935848,12.5329024 L52.6162755,8.96414099 C52.5264949,8.7437704 52.4387561,8.4683113 52.3530564,8.13775541 C52.3081661,8.30507382 52.2642967,8.45912688 52.2214468,8.5999192 C52.178597,8.74071152 52.136768,8.864158 52.0959587,8.97026236 L50.7186494,12.5329024 Z M61.8901581,12.6186016 C61.9472912,12.7165441 61.9972819,12.8195862 62.0401317,12.9277311 C62.0829816,13.0358759 62.1248105,13.1450393 62.1656199,13.2552246 C62.2064293,13.1409584 62.2492785,13.0317949 62.2941688,12.9277311 C62.3390591,12.8236672 62.39007,12.7185846 62.4472031,12.6124803 L65.4160698,7.21954922 C65.469122,7.12568768 65.5242138,7.06855542 65.5813469,7.04815073 C65.6384801,7.02774605 65.7200976,7.01754386 65.8262019,7.01754386 L66.7015585,7.01754386 L66.7015585,15.7894737 L65.6609248,15.7894737 L65.6609248,9.34366621 C65.6609248,9.25796654 65.6629653,9.16614684 65.6670462,9.06820436 C65.6711271,8.97026187 65.6772484,8.87028042 65.6854103,8.768257 L62.6798154,14.2530087 C62.577792,14.4366508 62.4349613,14.5284705 62.2513192,14.5284705 L62.0799207,14.5284705 C61.8962785,14.5284705 61.7534479,14.4366508 61.6514244,14.2530087 L58.5784944,8.74989288 C58.5907372,8.85599723 58.5999192,8.96005956 58.6060406,9.06208298 C58.612162,9.1641064 58.6152226,9.25796654 58.6152226,9.34366621 L58.6152226,15.7894737 L57.5745889,15.7894737 L57.5745889,7.01754386 L58.4499455,7.01754386 C58.5560499,7.01754386 58.6376674,7.02774605 58.6948005,7.04815073 C58.7519336,7.06855542 58.8070254,7.12568768 58.8600776,7.21954922 L61.8901581,12.6186016 Z" id="AM" fill="#01B6F5" fill-rule="nonzero"></path>
                    <path d="M76.3157895,6.14035088 L76.3157895,6.14035088 C77.7691704,6.14035088 78.9473684,7.3185489 78.9473684,8.77192982 L78.9473684,14.0350877 C78.9473684,15.4884686 77.7691704,16.6666667 76.3157895,16.6666667 L76.3157895,16.6666667 C74.8624086,16.6666667 73.6842105,15.4884686 73.6842105,14.0350877 L73.6842105,8.77192982 C73.6842105,7.3185489 74.8624086,6.14035088 76.3157895,6.14035088 Z" id="Rectangle" fill="#FFFFFF" transform="translate(76.315789, 11.403509) rotate(-540.000000) translate(-76.315789, -11.403509) "></path>
                    <path d="M78.8601371,8.49436731 C80.4380057,8.49436731 81.7286582,9.77833939 81.7286582,11.3488774 C81.7286582,12.9194153 80.4380057,14.2033874 78.8601371,14.2033874 L73.791877,14.2033874 C72.2140084,14.2033874 70.9233559,12.9194153 70.9233559,11.3488774 C70.9233559,9.77833939 72.2140084,8.49436731 73.791877,8.49436731 L78.8601371,8.49436731 Z M78.8601371,8.81754367 L73.791877,8.81754367 C72.3921194,8.81754367 71.2465322,9.95720127 71.2465322,11.3488774 C71.2465322,12.7405534 72.3921194,13.880211 73.791877,13.880211 L78.8601371,13.880211 C80.2598947,13.880211 81.4054818,12.7405534 81.4054818,11.3488774 C81.4054818,9.95720127 80.2598947,8.81754367 78.8601371,8.81754367 Z" id="Path" fill="#E3E5ED" fill-rule="nonzero" transform="translate(76.326007, 11.348877) rotate(-270.000000) translate(-76.326007, -11.348877) "></path>
                    <path d="M76.1736569,9.30403486 C75.8934764,9.30403486 75.6663452,9.0749408 75.6663452,8.79233895 C75.6663452,8.50973711 75.8934764,8.28064305 76.1736569,8.28064305 L76.4695888,8.28064305 C76.7497693,8.28064305 76.9769005,8.50973711 76.9769005,8.79233895 C76.9769005,9.0749408 76.7497693,9.30403486 76.4695888,9.30403486 L76.1736569,9.30403486 Z" id="Path" fill="#01B6F5" fill-rule="nonzero" transform="translate(76.321623, 8.792339) rotate(-270.000000) translate(-76.321623, -8.792339) "></path>
                    <path d="M76.1736569,14.6688203 C75.8934764,14.6688203 75.6663452,14.4397262 75.6663452,14.1571244 C75.6663452,13.8745225 75.8934764,13.6454285 76.1736569,13.6454285 L76.4695888,13.6454285 C76.7497693,13.6454285 76.9769005,13.8745225 76.9769005,14.1571244 C76.9769005,14.4397262 76.7497693,14.6688203 76.4695888,14.6688203 L76.1736569,14.6688203 Z" id="Path" fill="#01B6F5" fill-rule="nonzero" transform="translate(76.321623, 14.157124) rotate(-270.000000) translate(-76.321623, -14.157124) "></path>
                    <polygon id="Path" fill="#E3E5ED" fill-rule="nonzero" points="73.5596491 11.675 73.5596491 11.325 78.9096491 11.325 78.9096491 11.675"></polygon>
                </g>
                <path d="M85.9649123,6.57894737 C85.9649123,5.61002675 86.7501646,4.8245614 87.7192982,4.8245614 C88.6882189,4.8245614 89.4736842,5.60981372 89.4736842,6.57894737 C89.4736842,7.54786798 88.6884319,8.33333333 87.7192982,8.33333333 C86.7503776,8.33333333 85.9649123,7.54808102 85.9649123,6.57894737 Z" id="Path" fill="#F4F6F9" fill-rule="nonzero" transform="translate(87.719298, 6.578947) scale(-1, 1) translate(-87.719298, -6.578947) "></path>
                <g id="Group-123" transform="translate(18.421053, 39.035088)">
                    <g id="Group-4" fill-rule="nonzero">
                        <path d="M19.9259466,0.230840259 C22.2306845,0.230840259 24.1159064,2.10630427 24.1159064,4.40030773 C24.1159064,6.69431118 22.2306845,8.5697752 19.9259466,8.5697752 L4.21596104,8.5697752 C1.91122313,8.5697752 0.0260012379,6.69431118 0.0260012379,4.40030773 C0.0260012379,2.10630427 1.91122313,0.230840259 4.21596104,0.230840259 L19.9259466,0.230840259 Z M19.9259466,0.692520776 L4.21596104,0.692520776 C2.16566745,0.692520776 0.487681755,2.36182125 0.487681755,4.40030773 C0.487681755,6.43879421 2.16566745,8.10809468 4.21596104,8.10809468 L19.9259466,8.10809468 C21.9762402,8.10809468 23.6542258,6.43879421 23.6542258,4.40030773 C23.6542258,2.36182125 21.9762402,0.692520776 19.9259466,0.692520776 Z" id="Path"></path>
                        <path d="M5.07975404,5.14229427 C4.66996619,5.14229427 4.3377675,4.81009558 4.3377675,4.40030773 C4.3377675,3.99051987 4.66996619,3.65832118 5.07975404,3.65832118 L18.71994,3.65832118 C19.1297279,3.65832118 19.4619266,3.99051987 19.4619266,4.40030773 C19.4619266,4.81009558 19.1297279,5.14229427 18.71994,5.14229427 L5.07975404,5.14229427 Z" id="Line-2" fill="#01B6F5"></path>
                    </g>
                    <g id="Group-5" transform="translate(32.015261, 0.461681)">
                        <path d="M20.8714227,-1.0658141e-14 L4.01619543,-1.0658141e-14 C1.83867968,-1.0658141e-14 0.0570758881,1.77238224 0.0570758881,3.93862721 C0.0570758881,6.10487218 1.83867968,7.87725442 4.01619543,7.87725442 L20.8714227,7.87725442 C23.0489384,7.87725442 24.8305422,6.10487218 24.8305422,3.93862721 C24.8305422,1.77238224 23.0489384,-1.0658141e-14 20.8714227,-1.0658141e-14 Z" id="Path" fill="#01B6F5"></path>
                        <path d="M9.03786118,4.68061376 C8.62807333,4.68061376 8.29587464,4.34841506 8.29587464,3.93862721 C8.29587464,3.52883936 8.62807333,3.19664066 9.03786118,3.19664066 L15.5219992,3.19664066 C15.931787,3.19664066 16.2639857,3.52883936 16.2639857,3.93862721 C16.2639857,4.34841506 15.931787,4.68061376 15.5219992,4.68061376 L9.03786118,4.68061376 Z" id="Line-2" fill="#FFFFFF" fill-rule="nonzero"></path>
                    </g>
                </g>
            </g>
        </g>
    </g>
</svg>