<?xml version="1.0" encoding="UTF-8"?>
<svg width="152px" height="75px" viewBox="0 0 152 75" version="1.1" xmlns="http://www.w3.org/2000/svg" xmlns:xlink="http://www.w3.org/1999/xlink">
    <!-- Generator: Sketch 64 (93537) - https://sketch.com -->
    <title>TimeSelectModal</title>
    <desc>Created with Sketch.</desc>
    <g id="pages" stroke="none" stroke-width="1" fill="none" fill-rule="evenodd">
        <g id="TimeSelectModal">
            <path d="M3.60462131,0 L147.932915,0 C149.82765,0 151.363636,1.53598611 151.363636,3.430721 L151.363636,71.1874608 C151.363636,73.0821957 149.82765,74.6181818 147.932915,74.6181818 L3.60462131,74.6181818 C1.70988642,74.6181818 0.173900306,73.0821957 0.173900306,71.1874608 L0.173900306,3.430721 C0.173900306,1.53598611 1.70988642,0 3.60462131,0 Z" id="Rectangle" fill="#E3E5ED" fill-rule="nonzero"></path>
            <g id="Group-125" transform="translate(34.442006, 4.205016)">
                <g id="Group-187" transform="translate(0.557994, 12.090909)">
                    <path d="M-1.42108547e-14,6.121446 C-1.42108547e-14,2.74066473 2.69950532,1.63424829e-13 6.03514394,1.63424829e-13 L73.354232,1.63424829e-13 C77.5093523,1.63424829e-13 80.8777429,3.3683906 80.8777429,7.52351097 L80.8777429,35.3605016 C80.8777429,39.5156219 77.5093523,42.8840125 73.354232,42.8840125 L6.03514394,42.8840125 C2.70202598,42.8840125 -1.42108547e-14,40.1361884 -1.42108547e-14,36.7625665 L-1.42108547e-14,6.121446 Z" id="Path" fill="#FFFFFF" fill-rule="nonzero"></path>
                    <g id="Group-122" transform="translate(5.266458, 10.532915)">
                        <path d="M1.50470219,0 L68.4639498,0 C69.2949739,0 69.968652,0.673678119 69.968652,1.50470219 L69.968652,18.0564263 C69.968652,18.8874504 69.2949739,19.5611285 68.4639498,19.5611285 L1.50470219,19.5611285 C0.673678119,19.5611285 0,18.8874504 0,18.0564263 L0,1.50470219 C0,0.673678119 0.673678119,0 1.50470219,0 Z" id="Path" fill="#F4F6F9" fill-rule="nonzero"></path>
                        <path d="M2.25705329,0.752351097 L16.5517241,0.752351097 C17.3827482,0.752351097 18.0564263,1.42602922 18.0564263,2.25705329 L18.0564263,17.3040752 C18.0564263,18.1350993 17.3827482,18.8087774 16.5517241,18.8087774 L2.25705329,18.8087774 C1.42602922,18.8087774 0.752351097,18.1350993 0.752351097,17.3040752 L0.752351097,2.25705329 C0.752351097,1.42602922 1.42602922,0.752351097 2.25705329,0.752351097 Z" id="Path" fill="#01B6F5" fill-rule="nonzero"></path>
                        <path d="M4.20662396,12.895952 L5.81861796,12.895952 L5.81861796,7.78258144 C5.81861796,7.62905743 5.82385166,7.47379116 5.8343192,7.31677797 L4.49448003,8.46296852 C4.45958821,8.49088197 4.42469692,8.51094447 4.3898051,8.5231566 C4.35491328,8.53536874 4.32176655,8.54147472 4.29036391,8.54147472 C4.23802618,8.54147472 4.19092293,8.53013505 4.14905275,8.50745536 C4.10718256,8.48477568 4.0757804,8.45773493 4.0548453,8.42633229 L3.76175549,8.02333379 L5.99133161,6.09208123 L6.75022489,6.09208123 L6.75022489,12.895952 L8.22614147,12.895952 L8.22614147,13.6077416 L4.20662396,13.6077416 L4.20662396,12.895952 Z M14.8599155,9.8603789 C14.8599155,10.5163451 14.7892606,11.084201 14.6479488,11.5639635 C14.5066369,12.043726 14.3138625,12.4406145 14.0696197,12.7546409 C13.825377,13.0686672 13.5366515,13.3024389 13.2034346,13.4559629 C12.8702178,13.6094869 12.5134543,13.6862478 12.1331334,13.6862478 C11.7493234,13.6862478 11.3925599,13.6094869 11.0628322,13.4559629 C10.7331045,13.3024389 10.4461236,13.0686672 10.2018809,12.7546409 C9.95763814,12.4406145 9.76573601,12.043726 9.62616873,11.5639635 C9.48660146,11.084201 9.41681886,10.5163451 9.41681886,9.8603789 C9.41681886,9.20441269 9.48660146,8.63568457 9.62616873,8.15417746 C9.76573601,7.67267035 9.95763814,7.27403729 10.2018809,6.95826632 C10.4461236,6.64249535 10.7331045,6.40785139 11.0628322,6.25432738 C11.3925599,6.10080338 11.7493234,6.02404252 12.1331334,6.02404252 C12.5134543,6.02404252 12.8702178,6.10080338 13.2034346,6.25432738 C13.5366515,6.40785139 13.825377,6.64249535 14.0696197,6.95826632 C14.3138625,7.27403729 14.5066369,7.67267035 14.6479488,8.15417746 C14.7892606,8.63568457 14.8599155,9.20441269 14.8599155,9.8603789 Z M13.8916723,9.8603789 C13.8916723,9.28815306 13.8436968,8.80752546 13.7477443,8.41848167 C13.6517918,8.02943788 13.522694,7.7162885 13.360447,7.47902412 C13.1982001,7.24175975 13.0106594,7.07166468 12.7978193,6.96873381 C12.5849792,6.86580295 12.3634194,6.81433829 12.1331334,6.81433829 C11.9028474,6.81433829 11.6812877,6.86580295 11.4684476,6.96873381 C11.2556075,7.07166468 11.0689391,7.24175975 10.9084367,7.47902412 C10.7479343,7.7162885 10.6197088,8.02943788 10.5237563,8.41848167 C10.4278038,8.80752546 10.3798283,9.28815306 10.3798283,9.8603789 C10.3798283,10.4326047 10.4278038,10.9123601 10.5237563,11.2996593 C10.6197088,11.6869585 10.7479343,11.9992356 10.9084367,12.2364999 C11.0689391,12.4737643 11.2556075,12.6438594 11.4684476,12.7467902 C11.6812877,12.8497211 11.9028474,12.9011858 12.1331334,12.9011858 C12.3634194,12.9011858 12.5849792,12.8497211 12.7978193,12.7467902 C13.0106594,12.6438594 13.1982001,12.4737643 13.360447,12.2364999 C13.522694,11.9992356 13.6517918,11.6869585 13.7477443,11.2996593 C13.8436968,10.9123601 13.8916723,10.4326047 13.8916723,9.8603789 Z" id="10" fill="#FFFFFF"></path>
                        <path d="M20.0243151,12.7049203 C20.0243151,12.6142015 20.0462815,12.5287179 20.0902151,12.4484667 C20.1341486,12.3682155 20.1942673,12.2984329 20.2705729,12.2391168 C20.3468785,12.1798007 20.4382126,12.1326975 20.544578,12.0978056 C20.6509434,12.0629138 20.7642439,12.0454682 20.8844831,12.0454682 C21.0047222,12.0454682 21.1180227,12.0629138 21.2243881,12.0978056 C21.3307535,12.1326975 21.4232438,12.1798007 21.5018617,12.2391168 C21.5804796,12.2984329 21.6417544,12.3682155 21.6856879,12.4484667 C21.7296214,12.5287179 21.7515878,12.6142015 21.7515878,12.7049203 C21.7515878,12.7991282 21.7296214,12.8854841 21.6856879,12.9639907 C21.6417544,13.0424973 21.5804796,13.1114076 21.5018617,13.1707237 C21.4232438,13.2300398 21.3307535,13.2762708 21.2243881,13.309418 C21.1180227,13.3425652 21.0047222,13.3591386 20.8844831,13.3591386 C20.7642439,13.3591386 20.6509434,13.3425652 20.544578,13.309418 C20.4382126,13.2762708 20.3468785,13.2300398 20.2705729,13.1707237 C20.1942673,13.1114076 20.1341486,13.0424973 20.0902151,12.9639907 C20.0462815,12.8854841 20.0243151,12.7991282 20.0243151,12.7049203 Z M20.0243151,8.77961019 C20.0243151,8.68889146 20.0462815,8.60340779 20.0902151,8.5231566 C20.1341486,8.44290542 20.1942673,8.37312283 20.2705729,8.31380673 C20.3468785,8.25449064 20.4382126,8.20738739 20.544578,8.17249557 C20.6509434,8.13760375 20.7642439,8.1201581 20.8844831,8.1201581 C21.0047222,8.1201581 21.1180227,8.13760375 21.2243881,8.17249557 C21.3307535,8.20738739 21.4232438,8.25449064 21.5018617,8.31380673 C21.5804796,8.37312283 21.6417544,8.44290542 21.6856879,8.5231566 C21.7296214,8.60340779 21.7515878,8.68889146 21.7515878,8.77961019 C21.7515878,8.87381811 21.7296214,8.96017407 21.6856879,9.03868066 C21.6417544,9.11718725 21.5804796,9.18609756 21.5018617,9.24541366 C21.4232438,9.30472975 21.3307535,9.35096072 21.2243881,9.38410795 C21.1180227,9.41725517 21.0047222,9.43382854 20.8844831,9.43382854 C20.7642439,9.43382854 20.6509434,9.41725517 20.544578,9.38410795 C20.4382126,9.35096072 20.3468785,9.30472975 20.2705729,9.24541366 C20.1942673,9.18609756 20.1341486,9.11718725 20.0902151,9.03868066 C20.0462815,8.96017407 20.0243151,8.87381811 20.0243151,8.77961019 Z" id=":" fill="#01B6F5"></path>
                        <path d="M28.1811094,6.02404252 C28.498625,6.02404252 28.795201,6.07114577 29.0708464,6.16535369 C29.3464918,6.2595616 29.5846249,6.39650994 29.7852528,6.57620281 C29.9858808,6.75589568 30.1437639,6.97483856 30.2589069,7.23303803 C30.3740499,7.49123749 30.4316206,7.78432438 30.4316206,8.11230748 C30.4316206,8.39144204 30.389751,8.64963763 30.3060106,8.886902 C30.2222703,9.12416638 30.1088736,9.35183208 29.9658171,9.56990596 C29.8227606,9.78797983 29.6578993,9.99907217 29.471228,10.2031893 C29.2845568,10.4073065 29.0865487,10.615782 28.8771978,10.8286221 L26.9040752,12.8488483 C27.0436425,12.8104673 27.1849523,12.7799374 27.3280087,12.7572577 C27.4710652,12.7345781 27.6088858,12.7232384 27.7414747,12.7232384 L30.2536732,12.7232384 C30.3548594,12.7232384 30.4351094,12.752896 30.4944255,12.8122121 C30.5537416,12.8715282 30.5833992,12.948289 30.5833992,13.0424969 L30.5833992,13.6077416 L25.5799373,13.6077416 L25.5799373,13.288483 C25.5799373,13.2221886 25.5930215,13.1541505 25.6191904,13.0843669 C25.6453593,13.0145833 25.6881011,12.9500344 25.7474172,12.8907183 L28.149707,10.477961 C28.3485903,10.2755885 28.5300251,10.0810695 28.6940166,9.89439826 C28.8580082,9.70772702 28.9984456,9.5201863 29.1153332,9.33177048 C29.2322208,9.14335465 29.3220659,8.95232481 29.3848712,8.75867521 C29.4476765,8.56502561 29.4790786,8.35829468 29.4790786,8.13847622 C29.4790786,7.91865775 29.4441873,7.72588334 29.3744037,7.5601472 C29.3046201,7.39441106 29.208669,7.25746272 29.0865476,7.14929808 C28.9644263,7.04113344 28.821372,6.96001117 28.6573804,6.90592885 C28.4933888,6.85184653 28.3171878,6.82480578 28.128772,6.82480578 C27.9403562,6.82480578 27.7658997,6.85271882 27.6053973,6.90854573 C27.4448949,6.96437264 27.3027129,7.04200577 27.1788469,7.14144746 C27.054981,7.24088914 26.9503071,7.35864727 26.8648221,7.49472536 C26.7793372,7.63080346 26.7191497,7.78083603 26.6842579,7.94482759 C26.6563444,8.04601386 26.6144749,8.11928558 26.5586479,8.16464495 C26.502821,8.21000432 26.4295493,8.23268366 26.3388306,8.23268366 C26.3213847,8.23268366 26.3030667,8.23181138 26.2838762,8.23006678 C26.2646857,8.22832219 26.2428787,8.22570535 26.2184544,8.22221616 L25.731716,8.13847622 C25.7805645,7.79653638 25.874771,7.49385439 26.0143383,7.23042115 C26.1539056,6.96698792 26.3309789,6.74630047 26.5455636,6.56835219 C26.7601483,6.39040391 27.0061319,6.25520014 27.2835219,6.16273681 C27.5609118,6.07027349 27.8601047,6.02404252 28.1811094,6.02404252 Z M37.1910045,9.8603789 C37.1910045,10.5163451 37.1203496,11.084201 36.9790378,11.5639635 C36.8377259,12.043726 36.6449515,12.4406145 36.4007087,12.7546409 C36.156466,13.0686672 35.8677405,13.3024389 35.5345236,13.4559629 C35.2013068,13.6094869 34.8445433,13.6862478 34.4642224,13.6862478 C34.0804124,13.6862478 33.7236489,13.6094869 33.3939212,13.4559629 C33.0641935,13.3024389 32.7772126,13.0686672 32.5329699,12.7546409 C32.2887271,12.4406145 32.096825,12.043726 31.9572577,11.5639635 C31.8176905,11.084201 31.7479079,10.5163451 31.7479079,9.8603789 C31.7479079,9.20441269 31.8176905,8.63568457 31.9572577,8.15417746 C32.096825,7.67267035 32.2887271,7.27403729 32.5329699,6.95826632 C32.7772126,6.64249535 33.0641935,6.40785139 33.3939212,6.25432738 C33.7236489,6.10080338 34.0804124,6.02404252 34.4642224,6.02404252 C34.8445433,6.02404252 35.2013068,6.10080338 35.5345236,6.25432738 C35.8677405,6.40785139 36.156466,6.64249535 36.4007087,6.95826632 C36.6449515,7.27403729 36.8377259,7.67267035 36.9790378,8.15417746 C37.1203496,8.63568457 37.1910045,9.20441269 37.1910045,9.8603789 Z M36.2227613,9.8603789 C36.2227613,9.28815306 36.1747858,8.80752546 36.0788333,8.41848167 C35.9828808,8.02943788 35.853783,7.7162885 35.6915361,7.47902412 C35.5292891,7.24175975 35.3417484,7.07166468 35.1289083,6.96873381 C34.9160682,6.86580295 34.6945084,6.81433829 34.4642224,6.81433829 C34.2339364,6.81433829 34.0123767,6.86580295 33.7995366,6.96873381 C33.5866965,7.07166468 33.4000281,7.24175975 33.2395257,7.47902412 C33.0790233,7.7162885 32.9507978,8.02943788 32.8548453,8.41848167 C32.7588928,8.80752546 32.7109173,9.28815306 32.7109173,9.8603789 C32.7109173,10.4326047 32.7588928,10.9123601 32.8548453,11.2996593 C32.9507978,11.6869585 33.0790233,11.9992356 33.2395257,12.2364999 C33.4000281,12.4737643 33.5866965,12.6438594 33.7995366,12.7467902 C34.0123767,12.8497211 34.2339364,12.9011858 34.4642224,12.9011858 C34.6945084,12.9011858 34.9160682,12.8497211 35.1289083,12.7467902 C35.3417484,12.6438594 35.5292891,12.4737643 35.6915361,12.2364999 C35.853783,11.9992356 35.9828808,11.6869585 36.0788333,11.2996593 C36.1747858,10.9123601 36.2227613,10.4326047 36.2227613,9.8603789 Z" id="20" fill="#01B6F5"></path>
                        <path d="M48.4303049,13.5423197 L47.6427776,13.5423197 C47.551774,13.5423197 47.4782722,13.5195692 47.42227,13.4740674 C47.3662677,13.4285656 47.3242667,13.3708142 47.2962656,13.3008114 L46.5927412,11.4842484 L43.2168741,11.4842484 L42.5133497,13.3008114 C42.4888487,13.3638139 42.4468477,13.4198153 42.3873453,13.4688172 C42.3278429,13.5178191 42.2543411,13.5423197 42.1668377,13.5423197 L41.3793103,13.5423197 L44.3876647,6.01880878 L45.4219506,6.01880878 L48.4303049,13.5423197 Z M43.5003839,10.7492229 L46.3092314,10.7492229 L45.1279404,7.68836669 C45.0509373,7.49935919 44.9756855,7.26310336 44.9021825,6.9795921 C44.863681,7.1230978 44.8260551,7.25522606 44.7893036,7.37598085 C44.7525522,7.49673565 44.7166763,7.60261326 44.6816749,7.69361687 L43.5003839,10.7492229 Z M53.0819663,10.8227254 C53.1309682,10.9067287 53.1738443,10.9951059 53.2105957,11.0878596 C53.2473472,11.1806133 53.2832231,11.2742406 53.3182245,11.3687444 C53.3532259,11.2707405 53.3899768,11.1771132 53.4284783,11.0878596 C53.4669798,10.9986061 53.5107309,10.9084788 53.5597329,10.8174752 L56.1060712,6.19206479 C56.151573,6.11156159 56.1988242,6.06256038 56.2478261,6.04505969 C56.296828,6.02755899 56.3668298,6.01880878 56.4578334,6.01880878 L57.2086094,6.01880878 L57.2086094,13.5423197 L56.3160785,13.5423197 L56.3160785,8.01387798 C56.3160785,7.94037506 56.3178285,7.86162312 56.3213286,7.77761979 C56.3248288,7.69361645 56.3300789,7.60786434 56.3370792,7.52036086 L53.7592398,12.224524 C53.6717363,12.3820303 53.5492333,12.4607822 53.391727,12.4607822 L53.2447219,12.4607822 C53.0872157,12.4607822 52.9647127,12.3820303 52.8772092,12.224524 L50.2416178,7.50461032 C50.2521182,7.59561393 50.2599934,7.68486613 50.2652436,7.7723696 C50.2704938,7.85987308 50.2731188,7.94037506 50.2731188,8.01387798 L50.2731188,13.5423197 L49.3805879,13.5423197 L49.3805879,6.01880878 L50.1313639,6.01880878 C50.2223675,6.01880878 50.2923693,6.02755899 50.3413712,6.04505969 C50.3903732,6.06256038 50.4376243,6.11156159 50.4831261,6.19206479 L53.0819663,10.8227254 Z" id="AM" fill="#01B6F5" fill-rule="nonzero"></path>
                        <path d="M65.4545455,5.26645768 C66.7010816,5.26645768 67.7115987,6.27697486 67.7115987,7.52351097 L67.7115987,12.0376176 C67.7115987,13.2841537 66.7010816,14.2946708 65.4545455,14.2946708 C64.2080093,14.2946708 63.1974922,13.2841537 63.1974922,12.0376176 L63.1974922,7.52351097 C63.1974922,6.27697486 64.2080093,5.26645768 65.4545455,5.26645768 Z" id="Rectangle" fill="#FFFFFF" transform="translate(65.454545, 9.780564) rotate(-540.000000) translate(-65.454545, -9.780564) "></path>
                        <path d="M67.6367822,7.28545108 C68.9900889,7.28545108 70.0970561,8.38668858 70.0970561,9.73370797 C70.0970561,11.0807274 68.9900889,12.1819649 67.6367822,12.1819649 L63.2898355,12.1819649 C61.9365288,12.1819649 60.8295617,11.0807274 60.8295617,9.73370797 C60.8295617,8.38668858 61.9365288,7.28545108 63.2898355,7.28545108 L67.6367822,7.28545108 Z M67.6367822,7.56263307 L63.2898355,7.56263307 C62.0892911,7.56263307 61.1067436,8.54009488 61.1067436,9.73370797 C61.1067436,10.9273211 62.0892911,11.9047829 63.2898355,11.9047829 L67.6367822,11.9047829 C68.8373266,11.9047829 69.8198741,10.9273211 69.8198741,9.73370797 C69.8198741,8.54009488 68.8373266,7.56263307 67.6367822,7.56263307 Z" id="Path" fill="#E3E5ED" fill-rule="nonzero" transform="translate(65.463309, 9.733708) rotate(-270.000000) translate(-65.463309, -9.733708) "></path>
                        <path d="M65.3326412,7.97988695 C65.0923359,7.97988695 64.8975299,7.7833975 64.8975299,7.54101548 C64.8975299,7.29863346 65.0923359,7.102144 65.3326412,7.102144 L65.5864561,7.102144 C65.8267614,7.102144 66.0215673,7.29863346 66.0215673,7.54101548 C66.0215673,7.7833975 65.8267614,7.97988695 65.5864561,7.97988695 L65.3326412,7.97988695 Z" id="Path" fill="#01B6F5" fill-rule="nonzero" transform="translate(65.459549, 7.541015) rotate(-270.000000) translate(-65.459549, -7.541015) "></path>
                        <path d="M65.3326412,12.5811575 C65.0923359,12.5811575 64.8975299,12.384668 64.8975299,12.142286 C64.8975299,11.899904 65.0923359,11.7034145 65.3326412,11.7034145 L65.5864561,11.7034145 C65.8267614,11.7034145 66.0215673,11.899904 66.0215673,12.142286 C66.0215673,12.384668 65.8267614,12.5811575 65.5864561,12.5811575 L65.3326412,12.5811575 Z" id="Path" fill="#01B6F5" fill-rule="nonzero" transform="translate(65.459549, 12.142286) rotate(-270.000000) translate(-65.459549, -12.142286) "></path>
                        <polygon id="Path" fill="#E3E5ED" fill-rule="nonzero" points="63.0906583 10.0134169 63.0906583 9.71322884 67.6792476 9.71322884 67.6792476 10.0134169"></polygon>
                    </g>
                    <path d="M73.7304075,5.64263323 C73.7304075,4.81160915 74.4039029,4.13793103 75.2351097,4.13793103 C76.0661338,4.13793103 76.7398119,4.81142643 76.7398119,5.64263323 C76.7398119,6.4736573 76.0663165,7.14733542 75.2351097,7.14733542 C74.4040856,7.14733542 73.7304075,6.47384002 73.7304075,5.64263323 Z" id="Path" fill-opacity="0.142400568" fill="#000000" fill-rule="nonzero" transform="translate(75.235110, 5.642633) scale(-1, 1) translate(-75.235110, -5.642633) "></path>
                    <g id="Group-123" transform="translate(15.799373, 33.479624)">
                        <g id="Group-4" fill-rule="nonzero">
                            <path d="M17.0900908,0.197987131 C19.066819,0.197987131 20.6837366,1.80653558 20.6837366,3.77405703 C20.6837366,5.74157849 19.066819,7.35012694 17.0900908,7.35012694 L3.61594652,7.35012694 C1.63921833,7.35012694 0.0223007483,5.74157849 0.0223007483,3.77405703 C0.0223007483,1.80653558 1.63921833,0.197987131 3.61594652,0.197987131 L17.0900908,0.197987131 Z M17.0900908,0.593961393 L3.61594652,0.593961393 C1.8574502,0.593961393 0.41827501,2.02568744 0.41827501,3.77405703 C0.41827501,5.52242663 1.8574502,6.95415268 3.61594652,6.95415268 L17.0900908,6.95415268 C18.8485872,6.95415268 20.2877624,5.52242663 20.2877624,3.77405703 C20.2877624,2.02568744 18.8485872,0.593961393 17.0900908,0.593961393 Z" id="Path"></path>
                            <path d="M4.35680472,4.86494256 C4.00533777,4.86494256 3.72041751,4.47827939 3.72041751,4.00130619 C3.72041751,3.524333 4.00533777,3.13766983 4.35680472,3.13766983 L16.0557229,3.13766983 C16.4071898,3.13766983 16.6921101,3.524333 16.6921101,4.00130619 C16.6921101,4.47827939 16.4071898,4.86494256 16.0557229,4.86494256 L4.35680472,4.86494256 Z" id="Line-2" fill="#01B6F5"></path>
                        </g>
                        <g id="Group-5" transform="translate(27.458857, 0.395974)">
                            <path d="M17.901007,-9.14127708e-15 L3.44461151,-9.14127708e-15 C1.57699925,-9.14127708e-15 0.048952862,1.52013725 0.048952862,3.37808277 C0.048952862,5.2360283 1.57699925,6.75616555 3.44461151,6.75616555 L17.901007,6.75616555 C19.7686193,6.75616555 21.2966657,5.2360283 21.2966657,3.37808277 C21.2966657,1.52013725 19.7686193,-9.14127708e-15 17.901007,-9.14127708e-15 Z" id="Path" fill="#01B6F5"></path>
                            <path d="M7.75159505,4.46896829 C7.4001281,4.46896829 7.11520784,4.08230512 7.11520784,3.60533193 C7.11520784,3.12835874 7.4001281,2.74169557 7.75159505,2.74169557 L13.3129121,2.74169557 C13.6643791,2.74169557 13.9492993,3.12835874 13.9492993,3.60533193 C13.9492993,4.08230512 13.6643791,4.46896829 13.3129121,4.46896829 L7.75159505,4.46896829 Z" id="Line-2" fill="#FFFFFF" fill-rule="nonzero"></path>
                        </g>
                    </g>
                </g>
                <path d="M108.285266,2.4815047 C108.285266,1.65048063 108.958762,0.976802508 109.789969,0.976802508 C110.620993,0.976802508 111.294671,1.65029791 111.294671,2.4815047 C111.294671,3.31252878 110.621175,3.9862069 109.789969,3.9862069 C108.958945,3.9862069 108.285266,3.3127115 108.285266,2.4815047 Z" id="Path-Copy-25" fill-opacity="0.179223121" fill="#000000" fill-rule="nonzero" transform="translate(109.789969, 2.481505) scale(-1, 1) translate(-109.789969, -2.481505) "></path>
            </g>
        </g>
    </g>
</svg>