<?xml version="1.0" encoding="UTF-8"?>
<svg width="145px" height="87px" viewBox="0 0 145 87" version="1.1" xmlns="http://www.w3.org/2000/svg" xmlns:xlink="http://www.w3.org/1999/xlink">
    <!-- Generator: Sketch 52.6 (67491) - http://www.bohemiancoding.com/sketch -->
    <title>TimePicker</title>
    <desc>Created with Sketch.</desc>
    <defs>
        <linearGradient x1="100%" y1="-27.4761906%" x2="25.9928081%" y2="110.393365%" id="linearGradient-1">
            <stop stop-color="#45C7FA" offset="0%"></stop>
            <stop stop-color="#2196F3" offset="100%"></stop>
        </linearGradient>
    </defs>
    <g id="pages" stroke="none" stroke-width="1" fill="none" fill-rule="evenodd">
        <g id="componentes-V2" transform="translate(-385.000000, -1478.000000)">
            <g id="TimePicker" transform="translate(385.000000, 1478.000000)">
                <path d="M4,0 L141,0 C143.209139,-4.05812251e-16 145,1.790861 145,4 L145,83 C145,85.209139 143.209139,87 141,87 L4,87 C1.790861,87 2.705415e-16,85.209139 0,83 L0,4 C-2.705415e-16,1.790861 1.790861,4.05812251e-16 4,0 Z" id="Rectangle" fill="#E3E5ED" fill-rule="nonzero"></path>
                <g id="Group-116" transform="translate(19.000000, 15.000000)" fill-rule="nonzero">
                    <g id="Group-112">
                        <g id="z-embedded-/-List-Box" transform="translate(0.000000, 0.500000)" fill="#FFFFFF">
                            <path d="M0,8.13642198 C0,3.6428002 3.58809249,0 8.02171215,0 L61,0 L61,57 L8.02171215,57 C3.59144286,57 0,53.3476838 0,48.863578 L0,8.13642198 Z" id="overflow-bkgd"></path>
                        </g>
                        <path d="M61.6517572,2 L61.6517572,56 L99.1693291,56 C103.035322,56 106.169329,52.8659932 106.169329,49 L106.169329,9 C106.169329,5.13400675 103.035322,2 99.1693291,2 L61.6517572,2 Z M60.6517572,1 L99.1693291,1 C103.587607,1 107.169329,4.581722 107.169329,9 L107.169329,49 C107.169329,53.418278 103.587607,57 99.1693291,57 L60.6517572,57 L60.6517572,1 Z" id="Rectangle-23" fill="#44BDFB"></path>
                        <path d="M99.1693291,0.5 C103.863749,0.5 107.669329,4.30557963 107.669329,9 L107.669329,49 C107.669329,53.6944204 103.863749,57.5 99.1693291,57.5 L56.1517572,57.5 L56.1517572,0.5 L99.1693291,0.5 Z" id="Rectangle-23" fill="url(#linearGradient-1)"></path>
                        <path d="M99.0734824,32.1469649 C98.4806145,32.1469649 98,31.6663504 98,31.0734824 C98,30.4806145 98.4806145,30 99.0734824,30 L101.565495,30 C102.158363,30 102.638978,30.4806145 102.638978,31.0734824 C102.638978,31.6663504 102.158363,32.1469649 101.565495,32.1469649 L99.0734824,32.1469649 Z" id="Line-12-Copy-2" fill="#FFFFFF"></path>
                        <path d="M100,9 C98.8954305,9 98,8.1045695 98,7 C98,5.8954305 98.8954305,5 100,5 L101.4,5 C102.504569,5 103.4,5.8954305 103.4,7 C103.4,8.1045695 102.504569,9 101.4,9 L100,9 Z" id="Line-12-Copy-2" fill="#C4EAFC" opacity="0.703148251"></path>
                    </g>
                </g>
                <path d="M83.4245653,46.6450015 L85.614783,46.6450015 L85.614783,38.9084785 C85.614783,38.7557251 85.6215222,38.593986 85.6350004,38.423261 L83.5323914,40.2900005 C83.4874639,40.3304352 83.4335509,40.3506526 83.3706522,40.3506526 C83.2942753,40.3506526 83.2358696,40.3236961 83.1954348,40.2697831 L83,40.0002178 L85.7563048,37.5673913 L86.2550005,37.5673913 L86.2550005,46.6450015 L88.3373922,46.6450015 L88.3373922,47.1436972 L83.4245653,47.1436972 L83.4245653,46.6450015 Z M96.4850009,42.3723921 C96.4850009,43.2080444 96.3951456,43.9313779 96.2154357,44.5423925 C96.0357254,45.1534074 95.7908704,45.6588423 95.4808703,46.0586971 C95.1708703,46.4585523 94.8080805,46.7561973 94.3925006,46.951632 C93.9769207,47.1470668 93.5332613,47.2447842 93.0615221,47.2447842 C92.5897829,47.2447842 92.1472467,47.1470668 91.7339132,46.951632 C91.3205797,46.7561972 90.9589131,46.4585522 90.648913,46.0586971 C90.338913,45.658842 90.095181,45.153407 89.9177172,44.5423925 C89.7402534,43.9313779 89.6515215,43.2080444 89.6515215,42.3723921 C89.6515215,41.5367398 89.7402534,40.8134065 89.9177172,40.2023917 C90.095181,39.5913774 90.338913,39.0859426 90.648913,38.6860872 C90.9589131,38.2862317 91.3205797,37.988587 91.7339132,37.7931522 C92.1472467,37.5977174 92.5897829,37.5 93.0615221,37.5 C93.5332613,37.5 93.9769207,37.5977174 94.3925006,37.7931522 C94.8080805,37.988587 95.1708703,38.2862317 95.4808703,38.6860872 C95.7908704,39.0859426 96.0357254,39.5913774 96.2154357,40.2023917 C96.3951456,40.8134065 96.4850009,41.5367398 96.4850009,42.3723921 Z M95.8110878,42.3723921 C95.8110878,41.5996382 95.7369573,40.9392033 95.5886964,40.3910874 C95.4404355,39.8429711 95.2416312,39.3948189 94.9922833,39.0466307 C94.7429354,38.6984425 94.4509065,38.4434784 94.1161962,38.2817393 C93.7814859,38.1200001 93.4299281,38.0391305 93.0615221,38.0391305 C92.6931161,38.0391305 92.3426815,38.1200001 92.0102176,38.2817393 C91.6777537,38.4434784 91.3857248,38.6984425 91.1341305,39.0466307 C90.8825363,39.3948189 90.6826087,39.8429711 90.5343478,40.3910874 C90.3860869,40.9392033 90.3119564,41.5996382 90.3119564,42.3723921 C90.3119564,43.1496389 90.3860869,43.8111969 90.5343478,44.3570663 C90.6826087,44.902936 90.8825363,45.3499651 91.1341305,45.6981535 C91.3857258,46.046342 91.6777549,46.3001827 92.0102176,46.4596754 C92.3426846,46.6191681 92.6931194,46.6989146 93.0615221,46.6989146 C93.4299363,46.6989146 93.7814945,46.6191681 94.1161962,46.4596754 C94.4509065,46.3001827 94.7429354,46.046342 94.9922833,45.6981535 C95.2416312,45.3499651 95.4404355,44.902936 95.5886964,44.3570663 C95.7369573,43.8111967 95.8110878,43.1496385 95.8110878,42.3723921 Z M97.9541303,46.6247841 C97.9541303,46.5394218 97.9698549,46.4585523 98.0013042,46.3821754 C98.0327536,46.3057985 98.0765579,46.2395304 98.1327173,46.183371 C98.1888767,46.1272116 98.2540217,46.082284 98.3281521,46.0485884 C98.4022826,46.0148927 98.4842754,45.9980449 98.5741304,45.9980449 C98.659496,45.9980449 98.7403656,46.0148927 98.8167392,46.0485884 C98.8931235,46.082284 98.9593917,46.1272116 99.0155435,46.183371 C99.071703,46.2395304 99.1166305,46.3057985 99.1503262,46.3821754 C99.1840218,46.4585523 99.2008697,46.5394218 99.2008697,46.6247841 C99.2008697,46.7146392 99.1840218,46.796632 99.1503262,46.8707624 C99.1166305,46.9448929 99.071703,47.0100378 99.0155435,47.0661972 C98.959384,47.1223566 98.8931161,47.166161 98.8167392,47.1976103 C98.7403623,47.2290595 98.6594928,47.2447842 98.5741304,47.2447842 C98.398913,47.2447842 98.2517753,47.1852552 98.1327173,47.0661972 C98.0136593,46.9471392 97.9541303,46.8000015 97.9541303,46.6247841 Z M97.9541303,41.2536963 C97.9541303,41.1683338 97.9698549,41.0874642 98.0013042,41.0110875 C98.0327536,40.9347108 98.0765579,40.8684424 98.1327173,40.8122832 C98.1888767,40.7561239 98.2540217,40.7111962 98.3281521,40.6775005 C98.4022826,40.6438049 98.4842754,40.626957 98.5741304,40.626957 C98.659496,40.626957 98.7403656,40.6438049 98.8167392,40.6775005 C98.8931235,40.7111962 98.9593917,40.7561239 99.0155435,40.8122832 C99.071703,40.8684902 99.1166305,40.9347581 99.1503262,41.0110875 C99.1840218,41.0874642 99.2008697,41.1683338 99.2008697,41.2536963 C99.2008697,41.3435512 99.1840218,41.4255441 99.1503262,41.4996746 C99.1166305,41.573805 99.071703,41.6389501 99.0155435,41.6951094 C98.959384,41.7512687 98.8931161,41.795073 98.8167392,41.8265224 C98.7403623,41.8579719 98.6594928,41.8736964 98.5741304,41.8736964 C98.398913,41.8736964 98.2517753,41.8141675 98.1327173,41.6951094 C98.0136593,41.5760513 97.9541303,41.4289137 97.9541303,41.2536963 Z M104.235,37.5 C104.598913,37.5 104.945979,37.5527901 105.276196,37.6583696 C105.606414,37.7640206 105.89732,37.9235131 106.148914,38.1368479 C106.400508,38.3502872 106.600436,38.6176058 106.748696,38.9388046 C106.896957,39.2600362 106.971088,39.6363047 106.971088,40.0676091 C106.971088,40.4270293 106.916051,40.7606163 106.805979,41.0683702 C106.695907,41.376124 106.546523,41.6715224 106.357827,41.9545659 C106.169131,42.2376095 105.950109,42.5127905 105.700762,42.7801096 C105.451414,43.0474286 105.189711,43.3203634 104.915653,43.598914 L101.930217,46.6450015 C102.073986,46.6090594 102.22337,46.5821029 102.37837,46.5641319 C102.53337,46.546161 102.689493,46.5371754 102.846739,46.5371754 L106.964349,46.5371754 C107.036285,46.5371754 107.093568,46.5585159 107.136197,46.6011971 C107.178878,46.6438784 107.200218,46.6989146 107.200218,46.7663059 L107.200218,47.1436972 L101.047391,47.1436972 L101.047391,46.9145668 C101.047391,46.8651465 101.059746,46.814603 101.084456,46.7629363 C101.109167,46.7112697 101.139493,46.6674653 101.175435,46.6315232 L104.430435,43.3360879 C104.7,43.0620298 104.949348,42.7969574 105.178479,42.5408704 C105.407609,42.2847834 105.606414,42.0264502 105.774892,41.7658703 C105.94337,41.5052797 106.075907,41.2379607 106.172501,40.9639136 C106.269095,40.6898555 106.317392,40.3978266 106.317392,40.0878265 C106.317392,39.7373917 106.258986,39.4330078 106.142175,39.1746742 C106.025363,38.9163405 105.86924,38.7040579 105.673805,38.5378263 C105.47837,38.3715946 105.253733,38.2480436 104.999892,38.167174 C104.746051,38.0863044 104.479855,38.0458697 104.201305,38.0458697 C103.90029,38.0458697 103.622863,38.0919207 103.369022,38.1840219 C103.115181,38.276123 102.890544,38.4041665 102.695109,38.5681523 C102.499674,38.7321382 102.337935,38.927573 102.209891,39.1544568 C102.081848,39.3813406 101.993116,39.6295656 101.943696,39.8991308 C101.898768,40.0563775 101.808913,40.1350004 101.67413,40.1350004 C101.665145,40.1350004 101.653913,40.1338775 101.640435,40.1316309 C101.626956,40.1293842 101.615725,40.1282613 101.606739,40.1282613 L101.283261,40.0743482 C101.337174,39.6655079 101.44837,39.3015948 101.616848,38.9826089 C101.785326,38.6636231 101.997609,38.3940578 102.253696,38.1739132 C102.509783,37.9537685 102.806305,37.7864131 103.143261,37.6718479 C103.480218,37.5572826 103.844131,37.5 104.235,37.5 Z M115.32087,42.3723921 C115.32087,43.2080444 115.231015,43.9313779 115.051305,44.5423925 C114.871595,45.1534074 114.62674,45.6588423 114.31674,46.0586971 C114.00674,46.4585523 113.64395,46.7561973 113.22837,46.951632 C112.81279,47.1470668 112.369131,47.2447842 111.897392,47.2447842 C111.425652,47.2447842 110.983116,47.1470668 110.569783,46.951632 C110.156449,46.7561972 109.794783,46.4585522 109.484783,46.0586971 C109.174783,45.658842 108.931051,45.153407 108.753587,44.5423925 C108.576123,43.9313779 108.487391,43.2080444 108.487391,42.3723921 C108.487391,41.5367398 108.576123,40.8134065 108.753587,40.2023917 C108.931051,39.5913774 109.174783,39.0859426 109.484783,38.6860872 C109.794783,38.2862317 110.156449,37.988587 110.569783,37.7931522 C110.983116,37.5977174 111.425652,37.5 111.897392,37.5 C112.369131,37.5 112.81279,37.5977174 113.22837,37.7931522 C113.64395,37.988587 114.00674,38.2862317 114.31674,38.6860872 C114.62674,39.0859426 114.871595,39.5913774 115.051305,40.2023917 C115.231015,40.8134065 115.32087,41.5367398 115.32087,42.3723921 Z M114.646957,42.3723921 C114.646957,41.5996382 114.572827,40.9392033 114.424566,40.3910874 C114.276305,39.8429711 114.077501,39.3948189 113.828153,39.0466307 C113.578805,38.6984425 113.286776,38.4434784 112.952066,38.2817393 C112.617355,38.1200001 112.265798,38.0391305 111.897392,38.0391305 C111.528986,38.0391305 111.178551,38.1200001 110.846087,38.2817393 C110.513623,38.4434784 110.221594,38.6984425 109.97,39.0466307 C109.718406,39.3948189 109.518478,39.8429711 109.370217,40.3910874 C109.221956,40.9392033 109.147826,41.5996382 109.147826,42.3723921 C109.147826,43.1496389 109.221956,43.8111969 109.370217,44.3570663 C109.518478,44.902936 109.718406,45.3499651 109.97,45.6981535 C110.221595,46.046342 110.513624,46.3001827 110.846087,46.4596754 C111.178554,46.6191681 111.528989,46.6989146 111.897392,46.6989146 C112.265806,46.6989146 112.617364,46.6191681 112.952066,46.4596754 C113.286776,46.3001827 113.578805,46.046342 113.828153,45.6981535 C114.077501,45.3499651 114.276305,44.902936 114.424566,44.3570663 C114.572827,43.8111967 114.646957,43.1496385 114.646957,42.3723921 Z" id="10:20" fill="#FFFFFF"></path>
                <g id="Group-118" transform="translate(30.000000, 24.000000)">
                    <g id="Group-14" transform="translate(0.000000, 11.304348)">
                        <g id="Group-12" transform="translate(0.000000, 9.782609)" fill="#01B6F5">
                            <path d="M0.99826087,6.48347826 L2.06956522,6.48347826 L2.06956522,3.08521739 C2.06956522,2.9831879 2.07304344,2.88000052 2.08,2.77565217 L1.18956522,3.5373913 C1.1663767,3.55594212 1.14318852,3.56927532 1.12,3.5773913 C1.09681148,3.58550729 1.07478271,3.58956522 1.05391304,3.58956522 C1.01913026,3.58956522 0.987826226,3.58202906 0.96,3.56695652 C0.932173774,3.55188398 0.911304417,3.53391315 0.897391304,3.51304348 L0.702608696,3.24521739 L2.18434783,1.96173913 L2.68869565,1.96173913 L2.68869565,6.48347826 L3.66956522,6.48347826 L3.66956522,6.95652174 L0.99826087,6.95652174 L0.99826087,6.48347826 Z M8.07826087,4.46608696 C8.07826087,4.90203117 8.03130482,5.2794187 7.9373913,5.59826087 C7.84347779,5.91710304 7.71536313,6.18086852 7.55304348,6.38956522 C7.39072383,6.59826191 7.19884169,6.75362268 6.9773913,6.85565217 C6.75594092,6.95768167 6.51884184,7.00869565 6.26608696,7.00869565 C6.01101322,7.00869565 5.77391414,6.95768167 5.55478261,6.85565217 C5.33565108,6.75362268 5.14492835,6.59826191 4.9826087,6.38956522 C4.82028904,6.18086852 4.69275409,5.91710304 4.6,5.59826087 C4.50724591,5.2794187 4.46086957,4.90203117 4.46086957,4.46608696 C4.46086957,4.03014275 4.50724591,3.65217551 4.6,3.33217391 C4.69275409,3.01217231 4.82028904,2.74724743 4.9826087,2.5373913 C5.14492835,2.32753518 5.33565108,2.17159471 5.55478261,2.06956522 C5.77391414,1.96753572 6.01101322,1.91652174 6.26608696,1.91652174 C6.51884184,1.91652174 6.75594092,1.96753572 6.9773913,2.06956522 C7.19884169,2.17159471 7.39072383,2.32753518 7.55304348,2.5373913 C7.71536313,2.74724743 7.84347779,3.01217231 7.9373913,3.33217391 C8.03130482,3.65217551 8.07826087,4.03014275 8.07826087,4.46608696 Z M7.43478261,4.46608696 C7.43478261,4.0857952 7.40289887,3.7663781 7.33913043,3.50782609 C7.275362,3.24927407 7.18956576,3.04116021 7.08173913,2.88347826 C6.9739125,2.72579631 6.84927607,2.61275397 6.70782609,2.54434783 C6.5663761,2.47594169 6.4191312,2.44173913 6.26608696,2.44173913 C6.11304271,2.44173913 5.96579781,2.47594169 5.82434783,2.54434783 C5.68289784,2.61275397 5.55884111,2.72579631 5.45217391,2.88347826 C5.34550671,3.04116021 5.26029017,3.24927407 5.19652174,3.50782609 C5.1327533,3.7663781 5.10086957,4.0857952 5.10086957,4.46608696 C5.10086957,4.84637871 5.1327533,5.1652161 5.19652174,5.4226087 C5.26029017,5.68000129 5.34550671,5.88753544 5.45217391,6.04521739 C5.55884111,6.20289934 5.68289784,6.31594169 5.82434783,6.38434783 C5.96579781,6.45275397 6.11304271,6.48695652 6.26608696,6.48695652 C6.4191312,6.48695652 6.5663761,6.45275397 6.70782609,6.38434783 C6.84927607,6.31594169 6.9739125,6.20289934 7.08173913,6.04521739 C7.18956576,5.88753544 7.275362,5.68000129 7.33913043,5.4226087 C7.40289887,5.1652161 7.43478261,4.84637871 7.43478261,4.46608696 Z" id="10"></path>
                            <path d="M15.0104348,6.35652174 C15.0104348,6.29623158 15.0231522,6.23942056 15.0485874,6.18608696 C15.0740226,6.13275336 15.1088281,6.08637701 15.1530051,6.04695652 C15.197182,6.00753603 15.2500596,5.976232 15.3116396,5.95304348 C15.3732196,5.92985496 15.4388146,5.91826087 15.5084268,5.91826087 C15.5780389,5.91826087 15.6436339,5.92985496 15.7052139,5.95304348 C15.7667939,5.976232 15.8203408,6.00753603 15.8658565,6.04695652 C15.9113721,6.08637701 15.946847,6.13275336 15.9722822,6.18608696 C15.9977174,6.23942056 16.0104348,6.29623158 16.0104348,6.35652174 C16.0104348,6.41913075 15.9977174,6.47652148 15.9722822,6.52869565 C15.946847,6.58086983 15.9113721,6.62666647 15.8658565,6.66608696 C15.8203408,6.70550744 15.7667939,6.73623177 15.7052139,6.75826087 C15.6436339,6.78028997 15.5780389,6.79130435 15.5084268,6.79130435 C15.4388146,6.79130435 15.3732196,6.78028997 15.3116396,6.75826087 C15.2500596,6.73623177 15.197182,6.70550744 15.1530051,6.66608696 C15.1088281,6.62666647 15.0740226,6.58086983 15.0485874,6.52869565 C15.0231522,6.47652148 15.0104348,6.41913075 15.0104348,6.35652174 Z M15.0104348,3.74782609 C15.0104348,3.68753593 15.0231522,3.6307249 15.0485874,3.5773913 C15.0740226,3.5240577 15.1088281,3.47768136 15.1530051,3.43826087 C15.197182,3.39884038 15.2500596,3.36753635 15.3116396,3.34434783 C15.3732196,3.3211593 15.4388146,3.30956522 15.5084268,3.30956522 C15.5780389,3.30956522 15.6436339,3.3211593 15.7052139,3.34434783 C15.7667939,3.36753635 15.8203408,3.39884038 15.8658565,3.43826087 C15.9113721,3.47768136 15.946847,3.5240577 15.9722822,3.5773913 C15.9977174,3.6307249 16.0104348,3.68753593 16.0104348,3.74782609 C16.0104348,3.8104351 15.9977174,3.86782583 15.9722822,3.92 C15.946847,3.97217417 15.9113721,4.01797082 15.8658565,4.0573913 C15.8203408,4.09681179 15.7667939,4.12753612 15.7052139,4.14956522 C15.6436339,4.17159431 15.5780389,4.1826087 15.5084268,4.1826087 C15.4388146,4.1826087 15.3732196,4.17159431 15.3116396,4.14956522 C15.2500596,4.12753612 15.197182,4.09681179 15.1530051,4.0573913 C15.1088281,4.01797082 15.0740226,3.97217417 15.0485874,3.92 C15.0231522,3.86782583 15.0104348,3.8104351 15.0104348,3.74782609 Z" id=":"></path>
                            <path d="M25.133913,1.91652174 C25.3449286,1.91652174 25.5420281,1.94782577 25.7252174,2.01043478 C25.9084067,2.07304379 26.066666,2.16405737 26.2,2.28347826 C26.333334,2.40289915 26.4382605,2.54840494 26.5147826,2.72 C26.5913047,2.89159506 26.6295652,3.08637572 26.6295652,3.30434783 C26.6295652,3.489856 26.6017394,3.66144849 26.546087,3.81913043 C26.4904345,3.97681238 26.4150729,4.12811522 26.32,4.27304348 C26.2249271,4.41797174 26.1153629,4.55826019 25.9913043,4.69391304 C25.8672458,4.8295659 25.7356529,4.96811523 25.5965217,5.10956522 L24.2852174,6.45217391 C24.3779715,6.42666654 24.4718836,6.40637689 24.5669565,6.39130435 C24.6620295,6.37623181 24.7536227,6.36869565 24.8417391,6.36869565 L26.5113043,6.36869565 C26.5785511,6.36869565 26.6318839,6.3884056 26.6713043,6.42782609 C26.7107248,6.46724657 26.7304348,6.51826056 26.7304348,6.58086957 L26.7304348,6.95652174 L23.4052174,6.95652174 L23.4052174,6.74434783 C23.4052174,6.70028963 23.413913,6.6550727 23.4313043,6.60869565 C23.4486957,6.56231861 23.4771013,6.51942049 23.5165217,6.48 L25.1130435,4.87652174 C25.2452181,4.74202831 25.3657966,4.61275424 25.4747826,4.48869565 C25.5837687,4.36463706 25.6771011,4.24000063 25.7547826,4.11478261 C25.8324642,3.98956459 25.8921737,3.86260934 25.933913,3.73391304 C25.9756524,3.60521675 25.9965217,3.46782682 25.9965217,3.32173913 C25.9965217,3.17565144 25.9733336,3.04753678 25.9269565,2.9373913 C25.8805795,2.82724583 25.816812,2.73623224 25.7356522,2.66434783 C25.6544923,2.59246341 25.5594208,2.5385509 25.4504348,2.5026087 C25.3414487,2.46666649 25.2243485,2.44869565 25.0991304,2.44869565 C24.9739124,2.44869565 24.8579715,2.46724619 24.7513043,2.50434783 C24.6446371,2.54144946 24.5501453,2.59304315 24.4678261,2.65913043 C24.3855068,2.72521772 24.3159423,2.80347781 24.2591304,2.89391304 C24.2023186,2.98434828 24.162319,3.08405743 24.1391304,3.19304348 C24.1205796,3.26029019 24.0927538,3.30898536 24.0556522,3.33913043 C24.0185505,3.36927551 23.9698554,3.38434783 23.9095652,3.38434783 C23.897971,3.38434783 23.8857972,3.38376812 23.8730435,3.3826087 C23.8602898,3.38144927 23.8457972,3.37971016 23.8295652,3.3773913 L23.506087,3.32173913 C23.5385509,3.09449162 23.601159,2.89333421 23.693913,2.71826087 C23.7866671,2.54318753 23.9043471,2.39652233 24.0469565,2.27826087 C24.1895659,2.15999941 24.3530426,2.07014523 24.5373913,2.00869565 C24.7217401,1.94724607 24.9205786,1.91652174 25.133913,1.91652174 Z M31.1217391,4.46608696 C31.1217391,4.90203117 31.0747831,5.2794187 30.9808696,5.59826087 C30.8869561,5.91710304 30.7588414,6.18086852 30.5965217,6.38956522 C30.4342021,6.59826191 30.2423199,6.75362268 30.0208696,6.85565217 C29.7994192,6.95768167 29.5623201,7.00869565 29.3095652,7.00869565 C29.0544915,7.00869565 28.8173924,6.95768167 28.5982609,6.85565217 C28.3791293,6.75362268 28.1884066,6.59826191 28.026087,6.38956522 C27.8637673,6.18086852 27.7362323,5.91710304 27.6434783,5.59826087 C27.5507242,5.2794187 27.5043478,4.90203117 27.5043478,4.46608696 C27.5043478,4.03014275 27.5507242,3.65217551 27.6434783,3.33217391 C27.7362323,3.01217231 27.8637673,2.74724743 28.026087,2.5373913 C28.1884066,2.32753518 28.3791293,2.17159471 28.5982609,2.06956522 C28.8173924,1.96753572 29.0544915,1.91652174 29.3095652,1.91652174 C29.5623201,1.91652174 29.7994192,1.96753572 30.0208696,2.06956522 C30.2423199,2.17159471 30.4342021,2.32753518 30.5965217,2.5373913 C30.7588414,2.74724743 30.8869561,3.01217231 30.9808696,3.33217391 C31.0747831,3.65217551 31.1217391,4.03014275 31.1217391,4.46608696 Z M30.4782609,4.46608696 C30.4782609,4.0857952 30.4463771,3.7663781 30.3826087,3.50782609 C30.3188403,3.24927407 30.233044,3.04116021 30.1252174,2.88347826 C30.0173908,2.72579631 29.8927543,2.61275397 29.7513043,2.54434783 C29.6098544,2.47594169 29.4626095,2.44173913 29.3095652,2.44173913 C29.156521,2.44173913 29.0092761,2.47594169 28.8678261,2.54434783 C28.7263761,2.61275397 28.6023194,2.72579631 28.4956522,2.88347826 C28.388985,3.04116021 28.3037684,3.24927407 28.24,3.50782609 C28.1762316,3.7663781 28.1443478,4.0857952 28.1443478,4.46608696 C28.1443478,4.84637871 28.1762316,5.1652161 28.24,5.4226087 C28.3037684,5.68000129 28.388985,5.88753544 28.4956522,6.04521739 C28.6023194,6.20289934 28.7263761,6.31594169 28.8678261,6.38434783 C29.0092761,6.45275397 29.156521,6.48695652 29.3095652,6.48695652 C29.4626095,6.48695652 29.6098544,6.45275397 29.7513043,6.38434783 C29.8927543,6.31594169 30.0173908,6.20289934 30.1252174,6.04521739 C30.233044,5.88753544 30.3188403,5.68000129 30.3826087,5.4226087 C30.4463771,5.1652161 30.4782609,4.84637871 30.4782609,4.46608696 Z" id="20"></path>
                        </g>
                        <g id="Group-78" transform="translate(0.652174, 0.000000)" fill-rule="nonzero">
                            <path d="M0.217391304,3.47826087 C0.217391304,5.27946182 1.67718237,6.73913043 3.47826087,6.73913043 C5.27946182,6.73913043 6.73913043,5.27933937 6.73913043,3.47826087 C6.73913043,1.67705992 5.27933937,0.217391304 3.47826087,0.217391304 C1.67705992,0.217391304 0.217391304,1.67718237 0.217391304,3.47826087 Z M0,3.47826087 C0,1.55727044 1.55684806,0 3.47826087,0 C5.3992513,0 6.95652174,1.55684806 6.95652174,3.47826087 C6.95652174,5.3992513 5.39967368,6.95652174 3.47826087,6.95652174 C1.55727044,6.95652174 0,5.39967368 0,3.47826087 Z" id="button" fill="#E3E5ED" transform="translate(3.478261, 3.478261) scale(-1, 1) translate(-3.478261, -3.478261) "></path>
                            <path d="M3.31640255,4.12637139 L2.39536774,3.20533658 C2.33170798,3.14167683 2.33170798,3.03873764 2.39536774,2.97575511 L2.54842205,2.8227008 C2.61208181,2.75904104 2.71502099,2.75904104 2.77800352,2.8227008 L3.43085467,3.47555194 L4.08370581,2.8227008 C4.14736557,2.75904104 4.25030475,2.75904104 4.31328728,2.8227008 L4.4663416,2.97575511 C4.53000135,3.03941487 4.53000135,3.14235406 4.4663416,3.20533658 L3.54530679,4.12637139 C3.48300149,4.19003115 3.38006231,4.19003115 3.31640255,4.12637139 Z" id="Shape-Copy" fill="#01B6F5" transform="translate(3.430855, 3.474536) scale(-1, 1) rotate(-180.000000) translate(-3.430855, -3.474536) "></path>
                        </g>
                        <g id="Group-78-Copy-2" transform="translate(23.695652, 0.000000)" fill-rule="nonzero">
                            <g id="arrow-left" transform="translate(3.478261, 3.478261) scale(-1, 1) translate(-3.478261, -3.478261) ">
                                <path d="M0.217391304,3.47826087 C0.217391304,5.27946182 1.67718237,6.73913043 3.47826087,6.73913043 C5.27946182,6.73913043 6.73913043,5.27933937 6.73913043,3.47826087 C6.73913043,1.67705992 5.27933937,0.217391304 3.47826087,0.217391304 C1.67705992,0.217391304 0.217391304,1.67718237 0.217391304,3.47826087 Z M0,3.47826087 C0,1.55727044 1.55684806,0 3.47826087,0 C5.3992513,0 6.95652174,1.55684806 6.95652174,3.47826087 C6.95652174,5.3992513 5.39967368,6.95652174 3.47826087,6.95652174 C1.55727044,6.95652174 0,5.39967368 0,3.47826087 Z" id="button" fill="#E3E5ED"></path>
                                <path d="M3.41121495,4.12637139 L2.49018014,3.20533658 C2.42652038,3.14167683 2.42652038,3.03873764 2.49018014,2.97575511 L2.64323446,2.8227008 C2.70689422,2.75904104 2.8098334,2.75904104 2.87281593,2.8227008 L3.52566707,3.47555194 L4.17851822,2.8227008 C4.24217798,2.75904104 4.34511716,2.75904104 4.40809969,2.8227008 L4.561154,2.97575511 C4.62481376,3.03941487 4.62481376,3.14235406 4.561154,3.20533658 L3.64011919,4.12637139 C3.5778139,4.19003115 3.47487471,4.19003115 3.41121495,4.12637139 Z" id="Shape-Copy" fill="#01B6F5" transform="translate(3.525667, 3.474536) rotate(-180.000000) translate(-3.525667, -3.474536) "></path>
                            </g>
                        </g>
                        <g id="Group-78-Copy" transform="translate(0.652174, 21.739130)" fill-rule="nonzero">
                            <path d="M0.217391304,3.47826087 C0.217391304,5.27946182 1.67718237,6.73913043 3.47826087,6.73913043 C5.27946182,6.73913043 6.73913043,5.27933937 6.73913043,3.47826087 C6.73913043,1.67705992 5.27933937,0.217391304 3.47826087,0.217391304 C1.67705992,0.217391304 0.217391304,1.67718237 0.217391304,3.47826087 Z M0,3.47826087 C0,1.55727044 1.55684806,0 3.47826087,0 C5.3992513,0 6.95652174,1.55684806 6.95652174,3.47826087 C6.95652174,5.3992513 5.39967368,6.95652174 3.47826087,6.95652174 C1.55727044,6.95652174 0,5.39967368 0,3.47826087 Z" id="button" fill="#E3E5ED" transform="translate(3.478261, 3.478261) scale(-1, 1) translate(-3.478261, -3.478261) "></path>
                            <path d="M3.31640255,4.12637139 L2.39536774,3.20533658 C2.33170798,3.14167683 2.33170798,3.03873764 2.39536774,2.97575511 L2.54842205,2.8227008 C2.61208181,2.75904104 2.71502099,2.75904104 2.77800352,2.8227008 L3.43085467,3.47555194 L4.08370581,2.8227008 C4.14736557,2.75904104 4.25030475,2.75904104 4.31328728,2.8227008 L4.4663416,2.97575511 C4.53000135,3.03941487 4.53000135,3.14235406 4.4663416,3.20533658 L3.54530679,4.12637139 C3.48300149,4.19003115 3.38006231,4.19003115 3.31640255,4.12637139 Z" id="Shape-Copy" fill="#01B6F5" transform="translate(3.430855, 3.474536) scale(-1, 1) translate(-3.430855, -3.474536) "></path>
                        </g>
                        <g id="Group-78-Copy-3" transform="translate(23.695652, 21.739130)" fill-rule="nonzero">
                            <path d="M0.217391304,3.47826087 C0.217391304,5.27946182 1.67718237,6.73913043 3.47826087,6.73913043 C5.27946182,6.73913043 6.73913043,5.27933937 6.73913043,3.47826087 C6.73913043,1.67705992 5.27933937,0.217391304 3.47826087,0.217391304 C1.67705992,0.217391304 0.217391304,1.67718237 0.217391304,3.47826087 Z M0,3.47826087 C0,1.55727044 1.55684806,0 3.47826087,0 C5.3992513,0 6.95652174,1.55684806 6.95652174,3.47826087 C6.95652174,5.3992513 5.39967368,6.95652174 3.47826087,6.95652174 C1.55727044,6.95652174 0,5.39967368 0,3.47826087 Z" id="button" fill="#E3E5ED" transform="translate(3.478261, 3.478261) scale(-1, 1) translate(-3.478261, -3.478261) "></path>
                            <path d="M3.31640255,4.12637139 L2.39536774,3.20533658 C2.33170798,3.14167683 2.33170798,3.03873764 2.39536774,2.97575511 L2.54842205,2.8227008 C2.61208181,2.75904104 2.71502099,2.75904104 2.77800352,2.8227008 L3.43085467,3.47555194 L4.08370581,2.8227008 C4.14736557,2.75904104 4.25030475,2.75904104 4.31328728,2.8227008 L4.4663416,2.97575511 C4.53000135,3.03941487 4.53000135,3.14235406 4.4663416,3.20533658 L3.54530679,4.12637139 C3.48300149,4.19003115 3.38006231,4.19003115 3.31640255,4.12637139 Z" id="Shape-Copy" fill="#01B6F5" transform="translate(3.430855, 3.474536) scale(-1, 1) translate(-3.430855, -3.474536) "></path>
                        </g>
                    </g>
                    <g id="Group-16" transform="translate(0.434783, -0.000000)" fill-rule="nonzero">
                        <path d="M3.47826087,0 L26.9565217,0 C28.8775122,-3.52880218e-16 30.4347826,1.55727044 30.4347826,3.47826087 C30.4347826,5.3992513 28.8775122,6.95652174 26.9565217,6.95652174 L3.47826087,6.95652174 C1.55727044,6.95652174 2.35253479e-16,5.3992513 0,3.47826087 C-2.35253479e-16,1.55727044 1.55727044,3.52880218e-16 3.47826087,0 Z" id="Rectangle" fill="#F4F6F9"></path>
                        <path d="M18.8005997,0 L27.0614693,0 C28.9824597,-3.52880218e-16 30.5397301,1.55727044 30.5397301,3.47826087 C30.5397301,5.3992513 28.9824597,6.95652174 27.0614693,6.95652174 L18.8005997,6.95652174 C16.8796093,6.95652174 15.3223388,5.3992513 15.3223388,3.47826087 C15.3223388,1.55727044 16.8796093,3.52880218e-16 18.8005997,0 Z" id="Rectangle" fill="#01B6F5"></path>
                    </g>
                </g>
            </g>
        </g>
    </g>
</svg>