<?xml version="1.0" encoding="UTF-8"?>
<svg width="150px" height="42px" viewBox="0 0 150 42" version="1.1" xmlns="http://www.w3.org/2000/svg" xmlns:xlink="http://www.w3.org/1999/xlink">
    <!-- Generator: Sketch 64 (93537) - https://sketch.com -->
    <title>TimeSelectInput</title>
    <desc>Created with Sketch.</desc>
    <g id="pages" stroke="none" stroke-width="1" fill="none" fill-rule="evenodd">
        <g id="TimeSelectInput">
            <path d="M3.20924262,0 L146.020539,0 C147.792955,0 149.229782,1.43682686 149.229782,3.20924262 L149.229782,38.5109114 C149.229782,40.2833272 147.792955,41.720154 146.020539,41.720154 L3.20924262,41.720154 C1.43682686,41.720154 0,40.2833272 0,38.5109114 L0,3.20924262 C0,1.43682686 1.43682686,0 3.20924262,0 Z" id="Path" fill="#F4F6F9" fill-rule="nonzero"></path>
            <path d="M4.81386393,1.60462131 L35.3016688,1.60462131 C37.0740846,1.60462131 38.5109114,3.04144817 38.5109114,4.81386393 L38.5109114,36.9062901 C38.5109114,38.6787059 37.0740846,40.1155327 35.3016688,40.1155327 L4.81386393,40.1155327 C3.04144817,40.1155327 1.60462131,38.6787059 1.60462131,36.9062901 L1.60462131,4.81386393 C1.60462131,3.04144817 3.04144817,1.60462131 4.81386393,1.60462131 Z" id="Path" fill="#01B6F5" fill-rule="nonzero"></path>
            <path d="M8.9719261,27.5046046 L12.4100017,27.5046046 L12.4100017,16.598761 C12.4100017,16.2713235 12.4211641,15.9401702 12.4434894,15.6052911 L9.58586817,18.0498967 C9.51145058,18.1094308 9.4370341,18.1522203 9.36261651,18.1782665 C9.28819892,18.2043126 9.21750327,18.2173355 9.15052743,18.2173355 C9.03890104,18.2173355 8.9384388,18.1931501 8.84913769,18.1447787 C8.75983658,18.0964073 8.69286175,18.0387345 8.6482112,17.9717587 L8.02310655,17.1122398 L12.7783669,12.9932466 L14.3969415,12.9932466 L14.3969415,27.5046046 L17.5447899,27.5046046 L17.5447899,29.0227159 L8.9719261,29.0227159 L8.9719261,27.5046046 Z M31.6933638,21.0303064 C31.6933638,22.4293571 31.5426705,23.6404853 31.2412792,24.6637272 C30.939888,25.6869691 30.528737,26.5334565 30.0078138,27.2032148 C29.4868907,27.8729732 28.8710943,28.3715635 28.1604063,28.6990009 C27.4497183,29.0264384 26.6888098,29.1901546 25.8776581,29.1901546 C25.0590646,29.1901546 24.2981561,29.0264384 23.5949099,28.6990009 C22.8916636,28.3715635 22.2795881,27.8729732 21.758665,27.2032148 C21.2377418,26.5334565 20.8284512,25.6869691 20.5307808,24.6637272 C20.2331105,23.6404853 20.0842775,22.4293571 20.0842775,21.0303064 C20.0842775,19.6312557 20.2331105,18.4182671 20.5307808,17.3913043 C20.8284512,16.3643416 21.2377418,15.5141333 21.758665,14.8406541 C22.2795881,14.1671749 22.8916636,13.6667241 23.5949099,13.3392867 C24.2981561,13.0118493 25.0590646,12.8481331 25.8776581,12.8481331 C26.6888098,12.8481331 27.4497183,13.0118493 28.1604063,13.3392867 C28.8710943,13.6667241 29.4868907,14.1671749 30.0078138,14.8406541 C30.528737,15.5141333 30.939888,16.3643416 31.2412792,17.3913043 C31.5426705,18.4182671 31.6933638,19.6312557 31.6933638,21.0303064 Z M29.628286,21.0303064 C29.628286,19.8098579 29.5259633,18.7847709 29.321315,17.9550148 C29.1166666,17.1252586 28.8413256,16.4573708 28.4952838,15.9513311 C28.149242,15.4452915 27.7492534,15.0825112 27.2953061,14.8629793 C26.8413588,14.6434474 26.3688142,14.5336831 25.8776581,14.5336831 C25.386502,14.5336831 24.9139574,14.6434474 24.46001,14.8629793 C24.0060627,15.0825112 23.6079346,15.4452915 23.2656137,15.9513311 C22.9232927,16.4573708 22.6498122,17.1252586 22.4451638,17.9550148 C22.2405154,18.7847709 22.1381928,19.8098579 22.1381928,21.0303064 C22.1381928,22.2507549 22.2405154,23.2739815 22.4451638,24.1000167 C22.6498122,24.926052 22.9232927,25.5920795 23.2656137,26.0981191 C23.6079346,26.6041587 24.0060627,26.9669391 24.46001,27.1864709 C24.9139574,27.4060028 25.386502,27.5157671 25.8776581,27.5157671 C26.3688142,27.5157671 26.8413588,27.4060028 27.2953061,27.1864709 C27.7492534,26.9669391 28.149242,26.6041587 28.4952838,26.0981191 C28.8413256,25.5920795 29.1166666,24.926052 29.321315,24.1000167 C29.5259633,23.2739815 29.628286,22.2507549 29.628286,21.0303064 Z" id="10" fill="#FFFFFF"></path>
            <path d="M42.7080426,27.0971703 C42.7080426,26.9036845 42.7548929,26.7213642 42.8485947,26.5502037 C42.9422965,26.3790433 43.0705182,26.2302103 43.2332634,26.1037004 C43.3960087,25.9771905 43.590807,25.8767282 43.8176641,25.8023107 C44.0445211,25.7278931 44.2861696,25.6906848 44.5426167,25.6906848 C44.7990638,25.6906848 45.0407123,25.7278931 45.2675694,25.8023107 C45.4944264,25.8767282 45.6916905,25.9771905 45.8593675,26.1037004 C46.0270444,26.2302103 46.1577319,26.3790433 46.2514337,26.5502037 C46.3451355,26.7213642 46.3919857,26.9036845 46.3919857,27.0971703 C46.3919857,27.2980978 46.3451355,27.4822786 46.2514337,27.6497181 C46.1577319,27.8171577 46.0270444,27.9641303 45.8593675,28.0906402 C45.6916905,28.2171501 45.4944264,28.3157519 45.2675694,28.3864486 C45.0407123,28.4571453 44.7990638,28.4924932 44.5426167,28.4924932 C44.2861696,28.4924932 44.0445211,28.4571453 43.8176641,28.3864486 C43.590807,28.3157519 43.3960087,28.2171501 43.2332634,28.0906402 C43.0705182,27.9641303 42.9422965,27.8171577 42.8485947,27.6497181 C42.7548929,27.4822786 42.7080426,27.2980978 42.7080426,27.0971703 Z M42.7080426,18.725233 C42.7080426,18.5317473 42.7548929,18.3494269 42.8485947,18.1782665 C42.9422965,18.007106 43.0705182,17.858273 43.2332634,17.7317631 C43.3960087,17.6052532 43.590807,17.504791 43.8176641,17.4303734 C44.0445211,17.3559558 44.2861696,17.3187476 44.5426167,17.3187476 C44.7990638,17.3187476 45.0407123,17.3559558 45.2675694,17.4303734 C45.4944264,17.504791 45.6916905,17.6052532 45.8593675,17.7317631 C46.0270444,17.858273 46.1577319,18.007106 46.2514337,18.1782665 C46.3451355,18.3494269 46.3919857,18.5317473 46.3919857,18.725233 C46.3919857,18.9261605 46.3451355,19.1103413 46.2514337,19.2777809 C46.1577319,19.4452205 46.0270444,19.592193 45.8593675,19.7187029 C45.6916905,19.8452128 45.4944264,19.9438146 45.2675694,20.0145114 C45.0407123,20.0852081 44.7990638,20.1205559 44.5426167,20.1205559 C44.2861696,20.1205559 44.0445211,20.0852081 43.8176641,20.0145114 C43.590807,19.9438146 43.3960087,19.8452128 43.2332634,19.7187029 C43.0705182,19.592193 42.9422965,19.4452205 42.8485947,19.2777809 C42.7548929,19.1103413 42.7080426,18.9261605 42.7080426,18.725233 Z" id=":" fill="#01B6F5"></path>
            <path d="M60.1049283,12.8481331 C60.7821284,12.8481331 61.4146684,12.9485953 62.0025674,13.1495228 C62.5904664,13.3504503 63.0983588,13.642535 63.52626,14.0257856 C63.9541611,14.4090362 64.2908957,14.8759996 64.5364737,15.4266897 C64.7820518,15.9773799 64.904839,16.6024783 64.904839,17.3020037 C64.904839,17.8973444 64.8155392,18.4480263 64.636937,18.954066 C64.4583348,19.4601056 64.2164812,19.9456731 63.9113691,20.4107831 C63.606257,20.875893 63.2546391,21.3261127 62.856505,21.7614556 C62.4583709,22.1967985 62.0360574,22.641437 61.5895518,23.0953843 L57.381258,27.4041413 C57.6789284,27.322282 57.9803151,27.2571676 58.2854272,27.2087961 C58.5905394,27.1604247 58.8844845,27.1362393 59.1672713,27.1362393 L64.5253112,27.1362393 C64.7411222,27.1362393 64.9122801,27.1994933 65.03879,27.3260032 C65.1652999,27.4525131 65.2285539,27.6162294 65.2285539,27.8171569 L65.2285539,29.0227159 L54.5571245,29.0227159 L54.5571245,28.3417983 C54.5571245,28.2004049 54.5850307,28.0552927 54.6408439,27.9064576 C54.6966571,27.7576224 54.7878173,27.6199519 54.9143272,27.493442 L60.0379528,22.3474912 C60.4621331,21.9158692 60.8490987,21.5009973 61.1988614,21.1028632 C61.5486241,20.7047291 61.8481504,20.3047405 62.0974493,19.9028855 C62.3467483,19.5010305 62.5383707,19.0936003 62.6723224,18.6805827 C62.806274,18.267565 62.8732489,17.8266474 62.8732489,17.3578166 C62.8732489,16.8889858 62.7988324,16.4778347 62.6499972,16.1243512 C62.501162,15.7708676 62.2965167,15.4787829 62.0360551,15.2480884 C61.7755936,15.0173939 61.470486,14.8443756 61.1207233,14.7290283 C60.7709607,14.613681 60.3951574,14.5560083 59.9933025,14.5560083 C59.5914475,14.5560083 59.2193651,14.6155414 58.8770441,14.7346096 C58.5347232,14.8536777 58.2314761,15.0192544 57.9672936,15.2313445 C57.7031112,15.4434347 57.4798618,15.6945903 57.2975387,15.9848189 C57.1152155,16.2750475 56.9868471,16.5950383 56.9124295,16.944801 C56.8528955,17.160612 56.7635957,17.3168866 56.6445275,17.4136295 C56.5254594,17.5103724 56.3691848,17.5587431 56.1756991,17.5587431 C56.1384903,17.5587431 56.0994216,17.5568827 56.0584919,17.5531618 C56.0175623,17.5494409 55.971052,17.5438597 55.9189596,17.5364179 L54.8808394,17.3578166 C54.9850241,16.6285242 55.1859485,15.9829613 55.4836189,15.4211084 C55.7812893,14.8592556 56.1589529,14.3885714 56.6166211,14.0090417 C57.0742893,13.629512 57.5989254,13.3411481 58.1905453,13.1439415 C58.7821652,12.9467349 59.4202864,12.8481331 60.1049283,12.8481331 Z M79.321315,21.0303064 C79.321315,22.4293571 79.1706216,23.6404853 78.8692303,24.6637272 C78.5678391,25.6869691 78.1566881,26.5334565 77.6357649,27.2032148 C77.1148418,27.8729732 76.4990454,28.3715635 75.7883574,28.6990009 C75.0776694,29.0264384 74.316761,29.1901546 73.5056092,29.1901546 C72.6870157,29.1901546 71.9261072,29.0264384 71.222861,28.6990009 C70.5196147,28.3715635 69.9075392,27.8729732 69.3866161,27.2032148 C68.8656929,26.5334565 68.4564023,25.6869691 68.1587319,24.6637272 C67.8610616,23.6404853 67.7122286,22.4293571 67.7122286,21.0303064 C67.7122286,19.6312557 67.8610616,18.4182671 68.1587319,17.3913043 C68.4564023,16.3643416 68.8656929,15.5141333 69.3866161,14.8406541 C69.9075392,14.1671749 70.5196147,13.6667241 71.222861,13.3392867 C71.9261072,13.0118493 72.6870157,12.8481331 73.5056092,12.8481331 C74.316761,12.8481331 75.0776694,13.0118493 75.7883574,13.3392867 C76.4990454,13.6667241 77.1148418,14.1671749 77.6357649,14.8406541 C78.1566881,15.5141333 78.5678391,16.3643416 78.8692303,17.3913043 C79.1706216,18.4182671 79.321315,19.6312557 79.321315,21.0303064 Z M77.2562371,21.0303064 C77.2562371,19.8098579 77.1539144,18.7847709 76.9492661,17.9550148 C76.7446177,17.1252586 76.4692767,16.4573708 76.1232349,15.9513311 C75.7771931,15.4452915 75.3772046,15.0825112 74.9232572,14.8629793 C74.4693099,14.6434474 73.9967653,14.5336831 73.5056092,14.5336831 C73.0144531,14.5336831 72.5419085,14.6434474 72.0879612,14.8629793 C71.6340138,15.0825112 71.2358857,15.4452915 70.8935648,15.9513311 C70.5512438,16.4573708 70.2777633,17.1252586 70.0731149,17.9550148 C69.8684665,18.7847709 69.7661439,19.8098579 69.7661439,21.0303064 C69.7661439,22.2507549 69.8684665,23.2739815 70.0731149,24.1000167 C70.2777633,24.926052 70.5512438,25.5920795 70.8935648,26.0981191 C71.2358857,26.6041587 71.6340138,26.9669391 72.0879612,27.1864709 C72.5419085,27.4060028 73.0144531,27.5157671 73.5056092,27.5157671 C73.9967653,27.5157671 74.4693099,27.4060028 74.9232572,27.1864709 C75.3772046,26.9669391 75.7771931,26.6041587 76.1232349,26.0981191 C76.4692767,25.5920795 76.7446177,24.926052 76.9492661,24.1000167 C77.1539144,23.2739815 77.2562371,22.2507549 77.2562371,21.0303064 Z" id="20" fill="#01B6F5"></path>
            <path d="M103.292598,28.8831836 L101.612952,28.8831836 C101.418859,28.8831836 101.262094,28.834661 101.142652,28.7376143 C101.02321,28.6405676 100.933629,28.5173949 100.873908,28.3680923 L99.3734251,24.4937101 L92.1733448,24.4937101 L90.6728615,28.3680923 C90.6206056,28.5024646 90.5310254,28.6219049 90.4041182,28.7264167 C90.277211,28.8309285 90.1204457,28.8831836 89.9338175,28.8831836 L88.254172,28.8831836 L94.6704177,12.8369705 L96.8763521,12.8369705 L103.292598,28.8831836 Z M92.7780172,22.926041 L98.7687527,22.926041 L96.2492845,16.3978189 C96.0850516,15.994702 95.9245538,15.4908133 95.7677861,14.886138 C95.6856697,15.1922082 95.6054208,15.4740126 95.5270369,15.7315595 C95.4486531,15.9891064 95.3721367,16.2149232 95.2974854,16.4090165 L92.7780172,22.926041 Z M113.213704,23.0828079 C113.318216,23.2619709 113.409662,23.4504626 113.488046,23.6482885 C113.56643,23.8461144 113.642946,24.0458036 113.717597,24.2473621 C113.792249,24.0383385 113.870631,23.8386493 113.952748,23.6482885 C114.034864,23.4579277 114.128177,23.2657036 114.232689,23.0716102 L119.663542,13.2064925 C119.760589,13.0347945 119.861367,12.9302843 119.965879,12.8929587 C120.07039,12.855633 120.219691,12.8369705 120.413784,12.8369705 L122.015046,12.8369705 L122.015046,28.8831836 L120.111448,28.8831836 L120.111448,17.0920723 C120.111448,16.9353046 120.11518,16.7673418 120.122645,16.5881787 C120.130111,16.4090156 120.141308,16.2261227 120.156238,16.0394945 L114.658199,26.0725768 C114.471571,26.4085076 114.210295,26.5764705 113.874364,26.5764705 L113.56083,26.5764705 C113.2249,26.5764705 112.963624,26.4085076 112.776996,26.0725768 L107.155782,16.0059016 C107.178178,16.1999949 107.194974,16.3903529 107.206172,16.5769811 C107.217369,16.7636093 107.222968,16.9353046 107.222968,17.0920723 L107.222968,28.8831836 L105.31937,28.8831836 L105.31937,12.8369705 L106.920632,12.8369705 C107.114725,12.8369705 107.264026,12.855633 107.368538,12.8929587 C107.473049,12.9302843 107.573827,13.0347945 107.670874,13.2064925 L113.213704,23.0828079 Z" id="AM" fill="#01B6F5" fill-rule="nonzero"></path>
            <path d="M139.602054,11.2323492 C142.260678,11.2323492 144.415918,13.3875895 144.415918,16.0462131 L144.415918,25.6739409 C144.415918,28.3325646 142.260678,30.4878049 139.602054,30.4878049 C136.94343,30.4878049 134.78819,28.3325646 134.78819,25.6739409 L134.78819,16.0462131 C134.78819,13.3875895 136.94343,11.2323492 139.602054,11.2323492 Z" id="Rectangle" fill="#FFFFFF" transform="translate(139.602054, 20.860077) rotate(-540.000000) translate(-139.602054, -20.860077) "></path>
            <path d="M144.256348,15.5384768 C147.142693,15.5384768 149.503643,17.8872062 149.503643,20.7601415 C149.503643,23.6330768 147.142693,25.9818062 144.256348,25.9818062 L134.985141,25.9818062 C132.098796,25.9818062 129.737846,23.6330768 129.737846,20.7601415 C129.737846,17.8872062 132.098796,15.5384768 134.985141,15.5384768 L144.256348,15.5384768 Z M144.256348,16.1296531 L134.985141,16.1296531 C132.424609,16.1296531 130.329022,18.2143926 130.329022,20.7601415 C130.329022,23.3058904 132.424609,25.3906299 134.985141,25.3906299 L144.256348,25.3906299 C146.816881,25.3906299 148.912467,23.3058904 148.912467,20.7601415 C148.912467,18.2143926 146.816881,16.1296531 144.256348,16.1296531 Z" id="Path" fill="#E3E5ED" fill-rule="nonzero" transform="translate(139.620745, 20.760141) rotate(-270.000000) translate(-139.620745, -20.760141) "></path>
            <path d="M139.342055,17.019576 C138.82953,17.019576 138.414046,16.6005015 138.414046,16.0835469 C138.414046,15.5665923 138.82953,15.1475178 139.342055,15.1475178 L139.883394,15.1475178 C140.395919,15.1475178 140.811403,15.5665923 140.811403,16.0835469 C140.811403,16.6005015 140.395919,17.019576 139.883394,17.019576 L139.342055,17.019576 Z" id="Path" fill="#01B6F5" fill-rule="nonzero" transform="translate(139.612725, 16.083547) rotate(-270.000000) translate(-139.612725, -16.083547) "></path>
            <path d="M139.342055,26.8332078 C138.82953,26.8332078 138.414046,26.4141333 138.414046,25.8971787 C138.414046,25.3802241 138.82953,24.9611496 139.342055,24.9611496 L139.883394,24.9611496 C140.395919,24.9611496 140.811403,25.3802241 140.811403,25.8971787 C140.811403,26.4141333 140.395919,26.8332078 139.883394,26.8332078 L139.342055,26.8332078 Z" id="Path" fill="#01B6F5" fill-rule="nonzero" transform="translate(139.612725, 25.897179) rotate(-270.000000) translate(-139.612725, -25.897179) "></path>
            <polygon id="Path" fill="#E3E5ED" fill-rule="nonzero" points="134.560334 21.3567073 134.560334 20.7164634 144.346919 20.7164634 144.346919 21.3567073"></polygon>
        </g>
    </g>
</svg>