<?xml version="1.0" encoding="UTF-8"?>
<svg width="152px" height="70px" viewBox="0 0 152 70" version="1.1" xmlns="http://www.w3.org/2000/svg" xmlns:xlink="http://www.w3.org/1999/xlink">
    <!-- Generator: Sketch 63.1 (92452) - https://sketch.com -->
    <title>Tree</title>
    <desc>Created with Sketch.</desc>
    <g id="pages" stroke="none" stroke-width="1" fill="none" fill-rule="evenodd">
        <g id="Tree" transform="translate(-1.000000, 0.000000)">
            <path d="M12.3646259,5.02312925 C11.7244264,5.02312925 11.2054422,4.50414504 11.2054422,3.86394558 C11.2054422,3.22374611 11.7244264,2.7047619 12.3646259,2.7047619 L44.2421769,2.7047619 C44.8823763,2.7047619 45.4013605,3.22374611 45.4013605,3.86394558 C45.4013605,4.50414504 44.8823763,5.02312925 44.2421769,5.02312925 L12.3646259,5.02312925 Z" id="Line-3" fill="#A4A7B5" fill-rule="nonzero"></path>
            <path d="M12.3646259,17.7741497 C11.7244264,17.7741497 11.2054422,17.2551655 11.2054422,16.614966 C11.2054422,15.9747665 11.7244264,15.4557823 12.3646259,15.4557823 L39.2190476,15.4557823 C39.8592471,15.4557823 40.3782313,15.9747665 40.3782313,16.614966 C40.3782313,17.2551655 39.8592471,17.7741497 39.2190476,17.7741497 L12.3646259,17.7741497 Z" id="Line-3-Copy-6" fill="#A4A7B5" fill-rule="nonzero"></path>
            <path d="M34.0027211,29.3659864 C33.3625216,29.3659864 32.8435374,28.8470022 32.8435374,28.2068027 C32.8435374,27.5666033 33.3625216,27.047619 34.0027211,27.047619 L68.1986395,27.047619 C68.8388389,27.047619 69.3578231,27.5666033 69.3578231,28.2068027 C69.3578231,28.8470022 68.8388389,29.3659864 68.1986395,29.3659864 L34.0027211,29.3659864 Z" id="Line-3-Copy-8" fill="#A4A7B5" fill-rule="nonzero"></path>
            <path d="M34.0027211,67.7823129 C33.3625216,67.7823129 32.8435374,67.2633287 32.8435374,66.6231293 C32.8435374,65.9829298 33.3625216,65.4639456 34.0027211,65.4639456 L57.3795918,65.4639456 C58.0197913,65.4639456 58.5387755,65.9829298 58.5387755,66.6231293 C58.5387755,67.2633287 58.0197913,67.7823129 57.3795918,67.7823129 L34.0027211,67.7823129 Z" id="Line-3-Copy-12" fill="#A4A7B5" fill-rule="nonzero"></path>
            <path d="M43.662585,42.1170068 C43.0223856,42.1170068 42.5034014,41.5980226 42.5034014,40.9578231 C42.5034014,40.3176237 43.0223856,39.7986395 43.662585,39.7986395 L66.2666667,39.7986395 C66.9068661,39.7986395 67.4258503,40.3176237 67.4258503,40.9578231 C67.4258503,41.5980226 66.9068661,42.1170068 66.2666667,42.1170068 L43.662585,42.1170068 Z" id="Line-3-Copy-9" fill="#A4A7B5" fill-rule="nonzero"></path>
            <path d="M43.662585,54.4816327 C43.0223856,54.4816327 42.5034014,53.9626484 42.5034014,53.322449 C42.5034014,52.6822495 43.0223856,52.1632653 43.662585,52.1632653 L59.6979592,52.1632653 C60.3381586,52.1632653 60.8571429,52.6822495 60.8571429,53.322449 C60.8571429,53.9626484 60.3381586,54.4816327 59.6979592,54.4816327 L43.662585,54.4816327 Z" id="Line-3-Copy-10" fill="#A4A7B5" fill-rule="nonzero"></path>
            <g id="Group-170" transform="translate(10.046259, 25.115646)" fill="#01B6F5">
                <path d="M0.659446712,2.01744827 L0.659446712,4.04121839 C0.659446712,4.78134185 1.25048773,5.38548148 1.97627586,5.38548148 L3.95874455,5.38548148 C4.68376344,5.38548148 5.2755737,4.78212711 5.2755737,4.04121839 L5.2755737,2.01744827 C5.2755737,1.27732482 4.68453268,0.673185185 3.95874455,0.673185185 L1.97627586,0.673185185 C1.25125696,0.673185185 0.659446712,1.27653956 0.659446712,2.01744827 Z M-1.34224369e-14,2.01744827 C-1.34224369e-14,0.903242358 0.888532522,-1.04939052e-13 1.97627586,-1.04939052e-13 L3.95874455,-1.04939052e-13 C5.05021157,-1.04939052e-13 5.93502041,0.907043616 5.93502041,2.01744827 L5.93502041,4.04121839 C5.93502041,5.15542431 5.04648789,6.05866667 3.95874455,6.05866667 L1.97627586,6.05866667 C0.884808841,6.05866667 -1.34224369e-14,5.15162305 -1.34224369e-14,4.04121839 L-1.34224369e-14,2.01744827 Z" id="checkbox" fill-rule="nonzero"></path>
                <path d="M1.51323368,3.02013834 C1.47392891,2.98001472 1.47392891,2.91314202 1.51323368,2.8730184 L1.65735117,2.72589845 C1.69665594,2.68577483 1.7621639,2.68577483 1.80146867,2.72589845 L2.61376727,3.56180721 C2.63997045,3.58855629 2.68582601,3.58855629 2.71202919,3.56180721 L4.30387242,1.92342605 C4.34317719,1.88330243 4.40868514,1.88330243 4.44798991,1.92342605 L4.5921074,2.07054599 C4.63141217,2.11066961 4.63141217,2.17754231 4.5921074,2.21766593 L2.73823237,4.13022517 C2.6989276,4.17703606 2.63341965,4.17703606 2.59411488,4.13022517 L1.51323368,3.02013834 Z" id="Shape"></path>
            </g>
            <g id="Group-170-Copy-3" transform="translate(10.046259, 63.531973)" fill="#E3E5ED" fill-rule="nonzero">
                <path d="M0.659446712,2.01744827 L0.659446712,4.04121839 C0.659446712,4.78134185 1.25048773,5.38548148 1.97627586,5.38548148 L3.95874455,5.38548148 C4.68376344,5.38548148 5.2755737,4.78212711 5.2755737,4.04121839 L5.2755737,2.01744827 C5.2755737,1.27732482 4.68453268,0.673185185 3.95874455,0.673185185 L1.97627586,0.673185185 C1.25125696,0.673185185 0.659446712,1.27653956 0.659446712,2.01744827 Z M-1.34224369e-14,2.01744827 C-1.34224369e-14,0.903242358 0.888532522,-1.04939052e-13 1.97627586,-1.04939052e-13 L3.95874455,-1.04939052e-13 C5.05021157,-1.04939052e-13 5.93502041,0.907043616 5.93502041,2.01744827 L5.93502041,4.04121839 C5.93502041,5.15542431 5.04648789,6.05866667 3.95874455,6.05866667 L1.97627586,6.05866667 C0.884808841,6.05866667 -1.34224369e-14,5.15162305 -1.34224369e-14,4.04121839 L-1.34224369e-14,2.01744827 Z" id="checkbox"></path>
            </g>
            <g id="Group-170" transform="translate(21.638095, 37.866667)" fill="#01B6F5">
                <path d="M0.659446712,2.01744827 L0.659446712,4.04121839 C0.659446712,4.78134185 1.25048773,5.38548148 1.97627586,5.38548148 L3.95874455,5.38548148 C4.68376344,5.38548148 5.2755737,4.78212711 5.2755737,4.04121839 L5.2755737,2.01744827 C5.2755737,1.27732482 4.68453268,0.673185185 3.95874455,0.673185185 L1.97627586,0.673185185 C1.25125696,0.673185185 0.659446712,1.27653956 0.659446712,2.01744827 Z M-1.34224369e-14,2.01744827 C-1.34224369e-14,0.903242358 0.888532522,-1.04939052e-13 1.97627586,-1.04939052e-13 L3.95874455,-1.04939052e-13 C5.05021157,-1.04939052e-13 5.93502041,0.907043616 5.93502041,2.01744827 L5.93502041,4.04121839 C5.93502041,5.15542431 5.04648789,6.05866667 3.95874455,6.05866667 L1.97627586,6.05866667 C0.884808841,6.05866667 -1.34224369e-14,5.15162305 -1.34224369e-14,4.04121839 L-1.34224369e-14,2.01744827 Z" id="checkbox" fill-rule="nonzero"></path>
                <path d="M1.51323368,3.02013834 C1.47392891,2.98001472 1.47392891,2.91314202 1.51323368,2.8730184 L1.65735117,2.72589845 C1.69665594,2.68577483 1.7621639,2.68577483 1.80146867,2.72589845 L2.61376727,3.56180721 C2.63997045,3.58855629 2.68582601,3.58855629 2.71202919,3.56180721 L4.30387242,1.92342605 C4.34317719,1.88330243 4.40868514,1.88330243 4.44798991,1.92342605 L4.5921074,2.07054599 C4.63141217,2.11066961 4.63141217,2.17754231 4.5921074,2.21766593 L2.73823237,4.13022517 C2.6989276,4.17703606 2.63341965,4.17703606 2.59411488,4.13022517 L1.51323368,3.02013834 Z" id="Shape"></path>
            </g>
            <g id="Group-170-Copy" transform="translate(21.638095, 50.231293)" fill="#01B6F5">
                <path d="M0.659446712,2.01744827 L0.659446712,4.04121839 C0.659446712,4.78134185 1.25048773,5.38548148 1.97627586,5.38548148 L3.95874455,5.38548148 C4.68376344,5.38548148 5.2755737,4.78212711 5.2755737,4.04121839 L5.2755737,2.01744827 C5.2755737,1.27732482 4.68453268,0.673185185 3.95874455,0.673185185 L1.97627586,0.673185185 C1.25125696,0.673185185 0.659446712,1.27653956 0.659446712,2.01744827 Z M-1.34224369e-14,2.01744827 C-1.34224369e-14,0.903242358 0.888532522,-1.04939052e-13 1.97627586,-1.04939052e-13 L3.95874455,-1.04939052e-13 C5.05021157,-1.04939052e-13 5.93502041,0.907043616 5.93502041,2.01744827 L5.93502041,4.04121839 C5.93502041,5.15542431 5.04648789,6.05866667 3.95874455,6.05866667 L1.97627586,6.05866667 C0.884808841,6.05866667 -1.34224369e-14,5.15162305 -1.34224369e-14,4.04121839 L-1.34224369e-14,2.01744827 Z" id="checkbox" fill-rule="nonzero"></path>
                <path d="M1.51323368,3.02013834 C1.47392891,2.98001472 1.47392891,2.91314202 1.51323368,2.8730184 L1.65735117,2.72589845 C1.69665594,2.68577483 1.7621639,2.68577483 1.80146867,2.72589845 L2.61376727,3.56180721 C2.63997045,3.58855629 2.68582601,3.58855629 2.71202919,3.56180721 L4.30387242,1.92342605 C4.34317719,1.88330243 4.40868514,1.88330243 4.44798991,1.92342605 L4.5921074,2.07054599 C4.63141217,2.11066961 4.63141217,2.17754231 4.5921074,2.21766593 L2.73823237,4.13022517 C2.6989276,4.17703606 2.63341965,4.17703606 2.59411488,4.13022517 L1.51323368,3.02013834 Z" id="Shape"></path>
            </g>
            <g id="Group-6" transform="translate(0.000000, 25.502041)">
                <rect id="Rectangle" x="0" y="0" width="6.18231293" height="6.18231293"></rect>
                <path d="M4.58199323,2.10640009 C4.68640342,2.00695669 4.8516594,2.01098307 4.9511028,2.11539326 C5.04150589,2.21031162 5.04639676,2.35551575 4.96809396,2.45584535 L4.94210963,2.48450283 L3.27121466,4.07591332 C3.18046662,4.16234448 3.04304401,4.1709876 2.94296105,4.10184267 L2.91109826,4.07591332 L1.2402033,2.48450283 C1.13579311,2.38505944 1.13176673,2.21980345 1.23121012,2.11539326 C1.32161321,2.02047491 1.46640687,2.00851838 1.57043078,2.08184221 L1.6003197,2.10640009 L3.09115646,3.52599598 L4.58199323,2.10640009 Z" id="Line-3" fill="#01B6F5" fill-rule="nonzero"></path>
            </g>
            <g id="file-copy-2" transform="translate(32.070748, 37.093878)" fill-rule="nonzero">
                <g id="Group">
                    <path d="M6.1796192,2.96630272 L6.1796192,7.10780336 C6.1796192,7.45035119 5.90893694,7.72790625 5.57503316,7.72790625 L0.607294487,7.72790625 C0.321907146,7.72790625 0.0827693942,7.52513967 0.0192240492,7.25241454 L0.0167952834,6.89789753 L0.00269372206,4.78664371 L0.00269372206,0.620102891 C0.00269372206,0.27755506 0.27337599,0 0.607294487,0 L3.28678251,0 C3.5275836,0 4.30746765,0.681820366 4.99682498,1.39988031 C5.62583116,2.0552719 6.1796192,2.74083546 6.1796192,2.96630272 Z" id="Path" fill="#DDEAFB"></path>
                    <path d="M6.1796192,2.96630272 L6.1796192,4.48342963 C6.1796192,4.48172406 6.17947201,4.4800034 6.17947201,4.4781469 C6.13397313,2.61661565 4.65517859,2.53047683 4.17160397,2.03460884 L4.99682498,1.39989541 C5.62583116,2.0552719 6.1796192,2.74083546 6.1796192,2.96630272 Z" id="Path" fill="#CBE2FF"></path>
                    <path d="M3.28669419,0 L1.80713423,0 C1.80879756,0 1.81047562,0.000150935374 1.81228615,0.000150935374 C3.62772235,0.0468050595 3.7117282,1.56314711 4.19531755,2.059 L4.81431427,1.21282611 C4.17515144,0.567849065 3.50657845,0 3.28669419,0 Z" id="Path" fill="#CBE2FF"></path>
                    <path d="M6.17960448,2.96637819 L6.17960448,3.22865859 C6.17960448,2.67646152 5.74291239,2.22866645 5.20437406,2.22866645 L4.61081314,2.22866645 C4.27690936,2.22866645 4.00610934,1.95099065 4.00610934,1.60860884 L4.00610934,1 C4.00612406,0.447779974 3.56941725,-2.14492067e-16 3.03089363,-2.14492067e-16 L3.28667947,-2.14492067e-16 C3.74726178,-2.14492067e-16 4.18912052,0.187657951 4.51479593,0.521587372 L5.67093261,1.70707908 C5.9965933,2.0410236 6.17960448,2.4941014 6.17960448,2.96637819 Z" id="Path" fill="#BED8FB"></path>
                </g>
                <g id="Group" transform="translate(0.897907, 1.660289)" fill="#617881">
                    <path d="M4.26073231,1.96264286 L0.12567759,1.96264286 C0.0628682345,1.96264286 0.0119524717,1.91043431 0.0119524717,1.84603019 C0.0119524717,1.78162606 0.0628682345,1.72941752 0.12567759,1.72941752 L4.26073231,1.72941752 C4.32354167,1.72941752 4.37445743,1.78162606 4.37445743,1.84603019 C4.37445743,1.91043431 4.32355638,1.96264286 4.26073231,1.96264286 Z" id="Path"></path>
                    <path d="M4.26073231,2.58297215 L0.12567759,2.58297215 C0.0628682345,2.58297215 0.0119524717,2.53076361 0.0119524717,2.46635948 C0.0119524717,2.40195536 0.0628682345,2.34974681 0.12567759,2.34974681 L4.26073231,2.34974681 C4.32354167,2.34974681 4.37445743,2.40195536 4.37445743,2.46635948 C4.37445743,2.53076361 4.32355638,2.58297215 4.26073231,2.58297215 Z" id="Path"></path>
                    <path d="M4.26073231,3.20330145 L0.12567759,3.20330145 C0.0628682345,3.20330145 0.0119524717,3.1510929 0.0119524717,3.08668878 C0.0119524717,3.02228465 0.0628682345,2.97007611 0.12567759,2.97007611 L4.26073231,2.97007611 C4.32354167,2.97007611 4.37445743,3.02228465 4.37445743,3.08668878 C4.37445743,3.1510929 4.32355638,3.20330145 4.26073231,3.20330145 Z" id="Path"></path>
                    <path d="M1.6446866,3.82363074 L0.12567759,3.82363074 C0.0628682345,3.82363074 0.0119524717,3.77142219 0.0119524717,3.70701807 C0.0119524717,3.64261395 0.0628682345,3.5904054 0.12567759,3.5904054 L1.6446866,3.5904054 C1.70749595,3.5904054 1.75841171,3.64261395 1.75841171,3.70701807 C1.75841171,3.77142219 1.70749595,3.82363074 1.6446866,3.82363074 Z" id="Path"></path>
                    <path d="M1.6446866,0.242070153 L0.12567759,0.242070153 C0.0628682345,0.242070153 0.0119524717,0.189861607 0.0119524717,0.125457483 C0.0119524717,0.0610533588 0.0628682345,0.00884481293 0.12567759,0.00884481293 L1.6446866,0.00884481293 C1.70749595,0.00884481293 1.75841171,0.0610533588 1.75841171,0.125457483 C1.75841171,0.189861607 1.70749595,0.242070153 1.6446866,0.242070153 Z" id="Path"></path>
                </g>
            </g>
            <g id="file-copy-3" transform="translate(32.070748, 49.458503)" fill-rule="nonzero">
                <g id="Group">
                    <path d="M6.1796192,2.96630272 L6.1796192,7.10780336 C6.1796192,7.45035119 5.90893694,7.72790625 5.57503316,7.72790625 L0.607294487,7.72790625 C0.321907146,7.72790625 0.0827693942,7.52513967 0.0192240492,7.25241454 L0.0167952834,6.89789753 L0.00269372206,4.78664371 L0.00269372206,0.620102891 C0.00269372206,0.27755506 0.27337599,0 0.607294487,0 L3.28678251,0 C3.5275836,0 4.30746765,0.681820366 4.99682498,1.39988031 C5.62583116,2.0552719 6.1796192,2.74083546 6.1796192,2.96630272 Z" id="Path" fill="#DDEAFB"></path>
                    <path d="M6.1796192,2.96630272 L6.1796192,4.48342963 C6.1796192,4.48172406 6.17947201,4.4800034 6.17947201,4.4781469 C6.13397313,2.61661565 4.65517859,2.53047683 4.17160397,2.03460884 L4.99682498,1.39989541 C5.62583116,2.0552719 6.1796192,2.74083546 6.1796192,2.96630272 Z" id="Path" fill="#CBE2FF"></path>
                    <path d="M3.28669419,0 L1.80713423,0 C1.80879756,0 1.81047562,0.000150935374 1.81228615,0.000150935374 C3.62772235,0.0468050595 3.7117282,1.56314711 4.19531755,2.059 L4.81431427,1.21282611 C4.17515144,0.567849065 3.50657845,0 3.28669419,0 Z" id="Path" fill="#CBE2FF"></path>
                    <path d="M6.17960448,2.96637819 L6.17960448,3.22865859 C6.17960448,2.67646152 5.74291239,2.22866645 5.20437406,2.22866645 L4.61081314,2.22866645 C4.27690936,2.22866645 4.00610934,1.95099065 4.00610934,1.60860884 L4.00610934,1 C4.00612406,0.447779974 3.56941725,-2.14492067e-16 3.03089363,-2.14492067e-16 L3.28667947,-2.14492067e-16 C3.74726178,-2.14492067e-16 4.18912052,0.187657951 4.51479593,0.521587372 L5.67093261,1.70707908 C5.9965933,2.0410236 6.17960448,2.4941014 6.17960448,2.96637819 Z" id="Path" fill="#BED8FB"></path>
                </g>
                <g id="Group" transform="translate(0.897907, 1.660289)" fill="#617881">
                    <path d="M4.26073231,1.96264286 L0.12567759,1.96264286 C0.0628682345,1.96264286 0.0119524717,1.91043431 0.0119524717,1.84603019 C0.0119524717,1.78162606 0.0628682345,1.72941752 0.12567759,1.72941752 L4.26073231,1.72941752 C4.32354167,1.72941752 4.37445743,1.78162606 4.37445743,1.84603019 C4.37445743,1.91043431 4.32355638,1.96264286 4.26073231,1.96264286 Z" id="Path"></path>
                    <path d="M4.26073231,2.58297215 L0.12567759,2.58297215 C0.0628682345,2.58297215 0.0119524717,2.53076361 0.0119524717,2.46635948 C0.0119524717,2.40195536 0.0628682345,2.34974681 0.12567759,2.34974681 L4.26073231,2.34974681 C4.32354167,2.34974681 4.37445743,2.40195536 4.37445743,2.46635948 C4.37445743,2.53076361 4.32355638,2.58297215 4.26073231,2.58297215 Z" id="Path"></path>
                    <path d="M4.26073231,3.20330145 L0.12567759,3.20330145 C0.0628682345,3.20330145 0.0119524717,3.1510929 0.0119524717,3.08668878 C0.0119524717,3.02228465 0.0628682345,2.97007611 0.12567759,2.97007611 L4.26073231,2.97007611 C4.32354167,2.97007611 4.37445743,3.02228465 4.37445743,3.08668878 C4.37445743,3.1510929 4.32355638,3.20330145 4.26073231,3.20330145 Z" id="Path"></path>
                    <path d="M1.6446866,3.82363074 L0.12567759,3.82363074 C0.0628682345,3.82363074 0.0119524717,3.77142219 0.0119524717,3.70701807 C0.0119524717,3.64261395 0.0628682345,3.5904054 0.12567759,3.5904054 L1.6446866,3.5904054 C1.70749595,3.5904054 1.75841171,3.64261395 1.75841171,3.70701807 C1.75841171,3.77142219 1.70749595,3.82363074 1.6446866,3.82363074 Z" id="Path"></path>
                    <path d="M1.6446866,0.242070153 L0.12567759,0.242070153 C0.0628682345,0.242070153 0.0119524717,0.189861607 0.0119524717,0.125457483 C0.0119524717,0.0610533588 0.0628682345,0.00884481293 0.12567759,0.00884481293 L1.6446866,0.00884481293 C1.70749595,0.00884481293 1.75841171,0.0610533588 1.75841171,0.125457483 C1.75841171,0.189861607 1.70749595,0.242070153 1.6446866,0.242070153 Z" id="Path"></path>
                </g>
            </g>
            <g id="folderOpen(1)" transform="translate(20.478912, 25.502041)" fill-rule="nonzero">
                <path d="M6.89464653,5.52563991 L0,5.52563991 L0,0.476970715 C0,0.218967901 0.209147383,0.0098205184 0.467150197,0.0098205184 L2.89206028,0.0098205184 C3.02471967,0.0098205184 3.15111765,0.0662225897 3.239733,0.16495505 L3.74613231,0.729206446 C3.83474766,0.827938906 3.96114564,0.884340977 4.09380503,0.884340977 L6.42747986,0.884340977 C6.68548267,0.884340977 6.89464653,1.09348836 6.89464653,1.35149117 L6.89464653,5.52563991 L6.89464653,5.52563991 Z" id="Path" fill="#FCD462"></path>
                <rect id="Rectangle" fill="#EBF0F3" x="1.26505084" y="1.40962337" width="5.1863377" height="1.70631507"></rect>
                <path d="M6.60764353,5.70550698 L0.373937659,5.70550698 C0.128325834,5.70550698 -0.0505196467,5.47263217 0.0128688337,5.23534143 L0.747529292,2.07329928 C0.791210826,1.90977776 0.939342471,1.79601793 1.10859812,1.79601793 L7.34230399,1.79601793 C7.58791581,1.79601793 7.7667613,2.02889274 7.70337282,2.26618348 L6.96871236,5.42822564 C6.92503082,5.59174715 6.77689918,5.70550698 6.60764353,5.70550698 Z" id="Path" fill="#F6C358"></path>
            </g>
            <g id="Group-6" transform="translate(-0.000000, 63.531973)">
                <rect id="Rectangle" x="0" y="0" width="6.18231293" height="6.18231293"></rect>
                <path d="M4.58199323,2.10640009 C4.68640342,2.00695669 4.8516594,2.01098307 4.9511028,2.11539326 C5.04150589,2.21031162 5.04639676,2.35551575 4.96809396,2.45584535 L4.94210963,2.48450283 L3.27121466,4.07591332 C3.18046662,4.16234448 3.04304401,4.1709876 2.94296105,4.10184267 L2.91109826,4.07591332 L1.2402033,2.48450283 C1.13579311,2.38505944 1.13176673,2.21980345 1.23121012,2.11539326 C1.32161321,2.02047491 1.46640687,2.00851838 1.57043078,2.08184221 L1.6003197,2.10640009 L3.09115646,3.52599598 L4.58199323,2.10640009 Z" id="Line-3" fill="#01B6F5" fill-rule="nonzero" transform="translate(3.091156, 3.091156) rotate(-90.000000) translate(-3.091156, -3.091156) "></path>
            </g>
            <g id="Group-169" transform="translate(20.478912, 63.531973)" fill-rule="nonzero">
                <g id="folderClosed" transform="translate(3.863946, 3.091156) scale(-1, 1) translate(-3.863946, -3.091156) ">
                    <path d="M5.5366468,3.47927396 L0,3.47927396 L0,1.23945239 C0,0.889965905 0.276375092,0.606643679 0.617292082,0.606643679 L5.5366468,0.606643679 L5.5366468,3.47927396 L5.5366468,3.47927396 Z" id="Path" fill="#F6C358"></path>
                    <rect id="Rectangle" fill="#EBF0F3" x="0.933558911" y="1.0387637" width="6.03388469" height="1.4703432"></rect>
                    <path d="M7.09893309,6.17273541 L0.617292082,6.17273541 C0.276375092,6.17273541 0,5.88941318 0,5.5399098 L0,2.12391165 C0,1.77442516 0.276375092,1.49110293 0.617292082,1.49110293 L3.28133838,1.49110293 C3.5130433,1.49110293 3.72522252,1.35809875 3.83080957,1.14666702 L4.17151235,0.358979547 C4.2770994,0.147547824 4.4892951,0.0145436378 4.72098354,0.0145436378 L7.09891661,0.120014572 C7.4398336,0.120014572 7.71620869,0.297865864 7.71620869,0.647369243 L7.71620869,5.53994359 C7.71620869,5.88941318 7.43986656,6.17273541 7.09893309,6.17273541 Z" id="Path" fill="#FCD462"></path>
                </g>
            </g>
            <line x1="3.28435374" y1="34.9687075" x2="3.28435374" y2="58.6761905" id="Line" stroke-opacity="0.1" stroke="#000000" stroke-linecap="round" stroke-linejoin="round"></line>
            <g id="file" transform="translate(1.545578, 0.000000)" fill-rule="nonzero">
                <g id="Group">
                    <path d="M6.1796192,2.96630272 L6.1796192,7.10780336 C6.1796192,7.45035119 5.90893694,7.72790625 5.57503316,7.72790625 L0.607294487,7.72790625 C0.321907146,7.72790625 0.0827693942,7.52513967 0.0192240492,7.25241454 L0.0167952834,6.89789753 L0.00269372206,4.78664371 L0.00269372206,0.620102891 C0.00269372206,0.27755506 0.27337599,0 0.607294487,0 L3.28678251,0 C3.5275836,0 4.30746765,0.681820366 4.99682498,1.39988031 C5.62583116,2.0552719 6.1796192,2.74083546 6.1796192,2.96630272 Z" id="Path" fill="#DDEAFB"></path>
                    <path d="M6.1796192,2.96630272 L6.1796192,4.48342963 C6.1796192,4.48172406 6.17947201,4.4800034 6.17947201,4.4781469 C6.13397313,2.61661565 4.65517859,2.53047683 4.17160397,2.03460884 L4.99682498,1.39989541 C5.62583116,2.0552719 6.1796192,2.74083546 6.1796192,2.96630272 Z" id="Path" fill="#CBE2FF"></path>
                    <path d="M3.28669419,0 L1.80713423,0 C1.80879756,0 1.81047562,0.000150935374 1.81228615,0.000150935374 C3.62772235,0.0468050595 3.7117282,1.56314711 4.19531755,2.059 L4.81431427,1.21282611 C4.17515144,0.567849065 3.50657845,0 3.28669419,0 Z" id="Path" fill="#CBE2FF"></path>
                    <path d="M6.17960448,2.96637819 L6.17960448,3.22865859 C6.17960448,2.67646152 5.74291239,2.22866645 5.20437406,2.22866645 L4.61081314,2.22866645 C4.27690936,2.22866645 4.00610934,1.95099065 4.00610934,1.60860884 L4.00610934,1 C4.00612406,0.447779974 3.56941725,-2.14492067e-16 3.03089363,-2.14492067e-16 L3.28667947,-2.14492067e-16 C3.74726178,-2.14492067e-16 4.18912052,0.187657951 4.51479593,0.521587372 L5.67093261,1.70707908 C5.9965933,2.0410236 6.17960448,2.4941014 6.17960448,2.96637819 Z" id="Path" fill="#BED8FB"></path>
                </g>
                <g id="Group" transform="translate(0.897907, 1.660289)" fill="#617881">
                    <path d="M4.26073231,1.96264286 L0.12567759,1.96264286 C0.0628682345,1.96264286 0.0119524717,1.91043431 0.0119524717,1.84603019 C0.0119524717,1.78162606 0.0628682345,1.72941752 0.12567759,1.72941752 L4.26073231,1.72941752 C4.32354167,1.72941752 4.37445743,1.78162606 4.37445743,1.84603019 C4.37445743,1.91043431 4.32355638,1.96264286 4.26073231,1.96264286 Z" id="Path"></path>
                    <path d="M4.26073231,2.58297215 L0.12567759,2.58297215 C0.0628682345,2.58297215 0.0119524717,2.53076361 0.0119524717,2.46635948 C0.0119524717,2.40195536 0.0628682345,2.34974681 0.12567759,2.34974681 L4.26073231,2.34974681 C4.32354167,2.34974681 4.37445743,2.40195536 4.37445743,2.46635948 C4.37445743,2.53076361 4.32355638,2.58297215 4.26073231,2.58297215 Z" id="Path"></path>
                    <path d="M4.26073231,3.20330145 L0.12567759,3.20330145 C0.0628682345,3.20330145 0.0119524717,3.1510929 0.0119524717,3.08668878 C0.0119524717,3.02228465 0.0628682345,2.97007611 0.12567759,2.97007611 L4.26073231,2.97007611 C4.32354167,2.97007611 4.37445743,3.02228465 4.37445743,3.08668878 C4.37445743,3.1510929 4.32355638,3.20330145 4.26073231,3.20330145 Z" id="Path"></path>
                    <path d="M1.6446866,3.82363074 L0.12567759,3.82363074 C0.0628682345,3.82363074 0.0119524717,3.77142219 0.0119524717,3.70701807 C0.0119524717,3.64261395 0.0628682345,3.5904054 0.12567759,3.5904054 L1.6446866,3.5904054 C1.70749595,3.5904054 1.75841171,3.64261395 1.75841171,3.70701807 C1.75841171,3.77142219 1.70749595,3.82363074 1.6446866,3.82363074 Z" id="Path"></path>
                    <path d="M1.6446866,0.242070153 L0.12567759,0.242070153 C0.0628682345,0.242070153 0.0119524717,0.189861607 0.0119524717,0.125457483 C0.0119524717,0.0610533588 0.0628682345,0.00884481293 0.12567759,0.00884481293 L1.6446866,0.00884481293 C1.70749595,0.00884481293 1.75841171,0.0610533588 1.75841171,0.125457483 C1.75841171,0.189861607 1.70749595,0.242070153 1.6446866,0.242070153 Z" id="Path"></path>
                </g>
            </g>
            <g id="file-copy" transform="translate(1.545578, 12.364626)" fill-rule="nonzero">
                <g id="Group">
                    <path d="M6.1796192,2.96630272 L6.1796192,7.10780336 C6.1796192,7.45035119 5.90893694,7.72790625 5.57503316,7.72790625 L0.607294487,7.72790625 C0.321907146,7.72790625 0.0827693942,7.52513967 0.0192240492,7.25241454 L0.0167952834,6.89789753 L0.00269372206,4.78664371 L0.00269372206,0.620102891 C0.00269372206,0.27755506 0.27337599,0 0.607294487,0 L3.28678251,0 C3.5275836,0 4.30746765,0.681820366 4.99682498,1.39988031 C5.62583116,2.0552719 6.1796192,2.74083546 6.1796192,2.96630272 Z" id="Path" fill="#DDEAFB"></path>
                    <path d="M6.1796192,2.96630272 L6.1796192,4.48342963 C6.1796192,4.48172406 6.17947201,4.4800034 6.17947201,4.4781469 C6.13397313,2.61661565 4.65517859,2.53047683 4.17160397,2.03460884 L4.99682498,1.39989541 C5.62583116,2.0552719 6.1796192,2.74083546 6.1796192,2.96630272 Z" id="Path" fill="#CBE2FF"></path>
                    <path d="M3.28669419,0 L1.80713423,0 C1.80879756,0 1.81047562,0.000150935374 1.81228615,0.000150935374 C3.62772235,0.0468050595 3.7117282,1.56314711 4.19531755,2.059 L4.81431427,1.21282611 C4.17515144,0.567849065 3.50657845,0 3.28669419,0 Z" id="Path" fill="#CBE2FF"></path>
                    <path d="M6.17960448,2.96637819 L6.17960448,3.22865859 C6.17960448,2.67646152 5.74291239,2.22866645 5.20437406,2.22866645 L4.61081314,2.22866645 C4.27690936,2.22866645 4.00610934,1.95099065 4.00610934,1.60860884 L4.00610934,1 C4.00612406,0.447779974 3.56941725,-2.14492067e-16 3.03089363,-2.14492067e-16 L3.28667947,-2.14492067e-16 C3.74726178,-2.14492067e-16 4.18912052,0.187657951 4.51479593,0.521587372 L5.67093261,1.70707908 C5.9965933,2.0410236 6.17960448,2.4941014 6.17960448,2.96637819 Z" id="Path" fill="#BED8FB"></path>
                </g>
                <g id="Group" transform="translate(0.897907, 1.660289)" fill="#617881">
                    <path d="M4.26073231,1.96264286 L0.12567759,1.96264286 C0.0628682345,1.96264286 0.0119524717,1.91043431 0.0119524717,1.84603019 C0.0119524717,1.78162606 0.0628682345,1.72941752 0.12567759,1.72941752 L4.26073231,1.72941752 C4.32354167,1.72941752 4.37445743,1.78162606 4.37445743,1.84603019 C4.37445743,1.91043431 4.32355638,1.96264286 4.26073231,1.96264286 Z" id="Path"></path>
                    <path d="M4.26073231,2.58297215 L0.12567759,2.58297215 C0.0628682345,2.58297215 0.0119524717,2.53076361 0.0119524717,2.46635948 C0.0119524717,2.40195536 0.0628682345,2.34974681 0.12567759,2.34974681 L4.26073231,2.34974681 C4.32354167,2.34974681 4.37445743,2.40195536 4.37445743,2.46635948 C4.37445743,2.53076361 4.32355638,2.58297215 4.26073231,2.58297215 Z" id="Path"></path>
                    <path d="M4.26073231,3.20330145 L0.12567759,3.20330145 C0.0628682345,3.20330145 0.0119524717,3.1510929 0.0119524717,3.08668878 C0.0119524717,3.02228465 0.0628682345,2.97007611 0.12567759,2.97007611 L4.26073231,2.97007611 C4.32354167,2.97007611 4.37445743,3.02228465 4.37445743,3.08668878 C4.37445743,3.1510929 4.32355638,3.20330145 4.26073231,3.20330145 Z" id="Path"></path>
                    <path d="M1.6446866,3.82363074 L0.12567759,3.82363074 C0.0628682345,3.82363074 0.0119524717,3.77142219 0.0119524717,3.70701807 C0.0119524717,3.64261395 0.0628682345,3.5904054 0.12567759,3.5904054 L1.6446866,3.5904054 C1.70749595,3.5904054 1.75841171,3.64261395 1.75841171,3.70701807 C1.75841171,3.77142219 1.70749595,3.82363074 1.6446866,3.82363074 Z" id="Path"></path>
                    <path d="M1.6446866,0.242070153 L0.12567759,0.242070153 C0.0628682345,0.242070153 0.0119524717,0.189861607 0.0119524717,0.125457483 C0.0119524717,0.0610533588 0.0628682345,0.00884481293 0.12567759,0.00884481293 L1.6446866,0.00884481293 C1.70749595,0.00884481293 1.75841171,0.0610533588 1.75841171,0.125457483 C1.75841171,0.189861607 1.70749595,0.242070153 1.6446866,0.242070153 Z" id="Path"></path>
                </g>
            </g>
            <g id="Group-5" transform="translate(103.000000, 0.000000)" fill-rule="nonzero">
                <path d="M0,11 C0,4.92486775 4.92817249,0 10.991074,0 L38.1815451,0 C44.1522361,0 49.0109701,4.76342789 49.1686683,10.7021035 L49.172619,11 C49.172619,17.0751322 44.2444466,22 38.1815451,22 L10.991074,22 C5.02038296,22 0.161648924,17.2365721 0.00395076211,11.2978965 L0,11 Z" id="Path" fill="#FFB900"></path>
                <path d="M8.9375,15.8125 L12.1325784,15.8125 C12.6349885,15.8125 13.0823824,15.7502178 13.4747605,15.6256533 C13.8671385,15.5010889 14.1982725,15.3266986 14.468162,15.1024826 C14.7380519,14.8782666 14.9435833,14.6094149 15.0847561,14.2959277 C15.2259289,13.9824404 15.2965157,13.6346981 15.2965157,13.2527003 C15.2965157,12.7046167 15.1314678,12.2592988 14.801372,11.9167465 C14.4712761,11.5741943 13.9844366,11.3385599 13.3408537,11.2098432 C13.6190477,11.1226481 13.8619484,11.0095019 14.0695557,10.8704051 C14.2771634,10.7313082 14.4494774,10.5756026 14.5864983,10.4032883 C14.7235192,10.230974 14.8262848,10.0441273 14.8947953,9.84274826 C14.9633057,9.64138096 14.997561,9.43273549 14.997561,9.21681185 C14.997561,8.85557491 14.9363165,8.52963099 14.8138284,8.23898084 C14.6913403,7.94833068 14.5013795,7.70231587 14.243946,7.50093641 C13.9865129,7.29955695 13.658493,7.14488992 13.2598868,7.0369338 C12.8612805,6.92897768 12.3837833,6.875 11.8273955,6.875 L8.9375,6.875 L8.9375,15.8125 Z M10.2205139,11.7641551 L12.1138937,11.7641551 C12.7574766,11.7641551 13.2370498,11.8949477 13.5526132,12.1565331 C13.8681767,12.4181185 14.0259582,12.7731272 14.0259582,13.2215592 C14.0259582,13.4499273 13.989627,13.659611 13.9169643,13.8506098 C13.8443244,14.0416085 13.7311782,14.2066564 13.5775261,14.3457535 C13.4239071,14.4848504 13.22668,14.5938443 12.9858449,14.6727352 C12.7450202,14.751626 12.4543697,14.7910714 12.1138937,14.7910714 L10.2205139,14.7910714 L10.2205139,11.7641551 Z M10.2205139,10.8548345 L10.2205139,7.88397213 L11.8273955,7.88397213 C12.4709784,7.88397213 12.9474374,8.00334615 13.2567726,8.24209495 C13.5661079,8.48084375 13.7207753,8.85765124 13.7207753,9.37251742 C13.7207753,9.59673345 13.68133,9.80018886 13.602439,9.98288328 C13.5235697,10.1655777 13.4041953,10.3212833 13.2443162,10.45 C13.0844584,10.5787167 12.8820411,10.6783683 12.6370645,10.7489547 C12.3920878,10.8195411 12.1035132,10.8548345 11.7713415,10.8548345 L10.2205139,10.8548345 Z M23.2935526,6.875 L17.7628906,6.875 L17.7628906,15.8125 L23.2935526,15.8125 L23.2997808,14.7661585 L19.0521327,14.7661585 L19.0521327,11.8077526 L22.4714272,11.8077526 L22.4714272,10.7987805 L19.0521327,10.7987805 L19.0521327,7.92134146 L23.2935526,7.92134146 L23.2935526,6.875 Z M31.776391,6.875 L24.7696402,6.875 L24.7696402,7.95248258 L27.6346227,7.95248258 L27.6346227,15.8125 L28.9176367,15.8125 L28.9176367,7.95248258 L31.776391,7.95248258 L31.776391,6.875 Z M40.2841425,15.8125 L36.7153707,6.875 L35.4136721,6.875 L31.8511286,15.8125 L32.8476442,15.8125 C32.9555979,15.8125 33.0479832,15.7813589 33.1248002,15.7190767 C33.2016149,15.6567944 33.2524787,15.5862079 33.2773916,15.5073171 L34.0808324,13.4084059 L38.0482104,13.4084059 L38.8516512,15.5073171 C38.8890205,15.5986643 38.9429982,15.672365 39.013585,15.728419 C39.0841718,15.784473 39.1755188,15.8125 39.2876268,15.8125 L40.2841425,15.8125 Z M37.6932017,12.4866289 L34.4358411,12.4866289 L35.7873655,8.97391115 C35.8329778,8.86180314 35.8786513,8.73101045 35.9243864,8.5815331 L36.0614073,8.09573171 L36.0614073,8.09573171 C36.1070808,8.27012195 36.1537925,8.43101797 36.2015423,8.57841899 L36.2489461,8.71993794 L36.2489461,8.71993794 L37.6932017,12.4866289 Z" id="BETA" fill="#FFFFFF"></path>
            </g>
        </g>
    </g>
</svg>