<svg xmlns="http://www.w3.org/2000/svg" width="144" height="76" viewBox="0 0 144 76">
    <g fill="none" fill-rule="nonzero">
        <path fill="#F4F6F9" d="M1 11.64h43.796v10.08H1z"/>
        <path fill="#576574" d="M12.992 17.897a.869.869 0 0 1 0-1.738h10.855a.869.869 0 0 1 0 1.738H12.992z"/>
        <path fill="#1DE9B6" d="M6.388 18.766a1.738 1.738 0 1 1 0-3.476h.869a1.738 1.738 0 1 1 0 3.476h-.87z"/>
        <path fill="#F4F6F9" d="M1 22.28h43.796v10.08H1z"/>
        <path fill="#576574" d="M12.992 28.537a.869.869 0 0 1 0-1.738h15.855a.869.869 0 0 1 0 1.738H12.992z"/>
        <path fill="#01B6F5" d="M6.388 29.406a1.738 1.738 0 1 1 0-3.476h.869a1.738 1.738 0 1 1 0 3.476h-.87z"/>
        <path fill="#F4F6F9" d="M1 33h43.796v10.08H1z"/>
        <path fill="#576574" d="M12.992 39.257a.869.869 0 0 1 0-1.738h11.855a.869.869 0 0 1 0 1.738H12.992z"/>
        <path fill="#5C56B6" d="M6.388 40.126a1.738 1.738 0 1 1 0-3.476h.869a1.738 1.738 0 1 1 0 3.476h-.87z"/>
        <path fill="#F4F6F9" d="M1 44h43.796v10.08H1z"/>
        <path fill="#576574" d="M12.992 50.257a.869.869 0 0 1 0-1.738h20.855a.869.869 0 0 1 0 1.738H12.992z"/>
        <path fill="#FC0" d="M6.388 51.126a1.738 1.738 0 1 1 0-3.476h.869a1.738 1.738 0 1 1 0 3.476h-.87z"/>
        <path fill="#F4F6F9" d="M1 55h43.796v10.08H1z"/>
        <path fill="#576574" d="M12.992 61.257a.869.869 0 0 1 0-1.738h11.855a.869.869 0 0 1 0 1.738H12.992z"/>
        <path fill="#FE4849" d="M6.388 62.126a1.738 1.738 0 1 1 0-3.476h.869a1.738 1.738 0 1 1 0 3.476h-.87z"/>
        <g>
            <path fill="#F4F6F9" d="M1 65.52h43.796V75.6H1z"/>
            <path fill="#576574" d="M12.992 71.777a.869.869 0 0 1 0-1.738h15.855a.869.869 0 0 1 0 1.738H12.992z"/>
            <path fill="#663398" d="M6.388 72.646a1.738 1.738 0 1 1 0-3.476h.869a1.738 1.738 0 1 1 0 3.476h-.87z"/>
        </g>
        <g>
            <path fill="#F4F6F9" d="M1 1h43.796v10.08H1z"/>
            <path fill="#576574" d="M12.992 7.257a.869.869 0 0 1 0-1.738h20.855a.869.869 0 0 1 0 1.738H12.992z"/>
            <path fill="#FF6837" d="M6.388 8.126a1.738 1.738 0 1 1 0-3.476h.869a1.738 1.738 0 1 1 0 3.476h-.87z"/>
        </g>
        <path fill="#E3E5ED" d="M4 1a3 3 0 0 0-3 3v68a3 3 0 0 0 3 3h136a3 3 0 0 0 3-3V4a3 3 0 0 0-3-3H4zm0-1h136a4 4 0 0 1 4 4v68a4 4 0 0 1-4 4H4a4 4 0 0 1-4-4V4a4 4 0 0 1 4-4z"/>
        <path fill="#576574" d="M59 15a1 1 0 0 1 0-2h40a1 1 0 0 1 0 2H59zM59 55a1 1 0 0 1 0-2h40a1 1 0 0 1 0 2H59zM59 59a1 1 0 0 1 0-2h40a1 1 0 0 1 0 2H59zM59 63a1 1 0 0 1 0-2h59a1 1 0 1 1 0 2H59zM59 19a1 1 0 0 1 0-2h67a1 1 0 1 1 0 2H59zM59 23a1 1 0 0 1 0-2h67a1 1 0 1 1 0 2H59zM59 31a1 1 0 0 1 0-2h52a1 1 0 1 1 0 2H59zM59 35a1 1 0 0 1 0-2h26a1 1 0 0 1 0 2H59zM59 39a1 1 0 0 1 0-2h26a1 1 0 0 1 0 2H59zM59 43a1 1 0 0 1 0-2h65a1 1 0 1 1 0 2H59zM59 47a1 1 0 0 1 0-2h65a1 1 0 1 1 0 2H59z"/>
    </g>
</svg>
