<?xml version="1.0" encoding="UTF-8"?>
<svg width="126px" height="88px" viewBox="0 0 126 88" version="1.1" xmlns="http://www.w3.org/2000/svg" xmlns:xlink="http://www.w3.org/1999/xlink">
    <!-- Generator: Sketch 52.5 (67469) - http://www.bohemiancoding.com/sketch -->
    <title>verticalSectionOverflow</title>
    <desc>Created with Sketch.</desc>
    <g id="re-design-layout" stroke="none" stroke-width="1" fill="none" fill-rule="evenodd">
        <g id="re-design-layout-componentes-V2" transform="translate(-171.000000, -668.000000)" fill-rule="nonzero">
            <g id="verticalSectionOverflow" transform="translate(171.000000, 668.000000)">
                <rect id="Rectangle" fill="#F4F6F9" x="0" y="0" width="126" height="58"></rect>
                <path d="M13.5,18 C12.1192881,18 11,16.8807119 11,15.5 C11,14.1192881 12.1192881,13 13.5,13 L94.5,13 C95.8807119,13 97,14.1192881 97,15.5 C97,16.8807119 95.8807119,18 94.5,18 L13.5,18 Z" id="Line-11" fill="#01B6F5"></path>
                <path d="M25.5,33 C24.6715729,33 24,32.3284271 24,31.5 C24,30.6715729 24.6715729,30 25.5,30 L81.5,30 C82.3284271,30 83,30.6715729 83,31.5 C83,32.3284271 82.3284271,33 81.5,33 L25.5,33 Z" id="Line-11" fill-opacity="0.685377038" fill="#576574"></path>
                <path d="M25.5,47 C24.6715729,47 24,46.3284271 24,45.5 C24,44.6715729 24.6715729,44 25.5,44 L81.5,44 C82.3284271,44 83,44.6715729 83,45.5 C83,46.3284271 82.3284271,47 81.5,47 L25.5,47 Z" id="Line-11" fill-opacity="0.685377038" fill="#576574"></path>
                <path d="M114.077202,15.8976283 L112.102372,13.9227977 C111.965876,13.786302 111.965876,13.5655857 112.102372,13.4305421 L112.430542,13.1023717 C112.567038,12.9658761 112.787754,12.9658761 112.922798,13.1023717 L114.322604,14.5021781 L115.72241,13.1023717 C115.858906,12.9658761 116.079622,12.9658761 116.214666,13.1023717 L116.542836,13.4305421 C116.679332,13.5670378 116.679332,13.7877541 116.542836,13.9227977 L114.568006,15.8976283 C114.434414,16.0341239 114.213698,16.0341239 114.077202,15.8976283 Z" id="Shape" fill="#01B6F5" transform="translate(114.322604, 14.500000) scale(1, -1) rotate(-360.000000) translate(-114.322604, -14.500000) "></path>
                <rect id="Rectangle" fill="#F4F6F9" x="0" y="59" width="126" height="29"></rect>
                <path d="M13.5,77 C12.1192881,77 11,75.8807119 11,74.5 C11,73.1192881 12.1192881,72 13.5,72 L94.5,72 C95.8807119,72 97,73.1192881 97,74.5 C97,75.8807119 95.8807119,77 94.5,77 L13.5,77 Z" id="Line-11" fill="#01B6F5"></path>
                <path d="M114.077202,74.8976283 L112.102372,72.9227977 C111.965876,72.786302 111.965876,72.5655857 112.102372,72.4305421 L112.430542,72.1023717 C112.567038,71.9658761 112.787754,71.9658761 112.922798,72.1023717 L114.322604,73.5021781 L115.72241,72.1023717 C115.858906,71.9658761 116.079622,71.9658761 116.214666,72.1023717 L116.542836,72.4305421 C116.679332,72.5670378 116.679332,72.7877541 116.542836,72.9227977 L114.568006,74.8976283 C114.434414,75.0341239 114.213698,75.0341239 114.077202,74.8976283 Z" id="Shape" fill="#01B6F5" transform="translate(114.322604, 73.500000) rotate(-360.000000) translate(-114.322604, -73.500000) "></path>
            </g>
        </g>
    </g>
</svg>