<?xml version="1.0" encoding="UTF-8"?>
<svg width="95px" height="45px" viewBox="0 0 95 45" version="1.1" xmlns="http://www.w3.org/2000/svg" xmlns:xlink="http://www.w3.org/1999/xlink">
    <!-- Generator: Sketch 56.2 (81672) - https://sketch.com -->
    <title>VisualPickerOption</title>
    <desc>Created with Sketch.</desc>
    <defs>
        <filter x="-5.9%" y="-5.9%" width="112.6%" height="112.6%" filterUnits="objectBoundingBox" id="filter-1">
            <feOffset dx="0" dy="0" in="SourceAlpha" result="shadowOffsetOuter1"></feOffset>
            <feGaussianBlur stdDeviation="0.5" in="shadowOffsetOuter1" result="shadowBlurOuter1"></feGaussianBlur>
            <feColorMatrix values="0 0 0 0 0.533333333   0 0 0 0 0.596078431   0 0 0 0 0.666666667  0 0 0 0.5 0" type="matrix" in="shadowBlurOuter1" result="shadowMatrixOuter1"></feColorMatrix>
            <feMerge>
                <feMergeNode in="shadowMatrixOuter1"></feMergeNode>
                <feMergeNode in="SourceGraphic"></feMergeNode>
            </feMerge>
        </filter>
        <filter x="-5.9%" y="-5.9%" width="112.6%" height="112.6%" filterUnits="objectBoundingBox" id="filter-2">
            <feOffset dx="0" dy="0" in="SourceAlpha" result="shadowOffsetOuter1"></feOffset>
            <feGaussianBlur stdDeviation="0.5" in="shadowOffsetOuter1" result="shadowBlurOuter1"></feGaussianBlur>
            <feColorMatrix values="0 0 0 0 0.533333333   0 0 0 0 0.596078431   0 0 0 0 0.666666667  0 0 0 0.5 0" type="matrix" in="shadowBlurOuter1" result="shadowMatrixOuter1"></feColorMatrix>
            <feMerge>
                <feMergeNode in="shadowMatrixOuter1"></feMergeNode>
                <feMergeNode in="SourceGraphic"></feMergeNode>
            </feMerge>
        </filter>
    </defs>
    <g id="pages" stroke="none" stroke-width="1" fill="none" fill-rule="evenodd">
        <g id="VisualPickerOption" transform="translate(1.000000, 1.000000)">
            <g id="Group-128" transform="translate(0.000000, 0.302326)">
                <g id="price_active" filter="url(#filter-1)" fill-rule="nonzero">
                    <path d="M6.60582867,0.600529879 C3.28919373,0.600529879 0.600529879,3.28919373 0.600529879,6.60582867 L0.600529879,36.0317928 C0.600529879,39.3484277 3.28919373,42.0370916 6.60582867,42.0370916 L36.0317928,42.0370916 C39.3484277,42.0370916 42.0370916,39.3484277 42.0370916,36.0317928 L42.0370916,6.60582867 C42.0370916,3.28919373 39.3484277,0.600529879 36.0317928,0.600529879 L6.60582867,0.600529879 Z" id="Rectangle-17" fill="#FFFFFF"></path>
                    <path d="M6.60582867,0 L36.0317928,0 C39.6800912,0 42.6376214,2.95753024 42.6376214,6.60582867 L42.6376214,36.0317928 C42.6376214,39.6800912 39.6800912,42.6376214 36.0317928,42.6376214 L6.60582867,42.6376214 C2.95753024,42.6376214 0,39.6800912 0,36.0317928 L0,6.60582867 C0,2.95753024 2.95753024,0 6.60582867,0 Z M6.60582867,0.600529879 C3.28919373,0.600529879 0.600529879,3.28919373 0.600529879,6.60582867 L0.600529879,36.0317928 C0.600529879,39.3484277 3.28919373,42.0370916 6.60582867,42.0370916 L36.0317928,42.0370916 C39.3484277,42.0370916 42.0370916,39.3484277 42.0370916,36.0317928 L42.0370916,6.60582867 C42.0370916,3.28919373 39.3484277,0.600529879 36.0317928,0.600529879 L6.60582867,0.600529879 Z" id="Rectangle-17" fill="#E6E6EB"></path>
                </g>
                <g id="rainbow-(5)" transform="translate(11.710333, 15.613777)" fill="#01B6F5">
                    <path d="M6.55121799,8.98407713 C6.55121799,7.53683765 5.37797027,6.36358993 3.93073079,6.36358993 C2.48349132,6.36358993 1.3102436,7.53683765 1.3102436,8.98407713 C0.586642626,8.98407713 0,9.57071975 0,10.2943207 C0,11.0179217 0.586642626,11.6045643 1.3102436,11.6045643 L6.55121799,11.6045643 C7.27481896,11.6045643 7.86146158,11.0179217 7.86146158,10.2943207 C7.86146158,9.57071975 7.27485649,8.98407713 6.55121799,8.98407713 Z"></path>
                    <path d="M17.9067125,8.98407713 C17.9067125,7.53683765 16.7334648,6.36358993 15.2862253,6.36358993 C13.8389859,6.36358993 12.6657382,7.53683765 12.6657382,8.98407713 C11.9421372,8.98407713 11.3554946,9.57071975 11.3554946,10.2943207 C11.3554946,11.0179217 11.9421372,11.6045643 12.6657382,11.6045643 L17.9067125,11.6045643 C18.6303135,11.6045643 19.2169561,11.0179217 19.2169561,10.2943207 C19.2169561,9.57071975 18.6303135,8.98407713 17.9067125,8.98407713 Z"></path>
                    <path d="M12.9759494,3.61988151 C11.9684104,2.98617236 10.8039454,2.65122682 9.60847807,2.65122682 C8.41304828,2.65122682 7.24862084,2.98617236 6.2411569,3.61984398 C5.60759788,4.01829555 5.052971,4.52394171 4.59912055,5.11028407 C5.06809685,5.19094274 5.50854798,5.35537533 5.90538563,5.5869922 C6.84176185,4.56218796 8.1714476,3.96147042 9.60847807,3.96147042 C11.0455085,3.96147042 12.3751943,4.56222549 13.3116456,5.58695467 C13.7084457,5.35537533 14.1489344,5.19094274 14.6179107,5.11028407 C14.1640602,4.52394171 13.6094333,4.01833309 12.9759494,3.61988151 Z"></path>
                    <path d="M9.60847807,0.0307020901 C5.60898661,0.0307020901 2.21392847,2.66680306 1.06868045,6.29268987 C1.57928098,5.75007359 2.24204077,5.35259788 2.98801148,5.16823521 C4.31067854,2.88228069 6.78287239,1.34094569 9.60847807,1.34094569 C12.4340838,1.34094569 14.9062776,2.88228069 16.2289447,5.16823521 C16.9749154,5.35259788 17.6376752,5.75007359 18.1482382,6.29268987 C17.0030277,2.66680306 13.6079695,0.0307020901 9.60847807,0.0307020901 Z"></path>
                    <path d="M9.60847807,5.27171401 C8.54978142,5.27171401 7.59392552,5.71794525 6.91705328,6.43122461 C7.21900721,6.78396085 7.45974463,7.19051958 7.62256329,7.63442376 C8.0552826,6.99966367 8.78395054,6.58195761 9.60847807,6.58195761 C10.4329681,6.58195761 11.161636,6.99966367 11.5943928,7.63442376 C11.7572115,7.19051958 11.9979489,6.78396085 12.2999029,6.43122461 C11.6229931,5.71790771 10.6671747,5.27171401 9.60847807,5.27171401 Z"></path>
                </g>
            </g>
            <g id="Group-126" transform="translate(50.000000, 0.302326)" fill-rule="nonzero">
                <g id="price_active-copy" filter="url(#filter-2)">
                    <path d="M6.60582867,0.600529879 C3.28919373,0.600529879 0.600529879,3.28919373 0.600529879,6.60582867 L0.600529879,36.0317928 C0.600529879,39.3484277 3.28919373,42.0370916 6.60582867,42.0370916 L36.0317928,42.0370916 C39.3484277,42.0370916 42.0370916,39.3484277 42.0370916,36.0317928 L42.0370916,6.60582867 C42.0370916,3.28919373 39.3484277,0.600529879 36.0317928,0.600529879 L6.60582867,0.600529879 Z" id="Rectangle-17" fill="#FFFFFF"></path>
                    <path d="M6.60582867,0 L36.0317928,0 C39.6800912,0 42.6376214,2.95753024 42.6376214,6.60582867 L42.6376214,36.0317928 C42.6376214,39.6800912 39.6800912,42.6376214 36.0317928,42.6376214 L6.60582867,42.6376214 C2.95753024,42.6376214 0,39.6800912 0,36.0317928 L0,6.60582867 C0,2.95753024 2.95753024,0 6.60582867,0 Z M6.60582867,0.600529879 C3.28919373,0.600529879 0.600529879,3.28919373 0.600529879,6.60582867 L0.600529879,36.0317928 C0.600529879,39.3484277 3.28919373,42.0370916 6.60582867,42.0370916 L36.0317928,42.0370916 C39.3484277,42.0370916 42.0370916,39.3484277 42.0370916,36.0317928 L42.0370916,6.60582867 C42.0370916,3.28919373 39.3484277,0.600529879 36.0317928,0.600529879 L6.60582867,0.600529879 Z" id="Rectangle-17" fill="#E6E6EB"></path>
                </g>
                <g id="rainbow-(6)" transform="translate(11.109803, 15.013247)" fill="#01B6F5">
                    <path d="M18.4378903,10.9527821 L14.2828728,10.9527821 L14.2828728,9.39465048 L17.399136,9.39465048 C17.3994476,9.39465048 17.3998112,9.39465048 17.4001228,9.39465048 C17.8303748,9.39465048 18.1791886,9.04583676 18.1791886,8.61558469 C18.1791886,8.47582029 18.1423647,8.34457367 18.07791,8.23119363 L14.2006035,0.476528574 C14.0686297,0.212581085 13.7989171,0.0458610061 13.503807,0.0458610061 C13.2086969,0.0458610061 12.9389324,0.212581085 12.8069586,0.476528574 L12.0643531,1.96168766 C11.2709006,1.72438422 10.4475839,1.60394065 9.60847807,1.60399258 C4.88313243,1.60399258 1.03875439,5.44837063 1.03875439,10.1737163 C1.03875439,10.4339242 1.0511675,10.6940283 1.07453947,10.9527821 L0.779065789,10.9527821 C0.348813723,10.9527821 0,11.3015958 0,11.7318478 C0,12.1620999 0.348813723,12.5109136 0.779065789,12.5109136 L1.83942627,12.5109136 C1.88383302,12.5188082 1.92922658,12.5230151 1.97529534,12.5230151 C2.01876721,12.5230151 2.06286233,12.5184446 2.1070094,12.5109136 L5.18707196,12.5109136 C5.19143473,12.5109656 5.1957975,12.511433 5.20016027,12.511433 C5.20421141,12.511433 5.20821062,12.5109656 5.21220982,12.5109136 L18.4378903,12.5109136 C18.8680905,12.5109136 19.2169561,12.1620999 19.2169561,11.7318478 C19.2169561,11.3015958 18.8680905,10.9527821 18.4378903,10.9527821 Z M4.15501754,10.1737163 C4.15501754,10.4359498 4.17459806,10.6958981 4.21142191,10.9527821 L2.64025396,10.9527821 C2.61174015,10.6946516 2.59688596,10.4342878 2.59688596,10.1737163 C2.59688596,6.30752438 5.74223424,3.16212414 9.60847807,3.16212414 C10.2030091,3.16212414 10.7876201,3.23561604 11.3546761,3.38104165 L10.6365852,4.81722346 C10.2991978,4.75276875 9.95521428,4.7202038 9.60847807,4.72025574 C6.601388,4.72025574 4.15501754,7.16667813 4.15501754,10.1737163 Z M7.40528002,10.9527821 L5.79162702,10.9527821 C5.73989705,10.6978198 5.71314912,10.4374041 5.71314912,10.1737163 C5.71314912,8.02583189 7.46054175,6.27838732 9.60847807,6.27838732 C9.70627679,6.27838732 9.80371196,6.28202296 9.90062774,6.28919037 L9.09865742,7.89318295 C8.05434569,8.12653912 7.2712807,9.06011963 7.2712807,10.1737163 C7.2712807,10.4468567 7.31875178,10.7089864 7.40528002,10.9527821 Z M12.7247412,10.9527821 L9.60847807,10.9527821 C9.17884925,10.9527821 8.82941228,10.6032931 8.82941228,10.1737163 C8.82941228,9.74413939 9.17884925,9.39465048 9.60847807,9.39465048 L12.7247412,9.39465048 L12.7247412,10.9527821 Z" id="XMLID_229_"></path>
                </g>
            </g>
        </g>
    </g>
</svg>