<?xml version="1.0" encoding="UTF-8"?>
<svg width="97px" height="48px" viewBox="0 0 97 48" version="1.1" xmlns="http://www.w3.org/2000/svg" xmlns:xlink="http://www.w3.org/1999/xlink">
    <title>VisualPickerOption</title>
    <defs>
        <filter x="-5.9%" y="-5.9%" width="112.6%" height="112.6%" filterUnits="objectBoundingBox" id="filter-1">
            <feOffset dx="0" dy="0" in="SourceAlpha" result="shadowOffsetOuter1"></feOffset>
            <feGaussianBlur stdDeviation="0.5" in="shadowOffsetOuter1" result="shadowBlurOuter1"></feGaussianBlur>
            <feColorMatrix values="0 0 0 0 0.533333333   0 0 0 0 0.596078431   0 0 0 0 0.666666667  0 0 0 0.5 0" type="matrix" in="shadowBlurOuter1" result="shadowMatrixOuter1"></feColorMatrix>
            <feMerge>
                <feMergeNode in="shadowMatrixOuter1"></feMergeNode>
                <feMergeNode in="SourceGraphic"></feMergeNode>
            </feMerge>
        </filter>
        <filter x="-5.9%" y="-5.9%" width="112.6%" height="112.6%" filterUnits="objectBoundingBox" id="filter-2">
            <feOffset dx="0" dy="0" in="SourceAlpha" result="shadowOffsetOuter1"></feOffset>
            <feGaussianBlur stdDeviation="0.5" in="shadowOffsetOuter1" result="shadowBlurOuter1"></feGaussianBlur>
            <feColorMatrix values="0 0 0 0 0.533333333   0 0 0 0 0.596078431   0 0 0 0 0.666666667  0 0 0 0.5 0" type="matrix" in="shadowBlurOuter1" result="shadowMatrixOuter1"></feColorMatrix>
            <feMerge>
                <feMergeNode in="shadowMatrixOuter1"></feMergeNode>
                <feMergeNode in="SourceGraphic"></feMergeNode>
            </feMerge>
        </filter>
    </defs>
    <g id="pages" stroke="none" stroke-width="1" fill="none" fill-rule="evenodd">
        <g id="VisualPickerOption" transform="translate(2.000000, 2.000000)" fill-rule="nonzero">
            <g id="Group-128" transform="translate(0.000000, 0.302326)">
                <g id="price_active" filter="url(#filter-1)">
                    <path d="M6.60582867,0.600529879 C3.28919373,0.600529879 0.600529879,3.28919373 0.600529879,6.60582867 L0.600529879,36.0317928 C0.600529879,39.3484277 3.28919373,42.0370916 6.60582867,42.0370916 L36.0317928,42.0370916 C39.3484277,42.0370916 42.0370916,39.3484277 42.0370916,36.0317928 L42.0370916,6.60582867 C42.0370916,3.28919373 39.3484277,0.600529879 36.0317928,0.600529879 L6.60582867,0.600529879 Z" id="Rectangle-17" fill="#FFFFFF"></path>
                    <path d="M6.60582867,0 L36.0317928,0 C39.6800912,0 42.6376214,2.95753024 42.6376214,6.60582867 L42.6376214,36.0317928 C42.6376214,39.6800912 39.6800912,42.6376214 36.0317928,42.6376214 L6.60582867,42.6376214 C2.95753024,42.6376214 0,39.6800912 0,36.0317928 L0,6.60582867 C0,2.95753024 2.95753024,0 6.60582867,0 Z M6.60582867,0.600529879 C3.28919373,0.600529879 0.600529879,3.28919373 0.600529879,6.60582867 L0.600529879,36.0317928 C0.600529879,39.3484277 3.28919373,42.0370916 6.60582867,42.0370916 L36.0317928,42.0370916 C39.3484277,42.0370916 42.0370916,39.3484277 42.0370916,36.0317928 L42.0370916,6.60582867 C42.0370916,3.28919373 39.3484277,0.600529879 36.0317928,0.600529879 L6.60582867,0.600529879 Z" id="Rectangle-17" fill="#E6E6EB"></path>
                </g>
            </g>
            <g id="Group-126" transform="translate(50.000000, 0.302326)">
                <g id="price_active-copy" filter="url(#filter-2)">
                    <path d="M6.60582867,0.600529879 C3.28919373,0.600529879 0.600529879,3.28919373 0.600529879,6.60582867 L0.600529879,36.0317928 C0.600529879,39.3484277 3.28919373,42.0370916 6.60582867,42.0370916 L36.0317928,42.0370916 C39.3484277,42.0370916 42.0370916,39.3484277 42.0370916,36.0317928 L42.0370916,6.60582867 C42.0370916,3.28919373 39.3484277,0.600529879 36.0317928,0.600529879 L6.60582867,0.600529879 Z" id="Rectangle-17" fill="#FFFFFF"></path>
                    <path d="M6.60582867,0 L36.0317928,0 C39.6800912,0 42.6376214,2.95753024 42.6376214,6.60582867 L42.6376214,36.0317928 C42.6376214,39.6800912 39.6800912,42.6376214 36.0317928,42.6376214 L6.60582867,42.6376214 C2.95753024,42.6376214 0,39.6800912 0,36.0317928 L0,6.60582867 C0,2.95753024 2.95753024,0 6.60582867,0 Z M6.60582867,0.600529879 C3.28919373,0.600529879 0.600529879,3.28919373 0.600529879,6.60582867 L0.600529879,36.0317928 C0.600529879,39.3484277 3.28919373,42.0370916 6.60582867,42.0370916 L36.0317928,42.0370916 C39.3484277,42.0370916 42.0370916,39.3484277 42.0370916,36.0317928 L42.0370916,6.60582867 C42.0370916,3.28919373 39.3484277,0.600529879 36.0317928,0.600529879 L6.60582867,0.600529879 Z" id="Rectangle-17" fill="#E6E6EB"></path>
                </g>
            </g>
            <g id="012-pyramid" transform="translate(62.000000, 12.000000)">
                <polygon id="Path" fill="#F09C57" points="13.220339 8.47457627 14.5762712 7.11864407 19.6610169 12.2033898 13.559322 12.2033898"></polygon>
                <polygon id="Path" fill="#F08833" points="13.220339 8.47457627 13.559322 12.2033898 17.2881356 12.2033898 13.6750847 8.01983051"></polygon>
                <polygon id="Path" fill="#F1B355" points="8.47457627 6.77966102 10.5084746 4.74576271 16.9491525 12.2033898 8.47457627 12.2033898"></polygon>
                <polygon id="Path" fill="#E37C55" points="10.5084746 4.74576271 9.83050847 8.13559322 8.47457627 6.77966102"></polygon>
                <polygon id="Path" fill="#F1A531" points="8.6440678 6.61016949 8.47457627 6.77966102 8.47457627 12.2033898 14.2372881 12.2033898"></polygon>
                <polygon id="Path" fill="#E36333" points="9.88699153 7.85309322 8.6440678 6.61016949 8.47457627 6.77966102 9.83050847 8.13559322"></polygon>
                <polygon id="Path" fill="#F6C869" points="1.3559322 13.559322 7.79661017 6.10169492 15.2542373 13.559322"></polygon>
                <polygon id="Path" fill="#F6BC44" points="1.3559322 13.559322 6.10169492 13.559322 3.41694915 11.1728814"></polygon>
                <polygon id="Path" fill="#F1A531" points="7.79661017 6.10169492 5.42372881 13.559322 1.3559322 13.559322"></polygon>
                <polygon id="Path" fill="#F1970D" points="3.41694915 11.1728814 1.3559322 13.559322 5.42372881 13.559322 5.57317797 13.0895763"></polygon>
                <g id="Group" transform="translate(6.101695, 7.796610)" fill="#F1A531">
                    <rect id="Rectangle" x="2.37288136" y="0" width="1.3559322" height="1" rx="0.5"></rect>
                    <rect id="Rectangle" x="0.677966102" y="1.3559322" width="2.37288136" height="1" rx="0.5"></rect>
                    <rect id="Rectangle" x="3.72881356" y="1.3559322" width="1.3559322" height="1" rx="0.5"></rect>
                    <rect id="Rectangle" x="5.08474576" y="2.71186441" width="1.3559322" height="1" rx="0.5"></rect>
                    <rect id="Rectangle" x="0" y="2.71186441" width="1.3559322" height="1" rx="0.5"></rect>
                </g>
                <rect id="Rectangle" fill="#E37C55" x="10.1694915" y="7.11864407" width="1.3559322" height="1" rx="0.5"></rect>
                <rect id="Rectangle" fill="#E37C55" x="11.8644068" y="8.47457627" width="2.03389831" height="1" rx="0.5"></rect>
                <rect id="Rectangle" fill="#E37C55" x="13.220339" y="9.83050847" width="2.03389831" height="1" rx="0.5"></rect>
                <rect id="Rectangle" fill="#F08833" x="15.5932203" y="9.15254237" width="1.3559322" height="1" rx="0.5"></rect>
                <rect id="Rectangle" fill="#F08833" x="16.9491525" y="10.5084746" width="1.3559322" height="1" rx="0.5"></rect>
                <polygon id="Path" fill="#6F5438" points="1.01694915 15.2542373 6.44067797 15.2542373 6.44067797 15.9322034 1.01694915 15.9322034"></polygon>
                <rect id="Rectangle" fill="#D34437" x="0" y="0" width="4.06779661" height="4.06779661" rx="2.03389831"></rect>
                <polygon id="Path" fill="#6F5438" points="9.15254237 15.2542373 11.8644068 15.2542373 11.8644068 15.9322034 9.15254237 15.9322034"></polygon>
                <polygon id="Path" fill="#6F5438" points="4.40677966 17.2881356 9.83050847 17.2881356 9.83050847 17.9661017 4.40677966 17.9661017"></polygon>
                <polygon id="Path" fill="#6F5438" points="13.559322 15.2542373 17.9661017 15.2542373 17.9661017 15.9322034 13.559322 15.9322034"></polygon>
                <polygon id="Path" fill="#6F5438" points="11.1864407 17.2881356 14.2372881 17.2881356 14.2372881 17.9661017 11.1864407 17.9661017"></polygon>
                <polygon id="Path" fill="#6F5438" points="8.13559322 19.3220339 11.1864407 19.3220339 11.1864407 20 8.13559322 20"></polygon>
                <polygon id="Path" fill="#F6BC44" points="6.10169492 13.559322 8.81355932 10.8474576 11.8644068 13.559322"></polygon>
                <polygon id="Path" fill="#F08833" points="0 13.559322 2.71186441 10.8474576 5.76271186 13.559322"></polygon>
                <rect id="Rectangle" fill="#F1A531" x="8.47457627" y="10.5084746" width="2.03389831" height="1" rx="0.5"></rect>
                <rect id="Rectangle" fill="#F1A531" x="9.83050847" y="11.8644068" width="1.69491525" height="1" rx="0.5"></rect>
                <polygon id="Path" fill="#F08833" points="5.76271186 13.559322 8.47457627 10.8474576 11.5254237 13.559322"></polygon>
                <polygon id="Path" fill="#F08833" points="11.5254237 13.559322 14.2372881 10.8474576 17.2881356 13.559322"></polygon>
            </g>
            <g id="030-sydney-opera-house" transform="translate(10.000000, 13.000000)">
                <path d="M1.6744186,4.18604651 L3.34883721,8.37209302 L5.44186047,8.37209302 L5.44186047,7.95348837 C5.44186047,5.87278769 3.75511929,4.18604651 1.6744186,4.18604651 L1.6744186,4.18604651 Z" id="Path" fill="#CFCFCF"></path>
                <polygon id="Path" fill="#808080" points="2.93023256 7.55848256 5.02325581 5.44186047 6.27906977 8.37209302"></polygon>
                <path d="M4.60465116,2.51162791 L5.44186047,8.37209302 L8.79069767,8.79069767 L8.79069767,6.69767442 C8.79069767,5.58746586 8.34966904,4.52272855 7.56463304,3.73769254 C6.77959703,2.95265654 5.71485972,2.51162791 4.60465116,2.51162791 Z" id="Path" fill="#CCCCCC"></path>
                <polygon id="Path" fill="#999999" points="5.44186047 7.95348837 8.37209302 5.02325581 8.79069767 8.37209302 6.27906977 8.79069767"></polygon>
                <path d="M6.69767442,0 L8.79069767,8.37209302 L8.79069767,8.79069767 L13.3953488,8.79069767 L13.3953488,6.69767442 C13.3953488,2.99865098 10.3966979,0 6.69767442,0 Z" id="Path" fill="#E6E6E6"></path>
                <polygon id="Path" fill="#808080" points="23.4418605 9.20930233 22.1860465 7.53488372 20.9302326 8.37209302 20.5116279 9.20930233 21.7674419 9.62790698"></polygon>
                <path d="M18.8372093,3.76744186 L16.744186,8.37209302 L13.3953488,8.37209302 L13.3953488,7.11627907 C13.3953488,5.26676735 14.8946743,3.76744186 16.744186,3.76744186 L18.8372093,3.76744186 Z" id="Path" fill="#CCCCCC"></path>
                <path d="M23.0232558,6.69767442 L20.5116279,9.20930233 L18.8372093,8.37209302 L19.4474826,7.45639535 C20.0757548,6.5139858 21.2570572,6.10868064 22.331564,6.46686628 L23.0232558,6.69767442 Z" id="Path" fill="#999999"></path>
                <path d="M18.8372093,8.37209302 L19.255814,9.20930233 L20.5116279,9.20930233 L20.3007035,7.5219593 C20.1820584,6.57276973 19.3751806,5.86046512 18.4186047,5.86046512 L18.8372093,8.37209302 Z" id="Path" fill="#CCCCCC"></path>
                <polygon id="Path" fill="#808080" points="9.20930233 8.37209302 13.3953488 5.86046512 13.8139535 8.79069767"></polygon>
                <polygon id="Path" fill="#999999" points="16.744186 8.37209302 13.3953488 5.86046512 13.3953488 8.79069767"></polygon>
                <g id="Group" transform="translate(1.255814, 13.813953)" fill="#48C0F3">
                    <polygon id="Path" points="0 0 4.18604651 0 4.18604651 0.837209302 0 0.837209302"></polygon>
                    <polygon id="Path" points="5.86046512 0 15.9069767 0 15.9069767 0.837209302 5.86046512 0.837209302"></polygon>
                    <polygon id="Path" points="17.5813953 0 21.3488372 0 21.3488372 0.837209302 17.5813953 0.837209302"></polygon>
                    <polygon id="Path" points="2.09302326 1.6744186 7.95348837 1.6744186 7.95348837 2.51162791 2.09302326 2.51162791"></polygon>
                    <polygon id="Path" points="9.62790698 1.6744186 16.744186 1.6744186 16.744186 2.51162791 9.62790698 2.51162791"></polygon>
                    <polygon id="Path" points="6.27906977 3.34883721 12.5581395 3.34883721 12.5581395 4.18604651 6.27906977 4.18604651"></polygon>
                    <polygon id="Path" points="14.2325581 3.34883721 19.6744186 3.34883721 19.6744186 4.18604651 14.2325581 4.18604651"></polygon>
                    <polygon id="Path" points="0.837209302 3.34883721 3.34883721 3.34883721 3.34883721 4.18604651 0.837209302 4.18604651"></polygon>
                </g>
                <polygon id="Path" fill="#6F5438" points="19.6744186 9.20930233 24.2790698 9.20930233 24.2790698 11.3023256 19.6744186 11.3023256"></polygon>
                <polygon id="Path" fill="#8C6847" points="1.6744186 11.3023256 1.6744186 7.53488372 4.60465116 7.53488372 6.27906977 8.37209302 18.8372093 8.37209302 20.5116279 9.20930233 20.5116279 11.3023256"></polygon>
                <polygon id="Path" fill="#6F5438" points="0.837209302 11.3023256 0.837209302 8.79069767 1.6744186 8.79069767 4.18604651 10.0465116 4.18604651 11.3023256"></polygon>
                <polygon id="Path" fill="#B38A65" points="5.44186047 9.20930233 6.27906977 9.20930233 6.27906977 10.0465116 5.44186047 10.0465116"></polygon>
                <polygon id="Path" fill="#B38A65" points="7.11627907 9.20930233 7.95348837 9.20930233 7.95348837 10.0465116 7.11627907 10.0465116"></polygon>
                <polygon id="Path" fill="#B38A65" points="8.79069767 9.20930233 12.9767442 9.20930233 12.9767442 10.0465116 8.79069767 10.0465116"></polygon>
                <polygon id="Path" fill="#B38A65" points="15.4883721 9.20930233 19.255814 9.20930233 19.255814 10.0465116 15.4883721 10.0465116"></polygon>
                <polygon id="Path" fill="#6F4C27" points="0 10.8837209 24.2790698 10.8837209 24.2790698 12.5581395 0 12.5581395"></polygon>
            </g>
        </g>
    </g>
</svg>