<?xml version="1.0" encoding="UTF-8"?>
<svg width="45px" height="56px" viewBox="0 0 45 56" version="1.1" xmlns="http://www.w3.org/2000/svg" xmlns:xlink="http://www.w3.org/1999/xlink">
    <!-- Generator: Sketch 56.2 (81672) - https://sketch.com -->
    <title>VisualPickerOptionFooter</title>
    <desc>Created with Sketch.</desc>
    <defs>
        <filter x="-5.9%" y="-5.9%" width="112.6%" height="112.6%" filterUnits="objectBoundingBox" id="filter-1">
            <feOffset dx="0" dy="0" in="SourceAlpha" result="shadowOffsetOuter1"></feOffset>
            <feGaussianBlur stdDeviation="0.5" in="shadowOffsetOuter1" result="shadowBlurOuter1"></feGaussianBlur>
            <feColorMatrix values="0 0 0 0 0.533333333   0 0 0 0 0.596078431   0 0 0 0 0.666666667  0 0 0 0.5 0" type="matrix" in="shadowBlurOuter1" result="shadowMatrixOuter1"></feColorMatrix>
            <feMerge>
                <feMergeNode in="shadowMatrixOuter1"></feMergeNode>
                <feMergeNode in="SourceGraphic"></feMergeNode>
            </feMerge>
        </filter>
    </defs>
    <g id="pages" stroke="none" stroke-width="1" fill="none" fill-rule="evenodd">
        <g id="VisualPickerOptionFooter" transform="translate(1.000000, 1.000000)">
            <g id="Group-128" transform="translate(0.000000, -0.000000)">
                <g id="price_active" filter="url(#filter-1)" fill-rule="nonzero">
                    <path d="M6.60582867,0.600529879 C3.28919373,0.600529879 0.600529879,3.28919373 0.600529879,6.60582867 L0.600529879,36.0317928 C0.600529879,39.3484277 3.28919373,42.0370916 6.60582867,42.0370916 L36.0317928,42.0370916 C39.3484277,42.0370916 42.0370916,39.3484277 42.0370916,36.0317928 L42.0370916,6.60582867 C42.0370916,3.28919373 39.3484277,0.600529879 36.0317928,0.600529879 L6.60582867,0.600529879 Z" id="Rectangle-17" fill="#FFFFFF"></path>
                    <path d="M6.60582867,0 L36.0317928,0 C39.6800912,0 42.6376214,2.95753024 42.6376214,6.60582867 L42.6376214,36.0317928 C42.6376214,39.6800912 39.6800912,42.6376214 36.0317928,42.6376214 L6.60582867,42.6376214 C2.95753024,42.6376214 0,39.6800912 0,36.0317928 L0,6.60582867 C0,2.95753024 2.95753024,0 6.60582867,0 Z M6.60582867,0.600529879 C3.28919373,0.600529879 0.600529879,3.28919373 0.600529879,6.60582867 L0.600529879,36.0317928 C0.600529879,39.3484277 3.28919373,42.0370916 6.60582867,42.0370916 L36.0317928,42.0370916 C39.3484277,42.0370916 42.0370916,39.3484277 42.0370916,36.0317928 L42.0370916,6.60582867 C42.0370916,3.28919373 39.3484277,0.600529879 36.0317928,0.600529879 L6.60582867,0.600529879 Z" id="Rectangle-17" fill="#E6E6EB"></path>
                </g>
                <g id="rainbow-(5)" transform="translate(11.710333, 15.613777)" fill="#01B6F5">
                    <path d="M6.55121799,8.98407713 C6.55121799,7.53683765 5.37797027,6.36358993 3.93073079,6.36358993 C2.48349132,6.36358993 1.3102436,7.53683765 1.3102436,8.98407713 C0.586642626,8.98407713 0,9.57071975 0,10.2943207 C0,11.0179217 0.586642626,11.6045643 1.3102436,11.6045643 L6.55121799,11.6045643 C7.27481896,11.6045643 7.86146158,11.0179217 7.86146158,10.2943207 C7.86146158,9.57071975 7.27485649,8.98407713 6.55121799,8.98407713 Z"></path>
                    <path d="M17.9067125,8.98407713 C17.9067125,7.53683765 16.7334648,6.36358993 15.2862253,6.36358993 C13.8389859,6.36358993 12.6657382,7.53683765 12.6657382,8.98407713 C11.9421372,8.98407713 11.3554946,9.57071975 11.3554946,10.2943207 C11.3554946,11.0179217 11.9421372,11.6045643 12.6657382,11.6045643 L17.9067125,11.6045643 C18.6303135,11.6045643 19.2169561,11.0179217 19.2169561,10.2943207 C19.2169561,9.57071975 18.6303135,8.98407713 17.9067125,8.98407713 Z"></path>
                    <path d="M12.9759494,3.61988151 C11.9684104,2.98617236 10.8039454,2.65122682 9.60847807,2.65122682 C8.41304828,2.65122682 7.24862084,2.98617236 6.2411569,3.61984398 C5.60759788,4.01829555 5.052971,4.52394171 4.59912055,5.11028407 C5.06809685,5.19094274 5.50854798,5.35537533 5.90538563,5.5869922 C6.84176185,4.56218796 8.1714476,3.96147042 9.60847807,3.96147042 C11.0455085,3.96147042 12.3751943,4.56222549 13.3116456,5.58695467 C13.7084457,5.35537533 14.1489344,5.19094274 14.6179107,5.11028407 C14.1640602,4.52394171 13.6094333,4.01833309 12.9759494,3.61988151 Z"></path>
                    <path d="M9.60847807,0.0307020901 C5.60898661,0.0307020901 2.21392847,2.66680306 1.06868045,6.29268987 C1.57928098,5.75007359 2.24204077,5.35259788 2.98801148,5.16823521 C4.31067854,2.88228069 6.78287239,1.34094569 9.60847807,1.34094569 C12.4340838,1.34094569 14.9062776,2.88228069 16.2289447,5.16823521 C16.9749154,5.35259788 17.6376752,5.75007359 18.1482382,6.29268987 C17.0030277,2.66680306 13.6079695,0.0307020901 9.60847807,0.0307020901 Z"></path>
                    <path d="M9.60847807,5.27171401 C8.54978142,5.27171401 7.59392552,5.71794525 6.91705328,6.43122461 C7.21900721,6.78396085 7.45974463,7.19051958 7.62256329,7.63442376 C8.0552826,6.99966367 8.78395054,6.58195761 9.60847807,6.58195761 C10.4329681,6.58195761 11.161636,6.99966367 11.5943928,7.63442376 C11.7572115,7.19051958 11.9979489,6.78396085 12.2999029,6.43122461 C11.6229931,5.71790771 10.6671747,5.27171401 9.60847807,5.27171401 Z"></path>
                </g>
            </g>
            <path d="M12,47.6976744 C11.4477153,47.6976744 11,47.2499592 11,46.6976744 C11,46.1453897 11.4477153,45.6976744 12,45.6976744 L29.5,45.6976744 C30.0522847,45.6976744 30.5,46.1453897 30.5,46.6976744 C30.5,47.2499592 30.0522847,47.6976744 29.5,47.6976744 L12,47.6976744 Z" id="Line-12" fill="#576574" fill-rule="nonzero"></path>
            <path d="M5.83333333,51.3643411 C5.37309604,51.3643411 5,50.991245 5,50.5310078 C5,50.0707705 5.37309604,49.6976744 5.83333333,49.6976744 L36.4166667,49.6976744 C36.876904,49.6976744 37.25,50.0707705 37.25,50.5310078 C37.25,50.991245 36.876904,51.3643411 36.4166667,51.3643411 L5.83333333,51.3643411 Z M9.16666667,54.6976744 C8.70642938,54.6976744 8.33333333,54.3245784 8.33333333,53.8643411 C8.33333333,53.4041038 8.70642938,53.0310078 9.16666667,53.0310078 L33.9166667,53.0310078 C34.376904,53.0310078 34.75,53.4041038 34.75,53.8643411 C34.75,54.3245784 34.376904,54.6976744 33.9166667,54.6976744 L9.16666667,54.6976744 Z" id="Line-12-Copy-5" fill="#E3E5ED" fill-rule="nonzero"></path>
        </g>
    </g>
</svg>