<?xml version="1.0" encoding="UTF-8"?>
<svg width="47px" height="57px" viewBox="0 0 47 57" version="1.1" xmlns="http://www.w3.org/2000/svg" xmlns:xlink="http://www.w3.org/1999/xlink">
    <title>VisualPickerOptionFooter</title>
    <defs>
        <filter x="-5.9%" y="-5.9%" width="112.6%" height="112.6%" filterUnits="objectBoundingBox" id="filter-1">
            <feOffset dx="0" dy="0" in="SourceAlpha" result="shadowOffsetOuter1"></feOffset>
            <feGaussianBlur stdDeviation="0.5" in="shadowOffsetOuter1" result="shadowBlurOuter1"></feGaussianBlur>
            <feColorMatrix values="0 0 0 0 0.533333333   0 0 0 0 0.596078431   0 0 0 0 0.666666667  0 0 0 0.5 0" type="matrix" in="shadowBlurOuter1" result="shadowMatrixOuter1"></feColorMatrix>
            <feMerge>
                <feMergeNode in="shadowMatrixOuter1"></feMergeNode>
                <feMergeNode in="SourceGraphic"></feMergeNode>
            </feMerge>
        </filter>
    </defs>
    <g id="pages" stroke="none" stroke-width="1" fill="none" fill-rule="evenodd">
        <g id="VisualPickerOptionFooter" transform="translate(2.000000, 2.000000)" fill-rule="nonzero">
            <g id="Group-128" transform="translate(0.000000, -0.000000)">
                <g id="price_active" filter="url(#filter-1)">
                    <path d="M6.60582867,0.600529879 C3.28919373,0.600529879 0.600529879,3.28919373 0.600529879,6.60582867 L0.600529879,36.0317928 C0.600529879,39.3484277 3.28919373,42.0370916 6.60582867,42.0370916 L36.0317928,42.0370916 C39.3484277,42.0370916 42.0370916,39.3484277 42.0370916,36.0317928 L42.0370916,6.60582867 C42.0370916,3.28919373 39.3484277,0.600529879 36.0317928,0.600529879 L6.60582867,0.600529879 Z" id="Rectangle-17" fill="#FFFFFF"></path>
                    <path d="M6.60582867,0 L36.0317928,0 C39.6800912,0 42.6376214,2.95753024 42.6376214,6.60582867 L42.6376214,36.0317928 C42.6376214,39.6800912 39.6800912,42.6376214 36.0317928,42.6376214 L6.60582867,42.6376214 C2.95753024,42.6376214 0,39.6800912 0,36.0317928 L0,6.60582867 C0,2.95753024 2.95753024,0 6.60582867,0 Z M6.60582867,0.600529879 C3.28919373,0.600529879 0.600529879,3.28919373 0.600529879,6.60582867 L0.600529879,36.0317928 C0.600529879,39.3484277 3.28919373,42.0370916 6.60582867,42.0370916 L36.0317928,42.0370916 C39.3484277,42.0370916 42.0370916,39.3484277 42.0370916,36.0317928 L42.0370916,6.60582867 C42.0370916,3.28919373 39.3484277,0.600529879 36.0317928,0.600529879 L6.60582867,0.600529879 Z" id="Rectangle-17" fill="#E6E6EB"></path>
                </g>
            </g>
            <path d="M12,47.6976744 C11.4477153,47.6976744 11,47.2499592 11,46.6976744 C11,46.1453897 11.4477153,45.6976744 12,45.6976744 L29.5,45.6976744 C30.0522847,45.6976744 30.5,46.1453897 30.5,46.6976744 C30.5,47.2499592 30.0522847,47.6976744 29.5,47.6976744 L12,47.6976744 Z" id="Line-12" fill="#576574"></path>
            <path d="M5.83333333,51.3643411 C5.37309604,51.3643411 5,50.991245 5,50.5310078 C5,50.0707705 5.37309604,49.6976744 5.83333333,49.6976744 L36.4166667,49.6976744 C36.876904,49.6976744 37.25,50.0707705 37.25,50.5310078 C37.25,50.991245 36.876904,51.3643411 36.4166667,51.3643411 L5.83333333,51.3643411 Z M9.16666667,54.6976744 C8.70642938,54.6976744 8.33333333,54.3245784 8.33333333,53.8643411 C8.33333333,53.4041038 8.70642938,53.0310078 9.16666667,53.0310078 L33.9166667,53.0310078 C34.376904,53.0310078 34.75,53.4041038 34.75,53.8643411 C34.75,54.3245784 34.376904,54.6976744 33.9166667,54.6976744 L9.16666667,54.6976744 Z" id="Line-12-Copy-5" fill="#E3E5ED"></path>
            <g id="024-petronas-twin-tower" transform="translate(12.000000, 11.000000)">
                <path d="M13.0771667,16.5467083 L10,12.8541667 L6.92283333,16.546875 L6.41033333,16.120125 L9.74366667,12.120125 C9.80904589,12.0474818 9.90218504,12.0060013 9.99991667,12.0060013 C10.0976483,12.0060013 10.1907874,12.0474818 10.2561667,12.120125 L13.5895,16.120125 L13.0771667,16.5467083 Z" id="Path" fill="#7BD3F8"></path>
                <polygon id="Path" fill="#B3B3B3" points="15 4.66666667 15 2.33333333 16 1.33333333 17 2.33333333 17 4.66666667"></polygon>
                <path d="M16.3333333,1.66666667 L15.6666667,1.66666667 L15.6666667,0.333333333 C15.6666667,0.149238417 15.8159051,0 16,0 C16.1840949,0 16.3333333,0.149238417 16.3333333,0.333333333 L16.3333333,1.66666667 Z" id="Path" fill="#CCCCCC"></path>
                <path d="M15,3.45691667 L15,4.66666667 L17,4.66666667 L17,2.33333333 L16.7553333,2.08866667 C16.2726318,2.66278312 15.6745759,3.12895666 15,3.45691667 L15,3.45691667 Z" id="Path" fill="#999999"></path>
                <polygon id="Path" fill="#666666" points="14.3333333 3.66666667 17.6666667 3.66666667 17.6666667 5.66666667 14.3333333 5.66666667"></polygon>
                <path d="M14.3333333,4.95416667 L14.3333333,5.66666667 L17.6666667,5.66666667 L17.6666667,3.66666667 L17.1862083,3.66666667 C16.3863782,4.37298516 15.3921359,4.82168583 14.3333333,4.95416667 Z" id="Path" fill="#4D4D4D"></path>
                <polygon id="Path" fill="#808080" points="13.6666667 5 18.3333333 5 18.3333333 6.66666667 13.6666667 6.66666667"></polygon>
                <path d="M14,6.33333333 C13.8875,6.33333333 13.7774583,6.323375 13.6666667,6.31666667 L13.6666667,7 L18.3333333,7 L18.3333333,5 L17.5195417,5 C16.5486454,5.85948926 15.2966731,6.33378291 14,6.33333333 Z" id="Path" fill="#666666"></path>
                <polygon id="Path" fill="#999999" points="13 6.33333333 19 6.33333333 19 19.6666667 13 19.6666667"></polygon>
                <polygon id="Path" fill="#E6E6E6" points="14.3333333 10.3333333 17.6666667 10.3333333 17.6666667 19.6666667 14.3333333 19.6666667"></polygon>
                <path d="M14.3333333,17.6669167 L14.3333333,19.6666667 L17.6666667,19.6666667 L17.6666667,10.3333333 L17.4516667,10.3333333 C17.0238152,12.9950023 15.9534624,15.5122193 14.3333333,17.6669167 L14.3333333,17.6669167 Z" id="Path" fill="#CCCCCC"></path>
                <polygon id="Path" fill="#B3B3B3" points="3 4.66666667 3 2.33333333 4 1.33333333 5 2.33333333 5 4.66666667"></polygon>
                <path d="M4.33333333,1.66666667 L3.66666667,1.66666667 L3.66666667,0.333333333 C3.66666667,0.149238417 3.81590508,0 4,0 C4.18409492,0 4.33333333,0.149238417 4.33333333,0.333333333 L4.33333333,1.66666667 Z" id="Path" fill="#CCCCCC"></path>
                <path d="M3,3.45691667 L3,4.66666667 L5,4.66666667 L5,2.33333333 L4.75533333,2.08866667 C4.27263181,2.66278312 3.67457594,3.12895666 3,3.45691667 L3,3.45691667 Z" id="Path" fill="#999999"></path>
                <polygon id="Path" fill="#666666" points="2.33333333 3.66666667 5.66666667 3.66666667 5.66666667 5.66666667 2.33333333 5.66666667"></polygon>
                <path d="M2.33333333,4.95416667 L2.33333333,5.66666667 L5.66666667,5.66666667 L5.66666667,3.66666667 L5.18620833,3.66666667 C4.38637818,4.37298516 3.39213592,4.82168583 2.33333333,4.95416667 Z" id="Path" fill="#4D4D4D"></path>
                <polygon id="Path" fill="#808080" points="1.66666667 5 6.33333333 5 6.33333333 7 1.66666667 7"></polygon>
                <path d="M2,6.33333333 C1.8875,6.33333333 1.77745833,6.323375 1.66666667,6.31666667 L1.66666667,7 L6.33333333,7 L6.33333333,5 L5.51954167,5 C4.54864536,5.85948926 3.29667314,6.33378291 2,6.33333333 Z" id="Path" fill="#666666"></path>
                <polygon id="Path" fill="#999999" points="1 6.33333333 7 6.33333333 7 19.6666667 1 19.6666667"></polygon>
                <polygon id="Path" fill="#E6E6E6" points="2.33333333 10.3333333 5.66666667 10.3333333 5.66666667 19.6666667 2.33333333 19.6666667"></polygon>
                <path d="M2.33333333,17.6669167 L2.33333333,19.6666667 L5.66666667,19.6666667 L5.66666667,10.3333333 L5.45166667,10.3333333 C5.02381518,12.9950023 3.95346237,15.5122193 2.33333333,17.6669167 L2.33333333,17.6669167 Z" id="Path" fill="#CCCCCC"></path>
                <polygon id="Path" fill="#E6E6E6" points="3 9 5 9 5 10.3333333 3 10.3333333"></polygon>
                <polygon id="Path" fill="#808080" points="0.666666667 8.66666667 7.33333333 8.66666667 7.33333333 9.33333333 0.666666667 9.33333333"></polygon>
                <polygon id="Path" fill="#E6E6E6" points="15 9 17 9 17 10.3333333 15 10.3333333"></polygon>
                <polygon id="Path" fill="#808080" points="12.6666667 8.66666667 19.3333333 8.66666667 19.3333333 9.33333333 12.6666667 9.33333333"></polygon>
                <polygon id="Path" fill="#48C0F3" points="7 11 13 11 13 12.3333333 7 12.3333333"></polygon>
                <polygon id="Path" fill="#1B88B6" points="9.33333333 11 10.6666667 11 10.6666667 12.3333333 9.33333333 12.3333333"></polygon>
                <g id="Group" transform="translate(0.000000, 7.333333)" fill="#808080">
                    <polygon id="Path" points="0 12 20 12 20 12.6666667 0 12.6666667"></polygon>
                    <polygon id="Path" points="12.6666667 0 19.3333333 0 19.3333333 0.666666667 12.6666667 0.666666667"></polygon>
                    <polygon id="Path" points="0.666666667 4 7.33333333 4 7.33333333 4.66666667 0.666666667 4.66666667"></polygon>
                    <polygon id="Path" points="0.666666667 5.33333333 7.33333333 5.33333333 7.33333333 6 0.666666667 6"></polygon>
                    <polygon id="Path" points="0.666666667 6.66666667 7.33333333 6.66666667 7.33333333 7.33333333 0.666666667 7.33333333"></polygon>
                    <polygon id="Path" points="0.666666667 8 7.33333333 8 7.33333333 8.66666667 0.666666667 8.66666667"></polygon>
                    <polygon id="Path" points="0.666666667 9.33333333 7.33333333 9.33333333 7.33333333 10 0.666666667 10"></polygon>
                    <polygon id="Path" points="0.666666667 10.6666667 7.33333333 10.6666667 7.33333333 11.3333333 0.666666667 11.3333333"></polygon>
                    <polygon id="Path" points="0.666666667 2.66666667 7.33333333 2.66666667 7.33333333 3.33333333 0.666666667 3.33333333"></polygon>
                    <polygon id="Path" points="12.6666667 4 19.3333333 4 19.3333333 4.66666667 12.6666667 4.66666667"></polygon>
                    <polygon id="Path" points="12.6666667 5.33333333 19.3333333 5.33333333 19.3333333 6 12.6666667 6"></polygon>
                    <polygon id="Path" points="12.6666667 6.66666667 19.3333333 6.66666667 19.3333333 7.33333333 12.6666667 7.33333333"></polygon>
                    <polygon id="Path" points="12.6666667 8 19.3333333 8 19.3333333 8.66666667 12.6666667 8.66666667"></polygon>
                    <polygon id="Path" points="12.6666667 9.33333333 19.3333333 9.33333333 19.3333333 10 12.6666667 10"></polygon>
                    <polygon id="Path" points="12.6666667 10.6666667 19.3333333 10.6666667 19.3333333 11.3333333 12.6666667 11.3333333"></polygon>
                    <polygon id="Path" points="12.6666667 2.66666667 19.3333333 2.66666667 19.3333333 3.33333333 12.6666667 3.33333333"></polygon>
                </g>
                <polygon id="Path" fill="#CCCCCC" points="2.66666667 8.66666667 5.33333333 8.66666667 5.33333333 9.33333333 2.66666667 9.33333333"></polygon>
                <polygon id="Path" fill="#CCCCCC" points="2 10 6 10 6 10.6666667 2 10.6666667"></polygon>
                <polygon id="Path" fill="#CCCCCC" points="2 11.3333333 6 11.3333333 6 12 2 12"></polygon>
                <polygon id="Path" fill="#CCCCCC" points="2 12.6666667 6 12.6666667 6 13.3333333 2 13.3333333"></polygon>
                <polygon id="Path" fill="#CCCCCC" points="2 14 6 14 6 14.6666667 2 14.6666667"></polygon>
                <path d="M4.41766667,14 C4.32516667,14.225 4.227125,14.4468333 4.12516667,14.6666667 L6.00016667,14.6666667 L6.00016667,14 L4.41766667,14 Z" id="Path" fill="#B3B3B3"></path>
                <polygon id="Path" fill="#CCCCCC" points="2 15.3333333 6 15.3333333 6 16 2 16"></polygon>
                <polygon id="Path" fill="#CCCCCC" points="2 16.6666667 6 16.6666667 6 17.3333333 2 17.3333333"></polygon>
                <polygon id="Path" fill="#B3B3B3" points="2 18 6 18 6 18.6666667 2 18.6666667"></polygon>
                <polygon id="Path" fill="#CCCCCC" points="14.6666667 8.66666667 17.3333333 8.66666667 17.3333333 9.33333333 14.6666667 9.33333333"></polygon>
                <polygon id="Path" fill="#CCCCCC" points="14 10 18 10 18 10.6666667 14 10.6666667"></polygon>
                <polygon id="Path" fill="#CCCCCC" points="14 11.3333333 18 11.3333333 18 12 14 12"></polygon>
                <polygon id="Path" fill="#CCCCCC" points="14 12.6666667 18 12.6666667 18 13.3333333 14 13.3333333"></polygon>
                <polygon id="Path" fill="#CCCCCC" points="14 14 18 14 18 14.6666667 14 14.6666667"></polygon>
                <polygon id="Path" fill="#CCCCCC" points="14 15.3333333 18 15.3333333 18 16 14 16"></polygon>
                <polygon id="Path" fill="#CCCCCC" points="14 16.6666667 18 16.6666667 18 17.3333333 14 17.3333333"></polygon>
                <polygon id="Path" fill="#B3B3B3" points="14 18 18 18 18 18.6666667 14 18.6666667"></polygon>
                <polygon id="Path" fill="#808080" points="0.666666667 7.33333333 7.33333333 7.33333333 7.33333333 8 0.666666667 8"></polygon>
                <path d="M5.50066667,10 C5.46929167,10.223875 5.43233333,10.4458333 5.39233333,10.6666667 L6,10.6666667 L6,10 L5.50066667,10 Z" id="Path" fill="#B3B3B3"></path>
                <path d="M5.25704167,11.3333333 C5.20675,11.5571667 5.153375,11.7797083 5.09420833,12 L6,12 L6,11.3333333 L5.25704167,11.3333333 Z" id="Path" fill="#B3B3B3"></path>
                <path d="M4.90254167,12.6666667 C4.83204167,12.8910278 4.75684722,13.11325 4.67695833,13.3333333 L6,13.3333333 L6,12.6666667 L4.90254167,12.6666667 Z" id="Path" fill="#B3B3B3"></path>
                <path d="M3.79729167,15.3333333 C3.68029167,15.5586667 3.55833333,15.7808889 3.43141667,16 L6,16 L6,15.3333333 L3.79729167,15.3333333 Z" id="Path" fill="#B3B3B3"></path>
                <path d="M3.02445833,16.6666667 C2.87906944,16.89275 2.72847222,17.1149722 2.57266667,17.3333333 L6,17.3333333 L6,16.6666667 L3.02445833,16.6666667 Z" id="Path" fill="#B3B3B3"></path>
                <path d="M16.4176667,14 C16.3251667,14.225 16.227125,14.4468333 16.1251667,14.6666667 L18.0001667,14.6666667 L18.0001667,14 L16.4176667,14 Z" id="Path" fill="#B3B3B3"></path>
                <polygon id="Path" fill="#B3B3B3" points="14 18 18 18 18 18.6666667 14 18.6666667"></polygon>
                <path d="M17.5006667,10 C17.4692917,10.223875 17.4323333,10.4458333 17.3923333,10.6666667 L18,10.6666667 L18,10 L17.5006667,10 Z" id="Path" fill="#B3B3B3"></path>
                <path d="M17.2570417,11.3333333 C17.20675,11.5571667 17.153375,11.7797083 17.0942083,12 L18,12 L18,11.3333333 L17.2570417,11.3333333 Z" id="Path" fill="#B3B3B3"></path>
                <path d="M16.9025417,12.6666667 C16.8320417,12.8910278 16.7568472,13.11325 16.6769583,13.3333333 L18,13.3333333 L18,12.6666667 L16.9025417,12.6666667 Z" id="Path" fill="#B3B3B3"></path>
                <path d="M15.7972917,15.3333333 C15.6802917,15.5586667 15.5583333,15.7808889 15.4314167,16 L18,16 L18,15.3333333 L15.7972917,15.3333333 Z" id="Path" fill="#B3B3B3"></path>
                <path d="M15.0244583,16.6666667 C14.8790972,16.89275 14.7285,17.1149722 14.5726667,17.3333333 L18,17.3333333 L18,16.6666667 L15.0244583,16.6666667 Z" id="Path" fill="#B3B3B3"></path>
            </g>
        </g>
    </g>
</svg>