<?xml version="1.0" encoding="UTF-8"?>
<svg width="147px" height="57px" viewBox="0 0 147 57" version="1.1" xmlns="http://www.w3.org/2000/svg" xmlns:xlink="http://www.w3.org/1999/xlink">
    <title>VisualPicker</title>
    <defs>
        <filter x="-15.2%" y="-15.2%" width="131.3%" height="131.3%" filterUnits="objectBoundingBox" id="filter-1">
            <feOffset dx="0" dy="1" in="SourceAlpha" result="shadowOffsetOuter1"></feOffset>
            <feGaussianBlur stdDeviation="1" in="shadowOffsetOuter1" result="shadowBlurOuter1"></feGaussianBlur>
            <feColorMatrix values="0 0 0 0 0.533333333   0 0 0 0 0.596078431   0 0 0 0 0.666666667  0 0 0 0.5 0" type="matrix" in="shadowBlurOuter1" result="shadowMatrixOuter1"></feColorMatrix>
            <feMerge>
                <feMergeNode in="shadowMatrixOuter1"></feMergeNode>
                <feMergeNode in="SourceGraphic"></feMergeNode>
            </feMerge>
        </filter>
        <filter x="-5.9%" y="-5.9%" width="112.6%" height="112.6%" filterUnits="objectBoundingBox" id="filter-2">
            <feOffset dx="0" dy="0" in="SourceAlpha" result="shadowOffsetOuter1"></feOffset>
            <feGaussianBlur stdDeviation="0.5" in="shadowOffsetOuter1" result="shadowBlurOuter1"></feGaussianBlur>
            <feColorMatrix values="0 0 0 0 0.533333333   0 0 0 0 0.596078431   0 0 0 0 0.666666667  0 0 0 0.5 0" type="matrix" in="shadowBlurOuter1" result="shadowMatrixOuter1"></feColorMatrix>
            <feMerge>
                <feMergeNode in="shadowMatrixOuter1"></feMergeNode>
                <feMergeNode in="SourceGraphic"></feMergeNode>
            </feMerge>
        </filter>
        <filter x="-5.9%" y="-5.9%" width="112.6%" height="112.6%" filterUnits="objectBoundingBox" id="filter-3">
            <feOffset dx="0" dy="0" in="SourceAlpha" result="shadowOffsetOuter1"></feOffset>
            <feGaussianBlur stdDeviation="0.5" in="shadowOffsetOuter1" result="shadowBlurOuter1"></feGaussianBlur>
            <feColorMatrix values="0 0 0 0 0.533333333   0 0 0 0 0.596078431   0 0 0 0 0.666666667  0 0 0 0.5 0" type="matrix" in="shadowBlurOuter1" result="shadowMatrixOuter1"></feColorMatrix>
            <feMerge>
                <feMergeNode in="shadowMatrixOuter1"></feMergeNode>
                <feMergeNode in="SourceGraphic"></feMergeNode>
            </feMerge>
        </filter>
    </defs>
    <g id="pages" stroke="none" stroke-width="1" fill="none" fill-rule="evenodd">
        <g id="VisualPicker" transform="translate(2.000000, 0.000000)" fill-rule="nonzero">
            <g id="Group-129" transform="translate(0.000000, 8.302326)">
                <g id="Group-127" transform="translate(49.543715, 0.000000)">
                    <g id="card-2">
                        <g id="Group-35-Copy-2">
                            <g id="price_active" filter="url(#filter-1)">
                                <path d="M6.60582867,0.600529879 C3.28919373,0.600529879 0.600529879,3.28919373 0.600529879,6.60582867 L0.600529879,36.0317928 C0.600529879,39.3484277 3.28919373,42.0370916 6.60582867,42.0370916 L36.0317928,42.0370916 C39.3484277,42.0370916 42.0370916,39.3484277 42.0370916,36.0317928 L42.0370916,6.60582867 C42.0370916,3.28919373 39.3484277,0.600529879 36.0317928,0.600529879 L6.60582867,0.600529879 Z" id="Rectangle-17" fill="#FFFFFF"></path>
                                <path d="M6.60582867,0 L36.0317928,0 C39.6800912,0 42.6376214,2.95753024 42.6376214,6.60582867 L42.6376214,36.0317928 C42.6376214,39.6800912 39.6800912,42.6376214 36.0317928,42.6376214 L6.60582867,42.6376214 C2.95753024,42.6376214 0,39.6800912 0,36.0317928 L0,6.60582867 C0,2.95753024 2.95753024,0 6.60582867,0 Z M6.60582867,0.600529879 C3.28919373,0.600529879 0.600529879,3.28919373 0.600529879,6.60582867 L0.600529879,36.0317928 C0.600529879,39.3484277 3.28919373,42.0370916 6.60582867,42.0370916 L36.0317928,42.0370916 C39.3484277,42.0370916 42.0370916,39.3484277 42.0370916,36.0317928 L42.0370916,6.60582867 C42.0370916,3.28919373 39.3484277,0.600529879 36.0317928,0.600529879 L6.60582867,0.600529879 Z" id="Rectangle-17" fill="#01B6F5"></path>
                            </g>
                            <g id="tringle" transform="translate(28.224904, 0.000000)" fill="#01B6F5">
                                <g id="Group-20">
                                    <path d="M2.84217094e-14,0.30026494 L14.1471767,14.4474416 L14.2749214,7.63477984 C14.3495368,3.65551741 11.184195,0.369200075 7.2049326,0.294584636 C7.15754199,0.293696012 7.11014376,0.293318083 7.06274484,0.293318083 L2.84217094e-14,0.30026494 Z" id="Line"></path>
                                </g>
                            </g>
                        </g>
                    </g>
                </g>
                <g id="Group-128">
                    <g id="price_active" filter="url(#filter-2)">
                        <path d="M6.60582867,0.600529879 C3.28919373,0.600529879 0.600529879,3.28919373 0.600529879,6.60582867 L0.600529879,36.0317928 C0.600529879,39.3484277 3.28919373,42.0370916 6.60582867,42.0370916 L36.0317928,42.0370916 C39.3484277,42.0370916 42.0370916,39.3484277 42.0370916,36.0317928 L42.0370916,6.60582867 C42.0370916,3.28919373 39.3484277,0.600529879 36.0317928,0.600529879 L6.60582867,0.600529879 Z" id="Rectangle-17" fill="#FFFFFF"></path>
                        <path d="M6.60582867,0 L36.0317928,0 C39.6800912,0 42.6376214,2.95753024 42.6376214,6.60582867 L42.6376214,36.0317928 C42.6376214,39.6800912 39.6800912,42.6376214 36.0317928,42.6376214 L6.60582867,42.6376214 C2.95753024,42.6376214 0,39.6800912 0,36.0317928 L0,6.60582867 C0,2.95753024 2.95753024,0 6.60582867,0 Z M6.60582867,0.600529879 C3.28919373,0.600529879 0.600529879,3.28919373 0.600529879,6.60582867 L0.600529879,36.0317928 C0.600529879,39.3484277 3.28919373,42.0370916 6.60582867,42.0370916 L36.0317928,42.0370916 C39.3484277,42.0370916 42.0370916,39.3484277 42.0370916,36.0317928 L42.0370916,6.60582867 C42.0370916,3.28919373 39.3484277,0.600529879 36.0317928,0.600529879 L6.60582867,0.600529879 Z" id="Rectangle-17" fill="#E6E6EB"></path>
                    </g>
                </g>
                <g id="Group-126" transform="translate(99.687960, 0.000000)">
                    <g id="price_active-copy" filter="url(#filter-3)">
                        <path d="M6.60582867,0.600529879 C3.28919373,0.600529879 0.600529879,3.28919373 0.600529879,6.60582867 L0.600529879,36.0317928 C0.600529879,39.3484277 3.28919373,42.0370916 6.60582867,42.0370916 L36.0317928,42.0370916 C39.3484277,42.0370916 42.0370916,39.3484277 42.0370916,36.0317928 L42.0370916,6.60582867 C42.0370916,3.28919373 39.3484277,0.600529879 36.0317928,0.600529879 L6.60582867,0.600529879 Z" id="Rectangle-17" fill="#FFFFFF"></path>
                        <path d="M6.60582867,0 L36.0317928,0 C39.6800912,0 42.6376214,2.95753024 42.6376214,6.60582867 L42.6376214,36.0317928 C42.6376214,39.6800912 39.6800912,42.6376214 36.0317928,42.6376214 L6.60582867,42.6376214 C2.95753024,42.6376214 0,39.6800912 0,36.0317928 L0,6.60582867 C0,2.95753024 2.95753024,0 6.60582867,0 Z M6.60582867,0.600529879 C3.28919373,0.600529879 0.600529879,3.28919373 0.600529879,6.60582867 L0.600529879,36.0317928 C0.600529879,39.3484277 3.28919373,42.0370916 6.60582867,42.0370916 L36.0317928,42.0370916 C39.3484277,42.0370916 42.0370916,39.3484277 42.0370916,36.0317928 L42.0370916,6.60582867 C42.0370916,3.28919373 39.3484277,0.600529879 36.0317928,0.600529879 L6.60582867,0.600529879 Z" id="Rectangle-17" fill="#E6E6EB"></path>
                    </g>
                </g>
            </g>
            <path d="M51.5930233,3.55813953 C50.6104702,3.55813953 49.8139535,2.76162287 49.8139535,1.77906977 C49.8139535,0.796516666 50.6104702,0 51.5930233,0 L89.8430233,0 C90.8255764,0 91.622093,0.796516666 91.622093,1.77906977 C91.622093,2.76162287 90.8255764,3.55813953 89.8430233,3.55813953 L51.5930233,3.55813953 Z" id="Line-12" fill="#E3E5ED"></path>
            <path d="M89.1294669,11.6025461 L86.7866946,13.8965383 C86.7164095,13.965362 86.6241479,14 86.5318862,14 C86.4396246,14 86.347363,13.965362 86.2770778,13.8965383 L85.1057247,12.7495422 C84.9647584,12.6115719 84.9647584,12.3884928 85.1057247,12.2505224 C85.246625,12.1124873 85.4743752,12.1124873 85.6153415,12.2505224 L86.5318862,13.1480085 L88.6198501,11.1035263 C88.7607503,10.9654912 88.9885006,10.9654912 89.1294669,11.1035263 C89.2703671,11.2414967 89.2703671,11.4645111 89.1294669,11.6025461 Z" id="Path" fill="#FFFFFF"></path>
            <g id="010-eiffel-tower" transform="translate(11.000000, 20.000000)">
                <path d="M15.0746667,17.6675833 C12.1947719,13.0936381 10.6666667,7.79869378 10.6666667,2.393625 L10.6666667,2 L9.33333333,2 L9.33333333,2.393625 C9.33332675,7.79869378 7.80522813,13.0936381 4.92533333,17.6675833 L3.66666667,19.6666667 L6.66666667,19.6666667 C6.66666667,17.8257175 8.15905086,16.3333334 10,16.3333334 C11.8409491,16.3333334 13.3333333,17.8257175 13.3333333,19.6666667 L16.3333333,19.6666667 L15.0746667,17.6675833 Z M8.66666667,13.6666667 L9.66666667,10.6666667 L10.3333333,10.6666667 L11.3333333,13.6666667 L8.66666667,13.6666667 Z" id="Shape" fill="#F6C869"></path>
                <path d="M8.33333333,15 L7.33333333,17.6666667 L7.337875,17.6666667 C7.96548709,16.8274622 8.95206819,16.3333282 10,16.3333282 C11.0479318,16.3333282 12.0345129,16.8274622 12.662125,17.6666667 L12.6666667,17.6666667 L11.6666667,15 L8.33333333,15 Z" id="Path" fill="#F1B355"></path>
                <polygon id="Path" fill="#F6C869" points="9.66666667 0 10.3333333 0 10.3333333 1.33333333 9.66666667 1.33333333"></polygon>
                <path d="M13.7577083,15.3333333 C13.53525,14.893625 13.3225,14.4496667 13.123375,14 L6.876625,14 C6.6775,14.4496667 6.46475,14.893625 6.24229167,15.3333333 L13.7577083,15.3333333 Z" id="Path" fill="#F1B355"></path>
                <path d="M11.6083333,9.66666667 L8.39166667,9.66666667 C8.27430556,10.1141944 8.146125,10.5586389 8.007125,11 L9.55570833,11 L9.66666667,10.6666667 L10.3333333,10.6666667 L10.4444583,11 L11.9930417,11 C11.8541528,10.5587222 11.7259167,10.1142778 11.6083333,9.66666667 Z" id="Path" fill="#F1B355"></path>
                <polygon id="Path" fill="#8C6847" points="1.33333333 18 2 18 2 19.6666667 1.33333333 19.6666667"></polygon>
                <rect id="Rectangle" fill="#83B45A" x="1" y="16.3333333" width="1.33333333" height="2" rx="0.666666667"></rect>
                <polygon id="Path" fill="#8C6847" points="16.6666667 18 17.3333333 18 17.3333333 19.6666667 16.6666667 19.6666667"></polygon>
                <rect id="Rectangle" fill="#83B45A" x="16.3333333" y="16.3333333" width="1.33333333" height="2" rx="0.666666667"></rect>
                <path d="M19.6666667,19.6666667 L19.6666667,19 C19.6666667,18.6318102 19.3681898,18.3333333 19,18.3333333 C18.6318102,18.3333333 18.3333333,18.6318102 18.3333333,19 L18.3333333,19.6666667 L19.6666667,19.6666667 Z" id="Path" fill="#AAC56A"></path>
                <polygon id="Path" fill="#6F5438" points="0 19.3333333 20 19.3333333 20 20 0 20"></polygon>
                <polygon id="Path" fill="#F1B355" points="9.33333333 2 10.6666667 2 10.6666667 2.66666667 9.33333333 2.66666667"></polygon>
                <polygon id="Path" fill="#8C6847" points="7.66666667 9.33333333 12.3333333 9.33333333 12.3333333 10.6666667 7.66666667 10.6666667"></polygon>
                <polygon id="Path" fill="#8C6847" points="5.66666667 13.6666667 14.3333333 13.6666667 14.3333333 15 5.66666667 15"></polygon>
                <polygon id="Path" fill="#F09C57" points="11.7916667 15.3333333 11.6666667 15 8.33333333 15 8.20833333 15.3333333"></polygon>
                <polygon id="Path" fill="#8C6847" points="9 1 11 1 11 2.33333333 9 2.33333333"></polygon>
            </g>
            <g id="028-space-needle" transform="translate(116.000000, 20.000000)">
                <polygon id="Path" fill="#808080" points="4.66666667 5.33333333 4.66666667 5 3.66666667 5 3.66666667 5.33333333 4 10 3.33333333 19.6666667 4.33333333 19.6666667 5 10"></polygon>
                <path d="M3.42233333,18.37625 L3.33333333,19.6666667 L4.33333333,19.6666667 L4.4375,18.1560417 C4.103375,18.2406667 3.76416667,18.3121667 3.42233333,18.37625 L3.42233333,18.37625 Z" id="Path" fill="#666666"></path>
                <polygon id="Path" fill="#808080" points="6.66666667 10 7 5.33333333 7 5 6 5 6 5.33333333 5.66666667 10 6.33333333 19.6666667 7.33333333 19.6666667"></polygon>
                <polygon id="Path" fill="#B3B3B3" points="5 3 5.66666667 3 5.66666667 19.6666667 5 19.6666667"></polygon>
                <path d="M6.19116667,17.6051667 L6.33333333,19.6666667 L7.33333333,19.6666667 L7.16333333,17.2020417 C6.844125,17.3458333 6.52083333,17.4814167 6.19116667,17.6051667 Z" id="Path" fill="#666666"></path>
                <path d="M5,17.9995833 L5,19.6666667 L5.66666667,19.6666667 L5.66666667,17.78975 C5.44638889,17.8641111 5.22416667,17.9340556 5,17.9995833 Z" id="Path" fill="#999999"></path>
                <path d="M5.66666667,1.33333333 L5,1.33333333 L5,0.333333333 C5,0.149238417 5.14923842,0 5.33333333,0 C5.51742825,0 5.66666667,0.149238417 5.66666667,0.333333333 L5.66666667,1.33333333 Z" id="Path" fill="#6F5438"></path>
                <polygon id="Path" fill="#E6E6E6" points="4 1 4.66666667 2 4.66666667 2.33333333 6 2.33333333 6 2 6.66666667 1"></polygon>
                <path d="M5.88375,1 C5.59114414,1.50489709 5.17156376,1.92447747 4.66666667,2.21708333 L4.66666667,2.33333333 L6,2.33333333 L6,2 L6.66666667,1 L5.88375,1 Z" id="Path" fill="#CCCCCC"></path>
                <path d="M2,3 C2,2.44771525 2.44771525,2 3,2 L7.66666667,2 C8.21895142,2 8.66666667,2.44771525 8.66666667,3 L2,3 Z" id="Path" fill="#48C0F3"></path>
                <path d="M7.66666667,2 L6.33333333,2 C6.88561808,2 7.33333333,2.44771525 7.33333333,3 L8.66666667,3 C8.66666667,2.44771525 8.21895142,2 7.66666667,2 Z" id="Path" fill="#3998C0"></path>
                <polygon id="Path" fill="#E6E6E6" points="2.66666667 3 8 3 8 4.66666667 2.66666667 4.66666667"></polygon>
                <polygon id="Path" fill="#B3B3B3" points="6.33333333 3 7 3 7 4.66666667 6.33333333 4.66666667"></polygon>
                <polygon id="Path" fill="#B3B3B3" points="3.66666667 3 4.33333333 3 4.33333333 4.66666667 3.66666667 4.66666667"></polygon>
                <polygon id="Path" fill="#6F5438" points="0 19.3333333 10.6666667 19.3333333 10.6666667 20 0 20"></polygon>
                <path d="M3,5.33333333 L7.66666667,5.33333333 C8.21895142,5.33333333 8.66666667,4.88561808 8.66666667,4.33333333 L2,4.33333333 C2,4.88561808 2.44771525,5.33333333 3,5.33333333 Z" id="Path" fill="#48C0F3"></path>
                <path d="M7.33333333,4.33333333 C7.33333333,4.88561808 6.88561808,5.33333333 6.33333333,5.33333333 L7.66666667,5.33333333 C8.21895142,5.33333333 8.66666667,4.88561808 8.66666667,4.33333333 L7.33333333,4.33333333 Z" id="Path" fill="#3998C0"></path>
                <rect id="Rectangle" fill="#48C0F3" x="2.66666667" y="15.6666667" width="5.33333333" height="1" rx="0.5"></rect>
                <polygon id="Path" fill="#CCCCCC" points="2.66666667 3 8 3 8 3.66666667 2.66666667 3.66666667"></polygon>
                <polygon id="Path" fill="#999999" points="3.66666667 3 4.33333333 3 4.33333333 3.66666667 3.66666667 3.66666667"></polygon>
                <polygon id="Path" fill="#999999" points="6.33333333 3 7 3 7 3.66666667 6.33333333 3.66666667"></polygon>
                <polygon id="Path" fill="#6F5438" points="1.33333333 2.66666667 9.33333333 2.66666667 9.33333333 3.33333333 1.33333333 3.33333333"></polygon>
                <path d="M7.5,15.6666667 L7.21708333,15.6666667 C6.99088161,16.0565515 6.68821074,16.3966949 6.32725,16.6666667 L7.5,16.6666667 C7.77614237,16.6666667 8,16.442809 8,16.1666667 C8,15.8905243 7.77614237,15.6666667 7.5,15.6666667 Z" id="Path" fill="#3998C0"></path>
            </g>
            <g id="008-pagoda" transform="translate(61.000000, 20.000000)">
                <path d="M14.2372881,13.8983051 L0,13.8983051 L0,11.1864407 C1.51936863,11.1864219 2.976501,10.5828398 4.05084746,9.50847458 L4.74576271,8.81355932 L5.76271186,8.81355932 L6.45762712,9.50847458 C7.53197357,10.5828398 8.98910595,11.1864219 10.5084746,11.1864407 L12.5423729,11.1864407 L14.2372881,13.8983051 Z" id="Path" fill="#48C0F3"></path>
                <path d="M4.74576271,10.5084746 L5.76271186,11.1864407 L7.79661017,10.5084746 L7.80576271,10.5084746 C7.30971373,10.2431555 6.85545828,9.90620462 6.45762712,9.50847458 L5.76271186,8.81355932 L4.74576271,8.81355932 L4.05084746,9.50847458 C3.6530163,9.90620462 3.19876085,10.2431555 2.70271186,10.5084746 L4.74576271,10.5084746 Z" id="Path" fill="#B6E6FA"></path>
                <path d="M10.5084746,11.1864407 C10.4307627,11.1864407 10.3540678,11.1779661 10.2767373,11.1749576 C8.82986302,12.3414226 7.20068516,13.2615278 5.45466102,13.8983051 L14.2372881,13.8983051 L12.5423729,11.1864407 L10.5084746,11.1864407 Z" id="Path" fill="#3998C0"></path>
                <polygon id="Path" fill="#D36157" points="13.220339 8.47457627 17.9661017 8.47457627 17.9661017 10.5084746 13.220339 10.5084746"></polygon>
                <polygon id="Path" fill="#A04A42" points="13.220339 8.47457627 17.9661017 8.47457627 17.9661017 9.15254237 13.220339 9.15254237"></polygon>
                <polygon id="Path" fill="#D36157" points="13.220339 12.2033898 17.9661017 12.2033898 17.9661017 14.2372881 13.220339 14.2372881"></polygon>
                <polygon id="Path" fill="#A04A42" points="13.220339 12.2033898 17.9661017 12.2033898 17.9661017 12.8813559 13.220339 12.8813559"></polygon>
                <polygon id="Path" fill="#D36157" points="13.220339 15.9322034 17.9661017 15.9322034 17.9661017 17.9661017 13.220339 17.9661017"></polygon>
                <polygon id="Path" fill="#A04A42" points="13.220339 15.9322034 17.9661017 15.9322034 17.9661017 16.6101695 13.220339 16.6101695"></polygon>
                <path d="M15.9322034,5.42372881 L15.2542373,5.42372881 L15.2542373,0.338983051 C15.2542373,0.151767881 15.4060052,0 15.5932203,0 C15.7804355,0 15.9322034,0.151767881 15.9322034,0.338983051 L15.9322034,5.42372881 Z" id="Path" fill="#00766E"></path>
                <polygon id="Path" fill="#00A99D" points="14.9152542 3.38983051 16.2711864 3.38983051 16.2711864 4.06779661 14.9152542 4.06779661"></polygon>
                <polygon id="Path" fill="#00A99D" points="14.9152542 2.03389831 16.2711864 2.03389831 16.2711864 2.71186441 14.9152542 2.71186441"></polygon>
                <polygon id="Path" fill="#00A99D" points="14.9152542 0.677966102 16.2711864 0.677966102 16.2711864 1.3559322 14.9152542 1.3559322"></polygon>
                <polygon id="Path" fill="#C1272D" points="12.5423729 10.1694915 18.6440678 10.1694915 18.6440678 11.1864407 12.5423729 11.1864407"></polygon>
                <path d="M17.8497881,8.01927966 C18.3583642,8.52785203 19.0481403,8.81355932 19.7673729,8.81355932 L11.4190678,8.81355932 C12.1383004,8.81355932 12.8280764,8.52785203 13.3366525,8.01927966 L14.9152542,6.44067797 L16.2711864,6.44067797 L17.8497881,8.01927966 Z" id="Path" fill="#00A99D"></path>
                <path d="M14.9152542,6.44067797 L16.2711864,6.44067797 L16.2711864,5.76271186 C16.2711864,5.38828153 15.9676507,5.08474576 15.5932203,5.08474576 C15.21879,5.08474576 14.9152542,5.38828153 14.9152542,5.76271186 L14.9152542,6.44067797 Z" id="Path" fill="#00433E"></path>
                <path d="M18.6440678,11.1864407 C18.6440678,11.9353014 19.2511393,12.5423729 20,12.5423729 L11.1864407,12.5423729 C11.9353014,12.5423729 12.5423729,11.9353014 12.5423729,11.1864407 L18.6440678,11.1864407 Z" id="Path" fill="#00A99D"></path>
                <path d="M18.6440678,14.9152542 C18.6440678,15.6641149 19.2511393,16.2711864 20,16.2711864 L11.1864407,16.2711864 C11.9353014,16.2711864 12.5423729,15.6641149 12.5423729,14.9152542 L18.6440678,14.9152542 Z" id="Path" fill="#00A99D"></path>
                <path d="M18.6440678,18.6440678 C18.6440678,19.3929285 19.2511393,20 20,20 L11.1864407,20 C11.9353014,20 12.5423729,19.3929285 12.5423729,18.6440678 L18.6440678,18.6440678 Z" id="Path" fill="#00A99D"></path>
                <polygon id="Path" fill="#C1272D" points="12.5423729 17.6271186 18.6440678 17.6271186 18.6440678 18.6440678 12.5423729 18.6440678"></polygon>
                <polygon id="Path" fill="#C1272D" points="12.5423729 13.8983051 18.6440678 13.8983051 18.6440678 14.9152542 12.5423729 14.9152542"></polygon>
                <g id="Group" transform="translate(1.016949, 14.915254)" fill="#83B45A">
                    <polygon id="Path" points="0 0 2.71186441 0 2.71186441 0.677966102 0 0.677966102"></polygon>
                    <polygon id="Path" points="4.06779661 0 8.81355932 0 8.81355932 0.677966102 4.06779661 0.677966102"></polygon>
                    <polygon id="Path" points="1.69491525 1.3559322 6.77966102 1.3559322 6.77966102 2.03389831 1.69491525 2.03389831"></polygon>
                    <polygon id="Path" points="3.05084746 3.05084746 5.08474576 3.05084746 5.08474576 3.72881356 3.05084746 3.72881356"></polygon>
                </g>
                <path d="M17.3032627,7.47275424 C16.5034806,7.98985507 15.6613978,8.43838854 14.7860169,8.81355932 L19.7673729,8.81355932 C19.0481403,8.81355932 18.3583642,8.52785203 17.8497881,8.01927966 L17.3032627,7.47275424 Z" id="Path" fill="#00766E"></path>
                <path d="M17.1537288,11.1864407 L18.6440678,11.1864407 L18.6440678,10.1694915 L18.4667797,10.1694915 C18.0462712,10.5292373 17.6085876,10.8682203 17.1537288,11.1864407 Z" id="Path" fill="#8E1D21"></path>
                <path d="M18.6440678,11.1864407 L17.1537288,11.1864407 C16.4233022,11.6983557 15.6535612,12.1517445 14.8516949,12.5423729 L20,12.5423729 C19.2511393,12.5423729 18.6440678,11.9353014 18.6440678,11.1864407 L18.6440678,11.1864407 Z" id="Path" fill="#00766E"></path>
                <path d="M17.1537288,14.9152542 L18.6440678,14.9152542 L18.6440678,13.8983051 L18.4667797,13.8983051 C18.0462712,14.2580508 17.6085876,14.5970339 17.1537288,14.9152542 Z" id="Path" fill="#8E1D21"></path>
                <path d="M18.6440678,14.9152542 L17.1537288,14.9152542 C16.4233022,15.4271692 15.6535612,15.8805581 14.8516949,16.2711864 L20,16.2711864 C19.2511393,16.2711864 18.6440678,15.6641149 18.6440678,14.9152542 L18.6440678,14.9152542 Z" id="Path" fill="#00766E"></path>
                <path d="M17.1537288,18.6440678 L18.6440678,18.6440678 L18.6440678,17.6271186 L18.4667797,17.6271186 C18.0462712,17.9868644 17.6085876,18.3258475 17.1537288,18.6440678 Z" id="Path" fill="#8E1D21"></path>
                <path d="M18.6440678,18.6440678 L17.1537288,18.6440678 C16.4233022,19.1559828 15.6535612,19.6093717 14.8516949,20 L20,20 C19.2511393,20 18.6440678,19.3929285 18.6440678,18.6440678 L18.6440678,18.6440678 Z" id="Path" fill="#00766E"></path>
            </g>
        </g>
    </g>
</svg>