<?xml version="1.0" encoding="UTF-8"?>
<svg width="145px" height="54px" viewBox="0 0 145 54" version="1.1" xmlns="http://www.w3.org/2000/svg" xmlns:xlink="http://www.w3.org/1999/xlink">
    <!-- Generator: Sketch 56.2 (81672) - https://sketch.com -->
    <title>VisualPicker</title>
    <desc>Created with Sketch.</desc>
    <defs>
        <filter x="-15.2%" y="-15.2%" width="131.3%" height="131.3%" filterUnits="objectBoundingBox" id="filter-1">
            <feOffset dx="0" dy="1" in="SourceAlpha" result="shadowOffsetOuter1"></feOffset>
            <feGaussianBlur stdDeviation="1" in="shadowOffsetOuter1" result="shadowBlurOuter1"></feGaussianBlur>
            <feColorMatrix values="0 0 0 0 0.533333333   0 0 0 0 0.596078431   0 0 0 0 0.666666667  0 0 0 0.5 0" type="matrix" in="shadowBlurOuter1" result="shadowMatrixOuter1"></feColorMatrix>
            <feMerge>
                <feMergeNode in="shadowMatrixOuter1"></feMergeNode>
                <feMergeNode in="SourceGraphic"></feMergeNode>
            </feMerge>
        </filter>
        <filter x="-5.9%" y="-5.9%" width="112.6%" height="112.6%" filterUnits="objectBoundingBox" id="filter-2">
            <feOffset dx="0" dy="0" in="SourceAlpha" result="shadowOffsetOuter1"></feOffset>
            <feGaussianBlur stdDeviation="0.5" in="shadowOffsetOuter1" result="shadowBlurOuter1"></feGaussianBlur>
            <feColorMatrix values="0 0 0 0 0.533333333   0 0 0 0 0.596078431   0 0 0 0 0.666666667  0 0 0 0.5 0" type="matrix" in="shadowBlurOuter1" result="shadowMatrixOuter1"></feColorMatrix>
            <feMerge>
                <feMergeNode in="shadowMatrixOuter1"></feMergeNode>
                <feMergeNode in="SourceGraphic"></feMergeNode>
            </feMerge>
        </filter>
        <filter x="-5.9%" y="-5.9%" width="112.6%" height="112.6%" filterUnits="objectBoundingBox" id="filter-3">
            <feOffset dx="0" dy="0" in="SourceAlpha" result="shadowOffsetOuter1"></feOffset>
            <feGaussianBlur stdDeviation="0.5" in="shadowOffsetOuter1" result="shadowBlurOuter1"></feGaussianBlur>
            <feColorMatrix values="0 0 0 0 0.533333333   0 0 0 0 0.596078431   0 0 0 0 0.666666667  0 0 0 0.5 0" type="matrix" in="shadowBlurOuter1" result="shadowMatrixOuter1"></feColorMatrix>
            <feMerge>
                <feMergeNode in="shadowMatrixOuter1"></feMergeNode>
                <feMergeNode in="SourceGraphic"></feMergeNode>
            </feMerge>
        </filter>
    </defs>
    <g id="pages" stroke="none" stroke-width="1" fill="none" fill-rule="evenodd">
        <g id="VisualPicker" transform="translate(1.000000, 0.000000)">
            <g id="Group-129" transform="translate(0.000000, 8.302326)">
                <g id="Group-127" transform="translate(49.543715, 0.000000)">
                    <g id="card-2">
                        <g id="Group-35-Copy-2">
                            <g id="price_active" filter="url(#filter-1)" fill-rule="nonzero">
                                <path d="M6.60582867,0.600529879 C3.28919373,0.600529879 0.600529879,3.28919373 0.600529879,6.60582867 L0.600529879,36.0317928 C0.600529879,39.3484277 3.28919373,42.0370916 6.60582867,42.0370916 L36.0317928,42.0370916 C39.3484277,42.0370916 42.0370916,39.3484277 42.0370916,36.0317928 L42.0370916,6.60582867 C42.0370916,3.28919373 39.3484277,0.600529879 36.0317928,0.600529879 L6.60582867,0.600529879 Z" id="Rectangle-17" fill="#FFFFFF"></path>
                                <path d="M6.60582867,0 L36.0317928,0 C39.6800912,0 42.6376214,2.95753024 42.6376214,6.60582867 L42.6376214,36.0317928 C42.6376214,39.6800912 39.6800912,42.6376214 36.0317928,42.6376214 L6.60582867,42.6376214 C2.95753024,42.6376214 0,39.6800912 0,36.0317928 L0,6.60582867 C0,2.95753024 2.95753024,0 6.60582867,0 Z M6.60582867,0.600529879 C3.28919373,0.600529879 0.600529879,3.28919373 0.600529879,6.60582867 L0.600529879,36.0317928 C0.600529879,39.3484277 3.28919373,42.0370916 6.60582867,42.0370916 L36.0317928,42.0370916 C39.3484277,42.0370916 42.0370916,39.3484277 42.0370916,36.0317928 L42.0370916,6.60582867 C42.0370916,3.28919373 39.3484277,0.600529879 36.0317928,0.600529879 L6.60582867,0.600529879 Z" id="Rectangle-17" fill="#01B6F5"></path>
                            </g>
                            <g id="tringle" transform="translate(28.224904, 0.000000)">
                                <g id="Group-20">
                                    <path d="M2.84217094e-14,0.30026494 L14.1471767,14.4474416 L14.2749214,7.63477984 C14.3495368,3.65551741 11.184195,0.369200075 7.2049326,0.294584636 C7.15754199,0.293696012 7.11014376,0.293318083 7.06274484,0.293318083 L2.84217094e-14,0.30026494 Z" id="Line" fill="#01B6F5" fill-rule="nonzero"></path>
                                    <g id="icon-checked/white" transform="translate(6.305564, 1.801590)">
                                        <g id="icon">
                                            <rect id="Rectangle" fill-rule="nonzero" x="0" y="0" width="6" height="6"></rect>
                                            <path d="M5.22082156,1.69536724 C5.12587098,1.45052806 4.93239292,1.4891749 4.72273748,1.53071578 C4.59752953,1.55681093 4.04063788,1.71982026 3.15949974,2.6489377 C2.79384246,3.03454437 2.55262896,3.34196313 2.39381436,3.57641302 C2.29679893,3.45730207 2.18565473,3.32986669 2.0689338,3.21309698 C1.70997508,2.85423582 1.30967059,2.60778703 1.29284287,2.59743027 C1.12485839,2.49474056 0.905561568,2.54758121 0.80257921,2.71543563 C0.69972692,2.88329004 0.752404982,3.10294455 0.920129329,3.20602447 C0.923559906,3.20818687 1.26731678,3.42072008 1.56428122,3.71776582 C1.8671313,4.02064842 2.14152872,4.43025286 2.14422766,4.43421998 C2.2110345,4.53466598 2.323203,4.59327846 2.44120836,4.59327846 C2.46146665,4.59327846 2.48192005,4.5915713 2.50227589,4.58804317 C2.64154758,4.56385028 2.75342343,4.45971356 2.7875341,4.32250672 C2.78839581,4.31920621 2.92989493,3.92813664 3.67737061,3.14006308 C4.27941257,2.50511359 4.68090395,2.30331109 4.82001305,2.24733252 C4.82134626,2.2471049 4.82230552,2.24700735 4.82411023,2.2466334 C4.82344363,2.24679598 4.82861388,2.24440596 4.83700335,2.24063395 C4.86088732,2.23167543 4.87368289,2.22824485 4.87441453,2.22806601 C4.86755338,2.22977316 4.86399273,2.23019589 4.86399273,2.23019589 L4.86376511,2.22896023 C4.92813315,2.20088152 5.04864234,2.14903265 5.05127625,2.14792707 C5.2327229,2.0733811 5.29172558,1.87821214 5.22082156,1.69536724 Z" id="Shape" fill="#FFFFFF" fill-rule="nonzero"></path>
                                        </g>
                                    </g>
                                </g>
                            </g>
                        </g>
                    </g>
                    <g id="Group-45" transform="translate(13.812187, 14.712982)" fill="#01B6F5">
                        <g id="Group-33" transform="translate(5.732331, 0.000000)">
                            <path d="M3.91565954,1.91077689 C4.17934675,1.91077689 4.39335376,1.69868065 4.39335376,1.42830572 L4.39335376,0.482471164 C4.39335376,0.215917788 4.18125753,0 3.91565954,0 C3.65101694,0 3.43796532,0.212096235 3.43796532,0.482471164 L3.43796532,1.42830572 C3.43796532,1.6948591 3.64910616,1.91077689 3.91565954,1.91077689 Z"></path>
                            <path d="M0.871314261,2.88718388 C1.06000348,3.0753954 1.36190623,3.07826157 1.55011775,2.89005004 C1.7364185,2.7037493 1.73785158,2.40232424 1.54677389,2.21124655 L0.877524286,1.54247464 C0.689312763,1.35426312 0.386454626,1.35139695 0.199198491,1.53913078 C0.012897744,1.72590922 0.0114646613,2.02685658 0.202064656,2.21793427 L0.871314261,2.88718388 Z"></path>
                            <path d="M7.26095218,5.25606953 C7.26095218,5.52023443 7.47257072,5.73376375 7.74342334,5.73376375 L8.6892579,5.73376375 C8.95581128,5.73376375 9.17172907,5.52214521 9.17172907,5.25606953 C9.17172907,4.99238232 8.96011053,4.7783753 8.6892579,4.7783753 L7.74342334,4.7783753 C7.47686997,4.7783753 7.26095218,4.99047154 7.26095218,5.25606953 Z"></path>
                            <path d="M6.96000482,2.88766157 L7.62829903,2.21841197 C7.81746595,2.02972275 7.81985442,1.72782 7.63212059,1.53960848 C7.44534215,1.35330773 7.14439479,1.35187465 6.9528394,1.54295234 L6.28406749,2.21172425 C6.09633366,2.39993577 6.09394519,2.70279391 6.28120133,2.89052774 C6.46750207,3.07682849 6.76940482,3.07826157 6.96000482,2.88766157 Z"></path>
                            <path d="M1.52862151,4.299248 C1.7693794,4.299248 2.00774882,4.30927958 2.24277437,4.32982043 C2.56903953,3.74225654 3.19481896,3.34385956 3.91565954,3.34385956 C4.97088608,3.34385956 5.82643643,4.19940991 5.82643643,5.25463644 C5.82643643,5.34683143 5.81927101,5.43759333 5.80732866,5.52644446 C6.10015522,5.7127452 6.37912864,5.91767602 6.64233816,6.13980384 C6.73262237,5.86083041 6.78182487,5.56322691 6.78182487,5.25463644 C6.78182487,3.67203549 5.4982605,2.38847111 3.91565954,2.38847111 C2.66553376,2.38847111 1.60218642,3.18908663 1.21047716,4.30545802 C1.31604758,4.30115878 1.42161801,4.299248 1.52862151,4.299248 Z"></path>
                        </g>
                        <path d="M7.64310755,4.21306806 C3.42847967,4.21306806 0,7.64154774 0,11.8561756 C0,12.2086945 0.283886852,12.4925813 0.63640569,12.4925813 C0.988924529,12.4925813 1.27281138,12.2086945 1.27281138,11.8561756 C1.27281138,8.34346578 4.13039772,5.48587944 7.64310755,5.48587944 C11.1558174,5.48587944 14.0134037,8.34346578 14.0134037,11.8561756 C14.0134037,12.2086945 14.2972906,12.4925813 14.6498094,12.4925813 C15.0023283,12.4925813 15.2862151,12.2086945 15.2862151,11.8561756 C15.2862151,7.64154774 11.8577354,4.21306806 7.64310755,4.21306806 Z"></path>
                        <path d="M7.64310755,6.48104324 C4.85415321,6.48104324 2.58617803,8.89252167 2.58617803,11.8561756 C2.58617803,12.2086945 2.87006488,12.4925813 3.22258372,12.4925813 C3.57510255,12.4925813 3.85898941,12.2086945 3.85898941,11.8561756 C3.85898941,9.59443971 5.55607125,7.75697426 7.63998792,7.75697426 C9.72390459,7.75697426 11.4209864,9.59755934 11.4209864,11.8561756 C11.4209864,12.2086945 11.7048733,12.4925813 12.0573921,12.4925813 C12.409911,12.4925813 12.6938107,12.2086945 12.6938107,11.8561756 C12.7000371,8.89252167 10.4320619,6.48104324 7.64310755,6.48104324 Z"></path>
                    </g>
                </g>
                <g id="Group-128">
                    <g id="price_active" filter="url(#filter-2)" fill-rule="nonzero">
                        <path d="M6.60582867,0.600529879 C3.28919373,0.600529879 0.600529879,3.28919373 0.600529879,6.60582867 L0.600529879,36.0317928 C0.600529879,39.3484277 3.28919373,42.0370916 6.60582867,42.0370916 L36.0317928,42.0370916 C39.3484277,42.0370916 42.0370916,39.3484277 42.0370916,36.0317928 L42.0370916,6.60582867 C42.0370916,3.28919373 39.3484277,0.600529879 36.0317928,0.600529879 L6.60582867,0.600529879 Z" id="Rectangle-17" fill="#FFFFFF"></path>
                        <path d="M6.60582867,0 L36.0317928,0 C39.6800912,0 42.6376214,2.95753024 42.6376214,6.60582867 L42.6376214,36.0317928 C42.6376214,39.6800912 39.6800912,42.6376214 36.0317928,42.6376214 L6.60582867,42.6376214 C2.95753024,42.6376214 0,39.6800912 0,36.0317928 L0,6.60582867 C0,2.95753024 2.95753024,0 6.60582867,0 Z M6.60582867,0.600529879 C3.28919373,0.600529879 0.600529879,3.28919373 0.600529879,6.60582867 L0.600529879,36.0317928 C0.600529879,39.3484277 3.28919373,42.0370916 6.60582867,42.0370916 L36.0317928,42.0370916 C39.3484277,42.0370916 42.0370916,39.3484277 42.0370916,36.0317928 L42.0370916,6.60582867 C42.0370916,3.28919373 39.3484277,0.600529879 36.0317928,0.600529879 L6.60582867,0.600529879 Z" id="Rectangle-17" fill="#E6E6EB"></path>
                    </g>
                    <g id="rainbow-(5)" transform="translate(11.710333, 15.613777)" fill="#01B6F5">
                        <path d="M6.55121799,8.98407713 C6.55121799,7.53683765 5.37797027,6.36358993 3.93073079,6.36358993 C2.48349132,6.36358993 1.3102436,7.53683765 1.3102436,8.98407713 C0.586642626,8.98407713 0,9.57071975 0,10.2943207 C0,11.0179217 0.586642626,11.6045643 1.3102436,11.6045643 L6.55121799,11.6045643 C7.27481896,11.6045643 7.86146158,11.0179217 7.86146158,10.2943207 C7.86146158,9.57071975 7.27485649,8.98407713 6.55121799,8.98407713 Z"></path>
                        <path d="M17.9067125,8.98407713 C17.9067125,7.53683765 16.7334648,6.36358993 15.2862253,6.36358993 C13.8389859,6.36358993 12.6657382,7.53683765 12.6657382,8.98407713 C11.9421372,8.98407713 11.3554946,9.57071975 11.3554946,10.2943207 C11.3554946,11.0179217 11.9421372,11.6045643 12.6657382,11.6045643 L17.9067125,11.6045643 C18.6303135,11.6045643 19.2169561,11.0179217 19.2169561,10.2943207 C19.2169561,9.57071975 18.6303135,8.98407713 17.9067125,8.98407713 Z"></path>
                        <path d="M12.9759494,3.61988151 C11.9684104,2.98617236 10.8039454,2.65122682 9.60847807,2.65122682 C8.41304828,2.65122682 7.24862084,2.98617236 6.2411569,3.61984398 C5.60759788,4.01829555 5.052971,4.52394171 4.59912055,5.11028407 C5.06809685,5.19094274 5.50854798,5.35537533 5.90538563,5.5869922 C6.84176185,4.56218796 8.1714476,3.96147042 9.60847807,3.96147042 C11.0455085,3.96147042 12.3751943,4.56222549 13.3116456,5.58695467 C13.7084457,5.35537533 14.1489344,5.19094274 14.6179107,5.11028407 C14.1640602,4.52394171 13.6094333,4.01833309 12.9759494,3.61988151 Z"></path>
                        <path d="M9.60847807,0.0307020901 C5.60898661,0.0307020901 2.21392847,2.66680306 1.06868045,6.29268987 C1.57928098,5.75007359 2.24204077,5.35259788 2.98801148,5.16823521 C4.31067854,2.88228069 6.78287239,1.34094569 9.60847807,1.34094569 C12.4340838,1.34094569 14.9062776,2.88228069 16.2289447,5.16823521 C16.9749154,5.35259788 17.6376752,5.75007359 18.1482382,6.29268987 C17.0030277,2.66680306 13.6079695,0.0307020901 9.60847807,0.0307020901 Z"></path>
                        <path d="M9.60847807,5.27171401 C8.54978142,5.27171401 7.59392552,5.71794525 6.91705328,6.43122461 C7.21900721,6.78396085 7.45974463,7.19051958 7.62256329,7.63442376 C8.0552826,6.99966367 8.78395054,6.58195761 9.60847807,6.58195761 C10.4329681,6.58195761 11.161636,6.99966367 11.5943928,7.63442376 C11.7572115,7.19051958 11.9979489,6.78396085 12.2999029,6.43122461 C11.6229931,5.71790771 10.6671747,5.27171401 9.60847807,5.27171401 Z"></path>
                    </g>
                </g>
                <g id="Group-126" transform="translate(99.687960, 0.000000)" fill-rule="nonzero">
                    <g id="price_active-copy" filter="url(#filter-3)">
                        <path d="M6.60582867,0.600529879 C3.28919373,0.600529879 0.600529879,3.28919373 0.600529879,6.60582867 L0.600529879,36.0317928 C0.600529879,39.3484277 3.28919373,42.0370916 6.60582867,42.0370916 L36.0317928,42.0370916 C39.3484277,42.0370916 42.0370916,39.3484277 42.0370916,36.0317928 L42.0370916,6.60582867 C42.0370916,3.28919373 39.3484277,0.600529879 36.0317928,0.600529879 L6.60582867,0.600529879 Z" id="Rectangle-17" fill="#FFFFFF"></path>
                        <path d="M6.60582867,0 L36.0317928,0 C39.6800912,0 42.6376214,2.95753024 42.6376214,6.60582867 L42.6376214,36.0317928 C42.6376214,39.6800912 39.6800912,42.6376214 36.0317928,42.6376214 L6.60582867,42.6376214 C2.95753024,42.6376214 0,39.6800912 0,36.0317928 L0,6.60582867 C0,2.95753024 2.95753024,0 6.60582867,0 Z M6.60582867,0.600529879 C3.28919373,0.600529879 0.600529879,3.28919373 0.600529879,6.60582867 L0.600529879,36.0317928 C0.600529879,39.3484277 3.28919373,42.0370916 6.60582867,42.0370916 L36.0317928,42.0370916 C39.3484277,42.0370916 42.0370916,39.3484277 42.0370916,36.0317928 L42.0370916,6.60582867 C42.0370916,3.28919373 39.3484277,0.600529879 36.0317928,0.600529879 L6.60582867,0.600529879 Z" id="Rectangle-17" fill="#E6E6EB"></path>
                    </g>
                    <g id="rainbow-(6)" transform="translate(11.109803, 15.013247)" fill="#01B6F5">
                        <path d="M18.4378903,10.9527821 L14.2828728,10.9527821 L14.2828728,9.39465048 L17.399136,9.39465048 C17.3994476,9.39465048 17.3998112,9.39465048 17.4001228,9.39465048 C17.8303748,9.39465048 18.1791886,9.04583676 18.1791886,8.61558469 C18.1791886,8.47582029 18.1423647,8.34457367 18.07791,8.23119363 L14.2006035,0.476528574 C14.0686297,0.212581085 13.7989171,0.0458610061 13.503807,0.0458610061 C13.2086969,0.0458610061 12.9389324,0.212581085 12.8069586,0.476528574 L12.0643531,1.96168766 C11.2709006,1.72438422 10.4475839,1.60394065 9.60847807,1.60399258 C4.88313243,1.60399258 1.03875439,5.44837063 1.03875439,10.1737163 C1.03875439,10.4339242 1.0511675,10.6940283 1.07453947,10.9527821 L0.779065789,10.9527821 C0.348813723,10.9527821 0,11.3015958 0,11.7318478 C0,12.1620999 0.348813723,12.5109136 0.779065789,12.5109136 L1.83942627,12.5109136 C1.88383302,12.5188082 1.92922658,12.5230151 1.97529534,12.5230151 C2.01876721,12.5230151 2.06286233,12.5184446 2.1070094,12.5109136 L5.18707196,12.5109136 C5.19143473,12.5109656 5.1957975,12.511433 5.20016027,12.511433 C5.20421141,12.511433 5.20821062,12.5109656 5.21220982,12.5109136 L18.4378903,12.5109136 C18.8680905,12.5109136 19.2169561,12.1620999 19.2169561,11.7318478 C19.2169561,11.3015958 18.8680905,10.9527821 18.4378903,10.9527821 Z M4.15501754,10.1737163 C4.15501754,10.4359498 4.17459806,10.6958981 4.21142191,10.9527821 L2.64025396,10.9527821 C2.61174015,10.6946516 2.59688596,10.4342878 2.59688596,10.1737163 C2.59688596,6.30752438 5.74223424,3.16212414 9.60847807,3.16212414 C10.2030091,3.16212414 10.7876201,3.23561604 11.3546761,3.38104165 L10.6365852,4.81722346 C10.2991978,4.75276875 9.95521428,4.7202038 9.60847807,4.72025574 C6.601388,4.72025574 4.15501754,7.16667813 4.15501754,10.1737163 Z M7.40528002,10.9527821 L5.79162702,10.9527821 C5.73989705,10.6978198 5.71314912,10.4374041 5.71314912,10.1737163 C5.71314912,8.02583189 7.46054175,6.27838732 9.60847807,6.27838732 C9.70627679,6.27838732 9.80371196,6.28202296 9.90062774,6.28919037 L9.09865742,7.89318295 C8.05434569,8.12653912 7.2712807,9.06011963 7.2712807,10.1737163 C7.2712807,10.4468567 7.31875178,10.7089864 7.40528002,10.9527821 Z M12.7247412,10.9527821 L9.60847807,10.9527821 C9.17884925,10.9527821 8.82941228,10.6032931 8.82941228,10.1737163 C8.82941228,9.74413939 9.17884925,9.39465048 9.60847807,9.39465048 L12.7247412,9.39465048 L12.7247412,10.9527821 Z" id="XMLID_229_"></path>
                    </g>
                </g>
            </g>
            <path d="M51.5930233,3.55813953 C50.6104702,3.55813953 49.8139535,2.76162287 49.8139535,1.77906977 C49.8139535,0.796516666 50.6104702,-4.4408921e-16 51.5930233,-4.4408921e-16 L89.8430233,-4.4408921e-16 C90.8255764,-4.4408921e-16 91.622093,0.796516666 91.622093,1.77906977 C91.622093,2.76162287 90.8255764,3.55813953 89.8430233,3.55813953 L51.5930233,3.55813953 Z" id="Line-12" fill="#E3E5ED" fill-rule="nonzero"></path>
        </g>
    </g>
</svg>