<?xml version="1.0" encoding="UTF-8"?>
<svg width="150px" height="75px" viewBox="0 0 150 75" version="1.1" xmlns="http://www.w3.org/2000/svg" xmlns:xlink="http://www.w3.org/1999/xlink">
    <!-- Generator: Sketch 64 (93537) - https://sketch.com -->
    <title>WeekDayPicker</title>
    <desc>Created with Sketch.</desc>
    <g id="pages" stroke="none" stroke-width="1" fill="none" fill-rule="evenodd">
        <g id="WeekDayPicker" fill-rule="nonzero">
            <g id="TimeRangePicker-Copy" transform="translate(100.000000, 0.000000)">
                <g id="Group-5">
                    <path d="M0,11 C0,4.92486775 4.92817249,0 10.991074,0 L38.1815451,0 C44.1522361,0 49.0109701,4.76342789 49.1686683,10.7021035 L49.172619,11 C49.172619,17.0751322 44.2444466,22 38.1815451,22 L10.991074,22 C5.02038296,22 0.161648924,17.2365721 0.00395076211,11.2978965 L0,11 Z" id="Path" fill="#FFB900"></path>
                    <path d="M8.9375,15.8125 L12.1325784,15.8125 C12.6349885,15.8125 13.0823824,15.7502178 13.4747605,15.6256533 C13.8671385,15.5010889 14.1982725,15.3266986 14.468162,15.1024826 C14.7380519,14.8782666 14.9435833,14.6094149 15.0847561,14.2959277 C15.2259289,13.9824404 15.2965157,13.6346981 15.2965157,13.2527003 C15.2965157,12.7046167 15.1314678,12.2592988 14.801372,11.9167465 C14.4712761,11.5741943 13.9844366,11.3385599 13.3408537,11.2098432 C13.6190477,11.1226481 13.8619484,11.0095019 14.0695557,10.8704051 C14.2771634,10.7313082 14.4494774,10.5756026 14.5864983,10.4032883 C14.7235192,10.230974 14.8262848,10.0441273 14.8947953,9.84274826 C14.9633057,9.64138096 14.997561,9.43273549 14.997561,9.21681185 C14.997561,8.85557491 14.9363165,8.52963099 14.8138284,8.23898084 C14.6913403,7.94833068 14.5013795,7.70231587 14.243946,7.50093641 C13.9865129,7.29955695 13.658493,7.14488992 13.2598868,7.0369338 C12.8612805,6.92897768 12.3837833,6.875 11.8273955,6.875 L8.9375,6.875 L8.9375,15.8125 Z M10.2205139,11.7641551 L12.1138937,11.7641551 C12.7574766,11.7641551 13.2370498,11.8949477 13.5526132,12.1565331 C13.8681767,12.4181185 14.0259582,12.7731272 14.0259582,13.2215592 C14.0259582,13.4499273 13.989627,13.659611 13.9169643,13.8506098 C13.8443244,14.0416085 13.7311782,14.2066564 13.5775261,14.3457535 C13.4239071,14.4848504 13.22668,14.5938443 12.9858449,14.6727352 C12.7450202,14.751626 12.4543697,14.7910714 12.1138937,14.7910714 L10.2205139,14.7910714 L10.2205139,11.7641551 Z M10.2205139,10.8548345 L10.2205139,7.88397213 L11.8273955,7.88397213 C12.4709784,7.88397213 12.9474374,8.00334615 13.2567726,8.24209495 C13.5661079,8.48084375 13.7207753,8.85765124 13.7207753,9.37251742 C13.7207753,9.59673345 13.68133,9.80018886 13.602439,9.98288328 C13.5235697,10.1655777 13.4041953,10.3212833 13.2443162,10.45 C13.0844584,10.5787167 12.8820411,10.6783683 12.6370645,10.7489547 C12.3920878,10.8195411 12.1035132,10.8548345 11.7713415,10.8548345 L10.2205139,10.8548345 Z M23.2935526,6.875 L17.7628906,6.875 L17.7628906,15.8125 L23.2935526,15.8125 L23.2997808,14.7661585 L19.0521327,14.7661585 L19.0521327,11.8077526 L22.4714272,11.8077526 L22.4714272,10.7987805 L19.0521327,10.7987805 L19.0521327,7.92134146 L23.2935526,7.92134146 L23.2935526,6.875 Z M31.776391,6.875 L24.7696402,6.875 L24.7696402,7.95248258 L27.6346227,7.95248258 L27.6346227,15.8125 L28.9176367,15.8125 L28.9176367,7.95248258 L31.776391,7.95248258 L31.776391,6.875 Z M40.2841425,15.8125 L36.7153707,6.875 L35.4136721,6.875 L31.8511286,15.8125 L32.8476442,15.8125 C32.9555979,15.8125 33.0479832,15.7813589 33.1248002,15.7190767 C33.2016149,15.6567944 33.2524787,15.5862079 33.2773916,15.5073171 L34.0808324,13.4084059 L38.0482104,13.4084059 L38.8516512,15.5073171 C38.8890205,15.5986643 38.9429982,15.672365 39.013585,15.728419 C39.0841718,15.784473 39.1755188,15.8125 39.2876268,15.8125 L40.2841425,15.8125 Z M37.6932017,12.4866289 L34.4358411,12.4866289 L35.7873655,8.97391115 C35.8329778,8.86180314 35.8786513,8.73101045 35.9243864,8.5815331 L36.0614073,8.09573171 L36.0614073,8.09573171 C36.1070808,8.27012195 36.1537925,8.43101797 36.2015423,8.57841899 L36.2489461,8.71993794 L36.2489461,8.71993794 L37.6932017,12.4866289 Z" id="BETA" fill="#FFFFFF"></path>
                </g>
            </g>
            <g id="Group-186" transform="translate(0.000000, 22.000000)">
                <path d="M20.4918033,0 C23.6178279,0 26.15997,2.49922047 26.2281057,5.60954422 L26.2295082,5.73770492 C26.2295082,8.86372959 23.7302877,11.4058717 20.619964,11.4740074 L20.4918033,11.4754098 C17.3229564,11.4754098 14.7540984,8.90724859 14.7540984,5.73770492 C14.7540984,2.61168025 17.2533188,0.0695381614 20.3636426,0.00140247766 L20.4918033,0 Z" id="Path" fill="#01B6F5"></path>
                <path d="M35.2459016,0 C38.3719263,0 40.9140684,2.49922047 40.9822041,5.60954422 L40.9836066,5.73770492 C40.9836066,8.86372959 38.4843861,11.4058717 35.3740623,11.4740074 L35.2459016,11.4754098 C32.0770547,11.4754098 29.5081967,8.90724859 29.5081967,5.73770492 C29.5081967,2.61168025 32.0074172,0.0695381614 35.1177409,0.00140247766 L35.2459016,0 Z" id="Path" fill="#01B6F5"></path>
                <path d="M50,0 C53.1260247,0 55.6681668,2.49922047 55.7363024,5.60954422 L55.7377049,5.73770492 C55.7377049,8.86372959 53.2384844,11.4058717 50.1281607,11.4740074 L50,11.4754098 C46.8311531,11.4754098 44.2622951,8.90724859 44.2622951,5.73770492 C44.2622951,2.61168025 46.7615156,0.0695381614 49.8718393,0.00140247766 L50,0 Z M50.0044846,0.409811528 L49.8808151,0.411140241 C46.9884853,0.474500484 44.6721311,2.83932551 44.6721311,5.73770492 C44.6721311,8.63800261 46.988618,10.9963285 49.8681189,11.0641 L49.9955154,11.0655983 L50.1191849,11.0642696 C52.9689804,11.0018411 55.2596162,8.70514028 55.326395,5.86951247 L55.3278934,5.74218953 L55.3265647,5.61852006 C55.2641362,2.76872452 52.9674354,0.478088692 50.1275179,0.411333356 L50.0044846,0.409811528 Z" id="bkgd" fill="#E3E5ED"></path>
                <path d="M64.7540984,0 C67.880123,0 70.4222651,2.49922047 70.4904008,5.60954422 L70.4918033,5.73770492 C70.4918033,8.86372959 67.9925828,11.4058717 64.8822591,11.4740074 L64.7540984,11.4754098 C61.5852514,11.4754098 59.0163934,8.90724859 59.0163934,5.73770492 C59.0163934,2.61168025 61.5156139,0.0695381614 64.6259377,0.00140247766 L64.7540984,0 Z" id="Path" fill="#01B6F5"></path>
                <path d="M79.5081967,0 C82.6342214,0 85.1763635,2.49922047 85.2444992,5.60954422 L85.2459016,5.73770492 C85.2459016,8.86372959 82.7466812,11.4058717 79.6363574,11.4740074 L79.5081967,11.4754098 C76.3393498,11.4754098 73.7704918,8.90724859 73.7704918,5.73770492 C73.7704918,2.61168025 76.2697123,0.0695381614 79.380036,0.00140247766 L79.5081967,0 Z" id="Path" fill="#01B6F5"></path>
                <path d="M5.73770492,0 C8.86372959,0 11.4058717,2.49922047 11.4740074,5.60954422 L11.4754098,5.73770492 C11.4754098,8.86372959 8.97618936,11.4058717 5.86586561,11.4740074 L5.73770492,11.4754098 C2.56885799,11.4754098 0,8.90724859 0,5.73770492 C0,2.61168025 2.49922047,0.0695381614 5.60954422,0.00140247766 L5.73770492,0 Z M5.74218953,0.409811528 L5.61852006,0.411140241 C2.72619026,0.474500484 0.409836066,2.83932551 0.409836066,5.73770492 C0.409836066,8.63800261 2.72632291,10.9963285 5.6058238,11.0641 L5.7332203,11.0655983 L5.85688978,11.0642696 C8.70668532,11.0018411 10.9973211,8.70514028 11.0641,5.86951247 L11.0655983,5.74218953 L11.0642696,5.61852006 C11.0018411,2.76872452 8.70514028,0.478088692 5.86522281,0.411333356 L5.74218953,0.409811528 Z" id="bkgd" fill="#E3E5ED"></path>
                <path d="M94.2622951,0 C97.3883198,0 99.9304618,2.49922047 99.9985975,5.60954422 L100,5.73770492 C100,8.86372959 97.5007795,11.4058717 94.3904558,11.4740074 L94.2622951,11.4754098 C91.0934482,11.4754098 88.5245902,8.90724859 88.5245902,5.73770492 C88.5245902,2.61168025 91.0238106,0.0695381614 94.1341344,0.00140247766 L94.2622951,0 Z M94.2667797,0.409811528 L94.1431102,0.411140241 C91.2507804,0.474500484 88.9344262,2.83932551 88.9344262,5.73770492 C88.9344262,8.63800261 91.2509131,10.9963285 94.130414,11.0641 L94.2578105,11.0655983 L94.3814799,11.0642696 C97.2312755,11.0018411 99.5219113,8.70514028 99.5886901,5.86951247 L99.5901885,5.74218953 L99.5888598,5.61852006 C99.5264313,2.76872452 97.2297304,0.478088692 94.389813,0.411333356 L94.2667797,0.409811528 Z" id="bkgd" fill="#E3E5ED"></path>
                <path d="M19.4241803,7.37704918 L19.4241803,5.65983607 C19.4241803,5.62021858 19.4228142,5.57684426 19.420082,5.52971311 C19.4173497,5.48258197 19.4139344,5.43442623 19.4098361,5.3852459 L19.4098361,5.3852459 L20.2028689,6.92418033 C20.227459,6.97199454 20.2605874,7.00819672 20.3022541,7.03278689 C20.3439208,7.05737705 20.3913934,7.06967213 20.4446721,7.06967213 L20.4446721,7.06967213 L20.5389344,7.06967213 C20.5922131,7.06967213 20.6396858,7.05737705 20.6813525,7.03278689 C20.7230191,7.00819672 20.7561475,6.97199454 20.7807377,6.92418033 L20.7807377,6.92418033 L21.5737705,5.38934426 C21.568306,5.43715847 21.5645492,5.48428962 21.5625,5.5307377 C21.5604508,5.57718579 21.5594262,5.62021858 21.5594262,5.65983607 L21.5594262,5.65983607 L21.5594262,7.37704918 L22.170082,7.37704918 L22.170082,4.39139344 L21.6413934,4.39139344 C21.6113388,4.39139344 21.585041,4.3920765 21.5625,4.39344262 C21.539959,4.39480874 21.5198087,4.3989071 21.5020492,4.4057377 C21.4842896,4.41256831 21.4682377,4.42315574 21.4538934,4.4375 C21.4395492,4.45184426 21.4255464,4.47199454 21.4118852,4.49795082 L21.4118852,4.49795082 L20.6454918,6.00614754 C20.6168033,6.05806011 20.5898224,6.11270492 20.5645492,6.17008197 C20.539276,6.22745902 20.5150273,6.28620219 20.4918033,6.34631148 C20.4685792,6.28756831 20.4443306,6.23019126 20.4190574,6.17418033 C20.3937842,6.1181694 20.3674863,6.06420765 20.3401639,6.01229508 L20.3401639,6.01229508 L19.5717213,4.49795082 C19.5580601,4.47199454 19.5440574,4.45184426 19.5297131,4.4375 C19.5153689,4.42315574 19.4993169,4.41256831 19.4815574,4.4057377 C19.4637978,4.3989071 19.4436475,4.39480874 19.4211066,4.39344262 C19.3985656,4.3920765 19.3722678,4.39139344 19.3422131,4.39139344 L19.3422131,4.39139344 L18.8135246,4.39139344 L18.8135246,7.37704918 L19.4241803,7.37704918 Z" id="M" fill="#FFFFFF"></path>
                <polygon id="T" fill="#FFFFFF" points="35.5922131 7.37704918 35.5922131 4.94057377 36.432377 4.94057377 36.432377 4.39139344 34.0594262 4.39139344 34.0594262 4.94057377 34.8995902 4.94057377 34.8995902 7.37704918"></polygon>
                <path d="M49.375,7.37704918 L49.9446721,5.52663934 C49.9556011,5.49795082 49.965847,5.46618852 49.9754098,5.43135246 C49.9849727,5.39651639 49.9945355,5.35997268 50.0040984,5.32172131 C50.0136612,5.35997268 50.023224,5.39651639 50.0327869,5.43135246 C50.0423497,5.46618852 50.0525956,5.49795082 50.0635246,5.52663934 L50.0635246,5.52663934 L50.625,7.37704918 L51.2520492,7.37704918 L52.1741803,4.39139344 L51.6290984,4.39139344 C51.5717213,4.39139344 51.522541,4.40642077 51.4815574,4.43647541 C51.4405738,4.46653005 51.4146175,4.50136612 51.4036885,4.54098361 L51.4036885,4.54098361 L50.9938525,6.09836066 C50.9815574,6.14617486 50.9696038,6.19706284 50.9579918,6.25102459 C50.9463798,6.30498634 50.9351093,6.36270492 50.9241803,6.42418033 C50.8995902,6.30259563 50.8695355,6.19398907 50.8340164,6.09836066 L50.8340164,6.09836066 L50.3545082,4.54098361 C50.3353825,4.49726776 50.307377,4.4614071 50.2704918,4.43340164 C50.2336066,4.40539617 50.1851093,4.39139344 50.125,4.39139344 L50.125,4.39139344 L49.920082,4.39139344 C49.8627049,4.39139344 49.8138661,4.4067623 49.7735656,4.4375 C49.733265,4.4682377 49.7069672,4.50273224 49.6946721,4.54098361 L49.6946721,4.54098361 L49.2110656,6.09836066 C49.1755464,6.19808743 49.1454918,6.31215847 49.1209016,6.44057377 C49.1086066,6.37773224 49.0963115,6.31728142 49.0840164,6.25922131 C49.0717213,6.2011612 49.0594262,6.14754098 49.0471311,6.09836066 L49.0471311,6.09836066 L48.6372951,4.54098361 C48.625,4.49590164 48.5987022,4.45969945 48.5584016,4.43237705 C48.5181011,4.40505464 48.4678962,4.39139344 48.4077869,4.39139344 L48.4077869,4.39139344 L47.8258197,4.39139344 L48.7479508,7.37704918 L49.375,7.37704918 Z" id="W" fill="#A1A9B1"></path>
                <polygon id="T" fill="#FFFFFF" points="65.1004098 7.37704918 65.1004098 4.94057377 65.9405738 4.94057377 65.9405738 4.39139344 63.567623 4.39139344 63.567623 4.94057377 64.4077869 4.94057377 64.4077869 7.37704918"></polygon>
                <polygon id="F" fill="#FFFFFF" points="79.3329918 7.37704918 79.3329918 6.21516393 80.3534836 6.21516393 80.3534836 5.68032787 79.3329918 5.68032787 79.3329918 4.92418033 80.5584016 4.92418033 80.5584016 4.39139344 78.6362705 4.39139344 78.6362705 7.37704918"></polygon>
                <path d="M5.68442623,7.40983607 C5.85382514,7.40983607 6.00512295,7.38422131 6.13831967,7.3329918 C6.27151639,7.2817623 6.38353825,7.2114071 6.47438525,7.12192623 C6.56523224,7.03244536 6.63456284,6.92759563 6.68237705,6.80737705 C6.73019126,6.68715847 6.75409836,6.55806011 6.75409836,6.42008197 C6.75409836,6.29576503 6.73497268,6.18954918 6.69672131,6.10143443 C6.65846995,6.01331967 6.60826503,5.93852459 6.54610656,5.87704918 C6.48394809,5.81557377 6.41290984,5.76502732 6.3329918,5.72540984 C6.25307377,5.68579235 6.17144809,5.65129781 6.08811475,5.62192623 C6.00478142,5.59255464 5.92315574,5.5659153 5.8432377,5.5420082 C5.76331967,5.51810109 5.69228142,5.49180328 5.63012295,5.46311475 C5.56796448,5.43442623 5.51775956,5.40027322 5.4795082,5.36065574 C5.44125683,5.32103825 5.42213115,5.27117486 5.42213115,5.21106557 C5.42213115,5.11680328 5.45389344,5.0420082 5.51741803,4.98668033 C5.58094262,4.93135246 5.67759563,4.90368852 5.80737705,4.90368852 C5.88251366,4.90368852 5.94945355,4.9135929 6.00819672,4.93340164 C6.06693989,4.95321038 6.11919399,4.97540984 6.16495902,5 C6.21072404,5.02459016 6.25170765,5.04678962 6.28790984,5.06659836 C6.32411202,5.0864071 6.3579235,5.09631148 6.38934426,5.09631148 C6.42486339,5.09631148 6.45389344,5.08811475 6.47643443,5.07172131 C6.49897541,5.05532787 6.5204918,5.0307377 6.54098361,4.99795082 L6.54098361,4.99795082 L6.71311475,4.67622951 C6.65983607,4.62704918 6.59938525,4.5829918 6.5317623,4.54405738 C6.46413934,4.50512295 6.39139344,4.47165301 6.31352459,4.44364754 C6.23565574,4.41564208 6.15334699,4.39446721 6.06659836,4.38012295 C5.97984973,4.36577869 5.89071038,4.35860656 5.79918033,4.35860656 C5.6352459,4.35860656 5.4897541,4.38353825 5.36270492,4.43340164 C5.23565574,4.48326503 5.1284153,4.54986339 5.04098361,4.63319672 C4.95355191,4.71653005 4.88729508,4.81147541 4.84221311,4.91803279 C4.79713115,5.02459016 4.77459016,5.13387978 4.77459016,5.24590164 C4.77459016,5.3852459 4.79371585,5.50239071 4.83196721,5.59733607 C4.87021858,5.69228142 4.9204235,5.77151639 4.98258197,5.83504098 C5.04474044,5.89856557 5.11543716,5.94979508 5.19467213,5.98872951 C5.2739071,6.02766393 5.35519126,6.06045082 5.43852459,6.08709016 C5.52185792,6.11372951 5.60314208,6.13797814 5.68237705,6.15983607 C5.76161202,6.18169399 5.83230874,6.20696721 5.89446721,6.23565574 C5.95662568,6.26434426 6.0068306,6.30054645 6.04508197,6.3442623 C6.08333333,6.38797814 6.10245902,6.44467213 6.10245902,6.51434426 C6.10245902,6.63456284 6.06762295,6.72233607 5.99795082,6.77766393 C5.92827869,6.8329918 5.83060109,6.86065574 5.70491803,6.86065574 C5.61202186,6.86065574 5.53142077,6.8476776 5.46311475,6.82172131 C5.39480874,6.79576503 5.33435792,6.7670765 5.2817623,6.73565574 C5.22916667,6.70423497 5.18203552,6.67554645 5.14036885,6.64959016 C5.09870219,6.62363388 5.05737705,6.61065574 5.01639344,6.61065574 C4.98497268,6.61065574 4.95594262,6.61851093 4.92930328,6.63422131 C4.90266393,6.64993169 4.88114754,6.66939891 4.8647541,6.69262295 L4.8647541,6.69262295 L4.65983607,7.01639344 C4.71857923,7.07513661 4.78756831,7.1284153 4.86680328,7.17622951 C4.94603825,7.22404372 5.0307377,7.26536885 5.12090164,7.30020492 C5.21106557,7.33504098 5.30430328,7.36202186 5.40061475,7.38114754 C5.49692623,7.40027322 5.59153005,7.40983607 5.68442623,7.40983607 Z" id="S" fill-opacity="0.555561626" fill="#576574"></path>
                <path d="M94.2090164,7.40983607 C94.3784153,7.40983607 94.5297131,7.38422131 94.6629098,7.3329918 C94.7961066,7.2817623 94.9081284,7.2114071 94.9989754,7.12192623 C95.0898224,7.03244536 95.159153,6.92759563 95.2069672,6.80737705 C95.2547814,6.68715847 95.2786885,6.55806011 95.2786885,6.42008197 C95.2786885,6.29576503 95.2595628,6.18954918 95.2213115,6.10143443 C95.1830601,6.01331967 95.1328552,5.93852459 95.0706967,5.87704918 C95.0085383,5.81557377 94.9375,5.76502732 94.857582,5.72540984 C94.7776639,5.68579235 94.6960383,5.65129781 94.6127049,5.62192623 C94.5293716,5.59255464 94.4477459,5.5659153 94.3678279,5.5420082 C94.2879098,5.51810109 94.2168716,5.49180328 94.1547131,5.46311475 C94.0925546,5.43442623 94.0423497,5.40027322 94.0040984,5.36065574 C93.965847,5.32103825 93.9467213,5.27117486 93.9467213,5.21106557 C93.9467213,5.11680328 93.9784836,5.0420082 94.0420082,4.98668033 C94.1055328,4.93135246 94.2021858,4.90368852 94.3319672,4.90368852 C94.4071038,4.90368852 94.4740437,4.9135929 94.5327869,4.93340164 C94.5915301,4.95321038 94.6437842,4.97540984 94.6895492,5 C94.7353142,5.02459016 94.7762978,5.04678962 94.8125,5.06659836 C94.8487022,5.0864071 94.8825137,5.09631148 94.9139344,5.09631148 C94.9494536,5.09631148 94.9784836,5.08811475 95.0010246,5.07172131 C95.0235656,5.05532787 95.045082,5.0307377 95.0655738,4.99795082 L95.0655738,4.99795082 L95.2377049,4.67622951 C95.1844262,4.62704918 95.1239754,4.5829918 95.0563525,4.54405738 C94.9887295,4.50512295 94.9159836,4.47165301 94.8381148,4.44364754 C94.7602459,4.41564208 94.6779372,4.39446721 94.5911885,4.38012295 C94.5044399,4.36577869 94.4153005,4.35860656 94.3237705,4.35860656 C94.1598361,4.35860656 94.0143443,4.38353825 93.8872951,4.43340164 C93.7602459,4.48326503 93.6530055,4.54986339 93.5655738,4.63319672 C93.4781421,4.71653005 93.4118852,4.81147541 93.3668033,4.91803279 C93.3217213,5.02459016 93.2991803,5.13387978 93.2991803,5.24590164 C93.2991803,5.3852459 93.318306,5.50239071 93.3565574,5.59733607 C93.3948087,5.69228142 93.4450137,5.77151639 93.5071721,5.83504098 C93.5693306,5.89856557 93.6400273,5.94979508 93.7192623,5.98872951 C93.7984973,6.02766393 93.8797814,6.06045082 93.9631148,6.08709016 C94.0464481,6.11372951 94.1277322,6.13797814 94.2069672,6.15983607 C94.2862022,6.18169399 94.3568989,6.20696721 94.4190574,6.23565574 C94.4812158,6.26434426 94.5314208,6.30054645 94.5696721,6.3442623 C94.6079235,6.38797814 94.6270492,6.44467213 94.6270492,6.51434426 C94.6270492,6.63456284 94.5922131,6.72233607 94.522541,6.77766393 C94.4528689,6.8329918 94.3551913,6.86065574 94.2295082,6.86065574 C94.136612,6.86065574 94.0560109,6.8476776 93.9877049,6.82172131 C93.9193989,6.79576503 93.8589481,6.7670765 93.8063525,6.73565574 C93.7537568,6.70423497 93.7066257,6.67554645 93.664959,6.64959016 C93.6232923,6.62363388 93.5819672,6.61065574 93.5409836,6.61065574 C93.5095628,6.61065574 93.4805328,6.61851093 93.4538934,6.63422131 C93.4272541,6.64993169 93.4057377,6.66939891 93.3893443,6.69262295 L93.3893443,6.69262295 L93.1844262,7.01639344 C93.2431694,7.07513661 93.3121585,7.1284153 93.3913934,7.17622951 C93.4706284,7.22404372 93.5553279,7.26536885 93.6454918,7.30020492 C93.7356557,7.33504098 93.8288934,7.36202186 93.9252049,7.38114754 C94.0215164,7.40027322 94.1161202,7.40983607 94.2090164,7.40983607 Z" id="S" fill-opacity="0.555561626" fill="#576574"></path>
            </g>
            <g id="Group-186-Copy" transform="translate(10.000000, 58.000000)">
                <path d="M49.3442623,0 C53.7206968,0 57.2796958,3.49890866 57.3750857,7.85336191 L57.3770492,8.03278689 C57.3770492,12.4092214 53.8781405,15.9682203 49.5236873,16.0636103 L49.3442623,16.0655738 C44.9078766,16.0655738 41.3114754,12.470148 41.3114754,8.03278689 C41.3114754,3.65635235 44.8103841,0.097353426 49.1648373,0.00196346872 L49.3442623,0 Z" id="Path" fill="#01B6F5"></path>
                <path d="M70,0 C74.3764345,0 77.9354335,3.49890866 78.0308234,7.85336191 L78.0327869,8.03278689 C78.0327869,12.4092214 74.5338782,15.9682203 70.179425,16.0636103 L70,16.0655738 C65.5636143,16.0655738 61.9672131,12.470148 61.9672131,8.03278689 C61.9672131,3.65635235 65.4661218,0.097353426 69.820575,0.00196346872 L70,0 Z" id="Path" fill="#01B6F5"></path>
                <path d="M90.6557377,0 C95.0321722,0 98.5911712,3.49890866 98.6865611,7.85336191 L98.6885246,8.03278689 C98.6885246,12.4092214 95.1896159,15.9682203 90.8351627,16.0636103 L90.6557377,16.0655738 C86.219352,16.0655738 82.6229508,12.470148 82.6229508,8.03278689 C82.6229508,3.65635235 86.1218595,0.097353426 90.4763127,0.00196346872 L90.6557377,0 Z" id="Path" fill="#01B6F5"></path>
                <path d="M111.311475,0 C115.68791,0 119.246909,3.49890866 119.342299,7.85336191 L119.344262,8.03278689 C119.344262,12.4092214 115.845354,15.9682203 111.4909,16.0636103 L111.311475,16.0655738 C106.87509,16.0655738 103.278689,12.470148 103.278689,8.03278689 C103.278689,3.65635235 106.777597,0.097353426 111.13205,0.00196346872 L111.311475,0 Z" id="Path" fill="#01B6F5"></path>
                <path d="M8.03278689,5.21212703e-13 C12.4092214,5.21212703e-13 15.9682203,3.49890866 16.0636103,7.85336191 L16.0655738,8.03278689 C16.0655738,12.4092214 12.5666651,15.9682203 8.21221186,16.0636103 L8.03278689,16.0655738 C3.59640119,16.0655738 -8.28966525e-15,12.470148 -8.28966525e-15,8.03278689 C-8.28966525e-15,3.65635235 3.49890866,0.097353426 7.85336191,0.00196346872 L8.03278689,5.21212703e-13 Z M8.03906535,0.57373614 L7.86592808,0.575596338 C3.81666636,0.664300678 0.573770492,3.97505571 0.573770492,8.03278689 C0.573770492,12.0932037 3.81685208,15.3948598 7.84815332,15.48974 L8.02650842,15.4918376 L8.19964569,15.4899774 C12.1893594,15.4025776 15.3962496,12.1871964 15.4897399,8.21731746 L15.4918376,8.03906535 L15.4899774,7.86592808 C15.4025776,3.87621432 12.1871964,0.669324169 8.21131194,0.575866698 L8.03906535,0.57373614 Z" id="bkgd" fill="#E3E5ED"></path>
                <path d="M28.7411202,5.21212703e-13 C33.1175548,5.21212703e-13 36.6765537,3.49890866 36.7719436,7.85336191 L36.7739071,8.03278689 C36.7739071,12.4092214 33.2749984,15.9682203 28.9205452,16.0636103 L28.7411202,16.0655738 C24.3047345,16.0655738 20.7083333,12.470148 20.7083333,8.03278689 C20.7083333,3.65635235 24.207242,0.097353426 28.5616952,0.00196346872 L28.7411202,5.21212703e-13 Z M28.7473987,0.57373614 L28.5742614,0.575596338 C24.5249997,0.664300678 21.2821038,3.97505571 21.2821038,8.03278689 C21.2821038,12.0932037 24.5251854,15.3948598 28.5564867,15.48974 L28.7348418,15.4918376 L28.907979,15.4899774 C32.8976928,15.4025776 36.1045829,12.1871964 36.1980733,8.21731746 L36.200171,8.03906535 L36.1983108,7.86592808 C36.1109109,3.87621432 32.8955297,0.669324169 28.9196453,0.575866698 L28.7473987,0.57373614 Z" id="bkgd-copy" fill="#E3E5ED"></path>
                <path d="M131.967213,0 C136.343648,0 139.902647,3.49890866 139.998037,7.85336191 L140,8.03278689 C140,12.4092214 136.501091,15.9682203 132.146638,16.0636103 L131.967213,16.0655738 C127.530827,16.0655738 123.934426,12.470148 123.934426,8.03278689 C123.934426,3.65635235 127.433335,0.097353426 131.787788,0.00196346872 L131.967213,0 Z M131.973492,0.57373614 L131.800354,0.575596338 C127.751093,0.664300678 124.508197,3.97505571 124.508197,8.03278689 C124.508197,12.0932037 127.751278,15.3948598 131.78258,15.48974 L131.960935,15.4918376 L132.134072,15.4899774 C136.123786,15.4025776 139.330676,12.1871964 139.424166,8.21731746 L139.426264,8.03906535 L139.424404,7.86592808 C139.337004,3.87621432 136.121623,0.669324169 132.145738,0.575866698 L131.973492,0.57373614 Z" id="bkgd" fill="#E3E5ED"></path>
                <path d="M27.1938525,10.3278689 L27.1938525,7.92377049 C27.1938525,7.86830601 27.1919399,7.80758197 27.1881148,7.74159836 C27.1842896,7.67561475 27.1795082,7.60819672 27.1737705,7.53934426 L27.1737705,7.53934426 L28.2840164,9.69385246 C28.3184426,9.76079235 28.3648224,9.81147541 28.4231557,9.84590164 C28.4814891,9.88032787 28.5479508,9.89754098 28.622541,9.89754098 L28.622541,9.89754098 L28.7545082,9.89754098 C28.8290984,9.89754098 28.8955601,9.88032787 28.9538934,9.84590164 C29.0122268,9.81147541 29.0586066,9.76079235 29.0930328,9.69385246 L29.0930328,9.69385246 L30.2032787,7.54508197 C30.1956284,7.61202186 30.1903689,7.67800546 30.1875,7.74303279 C30.1846311,7.80806011 30.1831967,7.86830601 30.1831967,7.92377049 L30.1831967,7.92377049 L30.1831967,10.3278689 L31.0381148,10.3278689 L31.0381148,6.14795082 L30.2979508,6.14795082 C30.2558743,6.14795082 30.2190574,6.1489071 30.1875,6.15081967 C30.1559426,6.15273224 30.1277322,6.15846995 30.1028689,6.16803279 C30.0780055,6.17759563 30.0555328,6.19241803 30.0354508,6.2125 C30.0153689,6.23258197 29.995765,6.26079235 29.9766393,6.29713115 L29.9766393,6.29713115 L28.9036885,8.40860656 C28.8635246,8.48128415 28.8257514,8.55778689 28.7903689,8.63811475 C28.7549863,8.71844262 28.7210383,8.80068306 28.6885246,8.88483607 C28.6560109,8.80259563 28.6220628,8.72226776 28.5866803,8.64385246 C28.5512978,8.56543716 28.5144809,8.48989071 28.4762295,8.41721311 L28.4762295,8.41721311 L27.4004098,6.29713115 C27.3812842,6.26079235 27.3616803,6.23258197 27.3415984,6.2125 C27.3215164,6.19241803 27.2990437,6.17759563 27.2741803,6.16803279 C27.2493169,6.15846995 27.2211066,6.15273224 27.1895492,6.15081967 C27.1579918,6.1489071 27.1211749,6.14795082 27.0790984,6.14795082 L27.0790984,6.14795082 L26.3389344,6.14795082 L26.3389344,10.3278689 L27.1938525,10.3278689 Z" id="M" fill="#9EA6AE"></path>
                <polygon id="T" fill="#FFFFFF" points="49.8290984 10.3278689 49.8290984 6.91680328 51.0053279 6.91680328 51.0053279 6.14795082 47.6831967 6.14795082 47.6831967 6.91680328 48.8594262 6.91680328 48.8594262 10.3278689"></polygon>
                <path d="M69.125,10.3278689 L69.922541,7.73729508 C69.9378415,7.69713115 69.9521858,7.65266393 69.9655738,7.60389344 C69.9789617,7.55512295 69.9923497,7.50396175 70.0057377,7.45040984 C70.0191257,7.50396175 70.0325137,7.55512295 70.0459016,7.60389344 C70.0592896,7.65266393 70.0736339,7.69713115 70.0889344,7.73729508 L70.0889344,7.73729508 L70.875,10.3278689 L71.7528689,10.3278689 L73.0438525,6.14795082 L72.2807377,6.14795082 C72.2004098,6.14795082 72.1315574,6.16898907 72.0741803,6.21106557 C72.0168033,6.25314208 71.9804645,6.30191257 71.9651639,6.35737705 L71.9651639,6.35737705 L71.3913934,8.53770492 C71.3741803,8.60464481 71.3574454,8.67588798 71.3411885,8.75143443 C71.3249317,8.82698087 71.309153,8.90778689 71.2938525,8.99385246 C71.2594262,8.82363388 71.2173497,8.6715847 71.167623,8.53770492 L71.167623,8.53770492 L70.4963115,6.35737705 C70.4695355,6.29617486 70.4303279,6.24596995 70.3786885,6.2067623 C70.3270492,6.16755464 70.259153,6.14795082 70.175,6.14795082 L70.175,6.14795082 L69.8881148,6.14795082 C69.8077869,6.14795082 69.7394126,6.16946721 69.6829918,6.2125 C69.626571,6.25553279 69.5897541,6.30382514 69.572541,6.35737705 L69.572541,6.35737705 L68.8954918,8.53770492 C68.845765,8.6773224 68.8036885,8.83702186 68.7692623,9.01680328 C68.7520492,8.92882514 68.7348361,8.84419399 68.717623,8.76290984 C68.7004098,8.68162568 68.6831967,8.60655738 68.6659836,8.53770492 L68.6659836,8.53770492 L68.0922131,6.35737705 C68.075,6.2942623 68.0381831,6.24357923 67.9817623,6.20532787 C67.9253415,6.1670765 67.8550546,6.14795082 67.7709016,6.14795082 L67.7709016,6.14795082 L66.9561475,6.14795082 L68.2471311,10.3278689 L69.125,10.3278689 Z" id="W" fill="#FFFFFF"></path>
                <polygon id="T" fill="#FFFFFF" points="91.1405738 10.3278689 91.1405738 6.91680328 92.3168033 6.91680328 92.3168033 6.14795082 88.9946721 6.14795082 88.9946721 6.91680328 90.1709016 6.91680328 90.1709016 10.3278689"></polygon>
                <polygon id="F" fill="#FFFFFF" points="111.066189 10.3278689 111.066189 8.70122951 112.494877 8.70122951 112.494877 7.95245902 111.066189 7.95245902 111.066189 6.89385246 112.781762 6.89385246 112.781762 6.14795082 110.090779 6.14795082 110.090779 10.3278689"></polygon>
                <path d="M7.95819672,10.3737705 C8.19535519,10.3737705 8.40717213,10.3379098 8.59364754,10.2661885 C8.78012295,10.1944672 8.93695355,10.0959699 9.06413934,9.97069672 C9.19132514,9.8454235 9.28838798,9.69863388 9.35532787,9.53032787 C9.42226776,9.36202186 9.4557377,9.18128415 9.4557377,8.98811475 C9.4557377,8.81407104 9.42896175,8.66536885 9.37540984,8.5420082 C9.32185792,8.41864754 9.25157104,8.31393443 9.16454918,8.22786885 C9.07752732,8.14180328 8.97807377,8.07103825 8.86618852,8.01557377 C8.75430328,7.96010929 8.64002732,7.91181694 8.52336066,7.87069672 C8.40669399,7.8295765 8.29241803,7.79228142 8.18053279,7.75881148 C8.06864754,7.72534153 7.96919399,7.68852459 7.88217213,7.64836066 C7.79515027,7.60819672 7.72486339,7.56038251 7.67131148,7.50491803 C7.61775956,7.44945355 7.59098361,7.37964481 7.59098361,7.2954918 C7.59098361,7.16352459 7.63545082,7.05881148 7.72438525,6.98135246 C7.81331967,6.90389344 7.94863388,6.86516393 8.13032787,6.86516393 C8.23551913,6.86516393 8.32923497,6.87903005 8.41147541,6.9067623 C8.49371585,6.93449454 8.56687158,6.96557377 8.63094262,7 C8.69501366,7.03442623 8.75239071,7.06550546 8.80307377,7.0932377 C8.85375683,7.12096995 8.9010929,7.13483607 8.94508197,7.13483607 C8.99480874,7.13483607 9.03545082,7.12336066 9.0670082,7.10040984 C9.09856557,7.07745902 9.12868852,7.04303279 9.15737705,6.99713115 L9.15737705,6.99713115 L9.39836066,6.54672131 C9.32377049,6.47786885 9.23913934,6.41618852 9.14446721,6.36168033 C9.04979508,6.30717213 8.94795082,6.26031421 8.83893443,6.22110656 C8.72991803,6.18189891 8.61468579,6.1522541 8.4932377,6.13217213 C8.37178962,6.11209016 8.24699454,6.10204918 8.11885246,6.10204918 C7.88934426,6.10204918 7.68565574,6.13695355 7.50778689,6.2067623 C7.32991803,6.27657104 7.17978142,6.36980874 7.05737705,6.48647541 C6.93497268,6.60314208 6.84221311,6.73606557 6.77909836,6.8852459 C6.71598361,7.03442623 6.68442623,7.18743169 6.68442623,7.3442623 C6.68442623,7.53934426 6.71120219,7.70334699 6.7647541,7.83627049 C6.81830601,7.96919399 6.8885929,8.08012295 6.97561475,8.16905738 C7.06263661,8.2579918 7.16161202,8.32971311 7.27254098,8.38422131 C7.38346995,8.43872951 7.49726776,8.48463115 7.61393443,8.52192623 C7.73060109,8.55922131 7.84439891,8.5931694 7.95532787,8.62377049 C8.06625683,8.65437158 8.16523224,8.6897541 8.2522541,8.72991803 C8.33927596,8.77008197 8.40956284,8.82076503 8.46311475,8.88196721 C8.51666667,8.9431694 8.54344262,9.02254098 8.54344262,9.12008197 C8.54344262,9.28838798 8.49467213,9.41127049 8.39713115,9.48872951 C8.29959016,9.56618852 8.16284153,9.60491803 7.98688525,9.60491803 C7.8568306,9.60491803 7.74398907,9.58674863 7.64836066,9.55040984 C7.55273224,9.51407104 7.46810109,9.4739071 7.39446721,9.42991803 C7.32083333,9.38592896 7.25484973,9.34576503 7.19651639,9.30942623 C7.13818306,9.27308743 7.08032787,9.25491803 7.02295082,9.25491803 C6.97896175,9.25491803 6.93831967,9.2659153 6.90102459,9.28790984 C6.86372951,9.30990437 6.83360656,9.33715847 6.81065574,9.36967213 L6.81065574,9.36967213 L6.52377049,9.82295082 C6.60601093,9.90519126 6.70259563,9.97978142 6.81352459,10.0467213 C6.92445355,10.1136612 7.04303279,10.1715164 7.1692623,10.2202869 C7.2954918,10.2690574 7.42602459,10.3068306 7.56086066,10.3336066 C7.69569672,10.3603825 7.82814208,10.3737705 7.95819672,10.3737705 Z" id="S" fill-opacity="0.555561626" fill="#576574"></path>
                <path d="M131.892623,10.3737705 C132.129781,10.3737705 132.341598,10.3379098 132.528074,10.2661885 C132.714549,10.1944672 132.87138,10.0959699 132.998566,9.97069672 C133.125751,9.8454235 133.222814,9.69863388 133.289754,9.53032787 C133.356694,9.36202186 133.390164,9.18128415 133.390164,8.98811475 C133.390164,8.81407104 133.363388,8.66536885 133.309836,8.5420082 C133.256284,8.41864754 133.185997,8.31393443 133.098975,8.22786885 C133.011954,8.14180328 132.9125,8.07103825 132.800615,8.01557377 C132.68873,7.96010929 132.574454,7.91181694 132.457787,7.87069672 C132.34112,7.8295765 132.226844,7.79228142 132.114959,7.75881148 C132.003074,7.72534153 131.90362,7.68852459 131.816598,7.64836066 C131.729577,7.60819672 131.65929,7.56038251 131.605738,7.50491803 C131.552186,7.44945355 131.52541,7.37964481 131.52541,7.2954918 C131.52541,7.16352459 131.569877,7.05881148 131.658811,6.98135246 C131.747746,6.90389344 131.88306,6.86516393 132.064754,6.86516393 C132.169945,6.86516393 132.263661,6.87903005 132.345902,6.9067623 C132.428142,6.93449454 132.501298,6.96557377 132.565369,7 C132.62944,7.03442623 132.686817,7.06550546 132.7375,7.0932377 C132.788183,7.12096995 132.835519,7.13483607 132.879508,7.13483607 C132.929235,7.13483607 132.969877,7.12336066 133.001434,7.10040984 C133.032992,7.07745902 133.063115,7.04303279 133.091803,6.99713115 L133.091803,6.99713115 L133.332787,6.54672131 C133.258197,6.47786885 133.173566,6.41618852 133.078893,6.36168033 C132.984221,6.30717213 132.882377,6.26031421 132.773361,6.22110656 C132.664344,6.18189891 132.549112,6.1522541 132.427664,6.13217213 C132.306216,6.11209016 132.181421,6.10204918 132.053279,6.10204918 C131.82377,6.10204918 131.620082,6.13695355 131.442213,6.2067623 C131.264344,6.27657104 131.114208,6.36980874 130.991803,6.48647541 C130.869399,6.60314208 130.776639,6.73606557 130.713525,6.8852459 C130.65041,7.03442623 130.618852,7.18743169 130.618852,7.3442623 C130.618852,7.53934426 130.645628,7.70334699 130.69918,7.83627049 C130.752732,7.96919399 130.823019,8.08012295 130.910041,8.16905738 C130.997063,8.2579918 131.096038,8.32971311 131.206967,8.38422131 C131.317896,8.43872951 131.431694,8.48463115 131.548361,8.52192623 C131.665027,8.55922131 131.778825,8.5931694 131.889754,8.62377049 C132.000683,8.65437158 132.099658,8.6897541 132.18668,8.72991803 C132.273702,8.77008197 132.343989,8.82076503 132.397541,8.88196721 C132.451093,8.9431694 132.477869,9.02254098 132.477869,9.12008197 C132.477869,9.28838798 132.429098,9.41127049 132.331557,9.48872951 C132.234016,9.56618852 132.097268,9.60491803 131.921311,9.60491803 C131.791257,9.60491803 131.678415,9.58674863 131.582787,9.55040984 C131.487158,9.51407104 131.402527,9.4739071 131.328893,9.42991803 C131.25526,9.38592896 131.189276,9.34576503 131.130943,9.30942623 C131.072609,9.27308743 131.014754,9.25491803 130.957377,9.25491803 C130.913388,9.25491803 130.872746,9.2659153 130.835451,9.28790984 C130.798156,9.30990437 130.768033,9.33715847 130.745082,9.36967213 L130.745082,9.36967213 L130.458197,9.82295082 C130.540437,9.90519126 130.637022,9.97978142 130.747951,10.0467213 C130.85888,10.1136612 130.977459,10.1715164 131.103689,10.2202869 C131.229918,10.2690574 131.360451,10.3068306 131.495287,10.3336066 C131.630123,10.3603825 131.762568,10.3737705 131.892623,10.3737705 Z" id="S" fill-opacity="0.555561626" fill="#576574"></path>
            </g>
        </g>
    </g>
</svg>