<?xml version="1.0" encoding="UTF-8"?>
<svg width="150px" height="74px" viewBox="0 0 150 74" version="1.1" xmlns="http://www.w3.org/2000/svg" xmlns:xlink="http://www.w3.org/1999/xlink">
    <!-- Generator: Sketch 64 (93537) - https://sketch.com -->
    <title>WeeklyCalendar</title>
    <desc>Created with Sketch.</desc>
    <g id="pages" stroke="none" stroke-width="1" fill="none" fill-rule="evenodd">
        <g id="WeeklyCalendar">
            <g id="Group-185" transform="translate(0.000000, 5.000000)">
                <path d="M6.36363636,6.31140734 C5.92431895,6.31140734 5.56818182,5.88404279 5.56818182,5.35686189 C5.56818182,4.82968099 5.92431895,4.40231643 6.36363636,4.40231643 L9.14772727,4.40231643 C9.58704469,4.40231643 9.94318182,4.82968099 9.94318182,5.35686189 C9.94318182,5.88404279 9.58704469,6.31140734 9.14772727,6.31140734 L6.36363636,6.31140734 Z" id="Path" fill="#202020" fill-rule="nonzero"></path>
                <path d="M6.36363636,23.0159528 C5.92431895,23.0159528 5.56818182,22.5885882 5.56818182,22.0614073 C5.56818182,21.5342264 5.92431895,21.1068619 6.36363636,21.1068619 L9.14772727,21.1068619 C9.58704469,21.1068619 9.94318182,21.5342264 9.94318182,22.0614073 C9.94318182,22.5885882 9.58704469,23.0159528 9.14772727,23.0159528 L6.36363636,23.0159528 Z" id="Path-Copy-26" fill="#202020" fill-rule="nonzero"></path>
                <path d="M6.36363636,34.947771 C5.92431895,34.947771 5.56818182,34.5204064 5.56818182,33.9932255 C5.56818182,33.4660446 5.92431895,33.0386801 6.36363636,33.0386801 L9.14772727,33.0386801 C9.58704469,33.0386801 9.94318182,33.4660446 9.94318182,33.9932255 C9.94318182,34.5204064 9.58704469,34.947771 9.14772727,34.947771 L6.36363636,34.947771 Z" id="Path-Copy-28" fill="#202020" fill-rule="nonzero"></path>
                <path d="M6.36363636,57.8439685 C5.92431895,57.8439685 5.56818182,57.416604 5.56818182,56.8894231 C5.56818182,56.3622422 5.92431895,55.9348776 6.36363636,55.9348776 L9.14772727,55.9348776 C9.58704469,55.9348776 9.94318182,56.3622422 9.94318182,56.8894231 C9.94318182,57.416604 9.58704469,57.8439685 9.14772727,57.8439685 L6.36363636,57.8439685 Z" id="Path-Copy-34" fill="#202020" fill-rule="nonzero"></path>
                <path d="M6.36363636,68.9803322 C5.92431895,68.9803322 5.56818182,68.5529676 5.56818182,68.0257867 C5.56818182,67.4986058 5.92431895,67.0712413 6.36363636,67.0712413 L9.14772727,67.0712413 C9.58704469,67.0712413 9.94318182,67.4986058 9.94318182,68.0257867 C9.94318182,68.5529676 9.58704469,68.9803322 9.14772727,68.9803322 L6.36363636,68.9803322 Z" id="Path-Copy-35" fill="#202020" fill-rule="nonzero"></path>
                <path d="M1.32575758,50.3666958 C0.593561885,50.3666958 -7.34765784e-14,49.6544215 -7.34765784e-14,48.7757867 C-7.34765784e-14,47.8971519 0.593561885,47.1848776 1.32575758,47.1848776 L8.61742424,47.1848776 C9.34961993,47.1848776 9.94318182,47.8971519 9.94318182,48.7757867 C9.94318182,49.6544215 9.34961993,50.3666958 8.61742424,50.3666958 L1.32575758,50.3666958 Z" id="Path-Copy-31" fill="#DE5051" fill-rule="nonzero"></path>
                <g id="Group-191" transform="translate(15.198864, 34.087194)">
                    <path d="M0.327797203,-5.42596271e-13 L25.895979,-5.42596271e-13 C27.3442782,-5.43750498e-13 28.5183566,1.17407845 28.5183566,2.62237762 C28.5183566,4.07067679 27.3442782,5.24475524 25.895979,5.24475524 L0.327797203,5.24475524 L0.327797203,5.24475524 L0.327797203,-5.42596271e-13 Z" id="Rectangle" fill="#F4F4FE"></path>
                    <g id="Group-189" transform="translate(1.505682, 0.927229)" fill-rule="nonzero">
                        <path d="M0.464015152,0.901515152 C0.20774666,0.901515152 2.47276946e-14,0.735317824 2.47276946e-14,0.53030303 C2.47276946e-14,0.325288237 0.20774666,0.159090909 0.464015152,0.159090909 L6.86079545,0.159090909 C7.11706395,0.159090909 7.32481061,0.325288237 7.32481061,0.53030303 C7.32481061,0.735317824 7.11706395,0.901515152 6.86079545,0.901515152 L0.464015152,0.901515152 Z" id="Path-Copy-28" fill="#01B6F5"></path>
                        <path d="M8.41856061,0.901515152 C8.16229211,0.901515152 7.95454545,0.735317824 7.95454545,0.53030303 C7.95454545,0.325288237 8.16229211,0.159090909 8.41856061,0.159090909 L14.8153409,0.159090909 C15.0716094,0.159090909 15.2793561,0.325288237 15.2793561,0.53030303 C15.2793561,0.735317824 15.0716094,0.901515152 14.8153409,0.901515152 L8.41856061,0.901515152 Z" id="Path-Copy-33" fill="#01B6F5"></path>
                        <path d="M0.464015152,2.73106061 C0.20774666,2.73106061 0,2.56486328 0,2.35984848 C0,2.15483369 0.20774666,1.98863636 0.464015152,1.98863636 L11.6335227,1.98863636 C11.8897912,1.98863636 12.0975379,2.15483369 12.0975379,2.35984848 C12.0975379,2.56486328 11.8897912,2.73106061 11.6335227,2.73106061 L0.464015152,2.73106061 Z" id="Path-Copy-32" fill="#52676F"></path>
                    </g>
                    <rect id="Rectangle" fill="#01B6F5" x="-6.76479075e-14" y="-5.42596271e-13" width="1" height="5.24475524" rx="0.5"></rect>
                </g>
                <g id="Group-191-Copy-4" transform="translate(44.545455, 62.696241)">
                    <path d="M0.327797203,-5.42596271e-13 L25.895979,-5.42596271e-13 C27.3442782,-5.44194587e-13 28.5183566,1.17407845 28.5183566,2.62237762 C28.5183566,4.07067679 27.3442782,5.24475524 25.895979,5.24475524 L0.327797203,5.24475524 L0.327797203,5.24475524 L0.327797203,-5.42596271e-13 Z" id="Rectangle" fill="#F4F4FE"></path>
                    <g id="Group-189" transform="translate(1.505682, 0.927229)" fill-rule="nonzero">
                        <path d="M0.464015152,0.901515152 C0.20774666,0.901515152 2.47276946e-14,0.735317824 2.47276946e-14,0.53030303 C2.47276946e-14,0.325288237 0.20774666,0.159090909 0.464015152,0.159090909 L6.86079545,0.159090909 C7.11706395,0.159090909 7.32481061,0.325288237 7.32481061,0.53030303 C7.32481061,0.735317824 7.11706395,0.901515152 6.86079545,0.901515152 L0.464015152,0.901515152 Z" id="Path-Copy-28" fill="#01B6F5"></path>
                        <path d="M8.41856061,0.901515152 C8.16229211,0.901515152 7.95454545,0.735317824 7.95454545,0.53030303 C7.95454545,0.325288237 8.16229211,0.159090909 8.41856061,0.159090909 L14.8153409,0.159090909 C15.0716094,0.159090909 15.2793561,0.325288237 15.2793561,0.53030303 C15.2793561,0.735317824 15.0716094,0.901515152 14.8153409,0.901515152 L8.41856061,0.901515152 Z" id="Path-Copy-33" fill="#01B6F5"></path>
                        <path d="M0.464015152,2.73106061 C0.20774666,2.73106061 0,2.56486328 0,2.35984848 C0,2.15483369 0.20774666,1.98863636 0.464015152,1.98863636 L11.6335227,1.98863636 C11.8897912,1.98863636 12.0975379,2.15483369 12.0975379,2.35984848 C12.0975379,2.56486328 11.8897912,2.73106061 11.6335227,2.73106061 L0.464015152,2.73106061 Z" id="Path-Copy-32" fill="#52676F"></path>
                    </g>
                    <rect id="Rectangle" fill="#01B6F5" x="-6.76479075e-14" y="-5.42596271e-13" width="1" height="5.24475524" rx="0.5"></rect>
                </g>
                <g id="Group-191-Copy-5" transform="translate(74.772727, 51.162150)">
                    <path d="M0.327797203,-5.42596271e-13 L25.895979,-5.42596271e-13 C27.3442782,-5.40994123e-13 28.5183566,1.17407845 28.5183566,2.62237762 C28.5183566,4.07067679 27.3442782,5.24475524 25.895979,5.24475524 L0.327797203,5.24475524 L0.327797203,5.24475524 L0.327797203,-5.42596271e-13 Z" id="Rectangle" fill="#F4F4FE"></path>
                    <g id="Group-189" transform="translate(1.505682, 0.927229)" fill-rule="nonzero">
                        <path d="M0.464015152,0.901515152 C0.20774666,0.901515152 2.47276946e-14,0.735317824 2.47276946e-14,0.53030303 C2.47276946e-14,0.325288237 0.20774666,0.159090909 0.464015152,0.159090909 L6.86079545,0.159090909 C7.11706395,0.159090909 7.32481061,0.325288237 7.32481061,0.53030303 C7.32481061,0.735317824 7.11706395,0.901515152 6.86079545,0.901515152 L0.464015152,0.901515152 Z" id="Path-Copy-28" fill="#01B6F5"></path>
                        <path d="M8.41856061,0.901515152 C8.16229211,0.901515152 7.95454545,0.735317824 7.95454545,0.53030303 C7.95454545,0.325288237 8.16229211,0.159090909 8.41856061,0.159090909 L14.8153409,0.159090909 C15.0716094,0.159090909 15.2793561,0.325288237 15.2793561,0.53030303 C15.2793561,0.735317824 15.0716094,0.901515152 14.8153409,0.901515152 L8.41856061,0.901515152 Z" id="Path-Copy-33" fill="#01B6F5"></path>
                        <path d="M0.464015152,2.73106061 C0.20774666,2.73106061 0,2.56486328 0,2.35984848 C0,2.15483369 0.20774666,1.98863636 0.464015152,1.98863636 L11.6335227,1.98863636 C11.8897912,1.98863636 12.0975379,2.15483369 12.0975379,2.35984848 C12.0975379,2.56486328 11.8897912,2.73106061 11.6335227,2.73106061 L0.464015152,2.73106061 Z" id="Path-Copy-32" fill="#52676F"></path>
                    </g>
                    <rect id="Rectangle" fill="#01B6F5" x="-6.76479075e-14" y="-5.42596271e-13" width="1" height="5.24475524" rx="0.5"></rect>
                </g>
                <g id="Group-190" transform="translate(15.113636, 38.434878)">
                    <path d="M0.413024476,1.22486888 L25.9812063,1.22486888 C27.4295055,1.22486888 28.6035839,2.39894733 28.6035839,3.8472465 C28.6035839,5.29554567 27.4295055,6.46962413 25.9812063,6.46962413 L0.413024476,6.46962413 L0.413024476,6.46962413 L0.413024476,1.22486888 Z" id="Rectangle" fill="#F4F4FE"></path>
                    <g id="Group-189" transform="translate(1.590909, 0.795455)" fill-rule="nonzero">
                        <path d="M0.464015152,2.49242424 C0.20774666,2.49242424 0,2.32622691 0,2.12121212 C0,1.91619733 0.20774666,1.75 0.464015152,1.75 L6.86079545,1.75 C7.11706395,1.75 7.32481061,1.91619733 7.32481061,2.12121212 C7.32481061,2.32622691 7.11706395,2.49242424 6.86079545,2.49242424 L0.464015152,2.49242424 Z" id="Path-Copy-28" fill="#01B6F5"></path>
                        <path d="M8.41856061,2.49242424 C8.16229211,2.49242424 7.95454545,2.32622691 7.95454545,2.12121212 C7.95454545,1.91619733 8.16229211,1.75 8.41856061,1.75 L16.40625,1.75 C16.6625185,1.75 16.8702652,1.91619733 16.8702652,2.12121212 C16.8702652,2.32622691 16.6625185,2.49242424 16.40625,2.49242424 L8.41856061,2.49242424 Z" id="Path-Copy-33" fill="#01B6F5"></path>
                        <path d="M0.464015152,4.3219697 C0.20774666,4.3219697 0,4.15577237 0,3.95075758 C0,3.74574278 0.20774666,3.57954545 0.464015152,3.57954545 L13.2244318,3.57954545 C13.4807003,3.57954545 13.688447,3.74574278 13.688447,3.95075758 C13.688447,4.15577237 13.4807003,4.3219697 13.2244318,4.3219697 L0.464015152,4.3219697 Z" id="Path-Copy-32" fill="#52676F"></path>
                    </g>
                    <rect id="Rectangle" fill="#01B6F5" x="0.0852272727" y="1.22486888" width="1" height="5.24475524" rx="0.5"></rect>
                </g>
                <path d="M44.2746471,33.5954983 L44.2746471,45.3961976 L14.7071678,45.3961976 L14.7071678,33.5954983 L44.2746471,33.5954983 Z M44.1109047,33.7593969 L14.8710664,33.7593969 L14.8710664,45.232299 L44.1109047,45.232299 L44.1109047,33.7593969 Z" id="Rectangle" stroke="#EDEEF2" stroke-width="0.1" fill="#EDEEF2" fill-rule="nonzero"></path>
                <path d="M73.6848526,33.5954983 L73.6848526,45.3961976 L44.1173733,45.3961976 L44.1173733,33.5954983 L73.6848526,33.5954983 Z M73.5210337,33.7593969 L44.2813593,33.7593969 L44.2813593,45.232299 L73.5210337,45.232299 L73.5210337,33.7593969 Z" id="Rectangle-Copy" stroke="#EDEEF2" stroke-width="0.1" fill="#EDEEF2" fill-rule="nonzero"></path>
                <path d="M103.095058,33.5954983 L103.095058,45.3961976 L73.5275788,45.3961976 L73.5275788,33.5954983 L103.095058,33.5954983 Z M102.931163,33.7593969 L73.6914882,33.7593969 L73.6914882,45.232299 L102.931163,45.232299 L102.931163,33.7593969 Z" id="Rectangle-Copy-2" stroke="#EDEEF2" stroke-width="0.1" fill="#EDEEF2" fill-rule="nonzero"></path>
                <path d="M44.2746471,45.232299 L44.2746471,57.0329983 L14.7071678,57.0329983 L14.7071678,45.232299 L44.2746471,45.232299 Z M44.1109047,45.3961976 L14.8710664,45.3961976 L14.8710664,56.8690997 L44.1109047,56.8690997 L44.1109047,45.3961976 Z" id="Rectangle" stroke="#EDEEF2" stroke-width="0.1" fill="#EDEEF2" fill-rule="nonzero"></path>
                <path d="M73.6848526,45.232299 L73.6848526,57.0329983 L44.1173733,57.0329983 L44.1173733,45.232299 L73.6848526,45.232299 Z M73.5210337,45.3961976 L44.2813593,45.3961976 L44.2813593,56.8690997 L73.5210337,56.8690997 L73.5210337,45.3961976 Z" id="Rectangle-Copy" stroke="#EDEEF2" stroke-width="0.1" fill="#EDEEF2" fill-rule="nonzero"></path>
                <path d="M103.095058,45.232299 L103.095058,57.0329983 L73.5275788,57.0329983 L73.5275788,45.232299 L103.095058,45.232299 Z M102.931163,45.3961976 L73.6914882,45.3961976 L73.6914882,56.8690997 L102.931163,56.8690997 L102.931163,45.3961976 Z" id="Rectangle-Copy-2" stroke="#EDEEF2" stroke-width="0.1" fill="#EDEEF2" fill-rule="nonzero"></path>
                <path d="M44.2746471,56.8690997 L44.2746471,68.669799 L14.7071678,68.669799 L14.7071678,56.8690997 L44.2746471,56.8690997 Z M44.1109047,57.0329983 L14.8710664,57.0329983 L14.8710664,68.5059003 L44.1109047,68.5059003 L44.1109047,57.0329983 Z" id="Rectangle" stroke="#EDEEF2" stroke-width="0.1" fill="#EDEEF2" fill-rule="nonzero"></path>
                <path d="M73.6848526,56.8690997 L73.6848526,68.669799 L44.1173733,68.669799 L44.1173733,56.8690997 L73.6848526,56.8690997 Z M73.5210337,57.0329983 L44.2813593,57.0329983 L44.2813593,68.5059003 L73.5210337,68.5059003 L73.5210337,57.0329983 Z" id="Rectangle-Copy" stroke="#EDEEF2" stroke-width="0.1" fill="#EDEEF2" fill-rule="nonzero"></path>
                <path d="M103.095058,56.8690997 L103.095058,68.669799 L73.5275788,68.669799 L73.5275788,56.8690997 L103.095058,56.8690997 Z M102.931163,57.0329983 L73.6914882,57.0329983 L73.6914882,68.5059003 L102.931163,68.5059003 L102.931163,57.0329983 Z" id="Rectangle-Copy-2" stroke="#EDEEF2" stroke-width="0.1" fill="#EDEEF2" fill-rule="nonzero"></path>
                <path d="M103.095058,48.3909528 C103.185577,48.3909528 103.258957,48.5690214 103.258957,48.7886801 C103.258957,48.9926489 103.195685,49.1607568 103.114172,49.1837315 L103.095058,49.1864073 L12.4125874,49.1864073 C12.3220687,49.1864073 12.2486888,49.0083388 12.2486888,48.7886801 C12.2486888,48.5847113 12.3119603,48.4166034 12.3934734,48.3936286 L12.4125874,48.3909528 L103.095058,48.3909528 Z" id="Path" fill="#DE5051" fill-rule="nonzero"></path>
                <path d="M13.125,47.1848776 C14.0036348,47.1848776 14.7159091,47.8971519 14.7159091,48.7757867 C14.7159091,49.6544215 14.0036348,50.3666958 13.125,50.3666958 C12.2463652,50.3666958 11.5340909,49.6544215 11.5340909,48.7757867 C11.5340909,47.8971519 12.2463652,47.1848776 13.125,47.1848776 Z" id="Path" fill="#DE5051" fill-rule="nonzero"></path>
                <path d="M44.2746471,10.3256119 L44.2746471,22.0443619 L14.7071678,22.0443619 L14.7071678,10.3256119 L44.2746471,10.3256119 Z M44.1109047,10.4895105 L14.8710664,10.4895105 L14.8710664,21.8804633 L44.1109047,21.8804633 L44.1109047,10.4895105 Z" id="Rectangle" stroke="#EDEEF2" stroke-width="0.1" fill="#EDEEF2" fill-rule="nonzero"></path>
                <path d="M73.6848526,10.3256119 L73.6848526,22.0443619 L44.1173733,22.0443619 L44.1173733,10.3256119 L73.6848526,10.3256119 Z M73.5210337,10.4895105 L44.2813593,10.4895105 L44.2813593,21.8804633 L73.5210337,21.8804633 L73.5210337,10.4895105 Z" id="Rectangle-Copy" stroke="#EDEEF2" stroke-width="0.1" fill="#EDEEF2" fill-rule="nonzero"></path>
                <path d="M103.095058,10.3256119 L103.095058,22.0443619 L73.5275788,22.0443619 L73.5275788,10.3256119 L103.095058,10.3256119 Z M102.931163,10.4895105 L73.6914882,10.4895105 L73.6914882,21.8804633 L102.931163,21.8804633 L102.931163,10.4895105 Z" id="Rectangle-Copy-2" stroke="#EDEEF2" stroke-width="0.1" fill="#EDEEF2" fill-rule="nonzero"></path>
                <path d="M44.2746471,21.9624126 L44.2746471,33.7631119 L14.7071678,33.7631119 L14.7071678,21.9624126 L44.2746471,21.9624126 Z M44.1109047,22.1263112 L14.8710664,22.1263112 L14.8710664,33.5992133 L44.1109047,33.5992133 L44.1109047,22.1263112 Z" id="Rectangle" stroke="#EDEEF2" stroke-width="0.1" fill="#EDEEF2" fill-rule="nonzero"></path>
                <path d="M73.6848526,21.9624126 L73.6848526,33.7631119 L44.1173733,33.7631119 L44.1173733,21.9624126 L73.6848526,21.9624126 Z M73.5210337,22.1263112 L44.2813593,22.1263112 L44.2813593,33.5992133 L73.5210337,33.5992133 L73.5210337,22.1263112 Z" id="Rectangle-Copy" stroke="#EDEEF2" stroke-width="0.1" fill="#EDEEF2" fill-rule="nonzero"></path>
                <path d="M103.095058,21.9624126 L103.095058,33.7631119 L73.5275788,33.7631119 L73.5275788,21.9624126 L103.095058,21.9624126 Z M102.931163,22.1263112 L73.6914882,22.1263112 L73.6914882,33.5992133 L102.931163,33.5992133 L102.931163,22.1263112 Z" id="Rectangle-Copy-2" stroke="#EDEEF2" stroke-width="0.1" fill="#EDEEF2" fill-rule="nonzero"></path>
                <path d="M44.2089161,3.65969881e-13 L44.2089161,10.4895105 L14.7071678,10.4895105 L14.7071678,3.65969881e-13 L44.2089161,3.65969881e-13 Z M44.0450175,0.163898601 L14.8710664,0.163898601 L14.8710664,10.3256119 L44.0450175,10.3256119 L44.0450175,0.163898601 Z" id="Rectangle" stroke="#EDEEF2" stroke-width="0.1" fill="#EDEEF2" fill-rule="nonzero"></path>
                <path d="M73.7106643,3.65969881e-13 L73.7106643,10.4895105 L44.2089161,10.4895105 L44.2089161,3.65969881e-13 L73.7106643,3.65969881e-13 Z M73.5467657,0.163898601 L44.3728147,0.163898601 L44.3728147,10.3256119 L73.5467657,10.3256119 L73.5467657,0.163898601 Z" id="Rectangle-Copy" stroke="#EDEEF2" stroke-width="0.1" fill="#EDEEF2" fill-rule="nonzero"></path>
                <path d="M103.048514,3.65969881e-13 L103.048514,10.4895105 L73.5467657,10.4895105 L73.5467657,3.65969881e-13 L103.048514,3.65969881e-13 Z M102.884615,0.163898601 L73.7106643,0.163898601 L73.7106643,10.3256119 L102.884615,10.3256119 L102.884615,0.163898601 Z" id="Rectangle-Copy-2" stroke="#EDEEF2" stroke-width="0.1" fill="#EDEEF2" fill-rule="nonzero"></path>
                <g id="Group-184" transform="translate(27.840909, 2.015953)" fill="#01B6F5" fill-rule="nonzero">
                    <path d="M1.20965253,7.15909091 C1.42926207,7.15909091 1.63132085,7.1244394 1.81582886,7.05513639 C2.00033687,6.98583338 2.15919377,6.88817914 2.29239956,6.76217367 C2.42560534,6.6361682 2.52955986,6.48631169 2.6042631,6.31260415 C2.67896634,6.1388966 2.71631797,5.94673826 2.71631797,5.73612911 C2.71631797,5.56872184 2.68886677,5.41166502 2.63396439,5.26495865 C2.579062,5.11825228 2.49760847,4.99044673 2.38960378,4.881542 C2.28159909,4.77263727 2.1483933,4.68668354 1.98998642,4.6236808 C1.83157954,4.56067806 1.64887161,4.5291767 1.44186262,4.5291767 C1.3770598,4.5291767 1.31045691,4.53187681 1.24205394,4.53727705 C1.17365097,4.54267728 1.10254788,4.55257771 1.02874468,4.56697834 L1.02874468,4.56697834 L1.13944948,3.91625008 L2.07909029,3.91625008 C2.16729412,3.91625008 2.24289741,3.90679967 2.30590014,3.88789885 C2.36890288,3.86899803 2.41975509,3.84199685 2.45845677,3.80689533 C2.49715845,3.7717938 2.52550968,3.73084203 2.54351046,3.68403999 C2.56151124,3.63723796 2.57051163,3.58503569 2.57051163,3.52743319 L2.57051163,3.52743319 L2.57051163,3.18181818 L0.556224156,3.18181818 L0.221409616,5.15020367 L0.73983213,5.29060976 C0.909039478,5.22400687 1.08184698,5.19070542 1.25825464,5.19070542 C1.45626324,5.19070542 1.60926989,5.24065759 1.71727458,5.34056193 C1.82527927,5.44046627 1.87928161,5.58582258 1.87928161,5.77663087 C1.87928161,5.87383509 1.86803113,5.96518906 1.84553015,6.05069277 C1.82302917,6.13619649 1.78702761,6.21089973 1.73752546,6.27480251 C1.68802331,6.33870528 1.62367051,6.38910747 1.54446707,6.42600907 C1.46526363,6.46291067 1.36985949,6.48136148 1.25825464,6.48136148 C1.1466498,6.48136148 1.05304573,6.46696085 0.977442449,6.4381596 C0.901839166,6.40935835 0.835686293,6.37740696 0.77898383,6.34230544 C0.722281368,6.30720391 0.670079101,6.27480251 0.622377029,6.24510122 C0.574674957,6.21539993 0.523822749,6.20054928 0.469820404,6.20054928 C0.428418606,6.20054928 0.389716925,6.20999969 0.353715361,6.22890051 C0.317713798,6.24780133 0.28621243,6.27525253 0.259211257,6.31125409 L0.259211257,6.31125409 L-4.64527406e-14,6.6568691 C0.0702030488,6.72527207 0.148506449,6.78962486 0.234910202,6.84992748 C0.321313954,6.9102301 0.415368039,6.96333241 0.517072456,7.0092344 C0.618776873,7.05513639 0.727681602,7.09158798 0.843786644,7.11858915 C0.959891687,7.14559032 1.08184698,7.15909091 1.20965253,7.15909091 Z" id="Sun15"></path>
                    <path d="M0.830039526,1.59090909 C0.371621354,1.59090909 0,1.23477196 0,0.795454545 C0,0.356137131 0.371621354,0 0.830039526,0 L2.35177866,0 C2.81019683,0 3.18181818,0.356137131 3.18181818,0.795454545 C3.18181818,1.23477196 2.81019683,1.59090909 2.35177866,1.59090909 L0.830039526,1.59090909 Z" id="Line-12"></path>
                </g>
                <g id="Group-184-Copy-2" transform="translate(86.704545, 2.015953)" fill="#01B6F5" fill-rule="nonzero">
                    <path d="M0.830039526,1.59090909 C0.371621354,1.59090909 0,1.23477196 0,0.795454545 C0,0.356137131 0.371621354,0 0.830039526,0 L2.35177866,0 C2.81019683,0 3.18181818,0.356137131 3.18181818,0.795454545 C3.18181818,1.23477196 2.81019683,1.59090909 2.35177866,1.59090909 L0.830039526,1.59090909 Z" id="Line-12"></path>
                </g>
                <g id="Group-184-Copy" transform="translate(56.477273, 2.015953)" fill="#01B6F5" fill-rule="nonzero">
                    <path d="M0.830039526,1.59090909 C0.371621354,1.59090909 0,1.23477196 0,0.795454545 C0,0.356137131 0.371621354,0 0.830039526,0 L2.35177866,0 C2.81019683,0 3.18181818,0.356137131 3.18181818,0.795454545 C3.18181818,1.23477196 2.81019683,1.59090909 2.35177866,1.59090909 L0.830039526,1.59090909 Z" id="Line-12"></path>
                </g>
                <path d="M57.8867339,9.23169799 C58.1009432,9.23169799 58.2962517,9.19569643 58.4726594,9.1236933 C58.649067,9.05169017 58.7998236,8.95403593 58.924929,8.83073058 C59.0500345,8.70742522 59.1467887,8.56341897 59.2151916,8.39871181 C59.2835946,8.23400466 59.3177961,8.0598471 59.3177961,7.87623912 C59.3177961,7.67463037 59.2840446,7.49957277 59.2165417,7.35106632 C59.1490388,7.20255987 59.0603849,7.07970453 58.9505801,6.98250031 C58.8407754,6.88529609 58.71657,6.81329296 58.577964,6.76649093 C58.4393579,6.7196889 58.2989518,6.69628788 58.1567457,6.69628788 C58.0019389,6.69628788 57.8615328,6.7196889 57.7355274,6.76649093 L57.7355274,6.76649093 L57.8381318,6.64768577 L59.0045825,5.25442526 L58.2593501,5.25442526 C58.1585457,5.25442526 58.0689919,5.27332608 57.9906885,5.31112772 C57.9123851,5.34892937 57.8525325,5.39393132 57.8111307,5.44613359 L57.8111307,5.44613359 L56.9254922,6.64228554 C56.6266792,7.04190289 56.4772727,7.43521997 56.4772727,7.82223678 C56.4772727,8.02924577 56.5092241,8.21915402 56.5731269,8.39196152 C56.6370297,8.56476903 56.7297337,8.71327548 56.851239,8.83748087 C56.9727442,8.96168626 57.1208007,9.05844047 57.2954083,9.12774347 C57.4700158,9.19704648 57.6671244,9.23169799 57.8867339,9.23169799 Z M57.8705332,8.57016926 C57.7697289,8.57016926 57.6824251,8.55531862 57.6086219,8.52561733 C57.5348187,8.49591604 57.473616,8.45316418 57.4250139,8.39736176 C57.3764118,8.34155933 57.3404102,8.27495644 57.3170092,8.19755308 C57.2936082,8.12014972 57.2819077,8.03284593 57.2819077,7.9356417 C57.2819077,7.83843748 57.2963083,7.75113369 57.3251095,7.67373033 C57.3539108,7.59632697 57.3939625,7.52972408 57.4452648,7.47392165 C57.496567,7.41811923 57.5573196,7.37536737 57.6275227,7.34566608 C57.6977257,7.31596479 57.7751291,7.30111415 57.8597328,7.30111415 C57.9533368,7.30111415 58.0383905,7.31551477 58.1148938,7.34431602 C58.1913972,7.37311727 58.25665,7.41451907 58.3106523,7.46852142 C58.3646547,7.52252376 58.4065065,7.58912665 58.4362078,7.66833009 C58.4659091,7.74753353 58.4807597,7.83753744 58.4807597,7.93834182 C58.4807597,8.02834573 58.4650091,8.11159935 58.4335077,8.18810267 C58.4020063,8.26460599 58.3592545,8.33120888 58.3052521,8.38791135 C58.2512498,8.44461381 58.186897,8.48916574 58.1121937,8.52156715 C58.0374905,8.55396856 57.956937,8.57016926 57.8705332,8.57016926 Z" id="Mon16" fill="#01B6F5" fill-rule="nonzero"></path>
                <path d="M87.5726118,9.23169799 C87.689082,9.23169799 87.7823491,9.2044003 87.8524131,9.14980493 C87.9224772,9.09520956 87.9766176,9.02969512 88.0148343,8.9532616 L88.0148343,8.9532616 L89.3960972,6.02694975 C89.4179354,5.98327346 89.4406834,5.92913305 89.4643414,5.86452853 C89.4879994,5.799924 89.4998284,5.71484622 89.4998284,5.60929517 L89.4998284,5.60929517 L89.4998284,5.25442526 L86.7045455,5.25442526 L86.7045455,5.81129804 C86.7045455,5.83495603 86.710005,5.85815907 86.7209241,5.88090714 C86.7318431,5.90365521 86.7459469,5.92367351 86.7632355,5.94096204 C86.780524,5.95825058 86.8005423,5.97189942 86.8232904,5.98190857 C86.8460385,5.99191772 86.8701514,5.9969223 86.8956293,5.9969223 L86.8956293,5.9969223 L88.6454109,5.9969223 C88.5926353,6.05333751 88.5448644,6.11293746 88.502098,6.17572214 C88.4593316,6.23850681 88.4170202,6.30811591 88.3751638,6.38454943 L88.3751638,6.38454943 L86.9556842,9.23169799 L87.5726118,9.23169799 Z" id="Tue17" fill="#01B6F5" fill-rule="nonzero"></path>
                <path d="M14.8710664,3.65969881e-13 L14.8710664,10.4895105 L1.59527972,10.4895105 L1.59527972,3.65969881e-13 L14.8710664,3.65969881e-13 Z M14.7071678,0.163898601 L1.75917832,0.163898601 L1.75917832,10.3256119 L14.7071678,10.3256119 L14.7071678,0.163898601 Z" id="Rectangle" stroke="#EDEEF2" stroke-width="0.1" fill="#EDEEF2" fill-rule="nonzero"></path>
            </g>
            <g id="Group-5" transform="translate(100.000000, 0.000000)" fill-rule="nonzero">
                <path d="M0,11 C0,4.92486775 4.92817249,0 10.991074,0 L38.1815451,0 C44.1522361,0 49.0109701,4.76342789 49.1686683,10.7021035 L49.172619,11 C49.172619,17.0751322 44.2444466,22 38.1815451,22 L10.991074,22 C5.02038296,22 0.161648924,17.2365721 0.00395076211,11.2978965 L0,11 Z" id="Path" fill="#FFB900"></path>
                <path d="M8.9375,15.8125 L12.1325784,15.8125 C12.6349885,15.8125 13.0823824,15.7502178 13.4747605,15.6256533 C13.8671385,15.5010889 14.1982725,15.3266986 14.468162,15.1024826 C14.7380519,14.8782666 14.9435833,14.6094149 15.0847561,14.2959277 C15.2259289,13.9824404 15.2965157,13.6346981 15.2965157,13.2527003 C15.2965157,12.7046167 15.1314678,12.2592988 14.801372,11.9167465 C14.4712761,11.5741943 13.9844366,11.3385599 13.3408537,11.2098432 C13.6190477,11.1226481 13.8619484,11.0095019 14.0695557,10.8704051 C14.2771634,10.7313082 14.4494774,10.5756026 14.5864983,10.4032883 C14.7235192,10.230974 14.8262848,10.0441273 14.8947953,9.84274826 C14.9633057,9.64138096 14.997561,9.43273549 14.997561,9.21681185 C14.997561,8.85557491 14.9363165,8.52963099 14.8138284,8.23898084 C14.6913403,7.94833068 14.5013795,7.70231587 14.243946,7.50093641 C13.9865129,7.29955695 13.658493,7.14488992 13.2598868,7.0369338 C12.8612805,6.92897768 12.3837833,6.875 11.8273955,6.875 L8.9375,6.875 L8.9375,15.8125 Z M10.2205139,11.7641551 L12.1138937,11.7641551 C12.7574766,11.7641551 13.2370498,11.8949477 13.5526132,12.1565331 C13.8681767,12.4181185 14.0259582,12.7731272 14.0259582,13.2215592 C14.0259582,13.4499273 13.989627,13.659611 13.9169643,13.8506098 C13.8443244,14.0416085 13.7311782,14.2066564 13.5775261,14.3457535 C13.4239071,14.4848504 13.22668,14.5938443 12.9858449,14.6727352 C12.7450202,14.751626 12.4543697,14.7910714 12.1138937,14.7910714 L10.2205139,14.7910714 L10.2205139,11.7641551 Z M10.2205139,10.8548345 L10.2205139,7.88397213 L11.8273955,7.88397213 C12.4709784,7.88397213 12.9474374,8.00334615 13.2567726,8.24209495 C13.5661079,8.48084375 13.7207753,8.85765124 13.7207753,9.37251742 C13.7207753,9.59673345 13.68133,9.80018886 13.602439,9.98288328 C13.5235697,10.1655777 13.4041953,10.3212833 13.2443162,10.45 C13.0844584,10.5787167 12.8820411,10.6783683 12.6370645,10.7489547 C12.3920878,10.8195411 12.1035132,10.8548345 11.7713415,10.8548345 L10.2205139,10.8548345 Z M23.2935526,6.875 L17.7628906,6.875 L17.7628906,15.8125 L23.2935526,15.8125 L23.2997808,14.7661585 L19.0521327,14.7661585 L19.0521327,11.8077526 L22.4714272,11.8077526 L22.4714272,10.7987805 L19.0521327,10.7987805 L19.0521327,7.92134146 L23.2935526,7.92134146 L23.2935526,6.875 Z M31.776391,6.875 L24.7696402,6.875 L24.7696402,7.95248258 L27.6346227,7.95248258 L27.6346227,15.8125 L28.9176367,15.8125 L28.9176367,7.95248258 L31.776391,7.95248258 L31.776391,6.875 Z M40.2841425,15.8125 L36.7153707,6.875 L35.4136721,6.875 L31.8511286,15.8125 L32.8476442,15.8125 C32.9555979,15.8125 33.0479832,15.7813589 33.1248002,15.7190767 C33.2016149,15.6567944 33.2524787,15.5862079 33.2773916,15.5073171 L34.0808324,13.4084059 L38.0482104,13.4084059 L38.8516512,15.5073171 C38.8890205,15.5986643 38.9429982,15.672365 39.013585,15.728419 C39.0841718,15.784473 39.1755188,15.8125 39.2876268,15.8125 L40.2841425,15.8125 Z M37.6932017,12.4866289 L34.4358411,12.4866289 L35.7873655,8.97391115 C35.8329778,8.86180314 35.8786513,8.73101045 35.9243864,8.5815331 L36.0614073,8.09573171 L36.0614073,8.09573171 C36.1070808,8.27012195 36.1537925,8.43101797 36.2015423,8.57841899 L36.2489461,8.71993794 L36.2489461,8.71993794 L37.6932017,12.4866289 Z" id="BETA" fill="#FFFFFF"></path>
            </g>
        </g>
    </g>
</svg>