<?xml version="1.0" encoding="UTF-8"?>
<svg width="144px" height="81px" viewBox="0 0 144 81" version="1.1" xmlns="http://www.w3.org/2000/svg" xmlns:xlink="http://www.w3.org/1999/xlink">
    <!-- Generator: Sketch 55.2 (78181) - https://sketchapp.com -->
    <title>WithBrowserPagination</title>
    <desc>Created with Sketch.</desc>
    <g id="pages" stroke="none" stroke-width="1" fill="none" fill-rule="evenodd">
        <g id="componentes-V2" transform="translate(-832.000000, -859.000000)" fill-rule="nonzero">
            <g id="WithBrowserPagination" transform="translate(832.000000, 859.000000)">
                <g id="vertical-navigation" fill="#E3E5ED">
                    <path d="M4,1 C2.34314575,1 1,2.34314575 1,4 L1,77 C1,78.6568542 2.34314575,80 4,80 L140,80 C141.656854,80 143,78.6568542 143,77 L143,4 C143,2.34314575 141.656854,1 140,1 L4,1 Z M4,0 L140,0 C142.209139,0 144,1.790861 144,4 L144,77 C144,79.209139 142.209139,81 140,81 L4,81 C1.790861,81 0,79.209139 0,77 L0,4 C0,1.790861 1.790861,0 4,0 Z" id="Rectangle"></path>
                </g>
                <g id="pagination" transform="translate(42.000000, 65.000000)">
                    <g id="Group-20" transform="translate(10.916179, 0.000000)">
                        <g id="Group-5">
                            <path d="M30.1174223,0.272904483 C32.782267,0.272904483 34.9620357,2.44139066 34.9620357,5.09385477 C34.9620357,7.74631889 32.782267,9.91480507 30.1174223,9.91480507 L5.18342503,9.91480507 C2.51858027,9.91480507 0.338811648,7.74631889 0.338811648,5.09385477 C0.338811648,2.44139066 2.51858027,0.272904483 5.18342503,0.272904483 L30.1174223,0.272904483 Z M30.1174223,0.81871345 L5.18342503,0.81871345 C2.81939,0.81871345 0.884620615,2.7434685 0.884620615,5.09385477 C0.884620615,7.44424105 2.81939,9.3689961 5.18342503,9.3689961 L30.1174223,9.3689961 C32.4814573,9.3689961 34.4162267,7.44424105 34.4162267,5.09385477 C34.4162267,2.7434685 32.4814573,0.81871345 30.1174223,0.81871345 Z" id="Path" fill="#E3E5ED"></path>
                            <path d="M4.89568186,5.95064792 C4.42248807,5.95064792 4.03888871,5.56704856 4.03888871,5.09385477 C4.03888871,4.62066099 4.42248807,4.23706163 4.89568186,4.23706163 L5.39547786,4.23706163 C5.86867165,4.23706163 6.25227101,4.62066099 6.25227101,5.09385477 C6.25227101,5.56704856 5.86867165,5.95064792 5.39547786,5.95064792 L4.89568186,5.95064792 Z M13.2732148,5.95064792 C12.8000211,5.95064792 12.4164217,5.56704856 12.4164217,5.09385477 C12.4164217,4.62066099 12.8000211,4.23706163 13.2732148,4.23706163 L13.7730108,4.23706163 C14.2462046,4.23706163 14.629804,4.62066099 14.629804,5.09385477 C14.629804,5.56704856 14.2462046,5.95064792 13.7730108,5.95064792 L13.2732148,5.95064792 Z M21.8157598,5.95064792 C21.342566,5.95064792 20.9589667,5.56704856 20.9589667,5.09385477 C20.9589667,4.62066099 21.342566,4.23706163 21.8157598,4.23706163 L22.3155558,4.23706163 C22.7887496,4.23706163 23.172349,4.62066099 23.172349,5.09385477 C23.172349,5.56704856 22.7887496,5.95064792 22.3155558,5.95064792 L21.8157598,5.95064792 Z M29.4570854,5.95064792 C28.9838916,5.95064792 28.6002922,5.56704856 28.6002922,5.09385477 C28.6002922,4.62066099 28.9838916,4.23706163 29.4570854,4.23706163 L29.9568814,4.23706163 C30.4300752,4.23706163 30.8136745,4.62066099 30.8136745,5.09385477 C30.8136745,5.56704856 30.4300752,5.95064792 29.9568814,5.95064792 L29.4570854,5.95064792 Z" id="Line-2" fill="#576574"></path>
                        </g>
                        <polygon id="Path" fill="#E3E5ED" points="9.18382066 9.57704338 8.58382066 9.57704338 8.58382066 0.653701437 9.18382066 0.653701437"></polygon>
                        <polygon id="Path" fill="#E3E5ED" points="18.0658869 9.46915091 17.4658869 9.46915091 17.4658869 0.545808967 18.0658869 0.545808967"></polygon>
                        <polygon id="Path" fill="#E3E5ED" points="26.6838207 9.46915091 26.0838207 9.46915091 26.0838207 0.545808967 26.6838207 0.545808967"></polygon>
                    </g>
                    <g id="Group-21" transform="translate(4.473684, 5.350877) rotate(-270.000000) translate(-4.473684, -5.350877) translate(0.214425, 1.091618)">
                        <path d="M4.36647173,8.51461988 C2.07551277,8.51461988 0.218323587,6.6574307 0.218323587,4.36647173 C0.218323587,2.07551277 2.07551277,0.218323587 4.36647173,0.218323587 C6.6574307,0.218323587 8.51461988,2.07551277 8.51461988,4.36647173 C8.51461988,6.6574307 6.6574307,8.51461988 4.36647173,8.51461988 Z M4.36647173,8.07797271 C6.41627712,8.07797271 8.07797271,6.41627712 8.07797271,4.36647173 C8.07797271,2.31666635 6.41627712,0.65497076 4.36647173,0.65497076 C2.31666635,0.65497076 0.65497076,2.31666635 0.65497076,4.36647173 C0.65497076,6.41627712 2.31666635,8.07797271 4.36647173,8.07797271 Z" id="Oval" fill="#E3E5ED"></path>
                        <path d="M4.18185832,4.97674217 L3.31955413,4.11443797 C3.25995369,4.05483753 3.25995369,3.95846236 3.31955413,3.89949597 L3.4628488,3.7562013 C3.52244923,3.69660087 3.61882441,3.69660087 3.6777908,3.7562013 L4.2890123,4.36742281 L4.9002338,3.7562013 C4.95983424,3.69660087 5.05620942,3.69660087 5.11517581,3.7562013 L5.25847047,3.89949597 C5.31807091,3.95909641 5.31807091,4.05547158 5.25847047,4.11443797 L4.39616628,4.97674217 C4.33783394,5.0363426 4.24145876,5.0363426 4.18185832,4.97674217 L4.18185832,4.97674217 Z" id="Shape" fill="#01B6F5" transform="translate(4.289012, 4.366472) rotate(-360.000000) translate(-4.289012, -4.366472) "></path>
                    </g>
                    <g id="Group-21-Copy-2" transform="translate(52.290448, 5.350877) scale(-1, 1) rotate(-270.000000) translate(-52.290448, -5.350877) translate(48.031189, 1.091618)">
                        <path d="M4.36647173,8.51461988 C2.07551277,8.51461988 0.218323587,6.6574307 0.218323587,4.36647173 C0.218323587,2.07551277 2.07551277,0.218323587 4.36647173,0.218323587 C6.6574307,0.218323587 8.51461988,2.07551277 8.51461988,4.36647173 C8.51461988,6.6574307 6.6574307,8.51461988 4.36647173,8.51461988 Z M4.36647173,8.07797271 C6.41627712,8.07797271 8.07797271,6.41627712 8.07797271,4.36647173 C8.07797271,2.31666635 6.41627712,0.65497076 4.36647173,0.65497076 C2.31666635,0.65497076 0.65497076,2.31666635 0.65497076,4.36647173 C0.65497076,6.41627712 2.31666635,8.07797271 4.36647173,8.07797271 Z" id="Oval" fill="#E3E5ED"></path>
                        <path d="M4.18185832,4.97674217 L3.31955413,4.11443797 C3.25995369,4.05483753 3.25995369,3.95846236 3.31955413,3.89949597 L3.4628488,3.7562013 C3.52244923,3.69660087 3.61882441,3.69660087 3.6777908,3.7562013 L4.2890123,4.36742281 L4.9002338,3.7562013 C4.95983424,3.69660087 5.05620942,3.69660087 5.11517581,3.7562013 L5.25847047,3.89949597 C5.31807091,3.95909641 5.31807091,4.05547158 5.25847047,4.11443797 L4.39616628,4.97674217 C4.33783394,5.0363426 4.24145876,5.0363426 4.18185832,4.97674217 L4.18185832,4.97674217 Z" id="Shape" fill="#01B6F5" transform="translate(4.289012, 4.366472) rotate(-360.000000) translate(-4.289012, -4.366472) "></path>
                    </g>
                </g>
            </g>
        </g>
    </g>
</svg>