<?xml version="1.0" encoding="UTF-8"?>
<svg width="144px" height="81px" viewBox="0 0 144 81" version="1.1" xmlns="http://www.w3.org/2000/svg" xmlns:xlink="http://www.w3.org/1999/xlink">
    <!-- Generator: Sketch 55.2 (78181) - https://sketchapp.com -->
    <title>WithBrowserPagination</title>
    <desc>Created with Sketch.</desc>
    <g id="pages" stroke="none" stroke-width="1" fill="none" fill-rule="evenodd">
        <g id="componentes-V2" transform="translate(-832.000000, -859.000000)" fill-rule="nonzero">
            <g id="WithBrowserPagination" transform="translate(832.000000, 859.000000)">
                <g id="vertical-navigation" fill="#E3E5ED">
                    <path d="M4,1 C2.34314575,1 1,2.34314575 1,4 L1,77 C1,78.6568542 2.34314575,80 4,80 L140,80 C141.656854,80 143,78.6568542 143,77 L143,4 C143,2.34314575 141.656854,1 140,1 L4,1 Z M4,0 L140,0 C142.209139,0 144,1.790861 144,4 L144,77 C144,79.209139 142.209139,81 140,81 L4,81 C1.790861,81 0,79.209139 0,77 L0,4 C0,1.790861 1.790861,0 4,0 Z" id="Rectangle"></path>
                </g>
                <g id="pagination" transform="translate(32.000000, 62.000000)">
                    <g id="Group-20" transform="translate(15.282651, 0.000000)">
                        <g id="Group-5">
                            <path d="M42.1643912,0.382066277 C45.8951739,0.382066277 48.9468499,3.41794692 48.9468499,7.13139668 C48.9468499,10.8448464 45.8951739,13.8807271 42.1643912,13.8807271 L7.25679504,13.8807271 C3.52601238,13.8807271 0.474336308,10.8448464 0.474336308,7.13139668 C0.474336308,3.41794692 3.52601238,0.382066277 7.25679504,0.382066277 L42.1643912,0.382066277 Z M42.1643912,1.14619883 L7.25679504,1.14619883 C3.947146,1.14619883 1.23846886,3.8408559 1.23846886,7.13139668 C1.23846886,10.4219375 3.947146,13.1165945 7.25679504,13.1165945 L42.1643912,13.1165945 C45.4740402,13.1165945 48.1827174,10.4219375 48.1827174,7.13139668 C48.1827174,3.8408559 45.4740402,1.14619883 42.1643912,1.14619883 Z" id="Path" fill="#E3E5ED"></path>
                            <path d="M6.8539546,8.33090709 C6.1914833,8.33090709 5.6544442,7.79386799 5.6544442,7.13139668 C5.6544442,6.46892538 6.1914833,5.93188628 6.8539546,5.93188628 L7.55366901,5.93188628 C8.21614031,5.93188628 8.75317941,6.46892538 8.75317941,7.13139668 C8.75317941,7.79386799 8.21614031,8.33090709 7.55366901,8.33090709 L6.8539546,8.33090709 Z M18.5825008,8.33090709 C17.9200295,8.33090709 17.3829904,7.79386799 17.3829904,7.13139668 C17.3829904,6.46892538 17.9200295,5.93188628 18.5825008,5.93188628 L19.2822152,5.93188628 C19.9446865,5.93188628 20.4817256,6.46892538 20.4817256,7.13139668 C20.4817256,7.79386799 19.9446865,8.33090709 19.2822152,8.33090709 L18.5825008,8.33090709 Z M30.5420638,8.33090709 C29.8795925,8.33090709 29.3425534,7.79386799 29.3425534,7.13139668 C29.3425534,6.46892538 29.8795925,5.93188628 30.5420638,5.93188628 L31.2417782,5.93188628 C31.9042495,5.93188628 32.4412886,6.46892538 32.4412886,7.13139668 C32.4412886,7.79386799 31.9042495,8.33090709 31.2417782,8.33090709 L30.5420638,8.33090709 Z M41.2399195,8.33090709 C40.5774482,8.33090709 40.0404091,7.79386799 40.0404091,7.13139668 C40.0404091,6.46892538 40.5774482,5.93188628 41.2399195,5.93188628 L41.9396339,5.93188628 C42.6021052,5.93188628 43.1391443,6.46892538 43.1391443,7.13139668 C43.1391443,7.79386799 42.6021052,8.33090709 41.9396339,8.33090709 L41.2399195,8.33090709 Z" id="Line-2" fill="#576574"></path>
                        </g>
                        <polygon id="Path" fill="#E3E5ED" points="12.8573489 13.4078607 12.0173489 13.4078607 12.0173489 0.915182012 12.8573489 0.915182012"></polygon>
                        <polygon id="Path" fill="#E3E5ED" points="25.2922417 13.2568113 24.4522417 13.2568113 24.4522417 0.764132554 25.2922417 0.764132554"></polygon>
                        <polygon id="Path" fill="#E3E5ED" points="37.3573489 13.2568113 36.5173489 13.2568113 36.5173489 0.764132554 37.3573489 0.764132554"></polygon>
                    </g>
                    <g id="Group-21" transform="translate(6.263158, 7.491228) rotate(-270.000000) translate(-6.263158, -7.491228) translate(0.300195, 1.528265)">
                        <path d="M6.11306043,11.9204678 C2.90571788,11.9204678 0.305653021,9.32040298 0.305653021,6.11306043 C0.305653021,2.90571788 2.90571788,0.305653021 6.11306043,0.305653021 C9.32040298,0.305653021 11.9204678,2.90571788 11.9204678,6.11306043 C11.9204678,9.32040298 9.32040298,11.9204678 6.11306043,11.9204678 Z M6.11306043,11.3091618 C8.98278797,11.3091618 11.3091618,8.98278797 11.3091618,6.11306043 C11.3091618,3.24333289 8.98278797,0.916959064 6.11306043,0.916959064 C3.24333289,0.916959064 0.916959064,3.24333289 0.916959064,6.11306043 C0.916959064,8.98278797 3.24333289,11.3091618 6.11306043,11.3091618 Z" id="Oval" fill="#E3E5ED"></path>
                        <path d="M5.85460165,6.96743903 L4.64737578,5.76021316 C4.56393517,5.67677255 4.56393517,5.5418473 4.64737578,5.45929436 L4.84798832,5.25868182 C4.93142893,5.17524121 5.06635417,5.17524121 5.14890712,5.25868182 L6.00461722,6.11439193 L6.86032733,5.25868182 C6.94376794,5.17524121 7.07869318,5.17524121 7.16124613,5.25868182 L7.36185866,5.45929436 C7.44529928,5.54273497 7.44529928,5.67766021 7.36185866,5.76021316 L6.15463279,6.96743903 C6.07296751,7.05087965 5.93804227,7.05087965 5.85460165,6.96743903 L5.85460165,6.96743903 Z" id="Shape" fill="#01B6F5" transform="translate(6.004617, 6.113060) rotate(-360.000000) translate(-6.004617, -6.113060) "></path>
                    </g>
                    <g id="Group-21-Copy-2" transform="translate(73.206628, 7.491228) scale(-1, 1) rotate(-270.000000) translate(-73.206628, -7.491228) translate(67.243665, 1.528265)">
                        <path d="M6.11306043,11.9204678 C2.90571788,11.9204678 0.305653021,9.32040298 0.305653021,6.11306043 C0.305653021,2.90571788 2.90571788,0.305653021 6.11306043,0.305653021 C9.32040298,0.305653021 11.9204678,2.90571788 11.9204678,6.11306043 C11.9204678,9.32040298 9.32040298,11.9204678 6.11306043,11.9204678 Z M6.11306043,11.3091618 C8.98278797,11.3091618 11.3091618,8.98278797 11.3091618,6.11306043 C11.3091618,3.24333289 8.98278797,0.916959064 6.11306043,0.916959064 C3.24333289,0.916959064 0.916959064,3.24333289 0.916959064,6.11306043 C0.916959064,8.98278797 3.24333289,11.3091618 6.11306043,11.3091618 Z" id="Oval" fill="#E3E5ED"></path>
                        <path d="M5.85460165,6.96743903 L4.64737578,5.76021316 C4.56393517,5.67677255 4.56393517,5.5418473 4.64737578,5.45929436 L4.84798832,5.25868182 C4.93142893,5.17524121 5.06635417,5.17524121 5.14890712,5.25868182 L6.00461722,6.11439193 L6.86032733,5.25868182 C6.94376794,5.17524121 7.07869318,5.17524121 7.16124613,5.25868182 L7.36185866,5.45929436 C7.44529928,5.54273497 7.44529928,5.67766021 7.36185866,5.76021316 L6.15463279,6.96743903 C6.07296751,7.05087965 5.93804227,7.05087965 5.85460165,6.96743903 L5.85460165,6.96743903 Z" id="Shape" fill="#01B6F5" transform="translate(6.004617, 6.113060) rotate(-360.000000) translate(-6.004617, -6.113060) "></path>
                    </g>
                </g>
            </g>
        </g>
    </g>
</svg>