<?xml version="1.0" encoding="UTF-8"?>
<svg width="137px" height="71px" viewBox="0 0 137 71" version="1.1" xmlns="http://www.w3.org/2000/svg" xmlns:xlink="http://www.w3.org/1999/xlink">
    <title>ZoomableImage</title>
    <g id="components-icons" stroke="none" stroke-width="1" fill="none" fill-rule="evenodd">
        <g id="ZoomableImage" fill-rule="nonzero">
            <g transform="translate(0.000000, 11.000000)">
                <path d="M61.1022064,21.2804124 C59.5866765,21.36169 58.1251667,21.632285 56.7176765,22.0654351 C49.0577586,24.5285428 43.5095713,31.7012908 43.5095713,40.1457358 C43.5095713,43.5831835 44.4298913,46.8308183 46.0534609,49.6190363 L6.08987269,49.6190363 C2.74163214,49.6190363 2.52905042e-14,46.8769086 2.52905042e-14,43.5291636 L2.52905042e-14,6.15281333 C2.52905042e-14,2.80457278 2.74163214,0.0629406356 6.08987269,0.0629406356 L55.0123336,0.0629406356 C58.3769288,0.0629406356 61.1022064,2.78871374 61.1022064,6.15281333 L61.1022064,21.2804124 Z" id="Path" fill="#77CAEF"></path>
                <path d="M18.6549147,13.4611561 C18.6549147,15.7032285 16.8370719,17.5210712 14.5949996,17.5210712 C12.3529274,17.5210712 10.5350845,15.7032285 10.5350845,13.4611561 C10.5350845,11.2185882 12.3529274,9.40124092 14.5949996,9.40124092 C16.8370719,9.40124092 18.6549147,11.2185882 18.6549147,13.4611561 Z" id="Path" fill="#FFD15C"></path>
                <path d="M38.9348169,49.6190363 L6.08987269,49.6190363 C2.73370262,49.6190363 7.22585833e-15,46.8853339 7.22585833e-15,43.5291636 L7.22585833e-15,34.5702909 L8.27814741,28.4531605 C10.118292,26.6125203 13.1498472,26.6125203 14.9904876,28.4531605 L27.8570695,37.8021329 L49.5990324,22.0654351 C41.9391145,24.5285428 36.3909272,31.7012908 36.3909272,40.1457358 C36.3909272,43.5831835 37.3112472,46.8308183 38.9348169,49.6190363 Z" id="Path" fill="#E28D40"></path>
                <path d="M46.0534609,49.6190363 L16.5957355,49.6190363 C16.5957355,49.6190363 26.025778,38.516147 44.8858628,16.3103685 C46.7265032,14.4702238 49.7575627,14.4702238 51.5982031,16.3103685 L56.7176765,22.0654351 C49.0577586,24.5285428 43.5095713,31.7012908 43.5095713,40.1457358 C43.5095713,43.5831835 44.4298913,46.8308183 46.0534609,49.6190363 Z" id="Path" fill="#F4A14D"></path>
                <path d="M61.8144201,24.7116658 C70.0398901,24.7116658 76.7300053,31.4047603 76.7300053,39.6272511 C76.7300053,42.958919 75.6314987,46.0395439 73.7774602,48.5255233 L81.6518803,56.3999603 C82.4463718,57.1944519 82.4463718,58.4825212 81.6518803,59.2775092 C81.2531448,59.6757482 80.7327529,59.8738744 80.2118644,59.8738744 C79.6909759,59.8738744 79.170584,59.6757482 78.7743313,59.2775092 L70.9257384,51.42835 C68.40412,53.3797205 65.242619,54.5423397 61.8144201,54.5423397 C53.5894464,54.5423397 46.8993313,47.8492452 46.8993313,39.6272511 C46.8993313,31.4047603 53.5894464,24.7116658 61.8144201,24.7116658 Z M61.8144201,28.7794625 C55.8323954,28.7794625 50.9671279,33.6447299 50.9671279,39.6272511 C50.9671279,45.6092757 55.8323954,50.4745431 61.8144201,50.4745431 C67.7969413,50.4745431 72.6622087,45.6092757 72.6622087,39.6272511 C72.6622087,33.6447299 67.7969413,28.7794625 61.8144201,28.7794625 Z" id="Combined-Shape" fill="#46403A"></path>
                <path d="M61.743412,35.0483554 C61.1659791,35.0653794 60.7031062,35.538826 60.7031062,36.1203824 L60.7030932,38.6000847 L58.3273889,38.6001969 C57.801399,38.6001969 57.375,39.0265959 57.375,39.5525858 L57.3754894,39.583409 C57.3917598,40.0951332 57.8117125,40.5049747 58.3273889,40.5049747 L60.7030932,40.5049576 L60.7031062,43.0008041 C60.7031062,43.59313 61.1832812,44.0733051 61.7756072,44.0733051 L61.8078025,44.0728311 C62.3852353,44.0558071 62.8481082,43.5823606 62.8481082,43.0008041 L62.8480932,40.5049576 L65.2398406,40.5049747 C65.7658304,40.5049747 66.1922294,40.0785756 66.1922294,39.5525858 L66.19174,39.5217625 C66.1754696,39.0100383 65.7555169,38.6001969 65.2398406,38.6001969 L62.8480932,38.6000847 L62.8481082,36.1203824 C62.8481082,35.5280564 62.3679332,35.0478814 61.7756072,35.0478814 L61.743412,35.0483554 Z" id="Path" fill-opacity="0.598375014" fill="#46403A"></path>
            </g>
            <g id="Group-5" transform="translate(87.000000, 0.000000)">
                <path d="M0,11 C0,4.92486775 4.92817249,0 10.991074,0 L38.1815451,0 C44.1522361,0 49.0109701,4.76342789 49.1686683,10.7021035 L49.172619,11 C49.172619,17.0751322 44.2444466,22 38.1815451,22 L10.991074,22 C5.02038296,22 0.161648924,17.2365721 0.00395076211,11.2978965 L0,11 Z" id="Path" fill="#FFB900"></path>
                <path d="M8.9375,15.8125 L12.1325784,15.8125 C12.6349885,15.8125 13.0823824,15.7502178 13.4747605,15.6256533 C13.8671385,15.5010889 14.1982725,15.3266986 14.468162,15.1024826 C14.7380519,14.8782666 14.9435833,14.6094149 15.0847561,14.2959277 C15.2259289,13.9824404 15.2965157,13.6346981 15.2965157,13.2527003 C15.2965157,12.7046167 15.1314678,12.2592988 14.801372,11.9167465 C14.4712761,11.5741943 13.9844366,11.3385599 13.3408537,11.2098432 C13.6190477,11.1226481 13.8619484,11.0095019 14.0695557,10.8704051 C14.2771634,10.7313082 14.4494774,10.5756026 14.5864983,10.4032883 C14.7235192,10.230974 14.8262848,10.0441273 14.8947953,9.84274826 C14.9633057,9.64138096 14.997561,9.43273549 14.997561,9.21681185 C14.997561,8.85557491 14.9363165,8.52963099 14.8138284,8.23898084 C14.6913403,7.94833068 14.5013795,7.70231587 14.243946,7.50093641 C13.9865129,7.29955695 13.658493,7.14488992 13.2598868,7.0369338 C12.8612805,6.92897768 12.3837833,6.875 11.8273955,6.875 L8.9375,6.875 L8.9375,15.8125 Z M10.2205139,11.7641551 L12.1138937,11.7641551 C12.7574766,11.7641551 13.2370498,11.8949477 13.5526132,12.1565331 C13.8681767,12.4181185 14.0259582,12.7731272 14.0259582,13.2215592 C14.0259582,13.4499273 13.989627,13.659611 13.9169643,13.8506098 C13.8443244,14.0416085 13.7311782,14.2066564 13.5775261,14.3457535 C13.4239071,14.4848504 13.22668,14.5938443 12.9858449,14.6727352 C12.7450202,14.751626 12.4543697,14.7910714 12.1138937,14.7910714 L10.2205139,14.7910714 L10.2205139,11.7641551 Z M10.2205139,10.8548345 L10.2205139,7.88397213 L11.8273955,7.88397213 C12.4709784,7.88397213 12.9474374,8.00334615 13.2567726,8.24209495 C13.5661079,8.48084375 13.7207753,8.85765124 13.7207753,9.37251742 C13.7207753,9.59673345 13.68133,9.80018886 13.602439,9.98288328 C13.5235697,10.1655777 13.4041953,10.3212833 13.2443162,10.45 C13.0844584,10.5787167 12.8820411,10.6783683 12.6370645,10.7489547 C12.3920878,10.8195411 12.1035132,10.8548345 11.7713415,10.8548345 L10.2205139,10.8548345 Z M23.2935526,6.875 L17.7628906,6.875 L17.7628906,15.8125 L23.2935526,15.8125 L23.2997808,14.7661585 L19.0521327,14.7661585 L19.0521327,11.8077526 L22.4714272,11.8077526 L22.4714272,10.7987805 L19.0521327,10.7987805 L19.0521327,7.92134146 L23.2935526,7.92134146 L23.2935526,6.875 Z M31.776391,6.875 L24.7696402,6.875 L24.7696402,7.95248258 L27.6346227,7.95248258 L27.6346227,15.8125 L28.9176367,15.8125 L28.9176367,7.95248258 L31.776391,7.95248258 L31.776391,6.875 Z M40.2841425,15.8125 L36.7153707,6.875 L35.4136721,6.875 L31.8511286,15.8125 L32.8476442,15.8125 C32.9555979,15.8125 33.0479832,15.7813589 33.1248002,15.7190767 C33.2016149,15.6567944 33.2524787,15.5862079 33.2773916,15.5073171 L34.0808324,13.4084059 L38.0482104,13.4084059 L38.8516512,15.5073171 C38.8890205,15.5986643 38.9429982,15.672365 39.013585,15.728419 C39.0841718,15.784473 39.1755188,15.8125 39.2876268,15.8125 L40.2841425,15.8125 Z M37.6932017,12.4866289 L34.4358411,12.4866289 L35.7873655,8.97391115 C35.8329778,8.86180314 35.8786513,8.73101045 35.9243864,8.5815331 L36.0614073,8.09573171 L36.0614073,8.09573171 C36.1070808,8.27012195 36.1537925,8.43101797 36.2015423,8.57841899 L36.2489461,8.71993794 L36.2489461,8.71993794 L37.6932017,12.4866289 Z" id="BETA" fill="#FFFFFF"></path>
            </g>
        </g>
    </g>
</svg>