<?xml version="1.0"?><svg xmlns="http://www.w3.org/2000/svg" width="52" height="52" viewBox="0 0 52 52"><g fill="#fff"><path d="m48 11h-44c-1.1 0-2 0.9-2 2v26c0 1.1 0.9 2 2 2h44c1.1 0 2-0.9 2-2v-26c0-1.1-0.9-2-2-2z m-2 26h-40v-22h40v22z m-34.8-15.2h1c0.8 0 1.5-0.7 1.5-1.5v-1c0-0.8-0.7-1.5-1.5-1.5h-1c-0.8 0-1.5 0.7-1.5 1.5v1c0 0.8 0.7 1.5 1.5 1.5z m5.7 0h1c0.8 0 1.5-0.7 1.5-1.5v-1c0-0.8-0.7-1.5-1.5-1.5h-1c-0.8 0-1.5 0.7-1.5 1.5v1c0 0.8 0.7 1.5 1.5 1.5z m11.5 0h1c0.8 0 1.5-0.7 1.5-1.5v-1c0-0.8-0.7-1.5-1.5-1.5h-1c-0.8 0-1.5 0.7-1.5 1.5v1c0 0.8 0.7 1.5 1.5 1.5z m-5.8 0h1c0.8 0 1.5-0.7 1.5-1.5v-1c0-0.8-0.7-1.5-1.5-1.5h-1c-0.8 0-1.5 0.7-1.5 1.5v1c0 0.8 0.7 1.5 1.5 1.5z m17.3 0h1c0.8 0 1.5-0.7 1.5-1.5v-1c0-0.8-0.7-1.5-1.5-1.5h-1c-0.8 0-1.5 0.7-1.5 1.5v1c0 0.8 0.7 1.5 1.5 1.5z m-5.8 0h1c0.8 0 1.5-0.7 1.5-1.5v-1c0-0.8-0.7-1.5-1.5-1.5h-1c-0.8 0-1.5 0.7-1.5 1.5v1c0 0.8 0.7 1.5 1.5 1.5z m-22.9 6h1c0.8 0 1.5-0.7 1.5-1.5v-1c0-0.8-0.7-1.5-1.5-1.5h-1c-0.8 0-1.5 0.7-1.5 1.5v1c0 0.8 0.7 1.5 1.5 1.5z m5.7 0h1c0.8 0 1.5-0.7 1.5-1.5v-1c0-0.8-0.7-1.5-1.5-1.5h-1c-0.8 0-1.5 0.7-1.5 1.5v1c0 0.8 0.7 1.5 1.5 1.5z m11.5 0h1c0.8 0 1.5-0.7 1.5-1.5v-1c0-0.8-0.7-1.5-1.5-1.5h-1c-0.8 0-1.5 0.7-1.5 1.5v1c0 0.8 0.7 1.5 1.5 1.5z m-5.8 0h1c0.8 0 1.5-0.7 1.5-1.5v-1c0-0.8-0.7-1.5-1.5-1.5h-1c-0.8 0-1.5 0.7-1.5 1.5v1c0 0.8 0.7 1.5 1.5 1.5z m17.3 0h1c0.8 0 1.5-0.7 1.5-1.5v-1c0-0.8-0.7-1.5-1.5-1.5h-1c-0.8 0-1.5 0.7-1.5 1.5v1c0 0.8 0.7 1.5 1.5 1.5z m-5.8 0h1c0.8 0 1.5-0.7 1.5-1.5v-1c0-0.8-0.7-1.5-1.5-1.5h-1c-0.8 0-1.5 0.7-1.5 1.5v1c0 0.8 0.7 1.5 1.5 1.5z m-22.9 6h1c0.8 0 1.5-0.7 1.5-1.5v-1c0-0.8-0.7-1.5-1.5-1.5h-1c-0.8 0-1.5 0.7-1.5 1.5v1c0 0.8 0.7 1.5 1.5 1.5z m5.7 0h18.2c0.8 0 1.5-0.7 1.5-1.5v-1c0-0.8-0.7-1.5-1.5-1.5h-18.2c-0.8 0-1.5 0.7-1.5 1.5v1c0 0.8 0.7 1.5 1.5 1.5z m23 0h1c0.8 0 1.5-0.7 1.5-1.5v-1c0-0.8-0.7-1.5-1.5-1.5h-1c-0.8 0-1.5 0.7-1.5 1.5v1c0 0.8 0.7 1.5 1.5 1.5z"></path></g></svg>