<?xml version="1.0"?><svg xmlns="http://www.w3.org/2000/svg" width="100" height="100" viewBox="0 0 100 100"><g fill="#fff"><path d="m73.9 27c-3.9 0-7.1 3.2-7.1 7.1 0 0.6 0.1 1.1 0.2 1.6l-6.7 4.4c-2.1-2.4-5.1-4-8.6-4-2.6 0-5 0.9-6.9 2.4l-11-7.6c0.7-2.9-0.8-6.1-3.6-7.4-3.3-1.5-7.2-0.1-8.7 3.1s-0.1 7.2 3.1 8.7c1.7 0.8 3.6 0.8 5.3 0.1l11.3 7.9c-0.5 1.2-0.8 2.6-0.8 4 0 0.8 0.1 1.5 0.2 2.3l-6.9 2.5c-0.9-1-2.1-1.8-3.6-2.2-3.9-1.1-8 1.2-9.1 5.2-1.1 3.9 1.2 8 5.2 9.1 3.9 1.1 8-1.2 9.1-5.2 0.1-0.4 0.2-0.8 0.2-1.2l7.9-2.8c2.1 2.2 5 3.6 8.2 3.6h0.9l1.1 5.6c-2.1 1.7-3.3 4.4-3 7.2 0.4 4.6 4.5 7.9 9.1 7.5 4.6-0.4 7.9-4.5 7.5-9.1-0.4-4.1-3.7-7.2-7.7-7.5l-1.2-5.9c2.8-2 4.7-5.4 4.7-9.1 0-0.6-0.1-1.2-0.1-1.7l7.9-5.2c1 0.5 2.1 0.8 3.2 0.8 3.9 0 7.1-3.2 7.1-7.1-0.1-3.9-3.3-7.1-7.2-7.1z m-22.2 27.6c-4 0-7.2-3.2-7.2-7.2s3.2-7.2 7.2-7.2 7.2 3.2 7.2 7.2c0 3.9-3.2 7.2-7.2 7.2z"></path><circle cx="51.8" cy="47.4" r="3.2"></circle></g></svg>