<?xml version="1.0"?><svg xmlns="http://www.w3.org/2000/svg" width="52" height="52" viewBox="0 0 52 52"><g fill="#fff"><path d="m46 32.7c-4.2-4.2-11-4.2-15.2 0-4.2 4.2-4.2 11 0 15.2 4.2 4.2 11 4.2 15.2 0 4.2-4.2 4.2-11 0-15.2z m-3.2 10.8l-1.3 1.3c-0.4 0.4-0.8 0.4-1.2-0.1l-1.9-1.9-2 2c-0.4 0.4-0.8 0.4-1.2-0.1l-1.3-1.3c-0.4-0.4-0.4-0.8-0.1-1.2l2-2-1.9-2c-0.4-0.4-0.4-0.8-0.1-1.2l1.3-1.3c0.4-0.4 1-0.4 1.3-0.1l1.9 1.9 1.9-1.9c0.4-0.4 1-0.4 1.3-0.1l1.3 1.3c0.4 0.4 0.4 1-0.1 1.3l-1.9 1.9 2.1 2.2c0.4 0.4 0.4 1-0.1 1.3z m-18.6-42.6c-11.9 0-21.3 8.8-21.3 19.6 0 3.4 1 6.6 2.6 9.5 0.3 0.4 0.4 1 0.2 1.5l-2.8 7.6c-0.3 0.7 0.4 1.3 1.2 1.2l7.7-2.9c0.4-0.2 1-0.1 1.5 0.2 3.1 1.7 6.8 2.8 10.8 2.8-0.1-3.2 1-6.2 2.9-8.7h-3.9c-0.6 0-1.2-0.6-1.2-1.2v-10.3c0-0.6 0.6-1.2 1.2-1.2h11.9c0.6 0 1.2 0.6 1.2 1.2v6c2.8-0.5 5.7-0.1 8.4 1.1 0.8-2.1 1.2-4.3 1.2-6.6-0.2-11-9.8-19.8-21.6-19.8z m-5.4 29.6c0 0.6-0.6 1.2-1.2 1.2h-1.2c-1.7 0-3.2-1.4-3.2-3.2v-8.3c0-0.6 0.6-1.2 1.2-1.2h3.2c0.6 0 1.2 0.6 1.2 1.2v10.3z m17.4-15.8c0 0.6-0.6 1.2-1.2 1.2h-20.6c-0.6 0-1.2-0.6-1.2-1.2v-1.2c0-1.7 1.4-3.2 3.2-3.2h16.6c1.7 0 3.2 1.4 3.2 3.2v1.2z"></path></g></svg>