<?xml version="1.0" encoding="UTF-8"?>
<svg width="20px" height="26px" viewBox="0 0 20 26" version="1.1" xmlns="http://www.w3.org/2000/svg" xmlns:xlink="http://www.w3.org/1999/xlink">
    <!-- Generator: Sketch 51.1 (57501) - http://www.bohemiancoding.com/sketch -->
    <title>lightning logo</title>
    <desc>Created with Sketch.</desc>
    <defs></defs>
    <g id="spinner" stroke="none" stroke-width="1" fill="none" fill-rule="evenodd">
        <g id="Components-Badge" transform="translate(-116.000000, -55.000000)">
            <g id="Group-4">
                <g id="Group-13" transform="translate(0.000000, 20.000000)">
                    <g id="Group-11" transform="translate(49.000000, 33.000000)">
                        <g id="Group-9" transform="translate(10.000000, 0.000000)">
                            <g id="lightning-logo" transform="translate(52.000000, 0.000000)">
                                <g id="Group-7" transform="translate(7.128208, 3.488026)"></g>
                                <rect id="Rectangle-4" fill-rule="nonzero" x="0" y="0" width="30" height="30"></rect>
                                <path d="M13.4585532,25.0633852 L13.5659715,24.2641196 C13.9587631,24.3169094 14.3575848,24.343542 14.7601725,24.343542 C19.697485,24.343542 23.7011747,20.3044406 23.7011747,15.3202484 C23.7011747,14.2587539 23.5195305,13.2224258 23.1688179,12.2452236 L23.9278651,11.9728056 C24.3098328,13.0370949 24.5076263,14.1655592 24.5076263,15.3202484 C24.5076263,20.7482495 20.1444733,25.1499936 14.7601725,25.1499936 C14.3216904,25.1499936 13.8869825,25.1209646 13.4585532,25.0633852 Z" id="Stroke-1" fill="#FFFFFF" fill-rule="nonzero"></path>
                                <path d="M11.8037053,5.95053924 L12.0499234,6.71848509 C11.8647843,6.77784426 11.6826255,6.84291968 11.5035129,6.91370108 C8.10400615,8.25633715 5.81943514,11.5725642 5.81943514,15.3201237 C5.81943514,18.2890488 7.24974055,21.0142377 9.60736822,22.6955077 L9.13913497,23.3521064 C6.57112552,21.5208091 5.01298353,18.5520506 5.01298353,15.3201237 C5.01298353,11.2396106 7.50160887,7.62718334 11.2071984,6.16365981 C11.4028058,6.08636001 11.6016977,6.01530674 11.8037053,5.95053924 Z" id="Stroke-3" fill="#FFFFFF" fill-rule="nonzero"></path>
                                <polygon id="Fill-5" fill="#FFFFFF" points="21.8035452 11.1510244 9.38748417 27.4350405 15.3083029 12.3089641 11.2961668 12.3989271 15.1603266 2.53132178 22.1641272 2.53132178 17.4008082 11.0744223"></polygon>
                            </g>
                        </g>
                    </g>
                </g>
            </g>
        </g>
    </g>
</svg>