<?xml version="1.0" encoding="UTF-8"?>
<svg width="32px" height="32px" viewBox="0 0 32 32" version="1.1" xmlns="http://www.w3.org/2000/svg" xmlns:xlink="http://www.w3.org/1999/xlink">
    <!-- Generator: Sketch 50.2 (55047) - http://www.bohemiancoding.com/sketch -->
    <title>afghanistan@1x</title>
    <desc>Created with Sketch.</desc>
    <defs></defs>
    <g id="flags" stroke="none" stroke-width="1" fill="none" fill-rule="evenodd">
        <g id="afghanistan" fill-rule="nonzero">
            <g transform="translate(15.554430, 16.000000) scale(-1, 1) translate(-15.554430, -16.000000) " id="Group">
                <g>
                    <path d="M0.536470947,12.15582 C2.59487794,3.57576884 11.0013493,-1.65004138 19.3213989,0.472690835 C27.6414485,2.59542305 32.7089009,11.2645966 30.6504939,19.8446478 C28.5920869,28.416597 20.1856156,33.6505092 11.8655659,31.527777 C3.5533728,29.3969427 -1.52193605,20.7277692 0.536470947,12.15582" id="Shape" fill="#FF4B55"></path>
                    <g transform="translate(0.000000, 0.891139)" id="Shape">
                        <path d="M10.377476,0.0324050633 C5.64044496,1.77417722 1.81468354,5.84911392 0.518481013,11.2607595 C-1.41403913,19.321519 2.94591484,27.4632911 10.377476,30.1772152 L10.377476,0.0324050633 Z" fill="#73AF00"></path>
                        <path d="M20.7942309,0.0405063291 L20.7942309,30.1610127 C25.5155504,28.4111392 29.3334561,24.3443038 30.6296586,18.9407595 C32.5621787,10.8962025 28.2100806,2.76253165 20.7942309,0.0405063291" fill="#464655"></path>
                    </g>
                </g>
                <g transform="translate(10.762409, 11.746835)" fill="#F5F5F5">
                    <polygon id="Shape" points="6.44173379 5.84683544 3.14230917 5.84683544 3.32555882 5.34683544 6.25841253 5.34683544"></polygon>
                    <polygon id="Shape" points="6.44173379 2.67341772 3.14230917 2.67341772 3.32555882 3.17341772 6.25841253 3.17341772"></polygon>
                    <polygon id="Shape" points="5.73471423 3.01139241 3.92788646 3.01139241 4.28922378 2.51139241 5.37337691 2.51139241"></polygon>
                    <rect id="Rectangle-path" x="3.37798236" y="4.77974684" width="1" height="1"></rect>
                    <rect id="Rectangle-path" x="3.37798236" y="4.21265823" width="1" height="1"></rect>
                    <rect id="Rectangle-path" x="3.37798236" y="3.24050633" width="1" height="1"></rect>
                    <rect id="Rectangle-path" x="3.37798236" y="3.80759494" width="1" height="1"></rect>
                    <rect id="Rectangle-path" x="5.73471423" y="4.77974684" width="1" height="1"></rect>
                    <rect id="Rectangle-path" x="5.73471423" y="4.21265823" width="1" height="1"></rect>
                    <rect id="Rectangle-path" x="5.73471423" y="3.24050633" width="1" height="1"></rect>
                    <rect id="Rectangle-path" x="5.73471423" y="3.80759494" width="1" height="1"></rect>
                    <rect id="Rectangle-path" x="3.53509781" y="1.78227848" width="1" height="1"></rect>
                    <path d="M4.03500016,1.71518987 L3.53509781,1.71518987 L3.53509781,1.44175237 C3.53509781,1.31665472 3.63656266,1.21518987 3.76166031,1.21518987 L3.80853531,1.21518987 C3.93363297,1.21518987 4.03509781,1.31665472 4.03509781,1.44175237 L4.03509781,1.71518987 L4.03500016,1.71518987 Z" id="Shape"></path>
                    <rect id="Rectangle-path" x="5.73471423" y="1.78227848" width="1" height="1"></rect>
                    <path d="M6.23461657,1.71518987 L5.73471423,1.71518987 L5.73471423,1.44175237 C5.73471423,1.31665472 5.83617907,1.21518987 5.96127673,1.21518987 L6.00815173,1.21518987 C6.13324939,1.21518987 6.23471423,1.31665472 6.23471423,1.44175237 L6.23471423,1.71518987 L6.23461657,1.71518987 Z" id="Shape"></path>
                    <path d="M4.90127266,3.24050633 L4.76132803,3.24050633 C4.38777794,3.24050633 4.08500192,3.54288987 4.08500192,3.91595574 L4.08500192,5.10379747 L5.57759877,5.10379747 L5.57759877,3.91595574 C5.57759877,3.54296266 5.27482275,3.24050633 4.90127266,3.24050633 Z" id="Shape"></path>
                    <path d="M3.61365554,4.44826404 L2.59280792,3.24751387 C2.59947343,3.22816599 2.60504022,3.20815349 2.60504022,3.18651635 C2.60504022,3.08209687 2.52109882,2.99746835 2.41752713,2.99746835 C2.31395545,2.99746835 2.23001405,3.08209687 2.23001405,3.18651635 C2.23001405,3.29093583 2.31395545,3.37556435 2.41752713,3.37556435 C2.42880722,3.37556435 2.43862236,3.37105969 2.44931646,3.36913967 L2.55493907,3.49335011 L2.04250096,4.69875264 L2.60496698,5.26582278 L3.09059657,4.12341164 L3.47126279,4.57121909 L3.61365554,4.44826404 Z M2.70158016,4.84319712 L2.25279396,4.39073733 L2.45524949,3.91435114 L2.9040357,4.36688479 L2.70158016,4.84319712 Z" id="Shape"></path>
                    <path d="M6.19127129,4.57121909 L6.57195525,4.12341164 L7.05760749,5.26582278 L7.62009973,4.69875264 L7.10763773,3.49335011 L7.21326526,3.36913967 C7.22403312,3.37105969 7.23377546,3.37556435 7.24505607,3.37556435 C7.34863258,3.37556435 7.4325779,3.29093583 7.4325779,3.18651635 C7.4325779,3.08209687 7.34863258,2.99746835 7.24505607,2.99746835 C7.14147956,2.99746835 7.05753424,3.08209687 7.05753424,3.18651635 C7.05753424,3.20815349 7.0631013,3.22816599 7.06976711,3.24751387 L6.04894515,4.44826404 L6.19127129,4.57121909 Z M6.75859807,4.36681094 L7.2074052,3.9142773 L7.40987018,4.39066348 L6.96106305,4.84312328 L6.75859807,4.36681094 Z" id="Shape"></path>
                    <path d="M5.04245637,1.43716635 C4.98378167,1.41966521 4.93159399,1.38724749 4.89843003,1.33518714 C4.87627213,1.30040639 4.85382268,1.26082576 4.83130035,1.21518987 C4.80877801,1.2608996 4.78632856,1.30040639 4.76417066,1.33518714 C4.7310067,1.38724749 4.67881902,1.41966521 4.62014432,1.43716635 C4.31102706,1.52939809 4.08500192,1.81731768 4.08500192,2.16032525 C4.08500192,2.22597298 4.0958622,2.28859309 4.11138731,2.34936709 L5.55121338,2.34936709 C5.56673849,2.28859309 5.57759877,2.22597298 5.57759877,2.16032525 C5.57752588,1.81731768 5.35150074,1.52939809 5.04245637,1.43716635 Z" id="Shape"></path>
                    <path d="M0.628307523,4.25534885 C0.618738257,4.13500557 0.612555039,4.01367897 0.612555039,3.89083956 C0.612555039,3.64213516 0.634490741,3.39743967 0.673356682,3.15750951 C0.727680667,3.19616156 0.784580994,3.23867126 0.843689612,3.28640011 C0.816085961,3.48495518 0.800922355,3.68661149 0.800922355,3.8909152 C0.800922355,4.03410177 0.8080625,4.17554862 0.821533082,4.31510447 L1.21983537,4.43809515 C1.19495528,4.25882829 1.1777306,4.07714095 1.1777306,3.8909152 C1.1777306,3.79840745 1.18310411,3.70680738 1.19024425,3.61573679 C1.39826537,3.85279263 1.56241508,4.13916577 1.56241508,4.45564364 C1.56241508,4.46373712 2.16689824,3.53593656 1.06783126,2.51139241 L1.05995502,2.94700332 L0.426911283,2.94012007 C0.369863737,2.93951495 0.319735507,2.98111697 0.309724583,3.03883031 C0.261583815,3.31710997 0.235673188,3.60166774 0.235673188,3.89083956 C0.235673188,3.97306027 0.23773426,4.0547515 0.241709186,4.13598889 L0.628307523,4.25534885 Z" id="Shape"></path>
                    <path d="M2.28463007,0.344136543 C2.36571209,0.279421776 2.38063872,0.158700957 2.31803383,0.0746168042 C2.25528402,-0.00946734839 2.13891429,-0.0246325259 2.05783227,0.0400822415 C1.21839059,0.711779486 0.64233868,1.63460306 0.392788646,2.66831261 L0.775084227,2.67341772 C1.01579422,1.75855211 1.53634226,0.94293583 2.28463007,0.344136543 Z" id="Shape"></path>
                    <path d="M2.03497224,0.865606065 C1.62336106,1.2792306 1.3117876,1.76606638 1.09980821,2.29485638 C1.21685159,2.39348292 1.31274879,2.49324746 1.39237969,2.59240506 C1.58313896,2.05322135 1.88694897,1.55819198 2.29989102,1.14327771 C2.3745681,1.06816981 2.37582504,0.945265963 2.30270065,0.868640728 C2.22928052,0.791787892 2.10964932,0.790498161 2.03497224,0.865606065 Z" id="Shape"></path>
                    <path d="M1.33682885,6.3247716 C1.0592096,5.92026116 0.847045884,5.46658862 0.715403457,4.97934922 L0.93305227,5.06051865 C1.06900964,5.50513111 1.27524945,5.91862737 1.53955819,6.28704601 L1.952696,6.21025809 C1.71939637,5.91580538 1.52763723,5.58615202 1.38751118,5.23006103 L1.63178102,5.32118171 C1.77110259,5.63204654 1.94969748,5.91773622 2.16237313,6.17127003 L2.59240506,6.0912888 C2.42331768,5.91595391 2.27543935,5.71871143 2.14803874,5.50587374 L1.89894201,5.00006859 C1.82200433,4.84381928 1.68494993,4.72678083 1.52025063,4.67657906 L0.930858229,4.49671412 L0.794608317,4.45512685 L0.598461101,4.39527089 L0.208287574,4.27622734 L0,4.21265823 L0.128936444,4.60536086 C0.157239566,4.69158018 0.214504022,4.76346674 0.288955128,4.81077226 C0.408091524,5.3851964 0.629031398,5.92189494 0.932540327,6.4 L1.33682885,6.3247716 Z" id="Shape"></path>
                    <path d="M8.68121933,2.94700332 L8.67334325,2.51139241 C7.5742239,3.53593656 8.17876898,4.46373712 8.17876898,4.45564364 C8.17876898,4.13916577 8.34291552,3.85279263 8.55093262,3.61573679 C8.55814623,3.70688302 8.56344603,3.79840745 8.56344603,3.8909152 C8.56344603,4.07714095 8.54622169,4.25882829 8.52134208,4.43809515 L8.91963666,4.31510447 C8.93310698,4.17554862 8.94024699,4.03410177 8.94024699,3.8909152 C8.94024699,3.68661149 8.92501007,3.48495518 8.89748056,3.28640011 C8.95658804,3.23867126 9.01348726,3.1962372 9.0678102,3.15750951 C9.106749,3.39751531 9.12868427,3.6422108 9.12868427,3.89083956 C9.12868427,4.01367897 9.12250118,4.13500557 9.11293209,4.25534885 L9.49944935,4.13598889 C9.5034242,4.0547515 9.50548523,3.97306027 9.50548523,3.89083956 C9.50548523,3.60166774 9.4795015,3.31703433 9.43136166,3.03883031 C9.42135093,2.98111697 9.37122367,2.93951495 9.31417722,2.94012007 L8.68121933,2.94700332 Z" id="Shape"></path>
                    <path d="M8.96606009,2.67341772 L9.34836977,2.66831261 C9.09881053,1.63460306 8.52280983,0.711779486 7.68333718,0.0400822415 C7.60225216,-0.0246325259 7.48587814,-0.00946734839 7.42312602,0.0746168042 C7.36051882,0.158700957 7.375446,0.279346701 7.45653101,0.344136543 C8.20477397,0.942860755 8.72541368,1.75847704 8.96606009,2.67341772 Z" id="Shape"></path>
                    <path d="M8.64135021,2.2948517 C8.42936309,1.76605338 8.11777826,1.27920995 7.70615208,0.865578901 C7.63147228,0.790469816 7.51176278,0.791835435 7.43848784,0.868613612 C7.36528685,0.945240053 7.36661778,1.06814583 7.44129758,1.14325492 C7.85418075,1.55817571 8.15800184,2.05321287 8.348842,2.59240506 C8.42832793,2.4932459 8.52422862,2.39347979 8.64135021,2.2948517 Z" id="Shape"></path>
                    <path d="M9.45425174,4.2763016 L9.06410022,4.39534516 L8.86789094,4.45520112 L8.73164872,4.49678838 L8.14228957,4.67665332 C7.97752643,4.72685509 7.84047977,4.84389355 7.76361955,5.00014285 L7.51453688,5.505948 C7.38721659,5.7187857 7.2393466,5.91602817 7.07019563,6.09136306 L7.50020329,6.17134429 C7.71286695,5.91781048 7.89145177,5.6321208 8.03076547,5.32125597 L8.27502153,5.2301353 C8.13490339,5.58615202 7.94315507,5.91587964 7.7098686,6.21033235 L8.12305624,6.28712027 C8.38735006,5.91862737 8.5935051,5.50513111 8.72952793,5.06059292 L8.94709134,4.97942348 C8.81545634,5.46666288 8.60330459,5.92033542 8.325701,6.32484587 L8.73011298,6.4 C9.03360478,5.92189494 9.25453219,5.3851964 9.37366187,4.81077226 C9.44810877,4.76346674 9.50537,4.69158018 9.53367152,4.60536086 L9.66260069,4.21265823 L9.45425174,4.2763016 Z" id="Shape"></path>
                    <path d="M6.74783538,6.41839759 L6.73835221,6.42710499 C6.20327131,6.85480937 5.53887442,7.10598429 4.83130035,7.10598429 C4.12372627,7.10598429 3.45925753,6.85480937 2.92424849,6.42710499 L2.91476531,6.41839759 C2.84536572,6.3392868 2.74090713,6.30386183 2.63975327,6.32499774 L0.785577292,6.72494263 L1.19701771,7.09854207 C1.30700816,7.19841666 1.4484655,7.24507938 1.58906074,7.23652082 C1.92018155,7.57811872 2.30044245,7.86843971 2.71863604,8.0940134 L2.59815663,8.3243501 C3.26248168,8.69861934 4.02336268,8.91139241 4.83130035,8.91139241 C5.63923801,8.91139241 6.40004717,8.69861934 7.06444406,8.3243501 L6.94396465,8.0940134 C7.3620864,7.86843971 7.74241914,7.57811872 8.07353996,7.23652082 C8.21413519,7.24507938 8.35559253,7.19841666 8.46558298,7.09854207 L8.8770234,6.72494263 L7.02284742,6.32499774 C6.92169356,6.30386183 6.81723497,6.3392868 6.74783538,6.41839759 Z M2.89436212,7.7577739 C2.5610142,7.57804429 2.25582842,7.35120543 1.98124744,7.0902812 L2.15977537,7.0020909 C2.40921157,7.23071589 2.68350519,7.43091161 2.98150674,7.5911426 L2.89436212,7.7577739 Z M7.68120956,7.0902812 C7.40662858,7.35120543 7.10144281,7.57811872 6.76809489,7.7577739 L6.68095027,7.5911426 C6.97902366,7.43091161 7.25324543,7.23071589 7.50268164,7.0020909 L7.68120956,7.0902812 Z M4.8312285,7.67747235 C3.9553281,7.67747235 3.15270676,7.35559634 2.52085439,6.82362647 L2.70441128,6.73298023 C3.30106095,7.20905903 4.04254456,7.48695152 4.8312285,7.48695152 C5.61991245,7.48695152 6.36139605,7.20905903 6.95804573,6.73298023 L7.14160261,6.82362647 C6.50975025,7.35559634 5.70720075,7.67747235 4.8312285,7.67747235 Z" id="Shape"></path>
                    <path d="M2.82807825,6.15718577 C2.90799525,6.24800608 2.99089368,6.33384593 3.07728257,6.41392405 L6.66387585,6.41392405 C6.75026474,6.33394358 6.83323589,6.24800608 6.91308017,6.15718577 L6.73193983,5.91392405 L3.00914587,5.91392405 L2.82807825,6.15718577 Z" id="Shape"></path>
                </g>
            </g>
        </g>
    </g>
</svg>