<?xml version="1.0" encoding="UTF-8"?>
<svg width="32px" height="32px" viewBox="0 0 32 32" version="1.1" xmlns="http://www.w3.org/2000/svg" xmlns:xlink="http://www.w3.org/1999/xlink">
    <!-- Generator: Sketch 50.2 (55047) - http://www.bohemiancoding.com/sketch -->
    <title>albania@1x</title>
    <desc>Created with Sketch.</desc>
    <defs></defs>
    <g id="flags" stroke="none" stroke-width="1" fill="none" fill-rule="evenodd">
        <g id="albania" fill-rule="nonzero">
            <g id="Group">
                <path d="M0.549494949,12.1777778 C2.66666667,3.62020202 11.3131313,-1.59191919 19.8707071,0.525252525 C28.4282828,2.64242424 33.640404,11.2888889 31.5232323,19.8464646 C29.4060606,28.3959596 20.759596,33.6161616 12.2020202,31.4989899 C3.65252525,29.3818182 -1.56767677,20.7353535 0.549494949,12.1777778" id="Shape" fill="#EF3827"></path>
                <path d="M15.9434343,28.0888889 C15.5636364,27.6282828 14.9818182,27.1272727 15.1434343,26.4565657 L15.5232323,25.8666667 L15.5555556,25.3494949 C15.2646465,25.6646465 14.9979798,26.0444444 14.569697,26.1979798 C14.2787879,26.3191919 13.9474747,26.230303 13.7131313,26.0363636 L13.6888889,25.7212121 C13.9959596,25.5111111 14.4323232,25.559596 14.6828283,25.2606061 C14.9494949,24.9858586 15.0060606,24.589899 14.9575758,24.2262626 C14.5050505,24.4525253 14.2060606,25.010101 13.6565657,25.0262626 C13.2606061,25.1232323 12.8242424,24.8646465 12.7757576,24.4525253 C13.179798,24.210101 13.6727273,24.2424242 14.1010101,24.0565657 C14.359596,23.9272727 14.4646465,23.620202 14.4,23.3454545 C14.0121212,23.4909091 13.6646465,23.8383838 13.220202,23.7494949 C12.8646465,23.789899 12.5010101,23.4989899 12.5252525,23.1353535 C12.7919192,23.0787879 13.0505051,23.0464646 13.3171717,22.9979798 C13.810101,22.8767677 14.1979798,22.5050505 14.4888889,22.1010101 C14.9010101,21.4868687 15.1919192,20.7757576 15.2484848,20.040404 L15.0707071,19.5151515 C14.7151515,19.4666667 14.5535354,19.8222222 14.3676768,20.040404 C13.9313131,20.6868687 13.5272727,21.3737374 13.2848485,22.1252525 C12.9212121,22.1252525 12.6222222,21.9313131 12.3232323,21.7373737 L11.7737374,21.8020202 C11.2727273,22.020202 10.7555556,22.1818182 10.2545455,22.4 L10.8121212,22.6262626 L11.4424242,22.7070707 L11.8141414,23.0868687 L11.8626263,23.6363636 L11.6121212,23.3777778 C11.5151515,23.2727273 11.3777778,23.2888889 11.240404,23.3131313 C11.0949495,23.3292929 10.9494949,23.3535354 10.8525253,23.2242424 C10.6181818,22.9090909 10.2464646,22.7636364 9.8989899,22.6262626 L9.56767677,22.6020202 C9.25252525,22.7636364 8.93737374,22.9414141 8.69494949,23.2161616 L8.32323232,23.6444444 L7.77373737,23.7333333 L7.47474747,24.2989899 C7.25656566,23.9676768 7.41818182,23.5636364 7.51515152,23.2161616 C7.5959596,22.9010101 7.95959596,22.9010101 8.22626263,22.8767677 C8.58989899,22.9090909 8.88888889,22.6505051 9.15555556,22.4565657 C8.54141414,22.4565657 7.93535354,22.4969697 7.32929293,22.5777778 L6.74747475,22.3676768 L6.10909091,22.4080808 L6.44848485,22.0363636 C6.68282828,21.9555556 6.94141414,21.9232323 7.19191919,21.8585859 C7.48282828,21.7777778 7.70909091,22.0282828 7.97575758,22.0848485 C8.37979798,22.1575758 8.79191919,22.1656566 9.2040404,22.1575758 C8.86464646,21.8828283 8.49292929,21.6242424 8.04040404,21.6080808 C7.7979798,21.6 7.7010101,21.3414141 7.49090909,21.2686869 L6.89292929,21.220202 L7.19191919,20.8484848 C7.32929293,20.8323232 7.45858586,20.8484848 7.5959596,20.8646465 C7.71717172,20.8808081 7.84646465,20.8969697 7.97575758,20.8888889 L8.57373737,21.0909091 C8.83232323,21.5353535 9.27676768,21.8020202 9.71313131,22.0363636 L10.0121212,21.9959596 C10.6020202,21.7616162 11.1838384,21.5434343 11.7494949,21.2686869 L11.3212121,20.7353535 C12.0323232,20.3636364 12.7757576,19.9515152 13.2282828,19.2727273 C13.4707071,18.9090909 13.7373737,18.4969697 13.6808081,18.0525253 C13.3494949,18.5373737 13.0909091,19.1757576 12.4606061,19.3373737 L12.1454545,18.989899 C12.2747475,18.779798 12.4767677,18.6262626 12.5656566,18.3919192 C12.6949495,18.1575758 12.6949495,17.8747475 12.7272727,17.6161616 L12.3151515,17.6646465 C12.1292929,17.979798 12.0484848,18.3515152 11.8707071,18.6666667 C11.6121212,19.1353535 11.369697,19.6767677 10.8767677,19.9272727 C10.6020202,20.0161616 10.0686869,19.8545455 10.1979798,19.4666667 C10.4808081,19.1515152 10.9171717,18.9737374 11.1111111,18.569697 C11.3212121,18.1656566 11.6121212,17.6565657 11.3373737,17.220202 C10.9171717,17.5838384 10.6989899,18.1171717 10.3191919,18.5212121 C9.81818182,19.0787879 9.38989899,19.7333333 8.69494949,20.0646465 C8.36363636,20.2181818 7.99191919,20.3393939 7.62828283,20.2666667 C7.28080808,20.2262626 6.92525253,20.040404 6.76363636,19.7252525 L6.95757576,19.3454545 C7.21616162,19.2484848 7.47474747,19.3535354 7.73333333,19.3616162 C8.16969697,19.4020202 8.58181818,19.1838384 8.90505051,18.9252525 C9.55151515,18.3272727 9.9959596,17.5434343 10.2949495,16.7353535 L10.1737374,16.589899 C9.6969697,17.1151515 9.22020202,17.6565657 8.60606061,18.020202 C8.2020202,18.2626263 7.70909091,18.4484848 7.23232323,18.3191919 C6.86868687,18.2464646 6.46464646,17.9878788 6.46464646,17.5838384 C6.4969697,17.3333333 6.7959596,17.3171717 6.98989899,17.3494949 C7.47474747,17.4060606 8.00808081,17.4545455 8.44444444,17.2040404 C9.01010101,16.8888889 9.3979798,16.3555556 9.78585859,15.8545455 C9.96363636,15.5717172 10.2464646,15.3050505 10.2060606,14.9414141 C9.58383838,15.2646465 9.13131313,15.8383838 8.50909091,16.169697 C8.04040404,16.4929293 7.4020202,16.5818182 6.87676768,16.3474747 C6.62626263,16.2424242 6.44040404,15.959596 6.48080808,15.6848485 L6.75555556,15.2969697 C7.28080808,15.3212121 7.80606061,15.5636364 8.33131313,15.410101 C8.90505051,15.2 9.34141414,14.7555556 9.72929293,14.3030303 L9.95555556,13.769697 C9.34141414,13.8989899 8.80808081,14.2707071 8.24242424,14.5292929 C7.91919192,14.6747475 7.55555556,14.6828283 7.20808081,14.6424242 C6.83636364,14.5939394 6.48888889,14.3030303 6.44040404,13.9232323 L6.71515152,13.5272727 C6.96565657,13.4787879 7.17575758,13.5757576 7.39393939,13.6727273 C7.5959596,13.7616162 7.7979798,13.8585859 8.03232323,13.8181818 C8.84848485,13.8020202 9.75353535,13.3818182 10.0606061,12.5737374 L9.94747475,12.4525253 C9.52727273,12.5252525 9.14747475,12.7515152 8.73535354,12.8646465 C7.93535354,13.0181818 7.03030303,12.8484848 6.45656566,12.2424242 L6.53737374,11.5959596 C6.90909091,11.5313131 7.22424242,11.789899 7.54747475,11.9353535 C8.12121212,12.2424242 8.88888889,12.3070707 9.43838384,11.8949495 C9.75353535,11.6767677 10.1090909,11.369697 10.0929293,10.9494949 C9.61616162,11.0222222 9.2040404,11.2888889 8.72727273,11.3535354 C8.15353535,11.410101 7.51515152,11.3939394 7.02222222,11.0545455 C6.63434343,10.8121212 6.26262626,10.3838384 6.36767677,9.89090909 L6.87676768,9.70505051 C7.11919192,9.88282828 7.28888889,10.1575758 7.55555556,10.3111111 C7.96767677,10.610101 8.50909091,10.6505051 9.0020202,10.610101 C9.32525253,10.569697 9.73737374,10.6343434 9.93939394,10.3111111 L9.59191919,9.85050505 C8.63030303,9.68888889 7.69292929,9.33333333 6.9010101,8.75151515 C6.6020202,8.54141414 6.34343434,8.25858586 6.25454545,7.9030303 C6.18181818,7.56363636 6.39191919,7.12727273 6.76363636,7.11111111 C7.00606061,7.11111111 7.15151515,7.33737374 7.25656566,7.52323232 C7.84646465,8.50909091 8.96161616,9.04242424 10.0525253,9.26868687 L10.2787879,8.75151515 C10.8525253,9.01818182 11.4505051,9.22020202 12.040404,9.43838384 C12.2747475,9.53535354 12.5333333,9.64040404 12.6707071,9.86666667 C13.010101,10.2868687 12.7515152,10.8686869 12.9050505,11.3535354 L13.3979798,11.7010101 C13.7616162,11.7414141 14.1171717,11.4747475 14.1575758,11.1030303 C14.2222222,10.230303 13.7858586,9.29292929 12.9858586,8.90505051 C12.5090909,8.61414141 11.9353535,8.58181818 11.3939394,8.49292929 C11.030303,8.46868687 10.9252525,7.96767677 10.5616162,7.94343434 C10.2626263,7.91919192 9.94747475,7.83838384 9.72929293,7.62020202 L9.51111111,7.24040404 L9.79393939,7.16767677 C10.0282828,7.32121212 10.1575758,7.6040404 10.4161616,7.73333333 C10.7393939,7.83838384 11.0787879,7.85454545 11.410101,7.78181818 L11.410101,7.56363636 L11.0141414,7.47474747 L10.5616162,7.74141414 L10.7636364,7.15959596 C11.0222222,7.01414141 11.3454545,7.03838384 11.6282828,6.98181818 C11.8626263,6.98181818 12.0323232,6.78787879 12.2505051,6.75555556 C12.6949495,6.71515152 13.1232323,6.86868687 13.5272727,7.05454545 C14.0121212,7.32121212 14.5858586,7.1030303 15.1030303,7.07070707 C14.9333333,7.33737374 14.6747475,7.53131313 14.3757576,7.66060606 L14.3434343,7.77373737 C14.6020202,7.95959596 14.8848485,8.10505051 15.1757576,8.24242424 L14.7232323,8.51717172 C14.9171717,8.8 15.2323232,8.95353535 15.5555556,9.02626263 L15.1272727,9.26060606 L15.4424242,9.55151515 L15.8464646,9.6 L15.6929293,9.9959596 L15.9838384,10.0121212 L16.2585859,9.9959596 L16.1050505,9.6 L16.5010101,9.55151515 L16.8161616,9.26060606 L16.3878788,9.02626263 C16.7191919,8.95353535 17.0343434,8.8 17.2282828,8.51717172 L16.7757576,8.24242424 C17.0666667,8.10505051 17.3494949,7.96767677 17.6080808,7.77373737 L17.5757576,7.66060606 C17.2848485,7.53939394 17.0262626,7.34545455 16.8565657,7.07070707 C17.3818182,7.11111111 17.9474747,7.32929293 18.4323232,7.05454545 C18.8363636,6.86868687 19.2646465,6.71515152 19.7090909,6.75555556 C19.9353535,6.78787879 20.0969697,6.98181818 20.3313131,6.98181818 C20.6141414,7.04646465 20.9373737,7.01414141 21.1959596,7.15959596 L21.3979798,7.74141414 L20.9454545,7.47474747 L20.5494949,7.56363636 L20.5494949,7.78181818 C20.8808081,7.85454545 21.220202,7.83030303 21.5434343,7.73333333 C21.8020202,7.6040404 21.9313131,7.32121212 22.1656566,7.16767677 L22.4484848,7.24040404 L22.230303,7.62020202 C22.0121212,7.83838384 21.6969697,7.91919192 21.3979798,7.94343434 C21.0343434,7.96767677 20.9292929,8.46060606 20.5656566,8.49292929 C20.0242424,8.58181818 19.4505051,8.61414141 18.9737374,8.90505051 C18.1737374,9.29292929 17.7373737,10.2383838 17.8020202,11.1030303 C17.8424242,11.4747475 18.189899,11.7414141 18.5616162,11.7010101 L19.0545455,11.3535354 C19.2080808,10.8767677 18.9494949,10.2868687 19.2888889,9.86666667 C19.4262626,9.64040404 19.6848485,9.53535354 19.9191919,9.43838384 C20.5090909,9.22020202 21.1070707,9.01818182 21.6808081,8.75151515 L21.9070707,9.26868687 C22.9979798,9.04242424 24.1131313,8.50909091 24.7030303,7.52323232 C24.8161616,7.33737374 24.9535354,7.11111111 25.1959596,7.11111111 C25.5676768,7.12727273 25.7777778,7.57171717 25.7050505,7.9030303 C25.6080808,8.25858586 25.3414141,8.54141414 25.0505051,8.75151515 C24.2585859,9.33333333 23.3212121,9.68888889 22.359596,9.85050505 L22.0121212,10.3111111 C22.2141414,10.6343434 22.6343434,10.569697 22.9494949,10.610101 C23.4424242,10.6424242 23.9838384,10.610101 24.3959596,10.3111111 C24.6626263,10.1575758 24.8242424,9.88282828 25.0666667,9.70505051 L25.5757576,9.89090909 C25.6888889,10.3838384 25.3171717,10.8121212 24.9212121,11.0545455 C24.4282828,11.3939394 23.789899,11.410101 23.2161616,11.3535354 C22.7393939,11.2969697 22.3272727,11.0222222 21.8505051,10.9494949 C21.8343434,11.369697 22.189899,11.6767677 22.5050505,11.8949495 C23.0545455,12.3070707 23.8141414,12.2343434 24.3959596,11.9353535 C24.7191919,11.789899 25.0343434,11.5232323 25.4060606,11.5959596 L25.4868687,12.2424242 C24.9131313,12.8565657 24.0080808,13.0262626 23.2080808,12.8646465 C22.7959596,12.7515152 22.4161616,12.5171717 21.9959596,12.4525253 L21.8828283,12.5737374 C22.189899,13.3818182 23.0949495,13.8020202 23.9191919,13.8181818 C24.1535354,13.8505051 24.3555556,13.7616162 24.5575758,13.6727273 C24.7676768,13.5757576 24.9858586,13.4787879 25.2363636,13.5272727 L25.5111111,13.9232323 C25.4626263,14.3030303 25.1070707,14.5939394 24.7353535,14.6424242 C24.3878788,14.6828283 24.0242424,14.6747475 23.7010101,14.5292929 C23.1353535,14.2626263 22.6020202,13.8989899 21.9878788,13.769697 L22.2141414,14.3030303 C22.6020202,14.7555556 23.0383838,15.2 23.6121212,15.410101 C24.1454545,15.5636364 24.6707071,15.3212121 25.1959596,15.2969697 L25.4707071,15.6848485 C25.5111111,15.959596 25.3252525,16.2424242 25.0747475,16.3474747 C24.5494949,16.589899 23.9111111,16.5010101 23.4424242,16.169697 C22.820202,15.8383838 22.3676768,15.2646465 21.7454545,14.9414141 C21.6969697,15.3050505 21.9878788,15.5717172 22.1656566,15.8545455 C22.5535354,16.3555556 22.9414141,16.8808081 23.5070707,17.2040404 C23.9515152,17.4464646 24.4848485,17.3979798 24.9616162,17.3494949 C25.1474747,17.3252525 25.4626263,17.3333333 25.4868687,17.5838384 C25.4868687,17.9878788 25.0828283,18.2545455 24.7191919,18.3191919 C24.2424242,18.4484848 23.7575758,18.2626263 23.3454545,18.020202 C22.7313131,17.6565657 22.2545455,17.1151515 21.7777778,16.589899 L21.6565657,16.7353535 C21.9636364,17.5434343 22.4,18.3272727 23.0464646,18.9252525 C23.3777778,19.1838384 23.7818182,19.4020202 24.2262626,19.3616162 C24.4848485,19.3535354 24.7434343,19.2484848 25.0020202,19.3454545 L25.2040404,19.7252525 C25.0343434,20.040404 24.6868687,20.2262626 24.3313131,20.2666667 C23.9676768,20.3313131 23.5959596,20.2181818 23.2646465,20.0646465 C22.569697,19.7333333 22.1333333,19.0787879 21.640404,18.5212121 C21.2606061,18.1171717 21.0424242,17.5838384 20.6141414,17.220202 C20.3393939,17.6565657 20.630303,18.1737374 20.840404,18.569697 C21.0262626,18.9818182 21.4707071,19.1515152 21.7535354,19.4666667 C21.8747475,19.8464646 21.3494949,20.0161616 21.0666667,19.9272727 C20.5737374,19.6767677 20.3313131,19.1353535 20.0727273,18.6666667 C19.8949495,18.3434343 19.8141414,17.9717172 19.6282828,17.6646465 L19.2161616,17.6161616 C19.2484848,17.8828283 19.2484848,18.1575758 19.3777778,18.3919192 C19.4585859,18.6262626 19.6686869,18.779798 19.7979798,18.989899 L19.4828283,19.3373737 C18.8525253,19.1757576 18.5939394,18.5373737 18.2626263,18.0525253 C18.2060606,18.5050505 18.4808081,18.9090909 18.7151515,19.2727273 C19.1676768,19.959596 19.9111111,20.3636364 20.6222222,20.7353535 L20.1939394,21.2686869 C20.759596,21.5515152 21.3494949,21.7616162 21.9313131,21.9959596 L22.230303,22.0363636 C22.6666667,21.810101 23.1111111,21.5353535 23.369697,21.0909091 L23.9676768,20.8888889 C24.0969697,20.8969697 24.2181818,20.8808081 24.3393939,20.8646465 C24.4767677,20.8484848 24.6141414,20.8323232 24.7515152,20.8484848 L25.0424242,21.220202 L24.4444444,21.2686869 C24.2343434,21.3414141 24.1373737,21.6 23.8949495,21.6080808 C23.4505051,21.6323232 23.0787879,21.8828283 22.7393939,22.1575758 C23.1515152,22.1737374 23.5636364,22.1575758 23.9676768,22.0848485 C24.2343434,22.0282828 24.4606061,21.7858586 24.7515152,21.8585859 C25.0020202,21.9232323 25.2525253,21.9555556 25.4949495,22.0363636 L25.8262626,22.4080808 L25.1878788,22.3676768 C24.9939394,22.440404 24.8323232,22.6262626 24.6060606,22.5777778 C24,22.4969697 23.3939394,22.4565657 22.779798,22.4565657 C23.0545455,22.6585859 23.3454545,22.9090909 23.7090909,22.8767677 C23.9757576,22.9010101 24.3393939,22.9010101 24.420202,23.2161616 C24.5171717,23.5636364 24.6787879,23.9676768 24.4606061,24.2989899 L24.1616162,23.7333333 L23.6121212,23.6444444 L23.240404,23.2161616 C22.9979798,22.9494949 22.6828283,22.7717172 22.3676768,22.6020202 L22.0363636,22.6262626 C21.6888889,22.7636364 21.3171717,22.9090909 21.0828283,23.2242424 C20.9858586,23.3454545 20.840404,23.3292929 20.6949495,23.3131313 C20.5575758,23.2969697 20.420202,23.2727273 20.3232323,23.3777778 L20.0646465,23.6363636 L20.1212121,23.0868687 L20.4929293,22.7070707 L21.1232323,22.6262626 L21.6727273,22.4 C21.179798,22.1737374 20.6545455,22.020202 20.1535354,21.8020202 L19.6040404,21.7373737 C19.3050505,21.9313131 19.0060606,22.1252525 18.6424242,22.1252525 C18.4,21.3737374 17.9959596,20.6868687 17.5515152,20.040404 C17.3737374,19.8222222 17.2121212,19.4585859 16.8565657,19.5151515 L16.6787879,20.040404 C16.7353535,20.7757576 17.0262626,21.4868687 17.4383838,22.1010101 C17.7292929,22.4969697 18.1171717,22.8686869 18.610101,22.9979798 C18.8686869,23.0464646 19.1353535,23.0787879 19.4020202,23.1353535 C19.4262626,23.4989899 19.0545455,23.789899 18.7070707,23.7494949 C18.2626263,23.830303 17.9151515,23.4909091 17.5272727,23.3454545 C17.4626263,23.6282828 17.559596,23.9272727 17.8262626,24.0565657 C18.2464646,24.2424242 18.7393939,24.2181818 19.1515152,24.4525253 C19.1030303,24.8646465 18.6585859,25.1232323 18.2707071,25.0262626 C17.7131313,25.0020202 17.4141414,24.4525253 16.9616162,24.2262626 C16.9212121,24.589899 16.969697,24.9858586 17.2444444,25.2606061 C17.4949495,25.5515152 17.9313131,25.5111111 18.2383838,25.7212121 L18.2141414,26.0363636 C17.9878788,26.2383838 17.6484848,26.3191919 17.3575758,26.1979798 C16.9292929,26.0444444 16.6707071,25.6646465 16.3717172,25.3494949 L16.4040404,25.8666667 L16.7838384,26.4565657 C16.9050505,27.1272727 16.3313131,27.6363636 15.9434343,28.0888889" id="Shape" fill="#2D2B22"></path>
            </g>
        </g>
    </g>
</svg>