<?xml version="1.0" encoding="UTF-8"?>
<svg width="32px" height="32px" viewBox="0 0 32 32" version="1.1" xmlns="http://www.w3.org/2000/svg" xmlns:xlink="http://www.w3.org/1999/xlink">
    <!-- Generator: Sketch 50.2 (55047) - http://www.bohemiancoding.com/sketch -->
    <title>american-samoa@1x</title>
    <desc>Created with Sketch.</desc>
    <defs></defs>
    <g id="flags" stroke="none" stroke-width="1" fill="none" fill-rule="evenodd">
        <g id="american-samoa" fill-rule="nonzero">
            <circle id="Oval" fill="#F0F0F0" cx="16" cy="16" r="16"></circle>
            <g id="Group" fill="#0052B4">
                <path d="M23.76225,2.007 C21.46325,0.729 18.816875,0 16,0 C7.164125,0 0.001125,7.162375 0,15.998125 L11.1304375,10.4348125 L23.76225,2.007 Z" id="Shape"></path>
                <path d="M0,16.001875 C0.001125,24.837625 7.164125,32 16,32 C18.816875,32 21.46325,31.271125 23.76225,29.993 L11.1304375,21.5651875 L0,16.001875 Z" id="Shape"></path>
            </g>
            <path d="M25.095625,2.836375 C24.665875,2.5389375 24.2205625,2.2623125 23.7616875,2.00725 L0,15.998125 C0,15.99875 0,15.999375 0,16 C0,16.000625 0,16.0013125 0,16.001875 L23.76175,29.9926875 C24.220625,29.7375625 24.665875,29.461 25.0956875,29.1635625 L2.738875,16 L25.095625,2.836375 Z" id="Shape" fill="#D80027"></path>
            <path d="M27.8260625,15.4033125 L25.9201875,15.4033125 C26.41575,14.8083125 26.3851875,13.923125 25.826875,13.3649375 C26.41825,12.773625 26.41825,11.8148125 25.826875,11.223375 L25.79125,11.259125 C26.3825625,10.6678125 26.41825,9.67325 25.826875,9.0819375 L17.260875,17.6479375 C17.85225,18.239375 18.79425,18.2323125 19.3855625,17.6409375 L19.5504375,17.49025 L23.6521875,17.117375 L23.6521875,18.8815 L25.0435,18.8815 L25.0435,16.990875 L27.1304375,16.8011875 L27.8260625,15.4033125 Z" id="Shape" fill="#A2001D"></path>
            <polygon id="Shape" fill="#FFDA44" points="17.3918125 19.47825 16 18.782625 17.3918125 18.0869375 26.43525 18.0869375 26.43525 19.47825"></polygon>
        </g>
    </g>
</svg>