<?xml version="1.0" encoding="UTF-8"?>
<svg width="32px" height="32px" viewBox="0 0 32 32" version="1.1" xmlns="http://www.w3.org/2000/svg" xmlns:xlink="http://www.w3.org/1999/xlink">
    <!-- Generator: Sketch 50.2 (55047) - http://www.bohemiancoding.com/sketch -->
    <title>andorra@1x</title>
    <desc>Created with Sketch.</desc>
    <defs></defs>
    <g id="flags" stroke="none" stroke-width="1" fill="none" fill-rule="evenodd">
        <g id="andorra" fill-rule="nonzero">
            <path d="M9.0435,30.412375 C11.147,31.4295 13.5068125,32 16,32 C18.4931875,32 20.853,31.4295 22.9565,30.412375 L24.3478125,16 L22.9565,1.587625 C20.853,0.5705 18.4931875,0 16,0 C13.5068125,0 11.147,0.5705 9.0435,1.587625 L7.6521875,16 L9.0435,30.412375 Z" id="Shape" fill="#FFDA44"></path>
            <path d="M22.9565,30.4118125 C28.3084375,27.8239375 32,22.3433125 32,16 C32,9.6566875 28.3084375,4.1760625 22.9565,1.5881875 L22.9565,30.4118125 Z" id="Shape" fill="#D80027"></path>
            <path d="M9.0435,30.4118125 L9.0435,1.5881875 C3.6915625,4.1760625 0,9.656625 0,16 C0,22.343375 3.6915625,27.8239375 9.0435,30.4118125 Z" id="Shape" fill="#0052B4"></path>
            <g id="Group" transform="translate(11.812500, 11.812500)" fill="#D80027">
                <path d="M4.1875,9.7526875 C4.1875,7.1995 4.1875,4.1875 4.1875,4.1875 L8.3614375,4.1875 L8.3614375,6.2744375 C8.3614375,6.637 7.6658125,7.9655 5.94875,9.0570625 C5.2984375,9.4705625 4.62525,9.6035625 4.1875,9.7526875 Z" id="Shape"></path>
                <rect id="Rectangle-path" x="0.0135625" y="0.0135625" width="4.1739375" height="4.1739375"></rect>
            </g>
            <path d="M18.0869375,10.4348125 C18.0869375,9.666375 17.464,9.0435 16.695625,9.0435 C16.441875,9.0435 16.20475,9.1125 16,9.231125 C15.7951875,9.1125 15.558125,9.0435 15.304375,9.0435 C14.536,9.0435 13.9130625,9.666375 13.9130625,10.4348125 L10.4348125,10.4348125 L10.4348125,17.39125 C10.4348125,19.981 12.4914375,21.4786875 14.10425,22.2550625 C13.9835625,22.4611875 13.9130625,22.700375 13.9130625,22.9565625 C13.9130625,23.725 14.536,24.347875 15.304375,24.347875 C15.558125,24.347875 15.79525,24.278875 16,24.16025 C16.2048125,24.278875 16.441875,24.347875 16.695625,24.347875 C17.464,24.347875 18.0869375,23.725 18.0869375,22.9565625 C18.0869375,22.700375 18.0164375,22.4611875 17.8956875,22.2550625 C19.5085,21.4786875 21.5651875,19.9810625 21.5651875,17.39125 L21.5651875,10.4348125 L18.0869375,10.4348125 Z M19.47825,17.39125 C19.47825,17.7538125 19.47825,18.857 17.76125,19.948625 C17.110875,20.362125 16.43775,20.63025 16,20.7793125 C15.56225,20.63025 14.889125,20.362125 14.23875,19.948625 C12.52175,18.857 12.52175,17.7538125 12.52175,17.39125 L12.52175,12.52175 L19.47825,12.52175 L19.47825,17.39125 Z" id="Shape" fill="#FF9811"></path>
        </g>
    </g>
</svg>