<?xml version="1.0" encoding="UTF-8"?>
<svg width="32px" height="32px" viewBox="0 0 32 32" version="1.1" xmlns="http://www.w3.org/2000/svg" xmlns:xlink="http://www.w3.org/1999/xlink">
    <!-- Generator: Sketch 50.2 (55047) - http://www.bohemiancoding.com/sketch -->
    <title>angola@1x</title>
    <desc>Created with Sketch.</desc>
    <defs></defs>
    <g id="flags" stroke="none" stroke-width="1" fill="none" fill-rule="evenodd">
        <g id="angola" fill-rule="nonzero">
            <path d="M0,16 C0,7.1635 7.1635,0 16,0 C24.8365,0 32,7.1635 32,16 C31.304375,16 16,18.0869375 16,18.0869375 L0,16 Z" id="Shape" fill="#D80027"></path>
            <path d="M32,16 C32,24.8365 24.8365,32 16,32 C7.1635,32 0,24.8365 0,16" id="Shape" fill="#000000"></path>
            <g id="Group" transform="translate(9.312500, 8.000000)" fill="#FFDA44">
                <polygon id="Shape" points="4.493625 4.72575 5.85 5.710125 5.333125 7.304375 6.6885 6.318375 8.045 7.30275 7.526125 5.709 8.881375 4.723125 7.2054375 4.724125 6.6865 3.1304375 6.1695625 4.7246875"></polygon>
                <path d="M10.6875,1.0718125 C9.4266875,0.343875 8.048125,0.0003125 6.6875,0.0026875 L6.6875,2.0891875 C7.6931875,2.087375 8.7120625,2.341125 9.644,2.87925 C12.467625,4.5095 13.4385625,8.133 11.80825,10.956625 C10.1780625,13.78025 6.554625,14.7511875 3.7309375,13.1209375 C2.9083125,12.646 2.24425,12.001125 1.75475,11.2569375 L0.0125,12.4071875 C0.6748125,13.414 1.5745625,14.2856875 2.6875,14.9281875 C6.50775,17.1338125 11.4100625,15.82025 13.615625,12 C15.82125,8.17975 14.50775,3.2774375 10.6875,1.0718125 Z" id="Shape"></path>
                <path d="M2.074375,6.6086875 C1.52125,7.619875 1.892625,8.8880625 2.90375,9.4411875 L9.6818125,13.1449375 C9.220875,13.9875 9.4656875,15.0130625 10.30825,15.474 L12.1391875,16.4755625 C12.98175,16.9365625 14.0386875,16.6270625 14.499625,15.7844375 L15.5011875,13.9535625 L2.074375,6.6086875 Z" id="Shape"></path>
            </g>
        </g>
    </g>
</svg>