<?xml version="1.0" encoding="UTF-8"?>
<svg width="32px" height="32px" viewBox="0 0 32 32" version="1.1" xmlns="http://www.w3.org/2000/svg" xmlns:xlink="http://www.w3.org/1999/xlink">
    <!-- Generator: Sketch 50.2 (55047) - http://www.bohemiancoding.com/sketch -->
    <title>anguilla@1x</title>
    <desc>Created with Sketch.</desc>
    <defs></defs>
    <g id="flags" stroke="none" stroke-width="1" fill="none" fill-rule="evenodd">
        <g id="anguilla">
            <path d="M32,16 C32,24.8365 24.8365,32 16,32 C7.1635,32 0,24.8365 0,16 C0,16.0038125 16,0.00175 16,0 C24.8365,0 32,7.1635 32,16 Z" id="Shape" fill="#0052B4" fill-rule="nonzero"></path>
            <g id="Group" fill="#F0F0F0" fill-rule="nonzero">
                <path d="M16.0188125,0 C16.0108125,0 16.0048125,0 15.9973125,0 L16.0188125,0 Z" id="Shape"></path>
                <path d="M15.9571875,16.2996875 L16.2996875,16.2996875 C16.2996875,16.1846875 16.2996875,16.0726875 16.2996875,15.9571875 C16.1856875,16.0716875 16.0716875,16.1856875 15.9571875,16.2996875 Z" id="Shape"></path>
                <path d="M16,8.3478125 C16,5.5325 16,3.6878125 16.0000625,0 L15.9973125,0 C7.1619375,0.0015 0,7.1643125 0,16 L8.3478125,16 L8.3478125,11.2993125 L13.0485,16 L15.95725,16 C15.9715,15.98575 15.98575,15.9715 16.0000625,15.9571875 C16.0000625,14.87925 16.0000625,13.9174375 16.0000625,13.048625 L11.29925,8.3478125 L16,8.3478125 Z" id="Shape"></path>
            </g>
            <g id="Group" transform="translate(2.062500, 2.062500)" fill="#D80027" fill-rule="nonzero">
                <path d="M6.0321875,0.0244375 C3.52975,1.449375 1.4493125,3.52975 0.0244375,6.0321875 L0.0244375,13.9375 L4.198375,13.9375 L4.198375,4.1985 L4.198375,4.198375 L13.9375,4.198375 C13.9375,2.8819375 13.9375,1.6278125 13.9375,0.0244375 L6.0321875,0.0244375 Z" id="Shape"></path>
                <path d="M13.9375,11.9699375 L8.2528125,6.285375 L6.2853125,6.285375 L6.2853125,6.2855 L13.937375,13.9375 L13.9375,13.9375 C13.9375,13.9375 13.9375,12.5808125 13.9375,11.9699375 Z" id="Shape"></path>
            </g>
            <g id="Group"></g>
            <path d="M27.0586875,18.342125 C27.51875,17.709125 27.8260625,16.936125 27.8260625,16 L27.8260625,9.0435 C27.2446875,9.48025 26.5221875,9.739125 25.739125,9.739125 C24.60125,9.739125 23.5910625,9.1926875 22.9565,8.3479375 C22.321875,9.1926875 21.3116875,9.739125 20.173875,9.739125 C19.39075,9.739125 18.66825,9.4801875 18.0869375,9.043625 L18.0869375,16 C18.0869375,16.936125 18.39425,17.709125 18.8543125,18.342125 L27.0586875,18.342125 Z" id="Shape" fill="#F3F3F3" fill-rule="nonzero"></path>
            <g id="Group" transform="translate(19.812500, 10.250000)" fill="#FF9811" fill-rule="nonzero">
                <path d="M5.7990625,4.4594375 C6.0205625,3.9190625 6.1928125,3.12925 6.1928125,2.7361875 C6.1928125,2.104625 5.3694375,1.5926875 5.3694375,1.5926875 C5.3694375,1.5926875 4.5460625,2.104625 4.5460625,2.7361875 C4.5460625,3.1293125 4.718375,3.919125 4.93975,4.4594375 L4.4644375,5.532625 C4.7438125,5.64625 5.0491875,5.709375 5.3695,5.709375 C5.6898125,5.709375 5.995125,5.6461875 6.2745625,5.532625 L5.7990625,4.4594375 Z" id="Shape"></path>
                <path d="M2.580875,0.9845 C2.002375,1.062875 1.2321875,1.3088125 0.8918125,1.5053125 C0.344875,1.821125 0.313125,2.7900625 0.313125,2.7900625 C0.313125,2.7900625 1.16825,3.247125 1.715125,2.931375 C2.055625,2.7348125 2.653375,2.1908125 3.0104375,1.7288125 L4.1776875,1.6038125 C4.136375,1.3051875 4.038125,1.009125 3.8781875,0.7318125 C3.7179375,0.4545 3.51075,0.2215 3.272625,0.0363125 L2.580875,0.9845 Z" id="Shape"></path>
                <path d="M1.18075,5.509125 C1.5378125,5.970875 2.13575,6.5148125 2.47625,6.7114375 C3.0231875,7.0271875 3.87825,6.57025 3.87825,6.57025 C3.87825,6.57025 3.846375,5.6011875 3.2995625,5.285375 C2.959,5.0888125 2.1889375,4.843125 1.6103125,4.764875 L0.918625,3.8165625 C0.6805625,4.0016875 0.4733125,4.2348125 0.313125,4.511875 C0.1530625,4.7893125 0.0550625,5.08525 0.0135625,5.3840625 L1.18075,5.509125 Z" id="Shape"></path>
            </g>
            <path d="M18.68225,18.087125 C19.9815,20.1718125 22.9565625,20.869625 22.9565625,20.869625 C22.9565625,20.869625 25.9315625,20.1718125 27.230875,18.087125 L18.68225,18.087125 Z" id="Shape" fill="#338AF3" fill-rule="nonzero"></path>
        </g>
    </g>
</svg>