<?xml version="1.0" encoding="UTF-8"?>
<svg width="32px" height="33px" viewBox="0 0 32 33" version="1.1" xmlns="http://www.w3.org/2000/svg" xmlns:xlink="http://www.w3.org/1999/xlink">
    <!-- Generator: Sketch 50.2 (55047) - http://www.bohemiancoding.com/sketch -->
    <title>antigua-and-barbuda@1x</title>
    <desc>Created with Sketch.</desc>
    <defs></defs>
    <g id="flags" stroke="none" stroke-width="1" fill="none" fill-rule="evenodd">
        <g id="antigua-and-barbuda" fill-rule="nonzero">
            <g id="Group-3">
                <path d="M0.3204375,13.425 L31.6796875,13.425 C30.197125,6.121875 23.7406875,0.625 16,0.625 C8.2593125,0.625 1.802875,6.121875 0.3204375,13.425 Z" id="Shape" fill="#464655"></path>
                <polygon id="Shape" fill="#FFE15A" points="15.672375 4.625 16.518375 9.0445 18.9911875 5.285125 18.0815 9.6919375 21.80475 7.1650625 19.2778125 10.8883125 23.6846875 9.978625 19.9253125 12.4514375 24.3448125 13.297375 19.9253125 14.1433125 23.6846875 16.6161875 19.2778125 15.7064375 21.80475 19.4296875 18.0815 16.9028125 18.9911875 21.309625 16.518375 17.55025 15.672375 21.9698125 14.8264375 17.55025 12.353625 21.309625 13.2633125 16.9028125 9.5400625 19.4296875 12.067 15.7064375 7.660125 16.6161875 11.4195 14.1433125 7 13.297375 11.4195 12.4514375 7.660125 9.978625 12.067 10.8883125 9.5400625 7.1650625 13.2633125 9.6919375 12.353625 5.285125 14.8264375 9.0445"></polygon>
                <path d="M0,16.625 C0,17.7209375 0.1105,18.7910625 0.3204375,19.825 L16,20.7989375 L31.679625,19.825 C31.889625,18.7910625 32,17.7209375 32,16.625 C32,15.5290625 31.8895,14.4589375 31.679625,13.425 L16,12.4510625 L0.3204375,13.425 C0.1105,14.4589375 0,15.5290625 0,16.625 Z" id="Shape" fill="#4173CD"></path>
                <path d="M31.679625,19.825 L0.3204375,19.825 C1.802875,27.128125 8.2594375,32.625 16,32.625 C23.7405625,32.625 30.197125,27.128125 31.679625,19.825 Z" id="Shape" fill="#F0F0F0"></path>
                <path d="M0,16.625 C0,25.4615 7.1635,32.625 16,32.625 L3.19975,7.0244375 C1.19075,9.69875 0,13.0226875 0,16.625 Z" id="Shape" fill="#FF4B55"></path>
                <path d="M16,32.625 C24.8365,32.625 32,25.4615 32,16.625 C32,13.0226875 30.80925,9.69875 28.80025,7.0244375 L16,32.625 Z" id="Shape" fill="#FF4B55"></path>
            </g>
        </g>
    </g>
</svg>