<?xml version="1.0" encoding="UTF-8"?>
<svg width="32px" height="32px" viewBox="0 0 32 32" version="1.1" xmlns="http://www.w3.org/2000/svg" xmlns:xlink="http://www.w3.org/1999/xlink">
    <!-- Generator: Sketch 50.2 (55047) - http://www.bohemiancoding.com/sketch -->
    <title>argentina@1x</title>
    <desc>Created with Sketch.</desc>
    <defs></defs>
    <g id="flags" stroke="none" stroke-width="1" fill="none" fill-rule="evenodd">
        <g id="argentina" fill-rule="nonzero">
            <g id="Group">
                <path d="M19.8141414,0.517171717 C28.3717172,2.63434343 33.5838384,11.2808081 31.4666667,19.8383838 C29.3494949,28.3878788 20.7030303,33.6080808 12.1454545,31.4909091 C3.58787879,29.3737374 -1.62424242,20.7191919 0.492929293,12.169697 C2.61010101,3.61212121 11.2565657,-1.6 19.8141414,0.517171717 Z" id="Shape" fill="#338AF3"></path>
                <path d="M0.945454545,10.6424242 L30.9979798,10.6424242 C29.2606061,5.77777778 25.1959596,1.85050505 19.8060606,0.517171717 C11.7737374,-1.47070707 3.66060606,3.00606061 0.945454545,10.6424242" id="Shape" fill="#338AF3"></path>
                <path d="M31.5878788,19.2808081 C31.5959596,19.2484848 31.6040404,19.2161616 31.6121212,19.1757576 C31.620202,19.1191919 31.6363636,19.0545455 31.6444444,18.9979798 C31.6525253,18.9656566 31.6606061,18.9252525 31.6606061,18.8929293 C31.6686869,18.8282828 31.6848485,18.7717172 31.6929293,18.7070707 C31.7010101,18.6747475 31.7010101,18.6424242 31.7090909,18.6181818 C31.7252525,18.5454545 31.7333333,18.4646465 31.7494949,18.3919192 C31.7494949,18.3757576 31.7575758,18.359596 31.7575758,18.3434343 C31.7737374,18.2545455 31.7818182,18.1575758 31.7979798,18.0686869 C31.7979798,18.0444444 31.8060606,18.020202 31.8060606,17.9959596 C31.8141414,17.9313131 31.8222222,17.8585859 31.830303,17.7939394 C31.830303,17.7616162 31.8383838,17.7292929 31.8383838,17.6969697 C31.8464646,17.640404 31.8545455,17.5757576 31.8545455,17.5191919 C31.8545455,17.4868687 31.8626263,17.4545455 31.8626263,17.4222222 C31.8707071,17.3575758 31.8707071,17.3010101 31.8787879,17.2363636 C31.8787879,17.2040404 31.8868687,17.1717172 31.8868687,17.1393939 C31.8949495,17.0666667 31.8949495,17.0020202 31.9030303,16.9292929 C31.9030303,16.9050505 31.9030303,16.8888889 31.9030303,16.8646465 C31.9111111,16.7757576 31.9111111,16.6787879 31.9191919,16.589899 C31.9191919,16.5737374 31.9191919,16.5575758 31.9191919,16.5414141 C31.9191919,16.4686869 31.9272727,16.3878788 31.9272727,16.3151515 C31.9272727,16.2828283 31.9272727,16.2585859 31.9272727,16.2262626 C31.9272727,16.1616162 31.9272727,16.0969697 31.9272727,16.040404 C31.9272727,16.0080808 31.9272727,15.9757576 31.9272727,15.9434343 C31.9272727,15.8787879 31.9272727,15.8222222 31.9272727,15.7575758 C31.9272727,15.7252525 31.9272727,15.6929293 31.9272727,15.6686869 C31.9272727,15.6040404 31.9272727,15.5313131 31.9191919,15.4666667 C31.9191919,15.4424242 31.9191919,15.4181818 31.9191919,15.3939394 C31.9111111,15.2080808 31.9030303,15.030303 31.8868687,14.8444444 C31.8868687,14.820202 31.8868687,14.7959596 31.8787879,14.7717172 C31.8707071,14.7070707 31.8707071,14.6424242 31.8626263,14.569697 C31.8626263,14.5373737 31.8545455,14.5131313 31.8545455,14.4808081 C31.8464646,14.4161616 31.8464646,14.359596 31.8383838,14.2949495 C31.8383838,14.2626263 31.830303,14.2383838 31.830303,14.2060606 C31.8222222,14.1414141 31.8141414,14.0767677 31.8060606,14.0040404 C31.8060606,13.979798 31.7979798,13.9555556 31.7979798,13.9313131 C31.7737374,13.7535354 31.7494949,13.5676768 31.7171717,13.389899 C31.7171717,13.3737374 31.7090909,13.3575758 31.7090909,13.3414141 C31.7010101,13.2686869 31.6848485,13.1959596 31.6686869,13.1232323 C31.6606061,13.0989899 31.6606061,13.0747475 31.6525253,13.0505051 C31.6444444,12.9858586 31.6282828,12.9212121 31.6121212,12.8565657 C31.6040404,12.8323232 31.6040404,12.8080808 31.5959596,12.7757576 C31.579798,12.7111111 31.5717172,12.6464646 31.5555556,12.5737374 C31.5474747,12.5494949 31.5474747,12.5333333 31.5393939,12.5090909 C31.5232323,12.4282828 31.4989899,12.3474747 31.4828283,12.2666667 L31.4747475,12.2505051 C31.4505051,12.169697 31.4343434,12.0808081 31.410101,12 C31.2888889,11.5313131 31.1515152,11.0707071 30.989899,10.6181818 L0.937373737,10.6181818 C0.75959596,11.1111111 0.606060606,11.620202 0.476767677,12.1454545 C-0.0565656566,14.2868687 -0.121212121,16.4363636 0.202020202,18.4808081 C0.202020202,18.4888889 0.202020202,18.4969697 0.21010101,18.5050505 C0.218181818,18.5777778 0.234343434,18.6585859 0.250505051,18.7313131 C0.250505051,18.7474747 0.258585859,18.7636364 0.258585859,18.779798 C0.274747475,18.8525253 0.282828283,18.9171717 0.298989899,18.989899 C0.307070707,19.0141414 0.307070707,19.030303 0.315151515,19.0545455 C0.331313131,19.1191919 0.339393939,19.1838384 0.355555556,19.2484848 C0.363636364,19.2727273 0.363636364,19.2969697 0.371717172,19.3212121 C0.387878788,19.3858586 0.395959596,19.4424242 0.412121212,19.5070707 C0.42020202,19.5393939 0.428282828,19.5636364 0.436363636,19.5959596 C0.452525253,19.6525253 0.460606061,19.7090909 0.476767677,19.7737374 C0.484848485,19.8141414 0.501010101,19.8626263 0.509090909,19.9030303 C0.525252525,19.9676768 0.541414141,20.0323232 0.557575758,20.0969697 C0.573737374,20.1616162 0.58989899,20.2262626 0.614141414,20.2909091 C0.622222222,20.3232323 0.63030303,20.3474747 0.638383838,20.3717172 C0.654545455,20.4363636 0.670707071,20.4929293 0.694949495,20.5575758 C0.703030303,20.589899 0.711111111,20.6141414 0.719191919,20.6464646 C0.735353535,20.7030303 0.75959596,20.7676768 0.775757576,20.8242424 C0.783838384,20.8484848 0.791919192,20.8808081 0.8,20.9050505 C0.816161616,20.9616162 0.84040404,21.0262626 0.856565657,21.0828283 C0.864646465,21.1070707 0.872727273,21.1393939 0.880808081,21.1636364 C0.905050505,21.2282828 0.921212121,21.2848485 0.945454545,21.3494949 C0.953535354,21.3656566 0.953535354,21.3818182 0.961616162,21.389899 C0.977777778,21.430303 0.985858586,21.4626263 1.0020202,21.5030303 L30.9333333,21.5030303 C30.9494949,21.4626263 30.9575758,21.430303 30.9737374,21.389899 C31.0060606,21.2929293 31.0383838,21.2040404 31.0707071,21.1070707 C31.0707071,21.0989899 31.0787879,21.0909091 31.0787879,21.0828283 C31.1191919,20.9616162 31.159596,20.8323232 31.2,20.7111111 C31.2080808,20.6949495 31.2080808,20.6787879 31.2161616,20.6626263 C31.2484848,20.5494949 31.2888889,20.4282828 31.3212121,20.3070707 C31.3292929,20.2828283 31.3373737,20.2585859 31.3454545,20.2343434 C31.3858586,20.0969697 31.4181818,19.9515152 31.4585859,19.8141414 C31.4828283,19.7252525 31.4989899,19.6282828 31.5232323,19.5393939 C31.5313131,19.5070707 31.5393939,19.4828283 31.5393939,19.4505051 C31.5636364,19.410101 31.5717172,19.3454545 31.5878788,19.2808081" id="Shape" fill="#F1F2F2"></path>
            </g>
            <polygon id="Shape" fill="#FFDA44" points="20.6169646 16.0231919 18.732642 16.9095739 19.7360671 18.7344708 17.6899212 18.3430211 17.4306423 20.4100202 16.005452 18.889785 14.5802014 20.4100202 14.3209827 18.3430211 12.2748368 18.7344105 13.2782017 16.9095136 11.3939394 16.0231919 13.278262 15.13681 12.2748368 13.3119733 14.3209224 13.7033627 14.5802616 11.6363636 16.005452 13.1565988 17.4307026 11.6363636 17.6899212 13.7033627 19.7361274 13.3119733 18.7327023 15.1368702"></polygon>
        </g>
    </g>
</svg>