<?xml version="1.0" encoding="UTF-8"?>
<svg width="32px" height="32px" viewBox="0 0 32 32" version="1.1" xmlns="http://www.w3.org/2000/svg" xmlns:xlink="http://www.w3.org/1999/xlink">
    <!-- Generator: Sketch 50.2 (55047) - http://www.bohemiancoding.com/sketch -->
    <title>australia@1x</title>
    <desc>Created with Sketch.</desc>
    <defs></defs>
    <g id="flags" stroke="none" stroke-width="1" fill="none" fill-rule="evenodd">
        <g id="australia" fill-rule="nonzero">
            <path d="M32,16 C32,24.8365 24.8365,32 16,32 C7.1635,32 0,24.8365 0,16 C0,16.00375 16,0.0018125 16,0 C24.8365,0 32,7.1635 32,16 Z" id="Shape" fill="#0052B4"></path>
            <g id="Group" fill="#F0F0F0">
                <path d="M16.0188125,0 C16.0118125,0 16.0043125,0.0005 15.9973125,0.0005 L16.0188125,0 Z" id="Shape"></path>
                <path d="M15.9571875,16.2996875 L16.2996875,16.2996875 C16.2996875,16.1836875 16.2996875,16.0726875 16.2996875,15.9571875 C16.1856875,16.0716875 16.0716875,16.1856875 15.9571875,16.2996875 Z" id="Shape"></path>
                <path d="M16,8.347875 C16,5.5325625 16,3.68775 16.0000625,6.25e-05 L15.9973125,6.25e-05 C7.162,0.0015 0,7.1643125 0,16 L8.3478125,16 L8.3478125,11.29925 L13.0485625,16 L15.95725,16 C15.9715625,15.98575 15.9858125,15.9715 16.0000625,15.9571875 C16.0000625,14.87925 16.0000625,13.9174375 16.0000625,13.0486875 L11.29925,8.347875 L16,8.347875 Z" id="Shape"></path>
            </g>
            <g id="Group" transform="translate(2.062500, 2.062500)" fill="#D80027">
                <path d="M6.0321875,0.0244375 C3.52975,1.449375 1.449375,3.52975 0.0244375,6.0321875 L0.0244375,13.9375 L4.198375,13.9375 L4.198375,4.1984375 L4.198375,4.198375 L13.9375,4.198375 C13.9375,2.8819375 13.9375,1.6278125 13.9375,0.0244375 L6.0321875,0.0244375 Z" id="Shape"></path>
                <path d="M13.9375,11.9699375 L8.2529375,6.2854375 L6.285375,6.28540972 C6.285375,6.28540972 6.285375,6.28540972 6.285375,6.28540972 L13.9375,13.9375 C13.9375,13.9375 13.9375,12.5809375 13.9375,11.9699375 Z" id="Shape"></path>
            </g>
            <g id="Group" transform="translate(6.062500, 6.937500)" fill="#F0F0F0">
                <polygon id="Shape" points="3.5871875 11.845125 4.4653125 13.68125 6.44825 13.2229375 5.56025 15.0543125 7.154875 16.318875 5.1694375 16.766375 5.175 18.801625 3.5871875 17.5283125 1.9994375 18.801625 2.005 16.766375 0.0195 16.318875 1.6141875 15.0543125 0.7260625 13.2229375 2.709125 13.68125"></polygon>
                <polygon id="Shape" points="17.89275 15.323375 18.3318125 16.2414375 19.3233125 16.01225 18.87925 16.9279375 19.676625 17.56025 18.683875 17.784 18.686625 18.801625 17.89275 18.1649375 17.098875 18.801625 17.101625 17.784 16.1089375 17.56025 16.90625 16.9279375 16.46225 16.01225 17.4536875 16.2414375"></polygon>
                <polygon id="Shape" points="13.8083125 5.58425 14.2473125 6.502375 15.2388125 6.273125 14.7948125 7.1888125 15.592125 7.821125 14.5994375 8.044875 14.602125 9.0625 13.8083125 8.4258125 13.0144375 9.0625 13.017125 8.044875 12.0244375 7.821125 12.82175 7.1888125 12.37775 6.273125 13.36925 6.502375"></polygon>
                <polygon id="Shape" points="17.89275 0.019 18.3318125 0.937125 19.3233125 0.7079375 18.8793125 1.623625 19.6765625 2.255875 18.683875 2.4796875 18.686625 3.4973125 17.89275 2.860625 17.098875 3.4973125 17.101625 2.4796875 16.1089375 2.255875 16.9061875 1.623625 16.46225 0.7079375 17.4536875 0.937125"></polygon>
                <polygon id="Shape" points="21.4605 4.1929375 21.8995 5.1110625 22.891 4.8818125 22.447 5.7975 23.2443125 6.4298125 22.2515625 6.653625 22.2543125 7.6711875 21.4605 7.0345625 20.666625 7.6711875 20.6693125 6.653625 19.676625 6.4298125 20.4739375 5.7975 20.0299375 4.8818125 21.021375 5.1110625"></polygon>
                <polygon id="Shape" points="18.909375 9.0625 19.2546875 10.125375 20.3723125 10.125375 19.468125 10.7823125 19.8135625 11.845125 18.909375 11.18825 18.00525 11.845125 18.3505625 10.7823125 17.4464375 10.125375 18.564 10.125375"></polygon>
            </g>
        </g>
    </g>
</svg>