<?xml version="1.0" encoding="UTF-8"?>
<svg width="32px" height="32px" viewBox="0 0 32 32" version="1.1" xmlns="http://www.w3.org/2000/svg" xmlns:xlink="http://www.w3.org/1999/xlink">
    <!-- Generator: Sketch 50.2 (55047) - http://www.bohemiancoding.com/sketch -->
    <title>austria@1x</title>
    <desc>Created with Sketch.</desc>
    <defs></defs>
    <g id="flags" stroke="none" stroke-width="1" fill="none" fill-rule="evenodd">
        <g id="austria" fill-rule="nonzero">
            <path d="M31.0048125,21.5651875 C31.648,19.8319375 32,17.957125 32,16 C32,14.042875 31.648,12.1681875 31.0048125,10.4348125 L16,9.0435 L0.9951875,10.4348125 C0.3520625,12.1681875 0,14.042875 0,16 C0,17.957125 0.3520625,19.8319375 0.9951875,21.5651875 L16,22.9565 L31.0048125,21.5651875 Z" id="Shape" fill="#F0F0F0"></path>
            <path d="M16,32 C22.879375,32 28.744125,27.658 31.00475,21.5651875 L0.995125,21.5651875 C3.255875,27.658 9.1205,32 16,32 Z" id="Shape" fill="#D80027"></path>
            <path d="M16,0 C9.1205,0 3.255875,4.342 0.995125,10.4348125 L31.0048125,10.4348125 C28.744125,4.342 22.879375,0 16,0 Z" id="Shape" fill="#D80027"></path>
        </g>
    </g>
</svg>