<?xml version="1.0" encoding="UTF-8"?>
<svg width="32px" height="32px" viewBox="0 0 32 32" version="1.1" xmlns="http://www.w3.org/2000/svg" xmlns:xlink="http://www.w3.org/1999/xlink">
    <!-- Generator: Sketch 50.2 (55047) - http://www.bohemiancoding.com/sketch -->
    <title>azerbaijan@1x</title>
    <desc>Created with Sketch.</desc>
    <defs></defs>
    <g id="flags" stroke="none" stroke-width="1" fill="none" fill-rule="evenodd">
        <g id="azerbaijan" fill-rule="nonzero">
            <path d="M32,16 C32,14.042875 31.648,12.1680625 31.0048125,10.4348125 L16,9.739125 L0.9951875,10.43475 C0.3520625,12.1680625 0,14.042875 0,16 C0,17.957125 0.3520625,19.8319375 0.9951875,21.5651875 L16,22.260875 L31.0048125,21.56525 C31.648,19.8319375 32,17.957125 32,16 Z" id="Shape" fill="#FF4B55"></path>
            <path d="M16,32 C22.8794375,32 28.744125,27.658 31.0048125,21.5651875 L0.9951875,21.5651875 C3.255875,27.658 9.1205625,32 16,32 Z" id="Shape" fill="#73AF00"></path>
            <path d="M0.9951875,10.4348125 L31.004875,10.4348125 C28.744125,4.342 22.8794375,0 16,0 C9.1205625,0 3.255875,4.342 0.9951875,10.4348125 Z" id="Shape" fill="#82AFFF"></path>
            <g id="Group" transform="translate(10.187500, 11.312500)" fill="#F0F0F0">
                <path d="M6.12317708,8.455625 C4.04213542,8.455625 2.35505208,6.76854167 2.35505208,4.6875 C2.35505208,2.60645833 4.04213542,0.919375 6.12317708,0.919375 C6.77203125,0.919375 7.38260417,1.0834375 7.915625,1.37229167 C7.079375,0.55453125 5.93583333,0.0497916667 4.67390625,0.0497916667 C2.11255208,0.0497916667 0.03625,2.12614583 0.03625,4.68744792 C0.03625,7.24875 2.11260417,9.32510417 4.67390625,9.32510417 C5.93588542,9.32510417 7.07942708,8.82036458 7.915625,8.00260417 C7.38260417,8.2915625 6.77203125,8.455625 6.12317708,8.455625 Z" id="Shape"></path>
                <polygon id="Shape" points="9.02171875 2.07880208 9.52083333 3.4825 10.8663542 2.8428125 10.2267187 4.18833333 11.6304167 4.6875 10.2267187 5.18666667 10.8663542 6.5321875 9.52083333 5.8925 9.02171875 7.29619792 8.52265625 5.8925 7.17708333 6.5321875 7.81677083 5.18666667 6.41302083 4.6875 7.81677083 4.18833333 7.17708333 2.8428125 8.52265625 3.4825"></polygon>
            </g>
        </g>
    </g>
</svg>