<?xml version="1.0" encoding="UTF-8"?>
<svg width="32px" height="32px" viewBox="0 0 32 32" version="1.1" xmlns="http://www.w3.org/2000/svg" xmlns:xlink="http://www.w3.org/1999/xlink">
    <!-- Generator: Sketch 50.2 (55047) - http://www.bohemiancoding.com/sketch -->
    <title>barbados@1x</title>
    <desc>Created with Sketch.</desc>
    <defs></defs>
    <g id="flags" stroke="none" stroke-width="1" fill="none" fill-rule="evenodd">
        <g id="barbados" fill-rule="nonzero">
            <path d="M22.9565,1.587625 C20.853,0.5705 18.493125,0 16,0 C13.506875,0 11.147,0.5705 9.0435,1.587625 L7.6521875,16 L9.0435,30.412375 C11.147,31.4295 13.506875,32 16,32 C18.493125,32 20.853,31.4295 22.9565,30.412375 L24.3478125,16 L22.9565,1.587625 Z" id="Shape" fill="#FFDA44"></path>
            <g id="Group" transform="translate(0.000000, 1.562500)" fill="#0052B4">
                <path d="M9.0435,0.0256875 C3.691625,2.6135625 0,8.094125 0,14.4375 C0,20.780875 3.691625,26.2614375 9.0435,28.8493125 L9.0435,0.0256875 Z" id="Shape"></path>
                <path d="M22.9565,0.0256875 L22.9565,28.8493125 C28.308375,26.2614375 32,20.7808125 32,14.4375 C32,8.0941875 28.308375,2.6135625 22.9565,0.0256875 Z" id="Shape"></path>
            </g>
            <path d="M20.8695625,9.739125 L21.802875,10.20575 L20.8695625,9.739125 L19.9361875,9.2725 C19.8799375,9.3850625 18.66125,11.864625 18.4621875,15.6521875 L17.0435,15.6521875 L17.0435,9.739125 L16,8.3478125 L14.9565,9.739125 L14.9565,15.6521875 L13.5378125,15.6521875 C13.3386875,11.864625 12.1200625,9.3850625 12.06375,9.2725 L10.197125,10.2058125 C10.21,10.2314375 11.4783125,12.813 11.4783125,16.6956875 L11.4783125,17.7391875 L14.9565625,17.7391875 L14.9565625,23.65225 L17.0435,23.65225 L17.0435,17.7391875 L20.52175,17.7391875 L20.52175,16.695625 C20.52175,14.68825 20.8690625,13.033 21.1605,11.997875 C21.4781875,10.869125 21.800875,10.2099375 21.8040625,10.203375 L20.8695625,9.739125 Z" id="Shape" fill="#000000"></path>
        </g>
    </g>
</svg>