<?xml version="1.0" encoding="UTF-8"?>
<svg width="32px" height="32px" viewBox="0 0 32 32" version="1.1" xmlns="http://www.w3.org/2000/svg" xmlns:xlink="http://www.w3.org/1999/xlink">
    <!-- Generator: Sketch 50.2 (55047) - http://www.bohemiancoding.com/sketch -->
    <title>belarus@1x</title>
    <desc>Created with Sketch.</desc>
    <defs></defs>
    <g id="flags" stroke="none" stroke-width="1" fill="none" fill-rule="evenodd">
        <g id="belarus" fill-rule="nonzero">
            <circle id="Oval" fill="#FCFCFC" cx="16" cy="16" r="16"></circle>
            <g id="Group" transform="translate(1.375000, 2.187500)" fill="#A2001D">
                <polygon id="Shape" points="5.2336875 12.6530625 3.4945625 9.497875 5.2336875 6.3921875 6.9728125 9.497875"></polygon>
                <polygon id="Shape" points="1.7554375 12.6530625 0.0163125 9.497875 1.7554375 6.3921875 3.4945625 9.497875"></polygon>
                <polygon id="Shape" points="5.2336875 21.2328125 3.4945625 18.077625 5.2336875 14.9719375 6.9728125 18.077625"></polygon>
                <polygon id="Shape" points="1.7554375 21.2328125 0.0163125 18.077625 1.7554375 14.9719375 3.4945625 18.077625"></polygon>
                <path d="M6.9728125,0.91825 L6.4804375,0.039 C5.5973125,0.56225 4.769,1.1680625 4.0058125,1.8458125 L5.2336875,4.073375 L6.9728125,0.91825 Z" id="Shape"></path>
                <path d="M5.2336875,23.551625 L3.9928125,25.767625 C4.7553125,26.44625 5.5830625,27.053 6.4658125,27.5773125 L6.972875,26.657375 L5.2336875,23.551625 Z" id="Shape"></path>
            </g>
            <path d="M9.739125,20.1739375 L9.739125,30.727875 C11.6621875,31.5464375 13.778,32 16,32 C22.8794375,32 28.744125,27.658 31.0048125,21.5651875 L9.739125,20.1739375 Z" id="Shape" fill="#6DA544"></path>
            <path d="M31.0048125,21.5651875 C31.648,19.831875 32,17.957125 32,16 C32,7.1635 24.8365,0 16,0 C13.7781875,0 11.6621875,0.4533125 9.739125,1.27175 L9.739125,21.56525 L31.0048125,21.56525 L31.0048125,21.5651875 Z" id="Shape" fill="#A2001D"></path>
        </g>
    </g>
</svg>