<?xml version="1.0" encoding="UTF-8"?>
<svg width="32px" height="32px" viewBox="0 0 32 32" version="1.1" xmlns="http://www.w3.org/2000/svg" xmlns:xlink="http://www.w3.org/1999/xlink">
    <!-- Generator: Sketch 50.2 (55047) - http://www.bohemiancoding.com/sketch -->
    <title>belize@1x</title>
    <desc>Created with Sketch.</desc>
    <defs></defs>
    <g id="flags" stroke="none" stroke-width="1" fill="none" fill-rule="evenodd">
        <g id="belize" fill-rule="nonzero">
            <path d="M32,16 C32,10.5086875 29.2331875,5.664125 25.0179375,2.782625 L16,2.0869375 L6.9820625,2.7825625 C2.766875,5.664125 0,10.50875 0,16 C0,21.4914375 2.766875,26.335875 6.9820625,29.217375 L16,29.9130625 L25.0179375,29.2174375 C29.2331875,26.335875 32,21.4914375 32,16 Z" id="Shape" fill="#0052B4"></path>
            <g id="Group" transform="translate(6.937500, 0.000000)" fill="#A2001D">
                <path d="M18.0804375,2.782625 C15.512625,1.02725 12.40775,0 9.0625,0 C5.7173125,0 2.612375,1.02725 0.0445625,2.782625 L18.0804375,2.782625 Z" id="Shape"></path>
                <path d="M0.0445625,29.217375 C2.6123125,30.97275 5.7173125,32 9.0625,32 C12.40775,32 15.512625,30.97275 18.0804375,29.217375 L0.0445625,29.217375 Z" id="Shape"></path>
            </g>
            <circle id="Oval" fill="#F0F0F0" cx="16" cy="16" r="7.6521875"></circle>
            <circle id="Oval" fill="#6DA544" cx="16" cy="16" r="6.260875"></circle>
            <circle id="Oval" fill="#F0F0F0" cx="16" cy="16" r="4.1739375"></circle>
            <polygon id="Shape" fill="#0052B4" points="16 14.9565 13.739125 16 13.739125 17.739125 16 19.1304375 18.260875 17.739125 18.260875 16"></polygon>
            <rect id="Rectangle-path" fill="#FFDA44" x="13.739125" y="13.9130625" width="4.52175" height="2.0869375"></rect>
        </g>
    </g>
</svg>