<?xml version="1.0" encoding="UTF-8"?>
<svg width="32px" height="32px" viewBox="0 0 32 32" version="1.1" xmlns="http://www.w3.org/2000/svg" xmlns:xlink="http://www.w3.org/1999/xlink">
    <!-- Generator: Sketch 50.2 (55047) - http://www.bohemiancoding.com/sketch -->
    <title>bermuda@1x</title>
    <desc>Created with Sketch.</desc>
    <defs></defs>
    <g id="flags" stroke="none" stroke-width="1" fill="none" fill-rule="evenodd">
        <g id="bermuda" fill-rule="nonzero">
            <path d="M32,16 C32,24.8365 24.8365,32 16,32 C7.1635,32 0,24.8365 0,16 C0,16.0038125 16,0.00175 16,0 C24.8365,0 32,7.1635 32,16 Z" id="Shape" fill="#D80027"></path>
            <g id="Group" transform="translate(7.625000, 7.625000)" fill="#0052B4">
                <polygon id="Shape" points="8.375 0.0271875 8.375 5.423625 2.8098125 0.0271875"></polygon>
                <polygon id="Shape" points="0.7228125 8.375 5.4235 8.375 0.7228125 2.114125 0.0271875 6.9836875"></polygon>
            </g>
            <g id="Group" fill="#F0F0F0">
                <path d="M16.0188125,0 C16.0108125,0 16.0048125,0 15.9973125,0 L16.0188125,0 Z" id="Shape"></path>
                <path d="M15.9571875,16.2996875 L16.2996875,16.2996875 C16.2996875,16.1846875 16.2996875,16.0726875 16.2996875,15.9571875 C16.1856875,16.0716875 16.0716875,16.1856875 15.9571875,16.2996875 Z" id="Shape"></path>
                <path d="M16,8.3478125 C16,5.5325 16,3.6878125 16.0000625,0 L15.9973125,0 C7.1619375,0.0015 0,7.1643125 0,16 L8.3478125,16 L8.3478125,11.2993125 L13.0485,16 L15.95725,16 C15.9715,15.98575 15.98575,15.9715 16.0000625,15.9571875 C16.0000625,14.87925 16.0000625,13.9174375 16.0000625,13.048625 L11.29925,8.3478125 L16,8.3478125 Z" id="Shape"></path>
            </g>
            <g id="Group" transform="translate(2.062500, 2.062500)" fill="#D80027">
                <path d="M6.0321875,0.0244375 C3.52975,1.449375 1.4493125,3.52975 0.0244375,6.0321875 L0.0244375,14.633125 L4.198375,14.633125 L4.198375,4.1985 L4.198375,4.198375 L14.633125,4.198375 C14.633125,2.8819375 14.633125,1.6278125 14.633125,0.0244375 L6.0321875,0.0244375 Z" id="Shape"></path>
                <path d="M14.5735625,12.605875 L8.2528125,6.2853125 L6.2853125,6.2853125 L6.2853125,6.2854375 L14.573375,14.5735 L14.5735625,14.5735 C14.5735625,14.5735 14.5735625,13.216875 14.5735625,12.605875 Z" id="Shape"></path>
            </g>
            <path d="M18.0869375,8.3478125 L18.0869375,15.9999375 C18.0869375,19.7274375 27.8260625,19.7274375 27.8260625,15.9999375 L27.8260625,8.3478125 L18.0869375,8.3478125 Z" id="Shape" fill="#F3F3F3"></path>
            <path d="M18.0869375,16 L18.0869375,15.9999375 C18.0869375,19.7274375 22.9565,20.8695625 22.9565,20.8695625 C22.9565,20.8695625 27.8260625,19.7274375 27.8260625,15.9999375 L27.8260625,16 L18.0869375,16 Z" id="Shape" fill="#6DA544"></path>
            <polygon id="Shape" fill="#A2001D" points="22.9565 12.939125 20.695625 13.9130625 20.695625 16 22.9565 17.3913125 25.217375 16 25.217375 13.9130625"></polygon>
            <rect id="Rectangle-path" fill="#338AF3" x="20.695625" y="11.8260625" width="4.52175" height="2.0869375"></rect>
        </g>
    </g>
</svg>