<?xml version="1.0" encoding="UTF-8"?>
<svg width="32px" height="32px" viewBox="0 0 32 32" version="1.1" xmlns="http://www.w3.org/2000/svg" xmlns:xlink="http://www.w3.org/1999/xlink">
    <!-- Generator: Sketch 50.2 (55047) - http://www.bohemiancoding.com/sketch -->
    <title>bhutan@1x</title>
    <desc>Created with Sketch.</desc>
    <defs></defs>
    <g id="flags" stroke="none" stroke-width="1" fill="none" fill-rule="evenodd">
        <g id="bhutan" fill-rule="nonzero">
            <path d="M4.73949318,27.2605068 C-1.49670175,21.0243119 -1.49670175,10.9134347 4.73949318,4.67717739 C10.9756881,-1.55907992 21.0866277,-1.55901754 27.322885,4.67717739 C27.322885,4.67936062 31.5626043,19.0277115 25.326347,25.2640312 C19.0902144,31.5002885 4.74385965,27.2648733 4.73949318,27.2605068 Z" id="Shape" fill="#FFE15A"></path>
            <path d="M4.73949318,27.2605068 C10.9756881,33.4967018 21.0866277,33.4967018 27.322885,27.2605068 C33.5591423,21.0243119 33.5590799,10.9134347 27.322885,4.67717739 L4.73949318,27.2605068 Z" id="Shape" fill="#FF6E55"></path>
            <g id="symbol" transform="translate(5.239766, 7.734893)">
                <g id="Group" transform="translate(6.986355, 0.311891)" fill="#FFF5DC">
                    <path d="M5.30114392,2.16676543 C4.99534828,2.23550617 4.51486355,2.06357895 4.51486355,2.06357895 C4.61380377,2.24251592 4.87852989,2.36303834 5.11733626,2.43893957 C4.92455361,2.4591397 4.7047024,2.47059649 4.46022385,2.4648681 C3.47735543,2.44187914 3.01876966,3.11835737 3.01876966,3.11835737 C3.36821962,2.88899545 3.72858317,2.88899545 4.2637076,2.96934373 C4.79876023,3.04961663 5.93456238,2.69423002 5.93456238,2.69423002 L6.0328564,2.23565692 C6.0327846,2.23550617 5.60693957,2.09794932 5.30114392,2.16676543 Z" id="Shape"></path>
                    <path d="M6.3112963,0.0172605588 C6.3112963,0.0172605588 6.81942398,0.130320988 7.33523424,0.441011046 C7.3042167,0.458120858 7.27456335,0.47899935 7.2462024,0.50357115 C7.07955491,0.416589994 6.87815627,0.346191033 6.61702014,0.31822742 C6.61702014,0.31822742 6.88727485,0.392018194 7.14697498,0.605551657 C7.07969851,0.688688759 7.02434081,0.783282651 6.98169168,0.86739961 C6.41038012,0.224311891 5.79254224,0.653564652 5.79254224,0.653564652 C6.55893405,0.592361274 6.73979792,1.1094243 6.78294964,1.35906173 C6.63453931,1.25489539 6.49474496,1.16904483 6.3635666,1.09924886 C6.38280897,1.08417414 6.39257375,1.07053151 6.41504711,1.05492917 C6.41504711,1.05492917 6.367013,1.05688889 6.30045452,1.06736582 C5.32232489,0.573819363 4.84248635,0.963124107 4.84248635,0.963124107 C5.27687557,0.907347628 5.67830864,1.02598571 5.99681287,1.17356725 C5.85687492,1.25813645 5.76202729,1.4071501 5.84028915,1.66048083 C5.29173814,1.50377908 4.60231579,1.34941391 4.2637076,1.44461079 C3.65218811,1.61653801 3.84870435,2.21266797 3.84870435,2.21266797 C3.84870435,2.21266797 3.85968973,1.81145419 4.27462118,1.7197245 C4.58529922,1.65105913 6.13107862,2.16684081 6.13107862,2.16684081 L6.63339051,1.91464068 L6.42596069,1.73118129 C6.42596069,1.73118129 6.02718421,1.56317349 6.1982115,1.27441715 C6.48411858,1.43443535 6.66620305,1.59362443 6.66620305,1.59362443 L6.78912443,1.40511501 C6.79515562,1.45388174 6.79723782,1.49051332 6.79723782,1.49051332 L7.14668778,1.33004288 L7.22315465,1.21539961 C7.25374139,1.04136192 7.3044321,0.917673814 7.36258999,0.825039636 C7.46368421,0.958375569 7.54725926,1.1231423 7.58897498,1.32710331 L7.90568421,1.36154906 C7.90568421,1.36154906 7.8542755,0.977294347 7.49994314,0.671654321 C7.53139149,0.648213125 7.56240903,0.628766732 7.59299578,0.615727096 C7.82641715,0.791498376 8.04404256,1.01136322 8.19510949,1.28700455 L8.77934503,1.27841196 C8.77927323,1.27833658 7.81823197,0.154817414 6.3112963,0.0172605588 Z" id="Shape"></path>
                    <ellipse id="Oval" cx="11.8858382" cy="5.43368421" rx="1" ry="1"></ellipse>
                    <ellipse id="Oval" cx="10.1784373" cy="11.8984795" rx="1" ry="1.03043275"></ellipse>
                    <ellipse id="Oval" cx="2.69545484" cy="11.3995062" rx="1" ry="1"></ellipse>
                    <ellipse id="Oval" cx="0.906202079" cy="15.2782326" rx="1" ry="1"></ellipse>
                    <path d="M9.46180279,3.42776608 C9.46180279,3.42776608 11.1440737,4.0571358 11.5502456,4.27036777 C12.1235676,4.57125926 13.0245123,3.6942872 13.6551306,4.37355426 C13.6551306,4.37355426 13.545923,3.92078493 13.021784,3.88633918 C13.021784,3.88633918 13.0327693,3.43922287 12.5412992,3.46221183 C12.5412992,3.46221183 12.9016628,3.73732554 12.6942329,3.93224172 C12.6942329,3.93224172 12.5522846,3.59976868 12.1481949,3.65712801 C12.1481949,3.65712801 12.4539188,3.78322807 12.3775237,3.97806888 C12.3775237,3.97806888 11.8915822,4.22454061 11.673167,4.06407018 C11.4547518,3.90359974 9.72940091,2.92623002 9.1833629,2.90331644 L9.46180279,3.42776608 Z" id="Shape"></path>
                </g>
                <path d="M16.0311891,4.30762206 C16.0311891,4.30762206 16.3957532,4.4192526 16.9260746,4.99449238 C17.1718049,5.26111097 17.8043263,5.27782168 17.7048865,4.76265012 C17.6054467,4.24747856 16.379192,3.92982456 16.2466299,3.92982456 C16.1140677,3.92982456 16.0311891,4.30762206 16.0311891,4.30762206 Z" id="Shape" fill="#F5F5F5"></path>
                <g id="Group" transform="translate(6.237817, 0.000000)" fill="#FFF5DC">
                    <path d="M12.3875218,3.15887839 L11.6982992,3.39971296 C11.6982992,3.39971296 11.7749035,3.88997794 11.3810208,4.10502496 C11.1384766,4.23750659 10.976277,4.58088812 10.9872102,4.83318381 C10.9872102,4.83318381 11.216951,4.5005848 11.5451626,4.31713129 C11.6224142,4.27392584 11.6936957,4.23607395 11.7586475,4.19761883 C11.7456284,4.36953581 11.7421039,4.55004863 11.7640422,4.70703597 C11.8296413,5.17716856 11.6874379,5.33777521 11.6874379,5.33777521 C11.6874379,5.33777521 12.0703873,5.02809845 12.0265827,4.52358246 C12.0097513,4.32972345 12.0401053,4.19234068 12.0871468,4.08813487 C12.1210253,4.43950903 12.2999844,4.60396119 12.2999844,4.60396119 C12.1686422,4.32874323 12.4421878,4.0305276 12.5515916,3.78969304 C12.6610674,3.54870767 12.3875218,3.15887839 12.3875218,3.15887839 Z" id="Shape"></path>
                    <path d="M14.1297115,2.16115674 C13.8583238,2.06441574 13.5964307,2.23859478 13.4404889,2.3847242 C13.3740985,2.446931 13.1992394,2.47859992 13.0202803,2.49564081 C13.1397542,2.40704325 13.2669964,2.30238502 13.3338903,2.21273183 C13.4815603,2.01495191 13.7523726,1.98049311 13.9820415,1.90305507 C14.2117824,1.82561703 14.310253,1.51601568 14.310253,1.51601568 C14.310253,1.51601568 14.1871827,1.70527515 13.8425714,1.68800805 C13.4979601,1.67074095 13.3830896,1.65354926 13.1533487,1.91165092 C13.0827146,1.99097402 12.9838123,2.05235139 12.8812417,2.10158902 C12.8834715,1.98886276 12.8927504,1.84544781 12.9236079,1.74817899 C12.981079,1.56751537 13.2436195,1.42138594 13.2600193,1.0601341 C13.2764191,0.698882248 13.2928908,0.733341045 13.4897602,0.518218623 C13.6867015,0.303171604 13.7441727,-0.101059486 13.6867015,0.0279536448 C13.6292303,0.156966776 13.3666898,0.311767453 13.1451488,0.526889874 C12.9236079,0.741936894 13.0795497,0.982696056 12.9646073,1.17195553 C12.8497369,1.361215 12.5789965,1.40419425 12.5625248,1.75685025 C12.546125,2.10950624 12.3081123,2.31588201 12.3081123,2.31588201 C12.3081123,2.31588201 11.7255602,2.65134631 12.4229828,2.91796843 C13.1204053,3.18466594 13.6846155,2.44278388 14.031097,2.46216224 C14.8023186,2.50514149 15.0074598,2.23851938 15.0074598,2.23851938 C14.8763334,2.23851938 14.5399939,2.30728616 14.1297115,2.16115674 Z" id="Shape"></path>
                    <path d="M5.67044226,7.82634878 C5.6267095,7.79188998 4.8718877,6.92031618 4.62020851,6.79416833 L4.6749464,7.01208063 C4.6749464,7.01208063 4.5108766,7.0005441 4.21546464,6.62217595 C3.92005268,6.24380781 3.70131692,6.14050682 3.70131692,6.14050682 C3.70131692,6.14050682 3.90919142,6.48456697 3.89825822,6.70240387 C3.89825822,6.70240387 3.44970965,6.66794508 2.96836151,6.90885504 C2.96836151,6.90885504 2.74955382,6.46156931 2.56361764,6.38134139 C2.56361764,6.38134139 2.62921678,6.85154939 2.4761521,6.9662361 C2.32294356,7.08092282 3.92019654,7.87226871 4.13900423,7.89519097 C4.35766806,7.91818863 5.67044226,7.82634878 5.67044226,7.82634878 Z" id="Shape"></path>
                    <path d="M6.66601005,6.11765996 C6.65047341,6.11358824 6.5697692,6.17308056 6.46561616,6.25104642 C6.41958167,5.97258617 6.32693726,5.40948268 6.32693726,5.38361973 C6.32693726,5.34916094 5.58297673,4.25975023 5.56111035,4.2139057 C5.5607507,4.21307628 5.55830512,4.21300088 5.55772969,4.21232226 C5.6299463,4.02917036 5.70777336,3.71723154 5.26569839,3.96161001 C4.66394128,4.29428443 4.42326721,5.06255725 4.42326721,5.06255725 C4.5604356,4.91250691 4.79981495,4.7980464 4.99085809,4.72362445 C4.99481418,4.81719855 4.99553347,4.92819056 4.87181578,5.11993831 C4.62020851,5.50976758 4.76241193,5.65891309 4.76241193,5.65891309 C4.95935324,5.30339181 5.39689669,5.26900842 5.39689669,5.26900842 C5.33129754,5.69337189 5.56096649,5.93413105 5.56096649,5.93413105 L5.74690267,5.70475762 C5.72395736,6.03313412 5.8916236,6.38541311 5.99577664,6.57052546 C5.95463331,6.59141186 5.91708643,6.60732172 5.88917802,6.61071482 C5.70316991,6.63371249 5.40782988,6.7827072 5.40782988,6.7827072 C5.40782988,6.7827072 5.64720923,6.72917165 5.78315484,6.83925883 C5.91902851,6.94934601 6.13531869,7.03357025 6.25270664,7.0076319 C6.25270664,7.0076319 6.19710561,7.30554592 6.25889253,7.4156331 C6.25889253,7.4156331 6.10438927,7.37016558 5.92528633,7.37672557 C5.74611146,7.38328556 5.61570438,7.25291519 5.61570438,7.25291519 C5.61570438,7.25291519 5.94391591,7.74597005 6.18458998,7.84919564 C6.42526405,7.95242122 6.84094112,7.57397768 6.84094112,7.57397768 C6.84094112,7.57397768 6.70974282,6.12904569 6.66601005,6.11765996 Z" id="Shape"></path>
                    <path d="M1.01009743,13.3082381 C1.01009743,13.3082381 0.802222931,13.3311604 0.605353554,13.6408371 L0.517888021,13.3196992 C0.517888021,13.3196992 0.277213949,13.5032282 0.0146734939,13.388466 C0.0146734939,13.388466 0.255347566,13.331085 0.299080332,13.1017869 C0.342813099,12.8724889 0.430422489,12.8494912 0.430422489,12.8494912 C0.430422489,12.8494912 0.266352687,12.6659623 0.0912777638,12.6774989 C0.0912777638,12.6774989 0.572625908,12.413742 0.835238292,12.6659623 C1.09756296,12.918258 1.01009743,13.3082381 1.01009743,13.3082381 Z" id="Shape"></path>
                    <path d="M6.79720835,10.7736692 C6.79720835,10.7736692 6.58933386,10.7965915 6.39246448,11.1062682 L6.30499895,10.7852057 C6.30499895,10.7852057 6.06432487,10.9687347 5.80178442,10.8539725 C5.80178442,10.8539725 6.04245849,10.7965915 6.08619126,10.567218 C6.12992402,10.3378446 6.21753341,10.3149223 6.21753341,10.3149223 C6.21753341,10.3149223 6.05346361,10.1313934 5.87838869,10.14293 C5.87838869,10.14293 6.35973683,9.87917315 6.62234922,10.1313934 C6.88481774,10.3838399 6.79720835,10.7736692 6.79720835,10.7736692 Z" id="Shape"></path>
                    <path d="M10.3456764,7.51109226 C10.3456764,7.51109226 10.2441847,7.7026892 10.3728655,8.04946383 L10.0718431,7.94013067 C10.0718431,7.94013067 10.0768781,8.25199409 9.83649175,8.4114697 C9.83649175,8.4114697 9.92992738,8.17206778 9.77599955,8.00271448 C9.62207172,7.83336118 9.6543678,7.74514063 9.6543678,7.74514063 C9.6543678,7.74514063 9.4168586,7.78050425 9.32522119,7.93734079 C9.32522119,7.93734079 9.3957115,7.37280466 9.74355962,7.29242594 C10.0914797,7.21204721 10.3456764,7.51109226 10.3456764,7.51109226 Z" id="Shape"></path>
                </g>
                <path d="M17.6530214,11.3528265 L18.1530214,11.8528265 C18.0074712,11.6432593 17.8349168,11.4857992 17.6530214,11.3528265 Z" id="Shape" fill="#FF6E55"></path>
                <path d="M5.73263163,12.4826591 C5.73263163,12.4826591 4.75712215,13.911208 3.6390626,14.2197301 L4.0336337,13.6940553 C4.0336337,13.6940553 3.50746683,14.1740454 2.91564621,14.2769111 L3.62810829,13.4198719 C3.62810829,13.4198719 2.03879752,14.9627078 0,15.2826511 C0,15.2826511 1.57842854,14.2427227 1.89624745,13.8770196 C1.89624745,13.8770196 1.12894179,14.1969629 0.438388311,14.2084592 C0.438388311,14.2084592 2.42234225,13.4084507 2.75118753,13.0885075 C2.75118753,13.0885075 1.96197327,13.2713966 1.46874137,13.1000038 C1.46874137,13.1000038 3.17862154,12.5857502 3.41976034,12.6542773 C3.41976034,12.6542773 2.43322449,12.2428895 1.8413318,12.2885742 C1.8413318,12.2885742 2.84977626,12.037158 4.02253526,12.2885742 L3.77044216,12.0028193 C3.77044216,12.0028193 4.43908703,11.8199302 5.09670553,11.7742454 C5.75432403,11.7285607 5.42555082,11.6713797 5.42555082,11.6713797 L5.502303,11.4428059 C5.502303,11.4428059 5.07479693,11.4999869 4.7241151,11.4428059 C4.7241151,11.4428059 5.77637677,10.8256865 6.07228708,10.551428 C6.36826946,10.2771694 6.17094787,10.4028775 6.17094787,10.4028775 C6.17094787,10.4028775 5.6228724,10.5971127 5.42555082,10.6314514 C5.42555082,10.6314514 5.91878271,10.0371744 6.07228708,9.64862892 C6.07228708,9.64862892 5.6228724,9.83151805 5.2392556,9.64862892 C5.2392556,9.64862892 5.69962459,9.5114245 5.92980908,9.27150462 C6.15999357,9.0315096 6.49979316,8.43437734 6.49979316,8.43437734 L6.10522206,8.61441118 C6.10522206,8.61441118 6.45049879,7.99729185 6.7546969,7.84303081 C6.7546969,7.84303081 6.23674576,7.88586023 6.07235915,7.75729683 C6.07235915,7.75729683 6.6231732,7.62009241 6.78755981,7.48303827 C6.95194641,7.34598414 7.31372667,6.98584132 7.68357853,7.12304574 C7.68357853,7.12304574 8.20152967,6.62584879 8.02885526,6.30019493 C8.02885526,6.30019493 8.36591627,6.32589258 8.53851861,6.54018995 C8.71119301,6.75448732 8.98245614,6.93452116 8.98245614,6.93452116 L7.57396343,8.08302583 L6.49979316,11.7172147 L5.73263163,12.4826591 Z" id="Shape" fill="#FFF5DC"></path>
                <g id="Group" transform="translate(2.183236, 1.372320)" fill="#F5F5F5">
                    <path d="M17.3315676,4.23415873 C17.7364241,4.92081364 17.2330871,4.989592 17.2330871,4.989592 C17.1564751,4.33717578 16.6313415,4.41739212 16.6313415,4.41739212 L16.7735592,4.89808818 C15.8983125,5.01254321 15.9639183,4.096903 15.9639183,4.096903 C15.8325629,4.21135802 15.6138052,4.68061611 15.6138052,4.68061611 C15.6138052,4.68061611 13.25056,5.50467725 11.6532186,3.05544503 C11.6532186,3.05544503 11.6094815,2.62042563 11.7407649,2.41446678 L10.7560314,1.6362328 L9.4868626,1.81939095 C9.4868626,1.81939095 8.98359756,3.00961787 9.59627743,3.74217519 C10.2089573,4.47465726 10.931052,5.50467725 10.7997686,5.98537331 C10.7219337,6.2703445 10.4902994,6.38630453 10.168745,6.36207407 C9.94782921,6.34544386 9.68447111,6.26251852 9.39931636,6.12270429 C8.6990183,5.77933921 6.99226209,5.04693239 5.76690235,5.64200823 C4.5415426,6.23715932 4.40860467,7.26702881 4.16948903,8.06843974 C3.95785298,8.77782011 3.48825404,10.5889336 0.142721248,12.2412698 C-0.0171207948,12.3202069 0.0642389486,12.5743257 0.235734641,12.5297025 C1.68596667,12.1525503 3.66305879,11.5241387 4.27343671,10.7809712 L4.76576747,10.7981282 L4.58520782,11.5878001 C4.58520782,11.5878001 5.22529535,11.7938342 5.32370396,12.7723833 C5.32370396,12.7723833 4.20229189,13.0927972 4.83684034,14.1000165 C4.83684034,14.1000165 4.93532088,13.3674591 5.71208703,13.3332205 C5.71208703,13.3332205 5.88717953,13.5735685 6.27009545,13.6078824 C6.27009545,13.6078824 6.46705653,13.9398848 6.36857599,14.2145467 C6.36857599,14.2145467 7.14534214,13.9627607 6.48892511,12.9898554 C6.48892511,12.9898554 7.2219541,12.8067725 7.32043463,13.7681646 C7.32043463,13.7681646 7.79089681,12.2116966 6.11147633,12.3260764 C6.11147633,12.3260764 6.11147633,12.0514145 5.66834987,11.5535614 C5.66834987,11.5535614 5.55900698,11.2731052 5.66834987,10.8839882 C5.70129661,10.7668995 5.73107816,10.645371 5.75589612,10.5214345 C5.84711111,10.5743351 5.98745847,10.636943 6.17154298,10.6436402 C6.17154298,10.6436402 6.44511602,11.112823 7.25468503,11.032682 C7.25468503,11.032682 6.66387373,10.7466573 6.71861712,10.1972581 C6.7733605,9.64785891 7.46265233,9.35032099 7.75802201,9.56771781 C7.75802201,9.56771781 7.68141005,8.84667372 6.60920229,9.3159318 C6.60920229,9.3159318 6.60920229,8.77804586 7.178145,8.74373192 C7.178145,8.74373192 6.25916116,8.0111746 6.05119386,9.40751088 L5.67086764,9.50691593 C5.48505666,8.96812698 5.2496817,7.71709818 6.2918921,7.26153557 C7.39143558,6.78083951 8.5402553,7.86240564 10.575256,7.96542269 C10.575256,7.96542269 10.3782949,9.21863374 11.0347839,9.52768489 C11.6912728,9.83673604 13.2995485,10.128555 13.2995485,10.128555 C13.2831471,11.9368089 14.5413097,11.6964609 14.5413097,11.6964609 C13.930644,11.3136649 13.930644,10.5832898 14.3075893,10.1567737 C14.821285,9.5753933 15.711998,10.1284797 15.711998,10.1284797 C15.6994092,9.24828219 14.5194411,9.38455967 14.5194411,9.38455967 C14.705396,8.81235979 15.438425,8.66351558 15.438425,8.66351558 C14.4209606,8.27447384 13.5784448,9.42466784 13.5784448,9.42466784 L11.8552152,8.90965785 C11.8552152,8.90965785 11.7896095,8.5491358 12.1998612,8.06843974 C12.6101128,7.58774368 12.9547587,6.78083951 12.8399487,5.92253968 C12.8399487,5.92253968 13.3159499,5.57338036 13.9066893,5.91682069 C14.4974287,6.26018577 15.7666694,5.50482775 15.7666694,5.50482775 C16.3137436,6.23730982 17.6156433,6.09997884 17.7907358,5.21880306 C17.966188,4.33717578 17.3315676,4.23415873 17.3315676,4.23415873 Z" id="Shape"></path>
                    <path d="M15.5263309,2.12836684 C15.2008919,1.92978248 14.6182094,1.76212581 14.4212483,2.21987066 C14.2242872,2.67769077 14.0054576,3.13543563 13.327172,3.11255967 C12.6488864,3.08968372 12.3424385,3.69627278 11.8719764,3.52455262 C11.8719764,3.52455262 12.3096357,3.37578366 12.3971819,3.15831158 C12.4846562,2.94083951 12.8348412,2.54028454 12.8348412,2.54028454 L12.7911041,2.12829159 C12.7911041,2.12829159 11.9814631,2.17396825 11.7407649,2.41431628 C11.5000667,2.65466432 10.5919452,2.20835744 10.5919452,2.20835744 L10.70136,1.21265138 C10.70136,1.21265138 11.4015861,0.0910523222 12.3753853,0.171193416 C13.3491125,0.251334509 13.5132707,-0.0119647266 13.9836609,0.0224244562 C14.4541231,0.056813639 14.6948214,0.560310406 15.1980864,0.674840682 C15.7013514,0.789370958 16.7079535,0.571823633 16.8392369,0.892312757 C16.9705922,1.21272663 16.5876044,1.33869489 16.4891238,1.78500176 C16.3906433,2.23138389 16.1827479,2.52892181 15.5263309,2.12836684 Z" id="Shape"></path>
                </g>
                <g id="Group" transform="translate(12.787524, 1.497076)" fill="#FFF5DC">
                    <path d="M2.0321257,1.69754961 C2.0321257,1.69754961 1.56236139,2.03062604 1.16902357,1.89274402 C0.775757576,1.75486201 0.426092031,1.80092336 0.0219079686,1.93865436 C0.0219079686,1.93865436 0.764839506,1.84683369 1.07068911,2.14540187 C1.37653872,2.44397004 2.15222447,2.24877562 2.20688664,2.1224467 L2.0321257,1.69754961 Z" id="Shape"></path>
                    <path d="M2.27246689,2.46700072 C2.27246689,2.46700072 1.81362065,2.81155473 1.35484624,2.71965856 C0.896,2.6278379 0.480897868,2.82303232 0.480897868,2.82303232 C0.480897868,2.82303232 0.819573513,2.43256797 1.27834792,2.50150898 C1.73719416,2.57037447 1.90103704,2.09956705 1.90103704,2.09956705 L2.20695847,2.12252221 L2.27246689,2.46700072 Z" id="Shape"></path>
                    <ellipse id="Oval" cx="2.6440404" cy="2.04180158" rx="1" ry="1"></ellipse>
                    <path d="M2.28338496,1.5597431 C2.28338496,1.5597431 2.04304377,1.23821976 1.44211897,1.36454868 C0.841265993,1.4908776 0.69918743,1.26117493 0.69918743,1.26117493 C0.69918743,1.26117493 0.983200898,1.72058028 1.43112907,1.66311686 C1.87905724,1.60565343 2.06473625,1.92725228 2.06473625,1.92725228 L2.28338496,1.5597431 Z" id="Shape"></path>
                    <path d="M4.30473625,0.755557197 C4.35875196,0.677328409 4.42663075,0.60272412 4.51950617,0.545940289 C4.57431201,0.512413666 4.63062626,0.49127075 4.68636588,0.473827844 C4.69879237,0.386613317 4.68658137,0.292527342 4.63924579,0.207200575 C4.53595511,0.0208408741 4.32125701,-0.0499123833 4.15964085,0.0490817687 C3.99809652,0.148075921 3.95076094,0.379364317 4.0539798,0.565648507 C4.11201796,0.67030594 4.20553984,0.733357136 4.30473625,0.755557197 Z" id="Shape"></path>
                    <path d="M3.76802694,1.49548374 C3.79876992,1.40434267 3.84380696,1.31267303 3.91757576,1.2305177 C3.96110438,1.18211552 4.00944557,1.14503991 4.05821773,1.11181533 C4.0466532,1.02452529 4.00966105,0.937914846 3.94127946,0.870030984 C3.79208979,0.722030574 3.56704826,0.718028522 3.43868911,0.860969734 C3.31032997,1.00391095 3.32720988,1.23988099 3.47647138,1.3878814 C3.56036813,1.47109388 3.66696296,1.50371437 3.76802694,1.49548374 Z" id="Shape"></path>
                </g>
            </g>
        </g>
    </g>
</svg>