<?xml version="1.0" encoding="UTF-8"?>
<svg width="32px" height="32px" viewBox="0 0 32 32" version="1.1" xmlns="http://www.w3.org/2000/svg" xmlns:xlink="http://www.w3.org/1999/xlink">
    <!-- Generator: Sketch 50.2 (55047) - http://www.bohemiancoding.com/sketch -->
    <title>bolivia@1x</title>
    <desc>Created with Sketch.</desc>
    <defs></defs>
    <g id="flags" stroke="none" stroke-width="1" fill="none" fill-rule="evenodd">
        <g id="bolivia" fill-rule="nonzero">
            <path d="M32,16 C32,14.042875 31.648,12.1680625 31.0048125,10.4348125 L16,9.739125 L0.9951875,10.43475 C0.352,12.1680625 0,14.042875 0,16 C0,17.957125 0.352,19.8319375 0.9951875,21.5651875 L16,22.260875 L31.0048125,21.56525 C31.648,19.8319375 32,17.957125 32,16 Z" id="Shape" fill="#FFDA44"></path>
            <path d="M16,32 C22.8794375,32 28.744125,27.658 31.0048125,21.5651875 L0.9951875,21.5651875 C3.255875,27.658 9.1205625,32 16,32 Z" id="Shape" fill="#6DA544"></path>
            <path d="M0.9951875,10.4348125 L31.004875,10.4348125 C28.744125,4.342 22.8794375,0 16,0 C9.1205625,0 3.255875,4.342 0.9951875,10.4348125 Z" id="Shape" fill="#D80027"></path>
        </g>
    </g>
</svg>