<?xml version="1.0" encoding="UTF-8"?>
<svg width="32px" height="32px" viewBox="0 0 32 32" version="1.1" xmlns="http://www.w3.org/2000/svg" xmlns:xlink="http://www.w3.org/1999/xlink">
    <!-- Generator: Sketch 50.2 (55047) - http://www.bohemiancoding.com/sketch -->
    <title>bonaire@1x</title>
    <desc>Created with Sketch.</desc>
    <defs></defs>
    <g id="flags" stroke="none" stroke-width="1" fill="none" fill-rule="evenodd">
        <g id="bonaire" fill-rule="nonzero">
            <circle id="Oval" fill="#F0F0F0" cx="16" cy="16" r="16"></circle>
            <path d="M4.68625,4.68625 C1.2571875,8.1153125 -0.2895,12.7136875 0.0450625,17.1978125 L17.19775,0.045125 C12.713625,-0.2895 8.1153125,1.2571875 4.68625,4.68625 Z" id="Shape" fill="#FFDA44"></path>
            <path d="M5.713125,28.2544375 C11.9994375,33.5433125 21.396875,33.2305 27.31375,27.3136875 C33.230625,21.396875 33.5434375,11.999375 28.2545,5.713125 L5.713125,28.2544375 Z" id="Shape" fill="#0052B4"></path>
            <path d="M15.9429375,15.3555625 L17.32175,14.6086875 L15.9429375,13.8618125 C15.621,11.7705 13.968625,10.1180625 11.8773125,9.7961875 L11.130375,8.4173125 L10.3835,9.796125 C8.29225,10.118 6.639875,11.7704375 6.317875,13.86175 L4.939,14.6086875 L6.3178125,15.3555625 C6.63975,17.446875 8.292125,19.0993125 10.3834375,19.4211875 L11.130375,20.8000625 L11.87725,19.42125 C13.968625,19.0993125 15.621,17.446875 15.9429375,15.3555625 Z M11.1304375,17.3913125 C9.593625,17.3913125 8.3478125,16.1455625 8.3478125,14.6086875 C8.3478125,13.0718125 9.5935625,11.8260625 11.1304375,11.8260625 C12.6673125,11.8260625 13.9130625,13.0718125 13.9130625,14.6086875 C13.9130625,16.1455625 12.66725,17.3913125 11.1304375,17.3913125 Z" id="Shape" fill="#000000"></path>
            <polygon id="Shape" fill="#D80027" points="11.1304375 12.52175 11.732875 13.5651875 12.9378125 13.5651875 12.3353125 14.6086875 12.9378125 15.6521875 11.732875 15.6521875 11.1304375 16.695625 10.528 15.6521875 9.323125 15.6521875 9.9255625 14.6086875 9.323125 13.5651875 10.528 13.5651875"></polygon>
        </g>
    </g>
</svg>