<?xml version="1.0" encoding="UTF-8"?>
<svg width="32px" height="32px" viewBox="0 0 32 32" version="1.1" xmlns="http://www.w3.org/2000/svg" xmlns:xlink="http://www.w3.org/1999/xlink">
    <!-- Generator: Sketch 50.2 (55047) - http://www.bohemiancoding.com/sketch -->
    <title>bosnia-and-herzegovina@1x</title>
    <desc>Created with Sketch.</desc>
    <defs></defs>
    <g id="flags" stroke="none" stroke-width="1" fill="none" fill-rule="evenodd">
        <g id="bosnia-and-herzegovina" fill-rule="nonzero">
            <circle id="Oval" fill="#F0F0F0" cx="16" cy="16" r="16"></circle>
            <path d="M16,0 C10.326875,0 5.34375,2.9526875 2.50275,7.4049375 L24.2001875,29.7405625 C28.871625,26.9466875 32,21.8389375 32,16 C32,7.1635 24.8365,0 16,0 Z" id="Shape" fill="#FFDA44"></path>
            <g id="Group" transform="translate(0.000000, 5.187500)" fill="#0052B4">
                <path d="M32,10.8125 C32,6.661125 30.418875,2.879375 27.8260625,0.03575 L27.8260625,21.5893125 C30.418875,18.745625 32,14.963875 32,10.8125 Z" id="Shape"></path>
                <path d="M19.9868125,24.9295625 L21.66275,24.9285 L22.17975,23.3341875 L22.698625,24.927875 L23.53925,24.927375 C24.0546875,24.6514375 24.55325,24.3481875 25.033,24.0193125 L2.7930625,1.7794375 C2.4265625,2.3141875 2.0923125,2.8725625 1.79175,3.4513125 L1.989375,4.0583125 L3.6653125,4.05725 L2.3100625,5.0431875 L2.8289375,6.636875 L1.4724375,5.652625 L0.663375,6.241125 C0.2320625,7.689625 0,9.2239375 0,10.8125 C0,19.649 7.1635,26.8125 16,26.8125 C17.86825,26.8125 19.6614375,26.49175 21.328125,25.903 L19.9868125,24.9295625 Z M3.5686875,10.116875 L4.0855625,8.522625 L2.7291875,7.53825 L4.405125,7.5371875 L4.9220625,5.942875 L5.4409375,7.5365625 L7.116875,7.5355 L5.7615625,8.5214375 L6.2804375,10.115125 L4.9239375,9.130875 L3.5686875,10.116875 Z M7.02025,13.595125 L7.537125,12.000875 L6.18075,11.0165 L7.8566875,11.0154375 L8.373625,9.421125 L8.8925,11.0148125 L10.5684375,11.01375 L9.2131875,11.9996875 L9.7320625,13.593375 L8.3755625,12.609125 L7.02025,13.595125 Z M10.47175,17.073375 L10.988625,15.479125 L9.63225,14.49475 L11.3081875,14.4936875 L11.825125,12.899375 L12.344,14.4930625 L14.0199375,14.492 L12.6646875,15.4779375 L13.1835625,17.071625 L11.8270625,16.08725 L10.47175,17.073375 Z M15.2785625,19.5656875 L13.92325,20.551625 L14.440125,18.957375 L13.08375,17.973 L14.7596875,17.9719375 L15.2766875,16.377625 L15.7955625,17.9713125 L17.4715,17.97025 L16.11625,18.9561875 L16.635125,20.549875 L15.2785625,19.5656875 Z M17.3748125,24.029875 L17.8916875,22.435625 L16.5353125,21.45125 L18.21125,21.4501875 L18.7281875,19.855875 L19.2470625,21.4495625 L20.923,21.4485 L19.56775,22.4344375 L20.086625,24.028125 L18.730125,23.04375 L17.3748125,24.029875 Z" id="Shape"></path>
            </g>
        </g>
    </g>
</svg>