<?xml version="1.0" encoding="UTF-8"?>
<svg width="32px" height="32px" viewBox="0 0 32 32" version="1.1" xmlns="http://www.w3.org/2000/svg" xmlns:xlink="http://www.w3.org/1999/xlink">
    <!-- Generator: Sketch 50.2 (55047) - http://www.bohemiancoding.com/sketch -->
    <title>botswana@1x</title>
    <desc>Created with Sketch.</desc>
    <defs></defs>
    <g id="flags" stroke="none" stroke-width="1" fill="none" fill-rule="evenodd">
        <g id="botswana" fill-rule="nonzero">
            <path d="M0.7555625,11.130375 C0.2654375,12.6659375 -4.44102762e-16,14.30175 6.25e-05,15.9999375 C-4.44102762e-16,17.698 0.2654375,19.333875 0.755625,20.8695 L16.0000625,21.56525 L31.2444375,20.8695 C31.7345,19.333875 32,17.6979375 32,16 C32,14.301875 31.7345625,12.6659375 31.2444375,11.130375 L16,10.43475 L0.7555625,11.130375 Z" id="Shape" fill="#F0F0F0"></path>
            <path d="M32,16 C32,15.0508125 31.916875,14.1210625 31.7583125,13.2173125 L0.24175,13.2173125 C0.083125,14.1210625 0,15.0506875 0,15.9999375 C0,16.9491875 0.0831875,17.8788125 0.24175,18.7825625 L31.7583125,18.7825625 C31.9168125,17.87875 32,16.949125 32,16 Z" id="Shape" fill="#000000"></path>
            <g id="Group" transform="translate(0.750000, 0.000000)" fill="#338AF3">
                <path d="M15.2500625,31.9999375 C22.3885625,31.9999375 28.4341875,27.32475 30.4944375,20.8694375 L0.005625,20.8694375 C2.0659375,27.3246875 8.111625,31.9998125 15.2500625,31.9999375 Z" id="Shape"></path>
                <path d="M15.2500625,6.25e-05 C8.111625,6.25e-05 2.066,4.67525 0.0055625,11.1304375 L30.4943125,11.1304375 C28.434125,4.67525 22.3884375,-6.25e-05 15.2500625,6.25e-05 Z" id="Shape"></path>
            </g>
        </g>
    </g>
</svg>