<?xml version="1.0" encoding="UTF-8"?>
<svg width="32px" height="32px" viewBox="0 0 32 32" version="1.1" xmlns="http://www.w3.org/2000/svg" xmlns:xlink="http://www.w3.org/1999/xlink">
    <!-- Generator: Sketch 50.2 (55047) - http://www.bohemiancoding.com/sketch -->
    <title>Brazil@1x</title>
    <desc>Created with Sketch.</desc>
    <defs></defs>
    <g id="flags" stroke="none" stroke-width="1" fill="none" fill-rule="evenodd">
        <g id="Brazil" fill-rule="nonzero">
            <path d="M0.515869018,12.195466 C2.62770781,3.64332494 11.2765743,-1.57178841 19.8287154,0.548110831 C28.3808564,2.65994962 33.5959698,11.3088161 31.4760705,19.8609572 C29.3561713,28.4130982 20.7153652,33.6282116 12.1632242,31.5083123 C3.61914358,29.3884131 -1.60403023,20.7476071 0.515869018,12.195466" id="Shape" fill="#54B948"></path>
            <polygon id="Shape" fill="#FFD203" points="1.15264484 16.088665 15.8790932 25.4952141 30.6055416 16.088665 15.8790932 6.69017632"></polygon>
            <g id="Group" transform="translate(9.511335, 9.753149)">
                <path d="M6.36775819,0.0322418136 C9.84987406,0.0322418136 12.6710327,2.8534005 12.6710327,6.34357683 C12.6710327,9.8256927 9.84987406,12.6549118 6.36775819,12.6549118 C2.88564232,12.6549118 0.0564231738,9.83375315 0.0564231738,6.34357683 C0.0564231738,2.8534005 2.87758186,0.0322418136 6.36775819,0.0322418136" id="Shape" fill="#2E3192"></path>
                <path d="M12.6387909,6.97229219 C9.88211587,4.77178841 6.35163728,3.50629723 2.55516373,3.63526448 C1.8861461,3.65944584 1.21712846,3.73198992 0.572292191,3.83677582 C0.435264484,4.1511335 0.330478589,4.47355164 0.241813602,4.81209068 C0.999496222,4.65894207 1.7813602,4.56221662 2.58740554,4.53803526 C6.34357683,4.40906801 9.80957179,5.72292191 12.4534005,7.97984887 C12.5420655,7.65743073 12.6065491,7.31889169 12.6387909,6.97229219" id="Shape" fill="#FFFFFF"></path>
            </g>
            <path d="M10.3899244,13.9929471 L10.4624685,14.1380353 L10.5914358,14.1702771 L10.7042821,14.097733 L10.7284635,13.9284635 L10.6639798,13.7753149 L10.5350126,13.743073 L10.4221662,13.8156171 L10.3899244,13.9929471 Z M10.2609572,14.0171285 L10.2690176,13.8559194 L10.3093199,13.7672544 L10.381864,13.7027708 L10.5108312,13.6624685 L10.7365239,13.7188917 L10.8493703,13.9365239 L10.8010076,14.1783375 L10.5994962,14.2911839 L10.3738035,14.2347607 L10.2609572,14.0171285 Z" id="Shape" fill="#0C9C51"></path>
            <path d="M11.2282116,13.8397985 L11.3168766,13.831738 L11.4297229,13.8156171 L11.4619647,13.7833753 L11.4700252,13.7350126 L11.4539043,13.6866499 L11.4055416,13.670529 L11.3168766,13.6785894 L11.2201511,13.6866499 L11.2282116,13.8397985 Z M11.1314861,14.2025189 L11.075063,13.5899244 L11.3329975,13.5657431 L11.4780856,13.5657431 L11.5506297,13.6141058 L11.5828715,13.7108312 L11.5506297,13.8236776 L11.4297229,13.8881612 L11.502267,13.9365239 L11.5828715,14.0332494 L11.6715365,14.1460957 L11.5264484,14.1622166 L11.4216625,14.0332494 L11.3491184,13.9526448 L11.3088161,13.9284635 L11.2443325,13.9284635 L11.2201511,13.9284635 L11.2443325,14.186398 L11.1314861,14.2025189 Z" id="Shape" fill="#0C9C51"></path>
            <path d="M12.0100756,13.6302267 L12.018136,14.0413098 L12.1148615,14.0413098 L12.1874055,14.0332494 L12.2357683,14.009068 L12.2680101,13.9445844 L12.2760705,13.831738 L12.2599496,13.7188917 L12.2196474,13.6624685 L12.1632242,13.6382872 L12.0584383,13.6382872 L12.0100756,13.6302267 Z M11.8811083,13.5254408 L12.106801,13.5173804 L12.2277078,13.5254408 L12.3244332,13.581864 L12.3889169,13.6785894 L12.4130982,13.8236776 L12.3969773,13.9526448 L12.3324937,14.0654912 L12.2438287,14.1138539 L12.1309824,14.1299748 L11.8972292,14.1380353 L11.8811083,13.5254408 Z" id="Shape" fill="#0C9C51"></path>
            <polygon id="Shape" fill="#0C9C51" points="12.6549118 14.1219144 12.6635325 13.5093199 13.1549118 13.5173804 13.1549118 13.6221662 12.7928429 13.6141058 12.7928429 13.7511335 13.1204291 13.759194 13.1204291 13.8639798 12.7928429 13.8559194 12.7842222 14.0251889 13.1549118 14.0251889 13.1549118 14.1299748"></polygon>
            <polygon id="Shape" fill="#0C9C51" points="13.3722922 14.1380353 13.4125945 13.5254408 13.5979849 13.5415617 13.6785894 13.9687657 13.8236776 13.5576826 14.009068 13.5657431 13.9607053 14.186398 13.8478589 14.1783375 13.8801008 13.6947103 13.7269521 14.1702771 13.6060453 14.1622166 13.5173804 13.6624685 13.4851385 14.1460957"></polygon>
            <polygon id="Shape" fill="#0C9C51" points="14.6055416 14.2589421 14.6942065 13.6463476 15.1455919 13.7188917 15.129471 13.8236776 14.7989924 13.7672544 14.7828715 13.9042821 15.0891688 13.9526448 15.0730479 14.0574307 14.7667506 14.009068 14.7425693 14.1702771 15.0811083 14.2267003 15.0649874 14.3314861"></polygon>
            <path d="M15.911335,13.9768262 L15.8710327,14.1460957 L15.9355164,14.1622166 L16.0322418,14.1783375 L16.0806045,14.1541562 L16.1047859,14.1138539 L16.0967254,14.0574307 L16.0564232,14.0171285 L15.9758186,13.9929471 L15.911335,13.9768262 Z M15.6695214,14.4443325 L15.8065491,13.8397985 L16,13.8881612 L16.1450882,13.9284635 L16.2176322,14.009068 L16.2256927,14.1380353 L16.1853904,14.2267003 L16.1209068,14.275063 L16.0483627,14.2911839 L15.9193955,14.2670025 L15.8387909,14.2508816 L15.7904282,14.4765743 L15.6695214,14.4443325 Z" id="Shape" fill="#0C9C51"></path>
            <path d="M16.5884131,14.3073048 L16.6770781,14.3314861 L16.7899244,14.3556675 L16.8302267,14.3395466 L16.8544081,14.2992443 L16.8544081,14.2508816 L16.8141058,14.2186398 L16.7254408,14.1944584 L16.6367758,14.1702771 L16.5884131,14.3073048 Z M16.3707809,14.613602 L16.5400504,14.0171285 L16.7899244,14.0896725 L16.9269521,14.1460957 L16.9833753,14.2186398 L16.9833753,14.3234257 L16.9108312,14.4201511 L16.7738035,14.436272 L16.8221662,14.5007557 L16.8624685,14.613602 L16.9027708,14.7506297 L16.7576826,14.7103275 L16.7093199,14.5571788 L16.6690176,14.4523929 L16.6367758,14.4201511 L16.5803526,14.3959698 L16.5561713,14.3879093 L16.4836272,14.6377834 L16.3707809,14.613602 Z" id="Shape" fill="#0C9C51"></path>
            <path d="M17.297733,14.5732997 L17.2896725,14.7425693 L17.386398,14.8312343 L17.5153652,14.8151134 L17.6120907,14.6780856 L17.6201511,14.5088161 L17.5234257,14.4201511 L17.386398,14.4282116 L17.297733,14.5732997 Z M17.1768262,14.5329975 L17.2574307,14.3959698 L17.3380353,14.3314861 L17.4347607,14.3073048 L17.5717884,14.3314861 L17.7491184,14.4846348 L17.7491184,14.7345088 L17.5959698,14.9279597 L17.3622166,14.9360202 L17.1848866,14.7828715 L17.1848866,14.5329975 L17.1768262,14.5329975 Z" id="Shape" fill="#0C9C51"></path>
            <polygon id="Shape" fill="#0C9C51" points="18.2166247 15.0005038 18.256927 14.9037783 18.506801 15.0085642 18.4100756 15.2342569 18.2811083 15.2503778 18.1279597 15.218136 17.990932 15.1214106 17.9345088 14.968262 17.9667506 14.8070529 18.0634761 14.6619647 18.2166247 14.5974811 18.3697733 14.6297229 18.5148615 14.7425693 18.5390428 14.8957179 18.418136 14.8715365 18.4020151 14.7828715 18.329471 14.7264484 18.1843829 14.7264484 18.079597 14.8473552 18.0634761 15.0166247 18.1602015 15.1214106 18.240806 15.1375315 18.3214106 15.129471 18.3455919 15.056927"></polygon>
            <path d="M18.8775819,15.1455919 L18.9581864,15.1858942 L19.0629723,15.2261965 L19.1032746,15.218136 L19.1355164,15.1858942 L19.1435768,15.1375315 L19.111335,15.0972292 L19.0307305,15.056927 L18.9420655,15.0166247 L18.8775819,15.1455919 Z M18.6115869,15.4196474 L18.8775819,14.8634761 L19.111335,14.9763224 L19.2322418,15.056927 L19.2725441,15.1375315 L19.2564232,15.2342569 L19.1758186,15.3229219 L19.0387909,15.3229219 L19.0790932,15.395466 L19.1032746,15.5163728 L19.1193955,15.661461 L18.9823678,15.5969773 L18.9581864,15.4357683 L18.9420655,15.3229219 L18.9178841,15.2826196 L18.861461,15.2503778 L18.8372796,15.2423174 L18.7244332,15.4760705 L18.6115869,15.4196474 Z" id="Shape" fill="#0C9C51"></path>
            <polygon id="Shape" fill="#0C9C51" points="19.2967254 15.7501259 19.5869018 15.2100756 19.9899244 15.4277078 19.9415617 15.5163728 19.6433249 15.3551637 19.5788413 15.4760705 19.8528967 15.6292191 19.804534 15.7178841 19.5304786 15.572796 19.4579345 15.7178841 19.7561713 15.8790932 19.7078086 15.9758186"></polygon>
            <polygon id="Shape" fill="#0C9C51" points="19.9979849 15.9032746 20.1027708 15.9596977 20.0947103 16.0564232 20.159194 16.1289673 20.2478589 16.1531486 20.3042821 16.1209068 20.3123426 16.0806045 20.2881612 16.0322418 20.2156171 15.9596977 20.1350126 15.8387909 20.1511335 15.7017632 20.2156171 15.6372796 20.3123426 15.6292191 20.4251889 15.6695214 20.5541562 15.8065491 20.5299748 15.9516373 20.4251889 15.8952141 20.4332494 15.8146096 20.3768262 15.7581864 20.2881612 15.734005 20.2559194 15.7581864 20.2478589 15.7984887 20.3284635 15.8871537 20.4171285 16 20.4413098 16.088665 20.4171285 16.1853904 20.3365239 16.2579345 20.231738 16.265995 20.1027708 16.2176322 19.981864 16.0806045"></polygon>
            <polygon id="Shape" fill="#0C9C51" points="20.6105793 16.2901763 20.7234257 16.3465995 20.7073048 16.4433249 20.763728 16.515869 20.8523929 16.5481108 20.9168766 16.515869 20.924937 16.4755668 20.9007557 16.4352645 20.836272 16.3546599 20.7476071 16.2256927 20.7717884 16.088665 20.8443325 16.0322418 20.9491184 16.0241814 21.0539043 16.0725441 21.1748111 16.2095718 21.1506297 16.3627204 21.0458438 16.2982368 21.0539043 16.2176322 20.9974811 16.1612091 20.9168766 16.1289673 20.8765743 16.1450882 20.8685139 16.1934509 20.9410579 16.2901763 21.0297229 16.4030227 21.0539043 16.4916877 21.0216625 16.5884131 20.9329975 16.6528967 20.8282116 16.6609572 20.7073048 16.604534 20.586398 16.4594458"></polygon>
            <path d="M21.3843829,16.693199 L21.3279597,16.8544081 L21.3924433,16.9672544 L21.5214106,16.9994962 L21.6584383,16.9027708 L21.7148615,16.7496222 L21.6503778,16.6367758 L21.5214106,16.604534 L21.3843829,16.693199 Z M21.279597,16.6206549 L21.4005038,16.515869 L21.4972292,16.4836272 L21.5939547,16.4836272 L21.7148615,16.5481108 L21.8357683,16.7496222 L21.7551637,16.9833753 L21.5536524,17.120403 L21.3279597,17.0559194 L21.2070529,16.8544081 L21.279597,16.6206549 Z" id="Shape" fill="#0C9C51"></path>
            <polygon id="Shape" fill="#FFFFFF" points="17.8821737 13.6947103 17.9477475 13.8929862 18.136272 13.8929862 17.9805343 14.0050552 18.0379114 14.1947103 17.8821737 14.0826414 17.726436 14.1947103 17.7920097 14.0050552 17.636272 13.8929862 17.8247966 13.8929862"></polygon>
            <polygon id="Shape" fill="#FFFFFF" points="15.911461 18.7969773 15.9697943 18.9899598 16.161461 18.9899598 16.011461 19.1039949 16.0697943 19.2969773 15.911461 19.1829422 15.7531276 19.2969773 15.811461 19.1039949 15.661461 18.9899598 15.8531276 18.9899598"></polygon>
            <polygon id="Shape" fill="#FFFFFF" points="20.3809142 18.168262 20.446488 18.3547026 20.6350126 18.3547026 20.4792749 18.4733467 20.5366519 18.668262 20.3809142 18.5496179 20.2251765 18.668262 20.2825536 18.4733467 20.1350126 18.3547026 20.3235372 18.3547026"></polygon>
            <polygon id="Shape" fill="#FFFFFF" points="21.352267 18.3133501 21.414767 18.5107185 21.602267 18.5107185 21.439767 18.6291396 21.502267 18.8133501 21.352267 18.6949291 21.202267 18.8133501 21.252267 18.6291396 21.102267 18.5107185 21.289767 18.5107185"></polygon>
            <polygon id="Shape" fill="#FFFFFF" points="20.6671285 18.7647355 20.722684 18.9608139 20.9171285 18.9608139 20.7597211 19.078461 20.8245359 19.2647355 20.6671285 19.1470885 20.5097211 19.2647355 20.5745359 19.078461 20.4171285 18.9608139 20.6115729 18.9608139"></polygon>
            <polygon id="Shape" fill="#FFFFFF" points="20.2802267 19.288665 20.337919 19.478665 20.5302267 19.478665 20.3763805 19.598665 20.4436882 19.788665 20.2802267 19.668665 20.1263805 19.788665 20.1840729 19.598665 20.0302267 19.478665 20.2225344 19.478665"></polygon>
            <polygon id="Shape" fill="#FFFFFF" points="19.8146833 19.6675063 19.8756589 19.859814 20.0707809 19.859814 19.9122443 19.9751986 19.9732199 20.1675063 19.8146833 20.0393012 19.6683418 20.1675063 19.7293174 19.9751986 19.5707809 19.859814 19.7659028 19.859814"></polygon>
            <polygon id="Shape" fill="#FFFFFF" points="19.1598237 19.538539 19.2223237 19.7359075 19.4098237 19.7359075 19.2598237 19.8543285 19.3223237 20.038539 19.1598237 19.920118 19.0098237 20.038539 19.0723237 19.8543285 18.9098237 19.7359075 19.1098237 19.7359075"></polygon>
            <polygon id="Shape" fill="#FFFFFF" points="18.4401968 19.7561713 18.4983364 19.9512932 18.6843829 19.9512932 18.5332201 20.0610493 18.5913596 20.2561713 18.4401968 20.1342201 18.2774061 20.2561713 18.3355457 20.0610493 18.1843829 19.9512932 18.3704294 19.9512932"></polygon>
            <polygon id="Shape" fill="#FFFFFF" points="19.1739817 20.7959698 19.2227622 20.9882775 19.4178841 20.9882775 19.2593475 21.1036621 19.3203232 21.2959698 19.1739817 21.1805852 19.0154451 21.2959698 19.0764207 21.1036621 18.9178841 20.9882775 19.1130061 20.9882775"></polygon>
            <polygon id="Shape" fill="#FFFFFF" points="17.8217884 20.2478589 17.8753598 20.4365382 18.0717884 20.4365382 17.9110741 20.5591797 17.9735741 20.7478589 17.8217884 20.6252174 17.6700027 20.7478589 17.7235741 20.5591797 17.5717884 20.4365382 17.7592884 20.4365382"></polygon>
            <polygon id="Shape" fill="#FFFFFF" points="17.3865239 19.5869018 17.4460477 19.7820237 17.6365239 19.7820237 17.481762 19.8917798 17.5412858 20.0869018 17.3865239 19.9649505 17.231762 20.0869018 17.2793811 19.8917798 17.1365239 19.7820237 17.3270001 19.7820237"></polygon>
            <polygon id="Shape" fill="#FFFFFF" points="19.1356423 20.1027708 19.2004571 20.2988492 19.3856423 20.2988492 19.2282349 20.4164963 19.2930497 20.6027708 19.1356423 20.4851237 18.9874942 20.6027708 19.0430497 20.4164963 18.8856423 20.2988492 19.0800868 20.2988492"></polygon>
            <polygon id="Shape" fill="#FFFFFF" points="16.0646096 21.1183879 16.1146096 21.3025984 16.3146096 21.3025984 16.1646096 21.4341774 16.2146096 21.6183879 16.0646096 21.486809 15.9146096 21.6183879 15.9646096 21.4341774 15.8146096 21.3025984 16.0146096 21.3025984"></polygon>
            <polygon id="Shape" fill="#FFFFFF" points="17.6444584 15.6130982 17.7012766 15.8154792 17.8944584 15.8154792 17.7353675 15.922622 17.7921857 16.1130982 17.6444584 16.0059554 17.4853675 16.1130982 17.5421857 15.922622 17.3944584 15.8154792 17.5762766 15.8154792"></polygon>
            <polygon id="Shape" fill="#FFFFFF" points="15.9545045 17.0075567 16.0183343 17.2007385 16.2098237 17.2007385 16.0502492 17.3143749 16.114079 17.5075567 15.9545045 17.3939203 15.8055684 17.5075567 15.8693981 17.3143749 15.7098237 17.2007385 15.901313 17.2007385"></polygon>
            <polygon id="Shape" fill="#FFFFFF" points="16.6852645 17.5798489 16.7452645 17.7713382 16.9352645 17.7713382 16.7852645 17.8883595 16.8452645 18.0798489 16.6852645 17.9628276 16.5352645 18.0798489 16.5952645 17.8883595 16.4352645 17.7713382 16.6352645 17.7713382"></polygon>
            <polygon id="Shape" fill="#FFFFFF" points="15.3472292 17.6040302 15.4097292 17.7932194 15.5972292 17.7932194 15.4347292 17.914841 15.4972292 18.1040302 15.3472292 17.9824086 15.1972292 18.1040302 15.2472292 17.914841 15.0972292 17.7932194 15.2847292 17.7932194"></polygon>
            <polygon id="Shape" fill="#FFFFFF" points="15.7099496 18.1198992 15.7676419 18.3198992 15.9599496 18.3198992 15.8061035 18.4198992 15.8637958 18.6198992 15.7099496 18.4998992 15.5561035 18.6198992 15.6137958 18.4198992 15.4599496 18.3198992 15.6522573 18.3198992"></polygon>
            <polygon id="Shape" fill="#FFFFFF" points="10.6680679 14.7989924 10.7254449 14.9886476 10.9221662 14.9886476 10.7664285 15.1007166 10.8238056 15.2989924 10.6680679 15.1783028 10.5123302 15.2989924 10.577904 15.1007166 10.4221662 14.9886476 10.6106908 14.9886476"></polygon>
            <polygon id="Shape" fill="#FFFFFF" points="13.4823061 16.2256927 13.5333265 16.4236094 13.727204 16.4236094 13.5741428 16.5381927 13.6353673 16.7256927 13.4823061 16.6111094 13.3190408 16.7256927 13.3802653 16.5381927 13.227204 16.4236094 13.4210816 16.4236094"></polygon>
            <polygon id="Shape" fill="#FFFFFF" points="11.2403601 17.475063 11.2977371 17.6647181 11.4944584 17.6647181 11.3387207 17.7854078 11.3960978 17.975063 11.2403601 17.8543733 11.0846224 17.975063 11.1419994 17.7854078 10.9944584 17.6647181 11.182983 17.6647181"></polygon>
            <polygon id="Shape" fill="#FFFFFF" points="11.9860202 17.209068 12.0360202 17.3987232 12.2360202 17.3987232 12.0860202 17.5194128 12.1360202 17.709068 11.9860202 17.5883784 11.8360202 17.709068 11.8860202 17.5194128 11.7360202 17.3987232 11.9193535 17.3987232"></polygon>
            <polygon id="Shape" fill="#FFFFFF" points="12.6147355 18.1440806 12.6724278 18.3340806 12.8647355 18.3340806 12.7108894 18.4540806 12.7685817 18.6440806 12.6147355 18.5240806 12.4608894 18.6440806 12.5185817 18.4540806 12.3647355 18.3340806 12.5570432 18.3340806"></polygon>
            <polygon id="Shape" fill="#FFFFFF" points="13.3280175 19.3209068 13.3853946 19.510562 13.5821159 19.510562 13.4263782 19.6312516 13.4837552 19.8209068 13.3280175 19.7002171 13.1722798 19.8209068 13.2378536 19.6312516 13.0821159 19.510562 13.2706405 19.510562"></polygon>
            <polygon id="Shape" fill="#FFFFFF" points="12.4051637 18.7808564 12.4724714 18.9708564 12.6551637 18.9708564 12.5013176 19.0908564 12.5590099 19.2808564 12.4051637 19.1608564 12.2513176 19.2808564 12.3090099 19.0908564 12.1551637 18.9708564 12.3474714 18.9708564"></polygon>
            <polygon id="Shape" fill="#FFFFFF" points="10.5351385 18.1279597 10.5976385 18.3121702 10.7851385 18.3121702 10.6351385 18.4305913 10.6851385 18.6279597 10.5351385 18.5095386 10.3851385 18.6279597 10.4351385 18.4305913 10.2851385 18.3121702 10.4726385 18.3121702"></polygon>
            <path d="M16.5400504,14.0171285 L16.3707809,14.613602 L16.4916877,14.6458438 L16.5642317,14.3959698 L16.5884131,14.4040302 L16.6448363,14.4282116 L16.6770781,14.4604534 L16.7173804,14.5652393 L16.7657431,14.7183879 L16.9108312,14.7586902 L16.870529,14.6216625 L16.8302267,14.5088161 L16.781864,14.4443325 L16.9188917,14.4282116 L16.9914358,14.3314861 L16.9914358,14.2267003 L16.9350126,14.1541562 L16.7979849,14.097733 L16.5400504,14.0171285 Z M16.7899244,14.3556675 L16.6770781,14.3314861 L16.5884131,14.3073048 L16.6367758,14.1541562 L16.7254408,14.1783375 L16.8141058,14.2025189 L16.8544081,14.2347607 L16.8544081,14.2831234 L16.8302267,14.3234257 L16.7899244,14.3556675 Z" id="Shape" fill="#118543"></path>
            <path d="M17.4267003,14.2992443 L17.3299748,14.3234257 L17.2493703,14.3879093 L17.1687657,14.524937 L17.1687657,14.7748111 L17.3460957,14.9279597 L17.5798489,14.9198992 L17.7329975,14.7264484 L17.7329975,14.4765743 L17.5556675,14.3234257 L17.4267003,14.2992443 Z M17.386398,14.8312343 L17.2896725,14.7425693 L17.297733,14.5732997 L17.3944584,14.436272 L17.5314861,14.4282116 L17.636272,14.5168766 L17.6282116,14.6861461 L17.5314861,14.8231738 L17.386398,14.8312343 Z" id="Shape" fill="#118543"></path>
            <polygon id="Shape" fill="#118543" points="18.2166247 14.5974811 18.0634761 14.6619647 17.9667506 14.8070529 17.9345088 14.968262 17.990932 15.1214106 18.1279597 15.218136 18.2811083 15.2503778 18.4100756 15.2342569 18.506801 15.0085642 18.256927 14.9037783 18.2166247 15.0005038 18.3455919 15.056927 18.3214106 15.129471 18.240806 15.1375315 18.1602015 15.1214106 18.0634761 15.0166247 18.079597 14.8473552 18.1843829 14.7264484 18.329471 14.7264484 18.4020151 14.7828715 18.418136 14.8715365 18.5390428 14.8957179 18.5148615 14.7425693 18.3697733 14.6297229"></polygon>
            <path d="M18.8775819,14.8634761 L18.6115869,15.4196474 L18.7244332,15.4760705 L18.8372796,15.2423174 L18.861461,15.2503778 L18.9178841,15.2826196 L18.9420655,15.3229219 L18.9581864,15.4357683 L18.9823678,15.5969773 L19.1193955,15.661461 L19.1032746,15.5163728 L19.0790932,15.395466 L19.0387909,15.3229219 L19.1758186,15.3229219 L19.2564232,15.2342569 L19.2725441,15.1375315 L19.2322418,15.056927 L19.111335,14.9763224 L18.8775819,14.8634761 Z M19.0629723,15.2342569 L18.9581864,15.1939547 L18.8775819,15.1536524 L18.9420655,15.0166247 L19.0307305,15.056927 L19.111335,15.0972292 L19.1435768,15.1375315 L19.1355164,15.1858942 L19.1032746,15.218136 L19.0629723,15.2342569 Z" id="Shape" fill="#118543"></path>
            <polygon id="Shape" fill="#118543" points="19.5869018 15.2100756 19.2967254 15.7501259 19.7078086 15.9758186 19.7561713 15.8790932 19.4579345 15.7178841 19.5304786 15.572796 19.804534 15.7178841 19.8528967 15.6292191 19.5788413 15.4760705 19.6433249 15.3551637 19.9415617 15.5163728 19.9899244 15.4277078"></polygon>
            <polygon id="Shape" fill="#118543" points="20.3123426 15.6292191 20.2156171 15.6372796 20.1511335 15.7017632 20.1350126 15.8387909 20.2156171 15.9596977 20.2881612 16.0322418 20.3123426 16.0806045 20.3042821 16.1209068 20.2478589 16.1531486 20.159194 16.1289673 20.0947103 16.0564232 20.1027708 15.9596977 19.9979849 15.9032746 19.981864 16.0806045 20.1027708 16.2176322 20.231738 16.265995 20.3365239 16.2579345 20.4171285 16.1853904 20.4413098 16.088665 20.4171285 16 20.3284635 15.8871537 20.2478589 15.7984887 20.2559194 15.7581864 20.2881612 15.734005 20.3768262 15.7581864 20.4332494 15.8146096 20.4251889 15.8952141 20.5299748 15.9516373 20.5541562 15.8065491 20.4251889 15.6695214"></polygon>
            <polygon id="Shape" fill="#118543" points="20.9491184 16.0241814 20.8443325 16.0322418 20.7717884 16.088665 20.7476071 16.2256927 20.836272 16.3546599 20.9007557 16.4352645 20.924937 16.4755668 20.9168766 16.515869 20.8523929 16.5481108 20.763728 16.515869 20.7073048 16.4433249 20.7234257 16.3465995 20.6105793 16.2901763 20.586398 16.4594458 20.7073048 16.604534 20.8282116 16.6609572 20.9329975 16.6528967 21.0216625 16.5884131 21.0539043 16.4916877 21.0297229 16.4030227 20.9410579 16.2901763 20.8685139 16.1934509 20.8765743 16.1450882 20.9168766 16.1289673 20.9974811 16.1612091 21.0539043 16.2176322 21.0458438 16.2982368 21.1506297 16.3627204 21.1748111 16.2095718 21.0539043 16.0725441"></polygon>
            <path d="M21.4891688,16.4755668 L21.3924433,16.5078086 L21.2715365,16.6125945 L21.1989924,16.8463476 L21.3198992,17.0478589 L21.5455919,17.1123426 L21.7471033,16.9753149 L21.8277078,16.7415617 L21.706801,16.5400504 L21.5858942,16.4755668 L21.4891688,16.4755668 Z M21.5214106,16.9994962 L21.3924433,16.9672544 L21.3279597,16.8544081 L21.3843829,16.693199 L21.5214106,16.5964736 L21.6503778,16.6287154 L21.7148615,16.7415617 L21.6584383,16.8947103 L21.5214106,16.9994962 Z" id="Shape" fill="#118543"></path>
        </g>
    </g>
</svg>