<?xml version="1.0" encoding="UTF-8"?>
<svg width="32px" height="32px" viewBox="0 0 32 32" version="1.1" xmlns="http://www.w3.org/2000/svg" xmlns:xlink="http://www.w3.org/1999/xlink">
    <!-- Generator: Sketch 50.2 (55047) - http://www.bohemiancoding.com/sketch -->
    <title>british-virgin-islands@1x</title>
    <desc>Created with Sketch.</desc>
    <defs></defs>
    <g id="flags" stroke="none" stroke-width="1" fill="none" fill-rule="evenodd">
        <g id="british-virgin-islands" fill-rule="nonzero">
            <path d="M32,16 C32,24.8365 24.8365,32 16,32 C7.1635,32 0,24.8365 0,16 C0,16.0038125 16,0.00175 16,0 C24.8365,0 32,7.1635 32,16 Z" id="Shape" fill="#0052B4"></path>
            <g id="Group" fill="#F0F0F0">
                <path d="M16.0188125,0 C16.0108125,0 16.0048125,0 15.9973125,0 L16.0188125,0 Z" id="Shape"></path>
                <path d="M15.9571875,16.2996875 L16.2996875,16.2996875 C16.2996875,16.1846875 16.2996875,16.0726875 16.2996875,15.9571875 C16.1856875,16.0716875 16.0716875,16.1856875 15.9571875,16.2996875 Z" id="Shape"></path>
                <path d="M16,8.3478125 C16,5.5325 16,3.6878125 16.0000625,0 L15.9973125,0 C7.1619375,0.0015 0,7.1643125 0,16 L8.3478125,16 L8.3478125,11.2993125 L13.0485,16 L15.95725,16 C15.9715,15.98575 15.98575,15.9715 16.0000625,15.9571875 C16.0000625,14.87925 16.0000625,13.9174375 16.0000625,13.048625 L11.29925,8.3478125 L16,8.3478125 Z" id="Shape"></path>
            </g>
            <path d="M8.0946875,2.0869375 C5.59225,3.511875 3.5118125,5.59225 2.0869375,8.0946875 L2.0869375,16 L6.260875,16 L6.260875,6.261 L6.260875,6.260875 L16,6.260875 C16,4.9444375 16,3.6903125 16,2.0869375 L8.0946875,2.0869375 Z" id="Shape" fill="#D80027"></path>
            <path d="M22.9565,16 L18.6319375,20.3245625 C19.4424375,21.88775 21.0741875,22.9565 22.9565,22.9565 C24.8388125,22.9565 26.4705625,21.88775 27.2810625,20.3245625 L22.9565,16 Z" id="Shape" fill="#FFDA44"></path>
            <path d="M16,14.0324375 L10.3153125,8.347875 L8.3478125,8.347875 L8.3478125,8.348 L15.999875,16 L16,16 C16,16 16,14.6433125 16,14.0324375 Z" id="Shape" fill="#D80027"></path>
            <path d="M18.0869375,8.3478125 L18.0869375,15.9999375 L18.0869375,16 C18.087,19.7274375 22.9565,20.8695625 22.9565,20.8695625 C22.9565,20.8695625 27.826,19.7274375 27.8260625,16 L27.8260625,15.9999375 L27.8260625,8.3478125 L18.0869375,8.3478125 Z" id="Shape" fill="#6DA544"></path>
            <g id="Group" transform="translate(18.062500, 15.937500)" fill="#496E2D">
                <path d="M9.7635625,0.25025 L9.7635625,0.24975 L9.7635625,0.25025 Z" id="Shape"></path>
                <polygon id="Shape" points="0.0244375 0.25025 0.0244375 0.25025 0.0244375 0.24975"></polygon>
            </g>
            <rect id="Rectangle-path" fill="#F0F0F0" x="21.9130625" y="11.8260625" width="2.0869375" height="5.5651875"></rect>
            <circle id="Oval" fill="#A2001D" cx="22.9565" cy="11.8260625" r="1.0435"></circle>
            <g id="Group" transform="translate(19.437500, 9.687500)" fill="#FFDA44">
                <rect id="Rectangle-path" x="0.04075" y="0.051625" width="1.3913125" height="1.3913125"></rect>
                <rect id="Rectangle-path" x="0.04075" y="3.1820625" width="1.3913125" height="1.3913125"></rect>
                <rect id="Rectangle-path" x="0.04075" y="6.3125" width="1.3913125" height="1.3913125"></rect>
                <rect id="Rectangle-path" x="5.606" y="0.051625" width="1.3913125" height="1.3913125"></rect>
                <rect id="Rectangle-path" x="5.606" y="3.1820625" width="1.3913125" height="1.3913125"></rect>
                <rect id="Rectangle-path" x="5.606" y="6.3125" width="1.3913125" height="1.3913125"></rect>
            </g>
        </g>
    </g>
</svg>