<?xml version="1.0" encoding="UTF-8"?>
<svg width="32px" height="32px" viewBox="0 0 32 32" version="1.1" xmlns="http://www.w3.org/2000/svg" xmlns:xlink="http://www.w3.org/1999/xlink">
    <!-- Generator: Sketch 50.2 (55047) - http://www.bohemiancoding.com/sketch -->
    <title>brunei@1x</title>
    <desc>Created with Sketch.</desc>
    <defs></defs>
    <g id="flags" stroke="none" stroke-width="1" fill="none" fill-rule="evenodd">
        <g id="brunei" fill-rule="nonzero">
            <circle id="Oval" fill="#F0F0F0" cx="15.9998125" cy="15.99975" r="15.9973125"></circle>
            <path d="M2.145625,8.001 C1.4235625,9.2515 0.8909375,10.558875 0.53625,11.8905625 L27.289875,27.336875 C28.2658125,26.3638125 29.1318125,25.24875 29.8536875,23.9983125 L2.145625,8.001 Z" id="Shape" fill="#000000"></path>
            <g id="Group" fill="#FFDA44">
                <path d="M23.998375,2.1455625 C17.597375,-1.55 9.704875,-0.3183125 4.7094375,4.6624375 L31.4630625,20.108625 C33.278875,13.29225 30.39925,5.8411875 23.998375,2.1455625 Z" id="Shape"></path>
                <path d="M8.0010625,29.85375 C14.4019375,33.5493125 22.294625,32.317625 27.2899375,27.3369375 L0.53625,11.8905625 C-1.2794375,18.707125 1.6000625,26.1581875 8.0010625,29.85375 Z" id="Shape"></path>
            </g>
            <g id="Group" transform="translate(9.687500, 9.000000)" fill="#D80027">
                <path d="M10.8331875,5.2608125 C10.8331875,7.757625 8.8090625,9.7818125 6.3121875,9.7818125 C3.8153125,9.7818125 1.7911875,7.7576875 1.7911875,5.2608125 C1.7911875,4.4823125 1.988,3.74975 2.334625,3.1101875 C1.3535625,4.1135 0.747875,5.4855 0.747875,6.999625 C0.747875,10.0726875 3.2390625,12.5639375 6.3121875,12.5639375 C9.3853125,12.5639375 11.8765,10.07275 11.8765,6.999625 C11.8765,5.4855 11.270875,4.1135 10.28975,3.1101875 C10.636375,3.749875 10.8331875,4.4823125 10.8331875,5.2608125 Z" id="Shape"></path>
                <rect id="Rectangle-path" x="5.269" y="0.044375" width="2.086625" height="10.4330625"></rect>
                <path d="M9.789875,2.1309375 L2.8345625,2.1309375 C2.8345625,2.611125 3.252875,3.000375 3.733,3.000375 L3.704,3.000375 C3.704,3.4805625 4.0933125,3.8698125 4.5734375,3.8698125 C4.5734375,4.35 4.96275,4.73925 5.442875,4.73925 L7.1816875,4.73925 C7.661875,4.73925 8.051125,4.35 8.051125,3.8698125 C8.5313125,3.8698125 8.9205625,3.4805625 8.9205625,3.000375 L8.891625,3.000375 C9.371625,3.0003125 9.789875,2.6111875 9.789875,2.1309375 Z" id="Shape"></path>
                <rect id="Rectangle-path" x="1.4435625" y="11.1729375" width="9.7375" height="2.086625"></rect>
                <rect id="Rectangle-path" x="8.398875" y="11.8685" width="4.1731875" height="2.086625"></rect>
                <rect id="Rectangle-path" x="0.0525" y="11.8685" width="4.1731875" height="2.086625"></rect>
            </g>
        </g>
    </g>
</svg>