<?xml version="1.0" encoding="UTF-8"?>
<svg width="32px" height="32px" viewBox="0 0 32 32" version="1.1" xmlns="http://www.w3.org/2000/svg" xmlns:xlink="http://www.w3.org/1999/xlink">
    <!-- Generator: Sketch 50.2 (55047) - http://www.bohemiancoding.com/sketch -->
    <title>burundi@1x</title>
    <desc>Created with Sketch.</desc>
    <defs></defs>
    <g id="flags" stroke="none" stroke-width="1" fill="none" fill-rule="evenodd">
        <g id="burundi" fill-rule="nonzero">
            <circle id="Oval" fill="#F0F0F0" cx="16" cy="16" r="16"></circle>
            <g id="Group" transform="translate(6.250000, 0.000000)" fill="#D80027">
                <path d="M19.49225,3.306375 C13.764,-1.1015 5.736,-1.1015 0.00775,3.3063125 L9.75,13.0485625 L19.49225,3.306375 Z" id="Shape"></path>
                <path d="M9.749875,18.9515 L0.00775,28.693625 C5.736,33.1015 13.764,33.1015 19.49225,28.693625 L9.75,18.951375 L9.749875,18.9515 Z" id="Shape"></path>
            </g>
            <g id="Group" transform="translate(0.000000, 6.250000)" fill="#6DA544">
                <path d="M13.0485625,9.75 L3.306375,0.00775 C-1.1015,5.736 -1.1015,13.764 3.306375,19.49225 L13.0485625,9.75 Z" id="Shape"></path>
                <path d="M18.9515,9.75 L28.693625,19.49225 C33.1015,13.764 33.1015,5.736 28.693625,0.00775 L18.9515,9.75 Z" id="Shape"></path>
            </g>
            <circle id="Oval" fill="#F0F0F0" cx="16" cy="16" r="6.9565"></circle>
            <g id="Group" transform="translate(11.125000, 11.125000)" fill="#D80027">
                <polygon id="Shape" points="4.875 0.0054375 5.4774375 1.0489375 6.682375 1.0489375 6.079875 2.092375 6.682375 3.135875 5.4774375 3.135875 4.875 4.179375 4.2725625 3.135875 3.0676875 3.135875 3.670125 2.092375 3.0676875 1.0489375 4.2725625 1.0489375"></polygon>
                <polygon id="Shape" points="1.8128125 4.875 2.41525 5.9185 3.620125 5.9185 3.0176875 6.9619375 3.620125 8.0054375 2.41525 8.0054375 1.8128125 9.0489375 1.2103125 8.0054375 0.0054375 8.0054375 0.607875 6.9619375 0.0054375 5.9185 1.2103125 5.9185"></polygon>
                <polygon id="Shape" points="7.93725 4.875 8.5396875 5.9185 9.7445625 5.9185 9.142125 6.9619375 9.7445625 8.0054375 8.5396875 8.0054375 7.93725 9.0489375 7.33475 8.0054375 6.129875 8.0054375 6.7323125 6.9619375 6.129875 5.9185 7.33475 5.9185"></polygon>
            </g>
        </g>
    </g>
</svg>