<?xml version="1.0" encoding="UTF-8"?>
<svg width="32px" height="32px" viewBox="0 0 32 32" version="1.1" xmlns="http://www.w3.org/2000/svg" xmlns:xlink="http://www.w3.org/1999/xlink">
    <!-- Generator: Sketch 50.2 (55047) - http://www.bohemiancoding.com/sketch -->
    <title>cambodia@1x</title>
    <desc>Created with Sketch.</desc>
    <defs></defs>
    <g id="flags" stroke="none" stroke-width="1" fill="none" fill-rule="evenodd">
        <g id="cambodia" fill-rule="nonzero">
            <path d="M0,16 C0,18.771875 0.7051875,21.379 1.9454375,23.6521875 L16,25.0435 L30.0545625,23.6521875 C31.2948125,21.379 32,18.771875 32,16 C32,13.228125 31.2948125,10.621 30.0545625,8.3478125 L16,6.9565 L1.9454375,8.3478125 C0.7051875,10.621 0,13.228125 0,16 Z" id="Shape" fill="#D80027"></path>
            <g id="Group" transform="translate(1.937500, 0.000000)" fill="#0052B4">
                <path d="M0.0079375,8.3478125 L28.117,8.3478125 C25.403375,3.3743125 20.1271875,0 14.0625,0 C7.9978125,0 2.721625,3.3743125 0.0079375,8.3478125 Z" id="Shape"></path>
                <path d="M14.0625,32 C20.1271875,32 25.403375,28.6256875 28.1170625,23.6521875 L0.0079375,23.6521875 C2.721625,28.6256875 7.9978125,32 14.0625,32 Z" id="Shape"></path>
            </g>
            <polygon id="Shape" fill="#F0F0F0" points="21.5651875 19.1304375 21.5651875 17.0435 20.1739375 17.0435 20.1739375 14.260875 18.782625 12.8695625 17.3913125 14.260875 17.3913125 11.47825 16 10.0869375 14.6086875 11.47825 14.6086875 14.260875 13.217375 12.8695625 11.8260625 14.260875 11.8260625 17.0435 10.4348125 17.0435 10.4348125 19.1304375 9.0435 19.1304375 9.0435 21.217375 22.9565 21.217375 22.9565 19.1304375"></polygon>
        </g>
    </g>
</svg>