<?xml version="1.0" encoding="UTF-8"?>
<svg width="32px" height="32px" viewBox="0 0 32 32" version="1.1" xmlns="http://www.w3.org/2000/svg" xmlns:xlink="http://www.w3.org/1999/xlink">
    <!-- Generator: Sketch 50.2 (55047) - http://www.bohemiancoding.com/sketch -->
    <title>cameroon@1x</title>
    <desc>Created with Sketch.</desc>
    <defs></defs>
    <g id="flags" stroke="none" stroke-width="1" fill="none" fill-rule="evenodd">
        <g id="cameroon" fill-rule="nonzero">
            <path d="M22.9565,1.587625 C20.853,0.5705 18.493125,0 16,0 C13.506875,0 11.147,0.5705 9.0435,1.587625 L7.6521875,16 L9.0435,30.412375 C11.147,31.4295 13.506875,32 16,32 C18.493125,32 20.853,31.4295 22.9565,30.412375 L24.3478125,16 L22.9565,1.587625 Z" id="Shape" fill="#D80027"></path>
            <polygon id="Shape" fill="#FFDA44" points="15.999875 10.4348125 17.381125 14.686 21.851625 14.686 18.235125 17.31375 19.6164375 21.5651875 15.999875 18.937625 12.3833125 21.5651875 13.764875 17.31375 10.148375 14.686 14.6185625 14.686"></polygon>
            <path d="M9.0435,1.5881875 C3.691625,4.1760625 0,9.656625 0,16 C0,22.343375 3.691625,27.8239375 9.0435,30.4118125 L9.0435,1.5881875 Z" id="Shape" fill="#496E2D"></path>
            <path d="M22.9565,1.5881875 L22.9565,30.4118125 C28.308375,27.8239375 32,22.3433125 32,16 C32,9.6566875 28.308375,4.1760625 22.9565,1.5881875 Z" id="Shape" fill="#FFDA44"></path>
        </g>
    </g>
</svg>