<?xml version="1.0" encoding="UTF-8"?>
<svg width="32px" height="32px" viewBox="0 0 32 32" version="1.1" xmlns="http://www.w3.org/2000/svg" xmlns:xlink="http://www.w3.org/1999/xlink">
    <!-- Generator: Sketch 50.2 (55047) - http://www.bohemiancoding.com/sketch -->
    <title>canada@1x</title>
    <desc>Created with Sketch.</desc>
    <defs></defs>
    <g id="flags" stroke="none" stroke-width="1" fill="none" fill-rule="evenodd">
        <g id="canada" fill-rule="nonzero">
            <path d="M12.1616162,31.4585859 C3.6040404,29.3414141 -1.60808081,20.6949495 0.509090909,12.1373737 C2.62626263,3.57979798 11.2727273,-1.63232323 19.830303,0.484848485 C28.379798,2.6020202 33.6,11.2484848 31.4828283,19.8060606 C29.3575758,28.3555556 20.7111111,33.5757576 12.1616162,31.4585859" id="Shape" fill="#EF3827"></path>
            <path d="M10.6343434,30.9979798 L10.6343434,0.945454545 C5.76969697,2.68282828 1.84242424,6.74747475 0.509090909,12.1373737 C-1.47878788,20.169697 2.9979798,28.2828283 10.6343434,30.9979798" id="Shape" fill="#EF3827"></path>
            <path d="M19.2727273,0.355555556 C19.240404,0.347474747 19.2080808,0.339393939 19.1676768,0.331313131 C19.1111111,0.323232323 19.0464646,0.307070707 18.989899,0.298989899 C18.9575758,0.290909091 18.9171717,0.282828283 18.8848485,0.282828283 C18.820202,0.274747475 18.7636364,0.258585859 18.6989899,0.250505051 C18.6666667,0.242424242 18.6343434,0.242424242 18.610101,0.234343434 C18.5373737,0.218181818 18.4565657,0.21010101 18.3838384,0.193939394 C18.3676768,0.193939394 18.3515152,0.185858586 18.3353535,0.185858586 C18.2464646,0.16969697 18.1494949,0.161616162 18.0606061,0.145454545 C18.0363636,0.145454545 18.0121212,0.137373737 17.9878788,0.137373737 C17.9232323,0.129292929 17.8505051,0.121212121 17.7858586,0.113131313 C17.7535354,0.113131313 17.7212121,0.105050505 17.6888889,0.105050505 C17.6323232,0.096969697 17.5676768,0.0888888889 17.5111111,0.0888888889 C17.4787879,0.0888888889 17.4464646,0.0808080808 17.4141414,0.0808080808 C17.3494949,0.0727272727 17.2929293,0.0727272727 17.2282828,0.0646464646 C17.1959596,0.0646464646 17.1636364,0.0565656566 17.1313131,0.0565656566 C17.0585859,0.0484848485 16.9939394,0.0484848485 16.9212121,0.0404040404 C16.8969697,0.0404040404 16.8808081,0.0404040404 16.8565657,0.0404040404 C16.7676768,0.0323232323 16.6707071,0.0323232323 16.5818182,0.0242424242 C16.5656566,0.0242424242 16.5494949,0.0242424242 16.5333333,0.0242424242 C16.4606061,0.0242424242 16.379798,0.0161616162 16.3070707,0.0161616162 C16.2747475,0.0161616162 16.2505051,0.0161616162 16.2181818,0.0161616162 C16.1535354,0.0161616162 16.0888889,0.0161616162 16.0323232,0.0161616162 C16,0.0161616162 15.9676768,0.0161616162 15.9353535,0.0161616162 C15.8707071,0.0161616162 15.8141414,0.0161616162 15.7494949,0.0161616162 C15.7171717,0.0161616162 15.6848485,0.0161616162 15.6606061,0.0161616162 C15.5959596,0.0161616162 15.5232323,0.0161616162 15.4585859,0.0242424242 C15.4343434,0.0242424242 15.410101,0.0242424242 15.3858586,0.0242424242 C15.2,0.0323232323 15.0222222,0.0404040404 14.8363636,0.0565656566 C14.8121212,0.0565656566 14.7878788,0.0565656566 14.7636364,0.0646464646 C14.6989899,0.0727272727 14.6343434,0.0727272727 14.5616162,0.0808080808 C14.5292929,0.0808080808 14.5050505,0.0888888889 14.4727273,0.0888888889 C14.4080808,0.096969697 14.3515152,0.105050505 14.2868687,0.105050505 C14.2545455,0.105050505 14.230303,0.113131313 14.1979798,0.113131313 C14.1333333,0.121212121 14.0686869,0.129292929 13.9959596,0.137373737 C13.9717172,0.137373737 13.9474747,0.145454545 13.9232323,0.145454545 C13.7454545,0.16969697 13.559596,0.193939394 13.3818182,0.226262626 C13.3656566,0.226262626 13.3494949,0.234343434 13.3333333,0.234343434 C13.2606061,0.250505051 13.1878788,0.258585859 13.1151515,0.274747475 C13.0909091,0.282828283 13.0666667,0.282828283 13.0424242,0.290909091 C12.9777778,0.298989899 12.9131313,0.315151515 12.8484848,0.331313131 C12.8242424,0.339393939 12.8,0.339393939 12.7676768,0.347474747 C12.7030303,0.363636364 12.6383838,0.371717172 12.5656566,0.387878788 C12.5414141,0.395959596 12.5252525,0.395959596 12.5010101,0.404040404 C12.420202,0.42020202 12.3393939,0.444444444 12.2585859,0.460606061 L12.2424242,0.468686869 C12.1616162,0.492929293 12.0727273,0.509090909 11.9919192,0.533333333 C11.5232323,0.654545455 11.0626263,0.791919192 10.610101,0.961616162 L10.610101,31.0141414 C11.1030303,31.1919192 11.6121212,31.3454545 12.1373737,31.4747475 C14.2787879,32.0080808 16.4282828,32.0727273 18.4727273,31.7494949 C18.4808081,31.7494949 18.4888889,31.7494949 18.4969697,31.7414141 C18.569697,31.7333333 18.6505051,31.7171717 18.7232323,31.7010101 C18.7393939,31.7010101 18.7555556,31.6929293 18.7717172,31.6929293 C18.8444444,31.6767677 18.9090909,31.6686869 18.9818182,31.6525253 C19.0060606,31.6525253 19.0222222,31.6444444 19.0464646,31.6363636 C19.1111111,31.620202 19.1757576,31.6121212 19.240404,31.5959596 C19.2646465,31.5878788 19.2888889,31.5878788 19.3131313,31.579798 C19.3777778,31.5636364 19.4343434,31.5555556 19.4989899,31.5393939 C19.5313131,31.5313131 19.5555556,31.5232323 19.5878788,31.5151515 C19.6444444,31.4989899 19.7010101,31.4909091 19.7656566,31.4747475 C19.8060606,31.4666667 19.8545455,31.4505051 19.8949495,31.4424242 C19.959596,31.4262626 20.0242424,31.410101 20.0888889,31.3939394 C20.1535354,31.3777778 20.2181818,31.3616162 20.2828283,31.3373737 C20.3151515,31.3292929 20.3393939,31.3212121 20.3636364,31.3131313 C20.4282828,31.2969697 20.4848485,31.2808081 20.5494949,31.2565657 C20.5818182,31.2484848 20.6060606,31.240404 20.6383838,31.2323232 C20.6949495,31.2161616 20.759596,31.1919192 20.8161616,31.1757576 C20.840404,31.1676768 20.8727273,31.159596 20.8969697,31.1515152 C20.9535354,31.1353535 21.0181818,31.1111111 21.0747475,31.0949495 C21.0989899,31.0868687 21.1313131,31.0787879 21.1555556,31.0707071 C21.220202,31.0464646 21.2767677,31.030303 21.3414141,31.0060606 C21.3575758,30.9979798 21.3737374,30.9979798 21.3818182,30.989899 C21.4222222,30.9737374 21.4545455,30.9656566 21.4949495,30.9494949 L21.4949495,1.01818182 C21.4545455,1.0020202 21.4222222,0.993939394 21.3818182,0.977777778 C21.2848485,0.945454545 21.1959596,0.913131313 21.0989899,0.880808081 C21.0909091,0.880808081 21.0828283,0.872727273 21.0747475,0.872727273 C20.9535354,0.832323232 20.8242424,0.791919192 20.7030303,0.751515152 C20.6868687,0.743434343 20.6707071,0.743434343 20.6545455,0.735353535 C20.5414141,0.703030303 20.420202,0.662626263 20.2989899,0.63030303 C20.2747475,0.622222222 20.2505051,0.614141414 20.2262626,0.606060606 C20.0888889,0.565656566 19.9434343,0.533333333 19.8060606,0.492929293 C19.7171717,0.468686869 19.620202,0.452525253 19.5313131,0.428282828 C19.4989899,0.42020202 19.4747475,0.412121212 19.4424242,0.412121212 C19.3939394,0.387878788 19.3373737,0.371717172 19.2727273,0.355555556" id="Shape" fill="#F1F2F2"></path>
            <path d="M16.1535354,21.9717172 L16.3636364,21.9717172 L16.2989899,19.2323232 L16.4929293,19.0707071 C17.3494949,19.1757576 18.1252525,19.2646465 18.9818182,19.369697 L18.7636364,18.6181818 C18.7313131,18.4888889 18.779798,18.3434343 18.8767677,18.2626263 L21.3737374,16.1454545 L20.8565657,15.8949495 C20.630303,15.8060606 20.6949495,15.6767677 20.7757576,15.3535354 L21.1555556,13.9070707 L19.7090909,14.2222222 C19.5636364,14.2464646 19.4747475,14.1494949 19.4505051,14.0606061 L19.2646465,13.3818182 L18.1171717,14.7232323 C17.9555556,14.9414141 17.6242424,14.9414141 17.7292929,14.440404 L18.2222222,11.7171717 L17.5676768,12.0727273 C17.3818182,12.1777778 17.1959596,12.1939394 17.0909091,12.0080808 L16.169697,10.2383838 L15.2484848,12.0080808 C15.1434343,12.2020202 14.9575758,12.1858586 14.779798,12.0727273 L14.1252525,11.7171717 L14.6181818,14.440404 C14.7232323,14.9414141 14.3919192,14.9414141 14.230303,14.7232323 L13.0828283,13.3818182 L12.8969697,14.0606061 C12.8727273,14.1494949 12.7838384,14.2464646 12.6383838,14.2222222 L11.1838384,13.9070707 L11.5636364,15.3535354 C11.6444444,15.6767677 11.7090909,15.8060606 11.4828283,15.8949495 L10.9656566,16.1454545 L13.4626263,18.2626263 C13.559596,18.3434343 13.6080808,18.4888889 13.5757576,18.6181818 L13.3575758,19.369697 C14.2141414,19.2646465 14.989899,19.1757576 15.8464646,19.0707071 L16.040404,19.2323232 L15.9757576,21.9717172 L16.1535354,21.9717172 Z" id="Shape" fill="#EF3827"></path>
        </g>
    </g>
</svg>