<?xml version="1.0" encoding="UTF-8"?>
<svg width="32px" height="32px" viewBox="0 0 32 32" version="1.1" xmlns="http://www.w3.org/2000/svg" xmlns:xlink="http://www.w3.org/1999/xlink">
    <!-- Generator: Sketch 50.2 (55047) - http://www.bohemiancoding.com/sketch -->
    <title>cape-verde@1x</title>
    <desc>Created with Sketch.</desc>
    <defs></defs>
    <g id="flags" stroke="none" stroke-width="1" fill="none" fill-rule="evenodd">
        <g id="cape-verde" fill-rule="nonzero">
            <circle id="Oval" fill="#F0F0F0" cx="16" cy="16" r="16"></circle>
            <g id="Group" fill="#0052B4">
                <path d="M16,32 C20.8494375,32 25.194625,29.84225 28.1288125,26.4348125 L3.8711875,26.4348125 C6.805375,29.84225 11.1505625,32 16,32 Z" id="Shape"></path>
                <path d="M32,16 C32,7.1635 24.8365,0 16,0 C7.1635,0 0,7.1635 0,16 C0,17.4441875 0.1925,18.8430625 0.5511875,20.1739375 L31.448875,20.1739375 C31.8075,18.8430625 32,17.4441875 32,16 Z" id="Shape"></path>
            </g>
            <path d="M1.27175,22.260875 C1.5801875,22.985625 1.94075,23.682625 2.3484375,24.3478125 L29.6516875,24.3478125 C30.05925,23.6825625 30.4198125,22.9855625 30.728375,22.260875 L1.27175,22.260875 Z" id="Shape" fill="#D80027"></path>
            <g id="Group" transform="translate(5.437500, 17.000000)" fill="#FFDA44">
                <polygon id="Shape" points="5.999375 0.0435 6.258375 0.840625 7.0965625 0.840625 6.4185 1.3333125 6.6775 2.1304375 5.999375 1.63775 5.32125 2.1304375 5.5803125 1.3333125 4.90225 0.840625 5.7404375 0.840625"></polygon>
                <polygon id="Shape" points="5.999375 10.47825 6.258375 11.2754375 7.0965625 11.2754375 6.4185 11.7680625 6.6775 12.5651875 5.999375 12.0725625 5.32125 12.5651875 5.5803125 11.7680625 4.90225 11.2754375 5.7404375 11.2754375"></polygon>
                <polygon id="Shape" points="1.142125 6.9493125 1.401125 7.746375 2.2393125 7.746375 1.56125 8.239 1.82025 9.03625 1.142125 8.5435625 0.464 9.03625 0.723125 8.239 0.045 7.746375 0.883125 7.746375"></polygon>
                <polygon id="Shape" points="2.9974375 1.0869375 3.2564375 1.884125 4.0945625 1.884125 3.4165625 2.37675 3.6755625 3.1739375 2.9974375 2.68125 2.3193125 3.1739375 2.5784375 2.37675 1.90025 1.884125 2.7384375 1.884125"></polygon>
                <polygon id="Shape" points="0.045 4.3696875 0.883 4.36975 1.1420625 3.5724375 1.401125 4.3696875 2.2393125 4.369625 1.5611875 4.8623125 1.82025 5.6595 1.1420625 5.1668125 0.464 5.6593125 0.723 4.86225"></polygon>
                <polygon id="Shape" points="2.319375 11.3694375 2.578375 10.5724375 1.9001875 10.0798125 2.738375 10.0798125 2.9974375 9.282625 3.2565 10.07975 4.094625 10.07975 3.4165 10.572375 3.6755 11.369625 2.997375 10.876875"></polygon>
                <polygon id="Shape" points="10.8548125 6.9493125 10.595875 7.746375 9.7576875 7.746375 10.4356875 8.239 10.1766875 9.03625 10.8548125 8.5435625 11.5329375 9.03625 11.273875 8.239 11.952 7.746375 11.1138125 7.746375"></polygon>
                <polygon id="Shape" points="8.9995 1.0869375 8.7405625 1.884125 7.902375 1.884125 8.580375 2.37675 8.321375 3.1739375 8.9995 2.68125 9.677625 3.1739375 9.4185625 2.37675 10.0966875 1.884125 9.2585 1.884125"></polygon>
                <polygon id="Shape" points="11.952 4.3696875 11.1139375 4.36975 10.854875 3.5724375 10.595875 4.3696875 9.7576875 4.369625 10.43575 4.8623125 10.1766875 5.6595 10.854875 5.1668125 11.5329375 5.6593125 11.2739375 4.86225"></polygon>
                <polygon id="Shape" points="9.6775625 11.3694375 9.418625 10.5724375 10.09675 10.0798125 9.2585625 10.0798125 8.9995 9.282625 8.7405 10.07975 7.9023125 10.07975 8.5804375 10.572375 8.3214375 11.369625 8.9995625 10.876875"></polygon>
            </g>
        </g>
    </g>
</svg>