<?xml version="1.0" encoding="UTF-8"?>
<svg width="32px" height="32px" viewBox="0 0 32 32" version="1.1" xmlns="http://www.w3.org/2000/svg" xmlns:xlink="http://www.w3.org/1999/xlink">
    <!-- Generator: Sketch 50.2 (55047) - http://www.bohemiancoding.com/sketch -->
    <title>cayman-islands@1x</title>
    <desc>Created with Sketch.</desc>
    <defs></defs>
    <g id="flags" stroke="none" stroke-width="1" fill="none" fill-rule="evenodd">
        <g id="cayman-islands" fill-rule="nonzero">
            <path d="M32,16 C32,24.8365 24.8365,32 16,32 C7.1635,32 0,24.8365 0,16 C0,16.0038125 16,0.00175 16,0 C24.8365,0 32,7.1635 32,16 Z" id="Shape" fill="#0052B4"></path>
            <g id="Group" fill="#F0F0F0">
                <path d="M16.0188125,0 C16.0108125,0 16.0048125,0 15.9973125,0 L16.0188125,0 Z" id="Shape"></path>
                <path d="M15.9571875,16.2996875 L16.2996875,16.2996875 C16.2996875,16.1846875 16.2996875,16.0726875 16.2996875,15.9571875 C16.1856875,16.0716875 16.0716875,16.1856875 15.9571875,16.2996875 Z" id="Shape"></path>
                <path d="M16,8.3478125 C16,5.5325 16,3.6878125 16.0000625,0 L15.9973125,0 C7.1619375,0.0015 0,7.1643125 0,16 L8.3478125,16 L8.3478125,11.2993125 L13.0485,16 L15.95725,16 C15.9715,15.98575 15.98575,15.9715 16.0000625,15.9571875 C16.0000625,14.87925 16.0000625,13.9174375 16.0000625,13.048625 L11.29925,8.3478125 L16,8.3478125 Z" id="Shape"></path>
            </g>
            <circle id="Oval" fill="#6DA544" cx="22.9565" cy="9.0435" r="2.782625"></circle>
            <g id="Group" transform="translate(2.062500, 2.062500)" fill="#D80027">
                <path d="M6.0321875,0.0244375 C3.52975,1.449375 1.4493125,3.52975 0.0244375,6.0321875 L0.0244375,13.9375 L4.198375,13.9375 L4.198375,4.1985 L4.198375,4.198375 L13.9375,4.198375 C13.9375,2.8819375 13.9375,1.6278125 13.9375,0.0244375 L6.0321875,0.0244375 Z" id="Shape"></path>
                <path d="M13.9375,11.9699375 L8.2528125,6.285375 L6.2853125,6.285375 L6.2853125,6.2855 L13.937375,13.9375 L13.9375,13.9375 C13.9375,13.9375 13.9375,12.5808125 13.9375,11.9699375 Z" id="Shape"></path>
                <rect id="Rectangle-path" x="16.0244375" y="6.2853125" width="9.739125" height="4.1739375"></rect>
            </g>
            <g id="Group" transform="translate(18.062500, 15.937500)" fill="#496E2D">
                <path d="M9.7635625,0.25025 L9.7635625,0.24975 L9.7635625,0.25025 Z" id="Shape"></path>
                <polygon id="Shape" points="0.0244375 0.25025 0.0244375 0.25025 0.0244375 0.24975"></polygon>
            </g>
            <path d="M18.0869375,18.782625 L18.0869375,21.56525 L19.5509375,21.56525 C20.42875,22.4255 21.6303125,22.9565625 22.9565,22.9565625 C24.2826875,22.9565625 25.48425,22.4255 26.3620625,21.56525 L26.43475,21.56525 L27.8260625,21.56525 L27.8260625,18.782625 L18.0869375,18.782625 Z" id="Shape" fill="#FFDA44"></path>
            <path d="M18.0869375,11.8260625 L18.0869375,16 C18.0869375,19.7274375 22.9565,20.8695625 22.9565,20.8695625 C22.9565,20.8695625 27.8260625,19.7274375 27.8260625,16 L27.8260625,11.8260625 L18.0869375,11.8260625 Z" id="Shape" fill="#338AF3"></path>
            <g id="Group" transform="translate(18.062500, 10.125000)" fill="#F3F3F3">
                <path d="M4.89375,3.9305625 C3.6764375,3.9305625 3.6764375,5.043625 2.459125,5.043625 C1.2418125,5.043625 1.2418125,3.9305625 0.0245,3.9305625 L0.0245,5.878375 C1.2418125,5.878375 1.2418125,6.9914375 2.459125,6.9914375 C3.6764375,6.9914375 3.6764375,5.878375 4.89375,5.878375 C6.1111875,5.878375 6.1111875,6.9914375 7.3286875,6.9914375 C8.5461875,6.9914375 8.546125,5.878375 9.763625,5.878375 L9.763625,3.9305625 C8.5461875,3.9305625 8.5461875,5.043625 7.3286875,5.043625 C6.1111875,5.043625 6.1111875,3.9305625 4.89375,3.9305625 Z" id="Shape"></path>
                <path d="M4.89375,0.0315 C3.6764375,0.0315 3.6764375,1.1445625 2.459125,1.1445625 C1.2418125,1.1445625 1.2418125,0.0315 0.0245,0.0315 L0.0245,1.9793125 C1.2418125,1.9793125 1.2418125,3.092375 2.459125,3.092375 C3.6764375,3.092375 3.6764375,1.9793125 4.89375,1.9793125 C6.1111875,1.9793125 6.1111875,3.092375 7.3286875,3.092375 C8.5461875,3.092375 8.546125,1.9793125 9.763625,1.9793125 L9.763625,0.0315 C8.5461875,0.0315 8.5461875,1.1445625 7.3286875,1.1445625 C6.1111875,1.1445625 6.1111875,0.0315 4.89375,0.0315 Z" id="Shape"></path>
            </g>
        </g>
    </g>
</svg>