<?xml version="1.0" encoding="UTF-8"?>
<svg width="32px" height="32px" viewBox="0 0 32 32" version="1.1" xmlns="http://www.w3.org/2000/svg" xmlns:xlink="http://www.w3.org/1999/xlink">
    <!-- Generator: Sketch 50.2 (55047) - http://www.bohemiancoding.com/sketch -->
    <title>chile@1x</title>
    <desc>Created with Sketch.</desc>
    <defs></defs>
    <g id="flags" stroke="none" stroke-width="1" fill="none" fill-rule="evenodd">
        <g id="chile" fill-rule="nonzero">
            <circle id="Oval" fill="#F0F0F0" cx="16" cy="16" r="16"></circle>
            <path d="M32,16 C32,24.8365 24.8365,32 16,32 C7.1635,32 0,24.8365 0,16 C0,7.1635 16,16 16,16 C16,16 28.1100625,16 32,16 Z" id="Shape" fill="#D80027"></path>
            <path d="M0,16 C0,7.1635 7.1635,0 16,0 C16,6.0846875 16,16 16,16 C16,16 5.5651875,16 0,16 Z" id="Shape" fill="#0052B4"></path>
            <polygon id="Shape" fill="#F0F0F0" points="9.5243125 5.5651875 10.560375 8.7538125 13.9130625 8.7538125 11.2006875 10.7244375 12.2366875 13.9130625 9.5243125 11.942375 6.8119375 13.9130625 7.8479375 10.7244375 5.1355625 8.7538125 8.48825 8.7538125"></polygon>
        </g>
    </g>
</svg>