<?xml version="1.0" encoding="UTF-8"?>
<svg width="32px" height="32px" viewBox="0 0 32 32" version="1.1" xmlns="http://www.w3.org/2000/svg" xmlns:xlink="http://www.w3.org/1999/xlink">
    <!-- Generator: Sketch 50.2 (55047) - http://www.bohemiancoding.com/sketch -->
    <title>China@1x</title>
    <desc>Created with Sketch.</desc>
    <defs></defs>
    <g id="flags" stroke="none" stroke-width="1" fill="none" fill-rule="evenodd">
        <g id="China" fill-rule="nonzero">
            <path d="M0.549494949,12.2020202 C2.66666667,3.64444444 11.3131313,-1.56767677 19.8707071,0.549494949 C28.4282828,2.66666667 33.640404,11.3131313 31.5232323,19.8707071 C29.4060606,28.420202 20.759596,33.640404 12.2020202,31.5232323 C3.65252525,29.3979798 -1.56767677,20.7515152 0.549494949,12.2020202" id="Shape" fill="#EF3827"></path>
            <path d="M17.0505051,15.5151515 L16.3070707,16.420202 L15.2242424,15.9838384 L15.8464646,16.969697 L15.1030303,17.8666667 L16.2343434,17.5757576 L16.8565657,18.5616162 L16.9292929,17.3979798 L18.0606061,17.1070707 L16.9777778,16.6707071 L17.0505051,15.5151515 Z M21.3737374,13.0666667 L20.2020202,13.0666667 L19.8464646,11.9515152 L19.4828283,13.0666667 L18.3191919,13.0666667 L19.2646465,13.7535354 L18.9010101,14.8686869 L19.8464646,14.1818182 L20.7919192,14.8686869 L20.4282828,13.7535354 L21.3737374,13.0666667 Z M19.4666667,8.78383838 L19.6444444,9.93939394 L20.1777778,8.8969697 L21.3333333,9.08282828 L20.5090909,8.25858586 L21.0424242,7.21616162 L20,7.74141414 L19.1757576,6.91717172 L19.3535354,8.07272727 L18.3111111,8.5979798 L19.4666667,8.78383838 Z M17.0585859,3.43434343 L16.3151515,4.33131313 L15.2323232,3.9030303 L15.8545455,4.88888889 L15.1111111,5.78585859 L16.2424242,5.49494949 L16.8646465,6.48080808 L16.9373737,5.31717172 L18.0686869,5.02626263 L16.9858586,4.5979798 L17.0585859,3.43434343 Z M8.8969697,8.57373737 L7.7979798,5.1959596 L6.6989899,8.57373737 L3.15151515,8.57373737 L6.02828283,10.6585859 L4.92929293,14.0363636 L7.80606061,11.9515152 L10.6747475,14.0363636 L9.57575758,10.6585859 L12.4525253,8.57373737 L8.8969697,8.57373737 Z" id="Shape" fill="#FFD203"></path>
        </g>
    </g>
</svg>