<?xml version="1.0" encoding="UTF-8"?>
<svg width="32px" height="32px" viewBox="0 0 32 32" version="1.1" xmlns="http://www.w3.org/2000/svg" xmlns:xlink="http://www.w3.org/1999/xlink">
    <!-- Generator: Sketch 50.2 (55047) - http://www.bohemiancoding.com/sketch -->
    <title>christmas-island@1x</title>
    <desc>Created with Sketch.</desc>
    <defs></defs>
    <g id="flags" stroke="none" stroke-width="1" fill="none" fill-rule="evenodd">
        <g id="christmas-island" fill-rule="nonzero">
            <path d="M27.2697276,27.2074708 C21.0456654,33.4315331 10.9543969,33.4315331 4.73027237,27.2074708 C-1.49385214,20.9834086 -1.49378988,10.8921401 4.73027237,4.66801556 C5.22023346,5.1579144 17.4699455,14.4677354 17.4699455,14.4677354 L27.2697276,27.2074708 Z" id="Shape" fill="#0052B4"></path>
            <path d="M4.73033463,4.66807782 C10.9543969,-1.55598444 21.0456654,-1.55598444 27.2697899,4.66807782 C33.4939144,10.8921401 33.4938521,20.9834086 27.2697899,27.2075331" id="Shape" fill="#6DA544"></path>
            <circle id="Oval" fill="#FFDA44" cx="16" cy="15.9377432" r="4.1576965"></circle>
            <g id="Group" transform="translate(1.307393, 8.964981)" fill="#F0F0F0">
                <polygon id="Shape" points="4.68949416 13.9022568 5.12684825 14.8167471 6.11442802 14.5884514 5.67215564 15.5005759 6.46642802 16.130428 5.47754086 16.3532451 5.48028016 17.3669728 4.68949416 16.7327626 3.89870817 17.3669728 3.90144747 16.3532451 2.91256031 16.130428 3.70683268 15.5005759 3.26449805 14.5884514 4.25214008 14.8167471"></polygon>
                <polygon id="Shape" points="1.828607 6.27984436 2.26596109 7.19433463 3.25354086 6.96597665 2.81133074 7.87816342 3.6054786 8.50801556 2.6166537 8.73083268 2.619393 9.74456031 1.828607 9.11041245 1.03788327 9.74456031 1.04056031 8.73083268 0.0517354086 8.50801556 0.845945525 7.87816342 0.403673152 6.96597665 1.39125292 7.19433463"></polygon>
                <polygon id="Shape" points="4.68949416 0.0433307393 5.12684825 0.957821012 6.11442802 0.729463035 5.6722179 1.64164981 6.46642802 2.27150195 5.47754086 2.49431907 5.48028016 3.50804669 4.68949416 2.87389883 3.89870817 3.50804669 3.90144747 2.49431907 2.91262257 2.27150195 3.70677043 1.64164981 3.26449805 0.729463035 4.25214008 0.957821012"></polygon>
                <polygon id="Shape" points="8.24329961 4.89394553 8.6806537 5.8084358 9.66829572 5.58007782 9.22596109 6.49232685 10.0201712 7.12211673 9.0313463 7.34499611 9.03402335 8.35866148 8.24329961 7.72451362 7.45251362 8.35866148 7.45525292 7.34499611 6.46642802 7.12211673 7.26057588 6.49232685 6.81836576 5.58007782 7.80594553 5.8084358"></polygon>
                <polygon id="Shape" points="5.70216342 9.05164202 6.04619455 10.1103813 7.1593463 10.1103813 6.2587393 10.7647004 6.60277043 11.8233774 5.70216342 11.1691206 4.80155642 11.8233774 5.14558755 10.7647004 4.24498054 10.1103813 5.3581323 10.1103813"></polygon>
            </g>
            <path d="M16,18.7095409 L17.3858988,18.7095409 C17.3858988,18.7095409 17.986428,17.6471284 17.3858988,16.6307237 L18.7717977,15.2448249 L18.0788794,13.8589261 L17.3859611,13.8589261 C17.3859611,13.8589261 17.0395019,14.8983658 15.6536031,14.8983658 C14.2677043,14.8983658 13.9212451,13.8589261 13.9212451,13.8589261 L13.2283268,13.8589261 L13.9212451,15.2448249 L13.2283268,16.6307237 L13.9212451,17.323642 C13.9212451,17.323642 14.6141634,15.9377432 16.0000623,16.6307237 C16,16.6307237 16.5890117,17.4969027 16,18.7095409 Z" id="Shape" fill="#6DA544"></path>
            <path d="M26.3441556,8.72983658 C26.3768405,8.5595642 26.3942101,8.38393774 26.3942101,8.20414008 C26.3942101,6.97145525 25.5893541,5.9273463 24.4767004,5.5671284 C24.8166848,6.25817899 25.0083113,7.035393 25.0083113,7.85768093 C25.0083113,8.13497276 24.9860233,8.40703502 24.9441245,8.67256031 C24.7766537,8.40280156 24.5615564,8.15632685 24.2987704,7.94720623 C23.3088249,7.15953307 21.9560467,7.13867704 20.9558911,7.80202335 C21.7280623,7.97061479 22.4746459,8.31333852 23.1350039,8.83872374 C23.6519844,9.25011673 24.0697276,9.80656809 24.3896031,10.3437198 L20.1576965,11.668856 C24.315393,12.3617743 27.7801089,9.59003891 27.7801089,9.59003891 C27.3961712,8.82228794 26.8,8.69279377 26.3441556,8.72983658 Z" id="Shape" fill="#FFDA44"></path>
        </g>
    </g>
</svg>