<?xml version="1.0" encoding="UTF-8"?>
<svg width="32px" height="32px" viewBox="0 0 32 32" version="1.1" xmlns="http://www.w3.org/2000/svg" xmlns:xlink="http://www.w3.org/1999/xlink">
    <!-- Generator: Sketch 50.2 (55047) - http://www.bohemiancoding.com/sketch -->
    <title>cocos-island@1x</title>
    <desc>Created with Sketch.</desc>
    <defs></defs>
    <g id="flags" stroke="none" stroke-width="1" fill="none" fill-rule="evenodd">
        <g id="cocos-island" fill-rule="nonzero">
            <circle id="Oval" fill="#6DA544" cx="16" cy="16" r="16"></circle>
            <g id="Group" transform="translate(4.812500, 4.812500)" fill="#FFDA44">
                <polygon id="Shape" points="19.749 18.144 20.1880625 19.0620625 21.1795625 18.8329375 20.7355625 19.748625 21.532875 20.380875 20.540125 20.604625 20.5429375 21.6223125 19.749 20.985625 18.955125 21.6223125 18.957875 20.604625 17.9651875 20.380875 18.7625 19.748625 18.3185 18.8329375 19.3099375 19.0620625"></polygon>
                <polygon id="Shape" points="15.6645 8.404875 16.103625 9.3229375 17.095125 9.09375 16.6510625 10.0095 17.448375 10.64175 16.4556875 10.8655 16.4584375 11.883125 15.6645 11.2465 14.870625 11.883125 14.8733125 10.8655 13.8806875 10.64175 14.678 10.0095 14.2339375 9.09375 15.2255 9.3229375"></polygon>
                <polygon id="Shape" points="19.749 2.8396875 20.1880625 3.75775 21.1795625 3.5285 20.735625 4.44425 21.532875 5.0765625 20.540125 5.30025 20.5428125 6.3179375 19.749 5.68125 18.955125 6.3179375 18.957875 5.30025 17.96525 5.0765625 18.7625 4.44425 18.3185 3.5285 19.3099375 3.75775"></polygon>
                <polygon id="Shape" points="23.3166875 7.0135625 23.75575 7.931625 24.7473125 7.7024375 24.30325 8.6181875 25.1005625 9.2504375 24.107875 9.4741875 24.110625 10.491875 23.3166875 9.8551875 22.5228125 10.491875 22.5255 9.4741875 21.532875 9.2504375 22.3301875 8.6181875 21.886125 7.7024375 22.877625 7.931625"></polygon>
                <polygon id="Shape" points="20.7655625 11.883125 21.111 12.9460625 22.2285625 12.9460625 21.324375 13.6029375 21.6698125 14.66575 20.7655625 14.0089375 19.8615 14.66575 20.2068125 13.6029375 19.3026875 12.9460625 20.42025 12.9460625"></polygon>
                <path d="M12.926625,15.70925 C10.4293125,15.70925 8.4048125,13.68475 8.4048125,11.1875 C8.4048125,8.69025 10.42925,6.66575 12.926625,6.66575 C13.70525,6.66575 14.4379375,6.8626875 15.0775625,7.20925 C14.074125,6.227875 12.7019375,5.62225 11.187375,5.62225 C8.113875,5.62225 5.62225,8.113875 5.62225,11.1874375 C5.62225,14.261 8.113875,16.752625 11.187375,16.752625 C12.701875,16.752625 14.074125,16.147 15.0775,15.165625 C14.4379375,15.5123125 13.70525,15.70925 12.926625,15.70925 Z" id="Shape"></path>
                <path d="M5.249125,1.448375 C4.767875,0.616875 3.8694375,0.0570625 2.8396875,0.0570625 C1.8099375,0.0570625 0.9115,0.616875 0.43025,1.448375 L5.249125,1.448375 Z" id="Shape"></path>
                <path d="M5.258375,1.4644375 L2.8396875,3.883125 L0.421,1.4644375 C0.1898125,1.870125 0.057125,2.3393125 0.057125,2.8396875 C0.057125,4.3765 1.3029375,5.6223125 2.83975,5.6223125 C4.3765625,5.6223125 5.622375,4.3765625 5.622375,2.8396875 C5.6223125,2.3393125 5.4895625,1.870125 5.258375,1.4644375 Z" id="Shape"></path>
            </g>
            <path d="M6.9565,8 L6.9565,10.347125 C7.1788125,10.4043125 7.4119375,10.43475 7.652125,10.43475 C7.8923125,10.43475 8.1254375,10.40425 8.34775,10.347125 L8.34775,8 L6.9565,8 Z" id="Shape" fill="#A2001D"></path>
        </g>
    </g>
</svg>