<?xml version="1.0" encoding="UTF-8"?>
<svg width="32px" height="32px" viewBox="0 0 32 32" version="1.1" xmlns="http://www.w3.org/2000/svg" xmlns:xlink="http://www.w3.org/1999/xlink">
    <!-- Generator: Sketch 50.2 (55047) - http://www.bohemiancoding.com/sketch -->
    <title>comoros@1x</title>
    <desc>Created with Sketch.</desc>
    <defs></defs>
    <g id="flags" stroke="none" stroke-width="1" fill="none" fill-rule="evenodd">
        <g id="comoros" fill-rule="nonzero">
            <circle id="Oval" fill="#F0F0F0" cx="16.0311891" cy="15.9688109" r="15.9688109"></circle>
            <path d="M31.9994386,15.9225887 L14.6888733,15.9225887 C11.2520234,19.359501 9.1737076,22.0128811 7.05160234,24.1349864 L16.0774737,24.9483977 L30.0834932,23.5597973 C31.3057934,21.3020195 32,18.7165068 32,15.9688109 C32,15.9533411 31.9994386,15.9380585 31.9994386,15.9225887 Z" id="Shape" fill="#D80027"></path>
            <path d="M7.05166472,8.28531774 L30.0325302,8.28531774 C27.3167096,3.34696296 22.0650916,0 16.0311891,0 C11.6332164,0 7.65124366,1.77846394 4.76344639,4.65490838 L7.05166472,8.28531774 Z" id="Shape" fill="#FFDA44"></path>
            <path d="M7.74593372,23.5597973 C6.31036257,24.9953684 5.75557115,26.1981442 4.71691228,27.2367407 C7.60845224,30.1402573 11.6096998,31.9376218 16.0311891,31.9376218 C22.1028304,31.9376218 27.382768,28.5489279 30.0835556,23.5597973 L7.74593372,23.5597973 Z" id="Shape" fill="#0052B4"></path>
            <path d="M4.73949318,4.63089279 C-1.49670175,10.8670877 -1.49670175,20.9780273 4.73949318,27.2142846 C7.31652242,24.6372554 9.79499415,22.1587836 16.0311891,15.9225887 L4.73949318,4.63089279 Z" id="Shape" fill="#6DA544"></path>
            <g id="Group" transform="translate(2.183236, 11.040936)" fill="#F0F0F0">
                <path d="M2.09122807,4.88165302 C2.09122807,2.55507212 3.72634698,0.611430799 5.90983236,0.134612086 C5.57423782,0.0613177388 5.22604288,0.021582846 4.86836647,0.021582846 C2.18417154,0.021582846 0.0082962963,2.19745809 0.0082962963,4.88165302 C0.0082962963,7.56584795 2.18417154,9.7417232 4.86836647,9.7417232 C5.22598051,9.7417232 5.57417544,9.7019883 5.90983236,9.62869396 C3.72634698,9.15181287 2.09122807,7.20823392 2.09122807,4.88165302 Z" id="Shape"></path>
                <polygon id="Shape" points="5.85624951 0.715851852 6.11480702 1.511423 6.95129825 1.511423 6.27449513 2.0031501 6.53305263 2.79872125 5.85624951 2.30705653 5.17944639 2.79872125 5.4380039 2.0031501 4.76120078 1.511423 5.59769201 1.511423"></polygon>
                <polygon id="Shape" points="5.85624951 2.79872125 6.11480702 3.59435478 6.95129825 3.59435478 6.27449513 4.08601949 6.53305263 4.88165302 5.85624951 4.38992593 5.17944639 4.88165302 5.4380039 4.08601949 4.76120078 3.59435478 5.59769201 3.59435478"></polygon>
                <polygon id="Shape" points="5.85624951 4.88165302 6.11480702 5.67722417 6.95129825 5.67722417 6.27449513 6.16895127 6.53305263 6.96452242 5.85624951 6.47279532 5.17944639 6.96452242 5.4380039 6.16895127 4.76120078 5.67722417 5.59769201 5.67722417"></polygon>
                <polygon id="Shape" points="5.85624951 6.96452242 6.11480702 7.76009357 6.95129825 7.76009357 6.27449513 8.25182066 6.53305263 9.04739181 5.85624951 8.5557271 5.17944639 9.04739181 5.4380039 8.25182066 4.76120078 7.76009357 5.59769201 7.76009357"></polygon>
            </g>
        </g>
    </g>
</svg>