<?xml version="1.0" encoding="UTF-8"?>
<svg width="32px" height="32px" viewBox="0 0 32 32" version="1.1" xmlns="http://www.w3.org/2000/svg" xmlns:xlink="http://www.w3.org/1999/xlink">
    <!-- Generator: Sketch 50.2 (55047) - http://www.bohemiancoding.com/sketch -->
    <title>democratic-republic-of-congo@1x</title>
    <desc>Created with Sketch.</desc>
    <defs></defs>
    <g id="flags" stroke="none" stroke-width="1" fill="none" fill-rule="evenodd">
        <g id="democratic-republic-of-congo" fill-rule="nonzero">
            <path d="M30.223375,8.6635 C29.4840625,7.2310625 28.515,5.8865625 27.31425,4.6858125 C26.1134375,3.485 24.768875,2.5159375 23.3365,1.7766875 L12.0646875,12.0645625 L1.77675,23.336375 C2.5160625,24.7688125 3.485125,26.113375 4.685875,27.314125 C5.886625,28.514875 7.2311875,29.4839375 8.6635625,30.22325 L19.935375,19.9353125 L30.223375,8.6635 Z" id="Shape" fill="#FFDA44"></path>
            <path d="M4.685875,27.3141875 C5.3570625,27.985375 6.07325,28.584 6.8244375,29.1110625 L29.1109375,6.8244375 C28.584,6.07325 27.985375,5.3570625 27.3141875,4.685875 C26.6429375,4.0146875 25.9268125,3.416125 25.175625,2.889125 L2.889125,25.175625 C3.4160625,25.9266875 4.014625,26.643 4.685875,27.3141875 Z" id="Shape" fill="#D80027"></path>
            <g id="Group" fill="#338AF3">
                <path d="M4.685875,4.68575 C-0.3620625,9.7336875 -1.331125,17.3148125 1.77675,23.336375 L23.3365,1.7766875 C17.314875,-1.331125 9.73375,-0.3619375 4.685875,4.68575 Z" id="Shape"></path>
                <path d="M27.3141875,27.3141875 C32.3620625,22.2663125 33.3310625,14.6851875 30.223375,8.663625 L8.663625,30.2233125 C14.6851875,33.331125 22.266375,32.362125 27.3141875,27.3141875 Z" id="Shape"></path>
            </g>
            <polygon id="Shape" fill="#FFDA44" points="8.526625 4.8690625 9.39 7.526375 12.184 7.526375 9.923625 9.168625 10.787 11.825875 8.526625 10.1835625 6.266125 11.825875 7.129625 9.168625 4.869125 7.526375 7.663125 7.526375"></polygon>
        </g>
    </g>
</svg>