<?xml version="1.0" encoding="UTF-8"?>
<svg width="32px" height="32px" viewBox="0 0 32 32" version="1.1" xmlns="http://www.w3.org/2000/svg" xmlns:xlink="http://www.w3.org/1999/xlink">
    <!-- Generator: Sketch 50.2 (55047) - http://www.bohemiancoding.com/sketch -->
    <title>cook-islands@1x</title>
    <desc>Created with Sketch.</desc>
    <defs></defs>
    <g id="flags" stroke="none" stroke-width="1" fill="none" fill-rule="evenodd">
        <g id="cook-islands">
            <path d="M32,16 C32,24.8365 24.8365,32 16,32 C7.1635,32 0,24.8365 0,16 C0,16.0038125 16,0.00175 16,0 C24.8365,0 32,7.1635 32,16 Z" id="Shape" fill="#0052B4" fill-rule="nonzero"></path>
            <g id="Group" fill="#F0F0F0" fill-rule="nonzero">
                <path d="M16.0188125,0 C16.0108125,0 16.0048125,0 15.9973125,0 L16.0188125,0 Z" id="Shape"></path>
                <path d="M15.9571875,16.2996875 L16.2996875,16.2996875 C16.2996875,16.1846875 16.2996875,16.0726875 16.2996875,15.9571875 C16.1856875,16.0716875 16.0716875,16.1856875 15.9571875,16.2996875 Z" id="Shape"></path>
                <path d="M16,8.3478125 C16,5.5325 16,3.6878125 16.0000625,0 L15.9973125,0 C7.1619375,0.0015 0,7.1643125 0,16 L8.3478125,16 L8.3478125,11.2993125 L13.0485,16 L15.95725,16 C15.9715,15.98575 15.98575,15.9715 16.0000625,15.9571875 C16.0000625,14.87925 16.0000625,13.9174375 16.0000625,13.048625 L11.29925,8.3478125 L16,8.3478125 Z" id="Shape"></path>
            </g>
            <g id="Group" transform="translate(2.062500, 2.062500)" fill="#D80027" fill-rule="nonzero">
                <path d="M6.0321875,0.0244375 C3.52975,1.449375 1.4493125,3.52975 0.0244375,6.0321875 L0.0244375,13.9375 L4.198375,13.9375 L4.198375,4.1985 L4.198375,4.198375 L13.9375,4.198375 C13.9375,2.8819375 13.9375,1.6278125 13.9375,0.0244375 L6.0321875,0.0244375 Z" id="Shape"></path>
                <path d="M13.9375,11.9699375 L8.2528125,6.285375 L6.2853125,6.285375 L6.2853125,6.2855 L13.937375,13.9375 L13.9375,13.9375 C13.9375,13.9375 13.9375,12.5808125 13.9375,11.9699375 Z" id="Shape"></path>
            </g>
            <g id="Group"></g>
            <g id="Group" transform="translate(16.000000, 16.000000)" fill="#F0F0F0" fill-rule="nonzero">
                <polygon id="Shape" points="5.5651875 0 5.8613125 0.911 6.819125 0.911 6.04425 1.474 6.34025 2.3850625 5.5651875 1.822 4.79025 2.3850625 5.08625 1.474 4.311375 0.911 5.2691875 0.911"></polygon>
                <polygon id="Shape" points="1.6300625 1.6300625 2.4835 2.064875 3.160875 1.3875625 3.011 2.3336875 3.8645 2.7685625 2.918375 2.9183125 2.7685625 3.8645625 2.333625 3.011 1.3875625 3.160875 2.065 2.4835625"></polygon>
                <polygon id="Shape" points="0 5.5651875 0.911 5.2691875 0.911125 4.3114375 1.474 5.08625 2.3850625 4.7901875 1.822 5.5651875 2.3850625 6.34025 1.474 6.04425 0.911125 6.819125 0.911125 5.8613125"></polygon>
                <polygon id="Shape" points="1.6300625 9.500375 2.064875 8.646875 1.3875625 7.969625 2.3336875 8.1194375 2.7685625 7.2659375 2.918375 8.2120625 3.8645 8.3618125 3.011 8.79675 3.160875 9.7429375 2.4835 9.0654375"></polygon>
                <polygon id="Shape" points="5.5651875 11.1304375 5.2691875 10.219375 4.3113125 10.219375 5.08625 9.656375 4.79025 8.745375 5.5651875 9.308375 6.34025 8.745375 6.04425 9.656375 6.819125 10.219375 5.8613125 10.219375"></polygon>
                <polygon id="Shape" points="9.500375 9.500375 8.646875 9.065625 7.969625 9.7429375 8.1194375 8.79675 7.2659375 8.3619375 8.2120625 8.2120625 8.3619375 7.2659375 8.79675 8.1194375 9.742875 7.969625 9.0654375 8.6469375"></polygon>
                <polygon id="Shape" points="11.1304375 5.5651875 10.219375 5.8613125 10.219375 6.819125 9.656375 6.0441875 8.745375 6.34025 9.3084375 5.5651875 8.745375 4.7901875 9.656375 5.08625 10.219375 4.3114375 10.219375 5.2691875"></polygon>
                <polygon id="Shape" points="9.500375 1.630125 9.065625 2.4835625 9.742875 3.160875 8.79675 3.011 8.3619375 3.8645625 8.2120625 2.9183125 7.2659375 2.7685 8.1194375 2.3336875 7.969625 1.387625 8.6469375 2.064875"></polygon>
            </g>
        </g>
    </g>
</svg>