<?xml version="1.0" encoding="UTF-8"?>
<svg width="32px" height="32px" viewBox="0 0 32 32" version="1.1" xmlns="http://www.w3.org/2000/svg" xmlns:xlink="http://www.w3.org/1999/xlink">
    <!-- Generator: Sketch 50.2 (55047) - http://www.bohemiancoding.com/sketch -->
    <title>costa-rica@1x</title>
    <desc>Created with Sketch.</desc>
    <defs></defs>
    <g id="flags" stroke="none" stroke-width="1" fill="none" fill-rule="evenodd">
        <g id="costa-rica" fill-rule="nonzero">
            <circle id="Oval" fill="#F0F0F0" cx="16" cy="16" r="16"></circle>
            <path d="M31.0048125,10.4348125 L0.9951875,10.4348125 C0.3520625,12.168125 0,14.042875 0,16 C0,17.957125 0.3520625,19.831875 0.9951875,21.5651875 L31.004875,21.5651875 C31.648,19.831875 32,17.957125 32,16 C32,14.042875 31.648,12.168125 31.0048125,10.4348125 Z" id="Shape" fill="#D80027"></path>
            <g id="Group" transform="translate(3.812500, 0.000000)" fill="#0052B4">
                <path d="M12.1875,0 C7.3380625,0 2.992875,2.15775 0.0586875,5.5651875 L24.31625,5.5651875 C21.382125,2.15775 17.0369375,0 12.1875,0 Z" id="Shape"></path>
                <path d="M24.3163125,26.4348125 L0.0586875,26.4348125 C2.992875,29.84225 7.3380625,32 12.1875,32 C17.0369375,32 21.382125,29.84225 24.3163125,26.4348125 Z" id="Shape"></path>
            </g>
        </g>
    </g>
</svg>