<?xml version="1.0" encoding="UTF-8"?>
<svg width="32px" height="32px" viewBox="0 0 32 32" version="1.1" xmlns="http://www.w3.org/2000/svg" xmlns:xlink="http://www.w3.org/1999/xlink">
    <!-- Generator: Sketch 50.2 (55047) - http://www.bohemiancoding.com/sketch -->
    <title>croatia@1x</title>
    <desc>Created with Sketch.</desc>
    <defs></defs>
    <g id="flags" stroke="none" stroke-width="1" fill="none" fill-rule="evenodd">
        <g id="croatia" fill-rule="nonzero">
            <path d="M32,16 C32,14.042875 31.6479375,12.1680625 31.0048125,10.4348125 L16,9.739125 L0.9951875,10.43475 C0.3520625,12.1680625 0,14.042875 0,16 C0,17.957125 0.3520625,19.8319375 0.9951875,21.5651875 L16,22.260875 L31.0048125,21.56525 C31.6479375,19.8319375 32,17.957125 32,16 Z" id="Shape" fill="#F0F0F0"></path>
            <path d="M16,32 C22.8794375,32 28.744125,27.658 31.0048125,21.5651875 L0.9951875,21.5651875 C3.255875,27.658 9.1205625,32 16,32 Z" id="Shape" fill="#0052B4"></path>
            <path d="M0.9951875,10.4348125 L31.004875,10.4348125 C28.744125,4.342 22.8794375,0 16,0 C9.1205625,0 3.255875,4.342 0.9951875,10.4348125 Z" id="Shape" fill="#D80027"></path>
            <g id="Group" transform="translate(10.375000, 6.250000)" fill="#338AF3">
                <polygon id="Shape" points="9.7989375 4.8805 7.0163125 4.8805 7.480125 1.4021875 9.335125 0.010875 11.1901875 1.4021875 11.1901875 4.1848125"></polygon>
                <polygon id="Shape" points="1.4510625 4.8805 4.2336875 4.8805 3.769875 1.4021875 1.9148125 0.010875 0.0598125 1.4021875 0.0598125 4.1848125"></polygon>
            </g>
            <polygon id="Shape" fill="#0052B4" points="17.855125 11.1305 14.144875 11.1305 14.144875 7.6521875 16 6.260875 17.855125 7.6521875"></polygon>
            <path d="M10.4348125,10.434875 L10.4348125,18.087 C10.4348125,19.9090625 11.3149375,21.5294375 12.6724375,22.54525 L13.646375,22.3015625 L14.875375,23.5379375 C15.2388125,23.6128125 15.614875,23.65225 16.0000625,23.65225 C16.3831875,23.65225 16.757375,23.6133125 17.118875,23.5391875 L18.5218125,22.3710625 L19.3275625,22.543 C20.6845,21.52725 21.56525,19.9085625 21.56525,18.087 L21.56525,10.434875 L10.4348125,10.434875 Z" id="Shape" fill="#F0F0F0"></path>
            <g id="Group" transform="translate(10.375000, 10.375000)" fill="#D80027">
                <rect id="Rectangle-path" x="0.0598125" y="0.0598125" width="2.2260625" height="2.2260625"></rect>
                <rect id="Rectangle-path" x="4.5119375" y="0.0598125" width="2.2260625" height="2.2260625"></rect>
                <rect id="Rectangle-path" x="8.964125" y="0.0598125" width="2.2260625" height="2.2260625"></rect>
                <rect id="Rectangle-path" x="2.285875" y="2.285875" width="2.2260625" height="2.2260625"></rect>
                <rect id="Rectangle-path" x="6.7380625" y="2.285875" width="2.2260625" height="2.2260625"></rect>
                <rect id="Rectangle-path" x="0.0598125" y="4.51125" width="2.2260625" height="2.2260625"></rect>
                <rect id="Rectangle-path" x="2.285875" y="6.737375" width="2.2260625" height="2.2260625"></rect>
                <rect id="Rectangle-path" x="4.5119375" y="4.51125" width="2.2260625" height="2.2260625"></rect>
                <rect id="Rectangle-path" x="8.964125" y="4.51125" width="2.2260625" height="2.2260625"></rect>
                <rect id="Rectangle-path" x="6.7380625" y="6.737375" width="2.2260625" height="2.2260625"></rect>
                <rect id="Rectangle-path" x="4.5119375" y="8.9634375" width="2.2260625" height="2.2260625"></rect>
                <path d="M2.285875,8.963625 L0.2034375,8.963625 C0.3944375,9.791125 0.7699375,10.5483125 1.2848125,11.1896875 L2.285875,11.1896875 L2.285875,8.963625 Z" id="Shape"></path>
                <path d="M8.964125,11.18975 L9.965125,11.18975 C10.480125,10.548375 10.8555,9.791125 11.0465,8.9636875 L8.964125,8.9636875 L8.964125,11.18975 Z" id="Shape"></path>
                <path d="M2.285875,11.18975 L2.285875,12.1610625 C2.9333125,12.64825 3.6899375,12.9975625 4.5119375,13.1651875 L4.5119375,11.18975 L2.285875,11.18975 Z" id="Shape"></path>
                <path d="M6.7380625,11.18975 L6.7380625,13.1651875 C7.560125,12.9976875 8.3166875,12.64825 8.964125,12.1610625 L8.964125,11.18975 L6.7380625,11.18975 Z" id="Shape"></path>
            </g>
        </g>
    </g>
</svg>