<?xml version="1.0" encoding="UTF-8"?>
<svg width="32px" height="32px" viewBox="0 0 32 32" version="1.1" xmlns="http://www.w3.org/2000/svg" xmlns:xlink="http://www.w3.org/1999/xlink">
    <!-- Generator: Sketch 50.2 (55047) - http://www.bohemiancoding.com/sketch -->
    <title>cuba@1x</title>
    <desc>Created with Sketch.</desc>
    <defs></defs>
    <g id="flags" stroke="none" stroke-width="1" fill="none" fill-rule="evenodd">
        <g id="cuba" fill-rule="nonzero">
            <polygon id="Shape" fill="#FF9811" points="0.0005 2.77720078 0 2.77720078 0 29.1604211 0.0005 29.1604211 0.0005 15.9688733"></polygon>
            <circle id="Oval" fill="#F0F0F0" cx="15.9687485" cy="15.9688109" r="15.9687485"></circle>
            <g id="Group" fill="#0052B4">
                <path d="M15.9688733,0.000124756335 C10.744577,0.000124756335 6.10651072,2.50916179 3.1931384,6.38764912 L28.7445458,6.38764912 C25.8312359,2.50909942 21.1931072,0.000124756335 15.9688733,0.000124756335 Z" id="Shape"></path>
                <path d="M15.9688733,31.9375595 C21.1931696,31.9375595 25.8312359,29.4285224 28.7446082,25.5500351 L3.1931384,25.5500351 C6.10644834,29.4285848 10.744577,31.9375595 15.9688733,31.9375595 Z" id="Shape"></path>
                <path d="M6.23781676e-05,15.9688733 C6.23781676e-05,17.0626745 0.110346979,18.1307135 0.319875244,19.1626355 L31.6179337,19.1626355 C31.827462,18.1307135 31.9376842,17.0626745 31.9376842,15.9688733 C31.9376842,14.8750721 31.8273996,13.8070331 31.6179337,12.7751111 L0.319875244,12.7751111 C0.110346979,13.8070331 6.23781676e-05,14.8750721 6.23781676e-05,15.9688733 Z" id="Shape"></path>
            </g>
            <path d="M4.67717739,4.67723977 C-1.55895517,10.9133723 -1.55895517,21.0243119 4.67717739,27.2605692 C7.25420663,24.68354 9.73261598,22.2050682 15.9688109,15.9689357 L4.67717739,4.67723977 Z" id="Shape" fill="#D80027"></path>
            <polygon id="Shape" fill="#F0F0F0" points="6.46306433 11.8031345 7.49692008 14.9853567 10.8432593 14.9853567 8.13623392 16.9522651 9.17008967 20.1345497 6.46306433 18.1677661 3.75591423 20.1345497 4.79001949 16.9522651 2.08293177 14.9853567 5.42902144 14.9853567"></polygon>
        </g>
    </g>
</svg>