<?xml version="1.0" encoding="UTF-8"?>
<svg width="32px" height="32px" viewBox="0 0 32 32" version="1.1" xmlns="http://www.w3.org/2000/svg" xmlns:xlink="http://www.w3.org/1999/xlink">
    <!-- Generator: Sketch 50.2 (55047) - http://www.bohemiancoding.com/sketch -->
    <title>curacao@1x</title>
    <desc>Created with Sketch.</desc>
    <defs></defs>
    <g id="flags" stroke="none" stroke-width="1" fill="none" fill-rule="evenodd">
        <g id="curacao" fill-rule="nonzero">
            <circle id="Oval" fill="#FFDA44" cx="16" cy="16" r="16"></circle>
            <g id="Group" fill="#0052B4">
                <path d="M16,32 C21.25,32 25.9093125,29.471375 28.8268125,25.5656875 L3.1731875,25.5656875 C6.0906875,29.471375 10.75,32 16,32 Z" id="Shape"></path>
                <path d="M32,16 C32,7.1635 24.8365,0 16,0 C7.1635,0 0,7.1635 0,16 C0,17.8920625 0.3293125,19.707 0.93225,21.3918125 L31.0676875,21.3918125 C31.6706875,19.707 32,17.8920625 32,16 Z" id="Shape"></path>
            </g>
            <g id="Group" transform="translate(3.937500, 7.437500)" fill="#F0F0F0">
                <polygon id="Shape" points="7.013875 2.823875 7.8771875 5.480875 10.6711875 5.480875 8.410875 7.12325 9.2741875 9.780375 7.013875 8.138125 4.7535625 9.780375 5.617 7.12325 3.3566875 5.480875 6.1505625 5.480875"></polygon>
                <polygon id="Shape" points="2.215875 0.04125 2.733875 1.6355 4.4103125 1.6355 3.054125 2.620875 3.572125 4.2151875 2.215875 3.2298125 0.8596875 4.2151875 1.37775 2.620875 0.021625 1.6355 1.698 1.6355"></polygon>
            </g>
        </g>
    </g>
</svg>