<?xml version="1.0" encoding="UTF-8"?>
<svg width="32px" height="32px" viewBox="0 0 32 32" version="1.1" xmlns="http://www.w3.org/2000/svg" xmlns:xlink="http://www.w3.org/1999/xlink">
    <!-- Generator: Sketch 50.2 (55047) - http://www.bohemiancoding.com/sketch -->
    <title>cyprus@1x</title>
    <desc>Created with Sketch.</desc>
    <defs></defs>
    <g id="flags" stroke="none" stroke-width="1" fill="none" fill-rule="evenodd">
        <g id="cyprus" fill-rule="nonzero">
            <circle id="Oval" fill="#FCFCFC" cx="16" cy="16" r="16"></circle>
            <path d="M25.0435,13.9130625 C24.5565625,13.9130625 23.953625,13.9130625 22.9565625,13.9130625 C22.9565625,17.7550625 19.8419375,20.8695625 16.0000625,20.8695625 C12.158,20.8695625 9.0435625,17.7550625 9.0435625,13.9130625 C8.3710625,13.9130625 7.629,13.9130625 6.956625,13.9130625 C6.956625,18.0515 9.736375,21.5406875 13.53075,22.61525 C13.11475,23.4055 13.178125,24.4004375 13.772375,25.142 C14.552875,24.5164375 15.3609375,23.868875 16.0464375,23.319625 C16.7319375,23.8689375 17.5400625,24.5165 18.3205,25.142 C18.920625,24.3930625 18.9796875,23.3855 18.549875,22.5914375 C22.3026875,21.4905 25.0435,18.0220625 25.0435,13.9130625 Z" id="Shape" fill="#6DA544"></path>
            <path d="M10.4348125,13.217375 C10.4348125,13.217375 10.4348125,16.695625 13.9130625,16.695625 L14.6086875,17.39125 L16,17.39125 C16,17.39125 16.695625,15.3043125 18.0869375,15.3043125 C18.0869375,15.3043125 18.0869375,13.913 19.47825,13.913 C20.8695625,13.913 21.5651875,13.913 21.5651875,13.913 C21.5651875,13.913 20.8695625,11.130375 24.3478125,9.0434375 L22.9565,8.3478125 C22.9565,8.3478125 18.0869375,11.8260625 14.6086875,11.1304375 L14.6086875,12.52175 L13.217375,12.52175 L12.52175,11.826125 L10.4348125,13.217375 Z" id="Shape" fill="#FFDA44"></path>
        </g>
    </g>
</svg>