<?xml version="1.0" encoding="UTF-8"?>
<svg width="32px" height="32px" viewBox="0 0 32 32" version="1.1" xmlns="http://www.w3.org/2000/svg" xmlns:xlink="http://www.w3.org/1999/xlink">
    <!-- Generator: Sketch 50.2 (55047) - http://www.bohemiancoding.com/sketch -->
    <title>djibouti@1x</title>
    <desc>Created with Sketch.</desc>
    <defs></defs>
    <g id="flags" stroke="none" stroke-width="1" fill="none" fill-rule="evenodd">
        <g id="djibouti" fill-rule="nonzero">
            <path d="M14.6425887,17.3574113 C14.6425887,17.3574113 4.7488499,4.67493177 4.73949318,4.67717739 C7.62922417,1.78738402 11.6214893,0 16.0311891,0 C24.8504639,0 32,7.14953606 32,15.9688109 L14.6425887,17.3574113 Z" id="Shape" fill="#338AF3"></path>
            <path d="M14.6425887,15.9688109 C14.6425887,15.9688109 4.7488499,27.2626901 4.73949318,27.2604444 C7.62922417,30.1502378 11.6214893,31.9376218 16.0311891,31.9376218 C24.8504639,31.9376218 32,24.7880858 32,15.9688109 L14.6425887,15.9688109 Z" id="Shape" fill="#6DA544"></path>
            <path d="M4.73949318,4.67711501 C-1.49670175,10.9133099 -1.49670175,21.0242495 4.73949318,27.2605068 C7.31652242,24.6834776 9.79499415,22.2050058 16.0311891,15.9688109 L4.73949318,4.67711501 Z" id="Shape" fill="#F0F0F0"></path>
            <polygon id="Shape" fill="#D80027" points="6.52538012 11.8030097 7.55929825 14.9852943 10.9056374 14.9852943 8.19854971 16.9522027 9.23240546 20.1346121 6.52538012 18.1677661 3.81823002 20.1346121 4.85233528 16.9522027 2.14524756 14.9852943 5.49133723 14.9852943"></polygon>
        </g>
    </g>
</svg>