<?xml version="1.0" encoding="UTF-8"?>
<svg width="32px" height="32px" viewBox="0 0 32 32" version="1.1" xmlns="http://www.w3.org/2000/svg" xmlns:xlink="http://www.w3.org/1999/xlink">
    <!-- Generator: Sketch 50.2 (55047) - http://www.bohemiancoding.com/sketch -->
    <title>dominican-republic@1x</title>
    <desc>Created with Sketch.</desc>
    <defs></defs>
    <g id="flags" stroke="none" stroke-width="1" fill="none" fill-rule="evenodd">
        <g id="dominican-republic" fill-rule="nonzero">
            <circle id="Oval" fill="#F0F0F0" cx="16" cy="16" r="16"></circle>
            <path d="M0.5511875,20.1739375 C2.0285625,25.655375 6.344625,29.9715 11.826125,31.448875 L11.826125,20.1739375 L0.5511875,20.1739375 Z" id="Shape" fill="#D80027"></path>
            <path d="M11.826125,0.5511875 C6.344625,2.0285 2.0285,6.344625 0.5511875,11.8260625 L11.826125,11.8260625 L11.826125,0.5511875 Z" id="Shape" fill="#0052B4"></path>
            <path d="M31.4488125,11.826125 C29.9715,6.344625 25.655375,2.0285 20.1739375,0.5511875 L20.1739375,11.826125 L31.4488125,11.826125 Z" id="Shape" fill="#D80027"></path>
            <path d="M20.1739375,31.4488125 C25.655375,29.9714375 29.9715,25.655375 31.448875,20.173875 L20.1739375,20.173875 L20.1739375,31.4488125 Z" id="Shape" fill="#0052B4"></path>
            <path d="M20.1739375,16 C20.1739375,18.30525 18.30525,20.1739375 16,20.1739375 C13.6948125,20.1739375 11.8260625,18.30525 11.8260625,16 C11.8260625,13.69475 16,11.8260625 16,11.8260625 C16,11.8260625 20.1739375,13.69475 20.1739375,16 Z" id="Shape" fill="#496E2D"></path>
            <path d="M11.8260625,16 C11.8260625,13.69475 13.6948125,11.8260625 16,11.8260625 C18.30525,11.8260625 20.1739375,13.69475 20.1739375,16" id="Shape" fill="#0052B4"></path>
            <path d="M13.6521875,13.9130625 L13.6521875,16.52175 C13.6521875,17.8184375 14.7033125,18.8695625 16,18.8695625 C17.2966875,18.8695625 18.3478125,17.8184375 18.3478125,16.52175 L18.3478125,13.9130625 L13.6521875,13.9130625 Z" id="Shape" fill="#D80027"></path>
        </g>
    </g>
</svg>