<?xml version="1.0" encoding="UTF-8"?>
<svg width="32px" height="32px" viewBox="0 0 32 32" version="1.1" xmlns="http://www.w3.org/2000/svg" xmlns:xlink="http://www.w3.org/1999/xlink">
    <!-- Generator: Sketch 50.2 (55047) - http://www.bohemiancoding.com/sketch -->
    <title>dominica@1x</title>
    <desc>Created with Sketch.</desc>
    <defs></defs>
    <g id="flags" stroke="none" stroke-width="1" fill="none" fill-rule="evenodd">
        <g id="dominica" fill-rule="nonzero">
            <circle id="Oval" fill="#F0F0F0" cx="16" cy="16" r="16"></circle>
            <g id="Group" transform="translate(0.250000, 0.250000)" fill="#496E2D">
                <path d="M18.8804375,31.4429375 C25.205625,30.1881875 30.1881875,25.2055625 31.4429375,18.8804375 L18.8804375,18.8804375 L18.8804375,31.4429375 Z" id="Shape"></path>
                <path d="M0.0570625,18.8804375 C1.31175,25.2055625 6.294375,30.1881875 12.6195625,31.4429375 L12.6195625,18.8804375 L0.0570625,18.8804375 Z" id="Shape"></path>
                <path d="M31.4429375,12.6195625 C30.1881875,6.2944375 25.205625,1.3118125 18.8804375,0.0570625 L18.8804375,12.6195625 L31.4429375,12.6195625 Z" id="Shape"></path>
                <path d="M12.6195625,0.0570625 C6.294375,1.3118125 1.31175,6.2944375 0.0570625,12.6195625 L12.6195625,12.6195625 L12.6195625,0.0570625 Z" id="Shape"></path>
            </g>
            <g id="Group" transform="translate(12.812500, 0.000000)" fill="#FFDA44">
                <path d="M2.144,19.1304375 L0.0570625,19.1304375 L0.0570625,31.6929375 C0.738125,31.828 1.4348125,31.9195 2.144,31.9651875 L2.144,19.1304375 Z" id="Shape"></path>
                <path d="M2.144,12.8695625 L2.144,0.0348125 C1.4348125,0.0804375 0.7380625,0.172 0.0570625,0.3070625 L0.0570625,12.8695625 L2.144,12.8695625 Z" id="Shape"></path>
            </g>
            <path d="M17.0435,0.0348125 C16.698375,0.0125 16.3506875,0 16,0 C15.6493125,0 15.301625,0.0125 14.9565,0.0348125 L14.9565,12.869625 L17.0434375,12.869625 L17.0434375,0.0348125 L17.0435,0.0348125 Z" id="Shape" fill="#000000"></path>
            <path d="M14.9565,31.9651875 C15.301625,31.9875 15.6493125,32 16,32 C16.3506875,32 16.698375,31.9875 17.0435,31.9651875 L17.0435,19.1304375 L14.9565625,19.1304375 L14.9565625,31.9651875 L14.9565,31.9651875 Z" id="Shape" fill="#000000"></path>
            <g id="Group" transform="translate(0.000000, 12.812500)" fill="#FFDA44">
                <path d="M12.8695625,2.144 L12.8695625,0.0570625 L0.3070625,0.0570625 C0.1719375,0.7381875 0.0804375,1.4348125 0.0348125,2.144 L12.8695625,2.144 Z" id="Shape"></path>
                <path d="M19.1304375,2.144 L31.96525,2.144 C31.919625,1.4348125 31.8280625,0.7381875 31.693,0.0570625 L19.1304375,0.0570625 L19.1304375,2.144 Z" id="Shape"></path>
            </g>
            <path d="M19.1304375,17.0435 L31.96525,17.0435 C31.9875,16.6984375 32,16.3506875 32,16 C32,15.6493125 31.9875,15.3015625 31.9651875,14.9565 L19.1304375,14.9565 L19.1304375,17.0435 Z" id="Shape" fill="#000000"></path>
            <path d="M0.0348125,14.9565 C0.0125625,15.3015625 0,15.6493125 0,16 C0,16.3506875 0.0125625,16.6984375 0.0348125,17.0435 L12.869625,17.0435 L12.869625,14.9565625 L0.0348125,14.9565625 L0.0348125,14.9565 Z" id="Shape" fill="#000000"></path>
            <circle id="Oval" fill="#D80027" cx="16" cy="16" r="7.6521875"></circle>
            <g id="Group" transform="translate(10.000000, 9.687500)" fill="#496E2D">
                <path d="M7.743375,7.16625 C7.1741875,6.0279375 6.434375,4.8741875 6.434375,4.8741875 C6.434375,4.8741875 6.45275,4.348875 6.45275,4.035875 C6.45275,3.564375 6.0705,3.182125 5.599,3.182125 C5.1523125,3.182125 4.7863125,3.5253125 4.749,3.96225 C4.39775,3.9851875 4.1198125,4.2765625 4.1198125,4.6335625 C4.1198125,4.893125 4.266875,5.1180625 4.482125,5.2305 C4.589125,4.98025 4.798625,4.784875 5.05775,4.6958125 C5.1,4.730375 5.145375,4.76125 5.1938125,4.7874375 L5.3031875,4.8398125 C5.3031875,4.8398125 4.897625,5.983 4.897625,6.597125 C4.897625,8.323625 6.036,8.8560625 6.036,8.8560625 L6.036,8.873875 L5.4668125,9.443 L6.605125,9.443 L6.605125,8.304625 L7.1743125,8.8738125 C7.1793125,8.863125 8.2524375,8.1844375 7.743375,7.16625 Z" id="Shape"></path>
                <polygon id="Shape" points="6 0.051625 6.259 0.84875 7.097125 0.84875 6.4190625 1.3414375 6.678125 2.1385625 6 1.6459375 5.321875 2.1385625 5.5809375 1.3414375 4.902875 0.84875 5.741 0.84875"></polygon>
                <polygon id="Shape" points="2.32 1.247375 2.998 1.7400625 3.676125 1.2473125 3.417125 2.0445625 4.09525 2.537125 3.2570625 2.5371875 2.9980625 3.3343125 2.739 2.5371875 1.900875 2.537125 2.5789375 2.0444375"></polygon>
                <polygon id="Shape" points="0.0455625 4.3778125 0.883625 4.3778125 1.1426875 3.5806875 1.4016875 4.3778125 2.239875 4.37775 1.5618125 4.8705 1.820875 5.667625 1.1426875 5.1749375 0.464625 5.6675625 0.7235625 4.8704375"></polygon>
                <polygon id="Shape" points="0.0455625 8.2471875 0.7235625 7.754625 0.4645625 6.9574375 1.1426875 7.450125 1.8208125 6.9574375 1.5618125 7.7545625 2.2399375 8.24725 1.4016875 8.2473125 1.1426875 9.044375 0.883625 8.2471875"></polygon>
                <polygon id="Shape" points="2.32 11.377625 2.5789375 10.580625 1.9008125 10.0879375 2.739 10.0879375 2.9980625 9.29075 3.2570625 10.087875 4.09525 10.087875 3.417125 10.580625 3.676125 11.3776875 2.998 10.885"></polygon>
                <polygon id="Shape" points="6 12.573375 5.741 11.776375 4.902875 11.776375 5.5809375 11.283625 5.321875 10.4865 6 10.9790625 6.6780625 10.4864375 6.4190625 11.283625 7.097125 11.7763125 6.259 11.776375"></polygon>
                <polygon id="Shape" points="9.68 11.377625 9.002 10.885 8.3239375 11.37775 8.582875 10.580625 7.90475 10.0879375 8.7429375 10.087875 9.001875 9.29075 9.261 10.0879375 10.099125 10.0879375 9.4210625 10.580625"></polygon>
                <polygon id="Shape" points="11.9544375 8.2471875 11.116375 8.2471875 10.8573125 9.044375 10.5983125 8.2473125 9.7600625 8.2473125 10.4381875 7.7545625 10.179125 6.9575 10.8573125 7.450125 11.5353125 6.9575 11.2764375 7.754625"></polygon>
                <polygon id="Shape" points="11.9544375 4.3778125 11.2764375 4.8704375 11.535375 5.6675625 10.8573125 5.1749375 10.1791875 5.6676875 10.4381875 4.8705 9.7600625 4.377875 10.5983125 4.37775 10.85725 3.58075 11.116375 4.3778125"></polygon>
                <polygon id="Shape" points="9.68 1.247375 9.4210625 2.0444375 10.099125 2.537125 9.261 2.537125 9.002 3.3343125 8.7429375 2.5371875 7.90475 2.53725 8.582875 2.0444375 8.323875 1.2474375 9.002 1.74"></polygon>
            </g>
        </g>
    </g>
</svg>