<?xml version="1.0" encoding="UTF-8"?>
<svg width="32px" height="32px" viewBox="0 0 32 32" version="1.1" xmlns="http://www.w3.org/2000/svg" xmlns:xlink="http://www.w3.org/1999/xlink">
    <!-- Generator: Sketch 50.2 (55047) - http://www.bohemiancoding.com/sketch -->
    <title>ecuador@1x</title>
    <desc>Created with Sketch.</desc>
    <defs></defs>
    <g id="flags" stroke="none" stroke-width="1" fill="none" fill-rule="evenodd">
        <g id="ecuador" fill-rule="nonzero">
            <path d="M0,16 C0,7.1635 7.1635,0 16,0 C24.8365,0 32,7.1635 32,16 L16,17.3913125 L0,16 Z" id="Shape" fill="#FFDA44"></path>
            <path d="M2.141,24 C4.9075625,28.78225 10.0778125,32 16,32 C21.9221875,32 27.0924375,28.78225 29.859,24 L16,22.9565 L2.141,24 Z" id="Shape" fill="#D80027"></path>
            <path d="M29.859,24 C31.220375,21.646625 32,18.9144375 32,16 L0,16 C0,18.9144375 0.779625,21.646625 2.141,24 L29.859,24 Z" id="Shape" fill="#0052B4"></path>
            <circle id="Oval" fill="#FFDA44" cx="16" cy="16" r="5.5651875"></circle>
            <path d="M16,19.47825 C14.0820625,19.47825 12.52175,17.917875 12.52175,16 L12.52175,13.9130625 C12.52175,11.995125 14.082125,10.4348125 16,10.4348125 C17.917875,10.4348125 19.47825,11.9951875 19.47825,13.9130625 L19.47825,16 C19.47825,17.9179375 17.9179375,19.47825 16,19.47825 Z" id="Shape" fill="#338AF3"></path>
            <path d="M21.5651875,7.6521875 L17.39125,7.6521875 C17.39125,6.8838125 16.7683125,6.260875 15.9999375,6.260875 C15.2315625,6.260875 14.608625,6.8838125 14.608625,7.6521875 L10.4346875,7.6521875 C10.4346875,8.420625 11.104,9.0435 11.8723125,9.0435 L11.826,9.0435 C11.826,9.8119375 12.448875,10.4348125 13.2173125,10.4348125 C13.2173125,11.20325 13.8401875,11.826125 14.608625,11.826125 L17.39125,11.826125 C18.1596875,11.826125 18.7825625,11.20325 18.7825625,10.4348125 C19.551,10.4348125 20.173875,9.8119375 20.173875,9.0435 L20.1275625,9.0435 C20.8959375,9.0435 21.5651875,8.4205625 21.5651875,7.6521875 Z" id="Shape" fill="#000000"></path>
        </g>
    </g>
</svg>