<?xml version="1.0" encoding="UTF-8"?>
<svg width="32px" height="32px" viewBox="0 0 32 32" version="1.1" xmlns="http://www.w3.org/2000/svg" xmlns:xlink="http://www.w3.org/1999/xlink">
    <!-- Generator: Sketch 50.2 (55047) - http://www.bohemiancoding.com/sketch -->
    <title>egypt@1x</title>
    <desc>Created with Sketch.</desc>
    <defs></defs>
    <g id="flags" stroke="none" stroke-width="1" fill="none" fill-rule="evenodd">
        <g id="egypt" fill-rule="nonzero">
            <circle id="Oval" fill="#F0F0F0" cx="16" cy="16" r="16"></circle>
            <path d="M16,0 C9.1205625,0 3.255875,4.342 0.9951875,10.4348125 L31.004875,10.4348125 C28.744125,4.342 22.8794375,0 16,0 Z" id="Shape" fill="#D80027"></path>
            <path d="M16,32 C22.8794375,32 28.744125,27.658 31.0048125,21.5651875 L0.9951875,21.5651875 C3.255875,27.658 9.1205625,32 16,32 Z" id="Shape" fill="#000000"></path>
            <path d="M21.5651875,14.260875 L17.39125,14.260875 C17.39125,13.4925 16.7683125,12.8695625 15.9999375,12.8695625 C15.2315625,12.8695625 14.608625,13.4925 14.608625,14.260875 L10.4346875,14.260875 C10.4346875,15.0293125 11.104,15.6521875 11.872375,15.6521875 L11.826,15.6521875 C11.826,16.420625 12.448875,17.0435 13.2173125,17.0435 C13.2173125,17.8119375 13.8401875,18.4348125 14.608625,18.4348125 L17.39125,18.4348125 C18.1596875,18.4348125 18.7825625,17.8119375 18.7825625,17.0435 C19.551,17.0435 20.173875,16.420625 20.173875,15.6521875 L20.1275625,15.6521875 C20.8959375,15.6521875 21.5651875,15.0293125 21.5651875,14.260875 Z" id="Shape" fill="#FF9811"></path>
        </g>
    </g>
</svg>