<?xml version="1.0" encoding="UTF-8"?>
<svg width="32px" height="32px" viewBox="0 0 32 32" version="1.1" xmlns="http://www.w3.org/2000/svg" xmlns:xlink="http://www.w3.org/1999/xlink">
    <!-- Generator: Sketch 50.2 (55047) - http://www.bohemiancoding.com/sketch -->
    <title>el-salvador@1x</title>
    <desc>Created with Sketch.</desc>
    <defs></defs>
    <g id="flags" stroke="none" stroke-width="1" fill="none" fill-rule="evenodd">
        <g id="el-salvador" fill-rule="nonzero">
            <circle id="Oval" fill="#F0F0F0" cx="16" cy="16" r="16"></circle>
            <g id="Group" transform="translate(1.562500, 0.000000)" fill="#0052B4">
                <path d="M14.4375,0 C8.094125,0 2.613125,3.6915625 0.025125,9.0435 L28.8498125,9.0435 C26.261875,3.6915625 20.7808125,0 14.4375,0 Z" id="Shape"></path>
                <path d="M14.4375,32 C20.7808125,32 26.261875,28.3084375 28.849875,22.9565 L0.025125,22.9565 C2.613125,28.3084375 8.094125,32 14.4375,32 Z" id="Shape"></path>
            </g>
            <polygon id="Shape" fill="#FFDA44" points="12.786875 16.695625 16 11.1304375 19.213125 16.695625"></polygon>
            <polygon id="Shape" fill="#6DA544" points="20.1739375 18.5331875 16 20.6201875 11.8260625 18.5331875 11.8260625 15.750625 20.1739375 15.750625"></polygon>
            <path d="M19.9351875,11.3691875 L18.4595,12.844875 C19.0889375,13.4743125 19.4783125,14.343875 19.4783125,15.304375 C19.4783125,17.225375 17.921,18.782625 16.0000625,18.782625 C14.079125,18.782625 12.5218125,17.2253125 12.5218125,15.304375 C12.5218125,14.343875 12.9111875,13.4743125 13.540625,12.844875 L12.0649375,11.3691875 C11.05775,12.3761875 10.434875,13.7675 10.434875,15.304375 C10.434875,18.378 12.9265,20.8695625 16.0000625,20.8695625 C19.073625,20.8695625 21.56525,18.3779375 21.56525,15.304375 C21.5651875,13.7675 20.9423125,12.3761875 19.9351875,11.3691875 Z" id="Shape" fill="#FFDA44"></path>
        </g>
    </g>
</svg>