<?xml version="1.0" encoding="UTF-8"?>
<svg width="32px" height="32px" viewBox="0 0 32 32" version="1.1" xmlns="http://www.w3.org/2000/svg" xmlns:xlink="http://www.w3.org/1999/xlink">
    <!-- Generator: Sketch 50.2 (55047) - http://www.bohemiancoding.com/sketch -->
    <title>equatorial-guinea@1x</title>
    <desc>Created with Sketch.</desc>
    <defs></defs>
    <g id="flags" stroke="none" stroke-width="1" fill="none" fill-rule="evenodd">
        <g id="equatorial-guinea" fill-rule="nonzero">
            <circle id="Oval" fill="#F0F0F0" cx="16.0311891" cy="15.9688109" r="15.9688109"></circle>
            <path d="M9.78251852,10.4144717 L31.0066901,10.4144717 C28.7504717,4.33353606 22.897154,0 16.0311891,0 C11.6214269,0 7.62966082,1.78769591 4.74005458,4.67767641 L9.78251852,10.4144717 Z" id="Shape" fill="#6DA544"></path>
            <path d="M9.78251852,21.5231501 L31.0066901,21.5231501 C28.7504717,27.6040858 22.897154,31.9376218 16.0311891,31.9376218 C11.6214269,31.9376218 7.62966082,30.1499259 4.74005458,27.2599454 L9.78251852,21.5231501 Z" id="Shape" fill="#D80027"></path>
            <path d="M4.73949318,4.67711501 C-1.49670175,10.9133099 -1.49670175,21.0242495 4.73949318,27.2605068 C7.31652242,24.6834776 9.79499415,22.2050058 16.0311891,15.9688109 L4.73949318,4.67711501 Z" id="Shape" fill="#0052B4"></path>
            <path d="M18.8083899,13.1916101 L18.8083899,16.6630799 C18.8083899,18.7889279 21.5855906,19.4403431 21.5855906,19.4403431 C21.5855906,19.4403431 24.3627914,18.7889279 24.3627914,16.6630799 L24.3627914,13.1916101 L18.8083899,13.1916101 Z" id="Shape" fill="#DEDDE0"></path>
            <rect id="Rectangle-path" fill="#786145" x="20.8912593" y="16.0382378" width="1.38860039" height="2.0134425"></rect>
            <path d="M22.9741287,15.2745419 C22.9741287,14.5076023 22.3524678,13.8859415 21.5855283,13.8859415 C20.8185887,13.8859415 20.1969279,14.5076023 20.1969279,15.2745419 C19.8134893,15.2745419 19.5026589,15.5853723 19.5026589,15.9688109 C19.5026589,16.3522495 19.8134893,16.6630799 20.1969279,16.6630799 C20.4246082,16.6630799 22.7464483,16.6630799 22.9741287,16.6630799 C23.3575673,16.6630799 23.6683977,16.3522495 23.6683977,15.9688109 C23.6683977,15.5853723 23.3576296,15.2745419 22.9741287,15.2745419 Z" id="Shape" fill="#6DA544"></path>
        </g>
    </g>
</svg>