<?xml version="1.0" encoding="UTF-8"?>
<svg width="32px" height="32px" viewBox="0 0 32 32" version="1.1" xmlns="http://www.w3.org/2000/svg" xmlns:xlink="http://www.w3.org/1999/xlink">
    <!-- Generator: Sketch 50.2 (55047) - http://www.bohemiancoding.com/sketch -->
    <title>eritrea@1x</title>
    <desc>Created with Sketch.</desc>
    <defs></defs>
    <g id="flags" stroke="none" stroke-width="1" fill="none" fill-rule="evenodd">
        <g id="eritrea" fill-rule="nonzero">
            <path d="M14.5802105,14.5802105 C14.5802105,14.5802105 4.68647173,27.2627524 4.67711501,27.2604444 C7.566846,30.1502378 11.5591111,31.9376218 15.9688109,31.9376218 C24.7880858,31.9376218 31.9376218,24.7880858 31.9376218,15.9688109 L14.5802105,14.5802105 Z" id="Shape" fill="#338AF3"></path>
            <path d="M14.5802105,15.9688109 C14.5802105,15.9688109 4.68647173,4.67493177 4.67711501,4.67717739 C7.566846,1.78738402 11.5591111,0 15.9688109,0 C24.7880858,0 31.9376218,7.14953606 31.9376218,15.9688109 L14.5802105,15.9688109 Z" id="Shape" fill="#6DA544"></path>
            <path d="M4.67711501,4.67711501 C-1.55907992,10.9133099 -1.55907992,21.0242495 4.67711501,27.2605068 C4.67667836,27.2630643 31.9376218,15.9688109 31.9376218,15.9688109 L4.67711501,4.67711501 Z" id="Shape" fill="#D80027"></path>
            <path d="M8.33153996,9.37300585 C5.26883431,9.37300585 2.77720078,11.8647018 2.77720078,14.927345 L2.77720078,17.0102144 C2.77720078,20.0729201 5.26889669,22.5645536 8.33153996,22.5645536 C11.3941832,22.5645536 13.8858791,20.0728577 13.8858791,17.0102144 L13.8858791,14.927345 C13.8859415,11.8647018 11.3942456,9.37300585 8.33153996,9.37300585 Z M11.8030097,17.0102768 C11.8030097,18.5617466 10.779883,19.8784873 9.37294347,20.3219337 L9.37294347,18.0517427 L10.8465653,16.5781209 L9.37375439,15.1053099 L9.37294347,14.5811462 L9.37294347,13.8860039 L7.29013645,13.8860039 L7.29013645,15.9688109 L5.81751267,17.4413723 L7.29013645,18.9139337 L7.29013645,20.3219961 C5.88319688,19.8785497 4.86007018,18.561809 4.86007018,17.0103392 L4.86007018,14.9274698 C4.86007018,13.013271 6.41740351,11.456 8.33153996,11.456 C10.2456764,11.456 11.8030097,13.0133333 11.8030097,14.9274698 L11.8030097,17.0102768 Z" id="Shape" fill="#FFDA44"></path>
        </g>
    </g>
</svg>