<?xml version="1.0" encoding="UTF-8"?>
<svg width="32px" height="32px" viewBox="0 0 32 32" version="1.1" xmlns="http://www.w3.org/2000/svg" xmlns:xlink="http://www.w3.org/1999/xlink">
    <!-- Generator: Sketch 50.2 (55047) - http://www.bohemiancoding.com/sketch -->
    <title>ethiopia@1x</title>
    <desc>Created with Sketch.</desc>
    <defs></defs>
    <g id="flags" stroke="none" stroke-width="1" fill="none" fill-rule="evenodd">
        <g id="ethiopia" fill-rule="nonzero">
            <path d="M0,16 C0,17.95725 0.3520625,19.832 0.99525,21.565375 L16,22.9565 L31.00475,21.5653125 C31.648,19.832 32,17.9571875 32,16 C32,14.0696875 31.6580625,12.21925 31.031625,10.5059375 L16,9.0435 L0.968375,10.506 C0.3419375,12.21925 0,14.0696875 0,16 Z" id="Shape" fill="#FFDA44"></path>
            <path d="M16,32 C22.8794375,32 28.744125,27.658 31.0048125,21.5651875 L0.9951875,21.5651875 C3.255875,27.658 9.1205625,32 16,32 Z" id="Shape" fill="#D80027"></path>
            <path d="M16,0 C9.1205625,0 3.255875,4.342 0.9951875,10.4348125 L31.004875,10.4348125 C28.744125,4.342 22.8794375,0 16,0 Z" id="Shape" fill="#6DA544"></path>
            <circle id="Oval" fill="#0052B4" cx="16" cy="16" r="7.6521875"></circle>
            <g id="Group" transform="translate(10.125000, 10.062500)" fill="#FFDA44">
                <polygon id="Shape" points="5.873375 0.0119375 7.25475 4.2633125 11.7320625 4.2633125 8.1084375 6.890875 9.5006875 11.154875 5.873375 8.5148125 2.251625 11.15 3.63825 6.890875 0.0179375 4.2633125 4.492 4.2633125"></polygon>
                <polygon id="Shape" points="11.38275 6.995625 7.0005 5.571625 9.7088125 1.844125 8.5833125 1.02625 5.874875 4.754 3.1666875 1.0263125 2.0410625 1.8440625 4.7493125 5.571875 0.36725 6.9955625 0.797125 8.318875 5.179375 6.8950625 5.179375 11.5026875 6.570625 11.5026875 6.570625 6.895 10.9526875 8.318875"></polygon>
            </g>
        </g>
    </g>
</svg>