<?xml version="1.0" encoding="UTF-8"?>
<svg width="32px" height="32px" viewBox="0 0 32 32" version="1.1" xmlns="http://www.w3.org/2000/svg" xmlns:xlink="http://www.w3.org/1999/xlink">
    <!-- Generator: Sketch 50.2 (55047) - http://www.bohemiancoding.com/sketch -->
    <title>faroe-islands@1x</title>
    <desc>Created with Sketch.</desc>
    <defs></defs>
    <g id="flags" stroke="none" stroke-width="1" fill="none" fill-rule="evenodd">
        <g id="faroe-islands" fill-rule="nonzero">
            <circle id="Oval" fill="#F0F0F0" cx="16" cy="16" r="16"></circle>
            <path d="M31.304375,16 L31.8643125,13.9130625 C31.7713125,13.20175 31.6318125,12.505 31.448875,11.826125 L14.6086875,11.826125 L14.6086875,0.060875 C13.8986875,0.122 13.202125,0.2300625 12.52175,0.3809375 L9.739125,2.0869375 L8.3478125,1.9465 C7.615625,2.346 6.9180625,2.801 6.260875,3.3059375 L6.260875,11.8260625 L0.5511875,11.8260625 C0.36825,12.5049375 0.22875,13.2016875 0.13575,13.913 L0.695625,16 L0.1356875,18.0869375 C0.2286875,18.79825 0.3681875,19.495 0.551125,20.173875 L6.2608125,20.173875 L6.2608125,28.694 C6.918,29.199 7.615625,29.6539375 8.34775,30.0534375 L10.4346875,29.913 L12.521625,31.619 C13.2020625,31.7698125 13.898625,31.877875 14.6085625,31.9390625 L14.6085625,20.1739375 L31.4486875,20.1739375 C31.631625,19.4950625 31.771125,18.7983125 31.864125,18.087 L31.304375,16 Z" id="Shape" fill="#0052B4"></path>
            <path d="M31.8645625,13.9130625 L12.5218125,13.9130625 L12.52175,13.9130625 L12.52175,0.3803125 C11.043125,0.7081875 9.6413125,1.239625 8.3478125,1.9454375 L8.3478125,13.913 L0.1354375,13.913 C0.0465,14.5961875 0,15.2926875 0,16 C0,16.7073125 0.0465,17.4038125 0.1354375,18.0869375 L8.34775,18.0869375 L8.3478125,18.0869375 L8.3478125,30.0545 C9.6413125,30.76025 11.043125,31.2918125 12.52175,31.619625 L12.52175,18.087125 L12.52175,18.087 L31.8645625,18.087 C31.9535,17.4038125 32,16.7073125 32,16 C32,15.2926875 31.9535,14.5961875 31.8645625,13.9130625 Z" id="Shape" fill="#D80027"></path>
        </g>
    </g>
</svg>