<?xml version="1.0" encoding="UTF-8"?>
<svg width="32px" height="32px" viewBox="0 0 32 32" version="1.1" xmlns="http://www.w3.org/2000/svg" xmlns:xlink="http://www.w3.org/1999/xlink">
    <!-- Generator: Sketch 50.2 (55047) - http://www.bohemiancoding.com/sketch -->
    <title>fiji@1x</title>
    <desc>Created with Sketch.</desc>
    <defs></defs>
    <g id="flags" stroke="none" stroke-width="1" fill="none" fill-rule="evenodd">
        <g id="fiji" fill-rule="nonzero">
            <path d="M32,16 C32,24.8365 24.8365,32 16,32 C7.1635,32 0,24.8365 0,16 C0,16.0038125 16,0.00175 16,0 C24.8365,0 32,7.1635 32,16 Z" id="Shape" fill="#338AF3"></path>
            <g id="Group" transform="translate(7.625000, 7.625000)" fill="#0052B4">
                <polygon id="Shape" points="8.375 0.0271875 8.375 5.423625 2.8098125 0.0271875"></polygon>
                <polygon id="Shape" points="0.7228125 8.375 5.4235625 8.375 0.7228125 2.114125 0.0271875 6.9836875"></polygon>
            </g>
            <g id="Group" fill="#F0F0F0">
                <path d="M16.0188125,0 C16.0108125,0 16.0043125,0 15.9973125,0 L16.0188125,0 Z" id="Shape"></path>
                <path d="M15.9571875,16.2996875 L16.2996875,16.2996875 C16.2996875,16.1846875 16.2996875,16.0726875 16.2996875,15.9571875 C16.1856875,16.0716875 16.0716875,16.1856875 15.9571875,16.2996875 Z" id="Shape"></path>
                <path d="M16,8.3478125 C16,5.5325 16,3.6878125 16.000125,0 L15.9973125,0 C7.162,0.0015 0,7.1643125 0,16 L8.3478125,16 L8.3478125,11.2993125 L13.0485625,16 L15.9573125,16 C15.9715625,15.98575 15.9858125,15.9715 16.000125,15.9571875 C16.000125,14.87925 16.000125,13.9174375 16.000125,13.048625 L11.29925,8.3478125 L16,8.3478125 Z" id="Shape"></path>
            </g>
            <g id="Group" transform="translate(2.062500, 2.062500)" fill="#D80027">
                <path d="M6.0321875,0.0244375 C3.52975,1.449375 1.449375,3.52975 0.0244375,6.0321875 L0.0244375,13.9375 L4.198375,13.9375 L4.198375,4.1985 L4.198375,4.198375 L13.9375,4.198375 C13.9375,2.8819375 13.9375,1.6278125 13.9375,0.0244375 L6.0321875,0.0244375 Z" id="Shape"></path>
                <path d="M13.9375,11.9699375 L8.2529375,6.285375 L6.285375,6.285375 L6.285375,6.2855 L13.937375,13.9375 L13.9375,13.9375 C13.9375,13.9375 13.9375,12.5808125 13.9375,11.9699375 Z" id="Shape"></path>
            </g>
            <path d="M18.0869375,10.4348125 L18.0869375,15.9999375 C18.0869375,19.7274375 22.9565,20.8695625 22.9565,20.8695625 C22.9565,20.8695625 27.8260625,19.7274375 27.8260625,15.9999375 L27.8260625,10.4348125 L22.9565,9.0435 L18.0869375,10.4348125 Z" id="Shape" fill="#F3F3F3"></path>
            <path d="M27.8260625,10.4348125 L27.8260625,8.347875 L18.0869375,8.347875 L18.0869375,10.4348125 L22.26075,10.4348125 L22.26075,14.6088125 L18.0869375,14.6088125 L18.0869375,16 C18.0869375,16.0000625 18.0869375,16.000125 18.0869375,16.000125 L22.26075,16.0001875 L22.26075,20.65625 C22.680625,20.80475 22.9565,20.869625 22.9565,20.869625 C22.9565,20.869625 23.23225,20.804875 23.6520625,20.65625 L23.6520625,16.000125 L27.8260625,16.000125 L27.8260625,16 L27.8260625,14.60875 L23.6520625,14.60875 L23.6520625,10.43475 L27.8260625,10.43475 L27.8260625,10.4348125 Z" id="Shape" fill="#D80027"></path>
        </g>
    </g>
</svg>