<?xml version="1.0" encoding="UTF-8"?>
<svg width="32px" height="32px" viewBox="0 0 32 32" version="1.1" xmlns="http://www.w3.org/2000/svg" xmlns:xlink="http://www.w3.org/1999/xlink">
    <!-- Generator: Sketch 50.2 (55047) - http://www.bohemiancoding.com/sketch -->
    <title>France@1x</title>
    <desc>Created with Sketch.</desc>
    <defs></defs>
    <g id="flags" stroke="none" stroke-width="1" fill="none" fill-rule="evenodd">
        <g id="France" fill-rule="nonzero">
            <path d="M0.484848485,12.2020202 C2.6020202,3.64444444 11.2484848,-1.56767677 19.8060606,0.549494949 C28.3636364,2.66666667 33.5757576,11.3131313 31.4585859,19.8707071 C29.3414141,28.420202 20.6949495,33.640404 12.1373737,31.5232323 C3.58787879,29.3979798 -1.63232323,20.7515152 0.484848485,12.2020202" id="Shape" fill="#F1F2F2"></path>
            <g id="Group" transform="translate(0.000000, 0.969697)">
                <path d="M10.6262626,0.0323232323 C5.75353535,1.76969697 1.81818182,5.83434343 0.484848485,11.2323232 C-1.5030303,19.2727273 2.98181818,27.3939394 10.6262626,30.1010101 L10.6262626,0.0323232323 Z" id="Shape" fill="#223C72"></path>
                <path d="M21.3414141,0.0404040404 L21.3414141,30.0848485 C26.1979798,28.3393939 30.1252525,24.2828283 31.4585859,18.8929293 C33.4464646,10.8686869 28.969697,2.75555556 21.3414141,0.0404040404" id="Shape" fill="#EF3827"></path>
            </g>
        </g>
    </g>
</svg>