<?xml version="1.0" encoding="UTF-8"?>
<svg width="32px" height="32px" viewBox="0 0 32 32" version="1.1" xmlns="http://www.w3.org/2000/svg" xmlns:xlink="http://www.w3.org/1999/xlink">
    <!-- Generator: Sketch 50.2 (55047) - http://www.bohemiancoding.com/sketch -->
    <title>french-guiana@1x</title>
    <desc>Created with Sketch.</desc>
    <defs></defs>
    <g id="flags" stroke="none" stroke-width="1" fill="none" fill-rule="evenodd">
        <g id="french-guiana" fill-rule="nonzero">
            <path d="M15.9890633,31.9783291 C15.9855527,31.9783291 15.9822447,31.9778565 15.9787342,31.9778565 C20.0743966,31.9808945 24.1703291,30.4201857 27.2950549,27.2954599 L22.1521688,22.1525738 C21.2960675,27.6357806 19.2428017,31.9783291 15.9890633,31.9783291 Z" id="Shape" fill="#FFD72E"></path>
            <path d="M27.2950549,4.68307173 C24.1720844,1.56037131 20.0787173,-0.000810126582 15.9855527,0.00020203932 C21.5664473,0.000202531646 22.1521013,22.1526414 22.1521013,22.1526414 L27.2949873,27.2955274 C33.5396456,21.0508692 33.5393755,10.9274599 27.2950549,4.68307173 Z" id="Shape" fill="#008E56"></path>
            <path d="M22.1521688,22.1525738 L4.6828692,4.6835443 C-1.5609789,10.9273924 -1.5609789,21.0513418 4.6828692,27.2949198 C7.8022616,30.4140422 11.8900928,31.9752911 15.9784641,31.977789 C15.9819747,31.977789 15.9852827,31.9782616 15.9887932,31.9782616 C19.2428017,31.9783291 21.2960675,27.6357806 22.1521688,22.1525738 Z" id="Shape" fill="#FFD72E"></path>
            <path d="M22.1521688,22.1525738 C23.6197131,12.7536878 21.5664473,0.000135021097 15.9891308,0.000135021097 L15.9856203,0.000135021097 C11.8949536,0.00121518987 7.80428692,1.56212658 4.6828692,4.6835443 L22.1521688,22.1525738 Z" id="Shape" fill="#008E56"></path>
            <polygon id="Shape" fill="#D32027" points="15.9618565 11.0950886 16.9956456 14.2768608 20.3412658 14.2768608 17.6346329 16.2429705 18.6684895 19.4247426 15.9618565 17.4583629 13.2552236 19.4247426 14.2890127 16.2429705 11.5823797 14.2768608 14.928 14.2768608"></polygon>
        </g>
    </g>
</svg>