<?xml version="1.0" encoding="UTF-8"?>
<svg width="32px" height="32px" viewBox="0 0 32 32" version="1.1" xmlns="http://www.w3.org/2000/svg" xmlns:xlink="http://www.w3.org/1999/xlink">
    <!-- Generator: Sketch 50.2 (55047) - http://www.bohemiancoding.com/sketch -->
    <title>french-polynesia@1x</title>
    <desc>Created with Sketch.</desc>
    <defs></defs>
    <g id="flags" stroke="none" stroke-width="1" fill="none" fill-rule="evenodd">
        <g id="french-polynesia" fill-rule="nonzero">
            <circle id="Oval" fill="#F0F0F0" cx="16" cy="16" r="16"></circle>
            <g id="Group" transform="translate(1.937500, 0.000000)" fill="#D80027">
                <path d="M0.0079375,8.3478125 L28.117,8.3478125 C25.403375,3.3743125 20.1271875,0 14.0625,0 C7.9978125,0 2.721625,3.3743125 0.0079375,8.3478125 Z" id="Shape"></path>
                <path d="M14.0625,32 C20.1271875,32 25.403375,28.6256875 28.1170625,23.6521875 L0.0079375,23.6521875 C2.721625,28.6256875 7.9978125,32 14.0625,32 Z" id="Shape"></path>
            </g>
            <path d="M21.5651875,16 C21.5651875,19.073625 19.0735625,20.8695625 16,20.8695625 C12.9264375,20.8695625 10.4348125,19.073625 10.4348125,16 C10.4348125,12.926375 12.9264375,10.4348125 16,10.4348125 C19.0735625,10.4348125 21.5651875,12.926375 21.5651875,16 Z" id="Shape" fill="#FFDA44"></path>
            <path d="M21.5651875,16 C21.5651875,19.073625 19.0735625,21.5651875 16,21.5651875 C12.9264375,21.5651875 10.4348125,19.073625 10.4348125,16" id="Shape" fill="#0052B4"></path>
            <g id="Group" transform="translate(12.500000, 12.500000)" fill="#D80027">
                <rect id="Rectangle-path" x="0.02175" y="2.1086875" width="1.3913125" height="2.782625"></rect>
                <rect id="Rectangle-path" x="5.5869375" y="2.1086875" width="1.3913125" height="2.782625"></rect>
                <rect id="Rectangle-path" x="2.804375" y="0.02175" width="1.3913125" height="4.8695625"></rect>
            </g>
        </g>
    </g>
</svg>