<?xml version="1.0" encoding="UTF-8"?>
<svg width="32px" height="32px" viewBox="0 0 32 32" version="1.1" xmlns="http://www.w3.org/2000/svg" xmlns:xlink="http://www.w3.org/1999/xlink">
    <!-- Generator: Sketch 50.2 (55047) - http://www.bohemiancoding.com/sketch -->
    <title>georgia@1x</title>
    <desc>Created with Sketch.</desc>
    <defs></defs>
    <g id="flags" stroke="none" stroke-width="1" fill="none" fill-rule="evenodd">
        <g id="georgia" fill-rule="nonzero">
            <circle id="Oval" fill="#FFFFFF" cx="15.9898734" cy="15.9898734" r="15.9885232"></circle>
            <g id="Group" transform="translate(0.135021, 0.135021)" fill="#F3F4F5">
                <path d="M13.3721519,0.0578565401 C6.52941772,1.12425316 1.12472574,6.52921519 0.0578565401,13.3716118 L13.3721519,13.3716118 L13.3721519,0.0578565401 Z" id="Shape"></path>
                <path d="M0.0578565401,18.3365401 C1.12452321,25.1792068 6.52968776,30.5844388 13.3721519,31.6508354 L13.3721519,18.3365401 L0.0578565401,18.3365401 Z" id="Shape"></path>
            </g>
            <g id="Group" transform="translate(5.468354, 5.535865)" fill="#DA1E37">
                <rect id="Rectangle-path" x="2.04894515" y="0.0202531646" width="1.36580591" height="5.4278481"></rect>
                <rect id="Rectangle-path" x="0.0182278481" y="2.05232068" width="5.4278481" height="1.36634599"></rect>
                <rect id="Rectangle-path" x="2.04894515" y="15.7988186" width="1.36580591" height="5.4278481"></rect>
                <rect id="Rectangle-path" x="0.0182278481" y="17.8308861" width="5.4278481" height="1.36634599"></rect>
            </g>
            <g id="Group" transform="translate(18.430380, 0.135021)" fill="#F3F4F5">
                <path d="M3.50892827,23.2309873 L8.13650633,23.2309873 L8.13650633,24.5973333 L3.20675105,24.5973333 C2.51753586,27.3733671 1.46275105,29.6397637 0.0416540084,30.8601519 L0.0416540084,31.6506329 C6.8838481,30.5834937 12.2885401,25.1788017 13.3549367,18.3368776 L3.3817384,18.3368776 C3.28324051,20.0328101 3.81090295,21.6899241 3.50892827,23.2309873 Z" id="Shape"></path>
                <path d="M3.28904641,7.4521519 L8.13657384,7.4521519 L8.13657384,8.81849789 L3.57360338,8.81849789 C3.83891983,10.262346 3.47996624,11.8003038 3.57110549,13.3716118 L13.3549367,13.3716118 C12.28827,6.52941772 6.88357806,1.12472574 0.0416540084,0.0578565401 L0.0416540084,0.848337553 C1.52033755,2.11895359 2.6028692,4.52111392 3.28904641,7.4521519 Z" id="Shape"></path>
            </g>
            <g id="Group" transform="translate(14.582278, 0.000000)" fill="#CF2028">
                <path d="M0.510734177,32.1100443 C0.344162477,32.0560443 0.177305877,31.9905443 0.0107341772,31.9155443 C0.176546143,31.9925443 0.34349771,32.0540443 0.510734177,32.1100443 Z" id="Shape"></path>
                <path d="M0.0107341772,0.233090717 C0.177305877,0.160090717 0.344162477,0.0910907173 0.510734177,0.0365907173 C0.34349771,0.0945907173 0.176546143,0.156590717 0.0107341772,0.233090717 Z" id="Shape"></path>
                <path d="M0.67443038,0.1385 C0.919088608,0.058 1.16320675,0 1.40658228,0 C1.16091139,0 0.917535865,0.054 0.67443038,0.1385 Z" id="Shape"></path>
                <path d="M17.203038,13.5066329 L7.41913924,13.5066329 C7.51432911,15.1501772 7.51432911,16.8284895 7.41913924,18.4714937 L17.203038,18.4714937 C17.3292827,17.6628523 17.3959156,16.8340253 17.3959156,15.9893333 C17.3959156,15.1446414 17.3292827,14.3158143 17.203038,13.5066329 Z" id="Shape"></path>
                <path d="M1.40658228,31.9781941 C2.25134177,31.9781941 3.08064135,31.9115612 3.88975527,31.7853165 L3.88975527,30.9948354 C3.15861603,31.6236962 2.3315443,31.9781941 1.40658228,31.9781941 Z" id="Shape"></path>
                <path d="M3.88975527,0.192877637 C3.08064135,0.0666329114 2.25127426,0 1.40658228,0 C2.33161181,0 3.1584135,0.354970464 3.88975527,0.98335865 L3.88975527,0.192877637 Z" id="Shape"></path>
                <path d="M1.40658228,32.0945338 C1.16293671,32.0945338 0.918818565,32.0405338 0.67443038,31.9600338 C0.917535865,32.0440338 1.16091139,32.0945338 1.40658228,32.0945338 Z" id="Shape"></path>
                <path d="M11.9846751,8.95351899 L11.9846751,7.587173 L6.90362869,7.587173 C7.00766245,8.03152743 7.10231224,8.48742616 7.18811814,8.95351899 L11.9846751,8.95351899 Z" id="Shape"></path>
                <path d="M11.9846751,24.7322869 L11.9846751,23.3659409 L7.12479325,23.3659409 C7.03365401,23.833519 6.93238819,24.2889451 6.82261603,24.7322869 L11.9846751,24.7322869 Z" id="Shape"></path>
            </g>
            <g id="Group" transform="translate(14.919831, 0.000000)" fill="#FFFFFF">
                <path d="M0.0424,0.149902954 C0.208628647,0.103402954 0.375295313,0.0509029536 0.5424,0.0189029536 C0.375733333,0.0509029536 0.209504687,0.101402954 0.0424,0.149902954 Z" id="Shape"></path>
                <path d="M0.5424,32.0763734 C0.375295313,32.0428734 0.209066667,31.9923734 0.0424,31.9418734 C0.209504687,31.9883734 0.375733333,32.0423734 0.5424,32.0763734 Z" id="Shape"></path>
            </g>
            <g id="Group" transform="translate(18.430380, 0.945148)" fill="#F3F4F5">
                <path d="M0.0416540084,30.0499578 C1.46275105,28.8295696 2.51753586,26.5632405 3.20675105,23.7871392 L2.70865823,23.7871392 L2.70865823,22.4207932 L3.50892827,22.4207932 C3.81063291,20.8797975 4.00978903,19.222616 4.10855696,17.526346 L0.0416540084,17.526346 L0.0416540084,30.0499578 Z" id="Shape"></path>
                <path d="M2.70865823,8.00837131 L2.70865823,6.64202532 L3.28904641,6.64202532 C2.60259916,3.71118987 1.52033755,1.308827 0.0416540084,0.0381434599 L0.0416540084,12.5614852 L4.10855696,12.5614852 C4.01741772,10.9899072 3.83891983,9.4521519 3.57360338,8.00837131 L2.70865823,8.00837131 Z" id="Shape"></path>
            </g>
            <g id="Group" fill="#DA1E37">
                <path d="M18.4720338,18.4715612 L22.5389367,18.4715612 C22.6341266,16.828557 22.6341266,15.1501772 22.5389367,13.5067004 L18.4720338,13.5067004 L18.4720338,0.98335865 C17.7408945,0.355240506 16.9138228,0 15.9888608,0 C15.7452152,0 15.501097,0.00783122363 15.2567089,0.0187004219 C15.1536878,0.0232236287 15.0512068,0.0300421941 14.9484557,0.0363881857 C14.8300422,0.0436793249 14.7114262,0.0530632911 14.5930127,0.0629198312 C14.2277131,0.0949873418 13.8651814,0.136911392 13.507173,0.192675105 L13.507173,13.5064304 L0.192877637,13.5064304 C0.0666329114,14.3155443 0,15.1443713 0,15.9890633 C0,16.8337553 0.0666329114,17.6626498 0.192877637,18.4712911 L13.507173,18.4712911 L13.507173,31.7855865 C13.8651814,31.8413502 14.2277131,31.8832743 14.5930127,31.9153418 C14.7114262,31.9251983 14.8300422,31.9340422 14.9484557,31.9416034 C15.0509367,31.9484219 15.1536878,31.9555105 15.2567089,31.9597637 C15.5013671,31.9706329 15.7454852,31.9779241 15.9888608,31.9779241 C16.9138903,31.9779241 17.740692,31.6234937 18.4720338,30.9945654 L18.4720338,18.4715612 Z" id="Shape"></path>
                <path d="M21.139038,8.95351899 L22.0039831,8.95351899 C21.9181772,8.48749367 21.8234599,8.03152743 21.7194937,7.587173 L21.1391055,7.587173 L21.1391055,8.95351899 L21.139038,8.95351899 Z" id="Shape"></path>
                <path d="M21.139038,24.7322869 L21.6371308,24.7322869 C21.747173,24.2889451 21.8481688,23.8332489 21.939308,23.3659409 L21.139038,23.3659409 L21.139038,24.7322869 Z" id="Shape"></path>
            </g>
            <g id="Group" transform="translate(23.156118, 5.535865)" fill="#CF2028">
                <rect id="Rectangle-path" x="0.0141772152" y="15.7988186" width="1.36580591" height="5.4278481"></rect>
                <rect id="Rectangle-path" x="0.0141772152" y="0.0202531646" width="1.36580591" height="5.4278481"></rect>
            </g>
        </g>
    </g>
</svg>