<?xml version="1.0" encoding="UTF-8"?>
<svg width="32px" height="32px" viewBox="0 0 32 32" version="1.1" xmlns="http://www.w3.org/2000/svg" xmlns:xlink="http://www.w3.org/1999/xlink">
    <!-- Generator: Sketch 50.2 (55047) - http://www.bohemiancoding.com/sketch -->
    <title>Germany@1x</title>
    <desc>Created with Sketch.</desc>
    <defs></defs>
    <g id="flags" stroke="none" stroke-width="1" fill="none" fill-rule="evenodd">
        <g id="Germany" fill-rule="nonzero">
            <path d="M0.501010101,12.1292929 C2.61818182,3.57171717 11.2646465,-1.64040404 19.8222222,0.476767677 C28.379798,2.59393939 33.5919192,11.240404 31.4747475,19.7979798 C29.3575758,28.3474747 20.7111111,33.5676768 12.1535354,31.4505051 C3.6040404,29.3252525 -1.61616162,20.6787879 0.501010101,12.1292929" id="Shape" fill="#FFD203"></path>
            <path d="M0.961616162,10.6020202 L31.0141414,10.6020202 C29.2767677,5.73737374 25.2121212,1.81010101 19.8222222,0.476767677 C11.789899,-1.51111111 3.66868687,2.96565657 0.961616162,10.6020202" id="Shape" fill="#191407"></path>
            <path d="M31.5959596,19.240404 C31.6040404,19.2080808 31.6121212,19.1757576 31.620202,19.1353535 C31.6363636,19.0787879 31.6444444,19.0141414 31.6525253,18.9575758 C31.6606061,18.9252525 31.6686869,18.8848485 31.6686869,18.8525253 C31.6767677,18.7878788 31.6929293,18.7313131 31.7010101,18.6666667 C31.7090909,18.6343434 31.7090909,18.6020202 31.7171717,18.5777778 C31.7333333,18.5050505 31.7414141,18.4242424 31.7575758,18.3515152 C31.7575758,18.3353535 31.7656566,18.3191919 31.7656566,18.3030303 C31.7818182,18.2141414 31.789899,18.1171717 31.8060606,18.0282828 C31.8060606,18.0040404 31.8141414,17.979798 31.8141414,17.9555556 C31.8222222,17.8909091 31.830303,17.8181818 31.8383838,17.7535354 C31.8383838,17.7212121 31.8464646,17.6888889 31.8464646,17.6565657 C31.8545455,17.6 31.8626263,17.5353535 31.8626263,17.4787879 C31.8626263,17.4464646 31.8707071,17.4141414 31.8707071,17.3818182 C31.8787879,17.3171717 31.8787879,17.2606061 31.8868687,17.1959596 C31.8868687,17.1636364 31.8949495,17.1313131 31.8949495,17.0989899 C31.9030303,17.0262626 31.9030303,16.9616162 31.9111111,16.8888889 C31.9111111,16.8646465 31.9111111,16.8484848 31.9111111,16.8242424 C31.9191919,16.7353535 31.9191919,16.6383838 31.9272727,16.5494949 C31.9272727,16.5333333 31.9272727,16.5171717 31.9272727,16.5010101 C31.9272727,16.4282828 31.9353535,16.3474747 31.9353535,16.2747475 C31.9353535,16.2424242 31.9353535,16.2181818 31.9353535,16.1858586 C31.9353535,16.1212121 31.9353535,16.0565657 31.9353535,16 C31.9353535,15.9676768 31.9353535,15.9353535 31.9353535,15.9030303 C31.9353535,15.8383838 31.9353535,15.7818182 31.9353535,15.7171717 C31.9353535,15.6848485 31.9353535,15.6525253 31.9353535,15.6282828 C31.9353535,15.5636364 31.9353535,15.4909091 31.9272727,15.4262626 C31.9272727,15.4020202 31.9272727,15.3777778 31.9272727,15.3535354 C31.9191919,15.1676768 31.9111111,14.989899 31.8949495,14.8040404 C31.8949495,14.779798 31.8949495,14.7555556 31.8868687,14.7313131 C31.8787879,14.6666667 31.8787879,14.6020202 31.8707071,14.5292929 C31.8707071,14.4969697 31.8626263,14.4727273 31.8626263,14.440404 C31.8545455,14.3757576 31.8464646,14.3191919 31.8464646,14.2545455 C31.8464646,14.2222222 31.8383838,14.1979798 31.8383838,14.1656566 C31.830303,14.1010101 31.8222222,14.0363636 31.8141414,13.9636364 C31.8141414,13.9393939 31.8060606,13.9151515 31.8060606,13.8909091 C31.7818182,13.7131313 31.7575758,13.5272727 31.7252525,13.3494949 C31.7252525,13.3333333 31.7171717,13.3171717 31.7171717,13.3010101 C31.7090909,13.2282828 31.6929293,13.1555556 31.6767677,13.0828283 C31.6686869,13.0585859 31.6686869,13.0343434 31.6606061,13.010101 C31.6525253,12.9454545 31.6363636,12.8808081 31.620202,12.8161616 C31.6121212,12.7919192 31.6121212,12.7676768 31.6040404,12.7434343 C31.5878788,12.6787879 31.579798,12.6141414 31.5636364,12.5414141 C31.5555556,12.5171717 31.5555556,12.5010101 31.5474747,12.4767677 C31.5313131,12.3959596 31.5070707,12.3151515 31.4909091,12.2343434 L31.4828283,12.2181818 C31.4585859,12.1373737 31.4424242,12.0484848 31.4181818,11.9676768 C31.2969697,11.4989899 31.159596,11.0383838 30.9979798,10.5858586 L0.961616162,10.5858586 C0.783838384,11.0787879 0.63030303,11.5878788 0.501010101,12.1131313 C-0.0323232323,14.2545455 -0.096969697,16.4040404 0.226262626,18.4484848 C0.226262626,18.4565657 0.226262626,18.4646465 0.234343434,18.4727273 C0.242424242,18.5454545 0.258585859,18.6181818 0.274747475,18.6989899 C0.274747475,18.7151515 0.282828283,18.7313131 0.282828283,18.7474747 C0.298989899,18.820202 0.307070707,18.8848485 0.323232323,18.9575758 C0.323232323,18.9818182 0.331313131,18.9979798 0.331313131,19.0222222 C0.347474747,19.0868687 0.355555556,19.1515152 0.371717172,19.2161616 C0.37979798,19.240404 0.37979798,19.2646465 0.387878788,19.2888889 C0.404040404,19.3535354 0.412121212,19.410101 0.428282828,19.4747475 C0.436363636,19.5070707 0.444444444,19.5313131 0.452525253,19.5636364 C0.468686869,19.620202 0.476767677,19.6767677 0.492929293,19.7414141 C0.501010101,19.7818182 0.517171717,19.830303 0.525252525,19.8707071 C0.541414141,19.9353535 0.557575758,20 0.573737374,20.0646465 C0.58989899,20.1292929 0.606060606,20.1939394 0.63030303,20.2585859 C0.638383838,20.2909091 0.646464646,20.3151515 0.654545455,20.3393939 C0.670707071,20.4040404 0.686868687,20.4606061 0.711111111,20.5252525 C0.719191919,20.5575758 0.727272727,20.5818182 0.735353535,20.6141414 C0.751515152,20.6707071 0.775757576,20.7353535 0.791919192,20.7919192 C0.8,20.8161616 0.808080808,20.8484848 0.816161616,20.8727273 C0.832323232,20.9373737 0.856565657,20.9939394 0.872727273,21.0505051 C0.880808081,21.0747475 0.888888889,21.1070707 0.896969697,21.1313131 C0.921212121,21.1959596 0.937373737,21.2525253 0.961616162,21.3171717 C0.96969697,21.3333333 0.96969697,21.3494949 0.977777778,21.3575758 C0.993939394,21.3979798 1.0020202,21.430303 1.01818182,21.4707071 L30.9494949,21.4707071 C30.9656566,21.430303 30.9737374,21.3979798 30.989899,21.3575758 C31.0222222,21.2606061 31.0545455,21.1717172 31.0868687,21.0747475 C31.0868687,21.0666667 31.0949495,21.0585859 31.0949495,21.0505051 C31.1353535,20.9292929 31.1757576,20.8 31.2161616,20.6787879 C31.2242424,20.6626263 31.2242424,20.6464646 31.2323232,20.630303 C31.2646465,20.5171717 31.3050505,20.3959596 31.3373737,20.2747475 C31.3454545,20.2505051 31.3535354,20.2262626 31.3616162,20.2020202 C31.4020202,20.0646465 31.4343434,19.9191919 31.4747475,19.7818182 C31.4989899,19.6929293 31.5151515,19.5959596 31.5393939,19.5070707 C31.5474747,19.4747475 31.5555556,19.4505051 31.5555556,19.4181818 C31.5717172,19.3616162 31.5878788,19.3050505 31.5959596,19.240404" id="Shape" fill="#EC463A"></path>
        </g>
    </g>
</svg>