<?xml version="1.0" encoding="UTF-8"?>
<svg width="32px" height="32px" viewBox="0 0 32 32" version="1.1" xmlns="http://www.w3.org/2000/svg" xmlns:xlink="http://www.w3.org/1999/xlink">
    <!-- Generator: Sketch 50.2 (55047) - http://www.bohemiancoding.com/sketch -->
    <title>ghana@1x</title>
    <desc>Created with Sketch.</desc>
    <defs></defs>
    <g id="flags" stroke="none" stroke-width="1" fill="none" fill-rule="evenodd">
        <g id="ghana" fill-rule="nonzero">
            <path d="M0,16 C0,17.957125 0.3520625,19.831875 0.9951875,21.5651875 L16,22.260875 L31.0048125,21.56525 C31.648,19.831875 32,17.957125 32,16 C32,14.042875 31.648,12.168125 31.0048125,10.4348125 L16,9.739125 L0.9951875,10.43475 C0.3520625,12.168125 0,14.042875 0,16 Z" id="Shape" fill="#FFDA44"></path>
            <path d="M16,0 C9.1205625,0 3.255875,4.342 0.9951875,10.4348125 L31.004875,10.4348125 C28.744125,4.342 22.8794375,0 16,0 Z" id="Shape" fill="#D80027"></path>
            <path d="M31.0048125,21.5651875 L0.9951875,21.5651875 C3.255875,27.6579375 9.1205625,32 16,32 C22.8794375,32 28.744125,27.6579375 31.0048125,21.5651875 Z" id="Shape" fill="#496E2D"></path>
            <polygon id="Shape" fill="#000000" points="15.999875 10.4348125 17.381125 14.6860625 21.851625 14.6860625 18.2351875 17.31375 19.6164375 21.5651875 15.999875 18.9376875 12.3833125 21.5651875 13.7648125 17.31375 10.148375 14.6860625 14.618625 14.6860625"></polygon>
        </g>
    </g>
</svg>