<?xml version="1.0" encoding="UTF-8"?>
<svg width="32px" height="32px" viewBox="0 0 32 32" version="1.1" xmlns="http://www.w3.org/2000/svg" xmlns:xlink="http://www.w3.org/1999/xlink">
    <!-- Generator: Sketch 50.2 (55047) - http://www.bohemiancoding.com/sketch -->
    <title>gibraltar@1x</title>
    <desc>Created with Sketch.</desc>
    <defs></defs>
    <g id="flags" stroke="none" stroke-width="1" fill="none" fill-rule="evenodd">
        <g id="gibraltar" fill-rule="nonzero">
            <circle id="Oval" fill="#F9F9F9" cx="16" cy="16" r="16"></circle>
            <g id="Group" transform="translate(0.937500, 6.937500)" fill="#D80027">
                <path d="M15.0625,25.0625 C21.941875,25.0625 27.806625,20.7205 30.06725,14.6276875 L0.057625,14.6276875 C2.318375,20.7205 8.183,25.0625 15.0625,25.0625 Z" id="Shape"></path>
                <polygon id="Shape" points="21.323375 6.279875 21.323375 4.1929375 22.019 4.1929375 22.019 2.801625 20.6276875 2.801625 20.6276875 3.4973125 19.2364375 3.4973125 19.2364375 2.801625 17.845125 2.801625 17.845125 4.1929375 18.54075 4.1929375 18.54075 6.279875 17.1494375 6.279875 17.1494375 1.4104375 17.845125 1.4104375 17.845125 0.0191875 16.4538125 0.0191875 16.4538125 0.7146875 15.758125 0.7146875 15.758125 0.0191875 14.366875 0.0191875 14.366875 0.7146875 13.6711875 0.7146875 13.6711875 0.0191875 12.279875 0.0191875 12.279875 1.4104375 12.9755625 1.4104375 12.9755625 6.279875 11.58425 6.279875 11.58425 4.1929375 12.279875 4.1929375 12.279875 2.801625 10.8885625 2.801625 10.8885625 3.4973125 9.4973125 3.4973125 9.4973125 2.801625 8.106 2.801625 8.106 4.1929375 8.801625 4.1929375 8.801625 6.279875 7.4103125 6.279875 7.4103125 11.845125 22.7146875 11.845125 22.7146875 6.279875"></polygon>
            </g>
            <path d="M16,18.0869375 C14.8474375,18.0869375 13.9130625,19.0213125 13.9130625,20.173875 C13.9130625,21.082375 14.4939375,21.855125 15.304375,22.141625 L15.304375,25.0435 L13.2174375,25.0435 L13.2174375,27.826125 L16.6956875,27.826125 L16.6956875,22.1416875 C17.506125,21.8551875 18.087,21.0825 18.087,20.1739375 C18.0869375,19.021375 17.1525625,18.0869375 16,18.0869375 Z M16,20.8695625 C15.6158125,20.8695625 15.304375,20.5580625 15.304375,20.1739375 C15.304375,19.78975 15.6158125,19.4783125 16,19.4783125 C16.3841875,19.4783125 16.695625,19.78975 16.695625,20.1739375 C16.695625,20.5580625 16.3841875,20.8695625 16,20.8695625 Z" id="Shape" fill="#FFDA44"></path>
        </g>
    </g>
</svg>