<?xml version="1.0" encoding="UTF-8"?>
<svg width="32px" height="32px" viewBox="0 0 32 32" version="1.1" xmlns="http://www.w3.org/2000/svg" xmlns:xlink="http://www.w3.org/1999/xlink">
    <!-- Generator: Sketch 50.2 (55047) - http://www.bohemiancoding.com/sketch -->
    <title>greece@1x</title>
    <desc>Created with Sketch.</desc>
    <defs></defs>
    <g id="flags" stroke="none" stroke-width="1" fill="none" fill-rule="evenodd">
        <g id="greece" fill-rule="nonzero">
            <circle id="Oval" fill="#F0F0F0" cx="16" cy="16" r="16"></circle>
            <g id="Group" fill="#338AF3">
                <path d="M16,11.8260625 L31.4488125,11.8260625 C31.047625,10.3376875 30.437875,8.935125 29.651625,7.652125 L16,7.652125 L16,11.8260625 Z" id="Shape"></path>
                <path d="M6.0401875,28.52175 L25.95975,28.52175 C27.4199375,27.35875 28.6721875,25.946125 29.6515625,24.3478125 L2.348375,24.3478125 C3.3278125,25.9460625 4.5800625,27.35875 6.0401875,28.52175 Z" id="Shape"></path>
                <path d="M5.5651875,3.8711875 C4.3073125,4.954375 3.219875,6.2299375 2.348375,7.6521875 L5.5651875,7.6521875 L5.5651875,3.8711875 Z" id="Shape"></path>
                <path d="M16,16 C16,14.37025 16,13.0063125 16,11.8260625 L9.739125,11.8260625 L9.739125,16 L5.5651875,16 L5.5651875,11.8260625 L0.5511875,11.8260625 C0.1925,13.1569375 0,14.5558125 0,16 C0,17.4441875 0.1925,18.8430625 0.5511875,20.1739375 L31.448875,20.1739375 C31.8075,18.8430625 32,17.4441875 32,16 L16,16 Z" id="Shape"></path>
                <path d="M16,0 C13.7781875,0 11.66225,0.4533125 9.739125,1.27175 L9.739125,7.6521875 L16,7.6521875 C16,6.1951875 16,4.956 16,3.47825 L25.9598125,3.47825 C23.226625,1.3015 19.7655625,0 16,0 Z" id="Shape"></path>
            </g>
        </g>
    </g>
</svg>