<?xml version="1.0" encoding="UTF-8"?>
<svg width="32px" height="32px" viewBox="0 0 32 32" version="1.1" xmlns="http://www.w3.org/2000/svg" xmlns:xlink="http://www.w3.org/1999/xlink">
    <!-- Generator: Sketch 50.2 (55047) - http://www.bohemiancoding.com/sketch -->
    <title>grenada@1x</title>
    <desc>Created with Sketch.</desc>
    <defs></defs>
    <g id="flags" stroke="none" stroke-width="1" fill="none" fill-rule="evenodd">
        <g id="grenada" fill-rule="nonzero">
            <circle id="Oval" fill="#FFDA44" cx="16.0311891" cy="15.9688109" r="15.9688109"></circle>
            <path d="M7.03083041,2.77720078 C9.59363743,1.02524756 12.69246,0 16.0311891,0 C19.3699181,0 22.4687407,1.02524756 25.0315478,2.77720078 L16.0311891,3.47146979 L7.03083041,2.77720078 Z" id="Shape" fill="#A2001D"></path>
            <polygon id="Shape" fill="#0052B4" points="16.0311891 15.9688109 15.0120546 14.9496764 14.7414581 15.4344172"></polygon>
            <g id="Group" transform="translate(0.000000, 4.615984)" fill="#496E2D">
                <path d="M4.73949318,0.0611306043 C-1.49670175,6.29732554 -1.49670175,16.4082651 4.73949318,22.6445224 C7.31652242,20.0674932 9.79499415,17.5890214 16.0311891,11.3528265 L4.73949318,0.0611306043 Z" id="Shape"></path>
                <path d="M27.322885,0.0611306043 C33.5590799,6.29732554 33.5590799,16.4082651 27.322885,22.6445224 C24.7458558,20.0674932 22.267384,17.5890214 16.0311891,11.3528265 L27.322885,0.0611306043 Z" id="Shape"></path>
            </g>
            <circle id="Oval" fill="#A2001D" cx="16.0311891" cy="15.9688109" r="5.55433918"></circle>
            <g id="Group" transform="translate(10.729045, 0.000000)" fill="#FFDA44">
                <polygon id="Shape" points="5.30208187 10.4144717 6.54708772 14.2463002 10.5765926 14.2463002 7.31683431 16.6149864 8.56184016 20.4470019 5.30208187 18.0787524 2.04219883 20.4470019 3.28745419 16.6149864 0.0276959064 14.2463002 4.05695127 14.2463002"></polygon>
                <path d="M5.33977973,0 C5.32527973,0 5.31127973,0.001 5.29677973,0.001 L5.38227973,0.001 C5.36827973,0.001 5.35427973,0 5.33977973,0 Z" id="Shape"></path>
            </g>
            <g id="Group" transform="translate(4.678363, 0.000000)" fill="#A2001D">
                <path d="M11.358191,0 L11.3475244,0 C6.94031969,0.00143469786 2.95054971,1.78813255 0.0620038986,4.67636647 L22.6437115,4.67636647 C19.7551033,1.78813255 15.7653333,0.00143469786 11.358191,0 Z" id="Shape"></path>
                <path d="M0.0620662768,27.2613177 C2.95179727,30.1506121 6.94362573,31.9376218 11.3528265,31.9376218 C15.7620273,31.9376218 19.7538558,30.1506121 22.6435867,27.2613177 L0.0620662768,27.2613177 Z" id="Shape"></path>
            </g>
            <g id="Group" transform="translate(2.120858, 1.684211)" fill="#FFDA44">
                <polygon id="Shape" points="13.9103314 0.0515243665 14.1688889 0.847095517 15.0053801 0.847095517 14.3286394 1.33882261 14.5871969 2.13439376 13.9103314 1.64272904 13.2335906 2.13439376 13.4921481 1.33882261 12.8152827 0.847095517 13.6517739 0.847095517"></polygon>
                <polygon id="Shape" points="10.0380819 0.0515243665 10.2966394 0.847095517 11.1331306 0.847095517 10.4563899 1.33882261 10.7149474 2.13439376 10.0380819 1.64272904 9.36140351 2.13439376 9.61989864 1.33882261 8.94303314 0.847095517 9.77952437 0.847095517"></polygon>
                <polygon id="Shape" points="17.7825809 0.0515243665 18.0411384 0.847095517 18.8776296 0.847095517 18.2008889 1.33882261 18.4594464 2.13439376 17.7825809 1.64272904 17.1058402 2.13439376 17.3643977 1.33882261 16.6875322 0.847095517 17.5240234 0.847095517"></polygon>
                <polygon id="Shape" points="13.9103314 26.434807 14.1688889 27.2303782 15.0053801 27.2303782 14.3286394 27.7221053 14.5871969 28.5176764 13.9103314 28.0259493 13.2335906 28.5176764 13.4921481 27.7221053 12.8152827 27.2303782 13.6517739 27.2303782"></polygon>
                <polygon id="Shape" points="10.0380819 26.434807 10.2966394 27.2303782 11.1331306 27.2303782 10.4563899 27.7221053 10.7149474 28.5176764 10.0380819 28.0259493 9.36140351 28.5176764 9.61989864 27.7221053 8.94303314 27.2303782 9.77952437 27.2303782"></polygon>
                <polygon id="Shape" points="17.7825809 26.434807 18.0411384 27.2303782 18.8776296 27.2303782 18.2008889 27.7221053 18.4594464 28.5176764 17.7825809 28.0259493 17.1058402 28.5176764 17.3643977 27.7221053 16.6875322 27.2303782 17.5240234 27.2303782"></polygon>
                <path d="M2.80720468,14.0208655 C3.21734113,14.6689123 3.02459259,15.5266745 2.37654581,15.9368733 C1.7285614,16.3470721 0.870736842,16.1543236 0.460538012,15.5062768 C-0.282074074,14.3330682 0.148522417,12.4169981 0.148522417,12.4169981 C0.148522417,12.4169981 2.06453021,12.8475945 2.80720468,14.0208655 Z" id="Shape"></path>
            </g>
            <circle id="Oval" fill="#A2001D" cx="4.12606628" cy="17.0345419" r="1"></circle>
        </g>
    </g>
</svg>