<?xml version="1.0" encoding="UTF-8"?>
<svg width="32px" height="32px" viewBox="0 0 32 32" version="1.1" xmlns="http://www.w3.org/2000/svg" xmlns:xlink="http://www.w3.org/1999/xlink">
    <!-- Generator: Sketch 50.2 (55047) - http://www.bohemiancoding.com/sketch -->
    <title>guadeloupe-flag-30399@1x</title>
    <desc>Created with Sketch.</desc>
    <defs>
        <circle id="path-1" cx="16" cy="16" r="16"></circle>
    </defs>
    <g id="flags" stroke="none" stroke-width="1" fill="none" fill-rule="evenodd">
        <g id="guadeloupe-flag-30399">
            <mask id="mask-2" fill="white">
                <use xlink:href="#path-1"></use>
            </mask>
            <use id="Mask" fill="#D8D8D8" xlink:href="#path-1"></use>
            <g mask="url(#mask-2)">
                <g transform="translate(-7.000000, -1.000000)">
                    <polygon id="Shape" fill="#050000" fill-rule="nonzero" points="0.178026389 11.923827 46.086146 11.923827 46.086146 33.8934498 0.178026389 33.8934498"></polygon>
                    <polygon id="Shape" fill="#050E8C" fill-rule="nonzero" points="0.163550812 0.136012364 46.1010128 0.136012364 46.1010128 12.0363062 0.163550812 12.0363062"></polygon>
                    <g id="Group" stroke-linecap="round" stroke-width="1" fill="none" fill-rule="evenodd" transform="translate(9.328058, 15.798978)">
                        <path d="M2.13319149,5.70220375 C1.65029406,4.58650841 -1.1865083,2.16214264 0.725441599,2.07118125 C8.91001124,4.79258977 16.9136362,8.11757119 24.817497,11.48461 L24.8038889,11.504111 C18.7635631,8.9308815 7.06935062,3.40238467 1.16957481,2.64975246 C0.560289933,3.02543282 2.21475061,4.68709216 3.46688804,5.09984172 L2.13396124,5.70215289 L2.13319149,5.70220375 Z" id="Shape" stroke="#00BB00" stroke-width="0.5" fill="#00F500" fill-rule="nonzero"></path>
                        <path d="M4.53437677,0.0850929205 C3.39422945,0.506997313 -0.3184627,0.131847079 0.937000205,1.57666423 C8.55995657,5.61212262 16.4943335,9.09966086 24.3893915,12.4861635 L24.3940834,12.4628519 C18.3600173,9.87495126 6.28298445,5.24257092 1.6615586,1.49760215 C1.5120787,0.797590615 3.85646691,0.84524265 5.02008814,1.46502329 L4.53438362,0.0853442869 L4.53437677,0.0850929205 Z" id="Shape" stroke="#00BB00" stroke-width="0.5" fill="#00F500" fill-rule="nonzero"></path>
                    </g>
                    <g id="Group" stroke-linecap="round" stroke-width="1" fill="none" fill-rule="evenodd" transform="translate(9.474770, 16.305623)">
                        <path d="M1.21673095,6.84851298 C1.54401593,4.62876145 4.36487559,6.03942602 6.46667072,6.32725526 C7.75587737,6.88340107 17.2323923,9.71229076 21.2708827,10.8707282 L26.4611596,12.6053523 C25.1487725,12.3714739 8.23855963,7.01063944 6.91913032,6.81864243 C4.61692669,6.5032998 1.38320009,4.7317141 3.46357529,7.42967806 L1.21712219,6.84854232 L1.21673095,6.84851298 Z" id="Shape" stroke="#00BB00" stroke-width="0.5" fill="#00F500" fill-rule="nonzero"></path>
                        <path d="M1.71574714,7.94591823 C1.0857172,4.01521215 -2.98998917,2.51180608 5.2196193,4.35665972 C7.3665039,4.92445446 6.30069062,4.62621844 8.41725476,5.25093741 L26.5420468,14.1711207 C24.4275366,13.5470179 7.35310421,4.96269737 5.20915385,4.39550904 C0.00919394773,3.22680179 -0.198647956,4.74081024 3.61214557,6.97558507 L1.71613837,7.94592801 L1.71574714,7.94591823 Z" id="Shape" stroke="#00BB00" stroke-width="0.5" fill="#00F500" fill-rule="nonzero"></path>
                        <path d="M0.782854868,1.06121631 C5.7544332,4.44801235 11.8498249,6.18351669 17.2057885,8.77024367 L26.2383531,13.1639726 C21.4145626,10.8344805 5.34559595,1.89454008 0.0854841523,2.66233252 L0.783011361,1.0611185 L0.782854868,1.06121631 Z" id="Shape" stroke="#00BB00" stroke-width="0.5" fill="#00F500" fill-rule="nonzero"></path>
                        <path d="M6.61064403,0.0596628523 C5.47049671,0.481567245 1.75780456,0.106417011 3.01326746,1.55123416 C10.6362238,5.58669256 18.5706007,9.07423079 26.4656588,12.4607334 L26.4703507,12.4374219 C20.4362845,9.84952119 8.35925171,5.21714085 3.73782586,1.47217208 C3.58834596,0.772160546 5.93273416,0.819812582 7.0963554,1.43959323 L6.61065088,0.0599142187 L6.61064403,0.0596628523 Z" id="Shape" stroke="#00BB00" stroke-width="0.5" fill="#00F500" fill-rule="nonzero"></path>
                    </g>
                    <path d="M29.4671846,30.3198771 C28.90512,30.7498959 28.8106181,28.0544306 28.1544215,28.3572156 C27.3290091,28.738075 28.395799,30.8015065 27.57636,31.1927131 C26.9248793,31.5037357 27.4752467,28.8529774 26.7621825,29.0214831 C25.8652464,29.2334367 26.4151838,31.4553935 25.5216366,31.6786364 C24.811254,31.8561093 25.9806968,29.3740026 25.2441366,29.4003498 C24.3176571,29.433489 24.3250083,31.7101114 23.3990835,31.7549267 C22.6629949,31.7905534 24.3968556,29.59316 23.6712297,29.4761398 C22.7584816,29.3289121 22.222909,31.5537371 21.307988,31.4179988 C20.5806375,31.3101126 22.7978266,29.5001942 22.1170336,29.2452262 C21.260737,28.9245193 20.2072532,30.9934829 19.3460558,30.6836109 C18.6614254,30.4372558 21.2582866,29.0993992 20.6541955,28.718448 C19.8943889,28.2392366 18.3722791,30.0556542 17.6050751,29.5861146 C16.9951585,29.2128091 19.8502818,28.4096182 19.3511415,27.9204849 C18.7233325,27.3052016 16.8037505,28.7841077 16.1664635,28.1768161 C15.6598333,27.6940195 18.6396493,27.4630225 18.2688078,26.8885941 C17.8023548,26.1660041 15.5750867,27.2382537 15.0974914,26.5216253 C14.7177961,25.9519077 17.6830253,26.3039144 17.4578204,25.6710093 C17.1745457,24.8749222 14.7437102,25.4903514 14.4481374,24.6979121 C14.2131447,24.0679127 17.025118,24.9864645 16.9560909,24.324715 C16.8692315,23.492317 14.3485035,23.6221773 14.2487771,22.7909466 C14.1694723,22.1301392 16.6967192,23.5722759 16.7870601,22.9126067 C16.9006843,22.0828351 14.4079139,21.7210607 14.5086574,20.8899134 C14.5887529,20.2291894 16.713086,22.1274837 16.9585876,21.500736 C17.2673786,20.712403 14.9191675,19.8758778 15.2157113,19.0837094 C15.4514575,18.4539602 17.0735711,20.7196568 17.4627211,20.1551503 C17.9522448,19.4451086 15.8583614,18.1729784 16.3368352,17.4568085 C16.71721,16.8874662 17.7612529,19.4146342 18.2758816,18.9387579 C18.9232475,18.3401917 17.1815733,16.6919462 17.8196046,16.0852508 C18.3268359,15.6029544 18.7439574,18.2734065 19.360023,17.908422 C20.1349481,17.4493046 18.8269933,15.5020261 19.5947105,15.0331952 C20.2050432,14.6604858 19.9757789,17.3493351 20.6644687,17.1123349 C21.5307518,16.8141816 20.7175913,14.6588725 21.5791586,14.3497926 C22.2641126,14.1041045 21.3991287,16.6856512 22.1282314,16.5876828 C23.0453255,16.4644136 22.7650561,14.2018811 23.6801158,14.0670599 C24.407605,13.9598825 22.9474022,16.313413 23.6828099,16.3590204 C24.6078561,16.4164007 24.8735157,14.1523966 25.7993479,14.1981291 C26.5353903,14.2344721 24.5482145,16.2499628 25.2555457,16.4370616 C26.1452694,16.6724067 26.9445134,14.512837 27.837797,14.7369554 C28.5479485,14.9151203 26.1267296,16.4983023 26.7729397,16.8181379 C27.5857765,17.2204462 28.8811557,15.2662766 29.7001416,15.658317 C30.3512062,15.9699733 27.6091708,17.0468003 28.1640229,17.4844064 C28.8619224,18.0348638 30.5929166,16.3774885 31.2992769,16.9191079 C31.8608329,17.3496686 28.9261874,17.8698183 29.363698,18.4047675 C29.9140654,19.0776229 31.9997193,17.7945286 32.5604431,18.4604136 C33.0062249,18.9897765 30.0161497,18.928911 30.3159298,19.5361484 C30.6930036,20.2999685 33.035773,19.4511493 33.4246456,20.2101294 C33.7338019,20.8135314 30.8281543,20.1744989 30.9761488,20.8256211 C31.1623092,21.6446787 33.6526708,21.269814 33.8515225,22.0864537 C34.0095959,22.7356715 31.3242432,21.5483778 31.3135169,22.2129663 C31.3000555,23.0489495 33.821563,23.1655944 33.8210544,24.001661 C33.8206568,24.6663454 31.4811608,22.9862497 31.3122224,23.6332581 C31.0997687,24.4471046 33.5345434,25.0497562 33.3347209,25.8661874 C33.1758707,26.5152386 31.2916021,24.4209658 30.9724038,25.0201156 C30.5708954,25.7737219 32.8050662,26.8342821 32.4152689,27.592891 C32.1053913,28.1960012 30.7644441,25.7854364 30.3098732,26.3086711 C29.7380995,26.9668521 31.6671594,28.4356278 31.1056497,29.1009792 C30.6592344,29.6299252 29.9243293,27.0157946 29.3556534,27.4386846 C28.6403237,27.9706322 30.1741307,29.7790457 29.4671,30.3199563 L29.4671846,30.3198771 Z" id="Shape" fill="#FBF90B" fill-rule="nonzero"></path>
                    <g id="Group" stroke-width="1" fill="none" fill-rule="evenodd" transform="translate(4.534393, 1.552174)">
                        <g transform="translate(0.039143, 0.044147)" fill="#FBF90B" fill-rule="nonzero" id="Shape">
                            <path d="M4.54585982,2.90358789 C4.54585982,4.21512037 3.71730916,4.89106785 3.2844117,5.27959545 C2.80529463,4.87770059 2.06761641,4.21516777 2.06761641,2.90358789 C2.06761641,1.59200802 2.76061942,0.00616221412 3.2844117,0.00616221412 C3.80820397,0.00616221412 4.54585982,1.59200802 4.54585982,2.90358789 Z"></path>
                            <path d="M3.28438931,3.19913716 C3.53716846,3.19913716 3.74208645,4.05119692 3.74208645,5.10226589 C3.74208645,6.15333487 3.53716846,7.00539462 3.28438931,7.00539462 C3.16300049,7.00539462 3.04658343,6.80488699 2.96074857,6.44798112 C2.87491371,6.09107525 2.82669218,5.60700701 2.82669218,5.10226589 C2.82669218,4.05119692 3.03161017,3.19913716 3.28438931,3.19913716"></path>
                            <path d="M5.69922346,3.61650866 C5.28738781,3.59880368 4.81617173,3.83560856 4.4713489,4.27750093 C3.98101827,4.90585717 3.33560018,6.36784247 3.69479249,6.83884893 C3.63079681,6.47354814 3.8499471,5.93674819 4.2707357,5.50134036 C4.79994451,4.95378023 5.44934666,4.77341696 5.71990478,5.09868707 C5.93087878,5.35230958 5.84951886,5.83824756 5.55263459,6.2998685 C5.79147689,6.11522013 6.00048348,5.91733721 6.14039569,5.73801678 C6.65064663,5.08411106 6.69057678,4.22597534 6.22980431,3.82280063 C6.08041317,3.69208822 5.896777,3.62496275 5.69918541,3.61646837 L5.69922346,3.61650866 Z"></path>
                            <path d="M0.870002812,3.66391031 C1.28183846,3.64620532 1.75305455,3.88301021 2.09787738,4.32490258 C2.58820801,4.95325881 3.23362609,6.41524411 2.87443378,6.88625058 C2.93842946,6.52094979 2.71927918,5.98414983 2.29849058,5.54874201 C1.76928177,5.00118188 1.11987962,4.82081861 0.8493215,5.14608871 C0.638347497,5.39971123 0.71970742,5.88564921 1.01659168,6.34727015 C0.777749388,6.16262178 0.568742795,5.96473886 0.428830586,5.78541843 C-0.0814203558,5.13151271 -0.121350508,4.27337699 0.339421961,3.87020228 C0.488813106,3.73948987 0.672449279,3.6723644 0.870040862,3.66387002 L0.870002812,3.66391031 Z"></path>
                        </g>
                        <path d="M4.44830577,7.77182007 C4.12496246,7.89809992 3.79313919,7.80802564 3.59027571,7.54358521 C3.57754601,7.97314796 3.55280353,8.4546174 3.32530418,8.79807003 C3.07878901,8.45697457 3.14176755,7.88253867 3.11104608,7.57752457 C2.94030273,7.8095446 2.67445093,7.91852222 2.20006279,7.78109226 C2.96618271,7.36423476 2.94234692,6.9464383 3.04407697,6.68339359 C3.26751924,6.69736056 3.40756067,6.67803371 3.62762857,6.67961233 C3.75217722,6.88083264 3.82730351,7.43282161 4.44830577,7.77183376 L4.44830577,7.77182007 Z" id="Shape" stroke="#030904" stroke-width="0.5" fill="#FBF90B" fill-rule="nonzero" stroke-linecap="round"></path>
                        <polygon id="Shape" fill="#C8C808" fill-rule="nonzero" points="2.25447335 6.55508911 4.39304428 6.55508911 4.39304428 7.05508911 2.25447335 7.05508911"></polygon>
                    </g>
                    <g id="Group" stroke-width="1" fill="none" fill-rule="evenodd" transform="translate(19.619411, 1.552174)">
                        <g transform="translate(0.039143, 0.044147)" fill="#FBF90B" fill-rule="nonzero" id="Shape">
                            <path d="M4.54585982,2.90358789 C4.54585982,4.21512037 3.71730916,4.89106785 3.2844117,5.27959545 C2.80529463,4.87770059 2.06761641,4.21516777 2.06761641,2.90358789 C2.06761641,1.59200802 2.76061942,0.00616221412 3.2844117,0.00616221412 C3.80820397,0.00616221412 4.54585982,1.59200802 4.54585982,2.90358789 Z"></path>
                            <path d="M3.28438931,3.19913716 C3.53716846,3.19913716 3.74208645,4.05119692 3.74208645,5.10226589 C3.74208645,6.15333487 3.53716846,7.00539462 3.28438931,7.00539462 C3.16300049,7.00539462 3.04658343,6.80488699 2.96074857,6.44798112 C2.87491371,6.09107525 2.82669218,5.60700701 2.82669218,5.10226589 C2.82669218,4.05119692 3.03161017,3.19913716 3.28438931,3.19913716"></path>
                            <path d="M5.69922346,3.61650866 C5.28738781,3.59880368 4.81617173,3.83560856 4.4713489,4.27750093 C3.98101827,4.90585717 3.33560018,6.36784247 3.69479249,6.83884893 C3.63079681,6.47354814 3.8499471,5.93674819 4.2707357,5.50134036 C4.79994451,4.95378023 5.44934666,4.77341696 5.71990478,5.09868707 C5.93087878,5.35230958 5.84951886,5.83824756 5.55263459,6.2998685 C5.79147689,6.11522013 6.00048348,5.91733721 6.14039569,5.73801678 C6.65064663,5.08411106 6.69057678,4.22597534 6.22980431,3.82280063 C6.08041317,3.69208822 5.896777,3.62496275 5.69918541,3.61646837 L5.69922346,3.61650866 Z"></path>
                            <path d="M0.870002812,3.66391031 C1.28183846,3.64620532 1.75305455,3.88301021 2.09787738,4.32490258 C2.58820801,4.95325881 3.23362609,6.41524411 2.87443378,6.88625058 C2.93842946,6.52094979 2.71927918,5.98414983 2.29849058,5.54874201 C1.76928177,5.00118188 1.11987962,4.82081861 0.8493215,5.14608871 C0.638347497,5.39971123 0.71970742,5.88564921 1.01659168,6.34727015 C0.777749388,6.16262178 0.568742795,5.96473886 0.428830586,5.78541843 C-0.0814203558,5.13151271 -0.121350508,4.27337699 0.339421961,3.87020228 C0.488813106,3.73948987 0.672449279,3.6723644 0.870040862,3.66387002 L0.870002812,3.66391031 Z"></path>
                        </g>
                        <path d="M4.44830577,7.77182007 C4.12496246,7.89809992 3.79313919,7.80802564 3.59027571,7.54358521 C3.57754601,7.97314796 3.55280353,8.4546174 3.32530418,8.79807003 C3.07878901,8.45697457 3.14176755,7.88253867 3.11104608,7.57752457 C2.94030273,7.8095446 2.67445093,7.91852222 2.20006279,7.78109226 C2.96618271,7.36423476 2.94234692,6.9464383 3.04407697,6.68339359 C3.26751924,6.69736056 3.40756067,6.67803371 3.62762857,6.67961233 C3.75217722,6.88083264 3.82730351,7.43282161 4.44830577,7.77183376 L4.44830577,7.77182007 Z" id="Shape" stroke="#030904" stroke-width="0.5" fill="#FBF90B" fill-rule="nonzero" stroke-linecap="round"></path>
                        <polygon id="Shape" fill="#C8C808" fill-rule="nonzero" points="2.25447335 6.55508911 4.39304428 6.55508911 4.39304428 7.05508911 2.25447335 7.05508911"></polygon>
                    </g>
                    <g id="Group" stroke-width="1" fill="none" fill-rule="evenodd" transform="translate(34.703354, 1.552174)">
                        <g transform="translate(0.039143, 0.044147)" fill="#FBF90B" fill-rule="nonzero" id="Shape">
                            <path d="M4.54585982,2.90358789 C4.54585982,4.21512037 3.71730916,4.89106785 3.2844117,5.27959545 C2.80529463,4.87770059 2.06761641,4.21516777 2.06761641,2.90358789 C2.06761641,1.59200802 2.76061942,0.00616221412 3.2844117,0.00616221412 C3.80820397,0.00616221412 4.54585982,1.59200802 4.54585982,2.90358789 Z"></path>
                            <path d="M3.28438931,3.19913716 C3.53716846,3.19913716 3.74208645,4.05119692 3.74208645,5.10226589 C3.74208645,6.15333487 3.53716846,7.00539462 3.28438931,7.00539462 C3.16300049,7.00539462 3.04658343,6.80488699 2.96074857,6.44798112 C2.87491371,6.09107525 2.82669218,5.60700701 2.82669218,5.10226589 C2.82669218,4.05119692 3.03161017,3.19913716 3.28438931,3.19913716"></path>
                            <path d="M5.69922346,3.61650866 C5.28738781,3.59880368 4.81617173,3.83560856 4.4713489,4.27750093 C3.98101827,4.90585717 3.33560018,6.36784247 3.69479249,6.83884893 C3.63079681,6.47354814 3.8499471,5.93674819 4.2707357,5.50134036 C4.79994451,4.95378023 5.44934666,4.77341696 5.71990478,5.09868707 C5.93087878,5.35230958 5.84951886,5.83824756 5.55263459,6.2998685 C5.79147689,6.11522013 6.00048348,5.91733721 6.14039569,5.73801678 C6.65064663,5.08411106 6.69057678,4.22597534 6.22980431,3.82280063 C6.08041317,3.69208822 5.896777,3.62496275 5.69918541,3.61646837 L5.69922346,3.61650866 Z"></path>
                            <path d="M0.870002812,3.66391031 C1.28183846,3.64620532 1.75305455,3.88301021 2.09787738,4.32490258 C2.58820801,4.95325881 3.23362609,6.41524411 2.87443378,6.88625058 C2.93842946,6.52094979 2.71927918,5.98414983 2.29849058,5.54874201 C1.76928177,5.00118188 1.11987962,4.82081861 0.8493215,5.14608871 C0.638347497,5.39971123 0.71970742,5.88564921 1.01659168,6.34727015 C0.777749388,6.16262178 0.568742795,5.96473886 0.428830586,5.78541843 C-0.0814203558,5.13151271 -0.121350508,4.27337699 0.339421961,3.87020228 C0.488813106,3.73948987 0.672449279,3.6723644 0.870040862,3.66387002 L0.870002812,3.66391031 Z"></path>
                        </g>
                        <path d="M4.44830577,7.77182007 C4.12496246,7.89809992 3.79313919,7.80802564 3.59027571,7.54358521 C3.57754601,7.97314796 3.55280353,8.4546174 3.32530418,8.79807003 C3.07878901,8.45697457 3.14176755,7.88253867 3.11104608,7.57752457 C2.94030273,7.8095446 2.67445093,7.91852222 2.20006279,7.78109226 C2.96618271,7.36423476 2.94234692,6.9464383 3.04407697,6.68339359 C3.26751924,6.69736056 3.40756067,6.67803371 3.62762857,6.67961233 C3.75217722,6.88083264 3.82730351,7.43282161 4.44830577,7.77183376 L4.44830577,7.77182007 Z" id="Shape" stroke="#030904" stroke-width="0.5" fill="#FBF90B" fill-rule="nonzero" stroke-linecap="round"></path>
                        <polygon id="Shape" fill="#C8C808" fill-rule="nonzero" points="2.25447335 6.55508911 4.39304428 6.55508911 4.39304428 7.05508911 2.25447335 7.05508911"></polygon>
                    </g>
                </g>
            </g>
        </g>
    </g>
</svg>