<?xml version="1.0" encoding="UTF-8"?>
<svg width="32px" height="32px" viewBox="0 0 32 32" version="1.1" xmlns="http://www.w3.org/2000/svg" xmlns:xlink="http://www.w3.org/1999/xlink">
    <!-- Generator: Sketch 50.2 (55047) - http://www.bohemiancoding.com/sketch -->
    <title>guam@1x</title>
    <desc>Created with Sketch.</desc>
    <defs></defs>
    <g id="flags" stroke="none" stroke-width="1" fill="none" fill-rule="evenodd">
        <g id="guam" fill-rule="nonzero">
            <g id="Group" transform="translate(6.937500, 0.000000)" fill="#D80027">
                <path d="M0.0445625,29.217375 C2.6123125,30.9726875 5.7173125,32 9.0625,32 C12.4076875,32 15.512625,30.9726875 18.0804375,29.217375 L9.0625,27.8260625 L0.0445625,29.217375 Z" id="Shape"></path>
                <path d="M18.0804375,2.782625 C15.512625,1.0273125 12.4076875,0 9.0625,0 C5.7173125,0 2.6123125,1.0273125 0.0445625,2.782625 L9.0625,4.1739375 L18.0804375,2.782625 Z" id="Shape"></path>
            </g>
            <path d="M32,16 C32,10.705625 28.83025,5.38875 25.0179375,2.782625 L6.9820625,2.782625 C2.766875,5.664125 0,10.50875 0,16 C0,21.4914375 2.766875,26.335875 6.9820625,29.217375 L25.0179375,29.217375 C29.2331875,26.335875 32,21.4914375 32,16 Z" id="Shape" fill="#0052B4"></path>
            <path d="M15.0945625,26.0998125 C14.8759375,25.9123125 9.739125,21.4468125 9.739125,16 C9.739125,10.5531875 14.875875,6.087625 15.0945625,5.9001875 L16,5.1240625 L16.9054375,5.900125 C17.1240625,6.087625 22.260875,10.553125 22.260875,16 C22.260875,21.446875 17.124125,25.9124375 16.9054375,26.0998125 L16,26.8759375 L15.0945625,26.0998125 Z" id="Shape" fill="#D80027"></path>
            <path d="M20.8695625,16 C20.8695625,11.1304375 16,6.9565 16,6.9565 C16,6.9565 11.1304375,11.1305625 11.1304375,16 C11.1304375,17.4896875 11.5865,18.914 12.219125,20.1739375 L19.780875,20.1739375 C20.4135,18.914 20.8695625,17.4896875 20.8695625,16 Z" id="Shape" fill="#338AF3"></path>
            <path d="M20.8695625,16 C20.8695625,17.4896875 20.4135,18.914 19.780875,20.1739375 L16,20.8695625 L12.219125,20.1739375 C11.5865,18.9140625 11.1304375,17.4896875 11.1304375,16 L20.8695625,16 Z" id="Shape" fill="#0052B4"></path>
            <path d="M16,25.0435 C16,25.0435 18.3455,23.0324375 19.780875,20.1739375 L12.219125,20.1739375 C13.6545,23.0324375 16,25.0435 16,25.0435 Z" id="Shape" fill="#FFDA44"></path>
            <polygon id="Shape" fill="#6DA544" points="12.8695625 13.217375 19.1304375 13.217375 16 16.3478125"></polygon>
            <rect id="Rectangle-path" fill="#A2001D" x="14.9565" y="15.304375" width="2.0869375" height="6.260875"></rect>
        </g>
    </g>
</svg>