<?xml version="1.0" encoding="UTF-8"?>
<svg width="32px" height="32px" viewBox="0 0 32 32" version="1.1" xmlns="http://www.w3.org/2000/svg" xmlns:xlink="http://www.w3.org/1999/xlink">
    <!-- Generator: Sketch 50.2 (55047) - http://www.bohemiancoding.com/sketch -->
    <title>guatemala@1x</title>
    <desc>Created with Sketch.</desc>
    <defs></defs>
    <g id="flags" stroke="none" stroke-width="1" fill="none" fill-rule="evenodd">
        <g id="guatemala" fill-rule="nonzero">
            <circle id="Oval" fill="#F0F0F0" cx="16" cy="16" r="16"></circle>
            <g id="Group" transform="translate(0.000000, 1.562500)" fill="#338AF3">
                <path d="M32,14.4375 C32,8.094125 28.3084375,2.613125 22.9565,0.025125 L22.9565,28.8498125 C28.3084375,26.261875 32,20.7808125 32,14.4375 Z" id="Shape"></path>
                <path d="M0,14.4375 C0,20.7808125 3.6915625,26.261875 9.0435,28.849875 L9.0435,0.025125 C3.6915625,2.613125 0,8.094125 0,14.4375 Z" id="Shape"></path>
            </g>
            <polygon id="Shape" fill="#ACABB1" points="20.181125 18.7055 17.47575 16.000125 20.0509375 13.4248125 19.93425 12.0646875 19.197 11.3273125 16 14.5243125 12.803 11.3273125 12.06575 12.0646875 11.9490625 13.4248125 14.52425 16.000125 11.8188125 18.7055 13.2945625 20.181125 16 17.4758125 18.7054375 20.181125"></polygon>
            <path d="M19.9351875,12.0648125 L18.4595,13.5405 C19.0889375,14.1699375 19.4783125,15.0395 19.4783125,16 C19.4783125,17.921 17.921,19.47825 16.0000625,19.47825 C14.079125,19.47825 12.52175,17.921 12.52175,16 C12.52175,15.0395 12.911125,14.1699375 13.5405625,13.5405 L12.064875,12.0648125 C11.0576875,13.0718125 10.4348125,14.463125 10.4348125,16 C10.4348125,19.073625 12.9264375,21.5651875 16,21.5651875 C19.0735625,21.5651875 21.5651875,19.0735625 21.5651875,16 C21.5651875,14.4631875 20.9423125,13.071875 19.9351875,12.0648125 Z" id="Shape" fill="#6DA544"></path>
        </g>
    </g>
</svg>