<?xml version="1.0" encoding="UTF-8"?>
<svg width="32px" height="32px" viewBox="0 0 32 32" version="1.1" xmlns="http://www.w3.org/2000/svg" xmlns:xlink="http://www.w3.org/1999/xlink">
    <!-- Generator: Sketch 50.2 (55047) - http://www.bohemiancoding.com/sketch -->
    <title>guernsey@1x</title>
    <desc>Created with Sketch.</desc>
    <defs></defs>
    <g id="flags" stroke="none" stroke-width="1" fill="none" fill-rule="evenodd">
        <g id="guernsey" fill-rule="nonzero">
            <circle id="Oval" fill="#F0F0F0" cx="16" cy="16" r="16"></circle>
            <path d="M31.8645625,13.9130625 L18.0870625,13.9130625 L18.087,13.9130625 L18.087,0.1354375 C17.4038125,0.0465 16.7073125,0 16,0 C15.2926875,0 14.5961875,0.0465 13.9130625,0.1354375 L13.9130625,13.9130625 L0.1354375,13.9130625 C0.0465,14.5961875 0,15.2926875 0,16 C0,16.7073125 0.0465,17.4038125 0.1354375,18.0869375 L13.9129375,18.0869375 L13.913,18.0869375 L13.913,31.8645625 C14.5961875,31.9535 15.2926875,32 16,32 C16.7073125,32 17.4038125,31.9535625 18.0869375,31.8645625 L18.0869375,18.087125 L18.0869375,18.087 L31.8645625,18.087 C31.9535,17.4038125 32,16.7073125 32,16 C32,15.2926875 31.9535,14.5961875 31.8645625,13.9130625 Z" id="Shape" fill="#D80027"></path>
            <polygon id="Shape" fill="#FFDA44" points="20.52175 16.695625 21.5651875 17.3913125 21.5651875 14.6086875 20.52175 15.304375 16.695625 15.304375 16.695625 11.47825 17.3913125 10.4348125 14.6086875 10.4348125 15.304375 11.47825 15.304375 15.304375 11.47825 15.304375 10.4348125 14.6086875 10.4348125 17.3913125 11.47825 16.695625 15.304375 16.695625 15.304375 20.52175 14.6086875 21.5651875 17.3913125 21.5651875 16.695625 20.52175 16.695625 16.695625"></polygon>
        </g>
    </g>
</svg>