<?xml version="1.0" encoding="UTF-8"?>
<svg width="32px" height="32px" viewBox="0 0 32 32" version="1.1" xmlns="http://www.w3.org/2000/svg" xmlns:xlink="http://www.w3.org/1999/xlink">
    <!-- Generator: Sketch 50.2 (55047) - http://www.bohemiancoding.com/sketch -->
    <title>guinea@1x</title>
    <desc>Created with Sketch.</desc>
    <defs></defs>
    <g id="flags" stroke="none" stroke-width="1" fill="none" fill-rule="evenodd">
        <g id="guinea" fill-rule="nonzero">
            <path d="M21.565375,0.99525 C19.832,0.3520625 17.9571875,0 16,0 C14.0429375,0 12.1681875,0.3520625 10.4349375,0.995125 L9.73925,16 L10.434875,31.004875 C12.1681875,31.648 14.0429375,32 16,32 C17.95725,32 19.832,31.648 21.565375,31.00475 L22.261,16 L21.565375,0.99525 Z" id="Shape" fill="#FFDA44"></path>
            <path d="M0,16 C0,22.879375 4.342,28.744125 10.4348125,31.00475 L10.4348125,0.995125 C4.342,3.255875 0,9.1205 0,16 Z" id="Shape" fill="#D80027"></path>
            <path d="M32,16 C32,9.1205 27.658,3.255875 21.5651875,0.995125 L21.5651875,31.0048125 C27.658,28.744125 32,22.879375 32,16 Z" id="Shape" fill="#6DA544"></path>
        </g>
    </g>
</svg>