<?xml version="1.0" encoding="UTF-8"?>
<svg width="32px" height="32px" viewBox="0 0 32 32" version="1.1" xmlns="http://www.w3.org/2000/svg" xmlns:xlink="http://www.w3.org/1999/xlink">
    <!-- Generator: Sketch 50.2 (55047) - http://www.bohemiancoding.com/sketch -->
    <title>guinea-bissau@1x</title>
    <desc>Created with Sketch.</desc>
    <defs></defs>
    <g id="flags" stroke="none" stroke-width="1" fill="none" fill-rule="evenodd">
        <g id="guinea-bissau" fill-rule="nonzero">
            <path d="M16,0 C14.555875,0 13.156875,0.1925 11.8260625,0.5511875 L10.4348125,16 L11.826125,31.4488125 C13.156875,31.8075 14.555875,32 16,32 C24.8365,32 32,24.8365 32,16 C32,7.1635 24.8365,0 16,0 Z" id="Shape" fill="#FFDA44"></path>
            <path d="M10.4348125,16 L11.826125,31.4488125 C13.156875,31.8075 14.555875,32 16,32 C24.8365,32 32,24.8365 32,16 L10.4348125,16 Z" id="Shape" fill="#6DA544"></path>
            <g id="Group" transform="translate(0.000000, 0.500000)" fill="#D80027">
                <path d="M0,15.5 C0,21.5646875 3.374375,26.8409375 8.3478125,29.5545625 L8.3478125,1.4454375 C3.374375,4.1590625 0,9.4353125 0,15.5 Z" id="Shape"></path>
                <path d="M0,15.5 C0,22.8924375 5.0138125,29.1128125 11.8260625,30.9488125 L11.8260625,0.0511875 C5.0138125,1.8871875 0,8.1075625 0,15.5 Z" id="Shape"></path>
            </g>
            <polygon id="Shape" fill="#000000" points="6.046 11.8260625 7.0819375 15.0145625 10.4348125 15.0145625 7.7224375 16.9853125 8.7583125 20.1739375 6.046 18.20325 3.3335625 20.1739375 4.3696875 16.9853125 1.6573125 15.0145625 5.01 15.0145625"></polygon>
        </g>
    </g>
</svg>