<?xml version="1.0" encoding="UTF-8"?>
<svg width="32px" height="32px" viewBox="0 0 32 32" version="1.1" xmlns="http://www.w3.org/2000/svg" xmlns:xlink="http://www.w3.org/1999/xlink">
    <!-- Generator: Sketch 50.2 (55047) - http://www.bohemiancoding.com/sketch -->
    <title>guyana@1x</title>
    <desc>Created with Sketch.</desc>
    <defs></defs>
    <g id="flags" stroke="none" stroke-width="1" fill="none" fill-rule="evenodd">
        <g id="guyana" fill-rule="nonzero">
            <path d="M1.22314105,9.82319158 C0.436075789,11.7111916 0,13.7822989 0,15.9556716 C0,18.1290442 0.436075789,20.2001516 1.22287158,22.0881516 L13.2290695,15.9556716 L1.22314105,9.82319158 Z" id="Shape" fill="#029D49"></path>
            <g id="Group" transform="translate(31.865263, 15.225263)" fill="#FBD015">
                <path d="M0.23475,0.730408421 C0.23475,0.963705263 0.17875,1.19444211 0.10375,1.42524632 C0.18775,1.19498105 0.23475,0.963705263 0.23475,0.730408421 Z" id="Shape"></path>
                <path d="M0.10375,0.0355705263 C0.17875,0.266307368 0.23475,0.497583158 0.23475,0.730408421 C0.23475,0.497650526 0.18775,0.265835789 0.10375,0.0355705263 Z" id="Shape"></path>
            </g>
            <path d="M2.47168,7.42992842 C0.908463158,9.89655579 0,12.8194021 0,15.9556716 C0,19.0919411 0.908463158,22.0148547 2.47168,24.4814821 L13.2293389,15.9556716 L2.47168,7.42992842 Z" id="Shape" fill="#CD2029"></path>
            <g id="Group" transform="translate(15.898947, 0.000000)" fill="#029D49">
                <path d="M5.39210105,11.4632758 L15.9509558,14.60608 C15.9690779,14.8230063 15.9839663,15.0416842 15.9942737,15.2611032 C16.0043789,15.49184 16.0119242,15.7231158 16.0119242,15.9559411 C16.0119242,7.14347789 8.86844632,0.000269473684 0.0562526316,0.000269473684 C3.62502737,5.42101086e-20 4.71363368,5.23432421 5.39210105,11.4632758 Z" id="Shape"></path>
                <path d="M15.9942737,16.6505095 C15.9839663,16.8699284 15.9690779,17.0878653 15.9509558,17.3055326 L5.32911158,20.4480674 C4.65118316,26.67648 3.62509474,31.9108716 0.0562526316,31.9108716 C8.86851368,31.9108716 16.0119242,24.7673937 16.0119242,15.9556716 C16.0119242,16.1889684 16.0043789,16.4197053 15.9942737,16.6505095 Z" id="Shape"></path>
            </g>
            <path d="M31.8499032,14.60608 L22.0468547,11.3687579 C22.3650358,14.2911326 20.6015326,18.2086063 20.2833516,21.1309811 L31.8499032,17.3051958 C31.8680253,17.0877979 31.8829137,16.8695916 31.8932211,16.6501726 C31.9033263,16.4194358 31.9108716,16.1886316 31.9108716,15.9553347 C31.9108716,15.7225768 31.9033263,15.4913011 31.8932211,15.2604968 C31.8829137,15.0414147 31.8680253,14.8230063 31.8499032,14.60608 Z" id="Shape" fill="#FBD015"></path>
            <g id="Group" transform="translate(1.212632, 7.477895)" fill="#029D49">
                <path d="M1.43756632,16.9738021 C1.26573929,16.8096173 1.10069323,16.6419783 0.937566316,16.4738021 C1.10069323,16.6416713 1.26625107,16.8087729 1.43756632,16.9738021 Z" id="Shape"></path>
                <path d="M0.299452632,1.78747789 C0.460262538,1.61938156 0.628602565,1.4530998 0.799452632,1.28747789 C0.628602565,1.4530998 0.460262538,1.61938156 0.299452632,1.78747789 Z" id="Shape"></path>
                <path d="M0.610829474,1.15765053 C0.773169074,0.989356255 0.93998495,0.822852349 1.11082947,0.657650526 C0.93998495,0.822933729 0.773169074,0.989356255 0.610829474,1.15765053 Z" id="Shape"></path>
                <path d="M0.799183158,15.7587453 C0.628520487,15.5934723 0.459855819,15.4270515 0.299183158,15.2587453 C0.459855819,15.4270515 0.628520487,15.5928984 0.799183158,15.7587453 Z" id="Shape"></path>
                <path d="M0.0105094737,2.42006737 C0.169208252,2.25162962 0.341206814,2.08588815 0.510509474,1.92006737 C0.341745994,2.08580884 0.169747432,2.25162962 0.0105094737,2.42006737 Z" id="Shape"></path>
                <path d="M0.510778947,15.1107284 C0.341426996,14.944483 0.170105836,14.7790273 0.0107789474,14.6107284 C0.169926817,14.7791062 0.341426996,14.9447989 0.510778947,15.1107284 Z" id="Shape"></path>
                <path d="M0.938576842,0.543183158 C1.10176861,0.374976134 1.26727697,0.207924378 1.43857684,0.0431831579 C1.26727697,0.207924378 1.1012538,0.374976134 0.938576842,0.543183158 Z" id="Shape"></path>
                <path d="M1.11056,16.3827116 C0.938842828,16.2177715 0.773364516,16.0509699 0.61056,15.8827116 C0.772324706,16.0510508 0.939437005,16.2177715 1.11056,16.3827116 Z" id="Shape"></path>
            </g>
            <g id="Group" transform="translate(3.974737, 0.000000)" fill="#14A755">
                <path d="M18.3504842,20.4480674 L0.0105094737,26.4994358 C2.93416421,29.81632 7.21138526,31.9108716 11.9803958,31.9108716 C15.5492379,31.9108716 17.6725558,26.6765474 18.3504842,20.4480674 Z" id="Shape"></path>
                <path d="M0.0107789474,5.41170526 L18.3504842,11.4632758 C17.6722863,5.23432421 15.5492379,0 11.9804632,0 C7.21165474,0 2.93470316,2.09502316 0.0107789474,5.41170526 Z" id="Shape"></path>
            </g>
            <g id="Group" transform="translate(1.212632, 5.389474)" fill="#029D49">
                <path d="M2.77160421,21.1089516 C2.21682526,20.4791242 1.71149474,19.8049684 1.26005895,19.0940295 C1.71122526,19.80544 2.21662316,20.4791242 2.77160421,21.1089516 Z" id="Shape"></path>
                <path d="M1.2608,2.03762526 C1.71075368,1.32870737 2.21433263,0.656572632 2.76709053,0.0284968421 C2.21433263,0.656303158 1.71075368,1.32796632 1.2608,2.03762526 Z" id="Shape"></path>
                <path d="M1.00128842,18.2579789 C0.832665815,18.0931559 0.666513869,17.9253304 0.501288421,17.7579789 C0.666205036,17.9253304 0.832665815,18.0925238 1.00128842,18.2579789 Z" id="Shape"></path>
                <path d="M1.33732211,18.8873347 C1.17031942,18.7214397 1.00062856,18.554773 0.837322105,18.3873347 C1.00197264,18.554773 1.16897533,18.7214397 1.33732211,18.8873347 Z" id="Shape"></path>
                <path d="M1.64034211,19.5010611 C1.49434211,19.3343944 1.34284211,19.1706263 1.20084211,19.0010611 C1.34284211,19.170264 1.49434211,19.3343944 1.64034211,19.5010611 Z" id="Shape"></path>
                <polygon id="Shape" points="2.77910421 21.1164516 2.77910421 21.1164516 2.77160421 21.1089516"></polygon>
                <path d="M1.20037053,2.53762526 C1.34787053,2.37024175 1.50137053,2.2053672 1.64887053,2.03762526 C1.50137053,2.2053672 1.34787053,2.37024175 1.20037053,2.53762526 Z" id="Shape"></path>
                <path d="M0.836783158,3.06896 C1.00124378,2.90102542 1.16835166,2.73404178 1.33678316,2.56896 C1.16735894,2.73404178 1.00157469,2.90121561 0.836783158,3.06896 Z" id="Shape"></path>
                <path d="M0.698938947,17.6257263 C0.525551851,17.4602259 0.36459755,17.2924437 0.198938947,17.1257263 C0.36459755,17.2922916 0.525551851,17.4600737 0.698938947,17.6257263 Z" id="Shape"></path>
                <path d="M2.80809053,0.0222315789 C2.79309053,0.0372315789 2.78009053,0.0557315789 2.76709053,0.0687315789 C2.78209053,0.0537315789 2.79709053,0.0352315789 2.80809053,0.0222315789 Z" id="Shape"></path>
                <path d="M0.500749474,3.65998316 C0.666195139,3.49258846 0.830725054,3.32628581 1.00074947,3.15998316 C0.830725054,3.32628581 0.664974138,3.49258846 0.500749474,3.65998316 Z" id="Shape"></path>
                <path d="M0.0105094737,16.6986779 L0.0105094737,16.7021779 L0.0105094737,16.6986779 Z" id="Shape"></path>
                <path d="M0.198197895,4.28428632 C0.366195233,4.11756963 0.526541208,3.94980252 0.698197895,3.78428632 C0.525210536,3.94980252 0.364864561,4.11756963 0.198197895,4.28428632 Z" id="Shape"></path>
                <polygon id="Shape" points="0.0105094737 4.43674632 0.0105094737 4.43674632 0.0105094737 4.43324632"></polygon>
            </g>
            <path d="M22.3252211,11.4632758 L3.98551579,5.41170526 C3.98349474,5.41372632 3.98147368,5.41621895 3.97972211,5.41797053 C3.42723368,6.04577684 2.92365474,6.71791158 2.47343158,7.42709895 C2.45355789,7.45856 2.43287579,7.48954947 2.41300211,7.52107789 C2.32333474,7.66517895 2.23663158,7.81130105 2.15127579,7.95843368 C2.11678316,8.01690947 2.08303158,8.07605895 2.04948211,8.13554526 C1.97214316,8.27237053 1.89709474,8.41013895 1.82373053,8.54945684 C1.78647579,8.62127158 1.74989474,8.69308632 1.71338105,8.76537263 C1.64486737,8.90064842 1.57682526,9.03646316 1.51208421,9.17376 C1.47705263,9.24806737 1.44458105,9.32338526 1.41082947,9.39823158 C1.34736842,9.53903158 1.28282947,9.67962947 1.22341053,9.82298947 C1.22341053,9.82298947 1.22341053,9.82298947 1.22314105,9.82346105 L13.2293389,15.9559411 L1.22314105,22.0881516 L1.22341053,22.0886232 C1.28336842,22.2322526 1.34784,22.3735242 1.41157053,22.5151326 C1.44505263,22.5889684 1.47732211,22.6632758 1.51181474,22.7365726 C1.57682526,22.87488 1.6448,23.0117053 1.71412211,23.1474526 C1.75016421,23.2187284 1.78620632,23.2900716 1.82319158,23.3606063 C1.89702737,23.5009347 1.97234526,23.6395116 2.04995368,23.7768084 C2.08296421,23.8352842 2.11698526,23.8934232 2.15019789,23.9514274 C2.23609263,24.0990316 2.32299789,24.2461642 2.41347368,24.3902653 C2.43260632,24.4217263 2.45301895,24.4522442 2.47269053,24.4832337 C2.92412632,25.1941726 3.42952421,25.8683284 3.98423579,26.4981558 C3.98450526,26.4986274 3.98497684,26.4991663 3.98497684,26.4991663 L22.3251537,20.4477979 C22.6434021,17.5256926 22.6434021,14.3856505 22.3252211,11.4632758 Z" id="Shape" fill="#FCD943"></path>
        </g>
    </g>
</svg>