<?xml version="1.0" encoding="UTF-8"?>
<svg width="32px" height="32px" viewBox="0 0 32 32" version="1.1" xmlns="http://www.w3.org/2000/svg" xmlns:xlink="http://www.w3.org/1999/xlink">
    <!-- Generator: Sketch 50.2 (55047) - http://www.bohemiancoding.com/sketch -->
    <title>honduras@1x</title>
    <desc>Created with Sketch.</desc>
    <defs></defs>
    <g id="flags" stroke="none" stroke-width="1" fill="none" fill-rule="evenodd">
        <g id="honduras" fill-rule="nonzero">
            <circle id="Oval" fill="#F0F0F0" cx="16" cy="16" r="16"></circle>
            <g id="Group" transform="translate(1.562500, 0.000000)" fill="#338AF3">
                <path d="M14.4375,32 C20.7808125,32 26.261875,28.3084375 28.849875,22.9565 L0.025125,22.9565 C2.613125,28.3084375 8.094125,32 14.4375,32 Z" id="Shape"></path>
                <path d="M14.4375,0 C8.094125,0 2.613125,3.6915625 0.025125,9.0435 L28.8498125,9.0435 C26.261875,3.6915625 20.7808125,0 14.4375,0 Z" id="Shape"></path>
                <polygon id="Shape" points="8.2840625 10.4348125 8.8020625 12.029125 10.478375 12.029125 9.12225 13.014375 9.6403125 14.6086875 8.2840625 13.623375 6.9278125 14.6086875 7.445875 13.014375 6.0896875 12.029125 7.766 12.029125"></polygon>
                <polygon id="Shape" points="8.2840625 17.3913125 8.8020625 18.9856875 10.478375 18.9856875 9.12225 19.9709375 9.6403125 21.5651875 8.2840625 20.579875 6.9278125 21.5651875 7.445875 19.9709375 6.0896875 18.9856875 7.766 18.9856875"></polygon>
                <polygon id="Shape" points="20.5909375 10.4348125 21.109 12.029125 22.7853125 12.029125 21.429125 13.014375 21.9471875 14.6086875 20.5909375 13.623375 19.2346875 14.6086875 19.75275 13.014375 18.3965625 12.029125 20.0729375 12.029125"></polygon>
                <polygon id="Shape" points="20.5909375 17.3913125 21.109 18.9856875 22.7853125 18.9856875 21.429125 19.9709375 21.9471875 21.5651875 20.5909375 20.579875 19.2346875 21.5651875 19.75275 19.9709375 18.3965625 18.9856875 20.0729375 18.9856875"></polygon>
                <polygon id="Shape" points="14.4375 13.9130625 14.9555625 15.5074375 16.631875 15.5074375 15.2756875 16.4926875 15.79375 18.0869375 14.4375 17.101625 13.08125 18.0869375 13.5993125 16.4926875 12.243125 15.5074375 13.9194375 15.5074375"></polygon>
            </g>
        </g>
    </g>
</svg>