<?xml version="1.0" encoding="UTF-8"?>
<svg width="32px" height="32px" viewBox="0 0 32 32" version="1.1" xmlns="http://www.w3.org/2000/svg" xmlns:xlink="http://www.w3.org/1999/xlink">
    <!-- Generator: Sketch 50.2 (55047) - http://www.bohemiancoding.com/sketch -->
    <title>hong kong SAR china@1x</title>
    <desc>Created with Sketch.</desc>
    <defs></defs>
    <g id="flags" stroke="none" stroke-width="1" fill="none" fill-rule="evenodd">
        <g id="hong-kong-SAR-china" fill-rule="nonzero">
            <g id="Group">
                <path d="M0.483627204,12.195466 C2.59546599,3.64332494 11.2443325,-1.57178841 19.7964736,0.548110831 C28.3486146,2.65994962 33.563728,11.3088161 31.4438287,19.8609572 C29.3239295,28.4130982 20.6831234,33.6282116 12.1309824,31.5083123 C3.57884131,29.3884131 -1.63627204,20.7476071 0.483627204,12.195466" id="Shape" fill="#EF3827"></path>
                <path d="M12.106801,14.0010076 C11.8891688,12.1551637 10.1481108,11.1395466 8.63274559,11.5425693 C7.25440806,11.9133501 6.71435768,10.8735516 6.5209068,9.52745592 C4.77984887,12.2599496 6.12594458,15.4035264 7.4720403,16.5803526 C9.93047859,18.7405542 14.0171285,18.5793451 16.1450882,16.0967254 C14.0816121,17.2493703 12.2760705,15.4438287 12.106801,14.0010076 M16.8624685,11.5989924 C18.5471033,10.809068 18.9501259,8.83425693 18.0876574,7.52846348 C17.297733,6.33551637 18.1118388,5.49722922 19.3289673,4.88463476 C16.1853904,4.10277078 13.6302267,6.37581864 12.9370277,8.02821159 C11.6715365,11.0428212 13.1224181,14.879597 16.1531486,16.0967254 C14.4040302,14.5088161 15.5566751,12.2196474 16.8624685,11.5989924 M22.8513854,10.5672544 C19.5949622,10.293199 16.3949622,12.8403023 16.1531486,16.1047859 C17.1365239,13.9445844 19.6675063,14.3395466 20.6589421,15.4035264 C21.9324937,16.7657431 23.9314861,16.5400504 24.906801,15.3148615 C25.8015113,14.1944584 26.8493703,14.7103275 27.8005038,15.6856423 C27.5828715,12.4534005 24.6327456,10.720403 22.8513854,10.5672544 M18.2085642,20.1753149 C17.3057935,21.8035264 18.1279597,23.6413098 19.5949622,24.1974811 C20.9329975,24.7052897 20.763728,25.8579345 20.1269521,27.0589421 C23.1335013,25.8579345 23.8831234,22.5209068 23.4801008,20.7717884 C22.738539,17.5879093 19.3289673,15.3229219 16.1531486,16.0967254 C18.506801,16.3788413 18.9098237,18.9017632 18.2085642,20.1753149 M12.9047859,19.3047859 C11.0831234,18.9420655 9.58387909,20.2881612 9.50327456,21.8599496 C9.43073048,23.2866499 8.27808564,23.4801008 6.94005038,23.2463476 C9.00352645,25.7450882 12.4130982,25.4307305 13.9445844,24.5118388 C16.7576826,22.8352645 17.8619647,18.8937028 16.1450882,16.1047859 C16.6125945,18.4261965 14.3314861,19.5869018 12.9047859,19.3047859" id="Shape" fill="#FFFFFF"></path>
                <path d="M9.38236776,14.1380353 L9.67254408,13.5012594 L9.06801008,13.8478589 L8.55214106,13.3803526 L8.69722922,14.0654912 L8.09269521,14.4120907 L8.78589421,14.4846348 L8.92292191,15.1697733 L9.21309824,14.5329975 L9.90629723,14.6055416 L9.38236776,14.1380353 Z M12.8161209,21.5939547 L12.2115869,21.9405542 L11.6957179,21.4730479 L11.840806,22.1581864 L11.236272,22.5047859 L11.929471,22.57733 L12.0745592,23.2624685 L12.3566751,22.6176322 L13.0498741,22.6982368 L12.534005,22.2307305 L12.8161209,21.5939547 Z M21.4811083,21.0861461 L20.8765743,21.440806 L20.3526448,20.9732997 L20.497733,21.6584383 L19.893199,22.0050378 L20.586398,22.0775819 L20.7314861,22.7546599 L21.013602,22.1178841 L21.706801,22.1904282 L21.190932,21.7229219 L21.4811083,21.0861461 Z M23.3672544,13.315869 L23.6493703,12.6790932 L23.0528967,13.0256927 L22.5289673,12.5662469 L22.6740554,13.2433249 L22.0695214,13.5979849 L22.7707809,13.670529 L22.915869,14.3476071 L23.1979849,13.7108312 L23.8911839,13.7833753 L23.3672544,13.315869 Z M19.111335,13.0418136 L18.4906801,13.2836272 C16.7979849,14.0654912 16.4433249,15.056927 16.17733,15.8146096 L16.1450882,15.7823678 L16.0241814,15.9032746 C15.3793451,15.4115869 14.5652393,14.8473552 14.3314861,12.9853904 L14.2911839,12.3405542 C14.2911839,11.5264484 14.4926952,10.8896725 14.6861461,10.4544081 C14.879597,10.0191436 15.0811083,9.79345088 15.0811083,9.79345088 L15.0730479,9.68060453 L14.968262,9.68866499 C14.9602015,9.69672544 14.1460957,10.6559194 14.1460957,12.3324937 L14.186398,13.0015113 C14.4201511,14.8876574 15.2826196,15.5244332 15.9193955,16.0080605 L15.8307305,16.0967254 L15.9032746,16.1692695 C15.2342569,16.6206549 14.436272,17.1929471 12.62267,16.8221662 L12.0020151,16.6609572 C11.2282116,16.4030227 10.6881612,16.0080605 10.3335013,15.6856423 C9.98690176,15.3632242 9.83375315,15.1052897 9.83375315,15.1052897 L9.72896725,15.0811083 L9.70478589,15.1858942 C9.71284635,15.1939547 10.3657431,16.2740554 11.9536524,16.8060453 L12.5984887,16.9753149 C14.4846348,17.3622166 15.3551637,16.7254408 16.0161209,16.2821159 L16.1531486,16.4191436 L16.1612091,16.4110831 C16.3788413,17.1768262 16.6528967,18.1037783 15.7662469,19.6836272 L15.4196474,20.2236776 C14.9360202,20.8765743 14.3959698,21.279597 13.9848866,21.5133501 C13.5657431,21.7471033 13.2755668,21.8115869 13.2755668,21.8115869 L13.2191436,21.9002519 L13.3078086,21.9566751 C13.315869,21.9566751 14.5410579,21.6664987 15.5405542,20.3123426 L15.9032746,19.7561713 C16.8463476,18.0876574 16.515869,17.0639798 16.2901763,16.2901763 L16.3949622,16.1853904 C17.2010076,16.2095718 18.1843829,16.2015113 19.4498741,17.563728 L19.8609572,18.0634761 C20.3365239,18.7244332 20.5460957,19.3612091 20.6428212,19.8287154 C20.7395466,20.2881612 20.7153652,20.5944584 20.7153652,20.5944584 L20.7798489,20.675063 L20.8604534,20.6025189 C20.8604534,20.5944584 20.9652393,19.3370277 19.981864,17.9748111 L19.5627204,17.4589421 C18.2811083,16.0725441 17.2171285,16.0564232 16.4191436,16.0322418 L16.3062972,15.9193955 C16.5803526,15.1536524 16.8624685,14.2105793 18.5712846,13.4125945 L19.1758186,13.1788413 C19.9576826,12.9289673 20.6186398,12.9209068 21.0942065,12.9692695 C21.5697733,13.0256927 21.8438287,13.138539 21.8438287,13.138539 L21.9405542,13.0982368 L21.9002519,13.0015113 C21.8760705,13.0095718 20.7153652,12.5259446 19.111335,13.0418136 Z M15.4357683,9.01964736 L15.5808564,9.69672544 L15.8629723,9.05994962 L16.5561713,9.1324937 L16.0322418,8.66498741 L16.3143577,8.02821159 L15.7098237,8.38287154 L15.1858942,7.92342569 L15.3309824,8.60050378 L14.7264484,8.95516373 L15.4357683,9.01964736 Z" id="Shape" fill="#EF3827"></path>
            </g>
        </g>
    </g>
</svg>