<?xml version="1.0" encoding="UTF-8"?>
<svg width="32px" height="32px" viewBox="0 0 32 32" version="1.1" xmlns="http://www.w3.org/2000/svg" xmlns:xlink="http://www.w3.org/1999/xlink">
    <!-- Generator: Sketch 50.2 (55047) - http://www.bohemiancoding.com/sketch -->
    <title>iran@1x</title>
    <desc>Created with Sketch.</desc>
    <defs>
        <circle id="path-1" cx="16" cy="16" r="16"></circle>
    </defs>
    <g id="flags" stroke="none" stroke-width="1" fill="none" fill-rule="evenodd">
        <g id="iran">
            <mask id="mask-2" fill="white">
                <use xlink:href="#path-1"></use>
            </mask>
            <g id="Mask"></g>
            <g id="iran-(1)" mask="url(#mask-2)">
                <g transform="translate(-2.000000, -2.000000)">
                    <rect id="Rectangle-path" fill="#F5F5F5" fill-rule="nonzero" x="0" y="11.9960156" width="36" height="12.0079687"></rect>
                    <path d="M28.125,0 L7.875,0 C3.52575,0 0,3.52575 0,7.875 L0,12.0081094 L36,12.0081094 L36,7.875 C36,3.52575 32.47425,0 28.125,0 Z" id="Shape" fill="#73AF00" fill-rule="nonzero"></path>
                    <path d="M0,28.125 C0,32.47425 3.52575,36 7.875,36 L28.125,36 C32.47425,36 36,32.47425 36,28.125 L36,23.9918906 L0,23.9918906 L0,28.125 Z" id="Shape" fill="#FF4B55" fill-rule="nonzero"></path>
                    <g id="Group" stroke-width="1" fill="none" fill-rule="evenodd" transform="translate(0.000000, 9.773438)">
                        <path d="M0.645046875,1.43789062 L0.645046875,1.4293125 C0.645046875,1.34690625 0.57825,1.28017969 0.495914062,1.28017969 L0.180703125,1.28017969 C0.0983671875,1.28017969 0.0315703125,1.21338281 0.0315703125,1.13104687 L0.0315703125,1.114875 C0.0315703125,1.03253906 0.0983671875,0.965742187 0.180703125,0.965742187 L0.798679687,0.965742187 C0.881015625,0.965742187 0.9478125,1.03253906 0.9478125,1.114875 L0.9478125,1.43789062 C0.9478125,1.52022656 1.01460938,1.58702344 1.09694531,1.58702344 L2.34007031,1.58702344 C2.42247656,1.58702344 2.48920312,1.52022656 2.48920312,1.43789062 L2.48920312,0.171 C2.48920312,0.0886640625 2.42240625,0.0218671875 2.34007031,0.0218671875 L2.33170312,0.0218671875 C2.24936719,0.0218671875 2.18257031,0.0886640625 2.18257031,0.171 L2.18257031,1.13104687 C2.18257031,1.21338281 2.11577344,1.28017969 2.0334375,1.28017969 L2.0210625,1.28017969 C1.93872656,1.28017969 1.87192969,1.21338281 1.87192969,1.13104687 L1.87192969,0.171 C1.87192969,0.0886640625 1.80513281,0.0218671875 1.72279688,0.0218671875 L1.71829688,0.0218671875 C1.63589063,0.0218671875 1.56916406,0.0886640625 1.56916406,0.171 L1.56916406,1.13104687 C1.56916406,1.21338281 1.50236719,1.28017969 1.42003125,1.28017969 L1.40765625,1.28017969 C1.32532031,1.28017969 1.25852344,1.21338281 1.25852344,1.13104687 L1.25852344,0.171 C1.25852344,0.0886640625 1.19172656,0.0218671875 1.10939063,0.0218671875 L1.09701562,0.0218671875 C1.01467969,0.0218671875 0.947882813,0.0886640625 0.947882813,0.171 L0.947882813,0.501890625 C0.947882813,0.584226562 0.881085938,0.651023437 0.79875,0.651023437 L0,0.651023437 L0,1.58702344 L0.49584375,1.58702344 C0.57825,1.58702344 0.645046875,1.52029688 0.645046875,1.43789062 Z" id="Shape" fill="#F5F5F5" fill-rule="nonzero"></path>
                        <path d="M8.48221875,0.0218671875 L8.47385156,0.0218671875 C8.39151562,0.0218671875 8.32471875,0.0886640625 8.32471875,0.171 L8.32471875,1.13104688 C8.32471875,1.21338281 8.25792187,1.28017969 8.17558594,1.28017969 L8.17108594,1.28017969 C8.08875,1.28017969 8.02195313,1.21338281 8.02195313,1.13104688 L8.02195313,0.171 C8.02195313,0.0886640625 7.95515625,0.0218671875 7.87282031,0.0218671875 L7.86044531,0.0218671875 C7.77803906,0.0218671875 7.7113125,0.0886640625 7.7113125,0.171 L7.7113125,1.13104688 C7.7113125,1.21338281 7.64451563,1.28017969 7.56217969,1.28017969 L7.54980469,1.28017969 C7.46746875,1.28017969 7.40067188,1.21338281 7.40067188,1.13104688 L7.40067188,0.171 C7.40067188,0.0886640625 7.333875,0.0218671875 7.25153906,0.0218671875 L7.24296094,0.0218671875 C7.160625,0.0218671875 7.09382813,0.0886640625 7.09382813,0.171 L7.09382813,0.501890625 C7.09382813,0.584226562 7.02703125,0.651023438 6.94469531,0.651023438 L6.01621875,0.651023438 C5.93388281,0.651023438 5.86708594,0.717820313 5.86708594,0.80015625 L5.86708594,1.43789063 C5.86708594,1.52022656 5.93388281,1.58702344 6.01621875,1.58702344 L6.64207031,1.58702344 C6.72440625,1.58702344 6.79120312,1.52022656 6.79120312,1.43789063 L6.79120312,1.4293125 C6.79120312,1.34690625 6.72440625,1.28017969 6.64207031,1.28017969 L6.32285156,1.28017969 C6.24051562,1.28017969 6.17371875,1.21338281 6.17371875,1.13104687 L6.17371875,1.114875 C6.17371875,1.03253906 6.24051562,0.965742187 6.32285156,0.965742187 L6.944625,0.965742187 C7.02696094,0.965742187 7.09375781,1.03253906 7.09375781,1.114875 L7.09375781,1.43789062 C7.09375781,1.52022656 7.16055469,1.58702344 7.24289062,1.58702344 L8.48214844,1.58702344 C8.56455469,1.58702344 8.63128125,1.52022656 8.63128125,1.43789062 L8.63128125,0.171 C8.63135156,0.0886640625 8.564625,0.0218671875 8.48221875,0.0218671875 Z" id="Shape" fill="#F5F5F5" fill-rule="nonzero"></path>
                        <path d="M3.66627495,1.78017969 C3.80053315,1.78017969 3.90945313,1.67133459 3.90945313,1.53716869 L3.90945313,1.52319069 C3.90945313,1.38891021 3.80053315,1.28017969 3.66627495,1.28017969 L3.6526313,1.28017969 C3.51825844,1.28017969 3.40945313,1.38891021 3.40945313,1.52319069 L3.40945313,1.53716869 C3.40945313,1.67133459 3.5183731,1.78017969 3.6526313,1.78017969 L3.66627495,1.78017969 Z" id="Shape" fill="#F5F5F5" fill-rule="nonzero"></path>
                        <path d="M2.94517969,0.5219375 L6.64214063,0.5219375 C6.72447656,0.5219375 6.79127344,0.415792249 6.79127344,0.28495426 L6.79127344,0.25892074 C6.79127344,0.128082751 6.72447656,0.0219375 6.64214063,0.0219375 L2.94517969,0.0219375 C2.86284375,0.0219375 2.79604688,0.128082751 2.79604688,0.25892074 L2.79604688,0.28495426 C2.79604688,0.415792249 2.86277344,0.5219375 2.94517969,0.5219375 Z" id="Shape" fill="#F5F5F5" fill-rule="nonzero"></path>
                        <path d="M5.41117969,0.651023437 L4.78940625,0.651023437 C4.70707031,0.651023437 4.64027344,0.717820312 4.64027344,0.80015625 L4.64027344,0.816539062 C4.64027344,0.898875 4.70707031,0.965671875 4.78940625,0.965671875 L5.10461719,0.965671875 C5.18702344,0.965671875 5.25375,1.03246875 5.25375,1.11480469 L5.25375,1.13097656 C5.25375,1.2133125 5.18695313,1.28010938 5.10461719,1.28010938 L4.47876563,1.28010938 C4.39642969,1.28010938 4.32963281,1.2133125 4.32963281,1.13097656 L4.32963281,0.800085938 C4.32963281,0.717679688 4.26283594,0.650953125 4.1805,0.650953125 L2.94517969,0.650953125 C2.86284375,0.650953125 2.79604688,0.71775 2.79604688,0.800085938 L2.79604688,1.43782031 C2.79604688,1.52015625 2.86284375,1.58695313 2.94517969,1.58695313 L2.95354688,1.58695313 C3.03588281,1.58695313 3.10267969,1.52015625 3.10267969,1.43782031 L3.10267969,1.11480469 C3.10267969,1.03246875 3.16947656,0.965671875 3.2518125,0.965671875 L3.87379688,0.965671875 C3.95620313,0.965671875 4.02292969,1.03246875 4.02292969,1.11480469 L4.02292969,1.43782031 C4.02292969,1.52015625 4.08972656,1.58695313 4.1720625,1.58695313 L5.41117969,1.58695313 C5.49351563,1.58695313 5.5603125,1.52015625 5.5603125,1.43782031 L5.5603125,0.800085938 C5.5603125,0.717820313 5.49351562,0.651023437 5.41117969,0.651023437 Z" id="Shape" fill="#F5F5F5" fill-rule="nonzero"></path>
                        <path d="M9.8084937,1.78017969 C9.9427519,1.78017969 10.0516719,1.67133459 10.0516719,1.53716869 L10.0516719,1.52319069 C10.0516719,1.38891021 9.9427519,1.28017969 9.8084937,1.28017969 L9.79485005,1.28017969 C9.66059185,1.28017969 9.55167188,1.38891021 9.55167188,1.52319069 L9.55167188,1.53716869 C9.55167188,1.67133459 9.66059185,1.78017969 9.79485005,1.78017969 L9.8084937,1.78017969 Z" id="Shape" fill="#F5F5F5" fill-rule="nonzero"></path>
                        <path d="M9.08732812,0.5219375 L12.7802109,0.5219375 C12.8625469,0.5219375 12.9293437,0.415792249 12.9293437,0.28495426 L12.9293437,0.25892074 C12.9293437,0.128082751 12.8625469,0.0219375 12.7802109,0.0219375 L9.08732812,0.0219375 C9.00499219,0.0219375 8.93819531,0.128082751 8.93819531,0.25892074 L8.93819531,0.28495426 C8.93819531,0.415792249 9.00499219,0.5219375 9.08732812,0.5219375 Z" id="Shape" fill="#F5F5F5" fill-rule="nonzero"></path>
                        <path d="M14.6244375,0.0218671875 L14.6160703,0.0218671875 C14.5337344,0.0218671875 14.4669375,0.0886640625 14.4669375,0.171 L14.4669375,1.13104688 C14.4669375,1.21338281 14.4001406,1.28017969 14.3178047,1.28017969 L14.3092266,1.28017969 C14.2268906,1.28017969 14.1600937,1.21338281 14.1600937,1.13104688 L14.1600937,0.171 C14.1600937,0.0886640625 14.0932969,0.0218671875 14.0109609,0.0218671875 L13.9985859,0.0218671875 C13.91625,0.0218671875 13.8494531,0.0886640625 13.8494531,0.171 L13.8494531,1.13104688 C13.8494531,1.21338281 13.7826562,1.28017969 13.7003203,1.28017969 L13.6958203,1.28017969 C13.6134141,1.28017969 13.5466875,1.21338281 13.5466875,1.13104688 L13.5466875,0.171 C13.5466875,0.0886640625 13.4798906,0.0218671875 13.3975547,0.0218671875 L13.3891875,0.0218671875 C13.3067812,0.0218671875 13.2400547,0.0886640625 13.2400547,0.171 L13.2400547,0.501890625 C13.2400547,0.584226562 13.1732578,0.651023438 13.0909219,0.651023438 L12.1544297,0.651023438 C12.0720937,0.651023438 12.0052969,0.717820313 12.0052969,0.80015625 L12.0052969,1.43789063 C12.0052969,1.52022656 12.0720937,1.58702344 12.1544297,1.58702344 L12.7802812,1.58702344 C12.8626172,1.58702344 12.9294141,1.52022656 12.9294141,1.43789063 L12.9294141,1.4293125 C12.9294141,1.34690625 12.8626172,1.28017969 12.7802812,1.28017969 L12.4651406,1.28017969 C12.3828047,1.28017969 12.3160078,1.21338281 12.3160078,1.13104687 L12.3160078,1.114875 C12.3160078,1.03253906 12.3828047,0.965742187 12.4651406,0.965742187 L13.0909922,0.965742187 C13.1733281,0.965742187 13.240125,1.03253906 13.240125,1.114875 L13.240125,1.43789062 C13.240125,1.52022656 13.3068516,1.58702344 13.3892578,1.58702344 L14.6245078,1.58702344 C14.7068437,1.58702344 14.7736406,1.52022656 14.7736406,1.43789062 L14.7736406,0.171 C14.7735703,0.0886640625 14.7067734,0.0218671875 14.6244375,0.0218671875 Z" id="Shape" fill="#F5F5F5" fill-rule="nonzero"></path>
                        <path d="M11.5533281,0.651023437 L10.9274766,0.651023437 C10.8451406,0.651023437 10.7783437,0.717820312 10.7783437,0.80015625 L10.7783437,0.816539062 C10.7783437,0.898875 10.8451406,0.965671875 10.9274766,0.965671875 L11.2426875,0.965671875 C11.3250234,0.965671875 11.3918203,1.03246875 11.3918203,1.11480469 L11.3918203,1.13097656 C11.3918203,1.2133125 11.3250234,1.28010938 11.2426875,1.28010938 L10.6209141,1.28010938 C10.5385781,1.28010938 10.4717812,1.2133125 10.4717812,1.13097656 L10.4717812,0.800085938 C10.4717812,0.717679688 10.4049844,0.650953125 10.3226484,0.650953125 L9.08739844,0.650953125 C9.0050625,0.650953125 8.93826562,0.71775 8.93826562,0.800085938 L8.93826562,1.43782031 C8.93826562,1.52015625 9.0050625,1.58695313 9.08739844,1.58695313 L9.09576562,1.58695313 C9.17810156,1.58695313 9.24489844,1.52015625 9.24489844,1.43782031 L9.24489844,1.11480469 C9.24489844,1.03246875 9.31169531,0.965671875 9.39403125,0.965671875 L10.0158047,0.965671875 C10.0981406,0.965671875 10.1649375,1.03246875 10.1649375,1.11480469 L10.1649375,1.43782031 C10.1649375,1.52015625 10.2317344,1.58695313 10.3140703,1.58695313 L11.5533281,1.58695313 C11.6357344,1.58695313 11.7024609,1.52015625 11.7024609,1.43782031 L11.7024609,0.800085938 C11.7024609,0.717820313 11.6357344,0.651023437 11.5533281,0.651023437 Z" id="Shape" fill="#F5F5F5" fill-rule="nonzero"></path>
                        <path d="M20.7666563,0.0218671875 L20.7580781,0.0218671875 C20.6757422,0.0218671875 20.6089453,0.0886640625 20.6089453,0.171 L20.6089453,1.13104688 C20.6089453,1.21338281 20.5421484,1.28017969 20.4598125,1.28017969 L20.4514453,1.28017969 C20.3691094,1.28017969 20.3023125,1.21338281 20.3023125,1.13104688 L20.3023125,0.171 C20.3023125,0.0886640625 20.2355156,0.0218671875 20.1531797,0.0218671875 L20.1448125,0.0218671875 C20.0624766,0.0218671875 19.9956797,0.0886640625 19.9956797,0.171 L19.9956797,1.13104688 C19.9956797,1.21338281 19.9288828,1.28017969 19.8465469,1.28017969 L19.8379688,1.28017969 C19.7556328,1.28017969 19.6888359,1.21338281 19.6888359,1.13104688 L19.6888359,0.171 C19.6888359,0.0886640625 19.6220391,0.0218671875 19.5397031,0.0218671875 L19.5313359,0.0218671875 C19.449,0.0218671875 19.3822031,0.0886640625 19.3822031,0.171 L19.3822031,0.501890625 C19.3822031,0.584226562 19.3154063,0.651023438 19.2330703,0.651023438 L18.3004453,0.651023438 C18.2181094,0.651023438 18.1513125,0.717820313 18.1513125,0.80015625 L18.1513125,1.43789063 C18.1513125,1.52022656 18.2181094,1.58702344 18.3004453,1.58702344 L18.9262969,1.58702344 C19.0086328,1.58702344 19.0754297,1.52022656 19.0754297,1.43789063 L19.0754297,1.4293125 C19.0754297,1.34690625 19.0086328,1.28017969 18.9262969,1.28017969 L18.6072891,1.28017969 C18.5249531,1.28017969 18.4581563,1.21338281 18.4581563,1.13104687 L18.4581563,1.114875 C18.4581563,1.03253906 18.5249531,0.965742187 18.6072891,0.965742187 L19.2331406,0.965742187 C19.3154766,0.965742187 19.3822734,1.03253906 19.3822734,1.114875 L19.3822734,1.43789062 C19.3822734,1.52022656 19.4490703,1.58702344 19.5314063,1.58702344 L20.7666563,1.58702344 C20.8489922,1.58702344 20.9157891,1.52022656 20.9157891,1.43789062 L20.9157891,0.171 C20.9157891,0.0886640625 20.8489922,0.0218671875 20.7666563,0.0218671875 Z" id="Shape" fill="#F5F5F5" fill-rule="nonzero"></path>
                        <path d="M17.6955469,0.651023437 L17.0696953,0.651023437 C16.9873594,0.651023437 16.9205625,0.717820312 16.9205625,0.80015625 L16.9205625,0.816539062 C16.9205625,0.898875 16.9873594,0.965671875 17.0696953,0.965671875 L17.3887031,0.965671875 C17.4710391,0.965671875 17.5378359,1.03246875 17.5378359,1.11480469 L17.5378359,1.13097656 C17.5378359,1.2133125 17.4710391,1.28010938 17.3887031,1.28010938 L16.7668594,1.28010938 C16.6845234,1.28010938 16.6177266,1.2133125 16.6177266,1.13097656 L16.6177266,0.800085938 C16.6177266,0.717679688 16.5509297,0.650953125 16.4685938,0.650953125 L15.2293359,0.650953125 C15.147,0.650953125 15.0802031,0.71775 15.0802031,0.800085938 L15.0802031,1.43782031 C15.0802031,1.52015625 15.147,1.58695313 15.2293359,1.58695313 L15.2379141,1.58695313 C15.32025,1.58695313 15.3870469,1.52015625 15.3870469,1.43782031 L15.3870469,1.11480469 C15.3870469,1.03246875 15.4538438,0.965671875 15.5361797,0.965671875 L16.1579531,0.965671875 C16.2402891,0.965671875 16.3070859,1.03246875 16.3070859,1.11480469 L16.3070859,1.43782031 C16.3070859,1.52015625 16.3738828,1.58695313 16.4562188,1.58695313 L17.6955469,1.58695313 C17.7778828,1.58695313 17.8446797,1.52015625 17.8446797,1.43782031 L17.8446797,0.800085938 C17.8446797,0.717820313 17.7778828,0.651023437 17.6955469,0.651023437 Z" id="Shape" fill="#F5F5F5" fill-rule="nonzero"></path>
                        <path d="M15.2293359,0.5219375 L18.9262266,0.5219375 C19.0085625,0.5219375 19.0753594,0.415792249 19.0753594,0.28495426 L19.0753594,0.25892074 C19.0753594,0.128082751 19.0085625,0.0219375 18.9262266,0.0219375 L15.2293359,0.0219375 C15.147,0.0219375 15.0802031,0.128082751 15.0802031,0.25892074 L15.0802031,0.28495426 C15.0802031,0.415792249 15.147,0.5219375 15.2293359,0.5219375 Z" id="Shape" fill="#F5F5F5" fill-rule="nonzero"></path>
                        <path d="M15.9514032,1.78017969 C16.0873763,1.78017969 16.1976875,1.67133459 16.1976875,1.53716869 L16.1976875,1.52319069 C16.1976875,1.38891021 16.0874924,1.28017969 15.9514032,1.28017969 L15.9439718,1.28017969 C15.8079987,1.28017969 15.6976875,1.38891021 15.6976875,1.52319069 L15.6976875,1.53716869 C15.6976875,1.67133459 15.8079987,1.78017969 15.9439718,1.78017969 L15.9514032,1.78017969 Z" id="Shape" fill="#F5F5F5" fill-rule="nonzero"></path>
                        <path d="M23.8376953,0.651023437 L23.2157109,0.651023437 C23.133375,0.651023437 23.0665781,0.717820312 23.0665781,0.80015625 L23.0665781,0.816539062 C23.0665781,0.898875 23.133375,0.965671875 23.2157109,0.965671875 L23.5270547,0.965671875 C23.6093906,0.965671875 23.6761875,1.03246875 23.6761875,1.11480469 L23.6761875,1.13097656 C23.6761875,1.2133125 23.6093906,1.28010938 23.5270547,1.28010938 L22.9090781,1.28010938 C22.8267422,1.28010938 22.7599453,1.2133125 22.7599453,1.13097656 L22.7599453,0.800085938 C22.7599453,0.717679688 22.6932187,0.650953125 22.6108125,0.650953125 L21.3715547,0.650953125 C21.2892187,0.650953125 21.2224219,0.71775 21.2224219,0.800085938 L21.2224219,1.43782031 C21.2224219,1.52015625 21.2892187,1.58695313 21.3715547,1.58695313 L21.3801328,1.58695313 C21.4625391,1.58695313 21.5292656,1.52015625 21.5292656,1.43782031 L21.5292656,1.11480469 C21.5292656,1.03246875 21.5960625,0.965671875 21.6783984,0.965671875 L22.3002422,0.965671875 C22.3825781,0.965671875 22.449375,1.03246875 22.449375,1.11480469 L22.449375,1.43782031 C22.449375,1.52015625 22.5161719,1.58695313 22.5985078,1.58695313 L23.8377656,1.58695313 C23.9201016,1.58695313 23.9868984,1.52015625 23.9868984,1.43782031 L23.9868984,0.800085938 C23.9868281,0.717820313 23.9201016,0.651023437 23.8376953,0.651023437 Z" id="Shape" fill="#F5F5F5" fill-rule="nonzero"></path>
                        <path d="M26.9088047,0.0218671875 L26.9002266,0.0218671875 C26.8178906,0.0218671875 26.7510938,0.0886640625 26.7510938,0.171 L26.7510938,1.13104688 C26.7510938,1.21338281 26.6842969,1.28017969 26.6019609,1.28017969 L26.5935938,1.28017969 C26.5112578,1.28017969 26.4444609,1.21338281 26.4444609,1.13104688 L26.4444609,0.171 C26.4444609,0.0886640625 26.3776641,0.0218671875 26.2953281,0.0218671875 L26.28675,0.0218671875 C26.2044141,0.0218671875 26.1376172,0.0886640625 26.1376172,0.171 L26.1376172,1.13104688 C26.1376172,1.21338281 26.0708203,1.28017969 25.9884844,1.28017969 L25.9801172,1.28017969 C25.8977813,1.28017969 25.8309844,1.21338281 25.8309844,1.13104688 L25.8309844,0.171 C25.8309844,0.0886640625 25.7641875,0.0218671875 25.6818516,0.0218671875 L25.6732734,0.0218671875 C25.5908672,0.0218671875 25.5241406,0.0886640625 25.5241406,0.171 L25.5241406,0.501890625 C25.5241406,0.584226562 25.4573438,0.651023438 25.3750078,0.651023438 L24.4466016,0.651023438 C24.3641953,0.651023438 24.2974688,0.717820313 24.2974688,0.80015625 L24.2974688,1.43789063 C24.2974688,1.52022656 24.3642656,1.58702344 24.4466016,1.58702344 L25.068375,1.58702344 C25.1507109,1.58702344 25.2175078,1.52022656 25.2175078,1.43789063 L25.2175078,1.4293125 C25.2175078,1.34690625 25.1507109,1.28017969 25.068375,1.28017969 L24.7493672,1.28017969 C24.6670313,1.28017969 24.6002344,1.21338281 24.6002344,1.13104687 L24.6002344,1.114875 C24.6002344,1.03253906 24.6670313,0.965742187 24.7493672,0.965742187 L25.3750078,0.965742187 C25.4573438,0.965742187 25.5241406,1.03253906 25.5241406,1.114875 L25.5241406,1.43789062 C25.5241406,1.52022656 25.5909375,1.58702344 25.6732734,1.58702344 L26.9087344,1.58702344 C26.9911406,1.58702344 27.0578672,1.52022656 27.0578672,1.43789062 L27.0578672,0.171 C27.0579375,0.0886640625 26.9912109,0.0218671875 26.9088047,0.0218671875 Z" id="Shape" fill="#F5F5F5" fill-rule="nonzero"></path>
                        <path d="M22.093622,1.78017969 C22.2295951,1.78017969 22.3399062,1.67133459 22.3399062,1.53716869 L22.3399062,1.52319069 C22.3399062,1.38891021 22.2295951,1.28017969 22.093622,1.28017969 L22.0861905,1.28017969 C21.9501013,1.28017969 21.8399062,1.38891021 21.8399062,1.52319069 L21.8399062,1.53716869 C21.8399062,1.67133459 21.9502174,1.78017969 22.0861905,1.78017969 L22.093622,1.78017969 Z" id="Shape" fill="#F5F5F5" fill-rule="nonzero"></path>
                        <path d="M21.3715547,0.5219375 L25.0685156,0.5219375 C25.1508516,0.5219375 25.2176484,0.415792249 25.2176484,0.28495426 L25.2176484,0.25892074 C25.2176484,0.128082751 25.1508516,0.0219375 25.0685156,0.0219375 L21.3715547,0.0219375 C21.2892187,0.0219375 21.2224219,0.128082751 21.2224219,0.25892074 L21.2224219,0.28495426 C21.2224219,0.415792249 21.2891484,0.5219375 21.3715547,0.5219375 Z" id="Shape" fill="#F5F5F5" fill-rule="nonzero"></path>
                        <path d="M28.2380061,1.78017969 C28.3705322,1.78017969 28.4780469,1.67133459 28.4780469,1.53716869 L28.4780469,1.52319069 C28.4780469,1.38891021 28.3705322,1.28017969 28.2380061,1.28017969 L28.2180876,1.28017969 C28.0855616,1.28017969 27.9780469,1.38891021 27.9780469,1.52319069 L27.9780469,1.53716869 C27.9780469,1.67133459 28.0855616,1.78017969 28.2180876,1.78017969 L28.2380061,1.78017969 Z" id="Shape" fill="#F5F5F5" fill-rule="nonzero"></path>
                        <path d="M27.5137031,0.5219375 L31.2105937,0.5219375 C31.293,0.5219375 31.3597266,0.415792249 31.3597266,0.28495426 L31.3597266,0.25892074 C31.3597266,0.128082751 31.2929297,0.0219375 31.2105937,0.0219375 L27.5137031,0.0219375 C27.4313672,0.0219375 27.3645703,0.128082751 27.3645703,0.25892074 L27.3645703,0.28495426 C27.3645703,0.415792249 27.4313672,0.5219375 27.5137031,0.5219375 Z" id="Shape" fill="#F5F5F5" fill-rule="nonzero"></path>
                        <path d="M33.0508125,0.0218671875 L33.0465234,0.0218671875 C32.9641875,0.0218671875 32.8973906,0.0886640625 32.8973906,0.171 L32.8973906,1.13104688 C32.8973906,1.21338281 32.8305937,1.28017969 32.7482578,1.28017969 L32.7358828,1.28017969 C32.6535469,1.28017969 32.58675,1.21338281 32.58675,1.13104688 L32.58675,0.171 C32.58675,0.0886640625 32.5199531,0.0218671875 32.4376172,0.0218671875 L32.4290391,0.0218671875 C32.3467031,0.0218671875 32.2799063,0.0886640625 32.2799063,0.171 L32.2799063,1.13104688 C32.2799063,1.21338281 32.2131094,1.28017969 32.1307734,1.28017969 L32.1224063,1.28017969 C32.0400703,1.28017969 31.9732734,1.21338281 31.9732734,1.13104688 L31.9732734,0.171 C31.9732734,0.0886640625 31.9064766,0.0218671875 31.8241406,0.0218671875 L31.8155625,0.0218671875 C31.7332266,0.0218671875 31.6664297,0.0886640625 31.6664297,0.171 L31.6664297,0.501890625 C31.6664297,0.584226562 31.5996328,0.651023438 31.5172969,0.651023438 L30.5888906,0.651023438 C30.5065547,0.651023438 30.4397578,0.717820313 30.4397578,0.80015625 L30.4397578,1.43789063 C30.4397578,1.52022656 30.5065547,1.58702344 30.5888906,1.58702344 L31.2106641,1.58702344 C31.2930703,1.58702344 31.3597969,1.52022656 31.3597969,1.43789063 L31.3597969,1.4293125 C31.3597969,1.34690625 31.293,1.28017969 31.2106641,1.28017969 L30.8993203,1.28017969 C30.8169844,1.28017969 30.7501875,1.21338281 30.7501875,1.13104687 L30.7501875,1.114875 C30.7501875,1.03253906 30.8169844,0.965742187 30.8993203,0.965742187 L31.5172969,0.965742187 C31.5996328,0.965742187 31.6664297,1.03253906 31.6664297,1.114875 L31.6664297,1.43789062 C31.6664297,1.52022656 31.7332266,1.58702344 31.8155625,1.58702344 L33.0508125,1.58702344 C33.1331484,1.58702344 33.1999453,1.52022656 33.1999453,1.43789062 L33.1999453,0.171 C33.1999453,0.0886640625 33.1331484,0.0218671875 33.0508125,0.0218671875 Z" id="Shape" fill="#F5F5F5" fill-rule="nonzero"></path>
                        <path d="M29.9799141,0.651023437 L29.3579297,0.651023437 C29.2755937,0.651023437 29.2087969,0.717820312 29.2087969,0.80015625 L29.2087969,0.816539062 C29.2087969,0.898875 29.2755937,0.965671875 29.3579297,0.965671875 L29.6771484,0.965671875 C29.7594844,0.965671875 29.8262812,1.03246875 29.8262812,1.11480469 L29.8262812,1.13097656 C29.8262812,1.2133125 29.7594844,1.28010938 29.6771484,1.28010938 L29.0472891,1.28010938 C28.9648828,1.28010938 28.8981562,1.2133125 28.8981562,1.13097656 L28.8981562,0.800085938 C28.8981562,0.717679688 28.8313594,0.650953125 28.7490234,0.650953125 L27.5137734,0.650953125 C27.4314375,0.650953125 27.3646406,0.71775 27.3646406,0.800085938 L27.3646406,1.43782031 C27.3646406,1.52015625 27.4314375,1.58695313 27.5137734,1.58695313 L27.5223516,1.58695313 C27.6046875,1.58695313 27.6714844,1.52015625 27.6714844,1.43782031 L27.6714844,1.11480469 C27.6714844,1.03246875 27.7382812,0.965671875 27.8206172,0.965671875 L28.4462578,0.965671875 C28.5285937,0.965671875 28.5953906,1.03246875 28.5953906,1.11480469 L28.5953906,1.43782031 C28.5953906,1.52015625 28.6621875,1.58695313 28.7445234,1.58695313 L29.9799844,1.58695313 C30.0623203,1.58695313 30.1291172,1.52015625 30.1291172,1.43782031 L30.1291172,0.800085938 C30.1290469,0.717820313 30.06225,0.651023437 29.9799141,0.651023437 Z" id="Shape" fill="#F5F5F5" fill-rule="nonzero"></path>
                        <path d="M35.3550234,0.800226563 L35.3550234,0.816609375 C35.3550234,0.898945312 35.4218203,0.965742188 35.5041562,0.965742188 L35.8191562,0.965742188 C35.9015625,0.965742188 35.9682891,1.03253906 35.9682891,1.114875 L35.9682891,1.13104688 C35.9682891,1.21338281 35.9014922,1.28017969 35.8191562,1.28017969 L35.1935156,1.28017969 C35.1111797,1.28017969 35.0443828,1.21338281 35.0443828,1.13104688 L35.0443828,0.80015625 C35.0443828,0.71775 34.9775859,0.651023438 34.89525,0.651023438 L33.6597891,0.651023438 C33.5774531,0.651023438 33.5106562,0.717820313 33.5106562,0.80015625 L33.5106562,1.43789063 C33.5106562,1.52022656 33.5774531,1.58702344 33.6597891,1.58702344 L33.6642891,1.58702344 C33.746625,1.58702344 33.8134219,1.52022656 33.8134219,1.43789063 L33.8134219,1.114875 C33.8134219,1.03253906 33.8802187,0.965742188 33.9625547,0.965742188 L34.5845391,0.965742188 C34.6669453,0.965742188 34.7336719,1.03253906 34.7336719,1.114875 L34.7336719,1.43789063 C34.7336719,1.52022656 34.8004687,1.58702344 34.8828047,1.58702344 L36,1.58702344 L36,0.651023438 L35.5041562,0.651023438 C35.42175,0.651023437 35.3550234,0.717820313 35.3550234,0.800226563 Z" id="Shape" fill="#F5F5F5" fill-rule="nonzero"></path>
                        <path d="M33.5105859,0.258850428 L33.5105859,0.284883947 C33.5105859,0.415721936 33.5773828,0.521867188 33.6597187,0.521867188 L36,0.521867188 L36,0.0218671875 L33.6597187,0.0218671875 C33.5773828,0.0218671875 33.5105859,0.128012439 33.5105859,0.258850428 Z" id="Shape" fill="#F5F5F5" fill-rule="nonzero"></path>
                        <path d="M2.48920312,2.38935937 L2.48920312,2.05846875 C2.48920312,1.97613281 2.42240625,1.90933594 2.34007031,1.90933594 L0,1.90933594 L0,2.53849224 L2.34007031,2.53849219 C2.42240625,2.5385625 2.48920312,2.47176562 2.48920312,2.38935937 Z" id="Shape" fill="#F5F5F5" fill-rule="nonzero"></path>
                        <path d="M5.41117969,1.90940625 L2.94517969,1.90940625 C2.86284375,1.90940625 2.79604688,1.97620312 2.79604688,2.05853906 L2.79604688,2.38942969 C2.79604688,2.47183594 2.86284375,2.5385625 2.94517969,2.5385625 L5.41117969,2.5385625 C5.49351563,2.5385625 5.5603125,2.47176563 5.5603125,2.38942969 L5.5603125,2.05853906 C5.5603125,1.97613281 5.49351563,1.90940625 5.41117969,1.90940625 Z" id="Shape" fill="#F5F5F5" fill-rule="nonzero"></path>
                        <path d="M8.48221875,1.90940625 L6.01621875,1.90940625 C5.93388281,1.90940625 5.86708594,1.97620312 5.86708594,2.05853906 L5.86708594,2.38942969 C5.86708594,2.47183594 5.93388281,2.5385625 6.01621875,2.5385625 L8.48221875,2.5385625 C8.564625,2.5385625 8.63135156,2.47176563 8.63135156,2.38942969 L8.63135156,2.05853906 C8.63135156,1.97613281 8.564625,1.90940625 8.48221875,1.90940625 Z" id="Shape" fill="#F5F5F5" fill-rule="nonzero"></path>
                        <path d="M11.5533281,1.90940625 L9.08732812,1.90940625 C9.00499219,1.90940625 8.93819531,1.97620312 8.93819531,2.05853906 L8.93819531,2.38942969 C8.93819531,2.47183594 9.00499219,2.5385625 9.08732812,2.5385625 L11.5533281,2.5385625 C11.6357344,2.5385625 11.7024609,2.47176563 11.7024609,2.38942969 L11.7024609,2.05853906 C11.7024609,1.97613281 11.6357344,1.90940625 11.5533281,1.90940625 Z" id="Shape" fill="#F5F5F5" fill-rule="nonzero"></path>
                        <path d="M14.6244375,1.90940625 L12.1544297,1.90940625 C12.0720938,1.90940625 12.0052969,1.97620312 12.0052969,2.05853906 L12.0052969,2.38942969 C12.0052969,2.47183594 12.0720938,2.5385625 12.1544297,2.5385625 L14.6244375,2.5385625 C14.7067734,2.5385625 14.7735703,2.47176563 14.7735703,2.38942969 L14.7735703,2.05853906 C14.7735703,1.97613281 14.7067734,1.90940625 14.6244375,1.90940625 Z" id="Shape" fill="#F5F5F5" fill-rule="nonzero"></path>
                        <path d="M17.6955469,1.90940625 L15.2293359,1.90940625 C15.147,1.90940625 15.0802031,1.97620312 15.0802031,2.05853906 L15.0802031,2.38942969 C15.0802031,2.47183594 15.147,2.5385625 15.2293359,2.5385625 L17.6955469,2.5385625 C17.7778828,2.5385625 17.8446797,2.47176563 17.8446797,2.38942969 L17.8446797,2.05853906 C17.8446797,1.97613281 17.7778828,1.90940625 17.6955469,1.90940625 Z" id="Shape" fill="#F5F5F5" fill-rule="nonzero"></path>
                        <path d="M20.7666562,1.90940625 L18.3004453,1.90940625 C18.2181094,1.90940625 18.1513125,1.97620312 18.1513125,2.05853906 L18.1513125,2.38942969 C18.1513125,2.47183594 18.2181094,2.5385625 18.3004453,2.5385625 L20.7666562,2.5385625 C20.8489922,2.5385625 20.9157891,2.47176563 20.9157891,2.38942969 L20.9157891,2.05853906 C20.9157891,1.97613281 20.8489922,1.90940625 20.7666562,1.90940625 Z" id="Shape" fill="#F5F5F5" fill-rule="nonzero"></path>
                        <path d="M26.9088047,1.90940625 L24.4466719,1.90940625 C24.3642656,1.90940625 24.2975391,1.97620312 24.2975391,2.05853906 L24.2975391,2.38942969 C24.2975391,2.47183594 24.3643359,2.5385625 24.4466719,2.5385625 L26.9088047,2.5385625 C26.9912109,2.5385625 27.0579375,2.47176563 27.0579375,2.38942969 L27.0579375,2.05853906 C27.0579375,1.97613281 26.9912109,1.90940625 26.9088047,1.90940625 Z" id="Shape" fill="#F5F5F5" fill-rule="nonzero"></path>
                        <path d="M23.8376953,1.90940625 L21.3714844,1.90940625 C21.2891484,1.90940625 21.2223516,1.97620312 21.2223516,2.05853906 L21.2223516,2.38942969 C21.2223516,2.47183594 21.2891484,2.5385625 21.3714844,2.5385625 L23.8376953,2.5385625 C23.9200312,2.5385625 23.9868281,2.47176563 23.9868281,2.38942969 L23.9868281,2.05853906 C23.9868281,1.97613281 23.9201016,1.90940625 23.8376953,1.90940625 Z" id="Shape" fill="#F5F5F5" fill-rule="nonzero"></path>
                        <path d="M29.9799141,1.90940625 L27.5137031,1.90940625 C27.4313672,1.90940625 27.3645703,1.97620312 27.3645703,2.05853906 L27.3645703,2.38942969 C27.3645703,2.47183594 27.4313672,2.5385625 27.5137031,2.5385625 L29.9799141,2.5385625 C30.06225,2.5385625 30.1290469,2.47176563 30.1290469,2.38942969 L30.1290469,2.05853906 C30.1290469,1.97613281 30.06225,1.90940625 29.9799141,1.90940625 Z" id="Shape" fill="#F5F5F5" fill-rule="nonzero"></path>
                        <path d="M33.0508125,1.90940625 L30.5888203,1.90940625 C30.5064844,1.90940625 30.4396875,1.97620312 30.4396875,2.05853906 L30.4396875,2.38942969 C30.4396875,2.47183594 30.5064844,2.5385625 30.5888203,2.5385625 L33.0508125,2.5385625 C33.1331484,2.5385625 33.1999453,2.47176563 33.1999453,2.38942969 L33.1999453,2.05853906 C33.1999453,1.97613281 33.1331484,1.90940625 33.0508125,1.90940625 Z" id="Shape" fill="#F5F5F5" fill-rule="nonzero"></path>
                        <path d="M33.5105859,2.05853906 L33.5105859,2.38942969 C33.5105859,2.47183594 33.5773828,2.5385625 33.6597187,2.5385625 L36,2.5385625 L36,1.90940625 L33.6597187,1.90940625 C33.5773828,1.90940625 33.5105859,1.97613281 33.5105859,2.05853906 Z" id="Shape" fill="#F5F5F5" fill-rule="nonzero"></path>
                        <path d="M35.3550234,15.0152344 L35.3550234,15.0238125 C35.3550234,15.1061484 35.4218203,15.1729453 35.5041562,15.1729453 L35.8193672,15.1729453 C35.9017031,15.1729453 35.9685,15.2397422 35.9685,15.3220781 L35.9685,15.33825 C35.9685,15.4205859 35.9017031,15.4873828 35.8193672,15.4873828 L35.2013906,15.4873828 C35.1190547,15.4873828 35.0522578,15.4205859 35.0522578,15.33825 L35.0522578,15.0152344 C35.0522578,14.9328984 34.9854609,14.8661016 34.903125,14.8661016 L33.66,14.8661016 C33.5776641,14.8661016 33.5108672,14.9328984 33.5108672,15.0152344 L33.5108672,16.282125 C33.5108672,16.3645313 33.5776641,16.4312578 33.66,16.4312578 L33.6683672,16.4312578 C33.7507031,16.4312578 33.8175,16.3644609 33.8175,16.282125 L33.8175,15.3220781 C33.8175,15.2397422 33.8842969,15.1729453 33.9666328,15.1729453 L33.9790078,15.1729453 C34.0613437,15.1729453 34.1281406,15.2397422 34.1281406,15.3220781 L34.1281406,16.282125 C34.1281406,16.3645313 34.1949375,16.4312578 34.2772734,16.4312578 L34.2817734,16.4312578 C34.3641094,16.4312578 34.4309062,16.3644609 34.4309062,16.282125 L34.4309062,15.3220781 C34.4309062,15.2397422 34.4977031,15.1729453 34.5800391,15.1729453 L34.5924141,15.1729453 C34.67475,15.1729453 34.7415469,15.2397422 34.7415469,15.3220781 L34.7415469,16.282125 C34.7415469,16.3645313 34.8083437,16.4312578 34.8906797,16.4312578 L34.9030547,16.4312578 C34.9853906,16.4312578 35.0521875,16.3644609 35.0521875,16.282125 L35.0521875,15.9512344 C35.0521875,15.8688984 35.1189844,15.8021016 35.2013203,15.8021016 L36,15.8021016 L36,14.8661016 L35.5041562,14.8661016 C35.42175,14.8661016 35.3550234,14.9328984 35.3550234,15.0152344 Z" id="Shape" fill="#F5F5F5" fill-rule="nonzero"></path>
                        <path d="M32.5407359,15.3661016 C32.6751087,15.3661016 32.7839141,15.2572565 32.7839141,15.1230906 L32.7839141,15.1091126 C32.7839141,14.9749467 32.6749941,14.8661016 32.5407359,14.8661016 L32.5270922,14.8661016 C32.392834,14.8661016 32.2839141,14.9749467 32.2839141,15.1091126 L32.2839141,15.1230906 C32.2839141,15.2572565 32.392834,15.3661016 32.5270922,15.3661016 L32.5407359,15.3661016 Z" id="Shape" fill="#F5F5F5" fill-rule="nonzero"></path>
                        <path d="M30.1329141,15.6529687 L30.1329141,15.0152344 C30.1329141,14.9328984 30.0661172,14.8661016 29.9837813,14.8661016 L29.3579297,14.8661016 C29.2755938,14.8661016 29.2087969,14.9328984 29.2087969,15.0152344 L29.2087969,15.0238125 C29.2087969,15.1061484 29.2755938,15.1729453 29.3579297,15.1729453 L29.6771484,15.1729453 C29.7594844,15.1729453 29.8262813,15.2397422 29.8262813,15.3220781 L29.8262813,15.33825 C29.8262813,15.4205859 29.7594844,15.4873828 29.6771484,15.4873828 L29.0553047,15.4873828 C28.9729688,15.4873828 28.9061719,15.4205859 28.9061719,15.33825 L28.9061719,15.0152344 C28.9061719,14.9328984 28.839375,14.8661016 28.7570391,14.8661016 L27.5177813,14.8661016 C27.4354453,14.8661016 27.3686484,14.9328984 27.3686484,15.0152344 L27.3686484,16.282125 C27.3686484,16.3645312 27.4354453,16.4312578 27.5177813,16.4312578 L27.5261484,16.4312578 C27.6084844,16.4312578 27.6752813,16.3644609 27.6752813,16.282125 L27.6752813,15.3220781 C27.6752813,15.2397422 27.7420781,15.1729453 27.8244141,15.1729453 L27.8289141,15.1729453 C27.91125,15.1729453 27.9780469,15.2397422 27.9780469,15.3220781 L27.9780469,16.282125 C27.9780469,16.3645312 28.0448438,16.4312578 28.1271797,16.4312578 L28.1395547,16.4312578 C28.2218906,16.4312578 28.2886875,16.3644609 28.2886875,16.282125 L28.2886875,15.3220781 C28.2886875,15.2397422 28.3554844,15.1729453 28.4378203,15.1729453 L28.4501953,15.1729453 C28.5325313,15.1729453 28.5993281,15.2397422 28.5993281,15.3220781 L28.5993281,16.282125 C28.5993281,16.3645312 28.666125,16.4312578 28.7484609,16.4312578 L28.7570391,16.4312578 C28.839375,16.4312578 28.9061719,16.3644609 28.9061719,16.282125 L28.9061719,15.9512344 C28.9061719,15.8688984 28.9729687,15.8021016 29.0553047,15.8021016 L29.9837109,15.8021016 C30.0661172,15.8021016 30.1329141,15.7353047 30.1329141,15.6529687 Z" id="Shape" fill="#F5F5F5" fill-rule="nonzero"></path>
                        <path d="M33.0548203,16.1165391 L29.3578594,16.1165391 C29.2755234,16.1165391 29.2087266,16.2225726 29.2087266,16.3535223 L29.2087266,16.3795558 C29.2087266,16.5105055 29.2755234,16.6165391 29.3578594,16.6165391 L33.0548203,16.6165391 C33.1371562,16.6165391 33.2039531,16.5103938 33.2039531,16.3795558 L33.2039531,16.3535223 C33.2039531,16.2226843 33.1372266,16.1165391 33.0548203,16.1165391 Z" id="Shape" fill="#F5F5F5" fill-rule="nonzero"></path>
                        <path d="M33.0548203,14.8661016 L33.0464531,14.8661016 C32.9641172,14.8661016 32.8973203,14.9328984 32.8973203,15.0152344 L32.8973203,15.33825 C32.8973203,15.4205859 32.8305234,15.4873828 32.7481875,15.4873828 L32.1262031,15.4873828 C32.0437969,15.4873828 31.9770703,15.4205859 31.9770703,15.33825 L31.9770703,15.0152344 C31.9770703,14.9328984 31.9102734,14.8661016 31.8279375,14.8661016 L30.5888906,14.8661016 C30.5065547,14.8661016 30.4397578,14.9328984 30.4397578,15.0152344 L30.4397578,15.6529687 C30.4397578,15.7353047 30.5065547,15.8021016 30.5888906,15.8021016 L31.2106641,15.8021016 C31.2930703,15.8021016 31.3597969,15.7353047 31.3597969,15.6529687 L31.3597969,15.6365859 C31.3597969,15.5541797 31.293,15.4874531 31.2106641,15.4874531 L30.8954531,15.4874531 C30.8131172,15.4874531 30.7463203,15.4206563 30.7463203,15.3383203 L30.7463203,15.3221484 C30.7463203,15.2398125 30.8131172,15.1730156 30.8954531,15.1730156 L31.5213047,15.1730156 C31.6036406,15.1730156 31.6704375,15.2398125 31.6704375,15.3221484 L31.6704375,15.6530391 C31.6704375,15.735375 31.7372344,15.8021719 31.8195703,15.8021719 L33.0548203,15.8021719 C33.1371563,15.8021719 33.2039531,15.735375 33.2039531,15.6530391 L33.2039531,15.0153047 C33.2039531,14.9328984 33.1372266,14.8661016 33.0548203,14.8661016 Z" id="Shape" fill="#F5F5F5" fill-rule="nonzero"></path>
                        <path d="M23.9947031,15.6529687 L23.9947031,15.0152344 C23.9947031,14.9328984 23.9279062,14.8661016 23.8455703,14.8661016 L23.2197187,14.8661016 C23.1373828,14.8661016 23.0705859,14.9328984 23.0705859,15.0152344 L23.0705859,15.0238125 C23.0705859,15.1061484 23.1373828,15.1729453 23.2197187,15.1729453 L23.5349297,15.1729453 C23.6172656,15.1729453 23.6840625,15.2397422 23.6840625,15.3220781 L23.6840625,15.33825 C23.6840625,15.4205859 23.6172656,15.4873828 23.5349297,15.4873828 L22.9090781,15.4873828 C22.8267422,15.4873828 22.7599453,15.4205859 22.7599453,15.33825 L22.7599453,15.0152344 C22.7599453,14.9328984 22.6932187,14.8661016 22.6108125,14.8661016 L21.3755625,14.8661016 C21.2932266,14.8661016 21.2264297,14.9328984 21.2264297,15.0152344 L21.2264297,16.282125 C21.2264297,16.3645312 21.2932266,16.4312578 21.3755625,16.4312578 L21.3839297,16.4312578 C21.4662656,16.4312578 21.5330625,16.3644609 21.5330625,16.282125 L21.5330625,15.3220781 C21.5330625,15.2397422 21.5998594,15.1729453 21.6821953,15.1729453 L21.6907734,15.1729453 C21.7731094,15.1729453 21.8399062,15.2397422 21.8399062,15.3220781 L21.8399062,16.282125 C21.8399062,16.3645312 21.9067031,16.4312578 21.9890391,16.4312578 L22.0014141,16.4312578 C22.08375,16.4312578 22.1505469,16.3644609 22.1505469,16.282125 L22.1505469,15.3220781 C22.1505469,15.2397422 22.2173437,15.1729453 22.2996797,15.1729453 L22.3041797,15.1729453 C22.3865156,15.1729453 22.4533125,15.2397422 22.4533125,15.3220781 L22.4533125,16.282125 C22.4533125,16.3645312 22.5201094,16.4312578 22.6024453,16.4312578 L22.6108125,16.4312578 C22.6931484,16.4312578 22.7599453,16.3644609 22.7599453,16.282125 L22.7599453,15.9512344 C22.7599453,15.8688984 22.8267422,15.8021016 22.9090781,15.8021016 L23.8455703,15.8021016 C23.9279766,15.8021016 23.9947031,15.7353047 23.9947031,15.6529687 Z" id="Shape" fill="#F5F5F5" fill-rule="nonzero"></path>
                        <path d="M26.9126719,16.1165391 L23.2197891,16.1165391 C23.1374531,16.1165391 23.0706562,16.2225726 23.0706562,16.3535223 L23.0706562,16.3795558 C23.0706562,16.5105055 23.1374531,16.6165391 23.2197891,16.6165391 L26.9126719,16.6165391 C26.9950078,16.6165391 27.0618047,16.5103938 27.0618047,16.3795558 L27.0618047,16.3535223 C27.0618047,16.2226843 26.9950078,16.1165391 26.9126719,16.1165391 Z" id="Shape" fill="#F5F5F5" fill-rule="nonzero"></path>
                        <path d="M26.3985171,15.3661016 C26.5327753,15.3661016 26.6416953,15.2572565 26.6416953,15.1230906 L26.6416953,15.1091126 C26.6416953,14.9749467 26.5327753,14.8661016 26.3985171,14.8661016 L26.3848735,14.8661016 C26.2506153,14.8661016 26.1416953,14.9749467 26.1416953,15.1091126 L26.1416953,15.1230906 C26.1416953,15.2572565 26.2506153,15.3661016 26.3848735,15.3661016 L26.3985171,15.3661016 Z" id="Shape" fill="#F5F5F5" fill-rule="nonzero"></path>
                        <path d="M26.9126719,14.8661016 L26.9043047,14.8661016 C26.8219687,14.8661016 26.7551719,14.9328984 26.7551719,15.0152344 L26.7551719,15.33825 C26.7551719,15.4205859 26.688375,15.4873828 26.6060391,15.4873828 L25.9841953,15.4873828 C25.9018594,15.4873828 25.8350625,15.4205859 25.8350625,15.33825 L25.8350625,15.0152344 C25.8350625,14.9328984 25.7682656,14.8661016 25.6859297,14.8661016 L24.4466719,14.8661016 C24.3642656,14.8661016 24.2975391,14.9328984 24.2975391,15.0152344 L24.2975391,15.6529687 C24.2975391,15.7353047 24.3643359,15.8021016 24.4466719,15.8021016 L25.0725234,15.8021016 C25.1548594,15.8021016 25.2216562,15.7353047 25.2216562,15.6529687 L25.2216562,15.6365859 C25.2216562,15.5541797 25.1548594,15.4874531 25.0725234,15.4874531 L24.7573125,15.4874531 C24.6749766,15.4874531 24.6081797,15.4206563 24.6081797,15.3383203 L24.6081797,15.3221484 C24.6081797,15.2398125 24.6749766,15.1730156 24.7573125,15.1730156 L25.3791562,15.1730156 C25.4614922,15.1730156 25.5282891,15.2398125 25.5282891,15.3221484 L25.5282891,15.6530391 C25.5282891,15.735375 25.5950859,15.8021719 25.6774219,15.8021719 L26.9126719,15.8021719 C26.9950078,15.8021719 27.0618047,15.735375 27.0618047,15.6530391 L27.0618047,15.0153047 C27.0618047,14.9328984 26.9950078,14.8661016 26.9126719,14.8661016 Z" id="Shape" fill="#F5F5F5" fill-rule="nonzero"></path>
                        <path d="M17.8486875,15.6529687 L17.8486875,15.0152344 C17.8486875,14.9328984 17.7818906,14.8661016 17.6995547,14.8661016 L17.0737031,14.8661016 C16.9913672,14.8661016 16.9245703,14.9328984 16.9245703,15.0152344 L16.9245703,15.0238125 C16.9245703,15.1061484 16.9913672,15.1729453 17.0737031,15.1729453 L17.3927109,15.1729453 C17.4751172,15.1729453 17.5418438,15.2397422 17.5418438,15.3220781 L17.5418438,15.33825 C17.5418438,15.4205859 17.4750469,15.4873828 17.3927109,15.4873828 L16.7668594,15.4873828 C16.6845234,15.4873828 16.6177266,15.4205859 16.6177266,15.33825 L16.6177266,15.0152344 C16.6177266,14.9328984 16.5509297,14.8661016 16.4685938,14.8661016 L15.2333438,14.8661016 C15.1510078,14.8661016 15.0842109,14.9328984 15.0842109,15.0152344 L15.0842109,16.282125 C15.0842109,16.3645312 15.1510078,16.4312578 15.2333438,16.4312578 L15.2419219,16.4312578 C15.3242578,16.4312578 15.3910547,16.3644609 15.3910547,16.282125 L15.3910547,15.3220781 C15.3910547,15.2397422 15.4578516,15.1729453 15.5401875,15.1729453 L15.5485547,15.1729453 C15.6308906,15.1729453 15.6976875,15.2397422 15.6976875,15.3220781 L15.6976875,16.282125 C15.6976875,16.3645312 15.7644844,16.4312578 15.8468203,16.4312578 L15.8551875,16.4312578 C15.9375234,16.4312578 16.0043203,16.3644609 16.0043203,16.282125 L16.0043203,15.3220781 C16.0043203,15.2397422 16.0711172,15.1729453 16.1534531,15.1729453 L16.1620313,15.1729453 C16.2443672,15.1729453 16.3111641,15.2397422 16.3111641,15.3220781 L16.3111641,16.282125 C16.3111641,16.3645312 16.3779609,16.4312578 16.4602969,16.4312578 L16.4686641,16.4312578 C16.551,16.4312578 16.6177969,16.3644609 16.6177969,16.282125 L16.6177969,15.9512344 C16.6177969,15.8688984 16.6845938,15.8021016 16.7669297,15.8021016 L17.6995547,15.8021016 C17.7819609,15.8021016 17.8486875,15.7353047 17.8486875,15.6529687 Z" id="Shape" fill="#F5F5F5" fill-rule="nonzero"></path>
                        <path d="M20.2532626,15.3661016 C20.3892357,15.3661016 20.4995469,15.2572565 20.4995469,15.1230906 L20.4995469,15.1091126 C20.4995469,14.9749467 20.3892357,14.8661016 20.2532626,14.8661016 L20.2458311,14.8661016 C20.109742,14.8661016 19.9995469,14.9749467 19.9995469,15.1091126 L19.9995469,15.1230906 C19.9995469,15.2572565 20.109742,15.3661016 20.2458311,15.3661016 L20.2532626,15.3661016 Z" id="Shape" fill="#F5F5F5" fill-rule="nonzero"></path>
                        <path d="M20.7706641,14.8661016 L20.7620859,14.8661016 C20.67975,14.8661016 20.6129531,14.9328984 20.6129531,15.0152344 L20.6129531,15.33825 C20.6129531,15.4205859 20.5461562,15.4873828 20.4638203,15.4873828 L19.8420469,15.4873828 C19.7596406,15.4873828 19.6929141,15.4205859 19.6929141,15.33825 L19.6929141,15.0152344 C19.6929141,14.9328984 19.6261172,14.8661016 19.5437813,14.8661016 L18.3044531,14.8661016 C18.2221172,14.8661016 18.1553203,14.9328984 18.1553203,15.0152344 L18.1553203,15.6529687 C18.1553203,15.7353047 18.2221172,15.8021016 18.3044531,15.8021016 L18.9303047,15.8021016 C19.0126406,15.8021016 19.0794375,15.7353047 19.0794375,15.6529687 L19.0794375,15.6365859 C19.0794375,15.5541797 19.0126406,15.4874531 18.9303047,15.4874531 L18.6112969,15.4874531 C18.5289609,15.4874531 18.4621641,15.4206563 18.4621641,15.3383203 L18.4621641,15.3221484 C18.4621641,15.2398125 18.5289609,15.1730156 18.6112969,15.1730156 L19.2330703,15.1730156 C19.3154063,15.1730156 19.3822031,15.2398125 19.3822031,15.3221484 L19.3822031,15.6530391 C19.3822031,15.735375 19.449,15.8021719 19.5313359,15.8021719 L20.7705937,15.8021719 C20.8529297,15.8021719 20.9197266,15.735375 20.9197266,15.6530391 L20.9197266,15.0153047 C20.9197969,14.9328984 20.853,14.8661016 20.7706641,14.8661016 Z" id="Shape" fill="#F5F5F5" fill-rule="nonzero"></path>
                        <path d="M20.7706641,16.1165391 L17.0737031,16.1165391 C16.9913672,16.1165391 16.9245703,16.2225726 16.9245703,16.3535223 L16.9245703,16.3795558 C16.9245703,16.5105055 16.9913672,16.6165391 17.0737031,16.6165391 L20.7706641,16.6165391 C20.853,16.6165391 20.9197969,16.5103938 20.9197969,16.3795558 L20.9197969,16.3535223 C20.9197969,16.2226843 20.853,16.1165391 20.7706641,16.1165391 Z" id="Shape" fill="#F5F5F5" fill-rule="nonzero"></path>
                        <path d="M14.6284453,14.8661016 L14.6198672,14.8661016 C14.5374609,14.8661016 14.4707344,14.9328984 14.4707344,15.0152344 L14.4707344,15.33825 C14.4707344,15.4205859 14.4039375,15.4873828 14.3216016,15.4873828 L13.6997578,15.4873828 C13.6174219,15.4873828 13.550625,15.4205859 13.550625,15.33825 L13.550625,15.0152344 C13.550625,14.9328984 13.4838281,14.8661016 13.4014922,14.8661016 L12.1621641,14.8661016 C12.0798281,14.8661016 12.0130312,14.9328984 12.0130312,15.0152344 L12.0130312,15.6529687 C12.0130312,15.7353047 12.0798281,15.8021016 12.1621641,15.8021016 L12.7841484,15.8021016 C12.8664844,15.8021016 12.9332813,15.7353047 12.9332813,15.6529687 L12.9332813,15.6365859 C12.9332813,15.5541797 12.8664844,15.4874531 12.7841484,15.4874531 L12.4728047,15.4874531 C12.3904688,15.4874531 12.3236719,15.4206563 12.3236719,15.3383203 L12.3236719,15.3221484 C12.3236719,15.2398125 12.3904687,15.1730156 12.4728047,15.1730156 L13.0907812,15.1730156 C13.1731172,15.1730156 13.2399141,15.2398125 13.2399141,15.3221484 L13.2399141,15.6530391 C13.2399141,15.735375 13.3066406,15.8021719 13.3890469,15.8021719 L14.6283047,15.8021719 C14.7106406,15.8021719 14.7774375,15.735375 14.7774375,15.6530391 L14.7774375,15.0153047 C14.7775781,14.9328984 14.7108516,14.8661016 14.6284453,14.8661016 Z" id="Shape" fill="#F5F5F5" fill-rule="nonzero"></path>
                        <path d="M14.1110439,15.3661016 C14.2470169,15.3661016 14.3573281,15.2572565 14.3573281,15.1230906 L14.3573281,15.1091126 C14.3573281,14.9749467 14.2470169,14.8661016 14.1110439,14.8661016 L14.1036124,14.8661016 C13.9676393,14.8661016 13.8573281,14.9749467 13.8573281,15.1091126 L13.8573281,15.1230906 C13.8573281,15.2572565 13.9676393,15.3661016 14.1036124,15.3661016 L14.1110439,15.3661016 Z" id="Shape" fill="#F5F5F5" fill-rule="nonzero"></path>
                        <path d="M14.6284453,16.1165391 L10.9314844,16.1165391 C10.8491484,16.1165391 10.7823516,16.2225726 10.7823516,16.3535223 L10.7823516,16.3795558 C10.7823516,16.5105055 10.8491484,16.6165391 10.9314844,16.6165391 L14.6284453,16.6165391 C14.7107813,16.6165391 14.7775781,16.5103938 14.7775781,16.3795558 L14.7775781,16.3535223 C14.7775781,16.2226843 14.7108516,16.1165391 14.6284453,16.1165391 Z" id="Shape" fill="#F5F5F5" fill-rule="nonzero"></path>
                        <path d="M11.7024609,15.6529687 L11.7024609,15.0152344 C11.7024609,14.9328984 11.6356641,14.8661016 11.5533281,14.8661016 L10.9315547,14.8661016 C10.8492188,14.8661016 10.7824219,14.9328984 10.7824219,15.0152344 L10.7824219,15.0238125 C10.7824219,15.1061484 10.8492187,15.1729453 10.9315547,15.1729453 L11.2505625,15.1729453 C11.3328984,15.1729453 11.3996953,15.2397422 11.3996953,15.3220781 L11.3996953,15.33825 C11.3996953,15.4205859 11.3328984,15.4873828 11.2505625,15.4873828 L10.6249219,15.4873828 C10.5425859,15.4873828 10.4757891,15.4205859 10.4757891,15.33825 L10.4757891,15.0152344 C10.4757891,14.9328984 10.4089922,14.8661016 10.3266562,14.8661016 L9.09119531,14.8661016 C9.00885938,14.8661016 8.9420625,14.9328984 8.9420625,15.0152344 L8.9420625,16.282125 C8.9420625,16.3645312 9.00885938,16.4312578 9.09119531,16.4312578 L9.09977344,16.4312578 C9.18210938,16.4312578 9.24890625,16.3644609 9.24890625,16.282125 L9.24890625,15.3220781 C9.24890625,15.2397422 9.31570313,15.1729453 9.39803906,15.1729453 L9.40640625,15.1729453 C9.48874219,15.1729453 9.55553906,15.2397422 9.55553906,15.3220781 L9.55553906,16.282125 C9.55553906,16.3645312 9.62233594,16.4312578 9.70467188,16.4312578 L9.71325,16.4312578 C9.79558594,16.4312578 9.86238281,16.3644609 9.86238281,16.282125 L9.86238281,15.3220781 C9.86238281,15.2397422 9.92910938,15.1729453 10.0115156,15.1729453 L10.0198828,15.1729453 C10.1022188,15.1729453 10.1690156,15.2397422 10.1690156,15.3220781 L10.1690156,16.282125 C10.1690156,16.3645312 10.2358125,16.4312578 10.3181484,16.4312578 L10.3267266,16.4312578 C10.4090625,16.4312578 10.4758594,16.3644609 10.4758594,16.282125 L10.4758594,15.9512344 C10.4758594,15.8688984 10.5426563,15.8021016 10.6249922,15.8021016 L11.5533984,15.8021016 C11.6357344,15.8021016 11.7024609,15.7353047 11.7024609,15.6529687 Z" id="Shape" fill="#F5F5F5" fill-rule="nonzero"></path>
                        <path d="M7.97127176,15.3661016 C8.10379779,15.3661016 8.2113125,15.2572565 8.2113125,15.1230906 L8.2113125,15.1091126 C8.2113125,14.9749467 8.10379779,14.8661016 7.97127176,14.8661016 L7.95135324,14.8661016 C7.81871404,14.8661016 7.7113125,14.9749467 7.7113125,15.1091126 L7.7113125,15.1230906 C7.7113125,15.2572565 7.81882721,15.3661016 7.95135324,15.3661016 L7.97127176,15.3661016 Z" id="Shape" fill="#F5F5F5" fill-rule="nonzero"></path>
                        <path d="M8.48629688,14.8661016 L8.47771875,14.8661016 C8.3953125,14.8661016 8.32858594,14.9328984 8.32858594,15.0152344 L8.32858594,15.33825 C8.32858594,15.4205859 8.26178906,15.4873828 8.17945313,15.4873828 L7.5538125,15.4873828 C7.47140625,15.4873828 7.40467969,15.4205859 7.40467969,15.33825 L7.40467969,15.0152344 C7.40467969,14.9328984 7.33788281,14.8661016 7.25554688,14.8661016 L6.02008594,14.8661016 C5.93767969,14.8661016 5.87095313,14.9328984 5.87095313,15.0152344 L5.87095313,15.6529687 C5.87095313,15.7353047 5.93775,15.8021016 6.02008594,15.8021016 L6.64207031,15.8021016 C6.72440625,15.8021016 6.79120313,15.7353047 6.79120313,15.6529687 L6.79120313,15.6365859 C6.79120313,15.5541797 6.72440625,15.4874531 6.64207031,15.4874531 L6.32285156,15.4874531 C6.24051562,15.4874531 6.17371875,15.4206563 6.17371875,15.3383203 L6.17371875,15.3221484 C6.17371875,15.2398125 6.24051563,15.1730156 6.32285156,15.1730156 L6.95271094,15.1730156 C7.03511719,15.1730156 7.10184375,15.2398125 7.10184375,15.3221484 L7.10184375,15.6530391 C7.10184375,15.735375 7.16864062,15.8021719 7.25097656,15.8021719 L8.48622656,15.8021719 C8.5685625,15.8021719 8.63535937,15.735375 8.63535937,15.6530391 L8.63535937,15.0153047 C8.63542969,14.9328984 8.56863281,14.8661016 8.48629688,14.8661016 Z" id="Shape" fill="#F5F5F5" fill-rule="nonzero"></path>
                        <path d="M5.5603125,15.6529687 L5.5603125,15.0152344 C5.5603125,14.9328984 5.49351562,14.8661016 5.41117969,14.8661016 L4.78940625,14.8661016 C4.70707031,14.8661016 4.64027344,14.9328984 4.64027344,15.0152344 L4.64027344,15.0238125 C4.64027344,15.1061484 4.70707031,15.1729453 4.78940625,15.1729453 L5.10075,15.1729453 C5.18308594,15.1729453 5.24988281,15.2397422 5.24988281,15.3220781 L5.24988281,15.33825 C5.24988281,15.4205859 5.18308594,15.4873828 5.10075,15.4873828 L4.48277344,15.4873828 C4.4004375,15.4873828 4.33364062,15.4205859 4.33364062,15.33825 L4.33364062,15.0152344 C4.33364062,14.9328984 4.26684375,14.8661016 4.18450781,14.8661016 L2.9491875,14.8661016 C2.86685156,14.8661016 2.80005469,14.9328984 2.80005469,15.0152344 L2.80005469,16.282125 C2.80005469,16.3645312 2.86685156,16.4312578 2.9491875,16.4312578 L2.95354687,16.4312578 C3.03588281,16.4312578 3.10267969,16.3644609 3.10267969,16.282125 L3.10267969,15.3220781 C3.10267969,15.2397422 3.16947656,15.1729453 3.2518125,15.1729453 L3.2641875,15.1729453 C3.34652344,15.1729453 3.41332031,15.2397422 3.41332031,15.3220781 L3.41332031,16.282125 C3.41332031,16.3645312 3.48011719,16.4312578 3.56245313,16.4312578 L3.57103125,16.4312578 C3.65336719,16.4312578 3.72016406,16.3644609 3.72016406,16.282125 L3.72016406,15.3220781 C3.72016406,15.2397422 3.78696094,15.1729453 3.86929688,15.1729453 L3.87766406,15.1729453 C3.96,15.1729453 4.02679688,15.2397422 4.02679688,15.3220781 L4.02679688,16.282125 C4.02679688,16.3645312 4.09359375,16.4312578 4.17592969,16.4312578 L4.18450781,16.4312578 C4.26684375,16.4312578 4.33364063,16.3644609 4.33364063,16.282125 L4.33364063,15.9512344 C4.33364063,15.8688984 4.4004375,15.8021016 4.48277344,15.8021016 L5.41117969,15.8021016 C5.49351562,15.8021016 5.5603125,15.7353047 5.5603125,15.6529687 Z" id="Shape" fill="#F5F5F5" fill-rule="nonzero"></path>
                        <path d="M8.48629687,16.1165391 L4.78933594,16.1165391 C4.707,16.1165391 4.64020313,16.2225726 4.64020313,16.3535223 L4.64020313,16.3795558 C4.64020313,16.5105055 4.707,16.6165391 4.78933594,16.6165391 L8.48629687,16.6165391 C8.56863281,16.6165391 8.63542969,16.5103938 8.63542969,16.3795558 L8.63542969,16.3535223 C8.63542969,16.2226843 8.56863281,16.1165391 8.48629687,16.1165391 Z" id="Shape" fill="#F5F5F5" fill-rule="nonzero"></path>
                        <path d="M0.645046875,15.6529687 L0.645046875,15.6365859 C0.645046875,15.5541797 0.57825,15.4874531 0.495914062,15.4874531 L0.180914062,15.4874531 C0.098578125,15.4874531 0.03178125,15.4206562 0.03178125,15.3383203 L0.03178125,15.3221484 C0.03178125,15.2398125 0.098578125,15.1730156 0.180914062,15.1730156 L0.806554687,15.1730156 C0.888960937,15.1730156 0.9556875,15.2398125 0.9556875,15.3221484 L0.9556875,15.6530391 C0.9556875,15.735375 1.02248437,15.8021719 1.10482031,15.8021719 L2.34028125,15.8021719 C2.42261719,15.8021719 2.48941406,15.735375 2.48941406,15.6530391 L2.48941406,15.0153047 C2.48941406,14.9329687 2.42261719,14.8661719 2.34028125,14.8661719 L2.33578125,14.8661719 C2.25344531,14.8661719 2.18664844,14.9329687 2.18664844,15.0153047 L2.18664844,15.3383203 C2.18664844,15.4206562 2.11985156,15.4874531 2.03751562,15.4874531 L1.41553125,15.4874531 C1.33319531,15.4874531 1.26639844,15.4206562 1.26639844,15.3383203 L1.26639844,15.0153047 C1.26639844,14.9329687 1.19960156,14.8661719 1.11726563,14.8661719 L0,14.8661719 L0,15.8021719 L0.49584375,15.8021719 C0.57825,15.8021016 0.645046875,15.7353047 0.645046875,15.6529687 Z" id="Shape" fill="#F5F5F5" fill-rule="nonzero"></path>
                        <path d="M2.48941406,16.3796261 L2.48941406,16.3535926 C2.48941406,16.2226429 2.42261719,16.1166094 2.34028125,16.1166094 L0,16.1166094 L0,16.6166094 L2.34028125,16.6166094 C2.42261719,16.6166094 2.48941406,16.5104641 2.48941406,16.3796261 Z" id="Shape" fill="#F5F5F5" fill-rule="nonzero"></path>
                        <path d="M33.5107969,14.0637656 L33.5107969,14.3946563 C33.5107969,14.4769922 33.5775937,14.5437891 33.6599297,14.5437891 L36,14.5437891 L36,13.9146328 L33.6599297,13.9146328 C33.5775937,13.9146328 33.5107969,13.9813594 33.5107969,14.0637656 Z" id="Shape" fill="#F5F5F5" fill-rule="nonzero"></path>
                        <path d="M27.5177812,14.5437891 L29.9837812,14.5437891 C30.0661172,14.5437891 30.1329141,14.4769922 30.1329141,14.3946563 L30.1329141,14.0637656 C30.1329141,13.9814297 30.0661172,13.9146328 29.9837812,13.9146328 L27.5177812,13.9146328 C27.4354453,13.9146328 27.3686484,13.9814297 27.3686484,14.0637656 L27.3686484,14.3946563 C27.3685781,14.4769922 27.435375,14.5437891 27.5177812,14.5437891 Z" id="Shape" fill="#F5F5F5" fill-rule="nonzero"></path>
                        <path d="M33.0548203,13.9146328 L30.5888203,13.9146328 C30.5064844,13.9146328 30.4396875,13.9814297 30.4396875,14.0637656 L30.4396875,14.3946563 C30.4396875,14.4769922 30.5064844,14.5437891 30.5888203,14.5437891 L33.0548203,14.5437891 C33.1371562,14.5437891 33.2039531,14.4769922 33.2039531,14.3946563 L33.2039531,14.0637656 C33.2039531,13.9813594 33.1372266,13.9146328 33.0548203,13.9146328 Z" id="Shape" fill="#F5F5F5" fill-rule="nonzero"></path>
                        <path d="M26.9126719,13.9146328 L24.4466719,13.9146328 C24.3642656,13.9146328 24.2975391,13.9814297 24.2975391,14.0637656 L24.2975391,14.3946563 C24.2975391,14.4769922 24.3643359,14.5437891 24.4466719,14.5437891 L26.9126719,14.5437891 C26.9950078,14.5437891 27.0618047,14.4769922 27.0618047,14.3946563 L27.0618047,14.0637656 C27.0618047,13.9813594 26.9950078,13.9146328 26.9126719,13.9146328 Z" id="Shape" fill="#F5F5F5" fill-rule="nonzero"></path>
                        <path d="M21.3755625,14.5437891 L23.8455703,14.5437891 C23.9279766,14.5437891 23.9947031,14.4769922 23.9947031,14.3946563 L23.9947031,14.0637656 C23.9947031,13.9814297 23.9279062,13.9146328 23.8455703,13.9146328 L21.3755625,13.9146328 C21.2932266,13.9146328 21.2264297,13.9814297 21.2264297,14.0637656 L21.2264297,14.3946563 C21.2264297,14.4769922 21.2931563,14.5437891 21.3755625,14.5437891 Z" id="Shape" fill="#F5F5F5" fill-rule="nonzero"></path>
                        <path d="M15.2333438,14.5437891 L17.6995547,14.5437891 C17.7818906,14.5437891 17.8486875,14.4769922 17.8486875,14.3946563 L17.8486875,14.0637656 C17.8486875,13.9814297 17.7818906,13.9146328 17.6995547,13.9146328 L15.2333438,13.9146328 C15.1510078,13.9146328 15.0842109,13.9814297 15.0842109,14.0637656 L15.0842109,14.3946563 C15.0842109,14.4769922 15.1510078,14.5437891 15.2333438,14.5437891 Z" id="Shape" fill="#F5F5F5" fill-rule="nonzero"></path>
                        <path d="M20.7706641,13.9146328 L18.3044531,13.9146328 C18.2221172,13.9146328 18.1553203,13.9814297 18.1553203,14.0637656 L18.1553203,14.3946563 C18.1553203,14.4769922 18.2221172,14.5437891 18.3044531,14.5437891 L20.7706641,14.5437891 C20.853,14.5437891 20.9197969,14.4769922 20.9197969,14.3946563 L20.9197969,14.0637656 C20.9197969,13.9813594 20.853,13.9146328 20.7706641,13.9146328 Z" id="Shape" fill="#F5F5F5" fill-rule="nonzero"></path>
                        <path d="M14.6284453,13.9146328 L12.1622344,13.9146328 C12.0798984,13.9146328 12.0131016,13.9814297 12.0131016,14.0637656 L12.0131016,14.3946563 C12.0131016,14.4769922 12.0798984,14.5437891 12.1622344,14.5437891 L14.6284453,14.5437891 C14.7107813,14.5437891 14.7775781,14.4769922 14.7775781,14.3946563 L14.7775781,14.0637656 C14.7775781,13.9813594 14.7108516,13.9146328 14.6284453,13.9146328 Z" id="Shape" fill="#F5F5F5" fill-rule="nonzero"></path>
                        <path d="M9.09119531,14.5437891 L11.5533281,14.5437891 C11.6357344,14.5437891 11.7024609,14.4769922 11.7024609,14.3946563 L11.7024609,14.0637656 C11.7024609,13.9814297 11.6356641,13.9146328 11.5533281,13.9146328 L9.09119531,13.9146328 C9.00885938,13.9146328 8.9420625,13.9814297 8.9420625,14.0637656 L8.9420625,14.3946563 C8.9420625,14.4769922 9.00878906,14.5437891 9.09119531,14.5437891 Z" id="Shape" fill="#F5F5F5" fill-rule="nonzero"></path>
                        <path d="M8.48629688,13.9146328 L6.02008594,13.9146328 C5.93767969,13.9146328 5.87095313,13.9814297 5.87095313,14.0637656 L5.87095313,14.3946563 C5.87095313,14.4769922 5.93775,14.5437891 6.02008594,14.5437891 L8.48629688,14.5437891 C8.56863281,14.5437891 8.63542969,14.4769922 8.63542969,14.3946563 L8.63542969,14.0637656 C8.63542969,13.9813594 8.56863281,13.9146328 8.48629688,13.9146328 Z" id="Shape" fill="#F5F5F5" fill-rule="nonzero"></path>
                        <path d="M2.9491875,14.5437891 L5.41117969,14.5437891 C5.49351563,14.5437891 5.5603125,14.4769922 5.5603125,14.3946563 L5.5603125,14.0637656 C5.5603125,13.9814297 5.49351562,13.9146328 5.41117969,13.9146328 L2.9491875,13.9146328 C2.86685156,13.9146328 2.80005469,13.9814297 2.80005469,14.0637656 L2.80005469,14.3946563 C2.80005469,14.4769922 2.86685156,14.5437891 2.9491875,14.5437891 Z" id="Shape" fill="#F5F5F5" fill-rule="nonzero"></path>
                        <path d="M2.48941406,14.3946563 L2.48941406,14.0637656 C2.48941406,13.9814297 2.42261719,13.9146328 2.34028125,13.9146328 L0,13.9146328 L0,14.5437891 L2.34028125,14.5437891 C2.42261719,14.5437891 2.48941406,14.4769922 2.48941406,14.3946563 Z" id="Shape" fill="#F5F5F5" fill-rule="nonzero"></path>
                    </g>
                    <g id="Group" stroke-width="1" fill="none" fill-rule="evenodd" transform="translate(13.570312, 13.710938)">
                        <path d="M3.81564844,0.779132812 C4.0359375,0.837914063 4.27092187,0.773226562 4.43235937,0.608765625 C4.6760625,0.855492187 5.0754375,0.861328125 5.328,0.620648437 C5.49253125,0.462023437 5.56003125,0.221132813 5.50125,0.0039375 C5.28700781,0.350507812 4.8346875,0.46209375 4.48811719,0.244757812 C4.47053906,0.232945312 4.44705469,0.221132812 4.43235937,0.209460937 C4.10639062,0.45028125 3.64542187,0.385664062 3.39869531,0.06271875 C3.38983594,0.0449296875 3.37225781,0.021515625 3.36051562,0.0039375 C3.27241406,0.344601563 3.4779375,0.696867188 3.81564844,0.779132812 Z" id="Shape" fill="#FF4B55" fill-rule="nonzero"></path>
                        <path d="M5.18371875,7.64015625 C5.97311719,7.20682031 6.631875,6.52394531 6.99307031,5.62464844 C7.60816406,4.08304688 7.2208125,2.34302344 6.04420313,1.21436719 C6.00377344,1.17555469 5.94232031,1.22744531 5.97164063,1.27525781 C7.13214844,3.16771875 6.67497656,5.65474219 4.87919531,7.01746875 L4.96504688,1.52008594 C4.96624219,1.44541406 4.93298438,1.37439844 4.87490625,1.32742969 L4.58289844,1.09139063 C4.49346094,1.01910938 4.3655625,1.01946094 4.27654688,1.09223438 L3.98875781,1.3275 C3.9313125,1.37446875 3.89854688,1.4450625 3.89967188,1.51917188 L3.9830625,7.02049219 C2.187,5.65839844 1.72884375,3.16919531 2.88752344,1.27539844 C2.91677344,1.22758594 2.85532031,1.17576563 2.81489063,1.21457813 C1.64046094,2.34323438 1.25071875,4.08311719 1.86574219,5.62464844 C2.2269375,6.52394531 2.885625,7.20675 3.67523438,7.64008594 C3.17278125,7.81228125 2.64459375,7.90361719 2.1105,7.88828906 C2.05410938,7.88667188 2.04271875,7.96605469 2.09671875,7.9824375 C2.77523438,8.18838281 3.47308594,8.20258594 4.12924219,8.05549219 L4.38686719,8.55534375 C4.40465625,8.58986719 4.45401563,8.5899375 4.47194531,8.55548438 L4.73132813,8.05591406 C5.38755469,8.20272656 6.08561719,8.1883125 6.764625,7.9824375 C6.818625,7.96605469 6.80730469,7.88674219 6.75091406,7.88835938 C6.21646875,7.90354688 5.68701563,7.81228125 5.18371875,7.64015625 Z" id="Shape" fill="#FF4B55" fill-rule="nonzero"></path>
                        <path d="M8.39685937,2.52942188 C7.99284375,1.77454688 7.32185156,1.20248438 6.52317187,0.92221875 C6.47310937,0.904640625 6.43408594,0.970734375 6.47500781,1.00441406 C8.23823437,2.45692969 8.59169531,5.04386719 7.228125,6.91678125 C7.15760156,7.01078906 7.08124219,7.11063281 7.00783594,7.1926875 C8.68176562,6.29423438 9.30135937,4.20335156 8.39685937,2.52942188 Z" id="Shape" fill="#FF4B55" fill-rule="nonzero"></path>
                        <path d="M1.63378125,6.91685156 C0.270210937,5.0439375 0.620859375,2.45707031 2.38380469,1.00455469 C2.42472656,0.970804688 2.38570312,0.90478125 2.33564062,0.922359375 C1.53794531,1.20269531 0.871664062,1.7746875 0.464976562,2.52949219 C-0.445289063,4.20342188 0.180210937,6.29430469 1.85695312,7.19282813 C1.77771094,7.11063281 1.70135156,7.01085938 1.63378125,6.91685156 Z" id="Shape" fill="#FF4B55" fill-rule="nonzero"></path>
                    </g>
                </g>
            </g>
        </g>
    </g>
</svg>