<?xml version="1.0" encoding="UTF-8"?>
<svg width="32px" height="32px" viewBox="0 0 32 32" version="1.1" xmlns="http://www.w3.org/2000/svg" xmlns:xlink="http://www.w3.org/1999/xlink">
    <!-- Generator: Sketch 50.2 (55047) - http://www.bohemiancoding.com/sketch -->
    <title>iraq@1x</title>
    <desc>Created with Sketch.</desc>
    <defs></defs>
    <g id="flags" stroke="none" stroke-width="1" fill="none" fill-rule="evenodd">
        <g id="iraq" fill-rule="nonzero">
            <circle id="Oval" fill="#F0F0F0" cx="16" cy="16" r="16"></circle>
            <path d="M16,0 C9.1205625,0 3.255875,4.342 0.9951875,10.4348125 L31.004875,10.4348125 C28.744125,4.342 22.8794375,0 16,0 Z" id="Shape" fill="#A2001D"></path>
            <path d="M16,32 C22.8794375,32 28.744125,27.658 31.0048125,21.5651875 L0.9951875,21.5651875 C3.255875,27.658 9.1205625,32 16,32 Z" id="Shape" fill="#000000"></path>
            <g id="Group" transform="translate(5.562500, 11.812500)" fill="#496E2D">
                <path d="M6.6114375,3.144 C6.6026875,3.144 6.594125,3.1445625 6.585375,3.1446875 L6.585375,3.144 L3.5268125,3.144 C3.681875,2.544875 4.2255,2.1005 4.8723125,2.1005 L4.8723125,0.0135625 C2.954375,0.0135625 1.3940625,1.5739375 1.3940625,3.4918125 L1.3940625,5.1961875 L1.3940625,5.231 L6.585375,5.231 C6.597125,5.231 6.606375,5.231 6.6114375,5.231 C6.80325,5.231 6.95925,5.3870625 6.95925,5.5788125 L6.95925,6.2744375 L0.0026875,6.2744375 L0.0026875,8.361375 L9.0461875,8.361375 L9.0461875,5.57875 C9.0461875,4.23625 7.9539375,3.144 6.6114375,3.144 Z" id="Shape"></path>
                <polygon id="Shape" points="11.8288125 6.2744375 11.8288125 0.0135625 9.741875 0.0135625 9.741875 8.3614375 13.220125 8.3614375 13.220125 6.2744375"></polygon>
                <polygon id="Shape" points="18.7853125 6.2745 18.7853125 0.0135625 16.698375 0.0135625 16.698375 6.2745 16.0026875 6.2745 16.0026875 4.1875625 13.91575 4.1875625 13.91575 8.3615 20.176625 8.3615 20.176625 6.2745"></polygon>
            </g>
        </g>
    </g>
</svg>