<?xml version="1.0" encoding="UTF-8"?>
<svg width="32px" height="32px" viewBox="0 0 32 32" version="1.1" xmlns="http://www.w3.org/2000/svg" xmlns:xlink="http://www.w3.org/1999/xlink">
    <!-- Generator: Sketch 50.2 (55047) - http://www.bohemiancoding.com/sketch -->
    <title>israel@1x</title>
    <desc>Created with Sketch.</desc>
    <defs></defs>
    <g id="flags" stroke="none" stroke-width="1" fill="none" fill-rule="evenodd">
        <g id="israel" fill-rule="nonzero">
            <circle id="Oval" fill="#F0F0F0" cx="16" cy="16" r="16"></circle>
            <g id="Group" transform="translate(2.312500, 3.437500)" fill="#0052B4">
                <path d="M19.7120625,9.08425 L15.695625,9.08425 L13.6875,5.606 L11.6794375,9.08425 L7.6629375,9.08425 L9.6713125,12.5625 L7.6629375,16.04075 L11.6794375,16.04075 L13.6875,19.519 L15.695625,16.04075 L19.7120625,16.04075 L17.7036875,12.5625 L19.7120625,9.08425 Z M16.1546875,12.5625 L14.9211875,14.69925 L12.454,14.69925 L11.2203125,12.5625 L12.4539375,10.42575 L14.921125,10.42575 L16.1546875,12.5625 Z M13.6875,8.2889375 L14.146625,9.0841875 L13.2285,9.0841875 L13.6875,8.2889375 Z M9.986625,10.42575 L10.904875,10.42575 L10.44575,11.221 L9.986625,10.42575 Z M9.986625,14.69925 L10.4458125,13.904 L10.9049375,14.69925 L9.986625,14.69925 Z M13.6875,16.836 L13.2284375,16.04075 L14.146625,16.04075 L13.6875,16.836 Z M17.388375,14.69925 L16.470125,14.69925 L16.9293125,13.904 L17.388375,14.69925 Z M16.470125,10.42575 L17.388375,10.42575 L16.92925,11.221 L16.470125,10.42575 Z" id="Shape"></path>
                <path d="M23.6473125,0.04075 L3.7276875,0.04075 C2.2675,1.20375 1.01525,2.616375 0.035875,4.2146875 L27.339125,4.2146875 C26.3596875,2.6164375 25.1074375,1.20375 23.6473125,0.04075 Z" id="Shape"></path>
                <path d="M3.7276875,25.08425 L23.64725,25.08425 C25.1074375,23.92125 26.3596875,22.508625 27.3390625,20.9103125 L0.035875,20.9103125 C1.0153125,22.5085625 2.2675625,23.92125 3.7276875,25.08425 Z" id="Shape"></path>
            </g>
        </g>
    </g>
</svg>