<?xml version="1.0" encoding="UTF-8"?>
<svg width="32px" height="32px" viewBox="0 0 32 32" version="1.1" xmlns="http://www.w3.org/2000/svg" xmlns:xlink="http://www.w3.org/1999/xlink">
    <!-- Generator: Sketch 50.2 (55047) - http://www.bohemiancoding.com/sketch -->
    <title>jersey@1x</title>
    <desc>Created with Sketch.</desc>
    <defs></defs>
    <g id="flags" stroke="none" stroke-width="1" fill="none" fill-rule="evenodd">
        <g id="jersey" fill-rule="nonzero">
            <circle id="Oval" fill="#F0F0F0" cx="16" cy="16" r="16"></circle>
            <path d="M28.693625,25.7421875 L18.9514375,16.0000625 L18.951375,16.0000625 L28.693625,6.25775 C28.2734375,5.71175 27.8138125,5.1864375 27.31375,4.68625 C26.8135625,4.186125 26.2883125,3.7264375 25.74225,3.306375 L16.0000625,13.0485625 L16,13.048625 L6.2578125,3.306375 C5.711875,3.7265 5.1865,4.1860625 4.6863125,4.68625 C4.186125,5.1864375 3.7265,5.71175 3.3064375,6.25775 L13.048625,15.999875 L13.0486875,15.9999375 L3.306375,25.74225 C3.7265625,26.28825 4.1861875,26.8135625 4.68625,27.31375 C5.1864375,27.813875 5.7116875,28.2735625 6.25775,28.693625 L16,18.9514375 L16.0000625,18.951375 L25.74225,28.6935625 C26.2881875,28.2734375 26.8135625,27.8138125 27.31375,27.3136875 C27.8139375,26.8135 28.2735,26.2881875 28.693625,25.7421875 Z" id="Shape" fill="#D80027"></path>
            <polygon id="Shape" fill="#FFDA44" points="13.217375 4.8695625 16 5.5651875 18.782625 4.8695625 18.782625 2.504375 17.6695625 3.060875 16 1.3913125 14.3304375 3.060875 13.217375 2.504375"></polygon>
            <path d="M13.217375,4.8695625 L13.217375,6.6088125 C13.217375,8.7388125 16,9.3914375 16,9.3914375 C16,9.3914375 18.782625,8.73875 18.782625,6.6088125 L18.782625,4.8695625 L13.217375,4.8695625 Z" id="Shape" fill="#D80027"></path>
        </g>
    </g>
</svg>