<?xml version="1.0" encoding="UTF-8"?>
<svg width="32px" height="32px" viewBox="0 0 32 32" version="1.1" xmlns="http://www.w3.org/2000/svg" xmlns:xlink="http://www.w3.org/1999/xlink">
    <!-- Generator: Sketch 50.2 (55047) - http://www.bohemiancoding.com/sketch -->
    <title>jordan@1x</title>
    <desc>Created with Sketch.</desc>
    <defs></defs>
    <g id="flags" stroke="none" stroke-width="1" fill="none" fill-rule="evenodd">
        <g id="jordan" fill-rule="nonzero">
            <circle id="Oval" fill="#F0F0F0" cx="16.0311891" cy="15.9688109" r="15.9688109"></circle>
            <path d="M9.78251852,10.4144717 L31.0066901,10.4144717 C28.7504717,4.33353606 22.897154,0 16.0311891,0 C11.6214269,0 7.62966082,1.78769591 4.74005458,4.67767641 L9.78251852,10.4144717 Z" id="Shape" fill="#000000"></path>
            <path d="M9.78251852,21.5231501 L31.0066901,21.5231501 C28.7504717,27.6040858 22.897154,31.9376218 16.0311891,31.9376218 C11.6214269,31.9376218 7.62966082,30.1499259 4.74005458,27.2599454 L9.78251852,21.5231501 Z" id="Shape" fill="#6DA544"></path>
            <path d="M4.73949318,4.67711501 C-1.49670175,10.9133099 -1.49670175,21.0242495 4.73949318,27.2605068 C7.31652242,24.6834776 9.79499415,22.2050058 16.0311891,15.9688109 L4.73949318,4.67711501 Z" id="Shape" fill="#D80027"></path>
            <polygon id="Shape" fill="#F0F0F0" points="6.40031189 12.4973411 7.27666277 14.3299493 9.25585965 13.8725302 8.36946589 15.7002729 9.96104483 16.9624327 7.97947758 17.4089981 7.98496686 19.4402807 6.40031189 18.1694503 4.81559454 19.4402807 4.8211462 17.4089981 2.83957895 16.9624327 4.43109552 15.7002729 3.54482651 13.8725302 5.52389864 14.3299493"></polygon>
        </g>
    </g>
</svg>