<?xml version="1.0" encoding="UTF-8"?>
<svg width="32px" height="32px" viewBox="0 0 32 32" version="1.1" xmlns="http://www.w3.org/2000/svg" xmlns:xlink="http://www.w3.org/1999/xlink">
    <!-- Generator: Sketch 50.2 (55047) - http://www.bohemiancoding.com/sketch -->
    <title>kazakhstan@1x</title>
    <desc>Created with Sketch.</desc>
    <defs></defs>
    <g id="flags" stroke="none" stroke-width="1" fill="none" fill-rule="evenodd">
        <g id="kazakhstan" fill-rule="nonzero">
            <circle id="Oval" fill="#338AF3" cx="16" cy="16" r="16"></circle>
            <path d="M25.0435,16.1739375 L6.9565,16.1739375 C6.9565,17.422625 8.0440625,18.4348125 9.292625,18.4348125 L9.217375,18.4348125 C9.217375,19.6835 10.2295625,20.6956875 11.47825,20.6956875 C11.47825,21.944375 12.4904375,22.9565625 13.739125,22.9565625 L18.260875,22.9565625 C19.5095625,22.9565625 20.52175,21.944375 20.52175,20.6956875 C21.7704375,20.6956875 22.782625,19.6835 22.782625,18.4348125 L22.707375,18.4348125 C23.9558125,18.4348125 25.0435,17.422625 25.0435,16.1739375 Z" id="Shape" fill="#FFDA44"></path>
            <path d="M22.260875,13.217375 C22.260875,16.675125 19.45775,19.47825 16,19.47825 C12.5421875,19.47825 9.739125,16.675125 9.739125,13.217375" id="Shape" fill="#338AF3"></path>
            <polygon id="Shape" fill="#FFDA44" points="20.7821875 13.217375 18.828125 14.1365625 19.8686875 16.0290625 17.7468125 15.623125 17.4779375 17.766625 16 16.1900625 14.522 17.766625 14.2531875 15.623125 12.1313125 16.0289375 13.1718125 14.1365 11.2178125 13.217375 13.171875 12.29825 12.1313125 10.4058125 14.253125 10.8116875 14.5220625 8.6681875 16 10.24475 17.478 8.6681875 17.7468125 10.8116875 19.86875 10.4058125 18.8281875 12.2983125"></polygon>
        </g>
    </g>
</svg>