<?xml version="1.0" encoding="UTF-8"?>
<svg width="32px" height="32px" viewBox="0 0 32 32" version="1.1" xmlns="http://www.w3.org/2000/svg" xmlns:xlink="http://www.w3.org/1999/xlink">
    <!-- Generator: Sketch 50.2 (55047) - http://www.bohemiancoding.com/sketch -->
    <title>kenya@1x</title>
    <desc>Created with Sketch.</desc>
    <defs></defs>
    <g id="flags" stroke="none" stroke-width="1" fill="none" fill-rule="evenodd">
        <g id="kenya" fill-rule="nonzero">
            <circle id="Oval" fill="#F0F0F0" cx="16" cy="16" r="16"></circle>
            <path d="M16,0 C9.656625,0 4.175625,3.6915625 1.587625,9.0435 L30.4123125,9.0435 C27.824375,3.6915625 22.3433125,0 16,0 Z" id="Shape" fill="#000000"></path>
            <path d="M16,32 C9.656625,32 4.175625,28.3084375 1.587625,22.9565 L30.4123125,22.9565 C27.824375,28.3084375 22.3433125,32 16,32 Z" id="Shape" fill="#496E2D"></path>
            <path d="M31.2444375,11.1304375 L0.7555625,11.1304375 C0.2654375,12.666 0,14.3019375 0,16 C0,17.6980625 0.2654375,19.334 0.7555625,20.8695625 L31.244375,20.8695625 C31.7345625,19.334 32,17.6980625 32,16 C32,14.3019375 31.7345625,12.666 31.2444375,11.1304375 Z" id="Shape" fill="#A2001D"></path>
            <g id="Group" transform="translate(11.000000, 6.500000)" fill="#F0F0F0">
                <polygon id="Shape" points="9.9821875 0.8938125 8.087375 0.01925 5 7.0099375 1.912625 0.01925 0.0178125 0.8938125 3.8508125 9.5 0.0178125 18.1061875 1.912625 18.98075 5 11.9900625 8.087375 18.98075 9.9821875 18.1061875 6.1491875 9.5"></polygon>
                <path d="M6.2869375,1.7180625 C5.5534375,0.917 5,0.4565 5,0.4565 C5,0.4565 4.4465625,0.9169375 3.7130625,1.7180625 L3.7130625,17.2818125 C4.4465625,18.083 5,18.5435 5,18.5435 C5,18.5435 5.5534375,18.0830625 6.2869375,17.281875 L6.2869375,1.7180625 Z" id="Shape"></path>
            </g>
            <g id="Group" transform="translate(12.500000, 7.937500)" fill="#A2001D">
                <path d="M0.02175,3.2651875 L0.02175,12.8596875 C0.796875,14.233125 1.7455625,15.358875 2.4565625,16.10525 L2.4565625,0.0196875 C1.7455625,0.766 0.7968125,1.8918125 0.02175,3.2651875 Z" id="Shape"></path>
                <path d="M6.97825,3.2651875 C6.2030625,1.89175 5.2544375,0.766 4.5434375,0.0196875 L4.5434375,16.10525 C5.254375,15.358875 6.2030625,14.233125 6.97825,12.8596875 L6.97825,3.2651875 Z" id="Shape"></path>
            </g>
            <path d="M19.47825,11.2026875 L19.47825,20.7971875 C20.2629375,19.406625 20.8695625,17.7623125 20.8695625,16 C20.8695625,14.2376875 20.2629375,12.5933125 19.47825,11.2026875 Z" id="Shape" fill="#000000"></path>
            <path d="M12.52175,11.2026875 L12.52175,20.7971875 C11.7370625,19.406625 11.1304375,17.7623125 11.1304375,16 C11.1304375,14.2376875 11.7370625,12.5933125 12.52175,11.2026875 Z" id="Shape" fill="#000000"></path>
        </g>
    </g>
</svg>