<?xml version="1.0" encoding="UTF-8"?>
<svg width="32px" height="32px" viewBox="0 0 32 32" version="1.1" xmlns="http://www.w3.org/2000/svg" xmlns:xlink="http://www.w3.org/1999/xlink">
    <!-- Generator: Sketch 50.2 (55047) - http://www.bohemiancoding.com/sketch -->
    <title>kiribati@1x</title>
    <desc>Created with Sketch.</desc>
    <defs></defs>
    <g id="flags" stroke="none" stroke-width="1" fill="none" fill-rule="evenodd">
        <g id="kiribati" fill-rule="nonzero">
            <path d="M0,16 C0,7.1635 7.1635,0 16,0 C24.8365,0 32,7.1635 32,16" id="Shape" fill="#D80027"></path>
            <g id="Group" transform="translate(10.375000, 4.125000)" fill="#FFDA44">
                <polygon id="Shape" points="11.1901875 10.754875 8.916125 11.8244375 10.127125 14.026875 7.6578125 13.5544375 7.3449375 16.0489375 5.625 14.21425 3.905 16.0489375 3.5921875 13.5544375 1.122875 14.02675 2.3338125 11.8244375 0.0598125 10.754875 2.3338125 9.685125 1.122875 7.4829375 3.592125 7.9551875 3.9050625 5.4608125 5.625 7.295375 7.345 5.4608125 7.6578125 7.9551875 10.1271875 7.4829375 8.9163125 9.6853125"></polygon>
                <path d="M9.7989375,1.092375 L6.6685,1.092375 C6.6685,0.5161875 6.20125,0.048875 5.625,0.048875 C5.04875,0.048875 4.5815,0.516125 4.5815,1.092375 L1.4510625,1.092375 C1.4510625,1.668625 1.9530625,2.135875 2.5293125,2.135875 L2.4945,2.135875 C2.4945,2.712125 2.961625,3.179375 3.538,3.179375 C3.538,3.755625 4.005125,4.222875 4.5815,4.222875 L6.6684375,4.222875 C7.244625,4.222875 7.7119375,3.7556875 7.7119375,3.179375 C8.288125,3.179375 8.7554375,2.7121875 8.7554375,2.135875 L8.720625,2.135875 C9.2969375,2.135875 9.7989375,1.6686875 9.7989375,1.092375 Z" id="Shape"></path>
            </g>
            <path d="M32,16 C32,24.8365 24.8365,32 16,32 C7.1635,32 0,24.8365 0,16 C0.695625,16 32,16 32,16 Z" id="Shape" fill="#F0F0F0"></path>
            <g id="Group" transform="translate(0.000000, 16.812500)" fill="#0052B4">
                <path d="M16,15.1875 C21.001375,15.1875 25.466,12.89225 28.400125,9.29825 C27.872375,8.9384375 27.5874375,8.3568125 26.6664375,8.3568125 C25.333125,8.3568125 25.333125,9.5759375 23.999875,9.5759375 C22.666625,9.5759375 22.6665625,8.3568125 21.3333125,8.3568125 C20,8.3568125 20,9.5759375 18.666625,9.5759375 C17.33325,9.5759375 17.3331875,8.3568125 15.99975,8.3568125 C14.6664375,8.3568125 14.6664375,9.5759375 13.3331875,9.5759375 C12.0000625,9.5759375 12.0000625,8.3568125 10.66675,8.3568125 C9.3333125,8.3568125 9.3333125,9.5759375 7.999875,9.5759375 C6.6664375,9.5759375 6.6664375,8.3568125 5.333,8.3568125 C4.412125,8.3568125 4.1271875,8.9383125 3.5996875,9.298125 C6.5336875,12.89225 10.9985625,15.1875 16,15.1875 Z" id="Shape"></path>
                <path d="M29.333125,1.228125 C27.9998125,1.228125 27.9998125,0.009 26.6664375,0.009 C25.333125,0.009 25.333125,1.228125 23.999875,1.228125 C22.666625,1.228125 22.6665625,0.009 21.3333125,0.009 C20,0.009 20,1.228125 18.666625,1.228125 C17.33325,1.228125 17.3331875,0.009 15.99975,0.009 C14.6664375,0.009 14.6664375,1.228125 13.3331875,1.228125 C12.0000625,1.228125 12.0000625,0.009 10.66675,0.009 C9.3333125,0.009 9.3333125,1.228125 7.999875,1.228125 C6.6664375,1.228125 6.6664375,0.009 5.333,0.009 C3.999875,0.009 3.999875,1.228125 2.6665625,1.228125 C1.3404375,1.228125 1.33275,0.0224375 0.0208125,0.0095625 C0.05775,0.7414375 0.145125,1.4599375 0.27725,2.1625625 C1.34,2.31875 1.4330625,3.3614375 2.666625,3.3614375 C3.9999375,3.3614375 3.9999375,2.1424375 5.3330625,2.1424375 C6.6665,2.1424375 6.6665,3.3614375 7.9999375,3.3614375 C9.333375,3.3614375 9.333375,2.1424375 10.6668125,2.1424375 C12.000125,2.1424375 12.000125,3.3614375 13.33325,3.3614375 C14.6665625,3.3614375 14.6665625,2.1424375 15.9998125,2.1424375 C17.33325,2.1424375 17.33325,3.3614375 18.6666875,3.3614375 C20.000125,3.3614375 20.000125,2.1424375 21.333375,2.1424375 C22.6666875,2.1424375 22.6666875,3.3614375 23.9999375,3.3614375 C25.3331875,3.3614375 25.33325,2.1424375 26.6665,2.1424375 C27.9999375,2.1424375 27.9999375,3.3614375 29.3331875,3.3614375 C30.566875,3.3614375 30.6599375,2.3188125 31.72275,2.162625 C31.8549375,1.4599375 31.9421875,0.7415 31.9793125,0.009625 C30.667125,0.0225625 30.6593125,1.228125 29.333125,1.228125 Z" id="Shape"></path>
                <path d="M26.6664375,4.1829375 C25.333125,4.1829375 25.333125,5.4020625 23.999875,5.4020625 C22.666625,5.4020625 22.6665625,4.1829375 21.3333125,4.1829375 C20,4.1829375 20,5.4020625 18.666625,5.4020625 C17.3331875,5.4020625 17.3331875,4.1829375 15.99975,4.1829375 C14.6664375,4.1829375 14.6664375,5.4020625 13.3331875,5.4020625 C12.0000625,5.4020625 12.0000625,4.1829375 10.66675,4.1829375 C9.3333125,4.1829375 9.3333125,5.4020625 7.999875,5.4020625 C6.6664375,5.4020625 6.6664375,4.1829375 5.333,4.1829375 C3.999875,4.1829375 3.999875,5.4020625 2.6665625,5.4020625 C1.713875,5.4020625 1.44175,4.7798125 0.8776875,4.4243125 C1.2531875,5.50925 1.7416875,6.5413125 2.33,7.5060625 C2.4323125,7.5249375 2.5436875,7.535375 2.6665625,7.535375 C3.999875,7.535375 3.999875,6.316375 5.333,6.316375 C6.6664375,6.316375 6.6664375,7.535375 7.999875,7.535375 C9.3333125,7.535375 9.3333125,6.316375 10.66675,6.316375 C12.0000625,6.316375 12.0000625,7.535375 13.3331875,7.535375 C14.6665,7.535375 14.6665,6.316375 15.99975,6.316375 C17.3331875,6.316375 17.3331875,7.535375 18.666625,7.535375 C20.0000625,7.535375 20.0000625,6.316375 21.3333125,6.316375 C22.666625,6.316375 22.666625,7.535375 23.999875,7.535375 C25.333125,7.535375 25.3331875,6.316375 26.6664375,6.316375 C27.999875,6.316375 27.999875,7.535375 29.333125,7.535375 C29.456125,7.535375 29.5675,7.5249375 29.6698125,7.506 C30.258125,6.5413125 30.7465625,5.50925 31.12225,4.424375 C30.558125,4.7796875 30.2859375,5.4020625 29.333125,5.4020625 C27.999875,5.4020625 27.999875,4.1829375 26.6664375,4.1829375 Z" id="Shape"></path>
            </g>
            <path d="M31.950375,14.7359375 C30.66725,14.76625 30.6495625,15.9536875 29.333125,15.9536875 C27.9998125,15.9536875 27.9998125,14.7345625 26.6664375,14.7345625 C25.333125,14.7345625 25.333125,15.9536875 23.999875,15.9536875 C22.666625,15.9536875 22.6665625,14.7345625 21.3333125,14.7345625 C20,14.7345625 20,15.9536875 18.666625,15.9536875 C17.33325,15.9536875 17.3331875,14.7345625 15.99975,14.7345625 C14.6664375,14.7345625 14.6664375,15.9536875 13.3331875,15.9536875 C12.0000625,15.9536875 12.0000625,14.7345625 10.66675,14.7345625 C9.3333125,14.7345625 9.3333125,15.9536875 7.999875,15.9536875 C6.6664375,15.9536875 6.6664375,14.7345625 5.333,14.7345625 C3.999875,14.7345625 3.999875,15.9536875 2.6665625,15.9536875 C1.350375,15.9536875 1.3325625,14.766375 0.0495625,14.7359375 C0.017,15.1530625 0,15.5745625 0,16 C0,16.2914375 0.00825,16.581 0.0238125,16.8685625 C1.33275,16.88325 1.3414375,18.0869375 2.666625,18.0869375 C3.9999375,18.0869375 3.9999375,16.8679375 5.3330625,16.8679375 C6.6665,16.8679375 6.6665,18.0869375 7.9999375,18.0869375 C9.333375,18.0869375 9.333375,16.8679375 10.6668125,16.8679375 C12.000125,16.8679375 12.000125,18.0869375 13.33325,18.0869375 C14.6665625,18.0869375 14.6665625,16.8679375 15.9998125,16.8679375 C17.33325,16.8679375 17.33325,18.0869375 18.6666875,18.0869375 C20.000125,18.0869375 20.000125,16.8679375 21.333375,16.8679375 C22.6666875,16.8679375 22.6666875,18.0869375 23.9999375,18.0869375 C25.3331875,18.0869375 25.33325,16.8679375 26.6665,16.8679375 C27.9999375,16.8679375 27.9999375,18.0869375 29.3331875,18.0869375 C30.6585,18.0869375 30.6671875,16.88325 31.976375,16.8685625 C31.99175,16.5809375 32,16.2914375 32,16 C32,15.5745625 31.983,15.1530625 31.950375,14.7359375 Z" id="Shape" fill="#F0F0F0"></path>
        </g>
    </g>
</svg>