<?xml version="1.0" encoding="UTF-8"?>
<svg width="32px" height="32px" viewBox="0 0 32 32" version="1.1" xmlns="http://www.w3.org/2000/svg" xmlns:xlink="http://www.w3.org/1999/xlink">
    <!-- Generator: Sketch 50.2 (55047) - http://www.bohemiancoding.com/sketch -->
    <title>kosovo@1x</title>
    <desc>Created with Sketch.</desc>
    <defs></defs>
    <g id="flags" stroke="none" stroke-width="1" fill="none" fill-rule="evenodd">
        <g id="kosovo" fill-rule="nonzero">
            <circle id="Oval" fill="#0052B4" cx="16" cy="16" r="16"></circle>
            <g id="Group" transform="translate(5.562500, 7.625000)" fill="#F0F0F0">
                <polygon id="Shape" points="1.4655625 2.1141875 1.8109375 3.1771875 2.9284375 3.1771875 2.024375 3.834 2.3696875 4.8968125 1.4655625 4.24 0.561375 4.8968125 0.9068125 3.834 0.0026875 3.1771875 1.120125 3.1771875"></polygon>
                <polygon id="Shape" points="4.9438125 1.07075 5.2891875 2.1336875 6.4066875 2.1336875 5.502625 2.7905 5.8479375 3.8533125 4.9438125 3.1965 4.0396875 3.8533125 4.3850625 2.7905 3.481 2.1336875 4.5985 2.1336875"></polygon>
                <polygon id="Shape" points="8.4220625 0.02725 8.7674375 1.0901875 9.8849375 1.0901875 8.980875 1.7470625 9.3261875 2.809875 8.4220625 2.153 7.5179375 2.809875 7.8633125 1.7470625 6.95925 1.0901875 8.07675 1.0901875"></polygon>
                <polygon id="Shape" points="19.4094375 2.1141875 19.0640625 3.1771875 17.9465625 3.1771875 18.8506875 3.834 18.5053125 4.8968125 19.4094375 4.24 20.313625 4.8968125 19.9681875 3.834 20.8723125 3.1771875 19.7548125 3.1771875"></polygon>
                <polygon id="Shape" points="15.9311875 1.07075 15.5858125 2.1336875 14.4683125 2.1336875 15.3724375 2.7905 15.0270625 3.8533125 15.9311875 3.1965 16.8353125 3.8533125 16.4899375 2.7905 17.394 2.1336875 16.2765 2.1336875"></polygon>
                <polygon id="Shape" points="12.4529375 0.02725 12.1075625 1.0901875 10.9900625 1.0901875 11.894125 1.7470625 11.5488125 2.809875 12.4529375 2.153 13.3570625 2.809875 13.0116875 1.7470625 13.91575 1.0901875 12.79825 1.0901875"></polygon>
            </g>
            <path d="M18.782625,16.695625 L16,13.217375 L14.6086875,13.913 L14.6086875,15.3043125 L12.52175,16.695625 L11.1304375,16.695625 L11.1304375,18.4930625 C13.1696875,19.3188125 14.6086875,21.316875 14.6086875,23.6521875 L16,23.6521875 L16,22.260875 L17.3913125,20.8695625 L18.782625,22.260875 L20.1739375,20.8695625 L20.1739375,19.47825 L21.56525,17.3913125 L18.782625,16.695625 Z" id="Shape" fill="#FFDA44"></path>
        </g>
    </g>
</svg>