<?xml version="1.0" encoding="UTF-8"?>
<svg width="32px" height="32px" viewBox="0 0 32 32" version="1.1" xmlns="http://www.w3.org/2000/svg" xmlns:xlink="http://www.w3.org/1999/xlink">
    <!-- Generator: Sketch 50.2 (55047) - http://www.bohemiancoding.com/sketch -->
    <title>kuwait@1x</title>
    <desc>Created with Sketch.</desc>
    <defs></defs>
    <g id="flags" stroke="none" stroke-width="1" fill="none" fill-rule="evenodd">
        <g id="kuwait" fill-rule="nonzero">
            <path d="M31.0067524,21.5231501 C31.6486238,19.7932164 32,17.9221209 32,15.9688109 C32,14.015501 31.6486238,12.1444055 31.0067524,10.4144717 L16.0311891,9.02587135 L1.05562573,10.4144717 C0.413754386,12.1444055 0.0623781676,14.015501 0.0623781676,15.9688109 C0.0623781676,17.9221209 0.413754386,19.7932164 1.05562573,21.5231501 L16.0311891,22.9117505 L31.0067524,21.5231501 Z" id="Shape" fill="#F0F0F0"></path>
            <path d="M16.0311891,31.9376218 C22.897154,31.9376218 28.7504717,27.6040858 31.0066901,21.5231501 L1.05556335,21.5231501 C3.31190643,27.6040858 9.16509942,31.9376218 16.0311891,31.9376218 Z" id="Shape" fill="#D80027"></path>
            <path d="M16.0311891,0 C9.16509942,0 3.31190643,4.33353606 1.05556335,10.4144717 L31.0067524,10.4144717 C28.7504717,4.33353606 22.897154,0 16.0311891,0 Z" id="Shape" fill="#6DA544"></path>
            <path d="M4.73949318,4.67711501 C-1.49670175,10.9133099 -1.49670175,21.0242495 4.73949318,27.2605068 C6.36725146,25.6327485 7.95602339,24.0439766 10.4767875,21.5232125 L10.4767875,10.4144717 L4.73949318,4.67711501 Z" id="Shape" fill="#000000"></path>
        </g>
    </g>
</svg>