<?xml version="1.0" encoding="UTF-8"?>
<svg width="32px" height="32px" viewBox="0 0 32 32" version="1.1" xmlns="http://www.w3.org/2000/svg" xmlns:xlink="http://www.w3.org/1999/xlink">
    <!-- Generator: Sketch 50.2 (55047) - http://www.bohemiancoding.com/sketch -->
    <title>kyrgyzstan@1x</title>
    <desc>Created with Sketch.</desc>
    <defs></defs>
    <g id="flags" stroke="none" stroke-width="1" fill="none" fill-rule="evenodd">
        <g id="kyrgyzstan" fill-rule="nonzero">
            <circle id="Oval" fill="#D80027" cx="16" cy="16" r="16"></circle>
            <polygon id="Shape" fill="#FFDA44" points="23.8248125 16 20.627625 17.503875 22.3301875 20.6005625 18.858125 19.93625 18.418375 23.4435 15.9999375 20.864125 13.5816875 23.4435 13.14175 19.93625 9.67 20.6004375 11.3725 17.50375 8.1751875 16 11.3725 14.4961875 9.67 11.3994375 13.141625 12.0638125 13.5818125 8.5565 15.9999375 11.1359375 18.4185 8.5565 18.858125 12.0638125 22.3303125 11.3994375 20.6276875 14.496375"></polygon>
            <circle id="Oval" fill="#D80027" cx="16" cy="16" r="4.8695625"></circle>
            <g id="Group" transform="translate(13.187500, 13.187500)" fill="#FFDA44">
                <path d="M0.3776875,2.8125 C0.260375,2.8125 0.1445625,2.8185 0.03025,2.829875 C0.0344375,3.5043125 0.2784375,4.121625 0.6814375,4.6011875 C0.8964375,4.022625 1.2174375,3.4950625 1.62225,3.0435625 C1.235625,2.894875 0.8161875,2.8125 0.3776875,2.8125 Z" id="Shape"></path>
                <path d="M1.8765625,5.4333125 C2.1690625,5.5378125 2.484,5.595125 2.8125,5.595125 C3.141,5.595125 3.4559375,5.5378125 3.7484375,5.4333125 C3.589,4.8075625 3.2598125,4.2489375 2.8125,3.8099375 C2.3651875,4.248875 2.036,4.8075625 1.8765625,5.4333125 Z" id="Shape"></path>
                <path d="M5.2221875,1.421625 C4.7410625,0.59 3.8425,0.029875 2.8125,0.029875 C1.7825,0.029875 0.8839375,0.5899375 0.4028125,1.421625 C1.2799375,1.4260625 2.1024375,1.6645625 2.8125,2.076375 C3.5225625,1.6645625 4.3449375,1.4260625 5.2221875,1.421625 Z" id="Shape"></path>
                <path d="M4.002625,3.043625 C4.4074375,3.4950625 4.7284375,4.022625 4.9434375,4.60125 C5.3464375,4.1216875 5.5904375,3.504375 5.594625,2.8299375 C5.48025,2.8185 5.3644375,2.8125625 5.2471875,2.8125625 C4.8088125,2.8125 4.389375,2.894875 4.002625,3.043625 Z" id="Shape"></path>
            </g>
        </g>
    </g>
</svg>