<?xml version="1.0" encoding="UTF-8"?>
<svg width="32px" height="32px" viewBox="0 0 32 32" version="1.1" xmlns="http://www.w3.org/2000/svg" xmlns:xlink="http://www.w3.org/1999/xlink">
    <!-- Generator: Sketch 50.2 (55047) - http://www.bohemiancoding.com/sketch -->
    <title>laos@1x</title>
    <desc>Created with Sketch.</desc>
    <defs></defs>
    <g id="flags" stroke="none" stroke-width="1" fill="none" fill-rule="evenodd">
        <g id="laos" fill-rule="nonzero">
            <g id="Group" transform="translate(1.562500, 0.000000)" fill="#D80027">
                <path d="M28.849875,9.0435 C26.261875,3.6915625 20.780875,0 14.4375,0 C8.094125,0 2.613125,3.6915625 0.025125,9.0435 L14.4375,10.4348125 L28.849875,9.0435 Z" id="Shape"></path>
                <path d="M0.025125,22.9565 C2.613125,28.3084375 8.094125,32 14.4375,32 C20.780875,32 26.261875,28.3084375 28.849875,22.9565 L14.4375,21.5651875 L0.025125,22.9565 Z" id="Shape"></path>
            </g>
            <path d="M30.412375,9.0435 L1.587625,9.0435 C0.5705,11.1469375 0,13.5068125 0,16 C0,18.4931875 0.5705,20.8530625 1.587625,22.9565 L30.4123125,22.9565 C31.4295625,20.8530625 32,18.4931875 32,16 C32,13.5068125 31.4295625,11.1469375 30.412375,9.0435 Z" id="Shape" fill="#0052B4"></path>
            <circle id="Oval" fill="#F0F0F0" cx="16" cy="16" r="5.5651875"></circle>
        </g>
    </g>
</svg>