<?xml version="1.0" encoding="UTF-8"?>
<svg width="32px" height="32px" viewBox="0 0 32 32" version="1.1" xmlns="http://www.w3.org/2000/svg" xmlns:xlink="http://www.w3.org/1999/xlink">
    <!-- Generator: Sketch 50.2 (55047) - http://www.bohemiancoding.com/sketch -->
    <title>lesotho@1x</title>
    <desc>Created with Sketch.</desc>
    <defs></defs>
    <g id="flags" stroke="none" stroke-width="1" fill="none" fill-rule="evenodd">
        <g id="lesotho" fill-rule="nonzero">
            <path d="M0,16 C0,18.493125 0.5704375,20.853 1.587625,22.9565 L16,23.6521875 L30.412375,22.9565625 C31.4295625,20.853 32,18.493125 32,16 C32,13.506875 31.4295625,11.147 30.412375,9.0435 L16,8.3478125 L1.587625,9.0434375 C0.5704375,11.147 0,13.506875 0,16 Z" id="Shape" fill="#F0F0F0"></path>
            <path d="M16,32 C22.3433125,32 27.824375,28.3084375 30.412375,22.9565 L1.587625,22.9565 C4.175625,28.3084375 9.656625,32 16,32 Z" id="Shape" fill="#6DA544"></path>
            <path d="M16,0 C9.656625,0 4.175625,3.6915625 1.587625,9.0435 L30.4123125,9.0435 C27.824375,3.6915625 22.3433125,0 16,0 Z" id="Shape" fill="#0052B4"></path>
            <path d="M17.0435,15.6521875 L17.0435,11.826125 L14.9565625,11.826125 L14.9565625,15.6521875 L12.4359375,18.172875 C13.169,19.372875 14.4909375,20.1739375 16.0000625,20.1739375 C17.5091875,20.1739375 18.8310625,19.372875 19.5641875,18.172875 L17.0435,15.6521875 Z" id="Shape" fill="#000000"></path>
        </g>
    </g>
</svg>