<?xml version="1.0" encoding="UTF-8"?>
<svg width="32px" height="32px" viewBox="0 0 32 32" version="1.1" xmlns="http://www.w3.org/2000/svg" xmlns:xlink="http://www.w3.org/1999/xlink">
    <!-- Generator: Sketch 50.2 (55047) - http://www.bohemiancoding.com/sketch -->
    <title>liberia@1x</title>
    <desc>Created with Sketch.</desc>
    <defs></defs>
    <g id="flags" stroke="none" stroke-width="1" fill="none" fill-rule="evenodd">
        <g id="liberia" fill-rule="nonzero">
            <g id="Group" fill="#F0F0F0">
                <circle id="Oval" cx="16" cy="16" r="16"></circle>
                <path d="M3.65725,5.81825 L28.34275,5.81825 C27.431,4.7141875 26.3735,3.735125 25.2004375,2.9091875 L6.7995625,2.9091875 C5.6265,3.735 4.5690625,4.714125 3.65725,5.81825 Z" id="Shape"></path>
                <path d="M0,16 C0,16.4904375 0.0233125,16.9753125 0.0665,17.4545625 L31.9335,17.4545625 C31.9766875,16.9753125 32,16.4904375 32,16 C32,15.5095625 31.9766875,15.0246875 31.9335,14.5455 L0.0665,14.5455 C0.0233125,15.0246875 0,15.5095625 0,16 Z" id="Shape"></path>
                <path d="M1.74475,23.2726875 L30.25525,23.2726875 C30.726375,22.3510625 31.110625,21.377875 31.3975,20.3636875 L0.6025,20.3636875 C0.8893125,21.377875 1.2736875,22.351125 1.74475,23.2726875 Z" id="Shape"></path>
                <path d="M6.7995625,29.0909375 L25.200375,29.0909375 C26.3734375,28.265 27.4309375,27.2859375 28.3426875,26.181875 L3.65725,26.181875 C4.5690625,27.2858125 5.6265,28.265 6.7995625,29.0909375 Z" id="Shape"></path>
                <path d="M0.6024375,11.636375 L31.3975625,11.636375 C31.1106875,10.622125 30.726375,9.648875 30.25525,8.7273125 L1.74475,8.7273125 C1.2736875,9.648875 0.8893125,10.622125 0.6024375,11.636375 Z" id="Shape"></path>
            </g>
            <g id="Group" transform="translate(0.062500, 0.000000)" fill="#D80027">
                <path d="M7.5896875,2.9090625 L25.1379375,2.9090625 C22.5354375,1.0766875 19.3623125,0 15.9375,0 C13.8505625,0 10.1921875,1.0766875 7.5896875,2.9090625 Z" id="Shape"></path>
                <path d="M15.241875,8.7273125 L30.19275,8.7273125 C29.6606875,7.6865 29.0180625,6.7115625 28.28025,5.81825 L15.241875,5.81825 L15.241875,8.7273125 Z" id="Shape"></path>
                <path d="M15.241875,14.5455 L31.871,14.5455 C31.781,13.546625 31.600125,12.573875 31.3350625,11.6364375 L15.241875,11.6364375 L15.241875,14.5455 Z" id="Shape"></path>
                <path d="M0.54,20.3636875 L31.335,20.3636875 C31.600125,19.4263125 31.781,18.4535 31.871,17.454625 L0.004,17.454625 C0.094,18.4535 0.274875,19.42625 0.54,20.3636875 Z" id="Shape"></path>
                <path d="M3.59475,26.18175 L28.28025,26.18175 C29.0180625,25.2883125 29.6606875,24.3134375 30.19275,23.2726875 L1.68225,23.2726875 C2.2143125,24.3135 2.8569375,25.2884375 3.59475,26.18175 Z" id="Shape"></path>
                <path d="M15.9375,32 C19.3623125,32 22.5354375,30.9233125 25.1379375,29.0909375 L6.7370625,29.0909375 C9.3395625,30.9233125 12.5126875,32 15.9375,32 Z" id="Shape"></path>
            </g>
            <path d="M0.6024375,11.636375 C0.3373125,12.573875 0.1565,13.5465625 0.0665,14.5454375 L16,14.5454375 L16,0 C8.67625,0 2.5019375,4.92075 0.6024375,11.636375 Z" id="Shape" fill="#0052B4"></path>
            <polygon id="Shape" fill="#F0F0F0" points="9.52425 4.1739375 10.5601875 7.362375 13.9130625 7.362375 11.2006875 9.333125 12.2365625 12.52175 9.52425 10.551125 6.8118125 12.52175 7.8479375 9.333125 5.1355625 7.362375 8.48825 7.362375"></polygon>
        </g>
    </g>
</svg>