<?xml version="1.0" encoding="UTF-8"?>
<svg width="32px" height="32px" viewBox="0 0 32 32" version="1.1" xmlns="http://www.w3.org/2000/svg" xmlns:xlink="http://www.w3.org/1999/xlink">
    <!-- Generator: Sketch 50.2 (55047) - http://www.bohemiancoding.com/sketch -->
    <title>libya@1x</title>
    <desc>Created with Sketch.</desc>
    <defs></defs>
    <g id="flags" stroke="none" stroke-width="1" fill="none" fill-rule="evenodd">
        <g id="libya" fill-rule="nonzero">
            <path d="M1.587625,9.0435 C0.5705,11.147 0,13.5068125 0,16 C0,18.4931875 0.5705,20.853 1.587625,22.9565 L16,24.3478125 L30.412375,22.9565 C31.4295,20.853 32,18.4931875 32,16 C32,13.5068125 31.4295,11.147 30.412375,9.0435 L16,7.6521875 L1.587625,9.0435 Z" id="Shape" fill="#000000"></path>
            <path d="M1.5881875,22.9565 C4.1760625,28.3084375 9.656625,32 16,32 C22.3433125,32 27.8239375,28.3084375 30.4118125,22.9565 L1.5881875,22.9565 Z" id="Shape" fill="#496E2D"></path>
            <path d="M1.5881875,9.0435 L30.4118125,9.0435 C27.8239375,3.6915625 22.3433125,0 16,0 C9.656625,0 4.1760625,3.6915625 1.5881875,9.0435 Z" id="Shape" fill="#D80027"></path>
            <g id="Group" transform="translate(8.812500, 10.375000)" fill="#F0F0F0">
                <polygon id="Shape" points="10.911625 2.699125 12.224375 4.5081875 14.3504375 3.8188125 13.0355625 5.6263125 14.3481875 7.4353125 12.2229375 6.7433125 10.9080625 8.5508125 10.9094375 6.31575 8.7840625 5.62375 10.9101875 4.934375"></polygon>
                <path d="M7.3288125,10.14675 C4.8315625,10.14675 2.8070625,8.12225 2.8070625,5.625 C2.8070625,3.12775 4.8315625,1.10325 7.3288125,1.10325 C8.1074375,1.10325 8.840125,1.300125 9.47975,1.64675 C8.47625,0.6654375 7.104,0.05975 5.5896875,0.05975 C2.5160625,0.05975 0.0245,2.551375 0.0245,5.6249375 C0.0245,8.6985 2.516125,11.190125 5.5896875,11.190125 C7.1040625,11.190125 8.4763125,10.5844375 9.47975,9.603125 C8.8400625,9.949875 8.1075,10.14675 7.3288125,10.14675 Z" id="Shape"></path>
            </g>
        </g>
    </g>
</svg>