<?xml version="1.0" encoding="UTF-8"?>
<svg width="32px" height="32px" viewBox="0 0 32 32" version="1.1" xmlns="http://www.w3.org/2000/svg" xmlns:xlink="http://www.w3.org/1999/xlink">
    <!-- Generator: Sketch 50.2 (55047) - http://www.bohemiancoding.com/sketch -->
    <title>liechtenstein@1x</title>
    <desc>Created with Sketch.</desc>
    <defs></defs>
    <g id="flags" stroke="none" stroke-width="1" fill="none" fill-rule="evenodd">
        <g id="liechtenstein" fill-rule="nonzero">
            <path d="M32,16 C32,24.8365 24.8365,32 16,32 C7.1635,32 0,24.8365 0,16 C0.695625,16 16,13.9130625 16,13.9130625 L32,16 Z" id="Shape" fill="#D80027"></path>
            <path d="M0,16 C0,7.1635 7.1635,0 16,0 C24.8365,0 32,7.1635 32,16" id="Shape" fill="#0052B4"></path>
            <path d="M11.8260625,11.1304375 C11.8260625,9.977875 10.8916875,9.0435 9.739125,9.0435 C9.2044375,9.0435 8.717125,9.24475 8.3478125,9.5753125 L8.3478125,8.3478125 L9.0434375,8.3478125 L9.0434375,6.9565 L8.3478125,6.9565 L8.3478125,6.260875 L6.9565,6.260875 L6.9565,6.9565 L6.260875,6.9565 L6.260875,8.3478125 L6.9565,8.3478125 L6.9565,9.5753125 C6.5871875,9.24475 6.099875,9.0435 5.5651875,9.0435 C4.412625,9.0435 3.47825,9.977875 3.47825,11.1304375 C3.47825,11.748375 3.7470625,12.303375 4.173875,12.6855625 L4.173875,13.9130625 L11.130375,13.9130625 L11.130375,12.6855625 C11.5573125,12.303375 11.8260625,11.748375 11.8260625,11.1304375 Z" id="Shape" fill="#FFDA44"></path>
        </g>
    </g>
</svg>