<?xml version="1.0" encoding="UTF-8"?>
<svg width="32px" height="32px" viewBox="0 0 32 32" version="1.1" xmlns="http://www.w3.org/2000/svg" xmlns:xlink="http://www.w3.org/1999/xlink">
    <!-- Generator: Sketch 50.2 (55047) - http://www.bohemiancoding.com/sketch -->
    <title>Macau SAR China@1x</title>
    <desc>Created with Sketch.</desc>
    <defs></defs>
    <g id="flags" stroke="none" stroke-width="1" fill="none" fill-rule="evenodd">
        <g id="Macau-SAR-China" fill-rule="nonzero">
            <g id="Group">
                <path d="M0.523929471,12.195466 C2.63576826,3.64332494 11.2846348,-1.57178841 19.8367758,0.548110831 C28.3889169,2.65994962 33.6040302,11.3088161 31.484131,19.8609572 C29.3722922,28.4130982 20.7234257,33.6282116 12.1712846,31.5083123 C3.61914358,29.3884131 -1.59596977,20.7476071 0.523929471,12.195466" id="Shape" fill="#54B948"></path>
                <polygon id="Shape" fill="#FFE158" points="15.7743073 3.21612091 16.2901763 4.79596977 17.9667506 4.79596977 16.6125945 5.77128463 17.1284635 7.34307305 15.7743073 6.36775819 14.4120907 7.34307305 14.9279597 5.77128463 13.5738035 4.79596977 15.2503778 4.79596977"></polygon>
                <polygon id="Shape" fill="#FFE158" points="5.67455919 10.2690176 6.69823678 10.4866499 7.22216625 9.59193955 7.32695214 10.6156171 8.35062972 10.8332494 7.39949622 11.2443325 7.50428212 12.2760705 6.80302267 11.5103275 5.85188917 11.9214106 6.37581864 11.0347607"></polygon>
                <polygon id="Shape" fill="#FFE158" points="9.22115869 5.67455919 9.99496222 6.36775819 10.9057935 5.85188917 10.4785894 6.79496222 11.2523929 7.48816121 10.2125945 7.37531486 9.79345088 8.31838791 9.57581864 7.31083123 8.53602015 7.19798489 9.43879093 6.69017632"></polygon>
                <polygon id="Shape" fill="#FFE158" points="25.865995 10.2690176 24.8503778 10.4866499 24.3264484 9.59193955 24.213602 10.6156171 23.1899244 10.8332494 24.1491184 11.2443325 24.036272 12.2760705 24.7375315 11.5103275 25.688665 11.9214106 25.1647355 11.0347607"></polygon>
                <polygon id="Shape" fill="#FFE158" points="22.3193955 5.67455919 21.5455919 6.36775819 20.6428212 5.85188917 21.0700252 6.79496222 20.2881612 7.48816121 21.3279597 7.37531486 21.7551637 8.31838791 21.972796 7.31083123 23.0125945 7.19798489 22.1017632 6.69017632"></polygon>
            </g>
            <g id="Group" transform="translate(5.561713, 8.624685)" fill="#FFFFFF">
                <path d="M10.2367758,17.7652393 L5.36826196,17.7652393 C6.78690176,18.4503778 8.38287154,18.8372796 10.0675063,18.861461 L10.2367758,18.861461 L10.3576826,18.861461 C12.0342569,18.8372796 13.6302267,18.4503778 15.056927,17.7652393 L10.2367758,17.7652393 Z" id="Shape"></path>
                <path d="M10.1803526,16.6690176 L3.55465995,16.6690176 C3.95768262,16.9753149 4.38488665,17.2493703 4.83627204,17.4911839 L10.1803526,17.4911839 L15.572796,17.4911839 C16.0161209,17.2493703 16.4433249,16.9753149 16.8544081,16.6690176 L10.2367758,16.6690176 L10.1803526,16.6690176 Z" id="Shape"></path>
                <polygon id="Shape" points="10.1803526 15.572796 2.28916877 15.572796 2.87758186 16.1209068 10.2367758 16.1209068 10.2367758 16.1209068 17.5395466 16.1209068 18.1279597 15.572796 10.2367758 15.572796"></polygon>
                <polygon id="Shape" points="1.33803526 14.4846348 1.54760705 14.9846348 10.2367758 14.9846348 18.8695214 14.9846348 19.0790932 14.4846348 10.1803526 14.4846348"></polygon>
                <path d="M10.2367758,11.0911839 C10.2287154,11.0831234 10.2206549,11.075063 10.2125945,11.0670025 C10.2125945,11.0670025 10.2125945,11.0670025 10.2125945,11.0670025 C10.2125945,11.0670025 10.2125945,11.0670025 10.2125945,11.0670025 C10.204534,11.075063 10.1964736,11.0831234 10.1884131,11.0911839 C8.78589421,12.2518892 7.92342569,12.9934509 6.0534005,12.9934509 L0.37884131,12.9853904 C0.523929471,13.2513854 0.677078086,13.5254408 0.846347607,13.7753149 L6.21460957,13.7833753 C8.79395466,13.7833753 10.204534,12.1551637 10.2125945,12.1471033 C10.2206549,12.1551637 11.6312343,13.7833753 14.2105793,13.7833753 L19.5788413,13.7753149 C19.7400504,13.5173804 19.9012594,13.2513854 20.0463476,12.9853904 L14.3717884,12.9934509 C12.4937028,12.9934509 11.6392947,12.2518892 10.2367758,11.0911839 Z" id="Shape"></path>
                <path d="M14.2911839,11.9858942 C14.1138539,11.9858942 13.9365239,11.9858942 13.7511335,11.9778338 C17.2574307,11.6715365 19.627204,9.76120907 20.3445844,7.99596977 C19.4821159,7.39949622 18.3536524,7.07707809 17.1445844,7.07707809 C15.7017632,7.07707809 14.1299748,7.53652393 12.7274559,8.51989924 C13.4367758,7.64130982 15.6130982,6.68211587 17.4992443,6.68211587 C17.7491184,6.68211587 17.990932,6.69823678 18.2246851,6.73853904 C18.5148615,6.44030227 18.7647355,6.06952141 19.0549118,5.77128463 C18.7324937,5.69874055 18.3939547,5.66649874 18.0392947,5.66649874 C15.8790932,5.66649874 13.3561713,6.89168766 12.3405542,7.93148615 C13.3078086,6.4 14.0654912,4.71536524 13.670529,2.76473552 C13.5576826,2.20050378 13.3481108,1.62015113 13.0176322,1.00755668 C12.7274559,1.28161209 12.4050378,1.54760705 12.1148615,1.82166247 C12.1148615,1.82166247 12.1148615,1.82166247 12.106801,1.82972292 C13.2110831,3.82871537 12.8080605,6.1581864 11.9133501,7.78639798 C13.0579345,5.4488665 12.6710327,3.13551637 11.5667506,1.47506297 C11.1879093,0.902770781 10.720403,0.411083123 10.204534,0.0241813602 C10.1964736,0.0161209068 10.1884131,0.0080604534 10.1803526,0.0080604534 C10.1803526,0.0080604534 10.1803526,0.0080604534 10.1803526,0.0080604534 C10.1803526,0.0080604534 10.1803526,0.0080604534 10.1803526,0.0080604534 C10.1722922,0.0161209068 10.1642317,0.0241813602 10.1561713,0.0241813602 C9.64030227,0.411083123 9.17279597,0.902770781 8.79395466,1.47506297 C7.68967254,3.13551637 7.30277078,5.4488665 8.44735516,7.78639798 C7.55264484,6.1581864 7.14962217,3.82871537 8.26196474,1.82972292 C8.26196474,1.82972292 8.26196474,1.82972292 8.25390428,1.82166247 C7.96372796,1.55566751 7.64130982,1.28161209 7.3511335,1.00755668 C7.02065491,1.62015113 6.81108312,2.20050378 6.69823678,2.76473552 C6.30327456,4.71536524 7.06901763,6.4 8.02821159,7.93148615 C7.01259446,6.89974811 4.48967254,5.66649874 2.32947103,5.66649874 C1.97481108,5.66649874 1.63627204,5.69874055 1.3138539,5.77128463 C1.60403023,6.06952141 1.85390428,6.44030227 2.1440806,6.73853904 C2.37783375,6.70629723 2.61964736,6.68211587 2.86952141,6.68211587 C4.75566751,6.68211587 6.93198992,7.64130982 7.64130982,8.51989924 C6.23879093,7.53652393 4.67506297,7.07707809 3.22418136,7.07707809 C2.01511335,7.07707809 0.886649874,7.39949622 0.0241813602,7.99596977 C0.741561713,9.76120907 3.11133501,11.6715365 6.61763224,11.9778338 C6.43224181,11.9858942 6.24685139,11.9858942 6.07758186,11.9858942 C3.57884131,11.9858942 2.16826196,11.1879093 0.894710327,10.3012594 L0.0241813602,10.8251889 C1.03979849,11.5828715 2.30528967,12.5823678 5.71486146,12.5823678 C8.12493703,12.5823678 9.17279597,11.1073048 10.1642317,10.4221662 C11.1556675,11.1073048 12.2035264,12.5823678 14.613602,12.5823678 C18.0231738,12.5823678 19.288665,11.5828715 20.3042821,10.8251889 L19.4337531,10.3012594 C18.2005038,11.1879093 16.7899244,11.9858942 14.2911839,11.9858942 Z" id="Shape"></path>
            </g>
        </g>
    </g>
</svg>