<?xml version="1.0" encoding="UTF-8"?>
<svg width="32px" height="32px" viewBox="0 0 32 32" version="1.1" xmlns="http://www.w3.org/2000/svg" xmlns:xlink="http://www.w3.org/1999/xlink">
    <!-- Generator: Sketch 50.2 (55047) - http://www.bohemiancoding.com/sketch -->
    <title>malaysia@1x</title>
    <desc>Created with Sketch.</desc>
    <defs></defs>
    <g id="flags" stroke="none" stroke-width="1" fill="none" fill-rule="evenodd">
        <g id="malaysia" fill-rule="nonzero">
            <circle id="Oval" fill="#F0F0F0" cx="16" cy="16" r="16"></circle>
            <g id="Group" transform="translate(0.500000, 3.437500)" fill="#D80027">
                <path d="M14.804375,12.5625 L31.5,12.5625 C31.5,11.1183125 31.3075,9.7194375 30.9488125,8.3885625 L14.804375,8.3885625 L14.804375,12.5625 Z" id="Shape"></path>
                <path d="M14.804375,4.2146875 L29.151625,4.2146875 C28.1721875,2.6164375 26.92,1.20375 25.4598125,0.04075 L14.804375,0.04075 L14.804375,4.2146875 Z" id="Shape"></path>
                <path d="M15.5,28.5625 C19.2655625,28.5625 22.726625,27.261 25.4598125,25.08425 L5.5401875,25.08425 C8.273375,27.261 11.7344375,28.5625 15.5,28.5625 Z" id="Shape"></path>
                <path d="M1.848375,20.9103125 L29.151625,20.9103125 C29.9379375,19.6273125 30.5476875,18.22475 30.9488125,16.736375 L0.0511875,16.736375 C0.45225,18.22475 1.0620625,19.6273125 1.848375,20.9103125 Z" id="Shape"></path>
            </g>
            <path d="M16,16 C16,7.1635 16,6.12175 16,0 C7.1635,0 0,7.1635 0,16 L16,16 Z" id="Shape" fill="#0052B4"></path>
            <g id="Group" transform="translate(4.187500, 4.812500)" fill="#FFDA44">
                <path d="M6.452125,8.883125 C4.267,8.883125 2.495625,7.1116875 2.495625,4.926625 C2.495625,2.7415625 4.2670625,0.970125 6.452125,0.970125 C7.1334375,0.970125 7.7745,1.1424375 8.3341875,1.4456875 C7.4561875,0.587125 6.2554375,0.057125 4.930375,0.057125 C2.2410625,0.057125 0.0608125,2.2373125 0.0608125,4.9266875 C0.0608125,7.6160625 2.2410625,9.79625 4.930375,9.79625 C6.2554375,9.79625 7.4561875,9.26625 8.3341875,8.4076875 C7.7745,8.7108125 7.1335,8.883125 6.452125,8.883125 Z" id="Shape"></path>
                <polygon id="Shape" points="7.5670625 2.144 8.2695 3.612875 9.8558125 3.246375 9.1454375 4.7113125 10.4211875 5.723 8.8328125 6.0810625 8.83725 7.70925 7.5670625 6.690625 6.2968125 7.70925 6.3011875 6.0810625 4.7128125 5.723 5.9885625 4.7113125 5.278125 3.246375 6.8645625 3.612875"></polygon>
            </g>
        </g>
    </g>
</svg>