<?xml version="1.0" encoding="UTF-8"?>
<svg width="32px" height="32px" viewBox="0 0 32 32" version="1.1" xmlns="http://www.w3.org/2000/svg" xmlns:xlink="http://www.w3.org/1999/xlink">
    <!-- Generator: Sketch 50.2 (55047) - http://www.bohemiancoding.com/sketch -->
    <title>marshall-island@1x</title>
    <desc>Created with Sketch.</desc>
    <defs></defs>
    <g id="flags" stroke="none" stroke-width="1" fill="none" fill-rule="evenodd">
        <g id="marshall-island" fill-rule="nonzero">
            <path d="M16,32 C24.8365,32 32,24.8365 32,16 C32,13.3148125 31.3375,10.784625 30.168625,8.5625 L15.9811875,16.01875 L23.4375,1.831375 C21.215375,0.6625 18.6851875,0 16,0 C7.1635,0 0,7.1635 0,16 C0,20.4183125 1.790875,24.4183125 4.68625,27.31375 C7.5816875,30.2091875 11.5816875,32 16,32 Z" id="Shape" fill="#0052B4"></path>
            <path d="M30.15175,8.5799375 C29.419375,7.1859375 28.4671875,5.877125 27.2950625,4.705 C26.122875,3.532875 24.81425,2.5806875 23.420125,1.848375 L4.6675625,27.3324375 L30.15175,8.5799375 Z" id="Shape" fill="#F0F0F0"></path>
            <path d="M4.6675625,27.3324375 L30.15175,8.5799375 C29.419375,7.1859375 28.4671875,5.877125 27.2950625,4.705 L4.6675625,27.3324375 Z" id="Shape" fill="#FF9811"></path>
            <polygon id="Shape" fill="#F0F0F0" points="13.89425 9.382625 11.94025 10.30175 12.9808125 12.19425 10.8589375 11.7883125 10.5900625 13.9318125 9.1120625 12.35525 7.6340625 13.9318125 7.3653125 11.7883125 5.2434375 12.194125 6.283875 10.3016875 4.329875 9.382625 6.2839375 8.4634375 5.2434375 6.5710625 7.3651875 6.976875 7.634125 4.833375 9.1120625 6.4099375 10.5900625 4.833375 10.8589375 6.976875 12.980875 6.5710625 11.9403125 8.4635"></polygon>
        </g>
    </g>
</svg>