<?xml version="1.0" encoding="UTF-8"?>
<svg width="32px" height="32px" viewBox="0 0 32 32" version="1.1" xmlns="http://www.w3.org/2000/svg" xmlns:xlink="http://www.w3.org/1999/xlink">
    <!-- Generator: Sketch 50.2 (55047) - http://www.bohemiancoding.com/sketch -->
    <title>martinique@1x</title>
    <desc>Created with Sketch.</desc>
    <defs></defs>
    <g id="flags" stroke="none" stroke-width="1" fill="none" fill-rule="evenodd">
        <g id="martinique" fill-rule="nonzero">
            <circle id="Oval" fill="#F0F0F0" cx="16" cy="16" r="16"></circle>
            <g id="Group" transform="translate(0.125000, 0.125000)" fill="#0052B4">
                <path d="M31.737875,13.788 C31.2965,10.413875 29.780875,7.1535 27.1886875,4.5613125 C24.5965,1.969125 21.3360625,0.4534375 17.9619375,0.0120625 L17.9619375,13.788 L31.737875,13.788 Z" id="Shape"></path>
                <path d="M13.7880625,0.0120625 C10.413875,0.4534375 7.1534375,1.9690625 4.56125,4.56125 C1.969125,7.1535 0.4534375,10.4139375 0.0120625,13.788125 L13.7880625,13.788125 L13.7880625,0.0120625 Z" id="Shape"></path>
                <path d="M0.0120625,17.962 C0.4534375,21.336125 1.969125,24.596625 4.56125,27.18875 C7.1534375,29.780875 10.4138125,31.2965 13.7880625,31.7380625 L13.7880625,17.962 L0.0120625,17.962 Z" id="Shape"></path>
                <path d="M17.962,31.737875 C21.336125,31.2965 24.5965,29.780875 27.1886875,27.1886875 C29.780875,24.5965 31.2965,21.336125 31.737875,17.962 L17.962,17.962 L17.962,31.737875 Z" id="Shape"></path>
            </g>
            <g id="Group" transform="translate(6.937500, 4.687500)" fill="#F0F0F0">
                <path d="M14.5243125,5.464875 C14.5243125,5.252125 14.69725,5.0791875 14.9100625,5.0791875 L15.7365625,5.0791875 C17.0430625,5.0791875 18.106,4.0163125 18.106,2.709875 C18.106,1.4034375 17.043125,0.3405 15.7365625,0.3405 L14.9516875,0.3405 C14.6955,0.1480625 14.3518125,0.029375 13.9726875,0.029375 C13.181875,0.029375 12.5408125,0.5421875 12.5408125,1.1748125 C12.5408125,1.8013125 13.169625,2.3095625 13.949875,2.3194375 L13.9495,2.324 L15.7365625,2.324 C15.949375,2.324 16.1223125,2.497 16.1223125,2.70975 C16.1223125,2.9225 15.949375,3.0954375 15.7365625,3.0954375 L14.9100625,3.0954375 C13.6035625,3.0954375 12.54075,4.1583125 12.54075,5.46475 C12.54075,6.7711875 13.6035,7.834125 14.9100625,7.834125 L18.1059375,7.834125 L18.1059375,5.8505 L14.9100625,5.8505 C14.69725,5.8505625 14.5243125,5.677625 14.5243125,5.464875 Z" id="Shape"></path>
                <path d="M2.002625,5.464875 C2.002625,5.252125 2.1755625,5.0791875 2.388375,5.0791875 L3.214875,5.0791875 C4.521375,5.0791875 5.5843125,4.0163125 5.5843125,2.709875 C5.5843125,1.4034375 4.5214375,0.3405 3.214875,0.3405 L2.43,0.3405 C2.1738125,0.1480625 1.830125,0.029375 1.451,0.029375 C0.6601875,0.029375 0.019125,0.5421875 0.019125,1.1748125 C0.019125,1.8013125 0.6479375,2.3095625 1.4281875,2.3194375 L1.4278125,2.324 L3.2149375,2.324 C3.42775,2.324 3.6006875,2.497 3.6006875,2.70975 C3.6006875,2.9225 3.42775,3.0954375 3.2149375,3.0954375 L2.3884375,3.0954375 C1.0819375,3.0954375 0.019125,4.1583125 0.019125,5.46475 C0.019125,6.7711875 1.081875,7.834125 2.3884375,7.834125 L5.58425,7.834125 L5.58425,5.8505 L2.388375,5.8505 C2.1755625,5.8505625 2.002625,5.677625 2.002625,5.464875 Z" id="Shape"></path>
                <path d="M14.5243125,20.22625 C14.5243125,20.0135 14.69725,19.8405625 14.9100625,19.8405625 L15.7365625,19.8405625 C17.0430625,19.8405625 18.106,18.7776875 18.106,17.47125 C18.106,16.1648125 17.043125,15.101875 15.7365625,15.101875 L14.9516875,15.101875 C14.6955,14.9094375 14.3518125,14.79075 13.9726875,14.79075 C13.1818125,14.79075 12.54075,15.303625 12.54075,15.9361875 C12.54075,16.5626875 13.1695625,17.0709375 13.9498125,17.0808125 L13.9494375,17.085375 L15.7365,17.085375 C15.9493125,17.085375 16.12225,17.258375 16.12225,17.471125 C16.12225,17.683875 15.9493125,17.8568125 15.7365,17.8568125 L14.91,17.8568125 C13.6035,17.8568125 12.5406875,18.9196875 12.5406875,20.226125 C12.5406875,21.5325625 13.6034375,22.5955 14.91,22.5955 L18.1059375,22.5955 L18.1059375,20.6119375 L14.9100625,20.6119375 C14.69725,20.612 14.5243125,20.4389375 14.5243125,20.22625 Z" id="Shape"></path>
                <path d="M2.002625,20.22625 C2.002625,20.0135 2.1755625,19.8405625 2.388375,19.8405625 L3.214875,19.8405625 C4.521375,19.8405625 5.5843125,18.7776875 5.5843125,17.47125 C5.5843125,16.1648125 4.5214375,15.101875 3.214875,15.101875 L2.43,15.101875 C2.1738125,14.9094375 1.830125,14.79075 1.451,14.79075 C0.660125,14.79075 0.0190625,15.303625 0.0190625,15.9361875 C0.0190625,16.5626875 0.647875,17.0709375 1.428125,17.0808125 L1.42775,17.085375 L3.214875,17.085375 C3.4276875,17.085375 3.600625,17.258375 3.600625,17.471125 C3.600625,17.683875 3.4276875,17.8568125 3.214875,17.8568125 L2.388375,17.8568125 C1.081875,17.8568125 0.0190625,18.9196875 0.0190625,20.226125 C0.0190625,21.5325625 1.0818125,22.5955 2.388375,22.5955 L5.58425,22.5955 L5.58425,20.6119375 L2.388375,20.6119375 C2.1755625,20.612 2.002625,20.4389375 2.002625,20.22625 Z" id="Shape"></path>
            </g>
        </g>
    </g>
</svg>