<?xml version="1.0" encoding="UTF-8"?>
<svg width="32px" height="32px" viewBox="0 0 32 32" version="1.1" xmlns="http://www.w3.org/2000/svg" xmlns:xlink="http://www.w3.org/1999/xlink">
    <!-- Generator: Sketch 50.2 (55047) - http://www.bohemiancoding.com/sketch -->
    <title>mauritius@1x</title>
    <desc>Created with Sketch.</desc>
    <defs></defs>
    <g id="flags" stroke="none" stroke-width="1" fill="none" fill-rule="evenodd">
        <g id="mauritius" fill-rule="nonzero">
            <path d="M1.9454375,8.3478125 L16,9.739125 L30.0545625,8.3478125 C27.340875,3.3743125 22.0646875,0 16,0 C9.9353125,0 4.659125,3.3743125 1.9454375,8.3478125 Z" id="Shape" fill="#D80027"></path>
            <path d="M1.9454375,23.6521875 L16,25.0435 L30.0545625,23.6521875 C31.2948125,21.379 32,18.771875 32,16 L16,14.6086875 L0,16 C0,18.771875 0.7051875,21.379 1.9454375,23.6521875 Z" id="Shape" fill="#FFDA44"></path>
            <path d="M1.9454375,8.3478125 C0.7051875,10.621 0,13.228125 0,16 L32,16 C32,13.228125 31.2948125,10.621 30.0545625,8.3478125 L16,8.3478125 L1.9454375,8.3478125 Z" id="Shape" fill="#0052B4"></path>
            <path d="M16,32 C22.0646875,32 27.340875,28.6256875 30.0545625,23.6521875 L1.9454375,23.6521875 C4.659125,28.6256875 9.9353125,32 16,32 Z" id="Shape" fill="#6DA544"></path>
        </g>
    </g>
</svg>