<?xml version="1.0" encoding="UTF-8"?>
<svg width="32px" height="32px" viewBox="0 0 32 32" version="1.1" xmlns="http://www.w3.org/2000/svg" xmlns:xlink="http://www.w3.org/1999/xlink">
    <!-- Generator: Sketch 50.2 (55047) - http://www.bohemiancoding.com/sketch -->
    <title>mauritania@1x</title>
    <desc>Created with Sketch.</desc>
    <defs></defs>
    <g id="flags" stroke="none" stroke-width="1" fill="none" fill-rule="evenodd">
        <g id="mauritania" fill-rule="nonzero">
            <circle id="Oval" fill="#496E2D" cx="16" cy="16" r="16"></circle>
            <g id="Group" transform="translate(10.375000, 11.125000)" fill="#FFDA44">
                <path d="M5.625,7.3594375 C2.960875,7.3594375 0.73525,5.4870625 0.1891875,2.98675 C0.1053125,3.371125 0.0598125,3.7696875 0.0598125,4.1793125 C0.0598125,7.253 2.551375,9.7445 5.625,9.7445 C8.698625,9.7445 11.1901875,7.2529375 11.1901875,4.1793125 C11.1901875,3.7696875 11.1446875,3.371125 11.0608125,2.9866875 C10.51475,5.487125 8.289125,7.3594375 5.625,7.3594375 Z" id="Shape"></path>
                <polygon id="Shape" points="5.6249375 0.0054375 6.1429375 1.59975 7.819375 1.59975 6.4631875 2.5850625 6.9811875 4.179375 5.6249375 3.194 4.26875 4.179375 4.7868125 2.5850625 3.430625 1.59975 5.1069375 1.59975"></polygon>
            </g>
        </g>
    </g>
</svg>