<?xml version="1.0" encoding="UTF-8"?>
<svg width="32px" height="32px" viewBox="0 0 32 32" version="1.1" xmlns="http://www.w3.org/2000/svg" xmlns:xlink="http://www.w3.org/1999/xlink">
    <!-- Generator: Sketch 50.2 (55047) - http://www.bohemiancoding.com/sketch -->
    <title>mayotte@1x</title>
    <desc>Created with Sketch.</desc>
    <defs>
        <circle id="path-1" cx="16" cy="16" r="16"></circle>
    </defs>
    <g id="flags" stroke="none" stroke-width="1" fill="none" fill-rule="evenodd">
        <g id="mayotte">
            <mask id="mask-2" fill="white">
                <use xlink:href="#path-1"></use>
            </mask>
            <g id="Mask"></g>
            <g mask="url(#mask-2)" id="Group">
                <g transform="translate(-9.000000, -3.000000)">
                    <g transform="translate(25.000000, 18.000000) scale(-1, 1) rotate(-180.000000) translate(-25.000000, -18.000000) ">
                        <path d="M43.8273701,35.2880442 L5.47840621,35.2880442 C2.45301052,35.2880442 0,32.8595638 0,29.864422 L0,5.45806276 C0,2.46292103 2.45301052,0.0344406144 5.47840621,0.0344406144 L43.8273701,0.0344406144 C46.8527658,0.0344406144 49.3057763,2.46292103 49.3057763,5.45806276 L49.3057763,29.864422 C49.3057763,32.8595638 46.8527658,35.2880442 43.8273701,35.2880442 Z" id="Shape" fill="#EEEEEE" fill-rule="nonzero"></path>
                        <g transform="translate(6.139147, 1.549232)" fill-rule="nonzero">
                            <path d="M14.4046055,8.25561786 L17.1437484,8.25561786 C17.8446945,8.25561786 18.1762085,7.89095253 18.3310113,7.58503884 C18.4992961,7.25243069 18.5013425,6.9149365 18.5013425,6.9115997 C18.5013425,6.90504525 18.5067594,6.89968253 18.5133801,6.89968253 C18.5200007,6.89968253 18.5254176,6.90504525 18.5254176,6.9115997 C18.5254176,6.9250661 18.540946,8.25561786 19.8830117,8.25561786 L22.6221546,8.25561786 C23.3428423,8.25561786 23.9450806,8.53197698 24.3639871,9.05466395 C24.7507534,9.53754758 24.9639382,10.2211163 24.9639382,10.9792865 L24.9639382,22.4353789 C24.9639382,22.4419333 24.9585214,22.4472961 24.9519007,22.4472961 L12.0462101,22.4472961 C12.0395894,22.4472961 12.0341725,22.4419333 12.0341725,22.4353789 L12.0341725,10.9792865 C12.0341725,10.2239764 12.2525336,9.5404077 12.6490502,9.05454478 C13.0756607,8.53197698 13.682714,8.25561786 14.4046055,8.25561786 Z M12.0582476,22.4234617 L24.9399835,22.4234617 L24.9399835,10.9792865 C24.9399835,9.36439113 24.0085185,8.27945219 22.6223954,8.27945219 L19.8832525,8.27945219 C18.7863915,8.27945219 18.5602061,7.40628132 18.5136208,7.05520157 C18.4670355,7.40628132 18.2408501,8.27945219 17.1439892,8.27945219 L14.4048462,8.27945219 C13.0013891,8.27945219 12.058368,9.3645103 12.058368,10.9792865 L12.0582476,22.4234617 Z" id="Shape" fill="#231F20"></path>
                            <path d="M23.7730641,15.4335663 C23.8024357,15.3897111 23.8286776,15.3437108 23.8526323,15.2965188 C23.9411082,15.491007 23.9921474,15.70063 23.9921474,15.908227 C23.9921474,16.3258046 23.778481,16.7679315 23.4634585,17.010565 C23.778481,17.2518877 23.9921474,17.6938954 23.9921474,18.1115922 C23.9921474,18.5291697 23.778481,18.8858505 23.4634585,19.1284841 C23.778481,19.3712368 23.9921474,19.7277984 23.9921474,20.145376 C23.9921474,20.8748258 23.3785938,21.4673474 22.6225158,21.4673474 C22.2198599,21.4673474 21.8664377,21.2924034 21.615816,21.0266505 C21.3651944,21.3304191 20.9981697,21.5351561 20.5680683,21.5351561 C20.1503655,21.5351561 19.7900819,21.3425746 19.5381361,21.0551326 C19.2875145,21.3438855 18.9286753,21.5351561 18.5136208,21.5351561 C18.0972422,21.5351561 17.7370789,21.3425746 17.4864573,21.0525108 C17.2343911,21.3426938 16.8742278,21.5351561 16.4592937,21.5351561 C16.0429151,21.5351561 15.6827518,21.3425746 15.4321302,21.0525108 C15.180064,21.3426938 14.8199007,21.5351561 14.4049666,21.5351561 C13.6475644,21.5351561 13.035335,20.9290489 13.035335,20.1792207 C13.035335,19.768436 13.2311858,19.4117551 13.5228555,19.1623288 C13.2311858,18.9142134 13.035335,18.5575326 13.035335,18.1454369 C13.035335,17.7346521 13.2311858,17.3779713 13.5228555,17.128545 C13.2311858,16.8804296 13.035335,16.5238679 13.035335,16.1116531 C13.035335,15.8705688 13.099134,15.6091061 13.2106016,15.3651617 C13.224204,15.3884002 13.2381676,15.4114003 13.2530941,15.4336854 L23.7730641,15.4335663 Z M18.5137412,17.4679459 C19.7888781,17.4679459 20.8502283,18.334324 21.1557411,19.5018489 C21.2132806,19.2835264 21.2530045,19.0598412 21.2530045,18.8238813 C21.2530045,17.3269658 20.0272215,16.1120106 18.5137412,16.1120106 C17.0017054,16.1120106 15.7744779,17.3268467 15.7744779,18.8238813 C15.7744779,19.0598412 15.8142018,19.2835264 15.8702967,19.5018489 C16.1771337,18.334324 17.2386043,17.4679459 18.5137412,17.4679459 Z" id="Shape" fill="#171796"></path>
                            <path d="M13.0338905,10.6539478 C13.0338905,9.92449801 13.647444,9.33197644 14.4048462,9.33197644 C14.8156876,9.33197644 15.180064,9.51097229 15.4320098,9.78756975 C15.6826314,9.51097229 16.0470079,9.33197644 16.4591733,9.33197644 C16.8700147,9.33197644 17.2343911,9.51097229 17.4863369,9.78756975 C17.7369585,9.51097229 18.101335,9.33197644 18.5135004,9.33197644 C18.9243418,9.33197644 19.2887182,9.51097229 19.540664,9.78756975 C19.7912856,9.51097229 20.1556621,9.33197644 20.5678275,9.33197644 C20.9786689,9.33197644 21.3430453,9.51097229 21.5949911,9.78756975 C21.8456127,9.51097229 22.2099892,9.33197644 22.6221546,9.33197644 C23.3782327,9.33197644 23.9917863,9.92449801 23.9917863,10.6539478 C23.9917863,11.0661627 23.7931668,11.4282062 23.4864502,11.6708398 C23.7932872,11.9135925 23.9917863,12.275636 23.9917863,12.6877317 C23.9917863,13.0998273 23.7931668,13.46199 23.4864502,13.7046236 C23.7932872,13.9473763 23.9917863,14.3093007 23.9917863,14.7215155 C23.9917863,14.9282783 23.9405063,15.1228857 23.8522712,15.2962805 C23.8281961,15.3434725 23.8019542,15.3894727 23.772703,15.4333279 L13.252733,15.4333279 C13.2378065,15.4110428 13.2238429,15.3880427 13.2102405,15.3648042 C13.099134,15.1749637 13.0336497,14.9559262 13.0336497,14.7215155 C13.0336497,14.3093007 13.2335933,13.9472571 13.5389858,13.7046236 C13.2335933,13.4618709 13.0336497,13.0998273 13.0336497,12.6877317 C13.0336497,12.275636 13.2335933,11.9134733 13.5389858,11.6708398 C13.2339544,11.4282062 13.0338905,11.0661627 13.0338905,10.6539478 Z M16.9648705,12.5500884 C17.3578963,12.3264031 17.6153794,12.0389611 17.5401447,11.9087064 C17.4634656,11.7798818 17.0840422,11.8557942 16.6910164,12.0795986 C16.5540292,12.1595628 16.4417189,12.2450089 16.3459001,12.330455 C16.3719012,12.2056822 16.3910409,12.0674431 16.3910409,11.9088256 C16.3910409,11.4587142 16.2677764,11.0952406 16.1170664,11.0952406 C15.9650322,11.0952406 15.8430919,11.458595 15.8430919,11.9088256 C15.8430919,12.0674431 15.8622316,12.2058014 15.8882327,12.330455 C15.7924138,12.2464389 15.6801036,12.1595628 15.5416718,12.0809095 C15.148646,11.8557942 14.7678985,11.7798818 14.6925435,11.9087064 C14.6171885,12.037531 14.8746716,12.3249731 15.2678177,12.5500884 C15.4061291,12.6287417 15.537579,12.6829648 15.6595194,12.7222914 C15.537579,12.7616181 15.4061291,12.8158412 15.2678177,12.8944945 C14.8747919,13.1196098 14.6173089,13.4056218 14.6925435,13.5358765 C14.7678985,13.6647011 15.148646,13.5887887 15.5416718,13.3636734 C15.6799832,13.2850201 15.7922935,13.1982631 15.8882327,13.1141279 C15.8622316,13.2389007 15.8430919,13.3771398 15.8430919,13.5357573 C15.8430919,13.9858687 15.9650322,14.3493423 16.1170664,14.3493423 C16.2677764,14.3493423 16.3910409,13.9859879 16.3910409,13.5357573 C16.3910409,13.3771398 16.3719012,13.2387815 16.3459001,13.1141279 C16.4417189,13.199574 16.5527051,13.2850201 16.6910164,13.3636734 C17.0840422,13.5887887 17.4634656,13.6647011 17.5401447,13.5358765 C17.6154997,13.405741 17.3580167,13.1182989 16.9648705,12.8944945 C16.8265592,12.8158412 16.6964333,12.7616181 16.574493,12.7222914 C16.6964333,12.6829648 16.8265592,12.6287417 16.9648705,12.5500884 Z M22.3337351,11.9087064 C22.2570559,11.7798818 21.8776326,11.8557942 21.4846068,12.0795986 C21.3476196,12.1595628 21.2353093,12.2450089 21.1394905,12.3291441 C21.1654915,12.2043713 21.1846312,12.0661322 21.1846312,11.9088256 C21.1846312,11.4587142 21.0613668,11.0952406 20.9106568,11.0952406 C20.7599467,11.0952406 20.6366823,11.458595 20.6366823,11.9088256 C20.6366823,12.0674431 20.655822,12.2058014 20.6818231,12.330455 C20.5860042,12.2464389 20.4736939,12.1595628 20.3352622,12.0809095 C19.9422364,11.8557942 19.5614889,11.7798818 19.4861339,11.9087064 C19.4107789,12.037531 19.6682619,12.3249731 20.0614081,12.5500884 C20.1997195,12.6287417 20.3298453,12.6829648 20.4531097,12.7222914 C20.3298453,12.7616181 20.1997195,12.8158412 20.0614081,12.8944945 C19.6683823,13.1196098 19.4108993,13.4056218 19.4861339,13.5358765 C19.5614889,13.6647011 19.9422364,13.5887887 20.3352622,13.3636734 C20.4735736,13.2850201 20.5858838,13.1982631 20.6818231,13.1141279 C20.655822,13.2389007 20.6366823,13.3771398 20.6366823,13.5357573 C20.6366823,13.9858687 20.7599467,14.3493423 20.9106568,14.3493423 C21.0613668,14.3493423 21.1846312,13.9859879 21.1846312,13.5357573 C21.1846312,13.3784507 21.1654915,13.2387815 21.1394905,13.1141279 C21.2353093,13.199574 21.3476196,13.2850201 21.4846068,13.3636734 C21.8776326,13.5887887 22.2570559,13.6647011 22.3337351,13.5358765 C22.4090901,13.405741 22.1516071,13.1182989 21.7584609,12.8944945 C21.6214737,12.8158412 21.4900237,12.7616181 21.3680834,12.7222914 C21.4900237,12.6829648 21.6214737,12.6287417 21.7584609,12.5500884 C22.1516071,12.326284 22.4104142,12.0388419 22.3337351,11.9087064 Z" id="Shape" fill="#D42E11"></path>
                            <path d="M15.7744779,18.8238813 C15.7744779,17.3269658 17.001585,16.1120106 18.5137412,16.1120106 C20.0271011,16.1120106 21.2530045,17.3268467 21.2530045,18.8238813 C21.2530045,19.0598412 21.2132806,19.2835264 21.1557411,19.5018489 C20.8503487,18.3344432 19.7888781,17.4679459 18.5137412,17.4679459 C17.2386043,17.4679459 16.1771337,18.334324 15.8704171,19.5018489 C15.8142018,19.2835264 15.7744779,19.059722 15.7744779,18.8238813 Z" id="Shape" fill="#EEEEEE"></path>
                            <g transform="translate(14.565427, 11.082966)" fill="#FFAC33" id="Shape">
                                <path d="M2.97471764,2.45279144 C2.89803849,2.58161602 2.51861513,2.50570366 2.12558935,2.28058836 C1.98727798,2.20193506 1.87629183,2.11648897 1.78047299,2.03104288 C1.80647408,2.15581562 1.82561378,2.29405476 1.82561378,2.45267226 C1.82561378,2.90278369 1.70234934,3.2662573 1.5516393,3.2662573 C1.39960513,3.2662573 1.27766482,2.90290286 1.27766482,2.45267226 C1.27766482,2.29405476 1.29680451,2.15569645 1.3228056,2.03104288 C1.22698676,2.11505891 1.11467649,2.20193506 0.97624474,2.28058836 C0.58321896,2.50570366 0.202471474,2.58161602 0.127116454,2.45279144 C0.0517614351,2.32265597 0.309244481,2.03652477 0.702390636,1.81140948 C0.840702006,1.73275617 0.972151976,1.67853306 1.09409229,1.6392064 C0.972151976,1.59987975 0.840702006,1.54565664 0.702390636,1.46700333 C0.309364856,1.24188804 0.0518818105,0.954445954 0.127116454,0.825621372 C0.202471474,0.69679679 0.58321896,0.772709148 0.97624474,0.997824444 C1.11455611,1.07647775 1.22686639,1.16323473 1.3228056,1.24736993 C1.29680451,1.12259719 1.27766482,0.984358044 1.27766482,0.825740543 C1.27766482,0.375629123 1.39960513,0.012155511 1.5516393,0.012155511 C1.70234934,0.012155511 1.82561378,0.375509951 1.82561378,0.825740543 C1.82561378,0.984358044 1.80647408,1.12271636 1.78047299,1.24736993 C1.87629183,1.16192384 1.98860211,1.07647775 2.12558935,0.996513555 C2.51861513,0.772828319 2.89803849,0.69679679 2.97471764,0.825621372 C3.05007265,0.955756842 2.79258961,1.24319892 2.39944345,1.46700333 C2.26113208,1.54565664 2.13100624,1.59987975 2.00906593,1.6392064 C2.13100624,1.67853306 2.26113208,1.73275617 2.39944345,1.81140948 C2.79246923,2.03521388 3.04995228,2.32265597 2.97471764,2.45279144 Z"></path>
                                <path d="M7.19303384,1.4671225 C7.0560466,1.54577581 6.92459663,1.59999892 6.80265632,1.63932558 C6.92459663,1.67865223 7.0560466,1.73287534 7.19303384,1.81152865 C7.58605962,2.03521388 7.84354267,2.32265597 7.76830802,2.45291061 C7.69162887,2.58173519 7.31220552,2.50582283 6.91917974,2.28070754 C6.7821925,2.20205423 6.66988222,2.11660814 6.57406338,2.03116205 C6.60006447,2.15593479 6.61920416,2.295604 6.61920416,2.45279144 C6.61920416,2.90290286 6.49593972,3.26637647 6.34522969,3.26637647 C6.19451965,3.26637647 6.07125521,2.90302203 6.07125521,2.45279144 C6.07125521,2.29417394 6.0903949,2.15581562 6.11639599,2.03116205 C6.02057715,2.11517808 5.90826687,2.20205423 5.76983513,2.28070754 C5.37680935,2.50582283 4.99606186,2.58173519 4.92070684,2.45291061 C4.84535182,2.32277514 5.10283487,2.03664394 5.49598102,1.81152865 C5.63429239,1.73287534 5.76441823,1.67865223 5.88768267,1.63932558 C5.76441823,1.59999892 5.63429239,1.54577581 5.49598102,1.4671225 C5.10295524,1.24200721 4.8454722,0.954565125 4.92070684,0.825740543 C4.99606186,0.696915962 5.37680935,0.772828319 5.76983513,0.997943615 C5.9081465,1.07659692 6.02045677,1.1633539 6.11639599,1.2474891 C6.0903949,1.12271636 6.07125521,0.984477216 6.07125521,0.825859715 C6.07125521,0.375748295 6.19451965,0.0122746826 6.34522969,0.0122746826 C6.49593972,0.0122746826 6.61920416,0.375629123 6.61920416,0.825859715 C6.61920416,0.983166327 6.60006447,1.12140547 6.57406338,1.24617822 C6.66988222,1.16216218 6.7821925,1.07671609 6.91917974,0.996632727 C7.31220552,0.772947491 7.69162887,0.696915962 7.76830802,0.825740543 C7.84498717,0.955876014 7.58618,1.2433181 7.19303384,1.4671225 Z"></path>
                            </g>
                            <path d="M10.7722769,3.65773625 C9.71766774,3.42046545 6.43478901,1.66053813 6.43478901,1.66053813 L7.21686818,0.0185907815 C7.21686818,0.0185907815 8.15230565,0.497184233 8.78511928,0.76436713 C9.36966237,1.01367428 10.8792906,1.6939062 11.698927,1.72572504 C11.7196315,1.65958476 11.7421417,1.5883201 11.7670594,1.51050099 C11.9779572,0.854222574 12.5517869,0.884015493 13.2133702,1.21221429 C13.8762777,1.54172397 14.8404849,1.74920186 15.7458285,1.74920186 L18.7274076,1.74920186 L18.7575014,1.74920186 L21.740525,1.74920186 C22.6458686,1.74920186 23.6100758,1.54172397 24.2715388,1.21221429 C24.9344463,0.884134665 25.5069518,0.854222574 25.7191737,1.51050099 C25.743971,1.5883201 25.7663609,1.65958476 25.7869451,1.72572504 C26.6070629,1.69438289 28.115367,1.01367428 28.7013546,0.76436713 C29.3341682,0.497303404 30.2696057,0.0185907815 30.2696057,0.0185907815 L31.0516849,1.66053813 C31.0516849,1.66053813 27.7686858,3.42046545 26.7114284,3.65773625 C25.9452388,3.83136939 25.0993606,3.89405369 24.8797958,3.64045636 C24.9121768,3.57967881 25.0490437,3.35885369 25.4015029,3.20011702 C25.7603421,3.03875857 26.1150885,2.75262737 26.0191493,2.55468322 C26.0191493,2.55456405 26.0190289,2.55456405 26.0190289,2.55444488 C25.6193825,2.5430044 25.1489553,2.86345703 24.6193034,3.14637059 C24.4029887,3.26196712 24.1770441,3.37148589 23.9415897,3.44930499 C23.1266481,3.71779878 20.8983785,3.8683126 20.1738387,3.8683126 L18.7576218,3.8683126 L18.727528,3.8683126 L17.311311,3.8683126 C16.5882158,3.8683126 14.3598258,3.71779878 13.5448842,3.44930499 C13.3089483,3.37148589 13.0826425,3.26196712 12.8659667,3.14637059 C12.3355926,2.86345703 11.8651654,2.54312357 11.4675654,2.55444488 C11.4675654,2.55456405 11.467445,2.55456405 11.467445,2.55468322 C11.3716262,2.75262737 11.7262522,3.03875857 12.0850913,3.20011702 C12.4379117,3.35909203 12.5736952,3.58015549 12.6055947,3.6406947 C12.3857892,3.89405369 11.5402721,3.83125021 10.7722769,3.65773625 Z M18.7575014,3.23086331 L22.7964583,3.23086331 L22.7964583,2.12042163 L18.7575014,2.12042163 L18.7575014,3.23086331 Z M15.2061855,3.23086331 L17.574211,3.23086331 L17.574211,2.12042163 L15.2061855,2.12042163 L15.2061855,3.23086331 Z" id="Shape" fill="#CCD6DD"></path>
                            <g transform="translate(11.435666, 2.502605)" fill="#66757F" id="Shape">
                                <path d="M0.649184696,0.69751182 C0.290345538,0.536153371 -0.0644008552,0.250022176 0.0315383628,0.0520780224 C0.0315383628,0.0519588508 0.0316587382,0.0519588508 0.0316587382,0.0518396791 C0.42937916,0.0405183699 0.899806342,0.360732663 1.43006011,0.643765394 C1.29656376,0.931922507 1.17775321,1.1545352 1.17775321,1.1545352 C1.17775321,1.1545352 1.17498458,1.14833827 1.16956768,1.13820868 C1.13778857,1.07755029 1.00200508,0.856486836 0.649184696,0.69751182 Z"></path>
                                <path d="M14.5832426,0.0518396791 C14.5832426,0.0519588508 14.583363,0.0519588508 14.583363,0.0520780224 C14.6791819,0.250022176 14.3245558,0.536153371 13.9657167,0.69751182 C13.6132574,0.856367664 13.4763906,1.07707361 13.4440096,1.13785116 C13.4384723,1.14809993 13.4357037,1.15441603 13.4357037,1.15441603 C13.4357037,1.15441603 13.3168931,0.931922507 13.1835171,0.643765394 C13.713169,0.360732663 14.1834758,0.0403991982 14.5832426,0.0518396791 Z"></path>
                            </g>
                            <g transform="translate(14.806178, 0.476687)" fill="#99AAB5" id="Rectangle-path">
                                <rect x="0.10352287" y="0.117026586" width="2.96003183" height="1.38811168"></rect>
                                <rect x="3.44634857" y="0.117026586" width="5.04866592" height="1.38811168"></rect>
                            </g>
                            <g transform="translate(0.000000, 5.005210)" fill="#CCD6DD" id="Shape">
                                <path d="M0.274576357,11.870214 C0.0130005465,12.07364 -0.125310823,10.2024064 1.3017399,8.73397297 C2.7274665,7.26553957 5.23934061,6.9115997 5.23934061,6.9115997 L5.8802194,8.13942547 C5.62381973,8.34356656 5.3633273,8.51612714 5.11017777,8.64948025 C3.75137991,9.36379527 2.81473869,10.7876585 2.00557505,11.8852296 C2.17723041,11.5888496 2.30013372,11.3332264 2.30013372,11.3332264 C2.30013372,11.3332264 0.873082996,11.403776 0.274576357,11.870214 Z"></path>
                                <path d="M5.09657535,0.767584765 C6.00577097,0.767584765 6.79146141,1.21745784 7.32544681,1.92140493 C6.74981151,1.18992919 5.89466445,0.768061452 5.09693647,0.768061452 C3.72730483,0.768061452 2.62887902,2.22159839 2.62887902,3.1829563 C2.62887902,3.65130098 2.76117162,4.12572343 3.01528416,4.49432142 C2.79692312,4.23011781 2.58470124,3.84733839 2.58470124,3.35337179 C2.58470124,2.33636071 3.3981984,0.767584765 5.09657535,0.767584765 Z"></path>
                                <path d="M7.63890444,5.94464072 C7.87712741,5.36022282 8.00737363,4.70096511 8.00737363,3.93135442 C8.00737363,3.58647159 7.9570567,3.26387386 7.86761775,2.96594467 C7.99389158,3.35110753 8.06310745,3.76773171 8.06310745,4.20068241 C8.06310745,4.79451487 7.90204513,5.38798982 7.63890444,5.94464072 Z"></path>
                                <path d="M2.28617017,12.6318401 C3.01347852,11.8698565 4.59665618,10.5559887 5.75262144,9.41158312 C6.9085867,8.26717751 8.62056607,6.14925848 8.62056607,4.20080158 C8.62056607,2.25103379 7.63577467,0.47072812 4.98294094,0.47072812 C3.18465239,0.47072812 2.09585662,2.30930874 2.28617017,3.437507 C2.46215905,4.48490686 3.16069767,4.81298648 3.40180966,4.89616831 C3.62594871,5.05943351 3.89679343,5.16192115 4.21229743,5.17479169 C4.72449489,5.19648093 5.15327217,4.79379984 4.93960578,4.53889163 C4.61086048,4.14836604 5.02314633,3.56132637 5.45324775,4.4114971 C5.58192908,4.66640532 5.23958136,5.68329723 4.16860115,5.68329723 C3.27011894,5.68329723 1.85811514,4.73683578 1.85811514,3.1829563 C1.85811514,1.6303877 3.0140804,0.0481453571 5.15339255,0.0481453571 C8.80618498,0.0481453571 9.71826962,2.20813199 10.1181568,5.42838902 C10.518044,8.65007611 9.26216711,10.9795249 7.66514628,12.2364285 C6.3133302,13.2994399 6.11471074,12.7096593 4.51094888,13.5638818 C3.39880028,14.1578335 3.95493476,15.9096571 3.95493476,15.9096571 C3.72754558,14.3272956 5.49574027,13.9314073 5.49574027,13.9314073 C5.66691414,13.592483 6.40926941,14.1008694 6.40926941,14.1008694 C6.40926941,14.1008694 7.85004294,13.0283243 8.706153,12.9713603 C9.56214269,12.9143962 9.66217467,13.761826 8.74864553,14.0452162 C7.83644052,14.3272956 7.89265584,15.7400758 7.89265584,15.7400758 L8.00773475,16.3610794 C8.12136916,16.982083 6.99417363,17.5475526 7.03666616,17.2939553 C7.13525363,16.7109674 6.35185033,16.7420713 6.09569142,17.1244932 C5.92042479,17.3821423 6.06692169,18.0560582 6.75173751,18.2255203 C7.43655334,18.3949824 8.0638297,18.3380183 7.32291893,18.7340258 C6.58056365,19.1299141 5.210932,18.6215278 5.210932,18.6215278 L4.07001368,17.7171339 L2.71410483,18.0560582 C2.71410483,18.0560582 3.0140804,17.7456159 3.18525426,17.2940745 C3.35642812,16.842533 2.75659736,16.5306607 2.52920817,16.9822022 C2.30049485,17.4337437 1.37324291,17.0106842 0.745966542,15.5992149 C0.117366045,14.1863155 0.930863203,12.9714794 1.33075038,12.7450532 C1.53671274,12.6283842 1.78769552,12.2575219 1.98270371,11.9251521 C1.94346132,12.065298 1.59786346,13.3542588 2.28617017,12.6318401 Z"></path>
                            </g>
                            <path d="M5.11029815,13.6546906 C5.36344768,13.5213375 5.62394011,13.348777 5.88033977,13.1446359 C6.56936874,12.5960886 7.22866497,11.8178976 7.63902481,10.9498511 C7.9021655,10.3932002 8.06322783,9.79972527 8.06322783,9.20601198 C8.06322783,8.77306128 7.99401195,8.3564371 7.86773813,7.97127424 C7.74134393,7.58587304 7.55741027,7.23229068 7.32556719,6.9267345 C6.79146141,6.22290658 6.00589135,5.77291433 5.09669572,5.77291433 C3.39843915,5.77291433 2.58482162,7.34169028 2.58482162,8.35858219 C2.58482162,8.85242961 2.79716388,9.23520904 3.01540453,9.49953181 C3.24664573,9.77934691 3.48462796,9.92604724 3.48462796,9.92604724 C3.48462796,9.92604724 3.4535711,9.91925446 3.40180966,9.90137871 C3.16069767,9.81819688 2.46215905,9.49011725 2.28617017,8.44271739 C2.09573624,7.3146383 3.18465239,5.47593851 4.98294094,5.47593851 C7.63589505,5.47593851 8.62056607,7.25624418 8.62056607,9.20601198 C8.62056607,11.1544689 6.9085867,13.2723879 5.75262144,14.4167935 C4.59665618,15.5611991 3.01335815,16.8750668 2.28617017,17.6370505 C1.59798384,18.3594692 1.94346132,17.0706276 1.98258334,16.9301242 C1.9847501,16.9221397 1.9861946,16.9171344 1.9861946,16.9171344 C1.9925745,16.9084349 1.99919515,16.8993779 2.00557505,16.8906783 C2.81473869,15.7928689 3.75137991,14.3690057 5.11029815,13.6546906 Z" id="Shape" fill="#99AAB5"></path>
                            <g transform="translate(26.723346, 5.005210)" fill="#CCD6DD" id="Shape">
                                <path d="M9.95071458,11.870214 C9.35220794,11.403776 7.92503683,11.3332264 7.92503683,11.3332264 C7.92503683,11.3332264 8.0481809,11.5893263 8.22031776,11.886183 C7.41103375,10.7884927 6.47415177,9.36391445 5.11499279,8.64948025 C4.86184326,8.51612714 4.60135083,8.34356656 4.34495116,8.13942547 L4.98582995,6.9115997 C4.98582995,6.9115997 7.49625955,7.26553957 8.92343065,8.73397297 C10.3506018,10.2024064 10.2122904,12.0735208 9.95071458,11.870214 Z"></path>
                                <path d="M2.36766434,2.93567507 C2.27244737,3.2418271 2.21924143,3.57479277 2.21924143,3.93135442 C2.21924143,4.70883044 2.35225628,5.37368922 2.59505353,5.96251647 C2.32685707,5.40062202 2.16218348,4.80083097 2.16218348,4.20068241 C2.16218348,3.7564104 2.23489024,3.32917994 2.36766434,2.93567507 Z"></path>
                                <path d="M2.3840354,2.91008349 C2.38815224,2.89859751 2.39189482,2.88674101 2.39601166,2.87525503 C2.39189482,2.88674101 2.38777798,2.89822699 2.3840354,2.91008349 Z"></path>
                                <path d="M7.93912076,3.43738782 C8.12943431,2.30930874 7.04063855,0.470608949 5.24234999,0.470608949 C2.58939588,0.470608949 1.60472486,2.25091462 1.60472486,4.20068241 C1.60472486,6.14913931 3.31670423,8.26705834 4.47266949,9.41146394 C5.62863475,10.5558696 7.21193278,11.8697373 7.93912076,12.631721 C8.6282701,13.3552122 8.28086661,12.0617228 8.24258722,11.9241987 C8.43783617,12.2566877 8.68930044,12.6279075 8.89610543,12.7446957 C9.29466848,12.9711219 10.1081656,14.1860771 9.47956514,15.5988574 C8.8536129,17.0103267 7.92503683,17.4333861 7.69776802,16.9818447 C7.4690547,16.5303032 6.86910356,16.8421755 7.0403978,17.2937169 C7.21157166,17.7452584 7.51154723,18.0557006 7.51154723,18.0557006 L6.15696251,17.7167764 L5.01472005,18.6211702 C5.01472005,18.6211702 3.64508841,19.1296758 2.90417763,18.7336683 C2.16182235,18.33778 2.78909872,18.3947441 3.47391454,18.2251628 C4.15873037,18.0557006 4.30522727,17.3817848 4.12996064,17.1241356 C3.87380172,16.7417137 3.09184293,16.7106099 3.1889859,17.2935978 C3.23147843,17.5471951 2.1042829,16.9817255 2.21936181,16.3607219 L2.33299622,15.7397183 C2.33299622,15.7397183 2.39053567,14.3268189 1.47700653,14.0448587 C0.56347739,13.7614685 0.663509372,12.9140387 1.51949906,12.9710027 C2.37548874,13.0279668 3.81638264,14.1005119 3.81638264,14.1005119 C3.81638264,14.1005119 4.55873792,13.5920063 4.72991179,13.9310498 C4.72991179,13.9310498 6.49943061,14.3269381 6.27071729,15.9092996 C6.27071729,15.9092996 6.82673141,14.1574759 5.71470318,13.5635243 C4.11094132,12.7093017 3.91232186,13.2990824 2.56182991,12.236071 C0.963484945,10.9791673 -0.29239192,8.64971859 0.107495259,5.4280315 C0.507382439,2.20777447 1.41958745,0.0477878421 5.07225951,0.0477878421 C7.21157166,0.0477878421 8.36753692,1.63014936 8.36753692,3.18259878 C8.36753692,4.73647826 6.95553312,5.68293972 6.0570509,5.68293972 C4.9860707,5.68293972 4.6436026,4.6660478 4.77240431,4.41113959 C5.20250572,3.56096885 5.6146712,4.1481277 5.28604627,4.53853411 C5.07237988,4.79344233 5.50103679,5.19612342 6.01335462,5.17443417 C6.32885863,5.16156363 6.59970334,5.05907599 6.8238424,4.8958108 C7.06471363,4.81286731 7.76313188,4.48478769 7.93912076,3.43738782 Z"></path>
                                <path d="M5.13003972,0.767584765 C6.82697216,0.767584765 7.64046932,2.33636071 7.64046932,3.35325262 C7.64046932,3.84710005 7.42812706,4.22987947 7.2098864,4.49408308 C7.46399893,4.12548508 7.59629153,3.65106264 7.59629153,3.18283712 C7.59629153,2.22147921 6.49918986,0.767942281 5.12967859,0.767942281 C4.32508921,0.767942281 3.46175663,1.19696031 2.88612132,1.94023406 C3.42058823,1.22568069 4.21217706,0.767584765 5.13003972,0.767584765 Z"></path>
                            </g>
                            <path d="M34.9436633,16.8913934 C34.9499228,16.8998546 34.9561823,16.9085541 34.9624419,16.9170153 C34.9624419,16.9170153 34.9638864,16.9219013 34.9659328,16.9295283 C35.0042121,17.0669332 35.351736,18.3604226 34.6624663,17.6370505 C33.9351579,16.8750668 32.3519803,15.5611991 31.196015,14.4167935 C30.0400498,13.2723879 28.3280704,11.1544689 28.3280704,9.20601198 C28.3280704,7.25624418 29.3128618,5.47593851 31.9656955,5.47593851 C33.7639841,5.47593851 34.8527799,7.31451913 34.6624663,8.44271739 C34.4864774,9.49011725 33.7880592,9.81819688 33.5468268,9.90137871 C33.4951858,9.91925446 33.4640085,9.92604724 33.4640085,9.92604724 C33.4640085,9.92604724 33.7019907,9.77934691 33.9332319,9.49941264 C34.151593,9.23520904 34.3638149,8.85242961 34.3638149,8.35858219 C34.3638149,7.34169028 33.5503177,5.77291433 31.8533853,5.77291433 C30.9354022,5.77291433 30.1439338,6.23101025 29.6094669,6.94556362 C29.4021804,7.22263777 29.2332936,7.53784685 29.111233,7.88058459 C29.1099088,7.88427892 29.1087051,7.88797324 29.1073809,7.89178673 C29.1016029,7.90799408 29.0965471,7.92467811 29.0910099,7.94100463 C28.9582358,8.33450951 28.8854086,8.76173997 28.8854086,9.20601198 C28.8854086,9.80616054 29.0500822,10.4059516 29.3182787,10.967846 C29.7292404,11.8287422 30.3840828,12.6000213 31.0682967,13.144755 C31.3246964,13.3488961 31.5851888,13.5214567 31.8383383,13.6548098 C33.1974973,14.369244 34.1343793,15.7937031 34.9436633,16.8913934 Z" id="Shape" fill="#99AAB5"></path>
                        </g>
                    </g>
                </g>
            </g>
        </g>
    </g>
</svg>