<?xml version="1.0" encoding="UTF-8"?>
<svg width="32px" height="32px" viewBox="0 0 32 32" version="1.1" xmlns="http://www.w3.org/2000/svg" xmlns:xlink="http://www.w3.org/1999/xlink">
    <!-- Generator: Sketch 50.2 (55047) - http://www.bohemiancoding.com/sketch -->
    <title>mexico@1x</title>
    <desc>Created with Sketch.</desc>
    <defs></defs>
    <g id="flags" stroke="none" stroke-width="1" fill="none" fill-rule="evenodd">
        <g id="mexico" transform="translate(16.000000, 16.000000) scale(-1, 1) translate(-16.000000, -16.000000) " fill-rule="nonzero">
            <path d="M0.551838604,12.15582 C2.66921038,3.57576884 11.3164921,-1.65004138 19.8748765,0.472690835 C28.4332609,2.59542305 33.6458746,11.2645966 31.5285028,19.8446478 C29.411131,28.416597 20.7638494,33.6505092 12.205465,31.527777 C3.65516213,29.3969427 -1.56553317,20.7277692 0.551838604,12.15582" id="Shape" fill="#F1F2F2"></path>
            <g id="Group" transform="translate(0.000000, 0.891139)">
                <path d="M10.6747475,0.0324050633 C5.8020202,1.77417722 1.86666667,5.84911392 0.533333333,11.2607595 C-1.45454545,19.321519 3.03030303,27.4632911 10.6747475,30.1772152 L10.6747475,0.0324050633 Z" id="Shape" fill="#006847"></path>
                <path d="M21.389899,0.0405063291 L21.389899,30.1610127 C26.2464646,28.4111392 30.1737374,24.3443038 31.5070707,18.9407595 C33.4949495,10.8962025 29.0181818,2.76253165 21.389899,0.0405063291" id="Shape" fill="#CE1126"></path>
            </g>
            <g transform="translate(16.000000, 16.000000) scale(-1, 1) translate(-16.000000, -16.000000) translate(11.151515, 10.612658)" id="Group">
                <g transform="translate(4.848485, 5.387342) scale(-1, 1) rotate(-180.000000) translate(-4.848485, -5.387342) ">
                    <g id="Shape">
                        <g>
                            <path d="M8.88716834,5.05425344 C8.88716834,2.77875323 7.08674056,0.934892065 4.86468332,0.934892065 C2.64347457,0.934892065 0.842198299,2.77868082 0.842198299,5.05425344 L0.0376871542,5.05425344 C0.0376871542,2.32394283 2.19858231,0.111005308 4.86468332,0.111005308 C7.53078432,0.111005308 9.69167948,2.32394283 9.69167948,5.05425344 L8.88716834,5.05425344 Z" fill="#A6D388"></path>
                            <g transform="translate(0.000000, 0.043446)" fill="#5C913B">
                                <path d="M1.27902989,3.14145747 C1.20499903,3.28975419 1.05538173,3.37215734 0.902511888,3.36469906 C0.847006417,3.36390255 0.790652454,3.34818947 0.73762175,3.32183204 C0.539711159,3.2188643 0.460872178,2.97006179 0.561418395,2.76738478 C0.634600767,2.62155002 0.71428824,2.47904614 0.799561613,2.34226269 C0.799561613,2.34226269 0.800339397,2.34226269 0.800339397,2.34146618 C0.80111718,2.33980073 0.801965671,2.33813529 0.803591946,2.33654226 C0.805996005,2.33321138 0.80762228,2.33074942 0.810026339,2.32749095 C0.810026339,2.32669443 0.810026339,2.32669443 0.810026339,2.32669443 C0.811652614,2.32502899 0.812430397,2.32336355 0.813278888,2.32177052 C0.813278888,2.320974 0.813278888,2.320974 0.814056672,2.32010508 C0.814834456,2.31843964 0.815682947,2.31677419 0.817309222,2.31597768 C0.817309222,2.31518116 0.817309222,2.31597768 0.817309222,2.31518116 C0.818087006,2.31438465 0.819713281,2.31271921 0.820561772,2.31105376 L0.820561772,2.30938832 C0.821339556,2.30772288 0.822965831,2.30605744 0.823814322,2.30526092 C0.823814322,2.30446441 0.823814322,2.30359548 0.823814322,2.30359548 C0.825440597,2.30279897 0.82621838,2.30113352 0.827066872,2.3002646 C0.827066872,2.29946808 0.827066872,2.29946808 0.827844655,2.29859916 C0.828622439,2.29780264 0.82947093,2.29693371 0.830248714,2.29526827 C0.830248714,2.29447176 0.831026498,2.29360283 0.831874989,2.29280632 C0.832652773,2.2920098 0.833501264,2.29114087 0.833501264,2.29034436 C0.834279048,2.28954784 0.834279048,2.28867892 0.835127539,2.2878824 C0.835905323,2.28621696 0.836753814,2.28542044 0.837531597,2.283755 C0.837531597,2.283755 0.838309381,2.283755 0.838309381,2.28295849 C0.839087165,2.28216197 0.839935656,2.28129304 0.84071344,2.28049653 C0.84071344,2.27883109 0.841491223,2.27716565 0.843117498,2.27557261 C0.843117498,2.2747761 0.843117498,2.2747761 0.843117498,2.27390717 C0.843895282,2.27224173 0.844743773,2.27057629 0.846370048,2.26977977 C0.846370048,2.26898326 0.847147832,2.26898326 0.847147832,2.26898326 C0.848774107,2.2665213 0.850400382,2.26319042 0.85280444,2.26072846 C0.85280444,2.25993195 0.853582224,2.25993195 0.853582224,2.25993195 C0.854360008,2.25746999 0.855986283,2.25580455 0.857612558,2.2541391 L0.857612558,2.25334259 C0.898622969,2.18991098 0.942108147,2.12894134 0.987148893,2.06630625 C1.06924042,1.95341827 1.19792827,1.89657602 1.32583833,1.90149993 C1.40305103,1.90483082 1.48111223,1.93118824 1.54786021,1.98303416 C1.72646762,2.11815217 1.76429619,2.37600599 1.63072953,2.55891493 C1.49786993,2.7426928 1.3804246,2.93878045 1.27902989,3.14145747"></path>
                                <path d="M0.882430928,4.44564312 C0.86553181,4.57417177 0.853440809,4.70516238 0.848632692,4.83861494 C0.843824574,4.93745529 0.843824574,5.0347026 0.846228633,5.1318775 C0.852663025,5.35844998 0.678085945,5.54874479 0.456064061,5.55533415 C0.446377119,5.55533415 0.436760885,5.55533415 0.427073942,5.55453763 C0.217920843,5.54548632 0.0481518799,5.37249762 0.0424952714,5.15410753 C0.0400912128,5.06924241 0.0400912128,4.98358078 0.0417174878,4.89791915 C0.0417174878,4.89379175 0.0424952714,4.89053328 0.0417174878,4.8872024 L0.0424952714,4.88640588 C0.0424952714,4.88474044 0.0424952714,4.883075 0.0417174878,4.88148197 L0.0424952714,4.88068545 C0.0424952714,4.87735457 0.0424952714,4.87409609 0.0424952714,4.87076521 L0.0424952714,4.86996869 L0.0424952714,4.86504478 C0.0424952714,4.86258282 0.0424952714,4.86091738 0.0424952714,4.85925194 L0.0424952714,4.85845542 C0.0424952714,4.85678998 0.0424952714,4.85599347 0.0432730551,4.85432803 C0.0424952714,4.85353151 0.0424952714,4.85353151 0.0424952714,4.85266258 C0.0424952714,4.85099714 0.0432730551,4.8493317 0.0424952714,4.84773867 C0.0424952714,4.84607323 0.0432730551,4.84440779 0.0432730551,4.84281475 C0.0432730551,4.84201824 0.0424952714,4.84201824 0.0424952714,4.84114931 C0.0424952714,4.8403528 0.0432730551,4.83868736 0.0432730551,4.83781843 L0.0432730551,4.83702191 C0.0432730551,4.83535647 0.0440508388,4.83369103 0.0440508388,4.832098 L0.0440508388,4.83130148 C0.0432730551,4.82963604 0.0440508388,4.8279706 0.0440508388,4.82717408 L0.0440508388,4.82550864 C0.0440508388,4.8238432 0.0440508388,4.82217776 0.0440508388,4.82138124 L0.0440508388,4.82058473 C0.0440508388,4.81891929 0.0440508388,4.81725385 0.0440508388,4.81479189 L0.0440508388,4.81399537 C0.0440508388,4.81232993 0.0440508388,4.81153341 0.0440508388,4.80986797 L0.0440508388,4.80820253 L0.0440508388,4.80327862 C0.0440508388,4.80327862 0.0448286224,4.80161318 0.0448286224,4.79994773 L0.0448286224,4.79915122 C0.0448286224,4.7983547 0.0456064061,4.79668926 0.0456064061,4.79668926 C0.0448286224,4.79589275 0.0448286224,4.79502382 0.0448286224,4.79502382 L0.0448286224,4.79256186 C0.0456064061,4.79176535 0.0456064061,4.79176535 0.0456064061,4.79089642 L0.0456064061,4.78843446 C0.0456064061,4.78763795 0.0456064061,4.78763795 0.0456064061,4.78676902 C0.0456064061,4.78676902 0.0456064061,4.78510358 0.0456064061,4.78430706 L0.0456064061,4.78264162 C0.0456064061,4.78184511 0.0456064061,4.78097618 0.0456064061,4.78017967 L0.0456064061,4.77851422 L0.0456064061,4.77605227 L0.0456064061,4.77525575 L0.0456064061,4.77279379 C0.0456064061,4.77199728 0.0456064061,4.77112835 0.0456064061,4.77112835 L0.0456064061,4.76946291 L0.0456064061,4.76779747 C0.0456064061,4.76700095 0.0463841898,4.76613203 0.0463841898,4.76533551 L0.0463841898,4.76367007 C0.0463841898,4.76287355 0.0456064061,4.76200463 0.0463841898,4.76033919 L0.0463841898,4.75954267 C0.0463841898,4.75874615 0.0463841898,4.75787723 0.0463841898,4.75621179 C0.0471619734,4.75041895 0.0471619734,4.74469852 0.0471619734,4.73970219 C0.0471619734,4.73724023 0.0471619734,4.73557479 0.0479397571,4.73311284 L0.0479397571,4.73231632 C0.0479397571,4.7315198 0.0479397571,4.72985436 0.0479397571,4.72898544 L0.0479397571,4.72818892 L0.0479397571,4.72485804 L0.0487175408,4.72406152 C0.0559297166,4.5922744 0.068798501,4.46041486 0.0856976189,4.3310897 C0.114687738,4.11936137 0.29569921,3.96860269 0.500044192,3.97765401 C0.512912977,3.97845052 0.525781761,3.97931945 0.538650545,3.98098489 C0.759328985,4.01146972 0.912976613,4.21986716 0.882430928,4.44564312"></path>
                                <path d="M5.13818034,0.899700558 C5.13655406,0.898904042 5.13492779,0.898904042 5.13337222,0.898904042 L5.03360379,0.892314686 C4.84290538,0.884928814 4.64987361,0.889852729 4.46242775,0.909620798 C4.44312457,0.912082755 4.42382139,0.912082755 4.40451822,0.911286239 C4.2082339,0.903031441 4.04249527,0.746479924 4.02156582,0.54054444 C3.99985858,0.313971961 4.16071839,0.112960392 4.38118471,0.08986144 C4.41498294,0.0865305567 4.44793269,0.0840685994 4.48173092,0.0808101266 C4.4833572,0.080013611 4.48413498,0.080013611 4.48498347,0.080013611 C4.48498347,0.080013611 4.48576126,0.080013611 4.48660975,0.0808101266 C4.48738753,0.0808101266 4.48823602,0.0808101266 4.48901381,0.080013611 L4.49064008,0.080013611 C4.49226636,0.080013611 4.49389263,0.080013611 4.4954482,0.0792170954 L4.49785226,0.0792170954 L4.50025632,0.0792170954 C4.5010341,0.0792170954 4.50188259,0.0792170954 4.50266037,0.0784205798 L4.50428665,0.0784205798 C4.50591292,0.0792170954 4.5075392,0.0792170954 4.50909477,0.0792170954 C4.50987255,0.0784205798 4.50987255,0.0784205798 4.51072104,0.0784205798 L4.51397359,0.0784205798 L4.51559987,0.0784205798 C4.51722614,0.0776240642 4.51885242,0.0776240642 4.52040798,0.0776240642 C4.52203426,0.0776240642 4.52366053,0.0768275487 4.52443832,0.0768275487 L4.52606459,0.0768275487 C4.52769087,0.0776240642 4.52931714,0.0776240642 4.53087271,0.0768275487 L4.53568083,0.0768275487 C4.5373071,0.0768275487 4.53893338,0.0760310331 4.54048894,0.0760310331 C4.54451928,0.0752345175 4.54770112,0.0760310331 4.55173145,0.0760310331 C4.67320712,0.0677762352 4.79630906,0.0636488363 4.92096657,0.0661107935 C4.92662318,0.0661107935 4.9314313,0.0653142779 4.93708791,0.0661107935 L4.93786569,0.0661107935 L4.94755263,0.0661107935 L4.94833042,0.0661107935 L4.95313853,0.0661107935 C4.95554259,0.0661107935 4.95716887,0.0669073091 4.95879514,0.0669073091 C4.96042142,0.0661107935 4.96204769,0.0661107935 4.96360326,0.0661107935 L4.96438104,0.0661107935 L4.97484577,0.0661107935 L4.97562355,0.0661107935 C4.97640134,0.0669073091 4.97802761,0.0669073091 4.97965389,0.0669073091 L4.98043167,0.0669073091 L4.98608828,0.0669073091 C4.98771455,0.0677038247 4.98849234,0.0677038247 4.99011861,0.0669073091 L4.99174489,0.0669073091 L4.996553,0.0669073091 C4.99817928,0.0677038247 4.99980555,0.0677038247 5.00136112,0.0677038247 L5.0029874,0.0677038247 C5.00376518,0.0677038247 5.00539145,0.0669073091 5.00701773,0.0669073091 C5.00701773,0.0669073091 5.00701773,0.0677038247 5.00779551,0.0677038247 C5.00942179,0.0677038247 5.01104806,0.0677038247 5.01260363,0.0669073091 L5.01338141,0.0669073091 C5.01500769,0.0669073091 5.01578547,0.0669073091 5.01741175,0.0677038247 L5.01903802,0.0677038247 L5.02306836,0.0677038247 L5.02384614,0.0677038247 C5.02547242,0.0677038247 5.02709869,0.0677038247 5.02865426,0.0685003403 L5.02943204,0.0685003403 L5.03346237,0.0685003403 L5.03508865,0.0677038247 C5.03671492,0.0677038247 5.0383412,0.0685003403 5.03989677,0.0685003403 L5.04067455,0.0685003403 L5.04470488,0.0685003403 L5.04633116,0.0685003403 C5.04710894,0.0685003403 5.04873522,0.0692968559 5.05036149,0.0692968559 L5.05113928,0.0692968559 L5.05594739,0.0692968559 L5.05672518,0.0692968559 L5.06075551,0.0692968559 L5.06153329,0.0692968559 L5.06634141,0.0692968559 C5.06796769,0.0692968559 5.06959396,0.0700933714 5.07114953,0.0700933714 L5.07440208,0.0700933714 L5.07517986,0.0700933714 C5.07595765,0.0700933714 5.07758392,0.0700933714 5.07843241,0.070889887 L5.0792102,0.070889887 C5.07998798,0.070889887 5.08161425,0.0700933714 5.08246275,0.0700933714 L5.08324053,0.0700933714 L5.08649308,0.0700933714 C5.08811935,0.0700933714 5.08889714,0.070889887 5.09052341,0.070889887 L5.09455375,0.070889887 C5.12835198,0.0716864026 5.162928,0.075017286 5.19672624,0.0766827276 C5.41316222,0.0947853546 5.5756483,0.28674561 5.56115324,0.510059616 C5.54609252,0.734097727 5.35786887,0.908751872 5.13818034,0.899700558"></path>
                                <path d="M3.17604426,1.27123887 C2.97410334,1.36682074 2.77781902,1.48130176 2.593555,1.60983041 C2.51952414,1.66341418 2.43347298,1.68477528 2.34982588,1.68151681 C2.22757243,1.6765929 2.10850082,1.61562325 2.03446996,1.50273527 C1.90896396,1.31656785 1.95563098,1.05864162 2.13826872,0.930981897 C2.13904651,0.930185382 2.13904651,0.930185382 2.13904651,0.930185382 C2.14067278,0.930185382 2.14229906,0.92851994 2.14385463,0.927723425 C2.1454809,0.926057983 2.14710718,0.924392541 2.14866274,0.92279951 L2.14944053,0.92279951 C2.1510668,0.922002994 2.15269308,0.921134068 2.15424864,0.919468627 C2.15587492,0.917803185 2.15750119,0.917006669 2.15905676,0.915341228 L2.15983454,0.915341228 C2.37379576,0.767044508 2.60069647,0.6360539 2.83721341,0.524034844 C2.89674922,0.495215462 2.96031536,0.483629781 3.023033,0.486164149 C3.16861996,0.492753505 3.30543918,0.579284062 3.37140938,0.724249898 C3.46488483,0.930185382 3.3771367,1.175657 3.17604426,1.27123887"></path>
                                <path d="M7.22264058,1.59918606 C7.15426632,1.59585518 7.08504357,1.57449408 7.02310371,1.5332925 C6.83565785,1.41135321 6.63612098,1.30346155 6.43262449,1.21446903 C6.22750172,1.12714196 6.13091513,0.88572533 6.21781478,0.674865932 C6.28541125,0.512593984 6.44224072,0.417012114 6.60394902,0.42360147 C6.65139382,0.425266912 6.69806084,0.436780182 6.74310159,0.454882809 C6.78008167,0.472188921 6.81472839,0.487033075 6.85093069,0.504339186 L6.85255696,0.504339186 C6.85418324,0.505135702 6.85580951,0.506004628 6.85736508,0.507670069 C6.85736508,0.507670069 6.85899136,0.507670069 6.85899136,0.508466585 C6.86061763,0.508466585 6.86061763,0.509263101 6.86224391,0.510132027 C6.86387018,0.509335511 6.86387018,0.509335511 6.86549646,0.510132027 C6.86712273,0.510132027 6.86712273,0.511797468 6.86874901,0.511797468 C6.86874901,0.512593984 6.87037528,0.512593984 6.87037528,0.51346291 C6.87115306,0.51346291 6.87277934,0.514259426 6.87440561,0.514259426 C6.8751834,0.515055941 6.87603189,0.515055941 6.87603189,0.515055941 C6.87680967,0.516721383 6.87765816,0.516721383 6.87843595,0.516721383 C6.88006222,0.518386825 6.88084001,0.518386825 6.88246628,0.518386825 C6.88324406,0.518386825 6.88409256,0.51918334 6.88487034,0.51918334 C6.88564812,0.519979856 6.8872744,0.520848782 6.88890067,0.520848782 C6.88967846,0.521645297 6.88967846,0.521645297 6.89052695,0.521645297 C6.89215322,0.522441813 6.89293101,0.523310739 6.89455728,0.523310739 L6.89618356,0.524107255 C6.89858762,0.525772696 6.89858762,0.526569212 6.90021389,0.526569212 C6.90021389,0.527365728 6.90184017,0.527365728 6.90184017,0.527365728 C6.90346644,0.528162243 6.90509272,0.529031169 6.9058705,0.529827685 L6.90749677,0.529827685 C6.90912305,0.531493126 6.91074932,0.531493126 6.91230489,0.532289642 C6.91393117,0.533086158 6.91555744,0.533955084 6.91711301,0.534751599 L6.91873928,0.535548115 C6.92036556,0.53634463 6.92114334,0.537213557 6.92276962,0.538010072 C6.9235474,0.538010072 6.9235474,0.538010072 6.92439589,0.538806588 C6.92602217,0.538806588 6.92764844,0.539603103 6.92920401,0.541268545 C6.92998179,0.541268545 6.92998179,0.541268545 6.92998179,0.542065061 C6.93160807,0.542861576 6.93401213,0.542065061 6.9356384,0.542861576 C6.93726468,0.543658092 6.93804246,0.545323533 6.94044652,0.54619246 C6.94044652,0.54619246 6.94044652,0.546988975 6.94207279,0.546988975 C6.94207279,0.547785491 6.94369907,0.548654417 6.94532534,0.549450932 L6.94695162,0.549450932 C6.94857789,0.550247448 6.95020417,0.55191289 6.95175974,0.55191289 C6.95501229,0.552709405 6.95656785,0.552709405 6.95819413,0.553578331 C6.9598204,0.555243773 6.96144668,0.556040289 6.96300224,0.556909215 L6.96378003,0.556909215 C6.9654063,0.55770573 6.96781036,0.558574656 6.96943664,0.560240098 C6.96943664,0.560240098 6.96943664,0.561036614 6.97021442,0.561036614 C6.97261848,0.562702055 6.97664881,0.564367497 6.98067915,0.565960528 C6.98230542,0.566757044 6.9839317,0.56762597 6.98633576,0.568422485 C6.9895883,0.570884443 6.99439642,0.572549884 6.99757826,0.575011842 C6.99920454,0.575808357 7.00238638,0.576677283 7.00401266,0.577473799 C7.00563893,0.578270314 7.00641672,0.579139241 7.00804299,0.579935756 L7.00882077,0.579935756 C7.01207332,0.582397713 7.01603295,0.584063155 7.02006328,0.585728597 L7.02006328,0.586525112 C7.02246734,0.587321628 7.02409362,0.587321628 7.0248714,0.588190554 L7.02564918,0.588190554 C7.03208358,0.591521437 7.03689169,0.593983395 7.0425483,0.598110794 C7.04417458,0.598907309 7.04580085,0.599776235 7.04820491,0.599776235 C7.05223524,0.602238192 7.05541709,0.603903634 7.05944742,0.606365591 C7.06185148,0.608031033 7.06347775,0.608827549 7.06510403,0.609696475 L7.06588181,0.609696475 C7.0666596,0.61049299 7.06828587,0.611361916 7.07153842,0.611361916 C7.0723162,0.613823874 7.07394248,0.6146928 7.07556875,0.615489315 C7.07719503,0.616285831 7.08037687,0.617154757 7.08200315,0.617951273 C7.08362942,0.619616714 7.0852557,0.619616714 7.08681126,0.621282156 C7.0908416,0.622947598 7.09487193,0.624613039 7.09805377,0.626206071 L7.09883156,0.626206071 C7.10045783,0.627002586 7.10286189,0.628668028 7.10448817,0.629536954 C7.10448817,0.630333469 7.10448817,0.630333469 7.10526595,0.630333469 C7.10604373,0.631129985 7.10689222,0.631998911 7.1085185,0.632795427 L7.10929628,0.632795427 C7.11170034,0.633591942 7.11332662,0.635257384 7.11495289,0.63612631 C7.11657917,0.636922826 7.11820544,0.637791752 7.11976101,0.638588267 L7.12138728,0.638588267 C7.12301356,0.640253709 7.12463983,0.641050225 7.1261954,0.641919151 L7.1261954,0.642715666 C7.12859946,0.643512182 7.13022573,0.644381108 7.13185201,0.645177624 L7.13262979,0.645974139 C7.13425607,0.646770655 7.13588234,0.647639581 7.13743791,0.648436096 L7.13743791,0.649232612 C7.13906418,0.649232612 7.13984197,0.650029128 7.14146824,0.650898054 L7.14309452,0.651694569 C7.14472079,0.652491085 7.14472079,0.653360011 7.14634707,0.653360011 C7.14797334,0.653360011 7.14875113,0.655025453 7.14875113,0.655025453 C7.1503774,0.655025453 7.15115519,0.655025453 7.15278146,0.656690894 C7.15355924,0.65748741 7.15355924,0.65748741 7.15440774,0.65748741 C7.15518552,0.658283925 7.15681179,0.659152852 7.15843807,0.659949367 C7.15921585,0.659949367 7.15921585,0.659949367 7.16006434,0.660745883 C7.16169062,0.660745883 7.16331689,0.662411324 7.16487246,0.662411324 C7.16409468,0.66320784 7.16487246,0.66320784 7.16565024,0.66320784 C7.16642803,0.664004356 7.1680543,0.664873282 7.17045836,0.665669797 C7.17045836,0.665669797 7.17045836,0.666466313 7.17208464,0.666466313 C7.17208464,0.666466313 7.17286242,0.668131754 7.1744887,0.66892827 C7.1744887,0.669724786 7.17611497,0.669724786 7.17611497,0.669724786 C7.17774125,0.670521301 7.17936752,0.671390227 7.18092309,0.672186743 C7.18092309,0.672186743 7.18092309,0.672983258 7.18254936,0.672983258 C7.18254936,0.6746487 7.18417564,0.6746487 7.18580191,0.675445216 C7.1865797,0.675445216 7.18742819,0.675445216 7.18820597,0.676241731 C7.18898375,0.676241731 7.18983225,0.677038247 7.19145852,0.677907173 C7.1922363,0.677907173 7.1930848,0.678703689 7.19386258,0.679572615 C7.19464036,0.68036913 7.19548885,0.681238056 7.19711513,0.681238056 C7.19789291,0.682034572 7.1987414,0.682034572 7.19951919,0.682903498 C7.20029697,0.683700014 7.20192325,0.683700014 7.20192325,0.68456894 C7.20270103,0.685365455 7.20354952,0.686234381 7.20432731,0.687030897 C7.20510509,0.687030897 7.20673136,0.687030897 7.20757986,0.687030897 C7.20757986,0.687030897 7.20920613,0.688696339 7.21083241,0.688696339 C7.21083241,0.688696339 7.21245868,0.688696339 7.21245868,0.689492854 C7.21408496,0.69028937 7.21408496,0.691158296 7.21571123,0.691158296 C7.21571123,0.691954811 7.21733751,0.692823738 7.21896378,0.693620253 L7.22059005,0.694416769 C7.22221633,0.695213284 7.22221633,0.695213284 7.2238426,0.69608221 C7.22462039,0.697747652 7.22624666,0.697747652 7.22709515,0.698544168 C7.22787294,0.699340683 7.22872143,0.699340683 7.22949921,0.700209609 C7.23112549,0.699413094 7.23190327,0.700209609 7.23352955,0.701006125 C7.23430733,0.701006125 7.23515582,0.702671567 7.23515582,0.702671567 C7.2367821,0.703468082 7.2367821,0.703468082 7.23840837,0.704337008 C7.23840837,0.705133524 7.24003465,0.705133524 7.24003465,0.70600245 C7.24081243,0.706798966 7.24166092,0.706798966 7.24243871,0.707667892 C7.24321649,0.707667892 7.24406498,0.709333333 7.24569126,0.709333333 C7.24731753,0.710129849 7.24731753,0.710998775 7.24894381,0.711795291 C7.25057008,0.711795291 7.25057008,0.712591806 7.25057008,0.712591806 C7.25219636,0.713388322 7.2553782,0.713388322 7.25700447,0.715053763 C7.2553782,0.715850279 7.2553782,0.715850279 7.25700447,0.715850279 C7.25700447,0.716646795 7.25863075,0.716646795 7.26025702,0.717515721 C7.26266108,0.719181162 7.26428736,0.719977678 7.26591363,0.720846604 C7.26669141,0.720846604 7.26669141,0.720846604 7.26753991,0.722512046 C7.26916618,0.722512046 7.27079246,0.724177487 7.27319651,0.724177487 L7.27319651,0.724974003 C7.27560057,0.72743596 7.27800463,0.728304886 7.28203496,0.729897918 C7.28366124,0.730694433 7.28684308,0.733228801 7.28846936,0.734025316 C7.29327747,0.7373562 7.2981563,0.740614673 7.30459069,0.74307663 L7.30536848,0.74307663 C7.35606583,0.774357969 7.40831875,0.806508235 7.45738983,0.839455016 C7.64405791,0.963856268 7.69956338,1.21598966 7.57964328,1.40794991 C7.49861236,1.53655097 7.36101536,1.60490649 7.22264058,1.59918606"></path>
                                <path d="M9.29105018,5.40377896 C9.28461579,5.40298244 9.2781814,5.40377896 9.27252479,5.40298244 C9.05856357,5.39393113 8.88794612,5.21348414 8.88716834,4.99270451 C8.88716834,4.76446659 8.86708738,4.53383912 8.82925881,4.3097286 C8.79143024,4.08561808 8.93949197,3.87222431 9.15748352,3.83435361 C9.18647363,3.8294297 9.21461526,3.82696774 9.24197911,3.82776426 C9.4277987,3.83601906 9.58950699,3.97526446 9.62252744,4.17135212 L9.62252744,4.17547952 L9.62330523,4.17714496 C9.62330523,4.17714496 9.62408301,4.17794147 9.62408301,4.1788104 C9.62408301,4.17960691 9.62408301,4.17960691 9.62330523,4.18047584 C9.62330523,4.18214128 9.62330523,4.18214128 9.62408301,4.18214128 L9.62408301,4.1829378 C9.62408301,4.18373431 9.62408301,4.18460324 9.62486079,4.18460324 L9.62486079,4.1870652 C9.62486079,4.18786171 9.62486079,4.18786171 9.62563858,4.18873064 L9.62563858,4.19206152 L9.62563858,4.19285804 L9.62563858,4.19531999 L9.62563858,4.19611651 C9.62726485,4.19691303 9.62726485,4.19857847 9.62726485,4.19944739 L9.62726485,4.20024391 L9.62726485,4.20437131 C9.64416397,4.31066993 9.65865903,4.41776507 9.66912376,4.52565673 C9.66912376,4.52565673 9.66834597,4.52565673 9.66834597,4.52645325 C9.66912376,4.52724976 9.66912376,4.5289152 9.66912376,4.5289152 L9.66912376,4.52971172 C9.66912376,4.53050823 9.66912376,4.53217368 9.66990154,4.5330426 L9.66990154,4.53717 L9.66990154,4.54050088 L9.66990154,4.54216633 C9.66990154,4.54296284 9.67067932,4.54383177 9.67152781,4.54462828 L9.67152781,4.5454248 C9.67152781,4.5454248 9.67075003,4.54709024 9.67075003,4.54788676 L9.67075003,4.5495522 C9.67152781,4.55034871 9.67152781,4.55121764 9.67152781,4.55201416 L9.67152781,4.55534504 C9.67152781,4.55534504 9.67152781,4.55614155 9.67315409,4.55614155 C9.67315409,4.55693807 9.67152781,4.557807 9.67152781,4.55860351 L9.67152781,4.55940003 L9.67152781,4.56106547 C9.67315409,4.56186198 9.67315409,4.56273091 9.67315409,4.56352743 L9.67315409,4.56519287 L9.67315409,4.56685831 L9.67315409,4.56932027 C9.67315409,4.57265115 9.67393187,4.57590962 9.67315409,4.57837158 L9.67315409,4.5791681 C9.67315409,4.57996461 9.67478036,4.58083354 9.67478036,4.58163005 L9.67478036,4.58242657 C9.68446731,4.71674806 9.6909017,4.85266258 9.69167948,4.99024255 C9.69167948,5.21761154 9.51307207,5.40298244 9.29105018,5.40377896"></path>
                                <path d="M8.93546163,3.18265904 C8.86786516,3.22052974 8.79468279,3.23624282 8.72390447,3.23370845 C8.58793375,3.22791561 8.4592459,3.15130529 8.38839688,3.02118361 C8.28141627,2.82183748 8.15591027,2.6290083 8.01590921,2.45022676 C7.87831221,2.27224173 7.90808011,2.01272247 8.08110162,1.87188403 C8.16071839,1.80678699 8.25490092,1.77876412 8.34901275,1.78289152 C8.46087218,1.78781543 8.57103463,1.84053028 8.64669177,1.9377776 C8.74002581,2.05892038 8.82848102,2.18411814 8.91219883,2.31264679 C8.9138251,2.31843964 8.91785544,2.32416007 8.9202595,2.32915639 L8.92103728,2.32995291 C8.92181506,2.33161835 8.92344134,2.33328379 8.92428983,2.33487682 L8.92428983,2.33567334 C8.92591611,2.33733878 8.92591611,2.33900422 8.92754238,2.34146618 C8.92916866,2.34226269 8.93079493,2.34392813 8.93079493,2.34559358 L8.93157271,2.34479706 C8.9323505,2.3464625 8.93319899,2.34812794 8.93482526,2.34972097 L8.93482526,2.35051749 C8.93645154,2.35218293 8.93722932,2.35464489 8.93722932,2.35631033 C8.9388556,2.35631033 8.9388556,2.35710685 8.9388556,2.35710685 C8.94048187,2.35877229 8.94048187,2.36043773 8.94210815,2.36203076 L8.94210815,2.36282728 C8.94373442,2.36362379 8.94373442,2.36528923 8.94451221,2.36695468 C8.94528999,2.36695468 8.94528999,2.36695468 8.94528999,2.36775119 C8.94606777,2.36941663 8.94769405,2.37108207 8.94854254,2.37267511 C8.94854254,2.37347162 8.94932032,2.37347162 8.94932032,2.37434055 C8.95009811,2.37600599 8.9509466,2.37600599 8.9509466,2.37767143 C8.95172438,2.37846795 8.95172438,2.37846795 8.95257287,2.37933687 C8.95257287,2.38013339 8.95419915,2.38179883 8.95419915,2.38346427 L8.95582542,2.38346427 C8.95582542,2.38512971 8.9574517,2.38592623 8.9574517,2.38838819 C8.9574517,2.38838819 8.95822948,2.3891847 8.95822948,2.39005363 C8.95985576,2.39085014 8.96063354,2.39251558 8.96148203,2.39338451 C8.96148203,2.39418103 8.96225982,2.39504995 8.96225982,2.39504995 C8.9630376,2.39671539 8.9630376,2.39838084 8.96466387,2.39917735 C8.96466387,2.39997387 8.96544166,2.40084279 8.96544166,2.40163931 C8.96706793,2.40243582 8.96706793,2.40330475 8.96869421,2.40410127 C8.96869421,2.40489778 8.96869421,2.40576671 8.97032048,2.40656322 L8.97032048,2.40989411 C8.97194676,2.41069062 8.97194676,2.41069062 8.97272454,2.41069062 C8.97350232,2.41235606 8.97435082,2.41315258 8.9751286,2.41481802 C8.9751286,2.41561454 8.97590638,2.41561454 8.97590638,2.41648346 C8.97590638,2.4181489 8.97753266,2.41894542 8.97831044,2.42140738 C8.97831044,2.42220389 8.97908823,2.42220389 8.97993672,2.42307282 C8.97993672,2.42386933 8.98156299,2.42473826 8.98156299,2.4264037 C8.98156299,2.42720022 8.98318927,2.42806914 8.98318927,2.42886566 C8.98318927,2.42966218 8.98318927,2.4305311 8.98481554,2.43132762 C8.98481554,2.43212413 8.98481554,2.43299306 8.98559333,2.43378957 C8.9872196,2.43458609 8.9872196,2.43625153 8.98799738,2.43791697 C8.98799738,2.43871349 8.98877517,2.43958241 8.98877517,2.44037893 C8.98877517,2.44117545 8.98955295,2.44204437 8.99040144,2.44284089 C8.99040144,2.4436374 8.99117923,2.44450633 8.99202772,2.44450633 C8.99365399,2.44530284 8.99365399,2.44617177 8.99365399,2.44696829 C8.99528027,2.4477648 8.99528027,2.44863373 8.99528027,2.45029917 C8.99528027,2.45109569 8.99690654,2.45196461 8.99690654,2.45276113 C8.99690654,2.45355764 8.99853282,2.45522308 8.9993106,2.45609201 C9.00008838,2.45688853 9.00093688,2.45855397 9.00171466,2.45942289 C9.00093688,2.46021941 9.00171466,2.46108834 9.00171466,2.46188485 C9.00249244,2.46268137 9.00334093,2.46355029 9.00334093,2.46434681 C9.00411872,2.46514332 9.00496721,2.46680877 9.00574499,2.46767769 C9.00652278,2.46854662 9.00652278,2.46934313 9.00814905,2.47013965 L9.00814905,2.47260161 C9.00977533,2.47426705 9.00977533,2.47506356 9.0114016,2.47672901 L9.0114016,2.47919096 C9.01302788,2.47919096 9.01380566,2.47998748 9.01380566,2.48165292 C9.01458344,2.48244944 9.01458344,2.48331836 9.01543194,2.48331836 C9.01620972,2.48411488 9.01620972,2.4849838 9.01705821,2.48578032 C9.01783599,2.48657683 9.01868448,2.48744576 9.01946227,2.48990772 C9.01946227,2.49070423 9.02108854,2.49157316 9.02108854,2.49236967 L9.02108854,2.49403512 C9.02186633,2.49570056 9.02186633,2.49649707 9.0234926,2.49816252 C9.0234926,2.49895903 9.0234926,2.49982796 9.02511888,2.50062447 C9.02511888,2.50142099 9.02589666,2.50228991 9.02589666,2.50308643 C9.02667444,2.50475187 9.02752294,2.50475187 9.02830072,2.50641731 C9.02830072,2.50721383 9.0290785,2.50887927 9.02992699,2.5097482 C9.02992699,2.51054471 9.03070478,2.51141364 9.03155327,2.51221015 C9.03233105,2.51300667 9.03155327,2.5138756 9.03317954,2.51467211 C9.03317954,2.51546863 9.03317954,2.51633755 9.03480582,2.51633755 C9.03480582,2.51800299 9.03643209,2.51966844 9.03643209,2.52046495 L9.03805837,2.52213039 C9.03805837,2.52379584 9.03883615,2.52459235 9.03968464,2.52705431 C9.04046243,2.52705431 9.04046243,2.52705431 9.04131092,2.52785082 C9.04131092,2.52864734 9.0420887,2.53031278 9.04293719,2.53118171 C9.04371498,2.53197822 9.04371498,2.53197822 9.04456347,2.53284715 C9.04456347,2.53451259 9.04534125,2.53617803 9.04618974,2.53697455 C9.04618974,2.53777106 9.04781602,2.53863999 9.04781602,2.53863999 C9.04781602,2.54030543 9.04944229,2.54197087 9.04944229,2.5435639 C9.05106857,2.54436042 9.04944229,2.54522935 9.04944229,2.54522935 C9.05106857,2.54689479 9.05184635,2.5476913 9.05269484,2.54856023 C9.05354333,2.54942915 9.05347263,2.54935674 9.05347263,2.55022567 C9.05347263,2.55102219 9.0550989,2.55268763 9.05587669,2.55435307 C9.05587669,2.55435307 9.0550989,2.55514958 9.05587669,2.55514958 C9.05665447,2.55681503 9.05750296,2.55848047 9.05828074,2.5600735 L9.05990702,2.56173894 C9.05990702,2.56340438 9.06153329,2.56506982 9.06153329,2.56666286 L9.06153329,2.56745937 C9.06315957,2.56912481 9.06478584,2.56992133 9.06556363,2.57158677 C9.06634141,2.57325221 9.06796769,2.57491765 9.06796769,2.57651068 L9.06796769,2.5773072 C9.06959396,2.57976916 9.07037175,2.5814346 9.07122024,2.58223111 C9.07122024,2.58302763 9.07284651,2.58302763 9.07284651,2.58302763 C9.0792809,2.59620634 9.0857153,2.61018157 9.09292747,2.62176725 C9.19927171,2.82176507 9.13011967,3.07223302 8.93546163,3.18265904"></path>
                            </g>
                            <path d="M7.27814605,2.58266558 C7.27814605,2.12705866 6.19773382,1.75877882 4.86468332,1.75877882 C3.53163282,1.75877882 2.45122059,2.12705866 2.45122059,2.58266558 C2.45122059,3.03827249 3.53163282,3.40655233 4.86468332,3.40655233 C6.19773382,3.40655233 7.27814605,3.03827249 7.27814605,2.58266558" fill="#55ACEE"></path>
                            <path d="M6.47370561,2.58266558 C6.47370561,2.12705866 5.93307525,1.75877882 5.26693889,1.75877882 C4.60002475,1.75877882 4.06017217,2.12705866 4.06017217,2.58266558 C4.06017217,3.03827249 4.59995404,3.40655233 5.26693889,3.40655233 C5.93307525,3.40647992 6.47370561,3.03827249 6.47370561,2.58266558" fill="#FFCC4D"></path>
                            <g transform="translate(0.070708, 2.288172)" fill="#5C913B">
                                <path d="M4.55024659,1.37703062 C4.53334747,1.37703062 4.51482208,1.37782714 4.49792296,1.38036151 C4.1970621,1.42156309 3.91147408,1.48253273 3.64837107,1.56240152 C3.43518764,1.62749857 3.31371197,1.85653301 3.37727811,2.07485069 C3.37890439,2.08064353 3.38053066,2.08556744 3.38208623,2.09049136 C3.37883368,2.083902 3.37642962,2.07810916 3.37324778,2.0715198 C3.26386311,1.87376671 3.0192855,1.8020803 2.82540524,1.91330284 C2.55190822,2.06985436 2.30648212,2.25848373 2.09570275,2.47433946 C1.93880257,2.63501837 1.93880257,2.89613067 2.09570275,3.05680958 C2.25338071,3.2174885 2.50757455,3.2174885 2.66447473,3.05680958 C2.82293048,2.89453763 3.00882077,2.75196134 3.21797387,2.63248401 C3.3901469,2.53364366 3.46417776,2.3243773 3.40301568,2.14059943 C3.48751127,2.31605009 3.68697743,2.40917 3.87767584,2.35153124 C4.09969772,2.28397223 4.34349755,2.2320539 4.60172173,2.19744168 C4.82218805,2.16775337 4.97739124,1.96015244 4.94847183,1.73524541 C4.92188577,1.52865823 4.74893497,1.37703062 4.55024659,1.37703062 M5.69259868,0.0679210562 C5.62740627,0.0679210562 5.56143607,0.084430652 5.5003447,0.118173949 C5.30483817,0.226934531 5.23328207,0.476533551 5.3386364,0.675952089 C5.46732425,0.918165238 5.60329497,1.13814836 5.74251825,1.33090513 C5.63150731,1.32598122 5.51561754,1.32431578 5.39739442,1.32431578 C5.17452405,1.32431578 4.97265383,1.50889016 4.97265383,1.73705567 C4.97265383,1.96362815 5.12955401,2.14899905 5.35235368,2.14899905 C5.35878807,2.14899905 5.4111117,2.14820253 5.41754609,2.14733361 C5.65568931,2.14813012 5.90026692,2.16217776 6.11903626,2.18361127 C6.24616853,2.19678998 6.3676442,2.14407513 6.44888724,2.05508262 C6.46012975,2.06413393 6.47222075,2.07238873 6.48346326,2.08064353 C6.56392851,2.13502382 6.63951495,2.17868736 6.70951548,2.21329958 C6.75696028,2.2520392 6.81409203,2.27839662 6.87928444,2.29077882 C6.88897138,2.29324078 6.89858762,2.29490622 6.90827456,2.29657166 C7.05874034,2.34762107 7.16494317,2.35421043 7.20757986,2.35421043 C7.33548992,2.35421043 7.45456152,2.29157534 7.53099645,2.18614564 C7.60665359,2.08151245 7.6291386,1.94559793 7.59131004,1.82032775 C7.52533984,1.60121356 7.37890439,1.55175718 7.11990242,1.49904233 C7.07245762,1.48007078 7.00648742,1.447124 6.92842623,1.39440915 C6.77718266,1.29223792 6.58089834,1.30787859 6.44655389,1.42243201 C6.55678705,1.27659725 6.56159516,1.06733088 6.44492761,0.915775691 C6.30895689,0.737790663 6.17461243,0.525265823 6.04592459,0.28384919 C5.97337859,0.146196815 5.8350038,0.0679210562 5.69259868,0.0679210562"></path>
                                <path d="M2.57757508,3.30488798 C2.23485531,3.30488798 1.79158933,3.4408025 1.52290043,3.76541881 C1.1118064,4.26389275 0.868855067,4.90153968 0.906683636,5.39088989 C0.916370579,5.52108398 0.791642361,5.62651368 0.66938891,5.65946046 C0.599388379,5.67843201 0.475508653,5.6907418 0.418376907,5.56308207 C0.370932103,5.45924541 0.251860494,5.41558187 0.151314278,5.46257629 C0.0507680614,5.51036722 0.00650509979,5.63230652 0.05317212,5.73607078 C0.178678121,6.01535811 0.46023581,6.13975936 0.770005833,6.05822513 C1.05799791,5.98161481 1.33474749,5.71630271 1.30738364,5.35873962 C1.27839352,4.97807758 1.48839511,4.44506384 1.8303371,4.03145502 C2.0097223,3.81393385 2.32267416,3.72660678 2.53507981,3.71755546 C2.70803062,3.70850415 2.79570805,3.7488368 2.81423344,3.76701184 C2.7683442,3.87656894 2.17305687,4.19705785 1.91886302,4.3338413 C1.70242704,4.45085668 1.63808312,4.60987015 1.62203249,4.72268572 C1.5673048,5.09755492 1.94382281,5.47734803 2.30747203,5.84316592 C2.43538209,5.97249108 2.55685775,6.09443038 2.62205017,6.18508834 C2.69685881,6.28639064 2.68476781,6.35394964 2.67034346,6.39602014 C2.61406021,6.5501097 2.37429071,6.70253382 2.08467236,6.76842739 C1.81676124,6.82939703 1.63574977,6.96205308 1.54729455,7.16226814 C1.43147549,7.42671131 1.49256686,7.77276113 1.7355182,8.22090976 C1.79024589,8.32141554 1.91249934,8.35602777 2.00986371,8.30085096 C2.10637959,8.24567415 2.1418041,8.12040397 2.08792491,8.02076712 C1.85862014,7.59897591 1.88117587,7.40781217 1.91412561,7.33120185 C1.94792385,7.25538805 2.033975,7.20187668 2.17234979,7.17052293 C2.5126655,7.09304369 2.92135546,6.88631169 3.04686147,6.53859643 C3.11926606,6.34004682 3.08306376,6.12665306 2.94468897,5.93802368 C2.86019339,5.82347026 2.72825299,5.69088662 2.58987821,5.54997577 C2.38150289,5.34070941 1.99536865,4.95099605 2.01947995,4.78293126 C2.02428806,4.74918797 2.06932881,4.71870314 2.1055311,4.69886267 C2.7097276,4.37344984 3.11113468,4.13941908 3.19322621,3.85194937 C3.22221633,3.75064707 3.21012533,3.64847584 3.15942798,3.55615244 C3.08136678,3.41690704 2.9188807,3.33124541 2.68879815,3.3098119 C2.65323222,3.30655342 2.61618144,3.30488798 2.57757508,3.30488798"></path>
                            </g>
                            <g transform="translate(2.191936, 4.170845)" fill="#FFCC4D">
                                <path d="M4.28176981,0.883408194 C4.28176981,0.427801279 4.10153612,0.0595214373 3.87951424,0.0595214373 C3.65749235,0.0595214373 3.47725867,0.427801279 3.47725867,0.883408194 C3.47725867,1.33821859 3.65749235,1.70729495 3.87951424,1.70729495 C4.10153612,1.70729495 4.28176981,1.33821859 4.28176981,0.883408194"></path>
                                <path d="M2.10234926,1.55320539 C2.10234926,1.31591616 1.82482191,1.1239559 1.48210214,1.1239559 C1.14016015,1.1239559 0.861855014,1.31591616 0.861855014,1.55320539 C0.861855014,1.79049462 1.14023086,1.98245488 1.48210214,1.98245488 C1.82482191,1.98245488 2.10234926,1.79049462 2.10234926,1.55320539"></path>
                                <path d="M1.15225115,5.36446005 C1.19248378,5.18980591 0.969613406,4.98546345 0.654257482,4.90885314 C0.339679341,4.83224282 0.0509094766,4.91218402 0.0106768486,5.08683817 C-0.0303335631,5.26228883 0.192466105,5.46663128 0.507822029,5.5432416 C0.823248661,5.61985191 1.11124074,5.53991071 1.15225115,5.36446005"></path>
                            </g>
                            <path d="M8.51142812,5.08720022 C8.58383271,5.02956145 8.70693465,5.68777297 8.68840926,5.89291194 C8.68840926,5.90688716 8.66429796,6.34272601 8.75515724,6.6541636 C8.81066271,6.7595933 8.81391526,7.54727481 8.72864188,7.75321029 C8.79623836,7.75979965 8.87670361,7.78123316 8.88709763,7.86609827 C8.57492355,7.74748986 8.50174117,8.53922635 8.20165809,8.99316782 C7.91041346,9.44877474 7.54923901,9.71408684 7.17187251,9.9908398 C7.20001414,10.068319 7.24505489,10.140802 7.30218663,10.2132849 C6.83961747,9.97599564 6.11875342,10.8352911 5.05361404,10.771063 C4.81469304,10.7471676 4.70205582,10.7323234 4.64011596,10.5823612 C4.44142759,10.5658516 4.23948666,10.5197261 4.23948666,10.2520245 C4.23948666,10.1877964 4.29661841,10.070781 4.42375068,10.0699845 C4.59754998,10.0180661 4.73910661,10.0584712 4.85740043,9.80966871 L4.88879461,9.55261141 C4.88879461,9.55261141 4.73274292,9.75528842 4.64746955,9.7882352 L4.69979318,9.8977923 C4.62017642,9.94478672 4.4769228,9.90684361 4.4769228,9.90684361 C4.4769228,9.90684361 4.16800127,10.0551403 3.91939333,10.0156042 L3.87110003,10.2215397 C3.82768556,10.095473 3.73032119,10.1020623 3.71660391,9.98178849 C3.68924007,10.068319 3.65303778,10.1745453 3.62652242,10.2594104 C3.53884499,10.1374711 3.56536034,10.0064805 3.53318838,9.87874833 C3.49939015,9.84992895 3.43023811,9.84826351 3.4124905,9.92979774 C3.40365205,10.0303035 3.39156105,10.0393548 3.39156105,10.1588322 C3.3288434,10.0468131 3.25318626,9.9915639 3.22822648,9.79714169 L3.1614785,10.0122009 C3.16388255,9.75927099 2.95147691,9.6077158 2.74960669,9.42973077 C2.69332343,9.32263563 2.75929363,9.32183912 2.76325326,9.2665899 L2.86945608,9.21220961 L3.0601545,9.22618484 C3.09070018,9.18577977 3.0658111,9.1825213 3.14783193,9.15616388 C3.36985381,9.09352879 3.64745187,9.36543024 3.86381715,8.93704968 C3.76489721,8.85138805 3.66428028,8.651173 3.69567446,8.6133023 C3.73512931,8.6133023 3.61520921,8.55566354 3.77776599,8.60837839 C3.60799703,8.4403136 3.49380425,8.21866503 3.49380425,8.20635525 C3.47450107,8.15856431 3.5621785,8.21214809 3.54365311,8.12641405 L3.58388574,8.13133796 C3.1977515,7.70455043 3.57101695,7.24568504 3.53000654,6.99934449 C3.59435046,6.89224935 3.60163335,7.00100994 3.68202789,7.01252321 C3.74962437,6.70934041 3.94428241,6.52563495 4.06335402,6.28588376 L3.8131905,6.28255288 C3.81884711,6.16886838 3.91939333,6.06090431 3.99901009,5.96126746 L3.83086741,5.90688716 C3.71101801,5.84345556 3.63133054,5.77669307 3.54690566,5.6811112 C3.49140019,5.5418658 3.81481678,5.50891901 3.97086847,5.48502355 L3.96521186,5.31775527 C4.20894098,5.29385981 4.49056937,5.36800817 4.49056937,5.38198339 L4.55173145,5.42977433 L4.68932845,5.35229509 C4.73521769,5.35229509 4.80677379,5.54012794 4.77382404,5.68516619 C4.86234997,5.57727453 4.94677485,5.4034169 5.03530077,5.29465632 L5.11817009,5.30616959 C5.19382723,5.18343378 5.29755528,5.06149449 5.37399021,4.93875868 L5.45763731,4.9058119 C5.50670838,4.92232149 5.54856729,4.92891085 5.57508264,5.02695468 L5.61368899,4.95773023 L5.74725566,5.05164666 L5.84136749,5.07061821 L5.91136802,4.95360283 C5.95160064,4.97011243 5.99261106,5.06149449 5.99423733,5.15794528 C6.03609623,5.07308017 6.04733874,5.07966952 6.07873292,5.05823601 L6.14067278,5.19089206 L6.4745541,4.87119967 L6.72719238,4.85635552 C6.81812236,4.79372043 7.06425554,4.75505322 7.10611444,4.855559 C7.30883315,4.76656649 7.54775415,4.86707227 7.53573386,4.96598503 C7.72240194,4.89017123 8.00961623,4.94129304 8.00961623,4.95360283 C8.04419225,4.95852675 8.13271818,5.04751926 8.04907108,5.11428175 C7.4320058,5.55424799 6.51648371,6.28255288 6.16414771,6.45800354 C6.16414771,6.58819763 6.06840961,7.05698326 5.96545933,7.18551191 L6.04832865,7.32888471 C6.28887593,7.09905376 6.37655336,7.1220803 6.50446342,7.08500612 C6.64121193,6.97378359 6.68872744,6.80492228 6.82547595,6.65083272 L6.94857789,6.62773377 C6.86330452,6.84771689 6.75787948,7.06024173 6.50290785,7.34698734 C6.63484824,7.27942834 6.85283979,7.09898135 7.00005303,6.96885967 C7.09656891,6.80325684 7.12478125,6.67060079 7.21323646,6.46299986 C7.27758039,6.42100177 7.34355058,6.26770872 7.33471213,6.39544086 C7.31943929,6.63519205 7.15447844,7.01498516 7.15447844,7.04221151 C7.41758145,6.82968667 7.4143289,6.49848101 7.49316788,6.29660052 C7.55991586,6.19442929 7.59371409,6.05764584 7.62270421,6.08979611 L7.54626929,6.71267129 L7.50122854,6.94090921 C7.6951088,6.82635579 7.76433155,6.38972043 7.85519082,5.865758 C7.85519082,5.78255832 7.88814057,5.69110385 7.88333245,5.63752008 C7.92434286,5.58480523 7.97263616,5.43897046 7.97185837,5.52550102 C7.97185837,5.52550102 7.97185837,6.37741064 7.91472663,6.57183286 C7.90023157,6.67646604 7.93883792,6.84699279 7.93883792,6.84699279 C8.00961623,6.4935571 8.08527337,6.1104331 8.15767796,5.75786634 L8.15767796,5.49834708 L8.2630323,5.3895865 C8.28396175,5.60298026 8.30729526,5.81637403 8.32822471,6.02889887 L8.24938573,6.79094705 L8.24938573,7.00846822 C8.24775945,7.08507854 8.31775998,7.07110331 8.36124516,6.98377624 C8.37170989,6.79760882 8.37170989,6.65090513 8.37977055,6.46473772 C8.41116473,6.25221288 8.43209418,6.09645787 8.44814481,5.82542534 C8.45677114,5.60377678 8.46560959,5.0781489 8.51142812,5.08720022" fill="#C1694F"></path>
                        </g>
                    </g>
                </g>
            </g>
        </g>
    </g>
</svg>