<?xml version="1.0" encoding="UTF-8"?>
<svg width="32px" height="32px" viewBox="0 0 32 32" version="1.1" xmlns="http://www.w3.org/2000/svg" xmlns:xlink="http://www.w3.org/1999/xlink">
    <!-- Generator: Sketch 50.2 (55047) - http://www.bohemiancoding.com/sketch -->
    <title>micronesia@1x</title>
    <desc>Created with Sketch.</desc>
    <defs></defs>
    <g id="flags" stroke="none" stroke-width="1" fill="none" fill-rule="evenodd">
        <g id="micronesia" fill-rule="nonzero">
            <circle id="Oval" fill="#338AF3" cx="16" cy="16" r="16"></circle>
            <g id="Group" transform="translate(6.937500, 6.937500)" fill="#F0F0F0">
                <polygon id="Shape" points="9.0624375 0.019 9.7530625 2.14475 11.9883125 2.14475 10.1800625 3.4585625 10.8706875 5.58425 9.0624375 4.2705 7.254125 5.58425 7.9449375 3.4585625 6.136625 2.14475 8.3718125 2.14475"></polygon>
                <polygon id="Shape" points="0.019 9.062625 2.14475 8.371875 2.14475 6.136625 3.4585625 7.945 5.58425 7.2543125 4.2705 9.062625 5.58425 10.87075 3.4585625 10.18 2.14475 11.9883125 2.14475 9.7531875"></polygon>
                <polygon id="Shape" points="9.0625625 18.106 8.371875 15.98025 6.136625 15.98025 7.945 14.6664375 7.2543125 12.54075 9.0625625 13.8545 10.87075 12.54075 10.18 14.6664375 11.9883125 15.98025 9.7531875 15.98025"></polygon>
                <polygon id="Shape" points="18.106 9.0624375 15.98025 9.753125 15.98025 11.9883125 14.6664375 10.18 12.54075 10.8706875 13.8545 9.0624375 12.54075 7.25425 14.6664375 7.945 15.98025 6.136625 15.98025 8.3718125"></polygon>
            </g>
        </g>
    </g>
</svg>