<?xml version="1.0" encoding="UTF-8"?>
<svg width="32px" height="32px" viewBox="0 0 32 32" version="1.1" xmlns="http://www.w3.org/2000/svg" xmlns:xlink="http://www.w3.org/1999/xlink">
    <!-- Generator: Sketch 50.2 (55047) - http://www.bohemiancoding.com/sketch -->
    <title>moldova@1x</title>
    <desc>Created with Sketch.</desc>
    <defs></defs>
    <g id="flags" stroke="none" stroke-width="1" fill="none" fill-rule="evenodd">
        <g id="moldova" fill-rule="nonzero">
            <path d="M22.9565,1.587625 C20.853,0.5705 18.493125,0 16,0 C13.506875,0 11.147,0.5705 9.0435,1.587625 L7.6521875,16 L9.0435,30.412375 C11.147,31.4295 13.506875,32 16,32 C18.493125,32 20.853,31.4295 22.9565,30.412375 L24.3478125,16 L22.9565,1.587625 Z" id="Shape" fill="#FFDA44"></path>
            <path d="M9.0435,1.5881875 C3.691625,4.176125 0,9.6566875 0,16 C0,22.3433125 3.691625,27.823875 9.0435,30.4118125 L9.0435,1.5881875 Z" id="Shape" fill="#0052B4"></path>
            <path d="M22.9565,1.5881875 L22.9565,30.4118125 C28.308375,27.823875 32,22.3433125 32,16 C32,9.6566875 28.308375,4.176125 22.9565,1.5881875 Z" id="Shape" fill="#D80027"></path>
            <path d="M21.5651875,12.5886875 L17.739125,12.5886875 C17.739125,11.6281875 16.9605,10.8495625 16,10.8495625 C15.0395,10.8495625 14.260875,11.6281875 14.260875,12.5886875 L10.4348125,12.5886875 C10.4348125,13.534375 11.258625,14.3009375 12.2041875,14.3009375 L12.1471875,14.3009375 C12.1471875,15.2466875 12.9138125,16.013375 13.8595625,16.013375 C13.8595625,16.8506875 14.4609375,17.5464375 15.2551875,17.6951875 L13.9058125,20.7415625 C14.552375,21.004375 15.259,21.1504375 16,21.1504375 C16.7409375,21.1504375 17.447625,21.004375 18.094125,20.7415625 L16.7448125,17.6951875 C17.5390625,17.5464375 18.1404375,16.8506875 18.1404375,16.013375 C19.0861875,16.013375 19.8528125,15.2466875 19.8528125,14.3009375 L19.79575,14.3009375 C20.7414375,14.3009375 21.5651875,13.5343125 21.5651875,12.5886875 Z" id="Shape" fill="#FF9811"></path>
            <polygon id="Shape" fill="#0052B4" points="16 14.9565 13.739125 16 13.739125 18.0869375 16 19.47825 18.260875 18.0869375 18.260875 16"></polygon>
            <rect id="Rectangle-path" fill="#D80027" x="13.739125" y="13.9130625" width="4.52175" height="2.0869375"></rect>
        </g>
    </g>
</svg>