<?xml version="1.0" encoding="UTF-8"?>
<svg width="32px" height="32px" viewBox="0 0 32 32" version="1.1" xmlns="http://www.w3.org/2000/svg" xmlns:xlink="http://www.w3.org/1999/xlink">
    <!-- Generator: Sketch 50.2 (55047) - http://www.bohemiancoding.com/sketch -->
    <title>mongolia@1x</title>
    <desc>Created with Sketch.</desc>
    <defs></defs>
    <g id="flags" stroke="none" stroke-width="1" fill="none" fill-rule="evenodd">
        <g id="mongolia" fill-rule="nonzero">
            <path d="M16,32 C17.957125,32 19.8319375,31.648 21.5651875,31.0048125 L22.260875,16 L21.56525,0.9951875 C19.8319375,0.3520625 17.957125,0 16,0 C14.042875,0 12.1680625,0.3520625 10.4348125,0.9951875 L9.739125,16 L10.43475,31.0048125 C12.1680625,31.648 14.042875,32 16,32 Z" id="Shape" fill="#0052B4"></path>
            <g id="Group" transform="translate(0.000000, 0.937500)" fill="#A2001D">
                <path d="M0,15.0625 C0,21.9419375 4.342,27.806625 10.4348125,30.0673125 L10.4348125,0.0576875 C4.342,2.318375 0,8.1830625 0,15.0625 Z" id="Shape"></path>
                <path d="M21.5651875,0.0576875 L21.5651875,30.067375 C27.658,27.806625 32,21.9419375 32,15.0625 C32,8.1830625 27.658,2.318375 21.5651875,0.0576875 Z" id="Shape"></path>
            </g>
            <g id="Group" transform="translate(2.062500, 8.312500)" fill="#FFDA44">
                <rect id="Rectangle-path" x="5.5896875" y="7.6875" width="1.3913125" height="5.5651875"></rect>
                <rect id="Rectangle-path" x="0.0244375" y="7.6875" width="1.3913125" height="5.5651875"></rect>
                <circle id="Oval" cx="3.5026875" cy="9.7744375" r="1.3913125"></circle>
                <circle id="Oval" cx="3.5026875" cy="4.904875" r="1"></circle>
                <rect id="Rectangle-path" x="2.1114375" y="11.8614375" width="2.782625" height="1.3913125"></rect>
                <rect id="Rectangle-path" x="2.1114375" y="6.2961875" width="2.782625" height="1.3913125"></rect>
                <polygon id="Shape" points="3.5026875 0.0353125 3.9954375 1.5515625 5.5896875 1.5515625 4.3 2.4886875 4.792375 4.0049375 3.5026875 3.0678125 2.2130625 4.0049375 2.7054375 2.4886875 1.41575 1.5515625 3.01 1.5515625"></polygon>
            </g>
        </g>
    </g>
</svg>