<?xml version="1.0" encoding="UTF-8"?>
<svg width="32px" height="32px" viewBox="0 0 32 32" version="1.1" xmlns="http://www.w3.org/2000/svg" xmlns:xlink="http://www.w3.org/1999/xlink">
    <!-- Generator: Sketch 50.2 (55047) - http://www.bohemiancoding.com/sketch -->
    <title>montenegro@1x</title>
    <desc>Created with Sketch.</desc>
    <defs></defs>
    <g id="flags" stroke="none" stroke-width="1" fill="none" fill-rule="evenodd">
        <g id="montenegro" fill-rule="nonzero">
            <circle id="Oval" fill="#FFDA44" cx="16" cy="16" r="16"></circle>
            <path d="M32,16 C32,10.5086875 29.2331875,5.6640625 25.0179375,2.782625 L6.9820625,2.782625 C2.766875,5.6640625 0,10.5086875 0,16 C0,21.4914375 2.766875,26.3359375 6.9820625,29.217375 L25.0179375,29.217375 C29.2331875,26.3359375 32,21.4914375 32,16 Z" id="Shape" fill="#A2001D"></path>
            <g id="Group" transform="translate(9.687500, 7.625000)" fill="#FFDA44">
                <polygon id="Shape" points="2.83425 4.2010625 9.79075 4.2010625 9.79075 1.4185 8.3994375 2.114125 6.3125 0.0271875 4.2255625 2.114125 2.83425 1.4185"></polygon>
                <path d="M12.573375,8.375 L9.0964375,8.375 C9.2328125,8.139125 9.3120625,7.8661875 9.3120625,7.5741875 C9.3120625,6.6875 8.59325,5.9688125 7.7066875,5.9688125 C7.094125,5.9688125 6.562125,6.3120625 6.2914375,6.8164375 C6.02075,6.312 5.48875,5.9688125 4.8761875,5.9688125 C3.989625,5.9688125 3.2708125,6.6875 3.2708125,7.5741875 C3.2708125,7.86625 3.3501875,8.1391875 3.4864375,8.375 L0.0515,8.375 C0.0515,9.4389375 0.9781875,10.301375 2.0420625,10.301375 L1.9779375,10.301375 C1.9779375,11.1740625 2.558375,11.9109375 3.3541875,12.147625 L1.790625,13.7113125 L3.2663125,15.187 L5.359625,13.0936875 C5.441625,13.12375 5.5264375,13.14775 5.614125,13.16425 L4.34925,16.0201875 C4.955375,16.2666875 5.6178125,16.4035 6.3125,16.4035 C7.007125,16.4035 7.6695625,16.2666875 8.27575,16.0201875 L7.010875,13.16425 C7.0985,13.1478125 7.1833125,13.12375 7.26525,13.0936875 L9.3585625,15.187 L10.8341875,13.7113125 L9.2705625,12.1476875 C10.0663125,11.910875 10.6468125,11.174125 10.6468125,10.3014375 L10.582625,10.3014375 C11.646625,10.301375 12.573375,9.4389375 12.573375,8.375 Z" id="Shape"></path>
            </g>
            <polygon id="Shape" fill="#6DA544" points="16 17.0435 13.739125 18.0869375 13.739125 20.1739375 16 21.5651875 18.260875 20.1739375 18.260875 18.0869375"></polygon>
            <rect id="Rectangle-path" fill="#0052B4" x="13.739125" y="16" width="4.52175" height="2.782625"></rect>
        </g>
    </g>
</svg>