<?xml version="1.0" encoding="UTF-8"?>
<svg width="32px" height="32px" viewBox="0 0 32 32" version="1.1" xmlns="http://www.w3.org/2000/svg" xmlns:xlink="http://www.w3.org/1999/xlink">
    <!-- Generator: Sketch 50.2 (55047) - http://www.bohemiancoding.com/sketch -->
    <title>morocco@1x</title>
    <desc>Created with Sketch.</desc>
    <defs></defs>
    <g id="flags" stroke="none" stroke-width="1" fill="none" fill-rule="evenodd">
        <g id="morocco" fill-rule="nonzero">
            <circle id="Oval" fill="#D80027" cx="16" cy="16" r="16"></circle>
            <path d="M25.4555,13.130625 L18.232125,13.130625 L16,6.260875 L13.767875,13.130625 L6.5445,13.130625 L12.3883125,17.376375 L10.156125,24.2463125 L16,20.0005 L21.843875,24.246375 L19.6116875,17.3764375 L25.4555,13.130625 Z M14.023875,16.8449375 L14.7786875,14.521875 L17.22125,14.521875 L17.976125,16.8449375 L17.976125,16.845 L16,18.2806875 L14.0239375,16.845 L14.023875,16.8449375 Z M16.76925,13.130625 L15.2308125,13.130625 L16,10.763125 L16.76925,13.130625 Z M19.1595625,15.985125 L18.684125,14.5219375 L21.1734375,14.5219375 L19.1595625,15.985125 Z M13.3158125,14.5219375 L12.840375,15.985125 L10.8264375,14.5219375 L13.3158125,14.5219375 Z M12.8025625,20.6038125 L13.5718125,18.236375 L14.8165,19.140625 L12.8025625,20.6038125 Z M17.1835,19.1406875 L18.4281875,18.2364375 L19.1974375,20.603875 L17.1835,19.1406875 Z" id="Shape" fill="#FFDA44"></path>
        </g>
    </g>
</svg>