<?xml version="1.0" encoding="UTF-8"?>
<svg width="33px" height="32px" viewBox="0 0 33 32" version="1.1" xmlns="http://www.w3.org/2000/svg" xmlns:xlink="http://www.w3.org/1999/xlink">
    <!-- Generator: Sketch 50.2 (55047) - http://www.bohemiancoding.com/sketch -->
    <title>mozambique@1x</title>
    <desc>Created with Sketch.</desc>
    <defs></defs>
    <g id="flags" stroke="none" stroke-width="1" fill="none" fill-rule="evenodd">
        <g id="mozambique" fill-rule="nonzero">
            <circle id="Oval" fill="#F0F0F0" cx="16.0625" cy="16" r="16"></circle>
            <path d="M8.7106875,22.260875 L4.7493125,27.3131875 C7.6445625,30.2088125 11.644125,32 16.0625,32 C22.676875,32 28.35275,27.9856875 30.7894375,22.260875 L8.7106875,22.260875 Z" id="Shape" fill="#FFDA44"></path>
            <path d="M30.8143125,9.7970625 C28.39125,4.041375 22.69925,0 16.0625,0 C11.644125,0 7.6445625,1.7911875 4.7493125,4.6868125 L8.7561875,9.7970625 L30.8143125,9.7970625 Z" id="Shape" fill="#496E2D"></path>
            <path d="M3.54075,11.768125 L3.54075,20.173875 L31.511375,20.173875 C31.87025,18.8431875 32.0625,17.4441875 32.0625,16 C32.0625,14.534875 31.865125,13.116125 31.4961875,11.768125 L3.54075,11.768125 Z" id="Shape" fill="#000000"></path>
            <path d="M4.74875,4.68625 C-1.499625,10.934625 -1.499625,21.0653125 4.74875,27.31375 C7.3308125,24.7316875 9.814125,22.248375 16.0625,16 L4.74875,4.68625 Z" id="Shape" fill="#A2001D"></path>
            <polygon id="Shape" fill="#FFDA44" points="6.538125 11.8260625 7.5740625 15.0145625 10.9269375 15.0145625 8.2145625 16.9853125 9.2504375 20.1739375 6.538125 18.20325 3.8256875 20.1739375 4.8618125 16.9853125 2.1494375 15.0145625 5.5020625 15.0145625"></polygon>
            <rect id="Rectangle-path" fill="#F0F0F0" x="3.5066875" y="16" width="6.064" height="2.782625"></rect>
            <polygon id="Shape" fill="#000000" points="10.71875 12.8099375 9.7349375 11.8260625 6.5381875 15.0228125 3.3414375 11.8260625 2.357625 12.8099375 5.5571875 16.0038125 2.357625 19.2034375 3.3414375 20.1739375 6.5381875 16.9829375 9.7349375 20.1739375 10.71875 19.2034375 7.5191875 16.0038125"></polygon>
        </g>
    </g>
</svg>