<?xml version="1.0" encoding="UTF-8"?>
<svg width="32px" height="32px" viewBox="0 0 32 32" version="1.1" xmlns="http://www.w3.org/2000/svg" xmlns:xlink="http://www.w3.org/1999/xlink">
    <!-- Generator: Sketch 50.2 (55047) - http://www.bohemiancoding.com/sketch -->
    <title>myanmar@1x</title>
    <desc>Created with Sketch.</desc>
    <defs></defs>
    <g id="flags" stroke="none" stroke-width="1" fill="none" fill-rule="evenodd">
        <g id="myanmar" fill-rule="nonzero">
            <path d="M31.0048125,21.5651875 C31.648,19.8319375 32,17.957125 32,16 C32,14.042875 31.648,12.1680625 31.0048125,10.4348125 L16,9.0435 L0.9951875,10.4348125 C0.3520625,12.1680625 0,14.042875 0,16 C0,17.957125 0.3520625,19.8319375 0.9951875,21.5651875 L16,22.9565 L31.0048125,21.5651875 Z" id="Shape" fill="#6DA544"></path>
            <path d="M31.0048125,10.4348125 C28.744125,4.342 22.8794375,0 16,0 C9.1205625,0 3.255875,4.342 0.9951875,10.4348125 L31.0048125,10.4348125 Z" id="Shape" fill="#FFDA44"></path>
            <path d="M16,32 C22.8794375,32 28.744125,27.658 31.0048125,21.5651875 L0.9951875,21.5651875 C3.255875,27.658 9.1205625,32 16,32 Z" id="Shape" fill="#D80027"></path>
            <polygon id="Shape" fill="#F0F0F0" points="26.9718125 13.536625 18.590125 13.536625 16 5.5651875 13.409875 13.536625 5.0281875 13.536625 11.809125 18.46325 9.219 26.4348125 16 21.5651875 22.781 26.43475 20.1909375 18.4631875"></polygon>
        </g>
    </g>
</svg>