<?xml version="1.0" encoding="UTF-8"?>
<svg width="32px" height="32px" viewBox="0 0 32 32" version="1.1" xmlns="http://www.w3.org/2000/svg" xmlns:xlink="http://www.w3.org/1999/xlink">
    <!-- Generator: Sketch 50.2 (55047) - http://www.bohemiancoding.com/sketch -->
    <title>namibia@1x</title>
    <desc>Created with Sketch.</desc>
    <defs></defs>
    <g id="flags" stroke="none" stroke-width="1" fill="none" fill-rule="evenodd">
        <g id="namibia" fill-rule="nonzero">
            <circle id="Oval" fill="#F0F0F0" cx="16" cy="16" r="16"></circle>
            <path d="M4.6863125,27.31375 C5.3575,27.9849375 6.073625,28.5835 6.8248125,29.1105 L29.110375,6.824875 C28.5834375,6.0736875 27.984875,5.3575625 27.313625,4.686375 C26.6424375,4.0151875 25.9263125,3.4166875 25.175125,2.8896875 L2.889625,25.1753125 C3.4165625,25.926375 4.015125,26.6425625 4.6863125,27.31375 Z" id="Shape" fill="#A2001D"></path>
            <path d="M4.6863125,4.68625 C-0.3614375,9.734 -1.3304375,17.31475 1.77725,23.336125 L23.336125,1.7773125 C17.31475,-1.330375 9.7339375,-0.36125 4.6863125,4.68625 Z" id="Shape" fill="#0052B4"></path>
            <path d="M27.3136875,27.31375 C32.3613125,22.266125 33.3303125,14.6853125 30.22275,8.663875 L8.663875,30.22275 C14.6851875,33.3304375 22.266,32.3614375 27.3136875,27.31375 Z" id="Shape" fill="#496E2D"></path>
            <polygon id="Shape" fill="#FFDA44" points="13.217375 9.0435 11.4245 9.8868125 12.37925 11.6231875 10.4324375 11.2508125 10.1856875 13.217375 8.8296875 11.7709375 7.473625 13.217375 7.227 11.2508125 5.280125 11.623125 6.2348125 9.88675 4.442 9.0435 6.234875 8.200125 5.280125 6.463875 7.2269375 6.83625 7.4736875 4.8695625 8.8296875 6.3160625 10.18575 4.8695625 10.4324375 6.83625 12.37925 6.463875 11.424625 8.2001875"></polygon>
        </g>
    </g>
</svg>