<?xml version="1.0" encoding="UTF-8"?>
<svg width="32px" height="32px" viewBox="0 0 32 32" version="1.1" xmlns="http://www.w3.org/2000/svg" xmlns:xlink="http://www.w3.org/1999/xlink">
    <!-- Generator: Sketch 50.2 (55047) - http://www.bohemiancoding.com/sketch -->
    <title>nepal@1x</title>
    <desc>Created with Sketch.</desc>
    <defs></defs>
    <g id="flags" stroke="none" stroke-width="1" fill="none" fill-rule="evenodd">
        <g id="nepal" fill-rule="nonzero">
            <circle id="Oval" fill="#F0F0F0" cx="16" cy="16" r="16"></circle>
            <g id="Group" transform="translate(0.000000, 0.062500)" fill="#0052B4">
                <polygon id="Shape" points="31.909125 17.680125 31.906125 17.676125 31.905625 17.680125"></polygon>
                <path d="M31.905625,17.676625 C31.905625,17.6765 31.9056875,17.676375 31.9056875,17.676125 L14.359125,0.0206875 C13.5675625,0.101375 12.793,0.23975 12.0398125,0.4315625 C5.118625,2.19375 0,15.9375 0,15.9375 C0,15.9375 22.399875,30.9271875 24.9553125,29.19775 C25.466625,28.85175 25.956875,28.4769375 26.423625,28.0756875 L16.0246875,17.676625 L31.905625,17.676625 Z" id="Shape"></path>
            </g>
            <path d="M27.8260625,16 L12.2653125,0.4393125 C5.2305,2.121625 0,8.4495 0,16 C0,24.8365 7.1635,32 16,32 C19.3518125,32 22.4623125,30.968625 25.0330625,29.2069375 L11.8260625,16 L27.8260625,16 Z" id="Shape" fill="#D80027"></path>
            <g id="Group" transform="translate(5.625000, 5.562500)" fill="#F0F0F0">
                <polygon id="Shape" points="9.592 18.0620625 7.6379375 17.1429375 8.6785 15.2505 6.556625 15.6564375 6.28775 13.5128125 4.8098125 15.089375 3.331875 13.5128125 3.0629375 15.6564375 0.941125 15.2504375 1.9816875 17.1429375 0.0275625 18.0620625 1.9816875 18.981125 0.941125 20.873625 3.0630625 20.46775 3.3318125 22.61125 4.8098125 21.0346875 6.28775 22.61125 6.556625 20.46775 8.6784375 20.8736875 7.637875 18.98125"></polygon>
                <polygon id="Shape" points="8.2880625 3.3114375 6.8668125 2.643 7.623625 1.2665625 6.0803125 1.5618125 5.88475 0.0026875 4.8098125 1.149375 3.734875 0.0026875 3.53925 1.5618125 1.9959375 1.2665625 2.7528125 2.643 1.3315 3.3114375 4.8098125 4.0071875"></polygon>
                <path d="M8.9836875,3.3114375 C8.9836875,5.616625 7.1149375,7.485375 4.80975,7.485375 C2.5045625,7.485375 0.6358125,5.616625 0.6358125,3.3114375" id="Shape"></path>
            </g>
        </g>
    </g>
</svg>