<?xml version="1.0" encoding="UTF-8"?>
<svg width="32px" height="32px" viewBox="0 0 32 32" version="1.1" xmlns="http://www.w3.org/2000/svg" xmlns:xlink="http://www.w3.org/1999/xlink">
    <!-- Generator: Sketch 50.2 (55047) - http://www.bohemiancoding.com/sketch -->
    <title>new-zealand@1x</title>
    <desc>Created with Sketch.</desc>
    <defs></defs>
    <g id="flags" stroke="none" stroke-width="1" fill="none" fill-rule="evenodd">
        <g id="new-zealand" fill-rule="nonzero">
            <path d="M32,16 C32,24.8365 24.8365,32 16,32 C7.1635,32 0,24.8365 0,16 C0,16.0038125 16,0.00175 16,0 C24.8365,0 32,7.1635 32,16 Z" id="Shape" fill="#0052B4"></path>
            <g id="Group" fill="#F0F0F0">
                <path d="M16.0188125,0 C16.0118125,0 16.0043125,0 15.9973125,0 L16.0188125,0 Z" id="Shape"></path>
                <path d="M15.9571875,16.2996875 L16.2996875,16.2996875 C16.2996875,16.1846875 16.2996875,16.0726875 16.2996875,15.9571875 C16.1856875,16.0716875 16.0716875,16.1856875 15.9571875,16.2996875 Z" id="Shape"></path>
                <path d="M16,8.3478125 C16,5.5325 16,3.6878125 16.0000625,0 L15.9973125,0 C7.162,0.0015 0,7.1643125 0,16 L8.3478125,16 L8.3478125,11.2993125 L13.0485625,16 L15.95725,16 C15.9715,15.98575 15.9858125,15.9715 16.0000625,15.9571875 C16.0000625,14.87925 16.0000625,13.9174375 16.0000625,13.048625 L11.29925,8.3478125 L16,8.3478125 Z" id="Shape"></path>
            </g>
            <g id="Group" transform="translate(2.062500, 2.062500)" fill="#D80027">
                <path d="M6.0321875,0.0244375 C3.52975,1.449375 1.449375,3.52975 0.0244375,6.0321875 L0.0244375,13.9375 L4.198375,13.9375 L4.198375,4.1985 L4.198375,4.198375 L13.9375,4.198375 C13.9375,2.8819375 13.9375,1.6278125 13.9375,0.0244375 L6.0321875,0.0244375 Z" id="Shape"></path>
                <path d="M13.9375,11.9699375 L8.2529375,6.285375 C8.2529375,6.285375 6.285375,6.2855 6.285375,6.285375 L6.285375,6.2855 L13.9375,13.9375 C13.9375,13.9375 13.9375,12.5808125 13.9375,11.9699375 Z" id="Shape"></path>
                <polygon id="Shape" points="25.645625 9.8099375 25.9909375 10.8728125 27.1085 10.8728125 26.204375 11.5296875 26.54975 12.5925 25.645625 11.9356875 24.7414375 12.5925 25.0868125 11.5296875 24.182625 10.8728125 25.3001875 10.8728125"></polygon>
                <polygon id="Shape" points="21.6506875 17.4620625 22.16875 19.0564375 23.8450625 19.0564375 22.4888125 20.0416875 23.0069375 21.636 21.6506875 20.6506875 20.2944375 21.636 20.8125625 20.0416875 19.4563125 19.0564375 21.132625 19.0564375"></polygon>
                <polygon id="Shape" points="21.8015625 4.940375 22.2333125 6.2690625 23.63025 6.2690625 22.5 7.09 22.93175 8.418625 21.8015625 7.5974375 20.6714375 8.418625 21.103125 7.09 19.973 6.2690625 21.369875 6.2690625"></polygon>
                <polygon id="Shape" points="17.957625 9.7635625 18.475625 11.3579375 20.152 11.3579375 18.79575 12.3431875 19.313875 13.9375 17.957625 12.9521875 16.601375 13.9375 17.1195 12.3431875 15.76325 11.3579375 17.4395625 11.3579375"></polygon>
            </g>
        </g>
    </g>
</svg>