<?xml version="1.0" encoding="UTF-8"?>
<svg width="32px" height="32px" viewBox="0 0 32 32" version="1.1" xmlns="http://www.w3.org/2000/svg" xmlns:xlink="http://www.w3.org/1999/xlink">
    <!-- Generator: Sketch 50.2 (55047) - http://www.bohemiancoding.com/sketch -->
    <title>new-caledonia@1x</title>
    <desc>Created with Sketch.</desc>
    <defs>
        <circle id="path-1" cx="16" cy="16" r="16"></circle>
    </defs>
    <g id="flags" stroke="none" stroke-width="1" fill="none" fill-rule="evenodd">
        <g id="new-caledonia">
            <mask id="mask-2" fill="white">
                <use xlink:href="#path-1"></use>
            </mask>
            <g id="Mask"></g>
            <g mask="url(#mask-2)" id="Group">
                <g transform="translate(-4.000000, -2.000000)">
                    <g transform="translate(24.500000, 18.000000) scale(-1, 1) rotate(-180.000000) translate(-24.500000, -18.000000) ">
                        <g fill-rule="nonzero" id="Shape">
                            <g>
                                <path d="M48.9044834,5.54853497 C48.9044834,2.50362497 46.4714376,0.0350114979 43.4706652,0.0350114979 L5.43381823,0.0350114979 C2.43304581,0.0350114979 0,2.50362497 0,5.54853497 L0,30.3594511 C0,33.4043611 2.43304581,35.8729746 5.43381823,35.8729746 L43.4706652,35.8729746 C46.471557,35.8729746 48.9044834,33.40424 48.9044834,30.3594511 L48.9044834,5.54853497 Z" fill="#009543"></path>
                                <polygon fill="#ED4135" points="48.9044834 11.0620584 0 11.0620584 0 24.8459277 48.9044834 24.8459277"></polygon>
                                <path d="M43.4706652,35.8729746 L5.43381823,35.8729746 C2.43304581,35.8729746 0,33.4043611 0,30.3594511 L0,24.8459277 L48.9044834,24.8459277 L48.9044834,30.3594511 C48.9044834,33.4043611 46.4714376,35.8729746 43.4706652,35.8729746" fill="#0035AD"></path>
                                <path d="M30.4321759,17.9539931 C30.4321759,10.7974733 24.7144347,4.99440835 17.6599391,4.99440835 C10.6054435,4.99440835 4.88638889,10.7974733 4.88638889,17.9539931 C4.88638889,25.1119666 10.6054435,30.9135778 17.6599391,30.9135778 C24.7144347,30.9135778 30.4321759,25.1119666 30.4321759,17.9539931" fill="#141414"></path>
                                <path d="M29.8860599,17.9539931 C29.8860599,11.102037 24.4128411,5.54853497 17.6599391,5.54853497 C10.907037,5.54853497 5.43381823,11.102037 5.43381823,17.9539931 C5.43381823,24.8059492 10.907037,30.3594511 17.6599391,30.3594511 C24.4128411,30.3594511 29.8860599,24.8059492 29.8860599,17.9539931" fill="#FAE600"></path>
                                <g transform="translate(12.655945, 5.451617)" fill="#141414">
                                    <polygon points="5.39717485 0.107942023 4.82740741 0.107942023 4.82740741 24.8968094 5.39717485 24.8968094"></polygon>
                                    <path d="M6.70203947,17.0247952 C6.70203947,16.0971722 5.96035331,15.3444856 5.04602096,15.3444856 C4.1316886,15.3444856 3.39000244,16.097051 3.39000244,17.0247952 C3.39000244,17.9525393 4.1316886,18.7051048 5.04602096,18.7051048 C5.96035331,18.7051048 6.70203947,17.9525393 6.70203947,17.0247952"></path>
                                    <path d="M6.40319201,6.62214014 C6.40319201,5.53872205 5.79463207,4.66210199 5.0447076,4.66210199 C4.29478314,4.66210199 3.6862232,5.53872205 3.6862232,6.62214014 C3.6862232,7.70555822 4.29478314,8.58217829 5.0447076,8.58217829 C5.79463207,8.58217829 6.40319201,7.70555822 6.40319201,6.62214014"></path>
                                    <path d="M6.70203947,12.1150686 C6.70203947,11.5554904 5.96035331,11.1033696 5.04602096,11.1033696 C4.1316886,11.1033696 3.39000244,11.5554904 3.39000244,12.1150686 C3.39000244,12.6746468 4.1316886,13.1267676 5.04602096,13.1267676 C5.96035331,13.1267676 6.70203947,12.6746468 6.70203947,12.1150686"></path>
                                    <path d="M3.22165448,19.3943104 C3.22165448,19.3943104 3.05187378,20.6004504 3.39143519,21.1172637 C3.73099659,21.6341982 4.62216618,22.1083678 5.34355507,22.2806389 C6.06625731,22.45291 7.04303363,23.5294227 7.04303363,23.5294227 C7.04303363,23.5294227 6.91528021,21.9359755 5.72669591,20.9449926 C4.5381116,19.9538886 3.22165448,19.3943104 3.22165448,19.3943104"></path>
                                    <path d="M2.18112086,16.9407191 C2.18112086,16.9407191 2.83863304,16.5106471 3.00841374,15.8642064 C3.17819444,15.2177657 3.64550926,14.5285602 5.00399366,14.5285602 L5.00399366,13.7524922 C5.00399366,13.7524922 3.85743665,13.6670835 3.22165448,13.9247633 C2.58455897,14.1838968 2.41477827,15.3900369 2.41477827,15.8214415 C2.41477827,16.2516347 2.18112086,16.9407191 2.18112086,16.9407191"></path>
                                    <path d="M7.87032651,16.9407191 C7.87032651,16.9407191 7.21281433,16.5106471 7.04303363,15.8642064 C6.87325292,15.2177657 6.40593811,14.5285602 5.0474537,14.5285602 L5.0474537,13.7524922 C5.0474537,13.7524922 6.19401072,13.6670835 6.82979288,13.9247633 C7.4668884,14.1838968 7.6366691,15.3900369 7.6366691,15.8214415 C7.6366691,16.2516347 7.87032651,16.9407191 7.87032651,16.9407191"></path>
                                    <path d="M7.6366691,8.10946249 C7.6366691,8.53953452 7.44515838,9.74555342 6.80937622,10.004687 C6.1722807,10.2624879 5.00530702,10.3630399 5.00530702,10.3630399 C5.00530702,10.3630399 3.85875,10.2623667 3.22165448,10.004687 C2.58455897,9.74555342 2.41477827,8.53941338 2.41477827,8.10946249 C2.41477827,7.6795116 2.18112086,5.61177373 2.18112086,5.61177373 C2.18112086,5.61177373 3.0736038,7.12381008 3.2433845,7.77037189 C3.4131652,8.41693371 4.11282407,9.22183472 5.00530702,9.22183472 C5.91677388,9.22183472 6.63947612,8.44576671 6.80937622,7.79932604 C6.97915692,7.15421799 7.8594615,5.61177373 7.8594615,5.61177373 C7.8594615,5.61177373 7.6366691,7.67939046 7.6366691,8.10946249"></path>
                                    <g>
                                        <path d="M5.00399366,4.23202996 L5.00399366,0.0969176413 C5.00399366,0.0969176413 3.81528996,-0.0327097039 2.11724415,0.419411093 C0.419198343,0.87153189 0.101247563,1.043803 0.101247563,1.043803 C0.101247563,1.043803 1.8292617,2.79982951 2.58455897,3.45741571 C3.47572856,4.23202996 5.00399366,4.23202996 5.00399366,4.23202996"></path>
                                        <path d="M5.00399366,4.23202996 L5.00399366,0.0969176413 C5.00399366,0.0969176413 6.19269737,-0.0327097039 7.89074318,0.419411093 C9.58878899,0.87153189 9.90673977,1.043803 9.90673977,1.043803 C9.90673977,1.043803 8.17872563,2.79982951 7.42342836,3.45741571 C6.53225877,4.23202996 5.00399366,4.23202996 5.00399366,4.23202996"></path>
                                    </g>
                                </g>
                            </g>
                        </g>
                    </g>
                </g>
            </g>
        </g>
    </g>
</svg>