<?xml version="1.0" encoding="UTF-8"?>
<svg width="32px" height="32px" viewBox="0 0 32 32" version="1.1" xmlns="http://www.w3.org/2000/svg" xmlns:xlink="http://www.w3.org/1999/xlink">
    <!-- Generator: Sketch 50.2 (55047) - http://www.bohemiancoding.com/sketch -->
    <title>nicaragua@1x</title>
    <desc>Created with Sketch.</desc>
    <defs></defs>
    <g id="flags" stroke="none" stroke-width="1" fill="none" fill-rule="evenodd">
        <g id="nicaragua" fill-rule="nonzero">
            <circle id="Oval" fill="#F0F0F0" cx="16" cy="16" r="16"></circle>
            <g id="Group" transform="translate(1.562500, 0.000000)" fill="#338AF3">
                <path d="M14.4375,0 C8.094125,0 2.613125,3.6915625 0.025125,9.0435 L28.8498125,9.0435 C26.261875,3.6915625 20.7808125,0 14.4375,0 Z" id="Shape"></path>
                <path d="M14.4375,32 C20.7808125,32 26.261875,28.3084375 28.849875,22.9565 L0.025125,22.9565 C2.613125,28.3084375 8.094125,32 14.4375,32 Z" id="Shape"></path>
            </g>
            <path d="M16,11.1304375 C13.310625,11.1304375 11.1304375,13.310625 11.1304375,16 C11.1304375,18.689375 13.310625,20.8695625 16,20.8695625 C18.689375,20.8695625 20.8695625,18.689375 20.8695625,16 C20.8695625,13.310625 18.689375,11.1304375 16,11.1304375 Z M16,18.782625 C14.46325,18.782625 13.217375,17.536875 13.217375,16 C13.217375,14.463125 14.4631875,13.217375 16,13.217375 C17.5368125,13.217375 18.782625,14.463125 18.782625,16 C18.782625,17.536875 17.53675,18.782625 16,18.782625 Z" id="Shape" fill="#FFDA44"></path>
            <polygon id="Shape" fill="#0052B4" points="18.409875 16.695625 16 16 13.590125 16.695625 12.786875 18.0869375 19.2130625 18.0869375"></polygon>
            <polygon id="Shape" fill="#338AF3" points="16 12.52175 14.3934375 15.304375 16 16 17.6065625 15.304375"></polygon>
            <polygon id="Shape" fill="#6DA544" points="13.590125 16.695625 18.409875 16.695625 17.6065625 15.304375 14.3934375 15.304375"></polygon>
        </g>
    </g>
</svg>