<?xml version="1.0" encoding="UTF-8"?>
<svg width="32px" height="32px" viewBox="0 0 32 32" version="1.1" xmlns="http://www.w3.org/2000/svg" xmlns:xlink="http://www.w3.org/1999/xlink">
    <!-- Generator: Sketch 50.2 (55047) - http://www.bohemiancoding.com/sketch -->
    <title>niger@1x</title>
    <desc>Created with Sketch.</desc>
    <defs></defs>
    <g id="flags" stroke="none" stroke-width="1" fill="none" fill-rule="evenodd">
        <g id="niger" fill-rule="nonzero">
            <path d="M1.587625,9.0435 C0.5705,11.147 0,13.5068125 0,16 C0,18.4931875 0.5705,20.853 1.587625,22.9565 L16,24.3478125 L30.412375,22.9565 C31.4295,20.853 32,18.4931875 32,16 C32,13.5068125 31.4295,11.147 30.412375,9.0435 L16,7.6521875 L1.587625,9.0435 Z" id="Shape" fill="#F0F0F0"></path>
            <path d="M1.5881875,22.9565 C4.1760625,28.3084375 9.656625,32 16,32 C22.343375,32 27.8239375,28.3084375 30.4118125,22.9565 L1.5881875,22.9565 Z" id="Shape" fill="#6DA544"></path>
            <g id="Group" transform="translate(1.562500, 0.000000)" fill="#FF9811">
                <path d="M0.0256875,9.0435 L28.8493125,9.0435 C26.2614375,3.6915625 20.7808125,0 14.4375,0 C8.0941875,0 2.6135625,3.6915625 0.0256875,9.0435 Z" id="Shape"></path>
                <circle id="Oval" cx="14.4375" cy="16" r="5.5651875"></circle>
            </g>
        </g>
    </g>
</svg>