<?xml version="1.0" encoding="UTF-8"?>
<svg width="32px" height="32px" viewBox="0 0 32 32" version="1.1" xmlns="http://www.w3.org/2000/svg" xmlns:xlink="http://www.w3.org/1999/xlink">
    <!-- Generator: Sketch 50.2 (55047) - http://www.bohemiancoding.com/sketch -->
    <title>niue@1x</title>
    <desc>Created with Sketch.</desc>
    <defs></defs>
    <g id="flags" stroke="none" stroke-width="1" fill="none" fill-rule="evenodd">
        <g id="niue" fill-rule="nonzero">
            <path d="M16.0188125,0 C16.0108125,0 16.0048125,0 15.9973125,0 L16.0188125,0 Z" id="Shape" fill="#F0F0F0"></path>
            <path d="M32,16 C32,24.8365 24.8365,32 16,32 C7.1635,32 0,24.8365 0,16 C0,16.0038125 16,0.00175 16,0 C24.8365,0 32,7.1635 32,16 Z" id="Shape" fill="#FFDA44"></path>
            <g id="Group" transform="translate(7.625000, 7.625000)" fill="#0052B4">
                <polygon id="Shape" points="8.375 0.0271875 8.375 5.423625 2.8098125 0.0271875"></polygon>
                <polygon id="Shape" points="0.7228125 8.375 5.4235 8.375 0.7228125 2.114125 0.0271875 6.9836875"></polygon>
            </g>
            <g id="Group" fill="#F0F0F0">
                <path d="M15.9571875,16.2996875 L16.2996875,16.2996875 C16.2996875,16.1846875 16.2996875,16.0726875 16.2996875,15.9571875 C16.1856875,16.0716875 16.0716875,16.1856875 15.9571875,16.2996875 Z" id="Shape"></path>
                <path d="M16,8.3478125 C16,5.5325 16,3.6878125 16.0000625,0 L15.9973125,0 C7.1619375,0.0015 0,7.1643125 0,16 L8.3478125,16 L8.3478125,11.2993125 L13.0485,16 L15.95725,16 C15.9715,15.98575 15.98575,15.9715 16.0000625,15.9571875 C16.0000625,14.87925 16.0000625,13.9174375 16.0000625,13.048625 L11.29925,8.3478125 L16,8.3478125 Z" id="Shape"></path>
            </g>
            <g id="Group" transform="translate(2.062500, 2.062500)" fill="#D80027">
                <path d="M13.9375,11.9699375 L8.2528125,6.285375 L6.2853125,6.285375 L6.2853125,6.2855 L13.937375,13.9375 L13.9375,13.9375 C13.9375,13.9375 13.9375,12.5808125 13.9375,11.9699375 Z" id="Shape"></path>
                <path d="M6.0321875,0.0244375 C5.415375,0.3756875 4.8244375,0.767125 4.2624375,1.1944375 L4.9189375,1.1944375 L3.1838125,2.4553125 L3.8464375,4.495125 L2.1113125,3.2345 L1.9266875,3.3686875 C1.20625,4.1868125 0.5675,5.0785625 0.0244375,6.0321875 L0.0244375,13.9375 L4.198375,13.9375 L4.198375,4.1985 L4.198375,4.198375 L13.9375,4.198375 C13.9375,2.8819375 13.9375,1.6278125 13.9375,0.0244375 L6.0321875,0.0244375 Z" id="Shape"></path>
            </g>
            <path d="M6.835,2.8845 C6.6624375,3.0053125 6.4923125,3.1295 6.32475,3.2569375 L5.2463125,4.5178125 L4.1738125,5.2969375 L3.987625,5.4321875 C3.59475,5.8784375 3.2263125,6.3466875 2.8844375,6.835 C3.274125,7.024125 3.7115625,7.1304375 4.1738125,7.1304375 C5.8066875,7.1304375 7.1303125,5.8068125 7.1303125,4.1739375 C7.1304375,3.7115625 7.0241875,3.27425 6.835,2.8845 Z" id="Shape" fill="#0052B4"></path>
            <g id="Group" transform="translate(2.687500, 2.750000)" fill="#FFDA44">
                <path d="M1.3001875,2.6821875 L1.486375,2.5469375 L3.2215,3.807625 L2.5588125,1.7678125 L4.2938125,0.5069375 L3.6371875,0.5069375 C2.7875625,1.153125 2.004625,1.882125 1.3001875,2.6821875 Z" id="Shape"></path>
                <polygon id="Shape" points="8.371375 0.032625 8.71675 1.0954375 9.83425 1.0954375 8.9301875 1.752375 9.275375 2.8151875 8.371375 2.1583125 7.4673125 2.8151875 7.8124375 1.752375 6.908375 1.0954375 8.0259375 1.0954375"></polygon>
                <polygon id="Shape" points="1.4864375 6.989125 1.8318125 8.0519375 2.9493125 8.0519375 2.0453125 8.7089375 2.3905 9.77175 1.4864375 9.1148125 0.5823125 9.77175 0.9275 8.7089375 0.0235 8.0519375 1.141 8.0519375"></polygon>
            </g>
        </g>
    </g>
</svg>