<?xml version="1.0" encoding="UTF-8"?>
<svg width="32px" height="32px" viewBox="0 0 32 32" version="1.1" xmlns="http://www.w3.org/2000/svg" xmlns:xlink="http://www.w3.org/1999/xlink">
    <!-- Generator: Sketch 50.2 (55047) - http://www.bohemiancoding.com/sketch -->
    <title>northern-marianas-islands@1x</title>
    <desc>Created with Sketch.</desc>
    <defs></defs>
    <g id="flags" stroke="none" stroke-width="1" fill="none" fill-rule="evenodd">
        <g id="northern-marianas-islands" fill-rule="nonzero">
            <circle id="Oval" fill="#338AF3" cx="16" cy="16" r="16"></circle>
            <path d="M15.495625,26.074375 C15.0643125,26.0535 14.7074375,25.7731875 14.567625,25.392625 C14.3206875,25.7146875 13.8963125,25.8768125 13.47825,25.769 C13.0594375,25.6611875 12.766625,25.31475 12.7060625,24.912625 C12.3985625,25.1783125 11.9505625,25.250625 11.563125,25.0608125 C11.1749375,24.8701875 10.9579375,24.4715 10.9801875,24.0659375 C10.626125,24.264875 10.1725625,24.2454375 9.831,23.9810625 C9.490125,23.7166875 9.35725,23.2833125 9.4601875,22.89025 C9.073375,23.0140625 8.63375,22.9041875 8.352,22.5765 C8.07025,22.2495625 8.0270625,21.7980625 8.206625,21.43425 C7.803125,21.4773125 7.394125,21.2811875 7.184,20.9041875 C6.9731875,20.527125 7.0219375,20.0756875 7.271625,19.754875 C6.8674375,19.7159375 6.5056875,19.441125 6.3763125,19.0293125 C6.24625,18.6175 6.385375,18.1848125 6.6949375,17.921125 C6.30675,17.801375 6.009,17.459125 5.9651875,17.03 C5.921375,16.6008125 6.144,16.206375 6.4994375,16.0101875 C6.1439375,15.815375 5.9199375,15.421 5.962375,14.9924375 C5.962375,14.9924375 5.962375,14.9924375 5.9630625,14.9924375 C6.0055,14.5625 6.30325,14.219625 6.6906875,14.0985 C6.381125,13.8355625 6.240625,13.4035625 6.3693125,12.9916875 C6.498,12.5791875 6.859,12.3036875 7.26325,12.2633125 C7.0135,11.9433125 6.9634375,11.49175 7.1728125,11.114125 C7.3821875,10.7370625 7.79125,10.5401875 8.1954375,10.582625 C8.0145625,10.2188125 8.057,9.7673125 8.3380625,9.439 C8.6184375,9.111375 9.0580625,9.00075 9.4455625,9.1231875 C9.3411875,8.7308125 9.473375,8.29675 9.81425,8.03175 C10.1544375,7.766625 10.608,7.7464375 10.9620625,7.944 C10.939125,7.5385 11.1554375,7.1398125 11.5429375,6.9485 C11.92975,6.757875 12.3784375,6.828875 12.6865625,7.0945625 C12.7456875,6.6925625 13.0385625,6.34475 13.456625,6.236125 C13.874,6.127625 14.298375,6.2883125 14.546,6.6096875 C14.6858125,6.2291875 15.042,5.948125 15.4733125,5.9265625 C15.9039375,5.904375 16.2865,6.146375 16.464625,6.5103125 C16.6775,6.16525 17.082375,5.96075 17.5088125,6.0254375 C17.9359375,6.0894375 18.263625,6.4038125 18.3651875,6.7969375 C18.6434375,6.5005 19.0816875,6.383 19.4865625,6.5318125 C19.892125,6.681375 20.1495,7.055625 20.169,7.461875 C20.5008125,7.2281875 20.954375,7.201 21.321,7.4291875 C21.687625,7.6566875 21.863625,8.07475 21.801,8.476125 C22.1731875,8.3140625 22.6225625,8.37875 22.935625,8.6750625 C23.2486875,8.972125 23.3376875,9.416625 23.1958125,9.797125 C23.593,9.7129375 24.0201875,9.866 24.2678125,10.2200625 C24.5154375,10.5734375 24.513375,11.027 24.2984375,11.371375 C24.704,11.3685625 25.0915,11.605125 25.2633125,12.0009375 C25.4344375,12.3974375 25.3405,12.842 25.0601875,13.13625 C25.4588125,13.2155625 25.790625,13.525125 25.87825,13.9480625 C25.9651875,14.371 25.783625,14.7863125 25.4504375,15.018 C25.8233125,15.176 26.08625,15.5453125 26.0869375,15.976625 C26.0869375,15.9814375 26.0869375,15.9856875 26.0869375,15.9905625 C26.0869375,15.993375 26.0869375,15.9968125 26.0869375,15.999625 C26.0869375,16.430875 25.825375,16.801 25.4525,16.9603125 C25.7864375,17.190625 25.969375,17.605875 25.8824375,18.0288125 C25.7961875,18.45175 25.4650625,18.7620625 25.0664375,18.84275 C25.3475,19.1363125 25.4428125,19.580125 25.272375,19.977375 C25.1019375,20.373875 24.7144375,20.611125 24.3081875,20.609 C24.5238125,20.953375 24.5273125,21.4069375 24.280375,21.761 C24.0334375,22.1151875 23.607,22.2695625 23.20975,22.1860625 C23.352375,22.565875 23.264,23.011125 22.9516875,23.308875 C22.638625,23.606 22.1899375,23.6713125 21.81775,23.510625 C21.8810625,23.9113125 21.70575,24.330125 21.3398125,24.559 C20.973875,24.787875 20.5203125,24.761375 20.1878125,24.528375 C20.169,24.934625 19.913,25.309625 19.5081875,25.459875 C19.5081875,25.459875 19.5081875,25.459875 19.5075,25.459875 C19.102625,25.6094375 18.664375,25.492625 18.3854375,25.197 C18.28525,25.59075 17.9583125,25.9058125 17.5311875,25.97125 C17.10475,26.0359375 16.6991875,25.8328125 16.485625,25.48775 C16.315875,25.8376875 15.9569375,26.0755625 15.547875,26.0755625 C15.5304375,26.0758125 15.5130625,26.075125 15.495625,26.074375 Z" id="Shape" fill="#F3F3F3"></path>
            <circle id="Oval" fill="#338AF3" cx="16" cy="16" r="6.9565"></circle>
            <path d="M17.5226875,13.6386875 C17.8644375,13.3851875 18.0869375,12.98 18.0869375,12.52175 L18.0869375,11.826125 C18.0869375,11.0576875 17.4640625,10.4348125 16.695625,10.4348125 L15.304375,10.4348125 C14.5359375,10.4348125 13.9130625,11.0576875 13.9130625,11.826125 L13.9130625,12.52175 C13.9130625,12.98 14.1355625,13.3851875 14.4773125,13.6386875 L13.2174375,26.43475 C13.2174375,26.43475 13.9130625,27.1305 16.0000625,27.1305 C18.0870625,27.1305 18.7826875,26.43475 18.7826875,26.43475 L17.5226875,13.6386875 Z" id="Shape" fill="#BDBCC1"></path>
            <polygon id="Shape" fill="#F0F0F0" points="15.9999375 10.4348125 17.2085625 14.1546875 21.120125 14.1546875 17.95575 16.4539375 19.1643125 20.1739375 15.9999375 17.874875 12.8354375 20.1739375 14.04425 16.4539375 10.8798125 14.1546875 14.79125 14.1546875"></polygon>
        </g>
    </g>
</svg>