<?xml version="1.0" encoding="UTF-8"?>
<svg width="32px" height="32px" viewBox="0 0 32 32" version="1.1" xmlns="http://www.w3.org/2000/svg" xmlns:xlink="http://www.w3.org/1999/xlink">
    <!-- Generator: Sketch 50.2 (55047) - http://www.bohemiancoding.com/sketch -->
    <title>norway@1x</title>
    <desc>Created with Sketch.</desc>
    <defs></defs>
    <g id="flags" stroke="none" stroke-width="1" fill="none" fill-rule="evenodd">
        <g id="norway" fill-rule="nonzero">
            <circle id="Oval" fill="#F0F0F0" cx="16" cy="16" r="16"></circle>
            <g id="Group" transform="translate(0.500000, 0.000000)" fill="#D80027">
                <path d="M0.0511875,20.1739375 C0.9769375,23.608875 3.01725,26.586 5.760875,28.6940625 L5.760875,20.1739375 L0.0511875,20.1739375 Z" id="Shape"></path>
                <path d="M14.1086875,31.939125 C14.5673125,31.978625 15.031125,32 15.5,32 C22.8924375,32 29.1128125,26.9861875 30.9488125,20.1739375 L14.1086875,20.1739375 L14.1086875,31.939125 Z" id="Shape"></path>
                <path d="M30.9488125,11.8260625 C29.1128125,5.0138125 22.8924375,0 15.5,0 C15.031125,0 14.5673125,0.021375 14.1086875,0.060875 L14.1086875,11.8260625 L30.9488125,11.8260625 Z" id="Shape"></path>
                <path d="M5.760875,3.3059375 C3.01725,5.4140625 0.9769375,8.391125 0.0511875,11.8260625 L5.760875,11.8260625 L5.760875,3.3059375 Z" id="Shape"></path>
            </g>
            <path d="M31.8645625,13.9130625 L12.5218125,13.9130625 L12.52175,13.9130625 L12.52175,0.3803125 C11.043125,0.7081875 9.6413125,1.239625 8.3478125,1.9454375 L8.3478125,13.9129375 L8.3478125,13.913 L0.1354375,13.913 C0.046375,14.5961875 0,15.2926875 0,16 C0,16.7073125 0.046375,17.4038125 0.1354375,18.0869375 L8.34775,18.0869375 L8.3478125,18.0869375 L8.3478125,30.0545 C9.6413125,30.76025 11.043125,31.2918125 12.52175,31.619625 L12.52175,18.087125 L12.52175,18.087 L31.8645625,18.087 C31.9535,17.4038125 32,16.7073125 32,16 C32,15.2926875 31.9535,14.5961875 31.8645625,13.9130625 Z" id="Shape" fill="#0052B4"></path>
        </g>
    </g>
</svg>