<?xml version="1.0" encoding="UTF-8"?>
<svg width="32px" height="32px" viewBox="0 0 32 32" version="1.1" xmlns="http://www.w3.org/2000/svg" xmlns:xlink="http://www.w3.org/1999/xlink">
    <!-- Generator: Sketch 50.2 (55047) - http://www.bohemiancoding.com/sketch -->
    <title>oman@1x</title>
    <desc>Created with Sketch.</desc>
    <defs></defs>
    <g id="flags" stroke="none" stroke-width="1" fill="none" fill-rule="evenodd">
        <g id="oman" fill-rule="nonzero">
            <circle id="Oval" fill="#F0F0F0" cx="16" cy="16" r="16"></circle>
            <g id="Group" transform="translate(0.000000, 1.937500)" fill="#D80027">
                <path d="M0,14.0625 C0,20.1271875 3.374375,25.4034375 8.3478125,28.1170625 L8.3478125,0.0079375 C3.374375,2.7215625 0,7.9978125 0,14.0625 Z" id="Shape"></path>
                <path d="M31.004875,19.6276875 C31.648,17.894375 32,16.019625 32,14.0625 C32,12.105375 31.648,10.2305625 31.004875,8.4973125 L0.99525,8.4973125 C0.3520625,10.2305625 0,12.105375 0,14.0625 C0,16.019625 0.3520625,17.894375 0.99525,19.6276875 L16,21.019 L31.004875,19.6276875 Z" id="Shape"></path>
            </g>
            <path d="M16,32 C22.8795,32 28.744125,27.658 31.004875,21.5651875 L0.99525,21.5651875 C3.255875,27.658 9.120625,32 16,32 Z" id="Shape" fill="#6DA544"></path>
            <path d="M0,16 C0,23.3924375 5.0138125,29.6128125 11.8260625,31.4488125 L11.8260625,0.5511875 C5.0138125,2.3871875 0,8.6075625 0,16 Z" id="Shape" fill="#D80027"></path>
            <polygon id="Shape" fill="#F0F0F0" points="9.7885625 7.040875 8.312875 5.5651875 7.329125 6.5490625 6.345375 5.5651875 4.8696875 7.040875 5.8535 8.0246875 4.8695625 9.0085625 6.34525 10.48425 7.3290625 9.500375 8.312875 10.48425 9.7885625 9.0085625 8.80475 8.0246875"></polygon>
        </g>
    </g>
</svg>