<?xml version="1.0" encoding="UTF-8"?>
<svg width="32px" height="32px" viewBox="0 0 32 32" version="1.1" xmlns="http://www.w3.org/2000/svg" xmlns:xlink="http://www.w3.org/1999/xlink">
    <!-- Generator: Sketch 50.2 (55047) - http://www.bohemiancoding.com/sketch -->
    <title>pakistan@1x</title>
    <desc>Created with Sketch.</desc>
    <defs></defs>
    <g id="flags" stroke="none" stroke-width="1" fill="none" fill-rule="evenodd">
        <g id="pakistan" fill-rule="nonzero">
            <g id="Group" fill="#F0F0F0">
                <circle id="Oval" cx="16" cy="16" r="16"></circle>
                <path d="M0,16 C0,22.0646875 3.3743125,27.340875 8.3478125,30.0545625 L8.3478125,1.9454375 C3.3743125,4.659125 0,9.9353125 0,16 Z" id="Shape"></path>
            </g>
            <path d="M16,0 C13.228125,0 10.621,0.7051875 8.3478125,1.9454375 L8.3478125,30.0545 C10.621,31.2948125 13.228125,32 16,32 C24.8365,32 32,24.8365 32,16 C32,7.1635 24.8365,0 16,0 Z" id="Shape" fill="#496E2D"></path>
            <g id="Group" transform="translate(13.187500, 10.375000)" fill="#F0F0F0">
                <path d="M9.6533125,8.2710625 C7.629125,9.733625 4.8025,9.278375 3.34,7.25425 C1.877375,5.23 2.3326875,2.4034375 4.356875,0.9409375 C4.988,0.4849375 5.697125,0.215375 6.4185625,0.1216875 C5.030625,-0.085875 3.5634375,0.226875 2.336125,1.1136875 C-0.155125,2.9138125 -0.7155625,6.392625 1.0845,8.884 C2.8845625,11.3751875 6.3634375,11.9356875 8.8548125,10.1354375 C10.08225,9.248625 10.8398125,7.9540625 11.0784375,6.571 C10.7630625,7.226375 10.2845,7.815 9.6533125,8.2710625 Z" id="Shape"></path>
                <polygon id="Shape" points="9.566625 0.0599375 10.706875 1.28875 12.227875 0.58425 11.4114375 2.04825 12.551625 3.2771875 10.906875 2.953125 10.0905 4.41725 9.8904375 2.752875 8.2456875 2.4288125 9.76675 1.7243125"></polygon>
            </g>
        </g>
    </g>
</svg>