<?xml version="1.0" encoding="UTF-8"?>
<svg width="32px" height="32px" viewBox="0 0 32 32" version="1.1" xmlns="http://www.w3.org/2000/svg" xmlns:xlink="http://www.w3.org/1999/xlink">
    <!-- Generator: Sketch 50.2 (55047) - http://www.bohemiancoding.com/sketch -->
    <title>panama@1x</title>
    <desc>Created with Sketch.</desc>
    <defs></defs>
    <g id="flags" stroke="none" stroke-width="1" fill="none" fill-rule="evenodd">
        <g id="panama" fill-rule="nonzero">
            <circle id="Oval" fill="#F0F0F0" cx="16" cy="16" r="16"></circle>
            <path d="M0,16 C0,24.8365 7.1635,32 16,32 C16,25.9153125 16,16 16,16 C16,16 5.5651875,16 0,16 Z" id="Shape" fill="#0052B4"></path>
            <path d="M16,0 C24.8365,0 32,7.1635 32,16 C25.9153125,16 16,16 16,16 C16,16 16,5.5651875 16,0 Z" id="Shape" fill="#D80027"></path>
            <polygon id="Shape" fill="#0052B4" points="9.5243125 5.5651875 10.560375 8.7538125 13.9130625 8.7538125 11.2006875 10.7244375 12.2366875 13.9130625 9.5243125 11.942375 6.8119375 13.9130625 7.8479375 10.7244375 5.1355625 8.7538125 8.48825 8.7538125"></polygon>
            <polygon id="Shape" fill="#D80027" points="22.4756875 18.0869375 23.51175 21.2755625 26.8644375 21.2755625 24.152 23.2461875 25.1880625 26.4348125 22.4756875 24.464125 19.7633125 26.4348125 20.7993125 23.2461875 18.0869375 21.2755625 21.439625 21.2755625"></polygon>
        </g>
    </g>
</svg>