<?xml version="1.0" encoding="UTF-8"?>
<svg width="32px" height="32px" viewBox="0 0 32 32" version="1.1" xmlns="http://www.w3.org/2000/svg" xmlns:xlink="http://www.w3.org/1999/xlink">
    <!-- Generator: Sketch 50.2 (55047) - http://www.bohemiancoding.com/sketch -->
    <title>papua-new-guinea@1x</title>
    <desc>Created with Sketch.</desc>
    <defs></defs>
    <g id="flags" stroke="none" stroke-width="1" fill="none" fill-rule="evenodd">
        <g id="papua-new-guinea" fill-rule="nonzero">
            <path d="M27.2605068,27.2604444 C21.0243119,33.4966394 10.9134347,33.4966394 4.67711501,27.2604444 C-1.55907992,21.0242495 -1.55907992,10.9133099 4.67717739,4.67705263 C10.9133723,-1.5591423 20.0423548,-0.577247563 26.2785497,5.65900975 C32.5146823,11.8952047 33.4966394,21.0242495 27.2605068,27.2604444 Z" id="Shape" fill="#000000"></path>
            <path d="M4.67717739,4.67711501 C10.9133723,-1.55907992 21.0241871,-1.55895517 27.2605068,4.67717739 C33.4967018,10.9133723 33.4967018,21.0242495 27.2605068,27.2605068" id="Shape" fill="#A2001D"></path>
            <g id="Group" transform="translate(4.116959, 13.847953)" fill="#F0F0F0">
                <polygon id="Shape" points="8.08683041 7.67525926 8.34532554 8.47089279 9.18187914 8.47089279 8.50507602 8.9625575 8.76363353 9.75819103 8.08683041 9.26646394 7.41002729 9.75819103 7.66852242 8.9625575 6.99178168 8.47089279 7.8282729 8.47089279"></polygon>
                <polygon id="Shape" points="5.95031579 0.0379883041 6.38128655 1.36402339 7.7754386 1.36402339 6.64745419 2.18348538 7.07830019 3.50952047 5.95031579 2.68993372 4.82239376 3.50952047 5.25330214 2.18348538 4.12525536 1.36402339 5.51953216 1.36402339"></polygon>
                <polygon id="Shape" points="5.95031579 9.75819103 6.38116179 11.0842261 7.7754386 11.0842261 6.64732943 11.9036257 7.07830019 13.2296608 5.95031579 12.4100741 4.82239376 13.2296608 5.25317739 11.9036257 4.12525536 11.0842261 5.51934503 11.0842261"></polygon>
                <polygon id="Shape" points="10.026729 3.50952047 10.4576998 4.83555556 11.8518519 4.83555556 10.7238674 5.65495517 11.1547135 6.98099025 10.026729 6.16140351 8.89880702 6.98099025 9.3297154 5.65495517 8.20173099 4.83555556 9.59594542 4.83555556"></polygon>
                <polygon id="Shape" points="1.87384016 3.50952047 2.30481092 4.83555556 3.69890058 4.83555556 2.57097856 5.65495517 3.00176218 6.98099025 1.87384016 6.16140351 0.74585575 6.98099025 1.17682651 5.65495517 0.0487797271 4.83555556 1.44299415 4.83555556"></polygon>
            </g>
            <path d="M26.7321014,11.8244678 C26.0184327,11.1107992 25.0911189,10.6891852 24.0946277,10.6167641 L27.0775517,8.29673294 C25.8895595,7.10874074 24.2972943,6.57222612 22.7435789,6.68569201 C22.5575673,6.01724756 22.2029474,5.38585575 21.6772865,4.86019493 L20.4990253,7.21671735 C20.4217388,7.07586745 20.3238674,6.94331384 20.2044756,6.82398441 C19.5265497,6.14612086 18.4275712,6.14612086 17.74977,6.82398441 C17.0719688,7.50184795 17.0718441,8.60082651 17.74977,9.27869006 C17.8690994,9.39801949 18.0017154,9.49589084 18.1425653,9.57323977 L15.7860429,10.751501 C16.3118285,11.2773489 16.9436569,11.6322183 17.6124756,11.8181053 C17.4986355,13.3718207 18.0345887,14.9638363 19.2226433,16.1518908 L21.8288031,12.8010604 C22.0248577,12.608 22.2837895,12.5013957 22.5592515,12.5013957 C22.8374581,12.5013957 23.0989474,12.6096842 23.2956257,12.8064873 C23.4923665,13.0031657 23.6007173,13.2647173 23.6007173,13.5428616 C23.6007173,13.8210682 23.4923665,14.0825575 23.2956257,14.2792982 L24.2775828,15.2612554 C24.736499,14.8022768 24.9893177,14.1920312 24.9893177,13.542924 C24.9893177,13.0118363 24.8198986,12.5069474 24.5071345,12.0895127 C24.9628694,12.2112125 25.3935906,12.4496218 25.7503938,12.8064873 C26.8332788,13.8893099 26.8332788,15.6512437 25.7503938,16.7340039 L26.7323509,17.715961 C27.5191267,16.9291228 27.9524678,15.8830409 27.9524678,14.7702768 C27.9522807,13.6573879 27.5188772,12.611306 26.7321014,11.8244678 Z" id="Shape" fill="#FFDA44"></path>
        </g>
    </g>
</svg>