<?xml version="1.0" encoding="UTF-8"?>
<svg width="32px" height="32px" viewBox="0 0 32 32" version="1.1" xmlns="http://www.w3.org/2000/svg" xmlns:xlink="http://www.w3.org/1999/xlink">
    <!-- Generator: Sketch 50.2 (55047) - http://www.bohemiancoding.com/sketch -->
    <title>paraguay@1x</title>
    <desc>Created with Sketch.</desc>
    <defs></defs>
    <g id="flags" stroke="none" stroke-width="1" fill="none" fill-rule="evenodd">
        <g id="paraguay" fill-rule="nonzero">
            <circle id="Oval" fill="#F0F0F0" cx="16" cy="16" r="16"></circle>
            <path d="M16,0 C9.656625,0 4.175625,3.6915625 1.587625,9.0435 L30.4123125,9.0435 C27.824375,3.6915625 22.3433125,0 16,0 Z" id="Shape" fill="#D80027"></path>
            <path d="M16,32 C22.3433125,32 27.824375,28.3084375 30.412375,22.9565 L1.587625,22.9565 C4.175625,28.3084375 9.656625,32 16,32 Z" id="Shape" fill="#0052B4"></path>
            <path d="M19.9351875,11.3691875 L18.4595,12.844875 C19.0889375,13.4743125 19.4783125,14.343875 19.4783125,15.304375 C19.4783125,17.225375 17.921,18.782625 16.0000625,18.782625 C14.079125,18.782625 12.5218125,17.2253125 12.5218125,15.304375 C12.5218125,14.343875 12.9111875,13.4743125 13.540625,12.844875 L12.0649375,11.3691875 C11.05775,12.3761875 10.434875,13.7675 10.434875,15.304375 C10.434875,18.378 12.9265,20.8695625 16.0000625,20.8695625 C19.073625,20.8695625 21.56525,18.3779375 21.56525,15.304375 C21.5651875,13.7675 20.9423125,12.3761875 19.9351875,11.3691875 Z" id="Shape" fill="#6DA544"></path>
            <polygon id="Shape" fill="#FFDA44" points="16 13.217375 16.5180625 14.81175 18.194375 14.81175 16.8381875 15.797 17.35625 17.3913125 16 16.406 14.64375 17.3913125 15.1618125 15.797 13.805625 14.81175 15.4819375 14.81175"></polygon>
        </g>
    </g>
</svg>