<?xml version="1.0" encoding="UTF-8"?>
<svg width="32px" height="32px" viewBox="0 0 32 32" version="1.1" xmlns="http://www.w3.org/2000/svg" xmlns:xlink="http://www.w3.org/1999/xlink">
    <!-- Generator: Sketch 50.2 (55047) - http://www.bohemiancoding.com/sketch -->
    <title>philippines@1x</title>
    <desc>Created with Sketch.</desc>
    <defs></defs>
    <g id="flags" stroke="none" stroke-width="1" fill="none" fill-rule="evenodd">
        <g id="philippines" fill-rule="nonzero">
            <circle id="Oval" fill="#F0F0F0" cx="16" cy="16" r="16"></circle>
            <path d="M16,0 L16,16 L4.68625,27.31375 C7.5816875,30.209125 11.5816875,32 16,32 C24.8365,32 32,24.8365 32,16 C32,7.1635 16,0 16,0 Z" id="Shape" fill="#D80027"></path>
            <path d="M16,0 C11.5816875,0 7.5816875,1.790875 4.68625,4.68625 C8.611875,8.611875 10.0054375,10.0055 16,16 L32,16 C32,7.1635 24.8365,0 16,0 Z" id="Shape" fill="#0052B4"></path>
            <g id="Group" transform="translate(1.375000, 6.250000)" fill="#FFDA44">
                <polygon id="Shape" points="9.5806875 9.75 7.6266875 8.830875 8.66725 6.9384375 6.545375 7.344375 6.2765 5.2008125 4.7985 6.7773125 3.3205625 5.2008125 3.051625 7.344375 0.9298125 6.938375 1.970375 8.830875 0.0163125 9.75 1.970375 10.669125 0.9298125 12.5615625 3.0518125 12.1556875 3.3205 14.2991875 4.7985 12.7226875 6.2765 14.2991875 6.545375 12.1556875 8.667125 12.561625 7.626625 10.6691875"></polygon>
                <polygon id="Shape" points="2.8920625 0.010875 3.5423125 0.9198125 4.607625 0.582375 3.944 1.481625 4.59425 2.3905625 3.533875 2.037375 2.8703125 2.9365625 2.878625 1.8190625 1.8183125 1.4658125 2.8838125 1.128375"></polygon>
                <polygon id="Shape" points="2.8920625 16.5634375 3.5423125 17.472375 4.607625 17.134875 3.944 18.0341875 4.59425 18.943125 3.533875 18.5899375 2.8703125 19.489125 2.878625 18.371625 1.8183125 18.018375 2.8838125 17.6809375"></polygon>
                <polygon id="Shape" points="12.166625 8.2871875 11.5164375 9.196125 10.4510625 8.8585625 11.1146875 9.757875 10.4644375 10.666875 11.5248125 10.313625 12.1884375 11.2128125 12.1800625 10.095375 13.240375 9.742125 12.1749375 9.4046875"></polygon>
            </g>
        </g>
    </g>
</svg>