<?xml version="1.0" encoding="UTF-8"?>
<svg width="32px" height="32px" viewBox="0 0 32 32" version="1.1" xmlns="http://www.w3.org/2000/svg" xmlns:xlink="http://www.w3.org/1999/xlink">
    <!-- Generator: Sketch 50.2 (55047) - http://www.bohemiancoding.com/sketch -->
    <title>portugal@1x</title>
    <desc>Created with Sketch.</desc>
    <defs></defs>
    <g id="flags" stroke="none" stroke-width="1" fill="none" fill-rule="evenodd">
        <g id="portugal" fill-rule="nonzero">
            <path d="M0,16 C0,22.879375 4.342,28.7440625 10.4346875,31.00475 L11.8260625,15.9999375 L10.4346875,0.9951875 C4.342,3.2559375 0,9.1205625 0,16 Z" id="Shape" fill="#6DA544"></path>
            <path d="M32,16 C32,7.1635 24.8365,0 16,0 C14.042875,0 12.1680625,0.3520625 10.4346875,0.9951875 L10.4346875,31.0048125 C12.1680625,31.648 14.042875,32 16,32 C24.8365,32 32,24.8365 32,16 Z" id="Shape" fill="#D80027"></path>
            <circle id="Oval" fill="#FFDA44" cx="10.4348125" cy="16" r="5.5651875"></circle>
            <path d="M7.304375,13.217375 L7.304375,16.695625 C7.304375,18.4245 8.705875,19.8260625 10.4348125,19.8260625 C12.16375,19.8260625 13.56525,18.4245625 13.56525,16.695625 L13.56525,13.217375 L7.304375,13.217375 Z" id="Shape" fill="#D80027"></path>
            <path d="M10.4348125,17.739125 C9.8594375,17.739125 9.3913125,17.271 9.3913125,16.695625 L9.3913125,15.304375 L11.47825,15.304375 L11.47825,16.6956875 C11.47825,17.271 11.010125,17.739125 10.4348125,17.739125 Z" id="Shape" fill="#F0F0F0"></path>
        </g>
    </g>
</svg>