<?xml version="1.0" encoding="UTF-8"?>
<svg width="32px" height="32px" viewBox="0 0 32 32" version="1.1" xmlns="http://www.w3.org/2000/svg" xmlns:xlink="http://www.w3.org/1999/xlink">
    <!-- Generator: Sketch 50.2 (55047) - http://www.bohemiancoding.com/sketch -->
    <title>puerto-rico@1x</title>
    <desc>Created with Sketch.</desc>
    <defs></defs>
    <g id="flags" stroke="none" stroke-width="1" fill="none" fill-rule="evenodd">
        <g id="puerto-rico" fill-rule="nonzero">
            <circle id="Oval" fill="#F0F0F0" cx="16.0311891" cy="15.9688109" r="15.9688109"></circle>
            <g id="Group" transform="translate(0.062378, 0.000000)" fill="#D80027">
                <path d="M15.9688109,0 C10.7445146,0 6.10638596,2.50903704 3.19307602,6.38752437 L28.7445458,6.38752437 C25.8312359,2.50903704 21.1931072,0 15.9688109,0 Z" id="Shape"></path>
                <path d="M15.9688109,31.9376218 C21.1931072,31.9376218 25.8312359,29.4285848 28.7445458,25.5500975 L3.19307602,25.5500975 C6.10638596,29.4285848 10.7445146,31.9376218 15.9688109,31.9376218 Z" id="Shape"></path>
                <path d="M0,15.9688109 C0,17.0626121 0.1102846,18.1306511 0.319812865,19.1625731 L31.6179337,19.1625731 C31.827462,18.1306511 31.9376218,17.0626121 31.9376218,15.9688109 C31.9376218,14.8750097 31.8273372,13.8069708 31.6178713,12.7750487 L0.319812865,12.7750487 C0.1102846,13.8069708 0,14.8750097 0,15.9688109 Z" id="Shape"></path>
            </g>
            <path d="M4.73949318,4.67711501 C-1.49670175,10.9133099 -1.49670175,21.0242495 4.73949318,27.2605068 C7.31652242,24.6834776 9.79499415,22.2050058 16.0311891,15.9688109 L4.73949318,4.67711501 Z" id="Shape" fill="#0052B4"></path>
            <polygon id="Shape" fill="#F0F0F0" points="6.52538012 11.8030097 7.55929825 14.9852943 10.9056374 14.9852943 8.19854971 16.9522027 9.23240546 20.1346121 6.52538012 18.1677661 3.81823002 20.1346121 4.85233528 16.9522027 2.14524756 14.9852943 5.49133723 14.9852943"></polygon>
        </g>
    </g>
</svg>