<?xml version="1.0" encoding="UTF-8"?>
<svg width="32px" height="32px" viewBox="0 0 32 32" version="1.1" xmlns="http://www.w3.org/2000/svg" xmlns:xlink="http://www.w3.org/1999/xlink">
    <!-- Generator: Sketch 50.2 (55047) - http://www.bohemiancoding.com/sketch -->
    <title>reunion@1x</title>
    <desc>Created with Sketch.</desc>
    <defs>
        <circle id="path-1" cx="16" cy="16" r="16"></circle>
    </defs>
    <g id="flags" stroke="none" stroke-width="1" fill="none" fill-rule="evenodd">
        <g id="reunion">
            <mask id="mask-2" fill="white">
                <use xlink:href="#path-1"></use>
            </mask>
            <use id="Mask" fill="#D8D8D8" xlink:href="#path-1"></use>
            <g mask="url(#mask-2)">
                <g transform="translate(-12.000000, -4.000000)">
                    <path d="M54.7299459,3.46681081 C54.0888649,2.15448649 52.9943784,1.10475676 51.6504865,0.520432432 C50.8997838,0.194054054 50.0718919,0.012 49.2011892,0.012 L29.9819459,0.012 L25.3692973,0.012 L6.15016216,0.012 C5.27945946,0.012 4.45156757,0.194054054 3.70086486,0.520432432 C2.35697297,1.10486486 1.26248649,2.15448649 0.621405405,3.46681081 C0.223783784,4.28086486 0,5.19535135 0,6.16216216 L0,17.7416216 L0,22.3157838 L0,33.8378378 C0,35.6848649 0.815567568,37.3405405 2.10475676,38.4678919 C3.18627027,39.4136216 4.60086486,39.988 6.15016216,39.988 L49.2011892,39.988 C50.7505946,39.988 52.1650811,39.4137297 53.2465946,38.4678919 C54.5357838,37.3405405 55.3513514,35.6848649 55.3513514,33.8378378 L55.3513514,22.3157838 L55.3513514,17.7416216 L55.3513514,6.16216216 C55.3513514,5.19535135 55.1275676,4.28086486 54.7299459,3.46681081 Z" id="Shape" fill="#3366FF" fill-rule="nonzero"></path>
                    <g id="Group" stroke-width="1" fill="none" fill-rule="evenodd" transform="translate(2.054054, 20.000000)">
                        <path d="M25.6216216,0.0287567568 L25.5766486,0.0324324324 L0.0507027027,18.4678919 C1.13221622,19.4136216 2.54681081,19.988 4.09610811,19.988 L47.1471351,19.988 C48.6965405,19.988 50.111027,19.4137297 51.1925405,18.4678919 L25.6665946,0.0324324324 L25.6216216,0.0287567568 Z" id="Shape" fill="#FF0000" fill-rule="nonzero"></path>
                        <polygon id="Shape" fill="#FF0000" fill-rule="nonzero" points="25.7509459 0.133 25.9159459 0.119 25.7509459 0 25.5859459 0.119"></polygon>
                    </g>
                    <g id="Group" stroke-width="1" fill="none" fill-rule="evenodd">
                        <polygon id="Shape" fill="#FFFF00" fill-rule="nonzero" points="27.6756757 20.0287568 27.64 20.0257297 0 17.7416216 0 22.3157838 27.6307027 20.0324324"></polygon>
                        <polygon id="Shape" fill="#FFFF00" fill-rule="nonzero" points="27.6756757 20.0287568 27.7206486 20.0324324 55.3513514 22.3157838 55.3513514 17.7416216 27.7113514 20.0257297"></polygon>
                        <path d="M3.70086486,0.520432432 C2.35697297,1.10486486 1.26248649,2.15448649 0.621405405,3.46681081 L27.6756757,20 L3.70086486,0.520432432 Z" id="Shape" fill="#FFFF00" fill-rule="nonzero"></path>
                        <path d="M54.7299459,3.46681081 C54.0888649,2.15448649 52.9943784,1.10475676 51.6504865,0.520432432 L27.6756757,20 L54.7299459,3.46681081 Z" id="Shape" fill="#FFFF00" fill-rule="nonzero"></path>
                        <polygon id="Shape" fill="#FFFF00" fill-rule="nonzero" points="29.9819459 0.012 25.3694054 0.012 27.6756757 20"></polygon>
                    </g>
                </g>
            </g>
        </g>
    </g>
</svg>