<?xml version="1.0" encoding="UTF-8"?>
<svg width="32px" height="32px" viewBox="0 0 32 32" version="1.1" xmlns="http://www.w3.org/2000/svg" xmlns:xlink="http://www.w3.org/1999/xlink">
    <!-- Generator: Sketch 50.2 (55047) - http://www.bohemiancoding.com/sketch -->
    <title>romania@1x</title>
    <desc>Created with Sketch.</desc>
    <defs></defs>
    <g id="flags" stroke="none" stroke-width="1" fill="none" fill-rule="evenodd">
        <g id="romania" fill-rule="nonzero">
            <path d="M21.5651875,0.995125 C19.8318125,0.3520625 17.957125,0 16,0 C14.042875,-6.25e-05 12.168125,0.3520625 10.4348125,0.995125 L9.0435,15.9999375 L10.4348125,31.00475 C12.1680625,31.648 14.0428125,32 16,32 C17.9570625,32 19.831875,31.648 21.5651875,31.00475 L22.9564375,16 L21.5651875,0.995125 Z" id="Shape" fill="#FFDA44"></path>
            <path d="M32,16 C32,9.120625 27.658,3.2558125 21.5651875,0.9951875 L21.5651875,31.0049375 C27.658,28.7440625 31.9999375,22.8795 32,16 Z" id="Shape" fill="#D80027"></path>
            <path d="M0,15.9999375 C0,22.8795 4.342,28.7440625 10.43475,31.004875 L10.43475,0.99525 C4.342,3.255875 0,9.1205 0,15.9999375 Z" id="Shape" fill="#0052B4"></path>
        </g>
    </g>
</svg>