<?xml version="1.0" encoding="UTF-8"?>
<svg width="32px" height="32px" viewBox="0 0 32 32" version="1.1" xmlns="http://www.w3.org/2000/svg" xmlns:xlink="http://www.w3.org/1999/xlink">
    <!-- Generator: Sketch 50.2 (55047) - http://www.bohemiancoding.com/sketch -->
    <title>rwanda@1x</title>
    <desc>Created with Sketch.</desc>
    <defs></defs>
    <g id="flags" stroke="none" stroke-width="1" fill="none" fill-rule="evenodd">
        <g id="rwanda" fill-rule="nonzero">
            <path d="M0,16 C0,18.771875 0.7051875,21.379 1.9454375,23.6521875 L16,25.0435 L30.0545625,23.6521875 C31.2948125,21.379 32,18.771875 32,16 L16,14.6086875 L0,16 Z" id="Shape" fill="#FFDA44"></path>
            <path d="M30.0545625,8.3478125 C27.340875,3.3743125 22.0646875,0 16,0 C9.9353125,0 4.659125,3.3743125 1.9454375,8.3478125 C0.7051875,10.621 0,13.228125 0,16 L32,16 C32,13.228125 31.2948125,10.621 30.0545625,8.3478125 Z" id="Shape" fill="#338AF3"></path>
            <path d="M16,32 C22.0646875,32 27.340875,28.6256875 30.0545625,23.6521875 L1.9454375,23.6521875 C4.659125,28.6256875 9.9353125,32 16,32 Z" id="Shape" fill="#496E2D"></path>
            <polygon id="Shape" fill="#FFDA44" points="18.0869375 9.3638125 20.0410625 10.283 19.0005 12.1755 21.122375 11.769625 21.39125 13.9130625 22.869125 12.3365625 24.347125 13.9130625 24.6159375 11.769625 26.7378125 12.175375 25.6973125 10.2829375 27.6513125 9.3638125 25.69725 8.44475 26.7378125 6.55225 24.616 6.958125 24.3470625 4.8146875 22.869125 6.3911875 21.3911875 4.8146875 21.122375 6.958125 19.0004375 6.55225 20.041 8.4448125"></polygon>
        </g>
    </g>
</svg>