<?xml version="1.0" encoding="UTF-8"?>
<svg width="32px" height="32px" viewBox="0 0 32 32" version="1.1" xmlns="http://www.w3.org/2000/svg" xmlns:xlink="http://www.w3.org/1999/xlink">
    <!-- Generator: Sketch 50.2 (55047) - http://www.bohemiancoding.com/sketch -->
    <title>saint-kitts-and-nevis@1x</title>
    <desc>Created with Sketch.</desc>
    <defs></defs>
    <g id="flags" stroke="none" stroke-width="1" fill="none" fill-rule="evenodd">
        <g id="saint-kitts-and-nevis" fill-rule="nonzero">
            <circle id="Oval" fill="#FFDA44" cx="15.9999375" cy="15.9999375" r="15.9999375"></circle>
            <path d="M4.68625,27.3136875 C5.3574375,27.984875 6.073625,28.5835 6.8248125,29.1104375 L29.1103125,6.8249375 C28.583375,6.0736875 27.9848125,5.3575625 27.3135625,4.686375 C26.642375,4.0151875 25.92625,3.41675 25.1750625,2.8896875 L2.8896875,25.17525 C3.4165625,25.9264375 4.0150625,26.6425 4.68625,27.3136875 Z" id="Shape" fill="#000000"></path>
            <path d="M4.6863125,4.68625 C-0.361375,9.7339375 -1.3304375,17.31475 1.7773125,23.3360625 L23.3360625,1.777375 C17.31475,-1.3303125 9.7338125,-0.36125 4.6863125,4.68625 Z" id="Shape" fill="#6DA544"></path>
            <path d="M27.313625,27.3136875 C32.36125,22.266125 33.33025,14.6853125 30.2226875,8.663875 L8.66375,30.22275 C14.685125,33.330375 22.2659375,32.361375 27.313625,27.3136875 Z" id="Shape" fill="#D80027"></path>
            <g id="Group" transform="translate(9.687500, 9.687500)" fill="#F0F0F0">
                <polygon id="Shape" points="0.485625 9.188 1.97925 9.9490625 3.164625 8.76375 2.902375 10.4193125 4.3959375 11.1804375 2.74025 11.442625 2.478 13.0983125 1.717 11.6046875 0.061375 11.8669375 1.2466875 10.681625"></polygon>
                <polygon id="Shape" points="9.1879375 0.4856875 10.6815 1.24675 11.866875 0.0614375 11.6046875 1.717 13.09825 2.478125 11.4425625 2.740375 11.180375 4.396 10.4193125 2.9024375 8.7636875 3.164625 9.949 1.9793125"></polygon>
            </g>
        </g>
    </g>
</svg>