<?xml version="1.0" encoding="UTF-8"?>
<svg width="32px" height="32px" viewBox="0 0 32 32" version="1.1" xmlns="http://www.w3.org/2000/svg" xmlns:xlink="http://www.w3.org/1999/xlink">
    <!-- Generator: Sketch 50.2 (55047) - http://www.bohemiancoding.com/sketch -->
    <title>saint-vincent-and-the-grenadines@1x</title>
    <desc>Created with Sketch.</desc>
    <defs></defs>
    <g id="flags" stroke="none" stroke-width="1" fill="none" fill-rule="evenodd">
        <g id="saint-vincent-and-the-grenadines" fill-rule="nonzero">
            <path d="M0.000134736842,15.9556716 C0.000134736842,21.6298442 2.96535579,26.6095158 7.42804211,29.4379116 L7.42804211,2.47242105 C2.96535579,5.30135579 0.000134736842,10.2804884 0.000134736842,15.9556716 Z" id="Shape" fill="#2174BA"></path>
            <path d="M24.4830989,2.47242105 L24.4830989,29.4376421 C28.9460547,26.6092463 31.9110063,21.6298442 31.9110063,15.9554021 C31.9110063,10.2804884 28.9460547,5.30135579 24.4830989,2.47242105 Z" id="Shape" fill="#1C8C44"></path>
            <path d="M15.3121011,0.0398357895 C15.4786645,0.0288357895 15.6455376,0.0173357895 15.8121011,0.00983578947 C15.6446088,0.0173357895 15.4789741,0.0283357895 15.3121011,0.0398357895 Z" id="Shape" fill="#FBD015"></path>
            <path d="M15.9552674,0 C19.6123621,0 21.7496926,5.49611789 22.3717053,11.9258274 L22.5492884,14.8777095 C22.7568505,23.1981811 20.5600337,31.9108716 15.9552674,31.9108716 C19.0925474,31.9108716 22.0159326,31.0016674 24.4830989,29.4379116 L24.4830989,2.47242105 C22.016,0.908732632 19.0925474,0 15.9552674,0 Z" id="Shape" fill="#F3C715"></path>
            <path d="M15.8121684,31.9269937 C15.645605,31.9194937 15.4799703,31.9084937 15.3121684,31.8969937 C15.4799703,31.9084937 15.6452954,31.9194937 15.8121684,31.9269937 Z" id="Shape" fill="#FBD015"></path>
            <path d="M23.2897347,13.5598484 L22.3714358,11.9258274 C22.4651453,12.8937095 22.5243621,13.8828126 22.5490189,14.8777095 L23.2897347,13.5598484 Z" id="Shape" fill="#1C8C44"></path>
            <g id="Group" transform="translate(15.360000, 0.000000)" fill="#1A9647">
                <path d="M0.0609684211,0.073 C0.238551579,0.03 0.416471579,0 0.595334737,0 C0.418223158,0 0.240101053,0.03 0.0609684211,0.073 Z" id="Shape"></path>
                <path d="M0.595334737,31.9740358 C0.416471579,31.9740358 0.238618947,31.9440358 0.0609684211,31.9010358 C0.240101053,31.9440358 0.418223158,31.9740358 0.595334737,31.9740358 Z" id="Shape"></path>
            </g>
            <path d="M22.5492884,14.8777095 L19.8843958,19.6210526 L16.4795958,13.5599158 L19.8843958,7.49824 L22.3717053,11.9256253 C21.7496926,5.49611789 19.6122947,0 15.9553347,0 C15.7764716,0 15.5986189,0.00404210526 15.4209684,0.00983578947 C15.3847242,0.0108463158 15.3484126,0.0123284211 15.3121684,0.0138778947 C12.4190316,0.129010526 9.72564211,1.01632 7.42804211,2.47269053 L7.42804211,29.4379116 C9.72564211,30.8942821 12.4190316,31.7821305 15.3121684,31.8972632 C15.3486821,31.8987453 15.3847242,31.9002947 15.4209684,31.9013053 C15.5985516,31.9070989 15.7764716,31.9111411 15.9553347,31.9111411 C20.5598316,31.9108716 22.7569179,23.1981137 22.5492884,14.8777095 Z" id="Shape" fill="#FFD52B"></path>
            <g id="Group" transform="translate(8.623158, 7.477895)" fill="#1A9647">
                <path d="M7.85643789,6.08195368 L11.2612379,12.1430905 L13.9261305,7.39974737 C13.9014737,6.40485053 13.8422568,5.41581474 13.7485474,4.44786526 L11.2612379,0.02048 L7.85643789,6.08195368 Z" id="Shape"></path>
                <polygon id="Shape" points="3.45674105 0.0205473684 0.0514021053 6.08195368 3.45674105 12.1430905 6.86127158 6.08195368"></polygon>
                <polygon id="Shape" points="7.38681263 6.66314105 3.98174316 12.7238063 7.38681263 18.7852126 10.7916126 12.7238063"></polygon>
            </g>
        </g>
    </g>
</svg>