<?xml version="1.0" encoding="UTF-8"?>
<svg width="32px" height="32px" viewBox="0 0 32 32" version="1.1" xmlns="http://www.w3.org/2000/svg" xmlns:xlink="http://www.w3.org/1999/xlink">
    <!-- Generator: Sketch 50.2 (55047) - http://www.bohemiancoding.com/sketch -->
    <title>saint-pierre-and-miquelon@1x</title>
    <desc>Created with Sketch.</desc>
    <defs>
        <circle id="path-1" cx="16" cy="16" r="16"></circle>
    </defs>
    <g id="flags" stroke="none" stroke-width="1" fill="none" fill-rule="evenodd">
        <g id="saint-pierre-and-miquelon">
            <mask id="mask-2" fill="white">
                <use xlink:href="#path-1"></use>
            </mask>
            <use id="Mask" fill="#D8D8D8" xlink:href="#path-1"></use>
            <g mask="url(#mask-2)" id="Group">
                <g transform="translate(-15.000000, -2.000000)">
                    <g transform="translate(25.500000, 18.000000) scale(-1, 1) rotate(-180.000000) translate(-25.500000, -18.000000) ">
                        <path d="M44.1232483,35.819879 L5.51539089,35.819879 C2.46957077,35.819879 0,33.3547984 0,30.3145161 L0,5.54032258 C0,2.50004032 2.46957077,0.0349596774 5.51539089,0.0349596774 L44.1232483,0.0349596774 C47.1690684,0.0349596774 49.6386392,2.50004032 49.6386392,5.54032258 L49.6386392,30.3145161 C49.6386392,33.3547984 47.1690684,35.819879 44.1232483,35.819879 Z" id="Shape" fill="#0092C8" fill-rule="nonzero"></path>
                        <g transform="translate(1.454257, 0.000000)" fill-rule="nonzero" id="Shape">
                            <path d="M30.6039904,13.5833468 C29.2320201,13.5833468 28.1000022,13.7677016 27.1513419,14.0527016 L27.8572625,16.4943145 C27.9951745,16.4722984 28.1261788,16.4640726 28.2777851,16.4228226 C30.4674114,15.821371 32.8073109,13.7334677 32.8196721,13.7224597 C32.1525317,13.6342742 31.4189803,13.5833468 30.6039904,13.5833468 M45.0819672,23.8191532 C43.4453221,24.3793548 41.592114,24.4646371 41.592114,24.4646371 L40.3855654,22.09875 C40.3855654,22.09875 43.9623105,22.0244758 43.9623105,21.8041935 C43.9623105,21.6514113 43.1487749,20.3067339 42.6400273,19.4795565 C42.3780187,19.5593952 42.0595364,19.604879 41.6775516,19.604879 C40.1263441,19.604879 39.5237969,19.2608468 38.8770161,18.3152419 C38.2303565,17.3683065 38.8770161,16.9815726 38.8770161,16.9815726 C38.8770161,16.9815726 38.077296,15.2102419 35.082496,14.2261694 L36.065695,17.6161694 C37.1866847,17.8034274 38.1450401,17.2391129 38.1450401,17.2391129 C38.1450401,17.2391129 37.4114886,19.3904032 38.3173696,22.6151613 C39.2219174,25.84125 42.5835537,28.2498387 42.5835537,28.2498387 L38.8247841,27.1418952 L39.7816852,30.4437097 C39.7816852,30.4437097 40.2560153,31.4759274 39.7816852,31.777379 C39.474231,31.9727419 39.3129297,31.5544355 39.2370659,31.23375 C38.9061013,31.327379 38.331185,31.4126613 37.7134893,31.1318952 C36.7662833,30.7024597 34.568295,31.3231452 34.568295,31.3231452 C34.568295,31.3231452 35.4300635,30.3583065 36.0767231,30.1862903 C35.3872841,29.8422581 34.0511854,29.9702419 34.0511854,29.9702419 C34.0511854,29.9702419 35.6892848,29.0247581 36.7867641,29.3687903 C37.5175282,29.5972984 38.3241561,29.6165323 38.7887912,29.6041935 C38.5805901,28.905 38.3034329,27.9705242 37.9849506,26.8928226 L34.5681738,25.8854032 C34.5681738,25.8854032 33.0169663,24.6371371 32.4998568,20.9814919 C31.9827472,17.3258468 33.8359554,14.6159274 33.8359554,14.6159274 C33.8359554,14.6159274 33.6414485,16.3818145 35.1238212,17.2543548 C34.7225674,15.9013306 34.3806958,14.7480242 34.1503173,13.964879 C33.7380354,13.8685887 33.3023643,13.7845161 32.8211264,13.7225806 C32.8115525,13.747379 31.0368742,17.7235887 31.3360876,21.0667742 C31.6379671,24.4222984 34.5680526,27.8494355 34.5680526,27.8494355 L30.7334193,26.4579435 L32.0820003,31.1320161 C32.0820003,31.1320161 32.9299533,31.6908871 32.1977349,32.0349194 C31.4655165,32.3789516 31.6075489,31.2779032 31.6075489,31.2779032 C31.2670104,31.3439516 30.7857725,31.3646371 30.2727834,31.1320161 C29.324123,30.7025806 27.127589,31.3232661 27.127589,31.3232661 C27.127589,31.3232661 27.9893575,30.3584274 28.634684,30.1864113 C27.945245,29.842379 26.6104795,29.9703629 26.6104795,29.9703629 C26.6104795,29.9703629 28.2471245,29.024879 29.3460581,29.3689113 C30.054766,29.5905242 30.6918518,29.6235484 31.0572338,29.6181048 L29.9127336,26.1607258 L26.4242134,24.8958871 C26.4242134,24.8958871 25.820212,24.0356855 24.5711264,21.5403629 C23.3217984,19.0464919 25.0882359,15.476129 25.0882359,15.476129 C25.0882359,15.476129 25.6094659,16.2661694 26.7125198,16.4918952 L26.0423497,14.4700403 C23.2750198,15.7389919 22.67526,17.928871 22.67526,17.928871 C22.67526,17.928871 23.1495902,18.0141532 23.1495902,18.5303226 C23.1495902,19.0272581 22.9358144,19.2818952 21.5004627,19.301129 L21.8493632,20.5398387 C22.4752997,20.1710081 22.9344813,19.6053629 22.9344813,19.6053629 C22.9344813,19.6053629 22.3304799,21.8419355 23.5798079,24.0785081 C24.8303477,26.3150806 27.7591001,28.2502016 27.8887714,28.2502016 C27.9577274,28.2502016 25.7488322,27.6239516 23.6763948,27.0390726 L24.5422836,30.1179435 C24.5422836,30.1179435 25.1737947,31.0469758 24.4856888,31.2616935 C23.7962498,31.4764113 23.9079852,30.288629 23.9079852,30.288629 L23.9079852,30.2871774 C23.5839283,30.3284274 23.1688591,30.3160887 22.7318548,30.1178226 C21.7846488,29.6870565 19.5866605,30.3077419 19.5866605,30.3077419 C19.5866605,30.3077419 20.448429,29.3429032 21.0950886,29.1708871 C20.4056496,28.8268548 19.0695509,28.9561694 19.0695509,28.9561694 C19.0695509,28.9561694 20.706196,28.0092339 21.8051296,28.3532661 C22.4407611,28.5528629 23.030947,28.5982258 23.4198396,28.6024597 L22.9055174,26.8227823 C21.4204786,26.4043548 20.1768465,26.0575403 20.1768465,26.0575403 C20.1768465,26.0575403 19.6156244,25.1973387 18.9689648,23.1314516 C18.3236383,21.0668952 19.443295,19.3905242 19.443295,19.3905242 C19.443295,19.3905242 19.7879539,20.8521774 20.8662855,20.8521774 C20.9683258,20.8521774 21.0675789,20.8329435 21.1669531,20.8122581 L20.7257073,19.2831048 C19.6942755,19.2088306 19.530308,18.9266129 19.530308,18.4875 C19.530308,17.9713306 20.090197,17.9272984 20.090197,17.9272984 C20.090197,17.9272984 19.9606469,17.0243952 20.3053058,15.9054435 C20.6499647,14.7878226 19.8750881,15.0025403 18.5817689,15.6481452 C18.4976644,15.6893952 18.4135598,15.7128629 18.3281222,15.7431048 L18.3364842,15.7514516 L15.0920368,17.1966532 C15.0920368,17.1966532 14.4025978,18.1861694 14.0579389,17.4979839 C13.71328,16.8097984 14.8328155,16.6515726 14.8328155,16.6515726 L16.6928102,15.7156452 C16.3300943,15.5270565 16.1495241,15.2242742 16.3412436,14.917379 C16.7727944,14.2291935 17.7201216,14.917379 19.6601005,13.0249597 C20.916215,11.7972581 25.0459413,7.26084677 31.2065375,7.26084677 L38.1876983,7.26084677 C43.6176516,7.26084677 42.7985413,11.9060081 40.0835647,12.9822581 C42.1518817,14.8307661 42.2814318,16.9819355 42.2814318,16.9819355 C42.2814318,16.9819355 42.8413207,16.9819355 43.3155297,17.928871 C43.5526948,18.4023387 43.5306386,18.8220968 43.2549357,19.1235484 C43.9126234,20.4008468 45.5342411,23.5347581 45.9437357,24.2504032 C46.4608452,25.1528226 45.9437357,25.5835887 45.0819672,23.8191532" fill="#FFCC4D"></path>
                            <path d="M46.3739534,11.002379 C45.2970761,11.7772984 44.3056363,11.5185484 44.0905275,10.7684274 C43.8754186,10.0183065 42.8839789,10.3582258 41.8071016,11.1316935 C40.7302243,11.9051613 39.9966728,11.7771774 39.781564,10.9169758 C39.5664551,10.0567742 38.3599066,10.1420565 37.239038,10.9596774 C36.1193813,11.7771774 34.9983915,11.1743952 34.5681738,10.5604839 C34.1379561,9.94657258 33.7932972,9.8846371 32.4088445,10.7448387 C31.024513,11.6050403 30.0441014,11.088871 29.6566631,10.3581048 C29.2678918,9.6258871 28.7080028,9.79790323 27.5442337,10.5907258 C26.3817975,11.384879 25.3035872,11.0889919 24.7436982,10.5907258 C24.1838093,10.0937903 23.4075996,9.92733871 22.3735017,10.5907258 C21.3394038,11.2555645 20.5204147,11.2169758 20.0033051,10.6856855 C19.4861956,10.1530645 18.8836484,9.36858871 17.2470033,10.6360887 C15.608904,11.9037097 14.7471356,10.8302419 13.9281465,10.271371 C13.1091574,9.7125 12.3341596,11.1315726 12.3341596,11.1315726 L12.3341596,0.925524194 L45.6951789,0.925524194 C47.1940331,1.89701613 48.184261,3.61572581 48.184261,5.54032258 L48.184261,10.5729435 C48.1843822,10.5729435 47.4521638,10.2287903 46.3739534,11.002379 Z" fill="#000000"></path>
                            <path d="M46.3739534,10.0991129 C45.2970761,10.8740323 44.3056363,10.6152823 44.0905275,9.86516129 C43.8754186,9.11504032 42.8839789,9.45495968 41.8071016,10.2284274 C40.7302243,11.0018952 39.9966728,10.8739113 39.781564,10.0137097 C39.5664551,9.15350806 38.3599066,9.23879032 37.239038,10.0564113 C36.1193813,10.8739113 34.9983915,10.271129 34.5681738,9.65721774 C34.1379561,9.04330645 33.7932972,8.98137097 32.4088445,9.84157258 C31.024513,10.7017742 30.0441014,10.1856048 29.6566631,9.45483871 C29.2678918,8.72262097 28.7080028,8.8946371 27.5442337,9.68745968 C26.3817975,10.4816129 25.3035872,10.1857258 24.7436982,9.68745968 C24.1838093,9.19052419 23.4075996,9.02407258 22.3735017,9.68745968 C21.3394038,10.3522984 20.5204147,10.3137097 20.0033051,9.78241935 C19.4861956,9.24979839 18.8836484,8.46532258 17.2470033,9.73282258 C15.608904,11.0004435 14.7471356,9.92697581 13.9281465,9.36810484 C13.1091574,8.80923387 12.3341596,10.2283065 12.3341596,10.2283065 L12.3341596,0.0350806452 L42.679777,0.0350806452 C45.7205072,0.0350806452 48.184261,2.50379032 48.184261,5.54044355 L48.184261,9.66979839 C48.1843822,9.66967742 47.4521638,9.32552419 46.3739534,10.0991129 Z" fill="#BBDDF5"></path>
                            <path d="M46.3739534,9.23879032 C45.2970761,10.0137097 44.3056363,9.75495968 44.0905275,9.00483871 C43.8754186,8.25471774 42.8839789,8.5946371 41.8071016,9.36810484 C40.7302243,10.1415726 39.9966728,10.0135887 39.781564,9.1533871 C39.5664551,8.29318548 38.3599066,8.37846774 37.239038,9.19608871 C36.1193813,10.0135887 34.9983915,9.41080645 34.5681738,8.79689516 C34.1379561,8.18298387 33.7932972,8.12104839 32.4088445,8.98125 C31.024513,9.84145161 30.0441014,9.32528226 29.6566631,8.59451613 C29.2678918,7.86229839 28.7080028,8.03431452 27.5442337,8.8271371 C26.3817975,9.62129032 25.3035872,9.32540323 24.7436982,8.8271371 C24.1838093,8.33020161 23.4075996,8.16375 22.3735017,8.8271371 C21.3394038,9.49197581 20.5204147,9.4533871 20.0033051,8.92209677 C19.4861956,8.38947581 18.8836484,7.605 17.2470033,8.8725 C15.608904,10.140121 14.7471356,9.06665323 13.9281465,8.50778226 C13.1091574,7.94891129 12.3341596,9.36798387 12.3341596,9.36798387 L12.3341596,0.0349596774 L42.679777,0.0349596774 C45.7205072,0.0349596774 48.184261,2.50366935 48.184261,5.54032258 L48.184261,8.80947581 C48.1843822,8.80947581 47.4521638,8.46532258 46.3739534,9.23879032 Z" fill="#0091C8"></path>
                            <g transform="translate(14.057818, 1.693548)" fill="#BBDDF5">
                                <path d="M1.24957033,5.26584677 C1.98033448,6.09302419 3.10265732,5.99673387 3.96454698,5.26584677 C4.82631544,4.53495968 5.21387493,5.0883871 6.032864,5.56451613 C6.85052001,6.03931452 8.01428918,6.06955645 8.27351049,5.38826613 C8.53127754,4.70697581 7.19530011,5.63455645 6.3776441,4.91201613 C5.55865503,4.19080645 4.23213027,3.97608871 3.27522916,4.91201613 C2.31687379,5.84806452 0.602910717,4.53508065 1.24957033,5.26584677"></path>
                                <path d="M10.8578464,5.10072581 C11.6452054,4.83375 12.7109334,4.74979839 13.6583818,5.35258065 C14.6070421,5.95403226 15.2964811,5.67181452 16.3305791,4.84475806 C17.364677,4.01891129 18.1395536,4.29568548 19.0883351,4.84475806 C20.0355412,5.39528226 20.811872,6.08346774 22.1479707,5.48056452 C23.4827362,4.8791129 24.1293958,4.81717742 24.6463842,5.01943548 C25.1634937,5.22314516 24.6463842,4.32024194 23.354398,4.53495968 C22.0609576,4.74967742 21.1565309,5.56717742 19.9927618,4.79225806 C18.8289926,4.01879032 17.3205645,3.29479839 16.1154702,4.32435484 C14.9089216,5.35245968 14.2623832,5.20935484 13.5287106,4.76479839 C12.7964922,4.32024194 11.9775031,4.27620968 11.5472854,4.49225806 C11.1156134,4.70709677 10.2235479,5.31544355 10.8578464,5.10072581"></path>
                                <path d="M27.4482527,5.10072581 C27.9474264,4.79939516 28.4823506,4.72076613 28.9994602,5.10072581 C29.5165697,5.48068548 30.0335581,5.17221774 30.6802177,4.81028226 C31.3268773,4.44822581 31.4550943,4.04225806 30.6802177,4.28866935 C29.9038868,4.53495968 29.6020073,5.08282258 28.9994602,4.74423387 C28.3954588,4.40564516 27.7501322,4.30923387 27.4482527,4.74423387 C27.146252,5.18056452 27.0746298,5.32645161 27.4482527,5.10072581"></path>
                                <path d="M5.25665433,3.07258065 C5.96536224,3.44830645 7.10974132,3.97548387 7.92751851,3.07258065 C8.74650758,2.16967742 9.13540014,2.64314516 9.7806055,3.07258065 C10.4272651,3.50201613 10.9871541,4.01806452 11.9784726,3.37391129 C12.9697911,2.72842742 13.4427882,2.90600806 13.8315596,3.11782258 C14.2189979,3.32975806 14.563778,3.20177419 13.8315596,2.77100806 C13.0980081,2.34157258 12.3657897,2.38427419 11.8060219,2.81504032 C11.246133,3.24447581 10.771924,3.45919355 10.0397056,2.72830645 C9.30748722,1.99741935 8.35894809,1.78004032 7.66950908,2.46822581 C6.98007007,3.1578629 6.76496122,3.21556452 6.07552221,2.8646371 C5.38620439,2.51383065 4.54649216,2.69697581 5.25665433,3.07258065"></path>
                                <path d="M18.4421602,2.86415323 C19.3093822,3.32104839 20.4676979,4.10431452 21.4150251,3.20141129 C22.3636854,2.29850806 22.9234532,2.72237903 23.6997841,3.24133065 C24.4746607,3.76016129 25.2068791,4.51028226 26.3278689,3.61983871 C27.4475256,2.72794355 28.179744,2.81467742 28.7408448,3.07197581 C29.3007337,3.33072581 29.0415124,2.83524194 28.3520734,2.67423387 C27.6626344,2.51322581 26.7154283,2.51322581 26.0686475,3.07197581 C25.4219879,3.63217742 24.8193196,3.60181452 24.1300018,2.86415323 C23.4405628,2.12637097 21.7170258,1.91866935 21.0703662,2.58205645 C20.4237066,3.2441129 19.6060506,2.85737903 19.0020492,2.59995968 C18.3993808,2.34120968 17.5761502,2.40725806 18.4421602,2.86415323"></path>
                                <path d="M0.344658911,2.18141129 C0.860314208,2.65487903 1.55120747,2.47040323 2.41297594,1.61020161 C3.2747444,0.75 3.6623039,0.922016129 4.43851357,1.35290323 C5.21339018,1.78233871 6.2474881,1.86907258 6.67916006,1.39560484 C7.10937775,0.922137097 6.93692711,0.772137097 6.41993874,0.997862903 C5.90282919,1.22358871 5.4064428,1.35302419 4.70742993,0.750120968 C4.00696281,0.148669355 2.75775604,0.019233871 2.15387582,0.750120968 C1.55132866,1.48100806 1.20666975,1.91177419 0.732218403,1.7396371 C0.259221311,1.5675 -0.344658911,1.54826613 0.344658911,2.18141129"></path>
                                <path d="M12.2808369,1.3428629 C12.7826767,1.88104839 13.7892649,2.32282258 14.7792504,1.3428629 C15.7705689,0.362903226 15.9430196,0.492217742 16.7192292,1.0083871 C17.4941059,1.52455645 18.3986537,2.11633065 19.347314,1.23967742 C20.2945201,0.363024194 20.6834127,0.535040323 21.5010687,1.0083871 C22.3200577,1.48185484 23.0522761,1.90028226 23.9581571,1.23967742 C24.8627049,0.577620968 25.5521439,0.405604839 26.3283536,0.879072581 C27.1032302,1.35254032 27.2742266,1.14193548 26.5434625,0.535040323 C25.939461,0.0354435484 24.8447691,-0.153145161 24.0877071,0.577741935 C23.1377137,1.49298387 22.5350454,1.22322581 21.7601688,0.664475806 C20.9838379,0.105604839 19.7774105,-0.0237096774 19.0879715,0.707177419 C18.3985325,1.43806452 17.9255354,1.22334677 17.278997,0.707177419 C16.6323374,0.191008065 15.5223757,-0.336169355 14.736471,0.749879032 C13.9518993,1.83580645 13.1852635,1.35278226 12.7978252,1.13794355 C12.4105081,0.921653226 11.5487396,0.559596774 12.2808369,1.3428629"></path>
                            </g>
                        </g>
                    </g>
                </g>
            </g>
        </g>
    </g>
</svg>