<?xml version="1.0" encoding="UTF-8"?>
<svg width="32px" height="32px" viewBox="0 0 32 32" version="1.1" xmlns="http://www.w3.org/2000/svg" xmlns:xlink="http://www.w3.org/1999/xlink">
    <!-- Generator: Sketch 50.2 (55047) - http://www.bohemiancoding.com/sketch -->
    <title>saint-lucia@1x</title>
    <desc>Created with Sketch.</desc>
    <defs></defs>
    <g id="flags" stroke="none" stroke-width="1" fill="none" fill-rule="evenodd">
        <g id="saint-lucia" fill-rule="nonzero">
            <g id="Group" transform="translate(15.898947, 0.000000)" fill="#5CB1E3">
                <path d="M3.69461895,29.0206989 C2.66624,30.8106779 1.69175579,31.9110737 0.0565221053,31.9110737 C3.75814737,31.9110737 7.16220632,30.6473768 9.86913684,28.5322105 C9.65800421,28.6974653 9.44289684,28.8574653 9.22320842,29.0114021 L3.69461895,29.0206989 Z" id="Shape"></path>
                <path d="M10.4960674,28.0165053 C10.2945011,28.1911242 10.0884211,28.3604211 9.87836632,28.5254063 C10.0886905,28.3604211 10.2945011,28.1911242 10.4960674,28.0165053 Z" id="Shape"></path>
                <path d="M15.9472421,19.6457095 C15.7899012,19.8193179 15.6246035,19.9921179 15.4472421,20.1634358 C15.6246035,19.9921179 15.7899012,19.81952 15.9472421,19.6457095 Z" id="Shape"></path>
                <path d="M16.1642779,15.9559411 C16.1642779,16.2451537 16.1027779,16.5326147 15.9882779,16.8180547 C16.1027779,16.5326147 16.1642779,16.2451537 16.1642779,15.9559411 Z" id="Shape"></path>
                <path d="M15.0629642,21.9868968 C14.9043165,22.1929768 14.7371855,22.3962947 14.5629642,22.5980632 C14.7371855,22.3962274 14.9046963,22.1931789 15.0629642,21.9868968 Z" id="Shape"></path>
                <path d="M15.4091032,21.2257684 C15.2504758,21.4131874 15.0840789,21.5991242 14.9091032,21.7837811 C15.0834314,21.5991242 15.2511232,21.4137263 15.4091032,21.2257684 Z" id="Shape"></path>
                <path d="M16.2800905,17.0896168 C16.1770905,17.28384 16.0725905,17.4778611 15.9190905,17.6697937 C16.0720905,17.4778611 16.1790905,17.28384 16.2800905,17.0896168 Z" id="Shape"></path>
                <path d="M14.5037474,22.7295663 C13.5481937,24.7611284 12.1771789,26.5596632 10.4990989,28.0138105 C12.1771789,26.5591242 13.5489347,24.7626105 14.5037474,22.7295663 Z" id="Shape"></path>
                <path d="M16.3059116,17.98016 C16.1521707,18.1577432 15.998886,18.3353937 15.8059116,18.5109558 C15.998886,18.3353937 16.1553641,18.1578105 16.3059116,17.98016 Z" id="Shape"></path>
                <path d="M16.1485389,18.8261726 C15.993183,18.9989726 15.8325043,19.1710316 15.6485389,19.3418779 C15.829843,19.1710316 15.9928503,18.9987032 16.1485389,18.8261726 Z" id="Shape"></path>
                <path d="M15.7015495,20.4448337 C15.5442963,20.6229558 15.3762752,20.8000674 15.2015495,20.9756295 C15.3770879,20.8002695 15.5442963,20.6234274 15.7015495,20.4448337 Z" id="Shape"></path>
                <path d="M16.1667937,18.5112253 C16.0397937,18.6792826 15.8902937,18.8448795 15.7497937,19.0112253 C15.8882937,18.8448795 16.0377937,18.6792826 16.1667937,18.5112253 Z" id="Shape"></path>
                <path d="M15.6171368,20.9758989 C15.4543276,21.1432844 15.288725,21.3095917 15.1171368,21.4758989 C15.2891241,21.3094569 15.4531305,21.1431496 15.6171368,20.9758989 Z" id="Shape"></path>
                <path d="M15.8676126,20.1633684 C15.7064451,20.3311922 15.5368174,20.4973402 15.3676126,20.6633684 C15.5397785,20.4973402 15.7060221,20.3313119 15.8676126,20.1633684 Z" id="Shape"></path>
                <path d="M16.0786779,19.3416084 C15.9232725,19.5089766 15.7466316,19.6759017 15.5786779,19.8416084 C15.7504926,19.6759017 15.9237551,19.5094197 16.0786779,19.3416084 Z" id="Shape"></path>
                <path d="M15.3292716,21.7837811 C15.1634488,21.9511104 15.0010015,22.1177771 14.8292716,22.2837811 C15.0010015,22.1177771 15.161761,21.9504477 15.3292716,21.7837811 Z" id="Shape"></path>
                <path d="M14.9434495,22.5980632 C14.7959495,22.7651576 14.6554495,22.9340488 14.5039495,23.0980632 C14.6534495,22.9340488 14.7934495,22.7649009 14.9434495,22.5980632 Z" id="Shape"></path>
                <path d="M10.4978189,28.0245411 L10.5088189,28.0135411 L10.4978189,28.0245411 Z" id="Shape"></path>
                <path d="M16.1713147,17.6697937 C16.0908147,17.8377989 15.9768147,18.0034164 15.8798147,18.1697937 C15.9768147,18.0034164 16.0908147,17.8377989 16.1713147,17.6697937 Z" id="Shape"></path>
                <path d="M16.1211632,16.8180547 C16.0836632,16.985507 16.0146632,17.1515948 15.9676632,17.3180547 C16.0166632,17.1514708 16.0856632,16.985507 16.1211632,16.8180547 Z" id="Shape"></path>
                <path d="M14.5037474,22.7295663 C14.52416,22.6862484 14.5430232,22.64192 14.5629642,22.5983326 C14.6553937,22.3965642 14.7445895,22.1935158 14.8290021,21.9871663 C14.8564884,21.9196632 14.8824253,21.8518905 14.9088337,21.7838484 C14.9816589,21.5994611 15.0509137,21.4132547 15.1169347,21.2258358 C15.1459032,21.1427032 15.1741305,21.0595705 15.2013474,20.9758989 C15.2592842,20.8003368 15.3149979,20.6232253 15.3671411,20.4451032 C15.3940884,20.3516632 15.4213053,20.2581558 15.4467705,20.1637053 C15.4936589,19.9923874 15.5367074,19.8198568 15.5780042,19.6459789 C15.6017179,19.5451958 15.6261053,19.4436716 15.6477979,19.3418779 C15.6850526,19.1710989 15.7175916,18.9989726 15.7490526,18.8261726 C15.7677137,18.7213474 15.7878568,18.6170611 15.8052379,18.5112926 C15.8337347,18.3357305 15.8563705,18.15808 15.8790737,17.9804968 C15.8924126,17.8772211 15.9075705,17.7744168 15.9183495,17.6701305 C15.9390316,17.4781305 15.9533811,17.2844463 15.9669895,17.0899537 C15.9732547,16.9994779 15.9828884,16.9093389 15.9876716,16.8183916 C16.0030316,16.5329516 16.0113853,16.24576 16.0113853,15.9562779 C16.0113853,7.14381474 8.86790737,0.000606315789 0.0559831579,0.000606315789 C4.79023158,0.000606315789 6.08336842,8.97354105 5.73042526,17.4978695 L10.4971453,28.0154274 C10.4976168,28.0149558 10.4981558,28.0144168 10.4986274,28.0139453 C12.1771789,26.5596632 13.5481263,24.7611284 14.5037474,22.7295663 Z" id="Shape"></path>
            </g>
            <g id="Group" transform="translate(25.734737, 27.957895)" fill="#F8FBFB">
                <path d="M0.100914737,0.567511579 C0.0784147368,0.582511579 0.0579147368,0.601011579 0.0334147368,0.618011579 C0.0564147368,0.599511579 0.0784147368,0.581011579 0.100914737,0.567511579 Z" id="Shape"></path>
                <polygon id="Shape" points="0.660277895 0.0681284211 0.673277895 0.0571284211 0.673277895 0.0571284211"></polygon>
            </g>
            <path d="M22.1200168,16.5640758 C22.0777095,17.5909053 21.99808,18.6074947 21.8819368,19.5970695 L25.3250695,28.8342905 L24.9723958,28.8342905 L25.1222905,29.0114021 C25.3419789,28.8574653 25.5573558,28.6974653 25.7682189,28.5322105 C25.77152,28.5297179 25.7742821,28.5271579 25.7773137,28.5254063 C25.9874358,28.3606232 26.1935158,28.1913263 26.3950147,28.0165053 C26.3957558,28.0160337 26.3962947,28.0154947 26.3967663,28.0150232 L22.1200168,16.5640758 Z" id="Shape" fill="#E4E4E4"></path>
            <path d="M24.9723284,28.8342905 L25.3250021,28.8342905 L22.0499537,20.1639074 C21.9106358,21.3497263 21.7284716,22.7605558 21.4831158,23.8380463 L24.9723284,28.8342905 Z" id="Shape" fill="#0B0B0B"></path>
            <path d="M19.6356716,29.0206989 L25.1219537,29.0114021 L24.9720589,28.8342905 L21.4828463,23.8380463 C21.0563368,25.7131789 20.3833937,27.7192758 19.6356716,29.0206989 Z" id="Shape" fill="#F8D12E"></path>
            <g id="Group" transform="translate(0.000000, 15.898947)" fill="#FFFFFF">
                <path d="M4.35348211,11.0030821 C3.20370526,9.78526316 2.24309895,8.38682947 1.51956211,6.85453474 C2.24256,8.38730105 3.20343579,9.78526316 4.35348211,11.0030821 Z" id="Shape"></path>
                <path d="M6.19331368,12.6726063 C5.98420211,12.5105853 5.77886316,12.3433095 5.57837474,12.1707789 C5.77886316,12.34304 5.98393263,12.5108547 6.19331368,12.6726063 Z" id="Shape"></path>
                <path d="M5.57655579,12.1697684 C5.36596211,11.9891537 5.16035368,11.8026779 4.95932632,11.6117558 C5.16042105,11.8026779 5.36569263,11.9890863 5.57655579,12.1697684 Z" id="Shape"></path>
                <path d="M1.69201684,6.75954526 C1.5172653,6.54538105 1.35044088,6.32899368 1.19201684,6.11004632 C1.34996762,6.32899368 1.51762025,6.54565053 1.69201684,6.75954526 Z" id="Shape"></path>
                <path d="M4.94571789,11.5986189 C4.74691368,11.4091789 4.55343158,11.2149558 4.36500211,11.01568 C4.55376842,11.2151579 4.74698105,11.4091789 4.94571789,11.5986189 Z" id="Shape"></path>
                <path d="M0.764892632,3.456 C0.582384381,3.28468211 0.420668209,3.11161263 0.264892632,2.93827368 C0.419348077,3.11161263 0.580734216,3.28448 0.764892632,3.456 Z" id="Shape"></path>
                <path d="M0.406204211,1.77664 C0.252704211,1.58416842 0.146204211,1.38994526 0.0452042105,1.19545263 C0.146204211,1.38994526 0.252704211,1.58443789 0.406204211,1.77664 Z" id="Shape"></path>
                <path d="M0.179634737,0.922138947 C0.0656347368,0.635688421 0.000134736842,0.347486316 0.000134736842,0.0569936842 C0.00213473684,0.347216842 0.0671347368,0.635688421 0.179634737,0.922138947 Z" id="Shape"></path>
                <path d="M1.40172632,5.91959579 C1.22733684,5.73015579 1.0592091,5.53869474 0.901726316,5.34595368 C1.05936564,5.53896421 1.22733684,5.73042526 1.40172632,5.91959579 Z" id="Shape"></path>
            </g>
            <path d="M19.9501474,29.0206989 L6.83472842,29.0438737 C9.42026105,30.8492126 12.5628632,31.9110737 15.9553347,31.9110737 C17.5908379,31.9111411 18.9217684,30.8109474 19.9501474,29.0206989 Z" id="Shape" fill="#6CC4EE"></path>
            <g id="Group" transform="translate(0.000000, 16.774737)" fill="#FFFFFF">
                <path d="M0.633658947,1.74585263 C0.442602037,1.56975158 0.285872136,1.39216842 0.133658947,1.21404632 C0.285420465,1.39189895 0.440795352,1.56948211 0.633658947,1.74585263 Z" id="Shape"></path>
                <path d="M6.83418947,12.2972884 C6.61652211,12.1364338 6.40316632,11.9694336 6.19378526,11.7972884 C6.40343579,11.969648 6.61679158,12.1367196 6.83418947,12.2972884 Z" id="Shape"></path>
                <path d="M1.14983579,4.22480842 C0.974666399,4.04722526 0.807069747,3.86755368 0.649835789,3.68693895 C0.807069747,3.86809263 0.974068552,4.04668632 1.14983579,4.22480842 Z" id="Shape"></path>
                <path d="M0.937221053,3.40608 C0.758885183,3.23328 0.592979551,3.05967158 0.437221053,2.88512 C0.592725873,3.05967158 0.759646218,3.23321263 0.937221053,3.40608 Z" id="Shape"></path>
                <path d="M0.866955789,3.08021053 C0.694856077,2.91398624 0.52467391,2.74731957 0.366955789,2.58021053 C0.52467391,2.74731957 0.694856077,2.91398624 0.866955789,3.08021053 Z" id="Shape"></path>
                <path d="M0.389344211,1.40085053 C0.290344211,1.23421974 0.177844211,1.06920359 0.0938442105,0.900850526 C0.177844211,1.06909595 0.290344211,1.23421974 0.389344211,1.40085053 Z" id="Shape"></path>
                <path d="M1.07020632,3.90601263 C0.897617483,3.74054501 0.730104793,3.57327882 0.570206316,3.40601263 C0.730104793,3.57327882 0.896348448,3.74054501 1.07020632,3.90601263 Z" id="Shape"></path>
                <polygon id="Shape" points="5.57655579 11.2939789 5.58255579 11.2974789 5.58255579 11.2974789"></polygon>
                <path d="M1.31893053,4.72453895 C1.14697931,4.5583294 0.983158169,4.39225699 0.818930526,4.22453895 C0.982751665,4.39225699 1.14535329,4.55846654 1.31893053,4.72453895 Z" id="Shape"></path>
                <path d="M0.17782,0.546349474 C0.13132,0.379272399 0.05982,0.213426548 0.02432,0.0463494737 C0.06182,0.213426548 0.13082,0.37877991 0.17782,0.546349474 Z" id="Shape"></path>
                <path d="M0.628466316,2.24585263 C0.484466316,2.07886709 0.334966316,1.91358222 0.207966316,1.74585263 C0.336966316,1.91358222 0.484466316,2.07886709 0.628466316,2.24585263 Z" id="Shape"></path>
                <path d="M5.04671789,10.82156 C5.01121789,10.78806 4.97921789,10.75606 4.94571789,10.72256 C4.97971789,10.75656 5.01321789,10.79006 5.04671789,10.82156 Z" id="Shape"></path>
                <path d="M1.61696842,5.54387368 C1.4441677,5.37850403 1.28483198,5.2104814 1.11696842,5.04387368 C1.28438314,5.2104814 1.44237237,5.37850403 1.61696842,5.54387368 Z" id="Shape"></path>
                <path d="M4.44141474,10.2187926 C4.41141474,10.1887926 4.38341474,10.1607926 4.35341474,10.1272926 C4.38191474,10.1607926 4.41191474,10.1887926 4.44141474,10.2187926 Z" id="Shape"></path>
                <path d="M1.79464842,6.38375579 C1.68414842,6.21815295 1.58514842,6.04971324 1.47664842,5.88375579 C1.58514842,6.04971324 1.68464842,6.21815295 1.79464842,6.38375579 Z" id="Shape"></path>
            </g>
            <path d="M0.000404210526,15.9559411 C0.000404210526,16.2461642 0.00922947368,16.5346358 0.0245894737,16.8210863 C0.0296421053,16.9125053 0.0389389474,17.0032505 0.0452715789,17.0946695 C0.0591494737,17.2888926 0.0732294737,17.4833853 0.0939115789,17.6758568 C0.105229474,17.7811537 0.120387368,17.8844295 0.133726316,17.9887832 C0.156429474,18.1669053 0.179806316,18.3444884 0.208303158,18.5205895 C0.225212632,18.6268968 0.245355789,18.7317221 0.26496,18.8374905 C0.296690526,19.0108295 0.329701053,19.1838989 0.367023158,19.3552168 C0.389187368,19.4570105 0.413372632,19.5585347 0.437288421,19.6597895 C0.478585263,19.8344084 0.522711579,20.0082189 0.570071579,20.1807495 C0.595738947,20.2747284 0.622214737,20.3687074 0.649701053,20.4616758 C0.702854737,20.6422905 0.759511579,20.8219621 0.818728421,20.9995453 C0.845945263,21.0816674 0.873162105,21.1633179 0.901591579,21.2451705 C0.969633684,21.4381811 1.04192,21.6293726 1.11676632,21.8188126 C1.14196211,21.8822737 1.16587789,21.9462737 1.19181474,22.0092632 C1.28175158,22.2282105 1.37701053,22.4448674 1.47651368,22.6587621 C1.49113263,22.6902232 1.50447158,22.7222232 1.51936,22.7537516 C2.24289684,24.2859789 3.20350316,25.6844126 4.35328,26.9022989 C4.35732211,26.9068126 4.36109474,26.9105853 4.36513684,26.9146274 C4.55356632,27.1139032 4.74704842,27.3083958 4.94585263,27.4975663 C4.95036632,27.50208 4.95467789,27.5063916 4.95946105,27.5109053 C5.16048842,27.7018947 5.36609684,27.8883032 5.57669053,28.0689179 C5.57669053,28.0689179 5.57716211,28.0693895 5.57743158,28.0693895 L15.9557389,0.282677895 L22.5263158,17.7346021 C22.8790568,9.21027368 20.6897853,0 15.9554695,0 C7.14381474,0.000269473684 0.000404210526,7.14347789 0.000404210526,15.9559411 Z" id="Shape" fill="#6CC4EE"></path>
            <g id="Group" transform="translate(5.524211, 0.269474)" fill="#FFFFFF">
                <polygon id="Shape" points="1.30997895 28.7739284 1.31397895 28.7774284 1.31397895 28.7774284"></polygon>
                <path d="M0.674333684,28.30558 C0.672333684,28.30558 0.670833684,28.30558 0.668833684,28.30208 C0.672833684,28.30558 0.674333684,28.30558 0.674333684,28.30558 Z" id="Shape"></path>
                <path d="M0.0531536842,27.7997137 L0.0586536842,27.8032137 L0.0531536842,27.7997137 Z" id="Shape"></path>
                <path d="M0.0531536842,27.7997137 C0.0534231579,27.8001853 0.0536252632,27.8001853 0.0538947368,27.8001853 C0.254652632,27.9729853 0.459722105,28.1402611 0.668833684,28.3020126 C0.669103158,28.3024842 0.669305263,28.3024842 0.669574737,28.3024842 C0.878955789,28.4649768 1.09231158,28.6224168 1.30997895,28.7738611 C1.30997895,28.7743326 1.31024842,28.7743326 1.31045053,28.7743326 L1.48628211,28.5647495 L1.15826526,28.5647495 L10.4424421,3.70795789 L16.7638232,20.4980547 C16.8799663,19.50848 16.9595958,18.4919579 17.0019032,17.4650611 L10.4315284,0.0132042105 L0.0531536842,27.7997137 Z" id="Shape"></path>
            </g>
            <path d="M6.68281263,28.8342905 L7.01082947,28.8342905 L15.9558063,15.9559411 L21.71136,24.17664 C21.9567158,23.0991495 22.1489853,21.9536168 22.2883032,20.7677979 L15.9666526,3.97743158 L6.68281263,28.8342905 Z" id="Shape" fill="#151515"></path>
            <path d="M15.9557389,15.9559411 L7.01082947,28.8342905 L6.83499789,29.0438737 L19.9504168,29.0206989 C20.6981389,27.7192084 21.2846484,26.0517053 21.7114274,24.1763705 L15.9557389,15.9559411 Z" id="Shape" fill="#F8D648"></path>
        </g>
    </g>
</svg>