<?xml version="1.0" encoding="UTF-8"?>
<svg width="32px" height="32px" viewBox="0 0 32 32" version="1.1" xmlns="http://www.w3.org/2000/svg" xmlns:xlink="http://www.w3.org/1999/xlink">
    <!-- Generator: Sketch 50.2 (55047) - http://www.bohemiancoding.com/sketch -->
    <title>samoa@1x</title>
    <desc>Created with Sketch.</desc>
    <defs></defs>
    <g id="flags" stroke="none" stroke-width="1" fill="none" fill-rule="evenodd">
        <g id="samoa" fill-rule="nonzero">
            <path d="M32,16 C32,24.8365 24.8365,32 16,32 C7.1635,32 0,24.8365 0,16 C5.495625,10.504375 10.1565,5.8435 16,0 C24.8365,0 32,7.1635 32,16 Z" id="Shape" fill="#D80027"></path>
            <path d="M16,16 C16,7.1635 16,6.12175 16,0 C7.1635,0 0,7.1635 0,16 L16,16 Z" id="Shape" fill="#0052B4"></path>
            <g id="Group" transform="translate(3.937500, 4.125000)" fill="#F0F0F0">
                <polygon id="Shape" points="8.878375 6.3098125 9.1374375 7.107 9.9755625 7.107 9.2974375 7.5995625 9.5565 8.39675 8.878375 7.9040625 8.20025 8.39675 8.4593125 7.5995625 7.7811875 7.107 8.6193125 7.107"></polygon>
                <polygon id="Shape" points="4.668625 0.0489375 5.1003125 1.377625 6.4973125 1.377625 5.3670625 2.1985625 5.798875 3.5271875 4.668625 2.706 3.5384375 3.5271875 3.9701875 2.1985625 2.84 1.377625 4.236875 1.377625"></polygon>
                <polygon id="Shape" points="8.8425625 1.4401875 9.27425 2.7689375 10.6711875 2.7689375 9.541 3.589875 9.9726875 4.9185 8.8425625 4.0973125 7.712375 4.9185 8.144125 3.589875 7.0139375 2.7689375 8.4108125 2.7689375"></polygon>
                <polygon id="Shape" points="5.5433125 7.0054375 5.9750625 8.334125 7.3719375 8.334125 6.24175 9.1550625 6.6735 10.4836875 5.5433125 9.6625625 4.413125 10.4836875 4.844875 9.1550625 3.7146875 8.334125 5.111625 8.334125"></polygon>
                <polygon id="Shape" points="1.886 3.5271875 2.31775 4.855875 3.7146875 4.855875 2.5844375 5.6768125 3.0161875 7.0054375 1.886 6.1843125 0.755875 7.0054375 1.1875625 5.6768125 0.0574375 4.855875 1.4543125 4.855875"></polygon>
            </g>
        </g>
    </g>
</svg>