<?xml version="1.0" encoding="UTF-8"?>
<svg width="32px" height="32px" viewBox="0 0 32 32" version="1.1" xmlns="http://www.w3.org/2000/svg" xmlns:xlink="http://www.w3.org/1999/xlink">
    <!-- Generator: Sketch 50.2 (55047) - http://www.bohemiancoding.com/sketch -->
    <title>san-marino@1x</title>
    <desc>Created with Sketch.</desc>
    <defs></defs>
    <g id="flags" stroke="none" stroke-width="1" fill="none" fill-rule="evenodd">
        <g id="san-marino" fill-rule="nonzero">
            <path d="M32,16 C32,24.8365 24.8365,32 16,32 C7.1635,32 0,24.8365 0,16 C0.695625,16 16,13.9130625 16,13.9130625 L32,16 Z" id="Shape" fill="#338AF3"></path>
            <path d="M0,16 C0,7.1635 7.1635,0 16,0 C24.8365,0 32,7.1635 32,16" id="Shape" fill="#F0F0F0"></path>
            <path d="M22.351,11.04025 L16,17.3913125 L9.649,11.04025 C8.8276875,12.2594375 8.347875,13.726875 8.347875,15.3043125 L8.347875,17.39125 C8.347875,20.74225 10.5131875,23.5968125 13.518,24.63 C13.1169375,25.416 13.1845625,26.3969375 13.77225,27.130375 C14.55275,26.5048125 15.3608125,25.85725 16.0463125,25.308 C16.7318125,25.8573125 17.5399375,26.504875 18.320375,27.130375 C18.9149375,26.388375 18.9776875,25.39275 18.5608125,24.602125 C21.5245625,23.5465 23.652125,20.712875 23.652125,17.39125 L23.652125,15.304375 C23.6521875,13.726875 23.1723125,12.2595 22.351,11.04025 Z" id="Shape" fill="#6DA544"></path>
            <path d="M16,22.9565 C12.9313125,22.9565 10.4348125,20.4599375 10.4348125,17.3913125 L10.4348125,15.304375 C10.4348125,12.2356875 12.931375,9.7391875 16,9.7391875 C19.068625,9.7391875 21.5651875,12.23575 21.5651875,15.304375 L21.5651875,17.3913125 C21.5651875,20.4599375 19.0686875,22.9565 16,22.9565 Z" id="Shape" fill="#FFDA44"></path>
            <path d="M19.47825,17.3913125 L19.47825,15.304375 C19.47825,13.3864375 17.917875,11.826125 16,11.826125 C14.082125,11.826125 12.52175,13.3865 12.52175,15.304375 L12.52175,17.3913125 L16,18.0869375 L19.47825,17.3913125 Z" id="Shape" fill="#338AF3"></path>
            <path d="M12.52175,17.3913125 C12.52175,19.30925 14.082125,20.8695625 16,20.8695625 C17.917875,20.8695625 19.47825,19.3091875 19.47825,17.3913125 L12.52175,17.3913125 Z" id="Shape" fill="#6DA544"></path>
            <path d="M20.1739375,9.739125 C20.1739375,8.5865625 19.2395625,7.6521875 18.087,7.6521875 C17.5523125,7.6521875 17.065,7.8534375 16.6956875,8.184 L16.6956875,6.9565 L17.3913125,6.9565 L17.3913125,5.5651875 L16.6956875,5.5651875 L16.6956875,4.8695625 L15.304375,4.8695625 L15.304375,5.5651875 L14.60875,5.5651875 L14.60875,6.9565 L15.304375,6.9565 L15.304375,8.184 C14.9350625,7.8534375 14.4476875,7.6521875 13.9130625,7.6521875 C12.7605,7.6521875 11.826125,8.5865625 11.826125,9.739125 C11.826125,10.3570625 12.0949375,10.9120625 12.52175,11.29425 L12.52175,12.52175 L19.47825,12.52175 L19.47825,11.29425 C19.905125,10.9120625 20.1739375,10.3570625 20.1739375,9.739125 Z" id="Shape" fill="#FFDA44"></path>
        </g>
    </g>
</svg>