<?xml version="1.0" encoding="UTF-8"?>
<svg width="32px" height="32px" viewBox="0 0 32 32" version="1.1" xmlns="http://www.w3.org/2000/svg" xmlns:xlink="http://www.w3.org/1999/xlink">
    <!-- Generator: Sketch 50.2 (55047) - http://www.bohemiancoding.com/sketch -->
    <title>sao-tome-and-prince@1x</title>
    <desc>Created with Sketch.</desc>
    <defs></defs>
    <g id="flags" stroke="none" stroke-width="1" fill="none" fill-rule="evenodd">
        <g id="sao-tome-and-prince" fill-rule="nonzero">
            <circle id="Oval" fill="#FFDA44" cx="16.0311891" cy="15.9688109" r="15.9688109"></circle>
            <g id="Group" transform="translate(4.678363, 0.000000)" fill="#6DA544">
                <path d="M5.10415595,10.4144717 L26.3283275,10.4144717 C24.0721092,4.33353606 18.2187914,0 11.3528265,0 C6.94306433,0 2.95129825,1.78769591 0.0616920078,4.67767641 L5.10415595,10.4144717 Z" id="Shape"></path>
                <path d="M5.10415595,21.5231501 L26.3283275,21.5231501 C24.0721092,27.6040858 18.2187914,31.9376218 11.3528265,31.9376218 C6.94306433,31.9376218 2.95129825,30.1499259 0.0616920078,27.2599454 L5.10415595,21.5231501 Z" id="Shape"></path>
            </g>
            <path d="M4.73949318,4.67711501 C-1.49670175,10.9133099 -1.49670175,21.0242495 4.73949318,27.2605068 C7.31652242,24.6834776 9.79499415,22.2050058 16.0311891,15.9688109 L4.73949318,4.67711501 Z" id="Shape" fill="#D80027"></path>
            <polygon id="Shape" fill="#000000" points="20.3398986 13.1916101 21.0292398 15.3132164 23.2600078 15.3132164 21.4552827 16.6244055 22.1446238 18.7460117 20.3398986 17.4347602 18.5351735 18.7460117 19.2244522 16.6244055 17.4197895 15.3132164 19.6505575 15.3132164"></polygon>
            <polygon id="Shape" fill="#000000" points="27.2829006 13.1916101 27.9721793 15.3132164 30.2029474 15.3132164 28.3982846 16.6244055 29.0875634 18.7460117 27.2829006 17.4347602 25.4781131 18.7460117 26.1674542 16.6244055 24.362729 15.3132164 26.5934971 15.3132164"></polygon>
        </g>
    </g>
</svg>