<?xml version="1.0" encoding="UTF-8"?>
<svg width="32px" height="32px" viewBox="0 0 32 32" version="1.1" xmlns="http://www.w3.org/2000/svg" xmlns:xlink="http://www.w3.org/1999/xlink">
    <!-- Generator: Sketch 50.2 (55047) - http://www.bohemiancoding.com/sketch -->
    <title>saudi-arabia@1x</title>
    <desc>Created with Sketch.</desc>
    <defs></defs>
    <g id="flags" stroke="none" stroke-width="1" fill="none" fill-rule="evenodd">
        <g id="saudi-arabia" fill-rule="nonzero">
            <circle id="Oval" fill="#6DA544" cx="16" cy="16" r="16"></circle>
            <g id="Group" transform="translate(6.750000, 9.000000)" fill="#F0F0F0">
                <path d="M2.2935,10.1304375 C2.2935,11.283 3.227875,12.217375 4.3804375,12.217375 L10.6413125,12.217375 C10.6413125,13.177875 11.4199375,13.9565 12.3804375,13.9565 L14.467375,13.9565 C15.427875,13.9565 16.2065,13.177875 16.2065,12.217375 L16.2065,10.1304375 L2.2935,10.1304375 Z" id="Shape"></path>
                <path d="M16.3804375,0.0435 L16.3804375,4.9130625 C16.3804375,5.68025 15.7563125,6.304375 14.989125,6.304375 L14.989125,8.3913125 C16.9070625,8.3913125 18.467375,6.8309375 18.467375,4.9130625 L18.467375,0.0435 L16.3804375,0.0435 Z" id="Shape"></path>
                <path d="M1.4239375,4.9130625 C1.4239375,5.68025 0.7998125,6.304375 0.032625,6.304375 L0.032625,8.3913125 C1.9505625,8.3913125 3.510875,6.8309375 3.510875,4.9130625 L3.510875,0.0435 L1.4239375,0.0435 L1.4239375,4.9130625 Z" id="Shape"></path>
                <rect id="Rectangle-path" x="13.25" y="0.0435" width="2.0869375" height="4.8695625"></rect>
                <path d="M10.1195625,2.8260625 C10.1195625,3.017875 9.9635,3.173875 9.77175,3.173875 C9.58,3.173875 9.4239375,3.0178125 9.4239375,2.8260625 L9.4239375,0.0434375 L7.337,0.0434375 L7.337,2.8260625 C7.337,3.017875 7.1809375,3.173875 6.9891875,3.173875 C6.7974375,3.173875 6.641375,3.0178125 6.641375,2.8260625 L6.641375,0.0434375 L4.554375,0.0434375 L4.554375,2.8260625 C4.554375,4.168625 5.646625,5.260875 6.9891875,5.260875 C7.50625,5.260875 7.98575,5.098375 8.3805,4.822375 C8.7751875,5.0983125 9.25475,5.260875 9.7718125,5.260875 C9.8759375,5.260875 9.9783125,5.2535625 10.079,5.24075 C9.931125,5.8500625 9.382375,6.3043125 8.7283125,6.3043125 L8.7283125,8.39125 C10.64625,8.39125 12.2065625,6.830875 12.2065625,4.913 L12.2065625,2.8260625 L12.2065625,0.0434375 L10.119625,0.0434375 L10.119625,2.8260625 L10.1195625,2.8260625 Z" id="Shape"></path>
                <rect id="Rectangle-path" x="4.554375" y="6.304375" width="3.1304375" height="2.0869375"></rect>
            </g>
        </g>
    </g>
</svg>