<?xml version="1.0" encoding="UTF-8"?>
<svg width="32px" height="32px" viewBox="0 0 32 32" version="1.1" xmlns="http://www.w3.org/2000/svg" xmlns:xlink="http://www.w3.org/1999/xlink">
    <!-- Generator: Sketch 50.2 (55047) - http://www.bohemiancoding.com/sketch -->
    <title>senegal@1x</title>
    <desc>Created with Sketch.</desc>
    <defs></defs>
    <g id="flags" stroke="none" stroke-width="1" fill="none" fill-rule="evenodd">
        <g id="senegal" fill-rule="nonzero">
            <path d="M22.9565,1.587625 C20.853,0.5705 18.493125,0 16,0 C13.506875,0 11.147,0.5705 9.0435,1.587625 L7.6521875,16 L9.0435,30.412375 C11.147,31.4295 13.506875,32 16,32 C18.493125,32 20.853,31.4295 22.9565,30.412375 L24.3478125,16 L22.9565,1.587625 Z" id="Shape" fill="#FFDA44"></path>
            <g id="Group" transform="translate(0.000000, 1.562500)" fill="#496E2D">
                <polygon id="Shape" points="15.999875 8.8723125 17.381125 13.1235625 21.851625 13.1235625 18.235125 15.75125 19.6164375 20.0026875 15.999875 17.3751875 12.3833125 20.0026875 13.764875 15.75125 10.148375 13.1235625 14.6185625 13.1235625"></polygon>
                <path d="M9.0435,0.0256875 C3.691625,2.613625 0,8.0941875 0,14.4375 C0,20.7808125 3.691625,26.261375 9.0435,28.8493125 L9.0435,0.0256875 Z" id="Shape"></path>
            </g>
            <path d="M22.9565,1.5881875 L22.9565,30.4118125 C28.308375,27.823875 32,22.3433125 32,16 C32,9.6566875 28.308375,4.176125 22.9565,1.5881875 Z" id="Shape" fill="#D80027"></path>
        </g>
    </g>
</svg>