<?xml version="1.0" encoding="UTF-8"?>
<svg width="32px" height="32px" viewBox="0 0 32 32" version="1.1" xmlns="http://www.w3.org/2000/svg" xmlns:xlink="http://www.w3.org/1999/xlink">
    <!-- Generator: Sketch 50.2 (55047) - http://www.bohemiancoding.com/sketch -->
    <title>serbia@1x</title>
    <desc>Created with Sketch.</desc>
    <defs></defs>
    <g id="flags" stroke="none" stroke-width="1" fill="none" fill-rule="evenodd">
        <g id="serbia" fill-rule="nonzero">
            <circle id="Oval" fill="#F0F0F0" cx="16" cy="16" r="16"></circle>
            <path d="M16,0 C7.1635,0 0,7.1635 0,16 C0,17.957125 0.3520625,19.8319375 0.9951875,21.5651875 L31.004875,21.5651875 C31.648,19.8319375 32,17.957125 32,16 C32,7.1635 24.8365,0 16,0 Z" id="Shape" fill="#0052B4"></path>
            <g id="Group" transform="translate(0.937500, 0.000000)" fill="#D80027">
                <path d="M15.0625,0 C8.1830625,0 2.318375,4.342 0.0576875,10.4348125 L30.067375,10.4348125 C27.806625,4.342 21.9419375,0 15.0625,0 Z" id="Shape"></path>
                <path d="M3.199875,9.0435 L3.199875,17.025125 C3.199875,21.565375 9.1311875,22.9565625 9.1311875,22.9565625 C9.1311875,22.9565625 15.0624375,21.565375 15.0624375,17.025125 L15.0624375,9.0435 L3.199875,9.0435 Z" id="Shape"></path>
            </g>
            <g id="Group" transform="translate(5.562500, 6.250000)" fill="#FFDA44">
                <polygon id="Shape" points="1.027875 4.1848125 7.9844375 4.1848125 7.9844375 1.4021875 6.593125 2.0978125 4.5061875 0.010875 2.4191875 2.0978125 1.027875 1.4021875"></polygon>
                <polygon id="Shape" points="9.0461875 11.8864375 4.5244375 7.3646875 0.0026875 11.8864375 1.478375 13.362125 4.5244375 10.3160625 7.5705 13.362125"></polygon>
            </g>
            <path d="M14.6086875,13.9130625 L12.4989375,13.9130625 C12.6175625,13.7083125 12.6865625,13.4711875 12.6865625,13.2175625 C12.6865625,12.4490625 12.063625,11.82625 11.29525,11.82625 C10.7643125,11.82625 10.30325,12.123625 10.0686875,12.5608125 C9.834125,12.1236875 9.3730625,11.82625 8.842125,11.82625 C8.07375,11.82625 7.4508125,12.4490625 7.4508125,13.2175625 C7.4508125,13.4711875 7.5198125,13.708375 7.6384375,13.9130625 L5.5651875,13.9130625 C5.5651875,14.6815 6.2345,15.304375 7.0028125,15.304375 L6.9565,15.304375 C6.9565,16.0728125 7.579375,16.6956875 8.3478125,16.6956875 C8.3478125,17.3760625 8.8364375,17.9413125 9.48175,18.0623125 L8.3855,20.5374375 C8.910875,20.751 9.485,20.869625 10.087,20.869625 C10.689,20.869625 11.263125,20.751 11.7885,20.5374375 L10.69225,18.0623125 C11.3375625,17.9414375 11.8261875,17.376125 11.8261875,16.6956875 C12.594625,16.6956875 13.2175,16.0728125 13.2175,15.304375 L13.1711875,15.304375 C13.9394375,15.304375 14.6086875,14.6814375 14.6086875,13.9130625 Z" id="Shape" fill="#F0F0F0"></path>
        </g>
    </g>
</svg>