<?xml version="1.0" encoding="UTF-8"?>
<svg width="32px" height="32px" viewBox="0 0 32 32" version="1.1" xmlns="http://www.w3.org/2000/svg" xmlns:xlink="http://www.w3.org/1999/xlink">
    <!-- Generator: Sketch 50.2 (55047) - http://www.bohemiancoding.com/sketch -->
    <title>seychelles@1x</title>
    <desc>Created with Sketch.</desc>
    <defs></defs>
    <g id="flags" stroke="none" stroke-width="1" fill="none" fill-rule="evenodd">
        <g id="seychelles" fill-rule="nonzero">
            <circle id="Oval" fill="#F0F0F0" cx="16" cy="16" r="16"></circle>
            <path d="M26.8005625,4.1960625 C23.9543125,1.5903125 20.163,0 16,0 C15.3185,0 14.6469375,0.0429375 13.9878125,0.125625 L6.260875,9.0435 L0.5063125,20.0081875 C0.8780625,21.4495 1.4464375,22.811625 2.17975,24.0655 L16,16 L26.8005625,4.1960625 Z" id="Shape" fill="#FFDA44"></path>
            <path d="M29.3206875,24.864875 L6.9351875,29.184875 C9.512,30.9599375 12.634375,32 16,32 C21.5575625,32 26.4525,29.1660625 29.3206875,24.864875 Z" id="Shape" fill="#6DA544"></path>
            <path d="M26.8028125,4.1981875 L2.188875,24.081 C2.8326875,25.179 3.6035,26.1934375 4.4814375,27.104 L32,16 C32,11.3275625 29.9968125,7.1233125 26.8028125,4.1981875 Z" id="Shape" fill="#D80027"></path>
            <path d="M0,16 C0,17.3841875 0.175875,18.72725 0.5063125,20.0081875 L13.9878125,0.125625 C6.101125,1.11525 0,7.845 0,16 Z" id="Shape" fill="#0052B4"></path>
        </g>
    </g>
</svg>