<?xml version="1.0" encoding="UTF-8"?>
<svg width="32px" height="32px" viewBox="0 0 32 32" version="1.1" xmlns="http://www.w3.org/2000/svg" xmlns:xlink="http://www.w3.org/1999/xlink">
    <!-- Generator: Sketch 50.2 (55047) - http://www.bohemiancoding.com/sketch -->
    <title>singapore@1x</title>
    <desc>Created with Sketch.</desc>
    <defs></defs>
    <g id="flags" stroke="none" stroke-width="1" fill="none" fill-rule="evenodd">
        <g id="singapore" fill-rule="nonzero">
            <circle id="Oval" fill="#F0F0F0" cx="16" cy="16" r="16"></circle>
            <path d="M0,16.0000625 C0,7.1635 7.1635,0 16,0 C24.8365,0 32,7.1635 32,16.0000625" id="Shape" fill="#D80027"></path>
            <g id="Group" transform="translate(7.625000, 3.437500)" fill="#F0F0F0">
                <path d="M2.114125,4.91025 C2.114125,2.579125 3.7524375,0.63175 5.9401875,0.1539375 C5.6039375,0.0805625 5.255125,0.04075 4.8966875,0.04075 C2.20725,0.04075 0.027125,2.220875 0.027125,4.9103125 C0.027125,7.59975 2.20725,9.779875 4.8966875,9.779875 C5.255,9.779875 5.603875,9.7400625 5.9401875,9.666625 C3.7524375,9.1888125 2.114125,7.2414375 2.114125,4.91025 Z" id="Shape"></path>
                <polygon id="Shape" points="8.375 0.3885625 8.720375 1.451375 9.8379375 1.451375 8.93375 2.1083125 9.279125 3.171125 8.375 2.5143125 7.470875 3.171125 7.81625 2.1083125 6.912125 1.451375 8.029625 1.451375"></polygon>
                <polygon id="Shape" points="5.6640625 2.4755 6.009375 3.538375 7.1269375 3.538375 6.2228125 4.19525 6.5681875 5.2580625 5.6640625 4.60125 4.7598125 5.2580625 5.10525 4.19525 4.2010625 3.538375 5.318625 3.538375"></polygon>
                <polygon id="Shape" points="11.086 2.4755 11.4314375 3.538375 12.5489375 3.538375 11.64475 4.19525 11.9901875 5.2580625 11.086 4.60125 10.181875 5.2580625 10.52725 4.19525 9.623125 3.538375 10.740625 3.538375"></polygon>
                <polygon id="Shape" points="10.0425625 5.6059375 10.3879375 6.6688125 11.5054375 6.6688125 10.6013125 7.3256875 10.9466875 8.3885 10.0425625 7.7316875 9.1384375 8.3885 9.4838125 7.3256875 8.5796875 6.6688125 9.697125 6.6688125"></polygon>
                <polygon id="Shape" points="6.7075 5.6059375 7.0528125 6.6688125 8.1704375 6.6688125 7.26625 7.3256875 7.6116875 8.3885 6.7075 7.7316875 5.8033125 8.3885 6.1486875 7.3256875 5.2445625 6.6688125 6.362125 6.6688125"></polygon>
            </g>
        </g>
    </g>
</svg>