<?xml version="1.0" encoding="UTF-8"?>
<svg width="32px" height="32px" viewBox="0 0 32 32" version="1.1" xmlns="http://www.w3.org/2000/svg" xmlns:xlink="http://www.w3.org/1999/xlink">
    <!-- Generator: Sketch 50.2 (55047) - http://www.bohemiancoding.com/sketch -->
    <title>sint-maarten@1x</title>
    <desc>Created with Sketch.</desc>
    <defs></defs>
    <g id="flags" stroke="none" stroke-width="1" fill="none" fill-rule="evenodd">
        <g id="sint-maarten" fill-rule="nonzero">
            <path d="M14.6425887,17.3574113 C14.6425887,17.3574113 4.7488499,4.67493177 4.73949318,4.67717739 C7.62922417,1.78738402 11.6214893,0 16.0311891,0 C24.8504639,0 32,7.14953606 32,15.9688109 L14.6425887,17.3574113 Z" id="Shape" fill="#D80027"></path>
            <path d="M14.6425887,15.9688109 C14.6425887,15.9688109 4.7488499,27.2626901 4.73949318,27.2604444 C7.62922417,30.1502378 11.6214893,31.9376218 16.0311891,31.9376218 C24.8504639,31.9376218 32,24.7880858 32,15.9688109 L14.6425887,15.9688109 Z" id="Shape" fill="#0052B4"></path>
            <path d="M4.73949318,4.67711501 C-1.49670175,10.9133099 -1.49670175,21.0242495 4.73949318,27.2605068 C7.31652242,24.6834776 9.79499415,22.2050058 16.0311891,15.9688109 L4.73949318,4.67711501 Z" id="Shape" fill="#F0F0F0"></path>
            <g id="Group" transform="translate(1.746589, 11.103314)" fill="#FFDA44">
                <path d="M0.0661832359,4.86555945 C0.0574502924,4.98021053 0.0515243665,5.09573489 0.0515243665,5.21263158 C0.0515243665,7.70501365 2.07207797,9.72556725 4.56446004,9.72556725 C7.05684211,9.72556725 9.07739571,7.70501365 9.07739571,5.21263158 C9.07739571,5.09573489 9.07146979,4.98014815 9.06273684,4.86555945 L0.0661832359,4.86555945 Z" id="Shape"></path>
                <circle id="Oval" cx="4.56446004" cy="1.39402729" r="1.38860039"></circle>
            </g>
            <path d="M3.18671345,12.1502066 L3.18671345,16.6631423 C3.18671345,19.0547212 6.31104873,19.7874776 6.31104873,19.7874776 C6.31104873,19.7874776 9.43538402,19.0547212 9.43538402,16.6631423 L9.43538402,12.1502066 L3.18671345,12.1502066 Z" id="Shape" fill="#D80027"></path>
            <path d="M6.31254581,18.334191 C5.73292788,18.1255984 4.57525146,17.5925146 4.57525146,16.6630799 L4.57525146,13.5387446 L8.04678363,13.5387446 L8.04678363,16.6630799 C8.04678363,17.5955712 6.88923197,18.127345 6.31254581,18.334191 Z" id="Shape" fill="#338AF3"></path>
            <polygon id="Shape" fill="#F3F3F3" points="7.00531774 15.2745419 7.00531774 14.5802105 6.31104873 14.233076 5.61671735 14.5802105 5.61671735 15.2745419 5.26958285 15.6216764 5.26958285 17.0102768 7.35251462 17.0102768 7.35251462 15.6216764"></polygon>
        </g>
    </g>
</svg>