<?xml version="1.0" encoding="UTF-8"?>
<svg width="32px" height="32px" viewBox="0 0 32 32" version="1.1" xmlns="http://www.w3.org/2000/svg" xmlns:xlink="http://www.w3.org/1999/xlink">
    <!-- Generator: Sketch 50.2 (55047) - http://www.bohemiancoding.com/sketch -->
    <title>slovakia@1x</title>
    <desc>Created with Sketch.</desc>
    <defs></defs>
    <g id="flags" stroke="none" stroke-width="1" fill="none" fill-rule="evenodd">
        <g id="slovakia" fill-rule="nonzero">
            <circle id="Oval" fill="#F0F0F0" cx="16" cy="16" r="16"></circle>
            <path d="M16,32 C24.8365,32 32,24.8365 32,16 C32,14.042875 31.648,12.1680625 31.0048125,10.4348125 L0.9951875,10.4348125 C0.3520625,12.1680625 0,14.042875 0,16 C0,24.8365 7.1635,32 16,32 Z" id="Shape" fill="#0052B4"></path>
            <path d="M16,32 C22.8794375,32 28.744125,27.658 31.0048125,21.5651875 L0.9951875,21.5651875 C3.255875,27.658 9.1205625,32 16,32 Z" id="Shape" fill="#D80027"></path>
            <path d="M4.137375,9.0435 L4.137375,17.025125 C4.137375,21.565375 10.0686875,22.9565625 10.0686875,22.9565625 C10.0686875,22.9565625 15.9999375,21.565375 15.9999375,17.025125 L15.9999375,9.0435 L4.137375,9.0435 Z" id="Shape" fill="#F0F0F0"></path>
            <path d="M5.5286875,9.0435 L5.5286875,17.025125 C5.5286875,17.558125 5.6470625,18.0615 5.8815625,18.5334375 C8.2086875,18.5334375 11.6869375,18.5334375 14.25575,18.5334375 C14.49025,18.0615625 14.608625,17.558125 14.608625,17.025125 L14.608625,9.0435 L5.5286875,9.0435 Z" id="Shape" fill="#D80027"></path>
            <polygon id="Shape" fill="#F0F0F0" points="12.85125 14.6086875 10.764375 14.6086875 10.764375 13.217375 12.1556875 13.217375 12.1556875 11.8260625 10.764375 11.8260625 10.764375 10.4348125 9.3730625 10.4348125 9.3730625 11.8260625 7.9818125 11.8260625 7.9818125 13.217375 9.3730625 13.217375 9.3730625 14.6086875 7.2860625 14.6086875 7.2860625 16 9.3730625 16 9.3730625 17.3913125 10.764375 17.3913125 10.764375 16 12.85125 16"></polygon>
            <path d="M7.7794375,20.475625 C8.676,21.0390625 9.597125,21.3661875 10.0686875,21.5116875 C10.54025,21.36625 11.461375,21.0390625 12.3579375,20.475625 C13.2620625,19.907375 13.895875,19.2575 14.25575,18.5334375 C13.8588125,18.252625 13.3745,18.087 12.8513125,18.087 C12.6608125,18.087 12.47575,18.1095625 12.2978125,18.151 C11.92075,17.29425 11.0648125,16.6956875 10.06875,16.6956875 C9.0726875,16.6956875 8.2166875,17.29425 7.8396875,18.151 C7.66175,18.1095625 7.476625,18.087 7.2861875,18.087 C6.763,18.087 6.2786875,18.252625 5.88175,18.5334375 C6.2414375,19.2574375 6.87525,19.9073125 7.7794375,20.475625 Z" id="Shape" fill="#0052B4"></path>
        </g>
    </g>
</svg>