<?xml version="1.0" encoding="UTF-8"?>
<svg width="32px" height="32px" viewBox="0 0 32 32" version="1.1" xmlns="http://www.w3.org/2000/svg" xmlns:xlink="http://www.w3.org/1999/xlink">
    <!-- Generator: Sketch 50.2 (55047) - http://www.bohemiancoding.com/sketch -->
    <title>slovenia@1x</title>
    <desc>Created with Sketch.</desc>
    <defs></defs>
    <g id="flags" stroke="none" stroke-width="1" fill="none" fill-rule="evenodd">
        <g id="slovenia" fill-rule="nonzero">
            <circle id="Oval" fill="#F0F0F0" cx="16" cy="16" r="16"></circle>
            <path d="M31.0048125,10.4348125 L13.9130625,10.4348125 L13.9130625,6.260875 L5.5651875,6.260875 L5.5651875,10.4348125 L0.9951875,10.4348125 C0.3520625,12.1680625 0,14.042875 0,16 C0,17.957125 0.3520625,19.831875 0.9951875,21.5651875 L16,22.9565 L31.0048125,21.5651875 C31.6479375,19.831875 32,17.957125 32,16 C32,14.042875 31.6479375,12.1680625 31.0048125,10.4348125 Z" id="Shape" fill="#0052B4"></path>
            <path d="M16,32 C22.8794375,32 28.744125,27.658 31.0048125,21.5651875 L0.9951875,21.5651875 C3.255875,27.658 9.1205625,32 16,32 Z" id="Shape" fill="#D80027"></path>
            <path d="M5.5651875,10.4348125 L5.5651875,11.8260625 C5.5651875,15.021125 9.739125,16.0000625 9.739125,16.0000625 C9.739125,16.0000625 13.9130625,15.021125 13.9130625,11.8260625 L13.9130625,10.4348125 L12.52175,11.826125 L9.739125,9.7391875 L6.9565,11.826125 L5.5651875,10.4348125 Z" id="Shape" fill="#F0F0F0"></path>
        </g>
    </g>
</svg>