<?xml version="1.0" encoding="UTF-8"?>
<svg width="32px" height="32px" viewBox="0 0 32 32" version="1.1" xmlns="http://www.w3.org/2000/svg" xmlns:xlink="http://www.w3.org/1999/xlink">
    <!-- Generator: Sketch 50.2 (55047) - http://www.bohemiancoding.com/sketch -->
    <title>solomon-islands@1x</title>
    <desc>Created with Sketch.</desc>
    <defs></defs>
    <g id="flags" stroke="none" stroke-width="1" fill="none" fill-rule="evenodd">
        <g id="solomon-islands" fill-rule="nonzero">
            <path d="M27.2609435,27.2609435 C33.2499337,21.2719532 33.4864094,11.7103158 27.9728655,5.43762963 L15.9688109,15.9687485 L5.43762963,27.9728655 C11.7103158,33.4864094 21.2718908,33.2499337 27.2609435,27.2609435 Z" id="Shape" fill="#496E2D"></path>
            <path d="M4.67674074,4.67674074 C10.665731,-1.31224951 20.2273684,-1.54872515 26.5000546,3.96481871 L15.9688109,15.9689981 L3.96488109,26.5000546 C-1.54872515,20.2273684 -1.31218713,10.665731 4.67674074,4.67674074 Z" id="Shape" fill="#0052B4"></path>
            <path d="M26.4999298,3.96475634 L3.96475634,26.4999922 C4.1925614,26.7591735 4.42909942,27.0134269 4.67667836,27.2608811 C4.92419493,27.5083977 5.17851072,27.7449357 5.43775439,27.9728655 L27.9728031,5.43762963 C27.7449981,5.17838596 27.5083977,4.92413255 27.2608187,4.67655361 C27.0134269,4.42916179 26.7591111,4.1925614 26.4999298,3.96475634 Z" id="Shape" fill="#FFDA44"></path>
            <g id="Group" transform="translate(5.239766, 5.551657)" fill="#F0F0F0">
                <polygon id="Shape" points="1.48840546 0.00224561404 1.83316959 1.06311111 2.94855361 1.06311111 2.04619103 1.71864327 2.39083041 2.77950877 1.48840546 2.12385185 0.585980507 2.77950877 0.930744639 1.71864327 0.0283196881 1.06311111 1.14376608 1.06311111"></polygon>
                <polygon id="Shape" points="7.18596491 0.00224561404 7.53072904 1.06311111 8.64605068 1.06311111 7.74368811 1.71864327 8.08838986 2.77950877 7.18596491 2.12385185 6.28353996 2.77950877 6.62830409 1.71864327 5.72587914 1.06311111 6.84126316 1.06311111"></polygon>
                <polygon id="Shape" points="1.48840546 5.55683431 1.83316959 6.61769981 2.94855361 6.61769981 2.04619103 7.27329435 2.39083041 8.33415984 1.48840546 7.67850292 0.585980507 8.33415984 0.930744639 7.27329435 0.0283196881 6.61769981 1.14376608 6.61769981"></polygon>
                <polygon id="Shape" points="7.18596491 5.55683431 7.53072904 6.61769981 8.64605068 6.61769981 7.74368811 7.27329435 8.08838986 8.33415984 7.18596491 7.67850292 6.28353996 8.33415984 6.62830409 7.27329435 5.72587914 6.61769981 6.84126316 6.61769981"></polygon>
                <polygon id="Shape" points="4.33721637 2.77950877 4.68198051 3.84037427 5.79730214 3.84037427 4.89493957 4.49596881 5.23964133 5.55683431 4.33721637 4.90117739 3.43479142 5.55683431 3.77949318 4.49596881 2.87706823 3.84037427 3.99251462 3.84037427"></polygon>
            </g>
        </g>
    </g>
</svg>