<?xml version="1.0" encoding="UTF-8"?>
<svg width="32px" height="32px" viewBox="0 0 32 32" version="1.1" xmlns="http://www.w3.org/2000/svg" xmlns:xlink="http://www.w3.org/1999/xlink">
    <!-- Generator: Sketch 50.2 (55047) - http://www.bohemiancoding.com/sketch -->
    <title>south-sudan@1x</title>
    <desc>Created with Sketch.</desc>
    <defs></defs>
    <g id="flags" stroke="none" stroke-width="1" fill="none" fill-rule="evenodd">
        <g id="south-sudan" fill-rule="nonzero">
            <circle id="Oval" fill="#F0F0F0" cx="16.0311891" cy="15.9688109" r="15.9688109"></circle>
            <path d="M30.7542456,9.77796491 C28.3359064,4.03349708 22.6550019,0 16.0311891,0 C11.6214269,0 7.62966082,1.78769591 4.74005458,4.67767641 L8.73911891,9.77796491 L30.7542456,9.77796491 Z" id="Shape" fill="#000000"></path>
            <path d="M8.78446784,22.1018324 L4.74005458,27.2599454 C7.62966082,30.1499259 11.6214269,31.9376218 16.0311891,31.9376218 C22.6773333,31.9376218 28.3744561,27.8771774 30.778885,22.1018324 L8.78446784,22.1018324 Z" id="Shape" fill="#496E2D"></path>
            <path d="M3.53384795,11.7451852 L3.53384795,20.1345497 L31.4499493,20.1345497 C31.8081248,18.8064561 32,17.4101832 32,15.9688109 C32,14.5065419 31.8030097,13.0905575 31.4347914,11.7451852 L3.53384795,11.7451852 Z" id="Shape" fill="#A2001D"></path>
            <path d="M4.73949318,4.67711501 C-1.49670175,10.9133099 -1.49670175,21.0242495 4.73949318,27.2605068 C7.31652242,24.6834776 9.79499415,22.2050058 16.0311891,15.9688109 L4.73949318,4.67711501 Z" id="Shape" fill="#0052B4"></path>
            <polygon id="Shape" fill="#FFDA44" points="5.26384405 11.9985653 7.2128499 14.7183158 10.4021209 13.7049825 8.41780897 16.3992827 10.3668148 19.1191579 7.19126706 18.0645302 5.20689279 20.758768 5.22872515 17.412616 2.05305263 16.3578635 5.24207407 15.3445926"></polygon>
        </g>
    </g>
</svg>