<?xml version="1.0" encoding="UTF-8"?>
<svg width="32px" height="32px" viewBox="0 0 32 32" version="1.1" xmlns="http://www.w3.org/2000/svg" xmlns:xlink="http://www.w3.org/1999/xlink">
    <!-- Generator: Sketch 50.2 (55047) - http://www.bohemiancoding.com/sketch -->
    <title>south-africa@1x</title>
    <desc>Created with Sketch.</desc>
    <defs></defs>
    <g id="flags" stroke="none" stroke-width="1" fill="none" fill-rule="evenodd">
        <g id="south-africa" fill-rule="nonzero">
            <circle id="Oval" fill="#F0F0F0" cx="16.0311891" cy="15.9688109" r="15.9688109"></circle>
            <path d="M4.73949318,27.2605068 C-1.49670175,21.0242495 -1.49670175,10.9133723 4.73949318,4.67711501 C4.73905653,4.67780117 13.9483197,15.9688109 13.9483197,15.9688109 L4.73949318,27.2605068 Z" id="Shape" fill="#000000"></path>
            <path d="M13.9483197,15.9688109 L2.18030409,8.01640546 C1.81545419,8.65060429 1.4937076,9.3125614 1.21724756,9.9977232 L7.17492398,15.9688733 L1.2174347,21.9403353 C1.49364522,22.6249981 1.81507992,23.2865185 2.17968031,23.9202807 L13.9483197,15.9688109 Z" id="Shape" fill="#FFDA44"></path>
            <path d="M31.8648265,13.8859415 L13.947883,13.8859415 L4.73936842,4.67736452 C3.74705653,5.66967641 2.88492788,6.79192203 2.18030409,8.01646784 L10.1172398,15.9688109 L2.17968031,23.9201559 C2.88430409,25.1450136 3.74680702,26.2676335 4.73936842,27.2601949 L13.947883,18.0516803 L31.8648265,18.0516803 C31.9535906,17.3698869 32,16.6747446 32,15.9688109 C32,15.2628772 31.9535906,14.5677349 31.8648265,13.8859415 Z" id="Shape" fill="#6DA544"></path>
            <path d="M6.30880312,28.6363821 C9.00160624,30.7062144 12.3723353,31.9376218 16.0311891,31.9376218 C23.4092164,31.9376218 29.6174659,26.9335828 31.4498869,20.1346121 L14.8106355,20.1346121 L6.30880312,28.6363821 Z" id="Shape" fill="#0052B4"></path>
            <path d="M31.4498869,11.8030097 C29.6174659,5.00403899 23.4092164,0 16.0311891,0 C12.3723353,0 9.00160624,1.23140741 6.30880312,3.30123977 L14.8105731,11.8030097 L31.4498869,11.8030097 Z" id="Shape" fill="#D80027"></path>
        </g>
    </g>
</svg>