<?xml version="1.0" encoding="UTF-8"?>
<svg width="32px" height="32px" viewBox="0 0 32 32" version="1.1" xmlns="http://www.w3.org/2000/svg" xmlns:xlink="http://www.w3.org/1999/xlink">
    <!-- Generator: Sketch 50.2 (55047) - http://www.bohemiancoding.com/sketch -->
    <title>south-korea@1x</title>
    <desc>Created with Sketch.</desc>
    <defs></defs>
    <g id="flags" stroke="none" stroke-width="1" fill="none" fill-rule="evenodd">
        <g id="south-korea" fill-rule="nonzero">
            <circle id="Oval" fill="#F0F0F0" cx="16" cy="16" r="16"></circle>
            <path d="M21.5651875,16 C21.5651875,17.3913125 19.0735625,20.8695625 16,20.8695625 C12.9264375,20.8695625 10.4348125,17.3913125 10.4348125,16 C10.4348125,12.926375 12.9264375,10.4348125 16,10.4348125 C19.0735625,10.4348125 21.5651875,12.926375 21.5651875,16 Z" id="Shape" fill="#D80027"></path>
            <path d="M21.5651875,16 C21.5651875,19.073625 19.0735625,21.5651875 16,21.5651875 C12.9264375,21.5651875 10.4348125,19.073625 10.4348125,16" id="Shape" fill="#0052B4"></path>
            <rect id="Rectangle-path" fill="#000000" transform="translate(23.132352, 20.673118) rotate(-45.000000) translate(-23.132352, -20.673118) " x="22.0888933" y="19.9774688" width="2.08691749" height="1.39129916"></rect>
            <rect id="Rectangle-path" fill="#000000" transform="translate(20.672532, 23.132766) rotate(-45.000000) translate(-20.672532, -23.132766) " x="19.6290737" y="22.437116" width="2.08691749" height="1.39129916"></rect>
            <rect id="Rectangle-path" fill="#000000" transform="translate(26.084123, 23.623886) rotate(-45.000000) translate(-26.084123, -23.623886) " x="25.040664" y="22.9282362" width="2.08691749" height="1.39129916"></rect>
            <rect id="Rectangle-path" fill="#000000" transform="translate(23.624331, 26.083961) rotate(-45.000000) translate(-23.624331, -26.083961) " x="22.5808725" y="25.3883115" width="2.08691749" height="1.39129916"></rect>
            <rect id="Rectangle-path" fill="#000000" transform="translate(24.608156, 22.148616) rotate(-45.000000) translate(-24.608156, -22.148616) " x="23.5646977" y="21.4529666" width="2.08691749" height="1.39129916"></rect>
            <rect id="Rectangle-path" fill="#000000" transform="translate(22.149029, 24.608265) rotate(-45.000000) translate(-22.149029, -24.608265) " x="21.1055704" y="23.9126151" width="2.08691749" height="1.39129916"></rect>
            <rect id="Rectangle-path" fill="#000000" transform="translate(23.379180, 8.621118) rotate(-135.000000) translate(-23.379180, -8.621118) " x="20.5966127" y="7.92546873" width="5.56513413" height="1.39129916"></rect>
            <rect id="Rectangle-path" fill="#000000" transform="translate(20.673630, 8.867675) rotate(-135.000000) translate(-20.673630, -8.867675) " x="19.6301711" y="8.17205642" width="2.08691749" height="1.39123666"></rect>
            <rect id="Rectangle-path" fill="#000000" transform="translate(23.132794, 11.326948) rotate(-135.000000) translate(-23.132794, -11.326948) " x="22.0893349" y="10.6313293" width="2.08691749" height="1.39123666"></rect>
            <rect id="Rectangle-path" fill="#000000" transform="translate(23.623739, 5.916237) rotate(-135.000000) translate(-23.623739, -5.916237) " x="22.5802801" y="5.22058783" width="2.08691749" height="1.39129916"></rect>
            <rect id="Rectangle-path" fill="#000000" transform="translate(26.084238, 8.375792) rotate(-135.000000) translate(-26.084238, -8.375792) " x="25.0407792" y="7.68014245" width="2.08691749" height="1.39129916"></rect>
            <rect id="Rectangle-path" fill="#000000" transform="translate(7.145836, 24.854333) rotate(45.000000) translate(-7.145836, -24.854333) " x="4.36326912" y="24.1586834" width="5.56513413" height="1.39129916"></rect>
            <rect id="Rectangle-path" fill="#000000" transform="translate(9.850983, 24.607881) rotate(45.000000) translate(-9.850983, -24.607881) " x="8.80752438" y="23.9122627" width="2.08691749" height="1.39123666"></rect>
            <rect id="Rectangle-path" fill="#000000" transform="translate(7.391598, 22.148700) rotate(45.000000) translate(-7.391598, -22.148700) " x="6.34813889" y="21.45305" width="2.08691749" height="1.39129916"></rect>
            <rect id="Rectangle-path" fill="#000000" transform="translate(10.097097, 21.902681) rotate(45.000000) translate(-10.097097, -21.902681) " x="7.31452997" y="21.2070312" width="5.56513413" height="1.39129916"></rect>
            <rect id="Rectangle-path" fill="#000000" transform="translate(7.145750, 7.145688) rotate(135.000000) translate(-7.145750, -7.145688) " x="4.36318248" y="6.45003792" width="5.56513413" height="1.39129916"></rect>
            <rect id="Rectangle-path" fill="#000000" transform="translate(8.620951, 8.621011) rotate(135.000000) translate(-8.620951, -8.621011) " x="5.83838437" y="7.92536159" width="5.56513413" height="1.39129916"></rect>
            <rect id="Rectangle-path" fill="#000000" transform="translate(10.097557, 10.097379) rotate(135.000000) translate(-10.097557, -10.097379) " x="7.31499017" y="9.40176046" width="5.56513413" height="1.39123666"></rect>
        </g>
    </g>
</svg>