<?xml version="1.0" encoding="UTF-8"?>
<svg width="32px" height="32px" viewBox="0 0 32 32" version="1.1" xmlns="http://www.w3.org/2000/svg" xmlns:xlink="http://www.w3.org/1999/xlink">
    <!-- Generator: Sketch 50.2 (55047) - http://www.bohemiancoding.com/sketch -->
    <title>spain@1x</title>
    <desc>Created with Sketch.</desc>
    <defs></defs>
    <g id="flags" stroke="none" stroke-width="1" fill="none" fill-rule="evenodd">
        <g id="spain" fill-rule="nonzero">
            <path d="M0,16 C0,17.957125 0.3520625,19.831875 0.9951875,21.5651875 L16,22.9565 L31.0048125,21.5651875 C31.6479375,19.831875 32,17.957125 32,16 C32,14.042875 31.6479375,12.168125 31.0048125,10.4348125 L16,9.0435 L0.9951875,10.4348125 C0.3520625,12.168125 0,14.042875 0,16 Z" id="Shape" fill="#FFDA44"></path>
            <g id="Group" transform="translate(0.937500, 0.000000)" fill="#D80027">
                <path d="M30.0673125,10.4348125 C27.806625,4.3420625 21.9419375,0 15.0625,0 C8.1830625,0 2.318375,4.3420625 0.0576875,10.4348125 L30.0673125,10.4348125 Z" id="Shape"></path>
                <path d="M0.0576875,21.5651875 C2.318375,27.6579375 8.1830625,32 15.0625,32 C21.9419375,32 27.806625,27.6579375 30.0673125,21.5651875 L0.0576875,21.5651875 Z" id="Shape"></path>
            </g>
        </g>
    </g>
</svg>