<?xml version="1.0" encoding="UTF-8"?>
<svg width="32px" height="32px" viewBox="0 0 32 32" version="1.1" xmlns="http://www.w3.org/2000/svg" xmlns:xlink="http://www.w3.org/1999/xlink">
    <!-- Generator: Sketch 50.2 (55047) - http://www.bohemiancoding.com/sketch -->
    <title>sri-lanka@1x</title>
    <desc>Created with Sketch.</desc>
    <defs></defs>
    <g id="flags" stroke="none" stroke-width="1" fill="none" fill-rule="evenodd">
        <g id="sri-lanka" fill-rule="nonzero">
            <polygon id="Shape" fill="#FF9811" points="0.0005 2.782625 0 2.782625 0 29.2173125 0.0005 29.2173125 0.0005 16.0000625"></polygon>
            <circle id="Oval" fill="#FFDA44" cx="15.9999375" cy="15.9999375" r="15.9999375"></circle>
            <path d="M12.5218125,2.782625 L6.982125,2.782625 C6.736625,2.9504375 6.496375,3.125125 6.2609375,3.3059375 L4.869625,15.9999375 L6.2609375,28.6939375 C6.496375,28.8748125 6.736625,29.0495 6.982125,29.21725 L12.5218125,29.21725 L12.5218125,2.782625 Z" id="Shape" fill="#FF9811"></path>
            <path d="M6.25e-05,16.0000625 C6.25e-05,21.171625 2.4543125,25.76925 6.2609375,28.6940625 L6.2609375,3.306 C2.4543125,6.230875 6.25e-05,10.8285 6.25e-05,16.0000625 Z" id="Shape" fill="#6DA544"></path>
            <polygon id="Shape" fill="#FFDA44" points="25.739125 9.754 25.739125 10.2512054 25.858125 10.254"></polygon>
            <path d="M30.7246875,20.173875 L27.710125,20.173875 L26.4348125,21.5651875 L26.4348125,24.3478125 L23.6521875,24.3478125 L23.6521875,22.9565 L25.0435,22.9565 L25.0435,20.173875 L18.782625,20.173875 L18.782625,21.913 L17.3913125,21.913 L17.3913125,18.5985625 C16.9644375,18.2164375 16.6956875,17.661375 16.6956875,17.0434375 L16.6956875,8 C16.6956875,6.8474375 17.6300625,5.9130625 18.782625,5.9130625 L18.782625,18.782625 L21.56525,18.782625 L22.52,17.9869375 C22.35325,17.58975 22.260875,17.1535625 22.260875,16.6956875 L22.260875,14.60875 L20.1739375,14.60875 L20.1739375,10.434875 L24.3478125,10.434875 C24.3478125,9.73925 25.3913125,9.0435625 25.3913125,9.0435625 C25.3913125,9.0435625 26.4348125,9.7391875 26.4348125,10.434875 L26.4348125,11.478375 L26.4348125,14.6088125 C27.20875,14.618 28.438375,14.5979375 29.7668125,14.6088125 C29.4178125,13.9988125 29.217375,13.275 29.217375,12.521875 C29.217375,11.2943125 29.747375,10.1906875 30.591,9.4269375 C29.375,6.73225 27.434625,4.434625 25.0179375,2.782625 L14.60875,2.782625 L14.60875,29.217375 L25.018,29.217375 C27.9566875,27.2085625 30.191,24.245375 31.275,20.77425 L30.7246875,20.173875 Z" id="Shape" fill="#A2001D"></path>
        </g>
    </g>
</svg>