<?xml version="1.0" encoding="UTF-8"?>
<svg width="32px" height="32px" viewBox="0 0 32 32" version="1.1" xmlns="http://www.w3.org/2000/svg" xmlns:xlink="http://www.w3.org/1999/xlink">
    <!-- Generator: Sketch 50.2 (55047) - http://www.bohemiancoding.com/sketch -->
    <title>sudan@1x</title>
    <desc>Created with Sketch.</desc>
    <defs></defs>
    <g id="flags" stroke="none" stroke-width="1" fill="none" fill-rule="evenodd">
        <g id="sudan" fill-rule="nonzero">
            <path d="M1.64690838,9.02587135 C0.631766082,11.125271 0.0623781676,13.4804834 0.0623781676,15.9688109 C0.0623781676,18.4571384 0.631766082,20.8123509 1.64690838,22.9117505 L16.0311891,24.3003509 L30.4154698,22.9117505 C31.4306121,20.8123509 32,18.4571384 32,15.9688109 C32,13.4804834 31.4306121,11.125271 30.4154698,9.02587135 L16.0311891,7.63727096 L1.64690838,9.02587135 Z" id="Shape" fill="#F0F0F0"></path>
            <path d="M1.64746979,22.9117505 C4.23030019,28.2532554 9.70017934,31.9376218 16.0311891,31.9376218 C22.3621988,31.9376218 27.832078,28.2532554 30.4149084,22.9117505 L1.64746979,22.9117505 Z" id="Shape" fill="#000000"></path>
            <path d="M1.64746979,9.02587135 L30.4149084,9.02587135 C27.832078,3.68436647 22.3621988,0 16.0311891,0 C9.70017934,0 4.23030019,3.68436647 1.64746979,9.02587135 Z" id="Shape" fill="#D80027"></path>
            <path d="M4.73949318,4.67711501 C-1.49670175,10.9133099 -1.49670175,21.0242495 4.73949318,27.2605068 C7.31652242,24.6834776 9.79499415,22.2050058 16.0311891,15.9688109 L4.73949318,4.67711501 Z" id="Shape" fill="#496E2D"></path>
        </g>
    </g>
</svg>