<?xml version="1.0" encoding="UTF-8"?>
<svg width="32px" height="32px" viewBox="0 0 32 32" version="1.1" xmlns="http://www.w3.org/2000/svg" xmlns:xlink="http://www.w3.org/1999/xlink">
    <!-- Generator: Sketch 50.2 (55047) - http://www.bohemiancoding.com/sketch -->
    <title>suriname@1x</title>
    <desc>Created with Sketch.</desc>
    <defs></defs>
    <g id="flags" stroke="none" stroke-width="1" fill="none" fill-rule="evenodd">
        <g id="suriname" fill-rule="nonzero">
            <circle id="Oval" fill="#F0F0F0" cx="16" cy="16" r="16"></circle>
            <path d="M31.00475,10.4348125 L0.995125,10.4348125 C0.3520625,12.1681875 0,14.042875 0,16 C0,17.957125 0.3520625,19.8319375 0.995125,21.5651875 L31.0048125,21.5651875 C31.648,19.8319375 32,17.957125 32,16 C32,14.042875 31.648,12.1681875 31.00475,10.4348125 Z" id="Shape" fill="#A2001D"></path>
            <g id="Group" transform="translate(2.812500, 0.000000)" fill="#6DA544">
                <path d="M13.2338125,32 C18.7139375,32 23.5499375,29.24425 26.4335625,25.0435 L0.034125,25.0435 C2.91775,29.24425 7.753625,32 13.2338125,32 Z" id="Shape"></path>
                <path d="M13.2338125,0.000125 C18.7139375,0.000125 23.5499375,2.755875 26.4335625,6.956625 L0.034125,6.956625 C2.91775,2.755875 7.753625,0.000125 13.2338125,0.000125 Z" id="Shape"></path>
            </g>
            <polygon id="Shape" fill="#FFDA44" points="16 10.4348125 17.3813125 14.6860625 21.851625 14.6860625 18.235125 17.3138125 19.6165625 21.5651875 16 18.93775 12.3834375 21.5651875 13.7649375 17.3138125 10.148375 14.6860625 14.6186875 14.6860625"></polygon>
        </g>
    </g>
</svg>