<?xml version="1.0" encoding="UTF-8"?>
<svg width="32px" height="32px" viewBox="0 0 32 32" version="1.1" xmlns="http://www.w3.org/2000/svg" xmlns:xlink="http://www.w3.org/1999/xlink">
    <!-- Generator: Sketch 50.2 (55047) - http://www.bohemiancoding.com/sketch -->
    <title>swaziland@1x</title>
    <desc>Created with Sketch.</desc>
    <defs></defs>
    <g id="flags" stroke="none" stroke-width="1" fill="none" fill-rule="evenodd">
        <g id="swaziland" fill-rule="nonzero">
            <path d="M30.412375,22.9565 C31.4295,20.8530625 32,18.493125 32,16 C32,13.506875 31.4295,11.1469375 30.412375,9.0435 L16,8.3478125 L1.587625,9.0434375 C0.5705,11.1469375 0,13.506875 0,16 C0,18.493125 0.5705,20.8530625 1.587625,22.9565 L16,23.6521875 L30.412375,22.9565 Z" id="Shape" fill="#FFDA44"></path>
            <path d="M16,0 C9.656625,0 4.175625,3.6915625 1.587625,9.0435 L30.4123125,9.0435 C27.824375,3.6915625 22.3433125,0 16,0 Z" id="Shape" fill="#000000"></path>
            <path d="M16,32 C9.656625,32 4.175625,28.3084375 1.587625,22.9565 L30.4123125,22.9565 C27.824375,28.3084375 22.3433125,32 16,32 Z" id="Shape" fill="#0052B4"></path>
            <path d="M31.2444375,11.1304375 L0.7555625,11.1304375 C0.2654375,12.666 0,14.3019375 0,16 C0,17.6980625 0.2654375,19.334 0.7555625,20.8695625 L31.244375,20.8695625 C31.7345625,19.334 32,17.6980625 32,16 C32,14.3019375 31.7345625,12.666 31.2444375,11.1304375 Z" id="Shape" fill="#A2001D"></path>
            <g id="Group" transform="translate(5.562500, 12.500000)" fill="#FFDA44">
                <rect id="Rectangle-path" x="0.0026875" y="2.804375" width="20.8695625" height="1.3913125"></rect>
                <rect id="Rectangle-path" x="2.7853125" y="0.02175" width="15.304375" height="1.3913125"></rect>
            </g>
            <path d="M23.7515625,16 C23.7515625,16 20.173875,20.1739375 16,20.1739375 C11.8260625,20.1739375 11.8260625,16 11.8260625,16 C11.8260625,16 11.8260625,11.8260625 16,11.8260625 C20.1739375,11.8260625 23.7515625,16 23.7515625,16 Z" id="Shape" fill="#F0F0F0"></path>
            <path d="M16,20.1739375 C11.8260625,20.1739375 8.2484375,16 8.2484375,16 C8.2484375,16 11.8260625,11.8260625 16,11.8260625" id="Shape" fill="#000000"></path>
            <rect id="Rectangle-path" fill="#F0F0F0" x="13.217375" y="14.6086875" width="1.3913125" height="2.782625"></rect>
            <rect id="Rectangle-path" fill="#000000" x="17.3913125" y="14.6086875" width="1.3913125" height="2.782625"></rect>
            <g id="Group" transform="translate(4.125000, 14.562500)" fill="#0052B4">
                <circle id="Oval" cx="1.4401875" cy="1.4375" r="1.3913125"></circle>
                <circle id="Oval" cx="22.3098125" cy="1.4375" r="1.3913125"></circle>
            </g>
        </g>
    </g>
</svg>