<?xml version="1.0" encoding="UTF-8"?>
<svg width="32px" height="32px" viewBox="0 0 32 32" version="1.1" xmlns="http://www.w3.org/2000/svg" xmlns:xlink="http://www.w3.org/1999/xlink">
    <!-- Generator: Sketch 50.2 (55047) - http://www.bohemiancoding.com/sketch -->
    <title>syria@1x</title>
    <desc>Created with Sketch.</desc>
    <defs></defs>
    <g id="flags" stroke="none" stroke-width="1" fill="none" fill-rule="evenodd">
        <g id="syria" fill-rule="nonzero">
            <circle id="Oval" fill="#F0F0F0" cx="16" cy="16" r="16"></circle>
            <path d="M16,0 C9.1205625,0 3.255875,4.342 0.9951875,10.4348125 L31.004875,10.4348125 C28.744125,4.342 22.8794375,0 16,0 Z" id="Shape" fill="#D80027"></path>
            <path d="M16,32 C22.8794375,32 28.744125,27.658 31.0048125,21.5651875 L0.9951875,21.5651875 C3.255875,27.658 9.1205625,32 16,32 Z" id="Shape" fill="#000000"></path>
            <g id="Group" transform="translate(5.875000, 12.125000)" fill="#6DA544">
                <polygon id="Shape" points="3.685125 0.0489375 4.5484375 2.7059375 7.342375 2.7059375 5.0820625 4.3483125 5.9454375 7.0054375 3.685125 5.36325 1.4248125 7.0054375 2.2881875 4.3483125 0.027875 2.7059375 2.8218125 2.7059375"></polygon>
                <polygon id="Shape" points="16.564875 0.0489375 17.4281875 2.7059375 20.2221875 2.7059375 17.9618125 4.3483125 18.8251875 7.0054375 16.564875 5.36325 14.3045625 7.0054375 15.1679375 4.3483125 12.907625 2.7059375 15.7015625 2.7059375"></polygon>
            </g>
        </g>
    </g>
</svg>