<?xml version="1.0" encoding="UTF-8"?>
<svg width="31px" height="31px" viewBox="0 0 31 31" version="1.1" xmlns="http://www.w3.org/2000/svg" xmlns:xlink="http://www.w3.org/1999/xlink">
    <!-- Generator: Sketch 50.2 (55047) - http://www.bohemiancoding.com/sketch -->
    <title>taiwan@1x</title>
    <desc>Created with Sketch.</desc>
    <defs></defs>
    <g id="flags" stroke="none" stroke-width="1" fill="none" fill-rule="evenodd">
        <g id="taiwan" fill-rule="nonzero">
            <path d="M31,15.5 C31,24.0603594 24.0603594,31 15.5,31 C6.93964062,31 0,24.0603594 0,15.5 C5.32388672,10.1761133 9.83910937,5.66089062 15.5,0 C24.0603594,0 31,6.93964063 31,15.5 Z" id="Shape" fill="#D80027"></path>
            <path d="M15.5,15.5 C15.5,6.93964063 15.5,5.93044531 15.5,0 C6.93964063,0 0,6.93964063 0,15.5 L15.5,15.5 Z" id="Shape" fill="#0052B4"></path>
            <polygon id="Shape" fill="#F0F0F0" points="13.4782793 9.07119336 11.5852812 9.9617168 12.5932656 11.7950156 10.5377598 11.4017031 10.2772266 13.4782793 8.84553516 11.9510449 7.41372266 13.4782793 7.15331055 11.4017031 5.09774414 11.7948945 6.10572852 9.9615957 4.21279102 9.07119336 6.10578906 8.18085156 5.09774414 6.34749219 7.15325 6.74074414 7.4137832 4.66422852 8.84553516 6.19146289 10.2772871 4.66422852 10.5377598 6.74074414 12.5933262 6.34749219 11.5852812 8.18091211"></polygon>
            <circle id="Oval" fill="#0052B4" cx="8.84577734" cy="9.07089063" r="2.88524023"></circle>
            <path d="M8.84553516,10.6085996 C7.99781836,10.6085996 7.30818945,9.91891016 7.30818945,9.07119336 C7.30818945,8.22347656 7.99787891,7.53378711 8.84553516,7.53378711 C9.69325195,7.53378711 10.3829414,8.22347656 10.3829414,9.07119336 C10.3828809,9.91891016 9.69313086,10.6085996 8.84553516,10.6085996 Z" id="Shape" fill="#F0F0F0"></path>
        </g>
    </g>
</svg>