<?xml version="1.0" encoding="UTF-8"?>
<svg width="32px" height="32px" viewBox="0 0 32 32" version="1.1" xmlns="http://www.w3.org/2000/svg" xmlns:xlink="http://www.w3.org/1999/xlink">
    <!-- Generator: Sketch 50.2 (55047) - http://www.bohemiancoding.com/sketch -->
    <title>tajikistan@1x</title>
    <desc>Created with Sketch.</desc>
    <defs></defs>
    <g id="flags" stroke="none" stroke-width="1" fill="none" fill-rule="evenodd">
        <g id="tajikistan" fill-rule="nonzero">
            <path d="M1.587625,9.0435 C0.5705,11.147 0,13.506875 0,16 C0,18.493125 0.5705,20.853 1.587625,22.9565 L16,24.3478125 L30.412375,22.9565 C31.4295,20.853 32,18.493125 32,16 C32,13.506875 31.4295,11.147 30.412375,9.0435 L16,7.6521875 L1.587625,9.0435 Z" id="Shape" fill="#F0F0F0"></path>
            <path d="M1.5881875,22.9565 C4.176125,28.308375 9.6566875,32 16,32 C22.3433125,32 27.8239375,28.308375 30.4118125,22.9565 L1.5881875,22.9565 Z" id="Shape" fill="#6DA544"></path>
            <path d="M1.5881875,9.0435 L30.4118125,9.0435 C27.8239375,3.691625 22.3433125,0 16,0 C9.6566875,0 4.176125,3.691625 1.5881875,9.0435 Z" id="Shape" fill="#D80027"></path>
            <g id="Group" transform="translate(8.875000, 11.437500)" fill="#FFDA44">
                <polygon id="Shape" points="4.342375 8.7364375 9.907625 8.7364375 9.907625 6.3711875 8.7945625 6.9276875 7.125 5.258125 5.4554375 6.9276875 4.342375 6.3711875"></polygon>
                <polygon id="Shape" points="1.15825 5.9538125 1.4173125 6.7509375 2.2554375 6.7509375 1.5773125 7.243625 1.836375 8.04075 1.15825 7.548125 0.480125 8.04075 0.7391875 7.243625 0.0610625 6.7509375 0.8991875 6.7509375"></polygon>
                <polygon id="Shape" points="1.9613125 3.1711875 2.220375 3.9683125 3.0585 3.9683125 2.380375 4.461 2.639375 5.258125 1.9613125 4.7655 1.2831875 5.258125 1.54225 4.461 0.864125 3.9683125 1.70225 3.9683125"></polygon>
                <polygon id="Shape" points="4.2570625 1.08425 4.516125 1.881375 5.3541875 1.881375 4.6761875 2.3740625 4.935125 3.1711875 4.2570625 2.6785625 3.579 3.1711875 3.838 2.3740625 3.159875 1.881375 3.9980625 1.881375"></polygon>
                <polygon id="Shape" points="13.09175 5.9538125 12.8326875 6.7509375 11.9945625 6.7509375 12.6726875 7.243625 12.413625 8.04075 13.09175 7.548125 13.7698125 8.04075 13.5108125 7.243625 14.1889375 6.7509375 13.3508125 6.7509375"></polygon>
                <polygon id="Shape" points="12.2886875 3.1711875 12.029625 3.9683125 11.1915 3.9683125 11.869625 4.461 11.6105625 5.258125 12.2886875 4.7655 12.9668125 5.258125 12.70775 4.461 13.385875 3.9683125 12.54775 3.9683125"></polygon>
                <polygon id="Shape" points="9.9929375 1.08425 9.733875 1.881375 8.8958125 1.881375 9.5738125 2.3740625 9.3148125 3.1711875 9.9929375 2.6785625 10.671 3.1711875 10.412 2.3740625 11.0900625 1.881375 10.2519375 1.881375"></polygon>
                <polygon id="Shape" points="7.125 0.0406875 7.3840625 0.8378125 8.2221875 0.8378125 7.5440625 1.3305 7.803125 2.127625 7.125 1.635 6.446875 2.127625 6.7059375 1.3305 6.0278125 0.8378125 6.8659375 0.8378125"></polygon>
            </g>
        </g>
    </g>
</svg>