<?xml version="1.0" encoding="UTF-8"?>
<svg width="32px" height="32px" viewBox="0 0 32 32" version="1.1" xmlns="http://www.w3.org/2000/svg" xmlns:xlink="http://www.w3.org/1999/xlink">
    <!-- Generator: Sketch 50.2 (55047) - http://www.bohemiancoding.com/sketch -->
    <title>tanzania@1x</title>
    <desc>Created with Sketch.</desc>
    <defs></defs>
    <g id="flags" stroke="none" stroke-width="1" fill="none" fill-rule="evenodd">
        <g id="tanzania" fill-rule="nonzero">
            <circle id="Oval" fill="#FFDA44" cx="16" cy="16" r="16"></circle>
            <path d="M4.68625,27.31375 C5.3574375,27.9849375 6.0735625,28.5835 6.82475,29.1105 L29.110375,6.8248125 C28.5835,6.073625 27.984875,5.3575 27.3136875,4.6863125 C26.6424375,4.015125 25.926375,3.416625 25.1751875,2.889625 L2.889625,25.1753125 C3.4165,25.9263125 4.015125,26.6425 4.68625,27.31375 Z" id="Shape" fill="#000000"></path>
            <path d="M4.68625,4.68625 C-0.361375,9.734 -1.3304375,17.3146875 1.77725,23.336125 L23.336125,1.7773125 C17.3146875,-1.330375 9.7339375,-0.36125 4.68625,4.68625 Z" id="Shape" fill="#6DA544"></path>
            <path d="M27.3136875,27.31375 C32.3613125,22.266125 33.3303125,14.6853125 30.22275,8.663875 L8.663875,30.22275 C14.6851875,33.3304375 22.266,32.361375 27.3136875,27.31375 Z" id="Shape" fill="#338AF3"></path>
        </g>
    </g>
</svg>