<?xml version="1.0" encoding="UTF-8"?>
<svg width="32px" height="32px" viewBox="0 0 32 32" version="1.1" xmlns="http://www.w3.org/2000/svg" xmlns:xlink="http://www.w3.org/1999/xlink">
    <!-- Generator: Sketch 50.2 (55047) - http://www.bohemiancoding.com/sketch -->
    <title>east-timor@1x</title>
    <desc>Created with Sketch.</desc>
    <defs></defs>
    <g id="flags" stroke="none" stroke-width="1" fill="none" fill-rule="evenodd">
        <g id="east-timor" fill-rule="nonzero">
            <circle id="Oval" fill="#FFDA44" cx="16.0311891" cy="15.9688109" r="15.9688109"></circle>
            <path d="M16.0311891,0 C12.1215127,0 8.54063158,1.40581676 5.76467836,3.7385731 L22.9741287,15.9688109 L5.76467836,28.1990487 C8.54063158,30.5318051 12.1215127,31.9376218 16.0311891,31.9376218 C24.8504639,31.9376218 32,24.7880858 32,15.9688109 C32,7.14953606 24.8504639,0 16.0311891,0 Z" id="Shape" fill="#D80027"></path>
            <path d="M4.73949318,4.67711501 C-1.49670175,10.9133099 -1.49670175,21.0242495 4.73949318,27.2605068 C7.31652242,24.6834776 9.79499415,22.2050058 16.0311891,15.9688109 L4.73949318,4.67711501 Z" id="Shape" fill="#000000"></path>
            <polygon id="Shape" fill="#F0F0F0" points="4.48991813 12.3106433 6.92017154 14.6106511 9.85868226 13.0097778 8.42242495 16.032 10.8527407 18.3320702 7.53459649 17.8999142 6.09815205 20.9220741 5.48391423 17.6327485 2.16576998 17.2004678 5.10415595 15.5997817"></polygon>
        </g>
    </g>
</svg>