<?xml version="1.0" encoding="UTF-8"?>
<svg width="32px" height="32px" viewBox="0 0 32 32" version="1.1" xmlns="http://www.w3.org/2000/svg" xmlns:xlink="http://www.w3.org/1999/xlink">
    <!-- Generator: Sketch 50.2 (55047) - http://www.bohemiancoding.com/sketch -->
    <title>tokelau@1x</title>
    <desc>Created with Sketch.</desc>
    <defs></defs>
    <g id="flags" stroke="none" stroke-width="1" fill="none" fill-rule="evenodd">
        <g id="tokelau" fill-rule="nonzero">
            <circle id="Oval" fill="#FFDA44" cx="16" cy="16" r="16"></circle>
            <path d="M25.739125,7.6521875 C25.595625,8.341875 25.5304375,9.0764375 25.5304375,9.8086875 C25.5304375,14.0295625 28.046625,17.68275 31.6525625,19.3273125 C31.879625,18.2538125 32,17.141 32,16 C32,7.1635 24.8365,0 16,0 C7.1635,0 0,7.1635 0,16 C0,24.8365 7.1635,32 16,32 C21.480125,32 26.316125,29.24425 29.19975,25.0435 L9.0435,25.0435 L9.0435,22.9565625 L30.412375,22.9565625 C30.6310625,22.5043125 30.828625,22.04 31.004875,21.56525 L9.0435,21.56525 L25.739125,7.6521875 Z" id="Shape" fill="#0052B4"></path>
            <g id="Group" transform="translate(1.875000, 4.812500)" fill="#F0F0F0">
                <polygon id="Shape" points="9.8795 3.5353125 10.224875 4.5981875 11.342375 4.5981875 10.4383125 5.255125 10.7836875 6.3179375 9.8795 5.661125 8.9754375 6.3179375 9.32075 5.255125 8.4165625 4.5981875 9.534125 4.5981875"></polygon>
                <polygon id="Shape" points="5.339875 11.1875 5.771625 12.5161875 7.1685 12.5161875 6.0383125 13.337125 6.4700625 14.66575 5.339875 13.844625 4.20975 14.66575 4.6414375 13.337125 3.5113125 12.5161875 4.9081875 12.5161875"></polygon>
                <polygon id="Shape" points="5.339875 0.0570625 5.771625 1.38575 7.1685 1.38575 6.0383125 2.2066875 6.4700625 3.5353125 5.339875 2.7141875 4.20975 3.5353125 4.6414375 2.2066875 3.5113125 1.38575 4.9081875 1.38575"></polygon>
                <polygon id="Shape" points="1.861625 6.3179375 2.293375 7.646625 3.6901875 7.646625 2.5600625 8.4675625 2.9918125 9.7961875 1.861625 8.9750625 0.7315 9.7961875 1.1631875 8.4675625 0.0330625 7.646625 1.429875 7.646625"></polygon>
            </g>
        </g>
    </g>
</svg>