<?xml version="1.0" encoding="UTF-8"?>
<svg width="32px" height="32px" viewBox="0 0 32 32" version="1.1" xmlns="http://www.w3.org/2000/svg" xmlns:xlink="http://www.w3.org/1999/xlink">
    <!-- Generator: Sketch 50.2 (55047) - http://www.bohemiancoding.com/sketch -->
    <title>trinidad-and-tobago@1x</title>
    <desc>Created with Sketch.</desc>
    <defs></defs>
    <g id="flags" stroke="none" stroke-width="1" fill="none" fill-rule="evenodd">
        <g id="trinidad-and-tobago" fill-rule="nonzero">
            <path d="M8.6635,1.776625 C7.231125,2.5159375 5.8865625,3.485 4.6858125,4.68575 C3.485,5.8865625 2.5159375,7.231125 1.7766875,8.6635 L12.064625,19.9353125 L23.3364375,30.22325 C24.768875,29.4839375 26.1134375,28.514875 27.3141875,27.3141875 C28.515,26.113375 29.484,24.7688125 30.2233125,23.3364375 L19.935375,12.0645625 L8.6635,1.776625 Z" id="Shape" fill="#F0F0F0"></path>
            <path d="M27.3141875,27.3141875 C27.985375,26.643 28.584,25.9268125 29.111,25.175625 L6.8244375,2.889 C6.07325,3.4159375 5.3570625,4.0145625 4.685875,4.68575 C4.0146875,5.3569375 3.4160625,6.073125 2.8890625,6.824375 L25.175625,29.110875 C25.92675,28.5839375 26.643,27.985375 27.3141875,27.3141875 Z" id="Shape" fill="#000000"></path>
            <g id="Group" fill="#D80027">
                <path d="M4.68575,27.3141875 C9.7336875,32.362125 17.31475,33.331125 23.336375,30.22325 L1.7766875,8.6635 C-1.331125,14.685125 -0.3619375,22.26625 4.68575,27.3141875 Z" id="Shape"></path>
                <path d="M27.3141875,4.6858125 C22.26625,-0.3620625 14.6851875,-1.3310625 8.6635625,1.776625 L30.22325,23.3365 C33.331125,17.314875 32.362125,9.7336875 27.3141875,4.6858125 Z" id="Shape"></path>
            </g>
        </g>
    </g>
</svg>