<?xml version="1.0" encoding="UTF-8"?>
<svg width="32px" height="32px" viewBox="0 0 32 32" version="1.1" xmlns="http://www.w3.org/2000/svg" xmlns:xlink="http://www.w3.org/1999/xlink">
    <!-- Generator: Sketch 50.2 (55047) - http://www.bohemiancoding.com/sketch -->
    <title>tunisia@1x</title>
    <desc>Created with Sketch.</desc>
    <defs></defs>
    <g id="flags" stroke="none" stroke-width="1" fill="none" fill-rule="evenodd">
        <g id="tunisia" fill-rule="nonzero">
            <circle id="Oval" fill="#D80027" cx="16" cy="16" r="16"></circle>
            <circle id="Oval" fill="#F0F0F0" cx="16" cy="16" r="7.6521875"></circle>
            <g id="Group" transform="translate(10.375000, 10.375000)" fill="#D80027">
                <polygon id="Shape" points="6.5676875 2.699125 7.8804375 4.5081875 10.0065 3.8188125 8.6916875 5.6263125 10.0043125 7.4353125 7.8789375 6.7433125 6.564125 8.5508125 6.5655 6.31575 4.4401875 5.62375 6.5663125 4.934375"></polygon>
                <path d="M7.364125,10.14675 C4.866875,10.14675 2.842375,8.12225 2.842375,5.625 C2.842375,3.12775 4.866875,1.10325 7.364125,1.10325 C8.14275,1.10325 8.8754375,1.300125 9.5150625,1.64675 C8.511625,0.6654375 7.1394375,0.05975 5.625,0.05975 C2.5515,0.05975 0.0598125,2.551375 0.0598125,5.6249375 C0.0598125,8.6985 2.5515,11.190125 5.625,11.190125 C7.1394375,11.190125 8.5116875,10.5844375 9.5150625,9.603125 C8.8754375,9.949875 8.14275,10.14675 7.364125,10.14675 Z" id="Shape"></path>
            </g>
        </g>
    </g>
</svg>