<?xml version="1.0" encoding="UTF-8"?>
<svg width="32px" height="32px" viewBox="0 0 32 32" version="1.1" xmlns="http://www.w3.org/2000/svg" xmlns:xlink="http://www.w3.org/1999/xlink">
    <!-- Generator: Sketch 50.2 (55047) - http://www.bohemiancoding.com/sketch -->
    <title>turks-and-caicos@1x</title>
    <desc>Created with Sketch.</desc>
    <defs></defs>
    <g id="flags" stroke="none" stroke-width="1" fill="none" fill-rule="evenodd">
        <g id="turks-and-caicos" fill-rule="nonzero">
            <path d="M32,16 C32,24.8365 24.8365,32 16,32 C7.1635,32 0,24.8365 0,16 C0,16.0038125 16,0.00175 16,0 C24.8365,0 32,7.1635 32,16 Z" id="Shape" fill="#0052B4"></path>
            <g id="Group" fill="#F0F0F0">
                <path d="M16.0188125,0 C16.0108125,0 16.0048125,0 15.9973125,0 L16.0188125,0 Z" id="Shape"></path>
                <path d="M15.9571875,16.2996875 L16.2996875,16.2996875 C16.2996875,16.1846875 16.2996875,16.0726875 16.2996875,15.9571875 C16.1856875,16.0716875 16.0716875,16.1856875 15.9571875,16.2996875 Z" id="Shape"></path>
                <path d="M16,8.3478125 C16,5.5325 16,3.6878125 16.0000625,0 L15.9973125,0 C7.1619375,0.0015 0,7.1643125 0,16 L8.3478125,16 L8.3478125,11.2993125 L13.0485,16 L15.95725,16 C15.9715,15.98575 15.98575,15.9715 16.0000625,15.9571875 C16.0000625,14.87925 16.0000625,13.9174375 16.0000625,13.048625 L11.29925,8.3478125 L16,8.3478125 Z" id="Shape"></path>
            </g>
            <g id="Group" transform="translate(2.062500, 2.062500)" fill="#D80027">
                <path d="M6.0321875,0.0244375 C3.52975,1.449375 1.4493125,3.52975 0.0244375,6.0321875 L0.0244375,13.9375 L4.198375,13.9375 L4.198375,4.1985 L4.198375,4.198375 L13.9375,4.198375 C13.9375,2.8819375 13.9375,1.6278125 13.9375,0.0244375 L6.0321875,0.0244375 Z" id="Shape"></path>
                <path d="M13.9375,11.9699375 L8.2528125,6.285375 L6.2853125,6.285375 L6.2853125,6.2855 L13.937375,13.9375 L13.9375,13.9375 C13.9375,13.9375 13.9375,12.5808125 13.9375,11.9699375 Z" id="Shape"></path>
            </g>
            <path d="M18.0869375,8.3478125 L18.0869375,15.9999375 C18.0869375,19.7274375 22.9565,20.8695625 22.9565,20.8695625 C22.9565,20.8695625 27.8260625,19.7274375 27.8260625,15.9999375 L27.8260625,8.3478125 L18.0869375,8.3478125 Z" id="Shape" fill="#FFDA44"></path>
            <path d="M22.260875,11.1304375 C22.260875,11.898875 21.638,13.9130625 20.8695625,13.9130625 C20.101125,13.9130625 19.47825,11.898875 19.47825,11.1304375 C19.47825,10.362 20.8695625,9.739125 20.8695625,9.739125 C20.8695625,9.739125 22.260875,10.362 22.260875,11.1304375 Z" id="Shape" fill="#FF9811"></path>
            <path d="M25.9528125,12.64575 C26.1773125,12.0979375 26.3519375,11.2971875 26.3519375,10.8985625 C26.3519375,10.2581875 25.517125,9.739125 25.517125,9.739125 C25.517125,9.739125 24.6823125,10.25825 24.6823125,10.8985625 C24.6823125,11.2971875 24.8569375,12.0979375 25.0814375,12.64575 L24.5995,13.733875 C24.88275,13.849 25.192375,13.913 25.5170625,13.913 C25.84175,13.913 26.151375,13.849 26.434625,13.733875 L25.9528125,12.64575 Z" id="Shape" fill="#A2001D"></path>
            <path d="M21.9130625,16 C21.9130625,16 21.2174375,17.3913125 21.2174375,18.782625 C21.2174375,18.782625 23.304375,18.782625 24.6956875,18.782625 C24.695625,17.3913125 24,16 24,16 L22.9565,15.304375 L21.9130625,16 Z" id="Shape" fill="#6DA544"></path>
            <path d="M24,16 L24,15.6521875 C24,15.0759375 23.5328125,14.6086875 22.9565,14.6086875 C22.38025,14.6086875 21.913,15.075875 21.913,15.6521875 L21.913,16 L24,16 Z" id="Shape" fill="#D80027"></path>
        </g>
    </g>
</svg>