<?xml version="1.0" encoding="UTF-8"?>
<svg width="32px" height="32px" viewBox="0 0 32 32" version="1.1" xmlns="http://www.w3.org/2000/svg" xmlns:xlink="http://www.w3.org/1999/xlink">
    <!-- Generator: Sketch 50.2 (55047) - http://www.bohemiancoding.com/sketch -->
    <title>turkmenistan@1x</title>
    <desc>Created with Sketch.</desc>
    <defs></defs>
    <g id="flags" stroke="none" stroke-width="1" fill="none" fill-rule="evenodd">
        <g id="turkmenistan" fill-rule="nonzero">
            <g id="Group" fill="#496E2D">
                <path d="M15.9999375,0 C14.8053125,0 13.641625,0.1320625 12.52175,0.3803125 L11.826125,15.9999375 L12.52175,31.619625 C13.6416875,31.867875 14.805375,32 15.9999375,32 C24.8365,32 31.9999375,24.8365 31.9999375,15.9999375 C31.999875,7.1634375 24.8365,0 15.9999375,0 Z" id="Shape"></path>
                <path d="M4.1739375,5.2231875 C1.5811875,8.0666875 6.25e-05,11.8485625 6.25e-05,15.9999375 C6.25e-05,20.1513125 1.58125,23.9331875 4.174,26.7768125 L4.869625,15.9999375 L4.1739375,5.2231875 Z" id="Shape"></path>
            </g>
            <g id="Group" transform="translate(13.875000, 5.687500)" fill="#F0F0F0">
                <path d="M9.5263125,6.3811875 C10.3135,4.1870625 9.429125,1.80075 7.5311875,0.61225 C7.8725625,0.6566875 8.2143125,0.7370625 8.5515625,0.858 C11.083,1.76625 12.398875,4.5545 11.490625,7.085875 C10.582375,9.6174375 7.794125,10.9331875 5.2626875,10.0249375 C4.925375,9.9039375 4.6104375,9.748625 4.31875,9.5659375 C6.539375,9.855125 8.739125,8.5753125 9.5263125,6.3811875 Z" id="Shape"></path>
                <polygon id="Shape" points="5.16025 0.0108125 4.4761875 0.8946875 3.424375 0.51725 4.0535 1.440875 3.3695625 2.324625 4.442375 2.01175 5.071625 2.93525 5.105375 1.81825 6.17825 1.5053125 5.1264375 1.128"></polygon>
                <polygon id="Shape" points="7.00725 2.89075 6.3231875 3.7745625 5.2713125 3.397125 5.9005 4.32075 5.2165 5.2045 6.2893125 4.8915 6.9185625 5.8151875 6.9524375 4.698125 8.02525 4.385125 6.973375 4.00775"></polygon>
                <polygon id="Shape" points="1.90375 1.0596875 1.2196875 1.9434375 0.167875 1.566125 0.7970625 2.4896875 0.1130625 3.3735 1.1858125 3.0605625 1.8150625 3.984125 1.8489375 2.867125 2.92175 2.5541875 1.8699375 2.17675"></polygon>
                <polygon id="Shape" points="1.82875 4.3585625 1.14475 5.242375 0.092875 4.865 0.722125 5.788625 0.038 6.672375 1.1109375 6.3595 1.740125 7.283 1.7739375 6.166 2.8468125 5.8530625 1.794875 5.475625"></polygon>
                <polygon id="Shape" points="4.967875 5.484875 4.2838125 6.368625 3.232 5.99125 3.86125 6.914875 3.177125 7.7985625 4.2500625 7.4856875 4.87925 8.4093125 4.9130625 7.2921875 5.9859375 6.9793125 4.934 6.6019375"></polygon>
            </g>
            <path d="M4.1739375,5.2231875 L4.1739375,26.77675 C6.3539375,29.167625 9.2495625,30.8941875 12.52175,31.6195625 L12.52175,0.3803125 C9.2495,1.1056875 6.354,2.83225 4.1739375,5.2231875 Z" id="Shape" fill="#D80027"></path>
            <polygon id="Shape" fill="#F0F0F0" points="7.3595625 8.4240625 5.962 7.3829375 5.962 5.910625 7.3595625 4.8695625 9.336125 4.8695625 10.7336875 5.910625 10.7336875 7.3829375 9.336125 8.4240625"></polygon>
            <g id="Group" transform="translate(5.937500, 4.812500)" fill="#FF9811">
                <polygon id="Shape" points="2.410375 0.0570625 1.4220625 0.0570625 0.0245 1.098125 0.0245 1.8179375 2.410375 1.8179375"></polygon>
                <polygon id="Shape" points="2.410375 3.6115625 3.398625 3.6115625 4.7961875 2.5704375 4.7961875 1.819375 2.410375 1.819375"></polygon>
            </g>
            <polygon id="Shape" fill="#F0F0F0" points="7.3595625 27.1303125 5.962 26.0891875 5.962 24.6169375 7.3595625 23.5758125 9.336125 23.5758125 10.7336875 24.6169375 10.7336875 26.0891875 9.336125 27.1303125"></polygon>
            <g id="Group" transform="translate(5.937500, 23.562500)" fill="#FF9811">
                <polygon id="Shape" points="2.410375 0.0133125 1.4220625 0.0133125 0.0245 1.0544375 0.0245 1.77425 2.410375 1.77425"></polygon>
                <polygon id="Shape" points="2.410375 3.5678125 3.398625 3.5678125 4.7961875 2.5266875 4.7961875 1.7756875 2.410375 1.7756875"></polygon>
            </g>
            <g id="Group" transform="translate(5.875000, 9.312500)" fill="#496E2D">
                <polygon id="Shape" points="1.4845625 8.4646875 0.087 7.4235625 0.087 5.9513125 1.4845625 4.9101875 3.461125 4.9101875 4.8586875 5.9513125 4.8586875 7.4235625 3.461125 8.4646875"></polygon>
                <polygon id="Shape" points="4.907625 10.7553125 4.298875 10.7553125 4.298875 10.146625 3.2291875 10.146625 2.4728125 9.39025 1.7165 10.146625 0.6468125 10.146625 0.6468125 10.7553125 0.038125 10.7553125 0.038125 11.9726875 0.6468125 11.9726875 0.6468125 12.581375 1.7164375 12.581375 2.472875 13.3378125 3.2291875 12.581375 4.298875 12.581375 4.298875 11.9726875 4.907625 11.9726875"></polygon>
                <polygon id="Shape" points="4.907625 1.402125 4.298875 1.402125 4.298875 0.793375 3.2291875 0.793375 2.4728125 0.037 1.7165 0.793375 0.6468125 0.793375 0.6468125 1.402125 0.038125 1.402125 0.038125 2.6195 0.6468125 2.6195 0.6468125 3.2281875 1.7164375 3.2281875 2.472875 3.9846875 3.2291875 3.2281875 4.298875 3.2281875 4.298875 2.6195 4.907625 2.6195"></polygon>
            </g>
            <g id="Group" transform="translate(7.625000, 10.625000)" fill="#D80027">
                <rect id="Rectangle-path" x="0.027125" y="4.67925" width="1.3913125" height="1.3913125"></rect>
                <circle id="Oval" cx="0.72275" cy="0.6980625" r="1"></circle>
                <circle id="Oval" cx="0.72275" cy="10.05175" r="1"></circle>
            </g>
        </g>
    </g>
</svg>