<?xml version="1.0" encoding="UTF-8"?>
<svg width="32px" height="32px" viewBox="0 0 32 32" version="1.1" xmlns="http://www.w3.org/2000/svg" xmlns:xlink="http://www.w3.org/1999/xlink">
    <!-- Generator: Sketch 50.2 (55047) - http://www.bohemiancoding.com/sketch -->
    <title>tuvalu@1x</title>
    <desc>Created with Sketch.</desc>
    <defs></defs>
    <g id="flags" stroke="none" stroke-width="1" fill="none" fill-rule="evenodd">
        <g id="tuvalu" fill-rule="nonzero">
            <path d="M32,16 C32,24.8365 24.8365,32 16.0000625,32 C7.1635,32 0,24.8365 0,16 C0,16.0038125 16.0000625,0.00175 16.0000625,0 C24.8365,0 32,7.1635 32,16 Z" id="Shape" fill="#338AF3"></path>
            <g id="Group" transform="translate(7.625000, 7.625000)" fill="#0052B4">
                <polygon id="Shape" points="0.0271875 8.375 5.4235625 8.375 0.7228125 2.8098125 0.0271875 4.89675"></polygon>
                <polygon id="Shape" points="8.3750625 5.423625 2.8098125 0.0271875 8.375 0.0271875"></polygon>
            </g>
            <g id="Group" fill="#F0F0F0">
                <path d="M16.018875,0 C16.010875,0 16.004375,0 15.997375,0 L16.018875,0 Z" id="Shape"></path>
                <path d="M15.9571875,16.2996875 L16.2996875,16.2996875 C16.2996875,16.1846875 16.2996875,16.0726875 16.2996875,15.9571875 C16.1856875,16.0716875 16.0716875,16.1856875 15.9571875,16.2996875 Z" id="Shape"></path>
                <path d="M16.0000625,8.3478125 C16.0000625,5.5325 16.0000625,3.68775 16.000125,0 L15.997375,0 C7.162,0.0015 0,7.1643125 0,16 L8.347875,16 L8.347875,11.2993125 L13.0485625,16 L15.9573125,16 C15.9715625,15.98575 15.9858125,15.9715 16.000125,15.9571875 C16.000125,14.87925 16.000125,13.9174375 16.000125,13.048625 L11.29925,8.3478125 L16.0000625,8.3478125 Z" id="Shape"></path>
            </g>
            <g id="Group" transform="translate(2.062500, 2.062500)" fill="#D80027">
                <path d="M6.0321875,0.0244375 C3.52975,1.449375 1.449375,3.52975 0.0244375,6.0321875 L0.0244375,13.9375 L4.198375,13.9375 L4.198375,4.1985 L4.198375,4.198375 L13.9375,4.198375 C13.9375,2.8819375 13.9375,1.6278125 13.9375,0.0244375 L6.0321875,0.0244375 Z" id="Shape"></path>
                <path d="M13.9375625,11.9699375 L8.252875,6.285375 L6.285375,6.285375 L6.285375,6.2855 L13.9374375,13.9375 L13.9375625,13.9375 C13.9375625,13.9375 13.9375625,12.5808125 13.9375625,11.9699375 Z" id="Shape"></path>
            </g>
            <g id="Group" transform="translate(16.000000, 9.000000)" fill="#FFDA44">
                <polygon id="Shape" points="1.462875 17.4348125 1.80825 18.4976875 2.9258125 18.4976875 2.02175 19.1545625 2.367125 20.217375 1.462875 19.5605625 0.5588125 20.217375 0.9041875 19.1545625 0 18.4976875 1.1175 18.4976875"></polygon>
                <polygon id="Shape" points="10.3631875 10.47825 10.7085 11.541125 11.8260625 11.541125 10.922 12.1980625 11.2674375 13.260875 10.3631875 12.6040625 9.459125 13.260875 9.8045 12.1980625 8.90025 11.541125 10.0178125 11.541125"></polygon>
                <polygon id="Shape" points="12.5933125 0.0435 12.9386875 1.106375 14.05625 1.106375 13.1521875 1.76325 13.4975 2.8260625 12.5933125 2.16925 11.68925 2.8260625 12.034625 1.76325 11.1304375 1.106375 12.248 1.106375"></polygon>
                <polygon id="Shape" points="13.1458125 7.695625 13.491125 8.7585625 14.6086875 8.7585625 13.704625 9.4154375 14.05 10.47825 13.1458125 9.8214375 12.24175 10.47825 12.587125 9.4154375 11.682875 8.7585625 12.8004375 8.7585625"></polygon>
                <polygon id="Shape" points="3.065375 14.9349375 4.0613125 15.442375 4.8515 14.6521875 4.67675 15.755875 5.6724375 16.26325 4.5685625 16.438125 4.39375 17.5419375 3.8865 16.546125 2.782625 16.7210625 3.5728125 15.930875"></polygon>
                <polygon id="Shape" points="3.065375 10.7610625 4.0613125 11.2684375 4.8515 10.47825 4.67675 11.582 5.6724375 12.0893125 4.5685625 12.2641875 4.39375 13.368 3.8865 12.37225 2.782625 12.547125 3.5728125 11.7569375"></polygon>
                <polygon id="Shape" points="6.543625 13.4365 7.5395625 13.9439375 8.32975 13.15375 8.155 14.2574375 9.1506875 14.7648125 8.0468125 14.9396875 7.872 16.0435 7.36475 15.047625 6.260875 15.222625 7.0510625 14.4324375"></polygon>
                <polygon id="Shape" points="6.543625 4.5001875 7.5395625 5.0075625 8.32975 4.217375 8.155 5.321125 9.1506875 5.8284375 8.0468125 6.0033125 7.872 7.107125 7.36475 6.111375 6.260875 6.28625 7.0510625 5.4960625"></polygon>
                <polygon id="Shape" points="9.9146875 4.3930625 10.910625 4.9004375 11.7008125 4.11025 11.526 5.214 12.52175 5.7213125 11.417875 5.8961875 11.2430625 7 10.7358125 6.00425 9.6319375 6.179125 10.422125 5.3889375"></polygon>
            </g>
        </g>
    </g>
</svg>