<?xml version="1.0" encoding="UTF-8"?>
<svg width="32px" height="32px" viewBox="0 0 32 32" version="1.1" xmlns="http://www.w3.org/2000/svg" xmlns:xlink="http://www.w3.org/1999/xlink">
    <!-- Generator: Sketch 50.2 (55047) - http://www.bohemiancoding.com/sketch -->
    <title>uganda@1x</title>
    <desc>Created with Sketch.</desc>
    <defs></defs>
    <g id="flags" stroke="none" stroke-width="1" fill="none" fill-rule="evenodd">
        <g id="uganda" fill-rule="nonzero">
            <path d="M27.9245625,26.666625 C30.4585,23.835875 32,20.09825 32,16 C32,11.90175 30.4584375,8.1640625 27.9245,5.3333125 L16,4.1739375 L4.0755,5.3333125 C1.5415625,8.1640625 0,11.90175 0,16 C0,20.09825 1.5415,23.835875 4.0754375,26.666625 L16,27.8260625 L27.9245625,26.666625 Z" id="Shape" fill="#FFDA44"></path>
            <path d="M4.0755,5.3333125 L27.9245625,5.3333125 C24.994875,2.060375 20.7383125,0 16,0 C11.2616875,0 7.005125,2.060375 4.0755,5.3333125 Z" id="Shape" fill="#000000"></path>
            <path d="M0,16 L16,17.3913125 L32,16 C32,14.12975 31.6780625,12.334875 31.08825,10.666625 L0.91175,10.666625 C0.3219375,12.334875 0,14.12975 0,16 Z" id="Shape" fill="#D80027"></path>
            <path d="M0.91175,21.3333125 L31.088375,21.3333125 C31.6780625,19.6650625 32,17.87025 32,16 L0,16 C0,17.87025 0.3219375,19.6650625 0.91175,21.3333125 Z" id="Shape" fill="#000000"></path>
            <path d="M27.9245625,26.666625 L4.0754375,26.666625 C7.0050625,29.939625 11.261625,32 16,32 C20.738375,32 24.9949375,29.939625 27.9245625,26.666625 Z" id="Shape" fill="#D80027"></path>
            <path d="M21.339125,16 C21.339125,18.9489375 18.9489375,21.339125 16,21.339125 C13.0510625,21.339125 10.660875,18.9489375 10.660875,16 C10.660875,13.0510625 13.0510625,10.660875 16,10.660875 C18.9489375,10.660875 21.339125,13.0510625 21.339125,16 Z" id="Shape" fill="#F0F0F0"></path>
            <path d="M17.9559375,16.27225 L16,15.4246875 C16,15.4246875 16.457625,13.90575 16.482,13.8018125 C16.4998125,13.725875 16.5093125,13.6466875 16.5093125,13.5653125 C16.5093125,13.277125 16.3925,13.01625 16.203625,12.8275 L16.6955,12.335625 C16.3808125,12.0209375 15.946,11.82625 15.46575,11.82625 C14.9855,11.82625 14.5506875,12.020875 14.236,12.335625 L14.727875,12.8275 C14.539,13.0163125 14.42225,13.2771875 14.42225,13.5653125 C14.42225,13.6706875 14.4381875,13.77225 14.46725,13.8681875 L13.7266875,14.6086875 L15.0726875,14.6086875 C15.0726875,14.6086875 14.5161875,15.4445625 14.212375,16.131 C13.9085625,16.817375 14.2165625,17.6553125 14.9186875,17.9674375 L15.3246875,18.147875 L16,18.782625 L16,19.47825 L15.304375,20.173875 L16.6956875,20.173875 L16.6956875,18.7825625 L17.3305,18.14775 L18.6435,18.14775 C18.6498125,18.1346875 18.6564375,18.1219375 18.6624375,18.1085625 C18.974375,17.4065 18.658125,16.58425 17.9559375,16.27225 Z" id="Shape" fill="#000000"></path>
        </g>
    </g>
</svg>