<?xml version="1.0" encoding="UTF-8"?>
<svg width="32px" height="32px" viewBox="0 0 32 32" version="1.1" xmlns="http://www.w3.org/2000/svg" xmlns:xlink="http://www.w3.org/1999/xlink">
    <!-- Generator: Sketch 50.2 (55047) - http://www.bohemiancoding.com/sketch -->
    <title>england@1x</title>
    <desc>Created with Sketch.</desc>
    <defs></defs>
    <g id="flags" stroke="none" stroke-width="1" fill="none" fill-rule="evenodd">
        <g id="england" fill-rule="nonzero">
            <path d="M0.501010101,12.1777778 C2.61818182,3.62020202 11.2646465,-1.59191919 19.8222222,0.525252525 C28.379798,2.64242424 33.5919192,11.2888889 31.4747475,19.8464646 C29.3575758,28.3959596 20.7111111,33.6161616 12.1535354,31.4989899 C3.6040404,29.3737374 -1.61616162,20.7272727 0.501010101,12.1777778" id="Shape" fill="#223C72"></path>
            <path d="M27.3050505,4.75959596 L20.8888889,9.03434343 L20.8888889,0.824242424 C20.5414141,0.711111111 20.1858586,0.606060606 19.8222222,0.517171717 C16.8161616,-0.226262626 13.7939394,-0.0646464646 11.0464646,0.832323232 L11.0464646,9.03434343 L4.65454545,4.77575758 C3.19191919,6.24646465 2.0040404,8.02424242 1.1959596,10.0363636 L2.88484848,11.1676768 L0.783838384,11.1676768 C0.678787879,11.4989899 0.581818182,11.8383838 0.501010101,12.1777778 C-0.250505051,15.2080808 -0.0808080808,18.2545455 0.832323232,21.010101 L2.92525253,21.010101 L1.25252525,22.1252525 C2.06060606,24.0727273 3.25656566,25.8585859 4.76767677,27.3454545 L11.0464646,23.159596 L11.0464646,31.1676768 C11.410101,31.2888889 11.7818182,31.3939394 12.1535354,31.4828283 C15.1515152,32.2262626 18.1575758,32.0646465 20.8888889,31.1838384 L20.8888889,23.159596 L27.1919192,27.3616162 C28.6707071,25.9070707 29.8828283,24.1454545 30.7151515,22.1414141 L29.010101,21.0020202 L31.1434343,21.0020202 C31.2727273,20.6222222 31.3858586,20.2262626 31.4828283,19.830303 C32.2181818,16.8565657 32.0646465,13.8747475 31.2,11.1515152 L29.0585859,11.1515152 L30.7878788,10.0040404 C29.979798,8.05656566 28.8,6.26262626 27.3050505,4.75959596" id="Shape" fill="#EFEBE7"></path>
            <path d="M8.58989899,11.159596 L2.66666667,7.21616162 C2.27070707,7.81414141 1.91515152,8.44444444 1.6,9.0989899 L4.69494949,11.159596 L8.58989899,11.159596 Z M29.2848485,7.19191919 C28.8888889,6.59393939 28.4444444,6.02020202 27.9676768,5.47070707 L20.8888889,10.1818182 L20.8888889,11.159596 L23.3131313,11.159596 L29.2848485,7.19191919 Z M2.70707071,24.8484848 C3.1030303,25.4464646 3.54747475,26.020202 4.02424242,26.5616162 L11.0383838,21.8989899 L11.0383838,21.010101 L8.48484848,21.010101 L2.70707071,24.8484848 Z M31.7010101,13.2121212 L18.8444444,13.2121212 L18.8444444,0.307070707 C16.8969697,-0.0484848485 14.9575758,-0.0323232323 13.0989899,0.307070707 L13.0989899,13.2040404 L0.282828283,13.2040404 C-0.0646464646,15.1515152 -0.0404040404,17.0909091 0.307070707,18.9494949 L13.0909091,18.9494949 L13.0909091,31.6848485 C15.0383838,32.0484848 16.9777778,32.0323232 18.8363636,31.7010101 L18.8363636,18.9494949 L31.6606061,18.9494949 C32.0323232,17.010101 32.0323232,15.0707071 31.7010101,13.2121212 Z M23.4505051,21.010101 L29.2525253,24.8727273 C29.6484848,24.2747475 30.0121212,23.6525253 30.3272727,22.9979798 L27.3454545,21.010101 L23.4505051,21.010101 Z" id="Shape" fill="#EF3827"></path>
            <path d="M20.8888889,2.48888889 L20.8888889,3.52323232 C21.2222222,3.32929293 21.3888889,3.14343434 21.3888889,2.96565657 C21.3888889,2.7959596 21.2222222,2.63434343 20.8888889,2.48888889" id="Shape" fill="#303F66"></path>
        </g>
    </g>
</svg>