<?xml version="1.0" encoding="UTF-8"?>
<svg width="32px" height="32px" viewBox="0 0 32 32" version="1.1" xmlns="http://www.w3.org/2000/svg" xmlns:xlink="http://www.w3.org/1999/xlink">
    <!-- Generator: Sketch 50.2 (55047) - http://www.bohemiancoding.com/sketch -->
    <title>united-arab-emirates (1)@1x</title>
    <desc>Created with Sketch.</desc>
    <defs></defs>
    <g id="flags" stroke="none" stroke-width="1" fill="none" fill-rule="evenodd">
        <g id="united-arab-emirates-(1)" fill-rule="nonzero">
            <circle id="Oval" fill="#FFFFFF" cx="15.9898734" cy="15.9898059" r="15.9885232"></circle>
            <path d="M31.0645063,10.6580928 L21.2130295,10.6580928 C21.6409789,14.073654 21.6434768,17.837097 21.2213333,21.2569114 L31.0855021,21.2569114 C31.6613671,19.6070886 31.9779241,17.8353418 31.9779241,15.9893333 C31.9781941,14.1190886 31.6542785,12.3256034 31.0645063,10.6580928 Z" id="Shape" fill="#EFECEC"></path>
            <path d="M21.2130295,10.6580928 L31.0643038,10.6580928 C31.0628186,10.6530295 31.0612658,10.6487764 31.0592405,10.6441857 C29.0130633,4.8742616 23.7491983,0.629130802 17.4248101,0.0656202532 C19.8724726,1.40718987 20.5874093,5.65765401 21.2130295,10.6580928 Z" id="Shape" fill="#429945"></path>
            <path d="M17.4253502,31.9120338 C23.7610802,31.3475105 29.0322363,27.08773 31.0705823,21.302346 C31.0759156,21.2869536 31.0804388,21.2717637 31.0859747,21.2569114 L21.2216034,21.2569114 C20.6007764,26.2844219 19.8828017,30.5648608 17.4253502,31.9120338 Z" id="Shape" fill="#0B0B0B"></path>
            <path d="M0,15.9892658 C0,17.8355443 0.317097046,19.6070211 0.892421941,21.2568439 L22.0443544,21.2568439 C22.4669705,17.8367595 22.4639325,14.0735865 22.0365232,10.6580253 L0.913687764,10.6580253 C0.323915612,12.3256034 0,14.1190886 0,15.9892658 Z" id="Shape" fill="#EFEFEF"></path>
            <path d="M0.918683544,10.6442532 C0.917198312,10.6487764 0.91564557,10.653097 0.913620253,10.6581603 L22.0365232,10.6581603 C21.4104304,5.65765401 19.8724051,1.40725738 17.4250802,0.0656877637 C16.9516962,0.0237637131 16.4730464,6.75105485e-05 15.9888608,6.75105485e-05 C9.03331646,3.89743576e-16 3.11837975,4.4422616 0.918683544,10.6442532 Z" id="Shape" fill="#49A948"></path>
            <path d="M22.0443544,21.2568439 L0.892421941,21.2568439 C0.897755274,21.2717637 0.902751055,21.2868861 0.907814346,21.3022785 C3.09873418,27.520135 9.02217722,31.9781266 15.9888608,31.9781266 C16.4731139,31.9781266 16.9517637,31.9543629 17.4250802,31.9119662 C19.8828017,30.5648608 21.4235274,26.2844219 22.0443544,21.2568439 Z" id="Shape" fill="#151515"></path>
            <path d="M0,15.9892658 C0,22.6448608 4.06838819,28.3495021 9.85329958,30.7561857 L9.85329958,1.22187342 C4.06838819,3.62808439 0,9.33272574 0,15.9892658 Z" id="Shape" fill="#E73B36"></path>
        </g>
    </g>
</svg>