<?xml version="1.0" encoding="UTF-8"?>
<svg width="32px" height="32px" viewBox="0 0 32 32" version="1.1" xmlns="http://www.w3.org/2000/svg" xmlns:xlink="http://www.w3.org/1999/xlink">
    <!-- Generator: Sketch 50.2 (55047) - http://www.bohemiancoding.com/sketch -->
    <title>uruguay@1x</title>
    <desc>Created with Sketch.</desc>
    <defs></defs>
    <g id="flags" stroke="none" stroke-width="1" fill="none" fill-rule="evenodd">
        <g id="uruguay" fill-rule="nonzero">
            <circle id="Oval" fill="#F0F0F0" cx="16" cy="16" r="16"></circle>
            <path d="M16,11.8260625 L31.4488125,11.8260625 C31.047625,10.3376875 30.437875,8.935125 29.651625,7.652125 L16,7.652125 L16,11.8260625 Z" id="SVGCleanerId_0" fill="#338AF3"></path>
            <g id="Group" transform="translate(2.312500, 0.000000)" fill="#338AF3">
                <path d="M3.7276875,28.52175 L23.64725,28.52175 C25.1074375,27.35875 26.3596875,25.946125 27.3390625,24.3478125 L0.035875,24.3478125 C1.0153125,25.9460625 2.2675625,27.35875 3.7276875,28.52175 Z" id="Shape"></path>
                <path d="M13.6875,0 C13.6875,1.3913125 13.6875,3.47825 13.6875,3.47825 L23.6473125,3.47825 C20.9141875,1.3015 17.4530625,0 13.6875,0 Z" id="Shape"></path>
            </g>
            <path d="M16,11.8260625 L31.4488125,11.8260625 C31.047625,10.3376875 30.437875,8.935125 29.651625,7.652125 L16,7.652125 L16,11.8260625 Z" id="SVGCleanerId_0_1_" fill="#338AF3"></path>
            <path d="M0,16 C0,17.4441875 0.1925,18.8430625 0.5511875,20.1739375 L31.448875,20.1739375 C31.8075,18.8430625 32,17.4441875 32,16 L0,16 Z" id="Shape" fill="#338AF3"></path>
            <polygon id="Shape" fill="#FFDA44" points="13.9130625 9.3638125 11.9589375 10.283 12.9995 12.1755 10.877625 11.769625 10.60875 13.9130625 9.130875 12.3365625 7.652875 13.9130625 7.3840625 11.769625 5.2621875 12.175375 6.3026875 10.2829375 4.3486875 9.3638125 6.30275 8.44475 5.2621875 6.55225 7.384 6.958125 7.6529375 4.8146875 9.130875 6.3911875 10.6088125 4.8146875 10.877625 6.958125 12.9995625 6.55225 11.959 8.4448125"></polygon>
        </g>
    </g>
</svg>