<?xml version="1.0" encoding="UTF-8"?>
<svg width="33px" height="32px" viewBox="0 0 33 32" version="1.1" xmlns="http://www.w3.org/2000/svg" xmlns:xlink="http://www.w3.org/1999/xlink">
    <!-- Generator: Sketch 50.2 (55047) - http://www.bohemiancoding.com/sketch -->
    <title>virgin-islands-UEA@1x</title>
    <desc>Created with Sketch.</desc>
    <defs>
        <circle id="path-1" cx="16.5" cy="16" r="16"></circle>
    </defs>
    <g id="flags" stroke="none" stroke-width="1" fill="none" fill-rule="evenodd">
        <g id="virgin-islands-UEA">
            <mask id="mask-2" fill="white">
                <use xlink:href="#path-1"></use>
            </mask>
            <use id="Mask" fill="#D8D8D8" xlink:href="#path-1"></use>
            <g id="virgin-islands" mask="url(#mask-2)">
                <g transform="translate(-2.000000, -1.000000)">
                    <path d="M36,28.125 L36,7.875 C36,3.52575 32.47425,0 28.125,0 L7.875,0 C3.5263125,0 0.0009140625,3.52483594 0,7.8733125 L0,28.1266875 C0.0009140625,32.4751641 3.5263125,36 7.875,36 L28.125,36 C32.47425,36 36,32.47425 36,28.125 Z" id="Shape" fill="#F5F5F5" fill-rule="nonzero"></path>
                    <polygon id="Shape" fill="#4173CD" fill-rule="nonzero" points="26.2240119 19.2898746 26.3971343 19.8972 26.9987642 18.1092358 25.3300299 18.9890328 25.9572358 19.062806 23.9544537 21.4161313 23.9370448 21.3662687 25.5366806 18.0541075 25.8574567 18.5980836 25.9882925 16.716197 24.5957373 17.9887164 25.2212239 17.9017791 23.6216418 21.2139403 23.5717254 21.2312955 24.1697015 18.1995582 24.6174448 18.6448836 24.268997 16.7909373 23.2426746 18.3737552 23.8259821 18.1317493 23.1812597 21.4007642 22.9707403 21.8366328 22.7439403 21.9886925 22.6506627 22.4616896 21.8575343 23.3936597 22.4766806 23.343797 22.3643821 23.9133493 22.583391 23.7665015 22.6045075 24.0293015 22.9807881 23.5872 23.3266567 24.1031284 23.5634507 22.9025015 23.8758985 22.535409 23.8540299 22.263206 24.0644955 21.8273373"></polygon>
                    <path d="M11.8165433,17.5125493 C11.8845672,17.2067104 11.8423881,16.9202149 11.7258985,16.7437075 C11.5455761,16.8541791 11.3859403,17.095809 11.3179164,17.401594 C11.2864299,17.5432299 11.2807881,17.6794925 11.2929851,17.8038269 L10.9184776,17.2455045 C11.0709672,17.1211701 11.2022328,16.9082328 11.2618209,16.6404358 C11.3298448,16.334597 11.2876657,16.0481015 11.1711761,15.871594 C10.9908537,15.9820657 10.8312179,16.2236955 10.763194,16.5294806 C10.7269791,16.692394 10.7238627,16.8482149 10.7447642,16.9864657 L10.4915821,16.6090567 C10.5042627,16.4173433 10.4454269,16.1842567 10.3041134,15.9620776 C10.1359343,15.6977194 9.90354627,15.5249731 9.69635821,15.4825254 C9.64692537,15.6881552 9.70495522,15.9719104 9.8730806,16.2362149 C10.0159522,16.4608657 10.2047104,16.6137851 10.3855164,16.6823463 L10.6175284,17.0674925 C10.5011463,16.9899582 10.3586507,16.9266627 10.1957373,16.8904478 C9.88995224,16.8224239 9.60340299,16.864603 9.42689552,16.9810925 C9.53736716,17.1614149 9.77899701,17.3210507 10.0848358,17.3890746 C10.3526866,17.4486627 10.6011403,17.4200239 10.7784537,17.334591 L11.125397,17.9104836 C11.0179343,17.8467045 10.8921493,17.7940478 10.7504597,17.7625075 C10.4446209,17.6944836 10.1581254,17.7366627 9.98161791,17.8531522 C10.0920896,18.0334746 10.3337194,18.1931104 10.6395582,18.2611343 C10.8959642,18.3181433 11.1346388,18.2942866 11.3104478,18.2175582 L11.6298806,18.7477791 C11.5311224,18.6944776 11.4211881,18.6487522 11.2966388,18.6210806 C10.9908,18.5530567 10.7043045,18.5952358 10.527797,18.7117254 C10.6382687,18.8920478 10.8798985,19.0516836 11.1857373,19.1197075 C11.4308597,19.1742448 11.6606149,19.1554925 11.8341672,19.0869313 L12.1422627,19.5982925 C12.0537672,19.5549851 11.9585015,19.516997 11.8513612,19.4931403 C11.5455224,19.4251164 11.2590269,19.4672955 11.0825194,19.5837851 C11.192991,19.7641075 11.4346209,19.9237433 11.7404597,19.9917672 C11.9740836,20.0437254 12.1955104,20.0306149 12.3661612,19.9698985 L12.6467463,20.4356418 C12.5695881,20.4015224 12.4875403,20.3717552 12.3974866,20.3517672 C12.0917015,20.2837433 11.8051522,20.3259224 11.6286448,20.4424119 C11.7391164,20.6227343 11.9807463,20.7823701 12.2865851,20.850394 C12.509409,20.8999343 12.7207881,20.8897791 12.888,20.836209 L13.7792955,22.315594 L14.1578866,22.0747701 L13.1957731,20.6404119 C13.3151642,20.5116716 13.4140299,20.3245254 13.4635701,20.1017015 C13.531594,19.7958627 13.4894149,19.5093672 13.3729254,19.3328597 C13.192603,19.4433313 13.0329672,19.6849612 12.9649433,19.9907463 C12.9449552,20.0807463 12.9371104,20.1676836 12.9352299,20.2519881 L12.6324,19.8004836 C12.7596896,19.6716358 12.8654328,19.4766448 12.917391,19.2430209 C12.9854149,18.9372358 12.9432358,18.6506866 12.8267463,18.4741791 C12.6464239,18.5846507 12.4867881,18.8262806 12.4187642,19.1320657 C12.3949612,19.239206 12.388997,19.3415642 12.3906627,19.4400537 L12.0581194,18.9443284 C12.193791,18.8161791 12.3081851,18.6159761 12.3626687,18.3709075 C12.4306925,18.0650687 12.3885134,17.7785731 12.2720239,17.6020657 C12.0917015,17.7125373 11.9320657,17.9541672 11.8640418,18.2599522 C11.8363164,18.3844478 11.8311045,18.503409 11.8375522,18.6154388 L11.4927582,18.101391 C11.6368119,17.9750149 11.7595343,17.7689015 11.8165433,17.5125493 Z" id="Shape" fill="#73AF00" fill-rule="nonzero"></path>
                    <g id="Group" stroke-width="1" fill="none" fill-rule="evenodd" transform="translate(7.038806, 10.638806)">
                        <path d="M8.65262687,6.8238806 L8.1783403,3.978 L8.10494328,3.978 C7.6743403,3.978 7.37032836,3.55615522 7.50648358,3.14768955 L7.50798806,3.14312239 C7.61679403,2.81670448 7.4439403,2.4632597 7.11945672,2.34875821 L0.60678806,0.0501313433 C0.237653731,-0.0801671642 -0.110041791,0.291062687 0.0441671642,0.650901493 L0.75041194,2.29878806 C0.953570149,2.7728597 1.3057791,3.16778507 1.75362985,3.42370746 L3.56023881,4.45604776 C4.09991642,4.76441194 4.7106806,4.92662687 5.33224478,4.92662687 L5.33240597,4.92662687 L5.4944597,5.25073433 C5.97648358,6.21483582 6.96191642,6.8238806 8.03987463,6.8238806 L8.65262687,6.8238806 Z" id="Shape" fill="#FFE15A" fill-rule="nonzero"></path>
                        <path d="M14.3444418,6.8238806 L14.8187821,3.978 L14.8921791,3.978 C15.3227821,3.978 15.626794,3.55615522 15.4906388,3.14768955 L15.4891343,3.14312239 C15.3803284,2.81670448 15.5531821,2.4632597 15.8776657,2.34875821 L22.3876478,0.0510985075 C22.757803,-0.0795761194 23.1064119,0.292728358 22.9517731,0.653534328 L22.2466567,2.29884179 C22.0434985,2.77291343 21.6912896,3.16783881 21.2434388,3.42376119 L19.4368299,4.45610149 C18.8971522,4.76446567 18.2863881,4.9266806 17.6648239,4.9266806 L17.6646627,4.9266806 L17.502609,5.25078806 C17.0205313,6.21483582 16.0350985,6.8238806 14.9571403,6.8238806 L14.3444418,6.8238806 Z" id="Shape" fill="#FFE15A" fill-rule="nonzero"></path>
                        <path d="M13.3958149,3.5036597 L12.2192597,0.758364179 C12.0697791,0.40959403 11.7268119,0.183438806 11.3473612,0.183438806 L11.0242746,0.183438806 L10.5499343,0.657779104 L10.075594,0.657779104 L9.60125373,1.1321194 L10.2631701,1.1321194 C10.4309731,1.1321194 10.5441313,1.30368358 10.4780418,1.45794627 L9.60125373,3.50371343 L13.3958149,3.50371343 L13.3958149,3.5036597 Z" id="Shape" fill="#FFE15A" fill-rule="nonzero"></path>
                        <path d="M10.075594,8.24684776 L9.12691343,6.8238806 L8.25818507,7.69260896 C7.89372537,8.05706866 7.61910448,8.50142687 7.45608358,8.99043582 L7.22960597,9.66981493 L6.75526567,10.1441552 L6.13880597,10.1441552 C5.93527164,10.1441552 5.7492,10.2591403 5.6581791,10.4412358 L5.52438806,10.7087642 C5.43616119,10.8852179 5.56447164,11.0927821 5.7617194,11.0927821 L6.7553194,11.0927821 L7.07152836,10.4603642 L8.58374328,9.70425672 C8.62936119,9.68147463 8.67094925,9.65143881 8.70700299,9.61538507 L10.075594,8.24684776 Z" id="Shape" fill="#FFE15A" fill-rule="nonzero"></path>
                        <path d="M12.9214746,8.24684776 L13.8701015,6.8238806 L14.7388299,7.69260896 C15.1032896,8.05706866 15.3779104,8.50142687 15.5409313,8.99043582 L15.767409,9.66981493 L16.2417493,10.1441552 L16.8582627,10.1441552 C17.061797,10.1441552 17.2478687,10.2591403 17.3388896,10.4412358 L17.4726806,10.7087642 C17.5609075,10.8852179 17.432597,11.0927821 17.2353493,11.0927821 L16.2417493,11.0927821 L15.9255403,10.4603642 L14.4133254,9.70425672 C14.3677075,9.68147463 14.3261194,9.65143881 14.2900657,9.61538507 L12.9214746,8.24684776 Z" id="Shape" fill="#FFE15A" fill-rule="nonzero"></path>
                        <path d="M10.075594,8.72113433 L8.92284179,10.642406 C8.76734328,10.901606 8.82386866,11.2354388 9.05609552,11.4289791 L10.806609,12.8877851 C11.2074448,13.2217791 11.7896239,13.2217791 12.1904597,12.8877851 L13.9409731,11.4289791 C14.1732,11.2354925 14.2297254,10.901606 14.0742269,10.642406 L12.9214746,8.72113433 L10.075594,8.72113433 Z" id="Shape" fill="#FFE15A" fill-rule="nonzero"></path>
                    </g>
                    <path d="M18.5373134,13.6681254 C18.5373134,13.6681254 17.1143463,14.1424657 15.2170925,13.6681254 C15.2170925,13.6681254 15.2170925,14.6167522 15.2170925,15.5653791 C15.2170925,16.514006 15.6913791,19.3599403 18.5373134,20.3085672 C21.383194,19.3599403 21.8575343,16.514006 21.8575343,15.5653791 C21.8575343,14.6167522 21.8575343,13.6681254 21.8575343,13.6681254 C19.9602806,14.1424657 18.5373134,13.6681254 18.5373134,13.6681254 Z" id="Shape" fill="#F5F5F5" fill-rule="nonzero"></path>
                    <path d="M18.5373134,13.6681254 C18.5373134,13.6681254 17.1143463,14.1424657 15.2170925,13.6681254 C15.2170925,13.6681254 15.2170925,14.6167522 15.2170925,15.5653791 L21.8575343,15.5653791 C21.8575343,14.6167522 21.8575343,13.6681254 21.8575343,13.6681254 C19.9602806,14.1424657 18.5373134,13.6681254 18.5373134,13.6681254 Z" id="Shape" fill="#41479B" fill-rule="nonzero"></path>
                    <g id="Group" stroke-width="1" fill="none" fill-rule="evenodd" transform="translate(15.689552, 15.528358)">
                        <path d="M0.519313433,3.07144478 L0.519313433,0.0370746269 L0.00188059701,0.0370746269 L0.00188059701,2.14839403 C0.136262687,2.45724179 0.30519403,2.76990448 0.519313433,3.07144478 Z" id="Shape" fill="#FF4B55" fill-rule="nonzero"></path>
                        <path d="M1.5541791,0.0370746269 L1.03674627,0.0370746269 L1.03674627,3.67785672 C1.19342687,3.83308657 1.36472239,3.98084776 1.5541791,4.1184 L1.5541791,0.0370746269 Z" id="Shape" fill="#FF4B55" fill-rule="nonzero"></path>
                        <path d="M5.17626269,3.07144478 C5.39032836,2.76990448 5.55931343,2.45718806 5.69369552,2.14839403 L5.69369552,0.0370746269 L5.17626269,0.0370746269 L5.17626269,3.07144478 Z" id="Shape" fill="#FF4B55" fill-rule="nonzero"></path>
                        <path d="M2.58904478,0.0370746269 L2.07161194,0.0370746269 L2.07161194,4.43939104 C2.23366567,4.52675821 2.40635821,4.60622687 2.58904478,4.67844179 L2.58904478,0.0370746269 Z" id="Shape" fill="#FF4B55" fill-rule="nonzero"></path>
                        <path d="M4.65882985,0.0370746269 L4.14139701,0.0370746269 L4.14139701,4.11834627 C4.33085373,3.98079403 4.50214925,3.83303284 4.65882985,3.67780299 L4.65882985,0.0370746269 Z" id="Shape" fill="#FF4B55" fill-rule="nonzero"></path>
                        <path d="M3.62391045,4.43939104 L3.62391045,0.0370746269 L3.10647761,0.0370746269 L3.10647761,4.67849552 C3.28916418,4.60622687 3.46185672,4.52675821 3.62391045,4.43939104 Z" id="Shape" fill="#FF4B55" fill-rule="nonzero"></path>
                    </g>
                    <polygon id="Shape" fill="#73AF00" fill-rule="nonzero" points="13.5502388 21.1690209 13.213397 21.3763164 13.7793493 22.3157015 14.1578866 22.0748776"></polygon>
                    <g id="Group" stroke-width="1" fill="none" fill-rule="evenodd" transform="translate(5.641791, 15.528358)">
                        <polygon id="Shape" fill="#4173CD" fill-rule="nonzero" points="18.4106149 6.32401791 18.1130507 5.72888955 17.5677851 5.72888955 17.5394687 5.87240597 17.329003 6.30827463 17.1021493 6.46033433 17.0088716 6.93333134 16.2157433 7.86530149 16.8348896 7.81543881 16.7225373 8.38499104 16.9415463 8.23814328 16.9627164 8.50094328 17.338997 8.05884179 17.6848657 8.57477015 17.9216597 7.37414328 18.2341075 7.00699701 18.2122388 6.73484776"></polygon>
                        <polygon id="Shape" fill="#4173CD" fill-rule="nonzero" points="3.6802209 0.0370746269 2.4605194 0.0370746269 2.57002388 0.365426866 1.85072239 2.88295522 1.1314209 0.365426866 1.24087164 0.0370746269 0.0211701493 0.0370746269 0.349576119 0.474877612 1.35032239 3.97757015 1.24087164 4.30592239 2.4605194 4.30592239 2.35106866 3.97757015 3.35186866 0.474877612"></polygon>
                        <polygon id="Shape" fill="#4173CD" fill-rule="nonzero" points="24.3469075 0.342 24.5502269 0.0370746269 24.3469075 0.0370746269 23.533791 0.0370746269 23.3305254 0.0370746269 23.533791 0.342 23.533791 4.00099701 23.3305254 4.30592239 23.533791 4.30592239 24.3469075 4.30592239 24.5502269 4.30592239 24.3469075 4.00099701"></polygon>
                    </g>
                </g>
            </g>
        </g>
    </g>
</svg>