<?xml version="1.0" encoding="UTF-8"?>
<svg width="32px" height="32px" viewBox="0 0 32 32" version="1.1" xmlns="http://www.w3.org/2000/svg" xmlns:xlink="http://www.w3.org/1999/xlink">
    <!-- Generator: Sketch 50.2 (55047) - http://www.bohemiancoding.com/sketch -->
    <title>uzbekistan@1x</title>
    <desc>Created with Sketch.</desc>
    <defs></defs>
    <g id="flags" stroke="none" stroke-width="1" fill="none" fill-rule="evenodd">
        <g id="uzbekistan" fill-rule="nonzero">
            <path d="M0.75402729,11.1088031 C0.2648577,12.6413099 -6.23781676e-05,14.2739337 -7.75641197e-16,15.9686862 C-6.23781676e-05,17.663501 0.264920078,19.2962495 0.754089669,20.8287563 L15.9688109,21.5231501 L31.1835322,20.8288811 C31.6726394,19.2963119 31.9376842,17.663501 31.9376842,15.9688109 C31.9376218,14.2739961 31.6727018,12.6413099 31.1835322,11.1087407 L15.9688109,10.4144717 L0.75402729,11.1088031 Z" id="Shape" fill="#F0F0F0"></path>
            <g id="Group" transform="translate(0.374269, 10.354776)" fill="#D80027">
                <path d="M30.8092008,0.75402729 L15.5944795,0.0597582846 L0.379695906,0.75402729 C0.234729045,1.20838986 0.109910331,1.67167251 0.00530214425,2.14262768 L31.1834074,2.14262768 C31.078924,1.67161014 30.9541676,1.20826511 30.8092008,0.75402729 Z" id="Shape"></path>
                <path d="M0.00548927875,9.0854425 C0.10997271,9.55639766 0.234791423,10.0196179 0.379758285,10.4739805 L0.381255361,10.4740429 L15.5944172,11.1683119 L30.8091384,10.4740429 C30.9541053,10.0196803 31.078924,9.55639766 31.1834698,9.0854425 L0.00548927875,9.0854425 Z" id="Shape"></path>
            </g>
            <path d="M15.9687485,31.9375595 C23.0933333,31.9375595 29.1271735,27.2714854 31.1834698,20.8288187 L0.754089669,20.8288187 C2.81038596,27.271423 8.84435088,31.9375595 15.9687485,31.9375595 Z" id="Shape" fill="#6DA544"></path>
            <path d="M15.9687485,6.23781676e-05 C8.8442885,0.000124756335 2.81044834,4.66619883 0.75402729,11.1088655 L31.1834074,11.1088655 C29.1272359,4.66613645 23.0933333,2.97857442e-16 15.9687485,6.23781676e-05 Z" id="Shape" fill="#338AF3"></path>
            <g id="Group" transform="translate(5.925926, 3.430799)" fill="#F0F0F0">
                <path d="M1.37144639,3.16506823 C1.37144639,1.6694269 2.4225809,0.419992203 3.8262768,0.113465887 C3.6105731,0.0663079922 3.38669786,0.0407953216 3.15677193,0.0407953216 C1.43126706,0.0407953216 0.0324366472,1.43956335 0.0324366472,3.1651306 C0.0324366472,4.89069786 1.4311423,6.28946589 3.15677193,6.28946589 C3.38669786,6.28946589 3.61051072,6.26389084 3.8262768,6.21679532 C2.42264327,5.91014425 1.37144639,4.66070955 1.37144639,3.16506823 Z" id="Shape"></path>
                <polygon id="Shape" points="5.67292008 4.58523197 5.88438207 5.23614815 6.56879532 5.23614815 6.01512671 5.63848733 6.22658869 6.28940351 5.67292008 5.88712671 5.11912671 6.28940351 5.33065107 5.63848733 4.77692008 5.23614815 5.46133333 5.23614815"></polygon>
                <polygon id="Shape" points="7.85740351 4.58523197 8.06892788 5.23614815 8.75334113 5.23614815 8.19961014 5.63848733 8.4111345 6.28940351 7.85740351 5.88712671 7.30367251 6.28940351 7.51519688 5.63848733 6.96152827 5.23614815 7.64587914 5.23614815"></polygon>
                <polygon id="Shape" points="10.0419493 4.58523197 10.2534113 5.23614815 10.9378869 5.23614815 10.3841559 5.63848733 10.5956179 6.28940351 10.0419493 5.88712671 9.48815595 6.28940351 9.69974269 5.63848733 9.14594932 5.23614815 9.83042495 5.23614815"></polygon>
                <polygon id="Shape" points="12.2264951 4.58523197 12.4380195 5.23614815 13.1223704 5.23614815 12.5687018 5.63848733 12.7802261 6.28940351 12.2264951 5.88712671 11.6727018 6.28940351 11.8842885 5.63848733 11.3304951 5.23614815 12.0149084 5.23614815"></polygon>
                <polygon id="Shape" points="14.4109786 4.58523197 14.6225029 5.23614815 15.3069162 5.23614815 14.7532476 5.63848733 14.9647719 6.28940351 14.4109786 5.88712671 13.8572476 6.28940351 14.0687719 5.63848733 13.5151033 5.23614815 14.1994542 5.23614815"></polygon>
                <polygon id="Shape" points="7.85740351 2.31298246 8.06892788 2.96383626 8.75334113 2.96383626 8.19961014 3.36623782 8.4111345 4.01709162 7.85740351 3.61481481 7.30367251 4.01709162 7.51519688 3.36623782 6.96152827 2.96383626 7.64587914 2.96383626"></polygon>
                <polygon id="Shape" points="10.0419493 2.31298246 10.2534113 2.96383626 10.9378869 2.96383626 10.3841559 3.36623782 10.5956179 4.01709162 10.0419493 3.61481481 9.48815595 4.01709162 9.69974269 3.36623782 9.14594932 2.96383626 9.83042495 2.96383626"></polygon>
                <polygon id="Shape" points="12.2264951 2.31298246 12.4380195 2.96383626 13.1223704 2.96383626 12.5687018 3.36623782 12.7802261 4.01709162 12.2264951 3.61481481 11.6727018 4.01709162 11.8842885 3.36623782 11.3304951 2.96383626 12.0149084 2.96383626"></polygon>
                <polygon id="Shape" points="14.4109786 2.31298246 14.6225029 2.96383626 15.3069162 2.96383626 14.7532476 3.36623782 14.9647719 4.01709162 14.4109786 3.61481481 13.8572476 4.01709162 14.0687719 3.36623782 13.5151033 2.96383626 14.1994542 2.96383626"></polygon>
                <polygon id="Shape" points="10.0419493 0.0406705653 10.2534113 0.691649123 10.9378869 0.691649123 10.3841559 1.09392593 10.5956179 1.74490448 10.0419493 1.34262768 9.48815595 1.74490448 9.69974269 1.09392593 9.14594932 0.691649123 9.83042495 0.691649123"></polygon>
                <polygon id="Shape" points="12.2264951 0.0406705653 12.4380195 0.691649123 13.1223704 0.691649123 12.5687018 1.09392593 12.7802261 1.74490448 12.2264951 1.34262768 11.6727018 1.74490448 11.8842885 1.09392593 11.3304951 0.691649123 12.0149084 0.691649123"></polygon>
                <polygon id="Shape" points="14.4109786 0.0406705653 14.6225029 0.691649123 15.3069162 0.691649123 14.7532476 1.09392593 14.9647719 1.74490448 14.4109786 1.34262768 13.8572476 1.74490448 14.0687719 1.09392593 13.5151033 0.691649123 14.1994542 0.691649123"></polygon>
            </g>
        </g>
    </g>
</svg>