<?xml version="1.0" encoding="UTF-8"?>
<svg width="32px" height="32px" viewBox="0 0 32 32" version="1.1" xmlns="http://www.w3.org/2000/svg" xmlns:xlink="http://www.w3.org/1999/xlink">
    <!-- Generator: Sketch 50.2 (55047) - http://www.bohemiancoding.com/sketch -->
    <title>vanuatu@1x</title>
    <desc>Created with Sketch.</desc>
    <defs></defs>
    <g id="flags" stroke="none" stroke-width="1" fill="none" fill-rule="evenodd">
        <g id="vanuatu" fill-rule="nonzero">
            <path d="M31.8754864,15.9378054 C31.8754864,15.2332451 31.8292296,14.5394553 31.7405759,13.8589883 L13.8587393,13.8589883 C10.6026459,10.6030817 4.66776654,4.66857588 4.66801556,4.66807782 C-1.55604669,10.8921401 -1.55604669,20.9833463 4.66801556,27.2075331 L13.8589261,18.0166848 L31.7405759,18.0166848 C31.8291673,17.3361556 31.8754864,16.6423658 31.8754864,15.9378054 Z" id="Shape" fill="#000000"></path>
            <g id="Group" transform="translate(31.750973, 14.194553)" fill="#F0F0F0">
                <path d="M0.275666667,2.8886537 C0.250166667,3.05547504 0.225166667,3.22229639 0.196166667,3.3886537 C0.225166667,3.22229639 0.249666667,3.05547504 0.275666667,2.8886537 Z" id="Shape"></path>
                <path d="M0.0801666667,0.00616342412 C0.127166667,0.172765215 0.174166667,0.339172377 0.216666667,0.506163424 C0.174166667,0.338977749 0.126666667,0.172765215 0.0801666667,0.00616342412 Z" id="Shape"></path>
                <path d="M0.196166667,0.463626459 C0.225166667,0.629983768 0.250166667,0.796805113 0.275666667,0.963626459 C0.249666667,0.796805113 0.225166667,0.629983768 0.196166667,0.463626459 Z" id="Shape"></path>
            </g>
            <path d="M31.7405759,13.8589261 C31.7477354,13.9135253 31.7540856,13.9684358 31.7606226,14.0231595 C30.8146926,6.12389105 24.0918288,6.22568093e-05 15.9377432,6.22568093e-05 C11.5365603,6.22568093e-05 7.55206226,1.78403113 4.66789105,4.66832685 L13.8584903,13.8589883 L31.7405759,13.8589883 L31.7405759,13.8589261 Z" id="Shape" fill="#D80027"></path>
            <path d="M31.7405759,18.0166226 L13.8584903,18.0166226 L4.66789105,27.207284 C7.55206226,30.0915175 11.5365603,31.8755486 15.9377432,31.8755486 C24.0918288,31.8755486 30.8147549,25.7517198 31.7606226,17.8523891 C31.7540856,17.9071128 31.7476109,17.9620233 31.7405759,18.0166226 Z" id="Shape" fill="#6DA544"></path>
            <path d="M31.917356,17.5148949 C31.874856,17.681886 31.827856,17.8482932 31.780856,18.0148949 C31.827856,17.8482932 31.875356,17.6820806 31.917356,17.5148949 Z" id="Shape" fill="#F0F0F0"></path>
            <path d="M31.8341479,14.7923424 C31.8826479,14.9586446 31.9266479,15.1253113 31.9641479,15.2923424 C31.9261479,15.1253113 31.8826479,14.9586446 31.8341479,14.7923424 Z" id="Shape" fill="#000000"></path>
            <path d="M31.7606226,14.0231595 C31.8181226,14.189534 31.8726226,14.3562591 31.9236226,14.5231595 C31.8716226,14.3562591 31.8171226,14.1897093 31.7606226,14.0231595 Z" id="Shape" fill="#000000"></path>
            <path d="M31.7978521,14.3606537 C31.8758521,14.5268323 31.9463521,14.6934293 32.0098521,14.8606537 C31.9468521,14.6934293 31.8763521,14.5267277 31.7978521,14.3606537 Z" id="Shape" fill="#000000"></path>
            <path d="M31.9074416,15.9378054 C31.9074416,16.1050448 31.8924416,16.2715969 31.8709416,16.4378054 C31.8924416,16.271511 31.9074416,16.1049589 31.9074416,15.9378054 Z" id="Shape" fill="#000000"></path>
            <path d="M31.9642101,16.8269572 C31.9262101,16.9939883 31.8822101,17.160655 31.8342101,17.3269572 C31.8822101,17.160655 31.9257101,16.9939883 31.9642101,16.8269572 Z" id="Shape" fill="#000000"></path>
            <path d="M32.0098521,17.2173696 C31.9463521,17.3844548 31.8758521,17.5512261 31.7978521,17.7173696 C31.8763521,17.5512261 31.9468521,17.3844548 32.0098521,17.2173696 Z" id="Shape" fill="#000000"></path>
            <path d="M31.9236226,17.6748327 C31.8726226,17.8417331 31.8181226,18.0082829 31.7606226,18.1748327 C31.8171226,18.0084582 31.8716226,17.8417331 31.9236226,17.6748327 Z" id="Shape" fill="#000000"></path>
            <path d="M31.8709416,15.5753463 C31.8924416,15.7416408 31.9074416,15.9082788 31.9074416,16.0753463 C31.9074416,15.9082788 31.8924416,15.7416408 31.8709416,15.5753463 Z" id="Shape" fill="#000000"></path>
            <path d="M31.8556265,15.1397354 C31.9006265,15.3058881 31.9346265,15.4726757 31.9606265,15.6397354 C31.9346265,15.472585 31.9011265,15.3058881 31.8556265,15.1397354 Z" id="Shape" fill="#000000"></path>
            <path d="M31.9605642,16.3926537 C31.9345642,16.5597134 31.9005642,16.726501 31.8555642,16.8926537 C31.9015642,16.7264103 31.9350642,16.5597134 31.9605642,16.3926537 Z" id="Shape" fill="#000000"></path>
            <g id="Group" transform="translate(2.054475, 5.665370)" fill="#FFDA44">
                <path d="M29.805821,9.57372763 L11.2187393,9.57372763 L1.67122179,0.0276420233 C1.36261479,0.353120623 1.02810895,0.807595331 0.821229572,1.13126848 L9.95175097,10.2665837 L0.813571984,19.4049494 C0.994490272,19.7268171 1.38863813,20.2032062 1.66536965,20.5131829 L11.2189261,10.9596265 L29.8080623,10.9596265 C29.8179611,10.7297743 29.8210739,10.4989261 29.8210739,10.2667082 C29.8210117,9.95554864 29.8124202,9.7261323 29.805821,9.57372763 Z" id="Shape"></path>
                <path d="M1.81708949,13.6699144 L1.81708949,12.3349416 C3.1492607,12.3349416 4.23296498,11.2511128 4.23296498,9.91906615 C4.23296498,8.97656031 3.46614786,8.20980545 2.52370428,8.20980545 C1.88164981,8.20980545 1.35925292,8.73214008 1.35925292,9.37431907 C1.35925292,9.78490272 1.6932607,10.1189728 2.10390661,10.1189728 C2.336,10.1189728 2.5248249,9.93002335 2.5248249,9.69792996 L3.85973541,9.69792996 C3.85973541,10.6662101 3.07206226,11.4538833 2.10396887,11.4538833 C0.9572607,11.4539455 0.0244669261,10.520965 0.0244669261,9.37444358 C0.0244669261,7.99626459 1.14571206,6.87508171 2.52376654,6.87508171 C4.20233463,6.87508171 5.568,8.24074708 5.568,9.91925292 C5.56793774,11.9872374 3.88532296,13.6699144 1.81708949,13.6699144 Z" id="Shape"></path>
            </g>
        </g>
    </g>
</svg>