<?xml version="1.0" encoding="UTF-8"?>
<svg width="32px" height="32px" viewBox="0 0 32 32" version="1.1" xmlns="http://www.w3.org/2000/svg" xmlns:xlink="http://www.w3.org/1999/xlink">
    <!-- Generator: Sketch 50.2 (55047) - http://www.bohemiancoding.com/sketch -->
    <title>vatican-city@1x</title>
    <desc>Created with Sketch.</desc>
    <defs></defs>
    <g id="flags" stroke="none" stroke-width="1" fill="none" fill-rule="evenodd">
        <g id="vatican-city" fill-rule="nonzero">
            <path d="M16,0 C24.8365,0 32,7.1635 32,16 C32,24.8365 24.8365,32 16,32 C16,31.304375 13.9130625,16 13.9130625,16 L16,0 Z" id="Shape" fill="#F0F0F0"></path>
            <path d="M16,32 C7.1635,32 0,24.8365 0,16 C0,7.1635 7.1635,0 16,0" id="Shape" fill="#FFDA44"></path>
            <path d="M22.126875,13.9228125 L25.1338125,17.9006875 C24.6600625,18.6180625 24.6625625,19.5845625 25.2105,20.309375 C25.9055,21.2288125 27.2143125,21.4108125 28.1338125,20.71575 C29.05325,20.02075 29.23525,18.7119375 28.540125,17.7925 C27.9923125,17.0676875 27.0630625,16.8016875 26.2436875,17.0618125 L21.557375,10.86225 L20.4475,11.70125 L18.7825,12.959625 L20.4605,15.1793125 L22.126875,13.9228125 Z M26.4558125,18.4959375 C26.7623125,18.2641875 27.198625,18.3249375 27.4303125,18.6313125 C27.6619375,18.9378125 27.601375,19.374125 27.294875,19.605875 C26.9884375,19.8374375 26.552125,19.7769375 26.3205,19.470375 C26.0886875,19.163875 26.149375,18.7275625 26.4558125,18.4959375 Z" id="Shape" fill="#ACABB1"></path>
            <path d="M27.284375,15.17925 L28.962375,12.9595625 L27.2975,11.7010625 L26.187625,10.8620625 L21.5013125,17.061625 C20.6820625,16.8015 19.75275,17.0675625 19.204875,17.7923125 C18.50975,18.7118125 18.69175,20.0205625 19.6111875,20.7155625 C20.5306875,21.4105625 21.8394375,21.228625 22.5344375,20.3091875 C23.0823125,19.584375 23.0848125,18.617875 22.611125,17.9005 L25.6180625,13.922625 L27.284375,15.17925 Z M21.4245625,19.4703125 C21.1929375,19.776875 20.7566875,19.8374375 20.4501875,19.6058125 C20.1436875,19.3740625 20.0830625,18.93775 20.31475,18.63125 C20.546375,18.324875 20.9826875,18.264125 21.28925,18.495875 C21.5956875,18.7275625 21.65625,19.163875 21.4245625,19.4703125 Z" id="Shape" fill="#FFDA44"></path>
        </g>
    </g>
</svg>