<?xml version="1.0" encoding="UTF-8"?>
<svg width="32px" height="32px" viewBox="0 0 32 32" version="1.1" xmlns="http://www.w3.org/2000/svg" xmlns:xlink="http://www.w3.org/1999/xlink">
    <!-- Generator: Sketch 50.2 (55047) - http://www.bohemiancoding.com/sketch -->
    <title>venezuela@1x</title>
    <desc>Created with Sketch.</desc>
    <defs></defs>
    <g id="flags" stroke="none" stroke-width="1" fill="none" fill-rule="evenodd">
        <g id="venezuela" fill-rule="nonzero">
            <path d="M30.412375,22.9565 C31.4295625,20.853 32,18.4931875 32,16 C32,13.5068125 31.4295625,11.147 30.412375,9.0435 L16,7.6521875 L1.587625,9.0435 C0.5704375,11.147 0,13.5068125 0,16 C0,18.4931875 0.5704375,20.853 1.587625,22.9565 L16,24.3478125 L30.412375,22.9565 Z" id="Shape" fill="#0052B4"></path>
            <path d="M16,32 C22.3433125,32 27.824375,28.3084375 30.412375,22.9565 L1.587625,22.9565 C4.175625,28.3084375 9.656625,32 16,32 Z" id="Shape" fill="#D80027"></path>
            <g id="Group" transform="translate(4.250000, 11.125000)" fill="#F0F0F0">
                <polygon id="Shape" points="23.4604375 8.01575 22.615375 8.676125 22.982125 9.6836875 22.0929375 9.084125 21.2478125 9.744375 21.5433125 8.7134375 20.65425 8.1136875 21.7260625 8.0763125 22.0218125 7.045375 22.3886875 8.053125"></polygon>
                <polygon id="Shape" points="21.2963125 4.267625 20.728125 5.1771875 21.4175625 5.9985625 20.376875 5.7394375 19.8085 6.64875 19.7335625 5.5789375 18.693 5.319375 19.6875 4.9175625 19.61275 3.8476875 20.3020625 4.669375"></polygon>
                <polygon id="Shape" points="17.980875 1.4855625 17.758 2.534625 18.68675 3.070875 17.6201875 3.1833125 17.3971875 4.2320625 16.9609375 3.2524375 15.89425 3.364375 16.691375 2.64675 16.2551875 1.667125 17.1839375 2.20325"></polygon>
                <polygon id="Shape" points="13.913875 0.0054375 14.0633125 1.0675 15.119375 1.253625 14.1555 1.724 14.3048125 2.786 13.5598125 2.0145 12.5956875 2.484625 13.0993125 1.5375625 12.35425 0.7661875 13.4105 0.952375"></polygon>
                <polygon id="Shape" points="9.5860625 0.0054375 10.089625 0.952375 11.145625 0.7660625 10.4008125 1.53775 10.904125 2.48475 9.94025 2.0145 9.195125 2.7858125 9.3445625 1.724 8.380625 1.253875 9.4368125 1.0675"></polygon>
                <polygon id="Shape" points="5.5190625 1.4855625 6.3161875 2.20325 7.24475 1.667125 6.8086875 2.647125 7.605625 3.364625 6.5390625 3.2524375 6.1026875 4.2320625 5.88 3.183125 4.813375 3.071125 5.742125 2.53475"></polygon>
                <polygon id="Shape" points="2.203625 4.267625 3.1981875 4.669375 3.8873125 3.847875 3.81275 4.9179375 4.807 5.31975 3.7664375 5.5790625 3.6915 6.64875 3.123375 5.7394375 2.0826875 5.99875 2.7720625 5.1771875"></polygon>
                <polygon id="Shape" points="0.039625 8.01575 1.111625 8.053125 1.47825 7.0455 1.7741875 8.0765 2.845875 8.1139375 1.95675 8.7136875 2.25225 9.7445625 1.40725 9.0843125 0.5180625 9.683875 0.884875 8.676125"></polygon>
            </g>
            <path d="M30.412375,9.0435 C27.824375,3.6915625 22.3433125,0 16,0 C9.656625,0 4.175625,3.6915625 1.587625,9.0435 L30.412375,9.0435 Z" id="Shape" fill="#FFDA44"></path>
        </g>
    </g>
</svg>