<?xml version="1.0" encoding="UTF-8"?>
<svg width="32px" height="32px" viewBox="0 0 32 32" version="1.1" xmlns="http://www.w3.org/2000/svg" xmlns:xlink="http://www.w3.org/1999/xlink">
    <!-- Generator: Sketch 50.2 (55047) - http://www.bohemiancoding.com/sketch -->
    <title>zambia@1x</title>
    <desc>Created with Sketch.</desc>
    <defs></defs>
    <g id="flags" stroke="none" stroke-width="1" fill="none" fill-rule="evenodd">
        <g id="zambia" fill-rule="nonzero">
            <circle id="Oval" fill="#496E2D" cx="16" cy="16" r="16"></circle>
            <path d="M22.260875,16 L16,16 L16,32 C17.87025,32 19.6650625,31.6780625 21.3333125,31.088375 L22.260875,16 Z" id="Shape" fill="#D80027"></path>
            <path d="M26.666625,27.9245625 C29.939625,24.9949375 32,20.7383125 32,16 L25.739125,16 L26.666625,27.9245625 Z" id="Shape" fill="#FF9811"></path>
            <path d="M21.3333125,16 L21.3333125,31.088375 C23.320625,30.3858125 25.12775,29.302125 26.6666875,27.924625 L26.6666875,16 L21.3333125,16 Z" id="Shape" fill="#000000"></path>
            <path d="M29.5651875,10.4348125 L25.39125,10.4348125 C25.39125,9.6664375 24.7683125,9.0435 23.9999375,9.0435 C23.2315625,9.0435 22.608625,9.6664375 22.608625,10.4348125 L18.4346875,10.4348125 C18.4346875,11.20325 19.104,11.826125 19.8723125,11.826125 L19.826,11.826125 C19.826,12.5945625 20.4488125,13.2174375 21.2173125,13.2174375 C21.2173125,13.985875 21.840125,14.60875 22.608625,14.60875 L25.39125,14.60875 C26.159625,14.60875 26.7825625,13.985875 26.7825625,13.2174375 C27.5509375,13.2174375 28.173875,12.5945625 28.173875,11.826125 L28.1275625,11.826125 C28.8959375,11.8260625 29.5651875,11.2031875 29.5651875,10.4348125 Z" id="Shape" fill="#FF9811"></path>
        </g>
    </g>
</svg>