<?xml version="1.0" encoding="UTF-8"?>
<svg width="32px" height="32px" viewBox="0 0 32 32" version="1.1" xmlns="http://www.w3.org/2000/svg" xmlns:xlink="http://www.w3.org/1999/xlink">
    <!-- Generator: Sketch 50.2 (55047) - http://www.bohemiancoding.com/sketch -->
    <title>zimbabwe@1x</title>
    <desc>Created with Sketch.</desc>
    <defs></defs>
    <g id="flags" stroke="none" stroke-width="1" fill="none" fill-rule="evenodd">
        <g id="zimbabwe" fill-rule="nonzero">
            <circle id="Oval" fill="#F0F0F0" cx="16" cy="16" r="16"></circle>
            <g id="Group" transform="translate(4.687500, 3.437500)" fill="#FFDA44">
                <path d="M25.7810625,5.7251875 C24.9681875,4.0080625 23.85875,2.459125 22.51875,1.1438125 L11.3125,0.04075 L0.10625,1.143875 C0.0705,1.1789375 0.035625,1.2148125 0.00025,1.25025 L4.47525,5.72525 L11.3125,5.9340625 L25.7810625,5.7251875 Z" id="Shape"></path>
                <path d="M6.25e-05,23.8749375 C0.0589375,23.9338125 0.1176875,23.99275 0.1774375,24.05075 L11.3125,25.08425 L22.4474375,24.05075 C23.80125,22.73825 24.92425,21.1891875 25.7485625,19.469375 L5.0515625,18.823375 C3.27075,20.60425 1.21675,22.658125 6.25e-05,23.8749375 Z" id="Shape"></path>
            </g>
            <path d="M31.840875,13.7440625 L13.217375,13.217375 L16,16 C15.1758125,16.8241875 13.9454375,18.0545625 13.217375,18.782625 L31.831125,18.3255 C31.94175,17.5661875 32,16.7899375 32,16 C32,15.234125 31.945,14.48125 31.840875,13.7440625 Z" id="Shape" fill="#000000"></path>
            <path d="M16,0 C11.63575,0 7.680375,1.748125 4.79375,4.581375 L27.20625,4.581375 C24.319625,1.748125 20.36425,0 16,0 Z" id="Shape" fill="#6DA544"></path>
            <g id="Group" transform="translate(9.062500, 9.125000)" fill="#D80027">
                <path d="M4.6815625,4.6190625 L22.778375,4.6190625 C22.5500625,3.001625 22.0803125,1.462 21.4060625,0.0376875 L0.1001875,0.0376875 L4.6815625,4.6190625 Z" id="Shape"></path>
                <path d="M0.030625,13.781875 L21.373625,13.781875 C22.05575,12.358625 22.533,10.8188125 22.7686875,9.2005 L4.612,9.2005 C2.8378125,10.9746875 1.3341875,12.4783125 0.030625,13.781875 Z" id="Shape"></path>
            </g>
            <path d="M16,32 C20.3284375,32 24.2546875,30.2805 27.1349375,27.4881875 L4.8650625,27.4881875 C7.7453125,30.2805 11.6715625,32 16,32 Z" id="Shape" fill="#6DA544"></path>
            <path d="M5.7134375,3.745875 C5.35775,4.04475 5.0145625,4.3580625 4.68625,4.68625 L16,16 L4.68625,27.31375 C5.0145,27.642 5.35775,27.95525 5.7134375,28.254125 L17.9675625,16 L5.7134375,3.745875 Z" id="Shape" fill="#000000"></path>
            <polygon id="Shape" fill="#D80027" points="6.4328125 11.8260625 7.46875 15.0145625 10.8215625 15.0145625 8.1091875 16.9853125 9.1451875 20.1739375 6.4328125 18.20325 3.720375 20.1739375 4.7565 16.9853125 2.0441875 15.0145625 5.3968125 15.0145625"></polygon>
            <path d="M9.2824375,16.260875 L6.5825625,15.304375 C6.5825625,15.304375 6.3830625,13.4329375 6.371,13.3695 C6.279375,12.8868125 5.8551875,12.52175 5.3458125,12.52175 C4.7695625,12.52175 4.3023125,12.9889375 4.3023125,13.56525 C4.3023125,13.6608125 4.31625,13.752875 4.3403125,13.840875 L3.5833125,14.6029375 C3.5833125,14.6029375 4.4824375,14.6029375 4.9293125,14.6029375 C4.9293125,16 3.8868125,16 3.8868125,17.3913125 L4.465125,18.782625 L7.943375,18.782625 L8.523125,17.3913125 L8.522875,17.3913125 C8.5809375,17.2578125 8.6161875,17.120125 8.63075,16.9825625 C9.1305,16.7804375 9.2824375,16.260875 9.2824375,16.260875 Z" id="Shape" fill="#FFDA44"></path>
        </g>
    </g>
</svg>