<?xml version="1.0" encoding="UTF-8"?>
<svg width="751px" height="500px" viewBox="0 0 751 500" version="1.1" xmlns="http://www.w3.org/2000/svg" xmlns:xlink="http://www.w3.org/1999/xlink">
    <!-- Generator: Sketch 51.3 (57544) - http://www.bohemiancoding.com/sketch -->
    <title>Illustration-rainbow-7</title>
    <desc>Created with Sketch.</desc>
    <defs>
        <polygon id="path-1" points="0.033 0 86.4472 0 86.4472 93.322 0.033 93.322"></polygon>
        <polygon id="path-3" points="0.033 0 172.0759 0 172.0759 180.008 0.033 180.008"></polygon>
        <polygon id="path-5" points="0.033 0 172.0773 0 172.0773 180.012 0.033 180.012"></polygon>
        <polygon id="path-7" points="0.751 0 42.033 0 42.033 9.375 0.751 9.375"></polygon>
        <polygon id="path-9" points="0.033 0 279.4261 0 279.4261 289.948 0.033 289.948"></polygon>
        <polygon id="path-11" points="0.033 0 750.033 0 750.033 500 0.033 500"></polygon>
        <polygon id="path-13" points="0.033 0 750.033 0 750.033 500 0.033 500"></polygon>
        <polygon id="path-15" points="0.033 0 750.033 0 750.033 500 0.033 500"></polygon>
        <polygon id="path-17" points="0.1744 0.071 716.033 0.071 716.033 463 0.1744 463"></polygon>
        <polygon id="path-19" points="0.2255 0.121 716.033 0.121 716.033 463 0.2255 463"></polygon>
        <polygon id="path-21" points="0.646 0.542 667.033 0.542 667.033 414 0.646 414"></polygon>
        <polygon id="path-23" points="0.0351 0.931 617.033 0.931 617.033 365 0.0351 365"></polygon>
        <polygon id="path-25" points="0.0851 0.98 617.033 0.98 617.033 365 0.0851 365"></polygon>
        <polygon id="path-27" points="0.5055 0.401 568.033 0.401 568.033 315 0.5055 315"></polygon>
        <polygon id="path-29" points="0.876 0.772 519.033 0.772 519.033 266 0.876 266"></polygon>
        <polygon id="path-31" points="0.9262 0.822 519.033 0.822 519.033 266 0.9262 266"></polygon>
        <polygon id="path-33" points="0.3656 0.261 425.8286 0.261 425.8286 216 0.3656 216"></polygon>
        <polygon id="path-35" points="0.7355 0.631 327.4585 0.631 327.4585 167 0.7355 167"></polygon>
        <polygon id="path-37" points="0.7849 0.682 327.4089 0.682 327.4089 167 0.7849 167"></polygon>
        <polygon id="path-39" points="0.2064 0.102 227.9694 0.102 227.9694 117 0.2064 117"></polygon>
        <polygon id="path-41" points="0.6274 0.541 129.5494 0.541 129.5494 68 0.6274 68"></polygon>
        <polygon id="path-43" points="0.033 0 60.9702 0 60.9702 67.585 0.033 67.585"></polygon>
        <polygon id="path-45" points="0.033 0 142.711 0 142.711 150.2 0.033 150.2"></polygon>
        <polygon id="path-47" points="0.033 0 142.6219 0 142.6219 150.109 0.033 150.109"></polygon>
        <polygon id="path-49" points="0.033 0 240.5312 0 240.5312 249.853 0.033 249.853"></polygon>
        <polygon id="path-51" points="0.033 0 394.9316 0 394.9316 415.828 0.033 415.828"></polygon>
        <polygon id="path-53" points="0.245 0 157.033 0 157.033 48.0029 0.245 48.0029"></polygon>
        <polygon id="path-55" points="0.506 0 157.033 0 157.033 47.9434 0.506 47.9434"></polygon>
        <polygon id="path-57" points="0.033 0 394.6708 0 394.6708 415.505 0.033 415.505"></polygon>
        <polygon id="path-59" points="0.8732 0.769 750.033 0.769 750.033 497 0.8732 497"></polygon>
        <polygon id="path-61" points="0.2436 0.14 700.033 0.14 700.033 447 0.2436 447"></polygon>
        <polygon id="path-63" points="0.2938 0.189 700.033 0.189 700.033 447 0.2938 447"></polygon>
        <polygon id="path-65" points="0.7134 0.61 651.033 0.61 651.033 398 0.7134 398"></polygon>
        <polygon id="path-67" points="0.1025 0.999 601.033 0.999 601.033 349 0.1025 349"></polygon>
        <polygon id="path-69" points="0.1537 0.049 601.033 0.049 601.033 348 0.1537 348"></polygon>
        <polygon id="path-71" points="0.5737 0.47 552.033 0.47 552.033 299 0.5737 299"></polygon>
        <polygon id="path-73" points="0.9446 0.841 493.2316 0.841 493.2316 250 0.9446 250"></polygon>
        <polygon id="path-75" points="0.9948 0.89 493.1818 0.89 493.1818 250 0.9948 250"></polygon>
        <polygon id="path-77" points="0.4334 0.329 393.7604 0.329 393.7604 200 0.4334 200"></polygon>
        <polygon id="path-79" points="0.8036 0.699 295.3906 0.699 295.3906 151 0.8036 151"></polygon>
        <polygon id="path-81" points="0.8538 0.75 295.3408 0.75 295.3408 151 0.8538 151"></polygon>
        <polygon id="path-83" points="0.2737 0.17 195.9027 0.17 195.9027 101 0.2737 101"></polygon>
        <polygon id="path-85" points="0.695 0.609 97.48 0.609 97.48 52 0.695 52"></polygon>
        <polygon id="path-87" points="0.033 0 750.033 0 750.033 500 0.033 500"></polygon>
    </defs>
    <g id="components" stroke="none" stroke-width="1" fill="none" fill-rule="evenodd">
        <g id="Illustration-rainbow-7">
            <g id="Group-3">
                <mask id="mask-2" fill="white">
                    <use xlink:href="#path-1"></use>
                </mask>
                <g id="Clip-2"></g>
                <path d="M10.7822,-19 C-1.5718,-7.424 -13.5028,4.598 -24.9998,17.026 L-24.9998,93.322 C7.5172,51.568 44.9492,13.83 86.4472,-19 L10.7822,-19 Z" id="Fill-1" fill="#498D3B" mask="url(#mask-2)"></path>
            </g>
            <g id="Group-6">
                <mask id="mask-4" fill="white">
                    <use xlink:href="#path-3"></use>
                </mask>
                <g id="Clip-5"></g>
                <path d="M86.2979,-19 C66.3619,-3.202 47.2689,13.799 29.0819,31.987 C9.7009,51.369 -8.3361,71.779 -25.0001,93.142 L-25.0001,180.008 C-0.0211,139.15 29.7679,101.339 64.0999,67.005 C97.0229,34.082 133.1399,5.333 172.0759,-19 L86.2979,-19 Z" id="Fill-4" fill="#5BB24A" mask="url(#mask-4)"></path>
            </g>
            <g id="Group-9">
                <mask id="mask-6" fill="white">
                    <use xlink:href="#path-5"></use>
                </mask>
                <g id="Clip-8"></g>
                <path d="M86.4473,-19 C44.9493,13.83 7.5173,51.568 -24.9997,93.322 L-24.9997,180.012 C24.3493,99.368 91.9543,31.109 172.0773,-19 L86.4473,-19 Z" id="Fill-7" fill="#5BB24A" mask="url(#mask-6)"></path>
            </g>
            <g id="Group-12" transform="translate(708.000000, 0.000000)">
                <mask id="mask-8" fill="white">
                    <use xlink:href="#path-7"></use>
                </mask>
                <g id="Clip-11"></g>
                <path d="M59,-19 L0.751,-19 C20.788,-10.654 40.224,-1.157 59,9.375 L59,-19 Z" id="Fill-10" fill="#00AAA9" mask="url(#mask-8)"></path>
            </g>
            <g id="Group-15">
                <mask id="mask-10" fill="white">
                    <use xlink:href="#path-9"></use>
                </mask>
                <g id="Clip-14"></g>
                <path d="M172.0771,-19 C91.9541,31.109 24.3491,99.368 -24.9999,180.012 L-24.9999,289.948 C30.6881,150.462 140.9601,38.675 279.4261,-19 L172.0771,-19 Z" id="Fill-13" fill="#00AAA9" mask="url(#mask-10)"></path>
            </g>
            <g id="Group-18">
                <mask id="mask-12" fill="white">
                    <use xlink:href="#path-11"></use>
                </mask>
                <g id="Clip-17"></g>
                <path d="M711.5879,-17.875 C710.6879,-18.256 709.7829,-18.624 708.8809,-19 L279.2949,-19 C278.3929,-18.624 277.4879,-18.256 276.5879,-17.875 C210.0499,10.27 150.2929,50.562 98.9769,101.881 C47.6599,153.2 7.3699,212.96 -20.7731,279.5 C-22.2211,282.923 -23.6231,286.359 -25.0001,289.804 L-25.0001,519 L-14.6741,519 C-14.9811,511.692 -15.1451,504.36 -15.1451,497.003 C-15.1451,428.251 -1.6821,361.556 24.8719,298.772 C50.5199,238.13 87.2359,183.669 134.0029,136.901 C180.7699,90.134 235.2299,53.416 295.8679,27.768 C358.6489,1.215 425.3399,-12.25 494.0889,-12.25 C562.8369,-12.25 629.5279,1.215 692.3109,27.768 C718.3919,38.799 743.3249,51.883 766.9999,66.928 L766.9999,9.249 C749.1089,-0.768 730.6269,-9.821 711.5879,-17.875" id="Fill-16" fill="#0183C1" mask="url(#mask-12)"></path>
            </g>
            <g id="Group-21">
                <mask id="mask-14" fill="white">
                    <use xlink:href="#path-13"></use>
                </mask>
                <g id="Clip-20"></g>
                <path d="M708.751,-19 L279.426,-19 C140.96,38.675 30.689,150.462 -25,289.948 L-25,519 L-14.719,519 C-15.029,511.705 -15.195,504.373 -15.195,497.002 C-15.195,215.708 212.812,-12.299 494.088,-12.299 C594.496,-12.299 688.114,16.762 767,66.924 L767,9.375 C748.224,-1.157 728.788,-10.654 708.751,-19" id="Fill-19" fill="#0183C1" mask="url(#mask-14)"></path>
            </g>
            <g id="Group-24">
                <mask id="mask-16" fill="white">
                    <use xlink:href="#path-15"></use>
                </mask>
                <g id="Clip-23"></g>
                <path d="M34.75,519 C34.406,511.71 34.226,504.377 34.226,497.002 C34.226,243.005 240.109,37.121 494.088,37.121 C596.268,37.121 690.66,70.452 767,126.826 L767,66.924 C688.114,16.762 594.496,-12.299 494.088,-12.299 C212.812,-12.299 -15.195,215.708 -15.195,497.002 C-15.195,504.373 -15.029,511.705 -14.719,519 L34.75,519 Z" id="Fill-22" fill="#004997" mask="url(#mask-16)"></path>
            </g>
            <g id="Group-27" transform="translate(34.000000, 37.000000)">
                <mask id="mask-18" fill="white">
                    <use xlink:href="#path-17"></use>
                </mask>
                <g id="Clip-26"></g>
                <path d="M50.2764,482 C49.8934,474.699 49.6964,467.366 49.6964,460.003 C49.6964,404.597 60.5474,350.848 81.9464,300.249 C102.6174,251.377 132.2074,207.486 169.8974,169.795 C207.5874,132.104 251.4754,102.513 300.3454,81.843 C350.9404,60.442 404.6854,49.592 460.0884,49.592 C515.4914,49.592 569.2364,60.442 619.8314,81.843 C661.4164,99.432 699.3784,123.504 733.0004,153.507 L733.0004,89.715 C703.9974,68.286 672.6004,50.377 639.1114,36.213 C582.4094,12.231 522.1774,0.071 460.0884,0.071 C397.9994,0.071 337.7684,12.231 281.0684,36.213 C226.3004,59.377 177.1164,92.539 134.8804,134.777 C92.6414,177.016 59.4804,226.203 36.3164,280.972 C12.3354,337.675 0.1744,397.91 0.1744,460.003 C0.1744,467.362 0.3514,474.695 0.6934,482 L50.2764,482 Z" id="Fill-25" fill="#5E328A" mask="url(#mask-18)"></path>
            </g>
            <g id="Group-30" transform="translate(34.000000, 37.000000)">
                <mask id="mask-20" fill="white">
                    <use xlink:href="#path-19"></use>
                </mask>
                <g id="Clip-29"></g>
                <path d="M50.2295,482 C49.8445,474.716 49.6455,467.383 49.6455,460.002 C49.6455,233.304 233.4075,49.542 460.0875,49.542 C564.8655,49.542 660.4705,88.806 733.0005,153.421 L733.0005,89.826 C656.6605,33.452 562.2675,0.121 460.0875,0.121 C206.1095,0.121 0.2255,206.005 0.2255,460.002 C0.2255,467.377 0.4065,474.71 0.7505,482 L50.2295,482 Z" id="Fill-28" fill="#5E328A" mask="url(#mask-20)"></path>
            </g>
            <g id="Group-33" transform="translate(83.000000, 86.000000)">
                <mask id="mask-22" fill="white">
                    <use xlink:href="#path-21"></use>
                </mask>
                <g id="Clip-32"></g>
                <path d="M50.75,433 C50.313,425.723 50.085,418.39 50.085,411.002 C50.085,211.602 211.706,49.98 411.088,49.98 C520.086,49.98 617.804,98.283 684,174.652 L684,104.421 C611.471,39.806 515.865,0.542 411.088,0.542 C184.407,0.542 0.646,184.304 0.646,411.002 C0.646,418.383 0.845,425.716 1.229,433 L50.75,433 Z" id="Fill-31" fill="#873579" mask="url(#mask-22)"></path>
            </g>
            <g id="Group-36" transform="translate(133.000000, 135.000000)">
                <mask id="mask-24" fill="white">
                    <use xlink:href="#path-23"></use>
                </mask>
                <g id="Clip-35"></g>
                <path d="M50.3271,384 C49.8221,376.713 49.5561,369.379 49.5561,362.003 C49.5561,278.781 81.9601,200.542 140.8011,141.698 C199.6391,82.857 277.8731,50.451 361.0891,50.451 C444.3051,50.451 522.5401,82.857 581.3851,141.698 C602.3891,162.702 620.0041,186.187 634.0001,211.476 L634.0001,125.563 C628.3781,119.09 622.5141,112.791 616.4021,106.681 C583.2431,73.521 544.6291,47.488 501.6311,29.303 C457.1181,10.477 409.8321,0.931 361.0891,0.931 C312.3451,0.931 265.0591,10.477 220.5471,29.303 C177.5531,47.488 138.9401,73.521 105.7821,106.681 C72.6241,139.84 46.5921,178.455 28.4071,221.451 C9.5811,265.967 0.0351,313.255 0.0351,362.003 C0.0351,369.372 0.2801,376.702 0.7161,384 L50.3271,384 Z" id="Fill-34" fill="#CA3F8F" mask="url(#mask-24)"></path>
            </g>
            <g id="Group-39" transform="translate(133.000000, 135.000000)">
                <mask id="mask-26" fill="white">
                    <use xlink:href="#path-25"></use>
                </mask>
                <g id="Clip-38"></g>
                <path d="M50.2891,384 C49.7811,376.731 49.5061,369.399 49.5061,362.002 C49.5061,189.899 189.0041,50.401 361.0881,50.401 C478.6061,50.401 580.9211,115.469 634.0001,211.54 L634.0001,125.652 C567.8041,49.283 470.0861,0.98 361.0881,0.98 C161.7061,0.98 0.0851,162.602 0.0851,362.002 C0.0851,369.39 0.3121,376.723 0.7501,384 L50.2891,384 Z" id="Fill-37" fill="#CA3F8F" mask="url(#mask-26)"></path>
            </g>
            <g id="Group-42" transform="translate(182.000000, 185.000000)">
                <mask id="mask-28" fill="white">
                    <use xlink:href="#path-27"></use>
                </mask>
                <g id="Clip-41"></g>
                <path d="M50.8525,334 C50.2495,326.746 49.9255,319.412 49.9255,312.002 C49.9255,167.197 167.3015,49.822 312.0875,49.822 C456.8735,49.822 574.2495,167.197 574.2495,312.002 C574.2495,319.412 573.9255,326.746 573.3235,334 L584.9995,334 L584.9995,161.54 C531.9205,65.469 429.6065,0.401 312.0875,0.401 C140.0035,0.401 0.5055,139.899 0.5055,312.002 C0.5055,319.399 0.7815,326.731 1.2895,334 L50.8525,334 Z" id="Fill-40" fill="#EA4893" mask="url(#mask-28)"></path>
            </g>
            <g id="Group-45" transform="translate(231.000000, 234.000000)">
                <mask id="mask-30" fill="white">
                    <use xlink:href="#path-29"></use>
                </mask>
                <g id="Clip-44"></g>
                <path d="M51.54,285 C50.799,277.739 50.415,270.4 50.415,263.003 C50.415,206.186 72.536,152.772 112.703,112.603 C152.87,72.434 206.278,50.312 263.089,50.312 C319.906,50.312 373.319,72.434 413.488,112.603 C453.656,152.771 475.779,206.185 475.779,263.003 C475.779,270.4 475.395,277.739 474.653,285 L524.378,285 C524.978,277.723 525.3,270.388 525.3,263.003 C525.3,192.956 498.024,127.104 448.499,77.574 C398.975,28.048 333.127,0.772 263.089,0.772 C193.048,0.772 127.202,28.048 77.677,77.574 C28.15,127.104 0.876,192.956 0.876,263.003 C0.876,270.388 1.197,277.723 1.798,285 L51.54,285 Z" id="Fill-43" fill="#D61B5F" mask="url(#mask-30)"></path>
            </g>
            <g id="Group-48" transform="translate(231.000000, 234.000000)">
                <mask id="mask-32" fill="white">
                    <use xlink:href="#path-31"></use>
                </mask>
                <g id="Clip-47"></g>
                <path d="M51.4912,285 C50.7482,277.769 50.3652,270.431 50.3652,263.002 C50.3652,145.496 145.5992,50.261 263.0882,50.261 C380.5952,50.261 475.8292,145.496 475.8292,263.002 C475.8292,270.431 475.4462,277.769 474.7032,285 L524.3232,285 C524.9262,277.746 525.2502,270.412 525.2502,263.002 C525.2502,118.197 407.8742,0.822 263.0882,0.822 C118.3022,0.822 0.9262,118.197 0.9262,263.002 C0.9262,270.412 1.2502,277.746 1.8522,285 L51.4912,285 Z" id="Fill-46" fill="#D61B5F" mask="url(#mask-32)"></path>
            </g>
            <g id="Group-51" transform="translate(281.000000, 284.000000)">
                <mask id="mask-34" fill="white">
                    <use xlink:href="#path-33"></use>
                </mask>
                <g id="Clip-50"></g>
                <path d="M51.2656,235 C50.2956,227.805 49.7856,220.464 49.7856,213.002 C49.7856,122.794 122.8976,49.682 213.0876,49.682 C303.2966,49.682 376.4096,122.794 376.4096,213.002 C376.4096,220.464 375.8986,227.805 374.9296,235 L424.7026,235 C425.4466,227.769 425.8286,220.431 425.8286,213.002 C425.8286,95.496 330.5946,0.261 213.0876,0.261 C95.5996,0.261 0.3656,95.496 0.3656,213.002 C0.3656,220.431 0.7476,227.769 1.4916,235 L51.2656,235 Z" id="Fill-49" fill="#EE3442" mask="url(#mask-34)"></path>
            </g>
            <g id="Group-54" transform="translate(330.000000, 333.000000)">
                <mask id="mask-36" fill="white">
                    <use xlink:href="#path-35"></use>
                </mask>
                <g id="Clip-53"></g>
                <path d="M52.3965,186 C50.9975,178.88 50.2555,171.527 50.2555,164.003 C50.2555,101.226 101.3205,50.151 164.0885,50.151 C226.8555,50.151 277.9195,101.226 277.9195,164.003 C277.9195,171.527 277.1785,178.88 275.7795,186 L325.9725,186 C326.9455,178.803 327.4585,171.462 327.4585,164.003 C327.4585,73.92 254.1715,0.631 164.0885,0.631 C74.0145,0.631 0.7355,73.92 0.7355,164.003 C0.7355,171.462 1.2485,178.803 2.2215,186 L52.3965,186 Z" id="Fill-52" fill="#F05424" mask="url(#mask-36)"></path>
            </g>
            <g id="Group-57" transform="translate(330.000000, 333.000000)">
                <mask id="mask-38" fill="white">
                    <use xlink:href="#path-37"></use>
                </mask>
                <g id="Clip-56"></g>
                <path d="M52.3369,186 C50.9429,178.882 50.2059,171.528 50.2059,164.002 C50.2059,101.092 101.1959,50.102 164.0879,50.102 C226.9979,50.102 277.9699,101.092 277.9699,164.002 C277.9699,171.528 277.2329,178.882 275.8399,186 L325.9299,186 C326.8989,178.805 327.4089,171.464 327.4089,164.002 C327.4089,73.794 254.2969,0.682 164.0879,0.682 C73.8979,0.682 0.7849,73.794 0.7849,164.002 C0.7849,171.464 1.2959,178.805 2.2659,186 L52.3369,186 Z" id="Fill-55" fill="#F05424" mask="url(#mask-38)"></path>
            </g>
            <g id="Group-60" transform="translate(380.000000, 383.000000)">
                <mask id="mask-40" fill="white">
                    <use xlink:href="#path-39"></use>
                </mask>
                <g id="Clip-59"></g>
                <path d="M53.4844,136 C50.9904,129.136 49.6274,121.729 49.6274,114.002 C49.6274,78.39 78.4944,49.541 114.0884,49.541 C149.7004,49.541 178.5494,78.39 178.5494,114.002 C178.5494,121.729 177.1864,129.136 174.6934,136 L225.8394,136 C227.2324,128.882 227.9694,121.528 227.9694,114.002 C227.9694,51.092 176.9984,0.102 114.0884,0.102 C51.1964,0.102 0.2064,51.092 0.2064,114.002 C0.2064,121.528 0.9434,128.882 2.3374,136 L53.4844,136 Z" id="Fill-58" fill="#F7941D" mask="url(#mask-40)"></path>
            </g>
            <g id="Group-63" transform="translate(429.000000, 432.000000)">
                <mask id="mask-42" fill="white">
                    <use xlink:href="#path-41"></use>
                </mask>
                <g id="Clip-62"></g>
                <path d="M125.6934,87 C128.1864,80.136 129.5494,72.729 129.5494,65.002 C129.5494,29.39 100.7004,0.541 65.0884,0.541 C29.4944,0.541 0.6274,29.39 0.6274,65.002 C0.6274,72.729 1.9904,80.136 4.4844,87 L125.6934,87 Z" id="Fill-61" fill="#FFEF03" mask="url(#mask-42)"></path>
            </g>
            <g id="Group-66">
                <mask id="mask-44" fill="white">
                    <use xlink:href="#path-43"></use>
                </mask>
                <g id="Clip-65"></g>
                <path d="M34.5732,-19 C24.6652,-10.157 14.9752,-1.015 5.5232,8.437 C-5.0338,18.995 -15.2038,29.847 -24.9998,40.972 L-24.9998,67.585 C-11.5458,51.362 2.7082,35.708 17.7552,20.661 C31.6522,6.762 46.0682,-6.459 60.9702,-19 L34.5732,-19 Z" id="Fill-64" fill="#56A545" mask="url(#mask-44)"></path>
            </g>
            <g id="Group-69">
                <mask id="mask-46" fill="white">
                    <use xlink:href="#path-45"></use>
                </mask>
                <g id="Clip-68"></g>
                <path d="M112.709,-19 C87.259,-0.141 63.131,20.661 40.444,43.349 C16.512,67.282 -5.332,92.814 -25,119.816 L-25,150.2 C-2.381,116.404 23.581,84.801 52.737,55.643 C80.573,27.807 110.639,2.884 142.711,-19 L112.709,-19 Z" id="Fill-67" fill="#67CA54" mask="url(#mask-46)"></path>
            </g>
            <g id="Group-72">
                <mask id="mask-48" fill="white">
                    <use xlink:href="#path-47"></use>
                </mask>
                <g id="Clip-71"></g>
                <path d="M112.7939,-19 C87.3249,-0.131 63.1809,20.682 40.4799,43.384 C16.5319,67.333 -5.3231,92.881 -25.0001,119.902 L-25.0001,150.109 C-2.3901,116.335 23.5619,84.75 52.7019,55.608 C80.5229,27.787 110.5699,2.876 142.6219,-19 L112.7939,-19 Z" id="Fill-70" fill="#67CA54" mask="url(#mask-48)"></path>
            </g>
            <g id="Group-75">
                <mask id="mask-50" fill="white">
                    <use xlink:href="#path-49"></use>
                </mask>
                <g id="Clip-74"></g>
                <path d="M203.4512,-19 C156.7292,7.334 113.8452,39.912 75.4272,78.332 C35.4872,118.273 1.8612,163.042 -24.9998,211.932 L-24.9998,249.853 C3.1462,190.746 40.9572,137.249 87.6492,90.555 C132.6472,45.554 183.9642,8.803 240.5312,-19 L203.4512,-19 Z" id="Fill-73" fill="#00C2C1" mask="url(#mask-50)"></path>
            </g>
            <g id="Group-78">
                <mask id="mask-52" fill="white">
                    <use xlink:href="#path-51"></use>
                </mask>
                <g id="Clip-77"></g>
                <path d="M325.3906,-19 C311.0396,-14.303 296.8516,-9 282.8476,-3.076 C218.2256,24.259 160.1846,63.395 110.3386,113.243 C60.4936,163.091 21.3596,221.134 -5.9734,285.759 C-13.2404,302.939 -19.5804,320.397 -25.0004,338.095 L-25.0004,415.828 C-18.4474,373.503 -6.7334,332.25 10.0726,292.513 C36.5306,229.956 74.4036,173.778 122.6406,125.54 C170.8766,77.302 227.0526,39.427 289.6096,12.969 C323.6946,-1.448 358.8956,-12.119 394.9316,-19 L325.3906,-19 Z" id="Fill-76" fill="#0194D9" mask="url(#mask-52)"></path>
            </g>
            <g id="Group-81" transform="translate(593.000000, 0.000000)">
                <mask id="mask-54" fill="white">
                    <use xlink:href="#path-53"></use>
                </mask>
                <g id="Clip-80"></g>
                <path d="M174,48.0029 L174,27.7569 C154.194,16.2269 133.621,5.9309 112.327,-3.0761 C98.324,-8.9991 84.136,-14.3031 69.785,-19.0001 L0.245,-19.0001 C36.281,-12.1191 71.483,-1.4481 105.569,12.9689 C129.329,23.0179 152.166,34.7179 174,48.0029" id="Fill-79" fill="#0194D9" mask="url(#mask-54)"></path>
            </g>
            <g id="Group-84" transform="translate(593.000000, 0.000000)">
                <mask id="mask-56" fill="white">
                    <use xlink:href="#path-55"></use>
                </mask>
                <g id="Clip-83"></g>
                <path d="M174,47.9434 L174,27.8154 C154.188,16.2794 133.608,5.9794 112.309,-3.0306 C98.26,-8.9726 84.024,-14.2916 69.626,-18.9996 L0.506,-18.9996 C36.459,-12.1176 71.579,-1.4616 105.59,12.9224 C129.342,22.9684 152.172,34.6644 174,47.9434" id="Fill-82" fill="#0194D9" mask="url(#mask-56)"></path>
            </g>
            <g id="Group-87">
                <mask id="mask-58" fill="white">
                    <use xlink:href="#path-57"></use>
                </mask>
                <g id="Clip-86"></g>
                <path d="M325.5508,-19 C311.1528,-14.292 296.9168,-8.973 282.8678,-3.03 C218.2508,24.303 160.2158,63.434 110.3738,113.278 C60.5318,163.123 21.4028,221.16 -5.9282,285.779 C-13.2162,303.009 -19.5702,320.518 -25.0002,338.268 L-25.0002,415.505 C-18.4372,373.286 -6.7392,332.135 10.0268,292.493 C36.4868,229.931 74.3638,173.747 122.6058,125.504 C170.8468,77.261 227.0288,39.383 289.5898,12.922 C323.5988,-1.462 358.7198,-12.117 394.6708,-19 L325.5508,-19 Z" id="Fill-85" fill="#0194D9" mask="url(#mask-58)"></path>
            </g>
            <g id="Group-90" transform="translate(0.000000, 3.000000)">
                <mask id="mask-60" fill="white">
                    <use xlink:href="#path-59"></use>
                </mask>
                <g id="Clip-89"></g>
                <path d="M18.6602,516 C18.3302,508.694 18.1572,501.361 18.1572,494.003 C18.1572,429.754 30.7432,367.421 55.5642,308.732 C79.5352,252.054 113.8482,201.156 157.5532,157.451 C201.2562,113.747 252.1522,79.432 308.8272,55.46 C367.5132,30.639 429.8442,18.053 494.0892,18.053 C558.3322,18.053 620.6642,30.639 679.3502,55.46 C710.3782,68.583 739.6692,84.813 767.0002,103.979 L767.0002,83.038 C741.5352,66.096 714.5072,51.548 686.0702,39.521 C625.2732,13.807 560.6812,0.769 494.0892,0.769 C427.4952,0.769 362.9042,13.807 302.1082,39.521 C243.3782,64.362 190.6302,99.926 145.3302,145.228 C100.0292,190.53 64.4652,243.279 39.6252,302.012 C13.9112,362.811 0.8732,427.405 0.8732,494.003 C0.8732,501.361 1.0422,508.693 1.3592,516 L18.6602,516 Z" id="Fill-88" fill="#0055AF" mask="url(#mask-60)"></path>
            </g>
            <g id="Group-93" transform="translate(50.000000, 53.000000)">
                <mask id="mask-62" fill="white">
                    <use xlink:href="#path-61"></use>
                </mask>
                <g id="Clip-92"></g>
                <path d="M18.1826,466 C17.8146,458.697 17.6276,451.364 17.6276,444.003 C17.6276,386.434 28.9056,330.579 51.1476,277.99 C72.6276,227.203 103.3746,181.595 142.5356,142.434 C181.6946,103.272 227.2996,72.524 278.0846,51.044 C330.6716,28.801 386.5226,17.523 444.0886,17.523 C501.6546,17.523 557.5056,28.801 610.0906,51.044 C648.9536,67.482 684.7706,89.366 716.9996,116.275 L716.9996,93.901 C686.3946,69.979 652.8766,50.249 616.8526,35.012 C562.1426,11.873 504.0156,0.14 444.0886,0.14 C384.1606,0.14 326.0366,11.873 271.3276,35.012 C218.4766,57.366 171.0086,89.371 130.2426,130.139 C89.4746,170.907 57.4696,218.377 35.1166,271.231 C11.9766,325.943 0.2436,384.071 0.2436,444.003 C0.2436,451.363 0.4226,458.696 0.7766,466 L18.1826,466 Z" id="Fill-91" fill="#6F3BA2" mask="url(#mask-62)"></path>
            </g>
            <g id="Group-96" transform="translate(50.000000, 53.000000)">
                <mask id="mask-64" fill="white">
                    <use xlink:href="#path-63"></use>
                </mask>
                <g id="Clip-95"></g>
                <path d="M18.1328,466 C17.7648,458.697 17.5768,451.364 17.5768,444.003 C17.5768,386.427 28.8568,330.565 51.1018,277.971 C72.5838,227.178 103.3348,181.564 142.4988,142.398 C181.6638,103.232 227.2758,72.48 278.0658,50.998 C330.6578,28.752 386.5168,17.473 444.0888,17.473 C501.6588,17.473 557.5188,28.752 610.1108,50.998 C648.9648,67.432 684.7758,89.309 716.9998,116.209 L716.9998,93.965 C686.3898,70.034 652.8648,50.299 616.8318,35.059 C562.1268,11.921 504.0078,0.189 444.0888,0.189 C384.1688,0.189 326.0488,11.921 271.3468,35.059 C218.5018,57.41 171.0388,89.412 130.2778,130.175 C89.5148,170.938 57.5138,218.402 35.1618,271.251 C12.0258,325.956 0.2938,384.078 0.2938,444.003 C0.2938,451.363 0.4728,458.696 0.8258,466 L18.1328,466 Z" id="Fill-94" fill="#6F3BA2" mask="url(#mask-64)"></path>
            </g>
            <g id="Group-99" transform="translate(99.000000, 102.000000)">
                <mask id="mask-66" fill="white">
                    <use xlink:href="#path-65"></use>
                </mask>
                <g id="Clip-98"></g>
                <path d="M18.6484,417 C18.2314,409.702 18.0164,402.369 18.0164,395.003 C18.0164,344.1 27.9884,294.712 47.6544,248.212 C66.6464,203.306 93.8324,162.979 128.4564,128.354 C163.0804,93.729 203.4034,66.543 248.3074,47.55 C294.8054,27.884 344.1894,17.912 395.0884,17.912 C445.9874,17.912 495.3724,27.884 541.8724,47.55 C586.7774,66.543 627.1034,93.729 661.7294,128.354 C663.8474,130.472 665.9364,132.614 668.0004,134.775 L668.0004,110.309 C633.1324,76.849 593.0044,50.381 548.5904,31.596 C499.9804,11.035 448.3354,0.61 395.0884,0.61 C341.8404,0.61 290.1944,11.035 241.5854,31.596 C194.6264,51.458 152.4484,79.896 116.2234,116.122 C80.0004,152.347 51.5614,194.526 31.6994,241.488 C11.1394,290.102 0.7134,341.751 0.7134,395.003 C0.7134,402.367 0.9204,409.7 1.3194,417 L18.6484,417 Z" id="Fill-97" fill="#9F3F8F" mask="url(#mask-66)"></path>
            </g>
            <g id="Group-102" transform="translate(149.000000, 151.000000)">
                <mask id="mask-68" fill="white">
                    <use xlink:href="#path-67"></use>
                </mask>
                <g id="Clip-101"></g>
                <path d="M18.2305,368 C17.7505,360.71 17.4875,353.377 17.4875,346.003 C17.4875,258.489 51.5635,176.214 113.4395,114.337 C175.3125,52.46 257.5815,18.383 345.0885,18.383 C432.5965,18.383 514.8675,52.46 576.7465,114.337 C592.2855,129.874 606.0675,146.699 618.0005,164.568 L618.0005,134.898 C609.0915,123.413 599.4405,112.441 589.0415,102.042 C557.3515,70.354 520.4545,45.477 479.3725,28.103 C436.8495,10.118 391.6695,0.999 345.0885,0.999 C298.5065,0.999 253.3285,10.118 210.8065,28.103 C169.7275,45.477 132.8325,70.354 101.1445,102.042 C69.4575,133.731 44.5815,170.629 27.2065,211.71 C9.2215,254.234 0.1025,299.417 0.1025,346.003 C0.1025,353.374 0.3575,360.704 0.8135,368 L18.2305,368 Z" id="Fill-100" fill="#E247A0" mask="url(#mask-68)"></path>
            </g>
            <g id="Group-105" transform="translate(149.000000, 152.000000)">
                <mask id="mask-70" fill="white">
                    <use xlink:href="#path-69"></use>
                </mask>
                <g id="Clip-104"></g>
                <path d="M18.1797,367 C17.6997,359.71 17.4367,352.377 17.4367,345.003 C17.4367,257.476 51.5187,175.188 113.4027,113.302 C175.2867,51.416 257.5677,17.333 345.0887,17.333 C432.6107,17.333 514.8937,51.416 576.7817,113.302 C592.3037,128.823 606.0757,145.629 617.9997,163.478 L617.9997,133.947 C609.0997,122.486 599.4327,111.505 589.0057,101.079 C523.8537,35.929 437.2297,0.049 345.0887,0.049 C252.9497,0.049 166.3277,35.929 101.1807,101.078 C36.0327,166.229 0.1537,252.856 0.1537,345.003 C0.1537,352.375 0.4087,359.707 0.8647,367 L18.1797,367 Z" id="Fill-103" fill="#E247A0" mask="url(#mask-70)"></path>
            </g>
            <g id="Group-108" transform="translate(198.000000, 201.000000)">
                <mask id="mask-72" fill="white">
                    <use xlink:href="#path-71"></use>
                </mask>
                <g id="Clip-107"></g>
                <path d="M18.7217,318 C18.1557,310.719 17.8577,303.384 17.8577,296.003 C17.8577,221.678 46.7987,151.803 99.3507,99.248 C151.8997,46.695 221.7707,17.753 296.0887,17.753 C370.4067,17.753 440.2767,46.695 492.8257,99.248 C532.2727,138.696 558.4137,187.904 568.9997,241.428 L568.9997,182.208 C554.3417,147.056 532.8007,114.767 505.0577,87.025 C449.2397,31.209 375.0257,0.47 296.0887,0.47 C217.1527,0.47 142.9407,31.208 87.1267,87.025 C31.3127,142.843 0.5737,217.059 0.5737,296.003 C0.5737,303.38 0.8427,310.716 1.3747,318 L18.7217,318 Z" id="Fill-106" fill="#F44B99" mask="url(#mask-72)"></path>
            </g>
            <g id="Group-111" transform="translate(247.000000, 250.000000)">
                <mask id="mask-74" fill="white">
                    <use xlink:href="#path-73"></use>
                </mask>
                <g id="Clip-110"></g>
                <path d="M19.3916,269 C18.7036,261.733 18.3466,254.396 18.3466,247.003 C18.3466,185.895 42.1396,128.446 85.3406,85.24 C128.5426,42.036 185.9866,18.243 247.0886,18.243 C308.1986,18.243 365.6466,42.036 408.8496,85.24 C452.0536,128.445 475.8476,185.893 475.8476,247.003 C475.8476,254.396 475.4916,261.733 474.8026,269 L492.2506,269 C492.8906,261.727 493.2316,254.392 493.2316,247.003 C493.2316,181.249 467.6276,119.43 421.1356,72.937 C374.6476,26.444 312.8356,0.841 247.0886,0.841 C181.3406,0.841 119.5296,26.444 73.0396,72.937 C26.5476,119.43 0.9446,181.248 0.9446,247.003 C0.9446,254.392 1.2866,261.727 1.9256,269 L19.3916,269 Z" id="Fill-109" fill="#E91D68" mask="url(#mask-74)"></path>
            </g>
            <g id="Group-114" transform="translate(247.000000, 250.000000)">
                <mask id="mask-76" fill="white">
                    <use xlink:href="#path-75"></use>
                </mask>
                <g id="Clip-113"></g>
                <path d="M19.3418,269 C18.6528,261.733 18.2968,254.396 18.2968,247.003 C18.2968,185.88 42.0948,128.419 85.3068,85.205 C128.5168,41.991 185.9718,18.192 247.0888,18.192 C308.2118,18.192 365.6728,41.991 408.8858,85.204 C452.0988,128.418 475.8978,185.879 475.8978,247.003 C475.8978,254.396 475.5408,261.733 474.8528,269 L492.1998,269 C492.8408,261.727 493.1818,254.392 493.1818,247.003 C493.1818,181.262 467.5838,119.456 421.1018,72.972 C374.6208,26.49 312.8218,0.89 247.0888,0.89 C181.3548,0.89 119.5548,26.49 73.0738,72.972 C26.5928,119.455 0.9948,181.262 0.9948,247.003 C0.9948,254.392 1.3358,261.727 1.9768,269 L19.3418,269 Z" id="Fill-112" fill="#E91D68" mask="url(#mask-76)"></path>
            </g>
            <g id="Group-117" transform="translate(297.000000, 300.000000)">
                <mask id="mask-78" fill="white">
                    <use xlink:href="#path-77"></use>
                </mask>
                <g id="Clip-116"></g>
                <path d="M19.0674,219 C18.1814,211.789 17.7164,204.449 17.7164,197.003 C17.7164,98.087 98.1824,17.613 197.0884,17.613 C296.0044,17.613 376.4774,98.087 376.4774,197.003 C376.4774,204.449 376.0124,211.789 375.1274,219 L392.5234,219 C393.3314,211.776 393.7604,204.439 393.7604,197.003 C393.7604,88.558 305.5344,0.329 197.0884,0.329 C88.6524,0.329 0.4334,88.558 0.4334,197.003 C0.4334,204.439 0.8634,211.776 1.6714,219 L19.0674,219 Z" id="Fill-115" fill="#F63644" mask="url(#mask-78)"></path>
            </g>
            <g id="Group-120" transform="translate(346.000000, 349.000000)">
                <mask id="mask-80" fill="white">
                    <use xlink:href="#path-79"></use>
                </mask>
                <g id="Clip-119"></g>
                <path d="M20.0596,170 C18.8336,162.848 18.1876,155.5 18.1876,148.003 C18.1876,76.365 76.4596,18.083 148.0886,18.083 C219.7146,18.083 277.9886,76.365 277.9886,148.003 C277.9886,155.5 277.3416,162.848 276.1166,170 L293.7466,170 C294.8266,162.822 295.3906,155.478 295.3906,148.003 C295.3906,66.779 229.3106,0.699 148.0886,0.699 C66.8756,0.699 0.8036,66.779 0.8036,148.003 C0.8036,155.478 1.3686,162.822 2.4476,170 L20.0596,170 Z" id="Fill-118" fill="#E45022" mask="url(#mask-80)"></path>
            </g>
            <g id="Group-123" transform="translate(346.000000, 349.000000)">
                <mask id="mask-82" fill="white">
                    <use xlink:href="#path-81"></use>
                </mask>
                <g id="Clip-122"></g>
                <path d="M20.0088,170 C18.7838,162.848 18.1368,155.5 18.1368,148.003 C18.1368,76.338 76.4328,18.033 148.0888,18.033 C219.7428,18.033 278.0388,76.338 278.0388,148.003 C278.0388,155.5 277.3928,162.848 276.1668,170 L293.6958,170 C294.7768,162.822 295.3408,155.478 295.3408,148.003 C295.3408,66.807 229.2828,0.75 148.0888,0.75 C66.9038,0.75 0.8538,66.807 0.8538,148.003 C0.8538,155.478 1.4178,162.822 2.4978,170 L20.0088,170 Z" id="Fill-121" fill="#F17322" mask="url(#mask-82)"></path>
            </g>
            <g id="Group-126" transform="translate(396.000000, 399.000000)">
                <mask id="mask-84" fill="white">
                    <use xlink:href="#path-83"></use>
                </mask>
                <g id="Clip-125"></g>
                <path d="M20.6387,120 C18.6477,113.003 17.5587,105.63 17.5587,98.003 C17.5587,53.599 53.6837,17.473 98.0887,17.473 C142.4927,17.473 178.6177,53.599 178.6177,98.003 C178.6177,105.63 177.5287,113.003 175.5367,120 L193.4077,120 C195.0387,112.927 195.9027,105.564 195.9027,98.003 C195.9027,44.058 152.0227,0.17 98.0887,0.17 C44.1527,0.17 0.2737,44.058 0.2737,98.003 C0.2737,105.564 1.1367,112.927 2.7687,120 L20.6387,120 Z" id="Fill-124" fill="#FBA61D" mask="url(#mask-84)"></path>
            </g>
            <g id="Group-129" transform="translate(445.000000, 448.000000)">
                <mask id="mask-86" fill="white">
                    <use xlink:href="#path-85"></use>
                </mask>
                <g id="Clip-128"></g>
                <path d="M92.166,71 C95.555,64.396 97.48,56.922 97.48,49.003 C97.48,22.319 75.772,0.609 49.089,0.609 C22.404,0.609 0.695,22.319 0.695,49.003 C0.695,56.922 2.621,64.396 6.01,71 L92.166,71 Z" id="Fill-127" fill="#FFEF03" mask="url(#mask-86)"></path>
            </g>
            <g id="Group-132">
                <mask id="mask-88" fill="white">
                    <use xlink:href="#path-87"></use>
                </mask>
                <g id="Clip-131"></g>
                <polygon id="Fill-130" mask="url(#mask-88)" points="-5.909 504 756.3 504 756.3 -5 -5.909 -5"></polygon>
            </g>
        </g>
    </g>
</svg>