<?xml version="1.0" encoding="UTF-8"?>
<svg width="240px" height="160px" viewBox="0 0 240 160" version="1.1" xmlns="http://www.w3.org/2000/svg" xmlns:xlink="http://www.w3.org/1999/xlink">
    <!-- Generator: Sketch 51.3 (57544) - http://www.bohemiancoding.com/sketch -->
    <title>Illustration-rainbow-9</title>
    <desc>Created with Sketch.</desc>
    <defs></defs>
    <g id="components" stroke="none" stroke-width="1" fill="none" fill-rule="evenodd">
        <g id="Illustration-rainbow-9" fill-rule="nonzero">
            <polygon id="Fill-1" fill="#D5EBF1" points="0 160 240 160 240 0 0 0"></polygon>
            <g id="Group-80" transform="translate(25.913592, 11.000000)">
                <path d="M21.6467994,38.870721 C23.3891863,39.7667932 25.5353075,39.0780441 26.4313797,37.3356573 L38.5115501,13.8439879 L37.8092705,13.482591 L25.7291001,36.9746969 C25.032058,38.3299351 23.3629981,38.8654834 22.0077598,38.1684414 C20.6529581,37.4713993 20.1174098,35.8023394 20.8140154,34.4471011 L20.1117357,34.0861407 C19.2161,35.8285276 19.9044126,37.9746488 21.6467994,38.870721" id="Fill-23" fill="#B0E1E8"></path>
                <path d="M35.9367284,18.3093343 L29.3648049,31.0891656 C29.1395866,31.1376137 28.9139318,31.1830065 28.6865311,31.2240347 L35.568348,17.8410024 C35.5709668,17.8401294 35.5731492,17.8396929 35.5753315,17.8392565 C35.8455062,17.7772778 36.0637411,18.0627289 35.9367284,18.3093343" id="Fill-25" fill="#E4E4E4"></path>
                <path d="M42.0903394,5.34675318 L42.6389817,5.62871257 C42.8026578,5.71295121 43.0038703,5.64224313 43.0785066,5.47376584 L45.2372855,0.601018704 C45.3058113,0.446071979 45.2416502,0.264064137 45.0910682,0.186372539 C44.9396132,0.109117412 44.7545501,0.162366709 44.6681291,0.308584041 L41.9611443,4.89893532 C41.8673034,5.05781027 41.9266632,5.26251454 42.0903394,5.34675318" id="Fill-27" fill="#E4E4E4"></path>
                <path d="M44.8074066,1.57133438 L43.0785503,5.47380949 C43.003914,5.64228678 42.8027015,5.71299486 42.6390254,5.62875622 L42.090383,5.34679682 C41.9262704,5.26255818 41.867347,5.05785392 41.961188,4.89897897 L43.8201122,1.74635871 C44.161868,1.7406846 44.4962037,1.68438002 44.8074066,1.57133438" id="Fill-29" fill="#B0E1E8"></path>
                <path d="M43.1060479,2.89479764 L44.0427117,3.37622366 C44.2880077,3.50279986 44.5891717,3.4059036 44.7157479,3.16017119 C44.8418877,2.91487524 44.7454279,2.61327472 44.4996955,2.48713499 L43.5634681,2.0052725 C43.3177357,1.87913277 43.0161351,1.97602903 42.8899954,2.22176144 C42.7638557,2.46705739 42.8607519,2.76822144 43.1060479,2.89479764" id="Fill-31" fill="#E4E4E4"></path>
                <path d="M13.909502,6.6212009 C13.909502,6.6212009 15.3681836,5.7626651 16.0407833,9.0038887 C16.0407833,9.0038887 23.6702727,7.61940698 25.1158602,16.0834264 C25.1158602,16.0834264 29.360964,13.7627173 36.2798808,17.3203814 L43.8028717,2.69079173 C29.482739,-4.67288769 13.909502,6.6212009 13.909502,6.6212009" id="Fill-33" fill="#F6DB65"></path>
                <path d="M43.802959,2.69083537 L36.2799681,17.320425 C43.1984485,20.8780891 43.7802625,25.6814376 43.7802625,25.6814376 C51.5062118,21.9330362 54.8181435,28.9444847 54.8181435,28.9444847 C57.8459334,27.6062687 57.9961559,29.2919145 57.9961559,29.2919145 C57.9961559,29.2919145 58.1230916,10.0549513 43.802959,2.69083537" id="Fill-35" fill="#F6DB65"></path>
                <path d="M16.0409142,9.00410694 C16.0409142,9.00410694 23.6704037,7.61918875 25.1159911,16.0836446 C25.1159911,16.0836446 29.3610949,13.762499 36.2800118,17.3205996 L43.8030026,2.69100996 C29.8848585,-4.46621931 16.0409142,9.00410694 16.0409142,9.00410694" id="Fill-37" fill="#FE4849"></path>
                <path d="M54.8180562,28.944441 C54.8180562,28.944441 51.5061245,21.9334291 43.7801753,25.6813939 C43.7801753,25.6813939 43.1983612,20.8784819 36.2798808,17.3203814 L43.8028717,2.69079173 C57.7205793,9.848021 54.8180562,28.944441 54.8180562,28.944441" id="Fill-39" fill="#FE4849"></path>
                <path d="M43.802959,2.69083537 C50.4800716,6.12454209 43.7802625,25.6814376 43.7802625,25.6814376 C43.7802625,25.6814376 43.1984485,20.8780891 36.2799681,17.320425 C29.3610513,13.7627609 25.1159475,16.08347 25.1159475,16.08347 C25.1159475,16.08347 37.1254098,-0.742871339 43.802959,2.69083537" id="Fill-41" fill="#F6DB65"></path>
                <path d="M20.9066342,33.6132695 C21.2366053,33.8354326 21.3396121,34.2841234 21.1597866,34.6385367 C20.5753538,35.7881978 21.0227351,37.1979947 22.1593021,37.8020687 C23.3351513,38.4275297 24.7990705,37.9199155 25.4079457,36.7353369 L28.0861234,31.5278176 C28.1659974,31.3728708 28.3562982,31.3117651 28.5112449,31.391639 L29.3540678,31.8246169 C29.5090145,31.9044909 29.5701202,32.0947916 29.4906828,32.2501748 L26.8234168,37.4363072 C25.813426,39.4004206 23.3530466,40.2332047 21.406392,39.1900422 C19.5147325,38.1769962 18.7757894,35.8213695 19.7609014,33.9057042 C19.9747715,33.4897486 20.5063915,33.3444042 20.9066342,33.6132695" id="Fill-43" fill="#FE4849"></path>
                <path d="M168.099214,82.8913037 C168.099214,82.8913037 167.918515,82.0585197 167.580251,80.4968313 C167.423122,79.7129318 167.173898,78.7583727 166.862695,77.6397009 C166.707312,77.0805833 166.540144,76.4804376 166.362065,75.8392637 C166.155614,75.2059462 165.936507,74.53291 165.705178,73.8214645 C163.848436,68.162199 160.293827,60.1918268 153.830148,52.1852276 C150.61293,48.1880386 146.630581,44.262867 141.979124,40.6816336 C139.637028,38.9148044 137.147405,37.2020976 134.46399,35.6831832 C131.804144,34.1271689 128.964472,32.7448695 125.998661,31.5332298 C120.072276,29.0946739 113.583282,27.4325974 106.877362,26.7325001 C103.524839,26.3684844 100.120376,26.3113069 96.7167853,26.4295902 C93.3110127,26.5771169 89.9178977,27.007476 86.5649378,27.6141688 C83.2255086,28.2920062 79.9140133,29.1483596 76.6959226,30.2718325 C73.4904895,31.4223665 70.3492175,32.7357037 67.3694392,34.3152873 C61.3998438,37.4482664 55.9867473,41.393952 51.3841749,45.8533624 C49.0778692,48.0771753 46.9518256,50.4122879 45.0562379,52.8425509 C43.1261691,55.2474986 41.4475069,57.7598179 39.9259737,60.268209 C36.9304825,65.3172899 34.6844097,70.4375153 33.1755341,75.3421247 C30.1350866,85.1727306 29.784165,93.8920847 30.1542912,99.8368013 C30.2023029,100.583164 30.2481322,101.289372 30.2913427,101.954116 C30.3629237,102.615367 30.43014,103.23559 30.4929917,103.812603 C30.617822,104.966629 30.739597,105.945631 30.8840685,106.731712 C31.1476961,108.307804 31.2882394,109.148445 31.2882394,109.148445 L25.1584596,110.325167 C25.1584596,110.325167 25.0048223,109.410327 24.7171888,107.694564 C24.5618056,106.839084 24.4278094,105.773225 24.290758,104.516192 C24.2217958,103.887676 24.1379936,103.214203 24.0729596,102.491846 C24.0258209,101.767743 23.9751904,100.998247 23.9223776,100.185104 C23.5216985,93.7087675 23.9005541,84.1980939 27.2168505,73.4845099 C28.8623411,68.140812 31.3056981,62.5609841 34.5700546,57.0623394 C36.2264569,54.329603 38.0574471,51.5946842 40.1577391,48.9745569 C42.2235499,46.3282414 44.5381484,43.7836234 47.0513407,41.3607803 C52.0659404,36.5033096 57.9657007,32.2001554 64.4747725,28.7856533 C67.724289,27.0646535 71.147084,25.6291049 74.6410235,24.3781828 C78.1480571,23.1538855 81.7537329,22.2189675 85.3886521,21.4848256 C89.0371019,20.8213917 92.7326904,20.3548056 96.4435553,20.1937483 C100.152674,20.0619345 103.863539,20.1287144 107.518973,20.5241559 C114.829839,21.2862319 121.903266,23.0997633 128.360398,25.7552446 C131.591583,27.0760017 134.683971,28.582695 137.582565,30.2761972 C140.503857,31.933036 143.217389,33.795452 145.767681,35.721156 C150.83553,39.6201394 155.171419,43.8988513 158.678453,48.254382 C165.725255,56.9781008 169.597614,65.6734491 171.62327,71.8381464 C171.875113,72.61288 172.112989,73.3465855 172.337771,74.036644 C172.544221,74.7315037 172.715753,75.3883905 172.884231,75.9972657 C173.222495,77.2158889 173.492669,78.2559961 173.665075,79.1079848 C174.033019,80.8084706 174.228994,81.715018 174.228994,81.715018 L168.099214,82.8913037 Z" id="Fill-45" fill="#FE4849"></path>
                <path d="M161.969434,84.0677204 C161.969434,84.0677204 161.804449,83.3086997 161.494555,81.8849357 C161.353575,81.1699984 161.124429,80.3005509 160.840724,79.2822672 C160.699744,78.7729071 160.547852,78.2251377 160.385922,77.6411413 C160.197804,77.0650014 159.997901,76.452198 159.787086,75.8049135 C158.098385,70.6510799 154.862835,63.4052473 148.98228,56.1166407 C146.055314,52.4773567 142.426506,48.9057256 138.191004,45.6422421 C136.056668,44.0342879 133.790517,42.4717265 131.345851,41.0898636 C128.923444,39.6713373 126.336925,38.4138682 123.636924,37.310473 C118.24085,35.0892789 112.335852,33.579094 106.235752,32.9409753 C103.185266,32.6083855 100.088077,32.5603738 96.9900153,32.6651265 C93.8897714,32.7995592 90.7991299,33.1941277 87.74166,33.7440795 C84.6972842,34.3651758 81.6799695,35.1425282 78.7508217,36.1656131 C75.8338951,37.2148861 72.9745824,38.4068847 70.2641059,39.8450522 C64.8335506,42.6960719 59.9071177,46.2851618 55.717009,50.3460754 C53.6171536,52.3704217 51.6796648,54.4964653 49.9547368,56.7111123 C48.1953276,58.8995711 46.6685568,61.1897274 45.2814562,63.473773 C42.5552668,68.0732902 40.5060418,72.7343495 39.1346542,77.1989975 C36.3700555,86.1470618 36.0470679,94.0759694 36.3862048,99.4886295 C36.4298518,100.168213 36.47088,100.811133 36.5097258,101.416079 C36.5751962,102.018844 36.6371749,102.583636 36.6943524,103.108709 C36.8078345,104.160164 36.9173884,105.052308 37.0505116,105.768991 C37.2901335,107.205849 37.4180191,107.97229 37.4180191,107.97229 L31.2882394,109.148576 C31.2882394,109.148576 31.1476961,108.307935 30.883632,106.731843 C30.739597,105.945761 30.617822,104.96676 30.4925552,103.812298 C30.43014,103.235721 30.3629237,102.615498 30.2913427,101.95381 C30.2481322,101.289503 30.2023029,100.583295 30.1542912,99.8369323 C29.784165,93.8922157 30.1350866,85.1724251 33.1755341,75.3422557 C34.6839732,70.4372098 36.9304825,65.3174208 39.9259737,60.2683399 C41.4475069,57.7599489 43.1261691,55.2471931 45.0562379,52.8426818 C46.9513891,50.4124188 49.0778692,48.0773062 51.3841749,45.8530569 C55.9867473,41.394083 61.3994074,37.4479609 67.3694392,34.3154182 C70.3492175,32.7358346 73.4904895,31.422061 76.6959226,30.2719634 C79.9140133,29.1480541 83.2255086,28.2921371 86.5649378,27.6142998 C89.9178977,27.0076069 93.3110127,26.5768114 96.7167853,26.4292847 C100.120376,26.3110014 103.524839,26.3686154 106.877362,26.7326311 C113.583282,27.4327284 120.072276,29.0943683 125.998661,31.5329242 C128.964472,32.7450005 131.804144,34.1272998 134.46399,35.6833141 C137.147405,37.2022285 139.637028,38.9149354 141.979124,40.6817645 C146.630581,44.262998 150.61293,48.187733 153.830148,52.1853585 C160.293827,60.1919577 163.848436,68.16233 165.705178,73.8211589 C165.936507,74.5326045 166.155614,75.2056407 166.361628,75.8389581 C166.540144,76.480132 166.706876,77.0807143 166.862695,77.6393954 C167.173898,78.7585036 167.423122,79.7126262 167.579815,80.4965257 C167.918515,82.0582141 168.099214,82.8914347 168.099214,82.8914347 L161.969434,84.0677204 Z" id="Fill-47" fill="#FF8A53"></path>
                <path d="M155.839698,85.244137 C155.839698,85.244137 155.689989,84.5588797 155.409775,83.2734766 C155.284072,82.6275015 155.075876,81.8431655 154.819232,80.9248334 C154.692219,80.4647944 154.556041,79.9711472 154.410696,79.4438919 C154.240473,78.924493 154.059775,78.3719224 153.869038,77.7883625 C152.348814,73.1403972 149.431887,66.6186678 144.134455,60.0476172 C141.497305,56.7662384 138.221601,53.5481477 134.402928,50.6028505 C132.476787,49.1537713 130.434109,47.7413555 128.227319,46.4969806 C126.043225,45.2155057 123.709421,44.082867 121.27523,43.0881526 C116.409903,41.0843205 111.088902,39.7255905 105.594185,39.149887 C102.846172,38.8482865 100.054949,38.8094407 97.2628525,38.9006628 C94.4685738,39.0215649 91.6804057,39.380343 88.9179893,39.8739901 C86.1691035,40.4383454 83.4464058,41.1371333 80.8057645,42.0593937 C78.1777807,43.0078422 75.5995545,44.0776293 73.1588163,45.3748171 C68.2673009,47.9443139 63.8275317,51.1759352 60.0498869,54.838352 C58.1564815,56.6641045 56.4079841,58.5802063 54.8532793,60.5792373 C53.2640933,62.5520801 51.8896504,64.6205097 50.6369825,66.6793371 C48.1796584,70.8297269 46.3281541,75.0316202 45.0938179,79.0558704 C42.6046315,87.121393 42.3095781,94.2594176 42.6181621,99.1400212 C42.6570079,99.7528246 42.6936714,100.332456 42.7281525,100.878043 C42.7879488,101.421448 42.8442534,101.930808 42.8961933,102.405251 C42.9983272,103.353699 43.0952234,104.158986 43.2178714,104.805834 C43.4330509,106.103458 43.5478425,106.795699 43.5478425,106.795699 L37.4180627,107.971984 C37.4180627,107.971984 37.2901771,107.205544 37.0505553,105.768686 C36.917432,105.052439 36.8078782,104.160295 36.6943961,103.10884 C36.6372185,102.583767 36.5752398,102.018975 36.5097694,101.41621 C36.4709236,100.811263 36.429459,100.167907 36.3862485,99.4887604 C36.0471116,94.0756639 36.3700991,86.1467563 39.1346979,77.198692 C40.5060855,72.7344805 42.5553105,68.0734211 45.2814999,63.473904 C46.6686004,61.1898583 48.1953713,58.8997021 49.9547804,56.7108068 C51.6797085,54.4961598 53.6171972,52.3705526 55.7170527,50.3457699 C59.9071613,46.2852928 64.8335942,42.6962029 70.2641496,39.8447467 C72.9746261,38.4065792 75.8339387,37.2150171 78.7508654,36.165744 C81.6800132,35.1426592 84.6973279,34.3653067 87.7412672,33.7442104 C90.7991735,33.1942587 93.8898151,32.7992536 96.9896225,32.6652575 C100.088121,32.5600683 103.185309,32.6085164 106.235796,32.9411063 C112.335895,33.5792249 118.240893,35.0894099 123.636967,37.3106039 C126.336969,38.4139992 128.923488,39.6710318 131.345894,41.0899946 C133.790561,42.4718575 136.056711,44.0339824 138.190611,45.642373 C142.426549,48.9058566 146.055358,52.4770512 148.982323,56.1167716 C154.862879,63.4053782 158.098428,70.6507744 159.787129,75.8050444 C159.997944,76.4518925 160.197847,77.0651323 160.385966,77.6412722 C160.547896,78.2252686 160.699788,78.773038 160.840767,79.2823981 C161.124472,80.3006818 161.353619,81.1701293 161.494599,81.8850666 C161.804492,83.3083941 161.969478,84.0678513 161.969478,84.0678513 L155.839698,85.244137 Z" id="Fill-49" fill="#F6DB65"></path>
                <path d="M149.529312,86.409157 C149.529312,86.409157 149.394879,85.797663 149.143473,84.6506208 C149.033482,84.072735 148.846673,83.3743835 148.61709,82.5555665 C148.504045,82.145285 148.383143,81.7048871 148.253948,81.2352458 C148.102056,80.7721515 147.940562,80.2802502 147.770339,79.7608513 C146.418593,75.617445 143.820289,69.8206916 139.105544,63.9676336 C136.758647,61.0441599 133.836482,58.1796096 130.433765,55.5520624 C128.715384,54.2618581 126.896615,52.9991514 124.928573,51.8922644 C122.982355,50.7482774 120.901268,49.740469 118.73245,48.8544356 C114.398306,47.0679654 109.661301,45.8606903 104.771532,45.3469655 C102.326429,45.0767908 99.8424802,45.0466744 97.3554762,45.125239 C94.8662898,45.2326105 92.3810316,45.555598 89.9136687,45.9925041 C87.4598363,46.4996819 85.0317557,47.1199052 82.6796208,47.9417776 C80.3405799,48.7898381 78.0443131,49.7369773 75.8728766,50.8931853 C71.5204013,53.1807228 67.5672957,56.0557483 64.2021147,59.3201048 C62.515596,60.9463907 60.955217,62.6525506 59.5711718,64.4359656 C58.1526454,66.1931924 56.9300939,68.0390225 55.8118587,69.8735044 C53.6242728,73.5743306 51.9696164,77.3170578 50.8718952,80.901783 C48.6589941,88.0843275 48.3914382,94.4314691 48.6694694,98.7804527 C48.703514,99.3264762 48.7353763,99.8428198 48.7659292,100.329047 C48.8200514,100.813528 48.8706819,101.267457 48.9173842,101.689959 C49.0077334,102.535838 49.0924085,103.254267 49.2041447,103.831279 C49.3953184,104.98967 49.4965794,105.607711 49.4965794,105.607711 L43.3672361,106.784433 C43.3672361,106.784433 43.2524446,106.092192 43.037265,104.794568 C42.9146171,104.14772 42.8177208,103.342433 42.7155869,102.393985 C42.663647,101.919542 42.6073424,101.410182 42.5475461,100.866778 C42.513065,100.321191 42.4759651,99.7415588 42.4375557,99.1287555 C42.1289717,94.2481519 42.4240252,87.1096908 44.9132116,79.0446046 C46.1475478,75.019918 47.999052,70.8180247 50.4563761,66.6680713 C51.709044,64.6088075 53.0834869,62.5403779 54.6726729,60.5675351 C56.2273778,58.5685041 57.9758752,56.6528388 59.8692805,54.8270863 C63.6469253,51.1646695 68.0866946,47.9326117 72.9782099,45.3635514 C75.4189482,44.0659271 77.9971744,42.9965766 80.6251581,42.0476916 C83.2657995,41.1254312 85.9884972,40.4266433 88.737383,39.8627246 C91.4997994,39.3690774 94.2879675,39.0102993 97.0822462,38.8893972 C99.8743425,38.7977386 102.665566,38.8370209 105.413579,39.1386214 C110.908295,39.7143249 116.229297,41.0730549 121.094624,43.0764506 C123.528815,44.0716012 125.862618,45.2038035 128.046712,46.4852784 C130.253503,47.7296533 132.296181,49.1425056 134.222321,50.5911484 C138.040994,53.536882 141.316699,56.7549727 143.953849,60.0363515 C149.251281,66.6074021 152.168207,73.1286951 153.688431,77.7770968 C153.879168,78.3606567 154.059867,78.9127908 154.23009,79.4326262 C154.375434,79.9598815 154.511613,80.4530922 154.638626,80.9131312 C154.89527,81.8318998 155.103466,82.6162358 155.229169,83.2622108 C155.509383,84.5471775 155.659092,85.2328713 155.659092,85.2328713 L149.529312,86.409157 Z" id="Fill-51" fill="#8DD46F"></path>
                <path d="M145.831247,88.7334539 C145.831247,88.7334539 145.707516,88.1706381 145.476122,87.1149057 C145.374888,86.5830225 145.20295,85.9402633 144.991643,85.1866282 C144.887596,84.8090073 144.776318,84.4036671 144.657408,83.9714116 C144.517608,83.545182 144.36897,83.0924386 144.212297,82.614386 C142.968156,78.8008154 140.57669,73.4655121 136.237262,68.0783868 C134.07719,65.3876357 131.387644,62.7511181 128.2558,60.3327362 C126.67421,59.1452389 125.000224,57.9830499 123.188848,56.9642765 C121.397559,55.9113563 119.482136,54.9837745 117.485967,54.1682738 C113.496843,52.5240153 109.136927,51.4128452 104.636407,50.9400159 C102.385946,50.6913483 100.099732,50.6636294 97.8107062,50.7359397 C95.5196713,50.8347639 93.2322517,51.1320399 90.9613032,51.5341663 C88.7028081,52.0009702 86.4680145,52.5718205 84.3031211,53.3282678 C82.1502795,54.1088187 80.0368071,54.9805608 78.0382274,56.0447292 C74.0322309,58.1501671 70.393812,60.7963264 67.296516,63.8008241 C65.7442523,65.2976496 64.3080874,66.8679906 63.0342188,68.5094368 C61.7286142,70.1267799 60.6033841,71.825673 59.5741655,73.5141209 C57.5607223,76.9203431 56.037785,80.3651309 55.0274477,83.664494 C52.9907044,90.2752725 52.7444474,96.1171503 53.000346,100.119934 C53.0316802,100.622491 53.0610061,101.097731 53.089127,101.545252 C53.1389408,101.991166 53.185541,102.40896 53.2285254,102.797829 C53.3116824,103.576371 53.3896167,104.23761 53.4924586,104.768689 C53.6684139,105.834866 53.7616137,106.403708 53.7616137,106.403708 L48.1201963,107.486757 C48.1201963,107.486757 48.0145432,106.849622 47.8164929,105.655295 C47.7036083,105.05994 47.6144254,104.318758 47.520422,103.44581 C47.4726168,103.009136 47.4207943,102.540324 47.3657577,102.040176 C47.3340215,101.538021 47.2998752,101.004531 47.2645234,100.44051 C46.9805043,95.9484259 47.25207,89.3782217 49.5431049,81.9551562 C50.6791817,78.2508545 52.3832971,74.3834528 54.645006,70.5638562 C55.7979554,68.66852 57.0629858,66.7647476 58.5256646,64.9489527 C59.9566072,63.1090546 61.5659157,61.3458857 63.3085968,59.6654719 C66.7855223,56.2946015 70.8718641,53.3198318 75.3739905,50.9552814 C77.6204339,49.7609543 79.9934207,48.7767292 82.4122041,47.90338 C84.8426373,47.0545361 87.3485946,46.4113753 89.8786555,45.8923475 C92.4211702,45.437997 94.9873861,45.1077793 97.5592263,44.9965018 C100.129058,44.9121396 102.698086,44.9482946 105.227344,45.2258862 C110.284654,45.7557608 115.182077,47.0063293 119.6601,48.8502446 C121.900518,49.7661766 124.048539,50.8082501 126.058768,51.9877133 C128.089888,53.1330297 129.969958,54.433412 131.742768,55.7667356 C135.257456,58.4779742 138.272398,61.4398891 140.699618,64.4600539 C145.575348,70.5080165 148.260073,76.5101825 149.659279,80.7885484 C149.834833,81.3256539 150.001147,81.8338356 150.157819,82.3122892 C150.291594,82.7975728 150.416932,83.2515213 150.533834,83.6749387 C150.770048,84.520569 150.96167,85.242468 151.077367,85.8370204 C151.335274,87.0196973 151.473066,87.6508062 151.473066,87.6508062 L145.831247,88.7334539 Z" id="Fill-51-Copy" fill="#01B6F5"></path>
                <path d="M141.136012,89.6219538 C141.136012,89.6219538 141.024574,89.1150519 140.816169,88.1642041 C140.724992,87.6851621 140.570135,87.1062593 140.379821,86.4274957 C140.286111,86.0873903 140.185888,85.7223196 140.078791,85.3330075 C139.95288,84.9491228 139.819008,84.541358 139.677901,84.1107991 C138.557362,80.6760963 136.403482,75.8708414 132.495165,71.0189121 C130.549689,68.5954803 128.127343,66.2208933 125.306639,64.0427714 C123.882177,62.9732488 122.374496,61.92652 120.743076,61.0089591 C119.129746,60.0606441 117.404616,59.225215 115.606761,58.4907317 C112.013945,57.009826 108.087175,56.0090478 104.03377,55.5831927 C102.006887,55.3592296 99.9478017,55.3342644 97.8861844,55.399391 C95.8227576,55.4883972 93.7625872,55.7561399 91.7172512,56.1183158 C89.6831315,56.5387439 87.6703587,57.052882 85.7205419,57.7341784 C83.7815792,58.4371835 81.8780744,59.2223203 80.0780487,60.1807662 C76.4700369,62.0770348 73.1930852,64.4603053 70.4034973,67.1663141 C69.005447,68.514434 67.7119609,69.9287658 66.5646481,71.4071387 C65.3887517,72.8638029 64.3753102,74.3939154 63.4483421,75.9146206 C61.634929,78.982444 60.2632913,82.0850011 59.3533285,85.0565817 C57.5189299,91.0105968 57.2971378,96.2720996 57.5276135,99.8772167 C57.5558352,100.329847 57.5822477,100.757873 57.6075747,101.160934 C57.6524394,101.562548 57.6944099,101.938834 57.7331243,102.289071 C57.8080199,102.990267 57.8782116,103.585813 57.9708362,104.064131 C58.1293109,105.024386 58.2132518,105.536715 58.2132518,105.536715 L53.1322943,106.512166 C53.1322943,106.512166 53.0371369,105.938329 52.8587627,104.862655 C52.7570927,104.326447 52.6767701,103.658899 52.5921055,102.872677 C52.5490495,102.479385 52.5023756,102.057148 52.4528071,101.606689 C52.4242235,101.154421 52.3934694,100.673932 52.3616299,100.165944 C52.1058272,96.1201374 52.3504135,90.2026657 54.4138403,83.517062 C55.4370509,80.1807727 56.9718671,76.6975869 59.008881,73.2574571 C60.0472881,71.5504173 61.1866411,69.8357795 62.5040069,68.2003792 C63.7927891,66.5432698 65.2422171,64.9552671 66.8117672,63.4417981 C69.9432697,60.4058148 73.6236442,57.7265803 77.6784966,55.5969415 C79.7017616,54.5212677 81.8389986,53.6348227 84.0174823,52.8482385 C86.2064583,52.0837253 88.4634555,51.5044607 90.7421619,51.0369964 C93.0320841,50.6277847 95.3433537,50.3303735 97.6596885,50.2301509 C99.9742142,50.1541698 102.288016,50.186733 104.565999,50.4367468 C109.120879,50.9139796 113.531756,52.0403075 117.564899,53.7010347 C119.582737,54.5259715 121.517358,55.4645175 123.327877,56.5268043 C125.15721,57.5583366 126.850501,58.7295295 128.447187,59.9303907 C131.612699,62.3722751 134.328116,65.0399317 136.514197,67.7600512 C140.905537,73.2071649 143.323542,78.6130313 144.58374,82.4663534 C144.741853,82.9500988 144.891644,83.407794 145.032752,83.8387148 C145.153236,84.2757863 145.266122,84.6846366 145.37141,85.0659884 C145.584157,85.8276075 145.756742,86.4777879 145.860945,87.0132729 C146.09323,88.0784539 146.217332,88.6468644 146.217332,88.6468644 L141.136012,89.6219538 Z" id="Fill-51-Copy" fill="#5C56B6"></path>
                <path d="M137.006295,129.293483 C138.083502,129.847363 139.410369,129.421369 139.963813,128.344162 L147.433118,113.820634 L146.998831,113.597162 L139.529962,128.120689 C139.099167,128.958711 138.067352,129.289991 137.229331,128.859196 C136.391745,128.4284 136.060465,127.39615 136.49126,126.558128 L136.056973,126.335528 C135.50353,127.412299 135.928651,128.739167 137.006295,129.293483" id="Fill-53" fill="#B0E1E8"></path>
                <path d="M145.840964,116.581305 L141.777868,124.482715 C141.638634,124.512395 141.498964,124.540329 141.357984,124.565644 L145.613563,116.291489 C145.614436,116.291052 145.615746,116.291052 145.617055,116.290616 C145.784223,116.252207 145.919529,116.42854 145.840964,116.581305" id="Fill-55" fill="#E4E4E4"></path>
                <path d="M149.645146,108.567155 L149.984283,108.741306 C150.085981,108.793682 150.209938,108.749599 150.256204,108.645719 L151.590928,105.633206 C151.633702,105.537619 151.593547,105.42501 151.500142,105.376561 C151.407174,105.32855 151.292383,105.361721 151.239133,105.452071 L149.565272,108.290433 C149.507658,108.388638 149.544322,108.515215 149.645146,108.567155" id="Fill-57" fill="#E4E4E4"></path>
                <path d="M151.324943,106.233046 L150.256466,108.645414 C150.209763,108.74973 150.085806,108.793377 149.984545,108.741437 L149.644972,108.567285 C149.544147,108.515346 149.507484,108.388333 149.565534,108.290564 L150.714759,106.34129 C150.92601,106.337798 151.132897,106.302881 151.324943,106.233046" id="Fill-59" fill="#B0E1E8"></path>
                <path d="M150.208628,107.017775 L150.917019,107.382227 C151.03312,107.442023 151.175409,107.396194 151.235205,107.280093 L151.301985,107.150898 C151.361781,107.03436 151.315516,106.892071 151.199851,106.832275 L150.491024,106.468259 C150.37536,106.408463 150.233071,106.454292 150.173274,106.570393 L150.106495,106.699588 C150.046698,106.815689 150.092528,106.957978 150.208628,107.017775" id="Fill-61" fill="#E4E4E4"></path>
                <path d="M150.704371,106.925243 C159.557285,111.478058 159.47918,123.371419 159.47918,123.371419 C159.47918,123.371419 159.386188,122.32913 157.51417,123.156676 C157.51417,123.156676 155.466691,118.82166 150.690404,121.138877 C150.690404,121.138877 150.330753,118.169574 146.05335,115.970203 C141.775511,113.770396 139.151019,115.205072 139.151019,115.205072 C138.257129,109.971801 133.540638,110.828155 133.540638,110.828155 C133.124683,108.824322 132.2225,109.354633 132.2225,109.354633 C132.2225,109.354633 141.850584,102.372428 150.704371,106.925243" id="Fill-63" fill="#F6DB65"></path>
                <path d="M133.540551,110.828329 C133.540551,110.828329 138.257478,109.971976 139.150932,115.20481 C139.150932,115.20481 141.775424,113.770135 146.053263,115.969942 L150.704283,106.925418 C142.099284,102.500488 133.540551,110.828329 133.540551,110.828329" id="Fill-65" fill="#01B6F5"></path>
                <path d="M157.513952,123.156458 C157.513952,123.156458 155.466909,118.821441 150.690185,121.139095 C150.690185,121.139095 150.330534,118.169356 146.053132,115.969985 L150.704152,106.925025 C159.308715,111.349954 157.513952,123.156458 157.513952,123.156458" id="Fill-67" fill="#01B6F5"></path>
                <path d="M150.704371,106.925243 C154.832501,109.047795 150.690404,121.138877 150.690404,121.138877 C150.690404,121.138877 150.330753,118.169574 146.05335,115.970203 C141.775511,113.770396 139.151019,115.205072 139.151019,115.205072 C139.151019,115.205072 146.575804,104.802255 150.704371,106.925243" id="Fill-69" fill="#F6DB65"></path>
                <path d="M136.548525,126.042963 C136.752793,126.180014 136.816081,126.457172 136.704781,126.676717 C136.343821,127.387289 136.620106,128.258919 137.322822,128.632974 C138.049544,129.018813 138.955219,128.705428 139.331892,127.973031 L140.987422,124.753631 C141.036306,124.657608 141.154589,124.619635 141.250176,124.669393 L141.771321,124.937385 C141.867344,124.98627 141.904444,125.104553 141.85556,125.20014 L140.206577,128.406446 C139.581989,129.620704 138.060893,130.135739 136.857546,129.490636 C135.687807,128.864303 135.230823,127.40824 135.840135,126.223661 C135.972385,125.966144 136.301483,125.876668 136.548525,126.042963" id="Fill-71" fill="#F6DB65"></path>
                <path d="M167.740741,31.7885645 C166.522991,32.4148985 165.022845,31.9334724 164.396947,30.7157221 L155.954315,14.2983528 L156.444907,14.0460734 L164.887539,30.4634427 C165.374639,31.4105818 166.541323,31.7850728 167.488462,31.2979726 C168.435164,30.8108725 168.809219,29.6441891 168.322555,28.69705 L168.813147,28.4447706 C169.439481,29.6625209 168.958055,31.1622306 167.740741,31.7885645" id="Fill-73" fill="#B0E1E8"></path>
                <path d="M157.753923,17.4189362 L162.346457,26.3504146 C162.504022,26.3840228 162.662024,26.415885 162.820899,26.444692 L158.01144,17.091584 C158.009694,17.0911475 158.007948,17.0911475 158.006202,17.090711 C157.817647,17.0470641 157.66532,17.2465307 157.753923,17.4189362" id="Fill-75" fill="#E4E4E4"></path>
                <path d="M153.453169,8.35983409 L153.069949,8.55711837 C152.955157,8.61604178 152.814614,8.56628424 152.762674,8.4488739 L151.254235,5.04353771 C151.206224,4.93485677 151.250743,4.8078441 151.356369,4.75372187 C151.461995,4.69916316 151.59119,4.73669955 151.651423,4.83883345 L153.543518,8.04688536 C153.608989,8.15818512 153.567961,8.30091069 153.453169,8.35983409" id="Fill-77" fill="#E4E4E4"></path>
                <path d="M151.554264,5.72141872 L152.762849,8.44891755 C152.814789,8.56632788 152.955332,8.61608542 153.070123,8.55716202 L153.453344,8.35987774 C153.567699,8.30095434 153.609164,8.15822876 153.543693,8.046929 L152.244323,5.84363022 C152.005574,5.839702 151.772063,5.80041973 151.554264,5.72141872" id="Fill-79" fill="#B0E1E8"></path>
                <path d="M152.778431,6.62822806 L152.053891,7.00097314 C151.901563,7.07910121 151.714754,7.01930487 151.636626,6.86697696 L151.600399,6.79670535 C151.522271,6.64437744 151.582068,6.45756843 151.733959,6.37944036 L152.459372,6.00669528 C152.611263,5.92856722 152.798072,5.98836356 152.8762,6.14069147 L152.912427,6.21096308 C152.990555,6.36329099 152.930759,6.55009999 152.778431,6.62822806" id="Fill-81" fill="#E4E4E4"></path>
                <path d="M152.256282,6.50379057 C142.24847,11.6502042 142.337046,25.0943422 142.337046,25.0943422 C142.337046,25.0943422 142.442262,23.9163107 144.558267,24.8516651 C144.558267,24.8516651 146.872866,19.9518569 152.271995,22.5711112 C152.271995,22.5711112 152.678785,19.2146596 157.513996,16.728092 C162.349206,14.2415245 165.31589,15.8634457 165.31589,15.8634457 C166.326318,9.94797255 171.658231,10.9156258 171.658231,10.9156258 C172.128309,8.65034829 173.147902,9.25049405 173.147902,9.25049405 C173.147902,9.25049405 162.264531,1.35737696 152.256282,6.50379057" id="Fill-83" fill="#FDC954"></path>
                <path d="M152.256282,6.50379057 C162.264531,1.35737696 173.147902,9.25049405 173.147902,9.25049405 C173.147902,9.25049405 172.128309,8.65034829 171.658231,10.9156258 C171.658231,10.9156258 166.326318,9.94797255 165.31589,15.8634457 C165.31589,15.8634457 162.349206,14.2415245 157.513996,16.728092 C152.678785,19.2146596 152.271995,22.5711112 152.271995,22.5711112 C146.872866,19.9518569 144.558267,24.8516651 144.558267,24.8516651 C142.442262,23.9163107 142.33702,25.0943422 142.33702,25.0943422 C142.33702,25.0943422 142.24847,11.6502042 152.256282,6.50379057" id="Fill-85" fill="#8DD46F"></path>
                <path d="M171.658318,10.9158003 C171.658318,10.9158003 166.326405,9.94814714 165.315978,15.8636203 C165.315978,15.8636203 162.349294,14.2416991 157.514083,16.7278302 L152.256369,6.50396515 C161.983096,1.502023 171.658318,10.9158003 171.658318,10.9158003" id="Fill-87" fill="#01B6F5"></path>
                <path d="M144.558398,24.8514905 C144.558398,24.8514905 146.872996,19.9516823 152.272126,22.5709366 C152.272126,22.5709366 152.678479,19.214485 157.514126,16.7279175 L152.256413,6.50361598 C142.529687,11.5055581 144.558398,24.8514905 144.558398,24.8514905" id="Fill-89" fill="#01B6F5"></path>
                <path d="M152.256282,6.50379057 C147.589985,8.90350069 152.271995,22.5711112 152.271995,22.5711112 C152.271995,22.5711112 152.678785,19.2146596 157.513996,16.728092 C162.349206,14.2415245 165.31589,15.8634457 165.31589,15.8634457 C165.31589,15.8634457 156.923016,4.10408045 152.256282,6.50379057" id="Fill-91" fill="#8DD46F"></path>
                <path d="M168.257783,28.114363 C168.027327,28.2693098 167.95531,28.5831314 168.081013,28.8306097 C168.489112,29.6341503 168.1766,30.6196988 167.382225,31.0422014 C166.560353,31.4786711 165.537704,31.1242577 165.11171,30.2967113 L163.240565,26.6569909 C163.184697,26.5487464 163.051573,26.5059724 162.942892,26.5618405 L162.354531,26.8647504 C162.24585,26.9201821 162.203076,27.0533053 162.258944,27.1615498 L164.12267,30.7864302 C164.828878,32.1591272 166.548132,32.7409413 167.908607,32.012037 C169.230674,31.3036467 169.747018,29.6577197 169.058705,28.3186308 C168.908996,28.027942 168.53756,27.9262446 168.257783,28.114363" id="Fill-93" fill="#9FC948"></path>
                <path d="M172.427683,17.9257211 C172.427683,17.9257211 169.707168,22.3388657 172.427683,22.3388657 C175.148199,22.3388657 172.427683,17.9257211 172.427683,17.9257211" id="Fill-95" fill="#B0E1E8"></path>
                <path d="M171.218444,50.0026175 C171.218444,50.0026175 168.497929,54.4153256 171.218444,54.4153256 C173.938959,54.4153256 171.218444,50.0026175 171.218444,50.0026175" id="Fill-97" fill="#B0E1E8"></path>
                <path d="M174.218736,55.1051659 C174.218736,55.1051659 172.620821,57.6969227 174.218736,57.6969227 C175.816652,57.6969227 174.218736,55.1051659 174.218736,55.1051659" id="Fill-99" fill="#B0E1E8"></path>
                <path d="M61.8657315,4.12812992 C61.8657315,4.12812992 58.8418698,9.03317582 61.8657315,9.03317582 C64.8895933,9.03317582 61.8657315,4.12812992 61.8657315,4.12812992" id="Fill-101" fill="#B0E1E8"></path>
                <path d="M20.2610956,17.4295861 C20.2610956,17.4295861 17.2189022,22.3643119 20.2610956,22.3643119 C23.303289,22.3643119 20.2610956,17.4295861 20.2610956,17.4295861" id="Fill-103" fill="#B0E1E8"></path>
                <path d="M136.663186,5.60549238 C136.663186,5.60549238 133.138693,11.3228083 136.663186,11.3228083 C140.187678,11.3228083 136.663186,5.60549238 136.663186,5.60549238" id="Fill-105" fill="#B0E1E8"></path>
                <path d="M66.1820672,10.1343014 C66.1820672,10.1343014 63.9298838,13.7875524 66.1820672,13.7875524 C68.4342506,13.7875524 66.1820672,10.1343014 66.1820672,10.1343014" id="Fill-107" fill="#B0E1E8"></path>
                <path d="M38.0628157,25.8005065 C38.0628157,25.8005065 34.5383233,31.5178224 38.0628157,31.5178224 C41.5873081,31.5178224 38.0628157,25.8005065 38.0628157,25.8005065" id="Fill-109" fill="#B0E1E8"></path>
                <path d="M10.1581327,49.3504882 C10.1581327,49.3504882 6.63364029,55.0678041 10.1581327,55.0678041 C13.6826251,55.0678041 10.1581327,49.3504882 10.1581327,49.3504882" id="Fill-111" fill="#B0E1E8"></path>
                <path d="M35.6183238,124.027695 C35.6183238,124.027695 32.6066832,128.912663 35.6183238,128.912663 C38.6295279,128.912663 35.6183238,124.027695 35.6183238,124.027695" id="Fill-113" fill="#B0E1E8"></path>
                <path d="M144.382806,94.4803149 C144.382806,94.4803149 140.703367,100.448164 144.382806,100.448164 C148.061809,100.448164 144.382806,94.4803149 144.382806,94.4803149" id="Fill-115" fill="#B0E1E8"></path>
                <path d="M54.5239629,119.714589 C54.5239629,119.714589 50.9994705,125.431469 54.5239629,125.431469 C58.0484553,125.431469 54.5239629,119.714589 54.5239629,119.714589" id="Fill-117" fill="#B0E1E8"></path>
                <path d="M159.819079,99.7627324 C159.819079,99.7627324 156.294587,105.480048 159.819079,105.480048 C163.343571,105.480048 159.819079,99.7627324 159.819079,99.7627324" id="Fill-119" fill="#B0E1E8"></path>
                <path d="M165.201186,104.095872 C165.201186,104.095872 161.676694,109.813188 165.201186,109.813188 C168.725679,109.813188 165.201186,104.095872 165.201186,104.095872" id="Fill-121" fill="#B0E1E8"></path>
                <path d="M187.70495,99.8138867 C187.70495,99.8138867 184.180458,105.530766 187.70495,105.530766 C191.229443,105.530766 187.70495,99.8138867 187.70495,99.8138867" id="Fill-123" fill="#B0E1E8"></path>
                <path d="M39.1823167,128.912838 C39.1823167,128.912838 36.9392992,132.551249 39.1823167,132.551249 C41.4253342,132.551249 39.1823167,128.912838 39.1823167,128.912838" id="Fill-125" fill="#B0E1E8"></path>
                <path d="M21.0692628,128.231291 C21.0692628,128.231291 17.5447704,133.948606 21.0692628,133.948606 C24.5937552,133.948606 21.0692628,128.231291 21.0692628,128.231291" id="Fill-127" fill="#B0E1E8"></path>
                <path d="M5.90425586,68.0649536 C9.04290909,67.5608312 9.01366562,70.5423553 9.01366562,70.5423553 C12.1518824,70.0382329 12.1226389,73.019757 12.1226389,73.019757 C15.2612922,72.5151981 15.2316122,75.4967223 15.2316122,75.4967223 L33.4708058,43.7457378 L32.7794379,43.1953496 L5.90425586,68.0649536 Z" id="Fill-129" fill="#FCED42"></path>
                <path d="M1.89419097,78.1783481 C3.25073864,79.2594835 5.23405671,79.0351381 6.31475556,77.6781539 L20.890223,59.3852745 L20.343763,58.9496778 L5.76829556,77.2425572 C4.92765502,78.2975044 3.38517129,78.4725287 2.32978768,77.6314517 C1.27484055,76.7908111 1.10025269,75.2483274 1.94089323,74.1929438 L1.39399676,73.7573471 C0.313297913,75.1138947 0.537643311,77.0972128 1.89419097,78.1783481" id="Fill-131" fill="#B0E1E8"></path>
                <path d="M10.980136,71.4714682 L9.9487582,72.7656008 C9.74492687,72.768656 9.54065908,72.768656 9.33595481,72.7647278 L10.4149078,71.410799 C10.6030262,71.4352413 10.7915811,71.4557553 10.980136,71.4714682" id="Fill-133" fill="#E4E4E4"></path>
                <path d="M2.16637345,73.4854701 C2.41428821,73.7351308 2.42563642,74.1427934 2.20783806,74.4195152 C1.50075723,75.3155874 1.64348281,76.6175763 2.5251515,77.3399336 C3.43737306,78.0871696 4.79653954,77.9012336 5.53111796,76.9794097 L8.76230275,72.9241702 C8.85876255,72.8037046 9.03465981,72.7836269 9.15512544,72.8796503 L9.81157579,73.4025409 C9.93204141,73.4985642 9.95211901,73.674898 9.85565922,73.7953636 L6.63800498,77.8340172 C5.41938173,79.3634069 3.13839135,79.6584604 1.62995225,78.4140854 C0.163850706,77.204628 -0.0679146771,75.0314456 1.12059217,73.5395924 C1.3789822,73.2157319 1.86608233,73.1821237 2.16637345,73.4854701" id="Fill-135" fill="#FCDB1B"></path>
                <path d="M12.1226826,73.0195824 C12.1226826,73.0195824 12.151926,70.0384948 9.0132728,70.5421807 L33.1251655,43.4701509 L12.1226826,73.0195824 Z" id="Fill-137" fill="#FCDB1B"></path>
                <path d="M32.7625029,43.0487394 L34.5886919,41.0112991 C34.7261798,40.8576618 34.9592546,40.8384571 35.1203119,40.9663427 C35.2813692,41.0946648 35.3141044,41.3264302 35.1953847,41.494471 L33.6171105,43.7296321 L32.7625029,43.0487394 Z" id="Fill-139" fill="#E4E4E4"></path>
                <path d="M32.7625029,43.0487394 L33.2369454,42.5193017 C33.644608,42.593938 34.0557625,42.6061592 34.4529498,42.5459264 L33.6171105,43.7296321 L32.7625029,43.0487394 Z" id="Fill-141" fill="#B0E1E8"></path>
                <path d="M32.8699181,42.7659071 L33.8689971,43.5615913 C34.1308789,43.7702237 34.1740894,44.1521347 33.9650204,44.4140165 L32.0174928,42.8623669 C32.2265618,42.6004851 32.6080363,42.5568381 32.8699181,42.7659071" id="Fill-143" fill="#E4E4E4"></path>
                <path d="M53.7612322,114.040484 C56.7946962,116.031222 61.2877148,115.333743 63.5748157,112.517641 C65.8623532,109.701539 65.6240407,105.160945 63.0545439,102.599741 C60.4846106,100.038974 55.8104572,99.0420774 53.0022115,101.338781 C51.6203486,99.1817477 49.0412494,97.8500788 46.4822279,97.9718538 C43.9232064,98.0936288 41.1799946,99.6077421 40.0085101,101.886114 C39.5899357,99.7033289 38.2176751,97.7911554 36.2967722,96.6729201 C34.1157334,95.4027935 30.2032195,96.114239 28.5834806,97.6357722 C28.2727142,93.5329575 23.5841573,90.815061 19.5084037,91.3802892 C15.4330866,91.9459539 12.284831,96.4795641 13.1032116,100.512107 C9.67212373,98.2337356 4.40087981,99.5684598 2.4668828,103.204252 C0.532885792,106.840044 2.37304182,111.957214 6.17949362,113.528505 C5.22406156,117.425306 5.9036448,121.798732 9.22997998,124.041749 C14.3222714,127.474583 21.4140302,125.463331 23.5483668,119.993057 C24.7648077,122.081564 27.4717924,123.193689 29.8885248,123.159644 C32.3052573,123.124727 34.6543369,121.707073 35.811418,119.585394 C38.1133589,122.31944 43.32437,123.558141 47.13475,121.970701 C50.4340241,120.595822 53.253618,117.578507 53.7612322,114.040484" id="Fill-145" fill="#FFFFFF"></path>
                <polygon id="Fill-147" fill="#FFFFFF" points="64.4018821 82.9739711 63.1671094 81.7396349 64.4018821 80.5052988 65.6362182 81.7396349"></polygon>
                <polygon id="Fill-149" fill="#FFFFFF" points="129.390641 82.9739711 128.156305 81.7396349 129.390641 80.5052988 130.624977 81.7396349"></polygon>
                <path d="M145.441594,89.4699052 C142.934513,91.5815454 138.829516,91.4396927 136.474325,89.1595753 C134.119572,86.8794579 133.844596,82.7810079 135.87418,80.2067099 C137.903327,77.6332848 141.989119,76.235709 144.755464,77.9942452 C145.763272,75.9105391 147.9334,74.438327 150.241887,74.2720321 C152.550375,74.1061736 155.174431,75.1689772 156.470309,77.0872613 C156.610853,75.0838656 157.63612,73.2205767 159.238836,72.0106829 C161.058915,70.6371129 164.644949,70.8540383 166.261633,72.044291 C166.09883,68.3303708 170.012217,65.3881289 173.729192,65.4566546 C177.446168,65.5256168 180.757663,69.2535041 180.457808,72.9591314 C183.290496,70.5463272 188.16237,71.1757164 190.288851,74.2292581 C192.414894,77.2827997 191.314991,82.0708717 188.068966,83.8900772 C189.34564,87.2827558 189.206842,91.2795084 186.464067,93.6491021 C182.265665,97.2766013 175.687631,96.2356212 173.184478,91.557976 C172.317649,93.5622446 170.009161,94.851576 167.837725,95.0807225 C165.666288,95.3103056 163.406248,94.2911489 162.14005,92.5120986 C160.368856,95.2120999 155.828262,96.8842151 152.238736,95.8702961 C149.131509,94.9921192 146.277434,92.5889173 145.441594,89.4699052" id="Fill-151" fill="#FFFFFF"></path>
            </g>
        </g>
    </g>
</svg>