<?xml version="1.0" encoding="UTF-8"?>
<svg width="500px" height="345px" viewBox="0 0 500 345" version="1.1" xmlns="http://www.w3.org/2000/svg" xmlns:xlink="http://www.w3.org/1999/xlink">
    <!-- Generator: Sketch 51.3 (57544) - http://www.bohemiancoding.com/sketch -->
    <title>Illustration-rainbow-8</title>
    <desc>Created with Sketch.</desc>
    <defs>
        <polygon id="path-1" points="124.006 53.368 122.829 56.082 0.762 3.114 1.939 0.401"></polygon>
        <polygon id="path-3" points="3.615 136.993 0.606 135.909 49.383 0.569 52.391 1.653"></polygon>
        <path d="M1.559,51.371 C-0.612,46.081 0.132,37.188 5.412,31.627 C8.492,28.387 13.112,26.276 19.602,26.672 C25.613,12.709 38.932,10.347 48.382,14.858 C52.248,4.548 62.986,-1.251 73.083,1.542 C83.178,4.333 86.827,14.858 85.971,21.086 C96.493,16.146 104.657,23.879 106.59,32.684 C106.59,32.684 111.839,30.181 117,32.372 C118.766,33.119 120.521,34.415 122.055,36.55 C128.066,44.927 119.906,53.091 113.462,53.091 C114.967,61.896 111.529,69.845 102.937,71.991 C94.348,74.139 85.971,68.769 85.971,68.769 C85.971,68.769 81.46,82.3 69.43,81.228 C57.402,80.155 53.752,73.924 51.604,70.702 C38.932,75.212 36.567,73.711 31.844,71.778 C27.117,69.845 23.035,62.969 22.607,58.891" id="path-5"></path>
        <path d="M0.845,31.867 C-0.521,28.538 -0.053,22.941 3.271,19.441 C5.209,17.402 8.117,16.074 12.2,16.323 C15.984,7.535 24.367,6.048 30.314,8.887 C32.747,2.398 39.505,-1.251 45.86,0.507 C52.213,2.263 54.511,8.887 53.971,12.807 C60.594,9.698 65.732,14.565 66.949,20.107 C66.949,20.107 70.252,18.531 73.5,19.91 C74.611,20.38 75.716,21.196 76.682,22.54 C80.465,27.812 75.329,32.95 71.274,32.95 C72.221,38.492 70.057,43.494 64.649,44.845 C59.243,46.197 53.971,42.817 53.971,42.817 C53.971,42.817 51.132,51.333 43.561,50.658 C35.992,49.983 33.694,46.062 32.342,44.034 C24.367,46.873 22.878,45.928 19.906,44.711 C16.931,43.494 14.362,39.167 14.092,36.6" id="path-7"></path>
        <path d="M0.926,27.792 C-0.263,24.896 0.145,20.031 3.034,16.988 C4.72,15.214 7.248,14.06 10.799,14.276 C14.088,6.635 21.376,5.343 26.547,7.812 C28.663,2.17 34.539,-1.004 40.064,0.525 C45.588,2.052 47.585,7.812 47.116,11.219 C52.874,8.517 57.342,12.748 58.399,17.566 C58.399,17.566 61.271,16.196 64.096,17.395 C65.062,17.804 66.022,18.513 66.861,19.682 C70.151,24.266 65.686,28.733 62.16,28.733 C62.983,33.551 61.103,37.9 56.4,39.075 C51.7,40.25 47.116,37.312 47.116,37.312 C47.116,37.312 44.648,44.716 38.065,44.129 C31.483,43.542 29.486,40.132 28.311,38.37 C21.376,40.838 20.082,40.016 17.498,38.958 C14.911,37.9 12.678,34.138 12.443,31.906" id="path-9"></path>
        <path d="M1.186,28.194 C-0.002,25.299 0.405,20.433 3.294,17.39 C4.98,15.617 7.508,14.462 11.059,14.679 C14.349,7.038 21.637,5.746 26.808,8.214 C28.923,2.572 34.799,-0.601 40.324,0.927 C45.848,2.454 47.845,8.214 47.376,11.622 C53.134,8.919 57.602,13.15 58.66,17.969 C58.66,17.969 61.532,16.599 64.356,17.797 C65.322,18.207 66.283,18.916 67.122,20.084 C70.412,24.668 65.946,29.135 62.42,29.135 C63.243,33.954 61.362,38.303 56.66,39.477 C51.96,40.653 47.376,37.714 47.376,37.714 C47.376,37.714 44.908,45.119 38.325,44.532 C31.744,43.945 29.747,40.535 28.57,38.772 C21.637,41.24 20.343,40.418 17.758,39.361 C15.172,38.303 12.938,34.541 12.704,32.309" id="path-11"></path>
        <path d="M0.748,28.399 C-0.44,25.505 -0.032,20.639 2.856,17.596 C4.542,15.822 7.07,14.667 10.621,14.884 C13.911,7.244 21.199,5.951 26.37,8.419 C28.485,2.778 34.361,-0.396 39.887,1.133 C45.41,2.66 47.408,8.419 46.938,11.828 C52.697,9.125 57.164,13.356 58.222,18.174 C58.222,18.174 61.094,16.804 63.918,18.003 C64.885,18.412 65.846,19.121 66.685,20.29 C69.975,24.874 65.509,29.341 61.982,29.341 C62.806,34.159 60.925,38.509 56.223,39.683 C51.522,40.859 46.938,37.92 46.938,37.92 C46.938,37.92 44.471,45.324 37.888,44.737 C31.307,44.15 29.309,40.741 28.133,38.978 C21.199,41.446 19.905,40.624 17.32,39.566 C14.734,38.509 12.5,34.747 12.266,32.514" id="path-13"></path>
        <path d="M1.018,28.261 C-0.171,25.366 0.237,20.5 3.126,17.458 C4.812,15.684 7.34,14.529 10.891,14.746 C14.18,7.105 21.468,5.813 26.639,8.281 C28.755,2.639 34.631,-0.534 40.156,0.995 C45.68,2.521 47.677,8.281 47.208,11.689 C52.966,8.986 57.434,13.217 58.491,18.036 C58.491,18.036 61.363,16.666 64.187,17.865 C65.154,18.273 66.115,18.982 66.954,20.151 C70.243,24.735 65.778,29.203 62.252,29.203 C63.075,34.021 61.194,38.37 56.492,39.544 C51.792,40.72 47.208,37.781 47.208,37.781 C47.208,37.781 44.74,45.186 38.157,44.599 C31.576,44.012 29.578,40.602 28.402,38.839 C21.468,41.307 20.174,40.486 17.59,39.428 C15.003,38.37 12.77,34.608 12.535,32.376" id="path-15"></path>
        <path d="M1.755,52.097 C-0.451,46.72 0.305,37.683 5.671,32.031 C8.802,28.738 13.497,26.593 20.091,26.996 C26.201,12.805 39.737,10.405 49.34,14.989 C53.269,4.512 64.182,-1.382 74.443,1.457 C84.702,4.292 88.411,14.989 87.541,21.318 C98.234,16.299 106.531,24.157 108.496,33.105 C108.496,33.105 113.829,30.562 119.075,32.788 C120.869,33.548 122.653,34.864 124.212,37.035 C130.321,45.548 122.028,53.845 115.479,53.845 C117.008,62.793 113.515,70.87 104.783,73.052 C96.053,75.235 87.541,69.777 87.541,69.777 C87.541,69.777 82.957,83.528 70.73,82.438 C58.508,81.348 54.798,75.016 52.614,71.741 C39.737,76.325 37.333,74.8 32.533,72.835 C27.73,70.87 23.582,63.884 23.146,59.738" id="path-17"></path>
        <path d="M11.28,0.341 C10.898,9.627 8.314,15.83 3.038,13.646 C2.839,13.564 2.635,13.471 2.428,13.363" id="path-19"></path>
        <path d="M11.115,0.798 C10.733,10.084 8.149,16.288 2.873,14.104 C2.673,14.022 2.47,13.928 2.262,13.821" id="path-21"></path>
        <path d="M10.936,0.003 C10.555,9.289 7.971,15.493 2.694,13.309 C2.494,13.227 2.291,13.133 2.083,13.026" id="path-23"></path>
        <path d="M11.092,0.423 C10.71,9.709 8.126,15.913 2.85,13.729 C2.65,13.646 2.446,13.553 2.239,13.445" id="path-25"></path>
        <path d="M11.147,0.408 C10.765,9.694 8.181,15.897 2.905,13.714 C2.705,13.631 2.501,13.538 2.294,13.431" id="path-27"></path>
        <path d="M10.649,0.344 C10.269,9.63 7.685,15.833 2.408,13.65 C2.208,13.568 2.005,13.474 1.797,13.367" id="path-29"></path>
        <path d="M17.828,0.375 C17.217,15.267 13.073,25.215 4.611,21.714 C4.291,21.582 3.964,21.431 3.631,21.259" id="path-31"></path>
        <path d="M17.345,0.602 C16.732,15.494 12.589,25.442 4.127,21.94 C3.807,21.808 3.479,21.658 3.147,21.486" id="path-33"></path>
        <path d="M10.594,0.469 C10.213,9.755 7.629,15.958 2.352,13.775 C2.152,13.692 1.949,13.599 1.741,13.492" id="path-35"></path>
        <path d="M11.083,0.705 C10.702,9.991 8.118,16.195 2.841,14.011 C2.642,13.929 2.438,13.834 2.23,13.728" id="path-37"></path>
        <path d="M10.69,0.781 C10.309,10.067 7.725,16.271 2.448,14.087 C2.248,14.004 2.045,13.911 1.837,13.804" id="path-39"></path>
        <path d="M11.054,0.328 C10.673,9.614 8.089,15.817 2.812,13.634 C2.612,13.552 2.409,13.458 2.201,13.351" id="path-41"></path>
        <path d="M11.129,0.361 C10.747,9.647 8.164,15.851 2.887,13.667 C2.687,13.584 2.483,13.491 2.276,13.384" id="path-43"></path>
        <path d="M10.646,0.694 C10.264,9.979 7.68,16.183 2.403,14 C2.204,13.917 2,13.823 1.793,13.716" id="path-45"></path>
        <path d="M11.5,0.5 C11.118,9.786 8.535,15.989 3.258,13.806 C3.058,13.724 2.854,13.629 2.647,13.522" id="path-47"></path>
        <path d="M11.307,0.715 C10.925,10.001 8.341,16.204 3.064,14.021 C2.864,13.938 2.661,13.844 2.453,13.737" id="path-49"></path>
        <path d="M11.142,0.002 C10.761,9.288 8.177,15.492 2.9,13.308 C2.7,13.226 2.497,13.132 2.289,13.025" id="path-51"></path>
        <path d="M11.245,0.722 C10.863,10.008 8.279,16.211 3.003,14.028 C2.803,13.945 2.6,13.852 2.392,13.745" id="path-53"></path>
        <path d="M16.846,0.369 C16.248,14.39 12.204,23.758 3.945,20.461 C3.633,20.336 3.314,20.194 2.989,20.033" id="path-55"></path>
        <path d="M16,0.049 C15.439,13.202 11.646,21.988 3.899,18.896 C3.606,18.779 3.308,18.646 3.003,18.494" id="path-57"></path>
    </defs>
    <g id="components" stroke="none" stroke-width="1" fill="none" fill-rule="evenodd">
        <g id="Illustration-rainbow-8">
            <polygon id="Fill-1" fill="#CAF2FC" points="0.002 311.0313 499.998 311.0313 499.998 0 0.002 0"></polygon>
            <path d="M499.998,262.484623 L499.998,345 L0.002,345 L0.002,262.461275 C23.82,261.718324 398.751,262.310734 499.998,262.484623" id="Fill-2" fill="#B4E6F2"></path>
            <path d="M453.6191,308.3867 C453.6191,310.4267 421.9701,312.0797 382.9281,312.0797 C343.8861,312.0797 312.2361,310.4267 312.2361,308.3867 C312.2361,306.3477 343.8861,304.6937 382.9281,304.6937 C421.9701,304.6937 453.6191,306.3477 453.6191,308.3867" id="Fill-4" fill="#4A96C6" opacity="0.295424107"></path>
            <path d="M310.873,235.0303 C310.873,235.0303 299.332,229.2063 298.943,228.2213 C298.556,227.2373 298.995,226.5373 299.618,226.5113 C300.241,226.4853 312.739,230.5723 312.739,230.5723 L310.873,235.0303 Z" id="Fill-6" fill="#354B5C"></path>
            <path d="M327.083,310.1895 C327.083,310.1895 333.61,290.9745 345.145,285.0095 C343.06,272.3895 350.587,258.7225 360.321,254.7145 C357.174,242.0875 365.519,225.5835 374.88,220.1655 C369.844,204.7725 379.506,190.1145 379.506,190.1145 C379.506,190.1145 324.837,212.2405 327.083,310.1895" id="Fill-8" fill="#D76A27"></path>
            <polygon id="Fill-10" fill="#CFCFD1" points="444.0059 289.3682 442.8289 292.0822 320.7619 239.1142 321.9399 236.4012"></polygon>
            <polygon id="Fill-12" fill="#B2B2B2" points="444.0059 289.3682 443.4179 290.7242 321.3509 237.7582 321.9399 236.4012"></polygon>
            <g id="Group-16" transform="translate(320.000000, 236.000000)">
                <mask id="mask-2" fill="white">
                    <use xlink:href="#path-1"></use>
                </mask>
                <g id="Clip-15"></g>
                <polygon id="Fill-14" mask="url(#mask-2)" points="124.006 53.368 122.829 56.082 0.762 3.114 1.939 0.401"></polygon>
            </g>
            <path d="M379.5059,190.1143 C370.6859,195.7133 367.1579,205.6843 368.0969,219.3513 C360.3179,224.7623 354.0069,233.0473 353.9799,251.8863 C342.6739,262.4773 338.4429,270.3863 339.9839,283.0373 C326.6039,292.8863 327.0829,310.1893 327.0829,310.1893 C327.0829,310.1893 311.2409,285.5823 308.5039,273.8503 C305.7669,262.1183 310.4429,232.1973 310.4429,232.1973 C311.6139,228.3913 331.6709,206.1013 342.1669,199.9523 C345.1169,198.6773 360.4499,190.9523 379.5059,190.1143" id="Fill-17" fill="#F48220"></path>
            <path d="M379.5059,190.1143 C370.6859,195.7133 367.1579,205.6843 368.0969,219.3513 C368.0969,219.3513 350.6179,217.4373 344.1229,217.4943 C337.6279,217.5513 311.9329,232.0413 310.4429,232.1973 C311.6139,228.3913 331.6709,206.1013 342.1669,199.9523 C345.1169,198.6773 360.4499,190.9523 379.5059,190.1143" id="Fill-19" fill="#EDD912"></path>
            <path d="M310.4434,232.1968 L353.9794,251.8868 C342.6734,262.4778 338.4434,270.3868 339.9834,283.0368 C339.9834,283.0368 324.1584,266.8198 321.2624,262.4468 C318.3664,258.0758 310.8554,233.9698 310.4434,232.1968" id="Fill-21" fill="#F89C20"></path>
            <path d="M368.0967,219.3516 C360.3177,224.7626 354.0067,233.0476 353.9797,251.8866 L310.4437,232.1966 C310.4437,232.1966 333.7257,217.8826 342.3087,216.7066 C349.4427,215.7286 368.0967,219.3516 368.0967,219.3516" id="Fill-23" fill="#FFCA05"></path>
            <path d="M447.751,289.9443 C452.28,291.8873 454.7,296.9843 453.101,301.6453 C451.318,306.8483 445.513,309.3583 440.551,307.2303 L433.588,304.2433 C432.379,303.7253 431.819,302.3253 432.338,301.1163 L432.342,301.1063 C432.366,301.0493 432.394,300.9943 432.421,300.9413 C432.992,299.8583 434.308,299.3813 435.453,299.8713 L442.308,302.8103 C444.48,303.7433 447.071,302.9733 448.239,300.9183 C449.619,298.4873 448.553,295.4613 446.057,294.3903 L423.931,284.8993 C423.928,284.8983 423.927,284.8963 423.928,284.8933 L424.959,282.4883 L425.798,280.5343 C425.799,280.5313 425.802,280.5313 425.804,280.5313 L447.751,289.9443 Z" id="Fill-25" fill="#4C6271"></path>
            <path d="M425.0527,282.4873 L447.5037,292.2293 C451.0497,293.7673 452.6767,297.8893 451.1387,301.4343 C450.3687,303.2083 448.9527,304.5003 447.2877,305.1573 C445.6217,305.8163 443.7047,305.8383 441.9327,305.0683 L432.4207,300.9413 C432.9917,299.8583 434.3077,299.3813 435.4527,299.8713 L442.3077,302.8103 C444.4797,303.7433 447.0717,302.9733 448.2397,300.9183 C449.6187,298.4873 448.5527,295.4613 446.0567,294.3903 L423.9307,284.8993 C423.9277,284.8983 423.9267,284.8963 423.9277,284.8933 L424.9587,282.4883 C425.0207,282.4873 425.0527,282.4873 425.0527,282.4873" id="Fill-27" fill="#2D4354"></path>
            <path d="M310.4434,232.1968 C310.4434,232.1968 317.7284,259.5878 320.3294,263.1658 C322.9294,266.7438 339.9834,283.0368 339.9834,283.0368 C339.9834,283.0368 323.2874,264.4488 321.7574,262.0818 C320.2294,259.7148 310.4434,232.1968 310.4434,232.1968" id="Fill-29" fill="#D56727"></path>
            <path d="M310.5596,231.9277 C310.5596,231.9277 335.5396,218.5377 339.9306,217.9927 C344.3206,217.4487 367.8696,218.7737 367.8696,218.7737 C367.8696,218.7737 342.8886,219.2767 340.1156,219.7777 C337.3416,220.2777 310.5596,231.9277 310.5596,231.9277" id="Fill-31" fill="#F89C20"></path>
            <polygon id="Fill-33" fill="#CFCFD1" points="397.6152 294.9932 394.6062 293.9092 443.3832 158.5692 446.3902 159.6532"></polygon>
            <polygon id="Fill-35" fill="#B2B2B2" points="397.6152 294.9932 396.1112 294.4512 444.8862 159.1112 446.3902 159.6532"></polygon>
            <g id="Group-39" transform="translate(394.000000, 158.000000)">
                <mask id="mask-4" fill="white">
                    <use xlink:href="#path-3"></use>
                </mask>
                <g id="Clip-38"></g>
                <polygon id="Fill-37" mask="url(#mask-4)" points="3.615 136.993 0.606 135.909 49.383 0.569 52.391 1.653"></polygon>
            </g>
            <path d="M397.25,299.0732 C395.464,304.0942 390.131,307.0542 384.992,305.6482 C379.257,304.0822 376.149,297.9902 378.105,292.4902 L380.852,284.7722 C381.327,283.4332 382.799,282.7322 384.14,283.2092 L384.15,283.2132 C384.213,283.2352 384.274,283.2602 384.334,283.2872 C385.542,283.8292 386.146,285.2162 385.696,286.4852 L382.995,294.0822 C382.138,296.4902 383.146,299.2332 385.444,300.3522 C388.161,301.6762 391.354,300.3162 392.337,297.5512 L398.286,280.8172 C398.287,280.8142 398.289,280.8132 398.292,280.8142 L400.958,281.7612 L403.124,282.5322 C403.127,282.5332 403.128,282.5372 403.127,282.5382 L397.25,299.0732 Z" id="Fill-40" fill="#4C6271"></path>
            <path d="M400.9658,281.8623 L394.7688,298.9643 C393.3518,302.8943 389.0168,304.9323 385.0858,303.5163 C383.1188,302.8073 381.6288,301.3693 380.8048,299.6173 C379.9798,297.8653 379.8248,295.7983 380.5328,293.8343 L384.3338,283.2873 C385.5418,283.8293 386.1468,285.2163 385.6958,286.4853 L382.9948,294.0823 C382.1378,296.4903 383.1468,299.2333 385.4448,300.3523 C388.1608,301.6753 391.3538,300.3163 392.3368,297.5503 L398.2858,280.8173 C398.2868,280.8143 398.2888,280.8133 398.2918,280.8143 L400.9578,281.7613 C400.9628,281.8273 400.9658,281.8623 400.9658,281.8623" id="Fill-42" fill="#2D4354"></path>
            <path d="M427.9111,278.8564 C427.5921,277.0144 425.1161,269.2524 423.1571,269.0554 C420.9911,268.8354 416.3901,275.3744 416.3901,275.3744 C416.3901,275.3744 414.4571,265.4704 412.6961,265.0594 C410.9341,264.6504 404.5721,270.7784 404.5721,270.7784 C404.5721,270.7784 405.0721,262.5374 402.9491,261.8834 C400.8271,261.2314 396.7941,264.9434 393.8671,267.1444 C394.5691,263.0184 394.4591,259.2734 392.1091,258.3144 C390.1891,257.5304 384.8671,261.0214 382.9921,262.3204 C382.7971,262.4564 382.6401,262.5674 382.5261,262.6484 C382.5951,262.4954 382.6631,262.3454 382.7331,262.1934 C406.1961,210.7174 450.3781,144.7564 450.3781,144.7564 L450.8291,144.9194 C450.8291,144.9194 442.7401,224.2334 427.9111,278.8564" id="Fill-44" fill="#3473B8"></path>
            <path d="M393.8672,267.1445 C394.5692,263.0185 394.4592,259.2735 392.1092,258.3135 C390.1892,257.5305 384.8672,261.0205 382.9922,262.3205 C382.9042,262.2795 382.8192,262.2365 382.7332,262.1935 C406.1962,210.7175 450.3782,144.7565 450.3782,144.7565 C450.3782,144.7565 410.4462,219.6705 393.8672,267.1445" id="Fill-46" fill="#3963AD"></path>
            <path d="M416.3896,275.374 C416.3896,275.374 414.4566,265.47 412.6966,265.06 C410.9346,264.65 404.5726,270.778 404.5726,270.778 L450.3776,144.757 C449.5066,156.973 416.3896,275.374 416.3896,275.374" id="Fill-48" fill="#3963AD"></path>
            <path d="M448.7666,147.1025 C449.2036,147.4175 449.8466,147.7315 450.6836,147.7555 C451.1826,147.7695 451.5726,147.5475 451.6906,147.2015 C453.2096,142.7725 455.0226,136.9205 455.6936,134.7325 C455.8436,134.2445 455.4166,133.6615 454.7296,133.4145 C454.0336,133.1635 453.3266,133.3475 453.1396,133.8295 C452.1546,136.3685 449.2816,143.7455 448.2996,145.9545 C448.1366,146.3195 448.3196,146.7815 448.7666,147.1025" id="Fill-50" fill="#354B5C"></path>
            <path d="M347.6113,126.0288 C229.7173,70.1128 113.6403,125.2528 82.4973,251.9628 L79.4933,245.6378 C110.6353,118.9268 226.7133,63.7878 344.6063,119.7028 C345.6083,121.8118 346.6103,123.9198 347.6113,126.0288" id="Fill-52" fill="#EF536C"></path>
            <path d="M350.5977,132.3154 C232.7037,76.4004 116.6267,131.5394 85.4847,258.2504 C84.4827,256.1414 83.4807,254.0334 82.4797,251.9234 C113.6217,125.2134 229.6997,70.0744 347.5927,125.9894 C348.5947,128.0984 349.5967,130.2074 350.5977,132.3154" id="Fill-54" fill="#F9A11B"></path>
            <path d="M353.584,138.6025 C235.69,82.6865 119.613,137.8265 88.471,264.5375 C87.469,262.4275 86.467,260.3195 85.466,258.2105 C116.608,131.5005 232.686,76.3615 350.579,132.2765 C351.581,134.3855 352.583,136.4935 353.584,138.6025" id="Fill-56" fill="#F7E600"></path>
            <path d="M356.5703,144.8892 C238.6763,88.9732 122.5993,144.1132 91.4573,270.8232 C90.4553,268.7152 89.4533,266.6062 88.4523,264.4982 C119.5943,137.7872 235.6723,82.6482 353.5653,138.5632 C354.5673,140.6722 355.5693,142.7802 356.5703,144.8892" id="Fill-58" fill="#6CBD45"></path>
            <path d="M359.5566,151.1758 C241.6626,95.2608 125.5856,150.3998 94.4436,277.1108 C93.4416,275.0018 92.4396,272.8938 91.4386,270.7838 C122.5806,144.0738 238.6586,88.9348 356.5516,144.8498 C357.5536,146.9588 358.5556,149.0678 359.5566,151.1758" id="Fill-60" fill="#26C0D8"></path>
            <path d="M362.543,157.4624 C244.649,101.5474 128.572,156.6864 97.43,283.3974 C96.428,281.2884 95.426,279.1794 94.425,277.0714 C125.567,150.3604 241.645,95.2214 359.538,151.1364 C360.54,153.2454 361.542,155.3544 362.543,157.4624" id="Fill-62" fill="#4F7DBE"></path>
            <path d="M365.5293,163.7495 C247.6353,107.8335 131.5583,162.9735 100.4163,289.6835 C99.4143,287.5755 98.4123,285.4665 97.4113,283.3585 C128.5533,156.6475 244.6313,101.5085 362.5243,157.4235 C363.5263,159.5325 364.5283,161.6405 365.5293,163.7495" id="Fill-64" fill="#7151A1"></path>
            <path d="M295.5586,156.3711 C298.9936,164.7471 309.7356,166.4681 316.6076,163.8911 C317.0356,167.9691 321.1176,174.8451 325.8436,176.7781 C330.5676,178.7111 332.9316,180.2121 345.6036,175.7021 C347.7516,178.9241 351.4026,185.1551 363.4296,186.2271 C375.4596,187.3001 379.9706,173.7681 379.9706,173.7681 C379.9706,173.7681 388.3476,179.1391 396.9366,176.9911 C405.5296,174.8451 408.9666,166.8961 407.4616,158.0911 C413.9066,158.0911 422.0666,149.9271 416.0546,141.5501 C414.5216,139.4141 412.7656,138.1191 410.9996,137.3711 C405.8386,135.1811 400.5896,137.6841 400.5896,137.6841 C398.6576,128.8791 390.4936,121.1461 379.9706,126.0861 C380.8276,119.8581 377.1776,109.3321 367.0826,106.5421 C356.9866,103.7491 346.2476,109.5481 342.3816,119.8581 C332.9316,115.3471 319.6136,117.7091 313.6016,131.6721 C307.1126,131.2761 302.4926,133.3871 299.4126,136.6271 C294.1316,142.1881 293.3876,151.0801 295.5586,156.3711" id="Fill-66" fill="#FFFFFF"></path>
            <path d="M295.5586,156.3711 C298.9936,164.7471 309.7356,166.4681 316.6076,163.8911 C317.0356,167.9691 321.1176,174.8451 325.8436,176.7781 C330.5676,178.7111 332.9316,180.2121 345.6036,175.7021 C347.7516,178.9241 351.4026,185.1551 363.4296,186.2271 C375.4596,187.3001 379.9706,173.7681 379.9706,173.7681 C379.9706,173.7681 388.3476,179.1391 396.9366,176.9911 C405.5296,174.8451 408.9666,166.8961 407.4616,158.0911 C413.9066,158.0911 422.0666,149.9271 416.0546,141.5501 C414.5216,139.4141 412.7656,138.1191 410.9996,137.3711 C412.0596,139.4501 413.2166,142.8621 412.1886,146.4931 C410.5786,152.1831 403.4906,152.3981 403.4906,152.3981 L398.7696,147.4691 C399.0016,147.7621 404.6436,155.1631 398.1196,164.2131 C391.4596,173.4461 376.8556,168.9361 373.3116,165.9301 C375.4596,169.6901 377.7146,170.9781 377.7146,170.9781 C377.7146,170.9781 371.3776,178.4951 362.0356,177.1001 C352.6916,175.7021 349.6856,170.8691 349.6856,170.8691 C349.6856,170.8691 353.3356,168.2911 355.1626,165.6081 C345.7096,169.0451 337.8716,171.4071 330.6766,168.5071 C323.4796,165.6081 320.7946,158.1981 320.3676,154.6541 C318.9686,155.7261 317.6796,160.4531 317.6796,160.4531 C317.6796,160.4531 308.6596,160.7751 304.2576,156.0491 C300.0886,151.5771 298.2296,144.8881 299.4126,136.6271 C294.1316,142.1881 293.3876,151.0801 295.5586,156.3711" id="Fill-68" fill="#DFF2F9"></path>
            <path d="M360.9609,131.564 C361.1759,131.457 357.9539,125.12 353.5509,125.872 C349.1479,126.624 345.3889,131.457 345.3889,131.134 C345.3889,130.812 350.5439,128.557 354.9459,129.094 C358.3879,129.514 360.9609,131.564 360.9609,131.564" id="Fill-70" fill="#DFF2F9"></path>
            <path d="M364.6123,137.7939 C367.0833,135.0009 370.7333,134.4619 374.5993,135.5389 C378.2503,129.9519 383.6213,128.1279 390.0643,129.7389 C396.3183,131.3019 400.5903,137.6839 400.5903,137.6839 C398.6573,128.8789 390.4933,121.1469 379.9703,126.0859 C379.9703,126.0859 375.5663,128.1279 372.2383,132.2069 C370.3043,132.6389 365.5793,133.9279 364.6123,137.7939" id="Fill-72" fill="#DFF2F9"></path>
            <g id="Group-76" transform="translate(294.000000, 105.000000)">
                <mask id="mask-6" fill="white">
                    <use xlink:href="#path-5"></use>
                </mask>
                <g id="Clip-75"></g>
                <path d="M1.559,51.371 C4.993,59.748 15.735,61.468 22.607,58.891 C23.035,62.969 27.117,69.845 31.844,71.778 C36.567,73.711 38.932,75.212 51.604,70.702 C53.752,73.924 57.402,80.155 69.43,81.228 C81.46,82.3 85.971,68.769 85.971,68.769 C85.971,68.769 94.348,74.139 102.937,71.991 C111.529,69.845 114.967,61.896 113.462,53.091 C119.906,53.091 128.066,44.927 122.055,36.55 C120.521,34.415 118.766,33.119 117,32.372 C111.839,30.181 106.59,32.684 106.59,32.684 C104.657,23.879 96.493,16.146 85.971,21.086 C86.827,14.858 83.178,4.333 73.083,1.542 C62.986,-1.251 52.248,4.548 48.382,14.858 C38.932,10.347 25.613,12.709 19.602,26.672 C13.112,26.276 8.492,28.387 5.412,31.627 C0.132,37.188 -0.612,46.081 1.559,51.371" id="Fill-74" mask="url(#mask-6)"></path>
            </g>
            <path d="M73.8452,114.8672 C76.0072,120.1392 82.7672,121.2222 87.0922,119.6002 C87.3622,122.1672 89.9312,126.4942 92.9062,127.7112 C95.8782,128.9282 97.3662,129.8722 105.3422,127.0342 C106.6942,129.0612 108.9912,132.9832 116.5612,133.6582 C124.1322,134.3332 126.9712,125.8172 126.9712,125.8172 C126.9712,125.8172 132.2432,129.1972 137.6492,127.8452 C143.0572,126.4942 145.2202,121.4922 144.2742,115.9502 C148.3292,115.9502 153.4652,110.8122 149.6812,105.5402 C148.7162,104.1962 147.6112,103.3802 146.5002,102.9102 C143.2522,101.5312 139.9492,103.1072 139.9492,103.1072 C138.7322,97.5652 133.5942,92.6982 126.9712,95.8072 C127.5112,91.8872 125.2132,85.2632 118.8602,83.5072 C112.5052,81.7492 105.7472,85.3982 103.3142,91.8872 C97.3662,89.0482 88.9842,90.5342 85.2002,99.3232 C81.1162,99.0742 78.2092,100.4022 76.2702,102.4412 C72.9472,105.9412 72.4782,111.5382 73.8452,114.8672" id="Fill-77" fill="#FFFFFF"></path>
            <path d="M73.8452,114.8672 C76.0072,120.1392 82.7672,121.2222 87.0922,119.6002 C87.3622,122.1672 89.9312,126.4942 92.9062,127.7112 C95.8782,128.9282 97.3662,129.8722 105.3422,127.0342 C106.6942,129.0612 108.9912,132.9832 116.5612,133.6582 C124.1322,134.3332 126.9712,125.8172 126.9712,125.8172 C126.9712,125.8172 132.2432,129.1972 137.6492,127.8452 C143.0572,126.4942 145.2202,121.4922 144.2742,115.9502 C148.3292,115.9502 153.4652,110.8122 149.6812,105.5402 C148.7162,104.1962 147.6112,103.3802 146.5002,102.9102 C147.1672,104.2182 147.8952,106.3652 147.2482,108.6502 C146.2342,112.2312 141.7732,112.3672 141.7732,112.3672 L138.8032,109.2652 C138.9492,109.4492 142.4992,114.1072 138.3932,119.8032 C134.2022,125.6142 125.0102,122.7752 122.7802,120.8842 C124.1322,123.2502 125.5522,124.0612 125.5522,124.0612 C125.5522,124.0612 121.5632,128.7912 115.6832,127.9132 C109.8032,127.0342 107.9102,123.9922 107.9102,123.9922 C107.9102,123.9922 110.2082,122.3702 111.3582,120.6802 C105.4082,122.8442 100.4752,124.3302 95.9472,122.5062 C91.4172,120.6802 89.7282,116.0172 89.4582,113.7862 C88.5782,114.4622 87.7672,117.4362 87.7672,117.4362 C87.7672,117.4362 82.0902,117.6392 79.3202,114.6642 C76.6962,111.8502 75.5262,107.6402 76.2702,102.4412 C72.9472,105.9412 72.4782,111.5382 73.8452,114.8672" id="Fill-79" fill="#DFF2F9"></path>
            <path d="M115.0073,99.2549 C115.1423,99.1869 113.1143,95.1989 110.3433,95.6719 C107.5723,96.1459 105.2063,99.1869 105.2063,98.9839 C105.2063,98.7819 108.4503,97.3619 111.2223,97.6999 C113.3873,97.9639 115.0073,99.2549 115.0073,99.2549" id="Fill-81" fill="#DFF2F9"></path>
            <path d="M117.3052,103.1758 C118.8602,101.4178 121.1582,101.0788 123.5912,101.7568 C125.8882,98.2398 129.2682,97.0928 133.3242,98.1068 C137.2602,99.0898 139.9492,103.1068 139.9492,103.1068 C138.7322,97.5648 133.5942,92.6978 126.9712,95.8068 C126.9712,95.8068 124.2002,97.0928 122.1052,99.6598 C120.8882,99.9308 117.9132,100.7418 117.3052,103.1758" id="Fill-83" fill="#DFF2F9"></path>
            <g id="Group-87" transform="translate(73.000000, 83.000000)">
                <mask id="mask-8" fill="white">
                    <use xlink:href="#path-7"></use>
                </mask>
                <g id="Clip-86"></g>
                <path d="M0.845,31.867 C3.007,37.14 9.767,38.222 14.092,36.6 C14.362,39.167 16.931,43.494 19.906,44.711 C22.878,45.928 24.367,46.873 32.342,44.034 C33.694,46.062 35.992,49.983 43.561,50.658 C51.132,51.333 53.971,42.817 53.971,42.817 C53.971,42.817 59.243,46.197 64.649,44.845 C70.057,43.494 72.221,38.492 71.274,32.95 C75.329,32.95 80.465,27.812 76.682,22.54 C75.716,21.196 74.611,20.38 73.5,19.91 C70.252,18.531 66.949,20.107 66.949,20.107 C65.732,14.565 60.594,9.698 53.971,12.807 C54.511,8.887 52.213,2.263 45.86,0.507 C39.505,-1.251 32.747,2.398 30.314,8.887 C24.367,6.048 15.984,7.535 12.2,16.323 C8.117,16.074 5.209,17.402 3.271,19.441 C-0.053,22.941 -0.521,28.538 0.845,31.867" id="Fill-85" mask="url(#mask-8)"></path>
            </g>
            <path d="M321.9258,78.7915 C323.8048,83.3755 329.6828,84.3165 333.4438,82.9065 C333.6778,85.1385 335.9108,88.9005 338.4978,89.9585 C341.0818,91.0165 342.3758,91.8375 349.3108,89.3695 C350.4868,91.1325 352.4838,94.5415 359.0658,95.1295 C365.6488,95.7165 368.1158,88.3115 368.1158,88.3115 C368.1158,88.3115 372.6998,91.2505 377.4008,90.0745 C382.1028,88.9005 383.9838,84.5515 383.1598,79.7325 C386.6858,79.7325 391.1518,75.2655 387.8618,70.6815 C387.0228,69.5125 386.0618,68.8045 385.0958,68.3955 C382.2718,67.1965 379.3998,68.5655 379.3998,68.5655 C378.3418,63.7475 373.8738,59.5165 368.1158,62.2195 C368.5848,58.8115 366.5878,53.0515 361.0648,51.5245 C355.5388,49.9965 349.6628,53.1695 347.5468,58.8115 C342.3758,56.3435 335.0878,57.6355 331.7988,65.2765 C328.2478,65.0595 325.7198,66.2145 324.0338,67.9875 C321.1448,71.0305 320.7378,75.8965 321.9258,78.7915" id="Fill-88" fill="#FFFFFF"></path>
            <path d="M321.9258,78.7915 C323.8048,83.3755 329.6828,84.3165 333.4438,82.9065 C333.6778,85.1385 335.9108,88.9005 338.4978,89.9585 C341.0818,91.0165 342.3758,91.8375 349.3108,89.3695 C350.4868,91.1325 352.4838,94.5415 359.0658,95.1295 C365.6488,95.7165 368.1158,88.3115 368.1158,88.3115 C368.1158,88.3115 372.6998,91.2505 377.4008,90.0745 C382.1028,88.9005 383.9838,84.5515 383.1598,79.7325 C386.6858,79.7325 391.1518,75.2655 387.8618,70.6815 C387.0228,69.5125 386.0618,68.8045 385.0958,68.3955 C385.6758,69.5325 386.3088,71.3995 385.7458,73.3865 C384.8638,76.4995 380.9868,76.6175 380.9868,76.6175 L378.4038,73.9205 C378.5298,74.0805 381.6168,78.1305 378.0468,83.0825 C374.4038,88.1355 366.4108,85.6665 364.4718,84.0225 C365.6488,86.0795 366.8818,86.7845 366.8818,86.7845 C366.8818,86.7845 363.4138,90.8975 358.3018,90.1345 C353.1888,89.3695 351.5438,86.7255 351.5438,86.7255 C351.5438,86.7255 353.5408,85.3145 354.5408,83.8465 C349.3678,85.7275 345.0788,87.0195 341.1428,85.4325 C337.2038,83.8465 335.7358,79.7915 335.5008,77.8515 C334.7358,78.4385 334.0298,81.0255 334.0298,81.0255 C334.0298,81.0255 329.0938,81.2015 326.6858,78.6155 C324.4048,76.1675 323.3868,72.5085 324.0338,67.9875 C321.1448,71.0305 320.7378,75.8965 321.9258,78.7915" id="Fill-90" fill="#DFF2F9"></path>
            <path d="M357.7139,65.2168 C357.8309,65.1578 356.0679,61.6908 353.6589,62.1028 C351.2499,62.5138 349.1929,65.1578 349.1929,64.9818 C349.1929,64.8058 352.0139,63.5708 354.4229,63.8648 C356.3059,64.0948 357.7139,65.2168 357.7139,65.2168" id="Fill-92" fill="#DFF2F9"></path>
            <path d="M359.7119,68.626 C361.0649,67.098 363.0619,66.803 365.1779,67.392 C367.1749,64.335 370.1129,63.337 373.6399,64.218 C377.0619,65.074 379.3989,68.566 379.3989,68.566 C378.3419,63.748 373.8739,59.517 368.1159,62.219 C368.1159,62.219 365.7059,63.337 363.8849,65.569 C362.8269,65.805 360.2409,66.51 359.7119,68.626" id="Fill-94" fill="#DFF2F9"></path>
            <g id="Group-98" transform="translate(321.000000, 51.000000)">
                <mask id="mask-10" fill="white">
                    <use xlink:href="#path-9"></use>
                </mask>
                <g id="Clip-97"></g>
                <path d="M0.926,27.792 C2.805,32.375 8.683,33.317 12.443,31.906 C12.678,34.138 14.911,37.9 17.498,38.958 C20.082,40.016 21.376,40.838 28.311,38.37 C29.486,40.132 31.483,43.542 38.065,44.129 C44.648,44.716 47.116,37.312 47.116,37.312 C47.116,37.312 51.7,40.25 56.4,39.075 C61.103,37.9 62.983,33.551 62.16,28.733 C65.686,28.733 70.151,24.266 66.861,19.682 C66.022,18.513 65.062,17.804 64.096,17.395 C61.271,16.196 58.399,17.566 58.399,17.566 C57.342,12.748 52.874,8.517 47.116,11.219 C47.585,7.812 45.588,2.052 40.064,0.525 C34.539,-1.004 28.663,2.17 26.547,7.812 C21.376,5.343 14.088,6.635 10.799,14.276 C7.248,14.06 4.72,15.214 3.034,16.988 C0.145,20.031 -0.263,24.896 0.926,27.792" id="Fill-96" mask="url(#mask-10)"></path>
            </g>
            <path d="M9.186,182.1938 C11.065,186.7778 16.943,187.7188 20.704,186.3088 C20.938,188.5408 23.172,192.3028 25.758,193.3608 C28.343,194.4188 29.637,195.2398 36.57,192.7718 C37.747,194.5348 39.744,197.9448 46.325,198.5318 C52.908,199.1188 55.376,191.7148 55.376,191.7148 C55.376,191.7148 59.96,194.6528 64.66,193.4768 C69.362,192.3028 71.243,187.9538 70.42,183.1348 C73.946,183.1348 78.412,178.6678 75.122,174.0838 C74.283,172.9158 73.322,172.2068 72.356,171.7978 C69.532,170.5988 66.66,171.9688 66.66,171.9688 C65.602,167.1508 61.134,162.9188 55.376,165.6218 C55.845,162.2138 53.848,156.4538 48.324,154.9268 C42.799,153.3988 36.923,156.5718 34.808,162.2138 C29.637,159.7458 22.349,161.0378 19.059,168.6788 C15.508,168.4618 12.98,169.6168 11.294,171.3898 C8.405,174.4328 7.998,179.2988 9.186,182.1938" id="Fill-99" fill="#FFFFFF"></path>
            <path d="M9.186,182.1938 C11.065,186.7778 16.943,187.7188 20.704,186.3088 C20.938,188.5408 23.172,192.3028 25.758,193.3608 C28.343,194.4188 29.637,195.2398 36.57,192.7718 C37.747,194.5348 39.744,197.9448 46.325,198.5318 C52.908,199.1188 55.376,191.7148 55.376,191.7148 C55.376,191.7148 59.96,194.6528 64.66,193.4768 C69.362,192.3028 71.243,187.9538 70.42,183.1348 C73.946,183.1348 78.412,178.6678 75.122,174.0838 C74.283,172.9158 73.322,172.2068 72.356,171.7978 C72.936,172.9348 73.569,174.8018 73.006,176.7888 C72.125,179.9018 68.246,180.0198 68.246,180.0198 L65.664,177.3228 C65.79,177.4838 68.877,181.5328 65.308,186.4848 C61.663,191.5378 53.671,189.0698 51.732,187.4248 C52.908,189.4828 54.142,190.1878 54.142,190.1878 C54.142,190.1878 50.674,194.2998 45.562,193.5368 C40.449,192.7718 38.804,190.1278 38.804,190.1278 C38.804,190.1278 40.802,188.7168 41.801,187.2488 C36.629,189.1298 32.339,190.4218 28.402,188.8348 C24.464,187.2488 22.996,183.1938 22.761,181.2548 C21.996,181.8408 21.29,184.4278 21.29,184.4278 C21.29,184.4278 16.354,184.6038 13.946,182.0178 C11.665,179.5708 10.647,175.9108 11.294,171.3898 C8.405,174.4328 7.998,179.2988 9.186,182.1938" id="Fill-101" fill="#DFF2F9"></path>
            <path d="M44.9741,168.6196 C45.0921,168.5606 43.3281,165.0936 40.9191,165.5046 C38.5101,165.9156 36.4531,168.5606 36.4531,168.3846 C36.4531,168.2076 39.2741,166.9736 41.6831,167.2676 C43.5661,167.4976 44.9741,168.6196 44.9741,168.6196" id="Fill-103" fill="#DFF2F9"></path>
            <path d="M46.9722,172.0283 C48.3242,170.5003 50.3222,170.2053 52.4372,170.7943 C54.4352,167.7373 57.3742,166.7393 60.9002,167.6213 C64.3222,168.4763 66.6592,171.9683 66.6592,171.9683 C65.6012,167.1503 61.1342,162.9193 55.3762,165.6213 C55.3762,165.6213 52.9662,166.7393 51.1452,168.9713 C50.0872,169.2073 47.5012,169.9133 46.9722,172.0283" id="Fill-105" fill="#DFF2F9"></path>
            <g id="Group-109" transform="translate(8.000000, 154.000000)">
                <mask id="mask-12" fill="white">
                    <use xlink:href="#path-11"></use>
                </mask>
                <g id="Clip-108"></g>
                <path d="M1.186,28.194 C3.065,32.778 8.943,33.719 12.704,32.309 C12.938,34.541 15.172,38.303 17.758,39.361 C20.343,40.418 21.637,41.24 28.57,38.772 C29.747,40.535 31.744,43.945 38.325,44.532 C44.908,45.119 47.376,37.714 47.376,37.714 C47.376,37.714 51.96,40.653 56.66,39.477 C61.362,38.303 63.243,33.954 62.42,29.135 C65.946,29.135 70.412,24.668 67.122,20.084 C66.283,18.916 65.322,18.207 64.356,17.797 C61.532,16.599 58.66,17.969 58.66,17.969 C57.602,13.15 53.134,8.919 47.376,11.622 C47.845,8.214 45.848,2.454 40.324,0.927 C34.799,-0.601 28.923,2.572 26.808,8.214 C21.637,5.746 14.349,7.038 11.059,14.679 C7.508,14.462 4.98,15.617 3.294,17.39 C0.405,20.433 -0.002,25.299 1.186,28.194" id="Fill-107" mask="url(#mask-12)"></path>
            </g>
            <path d="M427.748,181.3994 C429.628,185.9834 435.506,186.9244 439.266,185.5144 C439.5,187.7464 441.734,191.5084 444.32,192.5664 C446.905,193.6244 448.199,194.4454 455.133,191.9774 C456.309,193.7404 458.307,197.1504 464.888,197.7374 C471.471,198.3244 473.938,190.9204 473.938,190.9204 C473.938,190.9204 478.522,193.8584 483.223,192.6824 C487.925,191.5084 489.806,187.1594 488.982,182.3404 C492.509,182.3404 496.975,177.8734 493.685,173.2904 C492.846,172.1214 491.885,171.4124 490.918,171.0034 C488.094,169.8044 485.222,171.1744 485.222,171.1744 C484.164,166.3564 479.697,162.1244 473.938,164.8274 C474.408,161.4194 472.41,155.6594 466.887,154.1324 C461.361,152.6044 455.485,155.7774 453.37,161.4194 C448.199,158.9514 440.911,160.2434 437.621,167.8844 C434.07,167.6674 431.542,168.8224 429.856,170.5954 C426.968,173.6384 426.56,178.5044 427.748,181.3994" id="Fill-110" fill="#FFFFFF"></path>
            <path d="M427.748,181.3994 C429.628,185.9834 435.506,186.9244 439.266,185.5144 C439.5,187.7464 441.734,191.5084 444.32,192.5664 C446.905,193.6244 448.199,194.4454 455.133,191.9774 C456.309,193.7404 458.307,197.1504 464.888,197.7374 C471.471,198.3244 473.938,190.9204 473.938,190.9204 C473.938,190.9204 478.522,193.8584 483.223,192.6824 C487.925,191.5084 489.806,187.1594 488.982,182.3404 C492.509,182.3404 496.975,177.8734 493.685,173.2904 C492.846,172.1214 491.885,171.4124 490.918,171.0034 C491.498,172.1404 492.131,174.0074 491.569,175.9944 C490.687,179.1074 486.809,179.2254 486.809,179.2254 L484.226,176.5284 C484.352,176.6894 487.44,180.7384 483.87,185.6914 C480.226,190.7434 472.234,188.2754 470.295,186.6304 C471.471,188.6884 472.705,189.3934 472.705,189.3934 C472.705,189.3934 469.237,193.5054 464.124,192.7424 C459.012,191.9774 457.366,189.3334 457.366,189.3334 C457.366,189.3334 459.364,187.9224 460.364,186.4544 C455.191,188.3354 450.901,189.6274 446.965,188.0414 C443.026,186.4544 441.558,182.3994 441.323,180.4604 C440.559,181.0464 439.852,183.6334 439.852,183.6334 C439.852,183.6334 434.917,183.8094 432.509,181.2234 C430.227,178.7764 429.21,175.1164 429.856,170.5954 C426.968,173.6384 426.56,178.5044 427.748,181.3994" id="Fill-112" fill="#DFF2F9"></path>
            <path d="M463.5361,167.8252 C463.6541,167.7662 461.8911,164.2992 459.4811,164.7102 C457.0721,165.1212 455.0151,167.7662 455.0151,167.5902 C455.0151,167.4132 457.8361,166.1792 460.2461,166.4732 C462.1291,166.7032 463.5361,167.8252 463.5361,167.8252" id="Fill-114" fill="#DFF2F9"></path>
            <path d="M465.5352,171.2339 C466.8872,169.7059 468.8852,169.4109 471.0002,169.9999 C472.9972,166.9429 475.9362,165.9449 479.4622,166.8269 C482.8852,167.6819 485.2222,171.1739 485.2222,171.1739 C484.1642,166.3559 479.6972,162.1249 473.9382,164.8279 C473.9382,164.8279 471.5292,165.9449 469.7082,168.1769 C468.6492,168.4129 466.0632,169.1189 465.5352,171.2339" id="Fill-116" fill="#DFF2F9"></path>
            <g id="Group-120" transform="translate(427.000000, 153.000000)">
                <mask id="mask-14" fill="white">
                    <use xlink:href="#path-13"></use>
                </mask>
                <g id="Clip-119"></g>
                <path d="M0.748,28.399 C2.628,32.983 8.506,33.925 12.266,32.514 C12.5,34.747 14.734,38.509 17.32,39.566 C19.905,40.624 21.199,41.446 28.133,38.978 C29.309,40.741 31.307,44.15 37.888,44.737 C44.471,45.324 46.938,37.92 46.938,37.92 C46.938,37.92 51.522,40.859 56.223,39.683 C60.925,38.509 62.806,34.159 61.982,29.341 C65.509,29.341 69.975,24.874 66.685,20.29 C65.846,19.121 64.885,18.412 63.918,18.003 C61.094,16.804 58.222,18.174 58.222,18.174 C57.164,13.356 52.697,9.125 46.938,11.828 C47.408,8.419 45.41,2.66 39.887,1.133 C34.361,-0.396 28.485,2.778 26.37,8.419 C21.199,5.951 13.911,7.244 10.621,14.884 C7.07,14.667 4.542,15.822 2.856,17.596 C-0.032,20.639 -0.44,25.505 0.748,28.399" id="Fill-118" mask="url(#mask-14)"></path>
            </g>
            <path d="M184.0176,44.2612 C185.8966,48.8442 191.7746,49.7862 195.5356,48.3762 C195.7696,50.6082 198.0036,54.3702 200.5896,55.4282 C203.1746,56.4862 204.4686,57.3072 211.4026,54.8392 C212.5786,56.6022 214.5756,60.0112 221.1576,60.5982 C227.7406,61.1862 230.2076,53.7812 230.2076,53.7812 C230.2076,53.7812 234.7916,56.7202 239.4926,55.5442 C244.1936,54.3702 246.0756,50.0202 245.2516,45.2022 C248.7776,45.2022 253.2436,40.7352 249.9536,36.1512 C249.1146,34.9822 248.1536,34.2732 247.1876,33.8652 C244.3636,32.6662 241.4916,34.0352 241.4916,34.0352 C240.4336,29.2172 235.9666,24.9862 230.2076,27.6892 C230.6776,24.2812 228.6796,18.5212 223.1566,16.9942 C217.6306,15.4662 211.7546,18.6392 209.6396,24.2812 C204.4686,21.8122 197.1806,23.1052 193.8906,30.7452 C190.3396,30.5292 187.8116,31.6832 186.1256,33.4572 C183.2366,36.5002 182.8296,41.3662 184.0176,44.2612" id="Fill-121" fill="#FFFFFF"></path>
            <path d="M184.0176,44.2612 C185.8966,48.8442 191.7746,49.7862 195.5356,48.3762 C195.7696,50.6082 198.0036,54.3702 200.5896,55.4282 C203.1746,56.4862 204.4686,57.3072 211.4026,54.8392 C212.5786,56.6022 214.5756,60.0112 221.1576,60.5982 C227.7406,61.1862 230.2076,53.7812 230.2076,53.7812 C230.2076,53.7812 234.7916,56.7202 239.4926,55.5442 C244.1936,54.3702 246.0756,50.0202 245.2516,45.2022 C248.7776,45.2022 253.2436,40.7352 249.9536,36.1512 C249.1146,34.9822 248.1536,34.2732 247.1876,33.8652 C247.7676,35.0012 248.4006,36.8682 247.8386,38.8552 C246.9566,41.9692 243.0786,42.0872 243.0786,42.0872 L240.4956,39.3902 C240.6216,39.5502 243.7096,43.6002 240.1396,48.5522 C236.4956,53.6052 228.5036,51.1362 226.5636,49.4912 C227.7406,51.5492 228.9746,52.2542 228.9746,52.2542 C228.9746,52.2542 225.5066,56.3672 220.3936,55.6042 C215.2806,54.8392 213.6366,52.1942 213.6366,52.1942 C213.6366,52.1942 215.6336,50.7842 216.6336,49.3152 C211.4606,51.1972 207.1706,52.4892 203.2346,50.9022 C199.2956,49.3152 197.8276,45.2612 197.5926,43.3212 C196.8276,43.9082 196.1226,46.4942 196.1226,46.4942 C196.1226,46.4942 191.1856,46.6712 188.7776,44.0842 C186.4966,41.6372 185.4786,37.9772 186.1256,33.4572 C183.2366,36.5002 182.8296,41.3662 184.0176,44.2612" id="Fill-123" fill="#DFF2F9"></path>
            <path d="M219.8057,30.6865 C219.9237,30.6275 218.1607,27.1605 215.7507,27.5715 C213.3417,27.9835 211.2847,30.6275 211.2847,30.4515 C211.2847,30.2745 214.1057,29.0405 216.5147,29.3345 C218.3977,29.5645 219.8057,30.6865 219.8057,30.6865" id="Fill-125" fill="#DFF2F9"></path>
            <path d="M221.8042,34.0957 C223.1562,32.5667 225.1542,32.2727 227.2692,32.8617 C229.2662,29.8037 232.2052,28.8067 235.7322,29.6877 C239.1542,30.5427 241.4912,34.0357 241.4912,34.0357 C240.4332,29.2177 235.9662,24.9867 230.2082,27.6887 C230.2082,27.6887 227.7982,28.8067 225.9772,31.0387 C224.9192,31.2747 222.3332,31.9797 221.8042,34.0957" id="Fill-127" fill="#DFF2F9"></path>
            <g id="Group-131" transform="translate(183.000000, 16.000000)">
                <mask id="mask-16" fill="white">
                    <use xlink:href="#path-15"></use>
                </mask>
                <g id="Clip-130"></g>
                <path d="M1.018,28.261 C2.897,32.845 8.775,33.786 12.535,32.376 C12.77,34.608 15.003,38.37 17.59,39.428 C20.174,40.486 21.468,41.307 28.402,38.839 C29.578,40.602 31.576,44.012 38.157,44.599 C44.74,45.186 47.208,37.781 47.208,37.781 C47.208,37.781 51.792,40.72 56.492,39.544 C61.194,38.37 63.075,34.021 62.252,29.203 C65.778,29.203 70.243,24.735 66.954,20.151 C66.115,18.982 65.154,18.273 64.187,17.865 C61.363,16.666 58.491,18.036 58.491,18.036 C57.434,13.217 52.966,8.986 47.208,11.689 C47.677,8.281 45.68,2.521 40.156,0.995 C34.631,-0.534 28.755,2.639 26.639,8.281 C21.468,5.813 14.18,7.105 10.891,14.746 C7.34,14.529 4.812,15.684 3.126,17.458 C0.237,20.5 -0.171,25.366 1.018,28.261" id="Fill-129" mask="url(#mask-16)"></path>
            </g>
            <path d="M17.7554,271.0967 C21.2464,279.6097 32.1624,281.3577 39.1464,278.7387 C39.5814,282.8837 43.7304,289.8697 48.5334,291.8347 C53.3334,293.7997 55.7364,295.3257 68.6144,290.7417 C70.7974,294.0157 74.5074,300.3477 86.7304,301.4387 C98.9564,302.5287 103.5404,288.7777 103.5404,288.7777 C103.5404,288.7777 112.0534,294.2357 120.7824,292.0517 C129.5144,289.8697 133.0084,281.7927 131.4794,272.8447 C138.0274,272.8447 146.3214,264.5477 140.2124,256.0347 C138.6534,253.8647 136.8684,252.5477 135.0744,251.7877 C129.8294,249.5617 124.4954,252.1057 124.4954,252.1057 C122.5304,243.1577 114.2344,235.2987 103.5404,240.3187 C104.4114,233.9897 100.7014,223.2927 90.4434,220.4567 C80.1824,217.6177 69.2694,223.5117 65.3394,233.9897 C55.7364,229.4057 42.2014,231.8047 36.0914,245.9957 C29.4974,245.5937 24.8014,247.7377 21.6714,251.0317 C16.3054,256.6827 15.5484,265.7197 17.7554,271.0967" id="Fill-132" fill="#FFFFFF"></path>
            <path d="M17.7554,271.0967 C21.2464,279.6097 32.1624,281.3577 39.1464,278.7387 C39.5814,282.8837 43.7304,289.8697 48.5334,291.8347 C53.3334,293.7997 55.7364,295.3257 68.6144,290.7417 C70.7974,294.0157 74.5074,300.3477 86.7304,301.4387 C98.9564,302.5287 103.5404,288.7777 103.5404,288.7777 C103.5404,288.7777 112.0534,294.2357 120.7824,292.0517 C129.5144,289.8697 133.0084,281.7927 131.4794,272.8447 C138.0274,272.8447 146.3214,264.5477 140.2124,256.0347 C138.6534,253.8647 136.8684,252.5477 135.0744,251.7877 C136.1514,253.8997 137.3274,257.3677 136.2824,261.0577 C134.6454,266.8397 127.4424,267.0587 127.4424,267.0587 L122.6454,262.0497 C122.8814,262.3477 128.6144,269.8677 121.9844,279.0657 C115.2164,288.4497 100.3744,283.8657 96.7724,280.8107 C98.9564,284.6317 101.2484,285.9417 101.2484,285.9417 C101.2484,285.9417 94.8084,293.5797 85.3124,292.1617 C75.8174,290.7417 72.7624,285.8297 72.7624,285.8297 C72.7624,285.8297 76.4724,283.2107 78.3284,280.4837 C68.7224,283.9767 60.7554,286.3767 53.4444,283.4307 C46.1304,280.4837 43.4024,272.9527 42.9674,269.3507 C41.5464,270.4417 40.2364,275.2437 40.2364,275.2437 C40.2364,275.2437 31.0684,275.5727 26.5964,270.7687 C22.3594,266.2247 20.4694,259.4267 21.6714,251.0317 C16.3054,256.6827 15.5484,265.7197 17.7554,271.0967" id="Fill-134" fill="#DFF2F9"></path>
            <path d="M84.2212,245.8857 C84.4392,245.7767 81.1652,239.3377 76.6902,240.1007 C72.2162,240.8647 68.3962,245.7767 68.3962,245.4487 C68.3962,245.1217 73.6352,242.8297 78.1092,243.3757 C81.6062,243.8017 84.2212,245.8857 84.2212,245.8857" id="Fill-136" fill="#DFF2F9"></path>
            <path d="M87.9321,252.2168 C90.4431,249.3788 94.1531,248.8318 98.0821,249.9248 C101.7921,244.2478 107.2501,242.3938 113.7981,244.0308 C120.1541,245.6198 124.4951,252.1058 124.4951,252.1058 C122.5311,243.1568 114.2341,235.2988 103.5401,240.3188 C103.5401,240.3188 99.0641,242.3938 95.6821,246.5398 C93.7181,246.9778 88.9141,248.2878 87.9321,252.2168" id="Fill-138" fill="#DFF2F9"></path>
            <g id="Group-142" transform="translate(16.000000, 219.000000)">
                <mask id="mask-18" fill="white">
                    <use xlink:href="#path-17"></use>
                </mask>
                <g id="Clip-141"></g>
                <path d="M1.755,52.097 C5.246,60.609 16.162,62.357 23.146,59.738 C23.582,63.884 27.73,70.87 32.533,72.835 C37.333,74.8 39.737,76.325 52.614,71.741 C54.798,75.016 58.508,81.348 70.73,82.438 C82.957,83.528 87.541,69.777 87.541,69.777 C87.541,69.777 96.053,75.235 104.783,73.052 C113.515,70.87 117.008,62.793 115.479,53.845 C122.028,53.845 130.321,45.548 124.212,37.035 C122.653,34.864 120.869,33.548 119.075,32.788 C113.829,30.562 108.496,33.105 108.496,33.105 C106.531,24.157 98.234,16.299 87.541,21.318 C88.411,14.989 84.702,4.292 74.443,1.457 C64.182,-1.382 53.269,4.512 49.34,14.989 C39.737,10.405 26.201,12.805 20.091,26.996 C13.497,26.593 8.802,28.738 5.671,32.031 C0.305,37.683 -0.451,46.72 1.755,52.097" id="Fill-140" mask="url(#mask-18)"></path>
            </g>
            <g id="Group-177" transform="translate(394.000000, 247.000000)">
                <mask id="mask-20" fill="white">
                    <use xlink:href="#path-19"></use>
                </mask>
                <g id="Clip-176"></g>
                <path d="M11.28,0.341 C10.898,9.627 8.314,15.83 3.038,13.646 C2.839,13.564 2.635,13.471 2.428,13.363 C-4.409,9.842 11.28,0.341 11.28,0.341" id="Fill-175" mask="url(#mask-20)"></path>
            </g>
            <path d="M450.1152,21.7983 C449.7332,31.0843 447.1492,37.2873 441.8732,35.1043 C441.6732,35.0223 441.4692,34.9273 441.2612,34.8203 C434.4262,31.2993 450.1152,21.7983 450.1152,21.7983" id="Fill-185" fill="#FFFFFF"></path>
            <path d="M450.1152,21.7983 C449.7332,31.0843 447.1492,37.2873 441.8732,35.1043 C447.0662,32.3653 450.1152,21.7983 450.1152,21.7983" id="Fill-187" fill="#C8EAF8"></path>
            <g id="Group-191" transform="translate(439.000000, 21.000000)">
                <mask id="mask-22" fill="white">
                    <use xlink:href="#path-21"></use>
                </mask>
                <g id="Clip-190"></g>
                <path d="M11.115,0.798 C10.733,10.084 8.149,16.288 2.873,14.104 C2.673,14.022 2.47,13.928 2.262,13.821 C-4.574,10.3 11.115,0.798 11.115,0.798" id="Fill-189" mask="url(#mask-22)"></path>
            </g>
            <path d="M44.936,95.0034 C44.555,104.2894 41.971,110.4924 36.694,108.3094 C36.494,108.2264 36.29,108.1324 36.083,108.0254 C29.247,104.5044 44.936,95.0034 44.936,95.0034" id="Fill-192" fill="#FFFFFF"></path>
            <path d="M44.936,95.0034 C44.555,104.2894 41.971,110.4924 36.694,108.3094 C41.888,105.5704 44.936,95.0034 44.936,95.0034" id="Fill-194" fill="#C8EAF8"></path>
            <g id="Group-198" transform="translate(34.000000, 95.000000)">
                <mask id="mask-24" fill="white">
                    <use xlink:href="#path-23"></use>
                </mask>
                <g id="Clip-197"></g>
                <path d="M10.936,0.003 C10.555,9.289 7.971,15.493 2.694,13.309 C2.494,13.227 2.291,13.133 2.083,13.026 C-4.753,9.504 10.936,0.003 10.936,0.003" id="Fill-196" mask="url(#mask-24)"></path>
            </g>
            <path d="M106.0918,22.4229 C105.7098,31.7089 103.1258,37.9129 97.8498,35.7289 C97.6498,35.6469 97.4458,35.5529 97.2388,35.4449 C90.4028,31.9239 106.0918,22.4229 106.0918,22.4229" id="Fill-199" fill="#FFFFFF"></path>
            <path d="M106.0918,22.4229 C105.7098,31.7089 103.1258,37.9129 97.8498,35.7289 C103.0428,32.9899 106.0918,22.4229 106.0918,22.4229" id="Fill-201" fill="#C8EAF8"></path>
            <g id="Group-205" transform="translate(95.000000, 22.000000)">
                <mask id="mask-26" fill="white">
                    <use xlink:href="#path-25"></use>
                </mask>
                <g id="Clip-204"></g>
                <path d="M11.092,0.423 C10.71,9.709 8.126,15.913 2.85,13.729 C2.65,13.646 2.446,13.553 2.239,13.445 C-4.598,9.924 11.092,0.423 11.092,0.423" id="Fill-203" mask="url(#mask-26)"></path>
            </g>
            <path d="M180.147,56.4082 C179.765,65.6942 177.181,71.8972 171.905,69.7142 C171.705,69.6312 171.501,69.5372 171.294,69.4302 C164.458,65.9092 180.147,56.4082 180.147,56.4082" id="Fill-206" fill="#FFFFFF"></path>
            <path d="M180.147,56.4082 C179.765,65.6942 177.181,71.8972 171.905,69.7142 C177.099,66.9752 180.147,56.4082 180.147,56.4082" id="Fill-208" fill="#C8EAF8"></path>
            <g id="Group-212" transform="translate(169.000000, 56.000000)">
                <mask id="mask-28" fill="white">
                    <use xlink:href="#path-27"></use>
                </mask>
                <g id="Clip-211"></g>
                <path d="M11.147,0.408 C10.765,9.694 8.181,15.897 2.905,13.714 C2.705,13.631 2.501,13.538 2.294,13.431 C-4.542,9.909 11.147,0.408 11.147,0.408" id="Fill-210" mask="url(#mask-28)"></path>
            </g>
            <path d="M309.6494,75.3442 C309.2684,84.6302 306.6844,90.8332 301.4084,88.6502 C301.2084,88.5682 301.0044,88.4732 300.7964,88.3662 C293.9614,84.8452 309.6494,75.3442 309.6494,75.3442" id="Fill-213" fill="#FFFFFF"></path>
            <path d="M309.6494,75.3442 C309.2684,84.6302 306.6844,90.8332 301.4084,88.6502 C306.6014,85.9112 309.6494,75.3442 309.6494,75.3442" id="Fill-215" fill="#C8EAF8"></path>
            <g id="Group-219" transform="translate(299.000000, 75.000000)">
                <mask id="mask-30" fill="white">
                    <use xlink:href="#path-29"></use>
                </mask>
                <g id="Clip-218"></g>
                <path d="M10.649,0.344 C10.269,9.63 7.685,15.833 2.408,13.65 C2.208,13.568 2.005,13.474 1.797,13.367 C-5.039,9.846 10.649,0.344 10.649,0.344" id="Fill-217" mask="url(#mask-30)"></path>
            </g>
            <path d="M400.8281,11.375 C400.2171,26.267 396.0731,36.215 387.6111,32.714 C387.2911,32.582 386.9641,32.431 386.6311,32.259 C375.6681,26.612 400.8281,11.375 400.8281,11.375" id="Fill-220" fill="#FFFFFF"></path>
            <path d="M400.8281,11.375 C400.2171,26.267 396.0731,36.215 387.6111,32.714 C395.9391,28.321 400.8281,11.375 400.8281,11.375" id="Fill-222" fill="#C8EAF8"></path>
            <g id="Group-226" transform="translate(383.000000, 11.000000)">
                <mask id="mask-32" fill="white">
                    <use xlink:href="#path-31"></use>
                </mask>
                <g id="Clip-225"></g>
                <path d="M17.828,0.375 C17.217,15.267 13.073,25.215 4.611,21.714 C4.291,21.582 3.964,21.431 3.631,21.259 C-7.332,15.612 17.828,0.375 17.828,0.375" id="Fill-224" mask="url(#mask-32)"></path>
            </g>
            <path d="M272.3447,49.6016 C271.7327,64.4936 267.5887,74.4416 259.1267,70.9406 C258.8067,70.8086 258.4797,70.6576 258.1477,70.4856 C247.1837,64.8386 272.3447,49.6016 272.3447,49.6016" id="Fill-227" fill="#FFFFFF"></path>
            <path d="M272.3447,49.6016 C271.7327,64.4936 267.5887,74.4416 259.1267,70.9406 C267.4547,66.5486 272.3447,49.6016 272.3447,49.6016" id="Fill-229" fill="#C8EAF8"></path>
            <g id="Group-233" transform="translate(255.000000, 49.000000)">
                <mask id="mask-34" fill="white">
                    <use xlink:href="#path-33"></use>
                </mask>
                <g id="Clip-232"></g>
                <path d="M17.345,0.602 C16.732,15.494 12.589,25.442 4.127,21.94 C3.807,21.808 3.479,21.658 3.147,21.486 C-7.816,15.839 17.345,0.602 17.345,0.602" id="Fill-231" mask="url(#mask-34)"></path>
            </g>
            <path d="M181.5942,84.4692 C181.2132,93.7552 178.6292,99.9582 173.3522,97.7752 C173.1522,97.6922 172.9482,97.5982 172.7412,97.4912 C165.9052,93.9702 181.5942,84.4692 181.5942,84.4692" id="Fill-234" fill="#FFFFFF"></path>
            <path d="M181.5942,84.4692 C181.2132,93.7552 178.6292,99.9582 173.3522,97.7752 C178.5462,95.0362 181.5942,84.4692 181.5942,84.4692" id="Fill-236" fill="#C8EAF8"></path>
            <g id="Group-240" transform="translate(171.000000, 84.000000)">
                <mask id="mask-36" fill="white">
                    <use xlink:href="#path-35"></use>
                </mask>
                <g id="Clip-239"></g>
                <path d="M10.594,0.469 C10.213,9.755 7.629,15.958 2.352,13.775 C2.152,13.692 1.949,13.599 1.741,13.492 C-5.095,9.97 10.594,0.469 10.594,0.469" id="Fill-238" mask="url(#mask-36)"></path>
            </g>
            <path d="M62.083,22.7051 C61.702,31.9911 59.118,38.1951 53.841,36.0111 C53.642,35.9291 53.438,35.8341 53.23,35.7281 C46.394,32.2061 62.083,22.7051 62.083,22.7051" id="Fill-241" fill="#FFFFFF"></path>
            <path d="M62.083,22.7051 C61.702,31.9911 59.118,38.1951 53.841,36.0111 C59.035,33.2721 62.083,22.7051 62.083,22.7051" id="Fill-243" fill="#C8EAF8"></path>
            <g id="Group-247" transform="translate(51.000000, 22.000000)">
                <mask id="mask-38" fill="white">
                    <use xlink:href="#path-37"></use>
                </mask>
                <g id="Clip-246"></g>
                <path d="M11.083,0.705 C10.702,9.991 8.118,16.195 2.841,14.011 C2.642,13.929 2.438,13.834 2.23,13.728 C-4.606,10.207 11.083,0.705 11.083,0.705" id="Fill-245" mask="url(#mask-38)"></path>
            </g>
            <path d="M328.6904,184.7813 C328.3084,194.0673 325.7244,200.2703 320.4484,198.0873 C320.2484,198.0043 320.0444,197.9103 319.8364,197.8033 C313.0014,194.2823 328.6904,184.7813 328.6904,184.7813" id="Fill-248" fill="#FFFFFF"></path>
            <path d="M328.6904,184.7813 C328.3084,194.0673 325.7244,200.2703 320.4484,198.0873 C325.6414,195.3483 328.6904,184.7813 328.6904,184.7813" id="Fill-250" fill="#C8EAF8"></path>
            <g id="Group-254" transform="translate(318.000000, 184.000000)">
                <mask id="mask-40" fill="white">
                    <use xlink:href="#path-39"></use>
                </mask>
                <g id="Clip-253"></g>
                <path d="M10.69,0.781 C10.309,10.067 7.725,16.271 2.448,14.087 C2.248,14.004 2.045,13.911 1.837,13.804 C-4.999,10.282 10.69,0.781 10.69,0.781" id="Fill-252" mask="url(#mask-40)"></path>
            </g>
            <path d="M414.0537,183.3281 C413.6727,192.6141 411.0887,198.8171 405.8127,196.6341 C405.6127,196.5521 405.4087,196.4571 405.2007,196.3501 C398.3657,192.8291 414.0537,183.3281 414.0537,183.3281" id="Fill-255" fill="#FFFFFF"></path>
            <path d="M414.0537,183.3281 C413.6727,192.6141 411.0887,198.8171 405.8127,196.6341 C411.0057,193.8951 414.0537,183.3281 414.0537,183.3281" id="Fill-257" fill="#C8EAF8"></path>
            <g id="Group-261" transform="translate(403.000000, 183.000000)">
                <mask id="mask-42" fill="white">
                    <use xlink:href="#path-41"></use>
                </mask>
                <g id="Clip-260"></g>
                <path d="M11.054,0.328 C10.673,9.614 8.089,15.817 2.812,13.634 C2.612,13.552 2.409,13.458 2.201,13.351 C-4.635,9.83 11.054,0.328 11.054,0.328" id="Fill-259" mask="url(#mask-42)"></path>
            </g>
            <path d="M465.1289,62.3613 C464.7469,71.6473 462.1639,77.8503 456.8869,75.6673 C456.6879,75.5843 456.4829,75.4903 456.2759,75.3833 C449.4399,71.8623 465.1289,62.3613 465.1289,62.3613" id="Fill-262" fill="#FFFFFF"></path>
            <path d="M465.1289,62.3613 C464.7469,71.6473 462.1639,77.8503 456.8869,75.6673 C462.0809,72.9283 465.1289,62.3613 465.1289,62.3613" id="Fill-264" fill="#C8EAF8"></path>
            <g id="Group-268" transform="translate(454.000000, 62.000000)">
                <mask id="mask-44" fill="white">
                    <use xlink:href="#path-43"></use>
                </mask>
                <g id="Clip-267"></g>
                <path d="M11.129,0.361 C10.747,9.647 8.164,15.851 2.887,13.667 C2.687,13.584 2.483,13.491 2.276,13.384 C-4.561,9.862 11.129,0.361 11.129,0.361" id="Fill-266" mask="url(#mask-44)"></path>
            </g>
            <path d="M477.6455,127.6938 C477.2635,136.9798 474.6795,143.1828 469.4035,140.9998 C469.2045,140.9168 468.9995,140.8228 468.7925,140.7158 C461.9565,137.1948 477.6455,127.6938 477.6455,127.6938" id="Fill-269" fill="#FFFFFF"></path>
            <path d="M477.6455,127.6938 C477.2635,136.9798 474.6795,143.1828 469.4035,140.9998 C474.5965,138.2608 477.6455,127.6938 477.6455,127.6938" id="Fill-271" fill="#C8EAF8"></path>
            <g id="Group-275" transform="translate(467.000000, 127.000000)">
                <mask id="mask-46" fill="white">
                    <use xlink:href="#path-45"></use>
                </mask>
                <g id="Clip-274"></g>
                <path d="M10.646,0.694 C10.264,9.979 7.68,16.183 2.403,14 C2.204,13.917 2,13.823 1.793,13.716 C-5.044,10.195 10.646,0.694 10.646,0.694" id="Fill-273" mask="url(#mask-46)"></path>
            </g>
            <path d="M38.5,216.5 C38.118,225.786 35.535,231.989 30.258,229.806 C30.058,229.724 29.854,229.629 29.647,229.522 C22.811,226.001 38.5,216.5 38.5,216.5" id="Fill-276" fill="#FFFFFF"></path>
            <path d="M38.5,216.5 C38.118,225.786 35.535,231.989 30.258,229.806 C35.452,227.067 38.5,216.5 38.5,216.5" id="Fill-278" fill="#C8EAF8"></path>
            <g id="Group-282" transform="translate(27.000000, 216.000000)">
                <mask id="mask-48" fill="white">
                    <use xlink:href="#path-47"></use>
                </mask>
                <g id="Clip-281"></g>
                <path d="M11.5,0.5 C11.118,9.786 8.535,15.989 3.258,13.806 C3.058,13.724 2.854,13.629 2.647,13.522 C-4.189,10.001 11.5,0.5 11.5,0.5" id="Fill-280" mask="url(#mask-48)"></path>
            </g>
            <path d="M487.3066,231.7148 C486.9246,241.0008 484.3406,247.2038 479.0646,245.0208 C478.8646,244.9388 478.6606,244.8438 478.4526,244.7368 C471.6176,241.2158 487.3066,231.7148 487.3066,231.7148" id="Fill-283" fill="#FFFFFF"></path>
            <path d="M487.3066,231.7148 C486.9246,241.0008 484.3406,247.2038 479.0646,245.0208 C484.2576,242.2818 487.3066,231.7148 487.3066,231.7148" id="Fill-285" fill="#C8EAF8"></path>
            <g id="Group-289" transform="translate(476.000000, 231.000000)">
                <mask id="mask-50" fill="white">
                    <use xlink:href="#path-49"></use>
                </mask>
                <g id="Clip-288"></g>
                <path d="M11.307,0.715 C10.925,10.001 8.341,16.204 3.064,14.021 C2.864,13.938 2.661,13.844 2.453,13.737 C-4.383,10.216 11.307,0.715 11.307,0.715" id="Fill-287" mask="url(#mask-50)"></path>
            </g>
            <path d="M60.1421,129.0024 C59.7611,138.2884 57.1771,144.4914 51.9001,142.3084 C51.7001,142.2254 51.4961,142.1314 51.2891,142.0244 C44.4531,138.5034 60.1421,129.0024 60.1421,129.0024" id="Fill-290" fill="#FFFFFF"></path>
            <path d="M60.1421,129.0024 C59.7611,138.2884 57.1771,144.4914 51.9001,142.3084 C57.0941,139.5694 60.1421,129.0024 60.1421,129.0024" id="Fill-292" fill="#C8EAF8"></path>
            <g id="Group-296" transform="translate(49.000000, 129.000000)">
                <mask id="mask-52" fill="white">
                    <use xlink:href="#path-51"></use>
                </mask>
                <g id="Clip-295"></g>
                <path d="M11.142,0.002 C10.761,9.288 8.177,15.492 2.9,13.308 C2.7,13.226 2.497,13.132 2.289,13.025 C-4.547,9.503 11.142,0.002 11.142,0.002" id="Fill-294" mask="url(#mask-52)"></path>
            </g>
            <path d="M100.2446,151.7222 C99.8636,161.0082 97.2796,167.2112 92.0026,165.0282 C91.8036,164.9452 91.5996,164.8512 91.3916,164.7442 C84.5556,161.2232 100.2446,151.7222 100.2446,151.7222" id="Fill-297" fill="#FFFFFF"></path>
            <path d="M100.2446,151.7222 C99.8636,161.0082 97.2796,167.2112 92.0026,165.0282 C97.1966,162.2892 100.2446,151.7222 100.2446,151.7222" id="Fill-299" fill="#C8EAF8"></path>
            <g id="Group-303" transform="translate(89.000000, 151.000000)">
                <mask id="mask-54" fill="white">
                    <use xlink:href="#path-53"></use>
                </mask>
                <g id="Clip-302"></g>
                <path d="M11.245,0.722 C10.863,10.008 8.279,16.211 3.003,14.028 C2.803,13.945 2.6,13.852 2.392,13.745 C-4.445,10.223 11.245,0.722 11.245,0.722" id="Fill-301" mask="url(#mask-54)"></path>
            </g>
            <path d="M431.8457,89.3687 C431.2477,103.3897 427.2037,112.7577 418.9457,109.4607 C418.6327,109.3357 418.3147,109.1947 417.9897,109.0327 C407.2897,103.7157 431.8457,89.3687 431.8457,89.3687" id="Fill-304" fill="#FFFFFF"></path>
            <path d="M431.8457,89.3687 C431.2477,103.3897 427.2037,112.7577 418.9457,109.4607 C427.0747,105.3257 431.8457,89.3687 431.8457,89.3687" id="Fill-306" fill="#C8EAF8"></path>
            <g id="Group-310" transform="translate(415.000000, 89.000000)">
                <mask id="mask-56" fill="white">
                    <use xlink:href="#path-55"></use>
                </mask>
                <g id="Clip-309"></g>
                <path d="M16.846,0.369 C16.248,14.39 12.204,23.758 3.945,20.461 C3.633,20.336 3.314,20.194 2.989,20.033 C-7.71,14.716 16.846,0.369 16.846,0.369" id="Fill-308" mask="url(#mask-56)"></path>
            </g>
            <path d="M364,199.0488 C363.439,212.2018 359.646,220.9878 351.899,217.8958 C351.606,217.7788 351.308,217.6458 351.003,217.4938 C340.966,212.5068 364,199.0488 364,199.0488" id="Fill-311" fill="#FFFFFF"></path>
            <path d="M364,199.0488 C363.439,212.2018 359.646,220.9878 351.899,217.8958 C359.524,214.0168 364,199.0488 364,199.0488" id="Fill-313" fill="#C8EAF8"></path>
            <g id="Group-317" transform="translate(348.000000, 199.000000)">
                <mask id="mask-58" fill="white">
                    <use xlink:href="#path-57"></use>
                </mask>
                <g id="Clip-316"></g>
                <path d="M16,0.049 C15.439,13.202 11.646,21.988 3.899,18.896 C3.606,18.779 3.308,18.646 3.003,18.494 C-7.034,13.507 16,0.049 16,0.049" id="Fill-315" mask="url(#mask-58)"></path>
            </g>
        </g>
    </g>
</svg>