<?xml version="1.0" encoding="UTF-8"?>
<svg width="622px" height="383px" viewBox="0 0 622 383" version="1.1" xmlns="http://www.w3.org/2000/svg" xmlns:xlink="http://www.w3.org/1999/xlink">
    <!-- Generator: Sketch 51.3 (57544) - http://www.bohemiancoding.com/sketch -->
    <title>Illustration-rainbow-9</title>
    <desc>Created with Sketch.</desc>
    <defs></defs>
    <g id="components" stroke="none" stroke-width="1" fill="none" fill-rule="evenodd">
        <g id="Illustration-rainbow-9">
            <polygon id="Fill-1" fill="#D5EBF1" points="0 383 622 383 622 0 0 0"></polygon>
            <g id="Group-80" transform="translate(99.000000, 43.000000)">
                <path d="M49.5952,89.0571 C53.5872,91.1101 58.5042,89.5321 60.5572,85.5401 L88.2342,31.7181 L86.6252,30.8901 L58.9482,84.7131 C57.3512,87.8181 53.5272,89.0451 50.4222,87.4481 C47.3182,85.8511 46.0912,82.0271 47.6872,78.9221 L46.0782,78.0951 C44.0262,82.0871 45.6032,87.0041 49.5952,89.0571" id="Fill-23" fill="#B0E1E8"></path>
                <path d="M82.335,41.9487 L67.278,71.2287 C66.762,71.3397 66.245,71.4437 65.724,71.5377 L81.491,40.8757 C81.497,40.8737 81.502,40.8727 81.507,40.8717 C82.126,40.7297 82.626,41.3837 82.335,41.9487" id="Fill-25" fill="#E4E4E4"></path>
                <path d="M96.4336,12.25 L97.6906,12.896 C98.0656,13.089 98.5266,12.927 98.6976,12.541 L103.6436,1.377 C103.8006,1.022 103.6536,0.605 103.3086,0.427 C102.9616,0.25 102.5376,0.372 102.3396,0.707 L96.1376,11.224 C95.9226,11.588 96.0586,12.057 96.4336,12.25" id="Fill-27" fill="#E4E4E4"></path>
                <path d="M102.6587,3.6001 L98.6977,12.5411 C98.5267,12.9271 98.0657,13.0891 97.6907,12.8961 L96.4337,12.2501 C96.0577,12.0571 95.9227,11.5881 96.1377,11.2241 L100.3967,4.0011 C101.1797,3.9881 101.9457,3.8591 102.6587,3.6001" id="Fill-29" fill="#B0E1E8"></path>
                <path d="M98.7607,6.6323 L100.9067,7.7353 C101.4687,8.0253 102.1587,7.8033 102.4487,7.2403 C102.7377,6.6783 102.5167,5.9873 101.9537,5.6983 L99.8087,4.5943 C99.2457,4.3053 98.5547,4.5273 98.2657,5.0903 C97.9767,5.6523 98.1987,6.3423 98.7607,6.6323" id="Fill-31" fill="#E4E4E4"></path>
                <path d="M31.8682,15.1699 C31.8682,15.1699 35.2102,13.2029 36.7512,20.6289 C36.7512,20.6289 54.2312,17.4569 57.5432,36.8489 C57.5432,36.8489 67.2692,31.5319 83.1212,39.6829 L100.3572,6.1649 C67.5482,-10.7061 31.8682,15.1699 31.8682,15.1699" id="Fill-33" fill="#F6DB65"></path>
                <path d="M100.3574,6.165 L83.1214,39.683 C98.9724,47.834 100.3054,58.839 100.3054,58.839 C118.0064,50.251 125.5944,66.315 125.5944,66.315 C132.5314,63.249 132.875488,67.111 132.875488,67.111 C132.875488,67.111 133.1664,23.037 100.3574,6.165" id="Fill-35" fill="#F6DB65"></path>
                <path d="M36.7515,20.6294 C36.7515,20.6294 54.2315,17.4564 57.5435,36.8494 C57.5435,36.8494 67.2695,31.5314 83.1215,39.6834 L100.3575,6.1654 C68.4695,-10.2326 36.7515,20.6294 36.7515,20.6294" id="Fill-37" fill="#FE4849"></path>
                <path d="M125.5942,66.3149 C125.5942,66.3149 118.0062,50.2519 100.3052,58.8389 C100.3052,58.8389 98.9722,47.8349 83.1212,39.6829 L100.3572,6.1649 C132.2442,22.5629 125.5942,66.3149 125.5942,66.3149" id="Fill-39" fill="#FE4849"></path>
                <path d="M100.3574,6.165 C115.6554,14.032 100.3054,58.839 100.3054,58.839 C100.3054,58.839 98.9724,47.834 83.1214,39.683 C67.2694,31.532 57.5434,36.849 57.5434,36.849 C57.5434,36.849 85.0584,-1.702 100.3574,6.165" id="Fill-41" fill="#F6DB65"></path>
                <path d="M47.8994,77.0117 C48.6554,77.5207 48.8914,78.5487 48.4794,79.3607 C47.1404,81.9947 48.1654,85.2247 50.7694,86.6087 C53.4634,88.0417 56.8174,86.8787 58.2124,84.1647 L64.3484,72.2337 C64.5314,71.8787 64.9674,71.7387 65.3224,71.9217 L67.2534,72.9137 C67.6084,73.0967 67.7484,73.5327 67.5664,73.8887 L61.4554,85.7707 C59.1414,90.2707 53.5044,92.1787 49.0444,89.7887 C44.7104,87.4677 43.0174,82.0707 45.2744,77.6817 C45.7644,76.7287 46.9824,76.3957 47.8994,77.0117" id="Fill-43" fill="#FE4849"></path>
                <path d="M385.1338,189.9131 C385.1338,189.9131 384.7198,188.0051 383.9448,184.4271 C383.5848,182.6311 383.0138,180.4441 382.3008,177.8811 C381.9448,176.6001 381.5618,175.2251 381.1538,173.7561 C380.6808,172.3051 380.1788,170.7631 379.6488,169.1331 C375.3948,156.1671 367.2508,137.9061 352.4418,119.5621 C345.0708,110.4041 335.9468,101.4111 325.2898,93.2061 C319.9238,89.1581 314.2198,85.2341 308.0718,81.7541 C301.9778,78.1891 295.4718,75.0221 288.6768,72.2461 C275.0988,66.6591 260.2318,62.8511 244.8678,61.2471 C237.1868,60.4131 229.3868,60.2821 221.5888,60.5531 C213.7858,60.8911 206.0118,61.8771 198.3298,63.2671 C190.6788,64.8201 183.0918,66.7821 175.7188,69.3561 C168.3748,71.9921 161.1778,75.0011 154.3508,78.6201 C140.6738,85.7981 128.2718,94.8381 117.7268,105.0551 C112.4428,110.1501 107.5718,115.5001 103.2288,121.0681 C98.8068,126.5781 94.9608,132.3341 91.4748,138.0811 C84.6118,149.6491 79.4658,161.3801 76.0088,172.6171 C69.0428,195.1401 68.2388,215.1171 69.0868,228.7371 C69.1968,230.4471 69.3018,232.0651 69.4008,233.5881 C69.5648,235.1031 69.7188,236.5241 69.8628,237.8461 C70.1488,240.4901 70.4278,242.7331 70.7588,244.5341 C71.3628,248.1451 71.6848,250.0711 71.6848,250.0711 L57.6408,252.7671 C57.6408,252.7671 57.2888,250.6711 56.6298,246.7401 C56.2738,244.7801 55.9668,242.3381 55.6528,239.4581 C55.4948,238.0181 55.3028,236.4751 55.1538,234.8201 C55.0458,233.1611 54.9298,231.3981 54.8088,229.5351 C53.8908,214.6971 54.7588,192.9071 62.3568,168.3611 C66.1268,156.1181 71.7248,143.3341 79.2038,130.7361 C82.9988,124.4751 87.1938,118.2091 92.0058,112.2061 C96.7388,106.1431 102.0418,100.3131 107.7998,94.7621 C119.2888,83.6331 132.8058,73.7741 147.7188,65.9511 C155.1638,62.0081 163.0058,58.7191 171.0108,55.8531 C179.0458,53.0481 187.3068,50.9061 195.6348,49.2241 C203.9938,47.7041 212.4608,46.6351 220.9628,46.2661 C229.4608,45.9641 237.9628,46.1171 246.3378,47.0231 C263.0878,48.7691 279.2938,52.9241 294.0878,59.0081 C301.4908,62.0341 308.5758,65.4861 315.2168,69.3661 C321.9098,73.1621 328.1268,77.4291 333.9698,81.8411 C345.5808,90.7741 355.5148,100.5771 363.5498,110.5561 C379.6948,130.5431 388.5668,150.4651 393.2078,164.5891 C393.7848,166.3641 394.3298,168.0451 394.8448,169.6261 C395.3178,171.2181 395.7108,172.7231 396.0968,174.1181 C396.8718,176.9101 397.4908,179.2931 397.8858,181.2451 C398.7288,185.1411 399.1778,187.2181 399.1778,187.2181 L385.1338,189.9131 Z" id="Fill-45" fill="#FE4849"></path>
                <path d="M371.0898,192.6084 C371.0898,192.6084 370.7118,190.8694 370.0018,187.6074 C369.6788,185.9694 369.1538,183.9774 368.5038,181.6444 C368.1808,180.4774 367.8328,179.2224 367.4618,177.8844 C367.0308,176.5644 366.5728,175.1604 366.0898,173.6774 C362.2208,161.8694 354.8078,145.2684 341.3348,128.5694 C334.6288,120.2314 326.3148,112.0484 316.6108,104.5714 C311.7208,100.8874 306.5288,97.3074 300.9278,94.1414 C295.3778,90.8914 289.4518,88.0104 283.2658,85.4824 C270.9028,80.3934 257.3738,76.9334 243.3978,75.4714 C236.4088,74.7094 229.3128,74.5994 222.2148,74.8394 C215.1118,75.1474 208.0308,76.0514 201.0258,77.3114 C194.0508,78.7344 187.1378,80.5154 180.4268,82.8594 C173.7438,85.2634 167.1928,87.9944 160.9828,91.2894 C148.5408,97.8214 137.2538,106.0444 127.6538,115.3484 C122.8428,119.9864 118.4038,124.8574 114.4518,129.9314 C110.4208,134.9454 106.9228,140.1924 103.7448,145.4254 C97.4988,155.9634 92.8038,166.6424 89.6618,176.8714 C83.3278,197.3724 82.5878,215.5384 83.3648,227.9394 C83.4648,229.4964 83.5588,230.9694 83.6478,232.3554 C83.7978,233.7364 83.9398,235.0304 84.0708,236.2334 C84.3308,238.6424 84.5818,240.6864 84.8868,242.3284 C85.4358,245.6204 85.7288,247.3764 85.7288,247.3764 L71.6848,250.0714 C71.6848,250.0714 71.3628,248.1454 70.7578,244.5344 C70.4278,242.7334 70.1488,240.4904 69.8618,237.8454 C69.7188,236.5244 69.5648,235.1034 69.4008,233.5874 C69.3018,232.0654 69.1968,230.4474 69.0868,228.7374 C68.2388,215.1174 69.0428,195.1394 76.0088,172.6174 C79.4648,161.3794 84.6118,149.6494 91.4748,138.0814 C94.9608,132.3344 98.8068,126.5774 103.2288,121.0684 C107.5708,115.5004 112.4428,110.1504 117.7268,105.0544 C128.2718,94.8384 140.6728,85.7974 154.3508,78.6204 C161.1778,75.0014 168.3748,71.9914 175.7188,69.3564 C183.0918,66.7814 190.6788,64.8204 198.3298,63.2674 C206.0118,61.8774 213.7858,60.8904 221.5888,60.5524 C229.3868,60.2814 237.1868,60.4134 244.8678,61.2474 C260.2318,62.8514 275.0988,66.6584 288.6768,72.2454 C295.4718,75.0224 301.9778,78.1894 308.0718,81.7544 C314.2198,85.2344 319.9238,89.1584 325.2898,93.2064 C335.9468,101.4114 345.0708,110.4034 352.4418,119.5624 C367.2508,137.9064 375.3948,156.1674 379.6488,169.1324 C380.1788,170.7624 380.6808,172.3044 381.1528,173.7554 C381.5618,175.2244 381.9438,176.6004 382.3008,177.8804 C383.0138,180.4444 383.5848,182.6304 383.9438,184.4264 C384.7198,188.0044 385.1338,189.9134 385.1338,189.9134 L371.0898,192.6084 Z" id="Fill-47" fill="#FF8A53"></path>
                <path d="M357.0459,195.3037 C357.0459,195.3037 356.7029,193.7337 356.0609,190.7887 C355.7729,189.3087 355.2959,187.5117 354.7079,185.4077 C354.4169,184.3537 354.1049,183.2227 353.7719,182.0147 C353.3819,180.8247 352.9679,179.5587 352.5309,178.2217 C349.0479,167.5727 342.3649,152.6307 330.2279,137.5757 C324.1859,130.0577 316.6809,122.6847 307.9319,115.9367 C303.5189,112.6167 298.8389,109.3807 293.7829,106.5297 C288.7789,103.5937 283.4319,100.9987 277.8549,98.7197 C266.7079,94.1287 254.5169,91.0157 241.9279,89.6967 C235.6319,89.0057 229.2369,88.9167 222.8399,89.1257 C216.4379,89.4027 210.0499,90.2247 203.7209,91.3557 C197.4229,92.6487 191.1849,94.2497 185.1349,96.3627 C179.1139,98.5357 173.2069,100.9867 167.6149,103.9587 C156.4079,109.8457 146.2359,117.2497 137.5809,125.6407 C133.2429,129.8237 129.2369,134.2137 125.6749,138.7937 C122.0339,143.3137 118.8849,148.0527 116.0149,152.7697 C110.3849,162.2787 106.1429,171.9057 103.3149,181.1257 C97.6119,199.6047 96.9359,215.9587 97.6429,227.1407 C97.7319,228.5447 97.8159,229.8727 97.8949,231.1227 C98.0319,232.3677 98.1609,233.5347 98.2799,234.6217 C98.5139,236.7947 98.7359,238.6397 99.0169,240.1217 C99.5099,243.0947 99.7729,244.6807 99.7729,244.6807 L85.7289,247.3757 C85.7289,247.3757 85.4359,245.6197 84.8869,242.3277 C84.5819,240.6867 84.3309,238.6427 84.0709,236.2337 C83.9399,235.0307 83.7979,233.7367 83.6479,232.3557 C83.5589,230.9697 83.4639,229.4957 83.3649,227.9397 C82.5879,215.5377 83.3279,197.3717 89.6619,176.8707 C92.8039,166.6427 97.4989,155.9637 103.7449,145.4257 C106.9229,140.1927 110.4209,134.9457 114.4519,129.9307 C118.4039,124.8567 122.8429,119.9867 127.6539,115.3477 C137.2539,106.0447 148.5409,97.8217 160.9829,91.2887 C167.1929,87.9937 173.7439,85.2637 180.4269,82.8597 C187.1379,80.5157 194.0509,78.7347 201.0249,77.3117 C208.0309,76.0517 215.1119,75.1467 222.2139,74.8397 C229.3129,74.5987 236.4089,74.7097 243.3979,75.4717 C257.3739,76.9337 270.9029,80.3937 283.2659,85.4827 C289.4519,88.0107 295.3779,90.8907 300.9279,94.1417 C306.5289,97.3077 311.7209,100.8867 316.6099,104.5717 C326.3149,112.0487 334.6289,120.2307 341.3349,128.5697 C354.8079,145.2687 362.2209,161.8687 366.0899,173.6777 C366.5729,175.1597 367.0309,176.5647 367.4619,177.8847 C367.8329,179.2227 368.1809,180.4777 368.5039,181.6447 C369.1539,183.9777 369.6789,185.9697 370.0019,187.6077 C370.7119,190.8687 371.0899,192.6087 371.0899,192.6087 L357.0459,195.3037 Z" id="Fill-49" fill="#F6DB65"></path>
                <path d="M342.588111,197.972889 C342.588111,197.972889 342.280111,196.571889 341.704111,193.943889 C341.452111,192.619889 341.024111,191.019889 340.498111,189.143889 C340.239111,188.203889 339.962111,187.194889 339.666111,186.118889 C339.318111,185.057889 338.948111,183.930889 338.558111,182.740889 C335.461111,173.247889 329.508111,159.966889 318.706111,146.556889 C313.329111,139.858889 306.634111,133.295889 298.838111,127.275889 C294.901111,124.319889 290.734111,121.426889 286.225111,118.890889 C281.766111,116.269889 276.998111,113.960889 272.029111,111.930889 C262.099111,107.837889 251.246111,105.071889 240.043111,103.894889 C234.441111,103.275889 228.750111,103.206889 223.052111,103.386889 C217.349111,103.632889 211.655111,104.372889 206.002111,105.373889 C200.380111,106.535889 194.817111,107.956889 189.428111,109.839889 C184.069111,111.782889 178.808111,113.952889 173.833111,116.601889 C163.861111,121.842889 154.804111,128.429889 147.094111,135.908889 C143.230111,139.634889 139.655111,143.543889 136.484111,147.629889 C133.234111,151.655889 130.433111,155.884889 127.871111,160.087889 C122.859111,168.566889 119.068111,177.141889 116.553111,185.354889 C111.483111,201.810889 110.870111,216.352889 111.507111,226.316889 C111.585111,227.567889 111.658111,228.750889 111.728111,229.864889 C111.852111,230.974889 111.968111,232.014889 112.075111,232.982889 C112.282111,234.920889 112.476111,236.566889 112.732111,237.888889 C113.170111,240.542889 113.402111,241.958889 113.402111,241.958889 L99.3591109,244.654889 C99.3591109,244.654889 99.0961109,243.068889 98.6031109,240.095889 C98.3221109,238.613889 98.1001109,236.768889 97.8661109,234.595889 C97.7471109,233.508889 97.6181109,232.341889 97.4811109,231.096889 C97.4021109,229.846889 97.3171109,228.518889 97.2291109,227.114889 C96.5221109,215.932889 97.1981109,199.577889 102.901111,181.099889 C105.729111,171.878889 109.971111,162.251889 115.601111,152.743889 C118.471111,148.025889 121.620111,143.286889 125.261111,138.766889 C128.823111,134.186889 132.829111,129.797889 137.167111,125.614889 C145.822111,117.223889 155.994111,109.818889 167.201111,103.932889 C172.793111,100.959889 178.700111,98.5098893 184.721111,96.3358893 C190.771111,94.2228893 197.009111,92.6218893 203.307111,91.3298893 C209.636111,90.1988893 216.024111,89.3768893 222.426111,89.0998893 C228.823111,88.8898893 235.218111,88.9798893 241.514111,89.6708893 C254.103111,90.9898893 266.294111,94.1028893 277.441111,98.6928893 C283.018111,100.972889 288.365111,103.566889 293.369111,106.502889 C298.425111,109.353889 303.105111,112.590889 307.518111,115.909889 C316.267111,122.658889 323.772111,130.031889 329.814111,137.549889 C341.951111,152.604889 348.634111,167.545889 352.117111,178.195889 C352.554111,179.532889 352.968111,180.797889 353.358111,181.988889 C353.691111,183.196889 354.003111,184.326889 354.294111,185.380889 C354.882111,187.485889 355.359111,189.282889 355.647111,190.762889 C356.289111,193.706889 356.632111,195.277889 356.632111,195.277889 L342.588111,197.972889 Z" id="Fill-51" fill="#8DD46F"></path>
                <path d="M334.115437,203.298109 C334.115437,203.298109 333.831955,202.008636 333.301807,199.589837 C333.069868,198.371234 332.675939,196.898602 332.191811,195.171941 C331.953429,194.30677 331.698479,193.378091 331.426042,192.387746 C331.105745,191.411207 330.765199,190.373922 330.406245,189.278651 C327.555781,180.541341 322.076669,168.317574 312.134562,155.975077 C307.185598,149.81027 301.023553,143.769718 293.848153,138.228939 C290.224557,135.508252 286.389271,132.845549 282.23921,130.511427 C278.135168,128.099071 273.746725,125.973879 269.173282,124.105477 C260.033759,120.3383 250.044711,117.792487 239.733525,116.709183 C234.577472,116.139458 229.339504,116.075951 224.095093,116.241622 C218.84608,116.468039 213.60535,117.149131 208.402357,118.070447 C203.227896,119.139946 198.107738,120.447827 193.147729,122.180931 C188.215332,123.969259 183.373134,125.966516 178.794168,128.404643 C169.615989,133.228433 161.279971,139.291075 154.183725,146.17471 C150.627318,149.604102 147.336906,153.201926 144.418333,156.96266 C141.427049,160.668171 138.849023,164.560522 136.49097,168.428942 C131.87795,176.232972 128.388733,184.12536 126.073939,191.684564 C121.407536,206.830585 120.843334,220.21497 121.429626,229.385787 C121.501416,230.537201 121.568605,231.626028 121.633033,232.651348 C121.747162,233.672987 121.853928,234.630198 121.95241,235.52114 C122.142932,237.304866 122.321488,238.819836 122.55711,240.036598 C122.960243,242.479327 123.173774,243.782606 123.173774,243.782606 L110.248666,246.263991 C110.248666,246.263991 110.006603,244.804245 109.552848,242.06791 C109.294217,240.703885 109.089889,239.005756 108.874517,237.005737 C108.76499,236.005268 108.646259,234.931167 108.520164,233.785275 C108.447453,232.634781 108.36922,231.412497 108.288225,230.120262 C107.637506,219.828404 108.259693,204.775343 113.508706,187.768283 C116.111583,179.28132 120.015899,170.420677 125.197723,161.669561 C127.839257,157.327137 130.737581,152.965385 134.088739,148.805199 C137.367186,144.58979 141.054289,140.550176 145.046963,136.700163 C153.012982,128.977128 162.375241,122.161603 172.690108,116.744158 C177.836957,114.007823 183.273731,111.752855 188.81543,109.751916 C194.38382,107.807121 200.125244,106.333569 205.921892,105.144419 C211.747073,104.103452 217.626556,103.346887 223.518925,103.091938 C229.406693,102.898655 235.292619,102.98149 241.087426,103.617483 C252.67428,104.831484 263.894816,107.696674 274.15446,111.921287 C279.287503,114.019788 284.208855,116.407293 288.814512,119.109573 C293.46803,121.733619 297.775478,124.712938 301.837182,127.767729 C309.889718,133.979475 316.797283,140.765548 322.35831,147.685078 C333.529145,161.541626 339.680145,175.293249 342.885881,185.095456 C343.288094,186.326024 343.669137,187.490324 344.028091,188.586514 C344.334583,189.698352 344.621746,190.738398 344.889581,191.708494 C345.430774,193.645926 345.869802,195.299876 346.134876,196.662061 C346.725769,199.371704 347.041465,200.817644 347.041465,200.817644 L334.115437,203.298109 Z" id="Fill-51-Copy" fill="#01B6F5"></path>
                <path d="M323.358138,205.33376 C323.358138,205.33376 323.10282,204.172392 322.625341,201.993895 C322.416444,200.896357 322.061651,199.570027 321.62562,198.014905 C321.41092,197.235686 321.181299,196.399269 320.935928,195.507312 C320.647451,194.62779 320.340737,193.693556 320.017444,192.707098 C317.450167,184.837816 312.51539,173.828448 303.561005,162.712144 C299.103707,157.159795 293.553844,151.719355 287.091301,146.729038 C283.827701,144.278644 280.37344,141.880473 276.635676,139.77824 C272.93936,137.605546 268.986896,135.691486 264.867813,134.008704 C256.636277,130.615786 247.639615,128.322893 238.352817,127.347212 C233.709004,126.834088 228.991414,126.77689 224.268022,126.926102 C219.540484,127.130025 214.820407,127.743453 210.134317,128.573238 C205.473925,129.536485 200.862441,130.714432 196.395196,132.275357 C191.952819,133.886019 187.59168,135.684854 183.467623,137.880759 C175.201271,142.225319 167.693414,147.685654 161.302161,153.885418 C158.099074,156.974109 155.135555,160.214499 152.506935,163.601614 C149.812827,166.938992 147.490921,170.444648 145.367135,173.928751 C141.212406,180.957472 138.069833,188.065772 135.985008,194.87399 C131.782199,208.515294 131.274049,220.569976 131.802094,228.829696 C131.866753,229.866721 131.927267,230.847376 131.985294,231.770833 C132.088084,232.690975 132.184243,233.553089 132.272942,234.355519 C132.444536,235.962036 132.605353,237.326498 132.817566,238.422378 C133.180649,240.622428 133.372967,241.79623 133.372967,241.79623 L121.731934,244.031096 C121.731934,244.031096 121.513918,242.716372 121.105243,240.251885 C120.872306,239.023372 120.688278,237.493947 120.494302,235.692625 C120.395656,234.79155 120.288721,233.824158 120.175154,232.792107 C120.109666,231.755912 120.039205,230.655058 119.966257,229.491203 C119.380185,220.221814 119.940559,206.664235 124.668097,191.346781 C127.012385,183.702975 130.528818,175.722613 135.195841,167.840897 C137.574946,163.929881 140.185329,160.001457 143.203559,156.254575 C146.156301,152.457955 149.4771,148.819666 153.073112,145.352142 C160.247729,138.39637 168.679872,132.257949 177.969985,127.378712 C182.605508,124.914225 187.502153,122.883282 192.493299,121.081131 C197.508484,119.329547 202.679513,118.002388 207.90028,116.931376 C213.146744,115.993827 218.442117,115.312425 223.749095,115.082804 C229.051928,114.908723 234.353103,114.983329 239.572212,115.556138 C250.007943,116.649531 260.113749,119.230072 269.354124,123.034981 C273.977213,124.925002 278.409642,127.075314 282.55774,129.50913 C286.748942,131.872484 290.628458,134.555816 294.286642,137.307121 C301.53918,142.901747 307.760497,149.013642 312.769051,155.245735 C322.830093,167.725672 328.370008,180.111107 331.257262,188.939492 C331.619516,190.047806 331.962704,191.096436 332.285997,192.083723 C332.56204,193.085102 332.820674,194.021823 333.0619,194.895542 C333.549327,196.640495 333.944739,198.13013 334.183478,199.356985 C334.715668,201.797432 335,203.099723 335,203.099723 L323.358138,205.33376 Z" id="Fill-51-Copy" fill="#5C56B6"></path>
                <path d="M313.8965,296.2256 C316.3645,297.4946 319.4045,296.5186 320.6725,294.0506 L337.7855,260.7756 L336.7905,260.2636 L319.6785,293.5386 C318.6915,295.4586 316.3275,296.2176 314.4075,295.2306 C312.4885,294.2436 311.7295,291.8786 312.7165,289.9586 L311.7215,289.4486 C310.4535,291.9156 311.4275,294.9556 313.8965,296.2256" id="Fill-53" fill="#B0E1E8"></path>
                <path d="M334.1377,267.1006 L324.8287,285.2036 C324.5097,285.2716 324.1897,285.3356 323.8667,285.3936 L333.6167,266.4366 C333.6187,266.4356 333.6217,266.4356 333.6247,266.4346 C334.0077,266.3466 334.3177,266.7506 334.1377,267.1006" id="Fill-55" fill="#E4E4E4"></path>
                <path d="M342.8535,248.7393 L343.6305,249.1383 C343.8635,249.2583 344.1475,249.1573 344.2535,248.9193 L347.3115,242.0173 C347.4095,241.7983 347.3175,241.5403 347.1035,241.4293 C346.8905,241.3193 346.6275,241.3953 346.5055,241.6023 L342.6705,248.1053 C342.5385,248.3303 342.6225,248.6203 342.8535,248.7393" id="Fill-57" fill="#E4E4E4"></path>
                <path d="M346.7021,243.3916 L344.2541,248.9186 C344.1471,249.1576 343.8631,249.2576 343.6311,249.1386 L342.8531,248.7396 C342.6221,248.6206 342.5381,248.3296 342.6711,248.1056 L345.3041,243.6396 C345.7881,243.6316 346.2621,243.5516 346.7021,243.3916" id="Fill-59" fill="#B0E1E8"></path>
                <path d="M344.1445,245.1895 L345.7675,246.0245 C346.0335,246.1615 346.3595,246.0565 346.4965,245.7905 L346.6495,245.4945 C346.7865,245.2275 346.6805,244.9015 346.4155,244.7645 L344.7915,243.9305 C344.5265,243.7935 344.2005,243.8985 344.0635,244.1645 L343.9105,244.4605 C343.7735,244.7265 343.8785,245.0525 344.1445,245.1895" id="Fill-61" fill="#E4E4E4"></path>
                <path d="M345.2803,244.9775 C365.5633,255.4085 365.384327,282.6575 365.384327,282.6575 C365.384327,282.6575 365.1713,280.2695 360.8823,282.1655 C360.8823,282.1655 356.1913,272.2335 345.2483,277.5425 C345.2483,277.5425 344.4243,270.7395 334.6243,265.7005 C324.8233,260.6605 318.8103,263.9475 318.8103,263.9475 C316.7623,251.9575 305.9563,253.9195 305.9563,253.9195 C305.0033,249.3285 302.9363,250.5435 302.9363,250.5435 C302.9363,250.5435 324.9953,234.5465 345.2803,244.9775" id="Fill-63" fill="#F6DB65"></path>
                <path d="M305.9561,253.9199 C305.9561,253.9199 316.7631,251.9579 318.8101,263.9469 C318.8101,263.9469 324.8231,260.6599 334.6241,265.6999 L345.2801,244.9779 C325.5651,234.8399 305.9561,253.9199 305.9561,253.9199" id="Fill-65" fill="#01B6F5"></path>
                <path d="M360.8818,282.165 C360.8818,282.165 356.1918,272.233 345.2478,277.543 C345.2478,277.543 344.4238,270.739 334.6238,265.7 L345.2798,244.977 C364.9938,255.115 360.8818,282.165 360.8818,282.165" id="Fill-67" fill="#01B6F5"></path>
                <path d="M345.2803,244.9775 C354.7383,249.8405 345.2483,277.5425 345.2483,277.5425 C345.2483,277.5425 344.4243,270.7395 334.6243,265.7005 C324.8233,260.6605 318.8103,263.9475 318.8103,263.9475 C318.8103,263.9475 335.8213,240.1135 345.2803,244.9775" id="Fill-69" fill="#F6DB65"></path>
                <path d="M312.8477,288.7783 C313.3157,289.0923 313.4607,289.7273 313.2057,290.2303 C312.3787,291.8583 313.0117,293.8553 314.6217,294.7123 C316.2867,295.5963 318.3617,294.8783 319.2247,293.2003 L323.0177,285.8243 C323.1297,285.6043 323.4007,285.5173 323.6197,285.6313 L324.8137,286.2453 C325.0337,286.3573 325.1187,286.6283 325.0067,286.8473 L321.2287,294.1933 C319.7977,296.9753 316.3127,298.1553 313.5557,296.6773 C310.8757,295.2423 309.8287,291.9063 311.2247,289.1923 C311.5277,288.6023 312.2817,288.3973 312.8477,288.7783" id="Fill-71" fill="#F6DB65"></path>
                <path d="M384.3125,72.8311 C381.5225,74.2661 378.0855,73.1631 376.6515,70.3731 L357.3085,32.7591 L358.4325,32.1811 L377.7755,69.7951 C378.8915,71.9651 381.5645,72.8231 383.7345,71.7071 C385.9035,70.5911 386.7605,67.9181 385.6455,65.7481 L386.7695,65.1701 C388.2045,67.9601 387.1015,71.3961 384.3125,72.8311" id="Fill-73" fill="#B0E1E8"></path>
                <path d="M361.4316,39.9087 L371.9536,60.3717 C372.3146,60.4487 372.6766,60.5217 373.0406,60.5877 L362.0216,39.1587 C362.0176,39.1577 362.0136,39.1577 362.0096,39.1567 C361.5776,39.0567 361.2286,39.5137 361.4316,39.9087" id="Fill-75" fill="#E4E4E4"></path>
                <path d="M351.5781,19.1533 L350.7001,19.6053 C350.4371,19.7403 350.1151,19.6263 349.9961,19.3573 L346.5401,11.5553 C346.4301,11.3063 346.5321,11.0153 346.7741,10.8913 C347.0161,10.7663 347.3121,10.8523 347.4501,11.0863 L351.7851,18.4363 C351.9351,18.6913 351.8411,19.0183 351.5781,19.1533" id="Fill-77" fill="#E4E4E4"></path>
                <path d="M347.2275,13.1084 L349.9965,19.3574 C350.1155,19.6264 350.4375,19.7404 350.7005,19.6054 L351.5785,19.1534 C351.8405,19.0184 351.9355,18.6914 351.7855,18.4364 L348.8085,13.3884 C348.2615,13.3794 347.7265,13.2894 347.2275,13.1084" id="Fill-79" fill="#B0E1E8"></path>
                <path d="M350.0322,15.186 L348.3722,16.04 C348.0232,16.219 347.5952,16.082 347.4162,15.733 L347.3332,15.572 C347.1542,15.223 347.2912,14.795 347.6392,14.616 L349.3012,13.762 C349.6492,13.583 350.0772,13.72 350.2562,14.069 L350.3392,14.23 C350.5182,14.579 350.3812,15.007 350.0322,15.186" id="Fill-81" fill="#E4E4E4"></path>
                <path d="M348.8359,14.9009 C325.9069,26.6919 326.109869,57.4939 326.109869,57.4939 C326.109869,57.4939 326.3509,54.7949 331.1989,56.9379 C331.1989,56.9379 336.5019,45.7119 348.8719,51.7129 C348.8719,51.7129 349.8039,44.0229 360.8819,38.3259 C371.9599,32.6289 378.7569,36.3449 378.7569,36.3449 C381.0719,22.7919 393.2879,25.0089 393.2879,25.0089 C394.3649,19.8189 396.7009,21.1939 396.7009,21.1939 C396.7009,21.1939 371.7659,3.1099 348.8359,14.9009" id="Fill-83" fill="#FDC954"></path>
                <path d="M348.8359,14.9009 C371.7659,3.1099 396.7009,21.1939 396.7009,21.1939 C396.7009,21.1939 394.3649,19.8189 393.2879,25.0089 C393.2879,25.0089 381.0719,22.7919 378.7569,36.3449 C378.7569,36.3449 371.9599,32.6289 360.8819,38.3259 C349.8039,44.0229 348.8719,51.7129 348.8719,51.7129 C336.5019,45.7119 331.1989,56.9379 331.1989,56.9379 C326.3509,54.7949 326.109839,57.4939 326.109839,57.4939 C326.109839,57.4939 325.9069,26.6919 348.8359,14.9009" id="Fill-85" fill="#8DD46F"></path>
                <path d="M393.2881,25.0093 C393.2881,25.0093 381.0721,22.7923 378.7571,36.3453 C378.7571,36.3453 371.9601,32.6293 360.8821,38.3253 L348.8361,14.9013 C371.1211,3.4413 393.2881,25.0093 393.2881,25.0093" id="Fill-87" fill="#01B6F5"></path>
                <path d="M331.1992,56.9375 C331.1992,56.9375 336.5022,45.7115 348.8722,51.7125 C348.8722,51.7125 349.8032,44.0225 360.8822,38.3255 L348.8362,14.9005 C326.5512,26.3605 331.1992,56.9375 331.1992,56.9375" id="Fill-89" fill="#01B6F5"></path>
                <path d="M348.8359,14.9009 C338.1449,20.3989 348.8719,51.7129 348.8719,51.7129 C348.8719,51.7129 349.8039,44.0229 360.8819,38.3259 C371.9599,32.6289 378.7569,36.3449 378.7569,36.3449 C378.7569,36.3449 359.5279,9.4029 348.8359,14.9009" id="Fill-91" fill="#8DD46F"></path>
                <path d="M385.4971,64.4131 C384.9691,64.7681 384.8041,65.4871 385.0921,66.0541 C386.0271,67.8951 385.3111,70.1531 383.4911,71.1211 C381.6081,72.1211 379.2651,71.3091 378.2891,69.4131 L374.0021,61.0741 C373.8741,60.8261 373.5691,60.7281 373.3201,60.8561 L371.9721,61.5501 C371.7231,61.6771 371.6251,61.9821 371.7531,62.2301 L376.0231,70.5351 C377.6411,73.6801 381.5801,75.0131 384.6971,73.3431 C387.7261,71.7201 388.9091,67.9491 387.3321,64.8811 C386.9891,64.2151 386.1381,63.9821 385.4971,64.4131" id="Fill-93" fill="#9FC948"></path>
                <path d="M395.0508,41.0698 C395.0508,41.0698 388.8178,51.1808 395.0508,51.1808 C401.2838,51.1808 395.0508,41.0698 395.0508,41.0698" id="Fill-95" fill="#B0E1E8"></path>
                <path d="M392.2803,114.5615 C392.2803,114.5615 386.0473,124.6715 392.2803,124.6715 C398.5133,124.6715 392.2803,114.5615 392.2803,114.5615" id="Fill-97" fill="#B0E1E8"></path>
                <path d="M399.1543,126.252 C399.1543,126.252 395.4933,132.19 399.1543,132.19 C402.8153,132.19 399.1543,126.252 399.1543,126.252" id="Fill-99" fill="#B0E1E8"></path>
                <path d="M141.7412,9.458 C141.7412,9.458 134.8132,20.696 141.7412,20.696 C148.6692,20.696 141.7412,9.458 141.7412,9.458" id="Fill-101" fill="#B0E1E8"></path>
                <path d="M46.4204,39.9331 C46.4204,39.9331 39.4504,51.2391 46.4204,51.2391 C53.3904,51.2391 46.4204,39.9331 46.4204,39.9331" id="Fill-103" fill="#B0E1E8"></path>
                <path d="M313.1104,12.8428 C313.1104,12.8428 305.0354,25.9418 313.1104,25.9418 C321.1854,25.9418 313.1104,12.8428 313.1104,12.8428" id="Fill-105" fill="#B0E1E8"></path>
                <path d="M151.6304,23.2188 C151.6304,23.2188 146.4704,31.5888 151.6304,31.5888 C156.7904,31.5888 151.6304,23.2188 151.6304,23.2188" id="Fill-107" fill="#B0E1E8"></path>
                <path d="M87.2061,59.1118 C87.2061,59.1118 79.1311,72.2108 87.2061,72.2108 C95.2811,72.2108 87.2061,59.1118 87.2061,59.1118" id="Fill-109" fill="#B0E1E8"></path>
                <path d="M23.2734,113.0674 C23.2734,113.0674 15.1984,126.1664 23.2734,126.1664 C31.3484,126.1664 23.2734,113.0674 23.2734,113.0674" id="Fill-111" fill="#B0E1E8"></path>
                <path d="M81.6055,284.1611 C81.6055,284.1611 74.7055,295.3531 81.6055,295.3531 C88.5045,295.3531 81.6055,284.1611 81.6055,284.1611" id="Fill-113" fill="#B0E1E8"></path>
                <path d="M330.7969,216.4648 C330.7969,216.4648 322.3669,230.1378 330.7969,230.1378 C339.2259,230.1378 330.7969,216.4648 330.7969,216.4648" id="Fill-115" fill="#B0E1E8"></path>
                <path d="M124.9204,274.2793 C124.9204,274.2793 116.8454,287.3773 124.9204,287.3773 C132.9954,287.3773 124.9204,274.2793 124.9204,274.2793" id="Fill-117" fill="#B0E1E8"></path>
                <path d="M366.1631,228.5674 C366.1631,228.5674 358.0881,241.6664 366.1631,241.6664 C374.2381,241.6664 366.1631,228.5674 366.1631,228.5674" id="Fill-119" fill="#B0E1E8"></path>
                <path d="M378.4941,238.4951 C378.4941,238.4951 370.4191,251.5941 378.4941,251.5941 C386.5691,251.5941 378.4941,238.4951 378.4941,238.4951" id="Fill-121" fill="#B0E1E8"></path>
                <path d="M430.0527,228.6846 C430.0527,228.6846 421.9777,241.7826 430.0527,241.7826 C438.1277,241.7826 430.0527,228.6846 430.0527,228.6846" id="Fill-123" fill="#B0E1E8"></path>
                <path d="M89.771,295.3535 C89.771,295.3535 84.632,303.6895 89.771,303.6895 C94.91,303.6895 89.771,295.3535 89.771,295.3535" id="Fill-125" fill="#B0E1E8"></path>
                <path d="M48.272,293.792 C48.272,293.792 40.197,306.891 48.272,306.891 C56.347,306.891 48.272,293.792 48.272,293.792" id="Fill-127" fill="#B0E1E8"></path>
                <path d="M13.5273,155.9443 C20.7183,154.7893 20.6513,161.6203 20.6513,161.6203 C27.8413,160.4653 27.7743,167.2963 27.7743,167.2963 C34.9653,166.1403 34.8973,172.9713 34.8973,172.9713 L76.6853,100.2263 L75.1013,98.9653 L13.5273,155.9443 Z" id="Fill-129" fill="#FCED42"></path>
                <path d="M4.3398,179.1152 C7.4478,181.5922 11.9918,181.0782 14.4678,177.9692 L47.8618,136.0582 L46.6098,135.0602 L13.2158,176.9712 C11.2898,179.3882 7.7558,179.7892 5.3378,177.8622 C2.9208,175.9362 2.5208,172.4022 4.4468,169.9842 L3.1938,168.9862 C0.7178,172.0942 1.2318,176.6382 4.3398,179.1152" id="Fill-131" fill="#B0E1E8"></path>
                <path d="M25.1567,163.749 L22.7937,166.714 C22.3267,166.721 21.8587,166.721 21.3897,166.712 L23.8617,163.61 C24.2927,163.666 24.7247,163.713 25.1567,163.749" id="Fill-133" fill="#E4E4E4"></path>
                <path d="M4.9634,168.3633 C5.5314,168.9353 5.5574,169.8693 5.0584,170.5033 C3.4384,172.5563 3.7654,175.5393 5.7854,177.1943 C7.8754,178.9063 10.9894,178.4803 12.6724,176.3683 L20.0754,167.0773 C20.2964,166.8013 20.6994,166.7553 20.9754,166.9753 L22.4794,168.1733 C22.7554,168.3933 22.8014,168.7973 22.5804,169.0733 L15.2084,178.3263 C12.4164,181.8303 7.1904,182.5063 3.7344,179.6553 C0.3754,176.8843 -0.1556,171.9053 2.5674,168.4873 C3.1594,167.7453 4.2754,167.6683 4.9634,168.3633" id="Fill-135" fill="#FCDB1B"></path>
                <path d="M27.7744,167.2959 C27.7744,167.2959 27.8414,160.4659 20.6504,161.6199 L75.8934,99.5949 L27.7744,167.2959 Z" id="Fill-137" fill="#FCDB1B"></path>
                <path d="M75.0625,98.6294 L79.2465,93.9614 C79.5615,93.6094 80.0955,93.5654 80.4645,93.8584 C80.8335,94.1524 80.9085,94.6834 80.6365,95.0684 L77.0205,100.1894 L75.0625,98.6294 Z" id="Fill-139" fill="#E4E4E4"></path>
                <path d="M75.0625,98.6294 L76.1495,97.4164 C77.0835,97.5874 78.0255,97.6154 78.9355,97.4774 L77.0205,100.1894 L75.0625,98.6294 Z" id="Fill-141" fill="#B0E1E8"></path>
                <path d="M75.3086,97.9814 L77.5976,99.8044 C78.1976,100.2824 78.2966,101.1574 77.8176,101.7574 L73.3556,98.2024 C73.8346,97.6024 74.7086,97.5024 75.3086,97.9814" id="Fill-143" fill="#E4E4E4"></path>
                <path d="M123.1729,261.2793 C130.1229,265.8403 140.4169,264.2423 145.6569,257.7903 C150.8979,251.3383 150.3519,240.9353 144.4649,235.0673 C138.5769,229.2003 127.8679,226.9163 121.4339,232.1783 C118.2679,227.2363 112.3589,224.1853 106.4959,224.4643 C100.6329,224.7433 94.3479,228.2123 91.6639,233.4323 C90.7049,228.4313 87.5609,224.0503 83.1599,221.4883 C78.1629,218.5783 69.1989,220.2083 65.4879,223.6943 C64.7759,214.2943 54.0339,208.0673 44.6959,209.3623 C35.3589,210.6583 28.1459,221.0453 30.0209,230.2843 C22.1599,225.0643 10.0829,228.1223 5.6519,236.4523 C1.2209,244.7823 5.4369,256.5063 14.1579,260.1063 C11.9689,269.0343 13.5259,279.0543 21.1469,284.1933 C32.8139,292.0583 49.0619,287.4503 53.9519,274.9173 C56.7389,279.7023 62.9409,282.2503 68.4779,282.1723 C74.0149,282.0923 79.3969,278.8443 82.0479,273.9833 C87.3219,280.2473 99.2609,283.0853 107.9909,279.4483 C115.5499,276.2983 122.0099,269.3853 123.1729,261.2793" id="Fill-145" fill="#FFFFFF"></path>
                <polygon id="Fill-147" fill="#FFFFFF" points="147.5518 190.1025 144.7228 187.2745 147.5518 184.4465 150.3798 187.2745"></polygon>
                <polygon id="Fill-149" fill="#FFFFFF" points="296.4482 190.1025 293.6202 187.2745 296.4482 184.4465 299.2762 187.2745"></polygon>
                <path d="M333.2227,204.9854 C327.4787,209.8234 318.0737,209.4984 312.6777,204.2744 C307.2827,199.0504 306.6527,189.6604 311.3027,183.7624 C315.9517,177.8664 325.3127,174.6644 331.6507,178.6934 C333.9597,173.9194 338.9317,170.5464 344.2207,170.1654 C349.5097,169.7854 355.5217,172.2204 358.4907,176.6154 C358.8127,172.0254 361.1617,167.7564 364.8337,164.9844 C369.0037,161.8374 377.2197,162.3344 380.9237,165.0614 C380.5507,156.5524 389.5167,149.8114 398.0327,149.9684 C406.5487,150.1264 414.1357,158.6674 413.4487,167.1574 C419.9387,161.6294 431.1007,163.0714 435.9727,170.0674 C440.8437,177.0634 438.3237,188.0334 430.8867,192.2014 C433.8117,199.9744 433.4937,209.1314 427.2097,214.5604 C417.5907,222.8714 402.5197,220.4864 396.7847,209.7694 C394.7987,214.3614 389.5097,217.3154 384.5347,217.8404 C379.5597,218.3664 374.3817,216.0314 371.4807,211.9554 C367.4227,218.1414 357.0197,221.9724 348.7957,219.6494 C341.6767,217.6374 335.1377,212.1314 333.2227,204.9854" id="Fill-151" fill="#FFFFFF"></path>
            </g>
        </g>
    </g>
</svg>