<?xml version="1.0" encoding="UTF-8"?>
<svg width="240px" height="160px" viewBox="0 0 240 160" version="1.1" xmlns="http://www.w3.org/2000/svg" xmlns:xlink="http://www.w3.org/1999/xlink">
    <!-- Generator: Sketch 51.3 (57544) - http://www.bohemiancoding.com/sketch -->
    <title>Illustration-rainbow-7</title>
    <desc>Created with Sketch.</desc>
    <defs>
        <polygon id="path-1" points="0.0105459387 0 27.626269 0 27.626269 29.8034331 0.0105459387 29.8034331"></polygon>
        <polygon id="path-3" points="0.0105459387 0 54.9909667 0 54.9909667 57.4875848 0.0105459387 57.4875848"></polygon>
        <polygon id="path-5" points="0.0105459387 0 54.9914141 0 54.9914141 57.4888623 0.0105459387 57.4888623"></polygon>
        <polygon id="path-7" points="0.24 0 13.4326498 0 13.4326498 2.99401198 0.24 2.99401198"></polygon>
        <polygon id="path-9" points="0.0105459387 0 89.2972889 0 89.2972889 92.5981637 0.0105459387 92.5981637"></polygon>
        <polygon id="path-11" points="0.0105459387 0 239.690972 0 239.690972 159.680639 0.0105459387 159.680639"></polygon>
        <polygon id="path-13" points="0.0105459387 0 239.690972 0 239.690972 159.680639 0.0105459387 159.680639"></polygon>
        <polygon id="path-15" points="0.0105459387 0 239.690972 0 239.690972 159.680639 0.0105459387 159.680639"></polygon>
        <polygon id="path-17" points="0.0557336884 0.0226746507 228.825459 0.0226746507 228.825459 147.864271 0.0557336884 147.864271"></polygon>
        <polygon id="path-19" points="0.0720639148 0.0386427146 228.825459 0.0386427146 228.825459 147.864271 0.0720639148 147.864271"></polygon>
        <polygon id="path-21" points="0.20644474 0.173093812 213.166338 0.173093812 213.166338 132.215569 0.20644474 132.215569"></polygon>
        <polygon id="path-23" points="0.0112170439 0.297325349 197.187643 0.297325349 197.187643 116.566866 0.0112170439 116.566866"></polygon>
        <polygon id="path-25" points="0.027195739 0.312974052 197.187643 0.312974052 197.187643 116.566866 0.027195739 116.566866"></polygon>
        <polygon id="path-27" points="0.161544607 0.128063872 181.528522 0.128063872 181.528522 100.598802 0.161544607 100.598802"></polygon>
        <polygon id="path-29" points="0.279946738 0.246546906 165.869401 0.246546906 165.869401 84.9500998 0.279946738 84.9500998"></polygon>
        <polygon id="path-31" points="0.295989348 0.26251497 165.869401 0.26251497 165.869401 84.9500998 0.295989348 84.9500998"></polygon>
        <polygon id="path-33" points="0.116836218 0.0833532934 136.083707 0.0833532934 136.083707 68.9820359 0.116836218 68.9820359"></polygon>
        <polygon id="path-35" points="0.235046605 0.201516966 104.64719 0.201516966 104.64719 53.3333333 0.235046605 53.3333333"></polygon>
        <polygon id="path-37" points="0.250833555 0.217804391 104.63134 0.217804391 104.63134 53.3333333 0.250833555 53.3333333"></polygon>
        <polygon id="path-39" points="0.0659600533 0.0325748503 72.8530706 0.0325748503 72.8530706 37.3652695 0.0659600533 37.3652695"></polygon>
        <polygon id="path-41" points="0.200500666 0.172774451 41.4006072 0.172774451 41.4006072 21.7165669 0.200500666 21.7165669"></polygon>
        <polygon id="path-43" points="0.0105459387 0 19.4844847 0 19.4844847 21.5840319 0.0105459387 21.5840319"></polygon>
        <polygon id="path-45" points="0.0105459387 0 45.6067111 0 45.6067111 47.9680639 0.0105459387 47.9680639"></polygon>
        <polygon id="path-47" points="0.0105459387 0 45.578237 0 45.578237 47.939002 0.0105459387 47.939002"></polygon>
        <polygon id="path-49" points="0.0105459387 0 76.867494 0 76.867494 79.7933733 0.0105459387 79.7933733"></polygon>
        <polygon id="path-51" points="0.0105459387 0 126.209832 0 126.209832 132.799361 0.0105459387 132.799361"></polygon>
        <polygon id="path-53" points="0.0782956059 0 50.1836485 0 50.1836485 15.3302675 0.0782956059 15.3302675"></polygon>
        <polygon id="path-55" points="0.161704394 0 50.1836485 0 50.1836485 15.3112655 0.161704394 15.3112655"></polygon>
        <polygon id="path-57" points="0.0105459387 0 126.126487 0 126.126487 132.696208 0.0105459387 132.696208"></polygon>
        <polygon id="path-59" points="0.279051931 0.245588822 239.690972 0.245588822 239.690972 158.722555 0.279051931 158.722555"></polygon>
        <polygon id="path-61" points="0.0778482024 0.0447105788 223.712277 0.0447105788 223.712277 142.754491 0.0778482024 142.754491"></polygon>
        <polygon id="path-63" points="0.0938908123 0.0603592814 223.712277 0.0603592814 223.712277 142.754491 0.0938908123 142.754491"></polygon>
        <polygon id="path-65" points="0.227984021 0.194810379 208.053156 0.194810379 208.053156 127.105788 0.227984021 127.105788"></polygon>
        <polygon id="path-67" points="0.0327563249 0.319041916 192.074461 0.319041916 192.074461 111.457086 0.0327563249 111.457086"></polygon>
        <polygon id="path-69" points="0.0491185087 0.0156487026 192.074461 0.0156487026 192.074461 111.137725 0.0491185087 111.137725"></polygon>
        <polygon id="path-71" points="0.183339547 0.1500998 176.41534 0.1500998 176.41534 95.489022 0.183339547 95.489022"></polygon>
        <polygon id="path-73" points="0.301869507 0.268582834 157.623947 0.268582834 157.623947 79.8403194 0.301869507 79.8403194"></polygon>
        <polygon id="path-75" points="0.317912117 0.284231537 157.608032 0.284231537 157.608032 79.8403194 0.317912117 79.8403194"></polygon>
        <polygon id="path-77" points="0.138503329 0.10506986 125.835547 0.10506986 125.835547 63.8722555 0.138503329 63.8722555"></polygon>
        <polygon id="path-79" points="0.256809587 0.223233533 94.3991265 0.223233533 94.3991265 48.2235529 0.256809587 48.2235529"></polygon>
        <polygon id="path-81" points="0.272852197 0.239520958 94.3832117 0.239520958 94.3832117 48.2235529 0.272852197 48.2235529"></polygon>
        <polygon id="path-83" points="0.0874673768 0.0542914172 62.6053901 0.0542914172 62.6053901 32.255489 0.0874673768 32.255489"></polygon>
        <polygon id="path-85" points="0.222103862 0.194491018 31.1520639 0.194491018 31.1520639 16.6067864 0.222103862 16.6067864"></polygon>
        <polygon id="path-87" points="0.0105459387 0 239.690972 0 239.690972 159.680639 0.0105459387 159.680639"></polygon>
    </defs>
    <g id="components" stroke="none" stroke-width="1" fill="none" fill-rule="evenodd">
        <g id="Illustration-rainbow-7">
            <g id="Group-3">
                <g id="Fill-1-Clipped">
                    <mask id="mask-2" fill="white">
                        <use xlink:href="#path-1"></use>
                    </mask>
                    <g id="path-1"></g>
                    <path d="M3.44570972,-6.06786427 C-0.502306258,-2.37093812 -4.31514248,1.46842315 -7.98928362,5.43744511 L-7.98928362,29.8034331 C2.40230093,16.4688224 14.3645912,4.41676647 27.626269,-6.06786427 L3.44570972,-6.06786427 Z" id="Fill-1" fill="#498D3B" fill-rule="nonzero" mask="url(#mask-2)"></path>
                </g>
            </g>
            <g id="Group-6">
                <g id="Fill-4-Clipped">
                    <mask id="mask-4" fill="white">
                        <use xlink:href="#path-3"></use>
                    </mask>
                    <g id="path-3"></g>
                    <path d="M27.5785566,-6.06786427 C21.2075313,-1.02259481 15.1059068,4.40686627 9.29381625,10.2154092 C3.10015446,16.4052695 -2.664,22.9234331 -7.98937949,29.7459481 L-7.98937949,57.4875848 C-0.00674300932,44.4391218 9.51304394,32.3637525 20.4846551,21.3988024 C31.0059867,10.8844711 42.5480373,1.70315369 54.9909667,-6.06786427 L27.5785566,-6.06786427 Z" id="Fill-4" fill="#5BB24A" fill-rule="nonzero" mask="url(#mask-4)"></path>
                </g>
            </g>
            <g id="Group-9">
                <g id="Fill-7-Clipped">
                    <mask id="mask-6" fill="white">
                        <use xlink:href="#path-5"></use>
                    </mask>
                    <g id="path-5"></g>
                    <path d="M27.6263009,-6.06786427 C14.3646232,4.41676647 2.40233289,16.4688224 -7.98925166,29.8034331 L-7.98925166,57.4888623 C7.7814008,31.7342914 29.3861944,9.93500998 54.9914141,-6.06786427 L27.6263009,-6.06786427 Z" id="Fill-7" fill="#5BB24A" fill-rule="nonzero" mask="url(#mask-6)"></path>
                </g>
            </g>
            <g id="Group-12" transform="translate(226.258322, 0.000000)">
                <g id="Fill-10-Clipped">
                    <mask id="mask-8" fill="white">
                        <use xlink:href="#path-7"></use>
                    </mask>
                    <g id="path-7"></g>
                    <path d="M18.8548602,-6.06786427 L0.24,-6.06786427 C6.64330226,-3.40247505 12.8545406,-0.369500998 18.8548602,2.99401198 L18.8548602,-6.06786427 Z" id="Fill-10" fill="#00AAA9" fill-rule="nonzero" mask="url(#mask-8)"></path>
                </g>
            </g>
            <g id="Group-15">
                <g id="Fill-13-Clipped">
                    <mask id="mask-10" fill="white">
                        <use xlink:href="#path-9"></use>
                    </mask>
                    <g id="path-9"></g>
                    <path d="M54.9913502,-6.06786427 C29.3861305,9.93500998 7.78133688,31.7342914 -7.98931558,57.4888623 L-7.98931558,92.5981637 C9.80711585,48.0517365 45.0471691,12.3512974 89.2972889,-6.06786427 L54.9913502,-6.06786427 Z" id="Fill-13" fill="#00AAA9" fill-rule="nonzero" mask="url(#mask-10)"></path>
                </g>
            </g>
            <g id="Group-18">
                <g id="Fill-16-Clipped">
                    <mask id="mask-12" fill="white">
                        <use xlink:href="#path-11"></use>
                    </mask>
                    <g id="path-11"></g>
                    <path d="M227.404921,-5.70858283 C227.117305,-5.83025948 226.828091,-5.94778443 226.539835,-6.06786427 L89.2553609,-6.06786427 C88.9671052,-5.94778443 88.6778908,-5.83025948 88.3902743,-5.70858283 C67.126466,3.27984032 48.0296884,16.1475449 31.6304341,32.5368463 C15.2308602,48.9261477 2.3552277,68.0111776 -6.63854061,89.261477 C-7.10128362,90.3546507 -7.54932623,91.451976 -7.98937949,92.5521756 L-7.98937949,165.748503 L-4.68945939,165.748503 C-4.78756858,163.414611 -4.8399787,161.073054 -4.8399787,158.723513 C-4.8399787,136.766786 -0.53755526,115.466986 7.94841012,95.4162076 C16.1448415,76.049501 27.8783169,58.6567665 42.8238296,43.7208782 C57.7693422,28.7853094 75.1733369,17.059002 94.5516591,8.86802395 C114.614828,0.388023952 135.927531,-3.91217565 157.897917,-3.91217565 C179.867984,-3.91217565 201.180687,0.388023952 221.244495,8.86802395 C229.579302,12.3908982 237.547238,16.5694212 245.11315,21.3742116 L245.11315,2.95377246 C239.395654,-0.245269461 233.489289,-3.13644711 227.404921,-5.70858283" id="Fill-16" fill="#0183C1" fill-rule="nonzero" mask="url(#mask-12)"></path>
                </g>
            </g>
            <g id="Group-21">
                <g id="Fill-19-Clipped">
                    <mask id="mask-14" fill="white">
                        <use xlink:href="#path-13"></use>
                    </mask>
                    <g id="path-13"></g>
                    <path d="M226.498322,-6.06786427 L89.297257,-6.06786427 C45.0471372,12.3512974 9.80740346,48.0517365 -7.98934754,92.5981637 L-7.98934754,165.748503 L-4.70380826,165.748503 C-4.80287617,163.418762 -4.85592543,161.077206 -4.85592543,158.723194 C-4.85592543,68.8887824 68.0091611,-3.92782435 157.89763,-3.92782435 C189.985406,-3.92782435 219.903276,5.35313373 245.113182,21.3729341 L245.113182,2.99401198 C239.112863,-0.369500998 232.901625,-3.40247505 226.498322,-6.06786427" id="Fill-19" fill="#0183C1" fill-rule="nonzero" mask="url(#mask-14)"></path>
                </g>
            </g>
            <g id="Group-24">
                <g id="Fill-22-Clipped">
                    <mask id="mask-16" fill="white">
                        <use xlink:href="#path-15"></use>
                    </mask>
                    <g id="path-15"></g>
                    <path d="M11.1051931,165.748503 C10.9952597,163.420359 10.9377364,161.078483 10.9377364,158.723194 C10.9377364,77.6063872 76.7325699,11.85501 157.89763,11.85501 C190.551691,11.85501 220.716911,22.4996407 245.113182,40.5033134 L245.113182,21.3729341 C219.903276,5.35313373 189.985406,-3.92782435 157.89763,-3.92782435 C68.0091611,-3.92782435 -4.85592543,68.8887824 -4.85592543,158.723194 C-4.85592543,161.077206 -4.80287617,163.418762 -4.70380826,165.748503 L11.1051931,165.748503 Z" id="Fill-22" fill="#004997" fill-rule="nonzero" mask="url(#mask-16)"></path>
                </g>
            </g>
            <g id="Group-27" transform="translate(10.865513, 11.816367)">
                <g id="Fill-25-Clipped">
                    <mask id="mask-18" fill="white">
                        <use xlink:href="#path-17"></use>
                    </mask>
                    <g id="path-17"></g>
                    <path d="M16.0670253,153.932136 C15.9446285,151.600479 15.8816724,149.258603 15.8816724,146.907146 C15.8816724,129.212615 19.3493688,112.047265 26.1879308,95.8879042 C32.7938429,80.2800798 42.2500346,66.262994 54.294775,54.2259481 C66.3395153,42.1889022 80.3649747,32.7386826 95.9825513,26.137485 C112.151393,19.3028343 129.326892,15.8377645 147.032245,15.8377645 C164.737598,15.8377645 181.913097,19.3028343 198.081939,26.137485 C211.371419,31.7547305 223.503084,39.4423952 234.247798,49.0241916 L234.247798,28.651497 C224.979196,21.8079042 214.945534,16.0884631 204.243324,11.5650299 C186.122844,3.90610778 166.874269,0.0226746507 147.032245,0.0226746507 C127.190221,0.0226746507 107.941965,3.90610778 89.8221252,11.5650299 C72.3197017,18.9627146 56.601779,29.5533733 43.1042557,43.0425549 C29.6057736,56.5320559 19.0083835,72.240479 11.6057736,89.7315768 C3.9420719,107.840319 0.0557336884,127.077046 0.0557336884,146.907146 C0.0557336884,149.257325 0.112298269,151.599202 0.221592543,153.932136 L16.0670253,153.932136 Z" id="Fill-25" fill="#5E328A" fill-rule="nonzero" mask="url(#mask-18)"></path>
                </g>
            </g>
            <g id="Group-30" transform="translate(10.865513, 11.816367)">
                <g id="Fill-28-Clipped">
                    <mask id="mask-20" fill="white">
                        <use xlink:href="#path-19"></use>
                    </mask>
                    <g id="path-19"></g>
                    <path d="M16.0520373,153.932136 C15.9290013,151.605908 15.8654061,149.264032 15.8654061,146.906826 C15.8654061,74.5082635 74.5909454,15.8217964 147.031957,15.8217964 C180.516272,15.8217964 211.069134,28.3611976 234.24783,48.9967265 L234.24783,28.6869461 C209.851558,10.6832735 179.686019,0.0386427146 147.031957,0.0386427146 C65.867217,0.0386427146 0.0720639148,65.79002 0.0720639148,146.906826 C0.0720639148,149.262116 0.129906791,151.603992 0.239840213,153.932136 L16.0520373,153.932136 Z" id="Fill-28" fill="#5E328A" fill-rule="nonzero" mask="url(#mask-20)"></path>
                </g>
            </g>
            <g id="Group-33" transform="translate(26.524634, 27.465070)">
                <g id="Fill-31-Clipped">
                    <mask id="mask-22" fill="white">
                        <use xlink:href="#path-21"></use>
                    </mask>
                    <g id="path-21"></g>
                    <path d="M16.2183755,138.283433 C16.0787217,135.959441 16.0058589,133.617565 16.0058589,131.258124 C16.0058589,67.577485 67.6557124,15.9616766 131.372996,15.9616766 C166.205912,15.9616766 197.434035,31.3877844 218.588549,55.7770858 L218.588549,33.348024 C195.410173,12.712495 164.856991,0.173093812 131.372996,0.173093812 C58.9316644,0.173093812 0.20644474,58.8595609 0.20644474,131.258124 C0.20644474,133.615329 0.270039947,135.957206 0.392756325,138.283433 L16.2183755,138.283433 Z" id="Fill-31" fill="#873579" fill-rule="nonzero" mask="url(#mask-22)"></path>
                </g>
            </g>
            <g id="Group-36" transform="translate(42.503329, 43.113772)">
                <g id="Fill-34-Clipped">
                    <mask id="mask-24" fill="white">
                        <use xlink:href="#path-23"></use>
                    </mask>
                    <g id="path-23"></g>
                    <path d="M16.0832277,122.634731 C15.9218429,120.307545 15.8368362,117.965349 15.8368362,115.609741 C15.8368362,89.0318563 26.1923089,64.0453493 44.9963569,45.2528543 C63.7994461,26.4613174 88.8009907,16.1120958 115.394652,16.1120958 C141.988314,16.1120958 166.990178,26.4613174 185.795505,45.2528543 C192.507835,51.9607186 198.137129,59.4609182 202.609885,67.5372455 L202.609885,40.0999601 C200.813241,38.0327345 198.93926,36.0210778 196.986024,34.0697804 C186.389273,23.4797605 174.049246,15.1658283 160.308208,9.35824351 C146.083015,3.3459481 130.971643,0.297325349 115.394652,0.297325349 C99.8173422,0.297325349 84.7059707,3.3459481 70.4810972,9.35824351 C56.7413369,15.1658283 44.4016298,23.4797605 33.8051984,34.0697804 C23.208767,44.659481 14.8896192,56.9916168 9.07816778,70.7228743 C3.06186951,84.9395609 0.0112170439,100.041517 0.0112170439,115.609741 C0.0112170439,117.963114 0.0895126498,120.304032 0.228846871,122.634731 L16.0832277,122.634731 Z" id="Fill-34" fill="#CA3F8F" fill-rule="nonzero" mask="url(#mask-24)"></path>
                </g>
            </g>
            <g id="Group-39" transform="translate(42.503329, 43.113772)">
                <g id="Fill-37-Clipped">
                    <mask id="mask-26" fill="white">
                        <use xlink:href="#path-25"></use>
                    </mask>
                    <g id="path-25"></g>
                    <path d="M16.0710839,122.634731 C15.9087403,120.313293 15.8208575,117.971737 15.8208575,115.609421 C15.8208575,60.6463872 60.4007776,16.0961277 115.394333,16.0961277 C152.950019,16.0961277 185.647222,36.8763273 202.609885,67.5576846 L202.609885,40.1283832 C181.455372,15.7390818 150.227249,0.312974052 115.394333,0.312974052 C51.6770493,0.312974052 0.027195739,51.9287824 0.027195739,115.609421 C0.027195739,117.968862 0.0997390146,120.310739 0.239712383,122.634731 L16.0710839,122.634731 Z" id="Fill-37" fill="#CA3F8F" fill-rule="nonzero" mask="url(#mask-26)"></path>
                </g>
            </g>
            <g id="Group-42" transform="translate(58.162450, 59.081836)">
                <g id="Fill-40-Clipped">
                    <mask id="mask-28" fill="white">
                        <use xlink:href="#path-27"></use>
                    </mask>
                    <g id="path-27"></g>
                    <path d="M16.2511318,106.666667 C16.0584288,104.35002 15.9548868,102.007824 15.9548868,99.6413573 C15.9548868,53.3962475 53.4651931,15.9112176 99.73502,15.9112176 C146.004847,15.9112176 183.515153,53.3962475 183.515153,99.6413573 C183.515153,102.007824 183.411611,104.35002 183.219228,106.666667 L186.950573,106.666667 L186.950573,51.5896208 C169.987909,20.9082635 137.291025,0.128063872 99.73502,0.128063872 C44.7414647,0.128063872 0.161544607,44.6783234 0.161544607,99.6413573 C0.161544607,102.003673 0.249747004,104.34523 0.412090546,106.666667 L16.2511318,106.666667 Z" id="Fill-40" fill="#EA4893" fill-rule="nonzero" mask="url(#mask-28)"></path>
                </g>
            </g>
            <g id="Group-45" transform="translate(73.821571, 74.730539)">
                <g id="Fill-43-Clipped">
                    <mask id="mask-30" fill="white">
                        <use xlink:href="#path-29"></use>
                    </mask>
                    <g id="path-29"></g>
                    <path d="M16.4708389,91.0179641 C16.2340346,88.6990818 16.1113182,86.3552894 16.1113182,83.9929741 C16.1113182,65.8478244 23.1806125,48.7894611 36.0169374,35.9610379 C48.8532623,23.1326148 65.9210652,16.0677046 84.0763782,16.0677046 C102.233609,16.0677046 119.303009,23.1326148 132.139973,35.9610379 C144.976618,48.7891417 152.046551,65.847505 152.046551,83.9929741 C152.046551,86.3552894 151.923835,88.6990818 151.686711,91.0179641 L167.577523,91.0179641 C167.769268,88.6939721 167.87217,86.3514571 167.87217,83.9929741 C167.87217,61.6226747 159.155473,40.5920958 143.328575,24.7741317 C127.501997,8.95744511 106.458695,0.246546906 84.0763782,0.246546906 C61.6931025,0.246546906 40.6504394,8.95744511 24.8235419,24.7741317 C8.99600533,40.5920958 0.279946738,61.6226747 0.279946738,83.9929741 C0.279946738,86.3514571 0.38252996,88.6939721 0.574593875,91.0179641 L16.4708389,91.0179641 Z" id="Fill-43" fill="#D61B5F" fill-rule="nonzero" mask="url(#mask-30)"></path>
                </g>
            </g>
            <g id="Group-48" transform="translate(73.821571, 74.730539)">
                <g id="Fill-46-Clipped">
                    <mask id="mask-32" fill="white">
                        <use xlink:href="#path-31"></use>
                    </mask>
                    <g id="path-31"></g>
                    <path d="M16.4552437,91.0179641 C16.2178003,88.7086627 16.0954035,86.3651896 16.0954035,83.9926547 C16.0954035,46.4657884 46.5297044,16.0514172 84.0761225,16.0514172 C121.628293,16.0514172 152.062594,46.4657884 152.062594,83.9926547 C152.062594,86.3651896 151.940197,88.7086627 151.702754,91.0179641 L167.560011,91.0179641 C167.752714,88.7013174 167.856256,86.3591218 167.856256,83.9926547 C167.856256,37.7475449 130.345949,0.26251497 84.0761225,0.26251497 C37.8062956,0.26251497 0.295989348,37.7475449 0.295989348,83.9926547 C0.295989348,86.3591218 0.399531292,88.7013174 0.59191478,91.0179641 L16.4552437,91.0179641 Z" id="Fill-46" fill="#D61B5F" fill-rule="nonzero" mask="url(#mask-32)"></path>
                </g>
            </g>
            <g id="Group-51" transform="translate(89.800266, 90.698603)">
                <g id="Fill-49-Clipped">
                    <mask id="mask-34" fill="white">
                        <use xlink:href="#path-33"></use>
                    </mask>
                    <g id="path-33"></g>
                    <path d="M16.3831478,75.0499002 C16.0731611,72.7520958 15.9101784,70.4076647 15.9101784,68.0245908 C15.9101784,39.2156487 39.2748655,15.866507 68.0972357,15.866507 C96.9256778,15.866507 120.290684,39.2156487 120.290684,68.0245908 C120.290684,70.4076647 120.127382,72.7520958 119.817715,75.0499002 L135.723867,75.0499002 C135.96163,72.7405988 136.083707,70.3971257 136.083707,68.0245908 C136.083707,30.4977246 105.649406,0.0833532934 68.0972357,0.0833532934 C30.5511372,0.0833532934 0.116836218,30.4977246 0.116836218,68.0245908 C0.116836218,70.3971257 0.238913449,72.7405988 0.476676431,75.0499002 L16.3831478,75.0499002 Z" id="Fill-49" fill="#EE3442" fill-rule="nonzero" mask="url(#mask-34)"></path>
                </g>
            </g>
            <g id="Group-54" transform="translate(105.459387, 106.347305)">
                <g id="Fill-52-Clipped">
                    <mask id="mask-36" fill="white">
                        <use xlink:href="#path-35"></use>
                    </mask>
                    <g id="path-35"></g>
                    <path d="M16.7445539,59.4011976 C16.29747,57.1273453 16.0603462,54.7790818 16.0603462,52.3762076 C16.0603462,32.3276647 32.3793875,16.0162874 52.4384021,16.0162874 C72.4970972,16.0162874 88.8158189,32.3276647 88.8158189,52.3762076 C88.8158189,54.7790818 88.5790146,57.1273453 88.1319308,59.4011976 L104.172304,59.4011976 C104.483249,57.1027545 104.64719,54.7583234 104.64719,52.3762076 C104.64719,23.6071856 81.2265779,0.201516966 52.4384021,0.201516966 C23.6531025,0.201516966 0.235046605,23.6071856 0.235046605,52.3762076 C0.235046605,54.7583234 0.398988016,57.1027545 0.709933422,59.4011976 L16.7445539,59.4011976 Z" id="Fill-52" fill="#F05424" fill-rule="nonzero" mask="url(#mask-36)"></path>
                </g>
            </g>
            <g id="Group-57" transform="translate(105.459387, 106.347305)">
                <g id="Fill-55-Clipped">
                    <mask id="mask-38" fill="white">
                        <use xlink:href="#path-37"></use>
                    </mask>
                    <g id="path-37"></g>
                    <path d="M16.7255073,59.4011976 C16.2800213,57.127984 16.0444953,54.7794012 16.0444953,52.3758882 C16.0444953,32.2848703 32.3395686,16.0006387 52.4382104,16.0006387 C72.5426045,16.0006387 88.8319254,32.2848703 88.8319254,52.3758882 C88.8319254,54.7794012 88.5963995,57.127984 88.151233,59.4011976 L104.15869,59.4011976 C104.468357,57.1033932 104.63134,54.7589621 104.63134,52.3758882 C104.63134,23.5669461 81.2666525,0.217804391 52.4382104,0.217804391 C23.6158402,0.217804391 0.250833555,23.5669461 0.250833555,52.3758882 C0.250833555,54.7589621 0.414135819,57.1033932 0.724122503,59.4011976 L16.7255073,59.4011976 Z" id="Fill-55" fill="#F05424" fill-rule="nonzero" mask="url(#mask-38)"></path>
                </g>
            </g>
            <g id="Group-60" transform="translate(121.438083, 122.315369)">
                <g id="Fill-58-Clipped">
                    <mask id="mask-40" fill="white">
                        <use xlink:href="#path-39"></use>
                    </mask>
                    <g id="path-39"></g>
                    <path d="M17.0922184,43.4331337 C16.2952011,41.2410379 15.8596218,38.8755289 15.8596218,36.4078244 C15.8596218,25.0347305 25.0847617,15.821477 36.4596751,15.821477 C47.8403409,15.821477 57.0597284,25.0347305 57.0597284,36.4078244 C57.0597284,38.8755289 56.6241491,41.2410379 55.8274514,43.4331337 L72.1723782,43.4331337 C72.6175446,41.1599202 72.8530706,38.8113373 72.8530706,36.4078244 C72.8530706,16.3168064 56.5640692,0.0325748503 36.4596751,0.0325748503 C16.3610333,0.0325748503 0.0659600533,16.3168064 0.0659600533,36.4078244 C0.0659600533,38.8113373 0.301486019,41.1599202 0.746972037,43.4331337 L17.0922184,43.4331337 Z" id="Fill-58" fill="#F7941D" fill-rule="nonzero" mask="url(#mask-40)"></path>
                </g>
            </g>
            <g id="Group-63" transform="translate(137.097204, 137.964072)">
                <g id="Fill-61-Clipped">
                    <mask id="mask-42" fill="white">
                        <use xlink:href="#path-41"></use>
                    </mask>
                    <g id="path-41"></g>
                    <path d="M40.1683302,27.7844311 C40.965028,25.5923353 41.4006072,23.2268263 41.4006072,20.7591218 C41.4006072,9.38602794 32.1812197,0.172774451 20.8005539,0.172774451 C9.42564048,0.172774451 0.200500666,9.38602794 0.200500666,20.7591218 C0.200500666,23.2268263 0.636079893,25.5923353 1.4330972,27.7844311 L40.1683302,27.7844311 Z" id="Fill-61" fill="#FFEF03" fill-rule="nonzero" mask="url(#mask-42)"></path>
                </g>
            </g>
            <g id="Group-66">
                <g id="Fill-64-Clipped">
                    <mask id="mask-44" fill="white">
                        <use xlink:href="#path-43"></use>
                    </mask>
                    <g id="path-43"></g>
                    <path d="M11.0486924,-6.06786427 C7.88235419,-3.2437525 4.78568309,-0.324151697 1.76507057,2.6944511 C-1.60867111,6.06626747 -4.85873768,9.53197605 -7.98928362,13.0848703 L-7.98928362,21.5840319 C-3.68973635,16.4030339 0.86547004,11.4037525 5.67409854,6.59832335 C10.115217,2.15952096 14.7221944,-2.06275449 19.4844847,-6.06786427 L11.0486924,-6.06786427 Z" id="Fill-64" fill="#56A545" fill-rule="nonzero" mask="url(#mask-44)"></path>
                </g>
            </g>
            <g id="Group-69">
                <g id="Fill-67-Clipped">
                    <mask id="mask-46" fill="white">
                        <use xlink:href="#path-45"></use>
                    </mask>
                    <g id="path-45"></g>
                    <path d="M36.0188549,-6.06786427 C27.8856991,-0.0450299401 20.17502,6.59832335 12.9248469,13.843992 C5.27680426,21.4872655 -1.70396804,29.6411976 -7.98934754,38.2645908 L-7.98934754,47.9680639 C-0.760905459,37.1749301 7.53587217,27.0821557 16.8533688,17.7702196 C25.749028,8.88047904 35.3573369,0.921037924 45.6067111,-6.06786427 L36.0188549,-6.06786427 Z" id="Fill-67" fill="#67CA54" fill-rule="nonzero" mask="url(#mask-46)"></path>
                </g>
            </g>
            <g id="Group-72">
                <g id="Fill-70-Clipped">
                    <mask id="mask-48" fill="white">
                        <use xlink:href="#path-47"></use>
                    </mask>
                    <g id="path-47"></g>
                    <path d="M36.0459867,-6.06786427 C27.906759,-0.0418363273 20.1909667,6.60502994 12.9363196,13.8551697 C5.28316378,21.5035529 -1.70112383,29.6625948 -7.98937949,38.2920559 L-7.98937949,47.939002 C-0.763813582,37.1528942 7.52976831,27.0658683 16.8421518,17.7590419 C25.7330173,8.87409182 35.3352543,0.918483034 45.578237,-6.06786427 L36.0459867,-6.06786427 Z" id="Fill-70" fill="#67CA54" fill-rule="nonzero" mask="url(#mask-48)"></path>
                </g>
            </g>
            <g id="Group-75">
                <g id="Fill-73-Clipped">
                    <mask id="mask-50" fill="white">
                        <use xlink:href="#path-49"></use>
                    </mask>
                    <g id="path-49"></g>
                    <path d="M65.0176937,-6.06786427 C50.0865619,2.34219561 36.3819547,12.7463473 24.1045646,25.0162076 C11.340783,37.7718164 0.594790945,52.0693014 -7.98928362,67.6828743 L-7.98928362,79.7933733 C1.00544341,60.9168862 13.0888522,43.832016 28.0103968,28.9197605 C42.3905832,14.5481836 58.7901571,2.81133733 76.867494,-6.06786427 L65.0176937,-6.06786427 Z" id="Fill-73" fill="#00C2C1" fill-rule="nonzero" mask="url(#mask-50)"></path>
                </g>
            </g>
            <g id="Group-78">
                <g id="Fill-76-Clipped">
                    <mask id="mask-52" fill="white">
                        <use xlink:href="#path-51"></use>
                    </mask>
                    <g id="path-51"></g>
                    <path d="M103.986344,-6.06786427 C99.4001385,-4.56782435 94.866024,-2.8742515 90.3907111,-0.982355289 C69.7392064,7.74738523 51.1908176,20.2459082 35.2613369,36.1654291 C19.3321758,52.0849501 6.82597071,70.6216367 -1.90894274,91.2603593 C-4.23128628,96.746986 -6.25738482,102.322395 -7.98947537,107.974451 L-7.98947537,132.799361 C-5.89530759,119.282395 -2.15181891,106.107784 3.21894008,93.4173253 C11.6742264,73.4390419 23.7774487,55.4979641 39.192735,40.0926148 C54.6077017,24.6872655 72.5600852,12.5914571 92.5516698,4.14179641 C103.444346,-0.46243513 114.693667,-3.87033932 126.209832,-6.06786427 L103.986344,-6.06786427 Z" id="Fill-76" fill="#0194D9" fill-rule="nonzero" mask="url(#mask-52)"></path>
                </g>
            </g>
            <g id="Group-81" transform="translate(189.507324, 0.000000)">
                <g id="Fill-79-Clipped">
                    <mask id="mask-54" fill="white">
                        <use xlink:href="#path-53"></use>
                    </mask>
                    <g id="path-53"></g>
                    <path d="M55.6058589,15.3302675 L55.6058589,8.86447904 C49.2763782,5.18224351 42.7017843,1.8940998 35.8967776,-0.982387226 C31.4217843,-2.87396407 26.8876698,-4.56785629 22.3014647,-6.06789621 L0.0782956059,-6.06789621 C11.5944607,-3.87037126 22.8441012,-0.462467066 33.7370972,4.14176447 C41.3301731,7.35102595 48.6282823,11.0875529 55.6058589,15.3302675" id="Fill-79" fill="#0194D9" fill-rule="nonzero" mask="url(#mask-54)"></path>
                </g>
            </g>
            <g id="Group-84" transform="translate(189.507324, 0.000000)">
                <g id="Fill-82-Clipped">
                    <mask id="mask-56" fill="white">
                        <use xlink:href="#path-55"></use>
                    </mask>
                    <g id="path-55"></g>
                    <path d="M55.6058589,15.3112655 L55.6058589,8.88316168 C49.2744607,5.19900998 42.6976298,1.90958882 35.8910253,-0.967856287 C31.4013316,-2.865501 26.8518775,-4.56418363 22.2506525,-6.06773653 L0.161704394,-6.06773653 C11.6513449,-3.86989222 22.8747803,-0.466778443 33.7438083,4.12691417 C41.3343276,7.33521756 48.6301997,11.0704671 55.6058589,15.3112655" id="Fill-82" fill="#0194D9" fill-rule="nonzero" mask="url(#mask-56)"></path>
                </g>
            </g>
            <g id="Group-87">
                <g id="Fill-85-Clipped">
                    <mask id="mask-58" fill="white">
                        <use xlink:href="#path-57"></use>
                    </mask>
                    <g id="path-57"></g>
                    <path d="M104.037539,-6.06786427 C99.4363142,-4.56431138 94.8868602,-2.86562874 90.3971664,-0.967664671 C69.7472597,7.76143713 51.2007883,20.2583633 35.2725859,36.1766068 C19.3443835,52.0951697 6.8397763,70.6299401 -1.894498,91.2667465 C-4.2235526,96.7693413 -6.25412517,102.361038 -7.98941145,108.029701 L-7.98941145,132.696208 C-5.89204794,119.213094 -2.15367244,106.071058 3.2043036,93.4109381 C11.660229,73.4310579 23.7647297,55.4880639 39.1816138,40.0811178 C54.5981784,24.6741717 72.5524794,12.5774052 92.5453422,4.12678643 C103.413731,-0.466906188 114.637486,-3.8697006 126.126487,-6.06786427 L104.037539,-6.06786427 Z" id="Fill-85" fill="#0194D9" fill-rule="nonzero" mask="url(#mask-58)"></path>
                </g>
            </g>
            <g id="Group-90" transform="translate(0.000000, 0.958084)">
                <g id="Fill-88-Clipped">
                    <mask id="mask-60" fill="white">
                        <use xlink:href="#path-59"></use>
                    </mask>
                    <g id="path-59"></g>
                    <path d="M5.96331292,164.790419 C5.85785353,162.457166 5.80256724,160.115289 5.80256724,157.765429 C5.80256724,137.246786 9.82472437,117.34004 17.7568682,98.5970459 C25.4173742,80.4962874 36.3829134,64.2414371 50.3498908,50.2837525 C64.316229,36.3263872 80.5812623,25.367505 98.6931132,17.7117764 C117.447627,9.78491018 137.366988,5.76542914 157.898013,5.76542914 C178.428399,5.76542914 198.34808,9.78491018 217.102594,17.7117764 C227.018333,21.9027545 236.378972,27.085988 245.113246,33.2068663 L245.113246,26.5191218 C236.975297,21.108503 228.337854,16.4624351 219.25013,12.621477 C199.820996,4.40942116 179.179079,0.245588822 157.898013,0.245588822 C136.616309,0.245588822 115.974711,4.40942116 96.5458961,12.621477 C77.7773209,20.5547305 60.9204368,31.912495 46.443739,46.3801996 C31.9667217,60.8479042 20.6013955,77.6938922 12.6631798,96.4509381 C4.44565646,115.867784 0.279051931,136.496607 0.279051931,157.765429 C0.279051931,160.115289 0.33305992,162.456846 0.434364847,164.790419 L5.96331292,164.790419 Z" id="Fill-88" fill="#0055AF" fill-rule="nonzero" mask="url(#mask-60)"></path>
                </g>
            </g>
            <g id="Group-93" transform="translate(15.978695, 16.926148)">
                <g id="Fill-91-Clipped">
                    <mask id="mask-62" fill="white">
                        <use xlink:href="#path-61"></use>
                    </mask>
                    <g id="path-61"></g>
                    <path d="M5.81068442,148.822355 C5.69308123,146.49006 5.63332091,144.148184 5.63332091,141.797365 C5.63332091,123.412056 9.23747537,105.574132 16.3454381,88.7792415 C23.2098855,72.5598403 33.0358242,57.9944112 45.5506578,45.4879042 C58.0648522,32.9810778 72.63902,23.1613573 88.8685806,16.301477 C105.674013,9.19792415 123.522535,5.59616766 141.919126,5.59616766 C160.315718,5.59616766 178.16424,9.19792415 194.969033,16.301477 C207.388634,21.5511377 218.834812,28.5400399 229.13436,37.1337325 L229.13436,29.9883433 C219.3538,22.3485828 208.642322,16.0475848 197.129992,11.181477 C179.646104,3.79177645 161.070232,0.0447105788 141.919126,0.0447105788 C122.767702,0.0447105788 104.192788,3.79177645 86.7092197,11.181477 C69.8194194,18.320479 54.6498855,28.5416367 41.6221358,41.5613573 C28.593747,54.5810778 18.3657843,69.7411577 11.2223489,86.6206786 C3.82740879,104.093573 0.0778482024,122.657405 0.0778482024,141.797365 C0.0778482024,144.147864 0.135051931,146.489741 0.248181092,148.822355 L5.81068442,148.822355 Z" id="Fill-91" fill="#6F3BA2" fill-rule="nonzero" mask="url(#mask-62)"></path>
                </g>
            </g>
            <g id="Group-96" transform="translate(15.978695, 16.926148)">
                <g id="Fill-94-Clipped">
                    <mask id="mask-64" fill="white">
                        <use xlink:href="#path-63"></use>
                    </mask>
                    <g id="path-63"></g>
                    <path d="M5.79476964,148.822355 C5.67716644,146.49006 5.61708655,144.148184 5.61708655,141.797365 C5.61708655,123.40982 9.22188016,105.569661 16.3308016,88.7731737 C23.1958881,72.5518563 33.0231052,57.984511 45.5388975,45.4764072 C58.0550093,32.9683034 72.6314141,23.1473054 88.8625726,16.2867864 C105.669603,9.18227545 123.520682,5.5801996 141.91919,5.5801996 C160.31706,5.5801996 178.168458,9.18227545 194.975489,16.2867864 C207.392213,21.5351697 218.836474,28.5218363 229.134423,37.1126547 L229.134423,30.0087824 C219.352266,22.3661477 208.638551,16.0635529 197.123345,11.196487 C179.641055,3.80710579 161.067739,0.0603592814 141.91919,0.0603592814 C122.770322,0.0603592814 104.196687,3.80710579 86.7153555,11.196487 C69.8274727,18.3345309 54.6595366,28.5547305 41.6333848,41.5728543 C28.6065939,54.590978 18.3799095,69.7491417 11.2367936,86.6270659 C3.84313182,104.097725 0.0938908123,122.659641 0.0938908123,141.797365 C0.0938908123,144.147864 0.151094541,146.489741 0.263904128,148.822355 L5.79476964,148.822355 Z" id="Fill-94" fill="#6F3BA2" fill-rule="nonzero" mask="url(#mask-64)"></path>
                </g>
            </g>
            <g id="Group-99" transform="translate(31.637816, 32.574850)">
                <g id="Fill-97-Clipped">
                    <mask id="mask-66" fill="white">
                        <use xlink:href="#path-65"></use>
                    </mask>
                    <g id="path-65"></g>
                    <path d="M5.95954194,133.173653 C5.82627963,130.842954 5.75757124,128.501078 5.75757124,126.148663 C5.75757124,109.892216 8.94436218,94.1196008 15.2291025,79.2693014 C21.2984501,64.9280639 29.9863862,52.0491816 41.0513129,40.9912974 C52.1162397,29.9334132 65.0024181,21.2512575 79.3525646,15.1856287 C94.2121119,8.90506986 109.993949,5.7203992 126.259941,5.7203992 C142.525933,5.7203992 158.308091,8.90506986 173.168277,15.1856287 C187.518743,21.2512575 200.40588,29.9334132 211.471446,40.9912974 C212.148304,41.6677046 212.815893,42.3517764 213.475494,43.0419162 L213.475494,35.2284232 C202.332591,24.5425948 189.50873,16.0897405 175.315174,10.0905389 C159.780687,3.5241517 143.276293,0.194810379 126.259941,0.194810379 C109.24327,0.194810379 92.7385566,3.5241517 77.2043888,10.0905389 C62.197518,16.4336926 48.71853,25.5156886 37.1419654,37.0848703 C25.5660399,48.6537325 16.4776778,62.1240719 10.1303009,77.1219162 C3.55986152,92.6473453 0.227984021,109.142036 0.227984021,126.148663 C0.227984021,128.500439 0.294135819,130.842315 0.421645806,133.173653 L5.95954194,133.173653 Z" id="Fill-97" fill="#9F3F8F" fill-rule="nonzero" mask="url(#mask-66)"></path>
                </g>
            </g>
            <g id="Group-102" transform="translate(47.616511, 48.223553)">
                <g id="Fill-100-Clipped">
                    <mask id="mask-68" fill="white">
                        <use xlink:href="#path-67"></use>
                    </mask>
                    <g id="path-67"></g>
                    <path d="M5.82599201,117.52495 C5.67259654,115.196806 5.5885486,112.85493 5.5885486,110.49996 C5.5885486,82.5513772 16.4783489,56.2759281 36.2523036,36.5148104 C56.0252996,16.7536926 82.3163249,5.87081836 110.281278,5.87081836 C138.246551,5.87081836 164.538216,16.7536926 184.313129,36.5148104 C189.278988,41.4767265 193.683356,46.84998 197.496831,52.5566467 L197.496831,43.0811976 C194.649747,39.4133333 191.565539,35.9093014 188.24229,32.5882635 C178.114993,22.4683433 166.323675,14.5235928 153.19494,8.97500998 C139.605699,3.23129741 125.16735,0.319041916 110.281278,0.319041916 C95.3948868,0.319041916 80.9571771,3.23129741 67.3682557,8.97500998 C54.2404794,14.5235928 42.4498003,22.4683433 32.3231425,32.5882635 C22.1968043,42.708503 14.2470839,54.4922954 8.69448735,67.611976 C2.94695073,81.192495 0.0327563249,95.6221956 0.0327563249,110.49996 C0.0327563249,112.853972 0.11424767,115.19489 0.259973369,117.52495 L5.82599201,117.52495 Z" id="Fill-100" fill="#E247A0" fill-rule="nonzero" mask="url(#mask-68)"></path>
                </g>
            </g>
            <g id="Group-105" transform="translate(47.616511, 48.542914)">
                <g id="Fill-103-Clipped">
                    <mask id="mask-70" fill="white">
                        <use xlink:href="#path-69"></use>
                    </mask>
                    <g id="path-69"></g>
                    <path d="M5.80975766,117.205589 C5.65636218,114.877445 5.57231425,112.535569 5.57231425,110.180599 C5.57231425,82.2278643 16.464032,55.9482635 36.2405433,36.1842715 C56.0170546,16.4202794 82.3119148,5.53548902 110.281342,5.53548902 C138.251089,5.53548902 164.546589,16.4202794 184.324378,36.1842715 C189.284804,41.1410778 193.685976,46.5082635 197.496575,52.2085429 L197.496575,42.777485 C194.652368,39.1172854 191.563047,35.6103792 188.23085,32.2807186 C167.409971,11.4743313 139.727201,0.0156487026 110.281342,0.0156487026 C80.8361225,0.0156487026 53.153992,11.4743313 32.3347111,32.2803992 C11.5151105,53.0871058 0.0491185087,80.7524152 0.0491185087,110.180599 C0.0491185087,112.53493 0.130609854,114.876487 0.276335553,117.205589 L5.80975766,117.205589 Z" id="Fill-103" fill="#E247A0" fill-rule="nonzero" mask="url(#mask-70)"></path>
                </g>
            </g>
            <g id="Group-108" transform="translate(63.275632, 64.191617)">
                <g id="Fill-106-Clipped">
                    <mask id="mask-72" fill="white">
                        <use xlink:href="#path-71"></use>
                    </mask>
                    <g id="path-71"></g>
                    <path d="M5.98296671,101.556886 C5.80208788,99.2316168 5.70685486,96.8891018 5.70685486,94.5318962 C5.70685486,70.7953693 14.9556431,48.48 31.7498908,31.6959681 C48.5431798,14.9125749 70.8721278,5.66962076 94.622221,5.66962076 C118.372314,5.66962076 140.700943,14.9125749 157.494232,31.6959681 C170.100463,44.2941317 178.454445,60.0092615 181.837454,77.1027545 L181.837454,58.1901796 C177.15314,46.963992 170.269198,36.6521357 161.40326,27.7924152 C143.565284,9.96694611 119.848426,0.1500998 94.622221,0.1500998 C69.3963356,0.1500998 45.6801172,9.96662675 27.8434194,27.7924152 C10.0067217,45.618523 0.183339547,69.3202395 0.183339547,94.5318962 C0.183339547,96.8878244 0.269304927,99.2306587 0.439318242,101.556886 L5.98296671,101.556886 Z" id="Fill-106" fill="#F44B99" fill-rule="nonzero" mask="url(#mask-72)"></path>
                </g>
            </g>
            <g id="Group-111" transform="translate(78.934754, 79.840319)">
                <g id="Fill-109-Clipped">
                    <mask id="mask-74" fill="white">
                        <use xlink:href="#path-73"></use>
                    </mask>
                    <g id="path-73"></g>
                    <path d="M6.19704927,85.9081836 C5.97718242,83.5873852 5.86309454,81.2442315 5.86309454,78.8831936 C5.86309454,59.3676647 13.4667164,41.0206786 27.2726285,27.2223553 C41.0788602,13.4246707 59.4364634,5.82610778 78.9630679,5.82610778 C98.492229,5.82610778 116.851111,13.4246707 130.657662,27.2223553 C144.464533,41.0203593 152.068474,59.3670259 152.068474,78.8831936 C152.068474,81.2442315 151.954706,83.5873852 151.734519,85.9081836 L157.310445,85.9081836 C157.514972,83.5854691 157.623947,81.2429541 157.623947,78.8831936 C157.623947,57.8839122 149.441577,38.1413174 134.583947,23.2932535 C119.727595,8.44518962 99.9740932,0.268582834 78.9630679,0.268582834 C57.951723,0.268582834 38.1985406,8.44518962 23.3415499,23.2932535 C8.48392011,38.1413174 0.301869507,57.8835928 0.301869507,78.8831936 C0.301869507,81.2429541 0.411163782,83.5854691 0.615371505,85.9081836 L6.19704927,85.9081836 Z" id="Fill-109" fill="#E91D68" fill-rule="nonzero" mask="url(#mask-74)"></path>
                </g>
            </g>
            <g id="Group-114" transform="translate(78.934754, 79.840319)">
                <g id="Fill-112-Clipped">
                    <mask id="mask-76" fill="white">
                        <use xlink:href="#path-75"></use>
                    </mask>
                    <g id="path-75"></g>
                    <path d="M6.18113449,85.9081836 C5.96094807,83.5873852 5.84717976,81.2442315 5.84717976,78.8831936 C5.84717976,59.3628743 13.4523995,41.0120559 27.2618269,27.2111776 C41.0706152,13.4102994 59.4317337,5.80982036 78.9631318,5.80982036 C98.4964474,5.80982036 116.859483,13.4102994 130.66923,27.2108583 C144.478977,41.0117365 152.084517,59.3625549 152.084517,78.8831936 C152.084517,81.2442315 151.970429,83.5873852 151.750562,85.9081836 L157.29421,85.9081836 C157.499057,83.5854691 157.608032,81.2429541 157.608032,78.8831936 C157.608032,57.8880639 149.427579,38.1496208 134.573145,23.3044311 C119.719031,8.45988024 99.9696831,0.284231537 78.9631318,0.284231537 C57.956261,0.284231537 38.2065939,8.45988024 23.3524794,23.3044311 C8.49836485,38.1493014 0.317912117,57.8880639 0.317912117,78.8831936 C0.317912117,81.2429541 0.426886818,83.5854691 0.631733688,85.9081836 L6.18113449,85.9081836 Z" id="Fill-112" fill="#E91D68" fill-rule="nonzero" mask="url(#mask-76)"></path>
                </g>
            </g>
            <g id="Group-117" transform="translate(94.913449, 95.808383)">
                <g id="Fill-115-Clipped">
                    <mask id="mask-78" fill="white">
                        <use xlink:href="#path-77"></use>
                    </mask>
                    <g id="path-77"></g>
                    <path d="M6.09344341,69.9401198 C5.81030093,67.6372056 5.66169907,65.2930938 5.66169907,62.9151297 C5.66169907,31.3251896 31.3765326,5.62491018 62.9843089,5.62491018 C94.595281,5.62491018 120.312352,31.3251896 120.312352,62.9151297 C120.312352,65.2930938 120.16375,67.6372056 119.880927,69.9401198 L125.440234,69.9401198 C125.69845,67.6330539 125.835547,65.2899002 125.835547,62.9151297 C125.835547,28.281996 97.6408202,0.10506986 62.9843089,0.10506986 C28.3309933,0.10506986 0.138503329,28.281996 0.138503329,62.9151297 C0.138503329,65.2899002 0.275920107,67.6330539 0.534135819,69.9401198 L6.09344341,69.9401198 Z" id="Fill-115" fill="#F63644" fill-rule="nonzero" mask="url(#mask-78)"></path>
                </g>
            </g>
            <g id="Group-120" transform="translate(110.572570, 111.457086)">
                <g id="Fill-118-Clipped">
                    <mask id="mask-80" fill="white">
                        <use xlink:href="#path-79"></use>
                    </mask>
                    <g id="path-79"></g>
                    <path d="M6.41052463,54.2914172 C6.01872703,52.0073453 5.81228229,49.6606786 5.81228229,47.2664271 C5.81228229,24.388024 24.4344927,5.77500998 47.3252517,5.77500998 C70.2150519,5.77500998 88.8379015,24.388024 88.8379015,47.2664271 C88.8379015,49.6606786 88.6311372,52.0073453 88.2396591,54.2914172 L93.873747,54.2914172 C94.2188868,51.9990419 94.3991265,49.6536527 94.3991265,47.2664271 C94.3991265,21.3266267 73.2816831,0.223233533 47.3252517,0.223233533 C21.3716964,0.223233533 0.256809587,21.3266267 0.256809587,47.2664271 C0.256809587,49.6536527 0.437368842,51.9990419 0.782189081,54.2914172 L6.41052463,54.2914172 Z" id="Fill-118" fill="#E45022" fill-rule="nonzero" mask="url(#mask-80)"></path>
                </g>
            </g>
            <g id="Group-123" transform="translate(110.572570, 111.457086)">
                <g id="Fill-121-Clipped">
                    <mask id="mask-82" fill="white">
                        <use xlink:href="#path-81"></use>
                    </mask>
                    <g id="path-81"></g>
                    <path d="M6.39429028,54.2914172 C6.00281225,52.0073453 5.79604794,49.6606786 5.79604794,47.2664271 C5.79604794,24.3794012 24.4259281,5.75904192 47.3253156,5.75904192 C70.2240639,5.75904192 88.8539441,24.3794012 88.8539441,47.2664271 C88.8539441,49.6606786 88.6474993,52.0073453 88.2557017,54.2914172 L93.8575126,54.2914172 C94.202972,51.9990419 94.3832117,49.6536527 94.3832117,47.2664271 C94.3832117,21.3355689 73.2727989,0.239520958 47.3253156,0.239520958 C21.3807084,0.239520958 0.272852197,21.3355689 0.272852197,47.2664271 C0.272852197,49.6536527 0.453091877,51.9990419 0.798231691,54.2914172 L6.39429028,54.2914172 Z" id="Fill-121" fill="#F17322" fill-rule="nonzero" mask="url(#mask-82)"></path>
                </g>
            </g>
            <g id="Group-126" transform="translate(126.551265, 127.425150)">
                <g id="Fill-124-Clipped">
                    <mask id="mask-84" fill="white">
                        <use xlink:href="#path-83"></use>
                    </mask>
                    <g id="path-83"></g>
                    <path d="M6.59558988,38.3233533 C5.95931824,36.0887824 5.61130226,33.7341317 5.61130226,31.2983633 C5.61130226,17.1174451 17.1559095,5.5801996 31.3465885,5.5801996 C45.5369481,5.5801996 57.0815553,17.1174451 57.0815553,31.2983633 C57.0815553,33.7341317 56.7335393,36.0887824 56.0969481,38.3233533 L61.8080533,38.3233533 C62.3292783,36.064511 62.6053901,33.7130539 62.6053901,31.2983633 C62.6053901,14.0704192 48.5824874,0.0542914172 31.3465885,0.0542914172 C14.1100506,0.0542914172 0.0874673768,14.0704192 0.0874673768,31.2983633 C0.0874673768,33.7130539 0.363259654,36.064511 0.884804261,38.3233533 L6.59558988,38.3233533 Z" id="Fill-124" fill="#FBA61D" fill-rule="nonzero" mask="url(#mask-84)"></path>
                </g>
            </g>
            <g id="Group-129" transform="translate(142.210386, 143.073852)">
                <g id="Fill-127-Clipped">
                    <mask id="mask-86" fill="white">
                        <use xlink:href="#path-85"></use>
                    </mask>
                    <g id="path-85"></g>
                    <path d="M29.4538482,22.6746507 C30.5368842,20.5655888 31.1520639,18.1786826 31.1520639,15.6496607 C31.1520639,7.12782435 24.2147537,0.194491018 15.6875632,0.194491018 C7.15973369,0.194491018 0.222103862,7.12782435 0.222103862,15.6496607 C0.222103862,18.1786826 0.837603196,20.5655888 1.92063915,22.6746507 L29.4538482,22.6746507 Z" id="Fill-127" fill="#FFEF03" fill-rule="nonzero" mask="url(#mask-86)"></path>
                </g>
            </g>
            <g id="Group-132">
                <g id="Fill-130-Clipped">
                    <mask id="mask-88" fill="white">
                        <use xlink:href="#path-87"></use>
                    </mask>
                    <g id="path-87"></g>
                    <polygon id="Fill-130" mask="url(#mask-88)" points="-1.88836218 160.958084 241.693742 160.958084 241.693742 -1.59680639 -1.88836218 -1.59680639"></polygon>
                </g>
            </g>
        </g>
    </g>
</svg>