<?xml version="1.0" encoding="UTF-8"?>
<svg width="240px" height="160px" viewBox="0 0 240 160" version="1.1" xmlns="http://www.w3.org/2000/svg" xmlns:xlink="http://www.w3.org/1999/xlink">
    <!-- Generator: Sketch 51.3 (57544) - http://www.bohemiancoding.com/sketch -->
    <title>Illustration-rainbow-11</title>
    <desc>Created with Sketch.</desc>
    <defs>
        <path d="M0.00978711362,16.2046639 C128.212187,74.1170126 175.567636,80.5355615 191.633882,73.1209242 C197.467201,70.4284692 204.175169,59.0162951 206.402836,51.0969224 C207.854725,45.9267298 211.289602,37.8893124 214.305231,35.2855407 C220.570382,29.8772617 232.561794,31.544067 239.694003,33.1984887 L239.694003,31.5530552 C215.162503,22.654172 208.756337,30.110155 206.766358,35.3632383 C200.029029,53.1486209 193.927462,69.369064 170.219078,66.3402521 C118.2533,59.7027913 28.364054,14.7322026 0.00978711362,0.01537975 L0.00978711362,16.2046639 Z" id="path-1"></path>
        <path d="M0.00978711362,17.7328517 C128.172639,75.2165649 180.239085,76.9572729 196.180096,68.3542002 C202.019008,65.2035488 208.884968,59.2601742 210.221409,40.7279749 C210.652641,34.7692205 212.264119,31.6531235 216.313787,25.5447661 C220.327702,19.4909369 232.46552,20.1638509 239.694003,21.1835084 L239.694003,19.1687611 C214.941394,11.5426022 209.447627,24.3201784 207.292864,29.9937084 C200.022837,49.1319097 194.017144,63.1176951 167.886949,60.1142496 C116.808802,54.2439788 30.7073687,14.7254115 0.00978711362,0.00918790259 L0.00978711362,17.7328517 Z" id="path-3"></path>
        <path d="M0.00978711362,19.1140332 C125.775595,71.4880742 181.67859,72.0399473 197.630387,62.2158824 C203.534014,58.5806689 212.234558,53.5740609 214.174204,34.2564957 C214.797583,28.04048 213.687645,21.9816575 218.833669,13.3566138 C223.335542,5.81134839 233.440437,5.72885701 239.694003,6.51701926 L239.694003,4.73496563 C214.600443,-1.78365153 210.166281,15.6236289 209.073919,22.3284009 C206.251436,39.6422044 205.092561,57.2857738 165.10621,54.2685463 C115.249655,50.5066994 32.8946887,15.0723547 0.00978711362,0.117445364 L0.00978711362,19.1140332 Z" id="path-5"></path>
        <path d="M212.979177,25.8717356 C213.10641,37.8467685 209.175985,58.1722067 174.35703,60.2336923 C124.643286,63.176218 36.8740491,26.8708201 0.00978711362,10.4400539 L0.00978711362,35.809251 C148.824847,80.5445497 191.097988,72.5191165 206.394048,62.8893956 C212.071373,59.3153016 220.560196,47.539806 218.499709,31.4709632 C217.843972,26.3489073 216.375106,17.9503653 221.49097,9.38903775 C225.832654,2.12180629 234.266549,1.66560695 239.694003,2.25323324 L239.694003,1.09855357 C236.956208,0.450207228 234.498444,0.156593818 232.289752,0.156593818 C214.224737,0.157592503 212.915661,19.8175069 212.979177,25.8717356" id="path-7"></path>
        <path d="M217.870737,30.4193479 C217.781055,37.2861066 222.107159,66.9550425 170.842258,68.5253751 C121.87573,70.0255996 38.2492386,39.5950664 0.00978711362,24.507332 L0.00978711362,49.0881673 C146.806105,88.5939514 195.715907,78.2753374 209.340568,69.9576889 C223.206911,61.4928344 226.301037,44.1494697 223.709649,33.1671298 C220.991228,21.6468982 218.608166,17.097688 223.601591,8.49521462 C226.802976,2.97967675 234.52381,1.70056093 239.694003,1.49742839 L239.694003,0.318580535 C238.38992,0.198738328 237.162936,0.141413805 236.003662,0.141413805 C212.33942,0.142212753 217.954427,24.100268 217.870737,30.4193479" id="path-9"></path>
    </defs>
    <g id="components" stroke="none" stroke-width="1" fill="none" fill-rule="evenodd">
        <g id="Illustration-rainbow-11">
            <polygon id="Fill-1" fill="#CAF2FC" fill-rule="nonzero" points="0 160 240 160 240 0 0 0"></polygon>
            <g id="Group-37" transform="translate(0.000000, 5.540705)">
                <g id="Group-3" transform="translate(0.000000, 17.445031)">
                    <g id="Fill-1-Clipped">
                        <mask id="mask-2" fill="white">
                            <use xlink:href="#path-1"></use>
                        </mask>
                        <g id="path-1"></g>
                        <path d="M0.00978711362,16.2046639 C128.212187,74.1170126 175.567636,80.5355615 191.633882,73.1209242 C197.467201,70.4284692 204.175169,59.0162951 206.402836,51.0969224 C207.854725,45.9267298 211.289602,37.8893124 214.305231,35.2855407 C220.570382,29.8772617 232.561794,31.544067 239.694003,33.1984887 L239.694003,31.5530552 C215.162503,22.654172 208.756337,30.110155 206.766358,35.3632383 C200.029029,53.1486209 193.927462,69.369064 170.219078,66.3402521 C118.2533,59.7027913 28.364054,14.7322026 0.00978711362,0.01537975 L0.00978711362,16.2046639 Z" id="Fill-1" fill="#FE4849" fill-rule="nonzero" mask="url(#mask-2)"></path>
                    </g>
                </g>
                <g id="Group-6" transform="translate(0.000000, 30.427937)">
                    <g id="Fill-4-Clipped">
                        <mask id="mask-4" fill="white">
                            <use xlink:href="#path-3"></use>
                        </mask>
                        <g id="path-3"></g>
                        <path d="M0.00978711362,17.7328517 C128.172639,75.2165649 180.239085,76.9572729 196.180096,68.3542002 C202.019008,65.2035488 208.884968,59.2601742 210.221409,40.7279749 C210.652641,34.7692205 212.264119,31.6531235 216.313787,25.5447661 C220.327702,19.4909369 232.46552,20.1638509 239.694003,21.1835084 L239.694003,19.1687611 C214.941394,11.5426022 209.447627,24.3201784 207.292864,29.9937084 C200.022837,49.1319097 194.017144,63.1176951 167.886949,60.1142496 C116.808802,54.2439788 30.7073687,14.7254115 0.00978711362,0.00918790259 L0.00978711362,17.7328517 Z" id="Fill-4" fill="#FF8A53" fill-rule="nonzero" mask="url(#mask-4)"></path>
                    </g>
                </g>
                <g id="Group-9" transform="translate(0.000000, 45.807687)">
                    <g id="Fill-7-Clipped">
                        <mask id="mask-6" fill="white">
                            <use xlink:href="#path-5"></use>
                        </mask>
                        <g id="path-5"></g>
                        <path d="M0.00978711362,19.1140332 C125.775595,71.4880742 181.67859,72.0399473 197.630387,62.2158824 C203.534014,58.5806689 212.234558,53.5740609 214.174204,34.2564957 C214.797583,28.04048 213.687645,21.9816575 218.833669,13.3566138 C223.335542,5.81134839 233.440437,5.72885701 239.694003,6.51701926 L239.694003,4.73496563 C214.600443,-1.78365153 210.166281,15.6236289 209.073919,22.3284009 C206.251436,39.6422044 205.092561,57.2857738 165.10621,54.2685463 C115.249655,50.5066994 32.8946887,15.0723547 0.00978711362,0.117445364 L0.00978711362,19.1140332 Z" id="Fill-7" fill="#F6DB65" fill-rule="nonzero" mask="url(#mask-6)"></path>
                    </g>
                </g>
                <g id="Group-12" transform="translate(0.000000, 50.801112)">
                    <g id="Fill-10-Clipped">
                        <mask id="mask-8" fill="white">
                            <use xlink:href="#path-7"></use>
                        </mask>
                        <g id="path-7"></g>
                        <path d="M212.979177,25.8717356 C213.10641,37.8467685 209.175985,58.1722067 174.35703,60.2336923 C124.643286,63.176218 36.8740491,26.8708201 0.00978711362,10.4400539 L0.00978711362,35.809251 C148.824847,80.5445497 191.097988,72.5191165 206.394048,62.8893956 C212.071373,59.3153016 220.560196,47.539806 218.499709,31.4709632 C217.843972,26.3489073 216.375106,17.9503653 221.49097,9.38903775 C225.832654,2.12180629 234.266549,1.66560695 239.694003,2.25323324 L239.694003,1.09855357 C236.956208,0.450207228 234.498444,0.156593818 232.289752,0.156593818 C214.224737,0.157592503 212.915661,19.8175069 212.979177,25.8717356" id="Fill-10" fill="#8DD46F" fill-rule="nonzero" mask="url(#mask-8)"></path>
                    </g>
                </g>
                <g id="Group-15" transform="translate(0.000000, 52.399008)">
                    <g id="Fill-13-Clipped">
                        <mask id="mask-10" fill="white">
                            <use xlink:href="#path-9"></use>
                        </mask>
                        <g id="path-9"></g>
                        <path d="M217.870737,30.4193479 C217.781055,37.2861066 222.107159,66.9550425 170.842258,68.5253751 C121.87573,70.0255996 38.2492386,39.5950664 0.00978711362,24.507332 L0.00978711362,49.0881673 C146.806105,88.5939514 195.715907,78.2753374 209.340568,69.9576889 C223.206911,61.4928344 226.301037,44.1494697 223.709649,33.1671298 C220.991228,21.6468982 218.608166,17.097688 223.601591,8.49521462 C226.802976,2.97967675 234.52381,1.70056093 239.694003,1.49742839 L239.694003,0.318580535 C238.38992,0.198738328 237.162936,0.141413805 236.003662,0.141413805 C212.33942,0.142212753 217.954427,24.100268 217.870737,30.4193479" id="Fill-13" fill="#01B6F5" fill-rule="nonzero" mask="url(#mask-10)"></path>
                    </g>
                </g>
                <g id="Group-36" transform="translate(17.676726, 0.000000)" fill-rule="nonzero">
                    <path d="M77.1193394,107.244754 C77.1003645,107.247551 77.0799913,107.252544 77.0604172,107.25534 C76.3187936,103.787307 73.0209358,101.428812 69.4540322,101.925558 C68.7201985,102.028223 68.0297074,102.247135 67.3977396,102.556128 C65.8435859,97.4146974 60.8651408,93.9618436 55.4083258,94.4284293 C53.0380465,89.0351303 47.3067928,85.636805 41.1848533,86.4898816 C33.7979793,87.5187269 28.6437657,94.3405449 29.6732104,101.727019 C29.6738094,101.731614 29.6738094,101.736207 29.6760067,101.7418 C27.6265051,102.11371 25.9451189,103.372053 24.9755955,105.067222 C23.7460144,104.672941 22.4135688,104.533125 21.0491653,104.723075 C16.1887648,105.399983 12.7988282,109.888074 13.4755372,114.748075 C13.9634947,118.254059 16.4422311,120.986861 19.6076632,121.986944 C21.1354517,125.758178 25.0666755,128.163012 29.2805272,127.575785 C31.3761682,127.28357 33.1993674,126.293074 34.5637712,124.879336 C37.0788595,128.359753 41.3831921,130.368908 45.9328018,129.735741 C49.3706753,129.256372 52.2614692,127.360868 54.1030443,124.722542 C56.6764561,126.973378 60.6450308,128.13405 64.8814527,127.543428 C70.6101101,126.746078 74.9951364,123.001408 75.7906889,118.646742 C76.7082806,118.914989 77.7077649,119.001874 78.7374092,118.858663 C82.2949251,118.362915 84.8160055,115.361667 84.3695933,112.15429 C83.921783,108.946913 80.6762563,106.749007 77.1193394,107.244754" id="Fill-17" fill="#FFFFFF"></path>
                    <path d="M84.3695735,112.15431 C83.9217629,108.946933 80.6762362,106.749027 77.1193196,107.244774 C77.1003447,107.247571 77.0799712,107.252564 77.0603971,107.25536 C76.3187738,103.787327 73.0209157,101.428832 69.4540123,101.925578 C68.7201784,102.028243 68.0296876,102.246955 67.3977198,102.556148 C67.3977198,102.556148 75.412367,101.530698 76.1951364,108.534876 C76.4867525,108.492332 76.7837614,108.464568 77.0893589,108.464568 C80.062844,108.464568 82.4722714,110.564204 82.4722714,113.153395 C82.4722714,115.742985 80.062844,117.842221 77.0893589,117.842221 C76.3301587,117.842221 75.6089083,117.704003 74.95437,117.457328 C74.0403736,119.543781 72.5141829,121.424105 69.9727293,122.247021 C56.8811665,126.489236 52.5284976,118.719466 52.5284976,118.719466 C52.5284976,118.719466 48.6088584,125.579234 42.925142,125.579234 C37.2414255,125.579234 34.3008971,120.679485 34.3008971,120.679485 C34.3008971,120.679485 29.8146042,126.822197 24.8924849,124.795466 C19.9699662,122.768535 19.6008522,116.367363 19.6008522,116.367363 C19.6008522,116.367363 10.6124869,114.000679 17.7496896,105.875577 C14.7604254,107.646246 12.9665873,111.09131 13.4755172,114.748095 C13.9634748,118.254079 16.4424108,120.986881 19.6076433,121.986964 C21.1354317,125.758198 25.0666556,128.162832 29.2805074,127.575805 C31.376148,127.28359 33.1993476,126.293094 34.5639508,124.879355 C37.0788397,128.359773 41.3831723,130.368928 45.9327817,129.735562 C49.3706552,129.256392 52.2616488,127.360888 54.1030244,124.722562 C56.676436,126.973398 60.6450106,128.13407 64.8814329,127.543448 C70.61009,126.746098 74.9951163,123.001428 75.7906691,118.646762 C76.7082608,118.915009 77.7077447,119.001894 78.7373891,118.858483 C82.294905,118.362936 84.8159857,115.361687 84.3695735,112.15431" id="Fill-19" fill="#D2F1F9"></path>
                    <path d="M29.662784,29.4518817 C29.6539955,29.4530802 29.6444081,29.455477 29.6352204,29.4564755 C29.2904743,27.8435993 27.7564939,26.7464438 26.0972786,26.9775396 C25.755928,27.0254765 25.4347509,27.1271426 25.1409378,27.2709532 C24.4180895,24.8793023 22.1021388,23.2732169 19.5640806,23.4903311 C18.4615323,20.9818339 15.7958421,19.4011152 12.9481915,19.7977929 C9.51231546,20.2763628 7.11487209,23.4495847 7.5936417,26.8852611 C7.59404119,26.8872584 7.59404119,26.8896553 7.59503985,26.8920521 C6.64169512,27.0652241 5.8597247,27.6502538 5.40871853,28.4390153 C4.83687147,28.255457 4.2170875,28.1905425 3.58232329,28.2788262 C1.32169976,28.5936118 -0.255223955,30.6810631 0.0595615772,32.9418865 C0.286462824,34.5725395 1.4395446,35.8438656 2.91180612,36.3088535 C3.62247042,38.0631435 5.45106276,39.1816707 7.41108207,38.9086303 C8.38579871,38.7724097 9.23388204,38.3118162 9.86844653,37.6542818 C11.0383062,39.2731503 13.04047,40.20772 15.1566837,39.9131078 C16.7557782,39.6902012 18.1004078,38.8087617 18.9570798,37.5813778 C20.1541038,38.6283992 21.9998735,39.1680887 23.9704789,38.8934502 C26.6349706,38.5227383 28.674685,36.780832 29.0447977,34.7552988 C29.471436,34.8799349 29.9364236,34.9204815 30.415393,34.8537693 C32.0702143,34.6232728 33.2428701,33.2271109 33.0351438,31.735475 C32.826818,30.2434396 31.3172057,29.2211854 29.662784,29.4518817" id="Fill-22" fill="#FFFFFF"></path>
                    <path d="M33.0351039,31.7353951 C32.826778,30.2433597 31.3171658,29.2211055 29.662744,29.4518018 C29.6539556,29.4530003 29.6443681,29.4553971 29.6353802,29.4565954 C29.2904343,27.8437191 27.756454,26.7463639 26.0974384,26.9776594 C25.7560878,27.0253965 25.434711,27.1272624 25.1408978,27.2708734 C25.1408978,27.2708734 28.8687894,26.7941011 29.2329101,30.0518117 C29.3685314,30.0320378 29.5065498,30.0190548 29.6487625,30.0190548 C31.0319414,30.0190548 32.1526656,30.995769 32.1526656,32.2001832 C32.1526656,33.4043977 31.0319414,34.3809119 29.6487625,34.3809119 C29.2956274,34.3809119 28.960269,34.3167963 28.65567,34.2019474 C28.2306297,35.1724695 27.5207643,36.0471179 26.338521,36.429814 C20.2491386,38.4030159 18.2246043,34.7891743 18.2246043,34.7891743 C18.2246043,34.7891743 16.4014048,37.9799732 13.7576857,37.9799732 C11.1139666,37.9799732 9.74616755,35.7007739 9.74616755,35.7007739 C9.74616755,35.7007739 7.65951496,38.5578121 5.37012933,37.6152534 C3.08034421,36.6724946 2.90877012,33.6952147 2.90877012,33.6952147 C2.90877012,33.6952147 -1.27212504,32.5942641 2.04770386,28.8148405 C0.657134773,29.6383562 -0.177166731,31.2408461 0.0595216298,32.9418066 C0.286422877,34.5724596 1.43950465,35.8437857 2.91196591,36.3087736 C3.62243046,38.0632634 5.45102283,39.1815908 7.41104212,38.9085504 C8.38575876,38.7723298 9.23384212,38.311936 9.86860634,37.6544017 C11.038466,39.2730704 13.0406299,40.20764 15.1566437,39.9130279 C16.755938,39.6901213 18.1005676,38.8086818 18.9570399,37.5814976 C20.1540638,38.6285191 21.9998336,39.1680087 23.9704389,38.8933703 C26.6351304,38.5226584 28.6746451,36.7809518 29.0447577,34.7552189 C29.4715958,34.879855 29.9363837,34.9204016 30.4153531,34.8536894 C32.0701744,34.6231929 33.2428301,33.2272307 33.0351039,31.7353951" id="Fill-24" fill="#D2F1F9"></path>
                    <path d="M170.231242,7.3231978 C170.237434,7.32419647 170.244425,7.32599411 170.251216,7.32699281 C170.501087,6.15793204 171.613023,5.36257928 172.81544,5.53015862 C173.062914,5.56451338 173.295807,5.63821636 173.508527,5.74287855 C174.032437,4.00916127 175.711227,2.84509396 177.550805,3.00268645 C178.349753,1.18448043 180.281609,0.0385891909 182.345691,0.32621049 C184.836013,0.67315368 186.573725,2.97312539 186.226582,5.46304698 C186.226382,5.46464489 186.226382,5.46624277 186.225783,5.46804041 C186.916673,5.59347526 187.483327,6.01791642 187.810296,6.58916428 C188.224751,6.45633915 188.673959,6.40920122 189.134153,6.47311707 C190.772796,6.70141648 191.915491,8.21442433 191.687192,9.85286706 C191.522808,11.034711 190.687308,11.9560978 189.619914,12.2932539 C189.104792,13.5647797 187.779737,14.3755122 186.359007,14.1773731 C185.652537,14.078703 185.037947,13.7449425 184.577753,13.2685697 C183.729869,14.4418249 182.27878,15.1191331 180.745199,14.9056143 C179.585925,14.7438273 178.611608,14.1048686 177.990825,13.2156394 C177.123168,13.9744403 175.785329,14.3655254 174.35681,14.1665873 C172.425553,13.8977413 170.947499,12.6354034 170.679053,11.1671366 C170.36966,11.2574177 170.032903,11.2871785 169.68576,11.2386425 C168.48634,11.0716623 167.636658,10.0597946 167.787061,8.97841843 C167.938261,7.89724196 169.032021,7.15621764 170.231242,7.3231978" id="Fill-27" fill="#FFFFFF"></path>
                    <path d="M167.787,8.97843838 C167.938201,7.89726194 169.031961,7.15623762 170.231182,7.32321775 C170.237574,7.32421645 170.244565,7.32601409 170.251156,7.32681303 C170.501027,6.15795202 171.612963,5.36239949 172.81538,5.5301786 C173.062854,5.56453336 173.295747,5.63823634 173.508667,5.74289853 C173.508667,5.74289853 170.806625,5.39675428 170.542772,7.75824499 C170.444501,7.74386391 170.344433,7.73447627 170.241369,7.73447627 C169.239089,7.73447627 168.426758,8.44234425 168.426758,9.31539473 C168.426758,10.1882455 169.239089,10.8959137 170.241369,10.8959137 C170.497232,10.8959137 170.740512,10.849375 170.961221,10.7662844 C171.269415,11.4697581 171.783738,12.1035237 172.64061,12.3809584 C177.053999,13.8110754 178.521467,11.191924 178.521467,11.191924 C178.521467,11.191924 179.842927,13.5044791 181.759004,13.5044791 C183.675281,13.5044791 184.666576,11.8524543 184.666576,11.8524543 C184.666576,11.8524543 186.178984,13.9235274 187.838399,13.2400273 C189.497815,12.556727 189.622051,10.3987683 189.622051,10.3987683 C189.622051,10.3987683 192.652461,9.60081892 190.246229,6.86162552 C191.254102,7.45863946 191.858906,8.62011018 191.687132,9.85288704 C191.522748,11.0347309 190.687248,11.9561178 189.620054,12.2932738 C189.104732,13.5647997 187.779876,14.3755322 186.358947,14.1773931 C185.652478,14.078723 185.037887,13.7449625 184.577693,13.2685897 C183.729809,14.4418449 182.27892,15.1191531 180.745139,14.9056342 C179.585865,14.7438473 178.611548,14.1048886 177.990765,13.2156594 C177.123108,13.9744603 175.785269,14.3655454 174.35695,14.1666073 C172.425693,13.8977613 170.947439,12.6354234 170.678993,11.1671566 C170.3698,11.2574377 170.032843,11.2871985 169.685701,11.2384627 C168.48628,11.0714825 167.636599,10.0598146 167.787,8.97843838" id="Fill-29" fill="#D2F1F9"></path>
                    <path d="M204.004734,110.621369 C203.994747,110.622966 203.983961,110.625563 203.973774,110.626762 C203.583688,108.802963 201.849172,107.562596 199.973042,107.823852 C199.58715,107.877781 199.224028,107.992829 198.891466,108.155415 C198.074342,105.451176 195.45579,103.635167 192.585769,103.880644 C191.33921,101.044179 188.324779,99.2567321 185.104819,99.7053413 C181.219734,100.246429 178.508903,103.834505 179.050191,107.71939 C179.05059,107.721587 179.05059,107.724183 179.051789,107.727179 C177.973808,107.922722 177.089572,108.58465 176.579444,109.476276 C175.932895,109.268949 175.232018,109.195047 174.514363,109.295115 C171.958128,109.651246 170.175076,112.011738 170.531008,114.567772 C170.78747,116.411745 172.091553,117.849252 173.756361,118.375159 C174.559903,120.358748 176.62758,121.623482 178.843663,121.314689 C179.946011,121.161091 180.904948,120.639977 181.622404,119.896556 C182.945262,121.727146 185.209081,122.783955 187.602131,122.450793 C189.41035,122.198525 190.930748,121.201638 191.899273,119.813865 C193.252691,120.997906 195.339942,121.608103 197.568209,121.297512 C200.581042,120.878264 202.887405,118.908657 203.306054,116.618273 C203.788618,116.759287 204.314326,116.805226 204.855813,116.729726 C206.726949,116.469069 208.053004,114.890548 207.818113,113.203768 C207.582423,111.51659 205.875471,110.360712 204.004734,110.621369" id="Fill-32" fill="#FFFFFF"></path>
                    <path d="M207.818073,113.203709 C207.582383,111.51673 205.875431,110.360851 204.004694,110.621309 C203.994707,110.622907 203.984121,110.625503 203.973735,110.626901 C203.583648,108.803103 201.849132,107.562536 199.973202,107.823792 C199.58711,107.877721 199.224188,107.992769 198.891626,108.155555 C198.891626,108.155555 203.106876,107.616066 203.518734,111.300015 C203.672132,111.277445 203.828126,111.263064 203.988915,111.263064 C205.552855,111.263064 206.820187,112.367409 206.820187,113.729216 C206.820187,115.091023 205.552855,116.19537 203.988915,116.19537 C203.58984,116.19537 203.21034,116.122466 202.865993,115.992836 C202.385426,117.090191 201.582483,118.079089 200.246043,118.511919 C193.360309,120.743181 191.070923,116.656762 191.070923,116.656762 C191.070923,116.656762 189.009438,120.264612 186.020173,120.264612 C183.03071,120.264612 181.484146,117.687405 181.484146,117.687405 C181.484146,117.687405 179.124653,120.918351 176.535861,119.852155 C173.94687,118.786158 173.752526,115.419391 173.752526,115.419391 C173.752526,115.419391 169.02515,114.17483 172.779008,109.901257 C171.206678,110.832431 170.26332,112.644445 170.530968,114.567713 C170.78763,116.411884 172.091513,117.849192 173.756321,118.375299 C174.559863,120.358688 176.62754,121.623422 178.843822,121.314629 C179.945971,121.161031 180.904908,120.639918 181.622564,119.896496 C182.945422,121.727086 185.209241,122.783894 187.602091,122.450733 C189.41031,122.198465 190.930708,121.201578 191.899233,119.814005 C193.252651,120.997846 195.339902,121.608043 197.568368,121.297452 C200.581201,120.878204 202.887365,118.908597 203.306014,116.618413 C203.788578,116.759427 204.314286,116.805167 204.855773,116.729666 C206.726909,116.469209 208.052964,114.890487 207.818073,113.203709" id="Fill-34" fill="#D2F1F9"></path>
                </g>
            </g>
        </g>
    </g>
</svg>