<?xml version="1.0" encoding="UTF-8"?>
<svg width="240px" height="160px" viewBox="0 0 240 160" version="1.1" xmlns="http://www.w3.org/2000/svg" xmlns:xlink="http://www.w3.org/1999/xlink">
    <!-- Generator: Sketch 51.3 (57544) - http://www.bohemiancoding.com/sketch -->
    <title>Illustration-rainbow-10</title>
    <desc>Created with Sketch.</desc>
    <defs>
        <rect id="path-1" x="0" y="0" width="240" height="160"></rect>
        <linearGradient x1="49.4841811%" y1="16.4473%" x2="51.7428668%" y2="208.565703%" id="linearGradient-3">
            <stop stop-color="#FFFFFF" offset="0%"></stop>
            <stop stop-color="#00ADE2" offset="100%"></stop>
        </linearGradient>
        <linearGradient x1="50.5717313%" y1="16.50322%" x2="48.3160271%" y2="208.745898%" id="linearGradient-4">
            <stop stop-color="#FFFFFF" offset="0%"></stop>
            <stop stop-color="#00ADE2" offset="100%"></stop>
        </linearGradient>
        <linearGradient x1="25.9404826%" y1="127.591714%" x2="25.9404826%" y2="147.988577%" id="linearGradient-5">
            <stop stop-color="#FFFFFF" offset="0%"></stop>
            <stop stop-color="#00ADE2" offset="100%"></stop>
        </linearGradient>
        <linearGradient x1="-12.3572819%" y1="225.131713%" x2="-14.1514045%" y2="263.465155%" id="linearGradient-6">
            <stop stop-color="#FFFFFF" offset="0%"></stop>
            <stop stop-color="#00ADE2" offset="100%"></stop>
        </linearGradient>
        <linearGradient x1="-60.4362291%" y1="267.57547%" x2="-57.2462682%" y2="460.225414%" id="linearGradient-7">
            <stop stop-color="#FFFFFF" offset="0%"></stop>
            <stop stop-color="#00ADE2" offset="100%"></stop>
        </linearGradient>
        <linearGradient x1="-81.5942263%" y1="308.177531%" x2="-78.4039453%" y2="500.264612%" id="linearGradient-8">
            <stop stop-color="#FFFFFF" offset="0%"></stop>
            <stop stop-color="#00ADE2" offset="100%"></stop>
        </linearGradient>
        <linearGradient x1="-13.051397%" y1="150.175583%" x2="-10.6590988%" y2="219.94404%" id="linearGradient-9">
            <stop stop-color="#FFFFFF" offset="0%"></stop>
            <stop stop-color="#00ADE2" offset="100%"></stop>
        </linearGradient>
        <linearGradient x1="0.302020209%" y1="116.544949%" x2="33.2840223%" y2="197.961942%" id="linearGradient-10">
            <stop stop-color="#FFFFFF" offset="0%"></stop>
            <stop stop-color="#00ADE2" offset="100%"></stop>
        </linearGradient>
        <linearGradient x1="53.7052506%" y1="33.6737062%" x2="20.7184209%" y2="115.026998%" id="linearGradient-11">
            <stop stop-color="#FFFFFF" offset="0%"></stop>
            <stop stop-color="#00ADE2" offset="100%"></stop>
        </linearGradient>
        <linearGradient x1="25.9408376%" y1="127.622003%" x2="25.9408376%" y2="148.038862%" id="linearGradient-12">
            <stop stop-color="#FFFFFF" offset="0%"></stop>
            <stop stop-color="#00ADE2" offset="100%"></stop>
        </linearGradient>
    </defs>
    <g id="components" stroke="none" stroke-width="1" fill="none" fill-rule="evenodd">
        <g id="Illustration-rainbow-10">
            <g id="Mask" fill="#D8D8D8" fill-rule="nonzero">
                <rect id="path-1" x="0" y="0" width="240" height="160"></rect>
            </g>
            <g id="Illustration-rainbow-10-01-Clipped">
                <mask id="mask-2" fill="white">
                    <use xlink:href="#path-1"></use>
                </mask>
                <g id="path-1"></g>
                <g id="Illustration-rainbow-10-01" mask="url(#mask-2)">
                    <g transform="translate(-30.455172, -39.303448)" id="Group">
                        <g>
                            <rect id="Rectangle-path" fill="#99DEF3" fill-rule="nonzero" x="26.3635862" y="39.3034483" width="248.275862" height="176.219862"></rect>
                            <g opacity="0.93" transform="translate(1.655172, 130.096552)" fill-rule="nonzero" id="Shape">
                                <path d="M267.025655,16.5715862 C265.13976,16.5692258 263.272082,16.9405111 261.530483,17.664 C257.222364,11.0952218 248.407354,9.25814393 241.833931,13.5591724 C240.658946,14.3320526 239.600037,15.2683519 238.689103,16.3398621 C238.581192,10.1076359 234.426548,4.67237161 228.441015,2.93292115 C222.455483,1.19347069 216.034882,3.55547222 212.603586,8.75917241 C212.206345,8.72606897 211.809103,8.69296552 211.411862,8.69296552 C209.906154,8.69873154 208.414135,8.97918637 207.009103,9.52055172 C203.514052,3.43502837 196.930433,-0.208083583 189.917907,0.0629654731 C182.905382,0.334014531 176.622613,4.47443974 173.607724,10.8115862 C169.890711,8.27940268 165.078088,8.01056203 161.102178,10.1130068 C157.126268,12.2154515 154.639157,16.3443609 154.639448,20.841931 C154.63852,21.7221748 154.738482,22.5996247 154.937379,23.4571034 C149.089984,22.3812485 143.325358,25.7049104 141.326751,31.3044702 C139.328143,36.90403 141.685503,43.126609 146.892619,45.9963552 C152.099735,48.8661017 158.61957,47.5359234 162.286345,42.8557241 C166.402143,48.1171514 174.001836,49.0504472 179.268414,44.9412414 L179.798069,44.5108966 C181.980499,48.9267257 186.619686,51.5811535 191.532499,51.2250472 C196.445312,50.8689411 200.653202,47.573231 202.176,42.8888276 C204.314274,47.5607868 209.169421,50.3733905 214.285989,49.9041855 C219.402556,49.4349809 223.665179,45.7862496 224.918069,40.8033103 C230.429889,42.2550541 236.204629,39.6439875 238.75531,34.5467586 C242.749324,39.3499445 249.408253,40.9878263 255.174621,38.5853793 C259.540651,44.9882291 268.226559,46.721855 274.716043,42.4856647 C281.205526,38.249474 283.113736,29.6002431 279.009103,23.0267586 C276.348275,19.003359 271.849314,16.5798856 267.025655,16.5715862 Z" fill="url(#linearGradient-3)" opacity="0.5"></path>
                                <path d="M14.6118621,16.5715862 C16.4977571,16.5692258 18.3654348,16.9405111 20.1070345,17.664 C24.4194467,11.0998207 33.2336051,9.26884595 39.8035862,13.5724138 C40.9785709,14.345294 42.0374807,15.2815933 42.9484138,16.3531034 C43.0443794,10.1075333 47.2008463,4.65420116 53.1975565,2.90611066 C59.194267,1.15802017 65.6300206,3.52363276 69.0670345,8.73931034 C69.4642759,8.7062069 69.8615172,8.67310345 70.2587586,8.67310345 C71.7644663,8.67886947 73.2564861,8.9593243 74.6615172,9.50068966 C78.156569,3.4151663 84.7401878,-0.227945652 91.7527134,0.0431034041 C98.765239,0.314152461 105.048007,4.45457767 108.062897,10.7917241 C112.163967,7.97462155 117.571065,7.95359434 121.693922,10.7387156 C125.816779,13.5238368 127.815755,18.5479036 126.733241,23.4041379 C132.580637,22.328283 138.345262,25.6519449 140.34387,31.2515047 C142.342477,36.8510645 139.985118,43.0736435 134.778002,45.9433897 C129.570886,48.8131362 123.05105,47.4829579 119.384276,42.8027586 C115.268477,48.0641859 107.668785,48.9974817 102.402207,44.8882759 L101.872552,44.457931 C99.6901218,48.8737602 95.0509351,51.528188 90.1381215,51.1720817 C85.2253082,50.8159756 81.0174184,47.5202655 79.4946207,42.8358621 C77.3563471,47.5078212 72.5011998,50.3204249 67.3846322,49.85122 C62.2680646,49.3820153 58.0054414,45.7332841 56.7525517,40.7503448 C51.2407319,42.2020886 45.4659916,39.591022 42.9153103,34.4937931 C38.9115618,39.3044107 32.2390879,40.9423217 26.4628966,38.5324138 C22.1655283,45.1127004 13.3483739,46.9650435 6.76634483,42.6703448 C0.186058389,38.3729767 -1.66628498,29.5558221 2.62841379,22.9737931 C5.30607098,18.9774081 9.8013606,16.5807482 14.6118621,16.5848276 L14.6118621,16.5715862 Z" fill="url(#linearGradient-4)" opacity="0.5"></path>
                            </g>
                            <path d="M14.4463448,155.705379 C10.4367948,164.232908 12.9493068,174.403324 20.4685634,180.082763 C27.98782,185.762201 38.4576401,185.397589 45.5635862,179.208828 C48.8923965,186.089611 55.8619554,190.461659 63.5056552,190.464 C63.9691034,190.464 64.4325517,190.430897 64.896,190.397793 C65.3952483,200.726845 73.7098967,208.95917 84.0434052,209.355618 C94.3769134,209.752066 103.297864,202.180991 104.587034,191.920552 C113.225834,191.85811 120.836734,186.226846 123.422897,177.984 C124.343918,178.115989 125.273155,178.182363 126.203586,178.182621 C135.029856,178.188418 142.805556,172.380226 145.304276,163.915034 C147.811523,172.374286 155.581972,178.178556 164.404966,178.182621 C165.335397,178.182363 166.264633,178.115989 167.185655,177.984 C169.771818,186.226846 177.382718,191.85811 186.021517,191.920552 C187.327992,202.157075 196.23529,209.701371 206.54725,209.305419 C216.85921,208.909467 225.161773,200.704359 225.679448,190.397793 C226.142897,190.430897 226.606345,190.464 227.069793,190.464 C234.716015,190.470431 241.689852,186.0957 245.011862,179.208828 C252.119417,185.389148 262.583404,185.749429 270.099208,180.072599 C277.615012,174.395768 280.130094,164.232148 276.129103,155.705379 C284.019924,151.251427 287.916009,142.037419 285.614241,133.273594 C283.312474,124.50977 275.391539,118.399434 266.330483,118.397793 L266.231172,118.397793 C266.297247,117.815299 266.330403,117.22954 266.330483,116.64331 C266.356818,108.608737 260.669068,101.689492 252.781282,100.160475 C244.893496,98.6314577 237.032327,102.924297 234.054621,110.386759 C229.328195,106.50301 222.348568,107.184672 218.462897,111.909517 C217.299223,113.297744 216.512592,114.962209 216.178759,116.742621 C210.794084,112.823264 203.666049,112.25548 197.728818,115.27299 C191.791586,118.290501 188.048684,124.383279 188.040828,131.04331 L188.040828,131.374345 C185.13059,129.885116 181.747809,129.61351 178.637242,130.619322 C175.526675,131.625134 172.943345,133.825902 171.456,136.737103 C171.033813,137.544683 170.711445,138.400626 170.496,139.286069 C160.029875,135.902487 148.80097,141.635451 145.403586,152.097103 C145.348529,152.248255 145.304279,152.403128 145.271172,152.560552 C143.766448,147.489698 140.308446,143.224565 135.658278,140.703912 C131.008109,138.18326 125.546907,137.613685 120.47669,139.120552 C120.311172,139.153655 120.145655,139.219862 120.013241,139.252966 C118.320178,132.663562 111.607891,128.692495 105.017379,130.381241 C104.138352,130.617044 103.284601,130.938586 102.468414,131.341241 L102.468414,131.010207 C102.483364,124.34762 98.7495681,118.243013 92.8114841,115.221515 C86.8734002,112.200016 79.7406276,112.775344 74.3635862,116.709517 C73.1276441,110.717298 67.2888516,106.844479 61.2877241,108.036414 C59.5212573,108.412395 57.8665599,109.19441 56.4546207,110.320552 C52.9956957,101.749506 43.2470099,97.601129 34.6725517,101.051586 C28.3536713,103.655455 24.2251983,109.80897 24.2118621,116.64331 C24.2119419,117.22954 24.2450981,117.815299 24.3111724,118.397793 L24.2118621,118.397793 C13.2057792,118.397793 4.28358621,127.319986 4.28358621,138.326069 C4.27797772,145.531023 8.16438346,152.177157 14.4463448,155.705379 Z" id="Shape" fill="url(#linearGradient-5)" fill-rule="nonzero" opacity="0.31"></path>
                            <path d="M188.305655,123.396414 C186.498139,123.395513 184.708649,123.755661 183.042207,124.455724 C182.177505,120.992128 179.972264,118.013915 176.911645,116.176302 C173.851026,114.338689 170.185757,113.792214 166.722207,114.657103 C166.150397,114.803391 165.586831,114.980196 165.033931,115.186759 C161.141079,108.409192 153.809722,104.350602 145.999445,104.649393 C138.189169,104.948185 131.189319,109.555034 127.825655,116.610207 C123.258245,113.49075 117.249599,113.474666 112.665553,116.569626 C108.081508,119.664587 105.85053,125.243729 107.03669,130.646069 C100.526707,129.429338 94.0960118,133.117121 91.8583217,139.350343 C89.6206312,145.583564 92.2375174,152.519376 98.0349574,155.720938 C103.832397,158.922501 111.096382,157.443273 115.180138,152.229517 C119.749098,158.088285 128.197252,159.145414 134.068966,154.593103 L134.664828,154.096552 C137.092025,159.022827 142.264535,161.984719 147.741709,161.58466 C153.218882,161.184601 157.90611,157.502542 159.591724,152.275862 C161.979956,157.468145 167.381628,160.591289 173.073046,160.070506 C178.764464,159.549723 183.509623,155.49811 184.915862,149.958621 C192.11943,151.809108 199.462043,147.481527 201.332361,140.283082 C203.202679,133.084638 198.895335,125.730135 191.702069,123.84 C190.586848,123.560547 189.442097,123.416064 188.292414,123.409655 L188.305655,123.396414 Z" id="Shape" fill="url(#linearGradient-6)" fill-rule="nonzero" opacity="0.31"></path>
                            <path d="M148.303448,100.634483 C187.034483,100.634483 218.482759,131.884138 218.813793,170.548966 L224.441379,170.548966 C224.110345,128.772414 190.146207,94.9737931 148.303448,94.9737931 C106.46069,94.9737931 72.4634483,128.73931 72.1655172,170.548966 L77.7931034,170.548966 C78.1241379,131.870897 109.552552,100.634483 148.303448,100.634483 Z" id="Shape" fill="#FF96E7" fill-rule="nonzero"></path>
                            <path d="M218.793931,167.589517 C218.462897,128.92469 187.047724,97.6750345 148.283586,97.6750345 C109.519448,97.6750345 78.1241379,128.92469 77.7931034,167.589517 L72.2317241,167.589517 C72.1986207,168.582621 72.1655172,169.575724 72.1655172,170.568828 L77.8262069,170.568828 C78.1572414,131.904 109.572414,100.654345 148.336552,100.654345 C187.10069,100.654345 218.515862,131.904 218.846897,170.568828 L224.474483,170.568828 C224.474483,169.575724 224.441379,168.582621 224.375172,167.589517 L218.793931,167.589517 Z" id="Shape" fill="#FF7FE2" fill-rule="nonzero"></path>
                            <path d="M148.303448,100.634483 C109.572414,100.634483 78.1241379,131.884138 77.7931034,170.548966 L83.0234483,170.548966 C83.3544828,134.764138 112.41931,105.864828 148.270345,105.864828 C184.121379,105.864828 213.21931,134.764138 213.550345,170.548966 L218.78069,170.548966 C218.482759,131.870897 187.034483,100.634483 148.303448,100.634483 Z" id="Shape" fill="#F65555" fill-rule="nonzero"></path>
                            <path d="M213.563586,167.721931 C213.232552,131.937103 184.167724,103.037793 148.31669,103.037793 C112.465655,103.037793 83.3677241,131.937103 83.0697931,167.721931 L77.9056552,167.721931 C77.8725517,168.648828 77.8394483,169.608828 77.8063448,170.535724 L83.0366897,170.535724 C83.3677241,134.750897 112.432552,105.851586 148.283586,105.851586 C184.134621,105.851586 213.232552,134.750897 213.563586,170.535724 L218.793931,170.535724 C218.793931,169.575724 218.760828,168.648828 218.727724,167.721931 L213.563586,167.721931 Z" id="Shape" fill="#F43D3D" fill-rule="nonzero"></path>
                            <path d="M148.303448,110.717793 C181.473103,110.717793 208.386207,137.465379 208.717241,170.535724 L213.550345,170.535724 C213.21931,134.750897 184.154483,105.851586 148.303448,105.851586 C112.452414,105.851586 83.3213793,134.750897 83.0234483,170.535724 L87.8565517,170.535724 C88.1870605,137.39165 115.15773,110.701617 148.303448,110.717793 Z" id="Shape" fill="#FDDE66" fill-rule="nonzero"></path>
                            <path d="M208.697379,167.920552 C208.366345,134.817103 181.453241,108.102621 148.283586,108.102621 C115.14929,108.101009 88.196597,134.787867 87.8697931,167.920552 L83.0896552,167.920552 C83.0565517,168.781241 83.0234483,169.675034 83.0234483,170.535724 L87.8565517,170.535724 C88.1833556,137.403039 115.136048,110.716181 148.270345,110.717793 C181.44,110.717793 208.353103,137.465379 208.684138,170.535724 L213.517241,170.535724 C213.517241,169.675034 213.484138,168.781241 213.451034,167.920552 L208.697379,167.920552 Z" id="Shape" fill="#FDD434" fill-rule="nonzero"></path>
                            <path d="M148.303448,110.717793 C115.169152,110.716181 88.216459,137.403039 87.8896552,170.535724 L92.3586207,170.535724 C93.0972579,140.17737 117.919559,115.951666 148.286897,115.951666 C178.654235,115.951666 203.476535,140.17737 204.215172,170.535724 L208.717241,170.535724 C208.399448,137.432276 181.453241,110.717793 148.303448,110.717793 Z" id="Shape" fill="#4FC843" fill-rule="nonzero"></path>
                            <path d="M204.228414,168.119172 C203.489777,137.760819 178.667476,113.535114 148.300138,113.535114 C117.9328,113.535114 93.1104993,137.760819 92.3718621,168.119172 L87.936,168.119172 C87.9028966,168.913655 87.8697931,169.741241 87.8697931,170.535724 L92.3387586,170.535724 C93.0773959,140.17737 117.899696,115.951666 148.267034,115.951666 C178.634373,115.951666 203.456673,140.17737 204.19531,170.535724 L208.697379,170.535724 C208.697379,169.708138 208.664276,168.913655 208.631172,168.119172 L204.228414,168.119172 Z" id="Shape" fill="#3AC12D" fill-rule="nonzero"></path>
                            <path d="M148.303448,119.357793 C176.662552,119.364874 199.7419,142.178602 200.077241,170.535724 L204.248276,170.535724 C203.509639,140.17737 178.687338,115.951666 148.32,115.951666 C117.952662,115.951666 93.1303614,140.17737 92.3917241,170.535724 L96.5296552,170.535724 C96.8408276,142.166069 119.947034,119.357793 148.303448,119.357793 Z" id="Shape" fill="#5CCBEC" fill-rule="nonzero"></path>
                            <path d="M200.057379,168.28469 C199.948072,154.557678 194.389982,141.436361 184.605919,131.807502 C174.821856,122.178644 161.61335,116.831057 147.886345,116.941241 C119.616,117.172966 96.7415172,140.014345 96.5428966,168.28469 L92.4711724,168.28469 C92.438069,169.012966 92.4049655,169.774345 92.4049655,170.535724 L96.5428966,170.535724 C96.6522038,156.808712 102.210294,143.687395 111.994357,134.058537 C121.77842,124.429678 134.986926,119.082091 148.713931,119.192276 C176.984276,119.424 199.858759,142.265379 200.057379,170.535724 L204.228414,170.535724 C204.228414,169.774345 204.19531,169.046069 204.162207,168.28469 L200.057379,168.28469 Z" id="Shape" fill="#3BC0E9" fill-rule="nonzero"></path>
                            <path d="M148.303448,119.357793 C119.944344,119.364874 96.8649967,142.178602 96.5296552,170.535724 L100.369655,170.535724 C100.804506,144.373196 122.137307,123.392025 148.303448,123.392025 C174.46959,123.392025 195.802391,144.373196 196.237241,170.535724 L200.077241,170.535724 C199.754385,142.173303 176.667706,119.352328 148.303448,119.357793 Z" id="Shape" fill="#A558E4" fill-rule="nonzero"></path>
                            <path d="M196.217379,168.450207 C195.782528,142.287679 174.449728,121.306507 148.283586,121.306507 C122.117445,121.306507 100.784644,142.287679 100.349793,168.450207 L96.576,168.450207 C96.5428966,169.145379 96.5097931,169.840552 96.5097931,170.535724 L100.349793,170.535724 C100.784644,144.373196 122.117445,123.392025 148.283586,123.392025 C174.449728,123.392025 195.782528,144.373196 196.217379,170.535724 L200.057379,170.535724 C200.057379,169.840552 200.024276,169.145379 199.991172,168.450207 L196.217379,168.450207 Z" id="Shape" fill="#9841E0" fill-rule="nonzero"></path>
                            <path d="M148.303448,126.739862 C172.575869,126.75756 192.334486,146.265508 192.662069,170.535724 L196.237241,170.535724 C195.802391,144.373196 174.46959,123.392025 148.303448,123.392025 C122.137307,123.392025 100.804506,144.373196 100.369655,170.535724 L103.944828,170.535724 C104.222897,146.237793 124.018759,126.739862 148.303448,126.739862 Z" id="Shape" fill="#C18DED" fill-rule="nonzero"></path>
                            <path d="M192.662069,168.615724 C192.662069,144.117135 172.802038,124.257104 148.303448,124.257104 C123.804859,124.257104 103.944828,144.117135 103.944828,168.615724 L100.435862,168.615724 C100.402759,169.24469 100.369655,169.906759 100.369655,170.535724 L103.944828,170.535724 C103.944827,154.687915 112.399533,140.043936 126.124138,132.120031 C139.848743,124.196127 156.758154,124.196127 170.482759,132.120031 C184.207364,140.043936 192.662069,154.687915 192.662069,170.535724 L196.237241,170.535724 C196.237241,169.873655 196.204138,169.24469 196.171034,168.615724 L192.662069,168.615724 Z" id="Shape" fill="#B576E9" fill-rule="nonzero"></path>
                            <path d="M115.974621,165.868138 C114.962235,165.864193 113.9597,166.066953 113.028414,166.464 C112.551785,164.52699 111.32422,162.859132 109.616448,161.828259 C107.908677,160.797386 105.860982,160.488178 103.924966,160.968828 C103.605789,161.033003 103.294861,161.132944 102.998069,161.266759 C100.819305,157.485249 96.724851,155.222076 92.3637673,155.388742 C88.0026839,155.555407 84.0929018,158.124475 82.2091034,162.061241 C79.9017574,160.48473 76.9113689,160.314792 74.4402737,161.619752 C71.9691784,162.924713 70.4233351,165.490189 70.4242759,168.28469 C70.4301881,168.829277 70.4855884,169.372201 70.5897931,169.906759 C70.1323389,169.813528 69.6662771,169.769141 69.1994483,169.774345 C65.6705889,169.763331 62.6072925,172.20414 61.8299146,175.646328 C61.0525367,179.088515 62.7695662,182.608905 65.9606625,184.115515 C69.1517591,185.622125 72.9610878,184.71089 75.1249655,181.92331 C76.3501539,183.500504 78.15394,184.523732 80.1363343,184.766094 C82.1187284,185.008455 84.1158965,184.449921 85.6849655,183.214345 C85.7842759,183.115034 85.9166897,183.048828 86.016,182.949517 C87.381595,185.688198 90.263998,187.333016 93.3165226,187.115496 C96.3690475,186.897976 98.9890937,184.86106 99.9525517,181.956414 C101.697973,185.731634 106.164844,187.388222 109.949793,185.664 C112.017839,184.714217 113.540855,182.874414 114.087724,180.665379 C116.695516,181.333589 119.461702,180.5598 121.344285,178.63549 C123.226868,176.711181 123.939839,173.928699 123.21463,171.33618 C122.48942,168.74366 120.436206,166.734968 117.828414,166.066759 C117.214659,165.966119 116.595766,165.899809 115.974621,165.868138 Z" id="Shape" fill="url(#linearGradient-7)" fill-rule="nonzero"></path>
                            <path d="M219.806897,162.690207 C218.95448,162.688529 218.110338,162.857357 217.324138,163.186759 C216.477326,159.808793 213.058432,157.751537 209.677241,158.585379 C209.407657,158.658685 209.14241,158.747101 208.882759,158.850207 C207.053558,155.678741 203.618851,153.78066 199.960314,153.919504 C196.301776,154.058348 193.020808,156.211293 191.437241,159.512276 C188.556893,157.550973 184.632474,158.291429 182.664828,161.167448 C181.94388,162.219529 181.562629,163.467261 181.572414,164.742621 C181.582091,165.197736 181.626356,165.651458 181.704828,166.099862 C181.322136,166.033957 180.934532,166.000734 180.546207,166.000552 C177.585752,165.982153 175.008903,168.020423 174.345127,170.905562 C173.681351,173.790702 175.108392,176.750136 177.779242,178.027317 C180.450091,179.304497 183.649556,178.557425 185.478621,176.229517 C186.510032,177.551114 188.02431,178.408727 189.688176,178.613606 C191.352043,178.818486 193.029136,178.353839 194.350345,177.321931 C194.445622,177.253078 194.534281,177.175501 194.615172,177.090207 C195.749814,179.399067 198.17024,180.79026 200.736409,180.60852 C203.302577,180.426781 205.502775,178.708348 206.30069,176.262621 C207.41255,178.694925 209.937053,180.162039 212.600819,179.923937 C215.264584,179.685835 217.488869,177.794249 218.151724,175.20331 C218.671227,175.334442 219.204892,175.40115 219.74069,175.401931 C221.41759,175.401931 223.025808,174.735785 224.211555,173.550038 C225.397302,172.364291 226.063448,170.756072 226.063448,169.079172 C226.103656,167.395689 225.46174,165.76742 224.283532,164.564276 C223.105323,163.361131 221.490853,162.68526 219.806897,162.690207 Z" id="Shape" fill="url(#linearGradient-8)" fill-rule="nonzero"></path>
                            <path d="M190.159448,177.487448 C188.351932,177.486547 186.562442,177.846696 184.896,178.546759 C184.031298,175.083162 181.826057,172.104949 178.765438,170.267336 C175.704819,168.429723 172.03955,167.883248 168.576,168.748138 C168.00419,168.894425 167.440624,169.07123 166.887724,169.277793 C162.994872,162.500227 155.663515,158.441636 147.853238,158.740428 C140.042962,159.03922 133.043112,163.646068 129.679448,170.701241 C125.114203,167.566608 119.096274,167.543026 114.506602,170.641786 C109.916931,173.740544 107.689438,179.331099 108.890483,184.737103 C108.072589,184.577998 107.240935,184.500377 106.407724,184.505379 C100.093593,184.49899 94.6198199,188.873294 93.2335505,195.033371 C91.8472807,201.193447 94.9194624,207.490941 100.627619,210.190059 C106.335775,212.889177 113.152479,211.267671 117.033931,206.287448 C119.223562,209.102549 122.4423,210.931936 125.98136,211.372766 C129.520421,211.813597 133.089583,210.82972 135.902897,208.637793 L136.498759,208.141241 C138.926869,213.060352 144.091466,216.019752 149.563157,215.62736 C155.034847,215.234968 159.724311,211.568902 161.425655,206.353655 C163.813887,211.545938 169.215559,214.669082 174.906977,214.148299 C180.598395,213.627516 185.343554,209.575903 186.749793,204.036414 C193.953361,205.886901 201.295974,201.55932 203.166292,194.360875 C205.03661,187.162431 200.729266,179.807928 193.536,177.917793 C192.431243,177.642482 191.297943,177.498042 190.159448,177.487448 Z" id="Shape" fill="url(#linearGradient-9)" fill-rule="nonzero" opacity="0.93"></path>
                            <g opacity="0.93" transform="translate(0.000000, 153.600000)" fill-rule="nonzero" id="Shape">
                                <path d="M284.504276,42.4915862 C292.889073,37.1879358 295.611765,26.2228453 290.681751,17.6130548 C285.751737,9.00326423 274.916904,5.80128781 266.098759,10.3481379 C262.697015,3.75491911 255.691924,-0.1751431 248.292053,0.358051154 C240.892181,0.891245409 234.522886,5.78499264 232.101517,12.7977931 C225.628817,9.81632518 217.963695,12.6278565 214.953931,19.0874483 C214.854621,19.286069 214.788414,19.4846897 214.689103,19.6833103 C211.024917,16.7104516 205.650306,17.2420066 202.639448,20.8750345 C201.748868,21.95424 201.145367,23.2409479 200.884966,24.6157241 C194.796582,20.1743121 186.2607,21.5080437 181.817379,27.5950345 C180.12578,29.9368989 179.211144,32.7502696 179.202207,35.6391724 L179.202207,35.904 C174.530704,33.5221082 168.812734,35.3737824 166.424276,40.041931 C166.102365,40.6758382 165.847202,41.341482 165.662897,42.0281379 C160.435485,40.3487434 154.709211,41.5857094 150.641107,45.2730833 C146.573003,48.9604572 144.78111,54.538039 145.940417,59.9048074 C147.099724,65.2715762 151.034106,69.6121917 156.261517,71.2915862 C157.780309,71.7802729 159.366743,72.0260587 160.962207,72.0198621 C161.682396,72.0141156 162.401336,71.9588127 163.113931,71.8543448 C165.116786,78.2094409 170.983386,82.5525958 177.646345,82.6129655 C178.64097,90.5161927 185.511083,96.348427 193.470943,96.0469172 C201.430803,95.7454073 207.840027,89.4101677 208.233931,81.4543448 C208.598069,81.4874483 208.929103,81.4874483 209.293241,81.4874483 C215.196641,81.489652 220.577524,78.1040723 223.130483,72.7812414 C228.173107,77.1513491 235.45551,77.7793728 241.171862,74.3371034 C244.459298,77.9946598 249.065345,80.1960735 253.976246,80.4568294 C258.887148,80.7175852 263.700418,79.0163123 267.35669,75.7274483 C267.855679,75.2781216 268.330811,74.8029891 268.780138,74.304 C276.838825,75.6473581 284.826881,71.5566833 288.446993,64.2326248 C292.067105,56.9085663 290.465698,48.0780424 284.504276,42.4915862 Z" fill="url(#linearGradient-10)"></path>
                                <path d="M8.78565517,42.4915862 C0.147789109,36.9972447 -2.40128115,25.5412488 3.09186207,16.9026207 C8.22723006,8.82254602 18.670746,5.9821392 27.1911724,10.3481379 C30.5929163,3.75491911 37.5980067,-0.1751431 44.9978784,0.358051154 C52.3977501,0.891245409 58.7670452,5.78499264 61.1884138,12.7977931 C67.6611145,9.81632518 75.3262365,12.6278565 78.336,19.0874483 C78.4353103,19.286069 78.5015172,19.4846897 78.6008276,19.6833103 C82.2650142,16.7104516 87.6396255,17.2420066 90.6504828,20.8750345 C91.5410635,21.95424 92.1445639,23.2409479 92.4049655,24.6157241 C98.4933491,20.1743121 107.029231,21.5080437 111.472552,27.5950345 C113.164152,29.9368989 114.078787,32.7502696 114.087724,35.6391724 L114.087724,35.904 C118.759227,33.5221082 124.477197,35.3737824 126.865655,40.041931 C127.187566,40.6758382 127.442729,41.341482 127.627034,42.0281379 C133.400191,40.1764641 139.722499,41.8892316 143.771522,46.4018178 C147.820546,50.9144041 148.840667,57.3846826 146.376478,62.924159 C143.912289,68.4636358 138.42365,72.038548 132.360828,72.0529655 C131.640639,72.0472191 130.921699,71.9919161 130.209103,71.8874483 C128.206249,78.2425443 122.339649,82.5856992 115.67669,82.646069 C114.69471,90.5757719 107.802944,96.431995 99.8187148,96.1212576 C91.8344855,95.8105202 85.4187125,89.4363817 85.056,81.4543448 C84.6918621,81.4874483 84.3608276,81.4874483 83.9966897,81.4874483 C78.0958292,81.4808557 72.7192383,78.0979766 70.1594483,72.7812414 C65.1168238,77.1513491 57.8344214,77.7793728 52.118069,74.3371034 C48.8306334,77.9946598 44.2245865,80.1960735 39.3136846,80.4568294 C34.4027828,80.7175852 29.5895133,79.0163123 25.9332414,75.7274483 C25.4342524,75.2781216 24.9591199,74.8029891 24.5097931,74.304 C19.6590439,75.1075634 14.68776,73.9511441 10.6896873,71.0891699 C6.69161472,68.2271954 3.99429478,63.8941324 3.19117241,59.0433103 C2.18821059,52.9390841 4.28499244,46.7355873 8.78565517,42.4915862 Z" fill="url(#linearGradient-11)"></path>
                            </g>
                            <path d="M16.9953103,55.7991724 C12.9857603,64.3267015 15.4982723,74.4971172 23.0175289,80.1765557 C30.5367855,85.8559942 41.0066056,85.4913825 48.1125517,79.3026207 C51.441362,86.1834038 58.4109209,90.5554517 66.0546207,90.5577931 C66.518069,90.5577931 66.9815172,90.5246897 67.4449655,90.4915862 C67.9626409,100.798152 76.2652035,109.00326 86.5771637,109.399212 C96.8891235,109.795164 105.796421,102.250869 107.102897,92.0143448 C115.741696,91.9519031 123.352596,86.3206394 125.938759,78.0777931 C126.85978,78.2097822 127.789017,78.2761562 128.719448,78.2764138 C137.53222,78.2734351 145.298024,72.486094 147.820138,64.041931 C150.327385,72.5011826 158.097834,78.3054521 166.920828,78.3095172 C167.851259,78.3092597 168.780496,78.2428856 169.701517,78.1108966 C172.28768,86.3537429 179.89858,91.9850066 188.537379,92.0474483 C189.844335,102.292784 198.758916,109.843967 209.079685,109.448007 C219.400453,109.052048 227.710275,100.840046 228.228414,90.5246897 C228.691862,90.5577931 229.15531,90.5908966 229.618759,90.5908966 C237.264981,90.5973279 244.238818,86.2225963 247.560828,79.3357241 C254.668383,85.5160449 265.13237,85.876326 272.648174,80.1994954 C280.163977,74.5226648 282.67906,64.3590445 278.678069,55.8322759 C284.96003,52.3040531 288.846436,45.6579194 288.840828,38.4529655 C288.822585,27.4565924 279.908935,18.5488648 268.912552,18.537931 L268.8,18.537931 C268.866074,17.9554367 268.899231,17.3696782 268.89931,16.7834483 C268.900189,12.3407114 267.135707,8.07968537 263.994218,4.93819597 C260.852728,1.79670654 256.591703,0.0322251767 252.148966,0.0331034483 C245.32553,0.0300159745 239.183079,4.16863922 236.623448,10.4937931 C234.64362,8.872095 232.164735,7.98343799 229.605517,7.97793103 C224.335012,7.9712732 219.791591,11.6835809 218.747586,16.8496552 C215.722999,14.6326572 212.070094,13.4382155 208.32,13.44 C198.555421,13.4436408 190.637502,21.3526725 190.622897,31.1172414 L190.622897,31.4482759 C188.893872,30.5538261 186.975092,30.0883231 185.028414,30.0910345 C179.394658,30.0861494 174.474779,33.9021219 173.078069,39.36 C162.611747,35.9666761 151.375254,41.6945614 147.972414,52.1577931 C147.917356,52.3089451 147.873107,52.4638176 147.84,52.6212414 C146.343336,47.552346 142.891889,43.2869492 138.246794,40.765681 C133.601698,38.2444125 128.144489,37.6743625 123.078621,39.1812414 C122.908472,39.2214022 122.742284,39.2767981 122.582069,39.3467586 C121.185359,33.8888806 116.26548,30.072908 110.631724,30.0777931 C108.685046,30.0750818 106.766266,30.5405847 105.037241,31.4350345 L105.037241,31.104 C105.036369,26.4102332 103.169125,21.9094458 99.8470275,18.5935576 C96.5249297,15.2776694 92.0206567,13.4188492 87.3268966,13.4267586 C83.5776079,13.4300266 79.926233,14.6239682 76.8993103,16.8364138 C75.8459444,11.6759899 71.3082134,7.9683315 66.0413793,7.96468966 C63.4812089,7.96473309 61.0005411,8.85402915 59.0234483,10.4805517 C56.4557124,4.16197274 50.3183166,0.026755027 43.497931,0.019862069 C39.055194,0.0189837973 34.7941682,1.78346517 31.6526787,4.92495459 C28.5111893,8.06644399 26.7467079,12.32747 26.7475862,16.7702069 C26.7515613,17.3611055 26.7891392,17.9512998 26.8601379,18.537931 L26.7608276,18.537931 C15.7547448,18.537931 6.83255172,27.4601241 6.83255172,38.4662069 C6.8324835,45.6576225 10.71967,52.2873646 16.9953103,55.7991724 Z" id="Shape" fill="url(#linearGradient-12)" fill-rule="nonzero" opacity="0.1"></path>
                        </g>
                    </g>
                </g>
            </g>
        </g>
    </g>
</svg>