<?xml version="1.0" encoding="UTF-8"?>
<svg width="309px" height="167px" viewBox="0 0 309 167" version="1.1" xmlns="http://www.w3.org/2000/svg" xmlns:xlink="http://www.w3.org/1999/xlink">
    <!-- Generator: Sketch 51.3 (57544) - http://www.bohemiancoding.com/sketch -->
    <title>rainbows-background-3</title>
    <desc>Created with Sketch.</desc>
    <defs>
        <rect id="path-1" x="0" y="0" width="309" height="167"></rect>
        <radialGradient cx="50%" cy="4.574%" fx="50%" fy="4.574%" r="115.247519%" gradientTransform="translate(0.500000,0.045740),scale(0.569227,1.000000),translate(-0.500000,-0.045740)" id="radialGradient-3">
            <stop stop-color="#C2FFFF" offset="0%"></stop>
            <stop stop-color="#91E1E8" offset="100%"></stop>
        </radialGradient>
    </defs>
    <g id="components" stroke="none" stroke-width="1" fill="none" fill-rule="evenodd">
        <g id="rainbows-background-3">
            <mask id="mask-2" fill="white">
                <use xlink:href="#path-1"></use>
            </mask>
            <use id="Mask" fill="#D8D8D8" fill-rule="nonzero" xlink:href="#path-1"></use>
            <g id="298366-P7PM1L-759" mask="url(#mask-2)">
                <g transform="translate(-128.000000, -83.000000)" id="BACKGROUND_2">
                    <g>
                        <rect id="Rectangle-path" fill="url(#radialGradient-3)" fill-rule="nonzero" x="0" y="0" width="880.644947" height="501.286883"></rect>
                        <g id="Group" transform="translate(0.000000, 0.782039)">
                            <path d="M268.096165,262.749402 C265.87127,262.744797 263.706283,263.470065 261.933214,264.813985 C261.141968,260.506307 258.091127,256.958993 253.950131,255.53179 C249.809135,254.104587 245.220347,255.018887 241.94273,257.924223 C240.730698,252.211093 236.0612,247.874439 230.273804,247.087065 C224.486408,246.29969 218.827919,249.231222 216.13342,254.412869 C210.831941,248.853315 202.438382,247.588871 195.734105,251.339823 C189.029829,255.090775 185.716498,262.905066 187.681541,270.331311 C189.646584,277.757556 196.391238,282.910843 204.073433,282.855621 L268.096165,282.855621 C271.754938,282.957669 275.180319,281.06419 277.039802,277.911763 C278.899286,274.759336 278.899286,270.845687 277.039802,267.69326 C275.180319,264.540833 271.754938,262.647354 268.096165,262.749402 Z" id="Shape" fill="#FFFEF3" fill-rule="nonzero" opacity="0.7"></path>
                            <path d="M494.819223,114.772017 C491.712065,114.761001 488.688071,115.775334 486.21612,117.65774 C485.117531,111.665393 480.875725,106.729522 475.116436,104.741873 C469.357148,102.754224 462.973627,104.023077 458.412454,108.062124 C456.706526,100.135219 450.218636,94.1253525 442.184047,93.0294149 C434.149457,91.9334773 426.288795,95.9861662 422.52187,103.166561 C415.120062,95.4528667 403.439266,93.717792 394.114618,98.9469255 C384.78997,104.176059 380.17957,115.047011 382.902301,125.384667 C385.625032,135.722323 394.992345,142.912405 405.683251,142.870672 L494.842686,142.870672 C500.071737,143.197211 505.049558,140.593127 507.762936,136.111605 C510.476315,131.630084 510.476315,126.012605 507.762936,121.531084 C505.049558,117.049562 500.071737,114.445478 494.842686,114.772017 L494.819223,114.772017 Z" id="Shape" fill="#FFFEF3" fill-rule="nonzero" opacity="0.7"></path>
                            <path d="M852.293811,291.153052 C852.293811,176.498341 759.364652,83.6312313 644.638358,83.6312313 C529.912064,83.6312313 436.975084,176.498341 436.975084,291.458048 L486.794874,291.458048 C486.794874,291.458048 488.288685,127.839886 646.343337,123.022527 C804.397988,118.205168 813.439068,291.332921 813.439068,291.332921 L852.293811,291.153052 Z" id="Shape" fill="#FF9C37" fill-rule="nonzero"></path>
                            <path d="M296.767962,187.446885 L335.466285,187.446885 C335.466285,187.446885 447.86192,195.431501 440.783913,479.514922 L404.244186,479.569665 C394.022135,433.374632 353.736148,203.8697 296.767962,187.446885 Z" id="Shape" fill="#FF735E" fill-rule="nonzero"></path>
                            <path d="M281.649963,187.446885 L320.363928,187.446885 C320.363928,187.446885 432.767385,195.431501 425.689377,479.514922 L389.141829,479.569665 C378.904136,433.374632 338.594686,203.8697 281.649963,187.446885 Z" id="Shape" fill="#FF9C37" fill-rule="nonzero"></path>
                            <path d="M261.503059,187.446885 L300.209203,187.446885 C300.209203,187.446885 412.61266,195.431501 405.534652,479.514922 L368.987104,479.569665 C358.749411,433.374632 318.463424,203.8697 261.503059,187.446885 Z" id="Shape" fill="#FFDE5B" fill-rule="nonzero"></path>
                            <path d="M241.348334,187.446885 L280.062299,187.446885 C280.062299,187.446885 392.457935,195.431501 385.379927,479.514922 L348.832379,479.569665 C338.594686,433.374632 298.316521,203.8697 241.348334,187.446885 Z" id="Shape" fill="#9AEA8F" fill-rule="nonzero"></path>
                            <path d="M217.635053,187.446885 L255.957968,187.446885 C255.957968,187.446885 362.957111,189.730438 365.076603,479.514922 L322.131475,479.561845 C311.870319,433.358991 274.603239,203.8697 217.635053,187.446885 Z" id="Shape" fill="#79D6FF" fill-rule="nonzero"></path>
                            <path d="M207.452107,187.446885 L236.514954,187.446885 C236.514954,187.446885 335.231655,182.31671 337.241653,479.514922 L292.615009,479.514922 C282.377316,433.32771 264.412472,203.8697 207.452107,187.446885 Z" id="Shape" fill="#9397D4" fill-rule="nonzero"></path>
                            <path d="M203.635457,187.446885 L215.27311,187.446885 C215.27311,187.446885 305.066046,183.239516 299.489671,479.413257 L247.949261,479.851199 C249.669881,283.637659 246.635332,215.600282 203.635457,187.446885 Z" id="Shape" fill="#F595B0" fill-rule="nonzero"></path>
                            <path d="M335.591421,187.446885 L203.635457,187.446885 C246.650974,215.600282 249.669881,283.590737 247.980545,479.788636 L440.955975,479.577485 C448.033983,195.501884 335.591421,187.446885 335.591421,187.446885 Z" id="Shape" fill="#F5708F" fill-rule="nonzero" opacity="0.7" style="mix-blend-mode: multiply;"></path>
                            <path d="M616.510486,246.78799 C611.478915,246.778989 606.627531,248.660218 602.917583,252.058932 C603.134298,250.695806 603.244126,249.317828 603.246065,247.937587 C603.250583,237.57135 597.12581,228.182816 587.636066,224.009351 C578.146322,219.835886 567.086567,221.666891 559.448448,228.675971 C563.808903,209.384795 551.703933,190.211638 532.41124,185.851525 C513.118547,181.491413 493.943883,193.595431 489.583427,212.886607 C482.456534,205.258468 471.494132,202.563837 461.64257,206.018559 C451.791007,209.473282 444.913055,218.424126 444.112115,228.832379 C447.795808,248.461553 432.443179,261.842237 414.861564,270.74966 C414.814638,271.218883 414.783354,271.703747 414.783354,272.188611 C414.765312,280.578404 421.496157,287.423738 429.885711,287.547853 L616.510486,287.547853 C627.766897,287.547853 636.89202,278.423447 636.89202,267.167922 C636.89202,255.912396 627.766897,246.78799 616.510486,246.78799 Z" id="Shape" fill="#F5708F" fill-rule="nonzero" opacity="0.16" style="mix-blend-mode: multiply;"></path>
                            <path d="M0.218988086,165.143137 C0.179883071,74.0043335 74.1196462,0.0860242701 165.242153,0.0469223291 C256.36466,0.00782038819 330.413917,73.8870276 330.453022,165.010191 L302.000213,165.010191 C302.000213,165.010191 276.910435,22.905917 160.346205,27.0820043 C43.7819753,31.2580916 31.1823393,165.40121 31.1823393,165.40121 L0.218988086,165.143137 Z" id="Shape" fill="#FF735E" fill-rule="nonzero"></path>
                            <path d="M310.978725,165.010191 C310.978725,84.5931391 245.743738,19.441485 165.328184,19.480587 C126.691375,19.4305878 89.624815,34.7658362 62.3183875,62.0979978 C35.01196,89.4301594 19.713344,126.509437 19.8023899,165.143137 L54.7313796,165.143137 C54.7313796,165.143137 55.724647,50.5197077 166.532619,47.0865573 C277.34059,43.6534069 283.738171,165.096215 283.738171,165.096215 L310.978725,165.010191 Z" id="Shape" fill="#FF9C37" fill-rule="nonzero"></path>
                            <path d="M292.036255,165.018011 C292.040408,131.405461 278.685987,99.1689721 254.912789,75.4049767 C231.139591,51.6409812 198.896449,38.2975576 165.281258,38.3120818 C95.2676385,38.3120818 38.5810082,95.510401 38.6357552,165.135317 L70.6236578,165.135317 C70.6236578,165.135317 79.4144653,65.9727948 170.372731,65.9258725 C261.330997,65.8789501 267.095076,165.299545 267.095076,165.299545 L292.036255,165.018011 Z" id="Shape" fill="#FFDE5B" fill-rule="nonzero"></path>
                            <path d="M274.595418,165.025832 C274.061053,105.11105 225.32087,56.8298887 165.399001,56.8577961 C105.477132,56.8857035 56.7819496,105.212243 56.3034012,165.127497 L85.3427856,165.127497 C85.3427856,165.127497 100.687594,87.7056536 165.414215,87.6352701 C230.140837,87.5648866 244.59405,165.119676 244.59405,165.119676 L274.595418,165.025832 Z" id="Shape" fill="#9AEA8F" fill-rule="nonzero"></path>
                            <path d="M254.909953,165.033652 C254.886197,115.614726 214.801833,75.5720275 165.379021,75.5957825 C115.956209,75.6195374 75.9103621,115.70075 75.9341084,165.119676 L103.604828,165.119676 C103.604828,165.119676 109.462759,104.120648 165.390752,104.120648 C221.318745,104.120648 230.08609,165.119676 230.08609,165.119676 L254.909953,165.033652 Z" id="Shape" fill="#79D6FF" fill-rule="nonzero"></path>
                            <path d="M165.382931,94.040168 C146.524411,93.9963579 128.426576,101.472185 115.097425,114.81203 C101.768275,128.151875 94.3078015,146.254864 94.367859,165.111856 L112.035869,165.111856 C112.022911,135.634127 135.910706,111.727203 165.390752,111.714245 C194.870799,111.701288 218.779603,135.587205 218.792561,165.064934 L236.460207,165.064934 C236.506096,146.205828 229.03085,128.106605 215.689957,114.775568 C202.349064,101.444531 184.243486,93.9818278 165.382931,94.040168 Z" id="Shape" fill="#9397D4" fill-rule="nonzero"></path>
                            <path d="M166.125926,108.37494 C151.059904,108.297371 136.589185,114.250771 125.940166,124.907768 C115.291147,135.564765 109.349255,150.039267 109.438288,165.104036 L125.863403,165.104036 C125.863403,141.893123 142.569065,125.439027 166.102463,125.423386 C189.635862,125.407745 205.778412,141.846201 205.786233,165.072754 L222.843841,165.072754 C222.923454,150.00858 216.972898,135.538592 206.318464,124.887933 C195.664029,114.237274 181.191262,108.291177 166.125926,108.37494 Z" id="Shape" fill="#F595B0" fill-rule="nonzero"></path>
                            <path d="M165.586277,0.860242701 C74.4324863,0.860242701 0.500544197,74.8098334 0.563072538,165.956458 L126.238811,165.909535 C126.238811,142.698623 142.944473,126.236706 166.477872,126.228886 C190.01127,126.221065 206.145999,142.651701 206.15382,165.878254 L330.773683,165.823511 C330.726757,74.700348 256.732247,0.82114076 165.586277,0.860242701 Z" id="Shape" fill="#F5708F" fill-rule="nonzero" opacity="0.4" style="mix-blend-mode: multiply;"></path>
                            <path d="M320.496885,158.785162 C319.087531,151.049359 313.613383,144.675934 306.178532,142.114629 C298.74368,139.553325 290.505223,141.202762 284.629765,146.428948 C282.432356,136.220369 274.076639,128.480882 263.729239,127.069824 C253.381838,125.658767 243.258642,130.878316 238.407637,140.125716 C232.932935,134.495036 225.213605,130.623944 216.719995,130.991502 C199.75624,131.726619 197.386476,137.326017 195.78317,137.584089 C197.26134,139.476623 204.644367,148.978395 204.581799,151.215026 C204.495768,154.139851 208.054324,187.032404 207.890083,190.074535 C210.682181,190.919137 330.679831,190.074535 330.679831,190.074535 C330.539053,177.632297 330.492127,166.058123 330.257497,155.438036 C326.742303,155.55199 323.342167,156.717971 320.496885,158.785162 Z" id="Shape" fill="#F5708F" fill-rule="nonzero" opacity="0.3" style="mix-blend-mode: multiply;"></path>
                            <path d="M334.066326,160.075526 C330.075207,160.070255 326.192726,161.375304 323.015248,163.79021 C321.59411,156.067328 316.119882,149.710195 308.693064,147.158085 C301.266246,144.605975 293.040305,146.25526 287.171591,151.473099 C284.956586,141.272254 276.593894,133.548209 266.248869,132.148214 C255.903843,130.748219 245.78869,135.971653 240.941642,145.216788 C231.48207,135.200573 216.434501,132.872826 204.390237,139.562559 C192.345974,146.252293 186.371084,160.256522 189.876889,173.579633 C193.382695,186.902743 205.476734,196.153114 219.254,196.049312 L334.066326,196.049312 C344.000993,196.049312 352.054633,187.996305 352.054633,178.062419 C352.054633,168.128532 344.000993,160.075526 334.066326,160.075526 Z" id="Shape" fill="#FFFEF3" fill-rule="nonzero"></path>
                            <path d="M340.049393,187.595472 C317.970701,189.081346 295.712127,191.59169 273.570867,190.606321 C254.863027,189.76954 233.636825,187.689317 220.982442,172.079822 C212.980453,162.3843 209.149771,149.911656 210.330236,137.3964 C195.994205,141.755732 187.027528,155.972093 189.270161,170.786432 C191.512793,185.600771 204.285571,196.526674 219.269642,196.448151 L334.081968,196.448151 C340.791259,196.47684 346.976482,192.826044 350.193234,186.938559 C346.804133,187.15753 343.422852,187.376501 340.049393,187.595472 Z" id="Shape" fill="#F4F2E1" fill-rule="nonzero" opacity="0.5" style="mix-blend-mode: multiply;"></path>
                            <path d="M267.423558,176.865899 C263.53608,176.865899 260.384656,173.714723 260.384656,169.82755 C260.353782,169.50784 260.506938,169.19829 260.779829,169.02885 C261.052719,168.85941 261.398107,168.85941 261.670998,169.02885 C261.943889,169.19829 262.097045,169.50784 262.066171,169.82755 C262.176076,172.700134 264.536915,174.972203 267.411827,174.972203 C270.286738,174.972203 272.647578,172.700134 272.757482,169.82755 C272.726609,169.50784 272.879765,169.19829 273.152655,169.02885 C273.425546,168.85941 273.770934,168.85941 274.043825,169.02885 C274.316716,169.19829 274.469872,169.50784 274.438998,169.82755 C274.43902,173.705579 271.301871,176.852973 267.423558,176.865899 Z" id="Shape" fill="#212121" fill-rule="nonzero"></path>
                            <path d="M280.343855,166.918366 C280.120548,166.918375 279.906499,166.829142 279.749333,166.670519 C279.592167,166.511897 279.504921,166.297044 279.507008,166.073764 C279.439628,164.976462 278.529986,164.121027 277.430532,164.121027 C276.331077,164.121027 275.421436,164.976462 275.354055,166.073764 C275.354055,166.535905 274.979386,166.910545 274.517208,166.910545 C274.05503,166.910545 273.680361,166.535905 273.680361,166.073764 C273.680361,164.000605 275.36112,162.319977 277.434442,162.319977 C279.507764,162.319977 281.188524,164.000605 281.188524,166.073764 C281.188524,166.297766 281.099532,166.512594 280.941126,166.670987 C280.78272,166.829381 280.567875,166.918366 280.343855,166.918366 Z" id="Shape" fill="#212121" fill-rule="nonzero"></path>
                            <path d="M260.447224,166.918366 C260.223916,166.918375 260.009867,166.829142 259.852701,166.670519 C259.695535,166.511897 259.608289,166.297044 259.610376,166.073764 C259.542996,164.976462 258.633355,164.121027 257.5339,164.121027 C256.434445,164.121027 255.524804,164.976462 255.457424,166.073764 C255.488297,166.393474 255.335141,166.703023 255.062251,166.872463 C254.78936,167.041903 254.443972,167.041903 254.171081,166.872463 C253.89819,166.703023 253.745034,166.393474 253.775908,166.073764 C253.775908,164.000605 255.456668,162.319977 257.529989,162.319977 C259.603311,162.319977 261.284071,164.000605 261.284071,166.073764 C261.286158,166.297044 261.198913,166.511897 261.041746,166.670519 C260.88458,166.829142 260.670531,166.918375 260.447224,166.918366 Z" id="Shape" fill="#212121" fill-rule="nonzero"></path>
                            <path d="M286.561553,170.492283 C286.561553,171.555856 285.263266,172.416098 283.659961,172.416098 C282.056655,172.416098 280.758369,171.555856 280.758369,170.492283 C280.758369,169.42871 282.056655,168.568467 283.659961,168.568467 C285.263266,168.568467 286.561553,169.459992 286.561553,170.492283 Z" id="Shape" fill="#F595B0" fill-rule="nonzero"></path>
                            <path d="M252.563653,170.492283 C252.563653,171.555856 251.265366,172.416098 249.66206,172.416098 C248.058755,172.416098 246.752647,171.555856 246.752647,170.492283 C246.752647,169.42871 248.058755,168.568467 249.66206,168.568467 C251.265366,168.568467 252.563653,169.459992 252.563653,170.492283 Z" id="Shape" fill="#F595B0" fill-rule="nonzero"></path>
                            <path d="M301.640447,151.238487 C295.540064,155.985463 307.255927,175.747584 316.500353,165.40121 C321.013071,160.403982 310.822304,144.090652 301.640447,151.238487 Z" id="Shape" fill="#FFFFFF" fill-rule="nonzero"></path>
                            <path d="M468.611042,281.893713 C455.909733,280.63463 443.224066,278.992349 430.663535,276.700975 C421.356541,275.003951 411.611571,273.220902 404.072124,267.042796 C396.423183,260.786485 394.522679,251.800859 394.686921,242.55716 C386.973957,247.308373 383.588107,256.773063 386.537435,265.337951 C380.424912,268.617972 377.325327,275.633588 379.016514,282.360842 C380.707701,289.088095 386.756566,293.804213 393.693653,293.804164 L580.310608,293.804164 C588.340805,293.808417 595.606092,289.042099 598.799459,281.674742 C555.478923,284.974946 511.853368,286.163645 468.611042,281.893713 Z" id="Shape" fill="#F4F2E1" fill-rule="nonzero" opacity="0.5" style="mix-blend-mode: multiply;"></path>
                            <g opacity="0.8" transform="translate(0.782100, 0.000000)" fill="#FFFFFF">
                                <path d="M135.957719,121.127034 C136.114468,120.956049 135.686971,120.186614 135.387722,120.514336 C135.088474,120.842059 135.658471,121.440508 135.957719,121.127034 Z" id="_Path_2694"></path>
                                <path d="M136.901069,212.020652 C136.74432,212.205887 137.171817,212.961073 137.471066,212.633351 C137.770314,212.305628 137.200317,211.707179 136.901069,212.020652 Z" id="_Path_2695"></path>
                                <path d="M134.107179,137.638832 C133.79368,137.638832 133.465932,138.151789 134.107179,138.25153 C134.420677,138.25153 134.748425,137.752823 134.107179,137.638832 Z" id="_Path_2701"></path>
                                <path d="M133.424067,196.291744 C133.424067,196.774011 133.040875,196.861696 132.957052,197.234356 C133.424067,197.234356 133.519864,197.628938 133.903055,197.716623 C133.903055,197.234356 134.298221,197.146671 134.382044,196.774011 C133.855156,196.774011 133.855156,196.379429 133.424067,196.291744 Z" id="_Path_2704"></path>
                                <path d="M133.878,229.927567 C133.599673,229.829214 132.892258,230.64882 132.96184,230.867381 C133.379331,232.12411 135.594349,230.572323 133.878,229.927567 Z" id="_Path_2705"></path>
                                <path d="M129.695501,131.302705 C129.838,131.117471 129.410503,130.362284 129.125504,130.675758 C128.840506,130.989232 129.396253,131.616179 129.695501,131.302705 Z" id="_Path_2709"></path>
                                <polygon id="_Path_2710" points="129.404444 135.750322 129.404444 134.510677 128.264451 134.510677 128.264451 135.750322"></polygon>
                                <path d="M129.44589,210.368442 C128.761894,210.496682 129.089642,211.052385 129.44589,211.608088 C130.015886,211.536844 130.158386,210.51093 129.44589,210.368442 Z" id="_Path_2711"></path>
                                <path d="M128.303548,130.694184 C128.132549,130.850921 128.560047,131.606107 128.859295,131.292634 C129.158543,130.97916 128.588546,130.366462 128.303548,130.694184 Z" id="_Path_2713"></path>
                                <path d="M127.478304,176.628274 C126.976579,176.443039 126.775889,175.759097 126.018741,176.015575 C125.434915,177.725431 127.587771,177.711182 127.478304,176.628274 Z" id="_Path_2715"></path>
                                <path d="M126.733765,200.294168 C126.577016,200.465154 127.004513,201.22034 127.303762,200.906867 C127.60301,200.593393 127.018763,199.966446 126.733765,200.294168 Z" id="_Path_2716"></path>
                                <path d="M291.608502,124.25519 C291.751001,124.084204 291.323504,123.314769 291.024255,123.642491 C290.725007,123.970214 291.309254,124.568663 291.608502,124.25519 Z" id="_Path_3142"></path>
                                <path d="M290.974012,215.142128 C290.817263,215.298865 291.25901,216.0683 291.558258,215.754826 C291.857507,215.441353 291.27326,214.842903 290.974012,215.142128 Z" id="_Path_3143"></path>
                                <path d="M287.409264,140.766987 C287.081516,140.766987 286.753768,141.265695 287.409264,141.393935 C287.722762,141.393935 288.05051,140.880978 287.409264,140.766987 Z" id="_Path_3149"></path>
                                <path d="M286.72371,199.419899 C286.72371,199.891205 286.331837,199.989851 286.248713,200.373472 C286.72371,200.373472 286.81871,200.757094 287.198707,200.844779 C287.198707,200.373472 287.578705,200.285787 287.673705,199.891205 C287.198707,199.891205 287.103708,199.518544 286.72371,199.419899 Z" id="_Path_3152"></path>
                                <path d="M287.192039,233.839678 C286.898763,233.729363 286.183168,234.556724 286.253555,234.788386 C286.628949,236.045976 288.881312,234.424347 287.192039,233.839678 Z" id="_Path_3153"></path>
                                <path d="M285.337554,133.640718 C285.494304,133.455484 285.066806,132.700298 284.767558,133.02802 C284.468309,133.355742 285.052556,133.954192 285.337554,133.640718 Z" id="_Path_3157"></path>
                                <polygon id="_Path_3158" points="285.042405 138.878478 285.042405 137.638832 283.902412 137.638832 283.902412 138.878478"></polygon>
                                <path d="M284.297317,212.714559 C283.613321,212.828549 283.955319,213.384252 284.297317,213.939955 C284.824564,213.925707 284.967063,212.857047 284.297317,212.714559 Z" id="_Path_3159"></path>
                                <path d="M282.371772,133.041696 C282.215023,133.198433 282.64252,133.967868 282.927519,133.640146 C283.212517,133.312423 282.67102,132.713974 282.371772,133.041696 Z" id="_Path_3161"></path>
                                <path d="M283.116242,179.770237 C282.622847,179.572246 282.421834,178.879278 281.65433,179.14798 C281.078702,180.845046 283.225885,180.845046 283.116242,179.770237 Z" id="_Path_3163"></path>
                                <path d="M282.376428,202.640285 C282.205429,202.81127 282.647176,203.566457 282.932175,203.252983 C283.217173,202.93951 282.661426,202.312563 282.376428,202.640285 Z" id="_Path_3164"></path>
                                <path d="M281.527764,123.422936 C281.821681,121.523096 279.72634,121.523096 280.020257,123.422936 L281.527764,123.422936 Z" id="_Path_3169"></path>
                                <path d="M278.461225,163.531548 C278.304475,163.702534 278.731973,164.471969 279.031221,164.158495 C279.33047,163.845022 278.746223,163.218075 278.461225,163.531548 Z" id="_Path_3172"></path>
                                <path d="M279.567703,166.574268 L278.42771,166.574268 L278.42771,167.993757 C279.453704,168.059272 279.752952,167.524234 279.567703,166.574268 Z" id="_Path_3173"></path>
                                <path d="M278.465926,212.778018 C278.294927,212.949004 278.736675,213.70419 279.021673,213.404965 C279.306672,213.10574 278.750925,212.52154 278.465926,212.778018 Z" id="_Path_3175"></path>
                                <path d="M278.359591,210.406341 C277.503343,210.249604 276.948193,210.563078 276.863509,211.645986 C277.522161,211.503498 278.726554,212.272934 278.359591,210.406341 Z" id="_Path_3178"></path>
                                <path d="M276.901726,215.142128 C276.730727,215.298865 277.172474,216.0683 277.457473,215.754826 C277.742471,215.441353 277.172474,214.842903 276.901726,215.142128 Z" id="_Path_3182"></path>
                                <path d="M274.389474,115.647748 C274.546223,115.476763 274.118725,114.721576 273.819477,115.03505 C273.520229,115.348523 274.090225,115.97547 274.389474,115.647748 Z" id="_Path_3187"></path>
                                <path d="M272.216955,199.280701 L273.1344,199.280701 C274.690573,198.282469 271.775652,196.647865 272.216955,199.280701 Z" id="_Path_3188"></path>
                                <path d="M273.763412,212.778018 C273.620913,212.949004 274.048411,213.70419 274.333409,213.404965 C274.618408,213.10574 274.062661,212.52154 273.763412,212.778018 Z" id="_Path_3191"></path>
                                <path d="M271.427024,192.466984 C271.256025,192.652219 271.697772,193.407405 271.98277,193.093931 C272.267769,192.780458 271.669272,192.153511 271.427024,192.466984 Z" id="_Path_3197"></path>
                                <path d="M270.952249,205.506869 C271.279997,205.506869 271.607745,205.02241 270.952249,204.894171 C270.653,204.894171 270.353752,205.392879 270.952249,205.506869 Z" id="_Path_3202"></path>
                                <path d="M269.410532,199.419899 C269.097034,199.419899 268.769286,199.918607 269.410532,200.032597 C269.73828,200.032597 270.051778,199.548138 269.410532,199.419899 Z" id="_Path_3205"></path>
                                <path d="M267.478305,233.829607 C267.606555,234.299817 267.478305,235.040755 268.048302,235.055004 C267.920053,234.513549 268.034052,233.829607 267.478305,233.829607 Z" id="_Path_3210"></path>
                                <path d="M267.054098,224.445141 L265.914105,224.445141 L265.914105,225.866207 C266.940099,225.920863 267.267847,225.385231 267.054098,224.445141 Z" id="_Path_3213"></path>
                                <path d="M264.707519,197.073782 C264.40827,197.073782 264.080522,197.57249 264.707519,197.686481 C265.035267,197.729227 265.363015,197.230519 264.707519,197.073782 Z" id="_Path_3217"></path>
                                <path d="M263.606901,138.507688 C263.435902,138.678673 263.8634,139.433859 264.162648,139.120386 C264.461896,138.806912 263.8919,138.194214 263.606901,138.507688 Z" id="_Path_3222"></path>
                                <path d="M263.606901,158.840697 C263.435902,159.011682 263.8634,159.766869 264.162648,159.453395 C264.461896,159.139922 263.8919,158.527223 263.606901,158.840697 Z" id="_Path_3223"></path>
                                <path d="M261.830915,192.38155 C261.285906,192.467042 260.520574,192.267559 260.439403,192.979999 C260.729301,192.979999 260.996007,193.079741 260.914836,193.606946 C261.471441,193.535702 262.004854,193.421712 261.830915,192.38155 Z" id="_Path_3230"></path>
                                <path d="M258.913419,111.136329 C258.74242,111.307314 259.184167,112.062501 259.469165,111.749027 C259.754164,111.435554 259.198417,110.822855 258.913419,111.136329 Z" id="_Path_3237"></path>
                                <polygon id="_Path_3239" points="259.233095 192.839156 259.233095 191.599511 258.093102 191.599511 258.093102 192.839156"></polygon>
                                <path d="M256.521688,229.574775 C255.780744,229.189328 254.82772,229.049143 253.920698,229.192181 C253.93204,229.60583 253.749765,230.011123 253.4005,230.348859 C254.258827,230.971686 256.677747,230.802633 256.521688,229.574775 Z" id="_Path_3245"></path>
                                <path d="M255.780316,142.424652 C255.623567,142.609886 256.051064,143.365072 256.350312,143.03735 C256.649561,142.709627 256.065314,142.096929 255.780316,142.424652 Z" id="_Path_3247"></path>
                                <path d="M254.21534,92.3728114 C254.058591,92.5295482 254.500338,93.2989832 254.785336,92.9855097 C255.070335,92.6720361 254.514588,92.045089 254.21534,92.3728114 Z" id="_Path_3252"></path>
                                <path d="M252.648369,164.870993 L254.154396,164.870993 C254.448024,162.971153 252.345269,162.971153 252.648369,164.870993 Z" id="_Path_3255"></path>
                                <path d="M251.054199,197.923516 L251.054199,199.402157 C252.808198,199.548301 253.279422,198.7574 254.1826,198.284579 C252.952183,198.301773 252.638034,197.64842 251.054199,197.923516 Z" id="_Path_3256"></path>
                                <polygon id="_Path_3258" points="251.054199 84.4601925 251.054199 85.8850723 252.479191 85.8850723 252.479191 84.4601925"></polygon>
                                <path d="M250.926464,222.005028 C251.083213,221.834042 250.655716,221.078856 250.356468,221.392329 C250.057219,221.705803 250.627216,222.304252 250.926464,222.005028 Z" id="_Path_3260"></path>
                                <polygon id="_Path_3262" points="250.615742 116.199352 250.615742 114.959706 249.489998 114.959706 249.489998 116.199352"></polygon>
                                <path d="M247.511723,194.727666 C247.198225,194.727666 246.870477,195.212125 247.511723,195.326115 C247.839471,195.340364 248.167219,194.855905 247.511723,194.727666 Z" id="_Path_3272"></path>
                                <polygon id="_Path_3273" points="247.143697 240.867956 247.143697 242.107602 248.269441 242.107602 248.269441 240.867956"></polygon>
                                <path d="M246.395112,213.588828 C246.238363,213.759814 246.66586,214.515 246.965109,214.201527 C247.264357,213.888053 246.68011,213.261106 246.395112,213.588828 Z" id="_Path_3277"></path>
                                <path d="M246.361597,246.030809 C245.962726,245.378463 244.836501,245.290009 244.797396,246.506248 C245.196268,247.169651 246.330313,247.258105 246.361597,246.030809 Z" id="_Path_3278"></path>
                                <path d="M245.432201,104.704219 C245.58895,104.533234 245.161453,103.763799 244.876455,104.091521 C244.591456,104.419243 245.147203,105.04619 245.432201,104.704219 Z" id="_Path_3279"></path>
                                <path d="M244.83172,146.329391 C244.674971,146.500377 245.088219,147.269812 245.401717,146.94209 C245.715215,146.614367 245.130969,146.015918 244.83172,146.329391 Z" id="_Path_3283"></path>
                                <path d="M244.952561,178.313542 C244.354065,178.228049 243.52757,178.798001 244.382565,178.940489 C244.981061,179.025982 245.850306,178.45603 244.952561,178.313542 Z" id="_Path_3284"></path>
                                <path d="M242.819121,136.074755 C242.505623,136.074755 242.177875,136.573462 242.819121,136.687453 C243.13262,136.687453 243.446118,136.188745 242.819121,136.074755 Z" id="_Path_3287"></path>
                                <path d="M242.484656,248.781931 C242.327907,248.952917 242.755405,249.722352 243.040403,249.394629 C243.325401,249.066907 242.769655,248.454209 242.484656,248.781931 Z" id="_Path_3288"></path>
                                <path d="M240.504133,104.011163 C239.820137,104.139402 240.147885,104.695105 240.504133,105.23656 C241.11688,105.23656 241.216629,104.153651 240.504133,104.011163 Z" id="_Path_3293"></path>
                                <path d="M240.138309,175.283878 C239.98156,175.469113 240.409058,176.224299 240.708306,175.910825 C241.007554,175.597352 240.423308,174.913409 240.138309,175.283878 Z" id="_Path_3294"></path>
                                <path d="M240.133099,127.567424 C239.9906,127.73841 240.418098,128.493596 240.703096,128.165874 C240.988094,127.838151 240.460847,127.239702 240.133099,127.567424 Z" id="_Path_3297"></path>
                                <path d="M237.758494,98.6737438 L237.758494,97.8198884 C237.312697,98.0623411 236.194293,97.2822757 236.194293,98.2731696 C237.046782,97.9463855 236.827794,99.1797322 237.437833,99.1797322 C237.469117,98.8740309 237.49258,98.5894124 237.758494,98.6737438 Z" id="_Path_3299"></path>
                                <path d="M238.688234,227.581987 C238.103988,227.496495 237.263243,228.066447 238.132488,228.208935 C238.716734,228.351423 239.585979,227.724475 238.688234,227.581987 Z" id="_Path_3300"></path>
                                <path d="M236.551908,160.317958 C236.252659,160.317958 235.924911,160.830915 236.551908,160.930656 C236.879656,160.930656 237.193154,160.431948 236.551908,160.317958 Z" id="_Path_3303"></path>
                                <path d="M234.630092,148.212531 C234.108692,147.433472 233.449564,147.844249 233.065892,148.835779 C234.039828,148.906602 234.285772,149.997285 234.630092,148.212531 Z" id="_Path_3308"></path>
                                <path d="M233.708783,158.451797 C233.239859,158.451797 233.157797,158.070014 232.770935,157.971841 C232.770935,158.582694 232.173056,158.626327 232.30201,159.389893 C232.958851,159.454734 233.563702,159.051394 233.708783,158.451797 Z" id="_Path_3314"></path>
                                <path d="" id="_Path_3316"></path>
                                <path d="M229.15539,191.599511 C229.25514,192.158502 229.069891,192.936706 229.725387,193.02439 C229.639888,192.465399 229.825136,191.676235 229.15539,191.599511 Z" id="_Path_3324"></path>
                                <path d="M228.406029,197.948052 C228.24928,198.119038 228.691028,198.874224 228.976026,198.56075 C229.261025,198.247277 228.705278,197.62033 228.406029,197.948052 Z" id="_Path_3327"></path>
                                <path d="M228.246915,118.008045 C228.417914,117.822811 227.976167,117.067625 227.676919,117.381098 C227.37767,117.694572 227.933417,118.321519 228.246915,118.008045 Z" id="_Path_3331"></path>
                                <path d="M227.451981,96.7229163 C226.84127,96.7229163 226.793371,96.0683382 226.026989,96.2111553 L226.026989,97.2346774 C226.709548,97.8178471 227.188537,97.7940442 227.451981,96.7229163 Z" id="_Path_3333"></path>
                                <polygon id="_Path_3337" points="224.820682 226.466825 224.820682 225.22718 223.680688 225.22718 223.680688 226.466825"></polygon>
                                <path d="M224.427074,129.036405 L222.920322,129.036405 C222.664459,130.936245 224.758749,130.936245 224.427074,129.036405 Z" id="_Path_3339"></path>
                                <path d="M215.111145,86.1110867 C214.954396,86.2820722 215.381894,87.0372585 215.666892,86.723785 C215.951891,86.4103114 215.396144,85.7976131 215.111145,86.1110867 Z" id="_Path_3359"></path>
                                <path d="M215.836021,132.717571 C215.836021,132.717571 215.398317,132.717571 215.362827,132.717571 C215.327338,132.717571 214.39278,132.190282 214.41644,132.16456 C213.742139,132.769014 216.119937,134.698122 215.836021,132.717571 Z" id="_Path_3360"></path>
                                <path d="M214.654167,88.051295 C214.08417,88.051295 213.984421,87.6744775 213.514174,87.5883477 C213.514174,88.3204504 213.442924,89.2032801 214.654167,88.9771895 L214.654167,88.051295 Z" id="_Path_3361"></path>
                                <path d="M211.033933,197.766839 C211.190682,197.595853 210.748935,196.826418 210.463936,197.15414 C210.178938,197.481863 210.734685,198.094561 211.033933,197.766839 Z" id="_Path_3367"></path>
                                <path d="M206.551025,104.793202 C206.551025,105.29853 205.799712,105.138952 205.692381,105.564492 C206.368563,105.564492 206.035839,106.539686 206.980347,106.326916 C207.023279,105.378318 207.796058,105.147818 206.551025,104.793202 Z" id="_Path_3374"></path>
                                <polygon id="_Path_3377" points="204.910281 235.393685 204.910281 236.661828 206.036024 236.661828 206.036024 235.436431"></polygon>
                                <path d="M204.161695,200.295524 C204.004946,200.46651 204.432444,201.235945 204.731692,200.908222 C205.03094,200.5805 204.446694,199.967802 204.161695,200.295524 Z" id="_Path_3380"></path>
                                <path d="M204.12818,132.946599 C204.25643,133.41681 204.12818,134.143498 204.698177,134.157747 C204.569928,133.744532 204.683927,132.960848 204.12818,132.946599 Z" id="_Path_3381"></path>
                                <path d="M202.391017,199.419899 C201.841536,199.51964 201.069926,199.320157 200.999779,200.046846 C201.280365,200.046846 201.54926,200.132339 201.467422,200.659544 C202.028593,200.5883 202.566383,200.47431 202.391017,199.419899 Z" id="_Path_3385"></path>
                                <path d="" id="_Path_3386"></path>
                                <path d="M201.569776,127.929934 C201.441527,127.445475 201.569776,126.704538 200.999779,126.690289 C201.056779,127.174748 200.94278,127.901437 201.569776,127.929934 Z" id="_Path_3388"></path>
                                <path d="M202.14981,182.042762 L202.14981,181.122036 C201.579813,181.122036 201.465814,180.736616 201.009816,180.650967 C200.995566,181.389689 200.867317,182.256885 202.14981,182.042762 Z" id="_Path_3389"></path>
                                <path d="M199.453661,153.312645 C199.33517,153.921646 199.809106,154.507609 200.579405,154.704488 C200.536655,153.981593 200.664904,153.096856 199.453661,153.312645 Z" id="_Path_3394"></path>
                                <path d="M199.468318,187.782903 C199.311569,187.953889 199.753316,188.723324 200.038315,188.395601 C200.323313,188.067879 199.710567,187.455181 199.468318,187.782903 Z" id="_Path_3395"></path>
                                <path d="" id="_Path_3398"></path>
                                <polygon id="_Path_3400" points="197.089278 218.970869 197.089278 220.26751 198.215021 220.26751 198.215021 219.027865"></polygon>
                                <path d="M197.871378,203.330093 L194.752824,203.330093 C194.583195,204.767598 196.644834,204.514452 197.871378,204.894171 L197.871378,203.330093 Z" id="_Path_3403"></path>
                                <path d="M195.394597,171.177519 C195.551346,171.006533 195.109599,170.237098 194.824601,170.564821 C194.539602,170.892543 195.066849,171.490992 195.394597,171.177519 Z" id="_Path_3410"></path>
                                <path d="M193.827726,88.2763895 C193.984476,88.1054039 193.542728,87.3502176 193.25773,87.6636912 C192.972731,87.9771647 193.528478,88.589863 193.827726,88.2763895 Z" id="_Path_3417"></path>
                                <path d="M193.348128,204.924246 C192.037135,204.624863 192.122635,206.668923 193.348128,206.266305 C193.804125,206.080482 194.032124,205.048128 193.348128,204.924246 Z" id="_Path_3418"></path>
                                <path d="M193.178776,210.417426 C192.609731,210.702402 191.357832,209.590996 191.661323,211.657072 C192.412462,211.742565 193.133253,211.771062 193.178776,210.417426 Z" id="_Path_3419"></path>
                                <path d="M190.866036,110.355606 C190.709287,110.526591 191.136784,111.296026 191.421783,110.968304 C191.706781,110.640582 191.151034,110.042132 190.866036,110.355606 Z" id="_Path_3422"></path>
                                <path d="M188.518914,117.399409 C188.362165,117.570395 188.803912,118.33983 189.08891,118.012108 C189.373909,117.684385 188.832412,117.071687 188.518914,117.399409 Z" id="_Path_3435"></path>
                                <path d="" id="_Path_3436"></path>
                                <path d="M189.129066,181.188199 C188.518355,181.188199 188.470456,180.519015 187.704074,180.674361 L187.704074,181.702037 C188.386633,182.275623 188.853647,182.251724 189.129066,181.188199 Z" id="_Path_3437"></path>
                                <path d="M187.732379,107.206162 C187.589879,107.377148 188.017377,108.146583 188.302375,107.818861 C188.587374,107.491138 188.031627,106.949684 187.732379,107.206162 Z" id="_Path_3439"></path>
                                <path d="M187.732379,176.067471 C187.589879,176.238457 188.017377,176.993643 188.302375,176.68017 C188.587374,176.366696 188.031627,175.697003 187.732379,176.067471 Z" id="_Path_3440"></path>
                                <path d="" id="_Path_3442"></path>
                                <path d="M187.415039,234.611646 C186.830793,234.611646 186.688294,235.694554 187.415039,235.851291 C187.34379,235.138851 188.227285,234.882373 187.415039,234.611646 Z" id="_Path_3443"></path>
                                <path d="M188.338879,249.376386 C188.495628,249.205401 188.06813,248.450214 187.783132,248.763688 C187.498134,249.077161 188.053881,249.704109 188.338879,249.376386 Z" id="_Path_3444"></path>
                                <path d="M187.564865,100.644041 C186.959244,100.644041 186.899869,99.9760173 186.139873,100.121768 L186.139873,101.178461 C186.816744,101.71288 187.303617,101.700734 187.564865,100.644041 Z" id="_Path_3446"></path>
                                <path d="M183.416815,87.5883477 C182.718569,87.7308357 183.060567,88.27229 183.416815,88.8137444 C184.029562,88.8137444 184.172061,87.7450845 183.416815,87.5883477 Z" id="_Path_3457"></path>
                                <path d="M182.628711,134.510677 C181.944714,134.638916 182.272463,135.194619 182.628711,135.736074 C183.198707,135.736074 183.341206,134.667414 182.628711,134.510677 Z" id="_Path_3463"></path>
                                <path d="M182.262932,164.324482 C182.106183,164.481219 182.533681,165.236405 182.818679,164.937181 C183.103678,164.637956 182.547931,163.982511 182.262932,164.324482 Z" id="_Path_3464"></path>
                                <path d="M181.447271,226.009219 L181.447271,226.959139 C181.919013,226.959139 182.001567,227.334688 182.390754,227.434099 C182.390754,226.826592 182.992224,226.771364 182.850702,226.009219 L181.447271,226.009219 Z" id="_Path_3465"></path>
                                <path d="M181.476281,123.650266 C181.333782,123.821251 181.747029,124.590686 182.046278,124.262964 C182.345526,123.935242 181.775529,123.336792 181.476281,123.650266 Z" id="_Path_3467"></path>
                                <path d="M179.883071,111.049512 C180.02557,111.533971 179.883071,112.26066 180.453068,112.274909 C180.396068,111.804699 180.396068,111.063761 179.883071,111.049512 Z" id="_Path_3473"></path>
                                <polygon id="_Path_3482" points="178.31887 248.688344 178.31887 249.913741 179.444614 249.913741 179.444614 248.688344"></polygon>
                                <path d="M177.904796,85.2422313 C177.591298,85.2422313 177.263549,85.7409392 177.904796,85.8549296 C178.218294,85.8549296 178.546042,85.3562217 177.904796,85.2422313 Z" id="_Path_3489"></path>
                                <path d="M177.53677,247.124267 C177.665019,247.608726 177.53677,248.349663 178.106767,248.363912 C177.978517,247.836707 178.092517,247.152764 177.53677,247.124267 Z" id="_Path_3491"></path>
                                <path d="M175.558495,143.113104 C175.244997,143.113104 174.917249,143.611812 175.558495,143.725802 C175.886243,143.725802 176.213991,143.227094 175.558495,143.113104 Z" id="_Path_3496"></path>
                                <path d="M174.436673,130.692714 C174.294174,130.863699 174.721672,131.618885 175.00667,131.305412 C175.291668,130.991938 174.735922,130.364991 174.436673,130.692714 Z" id="_Path_3504"></path>
                                <path d="M173.626268,141.549026 C173.711768,142.112351 173.526519,142.907633 174.182015,142.973906 C174.096516,142.421627 174.281765,141.626345 173.626268,141.549026 Z" id="_Path_3506"></path>
                                <path d="M172.844168,141.549026 C172.972417,142.019237 172.844168,142.760174 173.414165,142.774423 C173.285916,142.304213 173.399915,141.634519 172.844168,141.549026 Z" id="_Path_3511"></path>
                                <path d="M172.877683,222.19811 C172.720934,222.369096 173.148431,223.138531 173.44768,222.810808 C173.746928,222.483086 173.176931,221.856139 172.877683,222.19811 Z" id="_Path_3512"></path>
                                <path d="M172.055674,124.174832 C171.770945,124.174832 171.49808,124.089339 171.59299,123.562133 L170.643895,123.562133 C169.908347,125.129501 172.198038,125.371731 172.055674,124.174832 Z" id="_Path_3515"></path>
                                <path d="M171.296922,165.819346 C171.182847,166.428139 171.653961,167.013091 172.422665,167.217109 C172.379916,166.507476 172.508165,165.62581 171.296922,165.819346 Z" id="_Path_3516"></path>
                                <path d="M171.313482,143.19992 C171.156733,143.370906 171.584231,144.126092 171.883479,143.812619 C172.182727,143.499145 171.598481,142.886447 171.313482,143.19992 Z" id="_Path_3518"></path>
                                <path d="M170.526877,190.123565 C170.384378,190.294551 170.797625,191.063986 171.096873,190.736264 C171.396122,190.408541 170.826125,189.810092 170.526877,190.123565 Z" id="_Path_3524"></path>
                                <path d="" id="_Path_3527"></path>
                                <path d="M168.151566,118.110323 L168.151566,119.512741 L169.576558,119.512741 L169.576558,118.570492 C168.965847,118.548579 168.917948,117.96789 168.151566,118.110323 Z" id="_Path_3530"></path>
                                <path d="M168.630555,135.292716 C168.630555,135.774983 168.235389,135.862668 168.151566,136.246289 C168.630555,136.246289 168.714378,136.629911 169.097569,136.717596 C169.097569,136.246289 169.48076,136.147644 169.576558,135.774983 C169.097569,135.742101 169.013746,135.391361 168.630555,135.292716 Z" id="_Path_3531"></path>
                                <path d="M168.189731,127.55904 C168.018732,127.744274 168.460479,128.51371 168.759727,128.185987 C169.058976,127.858265 168.474729,127.245567 168.189731,127.55904 Z" id="_Path_3536"></path>
                                <path d="M166.946048,141.238161 C166.376052,141.238161 166.262052,140.852655 165.806055,140.766987 C165.806055,141.495165 165.734805,142.37326 166.946048,142.159091 L166.946048,141.238161 Z" id="_Path_3537"></path>
                                <path d="M166.173291,170.484463 C165.859793,170.484463 165.532045,170.983171 166.173291,171.097161 C166.486789,171.11141 166.814537,170.612702 166.173291,170.484463 Z" id="_Path_3538"></path>
                                <polygon id="_Path_3539" points="165.023165 197.073782 165.023165 198.299179 166.148909 198.299179 166.148909 197.073782"></polygon>
                                <path d="M164.27458,213.588828 C164.11783,213.759814 164.545328,214.515 164.844576,214.201527 C165.143825,213.888053 164.559578,213.261106 164.27458,213.588828 Z" id="_Path_3542"></path>
                                <path d="M164.11333,245.479377 C164.270079,245.308391 163.842582,244.538956 163.543333,244.852429 C163.244085,245.165903 163.814082,245.79285 164.11333,245.479377 Z" id="_Path_3544"></path>
                                <path d="M161.426473,248.688344 C161.693886,249.684583 160.601948,249.655707 161.426473,250.247675 C163.51007,250.348742 162.618691,248.80385 161.426473,248.688344 Z" id="_Path_3550"></path>
                                <polygon id="_Path_3552" points="161.112663 182.997084 161.112663 184.421963 162.537655 184.421963 162.537655 182.997084"></polygon>
                                <path d="M162.501521,244.77815 L161.567835,244.77815 C161.567835,245.390849 161.194361,245.504839 161.112663,246.003547 C161.882954,245.946552 162.723272,246.08904 162.501521,244.77815 Z" id="_Path_3553"></path>
                                <path d="M157.235677,122.849753 C157.078928,123.020739 157.506425,123.790174 157.805674,123.476701 C158.104922,123.163227 157.534925,122.579026 157.235677,122.849753 Z" id="_Path_3568"></path>
                                <path d="M158.766363,174.426003 C157.871128,174.300641 157.290702,174.540918 157.202162,175.334879 C157.723562,175.470689 157.94983,175.972138 158.766363,175.773647 L158.766363,174.426003 Z" id="_Path_3569"></path>
                                <polygon id="_Path_3575" points="156.420062 121.216017 156.420062 122.455662 157.560055 122.455662 157.560055 121.216017"></polygon>
                                <path d="M429.258156,121.127034 C429.400655,120.956049 428.973158,120.186614 428.67391,120.514336 C428.374661,120.842059 428.958908,121.440508 429.258156,121.127034 Z" id="_Path_3590"></path>
                                <path d="M428.619237,212.020652 C428.476738,212.205887 428.904236,212.961073 429.203484,212.633351 C429.502732,212.305628 428.918485,211.707179 428.619237,212.020652 Z" id="_Path_3591"></path>
                                <path d="M425.835002,137.638832 C425.507254,137.638832 425.193756,138.151789 425.835002,138.25153 C426.148501,138.25153 426.476249,137.752823 425.835002,137.638832 Z" id="_Path_3597"></path>
                                <path d="M425.155465,196.291744 C425.155465,196.774011 424.775467,196.861696 424.680467,197.234356 C425.155465,197.234356 425.250464,197.628938 425.630462,197.716623 C425.630462,197.234356 426.01046,197.146671 426.105459,196.774011 C425.630462,196.774011 425.535462,196.379429 425.155465,196.291744 Z" id="_Path_3600"></path>
                                <path d="M425.622685,229.927567 C425.329753,229.829214 424.615,230.64882 424.685304,230.867381 C425.071973,232.12411 427.309971,230.572323 425.622685,229.927567 Z" id="_Path_3601"></path>
                                <path d="M423.751072,131.302705 C423.907821,131.117471 423.480323,130.362284 423.195325,130.675758 C422.910326,130.989232 423.466073,131.616179 423.751072,131.302705 Z" id="_Path_3605"></path>
                                <polygon id="_Path_3606" points="423.48841 135.750322 423.48841 134.510677 422.334166 134.510677 422.334166 135.750322"></polygon>
                                <path d="M422.729072,210.368442 C422.045076,210.496682 422.387074,211.052385 422.729072,211.608088 C423.313318,211.536844 423.455818,210.51093 422.729072,210.368442 Z" id="_Path_3607"></path>
                                <path d="M420.803526,130.694184 C420.646777,130.850921 421.074275,131.606107 421.359273,131.292634 C421.644272,130.97916 421.102775,130.366462 420.803526,130.694184 Z" id="_Path_3609"></path>
                                <path d="M420.76588,176.628274 C420.270508,176.443039 420.06869,175.759097 419.307286,176.015575 C418.720179,177.725431 420.875962,177.711182 420.76588,176.628274 Z" id="_Path_3611"></path>
                                <path d="M420.026082,200.294168 C419.855083,200.465154 420.296831,201.22034 420.581829,200.906867 C420.866827,200.593393 420.311081,199.966446 420.026082,200.294168 Z" id="_Path_3612"></path>
                                <path d="M419.175796,119.512741 C419.478895,117.612902 417.376141,117.612902 417.669769,119.512741 L419.175796,119.512741 Z" id="_Path_3617"></path>
                                <path d="M416.115581,161.970168 C415.944582,162.141153 416.386329,162.910588 416.671327,162.582866 C416.956326,162.255144 416.386329,161.656694 416.115581,161.970168 Z" id="_Path_3620"></path>
                                <path d="M417.217357,164.228152 L416.077364,164.228152 L416.077364,165.645771 C417.046358,165.722696 417.402606,165.184221 417.217357,164.228152 Z" id="_Path_3621"></path>
                                <path d="M415.328824,209.671838 C415.172075,209.842824 415.599573,210.612259 415.884571,210.298786 C416.169569,209.985312 415.613823,209.358365 415.328824,209.671838 Z" id="_Path_3623"></path>
                                <path d="M416.008155,207.284025 C415.152531,207.113039 414.597786,207.426513 414.513163,208.52367 C415.133726,208.381182 416.384254,209.107871 416.008155,207.284025 Z" id="_Path_3626"></path>
                                <path d="M414.546724,212.020652 C414.389975,212.205887 414.817472,212.961073 415.102471,212.633351 C415.387469,212.305628 414.831722,211.707179 414.546724,212.020652 Z" id="_Path_3630"></path>
                                <path d="M411.255704,112.519593 C411.412453,112.348607 410.984956,111.593421 410.685707,111.906895 C410.386459,112.220368 410.970706,112.847315 411.255704,112.519593 Z" id="_Path_3635"></path>
                                <path d="M409.871263,196.934585 L410.790339,196.934585 C412.337644,195.936353 409.405908,194.301749 409.871263,196.934585 Z" id="_Path_3636"></path>
                                <path d="M410.636222,209.671838 C410.479473,209.842824 410.906971,210.612259 411.191969,210.298786 C411.476968,209.985312 410.864221,209.358365 410.636222,209.671838 Z" id="_Path_3639"></path>
                                <path d="M409.072022,190.123565 C408.915273,190.294551 409.34277,191.063986 409.627769,190.736264 C409.912767,190.408541 409.35702,189.810092 409.072022,190.123565 Z" id="_Path_3645"></path>
                                <path d="M407.88406,203.160752 C408.197559,203.160752 408.525307,202.662045 407.88406,202.548054 C407.513562,202.590801 407.185814,203.046762 407.88406,203.160752 Z" id="_Path_3650"></path>
                                <path d="M407.831875,196.291744 C407.532627,196.291744 407.204879,196.790452 407.831875,196.918691 C408.173873,196.918691 408.487371,196.405734 407.831875,196.291744 Z" id="_Path_3653"></path>
                                <path d="M405.91006,229.919413 C406.052559,230.403872 405.91006,231.144809 406.480057,231.144809 C406.351807,230.617604 406.465807,229.94791 405.91006,229.919413 Z" id="_Path_3658"></path>
                                <path d="M405.485853,221.316986 L404.345859,221.316986 L404.345859,222.736336 C405.371853,222.802352 405.671102,222.274222 405.485853,221.316986 Z" id="_Path_3661"></path>
                                <path d="M403.149685,193.163588 C402.836186,193.163588 402.508438,193.662296 403.149685,193.776287 C403.448933,193.73354 403.790931,193.277579 403.149685,193.163588 Z" id="_Path_3665"></path>
                                <path d="M402.038656,135.384946 C401.867657,135.555932 402.295154,136.311118 402.594403,135.997645 C402.893651,135.684171 402.323654,135.057224 402.038656,135.384946 Z" id="_Path_3670"></path>
                                <path d="M402.038656,154.935917 C401.867657,155.092654 402.295154,155.862089 402.594403,155.548615 C402.893651,155.235142 402.323654,154.608195 402.038656,154.935917 Z" id="_Path_3671"></path>
                                <path d="M400.262395,190.035433 C399.712914,190.135175 398.941304,189.935691 398.871157,190.648131 C399.151743,190.648131 399.420638,190.747873 399.3388,191.26083 C399.899971,191.203834 400.437761,191.089844 400.262395,190.035433 Z" id="_Path_3678"></path>
                                <path d="M397.340517,108.795627 C397.183768,108.966612 397.611266,109.721798 397.896264,109.408325 C398.181262,109.094851 397.639765,108.467904 397.340517,108.795627 Z" id="_Path_3685"></path>
                                <polygon id="_Path_3687" points="397.66485 188.928962 397.66485 187.689317 396.524856 187.689317 396.524856 188.928962"></polygon>
                                <path d="M394.954569,226.444964 C394.211826,226.062024 393.260013,225.922149 392.35264,226.062593 C392.361286,226.475739 392.179197,226.880238 391.832254,227.218599 C392.677881,227.841065 395.097675,227.681002 394.954569,226.444964 Z" id="_Path_3693"></path>
                                <path d="M393.42997,139.291042 C393.273221,139.476276 393.700718,140.231463 393.999967,139.90374 C394.299215,139.576018 393.672218,138.977568 393.42997,139.291042 Z" id="_Path_3695"></path>
                                <path d="M392.652571,89.2378602 C392.481572,89.4088458 392.92332,90.1782809 393.208318,89.8648074 C393.493317,89.5513338 392.994569,88.9243867 392.652571,89.2378602 Z" id="_Path_3700"></path>
                                <path d="M389.515476,162.524877 L391.017008,162.524877 C391.33809,160.625037 389.213281,160.625037 389.515476,162.524877 Z" id="_Path_3703"></path>
                                <path d="M389.485953,194.792112 L389.485953,196.275799 C391.239952,196.413019 391.711176,195.632582 392.614355,195.160889 C391.383937,195.169466 391.082878,194.526249 389.485953,194.792112 Z" id="_Path_3704"></path>
                                <path d="M389.363891,219.658911 C389.52064,219.487926 389.093143,218.732739 388.793894,219.046213 C388.494646,219.359686 389.007643,219.986633 389.363891,219.658911 Z" id="_Path_3708"></path>
                                <polygon id="_Path_3710" points="389.047496 113.853235 389.047496 112.61359 387.921753 112.61359 387.921753 113.853235"></polygon>
                                <path d="M385.943478,191.599511 C385.62998,191.599511 385.302231,192.112467 385.943478,192.212209 C386.271226,192.212209 386.598974,191.72775 385.943478,191.599511 Z" id="_Path_3720"></path>
                                <polygon id="_Path_3721" points="385.575452 238.52184 385.575452 239.761485 386.701195 239.761485 386.701195 238.52184"></polygon>
                                <path d="M384.826866,211.245578 C384.670117,211.402315 385.097615,212.17175 385.396863,211.844027 C385.696112,211.516305 385.126115,210.917856 384.826866,211.245578 Z" id="_Path_3725"></path>
                                <path d="M384.793352,241.341227 C384.39448,240.683831 383.229151,240.594693 383.229151,241.831489 C383.628022,242.477743 384.738605,242.55574 384.793352,241.341227 Z" id="_Path_3726"></path>
                                <path d="M383.878101,103.140142 C384.03485,102.969156 383.593103,102.199721 383.308105,102.527443 C383.023106,102.855166 383.578853,103.453615 383.878101,103.140142 Z" id="_Path_3727"></path>
                                <path d="M383.262666,143.201236 C383.105917,143.372222 383.533414,144.141657 383.832663,143.813934 C384.131911,143.486212 383.561914,142.887763 383.262666,143.201236 Z" id="_Path_3731"></path>
                                <path d="M383.384316,175.967425 C382.785819,175.881933 381.959324,176.451885 382.814319,176.594373 C383.412816,176.679865 384.282061,176.181157 383.384316,175.967425 Z" id="_Path_3732"></path>
                                <path d="M381.250876,132.946599 C380.937378,132.946599 380.60963,133.445307 381.250876,133.573546 C381.564374,133.602044 381.892122,133.089087 381.250876,132.946599 Z" id="_Path_3735"></path>
                                <path d="M380.916365,245.648321 C380.759616,245.819307 381.187113,246.588742 381.486362,246.26102 C381.78561,245.933297 381.201363,245.334848 380.916365,245.648321 Z" id="_Path_3736"></path>
                                <path d="M378.149354,102.447085 C377.465358,102.575324 377.807356,103.116779 378.149354,103.672482 C378.719351,103.643984 378.86185,102.589573 378.149354,102.447085 Z" id="_Path_3741"></path>
                                <path d="M377.787964,172.143637 C377.631215,172.314623 378.058712,173.069809 378.35796,172.742087 C378.657209,172.414364 378.087212,171.815915 377.787964,172.143637 Z" id="_Path_3742"></path>
                                <path d="M377.782753,124.436403 C377.640254,124.59314 378.067752,125.362575 378.35275,125.049101 C378.637749,124.735628 378.082002,124.108681 377.782753,124.436403 Z" id="_Path_3745"></path>
                                <path d="M376.190248,95.5985395 L376.190248,94.681929 C375.744451,94.9347871 374.626048,94.1551413 374.626048,95.1455021 C375.470716,94.8188938 375.251728,96.0515769 375.861766,96.0515769 C375.900871,95.7671116 375.955618,95.5142535 376.190248,95.5985395 Z" id="_Path_3747"></path>
                                <path d="M376.337889,225.235871 C375.753642,225.150378 374.912897,225.72033 375.782142,225.862818 C376.366389,225.991057 377.249883,225.421105 376.337889,225.235871 Z" id="_Path_3748"></path>
                                <path d="M374.994073,157.971841 C374.680575,157.971841 374.352827,158.470549 374.994073,158.58454 C375.307572,158.58454 375.63532,158.085832 374.994073,157.971841 Z" id="_Path_3751"></path>
                                <path d="M373.061847,145.089657 C372.540447,144.299592 371.881318,144.722841 371.497646,145.696313 C372.48142,145.780963 372.727364,146.867302 373.061847,145.089657 Z" id="_Path_3756"></path>
                                <path d="M372.140538,155.316407 C371.668797,155.316407 371.574448,154.931634 371.197055,154.843686 C371.197055,155.448329 370.595585,155.492303 370.737108,156.261848 C371.39511,156.326421 371.999817,155.919052 372.140538,155.316407 Z" id="_Path_3762"></path>
                                <path d="" id="_Path_3764"></path>
                                <path d="M367.587145,189.253394 C367.672644,189.812386 367.487395,190.60155 368.157142,190.678274 C368.057392,190.130243 368.242641,189.330119 367.587145,189.253394 Z" id="_Path_3772"></path>
                                <path d="M366.837784,195.601936 C366.681035,195.772921 367.122782,196.528107 367.407781,196.214634 C367.692779,195.90116 367.137032,195.274213 366.837784,195.601936 Z" id="_Path_3775"></path>
                                <path d="M366.675987,113.315812 C366.846986,113.130578 366.405238,112.375392 366.10599,112.688865 C365.806742,113.002339 366.390988,113.615037 366.675987,113.315812 Z" id="_Path_3779"></path>
                                <path d="M365.883735,92.8127223 C365.284999,92.8127223 365.225126,92.1581441 364.458744,92.3009612 L364.458744,93.3244833 C365.093404,93.907653 365.560418,93.8838501 365.883735,92.8127223 Z" id="_Path_3781"></path>
                                <polygon id="_Path_3785" points="363.238186 223.33867 363.238186 222.099025 362.112443 222.099025 362.112443 223.324421"></polygon>
                                <path d="M362.86591,125.90825 L361.362609,125.90825 C361.046628,127.80809 363.16274,127.80809 362.86591,125.90825 Z" id="_Path_3787"></path>
                                <path d="M352.760754,82.2063067 C352.604005,82.3772923 353.031502,83.1324786 353.330751,82.819005 C353.629999,82.5055315 353.045752,81.8785844 352.760754,82.2063067 Z" id="_Path_3807"></path>
                                <path d="M352.701776,129.589416 C352.701776,129.589416 352.264445,129.589416 352.228986,129.589416 C352.193527,129.589416 351.259767,129.062127 351.283407,129.036405 C350.609682,129.640859 352.997269,131.569967 352.701776,129.589416 Z" id="_Path_3808"></path>
                                <path d="M352.29009,85.7026962 C351.720094,85.7026962 351.620344,85.3278992 351.164347,85.2422313 C351.164347,85.9704084 351.078847,86.8485043 352.29009,86.6343345 L352.29009,85.7026962 Z" id="_Path_3809"></path>
                                <path d="M348.683587,193.856645 C348.840337,193.685659 348.398589,192.916224 348.113591,193.243946 C347.828592,193.571669 348.384339,194.212865 348.683587,193.856645 Z" id="_Path_3815"></path>
                                <path d="M344.980858,102.447085 C344.980858,102.95249 344.231226,102.792889 344.124136,103.209626 C344.798804,103.209626 344.466825,104.193836 345.409219,103.981034 C345.462764,103.014558 346.223105,102.810622 344.980858,102.447085 Z" id="_Path_3822"></path>
                                <polygon id="_Path_3825" points="342.559935 232.265529 342.559935 233.490926 343.685679 233.490926 343.685679 232.265529"></polygon>
                                <path d="M341.810574,197.942638 C341.653825,198.113623 342.095573,198.86881 342.380571,198.555336 C342.665569,198.241863 342.109822,197.629164 341.810574,197.942638 Z" id="_Path_3828"></path>
                                <path d="M341.777835,130.600483 C341.906084,131.070693 341.777835,131.811631 342.347831,131.825879 C342.219582,131.355669 342.333581,130.600483 341.777835,130.600483 Z" id="_Path_3829"></path>
                                <path d="M340.820604,197.073782 C340.271979,197.159275 339.513244,196.959792 339.431534,197.672232 C339.711682,197.672232 339.980158,197.771974 339.898448,198.299179 C340.505437,198.227935 340.995696,198.113945 340.820604,197.073782 Z" id="_Path_3833"></path>
                                <path d="" id="_Path_3834"></path>
                                <path d="M340.00153,124.801779 C339.873281,124.31732 340.00153,123.576382 339.431534,123.562133 C339.559783,124.046593 339.445784,124.773281 340.00153,124.801779 Z" id="_Path_3836"></path>
                                <path d="M340.571527,179.69955 L340.571527,178.776903 C340.00153,178.776903 339.887531,178.390678 339.431534,178.304851 C339.488533,179.034386 339.360284,179.903391 340.571527,179.69955 Z" id="_Path_3837"></path>
                                <path d="M337.883223,149.391688 C337.772367,150.00746 338.251017,150.596374 339.023217,150.794294 C338.966217,150.098427 339.094466,149.217721 337.883223,149.391688 Z" id="_Path_3842"></path>
                                <path d="M337.895601,185.435431 C337.753102,185.592168 338.1806,186.361603 338.479848,186.048129 C338.779096,185.734656 338.2091,185.107709 337.895601,185.435431 Z" id="_Path_3843"></path>
                                <path d="" id="_Path_3846"></path>
                                <polygon id="_Path_3848" points="335.521032 215.060675 335.521032 216.300321 336.646776 216.300321 336.646776 215.060675"></polygon>
                                <path d="M336.303133,200.983977 L333.186076,200.983977 C333.00272,202.421481 335.085123,202.168336 336.303133,202.548054 L336.303133,200.983977 Z" id="_Path_3851"></path>
                                <path d="M333.829097,166.493456 C333.985846,166.32247 333.558349,165.553035 333.2591,165.866509 C332.959852,166.179982 333.529849,166.806929 333.829097,166.493456 Z" id="_Path_3858"></path>
                                <path d="M332.259481,85.1532488 C332.41623,84.9822632 331.974483,84.2128281 331.689484,84.5405505 C331.404486,84.8682728 331.960233,85.4667224 332.259481,85.1532488 Z" id="_Path_3865"></path>
                                <path d="M331.779882,201.79609 C330.46889,201.496708 330.554389,203.540768 331.779882,203.13815 C332.23588,202.983297 332.463879,201.950943 331.779882,201.79609 Z" id="_Path_3866"></path>
                                <path d="M331.610531,207.294819 C331.041486,207.565546 329.789587,206.468388 330.093077,208.534464 C330.844217,208.619957 331.565007,208.648454 331.610531,207.294819 Z" id="_Path_3867"></path>
                                <path d="M329.297745,107.231549 C329.140996,107.402535 329.568493,108.157721 329.867741,107.844247 C330.16699,107.530774 329.582743,106.903827 329.297745,107.231549 Z" id="_Path_3870"></path>
                                <path d="M326.917929,246.342228 L326.917929,247.283404 C327.52355,247.283404 327.57105,247.8784 328.342921,247.748582 L328.342921,246.342228 L326.917929,246.342228 Z" id="_Path_3880"></path>
                                <path d="M326.946233,113.496268 C326.803734,113.667254 327.231232,114.42244 327.51623,114.094718 C327.801228,113.766995 327.245482,113.154297 326.946233,113.496268 Z" id="_Path_3883"></path>
                                <path d="" id="_Path_3884"></path>
                                <path d="M327.56082,178.842083 C326.95011,178.842083 326.902211,178.172898 326.135829,178.328245 L326.135829,179.35592 C326.818388,179.929507 327.297376,179.905607 327.56082,178.842083 Z" id="_Path_3885"></path>
                                <path d="M326.164133,103.321355 C326.021634,103.49234 326.449131,104.247527 326.73413,103.934053 C327.019128,103.62058 326.463381,102.993632 326.164133,103.321355 Z" id="_Path_3887"></path>
                                <path d="M326.164133,172.917396 C326.021634,173.088381 326.449131,173.843567 326.73413,173.530094 C327.019128,173.21662 326.463381,172.603922 326.164133,172.917396 Z" id="_Path_3888"></path>
                                <path d="" id="_Path_3890"></path>
                                <path d="M325.054038,230.701452 C324.484041,230.701452 324.341542,231.798609 325.054038,231.955346 C324.997038,231.257155 325.880533,230.986428 325.054038,230.701452 Z" id="_Path_3891"></path>
                                <path d="M326.770633,246.248231 C326.927383,246.077245 326.499885,245.322059 326.214887,245.635533 C325.929888,245.949006 326.485635,246.575953 326.770633,246.248231 Z" id="_Path_3892"></path>
                                <path d="M324.432419,97.505991 C323.826798,97.505991 323.767423,96.841857 323.007427,96.9960309 L323.007427,98.0515297 C323.696173,98.5852089 324.159296,98.5733494 324.432419,97.505991 Z" id="_Path_3894"></path>
                                <path d="M321.066469,85.2422313 C320.368223,85.3704705 320.710221,85.9261736 321.066469,86.4676279 C321.679216,86.4676279 321.778965,85.4559633 321.066469,85.2422313 Z" id="_Path_3905"></path>
                                <path d="M321.060465,132.16456 C320.376469,132.307048 320.704217,132.848503 321.060465,133.404206 C321.630462,133.404206 321.772961,132.321297 321.060465,132.16456 Z" id="_Path_3911"></path>
                                <path d="M320.694641,161.974266 C320.537892,162.145252 320.96539,162.900438 321.264638,162.586965 C321.563886,162.273491 321.022389,161.646544 320.694641,161.974266 Z" id="_Path_3912"></path>
                                <path d="M319.879026,222.881063 L319.879026,223.834637 C320.34795,223.834637 320.441735,224.207298 320.816875,224.305943 C320.816875,223.703109 321.414753,223.648306 321.285799,222.881063 L319.879026,222.881063 Z" id="_Path_3913"></path>
                                <path d="M319.908036,121.304149 C319.765536,121.475135 320.178784,122.24457 320.478032,121.916847 C320.777281,121.589125 320.164534,120.990676 319.908036,121.304149 Z" id="_Path_3915"></path>
                                <path d="M318.314825,108.703396 C318.443075,109.173606 318.314825,109.914544 318.884822,109.928792 C318.742323,109.444333 318.856322,108.788889 318.314825,108.703396 Z" id="_Path_3921"></path>
                                <path d="M317.56103,248.775161 C317.418531,248.946147 317.846028,249.701333 318.131026,249.387859 C318.416025,249.074386 317.831778,248.461687 317.56103,248.775161 Z" id="_Path_3926"></path>
                                <polygon id="_Path_3930" points="316.750625 245.560189 316.750625 246.785586 317.904868 246.785586 317.904868 245.560189"></polygon>
                                <path d="M315.968524,244.77815 C316.096774,245.26261 315.968524,246.003547 316.538521,246.017796 C316.410272,245.533337 316.524271,244.806648 315.968524,244.77815 Z" id="_Path_3939"></path>
                                <path d="M313.990249,139.984949 C313.676751,139.984949 313.349003,140.469408 313.990249,140.597647 C314.303748,140.597647 314.631496,140.098939 313.990249,139.984949 Z" id="_Path_3944"></path>
                                <path d="M312.873684,128.356047 C312.716935,128.541281 313.144432,129.296468 313.429431,128.982994 C313.714429,128.669521 313.172932,127.999827 312.873684,128.356047 Z" id="_Path_3952"></path>
                                <path d="M312.058023,139.20291 C312.143522,139.766234 311.958274,140.561516 312.62802,140.62779 C312.52827,140.075511 312.713519,139.269183 312.058023,139.20291 Z" id="_Path_3954"></path>
                                <path d="M311.275923,138.420871 C311.389922,138.891081 311.275923,139.632019 311.831669,139.646268 C311.70342,139.119062 311.81742,138.43512 311.275923,138.420871 Z" id="_Path_3959"></path>
                                <path d="M311.31502,219.059002 C311.144021,219.229987 311.571519,219.999422 311.870767,219.6717 C312.170015,219.343978 311.600018,218.745528 311.31502,219.059002 Z" id="_Path_3960"></path>
                                <path d="M310.484195,121.046676 C310.190012,121.046676 309.919365,120.946935 310.013503,120.433978 L309.07212,120.433978 C308.342547,121.944351 310.660704,122.243575 310.484195,121.046676 Z" id="_Path_3963"></path>
                                <path d="M309.730771,162.700112 C309.607799,163.311752 310.090914,163.900327 310.870765,164.088954 C310.813765,163.356852 310.942014,162.474022 309.730771,162.700112 Z" id="_Path_3964"></path>
                                <path d="M309.745237,140.853804 C309.588488,141.02479 310.015985,141.779976 310.315234,141.466502 C310.614482,141.153029 310.030235,140.54033 309.745237,140.853804 Z" id="_Path_3966"></path>
                                <path d="M308.967838,187.000864 C308.796839,187.157601 309.238587,187.941285 309.523585,187.613563 C309.808584,187.28584 309.252837,186.673142 308.967838,187.000864 Z" id="_Path_3972"></path>
                                <path d="" id="_Path_3975"></path>
                                <path d="M305.01912,114.196915 L305.01912,115.602547 L306.444112,115.602547 L306.444112,114.665459 C305.8813,114.643666 305.833401,114.066158 305.01912,114.196915 Z" id="_Path_3978"></path>
                                <path d="M305.486134,132.16456 C305.486134,132.635867 305.102943,132.723552 305.01912,133.107173 C305.498109,133.107173 305.581932,133.490795 305.977098,133.58944 C305.977098,133.107173 306.360289,133.019488 306.444112,132.635867 C305.977098,132.635867 305.8813,132.263206 305.486134,132.16456 Z" id="_Path_3979"></path>
                                <path d="M305.052681,125.218442 C304.895932,125.389427 305.323429,126.144614 305.608428,125.83114 C305.893426,125.517667 305.408929,124.890719 305.052681,125.218442 Z" id="_Path_3984"></path>
                                <path d="M305.377013,138.099297 C304.807017,138.099297 304.707267,137.7245 304.23702,137.638832 C304.23702,138.367009 304.23702,139.245105 305.377013,139.030935 L305.377013,138.099297 Z" id="_Path_3985"></path>
                                <path d="M303.822945,166.574268 C303.509447,166.574268 303.181699,167.072976 303.822945,167.186967 C304.136444,167.186967 304.464192,166.688259 303.822945,166.574268 Z" id="_Path_3986"></path>
                                <polygon id="_Path_3987" points="303.45492 194.727666 303.45492 195.953063 304.580663 195.953063 304.580663 194.727666"></polygon>
                                <path d="M302.705559,211.245578 C302.54881,211.402315 302.990557,212.17175 303.275555,211.844027 C303.560554,211.516305 302.990557,210.917856 302.705559,211.245578 Z" id="_Path_3990"></path>
                                <path d="M302.543761,240.77296 C302.70051,240.616224 302.273013,239.846788 301.973765,240.160262 C301.674516,240.473736 302.258763,241.157678 302.543761,240.77296 Z" id="_Path_3992"></path>
                                <path d="M299.858227,245.560189 C300.125641,246.556373 299.033702,246.527499 299.858227,247.119434 C301.941824,247.220496 301.050446,245.704564 299.858227,245.560189 Z" id="_Path_3998"></path>
                                <polygon id="_Path_4000" points="299.544418 179.868928 299.544418 181.293808 300.96941 181.293808 300.96941 179.868928"></polygon>
                                <path d="M300.934715,240.867956 L300.000062,240.867956 C300.000062,241.494903 299.6262,241.608894 299.544418,242.107602 C300.268775,242.107602 301.156695,242.292836 300.934715,240.867956 Z" id="_Path_4001"></path>
                                <path d="M295.666656,118.955335 C295.509907,119.126321 295.951654,119.895756 296.236653,119.582282 C296.521651,119.268809 295.965904,118.641862 295.666656,118.955335 Z" id="_Path_4016"></path>
                                <path d="M296.416017,172.079933 C295.520782,171.954571 294.940356,172.194848 294.851816,172.978361 C295.373216,173.124617 295.599484,173.626065 296.416017,173.427575 L296.416017,172.079933 Z" id="_Path_4017"></path>
                                <polygon id="_Path_4023" points="294.069716 118.087862 294.069716 119.327507 295.209709 119.327507 295.209709 118.087862"></polygon>
                            </g>
                        </g>
                    </g>
                </g>
            </g>
        </g>
    </g>
</svg>