<?xml version="1.0" encoding="UTF-8"?>
<svg width="292px" height="150px" viewBox="0 0 292 150" version="1.1" xmlns="http://www.w3.org/2000/svg" xmlns:xlink="http://www.w3.org/1999/xlink">
    <!-- Generator: Sketch 51.2 (57519) - http://www.bohemiancoding.com/sketch -->
    <title>Illustration-rainbow-1</title>
    <desc>Created with Sketch.</desc>
    <defs></defs>
    <g id="components" stroke="none" stroke-width="1" fill="none" fill-rule="evenodd">
        <g id="Components-Card" transform="translate(-464.000000, -360.000000)" fill-rule="nonzero">
            <g id="Illustration-rainbow-1" transform="translate(464.000000, 360.000000)">
                <g id="Group" transform="translate(23.460854, 0.520833)">
                    <g transform="translate(41.708185, 0.000000)" id="Shape">
                        <path d="M151.296441,78.8541667 C151.296441,69.4270833 149.419573,59.9479167 145.822242,51.1979167 C142.224911,42.4479167 136.854982,34.4791667 130.129537,27.7604167 C123.456228,21.09375 115.427402,15.7291667 106.668683,12.0833333 C97.9099644,8.4375 88.4213523,6.61458333 78.9848754,6.61458333 C69.5483986,6.61458333 60.0597865,8.48958333 51.3010676,12.0833333 C42.5423488,15.6770833 34.5656584,21.0416667 27.8402135,27.7604167 C21.1669039,34.4270833 15.7969751,42.4479167 12.1475089,51.1979167 C8.4980427,59.9479167 6.67330961,69.4270833 6.67330961,78.8541667 L-2.84217094e-14,78.8541667 C-2.84217094e-14,68.59375 2.03327402,58.2291667 5.9955516,48.6979167 C9.95782918,39.1666667 15.7969751,30.4166667 23.0959075,23.125 C30.3948399,15.8333333 39.1014235,10 48.694306,6.04166667 C58.2350534,2.08333333 68.6099644,0.0520833333 78.880605,0.0520833333 C89.1512456,0.0520833333 99.5261566,2.08333333 109.066904,6.04166667 C118.607651,10 127.36637,15.8333333 134.665302,23.125 C141.964235,30.4166667 147.803381,39.1145833 151.765658,48.6979167 C155.727936,58.2291667 157.76121,68.59375 157.76121,78.8541667 L151.296441,78.8541667 Z" fill="#FE4849"></path>
                        <path d="M144.623132,78.8541667 C144.623132,70.3125 142.954804,61.71875 139.618149,53.75 C136.33363,45.8333333 131.485053,38.5416667 125.385231,32.5 C119.337544,26.4583333 112.038612,21.5625 104.114057,18.28125 C96.1895018,15 87.5871886,13.28125 78.9848754,13.28125 C70.4346975,13.28125 61.8323843,14.9479167 53.855694,18.28125 C45.9311388,21.5625 38.6322064,26.40625 32.5845196,32.5 C26.5368327,38.5416667 21.636121,45.8333333 18.3516014,53.75 C15.0670819,61.6666667 13.3466192,70.2604167 13.3466192,78.8541667 L6.77758007,78.8541667 C6.77758007,69.4270833 8.6544484,59.9479167 12.2517794,51.1979167 C15.8491103,42.4479167 21.2190391,34.4791667 27.944484,27.7604167 C34.6177936,21.09375 42.6466192,15.7291667 51.4053381,12.0833333 C60.1640569,8.4375 69.652669,6.61458333 79.0891459,6.61458333 C88.5256228,6.61458333 98.0142349,8.48958333 106.772954,12.0833333 C115.531673,15.6770833 123.508363,21.0416667 130.233808,27.7604167 C136.907117,34.4270833 142.277046,42.4479167 145.926512,51.1979167 C149.575979,59.9479167 151.400712,69.4270833 151.400712,78.8541667 L144.623132,78.8541667 Z" fill="#FF8A53"></path>
                        <path d="M137.949822,78.8541667 C137.949822,71.1458333 136.4379,63.4375 133.466192,56.3020833 C130.494484,49.1666667 126.115125,42.65625 120.69306,37.1875 C115.218861,31.71875 108.701957,27.34375 101.559431,24.4270833 C94.4169039,21.4583333 86.7008897,19.9479167 78.9848754,19.9479167 C71.2688612,19.9479167 63.552847,21.4583333 56.4103203,24.4270833 C49.2677936,27.3958333 42.7508897,31.7708333 37.2766904,37.1875 C31.8024911,42.65625 27.4231317,49.1666667 24.5035587,56.3020833 C21.5318505,63.4375 20.0199288,71.1458333 20.0199288,78.8541667 L13.3466192,78.8541667 C13.3466192,70.3125 15.0149466,61.71875 18.3516014,53.75 C21.636121,45.8333333 26.4846975,38.5416667 32.5845196,32.5 C38.6322064,26.4583333 45.9311388,21.5625 53.855694,18.28125 C61.7802491,15 70.3825623,13.28125 78.9848754,13.28125 C87.5350534,13.28125 96.1373665,14.9479167 104.114057,18.28125 C112.038612,21.5625 119.337544,26.40625 125.385231,32.5 C131.432918,38.5416667 136.33363,45.8333333 139.618149,53.75 C142.902669,61.6666667 144.623132,70.2604167 144.623132,78.8541667 L137.949822,78.8541667 Z" fill="#F6DB65"></path>
                        <path d="M131.328648,78.8541667 C131.328648,71.9791667 129.973132,65.15625 127.36637,58.8541667 C124.759609,52.5520833 120.849466,46.7708333 116.00089,41.9270833 C111.152313,37.0833333 105.365302,33.2291667 99.0569395,30.5729167 C92.7485765,27.96875 85.9188612,26.6145833 79.0370107,26.6145833 C72.1551601,26.6145833 65.3254448,27.96875 59.0170819,30.5729167 C52.7087189,33.1770833 46.9217082,37.0833333 42.0731317,41.9270833 C37.2245552,46.7708333 33.366548,52.5520833 30.7076512,58.8541667 C28.1008897,65.15625 26.7453737,71.9791667 26.7453737,78.8541667 L20.0720641,78.8541667 C20.0720641,71.1458333 21.5839858,63.4375 24.555694,56.3020833 C27.5274021,49.1666667 31.9067616,42.65625 37.3288256,37.1875 C42.8030249,31.71875 49.3199288,27.34375 56.4624555,24.4270833 C63.6049822,21.4583333 71.3209964,19.9479167 79.0370107,19.9479167 C86.7530249,19.9479167 94.4690391,21.4583333 101.611566,24.4270833 C108.754093,27.3958333 115.270996,31.7708333 120.745196,37.1875 C126.219395,42.65625 130.598754,49.1666667 133.518327,56.3020833 C136.490036,63.4375 138.001957,71.1458333 138.001957,78.8541667 L131.328648,78.8541667 Z" fill="#8DD46F"></path>
                        <path d="M124.655338,78.8541667 C124.655338,72.8645833 123.456228,66.9270833 121.214413,61.40625 C118.920463,55.8854167 115.531673,50.8333333 111.308719,46.6145833 C107.085765,42.3958333 102.028648,39.0104167 96.5023132,36.71875 C90.9759786,34.4270833 85.0325623,33.28125 79.0370107,33.28125 C73.0414591,33.28125 67.0980427,34.4791667 61.5717082,36.71875 C56.0453737,39.0104167 50.9882562,42.3958333 46.7653025,46.6145833 C42.5423488,50.8333333 39.1535587,55.8854167 36.8596085,61.40625 C34.5656584,66.9270833 33.4186833,72.8645833 33.4186833,78.8541667 L26.7453737,78.8541667 C26.7453737,71.9791667 28.1008897,65.15625 30.7076512,58.8541667 C33.3144128,52.5520833 37.2245552,46.7708333 42.0731317,41.9270833 C46.9217082,37.0833333 52.7087189,33.2291667 59.0170819,30.5729167 C65.3254448,27.96875 72.1551601,26.6145833 79.0370107,26.6145833 C85.9188612,26.6145833 92.7485765,27.96875 99.0569395,30.5729167 C105.365302,33.1770833 111.152313,37.0833333 116.00089,41.9270833 C120.849466,46.7708333 124.707473,52.5520833 127.36637,58.8541667 C129.973132,65.15625 131.328648,71.9791667 131.328648,78.8541667 L124.655338,78.8541667 Z" fill="#01B6F5"></path>
                        <path d="M117.982028,78.8541667 C117.982028,73.6979167 116.991459,68.6458333 115.01032,63.9583333 C113.081317,59.2708333 110.161744,54.9479167 106.564413,51.3020833 C102.967082,47.7083333 98.5877224,44.7916667 93.8955516,42.8645833 C89.2033808,40.9375 84.1462633,39.8958333 78.9848754,39.8958333 C73.8234875,39.8958333 68.7663701,40.8854167 64.0741993,42.8645833 C59.3820285,44.7916667 55.0548043,47.7083333 51.4053381,51.3020833 C47.8080071,54.8958333 44.8884342,59.2708333 42.9594306,63.9583333 C41.030427,68.6458333 39.9877224,73.6979167 39.9877224,78.8541667 L33.3144128,78.8541667 C33.3144128,72.8645833 34.5135231,66.9270833 36.7553381,61.40625 C39.0492883,55.8854167 42.4380783,50.8333333 46.661032,46.6145833 C50.8839858,42.3958333 55.9411032,39.0104167 61.4674377,36.71875 C66.9937722,34.4270833 72.9371886,33.28125 78.9327402,33.28125 C84.9282918,33.28125 90.8717082,34.4791667 96.3980427,36.71875 C101.924377,39.0104167 106.981495,42.3958333 111.204448,46.6145833 C115.427402,50.8333333 118.816192,55.8854167 121.110142,61.40625 C123.404093,66.9270833 124.551068,72.8645833 124.551068,78.8541667 L117.982028,78.8541667 Z" fill="#5C56B6"></path>
                    </g>
                    <path d="M0.312811388,81.25 C0.312811388,65.9895833 12.7209964,53.59375 27.9966192,53.59375 C39.1535587,53.59375 48.7985765,60.2083333 53.1779359,69.6875 C53.9078292,69.6354167 54.6377224,69.5833333 55.3676157,69.5833333 C62.3537367,69.5833333 68.505694,73.0729167 72.2594306,78.3333333 C73.927758,77.6041667 75.8046263,77.2395833 77.7336299,77.2395833 C81.5395018,77.2395833 85.0325623,78.75 87.5871886,81.25 C89.3597865,78.5416667 92.4357651,76.71875 95.9288256,76.71875 C101.45516,76.71875 105.886655,81.1979167 105.886655,86.6666667 L105.886655,86.71875 L0.834163701,86.71875 C0.469217082,84.9479167 0.312811388,83.125 0.312811388,81.25 Z" id="Shape" fill="#F4F6F9"></path>
                    <path d="M242.168149,98.59375 L126.427936,98.59375 C126.480071,92.5520833 131.380783,87.7083333 137.42847,87.7083333 C139.305338,87.7083333 141.025801,88.1770833 142.589858,89.0104167 C144.518861,82.65625 150.462278,78.0208333 157.448399,78.0208333 C158.178292,78.0208333 158.908185,78.0729167 159.638078,78.1770833 C161.410676,67.3958333 170.795018,59.1145833 182.108363,59.1145833 C192.431139,59.1145833 201.137722,65.9375 203.953025,75.3125 C206.611922,74.5833333 209.375089,74.1666667 212.294662,74.1666667 C226.996797,74.1666667 239.352847,84.6875 242.168149,98.59375 Z" id="Shape" fill="#F4F6F9"></path>
                </g>
                <g id="Group" transform="translate(116.782918, 90.625000)">
                    <path d="M13.3466192,16.25 L1.45978648,16.25 C0.677758007,16.25 0,15.5729167 0,14.7916667 C0,14.0104167 0.677758007,13.3333333 1.45978648,13.3333333 L13.3466192,13.3333333 C14.1286477,13.3333333 14.8064057,14.0104167 14.8064057,14.7916667 C14.8585409,15.625 14.1807829,16.25 13.3466192,16.25 Z" id="Shape" fill="#FFB863"></path>
                    <path d="M23.5129893,27.6041667 L21.5839858,25.5208333 C21.2711744,25.2083333 21.3233096,24.6875 21.636121,24.375 C21.9489324,24.0625 22.4702847,24.1145833 22.7830961,24.4270833 L24.7120996,26.5104167 C25.024911,26.8229167 24.9727758,27.34375 24.6599644,27.65625 C24.347153,27.96875 23.8258007,27.9166667 23.5129893,27.6041667 Z" id="Shape" fill="#FFB863"></path>
                    <path d="M24.7642349,27.7083333 L22.6788256,29.6354167 C22.3660142,29.9479167 21.8446619,29.8958333 21.5318505,29.5833333 C21.2190391,29.2708333 21.2711744,28.75 21.5839858,28.4375 L23.669395,26.5104167 C23.9822064,26.1979167 24.5035587,26.25 24.8163701,26.5625 C25.0770463,26.875 25.0770463,27.3958333 24.7642349,27.7083333 Z" id="Shape" fill="#FFB863"></path>
                    <path d="M15.8491103,19.7395833 C15.8491103,19.7395833 26.2240214,14.0625 28.622242,6.82291667 C28.7786477,6.35416667 28.8829181,5.9375 29.0393238,5.52083333 C30.4469751,0.520833333 22.9395018,-1.71875 21.3233096,3.22916667 L15.8491103,19.7395833 Z" id="Shape" fill="#016C94"></path>
                    <path d="M16.5268683,12.65625 C16.5268683,12.65625 16.5268683,12.6041667 16.5268683,12.6041667 C15.8491103,10.7291667 14.1286477,9.375 12.1996441,9.11458333 C8.91512456,8.69791667 6.09982206,11.25 6.09982206,14.4791667 C6.09982206,14.84375 6.09982206,15.5208333 6.09982206,15.5208333 C6.09982206,21.0416667 12.2517794,25.5729167 19.9156584,25.5729167 C27.5274021,25.5729167 33.7314947,21.09375 33.7314947,15.5208333 L20.5412811,15.5208333 C18.6644128,15.5208333 17.1524911,14.375 16.5268683,12.65625 Z" id="Shape" fill="#01B6F5"></path>
                    <path d="M12.7731317,15.5729167 C12.4603203,15.5729167 12.2517794,15.3645833 12.2517794,15.0520833 C12.2517794,14.3229167 11.6782918,13.75 10.9483986,13.75 C10.2185053,13.75 9.64501779,14.3229167 9.64501779,15.0520833 C9.64501779,15.3645833 9.43647687,15.5729167 9.12366548,15.5729167 C8.81085409,15.5729167 8.60231317,15.3645833 8.60231317,15.0520833 C8.60231317,13.75 9.64501779,12.7083333 10.9483986,12.7083333 C12.2517794,12.7083333 13.294484,13.75 13.294484,15.0520833 C13.294484,15.3645833 13.0338078,15.5729167 12.7731317,15.5729167 Z" id="Shape" fill="#7F3076"></path>
                    <path d="M17.2567616,16.25 C17.2567616,16.25 29.0914591,15.8333333 34.4613879,10.46875 C34.7741993,10.15625 35.1391459,9.79166667 35.3998221,9.47916667 C38.9450178,5.625 33.2622776,0.260416667 29.5606762,3.95833333 L17.2567616,16.25 Z" id="Shape" fill="#01B6F5"></path>
                    <path d="M29.8734875,15.5208333 C29.8734875,15.5208333 34.4092527,19.7395833 38.4236655,19.7395833 C38.6843416,19.7395833 38.8928826,19.7395833 39.1535587,19.7395833 C41.916726,19.6354167 41.7603203,15.5208333 39.0492883,15.5208333 L29.8734875,15.5208333 Z" id="Shape" fill="#01B6F5"></path>
                </g>
                <g id="Group" transform="translate(71.946619, 110.937500)">
                    <path d="M9.80142349,11.6145833 L1.14697509,11.6145833 C0.573487544,11.6145833 0.104270463,11.1458333 0.104270463,10.5729167 C0.104270463,10 0.573487544,9.53125 1.14697509,9.53125 L9.80142349,9.53125 C10.374911,9.53125 10.8441281,10 10.8441281,10.5729167 C10.8441281,11.1458333 10.374911,11.6145833 9.80142349,11.6145833 Z" id="Shape" fill="#FFB863"></path>
                    <path d="M17.2046263,19.8958333 L15.7969751,18.3854167 C15.5884342,18.125 15.5884342,17.7604167 15.8491103,17.5520833 C16.1097865,17.34375 16.4747331,17.34375 16.683274,17.6041667 L18.0909253,19.1145833 C18.2994662,19.375 18.2994662,19.7395833 18.03879,19.9479167 C17.7781139,20.15625 17.4131673,20.1041667 17.2046263,19.8958333 Z" id="Shape" fill="#FFB863"></path>
                    <path d="M18.0909253,19.9479167 L16.5790036,21.3541667 C16.3183274,21.5625 15.9533808,21.5625 15.7448399,21.3020833 C15.5362989,21.0416667 15.5362989,20.6770833 15.7969751,20.46875 L17.3088968,19.0625 C17.569573,18.8541667 17.9345196,18.8541667 18.1430605,19.1145833 C18.2994662,19.3229167 18.2994662,19.7395833 18.0909253,19.9479167 Z" id="Shape" fill="#FFB863"></path>
                    <path d="M11.5740214,14.1666667 C11.5740214,14.1666667 19.1336299,10 20.8540925,4.73958333 C20.958363,4.42708333 21.0626335,4.11458333 21.1669039,3.80208333 C22.2096085,0.15625 16.7354093,-1.45833333 15.5362989,2.13541667 L11.5740214,14.1666667 Z" id="Shape" fill="#1A8354"></path>
                    <path d="M12.0953737,9.01041667 C12.0953737,9.01041667 12.0953737,8.95833333 12.0953737,9.01041667 C11.5740214,7.60416667 10.374911,6.61458333 8.91512456,6.40625 C6.51690391,6.09375 4.48362989,7.96875 4.48362989,10.3125 C4.48362989,10.5729167 4.48362989,11.09375 4.48362989,11.09375 C4.48362989,15.1041667 8.96725979,18.3854167 14.5457295,18.3854167 C20.0720641,18.3854167 24.6078292,15.1041667 24.6078292,11.09375 L15.0149466,11.09375 C13.6594306,11.09375 12.5124555,10.2604167 12.0953737,9.01041667 Z" id="Shape" fill="#3ECF8E"></path>
                    <path d="M9.33220641,11.25 C9.01939502,11.25 8.81085409,11.0416667 8.81085409,10.7291667 C8.81085409,10.2604167 8.44590747,9.89583333 7.97669039,9.89583333 C7.50747331,9.89583333 7.14252669,10.2604167 7.14252669,10.7291667 C7.14252669,11.0416667 6.93398577,11.25 6.62117438,11.25 C6.30836299,11.25 6.09982206,11.0416667 6.09982206,10.7291667 C6.09982206,9.6875 6.93398577,8.85416667 7.97669039,8.85416667 C9.01939502,8.85416667 9.85355872,9.6875 9.85355872,10.7291667 C9.85355872,11.0416667 9.64501779,11.25 9.33220641,11.25 Z" id="Shape" fill="#7F3076"></path>
                    <path d="M12.616726,11.6145833 C12.616726,11.6145833 21.2190391,11.3020833 25.1291815,7.39583333 C25.3898577,7.13541667 25.5983986,6.92708333 25.8069395,6.66666667 C28.3615658,3.85416667 24.2428826,-0.0520833333 21.5318505,2.65625 L12.616726,11.6145833 Z" id="Shape" fill="#3ECF8E"></path>
                    <path d="M21.7925267,11.09375 C21.7925267,11.09375 25.0770463,14.1666667 27.9966192,14.1666667 C28.1530249,14.1666667 28.3615658,14.1666667 28.5179715,14.1666667 C30.4991103,14.0625 30.4469751,11.09375 28.4137011,11.09375 L21.7925267,11.09375 Z" id="Shape" fill="#3ECF8E"></path>
                </g>
                <g id="Group" transform="translate(174.131673, 110.416667)">
                    <path d="M11.1048043,13.6458333 L1.19911032,13.6458333 C0.521352313,13.6458333 0,13.125 0,12.4479167 C0,11.7708333 0.521352313,11.25 1.19911032,11.25 L11.1048043,11.25 C11.7825623,11.25 12.3039146,11.7708333 12.3039146,12.4479167 C12.3560498,13.125 11.7825623,13.6458333 11.1048043,13.6458333 Z" id="Shape" fill="#FFB863"></path>
                    <path d="M19.5507117,23.0729167 L17.9345196,21.3541667 C17.6738434,21.09375 17.6738434,20.6770833 17.9866548,20.4166667 C18.247331,20.15625 18.6644128,20.15625 18.925089,20.46875 L20.5412811,22.1875 C20.8019573,22.4479167 20.8019573,22.8645833 20.4891459,23.125 C20.2284698,23.3854167 19.8113879,23.3333333 19.5507117,23.0729167 Z" id="Shape" fill="#FFB863"></path>
                    <path d="M20.5934164,23.125 L18.8729537,24.7395833 C18.6122776,25 18.1951957,25 17.9345196,24.6875 C17.6738434,24.4270833 17.6738434,24.0104167 17.9866548,23.75 L19.7071174,22.1354167 C19.9677936,21.875 20.3848754,21.875 20.6455516,22.1875 C20.8540925,22.4479167 20.8540925,22.9166667 20.5934164,23.125 Z" id="Shape" fill="#FFB863"></path>
                    <path d="M13.1902135,16.5625 C13.1902135,16.5625 21.7925267,11.8229167 23.7736655,5.83333333 C23.8779359,5.46875 24.0343416,5.10416667 24.0864769,4.73958333 C25.233452,0.572916667 19.0293594,-1.30208333 17.6738434,2.8125 L13.1902135,16.5625 Z" id="Shape" fill="#7F3076"></path>
                    <path d="M13.7115658,10.6770833 C13.7115658,10.6770833 13.7115658,10.625 13.7115658,10.6770833 C13.1380783,9.0625 11.730427,7.96875 10.0620996,7.70833333 C7.29893238,7.34375 5.00498221,9.47916667 5.00498221,12.1354167 C5.00498221,12.4479167 5.00498221,13.0208333 5.00498221,13.0208333 C5.00498221,17.6041667 10.1142349,21.3541667 16.4747331,21.3541667 C22.7830961,21.3541667 27.944484,17.6041667 27.944484,13.0208333 L16.9960854,13.0208333 C15.5362989,13.0208333 14.2329181,12.0833333 13.7115658,10.6770833 Z" id="Shape" fill="#9F578D"></path>
                    <path d="M10.6355872,13.1770833 C10.3227758,13.1770833 10.1142349,12.96875 10.1142349,12.65625 C10.1142349,12.0833333 9.64501779,11.6666667 9.12366548,11.6666667 C8.55017794,11.6666667 8.13309609,12.1354167 8.13309609,12.65625 C8.13309609,12.96875 7.92455516,13.1770833 7.61174377,13.1770833 C7.29893238,13.1770833 7.09039146,12.96875 7.09039146,12.65625 C7.09039146,11.5104167 8.02882562,10.625 9.12366548,10.625 C10.2706406,10.625 11.1569395,11.5625 11.1569395,12.65625 C11.1569395,12.9166667 10.8962633,13.1770833 10.6355872,13.1770833 Z" id="Shape" fill="#7F3076"></path>
                    <path d="M14.3371886,13.6458333 C14.3371886,13.6458333 24.1386121,13.3333333 28.622242,8.85416667 C28.8829181,8.59375 29.1435943,8.28125 29.4042705,8.02083333 C32.3238434,4.84375 27.6316726,0.364583333 24.555694,3.4375 L14.3371886,13.6458333 Z" id="Shape" fill="#9F578D"></path>
                    <path d="M24.8163701,13.0208333 C24.8163701,13.0208333 28.5701068,16.5625 31.9067616,16.5625 C32.1153025,16.5625 32.3238434,16.5625 32.5323843,16.5625 C34.8263345,16.4583333 34.7220641,13.0729167 32.4281139,13.0729167 L24.8163701,13.0729167 L24.8163701,13.0208333 Z" id="Shape" fill="#9F578D"></path>
                </g>
                <g id="Group" transform="translate(0.000000, 15.243056)">
                    <rect id="Rectangle-path" fill="#FF0022" transform="translate(16.524459, 50.379049) rotate(-5.472864) translate(-16.524459, -50.379049) " x="16.0031162" y="45.1332931" width="1" height="10.4868315"></rect>
                    <rect id="Rectangle-path" fill="#FF0022" x="20.9479359" y="45.2233796" width="1" height="10.4398148"></rect>
                    <rect id="Rectangle-path" fill="#FF0022" transform="translate(26.334350, 50.452295) rotate(-84.516820) translate(-26.334350, -50.452295) " x="21.0881793" y="49.9314728" width="10.4974623" height="1"></rect>
                    <rect id="Rectangle-path" fill="#FF0022" transform="translate(12.866205, 50.574084) rotate(-11.420052) translate(-12.866205, -50.574084) " x="12.34486" y="45.4707417" width="1" height="10.2025261"></rect>
                    <rect id="Rectangle-path" fill="#FF0022" transform="translate(30.030162, 50.746013) rotate(-78.620397) translate(-30.030162, -50.746013) " x="24.9270956" y="50.2251962" width="10.2122804" height="1"></rect>
                    <path d="M41.9433729,21.0694444 C41.9433729,23.6319444 40.8033491,27.0960648 39.2358165,30.6550926 C35.9582483,38.1527778 30.8756425,45.8877315 30.8756425,45.8877315 L11.1627323,45.8877315 C11.1627323,45.8877315 6.08012653,38.1053241 2.80255832,30.6550926 C1.2350257,27.0960648 0.0950019771,23.6319444 0.0950019771,21.0694444 C0.0950019771,19.1238426 0.380007908,17.2256944 0.855017794,15.4224537 C3.3250692,6.64351852 11.4002372,0.189814815 20.9954369,0.189814815 C30.5906366,0.189814815 38.6658047,6.64351852 41.1358561,15.4224537 C41.6583669,17.2256944 41.9433729,19.1238426 41.9433729,21.0694444 Z" id="Shape" fill="#FFB863"></path>
                    <path d="M24.6055121,64.9641204 L17.4328628,64.9641204 C15.3428193,64.9641204 13.5852827,63.3506944 13.4427798,61.2152778 L13.0152709,54.9039352 L29.023104,54.9039352 L28.5955951,61.2152778 C28.4530921,63.3506944 26.6955556,64.9641204 24.6055121,64.9641204 Z" id="Shape" fill="#F6DB65"></path>
                    <rect id="Rectangle-path" fill="#FF8A53" x="12.397758" y="54.1446759" width="17.1953578" height="1.3287037"></rect>
                    <rect id="Rectangle-path" fill="#FF8A53" x="10.6877224" y="45.2233796" width="20.66293" height="1.3287037"></rect>
                    <polygon id="Shape" fill="#FFB863" points="16.1503361 58.7002315 17.0528549 57.0868056 15.2478173 57.0868056"></polygon>
                    <polygon id="Shape" fill="#FFB863" points="19.0953974 62.9710648 19.9979162 61.4050926 18.1453776 61.4050926"></polygon>
                    <polygon id="Shape" fill="#FFB863" points="25.033021 57.8460648 25.9355397 56.2326389 24.1305022 56.2326389"></polygon>
                    <polygon id="Shape" fill="#FFB863" points="25.9355397 63.7777778 26.8380585 62.2118056 25.033021 62.2118056"></polygon>
                    <path d="M14.6303045,58.462963 C14.6303045,57.5613426 13.0152709,54.8564815 13.0152709,54.8564815 C13.0152709,54.8564815 11.4002372,57.5613426 11.4002372,58.462963 C11.4002372,59.3645833 12.1127521,60.0763889 13.0152709,60.0763889 C13.9177896,60.0763889 14.6303045,59.3645833 14.6303045,58.462963 Z" id="Shape" fill="#FF5C43"></path>
                    <path d="M22.6579715,58.5104167 C22.6579715,57.6087963 21.0429379,54.9039352 21.0429379,54.9039352 C21.0429379,54.9039352 19.4279043,57.6087963 19.4279043,58.5104167 C19.4279043,59.412037 20.1404191,60.1238426 21.0429379,60.1238426 C21.9454567,60.1238426 22.6579715,59.412037 22.6579715,58.5104167 Z" id="Shape" fill="#FF5C43"></path>
                    <path d="M30.6381376,58.5104167 C30.6381376,57.6087963 29.023104,54.9039352 29.023104,54.9039352 C29.023104,54.9039352 27.4080704,57.6087963 27.4080704,58.5104167 C27.4080704,59.412037 28.1205852,60.1238426 29.023104,60.1238426 C29.9256228,60.1238426 30.6381376,59.412037 30.6381376,58.5104167 Z" id="Shape" fill="#FF5C43"></path>
                    <g id="Shape">
                        <path d="M0.142502966,19.8356481 C0.142502966,19.4560185 0.194638197,19.0763889 0.246773428,18.6967593 C0.194638197,19.0763889 0.142502966,19.4560185 0.142502966,19.8356481 Z" fill="#CC39BB"></path>
                        <path d="M0.0950019771,21.0694444 C0.0950019771,20.6898148 0.0950019771,20.3101852 0.147137208,19.9305556 C0.0950019771,20.3101852 0.0950019771,20.6898148 0.0950019771,21.0694444 Z" fill="#CC39BB"></path>
                        <path d="M4.03758403,8.82638889 C4.27508897,8.49421296 4.51259391,8.16203704 4.79759984,7.82986111 C4.5600949,8.16203704 4.27508897,8.49421296 4.03758403,8.82638889 Z" fill="#CC39BB"></path>
                        <path d="M0.147137208,21.8287037 C0.147137208,21.5439815 0.0950019771,21.306713 0.0950019771,21.0694444 C0.0950019771,21.306713 0.0950019771,21.5914352 0.147137208,21.8287037 Z" fill="#CC39BB"></path>
                        <path d="M41.9433729,21.5439815 C41.9433729,21.5960648 41.9433729,21.6481481 41.9433729,21.7002315 C41.9433729,21.6481481 41.9433729,21.5960648 41.9433729,21.5439815 Z" fill="#CC39BB"></path>
                        <path d="M37.145773,7.7349537 C37.430779,8.06712963 37.6682839,8.39930556 37.9532898,8.77893519 C37.6682839,8.44675926 37.430779,8.06712963 37.145773,7.7349537 Z" fill="#CC39BB"></path>
                        <path d="M41.9433729,20.0729167 C41.9433729,20.4050926 41.9955081,20.7372685 41.9955081,21.0694444 C41.9433729,20.7372685 41.9433729,20.4050926 41.9433729,20.0729167 Z" fill="#CC39BB"></path>
                        <path d="M37.9532898,8.82638889 C38.1907948,9.15856481 38.4758007,9.53819444 38.7133057,9.91782407 C38.4758007,9.53819444 38.2382958,9.15856481 37.9532898,8.82638889 Z" fill="#CC39BB"></path>
                        <path d="M0.246773428,22.7777778 C0.194638197,22.4930556 0.142502966,22.255787 0.142502966,21.9710648 C0.142502966,22.2083333 0.194638197,22.4930556 0.246773428,22.7777778 Z" fill="#CC39BB"></path>
                        <path d="M36.3139265,36.681713 C36.209656,36.837963 36.1575208,36.994213 36.0532503,37.150463 C36.1575208,36.994213 36.2617912,36.837963 36.3139265,36.681713 Z" fill="#CC39BB"></path>
                        <path d="M36.6464334,36.0648148 C36.5421629,36.2210648 36.4900277,36.3773148 36.3857572,36.5335648 C36.4900277,36.3773148 36.5942981,36.2210648 36.6464334,36.0648148 Z" fill="#CC39BB"></path>
                        <path d="M36.9789403,35.400463 C36.8746698,35.556713 36.7703994,35.7650463 36.7182641,35.9212963 C36.8225346,35.7650463 36.9268051,35.6087963 36.9789403,35.400463 Z" fill="#CC39BB"></path>
                        <path d="M37.9057888,33.5497685 C37.6207829,34.1666667 37.335777,34.7361111 37.0032701,35.3055556 C37.335777,34.7361111 37.6207829,34.1666667 37.9057888,33.5497685 Z" fill="#CC39BB"></path>
                        <path d="M35.0557295,38.9594907 C34.4382167,40.0509259 33.8682048,41.0474537 33.345694,41.9490741 C33.8682048,41 34.4382167,40.0034722 35.0557295,38.9594907 Z" fill="#CC39BB"></path>
                        <path d="M35.9814195,37.2986111 C35.8771491,37.4548611 35.8250138,37.6111111 35.7207434,37.7673611 C35.8250138,37.6111111 35.9292843,37.4548611 35.9814195,37.2986111 Z" fill="#CC39BB"></path>
                        <path d="M41.8958719,22.0185185 C41.8958719,22.0706019 41.8958719,22.1747685 41.8958719,22.2268519 C41.8958719,22.1747685 41.8958719,22.0706019 41.8958719,22.0185185 Z" fill="#CC39BB"></path>
                        <path d="M35.6964136,37.8680556 C35.5921431,38.0243056 35.5400079,38.1805556 35.4357374,38.3368056 C35.4878727,38.1805556 35.5921431,38.0243056 35.6964136,37.8680556 Z" fill="#CC39BB"></path>
                        <path d="M35.3639067,38.4375 C35.2596362,38.59375 35.207501,38.75 35.1032305,38.90625 C35.207501,38.75 35.2596362,38.59375 35.3639067,38.4375 Z" fill="#CC39BB"></path>
                        <path d="M37.098272,7.6875 C36.5282602,7.02314815 35.9107473,6.3587963 35.2932345,5.74189815 C35.9107473,6.3587963 36.5282602,7.02314815 37.098272,7.6875 Z" fill="#CC39BB"></path>
                        <path d="M41.7580032,23.0150463 C41.7580032,23.119213 41.7058679,23.1712963 41.7058679,23.275463 C41.7580032,23.1712963 41.7580032,23.119213 41.7580032,23.0150463 Z" fill="#CC39BB"></path>
                        <path d="M8.265172,6.88078704 L14.5828035,2.89467593 L20.900435,6.88078704 L27.2180664,2.89467593 L33.5356979,6.88078704 L35.2932345,5.78935185 C31.5406564,2.32523148 26.5530526,0.189814815 21.0429379,0.189814815 C14.5353025,0.189814815 8.6926809,3.17939815 4.84510083,7.82986111 C5.41511269,7.16550926 6.03262554,6.50115741 6.65013839,5.88425926 L8.265172,6.88078704 Z" fill="#FE4849"></path>
                        <path d="M41.5679992,24.1539352 C41.5679992,24.2060185 41.515864,24.3101852 41.515864,24.3622685 C41.515864,24.2581019 41.515864,24.2060185 41.5679992,24.1539352 Z" fill="#CC39BB"></path>
                        <path d="M33.5356979,27.9027778 L27.2180664,23.9166667 L20.900435,27.9027778 L14.5828035,23.9166667 L8.265172,27.9027778 L1.94754053,23.9166667 L0.665013839,24.7233796 C0.475009885,24.0590278 0.380007908,23.4421296 0.285005931,22.8726852 C0.665013839,25.150463 1.61503361,27.9027778 2.80255832,30.6550926 C4.51259391,34.4988426 6.65013839,38.4375 8.36017398,41.3321759 C7.12514828,39.1967593 5.60511665,36.5393519 4.22758798,33.787037 L8.265172,36.349537 L14.5828035,32.3634259 L20.900435,36.349537 L27.2180664,32.3634259 L33.5356979,36.349537 L37.9057888,33.5497685 C38.3807987,32.6006944 38.8083076,31.6041667 39.2358165,30.6550926 C40.0908343,28.662037 40.8508501,26.6689815 41.32586,24.8657407 L39.8058284,23.9166667 L33.5356979,27.9027778 Z" fill="#8DD46F"></path>
                        <path d="M8.265172,21.5914352 L14.5828035,17.6053241 L20.900435,21.5914352 L27.2180664,17.6053241 L33.5356979,21.5914352 L39.8533294,17.6053241 L41.8483709,18.8865741 C41.8958719,19.21875 41.8958719,19.5509259 41.9433729,19.8831019 C41.8483709,18.3645833 41.610866,16.8460648 41.1833571,15.4224537 C40.6133452,13.4768519 39.8058284,11.6261574 38.7133057,9.91782407 L33.5356979,13.1921296 L27.2180664,9.20601852 L20.900435,13.1921296 L14.5828035,9.20601852 L8.265172,13.1921296 L3.23006722,10.0127315 C3.46757216,9.68055556 3.65757612,9.30092593 3.89508106,8.96875 C2.51755239,10.9143519 1.47253064,13.0497685 0.807516805,15.375 C0.522510874,16.4189815 0.285005931,17.5578704 0.190003954,18.6493056 L1.90003954,17.5578704 L8.265172,21.5914352 Z" fill="#FFB863"></path>
                        <path d="M27.2180664,38.6273148 L20.900435,42.6134259 L14.5828035,38.6273148 L8.88268486,42.2337963 C8.74018189,41.9490741 8.55017794,41.6643519 8.36017398,41.3796296 C9.97520759,44.0844907 11.1627323,45.8877315 11.1627323,45.8877315 L30.8756425,45.8877315 C30.8756425,45.8877315 31.9206643,44.3217593 33.345694,41.9016204 C33.250692,42.0439815 33.15569,42.1863426 33.060688,42.3287037 L27.2180664,38.6273148 Z" fill="#5C56B6"></path>
                        <path d="M41.6630012,23.5844907 C41.6630012,23.6886574 41.610866,23.7407407 41.610866,23.8449074 C41.6630012,23.7407407 41.6630012,23.6365741 41.6630012,23.5844907 Z" fill="#CC39BB"></path>
                        <path d="M41.8530051,22.4930556 C41.8530051,22.5451389 41.8530051,22.6493056 41.8008699,22.7013889 C41.8008699,22.6493056 41.8530051,22.5972222 41.8530051,22.4930556 Z" fill="#CC39BB"></path>
                        <path d="M36.1100198,37.1087963 C36.0578845,37.1608796 36.0578845,37.2650463 36.0057493,37.3171296 C36.0057493,37.212963 36.0578845,37.1608796 36.1100198,37.1087963 Z" fill="#F6DB65"></path>
                        <path d="M35.7775129,37.7256944 C35.7253776,37.7777778 35.7253776,37.8298611 35.6732424,37.9340278 C35.6732424,37.8298611 35.7253776,37.7777778 35.7775129,37.7256944 Z" fill="#F6DB65"></path>
                        <path d="M35.1078648,38.8645833 C35.1078648,38.8645833 35.1078648,38.9166667 35.0557295,38.9166667 C35.0557295,38.9166667 35.1078648,38.9166667 35.1078648,38.8645833 Z" fill="#F6DB65"></path>
                        <path d="M37.0079043,35.3530093 C37.0079043,35.4050926 36.9557691,35.4050926 36.9557691,35.4571759 C37.0079043,35.4050926 37.0079043,35.3530093 37.0079043,35.3530093 Z" fill="#F6DB65"></path>
                        <path d="M36.3950257,36.4918981 C36.3428905,36.5439815 36.3428905,36.5960648 36.2907552,36.7002315 C36.3428905,36.5960648 36.3950257,36.5439815 36.3950257,36.4918981 Z" fill="#F6DB65"></path>
                        <path d="M36.7275326,35.875 C36.6753974,35.9270833 36.6753974,35.9791667 36.6232622,36.03125 C36.6753974,35.9791667 36.6753974,35.9270833 36.7275326,35.875 Z" fill="#F6DB65"></path>
                        <path d="M35.4450059,38.2951389 C35.3928707,38.3472222 35.3928707,38.3993056 35.3407355,38.4513889 C35.3928707,38.3993056 35.3928707,38.3472222 35.4450059,38.2951389 Z" fill="#F6DB65"></path>
                        <path d="M27.2180664,32.3159722 L20.900435,36.3020833 L14.5828035,32.3159722 L8.265172,36.3020833 L4.22758798,33.7395833 C5.60511665,36.5393519 7.07764729,39.1967593 8.36017398,41.2847222 C8.36017398,41.2847222 8.36017398,41.3321759 8.40767497,41.3321759 C8.59767892,41.6168981 8.74018189,41.9016204 8.93018584,42.1863426 L14.6303045,38.5798611 L20.9479359,42.5659722 L27.2655674,38.5798611 L33.15569,42.28125 C33.250692,42.1388889 33.345694,41.9965278 33.4406959,41.8541667 C33.4406959,41.8541667 33.4406959,41.8541667 33.4406959,41.8541667 C33.9632068,40.9525463 34.5332187,39.9560185 35.1507315,38.8645833 C35.1507315,38.8645833 35.1507315,38.8171296 35.1982325,38.8171296 C35.2932345,38.6747685 35.3407355,38.5324074 35.4357374,38.3900463 C35.4832384,38.3425926 35.4832384,38.2951389 35.5307394,38.2476852 C35.6257414,38.1053241 35.6732424,37.962963 35.7682444,37.8206019 C35.8157454,37.7731481 35.8157454,37.7256944 35.8632463,37.630787 C35.9582483,37.4884259 36.0057493,37.3460648 36.1007513,37.2037037 C36.1482523,37.15625 36.1482523,37.0613426 36.1957533,37.0138889 C36.2907552,36.8715278 36.3382562,36.7291667 36.4332582,36.5868056 C36.4807592,36.5393519 36.4807592,36.4918981 36.5282602,36.3969907 C36.6232622,36.2546296 36.6707631,36.1122685 36.7657651,35.9699074 C36.8132661,35.9224537 36.8132661,35.875 36.8607671,35.8275463 C36.9557691,35.6851852 37.0507711,35.4953704 37.098272,35.3530093 C37.098272,35.3055556 37.145773,35.3055556 37.145773,35.2581019 C37.430779,34.6886574 37.7632859,34.0717593 38.0482918,33.5023148 C38.0482918,33.5023148 38.0482918,33.5023148 38.0482918,33.5023148 L33.6782009,36.3020833 L27.2180664,32.3159722 Z" fill="#01B6F5"></path>
                        <path d="M41.5297667,24.34375 C41.4776315,24.5335648 41.4254962,24.7233796 41.373361,24.8657407 C41.4254962,24.6759259 41.4776315,24.5335648 41.5297667,24.34375 Z" fill="#FFB863"></path>
                        <path d="M41.9005061,22.2083333 C41.9005061,22.3125 41.9005061,22.4166667 41.8483709,22.5208333 C41.8483709,22.4166667 41.8483709,22.3125 41.9005061,22.2083333 Z" fill="#FFB863"></path>
                        <path d="M41.9480071,21.6863426 C41.9480071,21.7905093 41.9480071,21.8946759 41.8958719,22.0509259 C41.8958719,21.9467593 41.8958719,21.7905093 41.9480071,21.6863426 Z" fill="#FFB863"></path>
                        <path d="M41.9433729,21.0694444 C41.9433729,21.2256944 41.9433729,21.3819444 41.9433729,21.5902778 C41.9433729,21.4340278 41.9433729,21.2256944 41.9433729,21.0694444 Z" fill="#FFB863"></path>
                        <path d="M0.142502966,21.9849537 C0.142502966,21.9328704 0.142502966,21.880787 0.142502966,21.8287037 C0.142502966,21.880787 0.142502966,21.9328704 0.142502966,21.9849537 Z" fill="#FFB863"></path>
                        <path d="M41.7105022,23.2523148 C41.7105022,23.3564815 41.6583669,23.4606481 41.6583669,23.6168981 C41.7105022,23.4606481 41.7105022,23.3564815 41.7105022,23.2523148 Z" fill="#FFB863"></path>
                        <path d="M0.237504943,22.8819444 C0.237504943,22.8298611 0.237504943,22.8298611 0.237504943,22.7777778 C0.237504943,22.8298611 0.237504943,22.8298611 0.237504943,22.8819444 Z" fill="#FFB863"></path>
                        <path d="M41.8055042,22.7303241 C41.8055042,22.8344907 41.7533689,22.9386574 41.7533689,23.0428241 C41.8055042,22.9386574 41.8055042,22.8344907 41.8055042,22.7303241 Z" fill="#FFB863"></path>
                        <path d="M41.8958719,19.8356481 C41.8958719,19.9398148 41.8958719,19.9918981 41.8958719,20.0960648 C41.8958719,20.0439815 41.8958719,19.9398148 41.8958719,19.8356481 Z" fill="#FFB863"></path>
                        <path d="M0.142502966,19.9444444 C0.142502966,19.8923611 0.142502966,19.8402778 0.142502966,19.7881944 C0.142502966,19.8923611 0.142502966,19.9444444 0.142502966,19.9444444 Z" fill="#FFB863"></path>
                        <path d="M41.6201344,23.7743056 C41.5679992,23.8784722 41.5679992,24.0347222 41.515864,24.1388889 C41.5679992,24.0347222 41.6201344,23.9305556 41.6201344,23.7743056 Z" fill="#FFB863"></path>
                        <path d="M41.563365,24.1539352 C41.610866,24.0590278 41.610866,23.9166667 41.6583669,23.8217593 C41.6583669,23.7268519 41.7058679,23.6793981 41.7058679,23.5844907 C41.7058679,23.4895833 41.7533689,23.3946759 41.7533689,23.2523148 C41.7533689,23.1574074 41.8008699,23.1099537 41.8008699,23.0150463 C41.8008699,22.9201389 41.8483709,22.8252315 41.8483709,22.7303241 C41.8483709,22.6354167 41.8483709,22.587963 41.8958719,22.5405093 C41.8958719,22.4456019 41.9433729,22.3506944 41.9433729,22.255787 C41.9433729,22.2083333 41.9433729,22.1134259 41.9433729,22.0659722 C41.9433729,21.9710648 41.9433729,21.8287037 41.9908739,21.7337963 C41.9908739,21.6863426 41.9908739,21.6388889 41.9908739,21.5914352 C41.9908739,21.4490741 41.9908739,21.2592593 41.9908739,21.1168981 C41.9908739,20.7847222 41.9908739,20.4525463 41.9433729,20.1203704 C41.9433729,20.025463 41.9433729,19.9780093 41.9433729,19.8831019 C41.9433729,19.5509259 41.8958719,19.21875 41.8483709,18.8865741 L39.8533294,17.6053241 L33.5356979,21.5914352 L27.2180664,17.6053241 L20.900435,21.5914352 L14.5828035,17.6053241 L8.265172,21.5914352 L1.94754053,17.6053241 L0.237504943,18.6967593 C0.237504943,18.6967593 0.237504943,18.6967593 0.237504943,18.6967593 C0.190003954,19.0763889 0.142502966,19.4560185 0.142502966,19.8356481 C0.142502966,19.8831019 0.142502966,19.9305556 0.142502966,19.9780093 C0.142502966,20.3576389 0.0950019771,20.7372685 0.0950019771,21.1168981 C0.0950019771,21.3541667 0.0950019771,21.6388889 0.142502966,21.8761574 C0.142502966,21.9236111 0.142502966,21.9710648 0.142502966,22.0185185 C0.142502966,22.3032407 0.190003954,22.5405093 0.237504943,22.8252315 C0.237504943,22.8726852 0.237504943,22.8726852 0.237504943,22.9201389 C0.33250692,23.537037 0.475009885,24.1539352 0.617512851,24.7708333 L1.90003954,23.9641204 L8.21767102,27.9502315 L14.5353025,23.9641204 L20.852934,27.9502315 L27.1705654,23.9641204 L33.4881969,27.9502315 L39.8058284,23.9641204 L41.32586,24.9131944 C41.373361,24.7233796 41.420862,24.5335648 41.468363,24.3912037 C41.515864,24.2488426 41.515864,24.2013889 41.563365,24.1539352 Z" fill="#F6DB65"></path>
                        <path d="M37.098272,7.6875 C37.098272,7.73958333 37.1504073,7.73958333 37.098272,7.6875 C37.1504073,7.73958333 37.098272,7.73958333 37.098272,7.6875 Z" fill="#FF8A53"></path>
                        <path d="M3.94258205,9.03009259 C3.99471728,8.97800926 4.04685251,8.92592593 4.04685251,8.87384259 C3.99471728,8.87384259 3.99471728,8.92592593 3.94258205,9.03009259 Z" fill="#FF8A53"></path>
                        <path d="M4.79759984,7.82986111 C4.79759984,7.82986111 4.84973507,7.82986111 4.79759984,7.82986111 C4.84973507,7.82986111 4.79759984,7.82986111 4.79759984,7.82986111 Z" fill="#FF8A53"></path>
                        <path d="M37.9532898,8.77893519 C37.9532898,8.77893519 37.9532898,8.83101852 37.9532898,8.77893519 C37.9532898,8.83101852 37.9532898,8.77893519 37.9532898,8.77893519 Z" fill="#FF8A53"></path>
                        <path d="M8.265172,13.1921296 L14.5828035,9.20601852 L20.900435,13.1921296 L27.2180664,9.20601852 L33.5356979,13.1921296 L38.7133057,9.91782407 C38.7133057,9.91782407 38.7133057,9.91782407 38.7133057,9.91782407 C38.4758007,9.53819444 38.2382958,9.15856481 37.9532898,8.82638889 C37.9532898,8.82638889 37.9532898,8.77893519 37.9057888,8.77893519 C37.6682839,8.44675926 37.383278,8.06712963 37.098272,7.7349537 C37.098272,7.7349537 37.0507711,7.6875 37.0507711,7.6875 C36.4807592,7.02314815 35.8632463,6.3587963 35.2457335,5.74189815 C35.2457335,5.74189815 35.2457335,5.74189815 35.2457335,5.74189815 L33.4881969,6.83333333 L27.1705654,2.84722222 L20.852934,6.83333333 L14.5353025,2.84722222 L8.21767102,6.83333333 L6.60263741,5.83680556 C5.93762357,6.4537037 5.3676117,7.07060185 4.79759984,7.78240741 C4.79759984,7.78240741 4.79759984,7.82986111 4.75009885,7.82986111 C4.46509292,8.16203704 4.22758798,8.49421296 3.99008304,8.82638889 C3.94258205,8.87384259 3.89508106,8.9212963 3.89508106,8.96875 C3.65757612,9.30092593 3.42007117,9.63310185 3.23006722,10.0127315 L8.265172,13.1921296 Z" fill="#FF8A53"></path>
                    </g>
                </g>
                <g id="Group" transform="translate(238.779359, 68.750000)">
                    <rect id="Rectangle-path" fill="#FF0022" transform="translate(20.332740, 62.500000) rotate(-5.472968) translate(-20.332740, -62.500000) " x="19.8113879" y="56.25" width="1" height="12.5"></rect>
                    <rect id="Rectangle-path" fill="#FF0022" x="27.1103203" y="56.25" width="1" height="12.5"></rect>
                    <rect id="Rectangle-path" fill="#FF0022" transform="translate(33.366548, 61.979167) rotate(-84.511580) translate(-33.366548, -61.979167) " x="27.1103203" y="61.4583333" width="12.5124555" height="1"></rect>
                    <rect id="Rectangle-path" fill="#FF0022" transform="translate(16.161922, 63.541667) rotate(-11.420052) translate(-16.161922, -63.541667) " x="15.6405694" y="57.2916667" width="1" height="12.5"></rect>
                    <rect id="Rectangle-path" fill="#FF0022" transform="translate(36.494662, 63.020833) rotate(-78.632762) translate(-36.494662, -63.020833) " x="30.2384342" y="62.5" width="12.5124555" height="1"></rect>
                    <path d="M52.1352313,26.1946573 C52.1352313,29.4141124 50.7498196,33.731109 48.7810766,38.1944444 C44.6977578,47.560132 38.3540303,57.2916667 38.3540303,57.2916667 L13.781201,57.2916667 C13.781201,57.2916667 7.43747356,47.560132 3.35415474,38.1944444 C1.38541174,33.731109 0,29.4141124 0,26.1946573 C0,23.7068966 0.364582037,21.3654747 0.947913297,19.0972222 C4.01040241,8.12180715 14.0728666,0 26.0311575,0 C37.9894483,0 48.0519125,8.04863772 51.1144016,19.0972222 C51.7706493,21.3654747 52.1352313,23.7068966 52.1352313,26.1946573 Z" id="Shape" fill="#FFB863"></path>
                    <path d="M30.9272281,81.25 L22.1060992,81.25 C19.5031431,81.25 17.334013,79.2151163 17.1894044,76.5988372 L16.683274,68.75 L36.4946619,68.75 L35.9885316,76.5988372 C35.6993142,79.2151163 33.5301842,81.25 30.9272281,81.25 Z" id="Shape" fill="#F6DB65"></path>
                    <rect id="Rectangle-path" fill="#FF8A53" x="15.6405694" y="66.6666667" width="21.8967972" height="2.08333333"></rect>
                    <rect id="Rectangle-path" fill="#FF8A53" x="13.5551601" y="56.25" width="26.0676157" height="2.08333333"></rect>
                    <polygon id="Shape" fill="#FFB863" points="19.8450235 72.9166667 20.8540925 70.8333333 18.7686833 70.8333333"></polygon>
                    <polygon id="Shape" fill="#FFB863" points="23.9822064 78.125 25.024911 76.0416667 22.9395018 76.0416667"></polygon>
                    <polygon id="Shape" fill="#FFB863" points="31.3147744 71.875 32.3238434 69.7916667 30.2384342 69.7916667"></polygon>
                    <polygon id="Shape" fill="#FFB863" points="32.2902078 79.1666667 33.366548 77.0833333 31.2811388 77.0833333"></polygon>
                    <path d="M18.7686833,73.8044508 C18.7686833,72.561553 16.683274,68.75 16.683274,68.75 C16.683274,68.75 14.5978648,72.561553 14.5978648,73.8044508 C14.5978648,75.0473485 15.5247133,76.0416667 16.683274,76.0416667 C17.8418347,76.0416667 18.7686833,75.0473485 18.7686833,73.8044508 Z" id="Shape" fill="#FF5C43"></path>
                    <path d="M29.1957295,73.8044508 C29.1957295,72.561553 27.1103203,68.75 27.1103203,68.75 C27.1103203,68.75 25.024911,72.561553 25.024911,73.8044508 C25.024911,75.0473485 25.9517596,76.0416667 27.1103203,76.0416667 C28.268881,76.0416667 29.1957295,75.0473485 29.1957295,73.8044508 Z" id="Shape" fill="#FF5C43"></path>
                    <path d="M38.5800712,73.8044508 C38.5800712,72.561553 36.4946619,68.75 36.4946619,68.75 C36.4946619,68.75 34.4092527,72.561553 34.4092527,73.8044508 C34.4092527,75.0473485 35.3361012,76.0416667 36.4946619,76.0416667 C37.6532226,76.0416667 38.5800712,75.0473485 38.5800712,73.8044508 Z" id="Shape" fill="#FF5C43"></path>
                    <g id="Shape">
                        <path d="M0.219813408,24.6230693 C0.219813408,24.1859734 0.293084544,23.6760282 0.36635568,23.2389323 C0.293084544,23.6760282 0.293084544,24.1131241 0.219813408,24.6230693 Z" fill="#CC39BB"></path>
                        <path d="M0.219813408,26.152905 C0.219813408,25.7158091 0.219813408,25.2058639 0.293084544,24.768768 C0.219813408,25.2058639 0.219813408,25.7158091 0.219813408,26.152905 Z" fill="#CC39BB"></path>
                        <path d="M5.12897951,10.9273976 C5.42206406,10.4903017 5.7151486,10.1260551 6.08150428,9.68895923 C5.78841974,10.0532058 5.42206406,10.4903017 5.12897951,10.9273976 Z" fill="#CC39BB"></path>
                        <path d="M0.219813408,27.0999461 C0.219813408,26.7356995 0.146542272,26.4443023 0.146542272,26.152905 C0.219813408,26.4443023 0.219813408,26.8085489 0.219813408,27.0999461 Z" fill="#CC39BB"></path>
                        <path d="M52.6086756,26.7356995 C52.6086756,26.8085489 52.6086756,26.8813982 52.6086756,26.9542475 C52.5354044,26.8813982 52.5354044,26.8085489 52.6086756,26.7356995 Z" fill="#CC39BB"></path>
                        <path d="M46.6004424,9.5432606 C46.9667981,9.9803565 47.2598827,10.4174524 47.6262383,10.8545483 C47.2598827,10.4174524 46.893527,9.9803565 46.6004424,9.5432606 Z" fill="#CC39BB"></path>
                        <path d="M52.5354044,24.9144666 C52.5354044,25.3515625 52.5354044,25.7158091 52.5354044,26.152905 C52.6086756,25.7158091 52.6086756,25.3515625 52.5354044,24.9144666 Z" fill="#CC39BB"></path>
                        <path d="M47.6262383,10.8545483 C47.9193229,11.2916442 48.2856786,11.7287401 48.5787631,12.2386853 C48.2856786,11.8015894 47.9193229,11.3644935 47.6262383,10.8545483 Z" fill="#CC39BB"></path>
                        <path d="M0.36635568,28.2655352 C0.293084544,27.9012886 0.293084544,27.6098913 0.219813408,27.2456448 C0.293084544,27.6098913 0.293084544,27.9012886 0.36635568,28.2655352 Z" fill="#CC39BB"></path>
                        <path d="M45.5013754,45.6036728 C45.4281043,45.7493714 45.281562,45.9679194 45.2082909,46.113618 C45.3548331,45.9679194 45.4281043,45.7493714 45.5013754,45.6036728 Z" fill="#CC39BB"></path>
                        <path d="M45.9410022,44.8023303 C45.8677311,45.0208782 45.7211888,45.1665769 45.6479177,45.3851248 C45.7211888,45.1665769 45.8677311,45.0208782 45.9410022,44.8023303 Z" fill="#CC39BB"></path>
                        <path d="M46.380629,44.0009878 C46.3073579,44.2195357 46.1608156,44.4380837 46.0875445,44.5837823 C46.1608156,44.4380837 46.2340868,44.2195357 46.380629,44.0009878 Z" fill="#CC39BB"></path>
                        <path d="M47.5529672,41.7426589 C47.1866115,42.4711521 46.8202558,43.1996453 46.4539002,43.9281385 C46.8202558,43.1996453 47.1866115,42.4711521 47.5529672,41.7426589 Z" fill="#CC39BB"></path>
                        <path d="M43.9626815,48.4447962 C43.2299702,49.7560839 42.4972588,51.0673716 41.8378186,52.1601114 C42.4972588,50.9945223 43.2299702,49.7560839 43.9626815,48.4447962 Z" fill="#CC39BB"></path>
                        <path d="M45.1350197,46.3321659 C45.0617486,46.4778646 44.9152063,46.6964125 44.8419352,46.8421112 C44.9152063,46.6964125 45.0617486,46.5507139 45.1350197,46.3321659 Z" fill="#CC39BB"></path>
                        <path d="M52.5354044,27.3184941 C52.5354044,27.3913434 52.5354044,27.4641927 52.5354044,27.537042 C52.5354044,27.4641927 52.5354044,27.3913434 52.5354044,27.3184941 Z" fill="#CC39BB"></path>
                        <path d="M44.6953929,47.0606591 C44.6221218,47.2063578 44.4755795,47.4249057 44.4023084,47.5706043 C44.5488506,47.4249057 44.6221218,47.2792071 44.6953929,47.0606591 Z" fill="#CC39BB"></path>
                        <path d="M44.3290372,47.7891523 C44.2557661,48.0077003 44.1092238,48.1533989 44.0359527,48.3719468 C44.1092238,48.1533989 44.182495,48.0077003 44.3290372,47.7891523 Z" fill="#CC39BB"></path>
                        <path d="M46.5271713,9.47041128 C45.7944599,8.59621947 45.0617486,7.79487698 44.2557661,7.0663838 C45.0617486,7.86772629 45.7944599,8.66906879 46.5271713,9.47041128 Z" fill="#CC39BB"></path>
                        <path d="M52.3888622,28.6297818 C52.3888622,28.7026311 52.3888622,28.8483297 52.315591,28.9211791 C52.315591,28.7754804 52.315591,28.7026311 52.3888622,28.6297818 Z" fill="#CC39BB"></path>
                        <path d="M10.4045013,8.45052083 L18.317784,3.49676724 L26.2310667,8.45052083 L34.1443493,3.49676724 L42.057632,8.45052083 L44.2557661,7.0663838 C39.5664134,2.69542475 33.2650957,0.0728493175 26.3776089,0.0728493175 C18.2445128,0.0728493175 10.9173992,3.78816451 6.15477542,9.61610991 C6.88748678,8.7419181 7.62019813,7.94057561 8.42618063,7.21208244 L10.4045013,8.45052083 Z" fill="#FE4849"></path>
                        <path d="M52.0957776,29.9410695 C52.0957776,30.0139188 52.0225065,30.0867681 52.0225065,30.1596175 C52.0225065,30.1596175 52.0957776,30.0867681 52.0957776,29.9410695 Z" fill="#CC39BB"></path>
                        <path d="M42.057632,34.6762751 L34.1443493,29.7225216 L26.2310667,34.6762751 L18.317784,29.7225216 L10.4045013,34.6762751 L2.49121862,29.7225216 L0.879253631,30.742412 C0.659440223,29.9410695 0.512897951,29.139727 0.36635568,28.4112338 C0.805982495,31.2523572 2.05159181,34.6762751 3.51701452,38.1001931 C5.64187746,42.908248 8.35290949,47.7891523 10.4777724,51.4316182 C8.93907858,48.8090427 7.03402905,45.4579741 5.34879292,42.0340562 L10.4045013,45.2394262 L18.317784,40.2856726 L26.2310667,45.2394262 L34.1443493,40.2856726 L42.057632,45.2394262 L47.5529672,41.7426589 C48.1391363,40.5770699 48.7253054,39.3386315 49.2382033,38.1730424 C50.3372704,35.6961656 51.2897951,33.2192888 51.8759642,30.9609599 L49.9709147,29.7953709 L42.057632,34.6762751 Z" fill="#8DD46F"></path>
                        <path d="M10.4045013,26.8085489 L18.317784,21.8547953 L26.2310667,26.8085489 L34.1443493,21.8547953 L42.057632,26.8085489 L49.9709147,21.8547953 L52.4621333,23.4574802 C52.5354044,23.8945761 52.5354044,24.2588227 52.5354044,24.6959186 C52.3888622,22.8018364 52.0957776,20.9077541 51.5828797,19.1593705 C50.9234395,16.6824937 49.8243724,14.4241649 48.505492,12.3115347 L41.9843609,16.3910964 L34.0710782,11.4373429 L26.1577955,16.3910964 L18.2445128,11.4373429 L10.3312302,16.3910964 L4.02991247,12.4572333 C4.32299702,12.0201374 4.61608156,11.5830415 4.90916611,11.1459456 C3.22392998,13.5499731 1.90504953,16.2453978 1.09906704,19.1593705 C0.732711359,20.4706582 0.439626815,21.8547953 0.293084544,23.2389323 L2.41794748,21.8547953 L10.4045013,26.8085489 Z" fill="#FFB863"></path>
                        <path d="M34.1443493,48.0077003 L26.2310667,52.9614538 L18.317784,48.0077003 L11.2104838,52.5243579 C10.9906704,52.1601114 10.770857,51.7958648 10.5510436,51.4316182 C12.5293642,54.7826868 14.0680581,57.0410156 14.0680581,57.0410156 L38.7604309,57.0410156 C38.7604309,57.0410156 40.0793113,55.0740841 41.8378186,52.087262 C41.6912763,52.30581 41.6180052,52.4515086 41.5447341,52.6700566 L34.1443493,48.0077003 Z" fill="#663398"></path>
                        <path d="M52.2423199,29.2854256 C52.2423199,29.358275 52.2423199,29.5039736 52.1690488,29.5768229 C52.1690488,29.4311243 52.2423199,29.358275 52.2423199,29.2854256 Z" fill="#CC39BB"></path>
                        <path d="M52.4621333,27.9741379 C52.4621333,28.0469872 52.4621333,28.1198366 52.3888622,28.2655352 C52.4621333,28.1198366 52.4621333,28.0469872 52.4621333,27.9741379 Z" fill="#CC39BB"></path>
                        <path d="M45.2082909,46.113618 C45.1350197,46.1864673 45.1350197,46.2593166 45.0617486,46.3321659 C45.1350197,46.2593166 45.2082909,46.1864673 45.2082909,46.113618 Z" fill="#F6DB65"></path>
                        <path d="M44.8419352,46.8421112 C44.768664,46.9149605 44.768664,46.9878098 44.6953929,47.0606591 C44.768664,46.9878098 44.768664,46.9149605 44.8419352,46.8421112 Z" fill="#F6DB65"></path>
                        <path d="M44.0359527,48.3719468 C44.0359527,48.3719468 43.9626815,48.3719468 44.0359527,48.3719468 C43.9626815,48.3719468 44.0359527,48.3719468 44.0359527,48.3719468 Z" fill="#F6DB65"></path>
                        <path d="M10.5510436,51.5044675 C10.5510436,51.4316182 10.5510436,51.4316182 10.5510436,51.5044675 C10.5510436,51.4316182 10.5510436,51.4316182 10.5510436,51.5044675 Z" fill="#F6DB65"></path>
                        <path d="M41.8378186,52.087262 C41.8378186,52.087262 41.8378186,52.1601114 41.8378186,52.087262 C41.8378186,52.1601114 41.8378186,52.087262 41.8378186,52.087262 Z" fill="#F6DB65"></path>
                        <path d="M46.380629,43.9281385 C46.380629,43.9281385 46.380629,44.0009878 46.3073579,44.0009878 C46.380629,44.0009878 46.380629,43.9281385 46.380629,43.9281385 Z" fill="#F6DB65"></path>
                        <path d="M45.6479177,45.3851248 C45.5746465,45.4579741 45.5746465,45.5308235 45.5013754,45.6036728 C45.5746465,45.5308235 45.5746465,45.4579741 45.6479177,45.3851248 Z" fill="#F6DB65"></path>
                        <path d="M47.5529672,41.6698096 C47.5529672,41.6698096 47.5529672,41.7426589 47.5529672,41.6698096 C47.5529672,41.7426589 47.5529672,41.6698096 47.5529672,41.6698096 Z" fill="#F6DB65"></path>
                        <path d="M46.0142733,44.6566316 C46.0142733,44.729481 45.9410022,44.8023303 45.9410022,44.8751796 C46.0142733,44.729481 46.0142733,44.6566316 46.0142733,44.6566316 Z" fill="#F6DB65"></path>
                        <path d="M44.4023084,47.6434537 C44.4023084,47.716303 44.3290372,47.7891523 44.3290372,47.8620016 C44.3290372,47.716303 44.4023084,47.6434537 44.4023084,47.6434537 Z" fill="#F6DB65"></path>
                        <path d="M34.1443493,40.139974 L26.2310667,45.0937276 L18.317784,40.139974 L10.4045013,45.0937276 L5.34879292,41.8883576 C7.03402905,45.3851248 8.93907858,48.6633441 10.4777724,51.2859195 C10.4777724,51.2859195 10.4777724,51.3587689 10.4777724,51.3587689 C10.6975858,51.7230154 10.9173992,52.087262 11.1372127,52.4515086 L18.2445128,47.9348509 L26.1577955,52.8886045 L34.0710782,47.9348509 L41.3981918,52.5972073 C41.4714629,52.4515086 41.6180052,52.2329607 41.6912763,52.0144127 C41.6912763,52.0144127 41.6912763,52.0144127 41.6912763,52.0144127 C42.3507166,50.921673 43.0834279,49.6832346 43.8161393,48.2990975 C43.8161393,48.2990975 43.8161393,48.2262482 43.8894104,48.2262482 C43.9626815,48.0805496 44.1092238,47.8620016 44.182495,47.6434537 C44.182495,47.5706043 44.2557661,47.497755 44.2557661,47.4249057 C44.3290372,47.2792071 44.4755795,47.0606591 44.5488506,46.9149605 C44.6221218,46.8421112 44.6221218,46.7692619 44.6953929,46.6964125 C44.768664,46.5507139 44.9152063,46.3321659 44.9884774,46.1864673 C45.0617486,46.113618 45.0617486,46.0407687 45.1350197,45.9679194 C45.2082909,45.8222207 45.3548331,45.6036728 45.4281043,45.4579741 C45.5013754,45.3851248 45.5013754,45.3122755 45.5746465,45.2394262 C45.6479177,45.0208782 45.7944599,44.8751796 45.8677311,44.6566316 C45.8677311,44.5837823 45.9410022,44.510933 45.9410022,44.4380837 C46.0142733,44.2195357 46.1608156,44.0738371 46.2340868,43.8552892 C46.2340868,43.8552892 46.2340868,43.7824398 46.3073579,43.7824398 C46.6737136,43.0539467 47.0400693,42.3254535 47.4064249,41.5969603 C47.4064249,41.5969603 47.4064249,41.5969603 47.4064249,41.5969603 L41.9110897,45.0937276 L34.1443493,40.139974 Z" fill="#01B6F5"></path>
                        <path d="M52.0225065,30.2324668 C51.9492354,30.4510147 51.8759642,30.6695627 51.8759642,30.8881106 C51.8759642,30.6695627 51.9492354,30.4510147 52.0225065,30.2324668 Z" fill="#FFB863"></path>
                        <path d="M52.5354044,27.6098913 C52.5354044,27.75559 52.5354044,27.8284393 52.4621333,27.9741379 C52.4621333,27.8284393 52.4621333,27.6827407 52.5354044,27.6098913 Z" fill="#FFB863"></path>
                        <path d="M52.5354044,26.9542475 C52.5354044,27.0999461 52.5354044,27.2456448 52.5354044,27.3913434 C52.5354044,27.1727954 52.5354044,27.0270968 52.5354044,26.9542475 Z" fill="#FFB863"></path>
                        <path d="M52.6086756,26.152905 C52.6086756,26.3714529 52.6086756,26.5171516 52.6086756,26.7356995 C52.6086756,26.5171516 52.6086756,26.3714529 52.6086756,26.152905 Z" fill="#FFB863"></path>
                        <path d="M0.219813408,27.2456448 C0.219813408,27.1727954 0.219813408,27.1727954 0.219813408,27.0999461 C0.219813408,27.1727954 0.219813408,27.2456448 0.219813408,27.2456448 Z" fill="#FFB863"></path>
                        <path d="M52.315591,28.8483297 C52.315591,28.9940284 52.2423199,29.139727 52.2423199,29.2125763 C52.2423199,29.139727 52.315591,28.9940284 52.315591,28.8483297 Z" fill="#FFB863"></path>
                        <path d="M0.36635568,28.4112338 C0.36635568,28.3383845 0.36635568,28.3383845 0.36635568,28.2655352 C0.36635568,28.3383845 0.36635568,28.3383845 0.36635568,28.4112338 Z" fill="#FFB863"></path>
                        <path d="M52.3888622,28.1926859 C52.3888622,28.3383845 52.315591,28.4112338 52.315591,28.5569325 C52.3888622,28.4840832 52.3888622,28.3383845 52.3888622,28.1926859 Z" fill="#FFB863"></path>
                        <path d="M52.5354044,24.6230693 C52.5354044,24.6959186 52.5354044,24.8416173 52.5354044,24.9144666 C52.5354044,24.8416173 52.5354044,24.6959186 52.5354044,24.6230693 Z" fill="#FFB863"></path>
                        <path d="M0.219813408,24.768768 C0.219813408,24.6959186 0.219813408,24.6959186 0.219813408,24.6230693 C0.219813408,24.6230693 0.219813408,24.6959186 0.219813408,24.768768 Z" fill="#FFB863"></path>
                        <path d="M52.1690488,29.5039736 C52.1690488,29.6496722 52.0957776,29.7953709 52.0957776,29.9410695 C52.0957776,29.7953709 52.1690488,29.6496722 52.1690488,29.5039736 Z" fill="#FFB863"></path>
                        <path d="M52.0957776,29.9410695 C52.0957776,29.7953709 52.1690488,29.6496722 52.1690488,29.5039736 C52.1690488,29.4311243 52.2423199,29.2854256 52.2423199,29.2125763 C52.2423199,29.0668777 52.315591,28.9211791 52.315591,28.8483297 C52.315591,28.7754804 52.315591,28.6297818 52.3888622,28.5569325 C52.3888622,28.4112338 52.4621333,28.3383845 52.4621333,28.1926859 C52.4621333,28.1198366 52.4621333,28.0469872 52.5354044,27.9012886 C52.5354044,27.75559 52.5354044,27.6827407 52.6086756,27.537042 C52.6086756,27.4641927 52.6086756,27.3913434 52.6086756,27.3184941 C52.6086756,27.1727954 52.6086756,27.0270968 52.6086756,26.8813982 C52.6086756,26.8085489 52.6086756,26.7356995 52.6086756,26.6628502 C52.6086756,26.4443023 52.6086756,26.2986036 52.6086756,26.0800557 C52.6086756,25.6429598 52.6086756,25.2787132 52.6086756,24.8416173 C52.6086756,24.768768 52.6086756,24.6230693 52.6086756,24.55022 C52.6086756,24.1131241 52.5354044,23.7488775 52.5354044,23.3117816 L50.0441858,21.7090966 L42.1309031,26.6628502 L34.2176205,21.7090966 L26.3043378,26.6628502 L18.317784,21.8547953 L10.4045013,26.8085489 L2.49121862,21.8547953 L0.36635568,23.2389323 C0.36635568,23.2389323 0.36635568,23.2389323 0.36635568,23.2389323 C0.293084544,23.6760282 0.293084544,24.1859734 0.219813408,24.6230693 C0.219813408,24.6959186 0.219813408,24.6959186 0.219813408,24.768768 C0.219813408,25.2058639 0.146542272,25.7158091 0.146542272,26.152905 C0.146542272,26.4443023 0.146542272,26.8085489 0.219813408,27.0999461 C0.219813408,27.1727954 0.219813408,27.1727954 0.219813408,27.2456448 C0.219813408,27.537042 0.293084544,27.9012886 0.36635568,28.2655352 C0.36635568,28.3383845 0.36635568,28.3383845 0.36635568,28.4112338 C0.512897951,29.139727 0.659440223,29.9410695 0.879253631,30.742412 L2.49121862,29.7225216 L10.4045013,34.6762751 L18.317784,29.7225216 L26.2310667,34.6762751 L34.1443493,29.7225216 L42.057632,34.6762751 L49.9709147,29.7225216 L51.8759642,30.8881106 C51.9492354,30.6695627 52.0225065,30.4510147 52.0225065,30.2324668 C52.0225065,30.1596175 52.0957776,30.0867681 52.0957776,29.9410695 Z" fill="#F6DB65"></path>
                        <path d="M46.5271713,9.47041128 C46.5271713,9.5432606 46.5271713,9.5432606 46.5271713,9.47041128 C46.5271713,9.5432606 46.5271713,9.5432606 46.5271713,9.47041128 Z" fill="#FF8A53"></path>
                        <path d="M4.98243724,11.1459456 C5.05570838,11.0730963 5.05570838,11.0002469 5.12897951,10.9273976 C5.12897951,11.0002469 5.05570838,11.0730963 4.98243724,11.1459456 Z" fill="#FF8A53"></path>
                        <path d="M6.08150428,9.68895923 C6.08150428,9.68895923 6.15477542,9.61610991 6.08150428,9.68895923 C6.15477542,9.61610991 6.08150428,9.68895923 6.08150428,9.68895923 Z" fill="#FF8A53"></path>
                        <path d="M47.5529672,10.8545483 C47.6262383,10.8545483 47.6262383,10.8545483 47.5529672,10.8545483 C47.6262383,10.8545483 47.6262383,10.8545483 47.5529672,10.8545483 Z" fill="#FF8A53"></path>
                        <path d="M10.4045013,16.3182471 L18.317784,11.3644935 L26.2310667,16.3182471 L34.1443493,11.3644935 L42.057632,16.3182471 L48.5787631,12.2386853 C48.5787631,12.2386853 48.5787631,12.2386853 48.5787631,12.2386853 C48.2856786,11.8015894 47.992594,11.2916442 47.6262383,10.8545483 C47.6262383,10.8545483 47.6262383,10.8545483 47.6262383,10.781699 C47.3331538,10.3446031 46.9667981,9.90750718 46.6004424,9.47041128 C46.6004424,9.47041128 46.6004424,9.39756196 46.5271713,9.39756196 C45.7944599,8.52337015 45.0617486,7.72202766 44.2557661,6.99353448 C44.2557661,6.99353448 44.2557661,6.99353448 44.2557661,6.99353448 L42.057632,8.37767152 L34.1443493,3.42391792 L26.2310667,8.37767152 L18.317784,3.42391792 L10.4045013,8.37767152 L8.42618063,7.13923312 C7.62019813,7.86772629 6.88748678,8.66906879 6.15477542,9.5432606 C6.15477542,9.5432606 6.15477542,9.5432606 6.08150428,9.61610991 C5.78841974,9.9803565 5.42206406,10.4174524 5.12897951,10.8545483 C5.05570838,10.9273976 5.05570838,11.0002469 4.98243724,11.0730963 C4.6893527,11.5101922 4.39626815,11.9472881 4.10318361,12.384384 L10.4045013,16.3182471 Z" fill="#FF8A53"></path>
                    </g>
                </g>
            </g>
        </g>
    </g>
</svg>