<?xml version="1.0" encoding="UTF-8"?>
<svg width="751px" height="501px" viewBox="0 0 751 501" version="1.1" xmlns="http://www.w3.org/2000/svg" xmlns:xlink="http://www.w3.org/1999/xlink">
    <!-- Generator: Sketch 51.3 (57544) - http://www.bohemiancoding.com/sketch -->
    <title>Illustration-rainbow-6</title>
    <desc>Created with Sketch.</desc>
    <defs>
        <polygon id="path-1" points="0.444 0.526 750.444 0.526 750.444 499.2989 0.444 499.2989"></polygon>
        <polygon id="path-3" points="0.444 0.526 750.444 0.526 750.444 500.526 0.444 500.526"></polygon>
        <polygon id="path-5" points="0.444 0.526 750.444 0.526 750.444 500.526 0.444 500.526"></polygon>
        <polygon id="path-7" points="0.2952 0.0462 732.444 0.0462 732.444 470.526 0.2952 470.526"></polygon>
        <polygon id="path-9" points="0.8142 0.1513 688.444 0.1513 688.444 435.526 0.8142 435.526"></polygon>
        <polygon id="path-11" points="0.3803 0.079 651.444 0.079 651.444 400.526 0.3803 400.526"></polygon>
        <polygon id="path-13" points="0.4154 0.077 622.444 0.077 622.444 370.526 0.4154 370.526"></polygon>
        <polygon id="path-15" points="0.9853 0.957 593.444 0.957 593.444 339.526 0.9853 339.526"></polygon>
        <polygon id="path-17" points="0.0625 0.6838 194.444 0.6838 194.444 108.437339 0.0625 108.437339"></polygon>
        <polygon id="path-19" points="0.444 0.8318 268.5527 0.8318 268.5527 168.393531 0.444 168.393531"></polygon>
        <polygon id="path-21" points="0.0674 0.6124 275.444 0.6124 275.444 160.064 0.0674 160.064"></polygon>
    </defs>
    <g id="components" stroke="none" stroke-width="1" fill="none" fill-rule="evenodd">
        <g id="Illustration-rainbow-6" transform="translate(0.000000, -1.000000)">
            <polygon id="Fill-1" fill="#CAF2FC" points="0.444 501.472 750.444 501.472 750.444 1.472 0.444 1.472"></polygon>
            <g id="Group-6" transform="translate(157.000000, 32.946000)" fill="#FFFFFF">
                <path d="M436.5615,218.5264 C436.5615,338.9894 338.9075,436.6434 218.4445,436.6434 C97.9815,436.6434 0.3275,338.9894 0.3275,218.5264 C0.3275,98.0644 97.9815,0.4094 218.4445,0.4094 C338.9075,0.4094 436.5615,98.0644 436.5615,218.5264" id="Fill-2"></path>
                <path d="M318.0674,218.5264 C318.0674,273.5474 273.4644,318.1494 218.4444,318.1494 C163.4234,318.1494 118.8214,273.5474 118.8214,218.5264 C118.8214,163.5064 163.4234,118.9034 218.4444,118.9034 C273.4644,118.9034 318.0674,163.5064 318.0674,218.5264" id="Fill-4"></path>
            </g>
            <g id="Group-31" transform="translate(0.000000, 0.946000)">
                <g id="Group-9">
                    <mask id="mask-2" fill="white">
                        <use xlink:href="#path-1"></use>
                    </mask>
                    <g id="Clip-8"></g>
                    <path d="M-33.3662,499.2989 L-70.2802,483.3459 C-67.8082,477.6069 -8.2842,341.1839 122.7098,202.8929 C199.8108,121.4969 285.7058,56.6009 378.0168,10.0099 C493.6398,-48.3521 619.5368,-77.9461 752.2038,-77.9461 L752.2038,-37.6701 C626.1568,-37.6701 506.5978,-9.6511 396.8408,45.6049 C308.7798,89.9399 226.6788,151.8529 152.8148,229.6219 C26.3568,362.7609 -32.7842,497.9459 -33.3662,499.2989" id="Fill-7" fill="#7977F2" mask="url(#mask-2)"></path>
                </g>
                <g id="Group-12">
                    <mask id="mask-4" fill="white">
                        <use xlink:href="#path-3"></use>
                    </mask>
                    <g id="Clip-11"></g>
                    <path d="M-11.7842,532.3741 L-48.6972,516.4211 C-46.2272,510.6801 13.2968,374.2591 144.2918,235.9671 C221.3928,154.5711 307.2878,89.6761 399.5988,43.0841 C515.2218,-15.2779 641.1198,-44.8729 773.7858,-44.8729 L773.7858,-4.5959 C647.7398,-4.5959 528.1808,23.4231 418.4228,78.6791 C330.3628,123.0141 248.2608,184.9271 174.3978,262.6951 C47.9388,395.8341 -11.2022,531.0211 -11.7842,532.3741" id="Fill-10" fill="#C4A6FC" mask="url(#mask-4)"></path>
                </g>
                <g id="Group-15">
                    <mask id="mask-6" fill="white">
                        <use xlink:href="#path-5"></use>
                    </mask>
                    <g id="Clip-14"></g>
                    <path d="M19.2676,549.1485 L-16.1864,533.8275 C-13.8134,528.3105 43.3576,397.2815 169.1746,264.4585 C243.2276,186.2795 325.7276,123.9485 414.3886,79.1995 C525.4426,23.1435 646.3646,-5.2805 773.7866,-5.2805 L773.7866,33.4035 C652.7226,33.4035 537.8886,60.3145 432.4686,113.3865 C347.8896,155.9695 269.0346,215.4355 198.0886,290.1305 C76.6306,418.0065 19.8276,547.8475 19.2676,549.1485" id="Fill-13" fill="#FC6BD9" mask="url(#mask-6)"></path>
                </g>
                <g id="Group-18" transform="translate(18.000000, 30.000000)">
                    <mask id="mask-8" fill="white">
                        <use xlink:href="#path-7"></use>
                    </mask>
                    <g id="Clip-17"></g>
                    <path d="M34.2002,534.1992 L0.2952,519.5462 C2.5642,514.2702 53.5542,387.7592 173.8782,260.7332 C244.6992,185.9672 326.0872,123.6352 410.8782,80.8392 C517.0842,27.2292 632.7262,0.0462 754.5882,0.0462 L755.7862,40.9672 C640.0072,40.9672 530.1842,66.7022 429.3672,117.4582 C348.4792,158.1822 273.0662,215.0522 205.2182,286.4872 C89.0592,408.7822 34.7362,532.9582 34.2002,534.1992" id="Fill-16" fill="#FF94C7" mask="url(#mask-8)"></path>
                </g>
                <g id="Group-21" transform="translate(62.000000, 65.000000)">
                    <mask id="mask-10" fill="white">
                        <use xlink:href="#path-9"></use>
                    </mask>
                    <g id="Clip-20"></g>
                    <path d="M35.9892,491.1153 L0.8142,477.1673 C2.9152,472.2813 57.3212,356.6313 168.7352,239.0123 C234.3122,169.7823 307.3692,114.5873 385.8802,74.9593 C484.2192,25.3213 591.2992,0.1513 704.1352,0.1513 L704.1352,34.4073 C596.9302,34.4073 495.2412,58.2373 401.8902,105.2353 C326.9942,142.9423 257.1642,195.6003 194.3412,261.7453 C86.7852,374.9833 36.4842,489.9633 35.9892,491.1153" id="Fill-19" fill="#FFA96E" mask="url(#mask-10)"></path>
                </g>
                <g id="Group-24" transform="translate(99.000000, 100.000000)">
                    <mask id="mask-12" fill="white">
                        <use xlink:href="#path-11"></use>
                    </mask>
                    <g id="Clip-23"></g>
                    <path d="M29.9873,463.085 L0.3803,450.29 C2.3613,445.685 50.1053,336.262 155.1753,225.339 C217.0173,160.052 285.9173,107.999 359.9573,70.627 C452.6983,23.815 553.6783,0.079 660.0913,0.079 L660.0913,32.384 C558.9913,32.384 463.0913,54.858 375.0553,99.179 C304.4243,134.739 238.5703,184.398 179.3233,246.776 C77.8913,353.567 30.4553,462 29.9873,463.085" id="Fill-22" fill="#FFD252" mask="url(#mask-12)"></path>
                </g>
                <g id="Group-27" transform="translate(128.000000, 130.000000)">
                    <mask id="mask-14" fill="white">
                        <use xlink:href="#path-13"></use>
                    </mask>
                    <g id="Clip-26"></g>
                    <path d="M28.9834,446.835 L0.4154,434.487 C2.3274,430.043 48.3954,324.46 149.7794,217.431 C209.4504,154.435 275.9304,104.21 347.3734,68.149 C436.8594,22.98 534.2944,0.077 636.9734,0.077 L636.9734,31.248 C539.4214,31.248 446.8854,52.933 361.9414,95.699 C293.7894,130.011 230.2474,177.928 173.0784,238.115 C75.2074,341.161 29.4334,445.787 28.9834,446.835" id="Fill-25" fill="#62E5ED" mask="url(#mask-14)"></path>
                </g>
                <g id="Group-30" transform="translate(157.000000, 161.000000)">
                    <mask id="mask-16" fill="white">
                        <use xlink:href="#path-15"></use>
                    </mask>
                    <g id="Clip-29"></g>
                    <path d="M27.6533,418 L0.9853,406.471 C2.7693,402.326 45.7733,303.764 140.4133,203.853 C196.1163,145.047 258.1743,98.163 324.8653,64.501 C408.3983,22.336 499.3543,0.957 595.2043,0.957 L595.2043,30.055 C504.1393,30.055 417.7593,50.297 338.4653,90.219 C274.8453,122.248 215.5283,166.979 162.1633,223.162 C70.8013,319.354 28.0733,417.023 27.6533,418" id="Fill-28" fill="#94F8F0" mask="url(#mask-16)"></path>
                </g>
            </g>
            <path d="M248.3525,93.3528 C248.3525,77.7378 235.6935,65.0798 220.0795,65.0798 C214.8035,65.0798 209.8845,66.5518 205.6595,69.0658 C200.1205,57.6568 188.4485,49.7748 174.9135,49.7748 C169.6635,49.7748 164.6915,50.9618 160.2475,53.0768 C155.2865,36.2158 139.7055,23.9028 121.2395,23.9028 C100.6925,23.9028 83.7135,39.1458 80.9715,58.9368 C77.6445,57.6558 74.0445,56.9248 70.2675,56.9248 C53.7905,56.9248 40.4315,70.2838 40.4315,86.7608 C40.4315,93.7388 42.8445,100.1418 46.8575,105.2228 L46.8385,105.2308 C46.8385,105.2308 56.1895,122.8048 82.6175,122.8048 L201.6655,122.8048 C201.6655,122.8048 220.9745,124.0498 228.5715,120.3268 L228.5705,120.3238 C240.0355,116.7178 248.3525,106.0088 248.3525,93.3528" id="Fill-32" fill="#FFFFFF" opacity="0.5"></path>
            <g id="Group-36" opacity="0.5" transform="translate(556.000000, 103.946000)">
                <mask id="mask-18" fill="white">
                    <use xlink:href="#path-17"></use>
                </mask>
                <g id="Clip-35"></g>
                <path d="M0.0625,76.1968 C0.0625,59.2188 13.8275,45.4558 30.8045,45.4558 C36.5395,45.4558 41.8885,47.0558 46.4825,49.7898 C52.5055,37.3848 65.1975,28.8148 79.9135,28.8148 C85.6215,28.8148 91.0275,30.1048 95.8595,32.4048 C101.2535,14.0718 118.1955,0.6838 138.2735,0.6838 C160.6135,0.6838 179.0745,17.2578 182.0555,38.7768 C185.6725,37.3838 189.5865,36.5898 193.6935,36.5898 C211.6105,36.5898 226.1345,51.1138 226.1345,69.0298 C226.1345,76.6158 223.5115,83.5778 219.1475,89.1028 L219.1675,89.1118 C219.1675,89.1118 209.0005,108.2198 180.2665,108.2198 L50.8245,108.2198 C50.8245,108.2198 29.8315,109.5738 21.5705,105.5258 L21.5715,105.5218 C9.1055,101.6018 0.0625,89.9578 0.0625,76.1968" id="Fill-34" fill="#FFFFFF" mask="url(#mask-18)"></path>
            </g>
            <g id="Group-39" opacity="0.5" transform="translate(0.000000, 256.946000)">
                <mask id="mask-20" fill="white">
                    <use xlink:href="#path-19"></use>
                </mask>
                <g id="Clip-38"></g>
                <path d="M268.5527,118.2588 C268.5527,91.8578 247.1477,70.4548 220.7467,70.4548 C211.8297,70.4548 203.5117,72.9438 196.3667,77.1948 C187.0007,57.9028 167.2657,44.5768 144.3787,44.5768 C135.5057,44.5768 127.0987,46.5828 119.5837,50.1588 C111.1947,21.6528 84.8507,0.8318 53.6287,0.8318 C18.8877,0.8318 -9.8183,26.6048 -14.4553,60.0688 C-20.0813,57.9028 -26.1673,56.6668 -32.5523,56.6668 C-60.4133,56.6668 -83.0003,79.2528 -83.0003,107.1128 C-83.0003,118.9098 -78.9213,129.7378 -72.1343,138.3288 L-72.1673,138.3418 C-72.1673,138.3418 -56.3573,168.0558 -11.6733,168.0558 L189.6157,168.0558 C189.6157,168.0558 222.2607,170.1598 235.1077,163.8648 L235.1047,163.8618 C254.4897,157.7638 268.5527,139.6578 268.5527,118.2588" id="Fill-37" fill="#FFFFFF" mask="url(#mask-20)"></path>
            </g>
            <g id="Group-42" opacity="0.5" transform="translate(475.000000, 340.946000)">
                <mask id="mask-22" fill="white">
                    <use xlink:href="#path-21"></use>
                </mask>
                <g id="Clip-41"></g>
                <path d="M0.0674,130.2334 C0.0674,101.0894 23.6954,77.4644 52.8384,77.4644 C62.6814,77.4644 71.8644,80.2124 79.7504,84.9054 C90.0884,63.6094 111.8734,48.8994 137.1354,48.8994 C146.9324,48.8994 156.2124,51.1144 164.5074,55.0614 C173.7674,23.5934 202.8484,0.6124 237.3124,0.6124 C275.6614,0.6124 307.3484,29.0604 312.4664,66.0004 C318.6764,63.6084 325.3944,62.2454 332.4434,62.2454 C363.1994,62.2454 388.1304,87.1764 388.1304,117.9294 C388.1304,130.9544 383.6284,142.9044 376.1364,152.3864 L376.1714,152.4024 C376.1714,152.4024 358.7214,185.2024 309.3954,185.2024 L87.2034,185.2024 C87.2034,185.2024 51.1674,187.5274 36.9864,180.5764 L36.9884,180.5714 C15.5894,173.8424 0.0674,153.8544 0.0674,130.2334" id="Fill-40" fill="#FFFFFF" mask="url(#mask-22)"></path>
            </g>
            <g id="Group-66" opacity="0.5" transform="translate(127.000000, 18.946000)" fill="#FFFFFF">
                <polygon id="Fill-44" points="84.8652 241.2647 87.9872 247.5887 94.9662 248.6037 89.9162 253.5267 91.1082 260.4777 84.8652 257.1967 78.6222 260.4777 79.8142 253.5267 74.7642 248.6037 81.7432 247.5887"></polygon>
                <polygon id="Fill-46" points="84.8652 139.5606 89.9292 149.8176 101.2462 151.4626 93.0562 159.4456 94.9902 170.7196 84.8652 165.3976 74.7402 170.7196 76.6742 159.4456 68.4842 151.4626 79.8032 149.8176"></polygon>
                <polygon id="Fill-48" points="156.9756 182.083 159.4966 187.188 165.1286 188.007 161.0526 191.98 162.0146 197.592 156.9756 194.943 151.9356 197.592 152.8976 191.98 148.8216 188.007 154.4546 187.188"></polygon>
                <polygon id="Fill-50" points="8.7246 207.1534 11.2456 212.2584 16.8776 213.0774 12.8016 217.0504 13.7636 222.6624 8.7246 220.0134 3.6846 222.6624 4.6466 217.0504 0.5706 213.0774 6.2036 212.2584"></polygon>
                <polygon id="Fill-52" points="295.8457 129.9541 298.9677 136.2791 305.9467 137.2931 300.8967 142.2161 302.0887 149.1671 295.8457 145.8861 289.6027 149.1671 290.7947 142.2161 285.7447 137.2931 292.7237 136.2791"></polygon>
                <polygon id="Fill-54" points="452.2568 52.7759 457.3208 63.0329 468.6378 64.6779 460.4478 72.6609 462.3818 83.9349 452.2568 78.6129 442.1318 83.9349 444.0658 72.6609 435.8758 64.6779 447.1948 63.0329"></polygon>
                <polygon id="Fill-56" points="489.0937 25.0797 491.6147 30.1847 497.2467 31.0037 493.1707 34.9767 494.1327 40.5887 489.0937 37.9397 484.0537 40.5887 485.0157 34.9767 480.9397 31.0037 486.5727 30.1847"></polygon>
                <polygon id="Fill-58" points="195.999 67.2046 199.121 73.5296 206.1 74.5436 201.05 79.4666 202.242 86.4176 195.999 83.1366 189.756 86.4176 190.948 79.4666 185.898 74.5436 192.877 73.5296"></polygon>
                <polygon id="Fill-60" points="256.5986 0.1177 259.1196 5.2227 264.7516 6.0417 260.6756 10.0147 261.6376 15.6267 256.5986 12.9777 251.5586 15.6267 252.5206 10.0147 248.4446 6.0417 254.0776 5.2227"></polygon>
                <polygon id="Fill-62" points="362.0527 32.834 364.5737 37.939 370.2057 38.758 366.1297 42.731 367.0917 48.343 362.0527 45.694 357.0127 48.343 357.9747 42.731 353.8987 38.758 359.5317 37.939"></polygon>
                <polygon id="Fill-64" points="238.3437 272.6592 241.4657 278.9832 248.4447 279.9972 243.3947 284.9212 244.5867 291.8722 238.3437 288.5912 232.1007 291.8722 233.2927 284.9212 228.2427 279.9972 235.2217 278.9832"></polygon>
            </g>
        </g>
    </g>
</svg>