<?xml version="1.0" encoding="UTF-8"?>
<svg width="823px" height="543px" viewBox="0 0 823 543" version="1.1" xmlns="http://www.w3.org/2000/svg" xmlns:xlink="http://www.w3.org/1999/xlink">
    <!-- Generator: Sketch 51.3 (57544) - http://www.bohemiancoding.com/sketch -->
    <title>Illustration-rainbow-11</title>
    <desc>Created with Sketch.</desc>
    <defs>
        <path d="M0.0335616438,55.5684932 C439.660959,254.159589 602.050685,276.169863 657.144521,250.743836 C677.147945,241.510959 700.150685,202.376712 707.789726,175.219863 C712.768493,157.490411 724.54726,129.928767 734.888356,121 C756.372603,102.45411 797.493151,108.169863 821.950685,113.843151 L821.950685,108.200685 C737.828082,77.6849315 715.860274,103.25274 709.036301,121.266438 C685.932877,182.255479 665.009589,237.878082 583.709589,227.491781 C405.510274,204.730822 97.2650685,50.5191781 0.0335616438,0.052739726 L0.0335616438,55.5684932 Z" id="path-1"></path>
        <path d="M0.0335616438,60.8089041 C439.525342,257.930137 618.069863,263.899315 672.734247,234.397945 C692.756849,223.593836 716.30137,203.213014 720.884247,139.663014 C722.363014,119.229452 727.889041,108.543836 741.776027,87.5972603 C755.540411,66.8376712 797.163014,69.1452055 821.950685,72.6417808 L821.950685,65.7328767 C737.069863,39.5815068 718.230822,83.3979452 710.841781,102.853425 C685.911644,168.481507 665.317123,216.441096 575.712329,206.141781 C400.556849,186.011644 105.300685,50.4958904 0.0335616438,0.0315068493 L0.0335616438,60.8089041 Z" id="path-3"></path>
        <path d="M0.0335616438,65.5452055 C431.305479,245.144521 623.006164,247.036986 677.707534,213.34863 C697.952055,200.882877 727.787671,183.714384 734.439041,117.471233 C736.576712,96.1554795 732.770548,75.3787671 750.417123,45.8020548 C765.854795,19.9280822 800.506164,19.6452055 821.950685,22.3479452 L821.950685,16.2369863 C735.900685,-6.11643836 720.695205,53.5760274 716.949315,76.5678082 C707.270548,135.939726 703.296575,196.442466 566.176712,186.09589 C395.210274,173.19589 112.80137,51.6856164 0.0335616438,0.402739726 L0.0335616438,65.5452055 Z" id="path-5"></path>
        <path d="M730.341096,88.7184932 C730.777397,129.782877 717.299315,199.482192 597.899315,206.55137 C427.422603,216.641781 126.44726,92.1445205 0.0335616438,35.8006849 L0.0335616438,122.79589 C510.345205,276.200685 655.306849,248.680137 707.759589,215.658219 C727.228082,203.402055 756.337671,163.021918 749.271918,107.919178 C747.023288,90.3547945 741.986301,61.5547945 759.529452,32.1965753 C774.417808,7.2760274 803.339041,5.71164384 821.950685,7.72671233 L821.950685,3.76712329 C812.562329,1.54383562 804.134247,0.536986301 796.560274,0.536986301 C734.612329,0.540410959 730.123288,67.9575342 730.341096,88.7184932" id="path-7"></path>
        <path d="M747.115068,104.313014 C746.807534,127.860274 761.642466,229.6 585.846575,234.984932 C417.932192,240.129452 131.163014,135.778082 0.0335616438,84.039726 L0.0335616438,168.331507 C503.422603,303.803425 671.142466,268.419178 717.863699,239.896575 C765.413699,210.869178 776.023973,151.39589 767.137671,113.735616 C757.815753,74.2308219 749.643836,58.6308219 766.767123,29.1315068 C777.745205,10.2178082 804.221233,5.83150685 821.950685,5.13493151 L821.950685,1.09246575 C817.478767,0.681506849 813.271233,0.484931507 809.29589,0.484931507 C728.14726,0.487671233 747.402055,82.6438356 747.115068,104.313014" id="path-9"></path>
    </defs>
    <g id="components" stroke="none" stroke-width="1" fill="none" fill-rule="evenodd">
        <g id="Illustration-rainbow-11">
            <polygon id="Fill-1" fill="#CAF2FC" points="0 543 823 543 823 0 0 0"></polygon>
            <g id="Group-37" transform="translate(0.000000, 19.000000)">
                <g id="Group-3" transform="translate(0.000000, 59.821918)">
                    <mask id="mask-2" fill="white">
                        <use xlink:href="#path-1"></use>
                    </mask>
                    <g id="Clip-2"></g>
                    <path d="M0.0335616438,55.5684932 C439.660959,254.159589 602.050685,276.169863 657.144521,250.743836 C677.147945,241.510959 700.150685,202.376712 707.789726,175.219863 C712.768493,157.490411 724.54726,129.928767 734.888356,121 C756.372603,102.45411 797.493151,108.169863 821.950685,113.843151 L821.950685,108.200685 C737.828082,77.6849315 715.860274,103.25274 709.036301,121.266438 C685.932877,182.255479 665.009589,237.878082 583.709589,227.491781 C405.510274,204.730822 97.2650685,50.5191781 0.0335616438,0.052739726 L0.0335616438,55.5684932 Z" id="Fill-1" fill="#FE4849" mask="url(#mask-2)"></path>
                </g>
                <g id="Group-6" transform="translate(0.000000, 104.342466)">
                    <mask id="mask-4" fill="white">
                        <use xlink:href="#path-3"></use>
                    </mask>
                    <g id="Clip-5"></g>
                    <path d="M0.0335616438,60.8089041 C439.525342,257.930137 618.069863,263.899315 672.734247,234.397945 C692.756849,223.593836 716.30137,203.213014 720.884247,139.663014 C722.363014,119.229452 727.889041,108.543836 741.776027,87.5972603 C755.540411,66.8376712 797.163014,69.1452055 821.950685,72.6417808 L821.950685,65.7328767 C737.069863,39.5815068 718.230822,83.3979452 710.841781,102.853425 C685.911644,168.481507 665.317123,216.441096 575.712329,206.141781 C400.556849,186.011644 105.300685,50.4958904 0.0335616438,0.0315068493 L0.0335616438,60.8089041 Z" id="Fill-4" fill="#FF8A53" mask="url(#mask-4)"></path>
                </g>
                <g id="Group-9" transform="translate(0.000000, 157.082192)">
                    <mask id="mask-6" fill="white">
                        <use xlink:href="#path-5"></use>
                    </mask>
                    <g id="Clip-8"></g>
                    <path d="M0.0335616438,65.5452055 C431.305479,245.144521 623.006164,247.036986 677.707534,213.34863 C697.952055,200.882877 727.787671,183.714384 734.439041,117.471233 C736.576712,96.1554795 732.770548,75.3787671 750.417123,45.8020548 C765.854795,19.9280822 800.506164,19.6452055 821.950685,22.3479452 L821.950685,16.2369863 C735.900685,-6.11643836 720.695205,53.5760274 716.949315,76.5678082 C707.270548,135.939726 703.296575,196.442466 566.176712,186.09589 C395.210274,173.19589 112.80137,51.6856164 0.0335616438,0.402739726 L0.0335616438,65.5452055 Z" id="Fill-7" fill="#F6DB65" mask="url(#mask-6)"></path>
                </g>
                <g id="Group-12" transform="translate(0.000000, 174.205479)">
                    <mask id="mask-8" fill="white">
                        <use xlink:href="#path-7"></use>
                    </mask>
                    <g id="Clip-11"></g>
                    <path d="M730.341096,88.7184932 C730.777397,129.782877 717.299315,199.482192 597.899315,206.55137 C427.422603,216.641781 126.44726,92.1445205 0.0335616438,35.8006849 L0.0335616438,122.79589 C510.345205,276.200685 655.306849,248.680137 707.759589,215.658219 C727.228082,203.402055 756.337671,163.021918 749.271918,107.919178 C747.023288,90.3547945 741.986301,61.5547945 759.529452,32.1965753 C774.417808,7.2760274 803.339041,5.71164384 821.950685,7.72671233 L821.950685,3.76712329 C812.562329,1.54383562 804.134247,0.536986301 796.560274,0.536986301 C734.612329,0.540410959 730.123288,67.9575342 730.341096,88.7184932" id="Fill-10" fill="#8DD46F" mask="url(#mask-8)"></path>
                </g>
                <g id="Group-15" transform="translate(0.000000, 179.684932)">
                    <mask id="mask-10" fill="white">
                        <use xlink:href="#path-9"></use>
                    </mask>
                    <g id="Clip-14"></g>
                    <path d="M747.115068,104.313014 C746.807534,127.860274 761.642466,229.6 585.846575,234.984932 C417.932192,240.129452 131.163014,135.778082 0.0335616438,84.039726 L0.0335616438,168.331507 C503.422603,303.803425 671.142466,268.419178 717.863699,239.896575 C765.413699,210.869178 776.023973,151.39589 767.137671,113.735616 C757.815753,74.2308219 749.643836,58.6308219 766.767123,29.1315068 C777.745205,10.2178082 804.221233,5.83150685 821.950685,5.13493151 L821.950685,1.09246575 C817.478767,0.681506849 813.271233,0.484931507 809.29589,0.484931507 C728.14726,0.487671233 747.402055,82.6438356 747.115068,104.313014" id="Fill-13" fill="#01B6F5" mask="url(#mask-10)"></path>
                </g>
                <g id="Group-36" transform="translate(60.616438, 0.000000)">
                    <path d="M264.455068,367.760137 C264.39,367.769726 264.320137,367.786849 264.253014,367.796438 C261.709863,355.903973 250.400959,347.816301 238.169452,349.519726 C235.653014,349.871781 233.285205,350.622466 231.118082,351.682055 C225.78863,334.051233 208.716712,322.210822 190.004384,323.810822 C181.876301,305.316301 162.222877,293.662877 141.229726,296.588219 C115.898904,300.116301 98.2242466,323.509452 101.754384,348.838904 C101.756438,348.854658 101.756438,348.870411 101.763973,348.889589 C94.7358904,350.164932 88.970137,354.48 85.6454795,360.293014 C81.4290411,358.940959 76.859863,358.461507 72.1810959,359.112877 C55.5139726,361.43411 43.8893151,376.824521 46.209863,393.490274 C47.8831507,405.512877 56.3831507,414.88411 67.2379452,418.313562 C72.4769863,431.245753 85.9578082,439.492329 100.407808,437.47863 C107.59411,436.476575 113.846164,433.08 118.524932,428.232055 C127.149589,440.166986 141.909863,447.056712 157.511233,444.885479 C169.300274,443.241644 179.213288,436.741644 185.528356,427.694384 C194.353014,435.412877 207.961918,439.393014 222.489315,437.367671 C242.133836,434.633425 257.170822,421.792329 259.898904,406.859452 C263.045479,407.779315 266.472877,408.07726 270.003699,407.586164 C282.203014,405.886164 290.848219,395.594384 289.317397,384.595753 C287.781781,373.597123 276.652329,366.060137 264.455068,367.760137" id="Fill-17" fill="#FFFFFF"></path>
                    <path d="M289.317329,384.595822 C287.781712,373.597192 276.65226,366.060205 264.455,367.760205 C264.389932,367.769795 264.320068,367.786918 264.252945,367.796507 C261.709795,355.904041 250.40089,347.81637 238.169384,349.519795 C235.652945,349.871849 233.285137,350.621849 231.118014,351.682123 C231.118014,351.682123 258.601575,348.165685 261.285822,372.184178 C262.285822,372.038288 263.304315,371.943082 264.35226,371.943082 C274.548836,371.943082 282.811164,379.143082 282.811164,388.021849 C282.811164,396.901986 274.548836,404.100616 264.35226,404.100616 C261.748836,404.100616 259.275548,403.626644 257.031027,402.780753 C253.896781,409.935548 248.663219,416.383493 239.948151,419.205411 C195.055,433.752671 180.128973,407.108836 180.128973,407.108836 C180.128973,407.108836 166.687877,430.632123 147.197466,430.632123 C127.707055,430.632123 117.623493,413.830068 117.623493,413.830068 C117.623493,413.830068 102.239247,434.894452 85.3604795,427.944452 C68.4803425,420.993767 67.214589,399.043082 67.214589,399.043082 C67.214589,399.043082 36.3919863,390.927329 60.8666438,363.065 C50.6159589,369.136918 44.464589,380.950616 46.2097945,393.490342 C47.8830822,405.512945 56.3837671,414.884178 67.2378767,418.31363 C72.4769178,431.245822 85.9577397,439.491712 100.40774,437.478699 C107.594041,436.476644 113.846096,433.080068 118.525548,428.232123 C127.149521,440.167055 141.909795,447.056781 157.511164,444.884863 C169.300205,443.241712 179.213904,436.741712 185.528288,427.694452 C194.352945,435.412945 207.961849,439.393082 222.489247,437.36774 C242.133767,434.633493 257.170753,421.792397 259.898836,406.859521 C263.045411,407.779384 266.472808,408.077329 270.00363,407.585548 C282.202945,405.886233 290.848151,395.594452 289.317329,384.595822" id="Fill-19" fill="#D2F1F9"></path>
                    <path d="M101.71863,100.995411 C101.688493,100.999521 101.655616,101.00774 101.62411,101.011164 C100.441918,95.4803425 95.1816438,91.7180137 89.4919178,92.5104795 C88.3213699,92.674863 87.22,93.0234932 86.2124658,93.5166438 C83.7336986,85.315274 75.7919178,79.8077397 67.0884932,80.5522603 C63.3076712,71.9502055 54.1665753,66.5296575 44.4015068,67.8899315 C32.6193151,69.5310274 24.3980822,80.4125342 26.039863,92.1940411 C26.0412329,92.2008904 26.0412329,92.2091096 26.0446575,92.2173288 C22.7754795,92.8111644 20.0939726,94.8173288 18.5473973,97.5221233 C16.5864384,96.8926712 14.4610959,96.6700685 12.2843836,96.9728082 C4.53232877,98.0522603 -0.875205479,105.210479 0.204246575,112.963219 C0.982328767,118.555 4.93643836,122.914589 9.98506849,124.50911 C12.4220548,130.524863 18.6926027,134.360479 25.4138356,133.424178 C28.7563014,132.957055 31.6645205,131.377603 33.8405479,129.122808 C37.8521918,134.674178 44.7179452,137.878973 51.9747945,136.868699 C57.4583562,136.104315 62.0693151,133.081712 65.0069863,128.872808 C69.1117808,132.463219 75.4412329,134.313904 82.1987671,133.372123 C91.3357534,132.10089 98.330274,126.127603 99.5994521,119.181712 C101.062466,119.60911 102.656986,119.748151 104.299452,119.519384 C109.97411,118.728973 113.995342,113.941301 113.283014,108.826233 C112.56863,103.709795 107.391918,100.204315 101.71863,100.995411" id="Fill-22" fill="#FFFFFF"></path>
                    <path d="M113.282877,108.825959 C112.568493,103.709521 107.391781,100.204041 101.718493,100.995137 C101.688356,100.999247 101.655479,101.007466 101.624658,101.011575 C100.441781,95.4807534 95.1815068,91.7177397 89.4924658,92.5108904 C88.3219178,92.674589 87.219863,93.0239041 86.2123288,93.5163699 C86.2123288,93.5163699 98.9958904,91.8814384 100.244521,103.052671 C100.709589,102.984863 101.182877,102.940342 101.670548,102.940342 C106.413699,102.940342 110.256849,106.289658 110.256849,110.419795 C110.256849,114.549247 106.413699,117.897877 101.670548,117.897877 C100.459589,117.897877 99.309589,117.678014 98.2650685,117.284178 C96.8075342,120.61226 94.3732877,123.611575 90.3191781,124.923904 C69.4376712,131.690342 62.4952055,119.297877 62.4952055,119.297877 C62.4952055,119.297877 56.2431507,130.239658 47.1773973,130.239658 C38.1116438,130.239658 33.4212329,122.423904 33.4212329,122.423904 C33.4212329,122.423904 26.2657534,132.221164 18.4150685,128.988973 C10.5630137,125.756096 9.97465753,115.546507 9.97465753,115.546507 C9.97465753,115.546507 -4.36232877,111.771164 7.02191781,98.8108904 C2.25342466,101.634863 -0.607534247,107.130068 0.204109589,112.962945 C0.982191781,118.554726 4.93630137,122.914315 9.98561644,124.508836 C12.4219178,130.525274 18.6924658,134.360205 25.4136986,133.423904 C28.7561644,132.956781 31.6643836,131.378014 33.8410959,129.123219 C37.8527397,134.673904 44.7184932,137.878699 51.9746575,136.868425 C57.4589041,136.104041 62.069863,133.081438 65.0068493,128.873219 C69.1116438,132.46363 75.4410959,134.31363 82.1986301,133.371849 C91.3363014,132.100616 98.330137,126.128014 99.5993151,119.181438 C101.063014,119.608836 102.656849,119.747877 104.299315,119.51911 C109.973973,118.728699 113.995205,113.941712 113.282877,108.825959" id="Fill-24" fill="#D2F1F9"></path>
                    <path d="M583.751301,25.1124658 C583.772534,25.1158904 583.796507,25.1220548 583.819795,25.1254795 C584.676644,21.1165753 588.489658,18.3891781 592.612945,18.9638356 C593.461575,19.0816438 594.260205,19.3343836 594.989658,19.6932877 C596.786233,13.7480822 602.543082,9.75630137 608.851301,10.2967123 C611.591027,4.06178082 618.215685,0.132328767 625.293767,1.11863014 C633.833493,2.30835616 639.792397,10.1953425 638.601986,18.7336986 C638.601301,18.7391781 638.601301,18.7446575 638.599247,18.7508219 C640.968425,19.1809589 642.911575,20.6364384 644.032808,22.5953425 C645.454041,22.139863 646.994452,21.9782192 648.572534,22.1973973 C654.191712,22.980274 658.110205,28.1686301 657.327329,33.7871233 C656.76363,37.839863 653.898562,40.9994521 650.238288,42.1556164 C648.471849,46.5158904 643.928014,49.2960274 639.056096,48.6165753 C636.633493,48.2782192 634.525959,47.1336986 632.947877,45.500137 C630.040342,49.5234247 625.064315,51.8460274 619.805411,51.1138356 C615.830068,50.5590411 612.488973,48.3679452 610.360205,45.3186301 C607.384863,47.9206849 602.797192,49.2617808 597.898562,48.579589 C591.275959,47.6576712 586.207466,43.3289041 585.286918,38.2939726 C584.225959,38.6035616 583.071164,38.7056164 581.880753,38.5391781 C577.76774,37.9665753 574.854041,34.4967123 575.369795,30.7884932 C575.888288,27.0809589 579.638973,24.539863 583.751301,25.1124658" id="Fill-27" fill="#FFFFFF"></path>
                    <path d="M575.369589,30.7885616 C575.888082,27.0810274 579.638767,24.5399315 583.751096,25.1125342 C583.773014,25.1159589 583.796986,25.1221233 583.819589,25.124863 C584.676438,21.1166438 588.489452,18.3885616 592.61274,18.9639041 C593.46137,19.0817123 594.26,19.3344521 594.990137,19.6933562 C594.990137,19.6933562 585.724384,18.5063699 584.819589,26.6043151 C584.482603,26.555 584.139452,26.5228082 583.786027,26.5228082 C580.349041,26.5228082 577.563425,28.9502055 577.563425,31.9440411 C577.563425,34.9371918 580.349041,37.3639041 583.786027,37.3639041 C584.663425,37.3639041 585.497671,37.2043151 586.254521,36.9193836 C587.31137,39.3317123 589.075068,41.505 592.013425,42.4563699 C607.147671,47.3604795 612.179863,38.3789726 612.179863,38.3789726 C612.179863,38.3789726 616.71137,46.3091096 623.281918,46.3091096 C629.853151,46.3091096 633.252466,40.6440411 633.252466,40.6440411 C633.252466,40.6440411 638.438767,47.7460959 644.129178,45.4022603 C649.819589,43.0591096 650.245616,35.6591096 650.245616,35.6591096 C650.245616,35.6591096 660.637397,32.9228082 652.386027,23.5296575 C655.842192,25.5769178 657.916164,29.5597945 657.327123,33.7871918 C656.763425,37.8399315 653.898356,40.9995205 650.238767,42.1556849 C648.471644,46.5159589 643.928493,49.2960959 639.05589,48.6166438 C636.633288,48.2782877 634.525753,47.1337671 632.947671,45.5002055 C630.040137,49.5234932 625.064795,51.8460959 619.805205,51.1139041 C615.829863,50.5591096 612.488767,48.3680137 610.36,45.3186986 C607.384658,47.9207534 602.796986,49.2618493 597.899041,48.5796575 C591.276438,47.6577397 586.20726,43.3289726 585.286712,38.2940411 C584.226438,38.6036301 583.070959,38.7056849 581.880548,38.5385616 C577.767534,37.9659589 574.853836,34.4967808 575.369589,30.7885616" id="Fill-29" fill="#D2F1F9"></path>
                    <path d="M699.566233,379.33911 C699.531986,379.344589 699.495,379.353493 699.460068,379.357603 C698.122397,373.103493 692.174452,368.850068 685.74089,369.745959 C684.417603,369.93089 683.172397,370.325411 682.031986,370.882945 C679.229932,361.609658 670.250479,355.38226 660.408699,356.224041 C656.134041,346.497329 645.797055,340.367877 634.755274,341.906233 C621.432671,343.761712 612.136781,356.065822 613.992945,369.38774 C613.994315,369.395274 613.994315,369.404178 613.998425,369.414452 C610.301849,370.085 607.269658,372.354863 605.520342,375.412397 C603.303219,374.701438 600.899795,374.448014 598.438836,374.791164 C589.673082,376.012397 583.558699,384.106918 584.779247,392.871986 C585.658699,399.195274 590.130616,404.124726 595.839521,405.928151 C598.595,412.730205 605.685411,417.067192 613.284726,416.008288 C617.064863,415.481575 620.353219,413.694589 622.813493,411.145274 C627.349795,417.422671 635.112808,421.046644 643.318973,419.904178 C649.519658,419.03911 654.733356,415.620616 658.054589,410.861712 C662.695685,414.921986 669.853219,417.014452 677.494315,415.949384 C687.825822,414.511712 695.734726,407.757603 697.170342,399.903493 C698.825137,400.387055 700.627877,400.544589 702.484726,400.285685 C708.901164,399.391849 713.448425,393.978836 712.642945,388.194589 C711.834726,382.408973 705.981301,378.445274 699.566233,379.33911" id="Fill-32" fill="#FFFFFF"></path>
                    <path d="M712.642808,388.194384 C711.834589,382.409452 705.981164,378.445753 699.566096,379.338904 C699.531849,379.344384 699.495548,379.353288 699.459932,379.358082 C698.12226,373.103973 692.174315,368.849863 685.741438,369.745753 C684.417466,369.930685 683.172945,370.325205 682.032534,370.883425 C682.032534,370.883425 696.487329,369.033425 697.899658,381.666301 C698.425685,381.588904 698.960616,381.539589 699.511986,381.539589 C704.875,381.539589 709.22089,385.326575 709.22089,389.996438 C709.22089,394.666301 704.875,398.453288 699.511986,398.453288 C698.143493,398.453288 696.842123,398.203288 695.661301,397.758767 C694.013356,401.521781 691.259932,404.912877 686.677055,406.397123 C663.064726,414.048493 655.214041,400.035479 655.214041,400.035479 C655.214041,400.035479 648.144863,412.407397 637.894178,412.407397 C627.642808,412.407397 622.339384,403.569726 622.339384,403.569726 C622.339384,403.569726 614.248288,414.649178 605.37089,410.993014 C596.492808,407.337534 595.82637,395.792329 595.82637,395.792329 C595.82637,395.792329 579.615411,391.524521 592.488014,376.869726 C587.096233,380.062877 583.861301,386.276575 584.77911,392.871781 C585.659247,399.195753 590.130479,404.124521 595.839384,405.92863 C598.594863,412.73 605.685274,417.066986 613.285274,416.008082 C617.064726,415.48137 620.353082,413.694384 622.814041,411.145068 C627.350342,417.422466 635.113356,421.046438 643.318836,419.903973 C649.519521,419.038904 654.733219,415.620411 658.054452,410.862192 C662.695548,414.921781 669.853082,417.014247 677.494863,415.949178 C687.82637,414.511507 695.734589,407.757397 697.170205,399.903973 C698.825,400.387534 700.62774,400.544384 702.484589,400.285479 C708.901027,399.392329 713.448288,393.97863 712.642808,388.194384" id="Fill-34" fill="#D2F1F9"></path>
                </g>
            </g>
        </g>
    </g>
</svg>