<?xml version="1.0" encoding="UTF-8"?>
<svg width="725px" height="445px" viewBox="0 0 725 445" version="1.1" xmlns="http://www.w3.org/2000/svg" xmlns:xlink="http://www.w3.org/1999/xlink">
    <!-- Generator: Sketch 51.3 (57544) - http://www.bohemiancoding.com/sketch -->
    <title>Illustration-rainbow-10</title>
    <desc>Created with Sketch.</desc>
    <defs>
        <rect id="path-1" x="0" y="0" width="725" height="445"></rect>
        <linearGradient x1="49.4841811%" y1="16.4473%" x2="51.7428668%" y2="208.565703%" id="linearGradient-3">
            <stop stop-color="#FFFFFF" offset="0%"></stop>
            <stop stop-color="#00ADE2" offset="100%"></stop>
        </linearGradient>
        <linearGradient x1="50.5717313%" y1="16.50322%" x2="48.3160271%" y2="208.745898%" id="linearGradient-4">
            <stop stop-color="#FFFFFF" offset="0%"></stop>
            <stop stop-color="#00ADE2" offset="100%"></stop>
        </linearGradient>
        <linearGradient x1="25.9404826%" y1="127.591714%" x2="25.9404826%" y2="147.988577%" id="linearGradient-5">
            <stop stop-color="#FFFFFF" offset="0%"></stop>
            <stop stop-color="#00ADE2" offset="100%"></stop>
        </linearGradient>
        <linearGradient x1="-12.3572819%" y1="225.131713%" x2="-14.1514045%" y2="263.465155%" id="linearGradient-6">
            <stop stop-color="#FFFFFF" offset="0%"></stop>
            <stop stop-color="#00ADE2" offset="100%"></stop>
        </linearGradient>
        <linearGradient x1="-60.4362291%" y1="267.57547%" x2="-57.2462682%" y2="460.225414%" id="linearGradient-7">
            <stop stop-color="#FFFFFF" offset="0%"></stop>
            <stop stop-color="#00ADE2" offset="100%"></stop>
        </linearGradient>
        <linearGradient x1="-81.5942263%" y1="308.177531%" x2="-78.4039453%" y2="500.264612%" id="linearGradient-8">
            <stop stop-color="#FFFFFF" offset="0%"></stop>
            <stop stop-color="#00ADE2" offset="100%"></stop>
        </linearGradient>
        <linearGradient x1="-13.051397%" y1="150.175583%" x2="-10.6590988%" y2="219.94404%" id="linearGradient-9">
            <stop stop-color="#FFFFFF" offset="0%"></stop>
            <stop stop-color="#00ADE2" offset="100%"></stop>
        </linearGradient>
        <linearGradient x1="0.302020209%" y1="116.544949%" x2="33.2840223%" y2="197.961942%" id="linearGradient-10">
            <stop stop-color="#FFFFFF" offset="0%"></stop>
            <stop stop-color="#00ADE2" offset="100%"></stop>
        </linearGradient>
        <linearGradient x1="53.7052506%" y1="33.6737062%" x2="20.7184209%" y2="115.026998%" id="linearGradient-11">
            <stop stop-color="#FFFFFF" offset="0%"></stop>
            <stop stop-color="#00ADE2" offset="100%"></stop>
        </linearGradient>
        <linearGradient x1="25.9408376%" y1="127.622003%" x2="25.9408376%" y2="148.038862%" id="linearGradient-12">
            <stop stop-color="#FFFFFF" offset="0%"></stop>
            <stop stop-color="#00ADE2" offset="100%"></stop>
        </linearGradient>
    </defs>
    <g id="components" stroke="none" stroke-width="1" fill="none" fill-rule="evenodd">
        <g id="Illustration-rainbow-10">
            <mask id="mask-2" fill="white">
                <use xlink:href="#path-1"></use>
            </mask>
            <use id="Mask" fill="#D8D8D8" fill-rule="nonzero" xlink:href="#path-1"></use>
            <g id="Illustration-rainbow-10-01" mask="url(#mask-2)">
                <g transform="translate(-92.000000, -158.000000)">
                    <rect id="Rectangle-path" fill="#99DEF3" fill-rule="nonzero" x="79.64" y="150.46" width="750" height="500.6"></rect>
                    <g id="Group" opacity="0.93" stroke-width="1" fill="none" fill-rule="evenodd" transform="translate(5.000000, 393.000000)">
                        <path d="M806.64,50.06 C800.943026,50.0528695 795.301082,51.1744607 790.04,53.36 C777.025892,33.5168158 750.397214,27.9673098 730.54,40.96 C726.990567,43.2947422 723.791777,46.1231465 721.04,49.36 C720.714018,30.5334833 708.163531,14.1144559 690.082234,8.85986598 C672.000938,3.60527604 652.605374,10.740489 642.24,26.46 C641.04,26.36 639.84,26.26 638.64,26.26 C634.091508,26.2774182 629.584365,27.1246255 625.34,28.76 C614.782031,10.3766482 594.894016,-0.628585825 573.710345,0.1902082 C552.526674,1.00900223 533.547478,13.5165367 524.44,32.66 C513.211524,25.0106956 498.673392,24.1985728 486.66283,30.5497079 C474.652267,36.900843 467.139119,49.3735903 467.14,62.96 C467.137195,65.6190696 467.439165,68.2696995 468.04,70.86 C450.375992,67.6100215 432.96202,77.6502502 426.92456,94.565587 C420.8871,111.480924 428.008289,130.278298 443.738119,138.947323 C459.467948,147.616349 479.163285,143.598102 490.24,129.46 C502.673141,145.353895 525.630546,148.173226 541.54,135.76 L543.14,134.46 C549.732757,147.799484 563.746967,155.818068 578.587758,154.74233 C593.428548,153.666593 606.139882,143.710802 610.74,129.56 C617.199368,143.67321 631.865959,152.169617 647.322257,150.752227 C662.778555,149.334838 675.655229,138.312629 679.44,123.26 C696.090289,127.645476 713.534817,119.757879 721.24,104.36 C733.305251,118.869624 753.420765,123.817392 770.84,116.56 C784.02905,135.901942 810.267731,141.138937 829.871379,128.342112 C849.475026,115.545286 855.23941,89.417401 842.84,69.56 C834.80208,57.4059802 821.21147,50.0850711 806.64,50.06 Z" id="Shape" fill="url(#linearGradient-3)" fill-rule="nonzero" opacity="0.5"></path>
                        <path d="M44.14,50.06 C49.8369745,50.0528695 55.4789177,51.1744607 60.74,53.36 C73.7670787,33.5307083 100.393182,27.9996388 120.24,41 C123.789433,43.3347422 126.988223,46.1631465 129.74,49.4 C130.029896,30.5331734 142.58589,14.059566 160.700952,8.77887596 C178.816015,3.49818594 198.257354,10.6443073 208.64,26.4 C209.84,26.3 211.04,26.2 212.24,26.2 C216.788492,26.2174182 221.295635,27.0646255 225.54,28.7 C236.097969,10.3166482 255.985984,-0.688585825 277.169655,0.1302082 C298.353326,0.949002225 317.332522,13.4565367 326.44,32.6 C338.828651,24.0900026 355.162593,24.0264829 367.617056,32.4398699 C380.071519,40.853257 386.110093,56.0301255 382.84,70.7 C400.504008,67.4500215 417.91798,77.4902502 423.95544,94.405587 C429.9929,111.320924 422.871711,130.118298 407.141881,138.787323 C391.412052,147.456349 371.716715,143.438102 360.64,129.3 C348.206859,145.193895 325.249454,148.013226 309.34,135.6 L307.74,134.3 C301.147243,147.639484 287.133033,155.658068 272.292242,154.58233 C257.451452,153.506593 244.740118,143.550802 240.14,129.4 C233.680632,143.51321 219.014041,152.009617 203.557743,150.592227 C188.101445,149.174838 175.224771,138.152629 171.44,123.1 C154.789711,127.485476 137.345183,119.597879 129.64,104.2 C117.545343,118.732074 97.3889114,123.67993 79.94,116.4 C66.9583667,136.277949 40.3232127,141.873569 20.44,128.9 C0.562051384,115.918367 -5.03356922,89.2832127 7.94,69.4 C16.0287561,57.327587 29.6082768,50.0876768 44.14,50.1 L44.14,50.06 Z" id="Shape" fill="url(#linearGradient-4)" fill-rule="nonzero" opacity="0.5"></path>
                    </g>
                    <path d="M43.64,470.36 C31.5278176,496.120244 39.1176975,526.843375 61.8321185,544.000012 C84.5465396,561.156649 116.174121,560.055218 137.64,541.36 C147.695781,562.145699 168.749657,575.352927 191.84,575.36 C193.24,575.36 194.64,575.26 196.04,575.16 C197.548146,606.362345 222.665313,631.230825 253.88112,632.428429 C285.096926,633.626033 312.045631,610.755076 315.94,579.76 C342.036373,579.571374 365.027634,562.560265 372.84,537.66 C375.622253,538.058717 378.429323,538.259222 381.24,538.26 C407.90269,538.277513 431.391784,520.731933 438.94,495.16 C446.513977,520.713989 469.987208,538.24772 496.64,538.26 C499.450677,538.259222 502.257747,538.058717 505.04,537.66 C512.852366,562.560265 535.843627,579.571374 561.94,579.76 C565.886644,610.682832 592.794106,633.472891 623.944818,632.276786 C655.095531,631.080682 680.176189,606.294419 681.74,575.16 C683.14,575.26 684.54,575.36 685.94,575.36 C709.037963,575.379428 730.104762,562.164093 740.14,541.36 C761.61074,560.029719 793.2207,561.118068 815.924691,543.969309 C838.628681,526.82055 846.226327,496.117947 834.14,470.36 C857.976854,456.905351 869.746277,429.071369 862.793021,402.597316 C855.839765,376.123264 831.911941,357.664957 804.54,357.66 L804.24,357.66 C804.4396,355.900382 804.539759,354.130903 804.54,352.36 C804.619553,328.088893 787.437809,307.187006 763.610122,302.568101 C739.782435,297.949195 716.035153,310.917148 707.04,333.46 C692.762255,321.727843 671.677966,323.78703 659.94,338.06 C656.424736,342.253601 654.048455,347.281674 653.04,352.66 C636.773794,340.820276 615.241189,339.105096 597.305803,348.220492 C579.370417,357.335888 568.063733,375.741154 568.04,395.86 L568.04,396.86 C559.248656,392.361289 549.029839,391.540811 539.633335,394.579201 C530.23683,397.617592 522.43302,404.265746 517.94,413.06 C516.664643,415.499562 515.690823,418.085224 515.04,420.76 C483.423582,410.538764 449.50293,427.857092 439.24,459.46 C439.07368,459.916605 438.94001,460.384449 438.84,460.86 C434.294477,445.541796 423.848431,432.657539 409.801047,425.043069 C395.753662,417.428599 379.256283,415.708008 363.94,420.26 C363.44,420.36 362.94,420.56 362.54,420.66 C357.425539,400.754509 337.148837,388.758579 317.24,393.86 C314.584604,394.57232 312.005565,395.543646 309.54,396.76 L309.54,395.76 C309.585162,375.633434 298.305987,357.192436 280.368025,348.064993 C262.430063,338.937549 240.883146,340.675518 224.64,352.56 C220.906425,334.458505 203.268406,322.759363 185.14,326.36 C179.803798,327.495778 174.805233,329.858113 170.54,333.26 C160.091164,307.368299 130.642009,294.836744 104.74,305.26 C85.6517155,313.125854 73.1802864,331.714598 73.14,352.36 C73.1402413,354.130903 73.2404005,355.900382 73.44,357.66 L73.14,357.66 C39.8924581,357.66 12.94,384.612458 12.94,417.86 C12.9230577,439.624965 24.6632417,459.701827 43.64,470.36 Z" id="Shape" fill="url(#linearGradient-5)" fill-rule="nonzero" opacity="0.31"></path>
                    <path d="M568.84,372.76 C563.379794,372.757278 557.974044,373.845227 552.94,375.96 C550.327879,365.497052 543.666215,356.500368 534.420595,350.949245 C525.174975,345.398122 514.102807,343.747313 503.64,346.36 C501.912657,346.80191 500.210219,347.336008 498.54,347.96 C486.780343,327.486102 464.633535,315.225776 441.039991,316.128376 C417.446447,317.030976 396.301067,330.947498 386.14,352.26 C372.342614,342.83664 354.191496,342.788053 340.343858,352.137413 C326.496221,361.486773 319.75681,378.340431 323.34,394.66 C303.674427,390.984458 284.248369,402.124636 277.48868,420.95416 C270.72899,439.783683 278.634167,460.735616 296.147267,470.407001 C313.660367,480.078387 335.603653,475.609886 347.94,459.86 C361.742067,477.55836 387.262533,480.751772 405,467 L406.8,465.5 C414.13216,480.381457 429.75745,489.32884 446.303078,488.120328 C462.848707,486.911816 477.008041,475.788929 482.1,460 C489.31445,475.685021 505.632002,485.11952 522.824827,483.54632 C540.017651,481.973121 554.351985,469.733874 558.6,453 C580.360777,458.590013 602.541587,445.517112 608.191507,423.771811 C613.841427,402.026511 600.829659,379.809783 579.1,374.1 C575.731103,373.25582 572.273,372.81936 568.8,372.8 L568.84,372.76 Z" id="Shape" fill="url(#linearGradient-6)" fill-rule="nonzero" opacity="0.31"></path>
                    <path d="M448,304 C565,304 660,398.4 661,515.2 L678,515.2 C677,389 574.4,286.9 448,286.9 C321.6,286.9 218.9,388.9 218,515.2 L235,515.2 C236,398.36 330.94,304 448,304 Z" id="Shape" fill="#FF96E7" fill-rule="nonzero"></path>
                    <path d="M660.94,506.26 C659.94,389.46 565.04,295.06 447.94,295.06 C330.84,295.06 236,389.46 235,506.26 L218.2,506.26 C218.1,509.26 218,512.26 218,515.26 L235.1,515.26 C236.1,398.46 331,304.06 448.1,304.06 C565.2,304.06 660.1,398.46 661.1,515.26 L678.1,515.26 C678.1,512.26 678,509.26 677.8,506.26 L660.94,506.26 Z" id="Shape" fill="#FF7FE2" fill-rule="nonzero"></path>
                    <path d="M448,304 C331,304 236,398.4 235,515.2 L250.8,515.2 C251.8,407.1 339.6,319.8 447.9,319.8 C556.2,319.8 644.1,407.1 645.1,515.2 L660.9,515.2 C660,398.36 565,304 448,304 Z" id="Shape" fill="#F65555" fill-rule="nonzero"></path>
                    <path d="M645.14,506.66 C644.14,398.56 556.34,311.26 448.04,311.26 C339.74,311.26 251.84,398.56 250.94,506.66 L235.34,506.66 C235.24,509.46 235.14,512.36 235.04,515.16 L250.84,515.16 C251.84,407.06 339.64,319.76 447.94,319.76 C556.24,319.76 644.14,407.06 645.14,515.16 L660.94,515.16 C660.94,512.26 660.84,509.46 660.74,506.66 L645.14,506.66 Z" id="Shape" fill="#F43D3D" fill-rule="nonzero"></path>
                    <path d="M448,334.46 C548.2,334.46 629.5,415.26 630.5,515.16 L645.1,515.16 C644.1,407.06 556.3,319.76 448,319.76 C339.7,319.76 251.7,407.06 250.8,515.16 L265.4,515.16 C266.398412,415.037275 347.872309,334.411135 448,334.46 Z" id="Shape" fill="#FDDE66" fill-rule="nonzero"></path>
                    <path d="M630.44,507.26 C629.44,407.26 548.14,326.56 447.94,326.56 C347.846813,326.555131 266.42722,407.171681 265.44,507.26 L251,507.26 C250.9,509.86 250.8,512.56 250.8,515.16 L265.4,515.16 C266.38722,415.071681 347.806813,334.455131 447.9,334.46 C548.1,334.46 629.4,415.26 630.4,515.16 L645,515.16 C645,512.56 644.9,509.86 644.8,507.26 L630.44,507.26 Z" id="Shape" fill="#FDD434" fill-rule="nonzero"></path>
                    <path d="M448,334.46 C347.906813,334.455131 266.48722,415.071681 265.5,515.16 L279,515.16 C281.2313,423.452473 356.215333,350.270657 447.95,350.270657 C539.684667,350.270657 614.6687,423.452473 616.9,515.16 L630.5,515.16 C629.54,415.16 548.14,334.46 448,334.46 Z" id="Shape" fill="#4FC843" fill-rule="nonzero"></path>
                    <path d="M616.94,507.86 C614.7087,416.152473 539.724667,342.970657 447.99,342.970657 C356.255333,342.970657 281.2713,416.152473 279.04,507.86 L265.64,507.86 C265.54,510.26 265.44,512.76 265.44,515.16 L278.94,515.16 C281.1713,423.452473 356.155333,350.270657 447.89,350.270657 C539.624667,350.270657 614.6087,423.452473 616.84,515.16 L630.44,515.16 C630.44,512.66 630.34,510.26 630.24,507.86 L616.94,507.86 Z" id="Shape" fill="#3AC12D" fill-rule="nonzero"></path>
                    <path d="M448,360.56 C533.668126,360.581389 603.386989,429.497861 604.4,515.16 L617,515.16 C614.7687,423.452473 539.784667,350.270657 448.05,350.270657 C356.315333,350.270657 281.3313,423.452473 279.1,515.16 L291.6,515.16 C292.54,429.46 362.34,360.56 448,360.56 Z" id="Shape" fill="#5CCBEC" fill-rule="nonzero"></path>
                    <path d="M604.34,508.36 C604.009801,466.892985 587.219736,427.255673 557.663714,398.168496 C528.107691,369.081319 488.206994,352.927151 446.74,353.26 C361.34,353.96 292.24,422.96 291.64,508.36 L279.34,508.36 C279.24,510.56 279.14,512.86 279.14,515.16 L291.64,515.16 C291.970199,473.692985 308.760264,434.055673 338.316286,404.968496 C367.872309,375.881319 407.773006,359.727151 449.24,360.06 C534.64,360.76 603.74,429.76 604.34,515.16 L616.94,515.16 C616.94,512.86 616.84,510.66 616.74,508.36 L604.34,508.36 Z" id="Shape" fill="#3BC0E9" fill-rule="nonzero"></path>
                    <path d="M448,360.56 C362.331874,360.581389 292.613011,429.497861 291.6,515.16 L303.2,515.16 C304.513612,436.127363 368.956447,372.746741 448,372.746741 C527.043553,372.746741 591.486388,436.127363 592.8,515.16 L604.4,515.16 C603.424704,429.481853 533.683696,360.543491 448,360.56 Z" id="Shape" fill="#A558E4" fill-rule="nonzero"></path>
                    <path d="M592.74,508.86 C591.426388,429.827363 526.983553,366.446741 447.94,366.446741 C368.896447,366.446741 304.453612,429.827363 303.14,508.86 L291.74,508.86 C291.64,510.96 291.54,513.06 291.54,515.16 L303.14,515.16 C304.453612,436.127363 368.896447,372.746741 447.94,372.746741 C526.983553,372.746741 591.426388,436.127363 592.74,515.16 L604.34,515.16 C604.34,513.06 604.24,510.96 604.14,508.86 L592.74,508.86 Z" id="Shape" fill="#9841E0" fill-rule="nonzero"></path>
                    <path d="M448,382.86 C521.322937,382.913463 581.010425,441.843722 582,515.16 L592.8,515.16 C591.486388,436.127363 527.043553,372.746741 448,372.746741 C368.956447,372.746741 304.513612,436.127363 303.2,515.16 L314,515.16 C314.84,441.76 374.64,382.86 448,382.86 Z" id="Shape" fill="#C18DED" fill-rule="nonzero"></path>
                    <path d="M582,509.36 C581.999999,435.353844 522.006156,375.360002 448,375.360002 C373.993844,375.360002 314.000001,435.353844 314,509.36 L303.4,509.36 C303.3,511.26 303.2,513.26 303.2,515.16 L314,515.16 C313.999999,467.28641 339.540255,423.049389 380.999999,399.112594 C422.459744,375.175799 473.540256,375.175799 515.000001,399.112594 C556.459745,423.049389 582.000001,467.28641 582,515.16 L592.8,515.16 C592.8,513.16 592.7,511.26 592.6,509.36 L582,509.36 Z" id="Shape" fill="#B576E9" fill-rule="nonzero"></path>
                    <path d="M350.34,501.06 C347.281752,501.048082 344.25326,501.660586 341.44,502.86 C340.000183,497.008616 336.291914,491.970296 331.133021,488.8562 C325.974128,485.742105 319.788382,484.808038 313.94,486.26 C312.975821,486.453863 312.03656,486.755768 311.14,487.16 C304.558316,475.736691 292.189654,468.900021 279.015547,469.40349 C265.841441,469.906959 254.030641,477.667685 248.34,489.56 C241.369892,484.797623 232.336427,484.284267 224.87166,488.226335 C217.406893,492.168403 212.737158,499.91828 212.74,508.36 C212.75786,510.005109 212.925215,511.64519 213.24,513.26 C211.858107,512.978366 210.450212,512.844281 209.04,512.86 C198.379904,512.82673 189.126196,520.200007 186.777867,530.598282 C184.429538,540.996556 189.616398,551.631066 199.256168,556.182284 C208.895939,560.733502 220.403286,557.980815 226.94,549.56 C230.64109,554.324439 236.090027,557.41544 242.07851,558.147575 C248.066992,558.879709 254.100104,557.192469 258.84,553.46 C259.14,553.16 259.54,552.96 259.84,552.66 C263.965235,560.933098 272.672494,565.901818 281.893662,565.244727 C291.114831,564.587637 299.029554,558.434453 301.94,549.66 C307.212626,561.06431 320.7063,566.068586 332.14,560.86 C338.387221,557.990864 342.987998,552.433126 344.64,545.76 C352.517706,547.778551 360.873891,545.441062 366.560861,539.628044 C372.24783,533.815025 374.401598,525.409613 372.210861,517.578043 C370.020124,509.746474 363.817707,503.67855 355.94,501.66 C354.085948,501.355984 352.216375,501.155673 350.34,501.06 Z" id="Shape" fill="url(#linearGradient-7)" fill-rule="nonzero"></path>
                    <path d="M664,491.46 C661.424993,491.454932 658.87498,491.964934 656.5,492.96 C653.941921,482.755728 643.614014,476.5411 633.4,479.06 C632.58563,479.281445 631.784363,479.548534 631,479.86 C625.474289,470.279529 615.098613,464.545744 604.046781,464.965168 C592.994949,465.384593 583.083692,471.88828 578.3,481.86 C569.598948,475.93523 557.743931,478.172025 551.8,486.86 C549.622139,490.03816 548.470442,493.807351 548.5,497.66 C548.529232,499.034829 548.662951,500.405446 548.9,501.76 C547.743954,501.560913 546.573064,501.460551 545.4,501.46 C536.45696,501.404422 528.672729,507.561695 526.667571,516.27722 C524.662414,524.992746 528.973267,533.932702 537.041459,537.790852 C545.109651,541.649002 554.774701,539.39222 560.3,532.36 C563.415723,536.352323 567.990102,538.94303 573.016366,539.561936 C578.04263,540.180842 583.108847,538.777223 587.1,535.66 C587.387817,535.452005 587.65564,535.21766 587.9,534.96 C591.327563,541.934683 598.639268,546.137245 606.391235,545.588239 C614.143202,545.039233 620.789634,539.848134 623.2,532.46 C626.558746,539.807587 634.184848,544.239492 642.23164,543.520225 C650.278432,542.800959 656.997624,537.086794 659,529.26 C660.569333,529.656128 662.181446,529.857642 663.8,529.86 C668.865635,529.86 673.723795,527.847684 677.30574,524.26574 C680.887684,520.683795 682.9,515.825635 682.9,510.76 C683.021462,505.674478 681.082341,500.755748 677.523169,497.121249 C673.963996,493.48675 669.086951,491.445056 664,491.46 Z" id="Shape" fill="url(#linearGradient-8)" fill-rule="nonzero"></path>
                    <path d="M574.44,536.16 C568.979794,536.157278 563.574044,537.245227 558.54,539.36 C555.927879,528.897052 549.266215,519.900368 540.020595,514.349245 C530.774975,508.798122 519.702807,507.147313 509.24,509.76 C507.512657,510.20191 505.810219,510.736008 504.14,511.36 C492.380343,490.886102 470.233535,478.625776 446.639991,479.528376 C423.046447,480.430976 401.901067,494.347498 391.74,515.66 C377.949154,506.190795 359.769994,506.119559 345.905361,515.480394 C332.040729,524.841228 325.311843,541.729362 328.94,558.06 C326.469278,557.57937 323.956991,557.34489 321.44,557.36 C302.366063,557.340699 285.830706,570.554742 281.643017,589.163307 C277.455327,607.771872 286.735876,626.795551 303.979265,634.949136 C321.222654,643.102722 341.814779,638.204422 353.54,623.16 C360.15451,631.663951 369.877782,637.190223 380.568693,638.521898 C391.259604,639.853573 402.041449,636.881447 410.54,630.26 L412.34,628.76 C419.674917,643.619812 435.276305,652.559669 451.805369,651.374318 C468.334434,650.188966 482.500524,639.114391 487.64,623.36 C494.85445,639.045021 511.172002,648.47952 528.364827,646.90632 C545.557651,645.333121 559.891985,633.093874 564.14,616.36 C585.900777,621.950013 608.081587,608.877112 613.731507,587.131811 C619.381427,565.386511 606.369659,543.169783 584.64,537.46 C581.302714,536.628331 577.879204,536.192002 574.44,536.16 Z" id="Shape" fill="url(#linearGradient-9)" fill-rule="nonzero" opacity="0.93"></path>
                    <g id="Group" stroke-width="1" fill="none" fill-rule="evenodd" transform="translate(0.000000, 464.000000)" opacity="0.93">
                        <path d="M859.44,128.36 C884.769075,112.338556 892.993873,79.2148453 878.101122,53.206103 C863.208372,27.1973607 830.478147,17.5247236 803.84,31.26 C793.563899,11.3429848 772.402688,-0.529078114 750.048909,1.08161286 C727.69513,2.69230384 708.454551,17.4754986 701.14,38.66 C681.58705,29.6534823 658.431994,38.1466497 649.34,57.66 C649.04,58.26 648.84,58.86 648.54,59.46 C637.471103,50.4794892 621.235298,52.0852282 612.14,63.06 C609.449704,66.3200999 607.62663,70.2070302 606.84,74.36 C588.448008,60.9432344 562.662531,64.9722154 549.24,83.36 C544.129959,90.4343821 541.366999,98.9331062 541.34,107.66 L541.34,108.46 C527.228169,101.264702 509.955135,106.858301 502.74,120.96 C501.767562,122.874928 500.996756,124.885727 500.44,126.96 C484.648861,121.886829 467.350742,125.623497 455.061677,136.762439 C442.772612,147.901381 437.359603,164.750326 440.861677,180.962439 C444.363751,197.174553 456.248861,210.286829 472.04,215.36 C476.628016,216.836241 481.42037,217.578719 486.24,217.56 C488.415571,217.542641 490.587369,217.37558 492.74,217.06 C498.79029,236.257686 516.512311,249.377633 536.64,249.56 C539.644598,273.434332 560.398064,291.05254 584.443475,290.141729 C608.488885,289.230918 627.850082,270.093215 629.04,246.06 C630.14,246.16 631.14,246.16 632.24,246.16 C650.073185,246.166657 666.327937,235.939385 674.04,219.86 C689.272928,233.061367 711.271852,234.958522 728.54,224.56 C738.470795,235.608868 752.384895,242.258972 767.219911,243.046672 C782.054927,243.834372 796.595012,238.69511 807.64,228.76 C809.147363,227.402659 810.582659,225.967363 811.94,224.46 C836.28395,228.518061 860.414535,216.160814 871.350291,194.036054 C882.286046,171.911294 877.448462,145.235753 859.44,128.36 Z" id="Shape" fill="url(#linearGradient-10)" fill-rule="nonzero"></path>
                        <path d="M26.54,128.36 C0.446446267,111.76251 -7.25387013,77.1558557 9.34,51.06 C24.8530908,26.6514411 56.4012119,18.0710455 82.14,31.26 C92.4161013,11.3429848 113.577312,-0.529078114 135.931091,1.08161286 C158.28487,2.69230384 177.525449,17.4754986 184.84,38.66 C204.39295,29.6534823 227.548006,38.1466497 236.64,57.66 C236.94,58.26 237.14,58.86 237.44,59.46 C248.508897,50.4794892 264.744702,52.0852282 273.84,63.06 C276.530296,66.3200999 278.35337,70.2070302 279.14,74.36 C297.531992,60.9432344 323.317469,64.9722154 336.74,83.36 C341.850041,90.4343821 344.613001,98.9331062 344.64,107.66 L344.64,108.46 C358.751831,101.264702 376.024865,106.858301 383.24,120.96 C384.212438,122.874928 384.983244,124.885727 385.54,126.96 C402.979743,121.366402 422.078381,126.540387 434.309807,140.172158 C446.541232,153.803929 449.622848,173.349562 442.178944,190.083397 C434.735039,206.817233 418.154777,217.616447 399.84,217.66 C397.664429,217.642641 395.492631,217.47558 393.34,217.16 C387.28971,236.357686 369.567689,249.477633 349.44,249.66 C346.473602,273.614311 325.654727,291.304985 301.535701,290.366299 C277.416675,289.427613 258.035694,270.172403 256.94,246.06 C255.84,246.16 254.84,246.16 253.74,246.16 C235.914484,246.140085 219.672699,235.920971 211.94,219.86 C196.707072,233.061367 174.708148,234.958522 157.44,224.56 C147.509205,235.608868 133.595105,242.258972 118.760089,243.046672 C103.925073,243.834372 89.3849881,238.69511 78.34,228.76 C76.8326374,227.402659 75.3973413,225.967363 74.04,224.46 C59.3866951,226.887431 44.3692749,223.394081 32.2917638,214.748534 C20.2142528,206.102986 12.0660988,193.013525 9.64,178.36 C6.6102195,159.92015 12.944248,141.18042 26.54,128.36 Z" id="Shape" fill="url(#linearGradient-11)" fill-rule="nonzero"></path>
                    </g>
                    <path d="M51.34,168.56 C39.2278176,194.320244 46.8176975,225.043375 69.5321185,242.200012 C92.2465396,259.356649 123.874121,258.255218 145.34,239.56 C155.395781,260.345699 176.449657,273.552927 199.54,273.56 C200.94,273.56 202.34,273.46 203.74,273.36 C205.303811,304.494419 230.384469,329.280682 261.535182,330.476786 C292.685894,331.672891 319.593356,308.882832 323.54,277.96 C349.636373,277.771374 372.627634,260.760265 380.44,235.86 C383.222253,236.258717 386.029323,236.459222 388.84,236.46 C415.461914,236.451002 438.921113,218.968409 446.54,193.46 C454.113977,219.013989 477.587208,236.54772 504.24,236.56 C507.050677,236.559222 509.857747,236.358717 512.64,235.96 C520.452366,260.860265 543.443627,277.871374 569.54,278.06 C573.488096,309.009453 600.417559,331.820317 631.594881,330.624189 C662.772203,329.428062 687.87479,304.620973 689.44,273.46 C690.84,273.56 692.24,273.66 693.64,273.66 C716.737963,273.679428 737.804762,260.464093 747.84,239.66 C769.31074,258.329719 800.9207,259.418068 823.624691,242.269309 C846.328681,225.12055 853.926327,194.417947 841.84,168.66 C860.816758,158.001827 872.556942,137.924965 872.54,116.16 C872.484892,82.9417894 845.55824,56.0330292 812.34,56 L812,56 C812.1996,54.2403816 812.299759,52.4709029 812.3,50.7 C812.302653,37.2792324 806.972449,24.4073829 797.482533,14.917467 C787.992617,5.42755102 775.120768,0.0973468878 761.7,0.1 C741.087538,0.0906732563 722.532219,12.5927643 714.8,31.7 C708.819269,26.8011203 701.330969,24.1166356 693.6,24.1 C677.678682,24.0798878 663.953764,35.2941507 660.8,50.9 C651.663225,44.2028186 640.62841,40.5946092 629.3,40.6 C599.802834,40.6109981 575.884122,64.5028647 575.84,94 L575.84,95 C570.616906,92.2980162 564.820591,90.8918095 558.94,90.9 C541.921362,90.885243 527.059228,102.41266 522.84,118.9 C491.222986,108.649334 457.279413,125.952321 447,157.56 C446.83368,158.016605 446.70001,158.484449 446.6,158.96 C442.078826,143.647712 431.652582,130.762659 417.620523,123.146328 C403.588464,115.529996 387.103144,113.80797 371.8,118.36 C371.28601,118.481319 370.783984,118.648661 370.3,118.86 C366.080772,102.37266 351.218638,90.845243 334.2,90.86 C328.319409,90.8518095 322.523094,92.2580162 317.3,94.96 L317.3,93.96 C317.297365,79.7809128 311.656732,66.1847842 301.621229,56.1680386 C291.585725,46.1512931 277.979067,40.5361069 263.8,40.56 C252.474024,40.5698719 241.443829,44.1765705 232.3,50.86 C229.117957,35.2712196 215.410228,24.0710014 199.5,24.06 C191.766152,24.0601312 184.272468,26.7465464 178.3,31.66 C170.543298,12.572626 152.003248,0.0808224773 131.4,0.06 C117.979232,0.0573468878 105.107383,5.38755102 95.617467,14.877467 C86.127551,24.3673829 80.7973469,37.2392324 80.8,50.66 C80.8120082,52.4450062 80.9255248,54.2278849 81.14,56 L80.84,56 C47.5924581,56 20.64,82.9524581 20.64,116.2 C20.6397939,137.924068 32.3823364,157.951414 51.34,168.56 Z" id="Shape" fill="url(#linearGradient-12)" fill-rule="nonzero" opacity="0.1"></path>
                </g>
            </g>
        </g>
    </g>
</svg>