<?xml version="1.0" encoding="UTF-8"?>
<svg width="240px" height="160px" viewBox="0 0 240 160" version="1.1" xmlns="http://www.w3.org/2000/svg" xmlns:xlink="http://www.w3.org/1999/xlink">
    <!-- Generator: Sketch 51.3 (57544) - http://www.bohemiancoding.com/sketch -->
    <title>Illustration-rainbow-8</title>
    <desc>Created with Sketch.</desc>
    <defs>
        <polygon id="path-1" points="59.52288 25.61664 58.95792 26.91936 0.36576 1.49472 0.93072 0.19248"></polygon>
        <polygon id="path-3" points="1.7352 65.75664 0.29088 65.23632 23.70384 0.27312 25.14768 0.79344"></polygon>
        <path d="M0.74832,24.65808 C-0.29376,22.11888 0.06336,17.85024 2.59776,15.18096 C4.07616,13.62576 6.29376,12.61248 9.40896,12.80256 C12.29424,6.10032 18.68736,4.96656 23.22336,7.13184 C25.07904,2.18304 30.23328,-0.60048 35.07984,0.74016 C39.92544,2.07984 41.67696,7.13184 41.26608,10.12128 C46.31664,7.75008 50.23536,11.46192 51.1632,15.68832 C51.1632,15.68832 53.68272,14.48688 56.16,15.53856 C57.00768,15.89712 57.85008,16.5192 58.5864,17.544 C61.47168,21.56496 57.55488,25.48368 54.46176,25.48368 C55.18416,29.71008 53.53392,33.5256 49.40976,34.55568 C45.28704,35.58672 41.26608,33.00912 41.26608,33.00912 C41.26608,33.00912 39.1008,39.504 33.3264,38.98944 C27.55296,38.4744 25.80096,35.48352 24.76992,33.93696 C18.68736,36.10176 17.55216,35.38128 15.28512,34.45344 C13.01616,33.5256 11.0568,30.22512 10.85136,28.26768" id="path-5"></path>
        <path d="M0.4056,15.29616 C-0.25008,13.69824 -0.02544,11.01168 1.57008,9.33168 C2.50032,8.35296 3.89616,7.71552 5.856,7.83504 C7.67232,3.6168 11.69616,2.90304 14.55072,4.26576 C15.71856,1.15104 18.9624,-0.60048 22.0128,0.24336 C25.06224,1.08624 26.16528,4.26576 25.90608,6.14736 C29.08512,4.65504 31.55136,6.9912 32.13552,9.65136 C32.13552,9.65136 33.72096,8.89488 35.28,9.5568 C35.81328,9.7824 36.34368,10.17408 36.80736,10.8192 C38.6232,13.34976 36.15792,15.816 34.21152,15.816 C34.66608,18.47616 33.62736,20.87712 31.03152,21.5256 C28.43664,22.17456 25.90608,20.55216 25.90608,20.55216 C25.90608,20.55216 24.54336,24.63984 20.90928,24.31584 C17.27616,23.99184 16.17312,22.10976 15.52416,21.13632 C11.69616,22.49904 10.98144,22.04544 9.55488,21.46128 C8.12688,20.87712 6.89376,18.80016 6.76416,17.568" id="path-7"></path>
        <path d="M0.44448,13.34016 C-0.12624,11.95008 0.0696,9.61488 1.45632,8.15424 C2.2656,7.30272 3.47904,6.7488 5.18352,6.85248 C6.76224,3.1848 10.26048,2.56464 12.74256,3.74976 C13.75824,1.0416 16.57872,-0.48192 19.23072,0.252 C21.88224,0.98496 22.8408,3.74976 22.61568,5.38512 C25.37952,4.08816 27.52416,6.11904 28.03152,8.43168 C28.03152,8.43168 29.41008,7.77408 30.76608,8.3496 C31.22976,8.54592 31.69056,8.88624 32.09328,9.44736 C33.67248,11.64768 31.52928,13.79184 29.8368,13.79184 C30.23184,16.10448 29.32944,18.192 27.072,18.756 C24.816,19.32 22.61568,17.90976 22.61568,17.90976 C22.61568,17.90976 21.43104,21.46368 18.2712,21.18192 C15.11184,20.90016 14.15328,19.26336 13.58928,18.4176 C10.26048,19.60224 9.63936,19.20768 8.39904,18.69984 C7.15728,18.192 6.08544,16.38624 5.97264,15.31488" id="path-9"></path>
        <path d="M0.56928,13.53312 C-0.00096,12.14352 0.1944,9.80784 1.58112,8.3472 C2.3904,7.49616 3.60384,6.94176 5.30832,7.04592 C6.88752,3.37824 10.38576,2.75808 12.86784,3.94272 C13.88304,1.23456 16.70352,-0.28848 19.35552,0.44496 C22.00704,1.17792 22.9656,3.94272 22.74048,5.57856 C25.50432,4.28112 27.64896,6.312 28.1568,8.62512 C28.1568,8.62512 29.53536,7.96752 30.89088,8.54256 C31.35456,8.73936 31.81584,9.07968 32.21856,9.64032 C33.79776,11.84064 31.65408,13.9848 29.9616,13.9848 C30.35664,16.29792 29.45376,18.38544 27.1968,18.94896 C24.9408,19.51344 22.74048,18.10272 22.74048,18.10272 C22.74048,18.10272 21.55584,21.65712 18.396,21.37536 C15.23712,21.0936 14.27856,19.4568 13.7136,18.61056 C10.38576,19.7952 9.76464,19.40064 8.52384,18.89328 C7.28256,18.38544 6.21024,16.57968 6.09792,15.50832" id="path-11"></path>
        <path d="M0.35904,13.63152 C-0.2112,12.2424 -0.01536,9.90672 1.37088,8.44608 C2.18016,7.59456 3.3936,7.04016 5.09808,7.14432 C6.67728,3.47712 10.17552,2.85648 12.6576,4.04112 C13.6728,1.33344 16.49328,-0.19008 19.14576,0.54384 C21.7968,1.2768 22.75584,4.04112 22.53024,5.67744 C25.29456,4.38 27.43872,6.41088 27.94656,8.72352 C27.94656,8.72352 29.32512,8.06592 30.68064,8.64144 C31.1448,8.83776 31.60608,9.17808 32.0088,9.7392 C33.588,11.93952 31.44432,14.08368 29.75136,14.08368 C30.14688,16.39632 29.244,18.48432 26.98704,19.04784 C24.73056,19.61232 22.53024,18.2016 22.53024,18.2016 C22.53024,18.2016 21.34608,21.75552 18.18624,21.47376 C15.02736,21.192 14.06832,19.55568 13.50384,18.70944 C10.17552,19.89408 9.5544,19.49952 8.3136,18.99168 C7.07232,18.48432 6,16.67856 5.88768,15.60672" id="path-13"></path>
        <path d="M0.48864,13.56528 C-0.08208,12.17568 0.11376,9.84 1.50048,8.37984 C2.30976,7.52832 3.5232,6.97392 5.22768,7.07808 C6.8064,3.4104 10.30464,2.79024 12.78672,3.97488 C13.8024,1.26672 16.62288,-0.25632 19.27488,0.4776 C21.9264,1.21008 22.88496,3.97488 22.65984,5.61072 C25.42368,4.31328 27.56832,6.34416 28.07568,8.65728 C28.07568,8.65728 29.45424,7.99968 30.80976,8.5752 C31.27392,8.77104 31.7352,9.11136 32.13792,9.67248 C33.71664,11.8728 31.57344,14.01744 29.88096,14.01744 C30.276,16.33008 29.37312,18.4176 27.11616,18.98112 C24.86016,19.5456 22.65984,18.13488 22.65984,18.13488 C22.65984,18.13488 21.4752,21.68928 18.31536,21.40752 C15.15648,21.12576 14.19744,19.48896 13.63296,18.64272 C10.30464,19.82736 9.68352,19.43328 8.4432,18.92544 C7.20144,18.4176 6.1296,16.61184 6.0168,15.54048" id="path-15"></path>
        <path d="M0.8424,25.00656 C-0.21648,22.4256 0.1464,18.08784 2.72208,15.37488 C4.22496,13.79424 6.47856,12.76464 9.64368,12.95808 C12.57648,6.1464 19.07376,4.9944 23.6832,7.19472 C25.56912,2.16576 30.80736,-0.66336 35.73264,0.69936 C40.65696,2.06016 42.43728,7.19472 42.01968,10.23264 C47.15232,7.82352 51.13488,11.59536 52.07808,15.8904 C52.07808,15.8904 54.63792,14.66976 57.156,15.73824 C58.01712,16.10304 58.87344,16.73472 59.62176,17.7768 C62.55408,21.86304 58.57344,25.8456 55.42992,25.8456 C56.16384,30.14064 54.4872,34.0176 50.29584,35.06496 C46.10544,36.1128 42.01968,33.49296 42.01968,33.49296 C42.01968,33.49296 39.81936,40.09344 33.9504,39.57024 C28.08384,39.04704 26.30304,36.00768 25.25472,34.43568 C19.07376,36.636 17.91984,35.904 15.61584,34.9608 C13.3104,34.0176 11.31936,30.66432 11.11008,28.67424" id="path-17"></path>
        <path d="M4.4544,0.16368 C4.27104,4.62096 3.03072,7.5984 0.49824,6.55008 C0.40272,6.51072 0.3048,6.46608 0.20544,6.41424" id="path-19"></path>
        <path d="M4.3752,0.38304 C4.19184,4.84032 2.95152,7.81824 0.41904,6.76992 C0.32304,6.73056 0.2256,6.68544 0.12576,6.63408" id="path-21"></path>
        <path d="M4.28928,0.00144 C4.1064,4.45872 2.86608,7.43664 0.33312,6.38832 C0.23712,6.34896 0.13968,6.30384 0.03984,6.25248" id="path-23"></path>
        <path d="M4.36416,0.20304 C4.1808,4.66032 2.94048,7.63824 0.408,6.58992 C0.312,6.55008 0.21408,6.50544 0.11472,6.4536" id="path-25"></path>
        <path d="M4.39056,0.19584 C4.2072,4.65312 2.96688,7.63056 0.4344,6.58272 C0.3384,6.54288 0.24048,6.49824 0.14112,6.44688" id="path-27"></path>
        <path d="M4.63152,0.16512 C4.44912,4.6224 3.2088,7.59984 0.67584,6.552 C0.57984,6.51264 0.4824,6.46752 0.38256,6.41616" id="path-29"></path>
        <path d="M7.11744,0.18 C6.82416,7.32816 4.83504,12.1032 0.77328,10.42272 C0.61968,10.35936 0.46272,10.28688 0.30288,10.20432" id="path-31"></path>
        <path d="M6.8856,0.28896 C6.59136,7.43712 4.60272,12.21216 0.54096,10.5312 C0.38736,10.46784 0.22992,10.39584 0.07056,10.31328" id="path-33"></path>
        <path d="M4.60512,0.22512 C4.42224,4.6824 3.18192,7.65984 0.64896,6.612 C0.55296,6.57216 0.45552,6.52752 0.35568,6.47616" id="path-35"></path>
        <path d="M4.35984,0.3384 C4.17696,4.79568 2.93664,7.7736 0.40368,6.72528 C0.30816,6.68592 0.21024,6.64032 0.1104,6.58944" id="path-37"></path>
        <path d="M4.6512,0.37488 C4.46832,4.83216 3.228,7.81008 0.69504,6.76176 C0.59904,6.72192 0.5016,6.67728 0.40176,6.62592" id="path-39"></path>
        <path d="M4.34592,0.15744 C4.16304,4.61472 2.92272,7.59216 0.38976,6.54432 C0.29376,6.50496 0.19632,6.45984 0.09648,6.40848" id="path-41"></path>
        <path d="M4.38192,0.17328 C4.19856,4.63056 2.95872,7.60848 0.42576,6.56016 C0.32976,6.52032 0.23184,6.47568 0.13248,6.42432" id="path-43"></path>
        <path d="M4.63008,0.33312 C4.44672,4.78992 3.2064,7.76784 0.67344,6.72 C0.57792,6.68016 0.48,6.63504 0.38064,6.58368" id="path-45"></path>
        <path d="M4.56,0.24 C4.37664,4.69728 3.1368,7.67472 0.60384,6.62688 C0.50784,6.58752 0.40992,6.54192 0.31056,6.49056" id="path-47"></path>
        <path d="M4.46736,0.3432 C4.284,4.80048 3.04368,7.77792 0.51072,6.73008 C0.41472,6.69024 0.31728,6.64512 0.21744,6.59376" id="path-49"></path>
        <path d="M4.38816,0.00096 C4.20528,4.45824 2.96496,7.43616 0.432,6.38784 C0.336,6.34848 0.23856,6.30336 0.13872,6.252" id="path-51"></path>
        <path d="M4.4376,0.34656 C4.25424,4.80384 3.01392,7.78128 0.48144,6.73344 C0.38544,6.6936 0.288,6.64896 0.18816,6.5976" id="path-53"></path>
        <path d="M7.12608,0.17712 C6.83904,6.9072 4.89792,11.40384 0.9336,9.82128 C0.78384,9.76128 0.63072,9.69312 0.47472,9.61584" id="path-55"></path>
        <path d="M6.24,0.02352 C5.97072,6.33696 4.15008,10.55424 0.43152,9.07008 C0.29088,9.01392 0.14784,8.95008 0.00144,8.87712" id="path-57"></path>
    </defs>
    <g id="components" stroke="none" stroke-width="1" fill="none" fill-rule="evenodd">
        <g id="Illustration-rainbow-8">
            <polygon id="Fill-1" fill="#CAF2FC" fill-rule="nonzero" points="0.00096 149.295024 239.99904 149.295024 239.99904 0 0.00096 0"></polygon>
            <path d="M239.99904,125.966379 L239.99904,160 L0.00096,160 L0.00096,125.956749 C11.4336,125.650318 191.40048,125.894659 239.99904,125.966379" id="Fill-2" fill="#B4E6F2" fill-rule="nonzero"></path>
            <path d="M217.737168,148.025616 C217.737168,149.004816 202.545648,149.798256 183.805488,149.798256 C165.065328,149.798256 149.873328,149.004816 149.873328,148.025616 C149.873328,147.046896 165.065328,146.252976 183.805488,146.252976 C202.545648,146.252976 217.737168,147.046896 217.737168,148.025616" id="Fill-4" fill="#4A96C6" fill-rule="nonzero" opacity="0.295424107"></path>
            <path d="M149.21904,112.814544 C149.21904,112.814544 143.67936,110.019024 143.49264,109.546224 C143.30688,109.073904 143.5176,108.737904 143.81664,108.725424 C144.11568,108.712944 150.11472,110.674704 150.11472,110.674704 L149.21904,112.814544 Z" id="Fill-6" fill="#354B5C" fill-rule="nonzero"></path>
            <path d="M156.99984,148.89096 C156.99984,148.89096 160.1328,139.66776 165.6696,136.80456 C164.6688,130.74696 168.28176,124.1868 172.95408,122.26296 C171.44352,116.202 175.44912,108.28008 179.9424,105.67944 C177.52512,98.2908 182.16288,91.25496 182.16288,91.25496 C182.16288,91.25496 155.92176,101.87544 156.99984,148.89096" id="Fill-8" fill="#D76A27" fill-rule="nonzero"></path>
            <polygon id="Fill-10" fill="#CFCFD1" fill-rule="nonzero" points="213.122832 138.896736 212.557872 140.199456 153.965712 114.774816 154.531152 113.472576"></polygon>
            <polygon id="Fill-12" fill="#B2B2B2" fill-rule="nonzero" points="213.122832 138.896736 212.840592 139.547616 154.248432 114.123936 154.531152 113.472576"></polygon>
            <g id="Group-16" transform="translate(153.600000, 113.280000)">
                <g id="Fill-14-Clipped">
                    <mask id="mask-2" fill="white">
                        <use xlink:href="#path-1"></use>
                    </mask>
                    <g id="path-1"></g>
                    <polygon id="Fill-14" mask="url(#mask-2)" points="59.52288 25.61664 58.95792 26.91936 0.36576 1.49472 0.93072 0.19248"></polygon>
                </g>
            </g>
            <path d="M182.162832,91.254864 C177.929232,93.942384 176.235792,98.728464 176.686512,105.288624 C172.952592,107.885904 169.923312,111.862704 169.910352,120.905424 C164.483472,125.989104 162.452592,129.785424 163.192272,135.857904 C156.769872,140.585424 156.999792,148.890864 156.999792,148.890864 C156.999792,148.890864 149.395632,137.079504 148.081872,131.448144 C146.768112,125.816784 149.012592,111.454704 149.012592,111.454704 C149.574672,109.627824 159.202032,98.928624 164.240112,95.977104 C165.656112,95.365104 173.015952,91.657104 182.162832,91.254864" id="Fill-17" fill="#F48220" fill-rule="nonzero"></path>
            <path d="M182.162832,91.254864 C177.929232,93.942384 176.235792,98.728464 176.686512,105.288624 C176.686512,105.288624 168.296592,104.369904 165.178992,104.397264 C162.061392,104.424624 149.727792,111.379824 149.012592,111.454704 C149.574672,109.627824 159.202032,98.928624 164.240112,95.977104 C165.656112,95.365104 173.015952,91.657104 182.162832,91.254864" id="Fill-19" fill="#EDD912" fill-rule="nonzero"></path>
            <path d="M149.012832,111.454464 L169.910112,120.905664 C164.483232,125.989344 162.452832,129.785664 163.192032,135.857664 C163.192032,135.857664 155.596032,128.073504 154.205952,125.974464 C152.815872,123.876384 149.210592,112.305504 149.012832,111.454464" id="Fill-21" fill="#F89C20" fill-rule="nonzero"></path>
            <path d="M176.686416,105.288768 C172.952496,107.886048 169.923216,111.862848 169.910256,120.905568 L149.012976,111.454368 C149.012976,111.454368 160.188336,104.583648 164.308176,104.019168 C167.732496,103.549728 176.686416,105.288768 176.686416,105.288768" id="Fill-23" fill="#FFCA05" fill-rule="nonzero"></path>
            <path d="M214.92048,139.173264 C217.0944,140.105904 218.256,142.552464 217.48848,144.789744 C216.63264,147.287184 213.84624,148.491984 211.46448,147.470544 L208.12224,146.036784 C207.54192,145.788144 207.27312,145.116144 207.52224,144.535824 L207.52416,144.531024 C207.53568,144.503664 207.54912,144.477264 207.56208,144.451824 C207.83616,143.931984 208.46784,143.703024 209.01744,143.938224 L212.30784,145.348944 C213.3504,145.796784 214.59408,145.427184 215.15472,144.440784 C215.81712,143.273904 215.30544,141.821424 214.10736,141.307344 L203.48688,136.751664 C203.48544,136.751184 203.48496,136.750224 203.48544,136.748784 L203.98032,135.594384 L204.38304,134.656464 C204.38352,134.655024 204.38496,134.655024 204.38592,134.655024 L214.92048,139.173264 Z" id="Fill-25" fill="#4C6271" fill-rule="nonzero"></path>
            <path d="M204.025296,135.593904 L214.801776,140.270064 C216.503856,141.008304 217.284816,142.986864 216.546576,144.688464 C216.176976,145.539984 215.497296,146.160144 214.698096,146.475504 C213.898416,146.791824 212.978256,146.802384 212.127696,146.432784 L207.561936,144.451824 C207.836016,143.931984 208.467696,143.703024 209.017296,143.938224 L212.307696,145.348944 C213.350256,145.796784 214.594416,145.427184 215.155056,144.440784 C215.816976,143.273904 215.305296,141.821424 214.107216,141.307344 L203.486736,136.751664 C203.485296,136.751184 203.484816,136.750224 203.485296,136.748784 L203.980176,135.594384 C204.009936,135.593904 204.025296,135.593904 204.025296,135.593904" id="Fill-27" fill="#2D4354" fill-rule="nonzero"></path>
            <path d="M149.012832,111.454464 C149.012832,111.454464 152.509632,124.602144 153.758112,126.319584 C155.006112,128.037024 163.192032,135.857664 163.192032,135.857664 C163.192032,135.857664 155.177952,126.935424 154.443552,125.799264 C153.710112,124.663104 149.012832,111.454464 149.012832,111.454464" id="Fill-29" fill="#D56727" fill-rule="nonzero"></path>
            <path d="M149.068608,111.325296 C149.068608,111.325296 161.059008,104.898096 163.166688,104.636496 C165.273888,104.375376 176.577408,105.011376 176.577408,105.011376 C176.577408,105.011376 164.586528,105.252816 163.255488,105.493296 C161.923968,105.733296 149.068608,111.325296 149.068608,111.325296" id="Fill-31" fill="#F89C20" fill-rule="nonzero"></path>
            <polygon id="Fill-33" fill="#CFCFD1" fill-rule="nonzero" points="190.855296 141.596736 189.410976 141.076416 212.823936 76.113216 214.267296 76.633536"></polygon>
            <polygon id="Fill-35" fill="#B2B2B2" fill-rule="nonzero" points="190.855296 141.596736 190.133376 141.336576 213.545376 76.373376 214.267296 76.633536"></polygon>
            <g id="Group-39" transform="translate(189.120000, 75.840000)">
                <g id="Fill-37-Clipped">
                    <mask id="mask-4" fill="white">
                        <use xlink:href="#path-3"></use>
                    </mask>
                    <g id="path-3"></g>
                    <polygon id="Fill-37" mask="url(#mask-4)" points="1.7352 65.75664 0.29088 65.23632 23.70384 0.27312 25.14768 0.79344"></polygon>
                </g>
            </g>
            <path d="M190.68,143.555136 C189.82272,145.965216 187.26288,147.386016 184.79616,146.711136 C182.04336,145.959456 180.55152,143.035296 181.4904,140.395296 L182.80896,136.690656 C183.03696,136.047936 183.74352,135.711456 184.3872,135.940416 L184.392,135.942336 C184.42224,135.952896 184.45152,135.964896 184.48032,135.977856 C185.06016,136.238016 185.35008,136.903776 185.13408,137.512896 L183.8376,141.159456 C183.42624,142.315296 183.91008,143.631936 185.01312,144.169056 C186.31728,144.804576 187.84992,144.151776 188.32176,142.824576 L191.17728,134.792256 C191.17776,134.790816 191.17872,134.790336 191.18016,134.790816 L192.45984,135.245376 L193.49952,135.615456 C193.50096,135.615936 193.50144,135.617856 193.50096,135.618336 L190.68,143.555136 Z" id="Fill-40" fill="#4C6271" fill-rule="nonzero"></path>
            <path d="M192.463584,135.293904 L189.489024,143.502864 C188.808864,145.389264 186.728064,146.367504 184.841184,145.687824 C183.897024,145.347504 183.181824,144.657264 182.786304,143.816304 C182.390304,142.975344 182.315904,141.983184 182.655744,141.040464 L184.480224,135.977904 C185.060064,136.238064 185.350464,136.903824 185.133984,137.512944 L183.837504,141.159504 C183.426144,142.315344 183.910464,143.631984 185.013504,144.169104 C186.317184,144.804144 187.849824,144.151824 188.321664,142.824144 L191.177184,134.792304 C191.177664,134.790864 191.178624,134.790384 191.180064,134.790864 L192.459744,135.245424 C192.462144,135.277104 192.463584,135.293904 192.463584,135.293904" id="Fill-42" fill="#2D4354" fill-rule="nonzero"></path>
            <path d="M205.397328,133.851072 C205.244208,132.966912 204.055728,129.241152 203.115408,129.146592 C202.075728,129.040992 199.867248,132.179712 199.867248,132.179712 C199.867248,132.179712 198.939408,127.425792 198.094128,127.228512 C197.248368,127.032192 194.194608,129.973632 194.194608,129.973632 C194.194608,129.973632 194.434608,126.017952 193.415568,125.704032 C192.397008,125.391072 190.461168,127.172832 189.056208,128.229312 C189.393168,126.248832 189.340368,124.451232 188.212368,123.990912 C187.290768,123.614592 184.736208,125.290272 183.836208,125.913792 C183.742608,125.979072 183.667248,126.032352 183.612528,126.071232 C183.645648,125.997792 183.678288,125.925792 183.711888,125.852832 C194.974128,101.144352 216.181488,69.483072 216.181488,69.483072 L216.397968,69.561312 C216.397968,69.561312 212.515248,107.632032 205.397328,133.851072" id="Fill-44" fill="#3473B8" fill-rule="nonzero"></path>
            <path d="M189.056256,128.22936 C189.393216,126.24888 189.340416,124.45128 188.212416,123.99048 C187.290816,123.61464 184.736256,125.28984 183.836256,125.91384 C183.794016,125.89416 183.753216,125.87352 183.711936,125.85288 C194.974176,101.1444 216.181536,69.48312 216.181536,69.48312 C216.181536,69.48312 197.014176,105.44184 189.056256,128.22936" id="Fill-46" fill="#3963AD" fill-rule="nonzero"></path>
            <path d="M199.867008,132.17952 C199.867008,132.17952 198.939168,127.4256 198.094368,127.2288 C197.248608,127.032 194.194848,129.97344 194.194848,129.97344 L216.181248,69.48336 C215.763168,75.34704 199.867008,132.17952 199.867008,132.17952" id="Fill-48" fill="#3963AD" fill-rule="nonzero"></path>
            <path d="M215.407968,70.6092 C215.617728,70.7604 215.926368,70.91112 216.328128,70.92264 C216.567648,70.92936 216.754848,70.8228 216.811488,70.65672 C217.540608,68.5308 218.410848,65.72184 218.732928,64.6716 C218.804928,64.43736 218.599968,64.15752 218.270208,64.03896 C217.936128,63.91848 217.596768,64.0068 217.507008,64.23816 C217.034208,65.45688 215.655168,68.99784 215.183808,70.05816 C215.105568,70.23336 215.193408,70.45512 215.407968,70.6092" id="Fill-50" fill="#354B5C" fill-rule="nonzero"></path>
            <path d="M166.853424,60.493824 C110.264304,33.654144 54.547344,60.121344 39.598704,120.942144 L38.156784,117.906144 C53.104944,57.084864 108.822384,30.618144 165.411024,57.457344 C165.891984,58.469664 166.372944,59.481504 166.853424,60.493824" id="Fill-52" fill="#EF536C" fill-rule="nonzero"></path>
            <path d="M168.286896,63.511392 C111.697776,36.672192 55.980816,63.138912 41.032656,123.960192 C40.551696,122.947872 40.070736,121.936032 39.590256,120.923232 C54.538416,60.102432 110.255856,33.635712 166.844496,60.474912 C167.325456,61.487232 167.806416,62.499552 168.286896,63.511392" id="Fill-54" fill="#F9A11B" fill-rule="nonzero"></path>
            <path d="M169.72032,66.5292 C113.1312,39.68952 57.41424,66.15672 42.46608,126.978 C41.98512,125.9652 41.50416,124.95336 41.02368,123.94104 C55.97184,63.12024 111.68928,36.65352 168.27792,63.49272 C168.75888,64.50504 169.23984,65.51688 169.72032,66.5292" id="Fill-56" fill="#F7E600" fill-rule="nonzero"></path>
            <path d="M171.153744,69.546816 C114.564624,42.707136 58.847664,69.174336 43.899504,129.995136 C43.418544,128.983296 42.937584,127.970976 42.457104,126.959136 C57.405264,66.137856 113.122704,39.671136 169.711344,66.510336 C170.192304,67.522656 170.673264,68.534496 171.153744,69.546816" id="Fill-58" fill="#6CBD45" fill-rule="nonzero"></path>
            <path d="M172.587168,72.564384 C115.998048,45.725184 60.281088,72.191904 45.332928,133.013184 C44.851968,132.000864 44.371008,130.989024 43.890528,129.976224 C58.838688,69.155424 114.556128,42.688704 171.144768,69.527904 C171.625728,70.540224 172.106688,71.552544 172.587168,72.564384" id="Fill-60" fill="#26C0D8" fill-rule="nonzero"></path>
            <path d="M174.02064,75.581952 C117.43152,48.742752 61.71456,75.209472 46.7664,136.030752 C46.28544,135.018432 45.80448,134.006112 45.324,132.994272 C60.27216,72.172992 115.9896,45.706272 172.57824,72.545472 C173.0592,73.557792 173.54016,74.570112 174.02064,75.581952" id="Fill-62" fill="#4F7DBE" fill-rule="nonzero"></path>
            <path d="M175.454064,78.59976 C118.864944,51.76008 63.147984,78.22728 48.199824,139.04808 C47.718864,138.03624 47.237904,137.02392 46.757424,136.01208 C61.705584,75.1908 117.423024,48.72408 174.011664,75.56328 C174.492624,76.5756 174.973584,77.58744 175.454064,78.59976" id="Fill-64" fill="#7151A1" fill-rule="nonzero"></path>
            <path d="M141.868128,75.058128 C143.516928,79.078608 148.673088,79.904688 151.971648,78.667728 C152.177088,80.625168 154.136448,83.925648 156.404928,84.853488 C158.672448,85.781328 159.807168,86.501808 165.889728,84.337008 C166.920768,85.883568 168.673248,88.874448 174.446208,89.389008 C180.220608,89.904048 182.385888,83.408688 182.385888,83.408688 C182.385888,83.408688 186.406848,85.986768 190.529568,84.955728 C194.654208,83.925648 196.303968,80.110128 195.581568,75.883728 C198.675168,75.883728 202.591968,71.965008 199.706208,67.944048 C198.970368,66.918768 198.127488,66.297168 197.279808,65.938128 C194.802528,64.886928 192.283008,66.088368 192.283008,66.088368 C191.355648,61.861968 187.436928,58.150128 182.385888,60.521328 C182.797248,57.531888 181.045248,52.479408 176.199648,51.140208 C171.353568,49.799568 166.198848,52.583088 164.343168,57.531888 C159.807168,55.366608 153.414528,56.500368 150.528768,63.202608 C147.414048,63.012528 145.196448,64.025808 143.718048,65.581008 C141.183168,68.250288 140.826048,72.518448 141.868128,75.058128" id="Fill-66" fill="#FFFFFF" fill-rule="nonzero"></path>
            <path d="M141.868128,75.058128 C143.516928,79.078608 148.673088,79.904688 151.971648,78.667728 C152.177088,80.625168 154.136448,83.925648 156.404928,84.853488 C158.672448,85.781328 159.807168,86.501808 165.889728,84.337008 C166.920768,85.883568 168.673248,88.874448 174.446208,89.389008 C180.220608,89.904048 182.385888,83.408688 182.385888,83.408688 C182.385888,83.408688 186.406848,85.986768 190.529568,84.955728 C194.654208,83.925648 196.303968,80.110128 195.581568,75.883728 C198.675168,75.883728 202.591968,71.965008 199.706208,67.944048 C198.970368,66.918768 198.127488,66.297168 197.279808,65.938128 C197.788608,66.936048 198.343968,68.573808 197.850528,70.316688 C197.077728,73.047888 193.675488,73.151088 193.675488,73.151088 L191.409408,70.785168 C191.520768,70.925808 194.228928,74.478288 191.097408,78.822288 C187.900608,83.254128 180.890688,81.089328 179.189568,79.646448 C180.220608,81.451248 181.303008,82.069488 181.303008,82.069488 C181.303008,82.069488 178.261248,85.677648 173.777088,85.008048 C169.291968,84.337008 167.849088,82.017168 167.849088,82.017168 C167.849088,82.017168 169.601088,80.779728 170.478048,79.491888 C165.940608,81.141648 162.178368,82.275408 158.724768,80.883408 C155.270208,79.491888 153.981408,75.935088 153.776448,74.233968 C153.104928,74.748528 152.486208,77.017488 152.486208,77.017488 C152.486208,77.017488 148.156608,77.172048 146.043648,74.903568 C144.042528,72.757008 143.150208,69.546288 143.718048,65.581008 C141.183168,68.250288 140.826048,72.518448 141.868128,75.058128" id="Fill-68" fill="#DFF2F9" fill-rule="nonzero"></path>
            <path d="M173.261232,63.15072 C173.364432,63.09936 171.817872,60.0576 169.704432,60.41856 C167.590992,60.77952 165.786672,63.09936 165.786672,62.94432 C165.786672,62.78976 168.261072,61.70736 170.374032,61.96512 C172.026192,62.16672 173.261232,63.15072 173.261232,63.15072" id="Fill-70" fill="#DFF2F9" fill-rule="nonzero"></path>
            <path d="M175.013904,66.141072 C176.199984,64.800432 177.951984,64.541712 179.807664,65.058672 C181.560144,62.376912 184.138224,61.501392 187.230864,62.274672 C190.232784,63.024912 192.283344,66.088272 192.283344,66.088272 C191.355504,61.861872 187.436784,58.150512 182.385744,60.521232 C182.385744,60.521232 180.271824,61.501392 178.674384,63.459312 C177.746064,63.666672 175.478064,64.285392 175.013904,66.141072" id="Fill-72" fill="#DFF2F9" fill-rule="nonzero"></path>
            <g id="Group-76" transform="translate(141.120000, 50.400000)">
                <g id="Fill-74-Clipped">
                    <mask id="mask-6" fill="white">
                        <use xlink:href="#path-5"></use>
                    </mask>
                    <g id="path-5"></g>
                    <path d="M0.74832,24.65808 C2.39664,28.67904 7.5528,29.50464 10.85136,28.26768 C11.0568,30.22512 13.01616,33.5256 15.28512,34.45344 C17.55216,35.38128 18.68736,36.10176 24.76992,33.93696 C25.80096,35.48352 27.55296,38.4744 33.3264,38.98944 C39.1008,39.504 41.26608,33.00912 41.26608,33.00912 C41.26608,33.00912 45.28704,35.58672 49.40976,34.55568 C53.53392,33.5256 55.18416,29.71008 54.46176,25.48368 C57.55488,25.48368 61.47168,21.56496 58.5864,17.544 C57.85008,16.5192 57.00768,15.89712 56.16,15.53856 C53.68272,14.48688 51.1632,15.68832 51.1632,15.68832 C50.23536,11.46192 46.31664,7.75008 41.26608,10.12128 C41.67696,7.13184 39.92544,2.07984 35.07984,0.74016 C30.23328,-0.60048 25.07904,2.18304 23.22336,7.13184 C18.68736,4.96656 12.29424,6.10032 9.40896,12.80256 C6.29376,12.61248 4.07616,13.62576 2.59776,15.18096 C0.06336,17.85024 -0.29376,22.11888 0.74832,24.65808" id="Fill-74" mask="url(#mask-6)"></path>
                </g>
            </g>
            <path d="M35.445696,55.136256 C36.483456,57.666816 39.728256,58.186656 41.804256,57.408096 C41.933856,58.640256 43.166976,60.717216 44.594976,61.301376 C46.021536,61.885536 46.735776,62.338656 50.564256,60.976416 C51.213216,61.949376 52.315776,63.831936 55.949376,64.155936 C59.583456,64.479936 60.946176,60.392256 60.946176,60.392256 C60.946176,60.392256 63.476736,62.014656 66.071616,61.365696 C68.667456,60.717216 69.705696,58.316256 69.251616,55.656096 C71.198016,55.656096 73.663296,53.189856 71.846976,50.659296 C71.383776,50.014176 70.853376,49.622496 70.320096,49.396896 C68.761056,48.734976 67.175616,49.491456 67.175616,49.491456 C66.591456,46.831296 64.125216,44.495136 60.946176,45.987456 C61.205376,44.105856 60.102336,40.926336 57.052896,40.083456 C54.002496,39.239616 50.758656,40.991136 49.590816,44.105856 C46.735776,42.743136 42.712416,43.456416 40.896096,47.675136 C38.935776,47.555616 37.540416,48.193056 36.609696,49.171776 C35.014656,50.851776 34.789536,53.538336 35.445696,55.136256" id="Fill-77" fill="#FFFFFF" fill-rule="nonzero"></path>
            <path d="M35.445696,55.136256 C36.483456,57.666816 39.728256,58.186656 41.804256,57.408096 C41.933856,58.640256 43.166976,60.717216 44.594976,61.301376 C46.021536,61.885536 46.735776,62.338656 50.564256,60.976416 C51.213216,61.949376 52.315776,63.831936 55.949376,64.155936 C59.583456,64.479936 60.946176,60.392256 60.946176,60.392256 C60.946176,60.392256 63.476736,62.014656 66.071616,61.365696 C68.667456,60.717216 69.705696,58.316256 69.251616,55.656096 C71.198016,55.656096 73.663296,53.189856 71.846976,50.659296 C71.383776,50.014176 70.853376,49.622496 70.320096,49.396896 C70.640256,50.024736 70.989696,51.055296 70.679136,52.152096 C70.192416,53.870976 68.051136,53.936256 68.051136,53.936256 L66.625536,52.447296 C66.695616,52.535616 68.399616,54.771456 66.428736,57.505536 C64.417056,60.294816 60.004896,58.932096 58.934496,58.024416 C59.583456,59.160096 60.265056,59.549376 60.265056,59.549376 C60.265056,59.549376 58.350336,61.819776 55.527936,61.398336 C52.705536,60.976416 51.796896,59.516256 51.796896,59.516256 C51.796896,59.516256 52.899936,58.737696 53.451936,57.926496 C50.595936,58.965216 48.228096,59.678496 46.054656,58.802976 C43.880256,57.926496 43.069536,55.688256 42.939936,54.617376 C42.517536,54.941856 42.128256,56.369376 42.128256,56.369376 C42.128256,56.369376 39.403296,56.466816 38.073696,55.038816 C36.814176,53.688096 36.252576,51.667296 36.609696,49.171776 C35.014656,50.851776 34.789536,53.538336 35.445696,55.136256" id="Fill-79" fill="#DFF2F9" fill-rule="nonzero"></path>
            <path d="M55.203504,47.642352 C55.268304,47.609712 54.294864,45.695472 52.964784,45.922512 C51.634704,46.150032 50.499024,47.609712 50.499024,47.512272 C50.499024,47.415312 52.056144,46.733712 53.386704,46.895952 C54.425904,47.022672 55.203504,47.642352 55.203504,47.642352" id="Fill-81" fill="#DFF2F9" fill-rule="nonzero"></path>
            <path d="M56.306496,49.524384 C57.052896,48.680544 58.155936,48.517824 59.323776,48.843264 C60.426336,47.155104 62.048736,46.604544 63.995616,47.091264 C65.884896,47.563104 67.175616,49.491264 67.175616,49.491264 C66.591456,46.831104 64.125216,44.494944 60.946176,45.987264 C60.946176,45.987264 59.616096,46.604544 58.610496,47.836704 C58.026336,47.966784 56.598336,48.356064 56.306496,49.524384" id="Fill-83" fill="#DFF2F9" fill-rule="nonzero"></path>
            <g id="Group-87" transform="translate(35.040000, 39.840000)">
                <g id="Fill-85-Clipped">
                    <mask id="mask-8" fill="white">
                        <use xlink:href="#path-7"></use>
                    </mask>
                    <g id="path-7"></g>
                    <path d="M0.4056,15.29616 C1.44336,17.8272 4.68816,18.34656 6.76416,17.568 C6.89376,18.80016 8.12688,20.87712 9.55488,21.46128 C10.98144,22.04544 11.69616,22.49904 15.52416,21.13632 C16.17312,22.10976 17.27616,23.99184 20.90928,24.31584 C24.54336,24.63984 25.90608,20.55216 25.90608,20.55216 C25.90608,20.55216 28.43664,22.17456 31.03152,21.5256 C33.62736,20.87712 34.66608,18.47616 34.21152,15.816 C36.15792,15.816 38.6232,13.34976 36.80736,10.8192 C36.34368,10.17408 35.81328,9.7824 35.28,9.5568 C33.72096,8.89488 32.13552,9.65136 32.13552,9.65136 C31.55136,6.9912 29.08512,4.65504 25.90608,6.14736 C26.16528,4.26576 25.06224,1.08624 22.0128,0.24336 C18.9624,-0.60048 15.71856,1.15104 14.55072,4.26576 C11.69616,2.90304 7.67232,3.6168 5.856,7.83504 C3.89616,7.71552 2.50032,8.35296 1.57008,9.33168 C-0.02544,11.01168 -0.25008,13.69824 0.4056,15.29616" id="Fill-85" mask="url(#mask-8)"></path>
                </g>
            </g>
            <path d="M154.524384,37.81992 C155.426304,40.02024 158.247744,40.47192 160.053024,39.79512 C160.165344,40.86648 161.237184,42.67224 162.478944,43.18008 C163.719264,43.68792 164.340384,44.082 167.669184,42.89736 C168.233664,43.7436 169.192224,45.37992 172.351584,45.66216 C175.511424,45.94392 176.695584,42.38952 176.695584,42.38952 C176.695584,42.38952 178.895904,43.80024 181.152384,43.23576 C183.409344,42.67224 184.312224,40.58472 183.916704,38.2716 C185.609184,38.2716 187.752864,36.12744 186.173664,33.92712 C185.770944,33.366 185.309664,33.02616 184.845984,32.82984 C183.490464,32.25432 182.111904,32.91144 182.111904,32.91144 C181.604064,30.5988 179.459424,28.56792 176.695584,29.86536 C176.920704,28.22952 175.962144,25.46472 173.311104,24.73176 C170.658624,23.99832 167.838144,25.52136 166.822464,28.22952 C164.340384,27.04488 160.842144,27.66504 159.263424,31.33272 C157.558944,31.22856 156.345504,31.78296 155.536224,32.634 C154.149504,34.09464 153.954144,36.43032 154.524384,37.81992" id="Fill-88" fill="#FFFFFF" fill-rule="nonzero"></path>
            <path d="M154.524384,37.81992 C155.426304,40.02024 158.247744,40.47192 160.053024,39.79512 C160.165344,40.86648 161.237184,42.67224 162.478944,43.18008 C163.719264,43.68792 164.340384,44.082 167.669184,42.89736 C168.233664,43.7436 169.192224,45.37992 172.351584,45.66216 C175.511424,45.94392 176.695584,42.38952 176.695584,42.38952 C176.695584,42.38952 178.895904,43.80024 181.152384,43.23576 C183.409344,42.67224 184.312224,40.58472 183.916704,38.2716 C185.609184,38.2716 187.752864,36.12744 186.173664,33.92712 C185.770944,33.366 185.309664,33.02616 184.845984,32.82984 C185.124384,33.3756 185.428224,34.27176 185.157984,35.22552 C184.734624,36.71976 182.873664,36.7764 182.873664,36.7764 L181.633824,35.48184 C181.694304,35.55864 183.176064,37.50264 181.462464,39.8796 C179.713824,42.30504 175.877184,41.11992 174.946464,40.3308 C175.511424,41.31816 176.103264,41.65656 176.103264,41.65656 C176.103264,41.65656 174.438624,43.6308 171.984864,43.26456 C169.530624,42.89736 168.741024,41.62824 168.741024,41.62824 C168.741024,41.62824 169.699584,40.95096 170.179584,40.24632 C167.696544,41.1492 165.637824,41.76936 163.748544,41.0076 C161.857824,40.24632 161.153184,38.29992 161.040384,37.36872 C160.673184,37.65048 160.334304,38.89224 160.334304,38.89224 C160.334304,38.89224 157.965024,38.97672 156.809184,37.73544 C155.714304,36.5604 155.225664,34.80408 155.536224,32.634 C154.149504,34.09464 153.954144,36.43032 154.524384,37.81992" id="Fill-90" fill="#DFF2F9" fill-rule="nonzero"></path>
            <path d="M171.702672,31.304064 C171.758832,31.275744 170.912592,29.611584 169.756272,29.809344 C168.599952,30.006624 167.612592,31.275744 167.612592,31.191264 C167.612592,31.106784 168.966672,30.513984 170.122992,30.655104 C171.026832,30.765504 171.702672,31.304064 171.702672,31.304064" id="Fill-92" fill="#DFF2F9" fill-rule="nonzero"></path>
            <path d="M172.661712,32.94048 C173.311152,32.20704 174.269712,32.06544 175.285392,32.34816 C176.243952,30.8808 177.654192,30.40176 179.347152,30.82464 C180.989712,31.23552 182.111472,32.91168 182.111472,32.91168 C181.604112,30.59904 179.459472,28.56816 176.695632,29.86512 C176.695632,29.86512 175.538832,30.40176 174.664752,31.47312 C174.156912,31.5864 172.915632,31.9248 172.661712,32.94048" id="Fill-94" fill="#DFF2F9" fill-rule="nonzero"></path>
            <g id="Group-98" transform="translate(154.080000, 24.480000)">
                <g id="Fill-96-Clipped">
                    <mask id="mask-10" fill="white">
                        <use xlink:href="#path-9"></use>
                    </mask>
                    <g id="path-9"></g>
                    <path d="M0.44448,13.34016 C1.3464,15.54 4.16784,15.99216 5.97264,15.31488 C6.08544,16.38624 7.15728,18.192 8.39904,18.69984 C9.63936,19.20768 10.26048,19.60224 13.58928,18.4176 C14.15328,19.26336 15.11184,20.90016 18.2712,21.18192 C21.43104,21.46368 22.61568,17.90976 22.61568,17.90976 C22.61568,17.90976 24.816,19.32 27.072,18.756 C29.32944,18.192 30.23184,16.10448 29.8368,13.79184 C31.52928,13.79184 33.67248,11.64768 32.09328,9.44736 C31.69056,8.88624 31.22976,8.54592 30.76608,8.3496 C29.41008,7.77408 28.03152,8.43168 28.03152,8.43168 C27.52416,6.11904 25.37952,4.08816 22.61568,5.38512 C22.8408,3.74976 21.88224,0.98496 19.23072,0.252 C16.57872,-0.48192 13.75824,1.0416 12.74256,3.74976 C10.26048,2.56464 6.76224,3.1848 5.18352,6.85248 C3.47904,6.7488 2.2656,7.30272 1.45632,8.15424 C0.0696,9.61488 -0.12624,11.95008 0.44448,13.34016" id="Fill-96" mask="url(#mask-10)"></path>
                </g>
            </g>
            <path d="M4.40928,87.453024 C5.3112,89.653344 8.13264,90.105024 9.93792,89.428224 C10.05024,90.499584 11.12256,92.305344 12.36384,92.813184 C13.60464,93.321024 14.22576,93.715104 17.5536,92.530464 C18.11856,93.376704 19.07712,95.013504 22.236,95.295264 C25.39584,95.577024 26.58048,92.023104 26.58048,92.023104 C26.58048,92.023104 28.7808,93.433344 31.0368,92.868864 C33.29376,92.305344 34.19664,90.217824 33.8016,87.904704 C35.49408,87.904704 37.63776,85.760544 36.05856,83.560224 C35.65584,82.999584 35.19456,82.659264 34.73088,82.462944 C33.37536,81.887424 31.9968,82.545024 31.9968,82.545024 C31.48896,80.232384 29.34432,78.201024 26.58048,79.498464 C26.8056,77.862624 25.84704,75.097824 23.19552,74.364864 C20.54352,73.631424 17.72304,75.154464 16.70784,77.862624 C14.22576,76.677984 10.72752,77.298144 9.14832,80.965824 C7.44384,80.861664 6.2304,81.416064 5.42112,82.267104 C4.0344,83.727744 3.83904,86.063424 4.40928,87.453024" id="Fill-99" fill="#FFFFFF" fill-rule="nonzero"></path>
            <path d="M4.40928,87.453024 C5.3112,89.653344 8.13264,90.105024 9.93792,89.428224 C10.05024,90.499584 11.12256,92.305344 12.36384,92.813184 C13.60464,93.321024 14.22576,93.715104 17.5536,92.530464 C18.11856,93.376704 19.07712,95.013504 22.236,95.295264 C25.39584,95.577024 26.58048,92.023104 26.58048,92.023104 C26.58048,92.023104 28.7808,93.433344 31.0368,92.868864 C33.29376,92.305344 34.19664,90.217824 33.8016,87.904704 C35.49408,87.904704 37.63776,85.760544 36.05856,83.560224 C35.65584,82.999584 35.19456,82.659264 34.73088,82.462944 C35.00928,83.008704 35.31312,83.904864 35.04288,84.858624 C34.62,86.352864 32.75808,86.409504 32.75808,86.409504 L31.51872,85.114944 C31.5792,85.192224 33.06096,87.135744 31.34784,89.512704 C29.59824,91.938144 25.76208,90.753504 24.83136,89.963904 C25.39584,90.951744 25.98816,91.290144 25.98816,91.290144 C25.98816,91.290144 24.32352,93.263904 21.86976,92.897664 C19.41552,92.530464 18.62592,91.261344 18.62592,91.261344 C18.62592,91.261344 19.58496,90.584064 20.06448,89.879424 C17.58192,90.782304 15.52272,91.402464 13.63296,90.640704 C11.74272,89.879424 11.03808,87.933024 10.92528,87.002304 C10.55808,87.283584 10.2192,88.525344 10.2192,88.525344 C10.2192,88.525344 7.84992,88.609824 6.69408,87.368544 C5.5992,86.193984 5.11056,84.437184 5.42112,82.267104 C4.0344,83.727744 3.83904,86.063424 4.40928,87.453024" id="Fill-101" fill="#DFF2F9" fill-rule="nonzero"></path>
            <path d="M21.587568,80.937408 C21.644208,80.909088 20.797488,79.244928 19.641168,79.442208 C18.484848,79.639488 17.497488,80.909088 17.497488,80.824608 C17.497488,80.739648 18.851568,80.147328 20.007888,80.288448 C20.911728,80.398848 21.587568,80.937408 21.587568,80.937408" id="Fill-103" fill="#DFF2F9" fill-rule="nonzero"></path>
            <path d="M22.546656,82.573584 C23.195616,81.840144 24.154656,81.698544 25.169856,81.981264 C26.128896,80.513904 27.539616,80.034864 29.232096,80.458224 C30.874656,80.868624 31.996416,82.544784 31.996416,82.544784 C31.488576,80.232144 29.344416,78.201264 26.580576,79.498224 C26.580576,79.498224 25.423776,80.034864 24.549696,81.106224 C24.041856,81.219504 22.800576,81.558384 22.546656,82.573584" id="Fill-105" fill="#DFF2F9" fill-rule="nonzero"></path>
            <g id="Group-109" transform="translate(3.840000, 73.920000)">
                <g id="Fill-107-Clipped">
                    <mask id="mask-12" fill="white">
                        <use xlink:href="#path-11"></use>
                    </mask>
                    <g id="path-11"></g>
                    <path d="M0.56928,13.53312 C1.4712,15.73344 4.29264,16.18512 6.09792,15.50832 C6.21024,16.57968 7.28256,18.38544 8.52384,18.89328 C9.76464,19.40064 10.38576,19.7952 13.7136,18.61056 C14.27856,19.4568 15.23712,21.0936 18.396,21.37536 C21.55584,21.65712 22.74048,18.10272 22.74048,18.10272 C22.74048,18.10272 24.9408,19.51344 27.1968,18.94896 C29.45376,18.38544 30.35664,16.29792 29.9616,13.9848 C31.65408,13.9848 33.79776,11.84064 32.21856,9.64032 C31.81584,9.07968 31.35456,8.73936 30.89088,8.54256 C29.53536,7.96752 28.1568,8.62512 28.1568,8.62512 C27.64896,6.312 25.50432,4.28112 22.74048,5.57856 C22.9656,3.94272 22.00704,1.17792 19.35552,0.44496 C16.70352,-0.28848 13.88304,1.23456 12.86784,3.94272 C10.38576,2.75808 6.88752,3.37824 5.30832,7.04592 C3.60384,6.94176 2.3904,7.49616 1.58112,8.3472 C0.1944,9.80784 -0.00096,12.14352 0.56928,13.53312" id="Fill-107" mask="url(#mask-12)"></path>
                </g>
            </g>
            <path d="M205.31904,87.071712 C206.22144,89.272032 209.04288,89.723712 210.84768,89.046912 C210.96,90.118272 212.03232,91.924032 213.2736,92.431872 C214.5144,92.939712 215.13552,93.333792 218.46384,92.149152 C219.02832,92.995392 219.98736,94.632192 223.14624,94.913952 C226.30608,95.195712 227.49024,91.641792 227.49024,91.641792 C227.49024,91.641792 229.69056,93.052032 231.94704,92.487552 C234.204,91.924032 235.10688,89.836512 234.71136,87.523392 C236.40432,87.523392 238.548,85.379232 236.9688,83.179392 C236.56608,82.618272 236.1048,82.277952 235.64064,82.081632 C234.28512,81.506112 232.90656,82.163712 232.90656,82.163712 C232.39872,79.851072 230.25456,77.819712 227.49024,79.117152 C227.71584,77.481312 226.7568,74.716512 224.10576,73.983552 C221.45328,73.250112 218.6328,74.773152 217.6176,77.481312 C215.13552,76.296672 211.63728,76.916832 210.05808,80.584512 C208.3536,80.480352 207.14016,81.034752 206.33088,81.885792 C204.94464,83.346432 204.7488,85.682112 205.31904,87.071712" id="Fill-110" fill="#FFFFFF" fill-rule="nonzero"></path>
            <path d="M205.31904,87.071712 C206.22144,89.272032 209.04288,89.723712 210.84768,89.046912 C210.96,90.118272 212.03232,91.924032 213.2736,92.431872 C214.5144,92.939712 215.13552,93.333792 218.46384,92.149152 C219.02832,92.995392 219.98736,94.632192 223.14624,94.913952 C226.30608,95.195712 227.49024,91.641792 227.49024,91.641792 C227.49024,91.641792 229.69056,93.052032 231.94704,92.487552 C234.204,91.924032 235.10688,89.836512 234.71136,87.523392 C236.40432,87.523392 238.548,85.379232 236.9688,83.179392 C236.56608,82.618272 236.1048,82.277952 235.64064,82.081632 C235.91904,82.627392 236.22288,83.523552 235.95312,84.477312 C235.52976,85.971552 233.66832,86.028192 233.66832,86.028192 L232.42848,84.733632 C232.48896,84.810912 233.9712,86.754432 232.2576,89.131872 C230.50848,91.556832 226.67232,90.372192 225.7416,89.582592 C226.30608,90.570432 226.8984,90.908832 226.8984,90.908832 C226.8984,90.908832 225.23376,92.882592 222.77952,92.516352 C220.32576,92.149152 219.53568,90.880032 219.53568,90.880032 C219.53568,90.880032 220.49472,90.202752 220.97472,89.498112 C218.49168,90.400992 216.43248,91.021152 214.5432,90.259872 C212.65248,89.498112 211.94784,87.551712 211.83504,86.620992 C211.46832,86.902272 211.12896,88.144032 211.12896,88.144032 C211.12896,88.144032 208.76016,88.228512 207.60432,86.987232 C206.50896,85.812672 206.0208,84.055872 206.33088,81.885792 C204.94464,83.346432 204.7488,85.682112 205.31904,87.071712" id="Fill-112" fill="#DFF2F9" fill-rule="nonzero"></path>
            <path d="M222.497328,80.556096 C222.553968,80.527776 221.707728,78.863616 220.550928,79.060896 C219.394608,79.258176 218.407248,80.527776 218.407248,80.443296 C218.407248,80.358336 219.761328,79.766016 220.918128,79.907136 C221.821968,80.017536 222.497328,80.556096 222.497328,80.556096" id="Fill-114" fill="#DFF2F9" fill-rule="nonzero"></path>
            <path d="M223.456896,82.192272 C224.105856,81.458832 225.064896,81.317232 226.080096,81.599952 C227.038656,80.132592 228.449376,79.653552 230.141856,80.076912 C231.784896,80.487312 232.906656,82.163472 232.906656,82.163472 C232.398816,79.850832 230.254656,77.819952 227.490336,79.117392 C227.490336,79.117392 226.334016,79.653552 225.459936,80.724912 C224.951616,80.838192 223.710336,81.177072 223.456896,82.192272" id="Fill-116" fill="#DFF2F9" fill-rule="nonzero"></path>
            <g id="Group-120" transform="translate(204.960000, 73.440000)">
                <g id="Fill-118-Clipped">
                    <mask id="mask-14" fill="white">
                        <use xlink:href="#path-13"></use>
                    </mask>
                    <g id="path-13"></g>
                    <path d="M0.35904,13.63152 C1.26144,15.83184 4.08288,16.284 5.88768,15.60672 C6,16.67856 7.07232,18.48432 8.3136,18.99168 C9.5544,19.49952 10.17552,19.89408 13.50384,18.70944 C14.06832,19.55568 15.02736,21.192 18.18624,21.47376 C21.34608,21.75552 22.53024,18.2016 22.53024,18.2016 C22.53024,18.2016 24.73056,19.61232 26.98704,19.04784 C29.244,18.48432 30.14688,16.39632 29.75136,14.08368 C31.44432,14.08368 33.588,11.93952 32.0088,9.7392 C31.60608,9.17808 31.1448,8.83776 30.68064,8.64144 C29.32512,8.06592 27.94656,8.72352 27.94656,8.72352 C27.43872,6.41088 25.29456,4.38 22.53024,5.67744 C22.75584,4.04112 21.7968,1.2768 19.14576,0.54384 C16.49328,-0.19008 13.6728,1.33344 12.6576,4.04112 C10.17552,2.85648 6.67728,3.47712 5.09808,7.14432 C3.3936,7.04016 2.18016,7.59456 1.37088,8.44608 C-0.01536,9.90672 -0.2112,12.2424 0.35904,13.63152" id="Fill-118" mask="url(#mask-14)"></path>
                </g>
            </g>
            <path d="M88.328448,21.245376 C89.230368,23.445216 92.051808,23.897376 93.857088,23.220576 C93.969408,24.291936 95.041728,26.097696 96.283008,26.605536 C97.523808,27.113376 98.144928,27.507456 101.473248,26.322816 C102.037728,27.169056 102.996288,28.805376 106.155648,29.087136 C109.315488,29.369376 110.499648,25.814976 110.499648,25.814976 C110.499648,25.814976 112.699968,27.225696 114.956448,26.661216 C117.212928,26.097696 118.116288,24.009696 117.720768,21.697056 C119.413248,21.697056 121.556928,19.552896 119.977728,17.352576 C119.575008,16.791456 119.113728,16.451136 118.650048,16.255296 C117.294528,15.679776 115.915968,16.336896 115.915968,16.336896 C115.408128,14.024256 113.263968,11.993376 110.499648,13.290816 C110.725248,11.654976 109.766208,8.890176 107.115168,8.157216 C104.462688,7.423776 101.642208,8.946816 100.627008,11.654976 C98.144928,10.469856 94.646688,11.090496 93.067488,14.757696 C91.363008,14.654016 90.149568,15.207936 89.340288,16.059456 C87.953568,17.520096 87.758208,19.855776 88.328448,21.245376" id="Fill-121" fill="#FFFFFF" fill-rule="nonzero"></path>
            <path d="M88.328448,21.245376 C89.230368,23.445216 92.051808,23.897376 93.857088,23.220576 C93.969408,24.291936 95.041728,26.097696 96.283008,26.605536 C97.523808,27.113376 98.144928,27.507456 101.473248,26.322816 C102.037728,27.169056 102.996288,28.805376 106.155648,29.087136 C109.315488,29.369376 110.499648,25.814976 110.499648,25.814976 C110.499648,25.814976 112.699968,27.225696 114.956448,26.661216 C117.212928,26.097696 118.116288,24.009696 117.720768,21.697056 C119.413248,21.697056 121.556928,19.552896 119.977728,17.352576 C119.575008,16.791456 119.113728,16.451136 118.650048,16.255296 C118.928448,16.800576 119.232288,17.696736 118.962528,18.650496 C118.539168,20.145216 116.677728,20.201856 116.677728,20.201856 L115.437888,18.907296 C115.498368,18.984096 116.980608,20.928096 115.267008,23.305056 C113.517888,25.730496 109.681728,24.545376 108.750528,23.755776 C109.315488,24.743616 109.907808,25.082016 109.907808,25.082016 C109.907808,25.082016 108.243168,27.056256 105.788928,26.690016 C103.334688,26.322816 102.545568,25.053216 102.545568,25.053216 C102.545568,25.053216 103.504128,24.376416 103.984128,23.671296 C101.501088,24.574656 99.441888,25.194816 97.552608,24.433056 C95.661888,23.671296 94.957248,21.725376 94.844448,20.794176 C94.477248,21.075936 94.138848,22.317216 94.138848,22.317216 C94.138848,22.317216 91.769088,22.402176 90.613248,21.160416 C89.518368,19.985856 89.029728,18.229056 89.340288,16.059456 C87.953568,17.520096 87.758208,19.855776 88.328448,21.245376" id="Fill-123" fill="#DFF2F9" fill-rule="nonzero"></path>
            <path d="M105.506736,14.72952 C105.563376,14.7012 104.717136,13.03704 103.560336,13.23432 C102.404016,13.43208 101.416656,14.7012 101.416656,14.61672 C101.416656,14.53176 102.770736,13.93944 103.927056,14.08056 C104.830896,14.19096 105.506736,14.72952 105.506736,14.72952" id="Fill-125" fill="#DFF2F9" fill-rule="nonzero"></path>
            <path d="M106.466016,16.365936 C107.114976,15.632016 108.074016,15.490896 109.089216,15.773616 C110.047776,14.305776 111.458496,13.827216 113.151456,14.250096 C114.794016,14.660496 115.915776,16.337136 115.915776,16.337136 C115.407936,14.024496 113.263776,11.993616 110.499936,13.290576 C110.499936,13.290576 109.343136,13.827216 108.469056,14.898576 C107.961216,15.011856 106.719936,15.350256 106.466016,16.365936" id="Fill-127" fill="#DFF2F9" fill-rule="nonzero"></path>
            <g id="Group-131" transform="translate(87.840000, 7.680000)">
                <g id="Fill-129-Clipped">
                    <mask id="mask-16" fill="white">
                        <use xlink:href="#path-15"></use>
                    </mask>
                    <g id="path-15"></g>
                    <path d="M0.48864,13.56528 C1.39056,15.7656 4.212,16.21728 6.0168,15.54048 C6.1296,16.61184 7.20144,18.4176 8.4432,18.92544 C9.68352,19.43328 10.30464,19.82736 13.63296,18.64272 C14.19744,19.48896 15.15648,21.12576 18.31536,21.40752 C21.4752,21.68928 22.65984,18.13488 22.65984,18.13488 C22.65984,18.13488 24.86016,19.5456 27.11616,18.98112 C29.37312,18.4176 30.276,16.33008 29.88096,14.01744 C31.57344,14.01744 33.71664,11.8728 32.13792,9.67248 C31.7352,9.11136 31.27392,8.77104 30.80976,8.5752 C29.45424,7.99968 28.07568,8.65728 28.07568,8.65728 C27.56832,6.34416 25.42368,4.31328 22.65984,5.61072 C22.88496,3.97488 21.9264,1.21008 19.27488,0.4776 C16.62288,-0.25632 13.8024,1.26672 12.78672,3.97488 C10.30464,2.79024 6.8064,3.4104 5.22768,7.07808 C3.5232,6.97392 2.30976,7.52832 1.50048,8.37984 C0.11376,9.84 -0.08208,12.17568 0.48864,13.56528" id="Fill-129" mask="url(#mask-16)"></path>
                </g>
            </g>
            <path d="M8.522592,130.126416 C10.198272,134.212656 15.437952,135.051696 18.790272,133.794576 C18.999072,135.784176 20.990592,139.137456 23.296032,140.080656 C25.600032,141.023856 26.753472,141.756336 32.934912,139.556016 C33.982752,141.127536 35.763552,144.166896 41.630592,144.690576 C47.499072,145.213776 49.699392,138.613296 49.699392,138.613296 C49.699392,138.613296 53.785632,141.233136 57.975552,140.184816 C62.166912,139.137456 63.844032,135.260496 63.110112,130.965456 C66.253152,130.965456 70.234272,126.982896 67.301952,122.896656 C66.553632,121.855056 65.696832,121.222896 64.835712,120.858096 C62.318112,119.789616 59.757792,121.010736 59.757792,121.010736 C58.814592,116.715696 54.832512,112.943376 49.699392,115.352976 C50.117472,112.315056 48.336672,107.180496 43.412832,105.819216 C38.487552,104.456496 33.249312,107.285616 31.362912,112.315056 C26.753472,110.114736 20.256672,111.266256 17.323872,118.077936 C14.158752,117.884976 11.904672,118.914096 10.402272,120.495216 C7.826592,123.207696 7.463232,127.545456 8.522592,130.126416" id="Fill-132" fill="#FFFFFF" fill-rule="nonzero"></path>
            <path d="M8.522592,130.126416 C10.198272,134.212656 15.437952,135.051696 18.790272,133.794576 C18.999072,135.784176 20.990592,139.137456 23.296032,140.080656 C25.600032,141.023856 26.753472,141.756336 32.934912,139.556016 C33.982752,141.127536 35.763552,144.166896 41.630592,144.690576 C47.499072,145.213776 49.699392,138.613296 49.699392,138.613296 C49.699392,138.613296 53.785632,141.233136 57.975552,140.184816 C62.166912,139.137456 63.844032,135.260496 63.110112,130.965456 C66.253152,130.965456 70.234272,126.982896 67.301952,122.896656 C66.553632,121.855056 65.696832,121.222896 64.835712,120.858096 C65.352672,121.871856 65.917152,123.536496 65.415552,125.307696 C64.629792,128.083056 61.172352,128.188176 61.172352,128.188176 L58.869792,125.783856 C58.983072,125.926896 61.734912,129.536496 58.552512,133.951536 C55.303872,138.455856 48.179712,136.255536 46.450752,134.789136 C47.499072,136.623216 48.599232,137.252016 48.599232,137.252016 C48.599232,137.252016 45.508032,140.918256 40.949952,140.237616 C36.392352,139.556016 34.925952,137.198256 34.925952,137.198256 C34.925952,137.198256 36.706752,135.941136 37.597632,134.632176 C32.986752,136.308816 29.162592,137.460816 25.653312,136.046736 C22.142592,134.632176 20.833152,131.017296 20.624352,129.288336 C19.942272,129.812016 19.313472,132.116976 19.313472,132.116976 C19.313472,132.116976 14.912832,132.274896 12.766272,129.968976 C10.732512,127.787856 9.825312,124.524816 10.402272,120.495216 C7.826592,123.207696 7.463232,127.545456 8.522592,130.126416" id="Fill-134" fill="#DFF2F9" fill-rule="nonzero"></path>
            <path d="M40.426176,118.025136 C40.530816,117.972816 38.959296,114.882096 36.811296,115.248336 C34.663776,115.615056 32.830176,117.972816 32.830176,117.815376 C32.830176,117.658416 35.344896,116.558256 37.492416,116.820336 C39.170976,117.024816 40.426176,118.025136 40.426176,118.025136" id="Fill-136" fill="#DFF2F9" fill-rule="nonzero"></path>
            <path d="M42.207408,121.064064 C43.412688,119.701824 45.193488,119.439264 47.079408,119.963904 C48.860208,117.238944 51.480048,116.349024 54.623088,117.134784 C57.673968,117.897504 59.757648,121.010784 59.757648,121.010784 C58.814928,116.715264 54.832368,112.943424 49.699248,115.353024 C49.699248,115.353024 47.550768,116.349024 45.927408,118.339104 C44.984688,118.549344 42.678768,119.178144 42.207408,121.064064" id="Fill-138" fill="#DFF2F9" fill-rule="nonzero"></path>
            <g id="Group-142" transform="translate(7.680000, 105.120000)">
                <g id="Fill-140-Clipped">
                    <mask id="mask-18" fill="white">
                        <use xlink:href="#path-17"></use>
                    </mask>
                    <g id="path-17"></g>
                    <path d="M0.8424,25.00656 C2.51808,29.09232 7.75776,29.93136 11.11008,28.67424 C11.31936,30.66432 13.3104,34.0176 15.61584,34.9608 C17.91984,35.904 19.07376,36.636 25.25472,34.43568 C26.30304,36.00768 28.08384,39.04704 33.9504,39.57024 C39.81936,40.09344 42.01968,33.49296 42.01968,33.49296 C42.01968,33.49296 46.10544,36.1128 50.29584,35.06496 C54.4872,34.0176 56.16384,30.14064 55.42992,25.8456 C58.57344,25.8456 62.55408,21.86304 59.62176,17.7768 C58.87344,16.73472 58.01712,16.10304 57.156,15.73824 C54.63792,14.66976 52.07808,15.8904 52.07808,15.8904 C51.13488,11.59536 47.15232,7.82352 42.01968,10.23264 C42.43728,7.19472 40.65696,2.06016 35.73264,0.69936 C30.80736,-0.66336 25.56912,2.16576 23.6832,7.19472 C19.07376,4.9944 12.57648,6.1464 9.64368,12.95808 C6.47856,12.76464 4.22496,13.79424 2.72208,15.37488 C0.1464,18.08784 -0.21648,22.4256 0.8424,25.00656" id="Fill-140" mask="url(#mask-18)"></path>
                </g>
            </g>
            <g id="Group-177" transform="translate(190.080000, 118.560000)">
                <g id="Fill-175-Clipped">
                    <mask id="mask-20" fill="white">
                        <use xlink:href="#path-19"></use>
                    </mask>
                    <g id="path-19"></g>
                    <path d="M4.4544,0.16368 C4.27104,4.62096 3.03072,7.5984 0.49824,6.55008 C0.40272,6.51072 0.3048,6.46608 0.20544,6.41424 C-3.07632,4.72416 4.4544,0.16368 4.4544,0.16368" id="Fill-175" mask="url(#mask-20)"></path>
                </g>
            </g>
            <path d="M216.055296,10.463184 C215.871936,14.920464 214.631616,17.897904 212.099136,16.850064 C212.003136,16.810704 211.905216,16.765104 211.805376,16.713744 C208.524576,15.023664 216.055296,10.463184 216.055296,10.463184" id="Fill-185" fill="#FFFFFF" fill-rule="nonzero"></path>
            <path d="M216.055296,10.463184 C215.871936,14.920464 214.631616,17.897904 212.099136,16.850064 C214.591776,15.535344 216.055296,10.463184 216.055296,10.463184" id="Fill-187" fill="#C8EAF8" fill-rule="nonzero"></path>
            <g id="Group-191" transform="translate(211.680000, 10.080000)">
                <g id="Fill-189-Clipped">
                    <mask id="mask-22" fill="white">
                        <use xlink:href="#path-21"></use>
                    </mask>
                    <g id="path-21"></g>
                    <path d="M4.3752,0.38304 C4.19184,4.84032 2.95152,7.81824 0.41904,6.76992 C0.32304,6.73056 0.2256,6.68544 0.12576,6.63408 C-3.15552,4.944 4.3752,0.38304 4.3752,0.38304" id="Fill-189" mask="url(#mask-22)"></path>
                </g>
            </g>
            <path d="M21.56928,45.601632 C21.3864,50.058912 20.14608,53.036352 17.61312,51.988512 C17.51712,51.948672 17.4192,51.903552 17.31984,51.852192 C14.03856,50.162112 21.56928,45.601632 21.56928,45.601632" id="Fill-192" fill="#FFFFFF" fill-rule="nonzero"></path>
            <path d="M21.56928,45.601632 C21.3864,50.058912 20.14608,53.036352 17.61312,51.988512 C20.10624,50.673792 21.56928,45.601632 21.56928,45.601632" id="Fill-194" fill="#C8EAF8" fill-rule="nonzero"></path>
            <g id="Group-198" transform="translate(17.280000, 45.600000)">
                <g id="Fill-196-Clipped">
                    <mask id="mask-24" fill="white">
                        <use xlink:href="#path-23"></use>
                    </mask>
                    <g id="path-23"></g>
                    <path d="M4.28928,0.00144 C4.1064,4.45872 2.86608,7.43664 0.33312,6.38832 C0.23712,6.34896 0.13968,6.30384 0.03984,6.25248 C-3.24144,4.56192 4.28928,0.00144 4.28928,0.00144" id="Fill-196" mask="url(#mask-24)"></path>
                </g>
            </g>
            <path d="M50.924064,10.762992 C50.740704,15.220272 49.500384,18.198192 46.967904,17.149872 C46.871904,17.110512 46.773984,17.065392 46.674624,17.013552 C43.393344,15.323472 50.924064,10.762992 50.924064,10.762992" id="Fill-199" fill="#FFFFFF" fill-rule="nonzero"></path>
            <path d="M50.924064,10.762992 C50.740704,15.220272 49.500384,18.198192 46.967904,17.149872 C49.460544,15.835152 50.924064,10.762992 50.924064,10.762992" id="Fill-201" fill="#C8EAF8" fill-rule="nonzero"></path>
            <g id="Group-205" transform="translate(46.560000, 10.560000)">
                <g id="Fill-203-Clipped">
                    <mask id="mask-26" fill="white">
                        <use xlink:href="#path-25"></use>
                    </mask>
                    <g id="path-25"></g>
                    <path d="M4.36416,0.20304 C4.1808,4.66032 2.94048,7.63824 0.408,6.58992 C0.312,6.55008 0.21408,6.50544 0.11472,6.4536 C-3.16704,4.76352 4.36416,0.20304 4.36416,0.20304" id="Fill-203" mask="url(#mask-26)"></path>
                </g>
            </g>
            <path d="M86.47056,27.075936 C86.2872,31.533216 85.04688,34.510656 82.5144,33.462816 C82.4184,33.422976 82.32048,33.377856 82.22112,33.326496 C78.93984,31.636416 86.47056,27.075936 86.47056,27.075936" id="Fill-206" fill="#FFFFFF" fill-rule="nonzero"></path>
            <path d="M86.47056,27.075936 C86.2872,31.533216 85.04688,34.510656 82.5144,33.462816 C85.00752,32.148096 86.47056,27.075936 86.47056,27.075936" id="Fill-208" fill="#C8EAF8" fill-rule="nonzero"></path>
            <g id="Group-212" transform="translate(82.080000, 26.880000)">
                <g id="Fill-210-Clipped">
                    <mask id="mask-28" fill="white">
                        <use xlink:href="#path-27"></use>
                    </mask>
                    <g id="path-27"></g>
                    <path d="M4.39056,0.19584 C4.2072,4.65312 2.96688,7.63056 0.4344,6.58272 C0.3384,6.54288 0.24048,6.49824 0.14112,6.44688 C-3.14016,4.75632 4.39056,0.19584 4.39056,0.19584" id="Fill-210" mask="url(#mask-28)"></path>
                </g>
            </g>
            <path d="M148.631712,36.165216 C148.448832,40.622496 147.208512,43.599936 144.676032,42.552096 C144.580032,42.512736 144.482112,42.467136 144.382272,42.415776 C141.101472,40.725696 148.631712,36.165216 148.631712,36.165216" id="Fill-213" fill="#FFFFFF" fill-rule="nonzero"></path>
            <path d="M148.631712,36.165216 C148.448832,40.622496 147.208512,43.599936 144.676032,42.552096 C147.168672,41.237376 148.631712,36.165216 148.631712,36.165216" id="Fill-215" fill="#C8EAF8" fill-rule="nonzero"></path>
            <g id="Group-219" transform="translate(144.000000, 36.000000)">
                <g id="Fill-217-Clipped">
                    <mask id="mask-30" fill="white">
                        <use xlink:href="#path-29"></use>
                    </mask>
                    <g id="path-29"></g>
                    <path d="M4.63152,0.16512 C4.44912,4.6224 3.2088,7.59984 0.67584,6.552 C0.57984,6.51264 0.4824,6.46752 0.38256,6.41616 C-2.89872,4.72608 4.63152,0.16512 4.63152,0.16512" id="Fill-217" mask="url(#mask-30)"></path>
                </g>
            </g>
            <path d="M192.397488,5.46 C192.104208,12.60816 190.115088,17.3832 186.053328,15.70272 C185.899728,15.63936 185.742768,15.56688 185.582928,15.48432 C180.320688,12.77376 192.397488,5.46 192.397488,5.46" id="Fill-220" fill="#FFFFFF" fill-rule="nonzero"></path>
            <path d="M192.397488,5.46 C192.104208,12.60816 190.115088,17.3832 186.053328,15.70272 C190.050768,13.59408 192.397488,5.46 192.397488,5.46" id="Fill-222" fill="#C8EAF8" fill-rule="nonzero"></path>
            <g id="Group-226" transform="translate(185.280000, 5.280000)">
                <g id="Fill-224-Clipped">
                    <mask id="mask-32" fill="white">
                        <use xlink:href="#path-31"></use>
                    </mask>
                    <g id="path-31"></g>
                    <path d="M7.11744,0.18 C6.82416,7.32816 4.83504,12.1032 0.77328,10.42272 C0.61968,10.35936 0.46272,10.28688 0.30288,10.20432 C-4.95936,7.49376 7.11744,0.18 7.11744,0.18" id="Fill-224" mask="url(#mask-32)"></path>
                </g>
            </g>
            <path d="M130.725456,23.808768 C130.431696,30.956928 128.442576,35.731968 124.380816,34.051488 C124.227216,33.988128 124.070256,33.915648 123.910896,33.833088 C118.648176,31.122528 130.725456,23.808768 130.725456,23.808768" id="Fill-227" fill="#FFFFFF" fill-rule="nonzero"></path>
            <path d="M130.725456,23.808768 C130.431696,30.956928 128.442576,35.731968 124.380816,34.051488 C128.378256,31.943328 130.725456,23.808768 130.725456,23.808768" id="Fill-229" fill="#C8EAF8" fill-rule="nonzero"></path>
            <g id="Group-233" transform="translate(123.840000, 23.520000)">
                <g id="Fill-231-Clipped">
                    <mask id="mask-34" fill="white">
                        <use xlink:href="#path-33"></use>
                    </mask>
                    <g id="path-33"></g>
                    <path d="M6.8856,0.28896 C6.59136,7.43712 4.60272,12.21216 0.54096,10.5312 C0.38736,10.46784 0.22992,10.39584 0.07056,10.31328 C-5.19168,7.60272 6.8856,0.28896 6.8856,0.28896" id="Fill-231" mask="url(#mask-34)"></path>
                </g>
            </g>
            <path d="M87.165216,40.545216 C86.982336,45.002496 85.742016,47.979936 83.209056,46.932096 C83.113056,46.892256 83.015136,46.847136 82.915776,46.795776 C79.634496,45.105696 87.165216,40.545216 87.165216,40.545216" id="Fill-234" fill="#FFFFFF" fill-rule="nonzero"></path>
            <path d="M87.165216,40.545216 C86.982336,45.002496 85.742016,47.979936 83.209056,46.932096 C85.702176,45.617376 87.165216,40.545216 87.165216,40.545216" id="Fill-236" fill="#C8EAF8" fill-rule="nonzero"></path>
            <g id="Group-240" transform="translate(82.560000, 40.320000)">
                <g id="Fill-238-Clipped">
                    <mask id="mask-36" fill="white">
                        <use xlink:href="#path-35"></use>
                    </mask>
                    <g id="path-35"></g>
                    <path d="M4.60512,0.22512 C4.42224,4.6824 3.18192,7.65984 0.64896,6.612 C0.55296,6.57216 0.45552,6.52752 0.35568,6.47616 C-2.9256,4.7856 4.60512,0.22512 4.60512,0.22512" id="Fill-238" mask="url(#mask-36)"></path>
                </g>
            </g>
            <path d="M29.79984,10.898448 C29.61696,15.355728 28.37664,18.333648 25.84368,17.285328 C25.74816,17.245968 25.65024,17.200368 25.5504,17.149488 C22.26912,15.458928 29.79984,10.898448 29.79984,10.898448" id="Fill-241" fill="#FFFFFF" fill-rule="nonzero"></path>
            <path d="M29.79984,10.898448 C29.61696,15.355728 28.37664,18.333648 25.84368,17.285328 C28.3368,15.970608 29.79984,10.898448 29.79984,10.898448" id="Fill-243" fill="#C8EAF8" fill-rule="nonzero"></path>
            <g id="Group-247" transform="translate(25.440000, 10.560000)">
                <g id="Fill-245-Clipped">
                    <mask id="mask-38" fill="white">
                        <use xlink:href="#path-37"></use>
                    </mask>
                    <g id="path-37"></g>
                    <path d="M4.35984,0.3384 C4.17696,4.79568 2.93664,7.7736 0.40368,6.72528 C0.30816,6.68592 0.21024,6.64032 0.1104,6.58944 C-3.17088,4.89936 4.35984,0.3384 4.35984,0.3384" id="Fill-245" mask="url(#mask-38)"></path>
                </g>
            </g>
            <path d="M157.771392,88.695024 C157.588032,93.152304 156.347712,96.129744 153.815232,95.081904 C153.719232,95.042064 153.621312,94.996944 153.521472,94.945584 C150.240672,93.255504 157.771392,88.695024 157.771392,88.695024" id="Fill-248" fill="#FFFFFF" fill-rule="nonzero"></path>
            <path d="M157.771392,88.695024 C157.588032,93.152304 156.347712,96.129744 153.815232,95.081904 C156.307872,93.767184 157.771392,88.695024 157.771392,88.695024" id="Fill-250" fill="#C8EAF8" fill-rule="nonzero"></path>
            <g id="Group-254" transform="translate(153.120000, 88.320000)">
                <g id="Fill-252-Clipped">
                    <mask id="mask-40" fill="white">
                        <use xlink:href="#path-39"></use>
                    </mask>
                    <g id="path-39"></g>
                    <path d="M4.6512,0.37488 C4.46832,4.83216 3.228,7.81008 0.69504,6.76176 C0.59904,6.72192 0.5016,6.67728 0.40176,6.62592 C-2.87952,4.93536 4.6512,0.37488 4.6512,0.37488" id="Fill-252" mask="url(#mask-40)"></path>
                </g>
            </g>
            <path d="M198.745776,87.997488 C198.562896,92.454768 197.322576,95.432208 194.790096,94.384368 C194.694096,94.345008 194.596176,94.299408 194.496336,94.248048 C191.215536,92.557968 198.745776,87.997488 198.745776,87.997488" id="Fill-255" fill="#FFFFFF" fill-rule="nonzero"></path>
            <path d="M198.745776,87.997488 C198.562896,92.454768 197.322576,95.432208 194.790096,94.384368 C197.282736,93.069648 198.745776,87.997488 198.745776,87.997488" id="Fill-257" fill="#C8EAF8" fill-rule="nonzero"></path>
            <g id="Group-261" transform="translate(194.400000, 87.840000)">
                <g id="Fill-259-Clipped">
                    <mask id="mask-42" fill="white">
                        <use xlink:href="#path-41"></use>
                    </mask>
                    <g id="path-41"></g>
                    <path d="M4.34592,0.15744 C4.16304,4.61472 2.92272,7.59216 0.38976,6.54432 C0.29376,6.50496 0.19632,6.45984 0.09648,6.40848 C-3.1848,4.7184 4.34592,0.15744 4.34592,0.15744" id="Fill-259" mask="url(#mask-42)"></path>
                </g>
            </g>
            <path d="M223.261872,29.933424 C223.078512,34.390704 221.838672,37.368144 219.305712,36.320304 C219.210192,36.280464 219.111792,36.235344 219.012432,36.183984 C215.731152,34.493904 223.261872,29.933424 223.261872,29.933424" id="Fill-262" fill="#FFFFFF" fill-rule="nonzero"></path>
            <path d="M223.261872,29.933424 C223.078512,34.390704 221.838672,37.368144 219.305712,36.320304 C221.798832,35.005584 223.261872,29.933424 223.261872,29.933424" id="Fill-264" fill="#C8EAF8" fill-rule="nonzero"></path>
            <g id="Group-268" transform="translate(218.880000, 29.760000)">
                <g id="Fill-266-Clipped">
                    <mask id="mask-44" fill="white">
                        <use xlink:href="#path-43"></use>
                    </mask>
                    <g id="path-43"></g>
                    <path d="M4.38192,0.17328 C4.19856,4.63056 2.95872,7.60848 0.42576,6.56016 C0.32976,6.52032 0.23184,6.47568 0.13248,6.42432 C-3.14928,4.73376 4.38192,0.17328 4.38192,0.17328" id="Fill-266" mask="url(#mask-44)"></path>
                </g>
            </g>
            <path d="M229.26984,61.293024 C229.08648,65.750304 227.84616,68.727744 225.31368,67.679904 C225.21816,67.640064 225.11976,67.594944 225.0204,67.543584 C221.73912,65.853504 229.26984,61.293024 229.26984,61.293024" id="Fill-269" fill="#FFFFFF" fill-rule="nonzero"></path>
            <path d="M229.26984,61.293024 C229.08648,65.750304 227.84616,68.727744 225.31368,67.679904 C227.80632,66.365184 229.26984,61.293024 229.26984,61.293024" id="Fill-271" fill="#C8EAF8" fill-rule="nonzero"></path>
            <g id="Group-275" transform="translate(224.640000, 60.960000)">
                <g id="Fill-273-Clipped">
                    <mask id="mask-46" fill="white">
                        <use xlink:href="#path-45"></use>
                    </mask>
                    <g id="path-45"></g>
                    <path d="M4.63008,0.33312 C4.44672,4.78992 3.2064,7.76784 0.67344,6.72 C0.57792,6.68016 0.48,6.63504 0.38064,6.58368 C-2.90112,4.8936 4.63008,0.33312 4.63008,0.33312" id="Fill-273" mask="url(#mask-46)"></path>
                </g>
            </g>
            <path d="M18.48,103.92 C18.29664,108.37728 17.0568,111.35472 14.52384,110.30688 C14.42784,110.26752 14.32992,110.22192 14.23056,110.17056 C10.94928,108.48048 18.48,103.92 18.48,103.92" id="Fill-276" fill="#FFFFFF" fill-rule="nonzero"></path>
            <path d="M18.48,103.92 C18.29664,108.37728 17.0568,111.35472 14.52384,110.30688 C17.01696,108.99216 18.48,103.92 18.48,103.92" id="Fill-278" fill="#C8EAF8" fill-rule="nonzero"></path>
            <g id="Group-282" transform="translate(13.920000, 103.680000)">
                <g id="Fill-280-Clipped">
                    <mask id="mask-48" fill="white">
                        <use xlink:href="#path-47"></use>
                    </mask>
                    <g id="path-47"></g>
                    <path d="M4.56,0.24 C4.37664,4.69728 3.1368,7.67472 0.60384,6.62688 C0.50784,6.58752 0.40992,6.54192 0.31056,6.49056 C-2.97072,4.80048 4.56,0.24 4.56,0.24" id="Fill-280" mask="url(#mask-48)"></path>
                </g>
            </g>
            <path d="M233.907168,111.223104 C233.723808,115.680384 232.483488,118.657824 229.951008,117.609984 C229.855008,117.570624 229.757088,117.525024 229.657248,117.473664 C226.376448,115.783584 233.907168,111.223104 233.907168,111.223104" id="Fill-283" fill="#FFFFFF" fill-rule="nonzero"></path>
            <path d="M233.907168,111.223104 C233.723808,115.680384 232.483488,118.657824 229.951008,117.609984 C232.443648,116.295264 233.907168,111.223104 233.907168,111.223104" id="Fill-285" fill="#C8EAF8" fill-rule="nonzero"></path>
            <g id="Group-289" transform="translate(229.440000, 110.880000)">
                <g id="Fill-287-Clipped">
                    <mask id="mask-50" fill="white">
                        <use xlink:href="#path-49"></use>
                    </mask>
                    <g id="path-49"></g>
                    <path d="M4.46736,0.3432 C4.284,4.80048 3.04368,7.77792 0.51072,6.73008 C0.41472,6.69024 0.31728,6.64512 0.21744,6.59376 C-3.06384,4.90368 4.46736,0.3432 4.46736,0.3432" id="Fill-287" mask="url(#mask-50)"></path>
                </g>
            </g>
            <path d="M28.868208,61.921152 C28.685328,66.378432 27.445008,69.355872 24.912048,68.308032 C24.816048,68.268192 24.718128,68.223072 24.618768,68.171712 C21.337488,66.481632 28.868208,61.921152 28.868208,61.921152" id="Fill-290" fill="#FFFFFF" fill-rule="nonzero"></path>
            <path d="M28.868208,61.921152 C28.685328,66.378432 27.445008,69.355872 24.912048,68.308032 C27.405168,66.993312 28.868208,61.921152 28.868208,61.921152" id="Fill-292" fill="#C8EAF8" fill-rule="nonzero"></path>
            <g id="Group-296" transform="translate(24.480000, 61.920000)">
                <g id="Fill-294-Clipped">
                    <mask id="mask-52" fill="white">
                        <use xlink:href="#path-51"></use>
                    </mask>
                    <g id="path-51"></g>
                    <path d="M4.38816,0.00096 C4.20528,4.45824 2.96496,7.43616 0.432,6.38784 C0.336,6.34848 0.23856,6.30336 0.13872,6.252 C-3.14256,4.56144 4.38816,0.00096 4.38816,0.00096" id="Fill-294" mask="url(#mask-52)"></path>
                </g>
            </g>
            <path d="M48.117408,72.826656 C47.934528,77.283936 46.694208,80.261376 44.161248,79.213536 C44.065728,79.173696 43.967808,79.128576 43.867968,79.077216 C40.586688,77.387136 48.117408,72.826656 48.117408,72.826656" id="Fill-297" fill="#FFFFFF" fill-rule="nonzero"></path>
            <path d="M48.117408,72.826656 C47.934528,77.283936 46.694208,80.261376 44.161248,79.213536 C46.654368,77.898816 48.117408,72.826656 48.117408,72.826656" id="Fill-299" fill="#C8EAF8" fill-rule="nonzero"></path>
            <g id="Group-303" transform="translate(43.680000, 72.480000)">
                <g id="Fill-301-Clipped">
                    <mask id="mask-54" fill="white">
                        <use xlink:href="#path-53"></use>
                    </mask>
                    <g id="path-53"></g>
                    <path d="M4.4376,0.34656 C4.25424,4.80384 3.01392,7.78128 0.48144,6.73344 C0.38544,6.6936 0.288,6.64896 0.18816,6.5976 C-3.0936,4.90704 4.4376,0.34656 4.4376,0.34656" id="Fill-301" mask="url(#mask-54)"></path>
                </g>
            </g>
            <path d="M207.285936,42.896976 C206.998896,49.627056 205.057776,54.123696 201.093936,52.541136 C200.943696,52.481136 200.791056,52.413456 200.635056,52.335696 C195.499056,49.783536 207.285936,42.896976 207.285936,42.896976" id="Fill-304" fill="#FFFFFF" fill-rule="nonzero"></path>
            <path d="M207.285936,42.896976 C206.998896,49.627056 205.057776,54.123696 201.093936,52.541136 C204.995856,50.556336 207.285936,42.896976 207.285936,42.896976" id="Fill-306" fill="#C8EAF8" fill-rule="nonzero"></path>
            <g id="Group-310" transform="translate(200.160000, 42.720000)">
                <g id="Fill-308-Clipped">
                    <mask id="mask-56" fill="white">
                        <use xlink:href="#path-55"></use>
                    </mask>
                    <g id="path-55"></g>
                    <path d="M7.12608,0.17712 C6.83904,6.9072 4.89792,11.40384 0.9336,9.82128 C0.78384,9.76128 0.63072,9.69312 0.47472,9.61584 C-4.6608,7.06368 7.12608,0.17712 7.12608,0.17712" id="Fill-308" mask="url(#mask-56)"></path>
                </g>
            </g>
            <path d="M174.72,95.543424 C174.45072,101.856864 172.63008,106.074144 168.91152,104.589984 C168.77088,104.533824 168.62784,104.469984 168.48144,104.397024 C163.66368,102.003264 174.72,95.543424 174.72,95.543424" id="Fill-311" fill="#FFFFFF" fill-rule="nonzero"></path>
            <path d="M174.72,95.543424 C174.45072,101.856864 172.63008,106.074144 168.91152,104.589984 C172.57152,102.728064 174.72,95.543424 174.72,95.543424" id="Fill-313" fill="#C8EAF8" fill-rule="nonzero"></path>
            <g id="Group-317" transform="translate(168.480000, 95.520000)">
                <g id="Fill-315-Clipped">
                    <mask id="mask-58" fill="white">
                        <use xlink:href="#path-57"></use>
                    </mask>
                    <g id="path-57"></g>
                    <path d="M6.24,0.02352 C5.97072,6.33696 4.15008,10.55424 0.43152,9.07008 C0.29088,9.01392 0.14784,8.95008 0.00144,8.87712 C-4.81632,6.48336 6.24,0.02352 6.24,0.02352" id="Fill-315" mask="url(#mask-58)"></path>
                </g>
            </g>
        </g>
    </g>
</svg>