<?xml version="1.0" encoding="UTF-8"?>
<svg width="332px" height="146px" viewBox="0 0 332 146" version="1.1" xmlns="http://www.w3.org/2000/svg" xmlns:xlink="http://www.w3.org/1999/xlink">
    <!-- Generator: Sketch 51.2 (57519) - http://www.bohemiancoding.com/sketch -->
    <title>Illustration-rainbow-2</title>
    <desc>Created with Sketch.</desc>
    <defs></defs>
    <g id="components" stroke="none" stroke-width="1" fill="none" fill-rule="evenodd">
        <g id="Components-Card" transform="translate(-437.000000, -1187.000000)" fill-rule="nonzero">
            <g id="Illustration-rainbow-2" transform="translate(437.000000, 1187.000000)">
                <g id="Group">
                    <g transform="translate(45.000000, 0.000000)" id="Shape">
                        <path d="M162.902777,84.9032709 C162.902777,74.753012 160.88193,64.5466743 157.008638,55.1254394 C153.135347,45.7042046 147.353477,37.1241515 140.112106,29.889989 C132.92687,22.7119054 124.282133,16.9357912 114.85151,13.0102767 C105.420888,9.08476215 95.2043798,7.12200489 85.0440067,7.12200489 C74.8836336,7.12200489 64.6671259,9.14084092 55.2365034,13.0102767 C45.8058808,16.8797124 37.2172782,22.6558266 29.9759073,29.889989 C22.7906711,37.0680727 17.0088013,45.7042046 13.0793753,55.1254394 C9.14994924,64.5466743 7.18523621,74.753012 7.18523621,84.9032709 L-2.84217094e-14,84.9032709 C-2.84217094e-14,73.8557515 2.18925166,62.6960746 6.45548566,52.4336581 C10.7217197,42.1712416 17.0088013,32.7500067 24.8676534,24.8989777 C32.7265055,17.0479487 42.1009934,10.7671255 52.4297705,6.50513833 C62.7024129,2.24315115 73.8732098,0.0560787787 84.9317374,0.0560787787 C95.990265,0.0560787787 107.161062,2.24315115 117.433704,6.50513833 C127.706347,10.7671255 137.136969,17.0479487 144.995821,24.8989777 C152.854673,32.7500067 159.141755,42.1151628 163.407989,52.4336581 C167.674223,62.6960746 169.863475,73.8557515 169.863475,84.9032709 L162.902777,84.9032709 Z" fill="#FE4849"></path>
                        <path d="M155.717541,84.9032709 C155.717541,75.7063512 153.921232,66.4533527 150.328614,57.8732996 C146.79213,49.3493252 141.571607,41.4982962 135.003852,34.9931579 C128.492232,28.4880196 120.63338,23.2166144 112.100912,19.6836513 C103.568444,16.1506883 94.3062253,14.3000886 85.0440067,14.3000886 C75.8379228,14.3000886 66.5757043,16.0946095 57.9871016,19.6836513 C49.4546336,23.2166144 41.5957815,28.4319408 35.0841612,34.9931579 C28.5725409,41.4982962 23.295883,49.3493252 19.7593996,57.8732996 C16.2229161,66.397274 14.3704724,75.6502724 14.3704724,84.9032709 L7.29750553,84.9032709 C7.29750553,74.753012 9.31835321,64.5466743 13.1916446,55.1254394 C17.064936,45.7042046 22.8468058,37.1241515 30.0881766,29.889989 C37.2734128,22.7119054 45.9181502,16.9357912 55.3487727,13.0102767 C64.7793952,9.08476215 74.9959029,7.12200489 85.156276,7.12200489 C95.3166491,7.12200489 105.533157,9.14084092 114.963779,13.0102767 C124.394402,16.8797124 132.983005,22.6558266 140.224375,29.889989 C147.409612,37.0680727 153.191481,45.7042046 157.120907,55.1254394 C161.050333,64.5466743 163.015047,74.753012 163.015047,84.9032709 L155.717541,84.9032709 Z" fill="#FF8A53"></path>
                        <path d="M148.532305,84.9032709 C148.532305,76.6036117 146.9044,68.3039524 143.704724,60.6211598 C140.505049,52.9383671 135.789737,45.9285197 129.951733,40.040248 C124.057594,34.1519762 117.040762,29.4413588 109.350314,26.3009472 C101.659865,23.1044568 93.3519361,21.4781722 85.0440067,21.4781722 C76.7360773,21.4781722 68.428148,23.1044568 60.7376998,26.3009472 C53.0472517,29.4974376 46.0304195,34.208055 40.1362804,40.040248 C34.2421413,45.9285197 29.52683,52.9383671 26.3832892,60.6211598 C23.1836137,68.3039524 21.5557086,76.6036117 21.5557086,84.9032709 L14.3704724,84.9032709 C14.3704724,75.7063512 16.1667815,66.4533527 19.7593996,57.8732996 C23.295883,49.3493252 28.5164062,41.4982962 35.0841612,34.9931579 C41.5957815,28.4880196 49.4546336,23.2166144 57.9871016,19.6836513 C66.5195696,16.1506883 75.7817881,14.3000886 85.0440067,14.3000886 C94.2500906,14.3000886 103.512309,16.0946095 112.100912,19.6836513 C120.63338,23.2166144 128.492232,28.4319408 135.003852,34.9931579 C141.515473,41.4982962 146.79213,49.3493252 150.328614,57.8732996 C153.865097,66.397274 155.717541,75.6502724 155.717541,84.9032709 L148.532305,84.9032709 Z" fill="#F6DB65"></path>
                        <path d="M141.403203,84.9032709 C141.403203,77.5008721 139.943702,70.1545521 137.136969,63.3690199 C134.330236,56.5834877 130.120137,50.3587433 124.899614,45.1434168 C119.679091,39.9280904 113.448144,35.7782608 106.65585,32.9182431 C99.8635564,30.1143041 92.5099162,28.6562559 85.1001414,28.6562559 C77.6903665,28.6562559 70.3367263,30.1143041 63.5444327,32.9182431 C56.7521391,35.722182 50.5211921,39.9280904 45.3006689,45.1434168 C40.0801457,50.3587433 35.926181,56.5834877 33.0633135,63.3690199 C30.2565806,70.1545521 28.7970795,77.5008721 28.7970795,84.9032709 L21.6118433,84.9032709 C21.6118433,76.6036117 23.2397484,68.3039524 26.4394239,60.6211598 C29.6390994,52.9383671 34.3544106,45.9285197 40.192415,40.040248 C46.0865541,34.1519762 53.1033864,29.4413588 60.7938345,26.3009472 C68.4842826,23.1044568 76.792212,21.4781722 85.1001414,21.4781722 C93.4080707,21.4781722 101.716,23.1044568 109.406448,26.3009472 C117.096896,29.4974376 124.113729,34.208055 130.007868,40.040248 C135.902007,45.9285197 140.617318,52.9383671 143.760859,60.6211598 C146.960534,68.3039524 148.588439,76.6036117 148.588439,84.9032709 L141.403203,84.9032709 Z" fill="#8DD46F"></path>
                        <path d="M134.217967,84.9032709 C134.217967,78.4542114 132.92687,72.0612306 130.51308,66.1168801 C128.043155,60.1725295 124.394402,54.732888 119.847495,50.1905069 C115.300587,45.6481258 109.855525,42.0030052 103.905252,39.535539 C97.954978,37.0680727 91.555627,35.8343396 85.1001414,35.8343396 C78.6446557,35.8343396 72.2453047,37.1241515 66.295031,39.535539 C60.3447572,42.0030052 54.8996954,45.6481258 50.3527881,50.1905069 C45.8058808,54.732888 42.1571281,60.1725295 39.6872031,66.1168801 C37.2172782,72.0612306 35.9823157,78.4542114 35.9823157,84.9032709 L28.7970795,84.9032709 C28.7970795,77.5008721 30.2565806,70.1545521 33.0633135,63.3690199 C35.8700464,56.5834877 40.0801457,50.3587433 45.3006689,45.1434168 C50.5211921,39.9280904 56.7521391,35.7782608 63.5444327,32.9182431 C70.3367263,30.1143041 77.6903665,28.6562559 85.1001414,28.6562559 C92.5099162,28.6562559 99.8635564,30.1143041 106.65585,32.9182431 C113.448144,35.722182 119.679091,39.9280904 124.899614,45.1434168 C130.120137,50.3587433 134.274102,56.5834877 137.136969,63.3690199 C139.943702,70.1545521 141.403203,77.5008721 141.403203,84.9032709 L134.217967,84.9032709 Z" fill="#01B6F5"></path>
                        <path d="M127.032731,84.9032709 C127.032731,79.3514718 125.966172,73.9118303 123.833055,68.8647402 C121.756073,63.8176501 118.612532,59.1631115 114.739241,55.237597 C110.865949,51.3681613 106.150638,48.2277497 101.098519,46.1528349 C96.0463996,44.07792 90.6013378,42.9563445 85.0440067,42.9563445 C79.4866756,42.9563445 74.0416138,44.0218413 68.9894945,46.1528349 C63.9373753,48.2277497 59.2781987,51.3681613 55.3487727,55.237597 C51.4754813,59.1070327 48.3319404,63.8176501 46.2549581,68.8647402 C44.1779758,73.9118303 43.0552826,79.3514718 43.0552826,84.9032709 L35.8700464,84.9032709 C35.8700464,78.4542114 37.1611435,72.0612306 39.5749338,66.1168801 C42.0448588,60.1725295 45.6936115,54.732888 50.2405188,50.1905069 C54.7874261,45.6481258 60.2324879,42.0030052 66.1827616,39.535539 C72.1330354,37.0680727 78.5323864,35.8343396 84.987872,35.8343396 C91.4433577,35.8343396 97.8427087,37.1241515 103.792982,39.535539 C109.743256,42.0030052 115.188318,45.6481258 119.735225,50.1905069 C124.282133,54.732888 127.930885,60.1725295 130.40081,66.1168801 C132.870735,72.0612306 134.105698,78.4542114 134.105698,84.9032709 L127.032731,84.9032709 Z" fill="#5C56B6"></path>
                    </g>
                    <path d="M0,87.0566038 C0,70.4716981 13.3985185,57 29.8933333,57 C41.9407407,57 52.3555556,64.1886792 57.0844444,74.490566 C57.8725926,74.4339623 58.6607407,74.3773585 59.4488889,74.3773585 C66.9925926,74.3773585 73.6355556,78.1698113 77.6888889,83.8867925 C79.4903704,83.0943396 81.517037,82.6981132 83.6,82.6981132 C87.7096296,82.6981132 91.4814815,84.3396226 94.24,87.0566038 C96.1540741,84.1132075 99.4755556,82.1320755 103.247407,82.1320755 C109.214815,82.1320755 114,87 114,92.9433962 L114,93 L0.562962963,93 C0.168888889,91.0754717 0,89.0943396 0,87.0566038 Z" id="Shape" fill="#F4F6F9"></path>
                    <path d="M262,106 L137,106 C137.056306,99.4195251 142.349099,94.1437995 148.880631,94.1437995 C150.907658,94.1437995 152.765766,94.6543536 154.454955,95.5620053 C156.538288,88.6411609 162.957207,83.5923483 170.502252,83.5923483 C171.290541,83.5923483 172.078829,83.6490765 172.867117,83.762533 C174.781532,72.0197889 184.916667,63 197.135135,63 C208.283784,63 217.686937,70.4313984 220.727477,80.6424802 C223.599099,79.848285 226.583333,79.3944591 229.736486,79.3944591 C245.614865,79.3944591 258.959459,90.853562 262,106 Z" id="Shape" fill="#F4F6F9"></path>
                </g>
                <g id="Group-4" transform="translate(87.000000, 79.000000)">
                    <g id="Group" transform="translate(76.000000, 25.000000)">
                        <path d="M13.3466192,16.25 L1.45978648,16.25 C0.677758007,16.25 0,15.5729167 0,14.7916667 C0,14.0104167 0.677758007,13.3333333 1.45978648,13.3333333 L13.3466192,13.3333333 C14.1286477,13.3333333 14.8064057,14.0104167 14.8064057,14.7916667 C14.8585409,15.625 14.1807829,16.25 13.3466192,16.25 Z" id="Shape" fill="#FFB863"></path>
                        <path d="M23.5129893,27.6041667 L21.5839858,25.5208333 C21.2711744,25.2083333 21.3233096,24.6875 21.636121,24.375 C21.9489324,24.0625 22.4702847,24.1145833 22.7830961,24.4270833 L24.7120996,26.5104167 C25.024911,26.8229167 24.9727758,27.34375 24.6599644,27.65625 C24.347153,27.96875 23.8258007,27.9166667 23.5129893,27.6041667 Z" id="Shape" fill="#FFB863"></path>
                        <path d="M24.7642349,27.7083333 L22.6788256,29.6354167 C22.3660142,29.9479167 21.8446619,29.8958333 21.5318505,29.5833333 C21.2190391,29.2708333 21.2711744,28.75 21.5839858,28.4375 L23.669395,26.5104167 C23.9822064,26.1979167 24.5035587,26.25 24.8163701,26.5625 C25.0770463,26.875 25.0770463,27.3958333 24.7642349,27.7083333 Z" id="Shape" fill="#FFB863"></path>
                        <path d="M15.8491103,19.7395833 C15.8491103,19.7395833 26.2240214,14.0625 28.622242,6.82291667 C28.7786477,6.35416667 28.8829181,5.9375 29.0393238,5.52083333 C30.4469751,0.520833333 22.9395018,-1.71875 21.3233096,3.22916667 L15.8491103,19.7395833 Z" id="Shape" fill="#016C94"></path>
                        <path d="M16.5268683,12.65625 C16.5268683,12.65625 16.5268683,12.6041667 16.5268683,12.6041667 C15.8491103,10.7291667 14.1286477,9.375 12.1996441,9.11458333 C8.91512456,8.69791667 6.09982206,11.25 6.09982206,14.4791667 C6.09982206,14.84375 6.09982206,15.5208333 6.09982206,15.5208333 C6.09982206,21.0416667 12.2517794,25.5729167 19.9156584,25.5729167 C27.5274021,25.5729167 33.7314947,21.09375 33.7314947,15.5208333 L20.5412811,15.5208333 C18.6644128,15.5208333 17.1524911,14.375 16.5268683,12.65625 Z" id="Shape" fill="#01B6F5"></path>
                        <path d="M12.7731317,15.5729167 C12.4603203,15.5729167 12.2517794,15.3645833 12.2517794,15.0520833 C12.2517794,14.3229167 11.6782918,13.75 10.9483986,13.75 C10.2185053,13.75 9.64501779,14.3229167 9.64501779,15.0520833 C9.64501779,15.3645833 9.43647687,15.5729167 9.12366548,15.5729167 C8.81085409,15.5729167 8.60231317,15.3645833 8.60231317,15.0520833 C8.60231317,13.75 9.64501779,12.7083333 10.9483986,12.7083333 C12.2517794,12.7083333 13.294484,13.75 13.294484,15.0520833 C13.294484,15.3645833 13.0338078,15.5729167 12.7731317,15.5729167 Z" id="Shape" fill="#7F3076"></path>
                        <path d="M17.2567616,16.25 C17.2567616,16.25 29.0914591,15.8333333 34.4613879,10.46875 C34.7741993,10.15625 35.1391459,9.79166667 35.3998221,9.47916667 C38.9450178,5.625 33.2622776,0.260416667 29.5606762,3.95833333 L17.2567616,16.25 Z" id="Shape" fill="#01B6F5"></path>
                        <path d="M29.8734875,15.5208333 C29.8734875,15.5208333 34.4092527,19.7395833 38.4236655,19.7395833 C38.6843416,19.7395833 38.8928826,19.7395833 39.1535587,19.7395833 C41.916726,19.6354167 41.7603203,15.5208333 39.0492883,15.5208333 L29.8734875,15.5208333 Z" id="Shape" fill="#01B6F5"></path>
                    </g>
                    <g id="Group" transform="translate(0.000000, 45.000000)">
                        <path d="M9.80142349,11.6145833 L1.14697509,11.6145833 C0.573487544,11.6145833 0.104270463,11.1458333 0.104270463,10.5729167 C0.104270463,10 0.573487544,9.53125 1.14697509,9.53125 L9.80142349,9.53125 C10.374911,9.53125 10.8441281,10 10.8441281,10.5729167 C10.8441281,11.1458333 10.374911,11.6145833 9.80142349,11.6145833 Z" id="Shape" fill="#FFB863"></path>
                        <path d="M17.2046263,19.8958333 L15.7969751,18.3854167 C15.5884342,18.125 15.5884342,17.7604167 15.8491103,17.5520833 C16.1097865,17.34375 16.4747331,17.34375 16.683274,17.6041667 L18.0909253,19.1145833 C18.2994662,19.375 18.2994662,19.7395833 18.03879,19.9479167 C17.7781139,20.15625 17.4131673,20.1041667 17.2046263,19.8958333 Z" id="Shape" fill="#FFB863"></path>
                        <path d="M18.0909253,19.9479167 L16.5790036,21.3541667 C16.3183274,21.5625 15.9533808,21.5625 15.7448399,21.3020833 C15.5362989,21.0416667 15.5362989,20.6770833 15.7969751,20.46875 L17.3088968,19.0625 C17.569573,18.8541667 17.9345196,18.8541667 18.1430605,19.1145833 C18.2994662,19.3229167 18.2994662,19.7395833 18.0909253,19.9479167 Z" id="Shape" fill="#FFB863"></path>
                        <path d="M11.5740214,14.1666667 C11.5740214,14.1666667 19.1336299,10 20.8540925,4.73958333 C20.958363,4.42708333 21.0626335,4.11458333 21.1669039,3.80208333 C22.2096085,0.15625 16.7354093,-1.45833333 15.5362989,2.13541667 L11.5740214,14.1666667 Z" id="Shape" fill="#1A8354"></path>
                        <path d="M12.0953737,9.01041667 C12.0953737,9.01041667 12.0953737,8.95833333 12.0953737,9.01041667 C11.5740214,7.60416667 10.374911,6.61458333 8.91512456,6.40625 C6.51690391,6.09375 4.48362989,7.96875 4.48362989,10.3125 C4.48362989,10.5729167 4.48362989,11.09375 4.48362989,11.09375 C4.48362989,15.1041667 8.96725979,18.3854167 14.5457295,18.3854167 C20.0720641,18.3854167 24.6078292,15.1041667 24.6078292,11.09375 L15.0149466,11.09375 C13.6594306,11.09375 12.5124555,10.2604167 12.0953737,9.01041667 Z" id="Shape" fill="#3ECF8E"></path>
                        <path d="M9.33220641,11.25 C9.01939502,11.25 8.81085409,11.0416667 8.81085409,10.7291667 C8.81085409,10.2604167 8.44590747,9.89583333 7.97669039,9.89583333 C7.50747331,9.89583333 7.14252669,10.2604167 7.14252669,10.7291667 C7.14252669,11.0416667 6.93398577,11.25 6.62117438,11.25 C6.30836299,11.25 6.09982206,11.0416667 6.09982206,10.7291667 C6.09982206,9.6875 6.93398577,8.85416667 7.97669039,8.85416667 C9.01939502,8.85416667 9.85355872,9.6875 9.85355872,10.7291667 C9.85355872,11.0416667 9.64501779,11.25 9.33220641,11.25 Z" id="Shape" fill="#7F3076"></path>
                        <path d="M12.616726,11.6145833 C12.616726,11.6145833 21.2190391,11.3020833 25.1291815,7.39583333 C25.3898577,7.13541667 25.5983986,6.92708333 25.8069395,6.66666667 C28.3615658,3.85416667 24.2428826,-0.0520833333 21.5318505,2.65625 L12.616726,11.6145833 Z" id="Shape" fill="#3ECF8E"></path>
                        <path d="M21.7925267,11.09375 C21.7925267,11.09375 25.0770463,14.1666667 27.9966192,14.1666667 C28.1530249,14.1666667 28.3615658,14.1666667 28.5179715,14.1666667 C30.4991103,14.0625 30.4469751,11.09375 28.4137011,11.09375 L21.7925267,11.09375 Z" id="Shape" fill="#3ECF8E"></path>
                    </g>
                    <g id="Group-Copy" transform="translate(215.000000, 34.000000)">
                        <path d="M9.80142349,11.6145833 L1.14697509,11.6145833 C0.573487544,11.6145833 0.104270463,11.1458333 0.104270463,10.5729167 C0.104270463,10 0.573487544,9.53125 1.14697509,9.53125 L9.80142349,9.53125 C10.374911,9.53125 10.8441281,10 10.8441281,10.5729167 C10.8441281,11.1458333 10.374911,11.6145833 9.80142349,11.6145833 Z" id="Shape" fill="#FFB863"></path>
                        <path d="M17.2046263,19.8958333 L15.7969751,18.3854167 C15.5884342,18.125 15.5884342,17.7604167 15.8491103,17.5520833 C16.1097865,17.34375 16.4747331,17.34375 16.683274,17.6041667 L18.0909253,19.1145833 C18.2994662,19.375 18.2994662,19.7395833 18.03879,19.9479167 C17.7781139,20.15625 17.4131673,20.1041667 17.2046263,19.8958333 Z" id="Shape" fill="#FFB863"></path>
                        <path d="M18.0909253,19.9479167 L16.5790036,21.3541667 C16.3183274,21.5625 15.9533808,21.5625 15.7448399,21.3020833 C15.5362989,21.0416667 15.5362989,20.6770833 15.7969751,20.46875 L17.3088968,19.0625 C17.569573,18.8541667 17.9345196,18.8541667 18.1430605,19.1145833 C18.2994662,19.3229167 18.2994662,19.7395833 18.0909253,19.9479167 Z" id="Shape" fill="#FFB863"></path>
                        <path d="M11.5740214,14.1666667 C11.5740214,14.1666667 19.1336299,10 20.8540925,4.73958333 C20.958363,4.42708333 21.0626335,4.11458333 21.1669039,3.80208333 C22.2096085,0.15625 16.7354093,-1.45833333 15.5362989,2.13541667 L11.5740214,14.1666667 Z" id="Shape" fill="#FFCD00"></path>
                        <path d="M12.0953737,9.01041667 C12.0953737,9.01041667 12.0953737,8.95833333 12.0953737,9.01041667 C11.5740214,7.60416667 10.374911,6.61458333 8.91512456,6.40625 C6.51690391,6.09375 4.48362989,7.96875 4.48362989,10.3125 C4.48362989,10.5729167 4.48362989,11.09375 4.48362989,11.09375 C4.48362989,15.1041667 8.96725979,18.3854167 14.5457295,18.3854167 C20.0720641,18.3854167 24.6078292,15.1041667 24.6078292,11.09375 L15.0149466,11.09375 C13.6594306,11.09375 12.5124555,10.2604167 12.0953737,9.01041667 Z" id="Shape" fill="#F6DB65"></path>
                        <path d="M9.33220641,11.25 C9.01939502,11.25 8.81085409,11.0416667 8.81085409,10.7291667 C8.81085409,10.2604167 8.44590747,9.89583333 7.97669039,9.89583333 C7.50747331,9.89583333 7.14252669,10.2604167 7.14252669,10.7291667 C7.14252669,11.0416667 6.93398577,11.25 6.62117438,11.25 C6.30836299,11.25 6.09982206,11.0416667 6.09982206,10.7291667 C6.09982206,9.6875 6.93398577,8.85416667 7.97669039,8.85416667 C9.01939502,8.85416667 9.85355872,9.6875 9.85355872,10.7291667 C9.85355872,11.0416667 9.64501779,11.25 9.33220641,11.25 Z" id="Shape" fill="#7F3076"></path>
                        <path d="M12.616726,11.6145833 C12.616726,11.6145833 21.2190391,11.3020833 25.1291815,7.39583333 C25.3898577,7.13541667 25.5983986,6.92708333 25.8069395,6.66666667 C28.3615658,3.85416667 24.2428826,-0.0520833333 21.5318505,2.65625 L12.616726,11.6145833 Z" id="Shape" fill="#F6DB65"></path>
                        <path d="M21.7925267,11.09375 C21.7925267,11.09375 25.0770463,14.1666667 27.9966192,14.1666667 C28.1530249,14.1666667 28.3615658,14.1666667 28.5179715,14.1666667 C30.4991103,14.0625 30.4469751,11.09375 28.4137011,11.09375 L21.7925267,11.09375 Z" id="Shape" fill="#F6DB65"></path>
                    </g>
                    <g id="Group" transform="translate(171.000000, 0.000000)">
                        <path d="M11.1048043,13.6458333 L1.19911032,13.6458333 C0.521352313,13.6458333 0,13.125 0,12.4479167 C0,11.7708333 0.521352313,11.25 1.19911032,11.25 L11.1048043,11.25 C11.7825623,11.25 12.3039146,11.7708333 12.3039146,12.4479167 C12.3560498,13.125 11.7825623,13.6458333 11.1048043,13.6458333 Z" id="Shape" fill="#FFB863"></path>
                        <path d="M19.5507117,23.0729167 L17.9345196,21.3541667 C17.6738434,21.09375 17.6738434,20.6770833 17.9866548,20.4166667 C18.247331,20.15625 18.6644128,20.15625 18.925089,20.46875 L20.5412811,22.1875 C20.8019573,22.4479167 20.8019573,22.8645833 20.4891459,23.125 C20.2284698,23.3854167 19.8113879,23.3333333 19.5507117,23.0729167 Z" id="Shape" fill="#FFB863"></path>
                        <path d="M20.5934164,23.125 L18.8729537,24.7395833 C18.6122776,25 18.1951957,25 17.9345196,24.6875 C17.6738434,24.4270833 17.6738434,24.0104167 17.9866548,23.75 L19.7071174,22.1354167 C19.9677936,21.875 20.3848754,21.875 20.6455516,22.1875 C20.8540925,22.4479167 20.8540925,22.9166667 20.5934164,23.125 Z" id="Shape" fill="#FFB863"></path>
                        <path d="M13.1902135,16.5625 C13.1902135,16.5625 21.7925267,11.8229167 23.7736655,5.83333333 C23.8779359,5.46875 24.0343416,5.10416667 24.0864769,4.73958333 C25.233452,0.572916667 19.0293594,-1.30208333 17.6738434,2.8125 L13.1902135,16.5625 Z" id="Shape" fill="#7F3076"></path>
                        <path d="M13.7115658,10.6770833 C13.7115658,10.6770833 13.7115658,10.625 13.7115658,10.6770833 C13.1380783,9.0625 11.730427,7.96875 10.0620996,7.70833333 C7.29893238,7.34375 5.00498221,9.47916667 5.00498221,12.1354167 C5.00498221,12.4479167 5.00498221,13.0208333 5.00498221,13.0208333 C5.00498221,17.6041667 10.1142349,21.3541667 16.4747331,21.3541667 C22.7830961,21.3541667 27.944484,17.6041667 27.944484,13.0208333 L16.9960854,13.0208333 C15.5362989,13.0208333 14.2329181,12.0833333 13.7115658,10.6770833 Z" id="Shape" fill="#9F578D"></path>
                        <path d="M10.6355872,13.1770833 C10.3227758,13.1770833 10.1142349,12.96875 10.1142349,12.65625 C10.1142349,12.0833333 9.64501779,11.6666667 9.12366548,11.6666667 C8.55017794,11.6666667 8.13309609,12.1354167 8.13309609,12.65625 C8.13309609,12.96875 7.92455516,13.1770833 7.61174377,13.1770833 C7.29893238,13.1770833 7.09039146,12.96875 7.09039146,12.65625 C7.09039146,11.5104167 8.02882562,10.625 9.12366548,10.625 C10.2706406,10.625 11.1569395,11.5625 11.1569395,12.65625 C11.1569395,12.9166667 10.8962633,13.1770833 10.6355872,13.1770833 Z" id="Shape" fill="#7F3076"></path>
                        <path d="M14.3371886,13.6458333 C14.3371886,13.6458333 24.1386121,13.3333333 28.622242,8.85416667 C28.8829181,8.59375 29.1435943,8.28125 29.4042705,8.02083333 C32.3238434,4.84375 27.6316726,0.364583333 24.555694,3.4375 L14.3371886,13.6458333 Z" id="Shape" fill="#9F578D"></path>
                        <path d="M24.8163701,13.0208333 C24.8163701,13.0208333 28.5701068,16.5625 31.9067616,16.5625 C32.1153025,16.5625 32.3238434,16.5625 32.5323843,16.5625 C34.8263345,16.4583333 34.7220641,13.0729167 32.4281139,13.0729167 L24.8163701,13.0729167 L24.8163701,13.0208333 Z" id="Shape" fill="#9F578D"></path>
                    </g>
                </g>
            </g>
        </g>
    </g>
</svg>