<?xml version="1.0" encoding="UTF-8"?>
<svg width="240px" height="160px" viewBox="0 0 240 160" version="1.1" xmlns="http://www.w3.org/2000/svg" xmlns:xlink="http://www.w3.org/1999/xlink">
    <!-- Generator: Sketch 51.3 (57544) - http://www.bohemiancoding.com/sketch -->
    <title>Illustration-rainbow-6</title>
    <desc>Created with Sketch.</desc>
    <defs>
        <polygon id="path-1" points="0.141890812 0.167649402 239.822317 0.167649402 239.822317 159.139092 0.141890812 159.139092"></polygon>
        <polygon id="path-3" points="0.141890812 0.167649402 239.822317 0.167649402 239.822317 159.530199 0.141890812 159.530199"></polygon>
        <polygon id="path-5" points="0.141890812 0.167649402 239.822317 0.167649402 239.822317 159.530199 0.141890812 159.530199"></polygon>
        <polygon id="path-7" points="0.0943382157 0.0147250996 234.069987 0.0147250996 234.069987 149.968446 0.0943382157 149.968446"></polygon>
        <polygon id="path-9" points="0.260197071 0.0482231076 220.008735 0.0482231076 220.008735 138.813068 0.260197071 138.813068"></polygon>
        <polygon id="path-11" points="0.121533955 0.0251792829 208.184501 0.0251792829 208.184501 127.657689 0.121533955 127.657689"></polygon>
        <polygon id="path-13" points="0.132750999 0.0245418327 198.916858 0.0245418327 198.916858 118.095936 0.132750999 118.095936"></polygon>
        <polygon id="path-15" points="0.314876165 0.30501992 189.649214 0.30501992 189.649214 108.215458 0.314876165 108.215458"></polygon>
        <polygon id="path-17" points="0.0199733688 0.217944223 62.1392277 0.217944223 62.1392277 34.5617017 0.0199733688 34.5617017"></polygon>
        <polygon id="path-19" points="0.141890812 0.265115538 85.8224341 0.265115538 85.8224341 53.6712449 0.141890812 53.6712449"></polygon>
        <polygon id="path-21" points="0.021539281 0.195187251 88.0247137 0.195187251 88.0247137 51.0164143 0.021539281 51.0164143"></polygon>
    </defs>
    <g id="components" stroke="none" stroke-width="1" fill="none" fill-rule="evenodd">
        <g id="Illustration-rainbow-6">
            <polygon id="Fill-1" fill="#CAF2FC" fill-rule="nonzero" points="0.141890812 159.831713 239.822317 159.831713 239.822317 0.469163347 0.141890812 0.469163347"></polygon>
            <g id="Group-6" transform="translate(50.173103, 10.500717)" fill="#FFFFFF" fill-rule="nonzero">
                <path d="M139.513662,69.6498486 C139.513662,108.04443 108.305992,139.169211 69.8091611,139.169211 C31.3123302,139.169211 0.104660453,108.04443 0.104660453,69.6498486 C0.104660453,31.2555857 31.3123302,0.130486056 69.8091611,0.130486056 C108.305992,0.130486056 139.513662,31.2555857 139.513662,69.6498486" id="Fill-2"></path>
                <path d="M101.64604,69.6498486 C101.64604,87.1864223 87.3920852,101.402199 69.8091292,101.402199 C52.2258535,101.402199 37.9722184,87.1864223 37.9722184,69.6498486 C37.9722184,52.1135936 52.2258535,37.897498 69.8091292,37.897498 C87.3920852,37.897498 101.64604,52.1135936 101.64604,69.6498486" id="Fill-4"></path>
            </g>
            <g id="Group-31" transform="translate(0.000000, 0.301514)">
                <g id="Group-9">
                    <g id="Fill-7-Clipped">
                        <mask id="mask-2" fill="white">
                            <use xlink:href="#path-1"></use>
                        </mask>
                        <g id="path-1"></g>
                        <path d="M-10.6629667,159.139092 L-22.4597177,154.05447 C-21.669731,152.225307 -2.64741411,108.743873 39.2148495,64.6670598 C63.8543169,38.7241116 91.3041172,18.0401275 120.804304,3.19040637 C157.754397,-15.4110279 197.987792,-24.8433785 240.384703,-24.8433785 L240.384703,-12.0064064 C200.103372,-12.0064064 161.895435,-3.07604781 126.819963,14.5354263 C98.6779654,28.6661036 72.4406285,48.3993307 48.8356218,73.1862629 C8.42294541,115.621004 -10.4769747,158.707857 -10.6629667,159.139092" id="Fill-7" fill="#7977F2" fill-rule="nonzero" mask="url(#mask-2)"></path>
                    </g>
                </g>
                <g id="Group-12">
                    <g id="Fill-10-Clipped">
                        <mask id="mask-4" fill="white">
                            <use xlink:href="#path-3"></use>
                        </mask>
                        <g id="path-3"></g>
                        <path d="M-3.76592277,169.680988 L-15.5623542,164.596367 C-14.7730067,162.766566 4.24931025,119.285769 46.1118935,75.2086375 C70.7513609,49.2656892 98.2011611,28.5820239 127.701348,13.7319841 C164.651441,-4.8694502 204.885156,-14.3021195 247.281747,-14.3021195 L247.281747,-1.46482869 C207.000735,-1.46482869 168.792799,7.46552988 133.717007,25.077004 C105.575329,39.2076813 79.3376724,58.9409084 55.7329854,83.7275219 C15.3199893,126.162263 -3.57993076,169.249753 -3.76592277,169.680988" id="Fill-10" fill="#C4A6FC" fill-rule="nonzero" mask="url(#mask-4)"></path>
                    </g>
                </g>
                <g id="Group-15">
                    <g id="Fill-13-Clipped">
                        <mask id="mask-6" fill="white">
                            <use xlink:href="#path-5"></use>
                        </mask>
                        <g id="path-5"></g>
                        <path d="M6.1574221,175.02741 L-5.172751,170.144223 C-4.41440213,168.385817 13.8559574,126.623586 54.063787,84.2895618 C77.7291931,59.3719522 104.09404,39.505498 132.427782,25.2428685 C167.917742,7.37641434 206.561257,-1.68302789 247.282003,-1.68302789 L247.282003,10.6465339 C208.593108,10.6465339 171.895158,19.223745 138.205678,36.1391235 C111.176437,49.7113944 85.9764368,68.6647012 63.3039467,92.4718725 C24.4891398,133.229163 6.33638349,174.612749 6.1574221,175.02741" id="Fill-13" fill="#FC6BD9" fill-rule="nonzero" mask="url(#mask-6)"></path>
                    </g>
                </g>
                <g id="Group-18" transform="translate(5.752330, 9.561753)">
                    <g id="Fill-16-Clipped">
                        <mask id="mask-8" fill="white">
                            <use xlink:href="#path-7"></use>
                        </mask>
                        <g id="path-7"></g>
                        <path d="M10.9294913,170.262693 L0.0943382157,165.592414 C0.819451398,163.910821 17.1145246,123.58859 55.5669348,83.1022151 C78.199478,59.2724143 104.208959,39.4056414 131.305949,25.7654821 C165.246615,8.67862948 202.20278,0.0147250996 241.146695,0.0147250996 L241.529545,13.0572749 C204.529598,13.0572749 169.433033,21.2596653 137.214551,37.4368765 C111.364858,50.4166375 87.2648309,68.5425339 65.5823808,91.3106614 C28.460996,130.289147 11.100783,169.867155 10.9294913,170.262693" id="Fill-16" fill="#FF94C7" fill-rule="nonzero" mask="url(#mask-8)"></path>
                    </g>
                </g>
                <g id="Group-21" transform="translate(19.813582, 20.717131)">
                    <g id="Fill-19-Clipped">
                        <mask id="mask-10" fill="white">
                            <use xlink:href="#path-9"></use>
                        </mask>
                        <g id="path-9"></g>
                        <path d="M11.5012091,156.530773 L0.260197071,152.085195 C0.931621838,150.527904 18.3183595,113.667347 53.9233662,76.1792191 C74.8800639,54.1138805 98.2271744,36.5218486 123.317241,23.8914104 C154.743819,8.07053386 188.963792,0.0482231076 225.023233,0.0482231076 L225.023233,10.9664701 C190.763313,10.9664701 158.266162,18.5616892 128.433619,33.5411315 C104.498812,45.5592988 82.1829667,62.3427251 62.1063755,83.4247968 C27.734285,119.51659 11.6593981,156.163602 11.5012091,156.530773" id="Fill-19" fill="#FFA96E" fill-rule="nonzero" mask="url(#mask-10)"></path>
                    </g>
                </g>
                <g id="Group-24" transform="translate(31.637816, 31.872510)">
                    <g id="Fill-22-Clipped">
                        <mask id="mask-12" fill="white">
                            <use xlink:href="#path-11"></use>
                        </mask>
                        <g id="path-11"></g>
                        <path d="M9.58315846,147.596813 L0.121533955,143.518725 C0.754609854,142.050996 16.0123462,107.175139 49.589976,71.8211952 C69.3530652,51.0125896 91.3717071,34.421992 115.032959,22.5105976 C144.670562,7.59043825 176.941134,0.0251792829 210.947952,0.0251792829 L210.947952,10.3215936 C178.639031,10.3215936 147.991893,17.4846215 119.857885,31.6108367 C97.2860613,42.9447012 76.2408415,58.7722709 57.3070466,78.6537052 C24.8920266,112.690677 9.73271904,147.250996 9.58315846,147.596813" id="Fill-22" fill="#FFD252" fill-rule="nonzero" mask="url(#mask-12)"></path>
                    </g>
                </g>
                <g id="Group-27" transform="translate(40.905459, 41.434263)">
                    <g id="Fill-25-Clipped">
                        <mask id="mask-14" fill="white">
                            <use xlink:href="#path-13"></use>
                        </mask>
                        <g id="path-13"></g>
                        <path d="M9.26233822,142.41753 L0.132750999,138.481912 C0.743776298,137.065498 15.4659068,103.413546 47.8655872,69.3007171 C66.9348815,49.2223108 88.1801545,33.2143426 111.011473,21.7207968 C139.608863,7.32430279 170.746546,0.0245418327 203.560075,0.0245418327 L203.560075,9.95952191 C172.385001,9.95952191 142.812911,16.8710757 115.667025,30.5016733 C93.8874248,41.4377689 73.5810599,56.7101195 55.3113395,75.8932271 C24.0343222,108.736574 9.40614647,142.083506 9.26233822,142.41753" id="Fill-25" fill="#62E5ED" fill-rule="nonzero" mask="url(#mask-14)"></path>
                    </g>
                </g>
                <g id="Group-30" transform="translate(50.173103, 51.314741)">
                    <g id="Fill-28-Clipped">
                        <mask id="mask-16" fill="white">
                            <use xlink:href="#path-15"></use>
                        </mask>
                        <g id="path-15"></g>
                        <path d="M8.83727297,133.227092 L0.314876165,129.55251 C0.884996005,128.231394 14.6279521,96.8172112 44.8724261,64.9730677 C62.6736511,46.2301195 82.5057683,31.287012 103.818471,20.5580876 C130.513438,7.11904382 159.580602,0.30501992 190.21176,0.30501992 L190.21176,9.57928287 C161.109763,9.57928287 133.504969,16.0309163 108.164676,28.7550598 C87.8333848,38.963506 68.8772197,53.2203984 51.8231585,71.1273307 C22.6262477,101.786135 8.97149401,132.915697 8.83727297,133.227092" id="Fill-28" fill="#94F8F0" fill-rule="nonzero" mask="url(#mask-16)"></path>
                    </g>
                </g>
            </g>
            <path d="M79.3669774,29.7538805 C79.3669774,24.776988 75.3214913,20.7425657 70.3316644,20.7425657 C68.6455925,20.7425657 67.0736085,21.2117291 65.7234088,22.013004 C63.9532889,18.3766693 60.2232224,15.8644781 55.8977896,15.8644781 C54.2200266,15.8644781 52.6311052,16.2428048 51.2109188,16.9169084 C49.6255126,11.5428845 44.6462317,7.61842231 38.74498,7.61842231 C32.1786951,7.61842231 26.7526498,12.476749 25.8763782,18.7846375 C24.8131558,18.3763506 23.6626897,18.1433625 22.4556591,18.1433625 C17.1900399,18.1433625 12.9208522,22.4012112 12.9208522,27.6528446 C12.9208522,29.8769084 13.691984,31.9177052 14.9744341,33.5371474 L14.9683622,33.5396972 C14.9683622,33.5396972 17.9566977,39.1409721 26.4023968,39.1409721 L64.4470306,39.1409721 C64.4470306,39.1409721 70.6176831,39.5377849 73.045486,38.3511713 L73.0451664,38.3502151 C76.7090812,37.2008924 79.3669774,33.7876653 79.3669774,29.7538805" id="Fill-32" fill="#FFFFFF" fill-rule="nonzero" opacity="0.5"></path>
            <g id="Group-36" opacity="0.5" transform="translate(177.683089, 33.130199)">
                <g id="Fill-34-Clipped">
                    <mask id="mask-18" fill="white">
                        <use xlink:href="#path-17"></use>
                    </mask>
                    <g id="path-17"></g>
                    <path d="M0.0199733688,24.2858327 C0.0199733688,18.8745179 4.41890812,14.4879044 9.84431425,14.4879044 C11.6770706,14.4879044 13.3864714,14.9978645 14.8545939,15.869259 C16.7793875,11.9154741 20.8354194,9.184 25.538269,9.184 C27.3623968,9.184 29.0900133,9.59515538 30.6341944,10.3282231 C32.357976,4.48503586 37.7721971,0.217944223 44.1886019,0.217944223 C51.3278828,0.217944223 57.2275366,5.50049402 58.1801864,12.3591394 C59.3360852,11.9151554 60.5868975,11.6620876 61.8993875,11.6620876 C67.6251931,11.6620876 72.2666844,16.291251 72.2666844,22.0015299 C72.2666844,24.4193785 71.4284421,26.6383426 70.0338216,28.3992988 L70.040213,28.4021673 C70.040213,28.4021673 66.7911052,34.4923665 57.6084687,34.4923665 L16.2421838,34.4923665 C16.2421838,34.4923665 9.53336884,34.9239203 6.89336884,33.6337211 L6.89368842,33.6324462 C2.90988016,32.3830438 0.0199733688,28.6718088 0.0199733688,24.2858327" id="Fill-34" fill="#FFFFFF" fill-rule="nonzero" mask="url(#mask-18)"></path>
                </g>
            </g>
            <g id="Group-39" opacity="0.5" transform="translate(0.000000, 81.895139)">
                <g id="Fill-37-Clipped">
                    <mask id="mask-20" fill="white">
                        <use xlink:href="#path-19"></use>
                    </mask>
                    <g id="path-19"></g>
                    <path d="M85.8224341,37.6920478 C85.8224341,29.2773865 78.9819547,22.4557131 70.5448842,22.4557131 C67.6952437,22.4557131 65.037028,23.2490199 62.7536724,24.6039203 C59.7605433,18.4550757 53.4537523,14.207745 46.1396644,14.207745 C43.3040852,14.207745 40.6174274,14.8471076 38.2158296,15.9868685 C35.5349241,6.90129084 27.1160692,0.265115538 17.1383329,0.265115538 C6.03601598,0.265115538 -3.13767244,8.47961753 -4.61953662,19.1454343 C-6.41745939,18.4550757 -8.36238615,18.0611315 -10.4028655,18.0611315 C-19.306514,18.0611315 -26.5247297,25.2598566 -26.5247297,34.1395378 C-26.5247297,37.8995378 -25.2211877,41.3506932 -23.0522397,44.0888606 L-23.0627856,44.093004 C-23.0627856,44.093004 -18.0103222,53.5636016 -3.73048202,53.5636016 L60.596229,53.5636016 C60.596229,53.5636016 71.028719,54.2341992 75.134285,52.2278247 L75.1333262,52.2268685 C81.3282663,50.2832829 85.8224341,44.5124462 85.8224341,37.6920478" id="Fill-37" fill="#FFFFFF" fill-rule="nonzero" mask="url(#mask-20)"></path>
                </g>
            </g>
            <g id="Group-42" opacity="0.5" transform="translate(151.797603, 108.668048)">
                <g id="Fill-40-Clipped">
                    <mask id="mask-22" fill="white">
                        <use xlink:href="#path-21"></use>
                    </mask>
                    <g id="path-21"></g>
                    <path d="M0.021539281,41.5086534 C0.021539281,32.2197291 7.57243142,24.6898486 16.8857736,24.6898486 C20.0313395,24.6898486 22.9659867,25.5657052 25.4861465,27.0614821 C28.7899015,20.2739124 35.7518189,15.5854661 43.8248948,15.5854661 C46.9557603,15.5854661 49.9214061,16.2914422 52.5722716,17.5494502 C55.531526,7.51980876 64.8250546,0.195187251 75.8388495,0.195187251 C88.0941891,0.195187251 98.2205273,9.26227888 99.8561065,21.0359841 C101.84066,20.2735936 103.987558,19.8391713 106.240234,19.8391713 C116.069049,19.8391713 124.036346,27.7853068 124.036346,37.5870598 C124.036346,41.7384542 122.597625,45.5472191 120.203377,48.5693705 L120.214562,48.5744701 C120.214562,48.5744701 114.637997,59.0286534 98.8746951,59.0286534 L27.8679308,59.0286534 C27.8679308,59.0286534 16.3517656,59.7696892 11.8198881,57.5542311 L11.8205273,57.5526375 C4.98196538,55.4079363 0.021539281,49.037259 0.021539281,41.5086534" id="Fill-40" fill="#FFFFFF" fill-rule="nonzero" mask="url(#mask-22)"></path>
                </g>
            </g>
            <g id="Group-66" opacity="0.5" transform="translate(40.585885, 6.038566)" fill="#FFFFFF" fill-rule="nonzero">
                <polygon id="Fill-44" points="27.1207031 76.8971155 28.1184128 78.9127331 30.348719 79.236239 28.7348708 80.8053227 29.1158029 83.0207809 27.1207031 81.9750438 25.1256032 83.0207809 25.5065353 80.8053227 23.8926871 79.236239 26.1229933 78.9127331"></polygon>
                <polygon id="Fill-46" points="27.1207031 44.4814661 28.7390253 47.7506295 32.3556431 48.2749323 29.7383329 50.8193147 30.3563888 54.4126215 27.1207031 52.7163665 23.8850173 54.4126215 24.5030732 50.8193147 21.885763 48.2749323 25.50302 47.7506295"></polygon>
                <polygon id="Fill-48" points="50.1653049 58.0344223 50.9709507 59.6615139 52.7707909 59.9225498 51.4682077 61.1888446 51.7756378 62.9775299 50.1653049 62.1332271 48.5546525 62.9775299 48.8620826 61.1888446 47.5594993 59.9225498 49.3596591 59.6615139"></polygon>
                <polygon id="Fill-50" points="2.78815446 66.024988 3.59380027 67.6520797 5.39364048 67.9131155 4.09105726 69.1794104 4.39848735 70.9680956 2.78815446 70.1237928 1.177502 70.9680956 1.48493209 69.1794104 0.182348868 67.9131155 1.98250866 67.6520797"></polygon>
                <polygon id="Fill-52" points="94.5445646 41.4196335 95.5422743 43.4355697 97.7725806 43.758757 96.1587324 45.3278406 96.5396644 47.5432988 94.5445646 46.4975618 92.5494647 47.5432988 92.9303968 45.3278406 91.3165486 43.758757 93.5468549 43.4355697"></polygon>
                <polygon id="Fill-54" points="144.52947 16.821004 146.147792 20.0901673 149.76441 20.6144701 147.1471 23.1588526 147.765156 26.7521594 144.52947 25.0559044 141.293784 26.7521594 141.91184 23.1588526 139.29453 20.6144701 142.911787 20.0901673"></polygon>
                <polygon id="Fill-56" points="156.301582 7.99352988 157.107228 9.62062151 158.907068 9.88165737 157.604485 11.1479522 157.911915 12.9366375 156.301582 12.0923347 154.690929 12.9366375 154.99836 11.1479522 153.695776 9.88165737 155.495936 9.62062151"></polygon>
                <polygon id="Fill-58" points="62.6361651 21.4197928 63.6338748 23.4357291 65.8641811 23.7589163 64.2503329 25.328 64.631265 27.5434582 62.6361651 26.4977211 60.6410652 27.5434582 61.0219973 25.328 59.4081491 23.7589163 61.6384554 23.4357291"></polygon>
                <polygon id="Fill-60" points="82.0022157 0.0375139442 82.8078615 1.66460558 84.6077017 1.92564143 83.3051185 3.19193625 83.6125486 4.98062151 82.0022157 4.13631873 80.3915632 4.98062151 80.6989933 3.19193625 79.3964101 1.92564143 81.1965699 1.66460558"></polygon>
                <polygon id="Fill-62" points="115.702594 10.4650199 116.50824 12.0921116 118.30808 12.3531474 117.005497 13.6194422 117.312927 15.4081275 115.702594 14.5638247 114.091941 15.4081275 114.399372 13.6194422 113.096788 12.3531474 114.896948 12.0921116"></polygon>
                <polygon id="Fill-64" points="76.1684261 86.9033307 77.1661358 88.9189482 79.3964421 89.2421355 77.7825939 90.8115378 78.163526 93.026996 76.1684261 91.981259 74.1733262 93.026996 74.5542583 90.8115378 72.9404101 89.2421355 75.1707164 88.9189482"></polygon>
            </g>
        </g>
    </g>
</svg>