<?xml version="1.0" encoding="UTF-8"?>
<svg width="240px" height="160px" viewBox="0 0 240 160" version="1.1" xmlns="http://www.w3.org/2000/svg" xmlns:xlink="http://www.w3.org/1999/xlink">
    <!-- Generator: Sketch 51.3 (57544) - http://www.bohemiancoding.com/sketch -->
    <title>Illustration-rainbow-3</title>
    <desc>Created with Sketch.</desc>
    <defs>
        <rect id="path-1" x="0" y="0" width="240" height="160"></rect>
        <linearGradient x1="52.56%" y1="-28.79%" x2="46.284%" y2="164.396%" id="linearGradient-3">
            <stop stop-color="#BCFBFC" offset="0%"></stop>
            <stop stop-color="#34D5E7" offset="100%"></stop>
        </linearGradient>
    </defs>
    <g id="components" stroke="none" stroke-width="1" fill="none" fill-rule="evenodd">
        <g id="Illustration-rainbow-3">
            <g id="Mask" fill="#D8D8D8" fill-rule="nonzero">
                <rect id="path-1" x="0" y="0" width="240" height="160"></rect>
            </g>
            <g id="298367-P7PFXD-643-Clipped">
                <mask id="mask-2" fill="white">
                    <use xlink:href="#path-1"></use>
                </mask>
                <g id="path-1"></g>
                <g id="298367-P7PFXD-643" mask="url(#mask-2)">
                    <g transform="translate(-152.873786, -22.524272)" id="BACKGROUND_2">
                        <g>
                            <g id="Group" fill-rule="nonzero">
                                <rect id="Rectangle-path" fill="url(#linearGradient-3)" x="0" y="0" width="397.333334" height="183.762582"></rect>
                                <path d="M383.56,170.43572 C377.105136,172.704507 370.454663,174.371748 363.693334,175.416197 C355.693333,176.647138 347.746667,176.707185 339.693333,176.863971 C330.283333,177.047445 320.36,177.497789 311.693334,181.634287 C310.36,182.27144 309.026667,182.98532 307.74,183.762582 L397.333334,183.762582 L397.333334,164.414448 C392.904246,166.773986 388.299396,168.787082 383.56,170.43572 Z" id="Shape" fill="#FFFFFF" opacity="0.17"></path>
                                <path d="M144.019422,169.925259 C156.997826,157.96599 173.920431,151.078568 190.843036,146.863055 C209.701017,142.166084 229.216364,140.350509 248.617866,140.409313 C272.452002,140.479143 296.234726,142.871731 320.072536,142.353521 C340.010213,141.923517 360.428982,139.846999 378.556146,130.941865 C385.228189,127.668724 391.524342,123.678395 397.333334,119.0414 L397.333334,0 L371.192903,0 C371.192903,0.147010065 371.159851,0.29402013 371.14149,0.441030195 C368.350435,21.2576554 358.820453,41.0158081 346.708744,57.9770944 C335.089144,74.2584591 320.792334,89.0513469 303.653055,99.529489 C287.714665,109.268906 269.778466,115.351448 251.372195,118.247546 C241.852369,119.734999 232.240077,120.552909 222.605971,120.695264 C212.558174,120.856974 202.514051,120.191754 192.466254,120.191754 C182.807736,120.191754 173.057407,120.665862 163.652288,123.014347 C153.861562,125.462064 145.121154,129.850315 137.012407,135.826275 C131.47655,139.848082 126.407661,144.47706 121.900314,149.626845 L121.900314,183.762582 L133.200414,183.762582 C136.037648,178.596523 139.691164,173.923742 144.019422,169.925259 Z" id="Shape" fill="#FFFFFF" opacity="0.17"></path>
                                <path d="M184.236666,46.7878026 C208.18,42.9882295 231.75,38.1511961 253.766666,27.5964556 C260.284948,24.4718065 266.590785,20.9214315 272.643334,16.9683256 L147.333333,16.9683256 L147.333333,51.3279423 C159.8,50.6240705 172.276666,48.6859213 184.236666,46.7878026 Z" id="Shape" fill="#FFFFFF" opacity="0.2"></path>
                                <g transform="translate(0.000000, 10.193143)" id="Shape">
                                    <path d="M27.19,173.569438 C27.19,173.569438 27.19,174.049805 27.19,173.862996 C27.19,92.4473841 93.1366663,26.8805623 174.486667,26.8805623 C255.836666,26.8805623 321.783334,92.2338875 321.783334,173.659507 C321.783334,173.849653 321.783334,173.582782 321.783334,173.582782 L348.97,173.582782 L348.97,174.199921 C348.97,77.7661537 270.853333,0.0133435404 174.49,0.0133435404 C78.1266667,0.0133435404 0,77.5359777 0,173.973081 L0,173.569438 L27.19,173.569438 Z" fill="#FE6959"></path>
                                    <path d="M312.15,34.6665181 C312.187421,34.3119183 312.206336,33.9556066 312.206666,33.5990349 C312.272838,29.963906 310.372876,26.5762076 307.237735,24.7392575 C304.102595,22.9023075 300.220739,22.9023075 297.085598,24.7392575 C293.950457,26.5762076 292.050496,29.963906 292.116667,33.5990349 C292.116667,33.7435899 292.116667,33.887033 292.116667,34.0293641 C289.478043,33.3348172 286.670118,33.7569939 284.351909,35.1968098 C282.0337,36.6366257 280.409316,38.9673101 279.86,41.6418539 C277.760322,38.8355654 273.990074,37.8733057 270.803911,39.3305176 C267.617746,40.7877295 265.877282,44.2703475 266.623337,47.6957241 C267.369392,51.1211009 270.400212,53.5629313 273.903333,53.5609714 L311.71,53.5609714 C316.838072,53.5585934 321.02635,49.4596343 321.143176,44.3289685 C321.260002,39.1983027 317.26264,34.9126705 312.14,34.6765258 L312.15,34.6665181 Z" fill="#FFFFFF" opacity="0.9"></path>
                                    <path d="M359.833334,88.1474283 C359.348543,83.6199609 361.401436,79.1946279 365.170041,76.643314 C368.938647,74.0920002 373.806949,73.8317437 377.825699,75.9667501 C381.844448,78.1017565 384.356742,82.2830374 384.356667,86.8364254 C384.356667,87.0132273 384.356667,87.1866934 384.356667,87.3634952 C387.585988,86.5135129 391.022494,87.0302892 393.859594,88.7925309 C396.696694,90.5547725 398.684578,93.407311 399.356666,96.6806224 C401.927424,93.2490151 406.540011,92.07362 410.43762,93.8569363 C414.335229,95.640252 416.464642,99.9003889 415.553169,104.091187 C414.641697,108.281985 410.93564,111.271 406.65,111.271784 L360.373333,111.271784 C354.07641,111.298256 348.918022,106.27345 348.774471,99.9732884 C348.63092,93.6731276 353.555083,88.4182362 359.846666,88.1574359 L359.833334,88.1474283 Z" fill="#FFFFFF" opacity="0.9"></path>
                                    <path d="M138.6,142.252149 C138.566455,141.950864 138.549763,141.647938 138.55,141.344788 C138.55,136.626508 142.371995,132.801586 147.086667,132.801586 C151.801337,132.801586 155.623333,136.626508 155.623333,141.344788 C155.623333,141.468216 155.623333,141.588308 155.623333,141.711735 C156.324749,141.525029 157.047531,141.430828 157.773334,141.431521 C161.779449,141.432305 165.232594,144.25242 166.036666,148.180017 C167.819628,145.787851 171.028539,144.964481 173.741669,146.203001 C176.454798,147.44152 177.937065,150.40637 177.300779,153.321983 C176.664495,156.237596 174.08205,158.314029 171.1,158.307764 L138.973333,158.307764 C134.626834,158.288492 131.086056,154.808993 130.987604,150.46024 C130.889153,146.111486 134.268833,142.475074 138.61,142.258821 L138.6,142.252149 Z" fill="#FFFFFF" opacity="0.9"></path>
                                    <path d="M42.6966666,173.569438 C42.6966666,173.569438 42.6966666,173.215834 42.6966666,173.029025 C42.6966666,100.043194 101.82,40.884608 174.746667,40.884608 C247.673334,40.884608 306.796666,100.039859 306.796666,173.025689 C306.796666,173.212499 306.796666,173.569438 306.796666,173.569438 L334.323333,173.569438 C334.323333,173.569438 334.323333,173.215834 334.323333,173.029025 C334.333333,84.8348943 262.873333,13.3368687 174.74,13.3368687 C86.6066666,13.3368687 15.1666667,84.8348943 15.1666667,173.025689 C15.1666667,173.212499 15.1666667,173.569438 15.1666667,173.569438 L42.6966666,173.569438 Z" fill="#FDA805"></path>
                                    <path d="M353.14,151.075565 C348.958389,151.071896 345.00372,152.978272 342.4,156.252859 C340.246984,152.49466 336.248733,150.177107 331.92,150.178212 C331.098263,150.178722 330.278635,150.261418 329.473334,150.425068 C329.316408,143.67711 323.764154,138.311278 317.01999,138.389854 C310.275826,138.46843 304.849905,143.962169 304.85,150.711953 C304.85,150.785343 304.85,150.858732 304.85,150.932122 C302.948129,150.481444 300.944769,150.928033 299.413848,152.143949 C297.882926,153.359866 296.993362,155.210947 297,157.166891 C297.001934,157.45942 297.02421,157.75146 297.066667,158.040893 C291.67426,158.674908 287.712933,163.409537 288.036795,168.833513 C288.360658,174.257491 292.857188,178.486333 298.286667,178.473189 C303.953333,178.473189 347.62,178.579937 353.13,178.579937 C358.090432,178.657257 362.707484,176.053146 365.210271,171.76642 C367.713059,167.479694 367.713059,162.175809 365.210271,157.889083 C362.707484,153.602357 358.090432,150.998246 353.13,151.075565 L353.14,151.075565 Z" fill="#FFFFFF" opacity="0.9"></path>
                                    <path d="M60.6266666,173.569438 C60.6266666,173.569438 60.6266666,173.219171 60.6266666,173.035697 C60.6266666,110.371095 111.39,59.5789081 174.006667,59.5789081 C236.623333,59.5789081 287.386667,110.367759 287.386667,173.032361 C287.386667,173.215834 287.386667,173.569438 287.386667,173.569438 L318.746667,173.569438 C318.73,93.5081952 253.933333,28.7419861 174,28.7419861 C94.0666664,28.7419861 29.2766666,93.5081952 29.2666667,173.569438 L60.6266666,173.569438 Z" fill="#F6FC5E"></path>
                                    <path d="M75.18,173.569438 C75.18,173.569438 75.18,173.23585 75.18,173.042369 C75.18,117.896851 119.846667,73.1993271 174.953333,73.1993271 C230.06,73.1993271 274.726667,117.900188 274.726667,173.039032 C274.726667,173.219171 274.726667,173.569438 274.726667,173.569438 L303.953333,173.569438 C303.64,102.515086 246.01,45.0544644 174.953333,45.0544644 C103.896666,45.0544644 46.2633333,102.515086 45.9533333,173.569438 L75.18,173.569438 Z" fill="#82E844"></path>
                                    <path d="M196.853333,54.2047972 C195.758724,54.2026795 194.678026,54.4502435 193.693334,54.9286843 C193.348922,51.7948244 190.630552,49.4681312 187.483564,49.6136509 C184.336576,49.7591705 181.844179,52.3268143 181.79,55.4791053 C181.79036,56.0311573 181.86892,56.5803706 182.023333,57.1103531 C181.387309,56.8864373 180.717558,56.7735982 180.043333,56.7767647 C176.905435,56.7767647 174.361667,59.3224808 174.361667,62.4627808 C174.361667,65.6030809 176.905435,68.148797 180.043333,68.148797 L196.853333,68.148797 C199.394877,68.2274689 201.777738,66.9154521 203.071748,64.7249028 C204.365756,62.5343535 204.365756,59.8125689 203.071748,57.6220196 C201.777738,55.4314704 199.394877,54.1194535 196.853333,54.1981255 L196.853333,54.2047972 Z" fill="#FFFFFF" opacity="0.9"></path>
                                    <path d="M93.2333337,173.569438 C93.2333337,173.569438 93.2333337,173.212499 93.2333337,173.029025 C93.2333337,128.118004 129.613333,91.7168253 174.49,91.7168253 C219.366667,91.7168253 255.736666,128.114668 255.736666,173.025689 C255.736666,173.209162 255.736666,173.569438 255.736666,173.569438 L287.766666,173.569438 C287.766666,110.854799 237.043333,60.2260698 174.49,60.2260698 C111.936667,60.2260698 61.2166667,110.854799 61.2066667,173.569438 L93.2333337,173.569438 Z" fill="#03DBD9"></path>
                                    <path d="M109.036666,173.569438 C109.036666,173.569438 109.036666,173.212499 109.036666,173.029025 C109.03,136.851351 138.333333,107.518913 174.483333,107.518913 C210.633333,107.518913 239.933334,136.848015 239.933334,173.025689 C239.933334,173.209162 239.933334,173.569438 239.933334,173.569438 L269.226667,173.569438 C269.226667,121.196042 226.803333,78.7802628 174.49,78.7802628 C122.176667,78.7802628 79.7566667,121.196042 79.7466666,173.569438 L109.036666,173.569438 Z" fill="#4D81EE"></path>
                                    <path d="M240.04,137.485169 C242.461133,137.485489 244.749936,138.590851 246.256667,140.487466 C247.761897,137.86427 250.779584,136.504262 253.74,137.114886 C253.855789,133.226812 257.061946,130.147901 260.948516,130.192462 C264.835085,130.237023 267.969917,133.388636 267.996667,137.278344 C267.996667,137.321711 267.996667,137.365077 267.996667,137.408443 C268.270786,137.34302 268.551529,137.309439 268.833334,137.308367 C270.879168,137.308366 272.53816,138.967136 272.54,141.014535 C272.538676,141.184288 272.525309,141.353733 272.5,141.52159 C275.623864,141.886407 277.91979,144.628439 277.732096,147.770299 C277.544402,150.912158 274.938379,153.3609 271.793333,153.350638 C268.516667,153.350638 243.24,153.41402 240.043333,153.41402 C235.648988,153.41402 232.086667,149.848973 232.086667,145.451263 C232.086667,141.053553 235.648988,137.488505 240.043333,137.488505 L240.04,137.485169 Z" fill="#FFFFFF" opacity="0.9"></path>
                                    <path d="M118.59,173.569438 C118.59,173.569438 118.59,173.212499 118.59,173.029025 C118.827099,142.30216 143.784057,117.518222 174.488334,117.518222 C205.19261,117.518222 230.149568,142.30216 230.386667,173.029025 C230.386667,173.212499 230.386667,173.572774 230.386667,173.572774 L250.77,173.572774 C250.77,173.572774 250.77,173.215834 250.77,173.032361 C250.77,130.870109 216.62,96.6973015 174.49,96.6973015 C132.36,96.6973015 98.1999996,130.870109 98.1999996,173.025689 C98.1999996,173.209162 98.1999996,173.569438 98.1999996,173.569438 L118.59,173.569438 Z" fill="#CB419C"></path>
                                    <path d="M210.463333,156.890013 C209.67804,156.888491 208.902771,157.066483 208.196667,157.410411 C208.046122,155.792032 206.993229,154.398365 205.47835,153.812296 C203.963471,153.226226 202.247645,153.548746 201.048497,154.644962 C199.849348,155.741179 199.373511,157.422197 199.82,158.984949 C199.364588,158.82074 198.884068,158.737206 198.4,158.738093 C196.91515,158.695606 195.524558,159.464101 194.769607,160.744388 C194.014655,162.024675 194.014655,163.614422 194.769607,164.894709 C195.524558,166.174996 196.91515,166.943491 198.4,166.901004 L210.463333,166.901004 C213.224757,166.901004 215.463333,164.660714 215.463333,161.897176 C215.463333,159.133639 213.224757,156.893348 210.463333,156.893348 L210.463333,156.890013 Z" fill="#FFFFFF" opacity="0.9"></path>
                                </g>
                                <polygon id="Shape" fill="#FFFFFF" points="332.156667 139.732233 329.723334 142.677821 332.156667 145.626743 329.21 143.191546 326.266667 145.626743 328.7 142.677821 326.266667 139.732233 329.21 142.16743"></polygon>
                                <polygon id="Shape" fill="#FFFFFF" points="354.43 72.0237735 356.18 74.188763 354.43 76.3537524 356.55 74.565718 358.666667 76.3537524 356.916667 74.188763 358.666667 72.0237735 356.55 73.8118079"></polygon>
                                <polygon id="Shape" fill="#FFFFFF" points="193.71 146.414011 191.92 148.579001 193.71 150.743991 191.543333 148.955956 189.38 150.743991 191.17 148.579001 189.38 146.414011 191.543333 148.202046"></polygon>
                                <polygon id="Shape" fill="#FFFFFF" points="332.296667 87.2654326 328.92 91.3585636 332.3 95.4450233 328.21 92.0657713 324.123334 95.4450233 327.5 91.3585636 324.123334 87.2654326 328.21 90.6446843"></polygon>
                                <polygon id="Shape" fill="#FFFFFF" points="298.443333 28.7840307 296.6 31.0190737 298.443333 33.2541167 296.21 31.4060364 293.976667 33.2541167 295.823334 31.0190737 293.976667 28.7840307 296.21 30.632111"></polygon>
                                <polygon id="Shape" fill="#FFFFFF" points="317.396667 84.640091 315.59 86.8250958 317.396667 89.0101006 315.21 87.2053867 313.026667 89.0101006 314.83 86.8250958 313.026667 84.640091 315.21 86.4448048"></polygon>
                                <polygon id="Shape" fill="#FFFFFF" points="291.396667 124.670712 289.59 126.855718 291.396667 129.040722 289.21 127.236008 287.026667 129.040722 288.83 126.855718 287.026667 124.670712 289.21 126.475427"></polygon>
                                <polygon id="Shape" fill="#FFFFFF" points="169.906667 54.4169719 167.816667 56.9489087 169.906667 59.4775096 167.376667 57.3859097 164.85 59.4775096 166.936667 56.9489087 164.85 54.4169719 167.376667 56.5085719"></polygon>
                                <polygon id="Shape" fill="#FFFFFF" points="228.633333 43.9422927 225.333333 47.9420189 228.633333 51.9350734 224.64 48.6325471 220.646667 51.9350734 223.946667 47.9420189 220.646667 43.9422927 224.64 47.2448189"></polygon>
                                <polygon id="Shape" fill="#FFFFFF" points="339.576667 148.759138 338.263334 150.350356 339.576667 151.944909 337.986667 150.627234 336.393334 151.944909 337.71 150.350356 336.393334 148.759138 337.986667 150.076813"></polygon>
                                <polygon id="Shape" fill="#FFFFFF" points="328.576667 54.6871786 327.263333 56.2817317 328.576667 57.8729489 326.986667 56.5552743 325.393333 57.8729489 326.71 56.2817317 325.393333 54.6871786 326.986667 56.0048532"></polygon>
                                <polygon id="Shape" fill="#FFFFFF" points="175.91 112.731579 174.596667 114.322797 175.91 115.91735 174.32 114.599675 172.726667 115.91735 174.043334 114.322797 172.726667 112.731579 174.32 114.049254"></polygon>
                                <polygon id="Shape" fill="#FFFFFF" points="272.91 139.085072 271.596666 140.676289 272.91 142.270842 271.32 140.953167 269.726666 142.270842 271.043333 140.676289 269.726666 139.085072 271.32 140.402746"></polygon>
                                <polygon id="Shape" fill="#FFFFFF" points="228.676667 88.7432297 227.003333 90.768112 228.676667 92.7963302 226.65 91.1217158 224.626667 92.7963302 226.3 90.768112 224.626667 88.7432297 226.65 90.417844"></polygon>
                                <circle id="Oval" fill="#FFFFFF" cx="320.403333" cy="138.954972" r="1"></circle>
                                <circle id="Oval" fill="#FFFFFF" cx="172.07" cy="49.88684" r="1"></circle>
                                <circle id="Oval" fill="#FFFFFF" cx="249.736667" cy="30.5387063" r="1"></circle>
                                <circle id="Oval" fill="#FFFFFF" cx="276.07" cy="147.961862" r="1"></circle>
                                <circle id="Oval" fill="#FFFFFF" cx="321.07" cy="91.9189924" r="1"></circle>
                                <circle id="Oval" fill="#FFFFFF" cx="233.403333" cy="112.60148" r="1"></circle>
                                <circle id="Oval" fill="#FFFFFF" cx="167.403333" cy="150.296982" r="1"></circle>
                                <circle id="Oval" fill="#FFFFFF" cx="293.736667" cy="83.9128681" r="1"></circle>
                                <circle id="Oval" fill="#FFFFFF" cx="247.403333" cy="139.62215" r="1"></circle>
                                <circle id="Oval" fill="#FFFFFF" cx="197.736667" cy="143.291623" r="1"></circle>
                                <circle id="Oval" fill="#FFFFFF" cx="184.736667" cy="103.261002" r="1"></circle>
                                <circle id="Oval" fill="#FFFFFF" cx="171.07" cy="64.5647345" r="1"></circle>
                                <circle id="Oval" fill="#FFFFFF" cx="333.736666" cy="54.2234906" r="1"></circle>
                                <circle id="Oval" fill="#FFFFFF" cx="289.736666" cy="35.8761225" r="1"></circle>
                                <circle id="Oval" fill="#FFFFFF" cx="344.736667" cy="159.971049" r="1"></circle>
                                <circle id="Oval" fill="#FFFFFF" cx="336.736667" cy="142.624446" r="1"></circle>
                                <circle id="Oval" fill="#FFFFFF" cx="176.403333" cy="64.5647345" r="1"></circle>
                                <circle id="Oval" fill="#FFFFFF" cx="155.07" cy="30.5387063" r="1"></circle>
                                <circle id="Oval" fill="#FFFFFF" cx="242.403333" cy="77.2410978" r="1"></circle>
                                <circle id="Oval" fill="#FFFFFF" cx="177.07" cy="79.9098059" r="1"></circle>
                                <circle id="Oval" fill="#FFFFFF" cx="234.07" cy="46.8845433" r="1"></circle>
                                <circle id="Oval" fill="#FFFFFF" cx="327.736667" cy="50.2204284" r="1"></circle>
                                <path d="M351.766667,69.5685621 C351.770332,69.7647841 351.931604,69.9212368 352.127695,69.9188025 C352.323786,69.9163683 352.48113,69.7559605 352.479931,69.5597079 C352.478732,69.3634553 352.319439,69.2049849 352.123333,69.2049506 C352.027854,69.2058313 351.936636,69.244636 351.869746,69.3128272 C351.802858,69.3810185 351.765779,69.4730098 351.766667,69.5685621 Z" id="Shape" fill="#FFFFFF"></path>
                                <circle id="Oval" fill="#FFFFFF" cx="334.07" cy="41.2135386" r="1"></circle>
                                <circle id="Oval" fill="#FFFFFF" cx="309.403334" cy="81.5777485" r="1"></circle>
                                <circle id="Oval" fill="#FFFFFF" cx="286.07" cy="81.24416" r="1"></circle>
                                <circle id="Oval" fill="#FFFFFF" cx="336.736667" cy="91.2518153" r="1"></circle>
                                <polygon id="Shape" fill="#FFFFFF" points="383.946667 36.9536134 381.41 40.0226277 383.946667 43.091642 380.876667 40.5563693 377.81 43.091642 380.343333 40.0226277 377.81 36.9536134 380.876667 39.4922219"></polygon>
                                <circle id="Oval" fill="#FFFFFF" cx="388.07" cy="32.8738259" r="1"></circle>
                                <circle id="Oval" fill="#FFFFFF" cx="373.736667" cy="173.981767" r="1"></circle>
                                <circle id="Oval" fill="#FFFFFF" cx="380.736666" cy="50.5540169" r="1"></circle>
                                <circle id="Oval" fill="#FFFFFF" cx="349.07" cy="132.616791" r="1"></circle>
                                <circle id="Oval" fill="#FFFFFF" cx="290.736666" cy="28.8707637" r="1"></circle>
                                <circle id="Oval" fill="#FFFFFF" cx="227.07" cy="83.5792796" r="1"></circle>
                                <circle id="Oval" fill="#FFFFFF" cx="234.736667" cy="119.940428" r="1"></circle>
                                <circle id="Oval" fill="#FFFFFF" cx="263.736666" cy="131.949613" r="1"></circle>
                                <circle id="Oval" fill="#FFFFFF" cx="225.07" cy="111.934303" r="1"></circle>
                                <circle id="Oval" fill="#FFFFFF" cx="175.403334" cy="110.266361" r="1"></circle>
                                <circle id="Oval" fill="#FFFFFF" cx="252.736667" cy="136.286264" r="1"></circle>
                                <circle id="Oval" fill="#FFFFFF" cx="199.403333" cy="151.297747" r="1"></circle>
                                <circle id="Oval" fill="#FFFFFF" cx="239.403334" cy="29.2043522" r="1"></circle>
                                <circle id="Oval" fill="#FFFFFF" cx="166.736667" cy="35.2089454" r="1"></circle>
                                <circle id="Oval" fill="#FFFFFF" cx="225.07" cy="36.5432994" r="1"></circle>
                            </g>
                        </g>
                    </g>
                </g>
            </g>
        </g>
    </g>
</svg>