<?xml version="1.0" encoding="UTF-8"?>
<svg width="240px" height="160px" viewBox="0 0 240 160" version="1.1" xmlns="http://www.w3.org/2000/svg" xmlns:xlink="http://www.w3.org/1999/xlink">
    <!-- Generator: Sketch 51.3 (57544) - http://www.bohemiancoding.com/sketch -->
    <title>Illustration-rainbow-5</title>
    <desc>Created with Sketch.</desc>
    <defs>
        <rect id="path-1" x="0" y="0" width="240" height="160"></rect>
        <radialGradient cx="50%" cy="4.574%" fx="50%" fy="4.574%" r="115.247519%" gradientTransform="translate(0.500000,0.045740),scale(0.569227,1.000000),translate(-0.500000,-0.045740)" id="radialGradient-3">
            <stop stop-color="#C2FFFF" offset="0%"></stop>
            <stop stop-color="#91E1E8" offset="100%"></stop>
        </radialGradient>
    </defs>
    <g id="components" stroke="none" stroke-width="1" fill="none" fill-rule="evenodd">
        <g id="Illustration-rainbow-5">
            <g id="Mask" fill="#D8D8D8" fill-rule="nonzero">
                <rect id="path-1" x="0" y="0" width="240" height="160"></rect>
            </g>
            <g id="298366-P7PM1L-759-Clipped">
                <mask id="mask-2" fill="white">
                    <use xlink:href="#path-1"></use>
                </mask>
                <g id="path-1"></g>
                <g id="298366-P7PM1L-759" mask="url(#mask-2)">
                    <g transform="translate(-99.417476, -64.466019)" id="BACKGROUND_2">
                        <g>
                            <g id="Group">
                                <rect id="Rectangle-path" fill="url(#radialGradient-3)" fill-rule="nonzero" x="0" y="0" width="683.996075" height="389.349035"></rect>
                                <g transform="translate(0.000000, 0.607409)">
                                    <path d="M208.230031,204.077205 C206.501957,204.073629 204.820414,204.636944 203.443273,205.680765 C202.828713,202.334996 200.459128,199.5798 197.24282,198.471293 C194.026513,197.362786 190.462405,198.072922 187.916683,200.329494 C186.975299,195.892111 183.348505,192.523836 178.85344,191.912283 C174.358375,191.30073 169.963432,193.577648 167.870617,197.602228 C163.752964,193.284128 157.233695,192.302036 152.026489,195.215397 C146.819285,198.128757 144.245824,204.19811 145.772071,209.966067 C147.298318,215.734024 152.536884,219.736577 158.503637,219.693686 L208.230031,219.693686 C211.071797,219.772947 213.732287,218.302283 215.176545,215.853797 C216.620805,213.40531 216.620805,210.365582 215.176545,207.917095 C213.732287,205.468608 211.071797,203.997945 208.230031,204.077205 Z" id="Shape" fill="#FFFEF3" fill-rule="nonzero" opacity="0.7"></path>
                                    <path d="M384.32561,89.1433142 C381.912283,89.1347581 379.56355,89.9225895 377.643588,91.3846524 C376.790315,86.7304023 373.495709,82.8967161 369.022475,81.3529111 C364.549241,79.809106 359.591167,80.7946229 356.048508,83.9317468 C354.723515,77.7749274 349.684377,73.1070699 343.44392,72.2558562 C337.203462,71.4046426 331.098093,74.5523621 328.172326,80.1293678 C322.423349,74.1381489 313.350886,72.7905181 306.108441,76.851981 C298.865996,80.9134439 295.285103,89.3569017 297.399845,97.3861491 C299.514588,105.415397 306.790171,110.999926 315.093787,110.967512 L384.343834,110.967512 C388.405233,111.221135 392.271501,109.198545 394.378979,105.717751 C396.486458,102.236958 396.486458,97.873868 394.378979,94.393075 C392.271501,90.9122812 388.405233,88.8896917 384.343834,89.1433142 L384.32561,89.1433142 Z" id="Shape" fill="#FFFEF3" fill-rule="nonzero" opacity="0.7"></path>
                                    <path d="M661.975776,226.138293 C661.975776,137.08609 589.797788,64.9562962 500.689987,64.9562962 C411.582186,64.9562962 339.398123,137.08609 339.398123,226.375183 L378.093106,226.375183 C378.093106,226.375183 379.253348,99.2931153 502.014242,95.5514773 C624.775136,91.8098392 631.797334,226.277997 631.797334,226.277997 L661.975776,226.138293 Z" id="Shape" fill="#FF9C37" fill-rule="nonzero"></path>
                                    <path d="M230.499388,145.589814 L260.556338,145.589814 C260.556338,145.589814 347.853918,151.791457 342.356437,372.438774 L313.976067,372.481293 C306.03661,336.601656 274.746523,158.345398 230.499388,145.589814 Z" id="Shape" fill="#FF735E" fill-rule="nonzero"></path>
                                    <path d="M218.757253,145.589814 L248.826352,145.589814 C248.826352,145.589814 336.130008,151.791457 330.632526,372.438774 L302.246081,372.481293 C294.294475,336.601656 262.986164,158.345398 218.757253,145.589814 Z" id="Shape" fill="#FF9C37" fill-rule="nonzero"></path>
                                    <path d="M203.109172,145.589814 L233.172197,145.589814 C233.172197,145.589814 320.475852,151.791457 314.97837,372.438774 L286.591925,372.481293 C278.640319,336.601656 247.350232,158.345398 203.109172,145.589814 Z" id="Shape" fill="#FFDE5B" fill-rule="nonzero"></path>
                                    <path d="M187.455017,145.589814 L217.524116,145.589814 C217.524116,145.589814 304.821697,151.791457 299.324215,372.438774 L270.93777,372.481293 C262.986164,336.601656 231.702152,158.345398 187.455017,145.589814 Z" id="Shape" fill="#9AEA8F" fill-rule="nonzero"></path>
                                    <path d="M169.036934,145.589814 L198.802305,145.589814 C198.802305,145.589814 281.908436,147.363447 283.554643,372.438774 L250.199204,372.475219 C242.229374,336.589508 213.284069,158.345398 169.036934,145.589814 Z" id="Shape" fill="#79D6FF" fill-rule="nonzero"></path>
                                    <path d="M161.12785,145.589814 L183.700935,145.589814 C183.700935,145.589814 260.374101,141.605212 261.935264,372.438774 L227.273793,372.438774 C219.322187,336.565212 205.36891,158.345398 161.12785,145.589814 Z" id="Shape" fill="#9397D4" fill-rule="nonzero"></path>
                                    <path d="M158.163462,145.589814 L167.202416,145.589814 C167.202416,145.589814 236.944502,142.321954 232.613337,372.359811 L192.58195,372.69996 C193.918354,220.301094 191.561423,167.45653 158.163462,145.589814 Z" id="Shape" fill="#F595B0" fill-rule="nonzero"></path>
                                    <path d="M260.653531,145.589814 L158.163462,145.589814 C191.573572,167.45653 193.918354,220.26465 192.606249,372.651368 L342.490078,372.487367 C347.98756,151.846123 260.653531,145.589814 260.653531,145.589814 Z" id="Shape" fill="#F5708F" fill-rule="nonzero" opacity="0.7" style="mix-blend-mode: multiply;"></path>
                                    <path d="M478.843096,191.679992 C474.93508,191.673001 471.167014,193.13415 468.285501,195.773928 C468.453824,194.715189 468.539127,193.644915 468.540633,192.572883 C468.544142,184.521437 463.787037,177.229372 456.416362,173.987845 C449.045687,170.746319 440.455586,172.168459 434.523066,177.612405 C437.909828,162.628967 428.507909,147.737195 413.523293,144.350699 C398.538677,140.964204 383.645734,150.365383 380.258972,165.348821 C374.723522,159.424053 366.209035,157.331136 358.557336,160.014415 C350.905637,162.697695 345.563538,169.649807 344.941449,177.733887 C347.802569,192.979847 335.878197,203.372611 322.222574,210.290998 C322.186127,210.655443 322.161828,211.032037 322.161828,211.40863 C322.147815,217.924974 327.375656,223.241738 333.891814,223.338138 L478.843096,223.338138 C487.585939,223.338138 494.673414,216.251221 494.673414,207.509066 C494.673414,198.76691 487.585939,191.679992 478.843096,191.679992 Z" id="Shape" fill="#F5708F" fill-rule="nonzero" opacity="0.16" style="mix-blend-mode: multiply;"></path>
                                    <path d="M0.170087834,128.266514 C0.139715007,57.479094 57.5686572,0.0668149671 128.34342,0.0364445275 C199.118183,0.00607408791 256.632169,57.3879826 256.662541,128.163255 L234.563272,128.163255 C234.563272,128.163255 215.076066,17.7910035 124.540742,21.0345664 C34.0054177,24.2781294 24.2192927,128.466959 24.2192927,128.466959 L0.170087834,128.266514 Z" id="Shape" fill="#FF735E" fill-rule="nonzero"></path>
                                    <path d="M241.536874,128.163255 C241.536874,65.703409 190.868923,15.1001825 128.41024,15.130553 C98.401068,15.0917187 69.6115068,27.0025912 48.4026311,48.2314546 C27.1937553,69.460318 15.3113351,98.2597569 15.3801968,128.266514 L42.5098094,128.266514 C42.5098094,128.266514 43.2812792,39.2386079 129.345723,36.5720833 C215.410167,33.9055588 220.379162,128.23007 220.379162,128.23007 L241.536874,128.163255 Z" id="Shape" fill="#FF9C37" fill-rule="nonzero"></path>
                                    <path d="M226.824276,128.169329 C226.827501,102.062494 216.455136,77.0244443 197.990516,58.5669722 C179.525896,40.1095 154.482679,29.7456758 128.373793,29.7569567 C73.9942823,29.7569567 29.9658316,74.1828357 30.0083536,128.26044 L54.8533264,128.26044 C54.8533264,128.26044 61.6811381,51.2410057 132.328335,51.2045612 C202.975532,51.1681166 207.452486,128.387996 207.452486,128.387996 L226.824276,128.169329 Z" id="Shape" fill="#FFDE5B" fill-rule="nonzero"></path>
                                    <path d="M213.277995,128.175403 C212.862954,81.6396505 175.006501,44.1397194 128.465243,44.161395 C81.923986,44.1830707 44.1024851,81.718247 43.730797,128.254367 L66.2856587,128.254367 C66.2856587,128.254367 78.2039565,68.120896 128.47706,68.0662292 C178.750165,68.0115624 189.975961,128.248292 189.975961,128.248292 L213.277995,128.175403 Z" id="Shape" fill="#9AEA8F" fill-rule="nonzero"></path>
                                    <path d="M197.988313,128.181477 C197.969862,89.7978454 166.836375,58.6967204 128.449725,58.7151709 C90.063075,58.7336213 58.9595045,89.8646602 58.9779401,128.248292 L80.4697693,128.248292 C80.4697693,128.248292 85.0196186,80.8704062 128.458837,80.8704062 C171.898054,80.8704062 178.707643,128.248292 178.707643,128.248292 L197.988313,128.181477 Z" id="Shape" fill="#79D6FF" fill-rule="nonzero"></path>
                                    <path d="M128.452762,73.0409072 C113.805368,73.0068799 99.7487969,78.8133476 89.3960583,89.1743922 C79.0433204,99.5354369 73.2487779,113.596011 73.295145,128.242218 L87.0181507,128.242218 C87.0080862,105.346895 105.561713,86.7784101 128.458837,86.7683456 C151.35596,86.7582819 169.925905,105.31045 169.93597,128.205774 L183.658413,128.205774 C183.694055,113.557925 177.888039,99.5002757 167.52618,89.1460722 C157.164322,78.7918687 143.101737,72.9955944 128.452762,73.0409072 Z" id="Shape" fill="#9397D4" fill-rule="nonzero"></path>
                                    <path d="M129.029845,84.1747107 C117.328081,84.1144629 106.088687,88.7384629 97.8176047,97.0157421 C89.5465219,105.293021 84.9314602,116.535353 84.999846,128.236144 L97.7579829,128.236144 C97.7579829,110.208251 110.733254,97.4283705 129.011622,97.4162221 C147.28999,97.4040738 159.827893,110.171807 159.833967,128.211848 L173.082595,128.211848 C173.14443,116.511518 168.522639,105.272693 160.247351,97.0003363 C151.972061,88.7279798 140.731077,84.109652 129.029845,84.1747107 Z" id="Shape" fill="#F595B0" fill-rule="nonzero"></path>
                                    <path d="M128.610701,0.668149671 C57.8116398,0.668149671 0.388772192,58.104725 0.43730711,128.89822 L98.0495619,128.861775 C98.0495619,110.833882 111.024833,98.047927 129.303202,98.0418532 C147.581569,98.0357786 160.113397,110.797438 160.119472,128.837479 L256.911598,128.79496 C256.875151,58.0196878 199.403687,0.637779231 128.610701,0.668149671 Z" id="Shape" fill="#F5708F" fill-rule="nonzero" opacity="0.4" style="mix-blend-mode: multiply;"></path>
                                    <path d="M248.929619,123.328281 C247.834976,117.31989 243.58321,112.369657 237.808569,110.380294 C232.033926,108.390932 225.635125,109.672048 221.071662,113.731222 C219.364937,105.802228 212.875059,99.7909763 204.838244,98.6950089 C196.801428,97.5990423 188.938751,101.653061 185.17098,108.835508 C180.918784,104.462164 174.923188,101.45549 168.32621,101.740972 C155.150478,102.311937 153.309884,106.660984 152.064598,106.861428 C153.212691,108.331358 158.947081,115.711375 158.898485,117.448564 C158.831664,119.720273 161.595591,145.267887 161.468026,147.630707 C163.636645,148.286708 256.838704,147.630707 256.838704,147.630707 C256.729362,137.966833 256.692914,128.977183 256.510677,120.728572 C253.78043,120.81708 251.139547,121.722696 248.929619,123.328281 Z" id="Shape" fill="#F5708F" fill-rule="nonzero" opacity="0.3" style="mix-blend-mode: multiply;"></path>
                                    <path d="M259.468991,124.330506 C256.369093,124.326412 253.353574,125.340042 250.88563,127.215697 C249.781833,121.217342 245.530005,116.279763 239.761603,114.297542 C233.993201,112.31532 227.60412,113.596318 223.045896,117.649009 C221.325504,109.726023 214.830209,103.726764 206.795238,102.63939 C198.760266,101.552015 190.903837,105.609051 187.139139,112.789738 C179.791899,105.010154 168.104467,103.202195 158.749699,108.398104 C149.394931,113.594014 144.75424,124.471085 147.477195,134.819132 C150.200151,145.167179 159.59358,152.351933 170.294369,152.27131 L259.468991,152.27131 C267.185237,152.27131 273.440492,146.016548 273.440492,138.300908 C273.440492,130.585268 267.185237,124.330506 259.468991,124.330506 Z" id="Shape" fill="#FFFEF3" fill-rule="nonzero"></path>
                                    <path d="M264.116033,145.705221 C246.967535,146.859298 229.679322,148.80908 212.482227,148.043744 C197.951866,147.393817 181.465495,145.77811 171.636848,133.654231 C165.421711,126.123728 162.446424,116.436238 163.36329,106.71565 C152.228509,110.101539 145.264099,121.143373 147.00595,132.649656 C148.7478,144.155939 158.668405,152.642077 170.306518,152.581088 L259.48114,152.581088 C264.69224,152.603371 269.496297,149.767801 271.994745,145.194997 C269.362433,145.365072 266.736196,145.535146 264.116033,145.705221 Z" id="Shape" fill="#F4F2E1" fill-rule="nonzero" opacity="0.5" style="mix-blend-mode: multiply;"></path>
                                    <path d="M207.707618,137.371572 C204.688217,137.371572 202.24051,134.924057 202.24051,131.904893 C202.21653,131.656575 202.335486,131.416148 202.54744,131.284544 C202.759393,131.15294 203.027656,131.15294 203.23961,131.284544 C203.451564,131.416148 203.57052,131.656575 203.546541,131.904893 C203.631904,134.136026 205.465565,135.90074 207.698506,135.90074 C209.931447,135.90074 211.765109,134.136026 211.850471,131.904893 C211.826492,131.656575 211.945449,131.416148 212.157402,131.284544 C212.369356,131.15294 212.637619,131.15294 212.849573,131.284544 C213.061527,131.416148 213.180483,131.656575 213.156503,131.904893 C213.15652,134.916955 210.7199,137.361532 207.707618,137.371572 Z" id="Shape" fill="#212121" fill-rule="nonzero"></path>
                                    <path d="M217.7428,129.645333 C217.569358,129.64534 217.403106,129.576033 217.281035,129.45283 C217.158965,129.329629 217.091201,129.162753 217.092822,128.989331 C217.040488,128.137058 216.33397,127.472642 215.480025,127.472642 C214.626079,127.472642 213.919562,128.137058 213.867227,128.989331 C213.867227,129.348276 213.576222,129.639258 213.217249,129.639258 C212.858276,129.639258 212.567271,129.348276 212.567271,128.989331 C212.567271,127.379111 213.872715,126.073769 215.483062,126.073769 C217.093409,126.073769 218.398854,127.379111 218.398854,128.989331 C218.398854,129.163313 218.329734,129.33017 218.2067,129.453194 C218.083666,129.576218 217.916796,129.645333 217.7428,129.645333 Z" id="Shape" fill="#212121" fill-rule="nonzero"></path>
                                    <path d="M202.289106,129.645333 C202.115663,129.64534 201.949411,129.576033 201.827341,129.45283 C201.70527,129.329629 201.637506,129.162753 201.639127,128.989331 C201.586793,128.137058 200.880276,127.472642 200.02633,127.472642 C199.172384,127.472642 198.465867,128.137058 198.413533,128.989331 C198.437512,129.23765 198.318556,129.478076 198.106603,129.60968 C197.894649,129.741284 197.626386,129.741284 197.414432,129.60968 C197.202478,129.478076 197.083522,129.23765 197.107501,128.989331 C197.107501,127.379111 198.412946,126.073769 200.023292,126.073769 C201.63364,126.073769 202.939084,127.379111 202.939084,128.989331 C202.940705,129.162753 202.872942,129.329629 202.750871,129.45283 C202.6288,129.576033 202.462548,129.64534 202.289106,129.645333 Z" id="Shape" fill="#212121" fill-rule="nonzero"></path>
                                    <path d="M222.57208,132.421191 C222.57208,133.247267 221.563702,133.915416 220.318416,133.915416 C219.07313,133.915416 218.064753,133.247267 218.064753,132.421191 C218.064753,131.595115 219.07313,130.926965 220.318416,130.926965 C221.563702,130.926965 222.57208,131.619411 222.57208,132.421191 Z" id="Shape" fill="#F595B0" fill-rule="nonzero"></path>
                                    <path d="M196.165944,132.421191 C196.165944,133.247267 195.157566,133.915416 193.91228,133.915416 C192.666994,133.915416 191.652541,133.247267 191.652541,132.421191 C191.652541,131.595115 192.666994,130.926965 193.91228,130.926965 C195.157566,130.926965 196.165944,131.619411 196.165944,132.421191 Z" id="Shape" fill="#F595B0" fill-rule="nonzero"></path>
                                    <path d="M234.283842,117.466786 C229.545681,121.153758 238.64538,136.502978 245.825517,128.466959 C249.330541,124.585617 241.415382,111.91507 234.283842,117.466786 Z" id="Shape" fill="#FFFFFF" fill-rule="nonzero"></path>
                                    <path d="M363.969741,218.946573 C354.104647,217.968645 344.251702,216.693087 334.49595,214.913379 C327.267216,213.595302 319.698308,212.210409 313.842426,207.41188 C307.901501,202.55261 306.425382,195.573483 306.552948,188.393911 C300.562297,192.084173 297.93251,199.435389 300.22325,206.087729 C295.47566,208.635318 293.068215,214.08434 294.381758,219.309392 C295.695302,224.534443 300.393449,228.197447 305.781478,228.197409 L450.726686,228.197409 C456.963732,228.200712 462.606673,224.498718 465.086958,218.776499 C431.43994,221.339764 397.556014,222.263025 363.969741,218.946573 Z" id="Shape" fill="#F4F2E1" fill-rule="nonzero" opacity="0.5" style="mix-blend-mode: multiply;"></path>
                                    <g opacity="0.8" transform="translate(0.607456, 0.000000)">
                                        <path d="M105.598228,94.0792497 C105.719975,93.9464458 105.387939,93.3488264 105.155512,93.6033678 C104.923087,93.8579099 105.365803,94.3227247 105.598228,94.0792497 Z" id="_Path_2694" fill="#FFFFFF" fill-rule="nonzero"></path>
                                        <path d="M106.330927,164.676235 C106.209181,164.820106 106.541217,165.406659 106.773643,165.152117 C107.006069,164.897575 106.563353,164.43276 106.330927,164.676235 Z" id="_Path_2695" fill="#FFFFFF" fill-rule="nonzero"></path>
                                        <path d="M104.160916,106.903947 C103.917421,106.903947 103.66286,107.30236 104.160916,107.379829 C104.404409,107.379829 104.658971,106.992484 104.160916,106.903947 Z" id="_Path_2701" fill="#FFFFFF" fill-rule="nonzero"></path>
                                        <path d="M103.630343,152.459607 C103.630343,152.834183 103.332718,152.902288 103.267613,153.191733 C103.630343,153.191733 103.704749,153.498204 104.002373,153.566309 C104.002373,153.191733 104.309298,153.123628 104.374403,152.834183 C103.96517,152.834183 103.96517,152.527712 103.630343,152.459607 Z" id="_Path_2704" fill="#FFFFFF" fill-rule="nonzero"></path>
                                        <path d="M103.982913,178.584518 C103.766736,178.508127 103.217288,179.144715 103.271332,179.314471 C103.595597,180.290571 105.315999,179.085299 103.982913,178.584518 Z" id="_Path_2705" fill="#FFFFFF" fill-rule="nonzero"></path>
                                        <path d="M100.73437,101.982683 C100.845049,101.838812 100.513012,101.252259 100.291654,101.495734 C100.070296,101.739209 100.501944,102.226158 100.73437,101.982683 Z" id="_Path_2709" fill="#FFFFFF" fill-rule="nonzero"></path>
                                        <polygon id="_Path_2710" fill="#FFFFFF" fill-rule="nonzero" points="100.508306 105.437143 100.508306 104.474312 99.6228746 104.474312 99.6228746 105.437143"></polygon>
                                        <path d="M100.540497,163.392965 C100.009238,163.492569 100.2638,163.924183 100.540497,164.355797 C100.983212,164.300461 101.093892,163.503635 100.540497,163.392965 Z" id="_Path_2711" fill="#FFFFFF" fill-rule="nonzero"></path>
                                        <path d="M99.6532412,101.510046 C99.5204264,101.631783 99.8524637,102.218336 100.084889,101.974861 C100.317315,101.731386 99.8745988,101.255504 99.6532412,101.510046 Z" id="_Path_2713" fill="#FFFFFF" fill-rule="nonzero"></path>
                                        <path d="M99.012275,137.187009 C98.6225856,137.043137 98.4667099,136.51192 97.8786338,136.711126 C97.4251767,138.03917 99.0972979,138.028103 99.012275,137.187009 Z" id="_Path_2715" fill="#FFFFFF" fill-rule="nonzero"></path>
                                        <path d="M98.4339922,155.568286 C98.3122454,155.70109 98.6442819,156.287643 98.8767083,156.044169 C99.109134,155.800694 98.6553499,155.313744 98.4339922,155.568286 Z" id="_Path_2716" fill="#FFFFFF" fill-rule="nonzero"></path>
                                        <path d="M226.49204,96.5088854 C226.602719,96.3760808 226.270683,95.7784614 226.038256,96.0330027 C225.805831,96.2875449 226.259615,96.7523596 226.49204,96.5088854 Z" id="_Path_3142" fill="#FFFFFF" fill-rule="nonzero"></path>
                                        <path d="M225.999233,167.100682 C225.877486,167.222419 226.22059,167.820039 226.453016,167.576564 C226.685442,167.33309 226.231658,166.868274 225.999233,167.100682 Z" id="_Path_3143" fill="#FFFFFF" fill-rule="nonzero"></path>
                                        <path d="M223.230496,109.333582 C222.975935,109.333582 222.721373,109.720928 223.230496,109.820532 C223.47399,109.820532 223.728551,109.422119 223.230496,109.333582 Z" id="_Path_3149" fill="#FFFFFF" fill-rule="nonzero"></path>
                                        <path d="M222.698027,154.889242 C222.698027,155.255305 222.39366,155.331923 222.329097,155.629881 C222.698027,155.629881 222.771814,155.92784 223.066957,155.995945 C223.066957,155.629881 223.362101,155.561776 223.435887,155.255305 C223.066957,155.255305 222.993171,154.965859 222.698027,154.889242 Z" id="_Path_3152" fill="#FFFFFF" fill-rule="nonzero"></path>
                                        <path d="M223.061778,181.623051 C222.833991,181.537369 222.278189,182.17998 222.332858,182.359911 C222.624426,183.33668 224.373835,182.077163 223.061778,181.623051 Z" id="_Path_3153" fill="#FFFFFF" fill-rule="nonzero"></path>
                                        <path d="M221.621401,103.798616 C221.743149,103.654745 221.411111,103.068193 221.178686,103.322734 C220.946259,103.577275 221.400043,104.042091 221.621401,103.798616 Z" id="_Path_3157" fill="#FFFFFF" fill-rule="nonzero"></path>
                                        <polygon id="_Path_3158" fill="#FFFFFF" fill-rule="nonzero" points="221.392159 107.866779 221.392159 106.903947 220.506728 106.903947 220.506728 107.866779"></polygon>
                                        <path d="M220.81345,165.215191 C220.282191,165.303727 220.547821,165.735341 220.81345,166.166955 C221.222962,166.155889 221.333641,165.325862 220.81345,165.215191 Z" id="_Path_3159" fill="#FFFFFF" fill-rule="nonzero"></path>
                                        <path d="M219.317881,103.333356 C219.196134,103.455094 219.528171,104.052713 219.749529,103.798172 C219.970887,103.54363 219.550307,103.078815 219.317881,103.333356 Z" id="_Path_3161" fill="#FFFFFF" fill-rule="nonzero"></path>
                                        <path d="M219.89611,139.627369 C219.512891,139.473589 219.356764,138.935362 218.760645,139.144062 C218.313555,140.462172 219.98127,140.462172 219.89611,139.627369 Z" id="_Path_3163" fill="#FFFFFF" fill-rule="nonzero"></path>
                                        <path d="M219.321497,157.390513 C219.188683,157.523317 219.531787,158.10987 219.753146,157.866395 C219.974503,157.62292 219.542855,157.135971 219.321497,157.390513 Z" id="_Path_3164" fill="#FFFFFF" fill-rule="nonzero"></path>
                                        <path d="M218.662341,95.8624746 C218.890626,94.3868707 217.263177,94.3868707 217.491462,95.8624746 L218.662341,95.8624746 Z" id="_Path_3169" fill="#FFFFFF" fill-rule="nonzero"></path>
                                        <path d="M216.280563,127.014795 C216.158816,127.147599 216.490853,127.745219 216.723278,127.501744 C216.955705,127.25827 216.501921,126.77132 216.280563,127.014795 Z" id="_Path_3172" fill="#FFFFFF" fill-rule="nonzero"></path>
                                        <path d="M217.139963,129.378072 L216.254532,129.378072 L216.254532,130.480588 C217.051421,130.531473 217.283846,130.11591 217.139963,129.378072 Z" id="_Path_3173" fill="#FFFFFF" fill-rule="nonzero"></path>
                                        <path d="M216.284214,165.26448 C216.1514,165.397285 216.494505,165.983837 216.715863,165.751429 C216.937221,165.519021 216.505573,165.065274 216.284214,165.26448 Z" id="_Path_3175" fill="#FFFFFF" fill-rule="nonzero"></path>
                                        <path d="M216.201624,163.422401 C215.536577,163.300663 215.105393,163.544138 215.039619,164.385232 C215.551193,164.274562 216.486644,164.872182 216.201624,163.422401 Z" id="_Path_3178" fill="#FFFFFF" fill-rule="nonzero"></path>
                                        <path d="M215.069302,167.100682 C214.936487,167.222419 215.279591,167.820039 215.50095,167.576564 C215.722308,167.33309 215.279591,166.868274 215.069302,167.100682 Z" id="_Path_3182" fill="#FFFFFF" fill-rule="nonzero"></path>
                                        <path d="M213.118038,89.8234936 C213.239785,89.6906897 212.907748,89.1041367 212.675322,89.3476117 C212.442896,89.5910858 212.885612,90.078035 213.118038,89.8234936 Z" id="_Path_3187" fill="#FFFFFF" fill-rule="nonzero"></path>
                                        <path d="M211.430645,154.781127 L212.143223,154.781127 C213.351901,154.005801 211.087885,152.736206 211.430645,154.781127 Z" id="_Path_3188" fill="#FFFFFF" fill-rule="nonzero"></path>
                                        <path d="M212.631776,165.26448 C212.521097,165.397285 212.853135,165.983837 213.074492,165.751429 C213.295851,165.519021 212.864203,165.065274 212.631776,165.26448 Z" id="_Path_3191" fill="#FFFFFF" fill-rule="nonzero"></path>
                                        <path d="M210.817106,149.48892 C210.684291,149.632791 211.027396,150.219344 211.248753,149.975869 C211.470112,149.732395 211.00526,149.245445 210.817106,149.48892 Z" id="_Path_3197" fill="#FFFFFF" fill-rule="nonzero"></path>
                                        <path d="M210.448349,159.616986 C210.70291,159.616986 210.957472,159.240707 210.448349,159.141104 C210.215922,159.141104 209.983497,159.52845 210.448349,159.616986 Z" id="_Path_3202" fill="#FFFFFF" fill-rule="nonzero"></path>
                                        <path d="M209.250899,154.889242 C209.007405,154.889242 208.752843,155.276588 209.250899,155.365124 C209.50546,155.365124 209.748954,154.988845 209.250899,154.889242 Z" id="_Path_3205" fill="#FFFFFF" fill-rule="nonzero"></path>
                                        <path d="M207.75014,181.615229 C207.849751,181.98044 207.75014,182.555926 208.192856,182.566993 C208.093245,182.146446 208.181788,181.615229 207.75014,181.615229 Z" id="_Path_3210" fill="#FFFFFF" fill-rule="nonzero"></path>
                                        <path d="M207.420659,174.326323 L206.535227,174.326323 L206.535227,175.430064 C207.332116,175.472515 207.586677,175.05649 207.420659,174.326323 Z" id="_Path_3213" fill="#FFFFFF" fill-rule="nonzero"></path>
                                        <path d="M205.598073,153.067015 C205.365647,153.067015 205.111085,153.454361 205.598073,153.542898 C205.852635,153.576099 206.107196,153.188753 205.598073,153.067015 Z" id="_Path_3217" fill="#FFFFFF" fill-rule="nonzero"></path>
                                        <path d="M204.743224,107.578787 C204.610409,107.711591 204.942447,108.298143 205.174872,108.054669 C205.407298,107.811194 204.964583,107.335312 204.743224,107.578787 Z" id="_Path_3222" fill="#FFFFFF" fill-rule="nonzero"></path>
                                        <path d="M204.743224,123.371415 C204.610409,123.504219 204.942447,124.090772 205.174872,123.847297 C205.407298,123.603823 204.964583,123.12794 204.743224,123.371415 Z" id="_Path_3223" fill="#FFFFFF" fill-rule="nonzero"></path>
                                        <path d="M203.363817,149.422563 C202.94051,149.488965 202.346077,149.334026 202.283031,149.887378 C202.508195,149.887378 202.715345,149.964847 202.6523,150.374327 C203.084614,150.318992 203.498916,150.230456 203.363817,149.422563 Z" id="_Path_3230" fill="#FFFFFF" fill-rule="nonzero"></path>
                                        <path d="M201.097801,86.3194788 C200.964986,86.4522827 201.308091,87.0388357 201.529449,86.7953608 C201.750807,86.5518866 201.319159,86.0760039 201.097801,86.3194788 Z" id="_Path_3237" fill="#FFFFFF" fill-rule="nonzero"></path>
                                        <polygon id="_Path_3239" fill="#FFFFFF" fill-rule="nonzero" points="201.346093 149.777985 201.346093 148.815154 200.460662 148.815154 200.460662 149.777985"></polygon>
                                        <path d="M199.240146,178.310505 C198.664656,178.011129 197.924443,177.902247 197.21996,178.013344 C197.228769,178.334625 197.087196,178.649416 196.815922,178.911735 C197.482584,179.395484 199.361357,179.264181 199.240146,178.310505 Z" id="_Path_3245" fill="#FFFFFF" fill-rule="nonzero"></path>
                                        <path d="M198.664323,110.621089 C198.542576,110.76496 198.874613,111.351512 199.107038,111.096971 C199.339465,110.842429 198.885681,110.366547 198.664323,110.621089 Z" id="_Path_3247" fill="#FFFFFF" fill-rule="nonzero"></path>
                                        <path d="M197.448808,71.7458729 C197.327061,71.8676103 197.670165,72.4652297 197.891523,72.2217551 C198.112882,71.9782805 197.681233,71.4913313 197.448808,71.7458729 Z" id="_Path_3252" fill="#FFFFFF" fill-rule="nonzero"></path>
                                        <path d="M196.231743,128.05514 L197.401473,128.05514 C197.629533,126.579536 195.996325,126.579536 196.231743,128.05514 Z" id="_Path_3255" fill="#FFFFFF" fill-rule="nonzero"></path>
                                        <path d="M194.993553,153.727003 L194.993553,154.875462 C196.355882,154.988972 196.721881,154.37468 197.423379,154.00744 C196.467715,154.020795 196.223716,153.513336 194.993553,153.727003 Z" id="_Path_3256" fill="#FFFFFF" fill-rule="nonzero"></path>
                                        <polygon id="_Path_3258" fill="#FFFFFF" fill-rule="nonzero" points="194.993553 65.6001495 194.993553 66.7068523 196.100343 66.7068523 196.100343 65.6001495"></polygon>
                                        <path d="M194.894341,172.43109 C195.016088,172.298285 194.684051,171.711733 194.451626,171.955207 C194.219199,172.198682 194.661915,172.663497 194.894341,172.43109 Z" id="_Path_3260" fill="#FFFFFF" fill-rule="nonzero"></path>
                                        <polygon id="_Path_3262" fill="#FFFFFF" fill-rule="nonzero" points="194.653003 90.2519239 194.653003 89.289092 193.778639 89.289092 193.778639 90.2519239"></polygon>
                                        <path d="M192.242115,151.244789 C191.998621,151.244789 191.74406,151.621068 192.242115,151.709604 C192.496677,151.720671 192.751238,151.344392 192.242115,151.244789 Z" id="_Path_3272" fill="#FFFFFF" fill-rule="nonzero"></path>
                                        <polygon id="_Path_3273" fill="#FFFFFF" fill-rule="nonzero" points="191.95627 187.081908 191.95627 188.044739 192.830634 188.044739 192.830634 187.081908"></polygon>
                                        <path d="M191.374844,165.894235 C191.253097,166.02704 191.585134,166.613592 191.81756,166.370118 C192.049986,166.126643 191.596202,165.639694 191.374844,165.894235 Z" id="_Path_3277" fill="#FFFFFF" fill-rule="nonzero"></path>
                                        <path d="M191.348813,191.09189 C191.03901,190.585214 190.164273,190.516512 190.1339,191.461163 C190.443703,191.976428 191.324515,192.04513 191.348813,191.09189 Z" id="_Path_3278" fill="#FFFFFF" fill-rule="nonzero"></path>
                                        <path d="M190.626952,81.3236652 C190.748699,81.1908614 190.416663,80.5932419 190.195305,80.8477833 C189.973946,81.1023247 190.405595,81.5892738 190.626952,81.3236652 Z" id="_Path_3279" fill="#FFFFFF" fill-rule="nonzero"></path>
                                        <path d="M190.160559,113.653896 C190.038812,113.786701 190.359782,114.38432 190.603275,114.129779 C190.846769,113.875237 190.392986,113.410422 190.160559,113.653896 Z" id="_Path_3283" fill="#FFFFFF" fill-rule="nonzero"></path>
                                        <path d="M190.254416,138.495955 C189.789565,138.429553 189.147627,138.872234 189.811701,138.982904 C190.276552,139.049306 190.951694,138.606625 190.254416,138.495955 Z" id="_Path_3284" fill="#FFFFFF" fill-rule="nonzero"></path>
                                        <path d="M188.597376,105.68913 C188.353882,105.68913 188.09932,106.076475 188.597376,106.165012 C188.84087,106.165012 189.084363,105.777666 188.597376,105.68913 Z" id="_Path_3287" fill="#FFFFFF" fill-rule="nonzero"></path>
                                        <path d="M188.337597,193.228684 C188.21585,193.361489 188.547887,193.959108 188.769245,193.704566 C188.990603,193.450025 188.558955,192.974143 188.337597,193.228684 Z" id="_Path_3288" fill="#FFFFFF" fill-rule="nonzero"></path>
                                        <path d="M186.799327,80.7853693 C186.268068,80.8849724 186.522629,81.3165864 186.799327,81.737134 C187.275247,81.737134 187.352722,80.8960396 186.799327,80.7853693 Z" id="_Path_3293" fill="#FFFFFF" fill-rule="nonzero"></path>
                                        <path d="M186.515191,136.142818 C186.393445,136.28669 186.725482,136.873242 186.957908,136.629767 C187.190333,136.386293 186.73655,135.855075 186.515191,136.142818 Z" id="_Path_3294" fill="#FFFFFF" fill-rule="nonzero"></path>
                                        <path d="M186.511145,99.0814944 C186.400466,99.214299 186.732503,99.8008513 186.953861,99.5463099 C187.175219,99.2917678 186.765706,98.826953 186.511145,99.0814944 Z" id="_Path_3297" fill="#FFFFFF" fill-rule="nonzero"></path>
                                        <path d="M184.666791,76.639801 L184.666791,75.9766123 C184.320541,76.1649251 183.451878,75.5590491 183.451878,76.3286754 C184.114005,76.0748625 183.943918,77.0328017 184.417734,77.0328017 C184.442033,76.7953638 184.460256,76.5743009 184.666791,76.639801 Z" id="_Path_3299" fill="#FFFFFF" fill-rule="nonzero"></path>
                                        <path d="M185.38892,176.762708 C184.935136,176.696307 184.28213,177.138988 184.957272,177.249658 C185.411056,177.360329 186.086197,176.873379 185.38892,176.762708 Z" id="_Path_3300" fill="#FFFFFF" fill-rule="nonzero"></path>
                                        <path d="M183.729637,124.518802 C183.497211,124.518802 183.242649,124.917216 183.729637,124.994684 C183.984199,124.994684 184.227692,124.607338 183.729637,124.518802 Z" id="_Path_3303" fill="#FFFFFF" fill-rule="nonzero"></path>
                                        <path d="M182.236965,115.116529 C181.831994,114.511435 181.32005,114.830485 181.022052,115.600605 C181.778507,115.655613 181.969532,116.502746 182.236965,115.116529 Z" id="_Path_3308" fill="#FFFFFF" fill-rule="nonzero"></path>
                                        <path d="M181.521385,123.069357 C181.157172,123.069357 181.093435,122.772826 180.792959,122.696576 C180.792959,123.171024 180.328587,123.204914 180.428746,123.797975 C180.938913,123.848337 181.408701,123.535063 181.521385,123.069357 Z" id="_Path_3314" fill="#FFFFFF" fill-rule="nonzero"></path>
                                        <g id="_Path_3316"></g>
                                        <path d="M177.984769,148.815154 C178.062245,149.249322 177.918362,149.853752 178.427485,149.921856 C178.361078,149.487689 178.50496,148.874746 177.984769,148.815154 Z" id="_Path_3324" fill="#FFFFFF" fill-rule="nonzero"></path>
                                        <path d="M177.402741,153.74606 C177.280994,153.878864 177.624099,154.465417 177.845457,154.221942 C178.066816,153.978468 177.635167,153.491518 177.402741,153.74606 Z" id="_Path_3327" fill="#FFFFFF" fill-rule="nonzero"></path>
                                        <path d="M177.279157,91.656734 C177.411972,91.5128629 177.068868,90.9263107 176.836442,91.1697849 C176.604016,91.4132598 177.035664,91.9002089 177.279157,91.656734 Z" id="_Path_3331" fill="#FFFFFF" fill-rule="nonzero"></path>
                                        <path d="M176.661733,75.1245952 C176.187394,75.1245952 176.150191,74.616185 175.554943,74.7271109 L175.554943,75.5220795 C176.085086,75.9750269 176.457116,75.9565392 176.661733,75.1245952 Z" id="_Path_3333" fill="#FFFFFF" fill-rule="nonzero"></path>
                                        <polygon id="_Path_3337" fill="#FFFFFF" fill-rule="nonzero" points="174.618005 175.896563 174.618005 174.933732 173.732573 174.933732 173.732573 175.896563"></polygon>
                                        <path d="M174.31229,100.22245 L173.141998,100.22245 C172.943269,101.698054 174.569902,101.698054 174.31229,100.22245 Z" id="_Path_3339" fill="#FFFFFF" fill-rule="nonzero"></path>
                                        <path d="M167.076617,66.8823974 C166.954871,67.0152017 167.286908,67.6017542 167.508266,67.3582796 C167.729624,67.114805 167.297976,66.6389228 167.076617,66.8823974 Z" id="_Path_3359" fill="#FFFFFF" fill-rule="nonzero"></path>
                                        <path d="M167.639628,103.081609 C167.639628,103.081609 167.299664,103.081609 167.272099,103.081609 C167.244534,103.081609 166.518664,102.672064 166.537041,102.652085 C166.013312,103.121564 167.860145,104.619901 167.639628,103.081609 Z" id="_Path_3360" fill="#FFFFFF" fill-rule="nonzero"></path>
                                        <path d="M166.721683,68.3893553 C166.278967,68.3893553 166.201492,68.0966816 165.836252,68.0297846 C165.836252,68.5984081 165.780912,69.284101 166.721683,69.1084967 L166.721683,68.3893553 Z" id="_Path_3361" fill="#FFFFFF" fill-rule="nonzero"></path>
                                        <path d="M163.909851,153.605312 C164.031598,153.472507 163.688493,152.874888 163.467135,153.129429 C163.245777,153.383971 163.677425,153.859853 163.909851,153.605312 Z" id="_Path_3367" fill="#FFFFFF" fill-rule="nonzero"></path>
                                        <path d="M160.427981,81.3927783 C160.427981,81.785266 159.844437,81.6613219 159.761073,81.9918384 C160.286263,81.9918384 160.027836,82.7492707 160.761435,82.5840124 C160.79478,81.8472373 161.394997,81.6682082 160.427981,81.3927783 Z" id="_Path_3374" fill="#FFFFFF" fill-rule="nonzero"></path>
                                        <polygon id="_Path_3377" fill="#FFFFFF" fill-rule="nonzero" points="159.153616 182.830047 159.153616 183.815012 160.02798 183.815012 160.02798 182.863247"></polygon>
                                        <path d="M158.57219,155.569339 C158.450443,155.702144 158.782481,156.299763 159.014906,156.045221 C159.247332,155.79068 158.793549,155.314798 158.57219,155.569339 Z" id="_Path_3380" fill="#FFFFFF" fill-rule="nonzero"></path>
                                        <path d="M158.546159,103.259494 C158.645771,103.624707 158.546159,104.189125 158.988875,104.200192 C158.889264,103.879248 158.977807,103.270562 158.546159,103.259494 Z" id="_Path_3381" fill="#FFFFFF" fill-rule="nonzero"></path>
                                        <path d="M157.196906,154.889242 C156.770125,154.966711 156.170816,154.811772 156.116333,155.376191 C156.334264,155.376191 156.543115,155.442593 156.479551,155.852073 C156.915412,155.796738 157.333113,155.708202 157.196906,154.889242 Z" id="_Path_3385" fill="#FFFFFF" fill-rule="nonzero"></path>
                                        <g id="_Path_3386"></g>
                                        <path d="M156.559049,99.3630555 C156.459438,98.9867767 156.559049,98.4112917 156.116333,98.4002245 C156.160605,98.7765033 156.072062,99.3409219 156.559049,99.3630555 Z" id="_Path_3388" fill="#FFFFFF" fill-rule="nonzero"></path>
                                        <path d="M157.009561,141.392437 L157.009561,140.67731 C156.566845,140.67731 156.478302,140.377954 156.124129,140.311431 C156.113061,140.885195 156.01345,141.558746 157.009561,141.392437 Z" id="_Path_3389" fill="#FFFFFF" fill-rule="nonzero"></path>
                                        <path d="M154.915465,119.077783 C154.823433,119.550793 155.191539,120.00591 155.789829,120.158826 C155.756625,119.597354 155.856236,118.910179 154.915465,119.077783 Z" id="_Path_3394" fill="#FFFFFF" fill-rule="nonzero"></path>
                                        <path d="M154.926849,145.850798 C154.805102,145.983603 155.148207,146.581223 155.369565,146.32668 C155.590923,146.072139 155.115003,145.596257 154.926849,145.850798 Z" id="_Path_3395" fill="#FFFFFF" fill-rule="nonzero"></path>
                                        <g id="_Path_3398"></g>
                                        <polygon id="_Path_3400" fill="#FFFFFF" fill-rule="nonzero" points="153.079051 170.074461 153.079051 171.081561 153.953414 171.081561 153.953414 170.11873"></polygon>
                                        <path d="M153.686507,157.926286 L151.264329,157.926286 C151.132579,159.042795 152.733852,158.846176 153.686507,159.141104 L153.686507,157.926286 Z" id="_Path_3403" fill="#FFFFFF" fill-rule="nonzero"></path>
                                        <path d="M151.762794,132.953413 C151.884541,132.820608 151.541436,132.222989 151.320078,132.477531 C151.09872,132.732072 151.508232,133.196887 151.762794,132.953413 Z" id="_Path_3410" fill="#FFFFFF" fill-rule="nonzero"></path>
                                        <path d="M150.545807,68.564186 C150.667554,68.4313817 150.324449,67.8448292 150.103091,68.0883038 C149.881733,68.3317784 150.313381,68.8076606 150.545807,68.564186 Z" id="_Path_3417" fill="#FFFFFF" fill-rule="nonzero"></path>
                                        <path d="M150.173303,159.164463 C149.155056,158.931932 149.221464,160.519552 150.173303,160.206839 C150.527476,160.06251 150.704562,159.260682 150.173303,159.164463 Z" id="_Path_3418" fill="#FFFFFF" fill-rule="nonzero"></path>
                                        <path d="M150.041768,163.43101 C149.599791,163.652351 148.627442,162.789123 148.863163,164.393842 C149.446572,164.460245 150.00641,164.482378 150.041768,163.43101 Z" id="_Path_3419" fill="#FFFFFF" fill-rule="nonzero"></path>
                                        <path d="M148.245465,85.713092 C148.123718,85.8458959 148.455755,86.4435153 148.677113,86.188974 C148.898471,85.9344326 148.466823,85.4696171 148.245465,85.713092 Z" id="_Path_3422" fill="#FFFFFF" fill-rule="nonzero"></path>
                                        <path d="M146.422457,91.184007 C146.300711,91.3168117 146.643815,91.9144311 146.865173,91.6598897 C147.086531,91.4053476 146.665951,90.9294656 146.422457,91.184007 Z" id="_Path_3435" fill="#FFFFFF" fill-rule="nonzero"></path>
                                        <g id="_Path_3436"></g>
                                        <path d="M146.896362,140.728698 C146.422023,140.728698 146.38482,140.208944 145.789572,140.329601 L145.789572,141.127796 C146.319715,141.573299 146.682444,141.554737 146.896362,140.728698 Z" id="_Path_3437" fill="#FFFFFF" fill-rule="nonzero"></path>
                                        <path d="M145.811557,83.2669219 C145.700877,83.3997266 146.032914,83.997346 146.254272,83.7428047 C146.47563,83.4882625 146.043982,83.0677157 145.811557,83.2669219 Z" id="_Path_3439" fill="#FFFFFF" fill-rule="nonzero"></path>
                                        <path d="M145.811557,136.751434 C145.700877,136.884238 146.032914,137.470791 146.254272,137.227317 C146.47563,136.983842 146.043982,136.463692 145.811557,136.751434 Z" id="_Path_3440" fill="#FFFFFF" fill-rule="nonzero"></path>
                                        <g id="_Path_3442"></g>
                                        <path d="M145.565079,182.222638 C145.111296,182.222638 145.000617,183.063731 145.565079,183.185469 C145.50974,182.632117 146.19595,182.432911 145.565079,182.222638 Z" id="_Path_3443" fill="#FFFFFF" fill-rule="nonzero"></path>
                                        <path d="M146.282624,193.690397 C146.404371,193.557593 146.072334,192.97104 145.850976,193.214515 C145.629619,193.457989 146.061267,193.944939 146.282624,193.690397 Z" id="_Path_3444" fill="#FFFFFF" fill-rule="nonzero"></path>
                                        <path d="M145.681449,78.1701289 C145.211063,78.1701289 145.164947,77.6512756 144.574659,77.76448 L144.574659,78.5852124 C145.100384,79.0002951 145.478537,78.9908614 145.681449,78.1701289 Z" id="_Path_3446" fill="#FFFFFF" fill-rule="nonzero"></path>
                                        <path d="M142.459662,68.0297846 C141.917335,68.1404549 142.182965,68.5610019 142.459662,68.981549 C142.935582,68.981549 143.046261,68.1515219 142.459662,68.0297846 Z" id="_Path_3457" fill="#FFFFFF" fill-rule="nonzero"></path>
                                        <path d="M141.847543,104.474312 C141.316283,104.573915 141.570845,105.005529 141.847543,105.426077 C142.290258,105.426077 142.400937,104.59605 141.847543,104.474312 Z" id="_Path_3463" fill="#FFFFFF" fill-rule="nonzero"></path>
                                        <path d="M141.563442,127.630666 C141.441696,127.752403 141.773733,128.338955 141.99509,128.106548 C142.216449,127.874141 141.784801,127.365057 141.563442,127.630666 Z" id="_Path_3464" fill="#FFFFFF" fill-rule="nonzero"></path>
                                        <path d="M140.929919,175.541141 L140.929919,176.278943 C141.296321,176.278943 141.36044,176.570631 141.662722,176.647844 C141.662722,176.175994 142.129883,176.133098 142.019963,175.541141 L140.929919,175.541141 Z" id="_Path_3465" fill="#FFFFFF" fill-rule="nonzero"></path>
                                        <path d="M140.952451,96.0390416 C140.841772,96.1718454 141.162741,96.7694649 141.395167,96.5149235 C141.627593,96.2603821 141.184877,95.7955666 140.952451,96.0390416 Z" id="_Path_3467" fill="#FFFFFF" fill-rule="nonzero"></path>
                                        <path d="M139.715007,86.2520482 C139.825685,86.628327 139.715007,87.1927456 140.157723,87.2038128 C140.113451,86.8386012 140.113451,86.2631153 139.715007,86.2520482 Z" id="_Path_3473" fill="#FFFFFF" fill-rule="nonzero"></path>
                                        <polygon id="_Path_3482" fill="#FFFFFF" fill-rule="nonzero" points="138.500093 193.155995 138.500093 194.10776 139.374457 194.10776 139.374457 193.155995"></polygon>
                                        <path d="M138.178482,66.2075583 C137.934989,66.2075583 137.680426,66.5949042 138.178482,66.6834405 C138.421976,66.6834405 138.676537,66.2960945 138.178482,66.2075583 Z" id="_Path_3489" fill="#FFFFFF" fill-rule="nonzero"></path>
                                        <path d="M137.892637,191.941178 C137.992248,192.317457 137.892637,192.892942 138.335353,192.904009 C138.235741,192.49453 138.324285,191.963312 137.892637,191.941178 Z" id="_Path_3491" fill="#FFFFFF" fill-rule="nonzero"></path>
                                        <path d="M136.356113,111.155809 C136.112619,111.155809 135.858057,111.543155 136.356113,111.631691 C136.610674,111.631691 136.865236,111.244345 136.356113,111.155809 Z" id="_Path_3496" fill="#FFFFFF" fill-rule="nonzero"></path>
                                        <path d="M135.484795,101.508904 C135.374116,101.641708 135.706153,102.22826 135.927511,101.984786 C136.148868,101.741311 135.717221,101.254362 135.484795,101.508904 Z" id="_Path_3504" fill="#FFFFFF" fill-rule="nonzero"></path>
                                        <path d="M134.855354,109.940991 C134.921762,110.378525 134.777879,110.99622 135.287002,111.047694 C135.220595,110.618739 135.364478,110.001045 134.855354,109.940991 Z" id="_Path_3506" fill="#FFFFFF" fill-rule="nonzero"></path>
                                        <path d="M134.247897,109.940991 C134.347508,110.306203 134.247897,110.881689 134.690614,110.892756 C134.591003,110.527544 134.679546,110.007393 134.247897,109.940991 Z" id="_Path_3511" fill="#FFFFFF" fill-rule="nonzero"></path>
                                        <path d="M134.273929,172.581056 C134.152182,172.713861 134.484218,173.31148 134.716645,173.056938 C134.94907,172.802397 134.506354,172.315448 134.273929,172.581056 Z" id="_Path_3512" fill="#FFFFFF" fill-rule="nonzero"></path>
                                        <path d="M133.635475,96.4464715 C133.414326,96.4464715 133.202392,96.3800691 133.276109,95.9705887 L132.538948,95.9705887 C131.967648,97.1879619 133.746049,97.3761017 133.635475,96.4464715 Z" id="_Path_3515" fill="#FFFFFF" fill-rule="nonzero"></path>
                                        <path d="M133.046153,128.791725 C132.957551,129.264574 133.323465,129.718906 133.920517,129.877366 C133.887313,129.326195 133.986924,128.641406 133.046153,128.791725 Z" id="_Path_3516" fill="#FFFFFF" fill-rule="nonzero"></path>
                                        <path d="M133.059015,111.223239 C132.937268,111.356043 133.269306,111.942596 133.501731,111.699122 C133.734157,111.455647 133.280374,110.979765 133.059015,111.223239 Z" id="_Path_3518" fill="#FFFFFF" fill-rule="nonzero"></path>
                                        <path d="M132.44806,147.668788 C132.337381,147.801593 132.65835,148.399212 132.890775,148.144671 C133.123202,147.890129 132.680485,147.425314 132.44806,147.668788 Z" id="_Path_3524" fill="#FFFFFF" fill-rule="nonzero"></path>
                                        <g id="_Path_3527"></g>
                                        <path d="M130.603158,91.7361732 L130.603158,92.8254299 L131.709948,92.8254299 L131.709948,92.093586 C131.235609,92.0765662 131.198406,91.6255456 130.603158,91.7361732 Z" id="_Path_3530" fill="#FFFFFF" fill-rule="nonzero"></path>
                                        <path d="M130.975188,105.081721 C130.975188,105.456297 130.668263,105.524402 130.603158,105.82236 C130.975188,105.82236 131.040294,106.120319 131.337918,106.188424 C131.337918,105.82236 131.635542,105.745743 131.709948,105.456297 C131.337918,105.430758 131.272812,105.158339 130.975188,105.081721 Z" id="_Path_3531" fill="#FFFFFF" fill-rule="nonzero"></path>
                                        <path d="M130.632801,99.0749825 C130.499986,99.2188536 130.84309,99.8164738 131.075516,99.5619317 C131.307943,99.3073903 130.854158,98.8315083 130.632801,99.0749825 Z" id="_Path_3536" fill="#FFFFFF" fill-rule="nonzero"></path>
                                        <path d="M129.666833,109.699543 C129.224118,109.699543 129.135574,109.40012 128.781402,109.333582 C128.781402,109.899157 128.726062,110.581173 129.666833,110.414828 L129.666833,109.699543 Z" id="_Path_3537" fill="#FFFFFF" fill-rule="nonzero"></path>
                                        <path d="M129.066634,132.415117 C128.82314,132.415117 128.568579,132.802463 129.066634,132.890999 C129.310127,132.902066 129.564689,132.51472 129.066634,132.415117 Z" id="_Path_3538" fill="#FFFFFF" fill-rule="nonzero"></path>
                                        <polygon id="_Path_3539" fill="#FFFFFF" fill-rule="nonzero" points="128.173332 153.067015 128.173332 154.01878 129.047696 154.01878 129.047696 153.067015"></polygon>
                                        <path d="M127.591907,165.894235 C127.470159,166.02704 127.802197,166.613592 128.034622,166.370118 C128.267049,166.126643 127.813264,165.639694 127.591907,165.894235 Z" id="_Path_3542" fill="#FFFFFF" fill-rule="nonzero"></path>
                                        <path d="M127.466664,190.663594 C127.588411,190.530789 127.256374,189.93317 127.023948,190.176644 C126.791522,190.420119 127.234238,190.907068 127.466664,190.663594 Z" id="_Path_3544" fill="#FFFFFF" fill-rule="nonzero"></path>
                                        <path d="M125.379785,193.155995 C125.587484,193.929773 124.739377,193.907345 125.379785,194.367126 C126.998113,194.445625 126.305779,193.245709 125.379785,193.155995 Z" id="_Path_3550" fill="#FFFFFF" fill-rule="nonzero"></path>
                                        <polygon id="_Path_3552" fill="#FFFFFF" fill-rule="nonzero" points="125.136049 142.133657 125.136049 143.24036 126.242839 143.24036 126.242839 142.133657"></polygon>
                                        <path d="M126.214774,190.118951 L125.489581,190.118951 C125.489581,190.594834 125.199504,190.68337 125.136049,191.070716 C125.734333,191.026448 126.387007,191.137118 126.214774,190.118951 Z" id="_Path_3553" fill="#FFFFFF" fill-rule="nonzero"></path>
                                        <path d="M122.124798,95.4172839 C122.003051,95.5500885 122.335087,96.147708 122.567514,95.9042338 C122.799939,95.6607588 122.357223,95.2070105 122.124798,95.4172839 Z" id="_Path_3568" fill="#FFFFFF" fill-rule="nonzero"></path>
                                        <path d="M123.31368,135.476507 C122.618352,135.379139 122.167536,135.565762 122.098767,136.18243 C122.503737,136.287914 122.67948,136.677389 123.31368,136.523221 L123.31368,135.476507 Z" id="_Path_3569" fill="#FFFFFF" fill-rule="nonzero"></path>
                                        <polygon id="_Path_3575" fill="#FFFFFF" fill-rule="nonzero" points="121.49131 94.1483627 121.49131 95.1111938 122.376742 95.1111938 122.376742 94.1483627"></polygon>
                                        <path d="M333.404393,94.0792497 C333.515072,93.9464458 333.183035,93.3488264 332.95061,93.6033678 C332.718183,93.8579099 333.171967,94.3227247 333.404393,94.0792497 Z" id="_Path_3590" fill="#FFFFFF" fill-rule="nonzero"></path>
                                        <path d="M332.908145,164.676235 C332.797466,164.820106 333.129504,165.406659 333.361929,165.152117 C333.594355,164.897575 333.140571,164.43276 332.908145,164.676235 Z" id="_Path_3591" fill="#FFFFFF" fill-rule="nonzero"></path>
                                        <path d="M330.745633,106.903947 C330.491071,106.903947 330.247577,107.30236 330.745633,107.379829 C330.989127,107.379829 331.243689,106.992484 330.745633,106.903947 Z" id="_Path_3597" fill="#FFFFFF" fill-rule="nonzero"></path>
                                        <path d="M330.217837,152.459607 C330.217837,152.834183 329.922693,152.902288 329.848906,153.191733 C330.217837,153.191733 330.291623,153.498204 330.586767,153.566309 C330.586767,153.191733 330.881911,153.123628 330.955696,152.834183 C330.586767,152.834183 330.51298,152.527712 330.217837,152.459607 Z" id="_Path_3600" fill="#FFFFFF" fill-rule="nonzero"></path>
                                        <path d="M330.580726,178.584518 C330.353206,178.508127 329.798058,179.144715 329.852663,179.314471 C330.152989,180.290571 331.89124,179.085299 330.580726,178.584518 Z" id="_Path_3601" fill="#FFFFFF" fill-rule="nonzero"></path>
                                        <path d="M329.127046,101.982683 C329.248793,101.838812 328.916756,101.252259 328.695398,101.495734 C328.47404,101.739209 328.905688,102.226158 329.127046,101.982683 Z" id="_Path_3605" fill="#FFFFFF" fill-rule="nonzero"></path>
                                        <polygon id="_Path_3606" fill="#FFFFFF" fill-rule="nonzero" points="328.923037 105.437143 328.923037 104.474312 328.026537 104.474312 328.026537 105.437143"></polygon>
                                        <path d="M328.33326,163.392965 C327.802001,163.492569 328.06763,163.924183 328.33326,164.355797 C328.787043,164.300461 328.897723,163.503635 328.33326,163.392965 Z" id="_Path_3607" fill="#FFFFFF" fill-rule="nonzero"></path>
                                        <path d="M326.83769,101.510046 C326.715943,101.631783 327.047981,102.218336 327.269338,101.974861 C327.490697,101.731386 327.070117,101.255504 326.83769,101.510046 Z" id="_Path_3609" fill="#FFFFFF" fill-rule="nonzero"></path>
                                        <path d="M326.80845,137.187009 C326.423696,137.043137 326.266944,136.51192 325.675562,136.711126 C325.219557,138.03917 326.893951,138.028103 326.80845,137.187009 Z" id="_Path_3611" fill="#FFFFFF" fill-rule="nonzero"></path>
                                        <path d="M326.23385,155.568286 C326.101035,155.70109 326.444141,156.287643 326.665498,156.044169 C326.886856,155.800694 326.455209,155.313744 326.23385,155.568286 Z" id="_Path_3612" fill="#FFFFFF" fill-rule="nonzero"></path>
                                        <path d="M325.573434,92.8254299 C325.80885,91.3498268 324.175643,91.3498268 324.403704,92.8254299 L325.573434,92.8254299 Z" id="_Path_3617" fill="#FFFFFF" fill-rule="nonzero"></path>
                                        <path d="M323.196568,125.802072 C323.063753,125.934876 323.406857,126.532496 323.628215,126.277954 C323.849574,126.023413 323.406857,125.558597 323.196568,125.802072 Z" id="_Path_3620" fill="#FFFFFF" fill-rule="nonzero"></path>
                                        <path d="M324.052316,127.555846 L323.166885,127.555846 L323.166885,128.65691 C323.919501,128.716657 324.196199,128.298424 324.052316,127.555846 Z" id="_Path_3621" fill="#FFFFFF" fill-rule="nonzero"></path>
                                        <path d="M322.585494,162.851913 C322.463748,162.984718 322.795785,163.582337 323.017143,163.338863 C323.2385,163.095388 322.806853,162.608439 322.585494,162.851913 Z" id="_Path_3623" fill="#FFFFFF" fill-rule="nonzero"></path>
                                        <path d="M323.11313,160.997301 C322.448568,160.864496 322.017698,161.107971 321.951971,161.960132 C322.433962,161.849462 323.405246,162.41388 323.11313,160.997301 Z" id="_Path_3626" fill="#FFFFFF" fill-rule="nonzero"></path>
                                        <path d="M321.978038,164.676235 C321.856291,164.820106 322.188328,165.406659 322.409686,165.152117 C322.631044,164.897575 322.199396,164.43276 321.978038,164.676235 Z" id="_Path_3630" fill="#FFFFFF" fill-rule="nonzero"></path>
                                        <path d="M319.421906,87.3938586 C319.543653,87.261054 319.211616,86.6745017 318.97919,86.9179767 C318.746764,87.1614509 319.200548,87.6484 319.421906,87.3938586 Z" id="_Path_3635" fill="#FFFFFF" fill-rule="nonzero"></path>
                                        <path d="M318.346612,152.958901 L319.060457,152.958901 C320.262248,152.183575 317.985171,150.91398 318.346612,152.958901 Z" id="_Path_3636" fill="#FFFFFF" fill-rule="nonzero"></path>
                                        <path d="M318.940755,162.851913 C318.819008,162.984718 319.151045,163.582337 319.372403,163.338863 C319.593762,163.095388 319.117842,162.608439 318.940755,162.851913 Z" id="_Path_3639" fill="#FFFFFF" fill-rule="nonzero"></path>
                                        <path d="M317.725842,147.668788 C317.604096,147.801593 317.936132,148.399212 318.15749,148.144671 C318.378848,147.890129 317.9472,147.425314 317.725842,147.668788 Z" id="_Path_3645" fill="#FFFFFF" fill-rule="nonzero"></path>
                                        <path d="M316.803153,157.794759 C317.046648,157.794759 317.301209,157.407414 316.803153,157.318877 C316.515388,157.352078 316.260826,157.706223 316.803153,157.794759 Z" id="_Path_3650" fill="#FFFFFF" fill-rule="nonzero"></path>
                                        <path d="M316.762621,152.459607 C316.530196,152.459607 316.275634,152.846953 316.762621,152.946556 C317.028251,152.946556 317.271744,152.548143 316.762621,152.459607 Z" id="_Path_3653" fill="#FFFFFF" fill-rule="nonzero"></path>
                                        <path d="M315.26995,178.578185 C315.380628,178.954464 315.26995,179.529949 315.712666,179.529949 C315.613054,179.120469 315.701598,178.600318 315.26995,178.578185 Z" id="_Path_3658" fill="#FFFFFF" fill-rule="nonzero"></path>
                                        <path d="M314.940468,171.896688 L314.055036,171.896688 L314.055036,172.999096 C314.851925,173.05037 315.084351,172.640172 314.940468,171.896688 Z" id="_Path_3661" fill="#FFFFFF" fill-rule="nonzero"></path>
                                        <path d="M313.125969,150.029971 C312.882475,150.029971 312.627913,150.417317 313.125969,150.505854 C313.358395,150.472652 313.624024,150.118508 313.125969,150.029971 Z" id="_Path_3665" fill="#FFFFFF" fill-rule="nonzero"></path>
                                        <path d="M312.263034,105.153356 C312.130219,105.286161 312.462256,105.872713 312.694682,105.629239 C312.927108,105.385764 312.484391,104.898815 312.263034,105.153356 Z" id="_Path_3670" fill="#FFFFFF" fill-rule="nonzero"></path>
                                        <path d="M312.263034,120.338576 C312.130219,120.460314 312.462256,121.057933 312.694682,120.814458 C312.927108,120.570984 312.484391,120.084035 312.263034,120.338576 Z" id="_Path_3671" fill="#FFFFFF" fill-rule="nonzero"></path>
                                        <path d="M310.883414,147.600336 C310.456632,147.677806 309.857323,147.522867 309.80284,148.076218 C310.020771,148.076218 310.229622,148.153688 310.166058,148.552101 C310.601919,148.507832 311.01962,148.419296 310.883414,147.600336 Z" id="_Path_3678" fill="#FFFFFF" fill-rule="nonzero"></path>
                                        <path d="M308.613994,84.5014579 C308.492247,84.6342617 308.824284,85.220814 309.045642,84.9773398 C309.267,84.7338649 308.846419,84.2469157 308.613994,84.5014579 Z" id="_Path_3685" fill="#FFFFFF" fill-rule="nonzero"></path>
                                        <polygon id="_Path_3687" fill="#FFFFFF" fill-rule="nonzero" points="308.865903 146.740941 308.865903 145.77811 307.980471 145.77811 307.980471 146.740941"></polygon>
                                        <path d="M306.76083,175.879584 C306.183943,175.582155 305.44467,175.473514 304.739915,175.582597 C304.74663,175.903487 304.605202,176.217661 304.335731,176.480465 C304.992529,176.963934 306.871981,176.839613 306.76083,175.879584 Z" id="_Path_3693" fill="#FFFFFF" fill-rule="nonzero"></path>
                                        <path d="M305.576676,108.187217 C305.454929,108.331088 305.786965,108.917641 306.019392,108.663099 C306.251817,108.408558 305.76483,107.943742 305.576676,108.187217 Z" id="_Path_3695" fill="#FFFFFF" fill-rule="nonzero"></path>
                                        <path d="M304.972871,69.3109594 C304.840056,69.4437637 305.183161,70.0413832 305.404519,69.7979087 C305.625877,69.554434 305.2385,69.0674848 304.972871,69.3109594 Z" id="_Path_3700" fill="#FFFFFF" fill-rule="nonzero"></path>
                                        <path d="M302.536292,126.232914 L303.70253,126.232914 C303.951915,124.75731 302.301577,124.75731 302.536292,126.232914 Z" id="_Path_3703" fill="#FFFFFF" fill-rule="nonzero"></path>
                                        <path d="M302.513362,151.294844 L302.513362,152.447223 C303.875691,152.553801 304.24169,151.947637 304.943188,151.581273 C303.987524,151.587935 303.753692,151.088349 302.513362,151.294844 Z" id="_Path_3704" fill="#FFFFFF" fill-rule="nonzero"></path>
                                        <path d="M302.418556,170.608863 C302.540303,170.476059 302.208266,169.889506 301.97584,170.132981 C301.743414,170.376455 302.141859,170.863404 302.418556,170.608863 Z" id="_Path_3708" fill="#FFFFFF" fill-rule="nonzero"></path>
                                        <polygon id="_Path_3710" fill="#FFFFFF" fill-rule="nonzero" points="302.172812 88.4296971 302.172812 87.466866 301.298449 87.466866 301.298449 88.4296971"></polygon>
                                        <path d="M299.761925,148.815154 C299.518431,148.815154 299.263869,149.213567 299.761925,149.291036 C300.016486,149.291036 300.271048,148.914757 299.761925,148.815154 Z" id="_Path_3720" fill="#FFFFFF" fill-rule="nonzero"></path>
                                        <polygon id="_Path_3721" fill="#FFFFFF" fill-rule="nonzero" points="299.476079 185.259682 299.476079 186.222513 300.350443 186.222513 300.350443 185.259682"></polygon>
                                        <path d="M298.894653,164.074235 C298.772906,164.195973 299.104944,164.793592 299.337369,164.53905 C299.569796,164.284509 299.12708,163.819694 298.894653,164.074235 Z" id="_Path_3725" fill="#FFFFFF" fill-rule="nonzero"></path>
                                        <path d="M298.868623,187.449497 C298.558819,186.938898 297.65371,186.869664 297.65371,187.830283 C297.963512,188.332228 298.826101,188.392808 298.868623,187.449497 Z" id="_Path_3726" fill="#FFFFFF" fill-rule="nonzero"></path>
                                        <path d="M298.157748,80.1088482 C298.279495,79.9760435 297.936391,79.3784241 297.715033,79.6329654 C297.493675,79.8875076 297.925323,80.3523223 298.157748,80.1088482 Z" id="_Path_3727" fill="#FFFFFF" fill-rule="nonzero"></path>
                                        <path d="M297.679741,111.224261 C297.557994,111.357066 297.89003,111.954685 298.122457,111.700143 C298.354882,111.445602 297.912166,110.980787 297.679741,111.224261 Z" id="_Path_3731" fill="#FFFFFF" fill-rule="nonzero"></path>
                                        <path d="M297.774226,136.673728 C297.309374,136.607327 296.667436,137.050008 297.33151,137.160678 C297.796362,137.22708 298.471504,136.839734 297.774226,136.673728 Z" id="_Path_3732" fill="#FFFFFF" fill-rule="nonzero"></path>
                                        <path d="M296.117185,103.259494 C295.873692,103.259494 295.61913,103.64684 296.117185,103.746443 C296.360679,103.768578 296.61524,103.370165 296.117185,103.259494 Z" id="_Path_3735" fill="#FFFFFF" fill-rule="nonzero"></path>
                                        <path d="M295.857371,190.794812 C295.735624,190.927617 296.067661,191.525237 296.300087,191.270695 C296.532513,191.016153 296.078729,190.551338 295.857371,190.794812 Z" id="_Path_3736" fill="#FFFFFF" fill-rule="nonzero"></path>
                                        <path d="M293.708236,79.5705515 C293.176977,79.6701546 293.442607,80.0907021 293.708236,80.5223161 C294.150952,80.5001817 294.261631,79.6812217 293.708236,79.5705515 Z" id="_Path_3741" fill="#FFFFFF" fill-rule="nonzero"></path>
                                        <path d="M293.427545,133.703796 C293.305798,133.8366 293.637835,134.423153 293.87026,134.168611 C294.102687,133.914069 293.65997,133.449254 293.427545,133.703796 Z" id="_Path_3742" fill="#FFFFFF" fill-rule="nonzero"></path>
                                        <path d="M293.423497,96.6496334 C293.312819,96.7713709 293.644856,97.3689903 293.866214,97.1255153 C294.087572,96.8820412 293.655924,96.395092 293.423497,96.6496334 Z" id="_Path_3745" fill="#FFFFFF" fill-rule="nonzero"></path>
                                        <path d="M292.1866,74.2512928 L292.1866,73.5393623 C291.84035,73.735757 290.971688,73.1302068 290.971688,73.8994191 C291.627741,73.6457428 291.457653,74.6031665 291.931469,74.6031665 C291.961842,74.3822226 292.004363,74.185828 292.1866,74.2512928 Z" id="_Path_3747" fill="#FFFFFF" fill-rule="nonzero"></path>
                                        <path d="M292.301273,174.940482 C291.847489,174.87408 291.194483,175.316761 291.869625,175.427431 C292.323409,175.527035 293.009618,175.084353 292.301273,174.940482 Z" id="_Path_3748" fill="#FFFFFF" fill-rule="nonzero"></path>
                                        <path d="M291.257532,122.696576 C291.014039,122.696576 290.759477,123.083922 291.257532,123.172458 C291.501027,123.172458 291.755588,122.785112 291.257532,122.696576 Z" id="_Path_3751" fill="#FFFFFF" fill-rule="nonzero"></path>
                                        <path d="M289.756774,112.690996 C289.351803,112.077353 288.839859,112.40609 288.541861,113.162185 C289.305957,113.227932 289.496982,114.071691 289.756774,112.690996 Z" id="_Path_3756" fill="#FFFFFF" fill-rule="nonzero"></path>
                                        <path d="M289.041195,120.634103 C288.674794,120.634103 288.601513,120.33525 288.308392,120.266941 C288.308392,120.736566 287.841231,120.770721 287.951152,121.368426 C288.462221,121.418579 288.931897,121.102176 289.041195,120.634103 Z" id="_Path_3762" fill="#FFFFFF" fill-rule="nonzero"></path>
                                        <g id="_Path_3764"></g>
                                        <path d="M285.504579,146.992927 C285.570986,147.427096 285.427103,148.040039 285.947295,148.09963 C285.869819,147.673975 286.013702,147.05252 285.504579,146.992927 Z" id="_Path_3772" fill="#FFFFFF" fill-rule="nonzero"></path>
                                        <path d="M284.922551,151.923834 C284.800804,152.056638 285.143908,152.64319 285.365267,152.399716 C285.586624,152.156241 285.154976,151.669292 284.922551,151.923834 Z" id="_Path_3775" fill="#FFFFFF" fill-rule="nonzero"></path>
                                        <path d="M284.796883,88.0122812 C284.929698,87.8684101 284.586593,87.2818579 284.354167,87.525332 C284.121741,87.768807 284.575525,88.2446889 284.796883,88.0122812 Z" id="_Path_3779" fill="#FFFFFF" fill-rule="nonzero"></path>
                                        <path d="M284.181542,72.0875513 C283.716504,72.0875513 283.670001,71.579141 283.074753,71.690067 L283.074753,72.4850356 C283.567692,72.9379829 283.930422,72.9194952 284.181542,72.0875513 Z" id="_Path_3781" fill="#FFFFFF" fill-rule="nonzero"></path>
                                        <polygon id="_Path_3785" fill="#FFFFFF" fill-rule="nonzero" points="282.126746 173.466928 282.126746 172.504097 281.252383 172.504097 281.252383 173.455861"></polygon>
                                        <path d="M281.8376,97.7928155 L280.669988,97.7928155 C280.424565,99.2684194 282.068148,99.2684194 281.8376,97.7928155 Z" id="_Path_3787" fill="#FFFFFF" fill-rule="nonzero"></path>
                                        <path d="M273.988935,63.8495586 C273.867188,63.982363 274.199225,64.5689154 274.431651,64.3254408 C274.664077,64.0819662 274.210293,63.595017 273.988935,63.8495586 Z" id="_Path_3807" fill="#FFFFFF" fill-rule="nonzero"></path>
                                        <path d="M273.943127,100.651974 C273.943127,100.651974 273.603452,100.651974 273.575911,100.651974 C273.54837,100.651974 272.82312,100.242429 272.841481,100.22245 C272.3182,100.691929 274.172636,102.190266 273.943127,100.651974 Z" id="_Path_3808" fill="#FFFFFF" fill-rule="nonzero"></path>
                                        <path d="M273.623371,66.5652009 C273.180656,66.5652009 273.10318,66.2740965 272.749007,66.2075583 C272.749007,66.7731327 272.6826,67.455149 273.623371,67.2888035 L273.623371,66.5652009 Z" id="_Path_3809" fill="#FFFFFF" fill-rule="nonzero"></path>
                                        <path d="M270.822203,150.568268 C270.943951,150.435463 270.600846,149.837844 270.379488,150.092385 C270.15813,150.346927 270.589778,150.844944 270.822203,150.568268 Z" id="_Path_3815" fill="#FFFFFF" fill-rule="nonzero"></path>
                                        <path d="M267.946297,79.5705515 C267.946297,79.963099 267.364059,79.8391371 267.280882,80.1628163 C267.804896,80.1628163 267.547049,80.9272513 268.279005,80.7619682 C268.320593,80.0113072 268.91115,79.8529103 267.946297,79.5705515 Z" id="_Path_3822" fill="#FFFFFF" fill-rule="nonzero"></path>
                                        <polygon id="_Path_3825" fill="#FFFFFF" fill-rule="nonzero" points="266.065969 180.400411 266.065969 181.352176 266.940333 181.352176 266.940333 180.400411"></polygon>
                                        <path d="M265.483941,153.741855 C265.362194,153.874659 265.705299,154.461212 265.926657,154.217737 C266.148015,153.974263 265.716367,153.49838 265.483941,153.741855 Z" id="_Path_3828" fill="#FFFFFF" fill-rule="nonzero"></path>
                                        <path d="M265.458513,101.437268 C265.558123,101.80248 265.458513,102.377966 265.901228,102.389032 C265.801617,102.023821 265.89016,101.437268 265.458513,101.437268 Z" id="_Path_3829" fill="#FFFFFF" fill-rule="nonzero"></path>
                                        <path d="M264.715032,153.067015 C264.288916,153.133417 263.699607,152.978479 263.636143,153.531831 C263.853734,153.531831 264.062259,153.6093 263.998795,154.01878 C264.470242,153.963445 264.851026,153.874909 264.715032,153.067015 Z" id="_Path_3833" fill="#FFFFFF" fill-rule="nonzero"></path>
                                        <g id="_Path_3834"></g>
                                        <path d="M264.078858,96.9334206 C263.979247,96.5571417 264.078858,95.9816559 263.636143,95.9705887 C263.735754,96.3468683 263.647211,96.9112862 264.078858,96.9334206 Z" id="_Path_3836" fill="#FFFFFF" fill-rule="nonzero"></path>
                                        <path d="M264.521574,139.572466 L264.521574,138.855847 C264.078858,138.855847 263.990315,138.555866 263.636143,138.489205 C263.680414,139.055834 263.580803,139.730789 264.521574,139.572466 Z" id="_Path_3837" fill="#FFFFFF" fill-rule="nonzero"></path>
                                        <path d="M262.433571,116.032379 C262.34747,116.510649 262.719237,116.968057 263.319003,117.121782 C263.274732,116.581303 263.374343,115.897259 262.433571,116.032379 Z" id="_Path_3842" fill="#FFFFFF" fill-rule="nonzero"></path>
                                        <path d="M262.443185,144.027519 C262.332506,144.149257 262.664544,144.746876 262.896969,144.503401 C263.129395,144.259927 262.68668,143.772978 262.443185,144.027519 Z" id="_Path_3843" fill="#FFFFFF" fill-rule="nonzero"></path>
                                        <g id="_Path_3846"></g>
                                        <polygon id="_Path_3848" fill="#FFFFFF" fill-rule="nonzero" points="260.59886 167.037417 260.59886 168.000249 261.473224 168.000249 261.473224 167.037417"></polygon>
                                        <path d="M261.206317,156.10406 L258.785302,156.10406 C258.642889,157.220568 260.26029,157.02395 261.206317,157.318877 L261.206317,156.10406 Z" id="_Path_3851" fill="#FFFFFF" fill-rule="nonzero"></path>
                                        <path d="M259.284736,129.315306 C259.406482,129.182501 259.074446,128.584882 258.842019,128.828357 C258.609594,129.071831 259.05231,129.55878 259.284736,129.315306 Z" id="_Path_3858" fill="#FFFFFF" fill-rule="nonzero"></path>
                                        <path d="M258.065616,66.1384457 C258.187363,66.0056413 257.844259,65.4080218 257.6229,65.6625635 C257.401543,65.9171051 257.833191,66.3819203 258.065616,66.1384457 Z" id="_Path_3865" fill="#FFFFFF" fill-rule="nonzero"></path>
                                        <path d="M257.693112,156.734827 C256.674866,156.502297 256.741273,158.089917 257.693112,157.777204 C258.047285,157.65693 258.224372,156.855101 257.693112,156.734827 Z" id="_Path_3866" fill="#FFFFFF" fill-rule="nonzero"></path>
                                        <path d="M257.561577,161.005685 C257.119601,161.215958 256.147252,160.363797 256.382972,161.968516 C256.966382,162.034918 257.526219,162.057052 257.561577,161.005685 Z" id="_Path_3867" fill="#FFFFFF" fill-rule="nonzero"></path>
                                        <path d="M255.765239,83.28664 C255.643492,83.4194447 255.975529,84.0059969 256.207954,83.7625219 C256.440381,83.5190478 255.986597,83.0320986 255.765239,83.28664 Z" id="_Path_3870" fill="#FFFFFF" fill-rule="nonzero"></path>
                                        <path d="M253.916838,191.333769 L253.916838,192.06478 C254.387223,192.06478 254.424117,192.526913 255.023628,192.426083 L255.023628,191.333769 L253.916838,191.333769 Z" id="_Path_3880" fill="#FFFFFF" fill-rule="nonzero"></path>
                                        <path d="M253.938822,88.1524412 C253.828143,88.2852458 254.16018,88.8717981 254.381538,88.6172567 C254.602896,88.3627146 254.171248,87.8868326 253.938822,88.1524412 Z" id="_Path_3883" fill="#FFFFFF" fill-rule="nonzero"></path>
                                        <g id="_Path_3884"></g>
                                        <path d="M254.416171,138.906472 C253.941833,138.906472 253.90463,138.386717 253.309382,138.507375 L253.309382,139.305569 C253.839525,139.751073 254.211554,139.73251 254.416171,138.906472 Z" id="_Path_3885" fill="#FFFFFF" fill-rule="nonzero"></path>
                                        <path d="M253.331365,80.2495961 C253.220687,80.3824 253.552723,80.968953 253.774082,80.7254781 C253.995439,80.4820039 253.563791,79.995054 253.331365,80.2495961 Z" id="_Path_3887" fill="#FFFFFF" fill-rule="nonzero"></path>
                                        <path d="M253.331365,134.304774 C253.220687,134.437577 253.552723,135.02413 253.774082,134.780656 C253.995439,134.537181 253.563791,134.061299 253.331365,134.304774 Z" id="_Path_3888" fill="#FFFFFF" fill-rule="nonzero"></path>
                                        <g id="_Path_3890"></g>
                                        <path d="M252.469156,179.185594 C252.02644,179.185594 251.915761,180.037755 252.469156,180.159492 C252.424884,179.617208 253.111094,179.406934 252.469156,179.185594 Z" id="_Path_3891" fill="#FFFFFF" fill-rule="nonzero"></path>
                                        <path d="M253.802433,191.260762 C253.924181,191.127957 253.592144,190.541405 253.370786,190.78488 C253.149428,191.028354 253.581076,191.515303 253.802433,191.260762 Z" id="_Path_3892" fill="#FFFFFF" fill-rule="nonzero"></path>
                                        <path d="M251.986345,75.7328085 C251.51596,75.7328085 251.469843,75.2169763 250.879555,75.336723 L250.879555,76.1565279 C251.414503,76.571036 251.77421,76.5618248 251.986345,75.7328085 Z" id="_Path_3894" fill="#FFFFFF" fill-rule="nonzero"></path>
                                        <path d="M249.372015,66.2075583 C248.829688,66.3071616 249.095317,66.7387756 249.372015,67.1593226 C249.847935,67.1593226 249.92541,66.3735637 249.372015,66.2075583 Z" id="_Path_3905" fill="#FFFFFF" fill-rule="nonzero"></path>
                                        <path d="M249.367351,102.652085 C248.836092,102.762756 249.090654,103.183303 249.367351,103.614917 C249.810068,103.614917 249.920746,102.773823 249.367351,102.652085 Z" id="_Path_3911" fill="#FFFFFF" fill-rule="nonzero"></path>
                                        <path d="M249.083216,125.805255 C248.96147,125.93806 249.293507,126.524612 249.525932,126.281138 C249.758358,126.037663 249.337778,125.550714 249.083216,125.805255 Z" id="_Path_3912" fill="#FFFFFF" fill-rule="nonzero"></path>
                                        <path d="M248.449729,173.111505 L248.449729,173.852145 C248.813942,173.852145 248.886784,174.141591 249.178155,174.218208 C249.178155,173.749988 249.642527,173.707422 249.542368,173.111505 L248.449729,173.111505 Z" id="_Path_3913" fill="#FFFFFF" fill-rule="nonzero"></path>
                                        <path d="M248.472261,94.2168148 C248.361581,94.3496194 248.682551,94.9472388 248.914976,94.6926967 C249.147403,94.4381553 248.671483,93.9733406 248.472261,94.2168148 Z" id="_Path_3915" fill="#FFFFFF" fill-rule="nonzero"></path>
                                        <path d="M247.234816,84.4298221 C247.334427,84.7950338 247.234816,85.3705196 247.677532,85.381586 C247.566853,85.0053072 247.655396,84.4962245 247.234816,84.4298221 Z" id="_Path_3921" fill="#FFFFFF" fill-rule="nonzero"></path>
                                        <path d="M246.649344,193.223426 C246.538665,193.356231 246.870701,193.942783 247.092059,193.699308 C247.313417,193.455834 246.859633,192.979951 246.649344,193.223426 Z" id="_Path_3926" fill="#FFFFFF" fill-rule="nonzero"></path>
                                        <polygon id="_Path_3930" fill="#FFFFFF" fill-rule="nonzero" points="246.019903 190.72636 246.019903 191.678125 246.916402 191.678125 246.916402 190.72636"></polygon>
                                        <path d="M245.412446,190.118951 C245.512057,190.495231 245.412446,191.070716 245.855162,191.081783 C245.755551,190.705504 245.844094,190.141086 245.412446,190.118951 Z" id="_Path_3939" fill="#FFFFFF" fill-rule="nonzero"></path>
                                        <path d="M243.875922,108.726174 C243.632428,108.726174 243.377866,109.102453 243.875922,109.202056 C244.119416,109.202056 244.373977,108.81471 243.875922,108.726174 Z" id="_Path_3944" fill="#FFFFFF" fill-rule="nonzero"></path>
                                        <path d="M243.008687,99.6940171 C242.88694,99.8378882 243.218976,100.424441 243.440335,100.180966 C243.661692,99.937492 243.241112,99.4173414 243.008687,99.6940171 Z" id="_Path_3952" fill="#FFFFFF" fill-rule="nonzero"></path>
                                        <path d="M242.375163,108.118765 C242.44157,108.556298 242.297689,109.173993 242.81788,109.225468 C242.740404,108.796513 242.884287,108.170239 242.375163,108.118765 Z" id="_Path_3954" fill="#FFFFFF" fill-rule="nonzero"></path>
                                        <path d="M241.767707,107.511356 C241.85625,107.876568 241.767707,108.452054 242.199355,108.463121 C242.099744,108.05364 242.188287,107.522423 241.767707,107.511356 Z" id="_Path_3959" fill="#FFFFFF" fill-rule="nonzero"></path>
                                        <path d="M241.798074,170.142914 C241.665259,170.275718 241.997296,170.873337 242.229722,170.618796 C242.462148,170.364255 242.019431,169.899439 241.798074,170.142914 Z" id="_Path_3960" fill="#FFFFFF" fill-rule="nonzero"></path>
                                        <path d="M241.152773,94.0168357 C240.924281,94.0168357 240.71407,93.939367 240.787187,93.5409538 L240.056016,93.5409538 C239.489357,94.714059 241.289867,94.946466 241.152773,94.0168357 Z" id="_Path_3963" fill="#FFFFFF" fill-rule="nonzero"></path>
                                        <path d="M240.567589,126.369019 C240.472077,126.844079 240.847312,127.301225 241.453021,127.447731 C241.40875,126.879108 241.50836,126.193415 240.567589,126.369019 Z" id="_Path_3964" fill="#FFFFFF" fill-rule="nonzero"></path>
                                        <path d="M240.578825,109.401013 C240.457078,109.533817 240.789115,110.12037 241.021541,109.876895 C241.253967,109.633421 240.800183,109.157538 240.578825,109.401013 Z" id="_Path_3966" fill="#FFFFFF" fill-rule="nonzero"></path>
                                        <path d="M239.97502,145.24339 C239.842205,145.365127 240.18531,145.973814 240.406668,145.719272 C240.628026,145.46473 240.196378,144.988848 239.97502,145.24339 Z" id="_Path_3972" fill="#FFFFFF" fill-rule="nonzero"></path>
                                        <g id="_Path_3975"></g>
                                        <path d="M236.908054,88.696633 L236.908054,89.788386 L238.014844,89.788386 L238.014844,89.0605507 C237.577709,89.0436241 237.540506,88.5950742 236.908054,88.696633 Z" id="_Path_3978" fill="#FFFFFF" fill-rule="nonzero"></path>
                                        <path d="M237.270784,102.652085 C237.270784,103.018149 236.97316,103.086254 236.908054,103.384212 C237.280085,103.384212 237.34519,103.682171 237.652115,103.758788 C237.652115,103.384212 237.949739,103.316107 238.014844,103.018149 C237.652115,103.018149 237.577709,102.728704 237.270784,102.652085 Z" id="_Path_3979" fill="#FFFFFF" fill-rule="nonzero"></path>
                                        <path d="M236.934121,97.2570423 C236.812374,97.3898462 237.144411,97.9763992 237.365769,97.7329243 C237.587127,97.4894501 237.210819,97.0025002 236.934121,97.2570423 Z" id="_Path_3984" fill="#FFFFFF" fill-rule="nonzero"></path>
                                        <path d="M237.18603,107.26159 C236.743314,107.26159 236.665838,106.970485 236.300598,106.903947 C236.300598,107.469522 236.300598,108.151538 237.18603,107.985192 L237.18603,107.26159 Z" id="_Path_3985" fill="#FFFFFF" fill-rule="nonzero"></path>
                                        <path d="M235.978986,129.378072 C235.735493,129.378072 235.480931,129.765418 235.978986,129.853955 C236.222481,129.853955 236.477042,129.466609 235.978986,129.378072 Z" id="_Path_3986" fill="#FFFFFF" fill-rule="nonzero"></path>
                                        <polygon id="_Path_3987" fill="#FFFFFF" fill-rule="nonzero" points="235.693142 151.244789 235.693142 152.196554 236.567505 152.196554 236.567505 151.244789"></polygon>
                                        <path d="M235.111114,164.074235 C234.989367,164.195973 235.332471,164.793592 235.553829,164.53905 C235.775188,164.284509 235.332471,163.819694 235.111114,164.074235 Z" id="_Path_3990" fill="#FFFFFF" fill-rule="nonzero"></path>
                                        <path d="M234.985445,187.008124 C235.107192,186.886388 234.775156,186.288767 234.54273,186.532242 C234.310304,186.775717 234.764088,187.306934 234.985445,187.008124 Z" id="_Path_3992" fill="#FFFFFF" fill-rule="nonzero"></path>
                                        <path d="M232.899594,190.72636 C233.107294,191.500096 232.259186,191.477669 232.899594,191.937424 C234.517922,192.015919 233.825589,190.838496 232.899594,190.72636 Z" id="_Path_3998" fill="#FFFFFF" fill-rule="nonzero"></path>
                                        <polygon id="_Path_4000" fill="#FFFFFF" fill-rule="nonzero" points="232.655859 139.704022 232.655859 140.810725 233.762649 140.810725 233.762649 139.704022"></polygon>
                                        <path d="M233.735701,187.081908 L233.009757,187.081908 C233.009757,187.568857 232.719379,187.657393 232.655859,188.044739 C233.218466,188.044739 233.908113,188.18861 233.735701,187.081908 Z" id="_Path_4001" fill="#FFFFFF" fill-rule="nonzero"></path>
                                        <path d="M229.644005,92.3924932 C229.522258,92.5252979 229.865362,93.1229173 230.086721,92.8794423 C230.308078,92.6359682 229.87643,92.149019 229.644005,92.3924932 Z" id="_Path_4016" fill="#FFFFFF" fill-rule="nonzero"></path>
                                        <path d="M230.226033,133.654317 C229.530704,133.556948 229.079888,133.743571 229.011119,134.352125 C229.41609,134.465722 229.591832,134.855196 230.226033,134.701029 L230.226033,133.654317 Z" id="_Path_4017" fill="#FFFFFF" fill-rule="nonzero"></path>
                                        <polygon id="_Path_4023" fill="#FFFFFF" fill-rule="nonzero" points="228.403663 91.7187278 228.403663 92.6815588 229.289094 92.6815588 229.289094 91.7187278"></polygon>
                                    </g>
                                </g>
                            </g>
                        </g>
                    </g>
                </g>
            </g>
        </g>
    </g>
</svg>