<?xml version="1.0" encoding="UTF-8"?>
<svg width="309px" height="167px" viewBox="0 0 309 167" version="1.1" xmlns="http://www.w3.org/2000/svg" xmlns:xlink="http://www.w3.org/1999/xlink">
    <!-- Generator: Sketch 51.3 (57544) - http://www.bohemiancoding.com/sketch -->
    <title>rainbow-background-2</title>
    <desc>Created with Sketch.</desc>
    <defs>
        <rect id="path-1" x="0" y="0" width="309" height="167"></rect>
        <linearGradient x1="52.56%" y1="-28.79%" x2="46.284%" y2="164.396%" id="linearGradient-3">
            <stop stop-color="#37EECA" offset="0%"></stop>
            <stop stop-color="#34D5E7" offset="100%"></stop>
        </linearGradient>
    </defs>
    <g id="components" stroke="none" stroke-width="1" fill="none" fill-rule="evenodd">
        <g id="rainbow-background-2">
            <mask id="mask-2" fill="white">
                <use xlink:href="#path-1"></use>
            </mask>
            <use id="Mask" fill="#D8D8D8" fill-rule="nonzero" xlink:href="#path-1"></use>
            <g id="298367-P7PFXD-643" mask="url(#mask-2)">
                <g transform="translate(-117.000000, -29.000000)" id="BACKGROUND_2">
                    <g>
                        <rect id="Rectangle-path" fill="url(#linearGradient-3)" fill-rule="nonzero" x="0" y="0" width="426.942308" height="197.456428"></rect>
                        <path d="M412.142596,183.136459 C405.206721,185.574314 398.060659,187.365797 390.795481,188.488077 C382.199327,189.810747 373.660481,189.875268 365.007019,190.043738 C354.895793,190.240884 344.232981,190.724788 334.920481,195.169534 C333.487788,195.854168 332.055096,196.621245 330.672548,197.456428 L426.942308,197.456428 L426.942308,176.666486 C422.183168,179.201855 417.235168,181.364966 412.142596,183.136459 Z" id="Shape" fill="#FFFFFF" fill-rule="nonzero" opacity="0.17"></path>
                        <path d="M154.751639,182.587959 C168.697183,169.737494 186.880848,162.336827 205.064512,157.807177 C225.327775,152.760191 246.297391,150.809321 267.144678,150.872507 C292.754916,150.947541 318.30991,153.518423 343.924095,152.961596 C365.347513,152.499548 387.287872,150.26829 406.765859,140.699552 C413.935097,137.182499 420.700435,132.894814 426.942308,127.912274 L426.942308,0 L398.853913,0 C398.853913,0.157965142 398.818398,0.315930284 398.798668,0.473895426 C395.799626,22.8417595 385.559477,44.0722746 372.545213,62.2975029 C360.059729,79.7921424 344.697532,95.6873848 326.281047,106.94635 C309.15494,117.411541 289.88215,123.947349 270.104258,127.059262 C259.875021,128.657559 249.546429,129.536419 239.194397,129.689382 C228.397846,129.863143 217.605242,129.148351 206.808691,129.148351 C196.430428,129.148351 185.953512,129.657789 175.847531,132.181282 C165.327207,134.811401 155.935471,139.526661 147.222466,145.947944 C141.274081,150.269453 135.827463,155.243379 130.984232,160.776922 L130.984232,197.456428 L143.126406,197.456428 C146.175069,191.905399 150.100842,186.884405 154.751639,182.587959 Z" id="Shape" fill="#FFFFFF" fill-rule="nonzero" opacity="0.17"></path>
                        <path d="M197.965841,50.2743937 C223.693413,46.1916793 249.019832,40.9941939 272.677163,29.6529222 C279.681182,26.2954267 286.456925,22.4804805 292.960505,18.2327922 L158.3125,18.2327922 L158.3125,55.1528611 C171.708173,54.3965373 185.114591,52.3139587 197.965841,50.2743937 Z" id="Shape" fill="#FFFFFF" fill-rule="nonzero" opacity="0.2"></path>
                        <g id="Group" transform="translate(0.000000, 10.952728)" fill-rule="nonzero">
                            <path d="M29.2161779,186.503699 C29.2161779,186.503699 29.2161779,187.019863 29.2161779,186.819133 C29.2161779,99.3364921 100.077139,28.8836811 187.489279,28.8836811 C274.901418,28.8836811 345.76238,99.1070859 345.76238,186.60048 C345.76238,186.804795 345.76238,186.518037 345.76238,186.518037 L374.974976,186.518037 L374.974976,187.181165 C374.974976,83.5612277 291.037115,0.0143378908 187.492861,0.0143378908 C83.9486058,0.0143378908 0,83.3138991 0,186.937421 L0,186.503699 L29.2161779,186.503699 Z" id="Shape" fill="#FE6959"></path>
                            <path d="M335.411178,37.2498404 C335.451388,36.8688161 335.471712,36.4859523 335.472067,36.1028091 C335.54317,32.1967932 333.501624,28.5566461 330.132855,26.5828079 C326.764086,24.6089698 322.592957,24.6089698 319.224188,26.5828079 C315.855419,28.5566461 313.813874,32.1967932 313.884976,36.1028091 C313.884976,36.2581363 313.884976,36.4122686 313.884976,36.5652061 C311.049724,35.8189021 308.032555,36.2725391 305.541594,37.819649 C303.050634,39.3667589 301.305203,41.8711241 300.714952,44.7449728 C298.458808,41.7295619 294.407604,40.6955953 290.98401,42.2613975 C287.560415,43.8271997 285.690253,47.5693397 286.491903,51.2499728 C287.293553,54.930606 290.550228,57.5543997 294.314399,57.5522938 L334.938389,57.5522938 C340.448601,57.5497386 344.948987,53.1453282 345.074518,47.6323291 C345.20005,42.1193301 340.904808,37.5143359 335.400433,37.2605938 L335.411178,37.2498404 Z" id="Shape" fill="#FFFFFF" opacity="0.9"></path>
                            <path d="M386.647837,94.7161068 C386.12692,89.8512561 388.332793,85.0961506 392.382232,82.3547148 C396.431671,79.6132791 401.662755,79.3336284 405.980979,81.6277339 C410.299203,83.9218393 412.998711,88.4147061 412.99863,93.307409 C412.99863,93.4973861 412.99863,93.6837787 412.99863,93.8737557 C416.468598,92.9604333 420.161189,93.5157194 423.209708,95.409282 C426.258227,97.3028445 428.394246,100.367952 429.116418,103.885188 C431.878746,100.19786 436.83506,98.9348753 441.023116,100.851083 C445.211172,102.76729 447.499267,107.344889 446.519872,111.847982 C445.540477,116.351075 441.558248,119.562829 436.953245,119.563672 L387.228077,119.563672 C380.461912,119.592116 374.919125,114.192866 374.764876,107.423221 C374.610628,100.653577 379.901736,95.0070951 386.662163,94.7268602 L386.647837,94.7161068 Z" id="Shape" fill="#FFFFFF" opacity="0.9"></path>
                            <path d="M148.928365,152.85267 C148.892321,152.528933 148.874385,152.203433 148.874639,151.877693 C148.874639,146.80781 152.981447,142.697858 158.047452,142.697858 C163.113456,142.697858 167.220264,146.80781 167.220264,151.877693 C167.220264,152.010319 167.220264,152.13936 167.220264,152.271985 C167.973949,152.071365 168.750592,151.970144 169.530481,151.970889 C173.835129,151.971732 177.5456,155.001999 178.409591,159.222278 C180.325418,156.65185 183.773454,155.767123 186.688764,157.097936 C189.604074,158.428749 191.196798,161.614537 190.513097,164.747419 C189.829397,167.880301 187.05451,170.111469 183.85024,170.104737 L149.329519,170.104737 C144.659122,170.084029 140.854488,166.34524 140.7487,161.672421 C140.642912,156.999602 144.274443,153.092207 148.939111,152.859839 L148.928365,152.85267 Z" id="Shape" fill="#FFFFFF" opacity="0.9"></path>
                            <path d="M45.8783894,186.503699 C45.8783894,186.503699 45.8783894,186.123745 45.8783894,185.923015 C45.8783894,107.498336 109.407548,43.9312975 187.768654,43.9312975 C266.12976,43.9312975 329.658918,107.494752 329.658918,185.91943 C329.658918,186.120161 329.658918,186.503699 329.658918,186.503699 L359.236851,186.503699 C359.236851,186.503699 359.236851,186.123745 359.236851,185.923015 C359.247596,91.1567254 282.462452,14.3307219 187.76149,14.3307219 C93.0605288,14.3307219 16.296875,91.1567254 16.296875,185.91943 C16.296875,186.120161 16.296875,186.503699 16.296875,186.503699 L45.8783894,186.503699 Z" id="Shape" fill="#FDA805"></path>
                            <path d="M379.455721,162.3336 C374.9625,162.329657 370.713132,164.378095 367.915385,167.896702 C365.601927,163.858445 361.30573,161.368189 356.654423,161.369377 C355.771451,161.369925 354.890745,161.458783 354.025433,161.634628 C353.856813,154.383818 347.89081,148.618128 340.644076,148.70256 C333.397342,148.786991 327.567085,154.690119 327.567187,161.942892 C327.567187,162.021751 327.567187,162.100609 327.567187,162.179468 C325.523591,161.695205 323.370942,162.175074 321.725938,163.481599 C320.080933,164.788125 319.125079,166.777147 319.132212,168.878847 C319.13429,169.193175 319.158226,169.506977 319.203846,169.817979 C313.409601,170.49924 309.153079,175.58669 309.501075,181.414857 C309.849072,187.243025 314.68068,191.786997 320.51476,191.772874 C326.603702,191.772874 373.524375,191.887577 379.444976,191.887577 C384.775056,191.970658 389.736167,189.172491 392.42546,184.566322 C395.114753,179.960152 395.114753,174.261025 392.42546,169.654856 C389.736167,165.048686 384.775056,162.250519 379.444976,162.3336 L379.455721,162.3336 Z" id="Shape" fill="#FFFFFF" opacity="0.9"></path>
                            <path d="M65.1445192,186.503699 C65.1445192,186.503699 65.1445192,186.12733 65.1445192,185.930184 C65.1445192,118.595864 119.690697,64.0186825 186.97351,64.0186825 C254.256322,64.0186825 308.8025,118.592279 308.8025,185.926599 C308.8025,186.123745 308.8025,186.503699 308.8025,186.503699 L342.499423,186.503699 C342.481514,100.476354 272.85625,30.8838168 186.966346,30.8838168 C101.076442,30.8838168 31.4583413,100.476354 31.4475962,186.503699 L65.1445192,186.503699 Z" id="Shape" fill="#F6FC5E"></path>
                            <path d="M80.7823558,186.503699 C80.7823558,186.503699 80.7823558,186.145252 80.7823558,185.937353 C80.7823558,126.682434 128.777548,78.6540846 187.990721,78.6540846 C247.203894,78.6540846 295.199087,126.686019 295.199087,185.933768 C295.199087,186.12733 295.199087,186.503699 295.199087,186.503699 L326.603702,186.503699 C326.267019,110.154431 264.342476,48.4118884 187.990721,48.4118884 C111.638966,48.4118884 49.7108413,110.154431 49.3777404,186.503699 L80.7823558,186.503699 Z" id="Shape" fill="#82E844"></path>
                            <path d="M211.522692,58.244097 C210.346513,58.2418215 209.185283,58.5078338 208.127212,59.0219276 C207.757135,55.6545349 204.836194,53.1544583 201.454695,53.310822 C198.073196,53.4671856 195.395067,56.2261683 195.336851,59.6133656 C195.337238,60.206556 195.421652,60.7966963 195.587572,61.3661727 C194.904152,61.1255708 194.184491,61.0043231 193.460024,61.0077255 C190.088292,61.0077255 187.354964,63.7431464 187.354964,67.1174592 C187.354964,70.491772 190.088292,73.2271929 193.460024,73.2271929 L211.522692,73.2271929 C214.25363,73.3117274 216.81406,71.9019401 218.204498,69.5481528 C219.594935,67.1943654 219.594935,64.2697555 218.204498,61.9159682 C216.81406,59.5621809 214.25363,58.1523935 211.522692,58.2369281 L211.522692,58.244097 Z" id="Shape" fill="#FFFFFF" opacity="0.9"></path>
                            <path d="M100.18101,186.503699 C100.18101,186.503699 100.18101,186.120161 100.18101,185.923015 C100.18101,137.665259 139.272019,98.5514926 187.492861,98.5514926 C235.713702,98.5514926 274.793966,137.661674 274.793966,185.91943 C274.793966,186.116576 274.793966,186.503699 274.793966,186.503699 L309.210817,186.503699 C309.210817,119.115613 254.70762,64.7140702 187.492861,64.7140702 C120.278101,64.7140702 65.7784856,119.115613 65.7677404,186.503699 L100.18101,186.503699 Z" id="Shape" fill="#03DBD9"></path>
                            <path d="M117.161995,186.503699 C117.161995,186.503699 117.161995,186.120161 117.161995,185.923015 C117.154832,147.049408 148.641827,115.53114 187.485697,115.53114 C226.329567,115.53114 257.812981,147.045824 257.812981,185.91943 C257.812981,186.116576 257.812981,186.503699 257.812981,186.503699 L289.289231,186.503699 C289.289231,130.227478 243.704543,84.6509074 187.492861,84.6509074 C131.281178,84.6509074 85.7000721,130.227478 85.6893269,186.503699 L117.161995,186.503699 Z" id="Shape" fill="#4D81EE"></path>
                            <path d="M257.927596,147.730458 C260.52915,147.730802 262.988513,148.918535 264.607524,150.956484 C266.224923,148.137809 269.467486,146.676455 272.64851,147.332582 C272.772927,143.154772 276.218005,139.846423 280.394199,139.894304 C284.570392,139.942186 287.938829,143.328655 287.967572,147.508221 C287.967572,147.554819 287.967572,147.601417 287.967572,147.648015 C288.262119,147.577716 288.563782,147.541633 288.866587,147.540481 C291.064875,147.54048 292.847494,149.32286 292.849471,151.52283 C292.848048,151.705233 292.833685,151.887304 292.80649,152.06767 C296.163142,152.459673 298.630159,155.406039 298.428478,158.782028 C298.226797,162.158016 295.426575,164.789236 292.047163,164.77821 C288.526322,164.77821 261.366058,164.846315 257.931178,164.846315 C253.209369,164.846315 249.381587,161.015603 249.381587,156.290179 C249.381587,151.564755 253.209369,147.734043 257.931178,147.734043 L257.927596,147.730458 Z" id="Shape" fill="#FFFFFF" opacity="0.9"></path>
                            <path d="M127.427236,186.503699 C127.427236,186.503699 127.427236,186.120161 127.427236,185.923015 C127.682003,152.906407 154.498734,126.27559 187.49107,126.27559 C220.483405,126.27559 247.300137,152.906407 247.554904,185.923015 C247.554904,186.120161 247.554904,186.507284 247.554904,186.507284 L269.457187,186.507284 C269.457187,186.507284 269.457187,186.123745 269.457187,185.926599 C269.457187,140.622449 232.762356,103.90311 187.492861,103.90311 C142.223365,103.90311 105.517788,140.622449 105.517788,185.91943 C105.517788,186.116576 105.517788,186.503699 105.517788,186.503699 L127.427236,186.503699 Z" id="Shape" fill="#CB419C"></path>
                            <path d="M226.146899,168.581336 C225.303086,168.579701 224.470045,168.770957 223.711322,169.140514 C223.549559,167.401534 222.418205,165.904012 220.790439,165.27427 C219.162672,164.644527 217.318984,164.99108 216.030476,166.168986 C214.741968,167.346892 214.230672,169.153178 214.710433,170.832385 C214.221084,170.655939 213.704756,170.56618 213.184615,170.567134 C211.589116,170.521481 210.094898,171.347243 209.283688,172.722936 C208.472478,174.098629 208.472478,175.806843 209.283688,177.182536 C210.094898,178.558229 211.589116,179.383992 213.184615,179.338338 L226.146899,179.338338 C229.114102,179.338338 231.519495,176.931104 231.519495,173.961629 C231.519495,170.992155 229.114102,168.58492 226.146899,168.58492 L226.146899,168.581336 Z" id="Shape" fill="#FFFFFF" opacity="0.9"></path>
                        </g>
                        <polygon id="Shape" fill="#FFFFFF" fill-rule="nonzero" points="356.908726 150.144972 354.294063 153.310062 356.908726 156.478736 353.742476 153.86207 350.579808 156.478736 353.194471 153.310062 350.579808 150.144972 353.742476 152.761637"></polygon>
                        <polygon id="Shape" fill="#FFFFFF" fill-rule="nonzero" points="380.841851 77.3909297 382.72226 79.7172525 380.841851 82.0435753 383.119832 80.1222979 385.394231 82.0435753 383.513822 79.7172525 385.394231 77.3909297 383.119832 79.3122071"></polygon>
                        <polygon id="Shape" fill="#FFFFFF" fill-rule="nonzero" points="208.14512 157.324671 206.221731 159.650994 208.14512 161.977317 205.816995 160.056039 203.492452 161.977317 205.415841 159.650994 203.492452 157.324671 205.816995 159.245948"></polygon>
                        <polygon id="Shape" fill="#FFFFFF" fill-rule="nonzero" points="357.059159 93.7683855 353.430865 98.1665335 357.06274 102.557513 352.667957 98.9264418 348.276755 102.557513 351.905048 98.1665335 348.276755 93.7683855 352.667957 97.3994564"></polygon>
                        <polygon id="Shape" fill="#FFFFFF" fill-rule="nonzero" points="320.683101 30.9289945 318.702404 33.3305912 320.683101 35.7321879 318.283341 33.7463901 315.883582 35.7321879 317.867861 33.3305912 315.883582 30.9289945 318.283341 32.9147924"></polygon>
                        <polygon id="Shape" fill="#FFFFFF" fill-rule="nonzero" points="341.048822 90.9474055 339.107524 93.2952351 341.048822 95.6430648 338.699207 93.703865 336.353173 95.6430648 338.290889 93.2952351 336.353173 90.9474055 338.699207 92.8866052"></polygon>
                        <polygon id="Shape" fill="#FFFFFF" fill-rule="nonzero" points="313.111322 133.961078 311.170024 136.308908 313.111322 138.656737 310.761707 136.717537 308.415673 138.656737 310.353389 136.308908 308.415673 133.961078 310.761707 135.900278"></polygon>
                        <polygon id="Shape" fill="#FFFFFF" fill-rule="nonzero" points="182.567981 58.4720828 180.322236 61.1926976 182.567981 63.9097279 179.849447 61.6622635 177.134495 63.9097279 179.376659 61.1926976 177.134495 58.4720828 179.849447 60.7195472"></polygon>
                        <polygon id="Shape" fill="#FFFFFF" fill-rule="nonzero" points="245.670913 47.2168385 242.125 51.5146213 245.670913 55.8052351 241.38 52.2566071 237.089087 55.8052351 240.635 51.5146213 237.089087 47.2168385 241.38 50.7654665"></polygon>
                        <polygon id="Shape" fill="#FFFFFF" fill-rule="nonzero" points="364.881659 159.844555 363.470457 161.554349 364.881659 163.267727 363.173173 161.85186 361.461106 163.267727 362.875889 161.554349 361.461106 159.844555 363.173173 161.260422"></polygon>
                        <polygon id="Shape" fill="#FFFFFF" fill-rule="nonzero" points="353.061947 58.7624251 351.650745 60.475803 353.061947 62.1855965 351.353462 60.7697298 349.641394 62.1855965 351.056178 60.475803 349.641394 58.7624251 351.353462 60.1782918"></polygon>
                        <polygon id="Shape" fill="#FFFFFF" fill-rule="nonzero" points="189.018678 121.13225 187.607476 122.842044 189.018678 124.555422 187.310192 123.139555 185.598125 124.555422 187.012909 122.842044 185.598125 121.13225 187.310192 122.548117"></polygon>
                        <polygon id="Shape" fill="#FFFFFF" fill-rule="nonzero" points="293.247043 149.449585 291.835841 151.159378 293.247043 152.872756 291.538558 151.456889 289.82649 152.872756 291.241274 151.159378 289.82649 149.449585 291.538558 150.865451"></polygon>
                        <polygon id="Shape" fill="#FFFFFF" fill-rule="nonzero" points="245.717476 95.3563069 243.919447 97.5320819 245.717476 99.7114413 243.539784 97.912036 241.365673 99.7114413 243.163702 97.5320819 241.365673 95.3563069 243.539784 97.1557122"></polygon>
                        <ellipse id="Oval" fill="#FFFFFF" fill-rule="nonzero" cx="344.279543" cy="149.30979" rx="1" ry="1"></ellipse>
                        <ellipse id="Oval" fill="#FFFFFF" fill-rule="nonzero" cx="184.892524" cy="53.6043689" rx="1" ry="1"></ellipse>
                        <ellipse id="Oval" fill="#FFFFFF" fill-rule="nonzero" cx="268.346851" cy="32.8144272" rx="1" ry="1"></ellipse>
                        <ellipse id="Oval" fill="#FFFFFF" fill-rule="nonzero" cx="296.642524" cy="158.987866" rx="1" ry="1"></ellipse>
                        <ellipse id="Oval" fill="#FFFFFF" fill-rule="nonzero" cx="344.995889" cy="98.768725" rx="1" ry="1"></ellipse>
                        <ellipse id="Oval" fill="#FFFFFF" fill-rule="nonzero" cx="250.79637" cy="120.992456" rx="1" ry="1"></ellipse>
                        <ellipse id="Oval" fill="#FFFFFF" fill-rule="nonzero" cx="179.878101" cy="161.496997" rx="1" ry="1"></ellipse>
                        <ellipse id="Oval" fill="#FFFFFF" fill-rule="nonzero" cx="315.625697" cy="90.1659905" rx="1" ry="1"></ellipse>
                        <ellipse id="Oval" fill="#FFFFFF" fill-rule="nonzero" cx="265.839639" cy="150.026685" rx="1" ry="1"></ellipse>
                        <ellipse id="Oval" fill="#FFFFFF" fill-rule="nonzero" cx="212.471851" cy="153.969605" rx="1" ry="1"></ellipse>
                        <ellipse id="Oval" fill="#FFFFFF" fill-rule="nonzero" cx="198.503101" cy="110.955932" rx="1" ry="1"></ellipse>
                        <ellipse id="Oval" fill="#FFFFFF" fill-rule="nonzero" cx="183.818005" cy="69.3760488" rx="1" ry="1"></ellipse>
                        <ellipse id="Oval" fill="#FFFFFF" fill-rule="nonzero" cx="358.606466" cy="58.2641834" rx="1" ry="1"></ellipse>
                        <ellipse id="Oval" fill="#FFFFFF" fill-rule="nonzero" cx="311.32762" cy="38.5495835" rx="1" ry="1"></ellipse>
                        <ellipse id="Oval" fill="#FFFFFF" fill-rule="nonzero" cx="370.426178" cy="171.891968" rx="1" ry="1"></ellipse>
                        <ellipse id="Oval" fill="#FFFFFF" fill-rule="nonzero" cx="361.830024" cy="153.25271" rx="1" ry="1"></ellipse>
                        <ellipse id="Oval" fill="#FFFFFF" fill-rule="nonzero" cx="189.548774" cy="69.3760488" rx="1" ry="1"></ellipse>
                        <ellipse id="Oval" fill="#FFFFFF" fill-rule="nonzero" cx="166.625697" cy="32.8144272" rx="1" ry="1"></ellipse>
                        <ellipse id="Oval" fill="#FFFFFF" fill-rule="nonzero" cx="260.467043" cy="82.997045" rx="1" ry="1"></ellipse>
                        <ellipse id="Oval" fill="#FFFFFF" fill-rule="nonzero" cx="190.26512" cy="85.8646232" rx="1" ry="1"></ellipse>
                        <ellipse id="Oval" fill="#FFFFFF" fill-rule="nonzero" cx="251.512716" cy="50.3783434" rx="1" ry="1"></ellipse>
                        <ellipse id="Oval" fill="#FFFFFF" fill-rule="nonzero" cx="352.159351" cy="53.9628161" rx="1" ry="1"></ellipse>
                        <path d="M377.980048,74.7527578 C377.983987,74.9636021 378.157276,75.1317136 378.36798,75.1290979 C378.578683,75.1264823 378.747753,74.954121 378.746464,74.7432438 C378.745176,74.5323666 378.574013,74.3620871 378.363293,74.3620503 C378.260699,74.3629966 378.162683,74.404693 378.090809,74.4779658 C378.018936,74.5512386 377.979094,74.6500851 377.980048,74.7527578 Z" id="Shape" fill="#FFFFFF" fill-rule="nonzero"></path>
                        <ellipse id="Oval" fill="#FFFFFF" fill-rule="nonzero" cx="358.964639" cy="44.2847398" rx="1" ry="1"></ellipse>
                        <ellipse id="Oval" fill="#FFFFFF" fill-rule="nonzero" cx="332.459832" cy="87.6568596" rx="1" ry="1"></ellipse>
                        <ellipse id="Oval" fill="#FFFFFF" fill-rule="nonzero" cx="307.387716" cy="87.2984123" rx="1" ry="1"></ellipse>
                        <ellipse id="Oval" fill="#FFFFFF" fill-rule="nonzero" cx="361.830024" cy="98.0518304" rx="1" ry="1"></ellipse>
                        <polygon id="Shape" fill="#FFFFFF" fill-rule="nonzero" points="412.558077 39.7073682 409.83238 43.0050831 412.558077 46.302798 409.259303 43.5785987 405.964111 46.302798 408.686226 43.0050831 405.964111 39.7073682 409.259303 42.4351519"></polygon>
                        <ellipse id="Oval" fill="#FFFFFF" fill-rule="nonzero" cx="416.988678" cy="35.3235581" rx="1" ry="1"></ellipse>
                        <ellipse id="Oval" fill="#FFFFFF" fill-rule="nonzero" cx="401.587236" cy="186.946754" rx="1" ry="1"></ellipse>
                        <ellipse id="Oval" fill="#FFFFFF" fill-rule="nonzero" cx="409.10887" cy="54.3212634" rx="1" ry="1"></ellipse>
                        <ellipse id="Oval" fill="#FFFFFF" fill-rule="nonzero" cx="375.082428" cy="142.499292" rx="1" ry="1"></ellipse>
                        <ellipse id="Oval" fill="#FFFFFF" fill-rule="nonzero" cx="312.402139" cy="31.0221908" rx="1" ry="1"></ellipse>
                        <ellipse id="Oval" fill="#FFFFFF" fill-rule="nonzero" cx="243.991082" cy="89.8075432" rx="1" ry="1"></ellipse>
                        <ellipse id="Oval" fill="#FFFFFF" fill-rule="nonzero" cx="252.229063" cy="128.878296" rx="1" ry="1"></ellipse>
                        <ellipse id="Oval" fill="#FFFFFF" fill-rule="nonzero" cx="283.39012" cy="141.782397" rx="1" ry="1"></ellipse>
                        <ellipse id="Oval" fill="#FFFFFF" fill-rule="nonzero" cx="241.842043" cy="120.275561" rx="1" ry="1"></ellipse>
                        <ellipse id="Oval" fill="#FFFFFF" fill-rule="nonzero" cx="188.474255" cy="118.483325" rx="1" ry="1"></ellipse>
                        <ellipse id="Oval" fill="#FFFFFF" fill-rule="nonzero" cx="271.570409" cy="146.442212" rx="1" ry="1"></ellipse>
                        <ellipse id="Oval" fill="#FFFFFF" fill-rule="nonzero" cx="214.262716" cy="162.572339" rx="1" ry="1"></ellipse>
                        <ellipse id="Oval" fill="#FFFFFF" fill-rule="nonzero" cx="257.243486" cy="31.3806381" rx="1" ry="1"></ellipse>
                        <ellipse id="Oval" fill="#FFFFFF" fill-rule="nonzero" cx="179.161755" cy="37.8326889" rx="1" ry="1"></ellipse>
                        <ellipse id="Oval" fill="#FFFFFF" fill-rule="nonzero" cx="241.842043" cy="39.266478" rx="1" ry="1"></ellipse>
                    </g>
                </g>
            </g>
        </g>
    </g>
</svg>