<?xml version="1.0" encoding="UTF-8"?>
<svg xmlns="http://www.w3.org/2000/svg" width="217" height="158" viewBox="0 0 217 158">
    <path fill="#A4A7B5" d="M99.058 156.435l.5.015 1 .025.993.017.5.006-.012 1-.5-.007-1.002-.016-1.008-.026-.5-.014.03-1zm8.964-.056l.045.999-.5.022c-.44.02-.884.036-1.333.05l-.677.019-.5.012-.024-1 .5-.012c.449-.01.893-.025 1.333-.041l.657-.027.5-.022zm-14.932-.296l.498.04.994.076.995.067.499.031-.063.998-.5-.031-1.002-.068-1.003-.076-.498-.04.08-.997zm20.874-.217l.121.993-.496.06c-.43.052-.87.1-1.32.146l-.682.066-.498.046-.091-.996.498-.046c.452-.041.896-.086 1.33-.134l.642-.075.496-.06zm-26.815-.44l.496.066.985.127.991.118.497.057-.114.994-.497-.057-1-.12-.994-.128-.496-.066.132-.991zm32.7-.484l.172.986-.492.086-.996.17-.984.162-.493.08-.16-.988.495-.08.976-.16.99-.17.492-.086zm-38.589-.507l.491.095.972.185.983.175.493.085-.171.986-.493-.086-.993-.177-.982-.186-.491-.096.191-.981zm44.473-.657l.209.978-.49.105-.984.207-.98.2-.49.099-.197-.98.49-.1.974-.198.979-.206.489-.105zm-50.267-.724l.483.132c.42.114.845.226 1.275.335l.648.161.486.119-.237.971-.486-.119c-.44-.107-.875-.217-1.306-.33l-.643-.172-.482-.132.262-.965zm56.099-.65l.243.97-.485.122-.975.242-.973.235-.487.116-.232-.973.486-.116.968-.234.97-.24.485-.122zm-61.756-1.226l.468.178c.404.154.815.305 1.233.452l.632.219.473.16-.321.947-.474-.16c-.432-.147-.857-.297-1.276-.45l-.623-.233-.467-.178.355-.935zm67.54-.35l.278.96-.48.138-.966.276-.966.269-.482.133-.265-.964.482-.133.96-.268.96-.273.48-.139zm5.71-1.774l.31.95-.475.156-.955.309-.956.303-.477.15-.3-.954.478-.15.95-.301.95-.307.475-.156zm-78.628-.416l.437.242c.375.208.76.41 1.154.61l.598.297.45.218-.436.9-.45-.218c-.414-.201-.82-.406-1.214-.615l-.585-.317-.438-.242.484-.875zm84.264-1.557l.345.938-.47.173-.943.343-.945.337-.471.167-.334-.943.472-.166.94-.336.936-.34.47-.173zm-89.023-1.889l.373.333c.355.318.729.63 1.12.934l.397.303.4.3-.598.8-.4-.298c-.42-.314-.823-.635-1.207-.963l-.378-.33-.373-.333.666-.746zm94.594-.3l.38.925-.461.19-.929.379-.932.373-.465.184-.368-.93.465-.184.926-.37.922-.376.462-.19zm5.464-2.398l.418.908-.455.21-.912.414-.916.41-.457.203-.405-.915.457-.202.91-.407.906-.413.454-.208zm-103.532-1.96l.229.444c.217.423.46.838.727 1.245l.276.405.288.409-.817.576-.288-.408c-.304-.43-.581-.87-.833-1.318l-.242-.45-.23-.445.89-.458zm108.914-.678l.456.89-.445.228-.894.454-.9.45-.448.221-.443-.896.448-.222.893-.446.888-.451.445-.228zm5.235-2.866l.497.867-.434.25-.872.494-.878.49-.437.241-.484-.875.438-.242.871-.485.865-.492.434-.248zm-115.322-2.142l.006.5c.006.49.04.973.098 1.447l.068.471.08.494-.987.16-.08-.493c-.082-.505-.137-1.02-.162-1.542l-.017-.524-.006-.5 1-.013zm120.43-.986l.54.841-.42.27-.847.538-.853.533-.425.263-.526-.851.426-.263.845-.528.84-.533.42-.27zm4.935-3.391l.585.81-.405.293-.816.583-.823.577-.411.285-.57-.822.41-.285.817-.571.808-.578.405-.292zm-125.124-1.642l.944.33-.164.472c-.167.476-.312.945-.437 1.409l-.119.461-.117.486-.972-.235.098-.408-.884-.043-1.005-.06-.499-.033.065-.998.499.033.995.06.993.048.099.004.02-.064c.048-.164.1-.328.152-.493l.167-.497.165-.472zm5.872 1.594l.018 1-.5.009-1.005.012-1.007.003-.5-.002.003-1 .5.002.996-.003.995-.012.5-.009zm5.96-.323l.075.997-.499.038-.721.054-.64.045-.64.04-.498.031-.06-.998.499-.03c.422-.026.844-.054 1.265-.085l.362-.027.358-.027.499-.038zm-20.878-.485l.496.062.99.119.988.109.498.052-.105.994-.497-.052-.998-.11-1-.12-.496-.061.124-.993zm26.826-.015l.091.996-.498.045c-.434.04-.874.079-1.32.118l-.675.058-.498.042-.085-.996.498-.043c.452-.038.897-.077 1.336-.116l.653-.059.498-.045zm5.945-.621l.114.993-.496.058c-.434.05-.873.099-1.32.148l-.673.072-.497.053-.106-.994.497-.053c.45-.048.895-.097 1.332-.146l.652-.074.497-.057zm-38.66-.296l.493.09.981.174.98.165.494.08-.16.987-.494-.08-.99-.167-.99-.176-.493-.09.18-.983zm44.585-.51l.15.99-.494.075c-.432.066-.87.13-1.314.194l-.672.095-.495.068-.137-.99.495-.069c.448-.062.89-.125 1.324-.19l.648-.097.495-.075zm100.205-1.364l.631.775-.387.316-.782.63-.79.624-.394.308-.616-.788.394-.308.782-.618.774-.624.388-.315zm-150.64.618l.486.115.971.227.97.217.489.107-.215.977-.488-.107-.978-.22-.98-.228-.487-.115.232-.973zm56.325-.332l.204.979-.49.102c-.43.09-.865.177-1.306.262l-.666.128-.492.092-.184-.983.491-.092c.444-.083.88-.168 1.311-.255l.642-.131.49-.102zm-62.111-1.225l.48.14.96.275.957.267.483.132-.264.964-.483-.132-.965-.269-.968-.277-.48-.14.28-.96zm67.907-.242l.278.96-.48.14c-.423.122-.852.242-1.287.359l-.655.173-.484.125-.251-.968.484-.125c.434-.113.862-.228 1.285-.346l.63-.18.48-.138zM58.01 123.39l.855.52-.26.427c-.234.386-.457.768-.668 1.147l-.308.566-.234.441-.883-.468.234-.442c.205-.387.423-.778.652-1.171l.352-.592.26-.428zm-34.98.661l.474.162.945.32.945.311.475.155-.31.95-.475-.154-.951-.314-.953-.322-.473-.162.324-.946zm79.193-.4l.372.928-.464.186c-.412.165-.829.327-1.25.484l-.635.234-.47.17-.34-.942.47-.17c.419-.15.833-.305 1.242-.463l.61-.241.465-.186zm87.375-.77l.68.734-.368.34-.74.677-.749.671-.374.332-.663-.748.374-.332.741-.664.732-.67.367-.34zm-172.176-.912l.465.183.931.36.93.353.468.176-.352.936-.468-.176-.936-.355-.937-.363-.466-.183.365-.93zm90.14-.887l.476.88-.44.238c-.394.214-.791.422-1.191.626l-.602.301-.449.221-.442-.897.449-.22c.395-.195.787-.395 1.177-.6l.582-.31.44-.239zm-95.665-1.43l.457.201.916.399.915.39.46.196-.39.92-.46-.194-.92-.394-.923-.4-.457-.202.402-.916zm181.915-.987l.727.686-.343.364-.695.727-.704.721-.352.356-.711-.703.351-.356.697-.713.687-.719.343-.363zm-132.258-.171l.78.626-.313.39c-.282.351-.555.701-.82 1.048l-.39.52-.299.4-.803-.595.298-.402c.261-.351.531-.705.81-1.061l.424-.536.313-.39zm51.046-.603l.574.818-.41.287c-.37.26-.74.513-1.113.76l-.559.368-.42.272-.543-.84.42-.272c.366-.237.732-.48 1.096-.729l.546-.378.41-.286zm-106.132-.766l.45.218.9.433.9.426.453.212-.425.905-.453-.212-.905-.428-.906-.436-.45-.218.436-.9zm191.264-2.979l.775.632-.316.388-.64.775-.652.77-.325.379-.76-.651.326-.38.643-.76.633-.765.316-.388zm-80.466.054l.65.76-.38.325c-.346.295-.69.584-1.035.867l-.516.42-.39.314-.626-.78.39-.313c.338-.273.677-.551 1.017-.836l.51-.432.38-.325zm-51.692-.203l.722.691-.345.361c-.312.326-.616.65-.914.972l-.442.482-.336.37-.74-.672.336-.37c.295-.325.597-.651.905-.98l.468-.493.346-.361zm-64.444.406l.443.233.884.465.884.457.445.228-.457.89-.445-.229-.889-.46-.89-.466-.442-.234.467-.884zm120.502-4.28l.703.71-.356.352c-.323.32-.645.633-.965.94l-.479.457-.363.344-.688-.726.363-.344c.316-.298.632-.602.95-.912l.48-.47.355-.352zm-51.772-.363l.69.724-.362.345-.717.687-.713.695-.357.35-.7-.713.356-.35.719-.7.722-.693.362-.345zm131.44-.408l.82.571-.285.41-.58.824-.592.816-.296.403-.806-.592.296-.403.584-.806.573-.812.285-.41zm-75.552-3.558l.738.675-.338.369c-.307.336-.612.666-.914.99l-.452.482-.343.364-.728-.685.343-.364c.298-.317.598-.638.9-.966l.457-.496.337-.37zm-51.413-.073l.656.756-.378.327-.748.655-.746.662-.372.333-.667-.745.372-.333.752-.668.754-.659.377-.328zm130.136-1.41l.863.504-.252.432-.512.864-.524.858-.263.425-.85-.527.263-.425.517-.846.506-.853.252-.432zM79 101.898l.618.786-.393.309-.778.617-.777.625-.388.316-.63-.776.388-.316.782-.63.785-.622.393-.31zm49.849-1.028l.898.44-.22.449c-.19.391-.394.788-.61 1.19l-.332.605-.245.436-.872-.488.244-.437c.222-.395.432-.786.63-1.171l.287-.575.22-.449zm78.382-1.85l.901.433-.216.451-.441.905-.454.898-.228.445-.89-.457.229-.445.447-.886.435-.892.217-.451zM83.85 98.316l.576.817-.408.288-.81.577-.809.587-.403.295-.591-.806.403-.296.816-.592.817-.582.409-.288zm46.805-2.934l.981.192-.096.491c-.094.482-.214.976-.358 1.482l-.153.51-.15.476-.953-.3.15-.476c.152-.487.28-.963.386-1.425l.097-.46.096-.49zm-41.77-.385l.53.848-.423.265-.838.53-.839.542-.418.273-.547-.837.419-.274.846-.546.846-.536.424-.265zm120.667-1.47l.933.36-.18.467c-.107.276-.214.552-.324.828l-.21.525-.213.52-.191.462-.924-.382.191-.462c.142-.342.28-.684.417-1.03l.162-.41.16-.411.18-.466zM94.118 91.972l.477.878-.439.239-.867.478-.87.49-.433.249-.497-.868.434-.248.879-.496.876-.483.44-.24zm36.794-2.632l.197.46c.227.529.4 1.091.516 1.684l.063.36.078.493-.988.155-.078-.494c-.08-.516-.206-1.005-.375-1.465l-.135-.34-.197-.46.92-.393zm-31.4-.035l.416.91-.454.208-.897.417-.902.433-.449.22-.438-.9.45-.219.911-.438.908-.423.455-.208zm111.987-1.426l.954.3-.15.477-.308.956-.318.955-.16.474-.948-.321.16-.474.315-.945.305-.946.15-.476zm-106.38-.837l.342.94-.47.17c-.41.15-.822.304-1.236.463l-.622.243-.465.185-.368-.93.465-.184c.422-.167.841-.33 1.26-.486l.625-.23.47-.17zm20.954-1.82l.458.2c.537.233 1.037.499 1.498.797l.338.229.408.289-.579.816-.407-.29c-.396-.28-.829-.534-1.298-.76l-.359-.165-.458-.2.399-.916zm-15.142.08l.243.97-.485.122c-.42.106-.843.218-1.27.336l-.643.183-.48.14-.28-.96.48-.14c.439-.128.874-.249 1.306-.363l.644-.166.485-.121zm6.003-1.011l.102.995-.497.05c-.425.044-.856.097-1.294.158l-.662.099-.494.078-.156-.988.494-.078c.456-.072.906-.135 1.35-.189l.66-.074.497-.051zm3.033-.118l.5.018c.53.02 1.046.056 1.545.109l.495.058.496.065-.13.992-.496-.065c-.465-.061-.947-.107-1.444-.136l-.503-.023-.5-.018.037-1zm93.097-1.978l.97.24-.12.485-.245.974-.257.973-.13.482-.966-.26.13-.483.254-.962.244-.964.12-.485zm1.213-5.87l.984.174-.087.493-.182.988-.193.988-.098.49-.98-.197.098-.49.19-.977.18-.978.088-.492zm.82-5.93l.993.11-.054.497-.116.999-.127.997-.065.496-.992-.132.066-.495.125-.987.115-.987.054-.497zm.425-5.965l1 .044-.023.5-.05 1.005-.06 1.003-.033.5-.998-.067.033-.498.06-.993.05-.994.021-.5zm1.035-6.003l.01.5.016 1.006.005 1.004v.5h-1v-.5l-.005-.994-.015-.995-.01-.5 1-.02zm-.348-6.029l.042.499.079 1.003.068 1.002.032.499-.998.063-.032-.5-.068-.99-.078-.994-.042-.498.997-.084zm-.712-5.96l.072.494.139.997.129.996.062.496-.993.123-.061-.496-.128-.986-.138-.987-.071-.495.99-.143zm-1.065-5.95l.1.49.196.986.186.986.09.491-.983.181-.09-.491-.185-.976-.194-.978-.1-.49.98-.2zm-1.391-5.877l.126.484.25.975.24.974.117.486-.972.235-.118-.486-.238-.965-.247-.967-.126-.484.968-.252zm-1.693-5.79l.15.477.299.961.29.96.142.48-.959.284-.142-.479-.287-.952-.297-.954-.15-.477.954-.3zm-1.968-5.69l.172.469.344.945.334.944.166.472-.944.33-.165-.472-.333-.936-.34-.938-.173-.47.939-.344zm-2.227-5.604l.193.461.385.928.376.927.186.464-.928.373-.186-.464-.374-.92-.381-.922-.193-.461.922-.386zm-2.456-5.497l.212.453.422.912.414.91.206.456-.912.412-.205-.456-.412-.905-.42-.906-.211-.453.906-.423zM198.02.242l.749.478 7.74 4.936.42.268-.537.844-.422-.27-6.131-3.91.516.964.236.441-.882.472-.236-.441-.514-.963-.158 7.268-.01.5-1-.021.01-.5.2-9.177.019-.889zm3.984 6.397l.236.441.463.867.233.462.231.462.223.447-.895.446-.223-.447-.229-.458-.227-.45-.458-.857-.236-.441.882-.472z"/>
</svg>
