<?xml version="1.0" encoding="UTF-8"?>
<svg width="1112px" height="600px" viewBox="0 0 1112 600" version="1.1" xmlns="http://www.w3.org/2000/svg" xmlns:xlink="http://www.w3.org/1999/xlink">
    <!-- Generator: Sketch 52.6 (67491) - http://www.bohemiancoding.com/sketch -->
    <title>chat</title>
    <desc>Created with Sketch.</desc>
    <defs>
        <path d="M0.25817947,0.184900809 L15.22492,0.184900809 L15.22492,21.8878712 C15.22492,26.8000379 11.8760722,30.7835704 7.74299136,30.7835704 C3.60846892,30.7835704 0.25817947,26.8000379 0.25817947,21.8878712 L0.25817947,0.184900809 Z" id="path-1"></path>
    </defs>
    <g id="chat" stroke="none" stroke-width="1" fill="none" fill-rule="evenodd">
        <rect fill="#FFFFFF" x="0" y="0" width="1112" height="600"></rect>
        <path d="M647.549701,492.443299 L444.519155,492.443299 C384.803436,492.443299 336.393507,444.034819 336.393507,384.317652 L336.393507,187.657748 C336.393507,127.942029 384.803436,79.5335491 444.519155,79.5335491 L647.549701,79.5335491 C707.265419,79.5335491 755.675348,127.942029 755.675348,187.657748 L755.675348,384.317652 C755.675348,444.034819 707.265419,492.443299 647.549701,492.443299" id="Fill-5" fill="#F4F6F9"></path>
        <g id="Group-3" transform="translate(228.656319, 98.780488)">
            <path d="M145.986681,72.9360241 C145.986681,113.215345 113.335328,145.866697 73.056008,145.866697 C32.7795846,145.866697 0.128231977,113.215345 0.128231977,72.9360241 C0.128231977,32.6581522 32.7795846,0.00679957813 73.056008,0.00679957813 C113.335328,0.00679957813 145.986681,32.6581522 145.986681,72.9360241" id="Fill-7" fill="#01B6F5"></path>
            <polygon id="Fill-13" fill="#DBC1A3" points="60.8828375 116.530454 84.4113376 116.530454 84.4113376 89.6413606 60.8828375 89.6413606"></polygon>
            <path d="M73.0657132,145.855978 C53.7973447,145.855978 36.2845967,138.380106 23.2593998,126.221131 C23.2593998,102.730293 43.9357411,103.613897 60.8835617,100.49376 C64.6758177,99.7781853 68.7193939,115.736251 72.7723855,115.736251 C76.8253771,115.736251 80.6284971,99.7781853 84.420753,100.49376 C101.587302,103.637074 122.285371,104.170133 122.285371,126.741154 C109.325358,138.597386 92.0284414,145.855978 73.0657132,145.855978 Z" id="Fill-16" fill="#FFFFFF"></path>
            <path d="M98.3944484,116.34678 C98.3944484,118.576071 96.5852324,120.383838 94.3559421,120.383838 C92.1252033,120.383838 90.3174358,118.576071 90.3174358,116.34678 C90.3174358,114.116042 92.1252033,112.308274 94.3559421,112.308274 C96.5852324,112.308274 98.3944484,114.116042 98.3944484,116.34678" id="Fill-22" fill="#576574"></path>
            <path d="M85.0365238,116.34678 C85.0365238,117.46215 84.1326401,118.366034 83.0172707,118.366034 C81.9033498,118.366034 80.999466,117.46215 80.999466,116.34678 C80.999466,115.229962 81.9033498,114.326079 83.0172707,114.326079 C84.1326401,114.326079 85.0365238,115.229962 85.0365238,116.34678" id="Fill-23" fill="#576574"></path>
            <g id="Group-116" transform="translate(40.243902, 19.451380)">
                <path d="M31.9290466,8.31485588 C43.1382794,8.31485588 60.864745,14.1308763 60.864745,41.3826265 C60.864745,57.1183009 55.2443621,67.4264799 52.7949508,70.2782004 C50.5421603,72.9013771 37.8721844,78.4922395 31.9290466,78.4922395 C31.9290466,50.9501537 31.9290466,8.31485588 31.9290466,8.31485588" id="Fill-109" fill="#EFD4B6"></path>
                <path d="M65.7848678,50.34214 C66.2884989,45.7707091 63.9725517,41.7138305 60.6134362,41.2792605 C57.2524311,40.8464673 54.1210364,44.2021677 53.6164603,48.773599 C53.1128293,53.3441413 55.4287765,57.4001308 58.7907266,57.8338126 C62.148897,58.2666054 65.2812364,54.9117936 65.7848678,50.34214" id="Fill-110" fill="#EFD4B6"></path>
                <path d="M6.6518847,41.3826265 C6.6518847,57.1183009 11.8150673,67.4264799 14.0652266,70.2782004 C16.1356117,72.9013771 27.7732208,78.4922395 33.2337549,78.4922395 C57.2382942,52.4907093 33.2337549,8.31485588 33.2337549,8.31485588 C22.9363582,8.31485588 6.6518847,14.1308763 6.6518847,41.3826265 Z" id="Fill-111" fill="#EFD4B6"></path>
                <path d="M0.0687948044,49.6769515 C-0.434866124,45.1055206 1.88121807,41.0486421 5.24053233,40.614072 C8.6017365,40.1812788 11.7333167,43.5369793 12.2369775,48.1084106 C12.7415834,52.6789528 10.4245543,56.7349423 7.06429507,57.1686241 C3.70498081,57.6014169 0.571510736,54.2466051 0.0687948044,49.6769515" id="Fill-112" fill="#EFD4B6"></path>
                <path d="M32.5938275,69.8447894 C37.1867877,69.8447894 40.9090909,68.2065465 40.9090909,66.1862528 L24.2793792,66.1862528 C24.2793792,68.2065465 28.0016824,69.8447894 32.5938275,69.8447894" id="Fill-113" fill="#FFFFFE"></path>
                <path d="M61.0923743,41.2091669 C62.2193879,37.934687 62.6175273,34.0369054 61.0959693,29.9004491 C53.0073556,7.90202237 62.195122,3.97419183 62.195122,3.97419183 C62.195122,3.97419183 53.2500141,3.59214056 46.3108822,9.07908374 C51.0957465,1.99267644 53.2500141,0.163123018 53.2500141,0.163123018 C53.2500141,0.163123018 43.2003607,-1.89394409 32.4335173,8.62062219 C34.8259494,2.90616534 37.6974075,0 37.6974075,0 C37.6974075,0 15.2047702,0.163123018 7.06852363,15.7070295 C2.43105184,24.567185 2.07335535,34.1648282 3.19587517,41.4203684 C3.46998931,41.3250701 3.7512933,41.2478014 4.04428087,41.2091669 C5.10568673,41.0709417 6.14013053,41.3413826 7.06852363,41.9183226 C7.06852363,38.5657155 7.06852363,35.6011693 7.06852363,35.136698 C11.3761598,33.3071446 15.9228594,31.0217052 15.6828972,21.8782308 C25.733449,21.8782308 31.2364025,21.8782308 31.2364025,21.8782308 L47.268035,21.8782308 C47.268035,21.8782308 46.5499456,32.1652834 55.1652179,34.679095 C55.1652179,38.9683718 55.1652179,42.7536842 55.1652179,45.5654102 C56.3344721,42.7141915 58.6478156,40.8889306 61.0923743,41.2091669 Z" id="Fill-114" fill="#483428"></path>
            </g>
        </g>
        <path d="M575.052428,192.295946 L418.948515,192.295946 C415.532877,192.295946 412.764733,189.526354 412.764733,186.110716 L412.764733,135.509159 L400.014757,127.391587 L575.052428,127.391587 C578.466617,127.391587 581.237659,130.159731 581.237659,133.576818 L581.237659,186.110716 C581.237659,189.526354 578.466617,192.295946 575.052428,192.295946" id="Fill-24" fill="#081832"></path>
        <path d="M502.096696,235.705254 L419.191433,235.705254 C415.774347,235.705254 413.006203,232.93711 413.006203,229.520024 L413.006203,209.437581 C413.006203,206.023391 415.774347,203.255247 419.191433,203.255247 L502.096696,203.255247 C505.512333,203.255247 508.281926,206.023391 508.281926,209.437581 L508.281926,229.520024 C508.281926,232.93711 505.512333,235.705254 502.096696,235.705254" id="Fill-25" fill="#081832"></path>
        <path d="M570.484629,279.115865 L419.191289,279.115865 C415.774202,279.115865 413.006058,276.347721 413.006058,272.930635 L413.006058,252.848192 C413.006058,249.434003 415.774202,246.66441 419.191289,246.66441 L570.484629,246.66441 C573.900266,246.66441 576.669859,249.434003 576.669859,252.848192 L576.669859,272.930635 C576.669859,276.347721 573.900266,279.115865 570.484629,279.115865" id="Fill-26" fill="#081832"></path>
        <path d="M562.330989,146.638807 L430.543576,146.638807 C429.670112,146.638807 428.964677,145.934821 428.964677,145.061356 C428.964677,144.190789 429.670112,143.483905 430.543576,143.483905 L562.330989,143.483905 C563.203005,143.483905 563.90844,144.190789 563.90844,145.061356 C563.90844,145.934821 563.203005,146.638807 562.330989,146.638807" id="Fill-27" fill="#FFFFFF"></path>
        <path d="M562.330989,161.885183 L430.543576,161.885183 C429.670112,161.885183 428.964677,161.181196 428.964677,160.307732 C428.964677,159.437164 429.670112,158.730281 430.543576,158.730281 L562.330989,158.730281 C563.203005,158.730281 563.90844,159.437164 563.90844,160.307732 C563.90844,161.181196 563.203005,161.885183 562.330989,161.885183" id="Fill-28" fill="#FFFFFF"></path>
        <path d="M562.330989,177.133006 L430.543576,177.133006 C429.670112,177.133006 428.964677,176.427572 428.964677,175.554107 C428.964677,174.683539 429.670112,173.976656 430.543576,173.976656 L562.330989,173.976656 C563.203005,173.976656 563.90844,174.683539 563.90844,175.554107 C563.90844,176.427572 563.203005,177.133006 562.330989,177.133006" id="Fill-29" fill="#FFFFFF"></path>
        <path d="M562.330989,264.467879 L430.543576,264.467879 C429.670112,264.467879 428.964677,263.762444 428.964677,262.890428 C428.964677,262.018412 429.670112,261.312977 430.543576,261.312977 L562.330989,261.312977 C563.203005,261.312977 563.90844,262.018412 563.90844,262.890428 C563.90844,263.762444 563.203005,264.467879 562.330989,264.467879" id="Fill-30" fill="#FFFFFF"></path>
        <path d="M478.709427,222.992361 L428.840827,222.992361 C427.97026,222.992361 427.263376,222.286926 427.263376,221.41491 C427.263376,220.542894 427.97026,219.83601 428.840827,219.83601 L478.709427,219.83601 C479.581443,219.83601 480.286878,220.542894 480.286878,221.41491 C480.286878,222.286926 479.581443,222.992361 478.709427,222.992361" id="Fill-31" fill="#FFFFFF"></path>
        <g id="Group-2" transform="translate(716.572062, 323.946785)">
            <path d="M146.714125,73.5215064 C146.714125,113.958717 113.932405,146.740437 73.4951943,146.740437 C33.0565353,146.740437 0.276263394,113.958717 0.276263394,73.5215064 C0.276263394,33.084296 33.0565353,0.302575546 73.4951943,0.302575546 C113.932405,0.302575546 146.714125,33.084296 146.714125,73.5215064" id="Fill-32" fill="#FF6837"></path>
            <g id="Group" transform="translate(44.235033, 18.625277)">
                <path d="M33.6619497,111.812127 L7.72265865,111.812127 C7.72265865,111.812127 -4.24853447,100.110257 1.73706208,82.7601291 C7.72265865,65.4108644 12.9106875,58.5517123 13.3098978,39.9924147 C31.2675405,39.9924147 33.6619497,39.9924147 33.6619497,39.9924147 L33.6619497,111.812127" id="Fill-119" fill="#634F37"></path>
                <path d="M32.992334,111.812127 L58.9316252,111.812127 C58.9316252,111.812127 70.9036711,100.110257 64.9180745,82.7601291 C58.9316252,65.4108644 53.7435964,58.5517123 53.3452388,39.9924147 C35.3867433,39.9924147 32.992334,39.9924147 32.992334,39.9924147 L32.992334,111.812127" id="Fill-121" fill="#634F37"></path>
                <path d="M65.3957625,32.1319456 C65.3957625,14.4118226 51.1879675,0.0466726816 33.6619497,0.0466726816 C16.1359319,0.0466726816 1.92899016,14.4118226 1.92899016,32.1319456 C1.92899016,49.8520685 16.1359319,64.2172184 33.6619497,64.2172184 C51.1879675,64.2172184 65.3957625,49.8520685 65.3957625,32.1319456" id="Fill-122" fill="#634F37"></path>
                <path d="M25.1251598,79.7705346 L41.4941926,79.7705346 L41.4941926,101.657811 C41.4941926,106.611693 37.8315782,110.627327 33.3096762,110.627327 C28.7893509,110.627327 25.1251598,106.611693 25.1251598,101.657811 L25.1251598,79.7705346 Z" id="Fill-34" fill="#B89164"></path>
                <path d="M7.04877786,45.7510667 C7.04877786,61.7824913 13.2288615,69.3410992 15.4816705,72.2467302 C17.5553466,74.9203591 28.1949854,83.5613554 33.6619497,83.5613554 C65.4445973,47.8093298 33.6619497,12.0573041 33.6619497,12.0573041 C23.3524272,12.0573041 7.04877786,17.9832734 7.04877786,45.7510667 Z" id="Fill-124" fill="#C69C6C"></path>
                <path d="M1.91960701,52.3713172 C1.46495074,47.934818 3.55654012,43.9976834 6.58900353,43.5768027 C9.62317296,43.156784 12.4500601,46.4125741 12.9055694,50.8490737 C13.3602256,55.2838477 11.2686363,59.2209819 8.23531983,59.641863 C5.20200338,60.061019 2.37426324,56.8069537 1.91960701,52.3713172" id="Fill-125" fill="#C69C6C"></path>
                <path d="M33.5783544,12.0573041 C43.8878769,12.0573041 60.1915262,17.9832734 60.1915262,45.7510667 C60.1915262,61.7824913 54.0105897,69.3410992 51.7586334,72.2467302 C49.6849577,74.9203591 39.0453185,83.5613554 33.5783544,83.5613554 C33.5783544,55.4986006 33.5783544,12.0573041 33.5783544,12.0573041" id="Fill-126" fill="#C69C6C"></path>
                <path d="M65.4042926,52.3713172 C65.8589488,47.934818 63.7673594,43.9976834 60.734896,43.5768027 C57.7015794,43.156784 54.8738392,46.4125741 54.4183302,50.8490737 C53.9636739,55.2838477 56.055263,59.2209819 59.0894327,59.641863 C62.1218961,60.061019 64.9496363,56.8069537 65.4042926,52.3713172" id="Fill-127" fill="#C69C6C"></path>
                <path d="M33.3122141,5.33183348 C32.8183192,5.26801137 32.302246,5.22402586 31.7486402,5.2188511 C31.7486402,5.2188511 14.3343672,6.53755392 9.48839683,29.4686661 C7.1622287,31.2323988 2.89801363,38.0924135 8.51937335,45.7355423 C9.29476273,39.2679475 11.6379911,34.5830596 15.6915119,32.7994903 C22.8841226,29.6359836 25.8457859,32.5752505 34.1805819,26.1085182 C39.0487306,22.3309391 40.7991145,14.7369703 39.7226113,10.4919374 C37.7871234,5.2188511 32.8439097,5.41635465 33.3122141,5.33183348" id="Fill-128" fill="#634F37"></path>
                <path d="M38.6213709,11.7028327 C38.6213709,11.7028327 32.3448967,35.3782487 59.7496653,45.2913749 C66.3161641,23.6185934 54.3210866,9.48199567 38.6213709,11.7028327" id="Fill-129" fill="#634F37"></path>
                <polyline id="Fill-130" fill="#FFFFFF" points="7.41301468 56.9587471 5.70357539 58.6871189 7.41301468 60.4129032 9.12160095 58.6871189 7.41301468 56.9587471"></polyline>
                <polyline id="Fill-131" fill="#FFFFFF" points="60.2751217 56.9587471 58.5665352 58.6871189 60.2751217 60.4129032 61.984561 58.6871189 60.2751217 56.9587471"></polyline>
                <path d="M33.6619497,73.7810483 C37.6813501,73.7810483 40.939009,71.286811 40.939009,68.2095502 L26.3857436,68.2095502 C26.3857436,71.286811 29.6434026,73.7810483 33.6619497,73.7810483" id="Fill-134" fill="#FFFFFE"></path>
            </g>
            <g id="Group-37" transform="translate(69.919204, 90.945920)">
                <mask id="mask-2" fill="white">
                    <use xlink:href="#path-1"></use>
                </mask>
                <g id="Clip-36"></g>
                <path d="M0.25817947,0.184900809 L15.22492,0.184900809 L15.22492,21.8878712 C15.22492,26.8000379 11.8760722,30.7835704 7.74299136,30.7835704 C3.60846892,30.7835704 0.25817947,26.8000379 0.25817947,21.8878712 L0.25817947,0.184900809 Z" id="Fill-35" mask="url(#mask-2)"></path>
            </g>
            <path d="M87.426158,116.369218 C86.142759,116.095446 85.415596,114.726583 85.870435,113.495332 L86.62512,111.451453 C87.2030841,109.814613 85.9877661,108.098103 84.2524251,108.098103 L70.8086026,108.098103 C69.0732616,108.098103 67.8593921,109.814613 68.4373562,111.451453 L69.1688647,113.514162 C69.6106669,114.762797 68.8443936,116.095446 67.5494063,116.372115 C55.8162997,118.878075 45.5708351,125.965741 38.3803238,137.791553 C48.8025093,143.495871 60.7615868,146.740582 73.479695,146.740582 C88.5878804,146.740582 102.624152,142.164671 114.286281,134.323769 C107.275388,124.59543 97.9482922,118.626031 87.426158,116.369218" id="Fill-39" fill="#E9ECF2"></path>
            <polyline id="Stroke-52" stroke="#546E7A" stroke-linecap="round" points="67.5498409 116.371971 76.3322884 129.253763 87.4265926 116.369074"></polyline>
            <path d="M78.434977,129.164099 C78.434977,130.324373 77.4934314,131.265918 76.3331576,131.265918 C75.1714351,131.265918 74.2313381,130.324373 74.2313381,129.164099 C74.2313381,128.002376 75.1714351,127.062279 76.3331576,127.062279 C77.4934314,127.062279 78.434977,128.002376 78.434977,129.164099" id="Fill-53" fill="#9575CD"></path>
        </g>
        <path d="M517.016282,414.782735 L673.120196,414.782735 C676.535834,414.782735 679.303978,412.014591 679.303978,408.597505 L679.303978,357.995948 L692.053954,349.878376 L517.016282,349.878376 C513.602093,349.878376 510.831052,352.647969 510.831052,356.063607 L510.831052,408.597505 C510.831052,412.014591 513.602093,414.782735 517.016282,414.782735" id="Fill-56" stroke="#F3F3F5" fill="#FFFFFF"></path>
        <path d="M589.972015,458.193492 L672.877277,458.193492 C676.292915,458.193492 679.062507,455.423899 679.062507,452.008261 L679.062507,431.925818 C679.062507,428.51018 676.292915,425.742036 672.877277,425.742036 L589.972015,425.742036 C586.556377,425.742036 583.786785,428.51018 583.786785,431.925818 L583.786785,452.008261 C583.786785,455.423899 586.556377,458.193492 589.972015,458.193492" id="Fill-57" stroke="#F3F3F5" fill="#FFFFFF"></path>
        <path d="M660.654422,369.711382 L528.86701,369.711382 C527.993545,369.711382 527.289559,369.005948 527.289559,368.133931 C527.289559,367.261915 527.993545,366.555032 528.86701,366.555032 L660.654422,366.555032 C661.527887,366.555032 662.231873,367.261915 662.231873,368.133931 C662.231873,369.005948 661.527887,369.711382 660.654422,369.711382" id="Fill-58" fill="#473F51"></path>
        <path d="M660.654422,384.959061 L528.86701,384.959061 C527.993545,384.959061 527.289559,384.253627 527.289559,383.38161 C527.289559,382.509594 527.993545,381.804159 528.86701,381.804159 L660.654422,381.804159 C661.527887,381.804159 662.231873,382.509594 662.231873,383.38161 C662.231873,384.253627 661.527887,384.959061 660.654422,384.959061" id="Fill-59" fill="#473F51"></path>
        <path d="M660.654422,400.205437 L528.86701,400.205437 C527.993545,400.205437 527.289559,399.500002 527.289559,398.627986 C527.289559,397.75597 527.993545,397.050535 528.86701,397.050535 L660.654422,397.050535 C661.527887,397.050535 662.231873,397.75597 662.231873,398.627986 C662.231873,399.500002 661.527887,400.205437 660.654422,400.205437" id="Fill-60" fill="#473F51"></path>
        <path d="M657.925678,443.544056 L608.057078,443.544056 C607.18651,443.544056 606.479627,442.84007 606.479627,441.966605 C606.479627,441.096038 607.18651,440.389154 608.057078,440.389154 L657.925678,440.389154 C658.797694,440.389154 659.503129,441.096038 659.503129,441.966605 C659.503129,442.84007 658.797694,443.544056 657.925678,443.544056" id="Fill-61" fill="#473F51"></path>
        <path d="M688.646899,251.517275 C686.663859,251.517275 685.051643,253.129491 685.051643,255.112531 C685.051643,257.095571 686.663859,258.707787 688.646899,258.707787 C690.62849,258.707787 692.242155,257.095571 692.242155,255.112531 C692.242155,253.129491 690.62849,251.517275 688.646899,251.517275 M688.646899,263.438691 C684.055054,263.438691 680.31929,259.704376 680.31929,255.112531 C680.31929,250.522134 684.055054,246.784922 688.646899,246.784922 C693.238745,246.784922 696.973059,250.522134 696.973059,255.112531 C696.973059,259.704376 693.238745,263.438691 688.646899,263.438691" id="Fill-62" fill="#FF6837"></path>
        <path d="M400.013453,337.798346 C398.031862,337.798346 396.419646,339.410562 396.419646,341.393602 C396.419646,343.376642 398.031862,344.988858 400.013453,344.988858 C401.996493,344.988858 403.608709,343.376642 403.608709,341.393602 C403.608709,339.410562 401.996493,337.798346 400.013453,337.798346 M400.013453,349.719762 C395.421608,349.719762 391.687293,345.985447 391.687293,341.393602 C391.687293,336.801757 395.421608,333.065993 400.013453,333.065993 C404.605299,333.065993 408.341062,336.801757 408.341062,341.393602 C408.341062,345.985447 404.605299,349.719762 400.013453,349.719762" id="Fill-63" fill="#01B6F5"></path>
        <path d="M101.549338,458.723484 C99.5662983,458.723484 97.9540825,460.3357 97.9540825,462.317291 C97.9540825,464.301779 99.5662983,465.913995 101.549338,465.913995 C103.530929,465.913995 105.143145,464.301779 105.143145,462.317291 C105.143145,460.3357 103.530929,458.723484 101.549338,458.723484 M101.549338,470.6449 C96.9574927,470.6449 93.2217295,466.909136 93.2217295,462.317291 C93.2217295,457.726894 96.9574927,453.991131 101.549338,453.991131 C106.141184,453.991131 109.875498,457.726894 109.875498,462.317291 C109.875498,466.909136 106.141184,470.6449 101.549338,470.6449" id="Fill-64" fill="#01B6F5"></path>
        <path d="M646.983436,142.758961 C645.784051,142.758961 644.807741,143.735271 644.807741,144.934655 C644.807741,146.134039 645.784051,147.111798 646.983436,147.111798 C648.18282,147.111798 649.15913,146.134039 649.15913,144.934655 C649.15913,143.735271 648.18282,142.758961 646.983436,142.758961 M646.983436,151.842703 C643.175246,151.842703 640.075388,148.744293 640.075388,144.934655 C640.075388,141.126465 643.175246,138.026608 646.983436,138.026608 C650.791625,138.026608 653.890035,141.126465 653.890035,144.934655 C653.890035,148.744293 650.791625,151.842703 646.983436,151.842703" id="Fill-65" fill="#1AD1A3"></path>
        <path d="M460.730664,386.550535 C459.529831,386.550535 458.554969,387.526845 458.554969,388.727678 C458.554969,389.927062 459.529831,390.901924 460.730664,390.901924 C461.930048,390.901924 462.906359,389.927062 462.906359,388.727678 C462.906359,387.526845 461.930048,386.550535 460.730664,386.550535 M460.730664,395.634277 C456.922474,395.634277 453.822616,392.534419 453.822616,388.727678 C453.822616,384.91804 456.922474,381.818182 460.730664,381.818182 C464.538854,381.818182 467.638712,384.91804 467.638712,388.727678 C467.638712,392.534419 464.538854,395.634277 460.730664,395.634277" id="Fill-66" fill="#FFFFFF"></path>
        <path d="M991.497452,31.6474501 C990.305693,31.6474501 989.337029,32.6189929 989.337029,33.810752 C989.337029,35.0025111 990.305693,35.9711752 991.497452,35.9711752 C992.69065,35.9711752 993.660754,35.0025111 993.660754,33.810752 C993.660754,32.6189929 992.69065,31.6474501 991.497452,31.6474501 M991.663724,40.6274945 C987.814864,40.6274945 984.68071,37.4948041 984.68071,33.6444801 C984.68071,29.7926915 987.814864,26.6585366 991.663724,26.6585366 C995.515512,26.6585366 998.649667,29.7926915 998.649667,33.6444801 C998.649667,37.4948041 995.515512,40.6274945 991.663724,40.6274945" id="Fill-67" fill="#E3E5ED"></path>
        <path d="M934.280021,126.375026 C932.347747,126.375026 930.777191,127.950969 930.777191,129.889333 C930.777191,131.825359 932.347747,133.398964 934.280021,133.398964 C936.214628,133.398964 937.787518,131.825359 937.787518,129.889333 C937.787518,127.950969 936.214628,126.375026 934.280021,126.375026 M934.280021,141.037848 C928.147151,141.037848 923.150776,136.03411 923.150776,129.889333 C923.150776,123.73988 928.147151,118.736142 934.280021,118.736142 C940.417558,118.736142 945.411599,123.73988 945.411599,129.889333 C945.411599,136.03411 940.417558,141.037848 934.280021,141.037848" id="Fill-68" fill="#01B6F5"></path>
        <path d="M313.067657,544.185857 C311.868273,544.185857 310.891962,545.162167 310.891962,546.363 C310.891962,547.562384 311.868273,548.537246 313.067657,548.537246 C314.267041,548.537246 315.2448,547.562384 315.2448,546.363 C315.2448,545.162167 314.267041,544.185857 313.067657,544.185857 M313.067657,553.269599 C309.259467,553.269599 306.159609,550.169741 306.159609,546.363 C306.159609,542.553362 309.259467,539.453504 313.067657,539.453504 C316.877295,539.453504 319.977153,542.553362 319.977153,546.363 C319.977153,550.169741 316.877295,553.269599 313.067657,553.269599" id="Fill-69" fill="#FF6837"></path>
        <path d="M691.930891,191.55968 C691.930891,193.389176 690.449043,194.871024 688.619547,194.871024 C686.790052,194.871024 685.308204,193.389176 685.308204,191.55968 C685.308204,189.730185 686.790052,188.248337 688.619547,188.248337 C690.449043,188.248337 691.930891,189.730185 691.930891,191.55968" id="Fill-70" fill="#FFFFFF"></path>
        <path d="M511.592835,458.104262 C511.592835,459.933758 510.110987,461.415606 508.281491,461.415606 C506.451996,461.415606 504.970148,459.933758 504.970148,458.104262 C504.970148,456.274767 506.451996,454.792919 508.281491,454.792919 C510.110987,454.792919 511.592835,456.274767 511.592835,458.104262" id="Fill-71" fill="#FF6837"></path>
        <path d="M766.487695,28.3451143 C766.487695,31.2982548 764.100356,33.6925667 761.152938,33.6925667 C758.20552,33.6925667 755.818182,31.2982548 755.818182,28.3451143 C755.818182,25.3943119 758.20552,23 761.152938,23 C764.100356,23 766.487695,25.3943119 766.487695,28.3451143" id="Fill-72" fill="#1AD1A3"></path>
        <path d="M826.276493,194.953857 C826.276493,196.783353 824.794645,198.265201 822.965149,198.265201 C821.135654,198.265201 819.653806,196.783353 819.653806,194.953857 C819.653806,193.124362 821.135654,191.642514 822.965149,191.642514 C824.794645,191.642514 826.276493,193.124362 826.276493,194.953857" id="Fill-73" fill="#FFCC00"></path>
        <path d="M278.727171,355.742322 C278.727171,357.571818 277.243875,359.053666 275.414379,359.053666 C273.584884,359.053666 272.103036,357.571818 272.103036,355.742322 C272.103036,353.912827 273.584884,352.430979 275.414379,352.430979 C277.243875,352.430979 278.727171,353.912827 278.727171,355.742322" id="Fill-74" fill="#FF6837"></path>
        <path d="M57.9794933,339.322153 C55.9964535,339.322153 54.3842377,340.934369 54.3842377,342.915961 C54.3842377,344.900449 55.9964535,346.512665 57.9794933,346.512665 C59.9610847,346.512665 61.5733004,344.900449 61.5733004,342.915961 C61.5733004,340.934369 59.9610847,339.322153 57.9794933,339.322153 M57.9794933,351.243569 C53.3876479,351.243569 49.6518847,347.507806 49.6518847,342.915961 C49.6518847,338.325564 53.3876479,334.5898 57.9794933,334.5898 C62.5713388,334.5898 66.3056534,338.325564 66.3056534,342.915961 C66.3056534,347.507806 62.5713388,351.243569 57.9794933,351.243569" id="Fill-64" fill="#FFB900"></path>
        <path d="M539.222903,41.7013109 C538.023519,41.7013109 537.047209,42.6776212 537.047209,43.878454 C537.047209,45.0778382 538.023519,46.0527 539.222903,46.0527 C540.422288,46.0527 541.400047,45.0778382 541.400047,43.878454 C541.400047,42.6776212 540.422288,41.7013109 539.222903,41.7013109 M539.222903,50.785053 C535.414714,50.785053 532.314856,47.6851952 532.314856,43.878454 C532.314856,40.0688157 535.414714,36.9689579 539.222903,36.9689579 C543.032542,36.9689579 546.1324,40.0688157 546.1324,43.878454 C546.1324,47.6851952 543.032542,50.785053 539.222903,50.785053" id="Fill-69" fill="#FF6837"></path>
        <path d="M1048.79497,244.532796 C1047.59558,244.532796 1046.61927,245.509107 1046.61927,246.70994 C1046.61927,247.909324 1047.59558,248.884186 1048.79497,248.884186 C1049.99435,248.884186 1050.97211,247.909324 1050.97211,246.70994 C1050.97211,245.509107 1049.99435,244.532796 1048.79497,244.532796 M1048.79497,253.616539 C1044.98678,253.616539 1041.88692,250.516681 1041.88692,246.70994 C1041.88692,242.900301 1044.98678,239.800443 1048.79497,239.800443 C1052.6046,239.800443 1055.70446,242.900301 1055.70446,246.70994 C1055.70446,250.516681 1052.6046,253.616539 1048.79497,253.616539" id="Fill-69" fill="#FF6837"></path>
        <path d="M256.517804,27.732353 C255.318419,27.732353 254.342109,28.7086634 254.342109,29.9094961 C254.342109,31.1088804 255.318419,32.0837422 256.517804,32.0837422 C257.717188,32.0837422 258.694947,31.1088804 258.694947,29.9094961 C258.694947,28.7086634 257.717188,27.732353 256.517804,27.732353 M256.517804,36.8160952 C252.709614,36.8160952 249.609756,33.7162374 249.609756,29.9094961 C249.609756,26.0998578 252.709614,23 256.517804,23 C260.327442,23 263.4273,26.0998578 263.4273,29.9094961 C263.4273,33.7162374 260.327442,36.8160952 256.517804,36.8160952" id="Fill-69" fill="#E3E5ED"></path>
        <path d="M112.484446,172.934403 C112.484446,174.763899 111.001149,176.245747 109.171654,176.245747 C107.342158,176.245747 105.86031,174.763899 105.86031,172.934403 C105.86031,171.104908 107.342158,169.62306 109.171654,169.62306 C111.001149,169.62306 112.484446,171.104908 112.484446,172.934403" id="Fill-74" fill="#FFB900"></path>
        <path d="M464.105288,558.382297 C464.105288,560.211792 462.621992,561.69364 460.792496,561.69364 C458.963001,561.69364 457.481153,560.211792 457.481153,558.382297 C457.481153,556.552801 458.963001,555.070953 460.792496,555.070953 C462.621992,555.070953 464.105288,556.552801 464.105288,558.382297" id="Fill-74" fill="#E3E5ED"></path>
        <path d="M903.832561,580.000922 C903.832561,581.830418 902.349265,583.312266 900.519769,583.312266 C898.690274,583.312266 897.208426,581.830418 897.208426,580.000922 C897.208426,578.171427 898.690274,576.689579 900.519769,576.689579 C902.349265,576.689579 903.832561,578.171427 903.832561,580.000922" id="Fill-74" fill="#FFCC00"></path>
        <path d="M78.1939802,35.9055785 C78.1939802,37.735074 76.7106837,39.2169219 74.8811882,39.2169219 C73.0516927,39.2169219 71.5698448,37.735074 71.5698448,35.9055785 C71.5698448,34.0760829 73.0516927,32.594235 74.8811882,32.594235 C76.7106837,32.594235 78.1939802,34.0760829 78.1939802,35.9055785" id="Fill-74" fill="#01B6F5"></path>
        <path d="M627.407609,293.666111 C627.407609,295.495606 625.925761,296.977454 624.096266,296.977454 C622.26677,296.977454 620.784922,295.495606 620.784922,293.666111 C620.784922,291.836615 622.26677,290.354767 624.096266,290.354767 C625.925761,290.354767 627.407609,291.836615 627.407609,293.666111" id="Fill-75" fill="#E3E5ED"></path>
        <path d="M1017.9928,536.189116 C1016.00976,536.189116 1014.39754,537.801332 1014.39754,539.784371 C1014.39754,541.767411 1016.00976,543.379627 1017.9928,543.379627 C1019.97439,543.379627 1021.58805,541.767411 1021.58805,539.784371 C1021.58805,537.801332 1019.97439,536.189116 1017.9928,536.189116 M1017.9928,548.110531 C1013.40095,548.110531 1009.66519,544.376217 1009.66519,539.784371 C1009.66519,535.193974 1013.40095,531.456763 1017.9928,531.456763 C1022.58464,531.456763 1026.31896,535.193974 1026.31896,539.784371 C1026.31896,544.376217 1022.58464,548.110531 1017.9928,548.110531" id="Fill-62" fill="#E3E5ED"></path>
        <path d="M1060.16969,463.047209 C1058.9703,463.047209 1057.99399,464.023519 1057.99399,465.222903 C1057.99399,466.422288 1058.9703,467.400047 1060.16969,467.400047 C1061.36907,467.400047 1062.34538,466.422288 1062.34538,465.222903 C1062.34538,464.023519 1061.36907,463.047209 1060.16969,463.047209 M1060.16969,472.130951 C1056.3615,472.130951 1053.26164,469.032542 1053.26164,465.222903 C1053.26164,461.414714 1056.3615,458.314856 1060.16969,458.314856 C1063.97788,458.314856 1067.07629,461.414714 1067.07629,465.222903 C1067.07629,469.032542 1063.97788,472.130951 1060.16969,472.130951" id="Fill-65" fill="#FFB900"></path>
        <path d="M960.285658,371.825756 C960.285658,373.655251 958.80381,375.137099 956.974315,375.137099 C955.144819,375.137099 953.662971,373.655251 953.662971,371.825756 C953.662971,369.99626 955.144819,368.514412 956.974315,368.514412 C958.80381,368.514412 960.285658,369.99626 960.285658,371.825756" id="Fill-70" fill="#E3E5ED"></path>
        <path d="M897.179228,503.533073 C897.179228,505.362568 895.69738,506.844416 893.867884,506.844416 C892.038389,506.844416 890.556541,505.362568 890.556541,503.533073 C890.556541,501.703577 892.038389,500.221729 893.867884,500.221729 C895.69738,500.221729 897.179228,501.703577 897.179228,503.533073" id="Fill-75" fill="#01B6F5"></path>
        <path d="M398.250181,403.422208 C398.250181,405.251704 396.768333,406.733552 394.938838,406.733552 C393.109342,406.733552 391.627494,405.251704 391.627494,403.422208 C391.627494,401.592713 393.109342,400.110865 394.938838,400.110865 C396.768333,400.110865 398.250181,401.592713 398.250181,403.422208" id="Fill-76" fill="#FFB900"></path>
        <path d="M662.370506,561.133683 C660.388915,561.133683 658.776699,562.745899 658.776699,564.728939 C658.776699,566.711979 660.388915,568.324195 662.370506,568.324195 C664.353546,568.324195 665.965762,566.711979 665.965762,564.728939 C665.965762,562.745899 664.353546,561.133683 662.370506,561.133683 M662.370506,573.055099 C657.778661,573.055099 654.044346,569.320784 654.044346,564.728939 C654.044346,560.137094 657.778661,556.40133 662.370506,556.40133 C666.962351,556.40133 670.698115,560.137094 670.698115,564.728939 C670.698115,569.320784 666.962351,573.055099 662.370506,573.055099" id="Fill-63" fill="#01B6F5"></path>
        <path d="M204.633103,577.763395 C203.43227,577.763395 202.457408,578.739705 202.457408,579.940538 C202.457408,581.139922 203.43227,582.114784 204.633103,582.114784 C205.832487,582.114784 206.808798,581.139922 206.808798,579.940538 C206.808798,578.739705 205.832487,577.763395 204.633103,577.763395 M204.633103,586.847137 C200.824913,586.847137 197.725055,583.74728 197.725055,579.940538 C197.725055,576.1309 200.824913,573.031042 204.633103,573.031042 C208.441293,573.031042 211.541151,576.1309 211.541151,579.940538 C211.541151,583.74728 208.441293,586.847137 204.633103,586.847137" id="Fill-66" fill="#E3E5ED"></path>
        <path d="M49.6226868,563.37121 C49.6226868,565.200706 48.1408389,566.682554 46.3113434,566.682554 C44.4818479,566.682554 43,565.200706 43,563.37121 C43,561.541715 44.4818479,560.059867 46.3113434,560.059867 C48.1408389,560.059867 49.6226868,561.541715 49.6226868,563.37121" id="Fill-76" fill="#E3E5ED"></path>
    </g>
</svg>