<?xml version="1.0" encoding="UTF-8"?>
<svg width="1112px" height="600px" viewBox="0 0 1112 600" version="1.1" xmlns="http://www.w3.org/2000/svg" xmlns:xlink="http://www.w3.org/1999/xlink">
    <!-- Generator: Sketch 52.6 (67491) - http://www.bohemiancoding.com/sketch -->
    <title>Rainbow Coming soon</title>
    <desc>Created with Sketch.</desc>
    <defs>
        <polygon id="path-1" points="0 0.506870102 7.5074029 0.506870102 7.5074029 7.13640446 0 7.13640446"></polygon>
        <polygon id="path-3" points="0 0.633587628 9.38425363 0.633587628 9.38425363 8.92050558 0 8.92050558"></polygon>
        <polygon id="path-5" points="0 0.506870102 7.5074029 0.506870102 7.5074029 7.13640446 0 7.13640446"></polygon>
        <path d="M3.8297428,17.5115721 C11.9277486,24.6265618 20.0147914,16.0827272 20.0147914,16.0827272 C20.0147914,16.0827272 16.3494936,5.01009292 3.49354401,0.310618453 C3.49354401,0.310618453 -4.26826297,10.3856193 3.8297428,17.5115721" id="path-7"></path>
        <path d="M3.8297428,17.5115721 C5.0283646,18.5603661 6.22698639,19.2693071 7.39271917,19.7151359 C9.84843212,18.3155257 11.9533289,16.2764069 13.4844952,13.3310131 C14.5881043,10.9483869 14.3615355,8.5949953 13.4077542,6.4170118 C10.9703129,4.10381791 7.73622664,1.86005638 3.49354401,0.310618453 C3.49354401,0.310618453 -4.26826297,10.3856193 3.8297428,17.5115721" id="path-9"></path>
        <polygon id="path-11" points="0 0.116573278 20.1986044 0.116573278 20.1986044 20.4870312 0 20.4870312"></polygon>
        <path d="M1.34844952,22.4412696 C-0.475063516,24.8604392 8.04319076,38.5715031 20.2742491,39.9638047 C22.1854662,40.1574844 39.0538753,21.5898096 39.0538753,21.5898096 C39.0538753,21.5898096 25.4524414,18.8088609 16.2215919,1.9879581 C16.2215919,1.9879581 3.17196255,20.0221 1.34844952,22.4412696" id="path-13"></path>
        <path d="M1.34844952,22.4412696 C-0.0877040337,24.3524867 4.91873456,33.3092611 13.1190617,37.6725368 C16.7331988,34.2995858 20.0294087,30.5538927 23.0369262,26.4866182 C25.8690356,22.4631956 26.4902725,18.330143 25.9128876,14.2482511 C22.631295,11.3722897 19.1998747,7.41099085 16.2215919,1.9879581 C16.2215919,1.9879581 3.17196255,20.0221 1.34844952,22.4412696" id="path-15"></path>
        <path d="M1.69195698,1.8198587 C-0.646817248,4.53868374 2.57630599,11.1493753 8.89099642,16.5760624 C15.2056868,22.0027495 22.2183552,24.202659 24.5607838,21.4801796 C26.899558,18.7613545 23.6764348,12.1543173 17.3617443,6.72763025 C12.8851843,2.87961577 8.0578081,0.654125918 4.79083284,0.654125918 C3.45334633,0.654125918 2.37531758,1.0305224 1.69195698,1.8198587" id="path-17"></path>
        <linearGradient x1="11.9037665%" y1="63.057743%" x2="88.0933841%" y2="36.9484458%" id="linearGradient-19">
            <stop stop-color="#FFA511" offset="0%"></stop>
            <stop stop-color="#F4AE11" offset="100%"></stop>
        </linearGradient>
        <path d="M1.69195698,1.8198587 C-0.646817248,4.53868374 2.57630599,11.1493753 8.89099642,16.5760624 C14.705043,21.5751923 21.1147461,23.8335712 23.9176209,22.0319841 C11.3467094,19.1523684 0.49333519,6.77148227 3.55201336,0.782027634 C2.78094873,0.953781366 2.14874883,1.28998016 1.69195698,1.8198587" id="path-20"></path>
        <path d="M0.48602652,50.327498 C-0.635854244,57.4717224 15.7136394,69.9037692 19.5616538,67.1776355 C41.5351686,50.1886333 66.070372,53.4117565 66.070372,53.4117565 C62.9312985,46.2163714 31.7817492,4.45097971 8.21859882,2.96731981 C11.6646365,36.0975185 0.898966345,48.1641318 0.48602652,50.327498" id="path-22"></path>
        <path d="M2.15971183,10.5792991 C3.35102495,15.0302788 9.2052692,28.1018341 31.7525145,46.4539032 C42.9530505,55.5714683 55.6262834,61.5097623 61.3014652,62.8435945 C66.0338287,63.9618209 71.4605158,60.5377093 71.4605158,60.5377093 C71.4605158,60.5377093 52.4250861,60.8227474 31.5442175,41.5059339 C10.6633488,22.1891205 3.2085059,9.04082414 1.81620436,1.46173389 C1.81620436,1.46173389 0.961090036,6.13197369 2.15971183,10.5792991" id="path-24"></path>
        <linearGradient x1="26.7999773%" y1="64.8066803%" x2="66.612272%" y2="36.1325255%" id="linearGradient-26">
            <stop stop-color="#1A1826" offset="0%"></stop>
            <stop stop-color="#4B4954" offset="100%"></stop>
        </linearGradient>
        <path d="M3.1134932,4.9552779 C-1.83447604,10.8277938 8.99331779,29.5233703 28.5074653,45.9678767 C38.7834546,54.6249956 49.2896669,61.538997 57.6252045,65.2700727 C58.6593812,64.1883897 59.6131626,63.0336199 60.4646226,61.8057634 C65.3139248,54.8150211 65.142171,47.2505482 62.3246789,40.0368914 C57.40229,34.3909442 51.321477,28.5111196 44.7217485,22.9528765 C29.6841611,10.2759893 16.0461838,2.96001114 8.3209202,2.96001114 C6.02234365,2.96001114 4.24633696,3.60682839 3.1134932,4.9552779" id="path-27"></path>
        <path d="M0.668743257,1.97699509 C2.15971183,6.96516201 2.38262625,12.051996 1.62983329,16.9597675 C6.00041764,22.6386037 12.3260711,29.1798629 19.890544,35.5530227 C29.1360109,43.34041 38.3156997,49.2787039 45.3502941,52.3556538 C49.4614207,50.8391049 53.6602513,49.9803362 57.9138969,50.3092263 C56.9930046,43.8958689 47.2176591,31.5296001 33.2215571,19.7370619 C20.1646191,8.73386002 7.24654578,1.43615355 0.310618453,0.646817248 C0.434865834,1.15476978 0.628545575,1.61521595 0.668743257,1.97699509" id="path-29"></path>
        <path d="M8.20763582,3.67626075 C6.64723489,4.45097971 2.78094873,8.74482303 2.78094873,8.74482303 C5.06856228,11.7450318 13.0605924,17.4165594 13.0605924,17.4165594 C13.0605924,17.4165594 16.3348763,13.0057773 17.1095952,11.321129 C17.8843142,9.63282637 16.6308774,6.63261755 14.4821286,4.8712282 C13.10079,3.73838444 11.5440434,3.24870358 10.1955939,3.25235792 C9.4464553,3.25235792 8.7630947,3.40218564 8.20763582,3.67626075" id="path-31"></path>
        <path d="M8.20763582,3.67626075 C6.64723489,4.45097971 2.78094873,8.74482303 2.78094873,8.74482303 C4.11843525,10.502558 7.93356071,13.5721992 10.43678,15.4870706 C11.7157972,14.4565482 14.6794626,11.233425 15.4395643,9.71687607 C16.2033202,8.27706818 16.8099398,7.16980475 15.5309226,5.91636794 C15.2166498,5.53997146 14.8658337,5.18550099 14.4821286,4.8712282 C13.10079,3.73838444 11.5440434,3.25235792 10.1955939,3.25235792 C9.4464553,3.25235792 8.7630947,3.40218564 8.20763582,3.67626075" id="path-33"></path>
        <path d="M2.99655448,5.28416803 C-2.14144016,11.2480423 9.92151881,30.5465841 29.6914697,47.5648209 C49.4577663,64.5830578 65.0142693,72.3704451 71.6615042,68.1533428 C75.7068527,65.5879999 74.7457627,60.2051648 73.4740542,57.0112762 C74.4936136,60.2892145 75.0161835,63.4429054 72.7578046,65.7451363 C67.4334389,71.1718233 49.1909999,61.5463056 30.34925,45.3210594 C11.5038458,29.1031218 0.252149097,11.2809313 5.21108134,5.52169979 C6.82629729,3.6506804 9.95440782,3.28159259 14.0874604,4.19883061 C11.9131312,3.53739603 10.0092228,3.21581457 8.38669822,3.21581457 C5.96387429,3.21581457 4.16228727,3.92840984 2.99655448,5.28416803" id="path-35"></path>
        <path d="M1.40691887,12.8230606 C0.738175617,14.4565482 5.86155292,18.8271326 6.77148227,18.7796262 C7.68872029,18.7284655 7.88605436,17.314238 9.57801135,17.8696969 C11.2699683,18.4288101 24.1953503,26.987262 24.1953503,26.987262 C24.1953503,26.987262 23.0405805,27.772944 23.2671493,28.0799081 C23.493718,28.3832179 23.8883862,29.1177392 24.4876971,29.0665785 C25.0833536,29.0190721 26.1102217,27.849685 26.1102217,27.849685 C26.1102217,27.849685 27.5025232,27.6998573 31.7927122,23.416977 C32.2348867,23.0003828 31.0399193,22.0941078 30.8462395,22.1525772 C30.6562141,22.2183552 29.8705321,22.7299621 29.8705321,22.7299621 C29.8705321,22.7299621 19.9819023,13.3237045 19.5178018,12.914419 C19.0537013,12.5087878 19.5251105,11.9204399 19.2839244,11.5476978 C19.039084,11.1713013 15.4541816,8.55479762 15.1691435,7.75084398 C14.8841054,6.94689034 12.3772318,3.95399019 10.3454216,3.38391397 C10.338113,3.38025963 10.3308043,3.38025963 10.3234956,3.38025963 C9.53050499,3.38025963 1.75042634,11.9752549 1.40691887,12.8230606" id="path-37"></path>
        <path d="M1.40691887,9.16872586 C0.738175617,10.8022135 5.86155292,15.1727978 6.77148227,15.1252915 C7.68872029,15.0741308 7.88605436,13.6599032 9.57801135,14.2153621 C11.2699683,14.7744753 24.1953503,23.3329273 24.1953503,23.3329273 C24.1953503,23.3329273 23.0405805,24.1186093 23.2671493,24.4255734 C23.493718,24.7288832 23.8883862,25.4634044 24.4876971,25.4122438 C25.0833536,25.3647374 26.1102217,24.1953503 26.1102217,24.1953503 C26.1102217,24.1953503 26.6802979,24.1332266 28.2041555,22.9711482 C28.1749208,22.609369 28.1018341,22.2439355 27.9666237,21.8492674 C25.8434553,15.4505273 18.2132043,11.3722897 14.0801517,5.4705391 C12.8669126,3.55201336 9.65109804,3.06598684 8.18570981,1.31190617 C5.89809627,3.35102495 1.69195698,8.46343925 1.40691887,9.16872586" id="path-39"></path>
        <polygon id="path-41" points="0 0.0589458596 54.4062628 0.0589458596 54.4062628 54.4620372 0 54.4620372"></polygon>
    </defs>
    <g id="Rainbow-Coming-soon" stroke="none" stroke-width="1" fill="none" fill-rule="evenodd">
        <rect fill="#F9FAFC" x="0" y="0" width="1112" height="600"></rect>
        <path d="M200.218982,512.057216 C195.125537,512.057216 190.246673,516.539542 190.482291,521.802109 C190.71851,527.082122 194.760088,531.547002 200.218982,531.547002 C205.311826,531.547002 210.191292,527.065278 209.955673,521.802109 C209.719454,516.522097 205.677876,512.057216 200.218982,512.057216" id="Fill-3" fill="#FFFFFF"></path>
        <path d="M131.030244,285.975707 C126.291202,285.975707 122.259841,290.007069 122.259841,294.746111 C122.259841,299.502694 126.273661,303.516514 131.030244,303.516514 C135.769891,303.516514 139.800647,299.485758 139.800647,294.746111 C139.800647,289.989528 135.786827,285.975707 131.030244,285.975707" id="Fill-5" fill="#FFFFFF" opacity="0.696126302"></path>
        <path d="M320.081161,564.679637 C315.342119,564.679637 311.310758,568.710998 311.310758,573.45004 C311.310758,578.206623 315.324578,582.220443 320.081161,582.220443 C324.820808,582.220443 328.851564,578.189687 328.851564,573.45004 C328.851564,568.693457 324.837744,564.679637 320.081161,564.679637" id="Fill-5" fill="#F9FAFC"></path>
        <path d="M737.848207,48.4255419 C737.471446,47.1522515 736.789688,46.0466958 735.805086,45.108875 C734.09495,43.8287936 733.721059,43.5191294 731.670762,42.8169522 C730.72563,42.4930271 729.639841,42.4441327 728.674615,42.3578885 C727.562273,42.3185014 726.526001,42.5378469 725.563646,43.015925 C724.562538,43.3242311 723.696346,43.8505245 722.965789,44.5954843 C722.17782,45.2874752 721.621649,46.1071347 721.295841,47.0537837 C720.789904,47.964441 720.558824,48.9457235 720.601165,49.9976312 C720.697329,50.6746822 720.792775,51.3517331 720.888939,52.0287841 C721.272158,53.3224472 721.964681,54.4463382 722.965789,55.3997781 C724.314952,56.5718844 726.09757,57.5334734 727.973481,57.6346575 C728.351677,57.7236181 728.735614,57.7881315 729.133187,57.8051087 C730.189553,58.0292078 731.245201,57.984388 732.30085,57.6713283 C732.932373,57.4187075 733.565331,57.1660866 734.197572,56.9134658 C735.123328,56.4414995 735.866085,55.7956866 736.426562,54.9773852 C736.918145,54.5088144 737.259742,53.9560365 737.447046,53.3190518 C737.945088,52.4240135 738.173298,51.45835 738.132392,50.4234195 C738.036946,49.757234 737.942935,49.0917275 737.848207,48.4255419" id="Fill-7" fill="#F9FAFC"></path>
        <path d="M55.7921893,158.742155 C55.7069445,158.689671 55.6223129,158.635291 55.5364548,158.585337 C55.5064044,158.570161 55.4763541,158.555617 55.446917,158.540441 C54.4699743,157.899259 53.4157592,157.552742 52.2842719,157.499626 C51.5305603,157.290957 50.7768486,157.290957 50.0225237,157.499626 C49.5858739,157.46548 49.1743682,157.531875 48.7886199,157.698178 C48.6837503,157.737382 48.5807206,157.782278 48.4770776,157.824012 C47.813517,158.112986 47.1499564,158.401961 46.4857825,158.690936 C45.5143592,159.230946 44.7348902,159.968875 44.146762,160.904723 C43.6297735,161.440939 43.272849,162.073268 43.0747621,162.80108 C42.5528674,163.825455 42.3136912,164.929503 42.3566203,166.113224 L42.6546706,168.398464 C42.934936,169.082645 43.2152014,169.766826 43.4948536,170.45164 C44.0192014,171.45325 44.7348902,172.256941 45.6425331,172.863346 C46.4477596,173.622774 47.3928122,174.135594 48.4770776,174.401805 C48.5813339,174.443538 48.6843636,174.486537 48.7886199,174.527638 C50.086304,175.039825 51.0442353,174.898183 52.2842719,174.72619 C53.0514755,174.72366 53.7671643,174.524477 54.4307249,174.128006 C54.8085006,173.985731 55.1770772,173.823855 55.5364548,173.640479 C55.6223129,173.590525 55.7069445,173.536145 55.7921893,173.483661 C58.3053791,171.945835 59.8925278,169.136393 59.8925278,166.113224 C59.8925278,163.089423 58.3053791,160.279981 55.7921893,158.742155" id="Fill-9" fill="#FFFFFF" opacity="0.696126302"></path>
        <path d="M555.907563,57.9452198 C549.416013,57.9452198 549.405924,67.6901124 555.907563,67.6901124 C562.39844,67.6901124 562.409873,57.9452198 555.907563,57.9452198" id="Fill-15" fill="#FFFFFF"></path>
        <path d="M116.317982,499.137095 C116.285577,498.432171 116.075861,497.776032 115.687611,497.168066 C114.974698,496.065556 113.857027,494.980121 112.513131,494.733154 C111.299467,494.510579 110.441648,494.395327 109.235321,494.707542 C108.328589,494.942923 107.779536,495.267334 107.094137,495.796027 C106.392841,496.335696 106.166617,496.474119 105.628569,497.382104 C105.346094,497.858964 105.26661,498.021169 104.994529,498.819391 C104.785425,499.434675 104.72734,500.106669 104.719391,500.756101 C104.70166,502.226317 105.344872,503.550792 106.319471,504.610006 C107.001813,505.28505 107.805827,505.752763 108.731513,506.011316 C109.457877,506.238769 110.184242,506.271089 110.910606,506.108883 C111.637581,506.075954 112.315032,505.860087 112.942346,505.46189 C113.578832,505.119795 114.089977,504.651473 114.47517,504.058142 C114.604179,503.917889 114.719737,503.770318 114.826124,503.61665 C114.836518,503.606284 114.846912,503.597746 114.856694,503.58738 C115.133667,503.23004 115.410639,502.8727 115.687611,502.51536 C116.075861,501.907394 116.285577,501.250645 116.317982,500.545722 C116.444546,500.076179 116.444546,499.607247 116.317982,499.137095" id="Fill-17" fill="#FFFFFF" opacity="0.696126302"></path>
        <path d="M128.106661,588.067379 C122.913844,588.067379 122.905235,595.863293 128.106661,595.863293 C133.299478,595.863293 133.308701,588.067379 128.106661,588.067379" id="Fill-19" fill="#FFFFFF"></path>
        <path d="M735.213587,178.781888 C728.722465,178.781888 728.711522,188.526781 735.213587,188.526781 C741.70471,188.526781 741.715652,178.781888 735.213587,178.781888" id="Fill-21" fill="#FFFFFF"></path>
        <path d="M831.688024,30.6595204 C823.898877,30.6595204 823.885346,42.3533916 831.688024,42.3533916 C839.477172,42.3533916 839.490702,30.6595204 831.688024,30.6595204" id="Fill-23" fill="#FFFFFF"></path>
        <path d="M1000.96031,95.2010266 C1000.58355,93.9277361 999.901789,92.8221805 998.917187,91.8843596 C997.207051,90.6042783 996.83316,90.294614 994.782863,89.5924368 C993.837731,89.2685117 992.751942,89.2196174 991.786716,89.1333732 C990.674374,89.093986 989.638102,89.3133315 988.675747,89.7914097 C987.674639,90.0997157 986.808447,90.6260091 986.07789,91.3709689 C985.289921,92.0629598 984.73375,92.8826193 984.407942,93.8292683 C983.902005,94.7399257 983.670925,95.7212082 983.713266,96.7731158 C983.80943,97.4501668 983.904876,98.1272178 984.00104,98.8042688 C984.38426,100.097932 985.076782,101.221823 986.07789,102.175263 C987.427053,103.347369 989.209671,104.308958 991.085582,104.410142 C991.463778,104.499103 991.847715,104.563616 992.245288,104.580593 C993.301654,104.804692 994.357302,104.759873 995.412951,104.446813 C996.044474,104.194192 996.677432,103.941571 997.309673,103.68895 C998.235429,103.216984 998.978186,102.571171 999.538663,101.75287 C1000.03025,101.284299 1000.37184,100.731521 1000.55915,100.094536 C1001.05719,99.1994981 1001.2854,98.2338346 1001.24449,97.1989042 C1001.14905,96.5327186 1001.05504,95.8672121 1000.96031,95.2010266" id="Fill-7" fill="#FFFFFF" opacity="0.696126302"></path>
        <path d="M798.555271,434.098075 C793.362901,434.098075 793.353406,443.842968 798.555271,443.842968 C803.748273,443.842968 803.757135,434.098075 798.555271,434.098075" id="Fill-27" fill="#F9FAFC"></path>
        <path d="M412.658089,106.669683 C407.464401,106.669683 407.456032,114.465597 412.658089,114.465597 C417.850582,114.465597 417.858951,106.669683 412.658089,106.669683" id="Fill-31" fill="#FFFFFF"></path>
        <path d="M113.489437,391.220548 C109.595041,391.220548 109.587921,397.067483 113.489437,397.067483 C117.383833,397.067483 117.390954,391.220548 113.489437,391.220548" id="Fill-33" fill="#FFFFFF"></path>
        <path d="M79.9038328,439.291044 C79.4622883,438.860672 78.9400965,438.556308 78.3359132,438.378559 C77.755252,438.102196 77.1295627,437.975581 76.4588452,437.998712 C75.1987298,438.049846 73.8915701,438.424214 73.0131856,439.291044 C72.1381615,440.15483 71.5863989,441.215844 71.5863989,442.411997 L71.5863989,443.32509 C71.5863989,444.456108 72.1300967,445.644956 73.0131856,446.445434 C73.4547301,446.875805 73.9769219,447.18017 74.5811052,447.357919 C75.1617664,447.634282 75.7874557,447.760897 76.4588452,447.738374 C77.7189607,447.687241 79.0254483,447.312264 79.9038328,446.445434 C80.7788569,445.582257 81.3312915,444.520633 81.3312915,443.32509 L81.3312915,442.411997 C81.3312915,441.28037 80.7875937,440.090913 79.9038328,439.291044" id="Fill-39" fill="#FFFFFF"></path>
        <path d="M837.535079,588.067379 C832.342076,588.067379 832.333214,597.812272 837.535079,597.812272 C842.728081,597.812272 842.73631,588.067379 837.535079,588.067379" id="Fill-41" fill="#FFFFFF"></path>
        <path d="M259.662827,69.6390909 C258.364626,69.6390909 258.36239,71.5880695 259.662827,71.5880695 C260.961027,71.5880695 260.963264,69.6390909 259.662827,69.6390909" id="Fill-49" fill="#FFFFFF"></path>
        <path d="M202.505784,71.255733 C202.135707,70.9736473 201.765029,70.6921555 201.394952,70.4106637 C200.539076,69.9213193 199.615694,69.6748655 198.625408,69.6718962 C196.215092,69.4331626 193.744502,70.5205286 192.067104,72.1809739 C191.081641,73.1566934 190.474089,74.5926579 190.474089,75.9698298 C190.474089,77.284646 191.066573,78.85423 192.067104,79.7592796 C193.1038,80.6969917 194.464161,81.393001 195.913124,81.3288636 C196.962477,81.2825422 197.922023,81.0087706 198.78031,80.4915146 C200.047248,80.5770311 201.6704,79.726617 202.505784,78.9029269 C203.457494,77.9652147 204.174743,76.4265117 204.113264,75.0796269 C204.049978,73.6810758 203.583465,72.2308586 202.505784,71.255733" id="Fill-51" fill="#FFFFFF"></path>
        <path d="M1038.6074,210.20495 C1037.86071,208.775037 1036.84176,207.627167 1035.54919,206.762045 C1034.40228,205.677477 1033.05593,204.945289 1031.51084,204.565479 C1029.93239,204.054846 1028.35394,203.981697 1026.77617,204.346736 C1025.19568,204.420588 1023.72409,204.905901 1022.36073,205.802674 C1021.44048,206.366058 1020.62096,207.032835 1019.89402,207.796675 C1019.34336,208.23627 1018.79339,208.675161 1018.24342,209.114756 C1017.64852,209.910246 1017.05294,210.705736 1016.45873,211.501227 L1015.30841,214.318149 C1014.83263,215.885216 1014.76457,217.452986 1015.10422,219.020053 C1015.10762,220.084224 1015.36695,221.076653 1015.88357,221.995933 C1016.15447,222.994692 1016.64387,223.861924 1017.35107,224.59763 C1017.85816,225.483853 1018.54087,226.189314 1019.39782,226.713311 C1020.49981,227.755678 1021.79374,228.459029 1023.27826,228.824068 C1023.48994,228.911284 1023.6955,228.968255 1023.91808,229.010456 C1026.26431,229.457085 1028.2498,229.755306 1030.59263,228.959112 C1031.53262,228.549761 1032.47329,228.139707 1033.41328,227.729654 C1033.48407,227.698003 1033.55214,227.662835 1033.61884,227.624854 C1033.72094,227.565773 1033.81419,227.496141 1033.91016,227.427212 C1034.70858,226.789976 1035.50767,226.152036 1036.30608,225.514097 C1036.35441,225.476819 1036.4007,225.437431 1036.44562,225.39523 C1036.55521,225.296058 1036.6539,225.187038 1036.75056,225.074502 C1038.22214,223.543306 1039.24041,221.738506 1039.80399,219.6594 C1039.94557,218.572018 1040.08715,217.485341 1040.22873,216.397959 C1040.22192,214.183106 1039.68148,212.118769 1038.6074,210.20495" id="Fill-1" fill="#F9FAFC"></path>
        <path d="M646.535064,510.108238 C636.149298,510.108238 636.13173,525.700066 646.535064,525.700066 C656.92083,525.700066 656.938399,510.108238 646.535064,510.108238" id="Fill-55" fill="#FFFFFF"></path>
        <path d="M800.208888,310.6148 C799.81769,309.217903 799.110203,308.004716 798.087123,306.975935 C797.740316,306.62931 797.393509,306.282685 797.046702,305.936061 C796.299679,305.131891 795.415321,304.563427 794.39224,304.23136 C793.408696,303.71489 792.349547,303.478492 791.213407,303.521473 C790.077961,303.478492 789.017425,303.71489 788.034574,304.23136 C787.012187,304.563427 786.127135,305.131891 785.379419,305.936061 C784.949378,306.49274 784.520031,307.048726 784.08999,307.605405 C783.343662,308.891382 782.968416,310.278574 782.963561,311.76698 C783.061361,312.497665 783.159854,313.22835 783.258347,313.959035 C783.650239,315.355932 784.357032,316.568425 785.379419,317.5979 L786.41984,318.637774 C787.167556,319.44125 788.052608,320.009715 789.074995,320.342474 C790.057846,320.858945 791.118382,321.095343 792.253828,321.052362 C793.389968,321.095343 794.449117,320.858945 795.432662,320.342474 C796.455742,320.009715 797.3401,319.44125 798.087123,318.637774 C798.517857,318.081095 798.947898,317.525109 799.377939,316.969123 C800.124267,315.682453 800.499513,314.295261 800.504368,312.806854 C800.405181,312.07617 800.307381,311.345485 800.208888,310.6148" id="Fill-57" fill="#FFFFFF" opacity="0.696126302"></path>
        <path d="M755.677616,445.791947 C745.291592,445.791947 745.275195,463.332753 755.677616,463.332753 C766.064296,463.332753 766.080693,445.791947 755.677616,445.791947" id="Fill-59" fill="#F9FAFC"></path>
        <path d="M811.223611,198.271674 C804.732388,198.271674 804.722016,208.016566 811.223611,208.016566 C817.714834,208.016566 817.725946,198.271674 811.223611,198.271674" id="Fill-61" fill="#FFFFFF"></path>
        <path d="M36.2723838,577.24998 C35.9636886,576.149294 35.4061594,575.193528 34.6009698,574.382682 C34.0117495,573.749024 33.3145445,573.301357 32.5093549,573.039094 C31.7346827,572.632497 30.9001495,572.44592 30.0051683,572.479363 C28.8320094,572.48347 27.7386653,572.779177 26.724549,573.36707 C25.7485794,573.944402 24.9709728,574.721219 24.3934899,575.69752 C24.1693044,576.031364 23.945119,576.365207 23.7209336,576.699637 C23.5108331,577.197176 23.3001457,577.695887 23.0900452,578.193426 C22.8294737,579.025394 22.7919138,579.856776 22.9785394,580.688744 C22.9803,581.253168 23.1223232,581.780042 23.4057828,582.268193 C23.6575513,583.04325 24.0894897,583.715044 24.6992507,584.281228 C25.1217991,584.607444 25.5437607,584.93366 25.9663092,585.259876 C26.4645643,585.469922 26.9628193,585.679968 27.4610744,585.8906 C28.2932601,586.151104 29.124859,586.188067 29.9570448,586.002077 C30.7898174,585.964527 31.5650764,585.717518 32.2839957,585.259876 C32.6173395,585.03575 32.951857,584.811623 33.2852008,584.587496 C34.2623442,584.009577 35.0393639,583.23276 35.6168468,582.256459 C36.2048934,581.243194 36.5006773,580.149549 36.5047854,578.976696 C36.4273182,578.401711 36.3492641,577.825552 36.2723838,577.24998" id="Fill-65" fill="#FFFFFF" opacity="0.696126302"></path>
        <path d="M43.3260973,291.822643 C36.8347732,291.822643 36.8245345,301.567536 43.3260973,301.567536 C49.8174214,301.567536 49.8282624,291.822643 43.3260973,291.822643" id="Fill-37" fill="#FFFFFF"></path>
        <path d="M452.611949,590.016357 C443.524002,590.016357 443.508771,603.659207 452.611949,603.659207 C461.699234,603.659207 461.714465,590.016357 452.611949,590.016357" id="Fill-72" fill="#FFFFFF" opacity="0.696126302"></path>
        <g id="Group-78" transform="translate(69.637420, 231.404309)">
            <mask id="mask-2" fill="white">
                <use xlink:href="#path-1"></use>
            </mask>
            <g id="Clip-77"></g>
            <path d="M7.50554404,3.32152438 C7.43355634,1.72835392 6.27113197,0.604283654 4.69802365,0.514003995 C3.26653049,0.431985219 1.80022361,1.06276271 0.840190894,2.11897571 C-0.347016128,3.4236053 -0.301581267,5.41211806 1.13876284,6.52497712 C1.78960247,7.02771091 2.50593912,7.21594105 3.32022624,7.10618931 C4.11386115,6.99997795 4.71100504,6.6341388 5.19839719,6.06000738 C5.20252763,6.05941731 5.20606801,6.05764712 5.21019845,6.056467 C5.76072736,5.94848544 6.2593307,5.73016209 6.68299603,5.30649676 C7.16979812,4.81969467 7.53681738,4.02074919 7.50554404,3.32152438 Z" id="Fill-76" fill="#F7F8FC" mask="url(#mask-2)"></path>
        </g>
        <path d="M1107.46849,508.159259 C1103.57409,508.159259 1103.56697,514.006195 1107.46849,514.006195 C1111.36288,514.006195 1111.37,508.159259 1107.46849,508.159259" id="Fill-33" fill="#FFFFFF"></path>
        <path d="M1069.98492,560.386715 C1069.54338,559.870269 1069.02119,559.505032 1068.417,559.291733 C1067.83634,558.960098 1067.21065,558.808159 1066.53994,558.835917 C1065.27982,558.897277 1063.97266,559.346519 1063.09428,560.386715 C1062.21925,561.423258 1061.66749,562.696475 1061.66749,564.131858 L1061.66749,565.22757 C1061.66749,566.584792 1062.21119,568.011409 1063.09428,568.971983 C1063.53582,569.488429 1064.05801,569.853666 1064.6622,570.066965 C1065.24286,570.3986 1065.86855,570.550539 1066.53994,570.523511 C1067.80005,570.462151 1069.10654,570.012179 1069.98492,568.971983 C1070.85995,567.93617 1071.41238,566.662222 1071.41238,565.22757 L1071.41238,564.131858 C1071.41238,562.773906 1070.86869,561.346558 1069.98492,560.386715" id="Fill-39" fill="#FFFFFF"></path>
        <path d="M976.240082,514.2456 C975.493399,512.815687 974.474451,511.667818 973.181878,510.802695 C972.034967,509.718127 970.688622,508.985939 969.143524,508.606129 C967.565074,508.095496 965.986625,508.022347 964.408855,508.387387 C962.828363,508.461239 961.356777,508.946551 959.993416,509.843324 C959.073164,510.406708 958.25365,511.073486 957.526705,511.837325 C956.976051,512.27692 956.426078,512.715811 955.876105,513.155406 C955.281209,513.950896 954.685631,514.746387 954.091416,515.541877 L952.941101,518.358799 C952.46532,519.925866 952.397254,521.493636 952.736903,523.060703 C952.740306,524.124874 952.999637,525.117303 953.516258,526.036583 C953.787161,527.035342 954.276555,527.902574 954.98376,528.63828 C955.490852,529.524503 956.173554,530.229964 957.030504,530.753961 C958.132492,531.796328 959.426426,532.499679 960.910945,532.864718 C961.12263,532.951934 961.32819,533.008906 961.550765,533.051107 C963.896999,533.497735 965.882484,533.795956 968.225314,532.999762 C969.165305,532.590411 970.105977,532.180358 971.045968,531.770304 C971.116757,531.738653 971.184823,531.703485 971.251527,531.665504 C971.353626,531.606423 971.446877,531.536791 971.54285,531.467863 C972.341264,530.830626 973.140358,530.192687 973.938772,529.554747 C973.987099,529.517469 974.033384,529.478082 974.078307,529.43588 C974.187893,529.336708 974.286589,529.227688 974.383243,529.115152 C975.854829,527.583956 976.873096,525.779157 977.436682,523.70005 C977.578259,522.612669 977.719836,521.525991 977.861414,520.438609 C977.854607,518.223756 977.314163,516.15942 976.240082,514.2456" id="Fill-1" fill="#FFFFFF"></path>
        <path d="M967.44099,341.72096 C967.126372,340.699448 966.589477,339.815394 965.830305,339.068099 C965.123899,338.264984 964.288217,337.696315 963.322597,337.364184 C962.393914,336.848544 961.393337,336.612005 960.320866,336.65387 C959.63029,336.752951 958.939714,336.851335 958.249138,336.94902 C956.929326,337.34046 955.783643,338.046587 954.811428,339.068099 L953.593191,340.736429 C952.888763,342.022389 952.533911,343.408827 952.529294,344.896438 L952.529294,345.943069 C952.48906,347.078315 952.712656,348.13611 953.200743,349.119245 C953.514701,350.140059 954.051596,351.024811 954.811428,351.771408 C955.517174,352.575221 956.352857,353.143192 957.319136,353.476021 C958.247819,353.991661 959.248396,354.2282 960.320866,354.184939 L962.391935,353.890487 C963.711747,353.499047 964.857431,352.79292 965.830305,351.771408 C966.235945,351.215298 966.642244,350.659886 967.047883,350.103078 C967.75297,348.817815 968.107822,347.431378 968.111779,345.943069 L968.111779,344.896438 C968.152673,343.76189 967.929076,342.703397 967.44099,341.72096" id="Fill-67" fill="#FFFFFF"></path>
        <g id="Group-78" transform="translate(1061.667490, 328.853235)">
            <mask id="mask-4" fill="white">
                <use xlink:href="#path-3"></use>
            </mask>
            <g id="Clip-77"></g>
            <path d="M9.38193005,4.15190547 C9.29194542,2.1604424 7.83891496,0.755354567 5.87252957,0.642504993 C4.08316312,0.539981524 2.25027951,1.32845338 1.05023862,2.64871964 C-0.43377016,4.27950663 -0.376976584,6.76514757 1.42345355,8.15622141 C2.23700309,8.78463864 3.1324239,9.01992632 4.1502828,8.88273664 C5.14232644,8.74997243 5.8887563,8.29267351 6.49799649,7.57500922 C6.50315954,7.57427164 6.50758501,7.5720589 6.51274807,7.57058375 C7.20090919,7.43560681 7.82416338,7.16270261 8.35374504,6.63312095 C8.96224764,6.02461834 9.42102173,5.02593649 9.38193005,4.15190547 Z" id="Fill-76" fill="#F7F8FC" mask="url(#mask-4)"></path>
        </g>
        <path d="M186.576132,159.292103 C178.78658,159.292103 178.773858,170.985974 186.576132,170.985974 C194.365684,170.985974 194.378406,159.292103 186.576132,159.292103" id="Fill-79" fill="#F8F9FB"></path>
        <path d="M240.173041,219.710437 C231.085198,219.710437 231.070422,233.353287 240.173041,233.353287 C249.260885,233.353287 249.275661,219.710437 240.173041,219.710437" id="Fill-81" fill="#FFFFFF"></path>
        <g id="Group-78" transform="translate(1040.228727, 22.863606)">
            <mask id="mask-6" fill="white">
                <use xlink:href="#path-5"></use>
            </mask>
            <g id="Clip-77"></g>
            <path d="M7.50554404,3.32152438 C7.43355634,1.72835392 6.27113197,0.604283654 4.69802365,0.514003995 C3.26653049,0.431985219 1.80022361,1.06276271 0.840190894,2.11897571 C-0.347016128,3.4236053 -0.301581267,5.41211806 1.13876284,6.52497712 C1.78960247,7.02771091 2.50593912,7.21594105 3.32022624,7.10618931 C4.11386115,6.99997795 4.71100504,6.6341388 5.19839719,6.06000738 C5.20252763,6.05941731 5.20606801,6.05764712 5.21019845,6.056467 C5.76072736,5.94848544 6.2593307,5.73016209 6.68299603,5.30649676 C7.16979812,4.81969467 7.53681738,4.02074919 7.50554404,3.32152438 Z" id="Fill-76" fill="#F7F8FC" mask="url(#mask-6)"></path>
        </g>
        <g id="Group-4" transform="translate(174.882261, 93.026833)">
            <g id="Group-118" transform="translate(202.693767, 0.000000)">
                <path d="M368.253738,232.210002 L317.163597,283.308213 L304.469886,295.993853 L233.1404,367.33141 C225.199298,375.272512 215.694619,380.675087 205.60992,383.546668 C199.247999,382.269333 192.978623,379.947103 187.049834,376.526172 L104.551475,328.895164 L20.032733,244.37696 C14.2820387,238.626266 9.86248378,232.055043 6.77460629,225.035085 C5.64469817,222.489025 4.7004178,219.880552 3.92616171,217.233338 C-2.38948666,195.600978 2.97434863,171.282127 20.032733,154.223743 L63.3216655,110.935348 L76.0067674,98.2497084 L155.154141,19.1023344 C158.87692,15.3795561 162.940284,12.2141992 167.251153,9.61379639 C176.368974,10.278828 185.285025,13.0035208 193.434891,17.7093191 L312.85219,86.6552368 L368.253738,142.056784 C370.351063,144.154109 372.278363,146.368191 374.020036,148.666209 C376.040419,151.321493 377.812761,154.09192 379.352664,156.963501 C392.33208,181.104257 388.632976,211.838834 368.253738,232.210002" id="Fill-86" fill="#FFFFFF"></path>
                <path d="M205.609812,383.546452 C202.304562,384.490733 198.938512,385.163835 195.540179,385.558227 C176.833204,387.756705 157.336909,381.681028 142.987075,367.331195 L104.551367,328.895487 L187.049726,376.525957 C192.978515,379.947426 199.247891,382.269118 205.609812,383.546452" id="Fill-88" fill="#FFFFFF"></path>
                <path d="M312.852298,86.6552368 L193.434998,17.7093191 C185.285132,13.0035208 176.368543,10.278828 167.251261,9.61325834 C169.572953,8.19710682 171.972662,6.95097957 174.426177,5.87541464 C197.808281,-4.47292963 226.135616,-0.0609074285 245.299395,19.1023344 L300.159125,73.9620642 L312.852298,86.6552368 Z" id="Fill-90" fill="#FFFFFF"></path>
                <path d="M270.956757,354.041861 C257.443594,377.447101 230.748708,388.60037 205.609866,383.546452 C199.247945,382.269118 192.978569,379.946888 187.04978,376.525957 L104.551421,328.895487 L36.4642336,289.584907 C22.2537558,281.380698 12.0915773,268.138175 7.84258469,252.287178 C5.41973884,243.246837 5.09475574,233.974595 6.77455249,225.03487 C5.64464436,222.48881 4.700364,219.880337 3.92610791,217.233123 C0.358288486,228.920678 0.118317522,241.397554 3.36115384,253.486494 C7.92759683,270.537346 18.8564987,284.786026 34.1425415,293.61007 L117.244594,341.588659 L184.72755,380.55112 C188.241564,382.578498 191.856194,384.242691 195.540232,385.558227 C202.761421,388.143564 210.238185,389.389692 217.653072,389.389692 C240.500891,389.389692 262.760619,377.540184 274.981382,356.363553 L317.163543,283.307998 L304.469832,295.993638 L270.956757,354.041861 Z M346.342075,100.625529 L300.158964,73.962387 L195.756529,13.6844787 C188.961477,9.76046922 181.740288,7.18320259 174.426016,5.87519942 C147.793543,1.10752518 119.790654,13.1195247 105.503234,37.8715073 L63.3216117,110.935133 L76.0067136,98.2494931 L109.527859,40.1931995 C117.723998,25.9832597 130.974592,15.8205431 146.826127,11.5715505 C153.582439,9.76046922 160.471112,9.11803575 167.251099,9.61358117 C176.36892,10.2791509 185.284971,13.0033055 193.434837,17.7091039 L312.852136,86.6550216 L344.020383,104.650154 C360.81566,114.348532 371.311431,130.833891 374.019982,148.666532 C376.040365,151.321278 377.812707,154.092243 379.35261,156.963824 C379.012024,134.464125 367.201255,112.676806 346.342075,100.625529 Z" id="Fill-92" fill="#061C3F"></path>
                <path d="M62.2839256,149.391825 L51.6192071,149.391825 C51.6192071,141.285541 47.6306314,137.384668 41.7690985,137.384668 C34.0351464,137.384668 30.2908461,143.7326 30.2908461,154.210076 L30.2908461,158.034008 C30.2908461,168.511485 34.1169302,174.859416 42.0946196,174.859416 C48.1186441,174.859416 52.1072198,171.035484 52.1072198,162.928663 L62.2839256,162.928663 C62.2839256,176.69471 53.5734101,183.271851 41.7690985,183.271851 C27.7679226,183.271851 19.5454198,174.629668 19.5454198,156.122311 C19.5454198,137.613878 27.7679226,128.971695 41.7690985,128.971695 C53.4103805,128.971695 62.2839256,135.16682 62.2839256,149.391825" id="Fill-94" fill="#061C3F"></path>
                <path d="M191.153606,182.354043 L191.153606,148.932975 C191.153606,146.56232 191.560911,140.52054 191.560911,140.52054 L191.234314,140.52054 L181.465989,182.354043 L172.431028,182.354043 L162.579844,140.52054 L162.254323,140.52054 C162.254323,140.52054 162.661628,146.867933 162.661628,148.932975 L162.661628,182.354043 L153.788621,182.354043 L153.788621,129.889719 L168.441377,129.889719 L175.360181,158.798687 C176.175329,162.240064 177.558121,170.653037 177.558121,170.653037 L177.884718,170.653037 C177.884718,170.653037 179.024311,161.858048 179.7566,158.798687 L186.595234,129.889719 L200.759439,129.889719 L200.759439,182.354043 L191.153606,182.354043 Z" id="Fill-98" fill="#061C3F"></path>
                <polygon id="Fill-100" fill="#061C3F" points="225.429046 182.354258 235.848951 182.354258 235.848951 129.889934 225.429046 129.889934"></polygon>
                <path d="M290.229923,182.354043 L272.971383,153.445075 C272.319803,152.374352 270.447922,148.55042 270.447922,148.55042 L270.121325,148.780168 C270.121325,148.780168 270.284892,151.763126 270.284892,153.139461 L270.284892,182.354043 L261.086364,182.354043 L261.086364,129.889719 L270.284892,129.889719 L287.542894,158.798687 C288.43875,160.099157 290.066355,163.693341 290.066355,163.693341 L290.310631,163.464131 C290.310631,163.464131 290.229923,159.945813 290.229923,159.1043 L290.229923,129.889719 L299.510235,129.889719 L299.510235,182.354043 L290.229923,182.354043 Z" id="Fill-102" fill="#061C3F"></path>
                <path d="M368.462825,148.244807 L357.799182,148.244807 C357.799182,141.132304 352.832967,137.384776 346.808942,137.384776 C338.098427,137.384776 334.191097,143.732707 334.191097,154.209646 L334.191097,158.034116 C334.191097,168.74134 338.180211,174.858986 346.890726,174.858986 C353.239734,174.858986 357.799182,169.888466 357.799182,162.240064 L345.262583,162.240064 L345.262583,153.827091 L368.462825,153.827091 L368.462825,182.354043 L361.706512,182.354043 L359.915339,176.541473 C356.334068,180.977707 350.87984,183.271959 345.017769,183.271959 C331.341576,183.271959 323.446209,174.783121 323.446209,156.122419 C323.446209,137.613986 332.074402,128.971803 347.134464,128.971803 C358.368441,128.971803 368.462825,135.701751 368.462825,148.244807" id="Fill-103" fill="#061C3F"></path>
                <path d="M74.9496469,218.345303 C74.9496469,215.392476 76.9011597,213.07186 80.520632,212.316974 C81.3379322,212.146411 82.2386304,212.054405 83.2227266,212.054405 C88.2206869,212.054405 91.2370035,215.242898 91.2370035,220.240858 L91.2370035,221.016728 L102.5264,221.016728 L102.5264,219.982593 C102.5264,207.831238 93.822879,202.574475 83.3077387,202.574475 C78.8064,202.574475 74.5149013,203.573099 71.0896655,205.606934 C66.5807941,208.283202 63.5736243,212.75441 63.5736243,219.120635 C63.5736243,241.612801 92.2700624,233.254171 92.2700624,247.301081 C92.2700624,247.659424 92.2388554,248.017766 92.1861263,248.374494 C91.733625,251.444078 89.2542838,254.281223 83.3077387,254.281223 C77.2767196,254.281223 73.8294237,250.489575 73.8294237,244.887921 C73.8294237,244.456941 73.9149739,243.681609 73.9149739,243.509433 L68.230998,243.509433 L62.4534011,243.509433 C62.4534011,243.939874 62.3673128,244.715744 62.3673128,245.404988 C62.3673128,257.555805 71.9333303,263.760615 82.7917474,263.760615 C91.2090248,263.760615 97.9142225,261.272664 101.279735,255.315896 C102.806725,252.613264 103.646623,249.196637 103.646623,244.974009 C103.646623,223.257713 74.9496469,230.323943 74.9496469,218.345303" id="Fill-114" fill="#A4A7B5"></path>
                <path d="M210.171294,231.012649 C210.171294,221.849094 212.82066,215.491477 218.116163,213.103605 C219.643153,212.414899 221.38913,212.053866 223.356246,212.053866 C232.146931,212.053866 236.542274,219.206723 236.542274,231.012649 L236.542274,235.321903 C236.542274,240.353223 235.740577,244.536035 234.144178,247.683636 C231.994663,251.921868 228.400479,254.280685 223.356246,254.280685 C214.566099,254.280685 210.171294,247.127829 210.171294,235.321903 L210.171294,231.012649 Z M223.356246,202.574475 C217.963894,202.574475 213.319972,203.797466 209.56222,206.292411 C202.690764,210.85455 198.79581,219.684513 198.79581,233.167545 C198.79581,254.022421 208.103024,263.760076 223.356246,263.760076 C231.833785,263.760076 238.47065,260.747526 242.697045,254.495368 C246.076008,249.497408 247.916682,242.432254 247.916682,233.167545 C247.916682,212.312131 238.610006,202.574475 223.356246,202.574475 Z" id="Fill-115" fill="#A4A7B5"></path>
                <path d="M313.533148,204.523454 L309.255101,204.523454 L303.708328,204.523454 L303.708328,226.730991 L303.708328,237.443596 C303.708328,238.391105 303.794954,242.355468 303.794954,242.355468 L303.53669,242.614271 C303.53669,242.614271 301.813311,238.563819 300.865802,237.098705 L282.595188,204.523454 L278.404305,204.523454 L272.856994,204.523454 L272.856994,263.641323 L282.595188,263.641323 L282.595188,258.094012 L282.595188,230.721181 C282.595188,229.170516 282.423549,224.91991 282.423549,224.91991 L282.767364,225.551044 C282.767364,225.551044 284.750084,229.85976 285.439328,231.066072 L288.14196,235.884323 L303.708328,263.641323 L313.533148,263.641323 L313.533148,258.094012 L313.533148,204.523454 Z" id="Fill-116" fill="#A4A7B5"></path>
                <path d="M138.058551,231.012649 C138.058551,221.849632 140.707916,215.492015 146.003419,213.104143 C147.530409,212.415437 149.276386,212.053866 151.244041,212.053866 C160.034726,212.053866 164.428992,219.206723 164.428992,231.012649 L164.428992,235.321903 C164.428992,240.353223 163.627834,244.536573 162.031435,247.683636 C159.881919,251.921868 156.288273,254.280685 151.244041,254.280685 C142.453355,254.280685 138.058551,247.127829 138.058551,235.321903 L138.058551,231.012649 Z M151.244041,202.574475 C145.851688,202.574475 141.207228,203.797466 137.450015,206.292411 C130.578021,210.85455 126.683604,219.684513 126.683604,233.167545 C126.683604,254.022421 135.990281,263.760076 151.244041,263.760076 C159.721042,263.760076 166.357907,260.747526 170.584839,254.495368 C173.963803,249.497408 175.804477,242.432254 175.804477,233.167545 C175.804477,212.312131 166.497262,202.574475 151.244041,202.574475 Z" id="Fill-117" fill="#A4A7B5"></path>
            </g>
            <g id="Group-1123" transform="translate(88.587448, 296.793910) rotate(14.000000) translate(-88.587448, -296.793910) translate(19.155088, 209.089876)">
                <g id="Group-3" transform="translate(0.000000, 144.315891)">
                    <mask id="mask-8" fill="white">
                        <use xlink:href="#path-7"></use>
                    </mask>
                    <g id="Clip-2"></g>
                    <path d="M3.8297428,17.5115721 C11.9277486,24.6265618 20.0147914,16.0827272 20.0147914,16.0827272 C20.0147914,16.0827272 16.3494936,5.01009292 3.49354401,0.310618453 C3.49354401,0.310618453 -4.26826297,10.3856193 3.8297428,17.5115721" id="Fill-1" fill="#061C3F" mask="url(#mask-8)"></path>
                </g>
                <g id="Group-6" transform="translate(0.000000, 144.315891)">
                    <mask id="mask-10" fill="white">
                        <use xlink:href="#path-9"></use>
                    </mask>
                    <g id="Clip-5"></g>
                    <path d="M3.8297428,17.5115721 C5.0283646,18.5603661 6.22698639,19.2693071 7.39271917,19.7151359 C9.84843212,18.3155257 11.9533289,16.2764069 13.4844952,13.3310131 C14.5881043,10.9483869 14.3615355,8.5949953 13.4077542,6.4170118 C10.9703129,4.10381791 7.73622664,1.86005638 3.49354401,0.310618453 C3.49354401,0.310618453 -4.26826297,10.3856193 3.8297428,17.5115721" id="Fill-4" fill="#061C3F" mask="url(#mask-10)"></path>
                </g>
                <g id="Group-9" transform="translate(0.000000, 144.315891)">
                    <mask id="mask-12" fill="white">
                        <use xlink:href="#path-11"></use>
                    </mask>
                    <g id="Clip-8"></g>
                </g>
                <g id="Group-12" transform="translate(0.000000, 122.389883)">
                    <mask id="mask-14" fill="white">
                        <use xlink:href="#path-13"></use>
                    </mask>
                    <g id="Clip-11"></g>
                    <path d="M1.34844952,22.4412696 C-0.475063516,24.8604392 8.04319076,38.5715031 20.2742491,39.9638047 C22.1854662,40.1574844 39.0538753,21.5898096 39.0538753,21.5898096 C39.0538753,21.5898096 25.4524414,18.8088609 16.2215919,1.9879581 C16.2215919,1.9879581 3.17196255,20.0221 1.34844952,22.4412696" id="Fill-10" fill="#061C3F" mask="url(#mask-14)"></path>
                </g>
                <g id="Group-15" transform="translate(0.000000, 122.389883)">
                    <mask id="mask-16" fill="white">
                        <use xlink:href="#path-15"></use>
                    </mask>
                    <g id="Clip-14"></g>
                    <path d="M1.34844952,22.4412696 C-0.0877040337,24.3524867 4.91873456,33.3092611 13.1190617,37.6725368 C16.7331988,34.2995858 20.0294087,30.5538927 23.0369262,26.4866182 C25.8690356,22.4631956 26.4902725,18.330143 25.9128876,14.2482511 C22.631295,11.3722897 19.1998747,7.41099085 16.2215919,1.9879581 C16.2215919,1.9879581 3.17196255,20.0221 1.34844952,22.4412696" id="Fill-13" fill="#061C3F" mask="url(#mask-16)"></path>
                </g>
                <g id="Group-20" transform="translate(14.617339, 122.389883)">
                    <mask id="mask-18" fill="white">
                        <use xlink:href="#path-17"></use>
                    </mask>
                    <g id="Clip-19"></g>
                    <path d="M1.69195698,1.8198587 C-0.646817248,4.53868374 2.57630599,11.1493753 8.89099642,16.5760624 C15.2056868,22.0027495 22.2183552,24.202659 24.5607838,21.4801796 C26.899558,18.7613545 23.6764348,12.1543173 17.3617443,6.72763025 C12.8851843,2.87961577 8.0578081,0.654125918 4.79083284,0.654125918 C3.45334633,0.654125918 2.37531758,1.0305224 1.69195698,1.8198587" id="Fill-18" fill="url(#linearGradient-19)" mask="url(#mask-18)"></path>
                </g>
                <g id="Group-23" transform="translate(14.617339, 122.389883)">
                    <mask id="mask-21" fill="white">
                        <use xlink:href="#path-20"></use>
                    </mask>
                    <g id="Clip-22"></g>
                    <path d="M1.69195698,1.8198587 C-0.646817248,4.53868374 2.57630599,11.1493753 8.89099642,16.5760624 C14.705043,21.5751923 21.1147461,23.8335712 23.9176209,22.0319841 C11.3467094,19.1523684 0.49333519,6.77148227 3.55201336,0.782027634 C2.78094873,0.953781366 2.14874883,1.28998016 1.69195698,1.8198587" id="Fill-21" mask="url(#mask-21)"></path>
                </g>
                <g id="Group-28" transform="translate(18.271674, 74.883531)">
                    <mask id="mask-23" fill="white">
                        <use xlink:href="#path-22"></use>
                    </mask>
                    <g id="Clip-27"></g>
                    <path d="M0.48602652,50.327498 C-0.635854244,57.4717224 15.7136394,69.9037692 19.5616538,67.1776355 C41.5351686,50.1886333 66.070372,53.4117565 66.070372,53.4117565 C62.9312985,46.2163714 31.7817492,4.45097971 8.21859882,2.96731981 C11.6646365,36.0975185 0.898966345,48.1641318 0.48602652,50.327498" id="Fill-26" fill="#FFCC00" mask="url(#mask-23)"></path>
                </g>
                <g id="Group-36" transform="translate(21.926008, 67.574862)">
                    <mask id="mask-25" fill="white">
                        <use xlink:href="#path-24"></use>
                    </mask>
                    <g id="Clip-35"></g>
                    <path d="M2.15971183,10.5792991 C3.35102495,15.0302788 9.2052692,28.1018341 31.7525145,46.4539032 C42.9530505,55.5714683 55.6262834,61.5097623 61.3014652,62.8435945 C66.0338287,63.9618209 71.4605158,60.5377093 71.4605158,60.5377093 C71.4605158,60.5377093 52.4250861,60.8227474 31.5442175,41.5059339 C10.6633488,22.1891205 3.2085059,9.04082414 1.81620436,1.46173389 C1.81620436,1.46173389 0.961090036,6.13197369 2.15971183,10.5792991" id="Fill-34" fill="url(#linearGradient-26)" mask="url(#mask-25)"></path>
                </g>
                <g id="Group-41" transform="translate(21.926008, 60.266192)">
                    <path d="M1.84909338,9.72199213 C1.67003097,11.3006647 1.45807956,14.6516897 2.31684822,17.8492326 C3.26332092,21.3720113 8.19301848,34.3777886 31.8548359,53.6361327 C43.0882609,62.7792782 55.8601608,68.7066091 61.3380086,69.9965893 C65.131208,70.888247 69.443323,68.7833502 70.8794766,67.9903595 C67.5065256,67.8368775 50.0936206,66.1997355 31.4309331,48.9330039 C9.14679985,28.3225559 3.28159259,15.7918421 1.84909338,9.72199213 Z M72.041555,67.6687781 L71.5518742,67.9793965 C71.4970591,68.0159399 66.0082484,71.4327428 61.2649219,70.3145164 C55.7541851,69.0208819 42.9201615,63.0643163 31.6501932,53.8919361 C7.91163471,34.567814 2.95270247,21.4852957 2.00257544,17.9332823 C0.807607977,13.5005743 1.64810497,8.78648244 1.65541364,8.73897609 L1.81620436,7.85828142 L1.97699509,8.73897609 C3.01117182,14.3666516 8.24052483,27.0325758 31.6538475,48.6954721 C52.2423694,67.7418648 71.2704904,67.6797411 71.4605158,67.6797411 L72.041555,67.6687781 Z" id="Fill-37" fill="#000000"></path>
                    <path d="M44.7250374,22.9510493 C64.2428392,39.39921 79.2585007,58.6502454 73.1082553,66.5289911 C68.3832005,72.5805694 48.0249017,62.4142101 28.5107542,45.9660495 C8.99295235,29.5215432 -1.83484147,10.829621 3.11312776,4.95345074 C8.061097,-0.915410852 25.2072356,6.50288866 44.7250374,22.9510493" id="Fill-39" fill="#12111F"></path>
                </g>
                <g id="Group-44" transform="translate(21.926008, 60.266192)">
                    <mask id="mask-28" fill="white">
                        <use xlink:href="#path-27"></use>
                    </mask>
                    <g id="Clip-43"></g>
                    <path d="M3.1134932,4.9552779 C-1.83447604,10.8277938 8.99331779,29.5233703 28.5074653,45.9678767 C38.7834546,54.6249956 49.2896669,61.538997 57.6252045,65.2700727 C58.6593812,64.1883897 59.6131626,63.0336199 60.4646226,61.8057634 C65.3139248,54.8150211 65.142171,47.2505482 62.3246789,40.0368914 C57.40229,34.3909442 51.321477,28.5111196 44.7217485,22.9528765 C29.6841611,10.2759893 16.0461838,2.96001114 8.3209202,2.96001114 C6.02234365,2.96001114 4.24633696,3.60682839 3.1134932,4.9552779" id="Fill-42" mask="url(#mask-28)"></path>
                </g>
                <g id="Group-49" transform="translate(21.926008, 60.266192)">
                    <path d="M4.33659903,4.10125988 C3.92000487,4.36802631 3.55091706,4.68960777 3.23664428,5.06234991 C0.879598371,7.85791599 2.16957853,13.8181359 6.7740403,21.4081892 C11.6014165,29.3636759 19.3595691,38.0390666 28.615999,45.8410712 C47.523527,61.7739707 66.1789058,71.0048202 72.011224,67.3029792 C72.3876205,67.0617931 72.7128563,66.7694463 72.9796227,66.4295932 C75.8007692,62.8118018 74.2220965,56.4569137 68.40805,48.0446351 C63.1604253,40.4472732 54.7116034,31.5818571 44.6183308,23.0745658 C26.5878432,7.87984199 10.3991404,0.256899732 4.33659903,4.10125988 M72.1829778,67.5807086 C68.375161,69.9962239 60.6316257,67.028904 54.8066161,64.1127449 C46.8292034,60.1185571 37.4558348,53.7198169 28.4040476,46.0932203 C19.1220374,38.2692897 11.3419587,29.5646643 6.49631086,21.5799429 C1.81145373,13.861988 0.532436571,7.76290328 2.98449518,4.8503985 C3.32069398,4.45573034 3.71536213,4.10856854 4.16119097,3.82718477 C10.3479797,-0.0939164027 26.6901646,7.53633453 44.8302823,22.8260711 C54.9454808,31.3479797 63.4125744,40.2389761 68.6784707,47.8619184 C74.5802213,56.405753 76.1552396,62.8921971 73.2354262,66.6269272 C72.9467337,66.9996694 72.5922633,67.3212508 72.1829778,67.5807086" id="Fill-45" fill="#000000"></path>
                    <path d="M44.1827341,30.6986044 C61.146156,44.9907075 71.9081718,60.1196534 68.2282567,64.4865834 C64.5483416,68.8535134 47.8151429,60.8066683 30.8553754,46.5145651 C13.8919535,32.222462 3.1299377,17.0935162 6.80619845,12.7265862 C10.4897679,8.35965614 27.2229666,16.4065012 44.1827341,30.6986044" id="Fill-47" fill="#A4A7B5"></path>
                </g>
                <g id="Group-52" transform="translate(32.889013, 71.229196)">
                    <mask id="mask-30" fill="white">
                        <use xlink:href="#path-29"></use>
                    </mask>
                    <g id="Clip-51"></g>
                    <path d="M0.668743257,1.97699509 C2.15971183,6.96516201 2.38262625,12.051996 1.62983329,16.9597675 C6.00041764,22.6386037 12.3260711,29.1798629 19.890544,35.5530227 C29.1360109,43.34041 38.3156997,49.2787039 45.3502941,52.3556538 C49.4614207,50.8391049 53.6602513,49.9803362 57.9138969,50.3092263 C56.9930046,43.8958689 47.2176591,31.5296001 33.2215571,19.7370619 C20.1646191,8.73386002 7.24654578,1.43615355 0.310618453,0.646817248 C0.434865834,1.15476978 0.628545575,1.61521595 0.668743257,1.97699509" id="Fill-50" fill="#A4A7B5" mask="url(#mask-30)"></path>
                </g>
                <path d="M29.4707479,72.5681446 C29.2368705,72.7179724 29.0285734,72.8970348 28.860474,73.0980232 C27.157554,75.1188703 28.7216093,79.8439251 33.150663,86.0672572 C37.6856924,92.4404169 44.6947064,99.7490864 52.8840706,106.655779 C68.7146487,119.997755 84.7608325,128.132304 89.4201093,125.175948 C89.6539867,125.02612 89.8586295,124.850712 90.0303832,124.646069 C91.7333032,122.625222 90.1692479,117.896513 85.7365399,111.673181 C81.2051648,105.303675 74.1961508,97.9950057 66.0031323,91.0883131 C50.1762085,77.7499913 34.1263704,69.6117878 29.4707479,72.5681446 M89.5955173,125.453677 C84.7425608,128.526972 68.8717851,120.556868 52.6757735,106.904274 C44.460829,99.9829638 37.4335433,92.6523684 32.8838966,86.2609369 C28.2940521,79.8110361 26.7775032,75.0640553 28.6083249,72.8860718 C28.8020047,72.6558487 29.0322278,72.4585146 29.2953399,72.2940695 C34.144642,69.2134654 50.0154178,77.1908781 66.2150837,90.8398183 C74.4263739,97.7611283 81.4573139,105.091724 86.0069606,111.483155 C90.5968051,117.933056 92.113354,122.683691 90.2788779,124.85802 C90.0851982,125.084589 89.8549751,125.289232 89.5955173,125.453677" id="Fill-53" fill="#000000"></path>
                <g id="Group-57" transform="translate(43.852017, 93.155205)">
                    <mask id="mask-32" fill="white">
                        <use xlink:href="#path-31"></use>
                    </mask>
                    <g id="Clip-56"></g>
                    <path d="M8.20763582,3.67626075 C6.64723489,4.45097971 2.78094873,8.74482303 2.78094873,8.74482303 C5.06856228,11.7450318 13.0605924,17.4165594 13.0605924,17.4165594 C13.0605924,17.4165594 16.3348763,13.0057773 17.1095952,11.321129 C17.8843142,9.63282637 16.6308774,6.63261755 14.4821286,4.8712282 C13.10079,3.73838444 11.5440434,3.24870358 10.1955939,3.25235792 C9.4464553,3.25235792 8.7630947,3.40218564 8.20763582,3.67626075" id="Fill-55" fill="#FFCC00" mask="url(#mask-32)"></path>
                </g>
                <g id="Group-60" transform="translate(43.852017, 93.155205)">
                    <mask id="mask-34" fill="white">
                        <use xlink:href="#path-33"></use>
                    </mask>
                    <g id="Clip-59"></g>
                    <path d="M8.20763582,3.67626075 C6.64723489,4.45097971 2.78094873,8.74482303 2.78094873,8.74482303 C4.11843525,10.502558 7.93356071,13.5721992 10.43678,15.4870706 C11.7157972,14.4565482 14.6794626,11.233425 15.4395643,9.71687607 C16.2033202,8.27706818 16.8099398,7.16980475 15.5309226,5.91636794 C15.2166498,5.53997146 14.8658337,5.18550099 14.4821286,4.8712282 C13.10079,3.73838444 11.5440434,3.25235792 10.1955939,3.25235792 C9.4464553,3.25235792 8.7630947,3.40218564 8.20763582,3.67626075" id="Fill-58" mask="url(#mask-34)"></path>
                </g>
                <g id="Group-77" transform="translate(21.926008, 60.266192)">
                    <mask id="mask-36" fill="white">
                        <use xlink:href="#path-35"></use>
                    </mask>
                    <g id="Clip-76"></g>
                    <path d="M2.99655448,5.28416803 C-2.14144016,11.2480423 9.92151881,30.5465841 29.6914697,47.5648209 C49.4577663,64.5830578 65.0142693,72.3704451 71.6615042,68.1533428 C75.7068527,65.5879999 74.7457627,60.2051648 73.4740542,57.0112762 C74.4936136,60.2892145 75.0161835,63.4429054 72.7578046,65.7451363 C67.4334389,71.1718233 49.1909999,61.5463056 30.34925,45.3210594 C11.5038458,29.1031218 0.252149097,11.2809313 5.21108134,5.52169979 C6.82629729,3.6506804 9.95440782,3.28159259 14.0874604,4.19883061 C11.9131312,3.53739603 10.0092228,3.21581457 8.38669822,3.21581457 C5.96387429,3.21581457 4.16228727,3.92840984 2.99655448,5.28416803" id="Fill-75" mask="url(#mask-36)"></path>
                </g>
                <g id="Group-87" transform="translate(21.926008, 144.315891)">
                    <mask id="mask-38" fill="white">
                        <use xlink:href="#path-37"></use>
                    </mask>
                    <g id="Clip-86"></g>
                    <path d="M1.40691887,12.8230606 C0.738175617,14.4565482 5.86155292,18.8271326 6.77148227,18.7796262 C7.68872029,18.7284655 7.88605436,17.314238 9.57801135,17.8696969 C11.2699683,18.4288101 24.1953503,26.987262 24.1953503,26.987262 C24.1953503,26.987262 23.0405805,27.772944 23.2671493,28.0799081 C23.493718,28.3832179 23.8883862,29.1177392 24.4876971,29.0665785 C25.0833536,29.0190721 26.1102217,27.849685 26.1102217,27.849685 C26.1102217,27.849685 27.5025232,27.6998573 31.7927122,23.416977 C32.2348867,23.0003828 31.0399193,22.0941078 30.8462395,22.1525772 C30.6562141,22.2183552 29.8705321,22.7299621 29.8705321,22.7299621 C29.8705321,22.7299621 19.9819023,13.3237045 19.5178018,12.914419 C19.0537013,12.5087878 19.5251105,11.9204399 19.2839244,11.5476978 C19.039084,11.1713013 15.4541816,8.55479762 15.1691435,7.75084398 C14.8841054,6.94689034 12.3772318,3.95399019 10.3454216,3.38391397 C10.338113,3.38025963 10.3308043,3.38025963 10.3234956,3.38025963 C9.53050499,3.38025963 1.75042634,11.9752549 1.40691887,12.8230606" id="Fill-85" fill="#061C3F" mask="url(#mask-38)"></path>
                </g>
                <g id="Group-90" transform="translate(21.926008, 147.970226)">
                    <mask id="mask-40" fill="white">
                        <use xlink:href="#path-39"></use>
                    </mask>
                    <g id="Clip-89"></g>
                    <path d="M1.40691887,9.16872586 C0.738175617,10.8022135 5.86155292,15.1727978 6.77148227,15.1252915 C7.68872029,15.0741308 7.88605436,13.6599032 9.57801135,14.2153621 C11.2699683,14.7744753 24.1953503,23.3329273 24.1953503,23.3329273 C24.1953503,23.3329273 23.0405805,24.1186093 23.2671493,24.4255734 C23.493718,24.7288832 23.8883862,25.4634044 24.4876971,25.4122438 C25.0833536,25.3647374 26.1102217,24.1953503 26.1102217,24.1953503 C26.1102217,24.1953503 26.6802979,24.1332266 28.2041555,22.9711482 C28.1749208,22.609369 28.1018341,22.2439355 27.9666237,21.8492674 C25.8434553,15.4505273 18.2132043,11.3722897 14.0801517,5.4705391 C12.8669126,3.55201336 9.65109804,3.06598684 8.18570981,1.31190617 C5.89809627,3.35102495 1.69195698,8.46343925 1.40691887,9.16872586" id="Fill-88" fill="#061C3F" mask="url(#mask-40)"></path>
                </g>
                <polygon id="Fill-876" fill="#FE4849" points="130.186406 126.055911 99.6909825 118.447586 135.349981 121.615895"></polygon>
                <polygon id="Fill-877" fill="#FE4849" points="134.723993 132.732746 99.6898862 118.447952 130.18531 126.056277"></polygon>
                <polygon id="Fill-878" fill="#FE4849" points="134.723993 132.732746 130.18531 126.056277 135.348885 121.61626"></polygon>
                <polygon id="Fill-879" fill="#01B6F5" points="132.275589 82.5357081 106.614851 97.196899 138.458723 85.4737932"></polygon>
                <polygon id="Fill-880" fill="#01B6F5" points="134.905979 74.8521039 106.61412 97.1947064 132.274858 82.5371698"></polygon>
                <polygon id="Fill-881" fill="#01B6F5" points="134.905979 74.8521039 132.274858 82.5371698 138.461647 85.4716006"></polygon>
                <polygon id="Fill-882" fill="#F8752D" points="105.7802 66.7800439 78.2886402 88.11405 116.593377 68.5706679"></polygon>
                <polygon id="Fill-883" fill="#F8752D" points="107.066526 60.434657 78.2886402 88.1125883 105.7802 66.7785821"></polygon>
                <polygon id="Fill-884" fill="#F8752D" points="107.066526 60.434657 105.7802 66.7785821 116.593377 68.5728605"></polygon>
                <polygon id="Fill-1114" fill="#5C56B6" points="29.412644 7.98727943 34.9233808 51.1230467 36.3704973 0.00255803432"></polygon>
                <polygon id="Fill-1115" fill="#5C56B6" points="21.8821564 4.7740229 34.9244771 51.1256047 29.4137403 7.98618313"></polygon>
                <polygon id="Fill-1116" fill="#5C56B6" points="21.8810601 4.7740229 29.412644 7.98618313 36.3704973 0.00146173389"></polygon>
                <polygon id="Fill-1117" fill="#1DE9B6" points="60.2881182 32.0349946 51.2070964 60.827498 55.2487906 25.3841054"></polygon>
                <polygon id="Fill-1118" fill="#1DE9B6" points="68.8049107 26.987262 51.209289 60.8264017 60.2866565 32.0338983"></polygon>
                <polygon id="Fill-1119" fill="#1DE9B6" points="68.8049107 26.987262 60.2866565 32.0338983 55.2509832 25.3830091"></polygon>
                <polygon id="Fill-1120" fill="#FFCC00" points="87.4350747 40.6891901 73.7093934 63.6347579 95.9935266 41.5004524"></polygon>
                <polygon id="Fill-1121" fill="#FFCC00" points="85.8739429 34.6332266 73.7086625 63.6376814 87.4343438 40.6884593"></polygon>
                <polygon id="Fill-1122" fill="#FFCC00" points="85.8739429 34.6332266 87.4343438 40.6884593 95.9964501 41.4997216"></polygon>
            </g>
            <g id="Group-6" transform="translate(308.876983, 155.850194) rotate(-17.000000) translate(-308.876983, -155.850194) translate(281.591283, 128.564495)">
                <g id="Group-3" transform="translate(0.000000, 0.050416)">
                    <mask id="mask-42" fill="white">
                        <use xlink:href="#path-41"></use>
                    </mask>
                    <g id="Clip-2"></g>
                    <path d="M54.2594559,24.4493865 C53.894954,20.9515676 52.8691429,17.5978872 51.2104567,14.4815213 C49.5518799,11.3651554 47.3431053,8.64117867 44.6452659,6.38515986 C41.8503136,4.04799481 38.6536763,2.31964534 35.143937,1.24812116 C30.3175944,-0.225306605 25.197288,-0.331606003 20.3366059,0.940815289 C18.0977568,1.52688368 16.7578595,3.81691392 17.3439279,6.05576297 C17.9299963,8.29450265 20.2200265,9.63429064 22.4588756,9.04833161 C25.8163836,8.16939307 29.3566347,8.24386827 32.696973,9.26366445 C42.6194531,12.2928692 48.2277306,22.8300704 45.1984165,32.7526599 C42.1691024,42.6753588 31.6320105,48.2834175 21.7093117,45.2542128 C11.7867222,42.2248986 6.17866344,31.6878068 9.2078682,21.7651079 C10.1282548,18.7503389 11.7968928,16.0013184 14.0334453,13.8151816 C15.6884132,12.1973966 15.718597,9.54439547 14.1009213,7.88953694 C12.4832457,6.23456905 9.83013525,6.20427591 8.17527672,7.82195152 C6.57925469,9.38221233 5.17975531,11.1366992 4.01582065,13.0368556 C2.81754647,14.9930051 1.8676323,17.1063072 1.19243428,19.3180346 C0.120910097,22.8276645 -0.230905914,26.4446874 0.146828777,30.0683814 C0.511330725,33.5662003 1.53714179,36.9198806 3.19571861,40.0362465 C4.85429543,43.1526124 7.06317942,45.8765892 9.76101877,48.132608 C12.5559711,50.469773 15.7527178,52.1981225 19.2622383,53.2696467 C22.7719776,54.3410615 26.3888912,54.6928775 30.0125851,54.3152522 C33.510404,53.9507502 36.8641938,52.9248298 39.9805597,51.266253 C43.0969255,49.6076762 45.8209023,47.3987922 48.0769211,44.7009528 C50.4140862,41.9061098 52.1424356,38.7093632 53.2138504,35.1997333 C54.2852653,31.689994 54.6371906,28.0730804 54.2594559,24.4493865" id="Fill-1" fill="#061C3F" mask="url(#mask-42)"></path>
                </g>
                <path d="M31.0125431,12.2741684 C28.7991753,11.5984235 26.4538082,12.8439419 25.7780633,15.0574191 L21.5006062,29.0683796 C21.1602731,30.183211 21.3227843,31.3603784 21.8356899,32.3111675 C22.3379873,33.2676433 23.2222846,34.0605143 24.3371159,34.4008474 L36.0397829,37.9735789 C38.2531507,38.6492144 40.6077042,37.3617012 41.2834491,35.1483334 C41.9591939,32.9348562 40.7252679,30.5517593 38.5117907,29.8760145 L30.7472321,27.5056035 L33.7998402,17.5063516 C34.475585,15.2929838 33.225911,12.9499132 31.0125431,12.2741684" id="Fill-4" fill="#061C3F"></path>
            </g>
        </g>
    </g>
</svg>