<?xml version="1.0" encoding="UTF-8"?>
<svg width="1112px" height="600px" viewBox="0 0 1112 600" version="1.1" xmlns="http://www.w3.org/2000/svg" xmlns:xlink="http://www.w3.org/1999/xlink">
    <!-- Generator: Sketch 63.1 (92452) - https://sketch.com -->
    <title>find-book</title>
    <desc>Created with Sketch.</desc>
    <defs>
        <filter x="-2.3%" y="-24.7%" width="104.7%" height="149.5%" filterUnits="objectBoundingBox" id="filter-1">
            <feOffset dx="0" dy="0" in="SourceAlpha" result="shadowOffsetOuter1"></feOffset>
            <feGaussianBlur stdDeviation="4" in="shadowOffsetOuter1" result="shadowBlurOuter1"></feGaussianBlur>
            <feColorMatrix values="0 0 0 0 0   0 0 0 0 0   0 0 0 0 0  0 0 0 0.1 0" type="matrix" in="shadowBlurOuter1" result="shadowMatrixOuter1"></feColorMatrix>
            <feMerge>
                <feMergeNode in="shadowMatrixOuter1"></feMergeNode>
                <feMergeNode in="SourceGraphic"></feMergeNode>
            </feMerge>
        </filter>
    </defs>
    <g id="find-book" stroke="none" stroke-width="1" fill="none" fill-rule="evenodd">
        <rect fill="#F9FAFC" x="0" y="0" width="1112" height="600"></rect>
        <g id="Group-3" transform="translate(207.000000, 92.000000)">
            <g id="Group-2" filter="url(#filter-1)" transform="translate(0.000000, 235.135135)" fill-rule="nonzero">
                <path d="M664.864865,0 C682.776803,0 697.297297,14.5204946 697.297297,32.4324324 C697.297297,50.3443703 682.776803,64.8648649 664.864865,64.8648649 L32.4324324,64.8648649 C14.5204946,64.8648649 0,50.3443703 0,32.4324324 C0,14.5204946 14.5204946,0 32.4324324,0 L664.864865,0 Z M664.864865,0.810810811 L32.4324324,0.810810811 C14.968293,0.810810811 0.810810811,14.968293 0.810810811,32.4324324 C0.810810811,49.7219304 14.6865591,63.7705737 31.9095111,64.0498177 L32.4324324,64.0540541 L664.864865,64.0540541 C682.329004,64.0540541 696.486486,49.8965718 696.486486,32.4324324 C696.486486,15.1429344 682.610738,1.09429112 665.387786,0.815047205 L664.864865,0.810810811 Z" id="Rectangle" fill-opacity="0.1" fill="#000000"></path>
                <path d="M664.864865,0.810810811 L32.4324324,0.810810811 C14.968293,0.810810811 0.810810811,14.968293 0.810810811,32.4324324 C0.810810811,49.7219304 14.6865591,63.7705737 31.9095111,64.0498177 L32.4324324,64.0540541 L664.864865,64.0540541 C682.329004,64.0540541 696.486486,49.8965718 696.486486,32.4324324 C696.486486,15.1429344 682.610738,1.09429112 665.387786,0.815047205 L664.864865,0.810810811 Z" id="Path" fill="#FFFFFF"></path>
            </g>
            <circle id="Oval" cx="663.243243" cy="267.567568" r="22.7027027"></circle>
            <path d="M667.178138,271.063891 C667.091402,271.063992 667.008208,271.02949 666.947,270.968035 L666.096443,270.117851 C665.968738,269.990146 665.968738,269.783094 666.096443,269.655389 C666.224149,269.527683 666.4312,269.527683 666.558906,269.655389 L667.409463,270.506507 C667.502913,270.600023 667.530858,270.740611 667.480274,270.862757 C667.42969,270.984903 667.310531,271.064572 667.178325,271.064638 L667.178138,271.063891 Z" id="Path" fill="#2A977F" fill-rule="nonzero"></path>
            <path d="M661.337097,257.837838 C665.235133,257.837838 668.395115,260.99782 668.395115,264.895856 C668.395115,268.793892 665.235133,271.953874 661.337097,271.953874 C657.439061,271.953874 654.279079,268.793892 654.279079,264.895856 C654.279079,260.99782 657.439061,257.837838 661.337097,257.837838 Z M661.337097,259.054628 C658.111076,259.054628 655.495869,261.669835 655.495869,264.895856 C655.495869,268.121877 658.111076,270.737084 661.337097,270.737084 C664.563118,270.737084 667.178325,268.121877 667.178325,264.895856 C667.178325,261.669835 664.563118,259.054628 661.337097,259.054628 Z" id="Combined-Shape" fill="#CCDBDB" fill-rule="nonzero"></path>
            <circle id="Oval" fill="#C6E4ED" fill-rule="nonzero" opacity="0.465076265" cx="661.337097" cy="264.895856" r="5.84122789"></circle>
            <path d="M670.350901,269.421887 C671.043914,269.421887 671.605713,269.983685 671.605713,270.676699 L671.605713,277.150009 C671.605713,277.843022 671.043914,278.404821 670.350901,278.404821 C669.657887,278.404821 669.096089,277.843022 669.096089,277.150009 L669.096089,270.676699 C669.096089,269.983685 669.657887,269.421887 670.350901,269.421887 Z" id="Rectangle" fill="#3BBC9F" fill-rule="nonzero" transform="translate(670.350901, 273.913354) rotate(-45.000000) translate(-670.350901, -273.913354) "></path>
            <path d="M667.534468,270.487821 C667.584845,270.723338 667.702305,270.939244 667.872673,271.109483 L672.450584,275.687394 C672.824061,276.060474 673.391174,276.159749 673.869176,275.935722 C673.818808,275.700201 673.701347,275.484293 673.530971,275.314061 L668.95306,270.736149 C668.579556,270.36312 668.012477,270.263852 667.534468,270.487821 L667.534468,270.487821 Z" id="Path" fill="#44D7B6" fill-rule="nonzero"></path>
            <path d="M253.68,223.783784 C253.842162,223.783784 253.978378,223.738378 254.088649,223.647568 C254.198919,223.556757 254.273514,223.452973 254.312432,223.336216 L254.312432,223.336216 L255.616216,219.96973 L261.872432,219.96973 L263.176216,223.336216 C263.228108,223.465946 263.305946,223.572973 263.40973,223.657297 C263.513514,223.741622 263.64973,223.783784 263.818378,223.783784 L263.818378,223.783784 L265.277838,223.783784 L259.702703,209.841081 L257.795676,209.841081 L252.220541,223.783784 L253.68,223.783784 Z M261.347027,218.607568 L256.141622,218.607568 L258.330811,212.944865 C258.473514,212.594595 258.612973,212.156757 258.749189,211.631351 C258.814054,211.884324 258.882162,212.122703 258.953514,212.346486 C259.024865,212.57027 259.092973,212.766486 259.157838,212.935135 L259.157838,212.935135 L261.347027,218.607568 Z M270.23027,223.92 C270.587027,223.92 270.937297,223.890811 271.281081,223.832432 C271.624865,223.774054 271.954054,223.681622 272.268649,223.555135 C272.583243,223.428649 272.876757,223.271351 273.149189,223.083243 C273.421622,222.895135 273.664865,222.668108 273.878919,222.402162 L273.878919,222.402162 L273.392432,221.76973 C273.314595,221.659459 273.204324,221.604324 273.061622,221.604324 C272.944865,221.604324 272.826486,221.654595 272.706486,221.755135 C272.586486,221.855676 272.437297,221.967568 272.258919,222.090811 C272.080541,222.214054 271.855135,222.325946 271.582703,222.426486 C271.31027,222.527027 270.963243,222.577297 270.541622,222.577297 C270.100541,222.577297 269.703243,222.494595 269.34973,222.329189 C268.996216,222.163784 268.694595,221.923784 268.444865,221.609189 C268.195135,221.294595 268.002162,220.905405 267.865946,220.441622 C267.72973,219.977838 267.661622,219.447568 267.661622,218.850811 C267.661622,218.28 267.724865,217.764324 267.851351,217.303784 C267.977838,216.843243 268.165946,216.450811 268.415676,216.126486 C268.665405,215.802162 268.975135,215.554054 269.344865,215.382162 C269.714595,215.21027 270.142703,215.124324 270.629189,215.124324 C270.992432,215.124324 271.298919,215.164865 271.548649,215.245946 C271.798378,215.327027 272.009189,215.416216 272.181081,215.513514 C272.352973,215.610811 272.497297,215.7 272.614054,215.781081 C272.730811,215.862162 272.837838,215.902703 272.935135,215.902703 C273.025946,215.902703 273.097297,215.883243 273.149189,215.844324 C273.201081,215.805405 273.252973,215.75027 273.304865,215.678919 L273.304865,215.678919 L273.762162,215.056216 C273.353514,214.647568 272.884865,214.331351 272.356216,214.107568 C271.827568,213.883784 271.216216,213.771892 270.522162,213.771892 C269.776216,213.771892 269.116216,213.898378 268.542162,214.151351 C267.968108,214.404324 267.484865,214.756216 267.092432,215.207027 C266.7,215.657838 266.401622,216.194595 266.197297,216.817297 C265.992973,217.44 265.890811,218.117838 265.890811,218.850811 C265.890811,219.655135 266.001081,220.371892 266.221622,221.001081 C266.442162,221.63027 266.747027,222.160541 267.136216,222.591892 C267.525405,223.023243 267.984324,223.352432 268.512973,223.579459 C269.041622,223.806486 269.614054,223.92 270.23027,223.92 Z M279.347027,223.92 C279.703784,223.92 280.054054,223.890811 280.397838,223.832432 C280.741622,223.774054 281.070811,223.681622 281.385405,223.555135 C281.7,223.428649 281.993514,223.271351 282.265946,223.083243 C282.538378,222.895135 282.781622,222.668108 282.995676,222.402162 L282.995676,222.402162 L282.509189,221.76973 C282.431351,221.659459 282.321081,221.604324 282.178378,221.604324 C282.061622,221.604324 281.943243,221.654595 281.823243,221.755135 C281.703243,221.855676 281.554054,221.967568 281.375676,222.090811 C281.197297,222.214054 280.971892,222.325946 280.699459,222.426486 C280.427027,222.527027 280.08,222.577297 279.658378,222.577297 C279.217297,222.577297 278.82,222.494595 278.466486,222.329189 C278.112973,222.163784 277.811351,221.923784 277.561622,221.609189 C277.311892,221.294595 277.118919,220.905405 276.982703,220.441622 C276.846486,219.977838 276.778378,219.447568 276.778378,218.850811 C276.778378,218.28 276.841622,217.764324 276.968108,217.303784 C277.094595,216.843243 277.282703,216.450811 277.532432,216.126486 C277.782162,215.802162 278.091892,215.554054 278.461622,215.382162 C278.831351,215.21027 279.259459,215.124324 279.745946,215.124324 C280.109189,215.124324 280.415676,215.164865 280.665405,215.245946 C280.915135,215.327027 281.125946,215.416216 281.297838,215.513514 C281.46973,215.610811 281.614054,215.7 281.730811,215.781081 C281.847568,215.862162 281.954595,215.902703 282.051892,215.902703 C282.142703,215.902703 282.214054,215.883243 282.265946,215.844324 C282.317838,215.805405 282.36973,215.75027 282.421622,215.678919 L282.421622,215.678919 L282.878919,215.056216 C282.47027,214.647568 282.001622,214.331351 281.472973,214.107568 C280.944324,213.883784 280.332973,213.771892 279.638919,213.771892 C278.892973,213.771892 278.232973,213.898378 277.658919,214.151351 C277.084865,214.404324 276.601622,214.756216 276.209189,215.207027 C275.816757,215.657838 275.518378,216.194595 275.314054,216.817297 C275.10973,217.44 275.007568,218.117838 275.007568,218.850811 C275.007568,219.655135 275.117838,220.371892 275.338378,221.001081 C275.558919,221.63027 275.863784,222.160541 276.252973,222.591892 C276.642162,223.023243 277.101081,223.352432 277.62973,223.579459 C278.158378,223.806486 278.730811,223.92 279.347027,223.92 Z M288.814054,223.92 C289.170811,223.92 289.530811,223.889189 289.894054,223.827568 C290.257297,223.765946 290.609189,223.673514 290.94973,223.55027 C291.29027,223.427027 291.60973,223.26973 291.908108,223.078378 C292.206486,222.887027 292.462703,222.661622 292.676757,222.402162 L292.676757,222.402162 L292.19027,221.76973 C292.112432,221.659459 292.002162,221.604324 291.859459,221.604324 C291.749189,221.604324 291.617838,221.654595 291.465405,221.755135 C291.312973,221.855676 291.123243,221.964324 290.896216,222.081081 C290.669189,222.197838 290.398378,222.306486 290.083784,222.407027 C289.769189,222.507568 289.394595,222.557838 288.96,222.557838 C288.492973,222.557838 288.071351,222.481622 287.695135,222.329189 C287.318919,222.176757 286.994595,221.946486 286.722162,221.638378 C286.44973,221.33027 286.237297,220.945946 286.084865,220.485405 C285.932432,220.024865 285.846486,219.483243 285.827027,218.860541 L285.827027,218.860541 L292.414054,218.860541 C292.576216,218.860541 292.686486,218.815135 292.744865,218.724324 C292.803243,218.633514 292.832432,218.451892 292.832432,218.179459 C292.832432,217.478919 292.728649,216.854595 292.521081,216.306486 C292.313514,215.758378 292.026486,215.297838 291.66,214.924865 C291.293514,214.551892 290.858919,214.266486 290.356216,214.068649 C289.853514,213.870811 289.307027,213.771892 288.716757,213.771892 C288.003243,213.771892 287.361081,213.896757 286.79027,214.146486 C286.219459,214.396216 285.736216,214.74 285.340541,215.177838 C284.944865,215.615676 284.641622,216.132973 284.430811,216.72973 C284.22,217.326486 284.114595,217.968649 284.114595,218.656216 C284.114595,219.505946 284.231351,220.258378 284.464865,220.913514 C284.698378,221.568649 285.024324,222.118378 285.442703,222.562703 C285.861081,223.007027 286.357297,223.344324 286.931351,223.574595 C287.505405,223.804865 288.132973,223.92 288.814054,223.92 Z M291.275676,217.780541 L285.885405,217.780541 C286.002162,216.924324 286.302162,216.254595 286.785405,215.771351 C287.268649,215.288108 287.925405,215.046486 288.755676,215.046486 C289.151351,215.046486 289.504865,215.112973 289.816216,215.245946 C290.127568,215.378919 290.391892,215.567027 290.609189,215.81027 C290.826486,216.053514 290.991892,216.342162 291.105405,216.676216 C291.218919,217.01027 291.275676,217.378378 291.275676,217.780541 L291.275676,217.780541 Z M297.522162,223.939459 C298.125405,223.939459 298.657297,223.858378 299.117838,223.696216 C299.578378,223.534054 299.967568,223.311892 300.285405,223.02973 C300.603243,222.747568 300.843243,222.413514 301.005405,222.027568 C301.167568,221.641622 301.248649,221.221622 301.248649,220.767568 C301.248649,220.371892 301.175676,220.032973 301.02973,219.750811 C300.883784,219.468649 300.690811,219.23027 300.450811,219.035676 C300.210811,218.841081 299.938378,218.678919 299.633514,218.549189 C299.328649,218.419459 299.015676,218.301081 298.694595,218.194054 C298.373514,218.087027 298.060541,217.986486 297.755676,217.892432 C297.450811,217.798378 297.178378,217.68973 296.938378,217.566486 C296.698378,217.443243 296.505405,217.297297 296.359459,217.128649 C296.213514,216.96 296.140541,216.749189 296.140541,216.496216 C296.140541,216.295135 296.184324,216.108649 296.271892,215.936757 C296.359459,215.764865 296.485946,215.614054 296.651351,215.484324 C296.816757,215.354595 297.016216,215.252432 297.24973,215.177838 C297.483243,215.103243 297.745946,215.065946 298.037838,215.065946 C298.375135,215.065946 298.667027,215.103243 298.913514,215.177838 C299.16,215.252432 299.372432,215.333514 299.550811,215.421081 C299.729189,215.508649 299.88,215.588108 300.003243,215.659459 C300.126486,215.730811 300.236757,215.766486 300.334054,215.766486 C300.496216,215.766486 300.616216,215.695135 300.694054,215.552432 L300.694054,215.552432 L301.083243,214.92 C300.707027,214.563243 300.261081,214.282703 299.745405,214.078378 C299.22973,213.874054 298.647568,213.771892 297.998919,213.771892 C297.441081,213.771892 296.944865,213.84973 296.51027,214.005405 C296.075676,214.161081 295.709189,214.37027 295.410811,214.632973 C295.112432,214.895676 294.885405,215.200541 294.72973,215.547568 C294.574054,215.894595 294.496216,216.256216 294.496216,216.632432 C294.496216,217.054054 294.569189,217.412432 294.715135,217.707568 C294.861081,218.002703 295.054054,218.250811 295.294054,218.451892 C295.534054,218.652973 295.808108,218.82 296.116216,218.952973 C296.424324,219.085946 296.738919,219.204324 297.06,219.308108 C297.381081,219.411892 297.695676,219.510811 298.003784,219.604865 C298.311892,219.698919 298.585946,219.809189 298.825946,219.935676 C299.065946,220.062162 299.258919,220.214595 299.404865,220.392973 C299.550811,220.571351 299.623784,220.796757 299.623784,221.069189 C299.623784,221.28973 299.583243,221.497297 299.502162,221.691892 C299.421081,221.886486 299.296216,222.058378 299.127568,222.207568 C298.958919,222.356757 298.748108,222.475135 298.495135,222.562703 C298.242162,222.65027 297.947027,222.694054 297.60973,222.694054 C297.214054,222.694054 296.883243,222.648649 296.617297,222.557838 C296.351351,222.467027 296.125946,222.366486 295.941081,222.256216 C295.756216,222.145946 295.598919,222.045405 295.469189,221.954595 C295.339459,221.863784 295.216216,221.818378 295.099459,221.818378 C294.989189,221.818378 294.898378,221.841081 294.827027,221.886486 C294.755676,221.931892 294.694054,221.996757 294.642162,222.081081 L294.642162,222.081081 L294.233514,222.742703 C294.622703,223.092973 295.096216,223.38 295.654054,223.603784 C296.211892,223.827568 296.834595,223.939459 297.522162,223.939459 Z M305.948108,223.939459 C306.551351,223.939459 307.083243,223.858378 307.543784,223.696216 C308.004324,223.534054 308.393514,223.311892 308.711351,223.02973 C309.029189,222.747568 309.269189,222.413514 309.431351,222.027568 C309.593514,221.641622 309.674595,221.221622 309.674595,220.767568 C309.674595,220.371892 309.601622,220.032973 309.455676,219.750811 C309.30973,219.468649 309.116757,219.23027 308.876757,219.035676 C308.636757,218.841081 308.364324,218.678919 308.059459,218.549189 C307.754595,218.419459 307.441622,218.301081 307.120541,218.194054 C306.799459,218.087027 306.486486,217.986486 306.181622,217.892432 C305.876757,217.798378 305.604324,217.68973 305.364324,217.566486 C305.124324,217.443243 304.931351,217.297297 304.785405,217.128649 C304.639459,216.96 304.566486,216.749189 304.566486,216.496216 C304.566486,216.295135 304.61027,216.108649 304.697838,215.936757 C304.785405,215.764865 304.911892,215.614054 305.077297,215.484324 C305.242703,215.354595 305.442162,215.252432 305.675676,215.177838 C305.909189,215.103243 306.171892,215.065946 306.463784,215.065946 C306.801081,215.065946 307.092973,215.103243 307.339459,215.177838 C307.585946,215.252432 307.798378,215.333514 307.976757,215.421081 C308.155135,215.508649 308.305946,215.588108 308.429189,215.659459 C308.552432,215.730811 308.662703,215.766486 308.76,215.766486 C308.922162,215.766486 309.042162,215.695135 309.12,215.552432 L309.12,215.552432 L309.509189,214.92 C309.132973,214.563243 308.687027,214.282703 308.171351,214.078378 C307.655676,213.874054 307.073514,213.771892 306.424865,213.771892 C305.867027,213.771892 305.370811,213.84973 304.936216,214.005405 C304.501622,214.161081 304.135135,214.37027 303.836757,214.632973 C303.538378,214.895676 303.311351,215.200541 303.155676,215.547568 C303,215.894595 302.922162,216.256216 302.922162,216.632432 C302.922162,217.054054 302.995135,217.412432 303.141081,217.707568 C303.287027,218.002703 303.48,218.250811 303.72,218.451892 C303.96,218.652973 304.234054,218.82 304.542162,218.952973 C304.85027,219.085946 305.164865,219.204324 305.485946,219.308108 C305.807027,219.411892 306.121622,219.510811 306.42973,219.604865 C306.737838,219.698919 307.011892,219.809189 307.251892,219.935676 C307.491892,220.062162 307.684865,220.214595 307.830811,220.392973 C307.976757,220.571351 308.04973,220.796757 308.04973,221.069189 C308.04973,221.28973 308.009189,221.497297 307.928108,221.691892 C307.847027,221.886486 307.722162,222.058378 307.553514,222.207568 C307.384865,222.356757 307.174054,222.475135 306.921081,222.562703 C306.668108,222.65027 306.372973,222.694054 306.035676,222.694054 C305.64,222.694054 305.309189,222.648649 305.043243,222.557838 C304.777297,222.467027 304.551892,222.366486 304.367027,222.256216 C304.182162,222.145946 304.024865,222.045405 303.895135,221.954595 C303.765405,221.863784 303.642162,221.818378 303.525405,221.818378 C303.415135,221.818378 303.324324,221.841081 303.252973,221.886486 C303.181622,221.931892 303.12,221.996757 303.068108,222.081081 L303.068108,222.081081 L302.659459,222.742703 C303.048649,223.092973 303.522162,223.38 304.08,223.603784 C304.637838,223.827568 305.260541,223.939459 305.948108,223.939459 Z M325.631351,223.783784 L325.631351,222.732973 C325.631351,222.557838 325.576216,222.415135 325.465946,222.304865 C325.355676,222.194595 325.206486,222.139459 325.018378,222.139459 L325.018378,222.139459 L320.348108,222.139459 C320.101622,222.139459 319.845405,222.160541 319.579459,222.202703 C319.313514,222.244865 319.050811,222.301622 318.791351,222.372973 L318.791351,222.372973 L322.469189,218.617297 C322.858378,218.228108 323.226486,217.842162 323.573514,217.459459 C323.920541,217.076757 324.227027,216.684324 324.492973,216.282162 C324.758919,215.88 324.96973,215.456757 325.125405,215.012432 C325.281081,214.568108 325.358919,214.086486 325.358919,213.567568 C325.358919,212.957838 325.251892,212.412973 325.037838,211.932973 C324.823784,211.452973 324.528649,211.045946 324.152432,210.711892 C323.776216,210.377838 323.331892,210.123243 322.819459,209.948108 C322.307027,209.772973 321.755676,209.685405 321.165405,209.685405 C320.568649,209.685405 320.014054,209.771351 319.501622,209.943243 C318.989189,210.115135 318.533514,210.366486 318.134595,210.697297 C317.735676,211.028108 317.404865,211.438378 317.142162,211.928108 C316.879459,212.417838 316.702703,212.980541 316.611892,213.616216 L316.611892,213.616216 L317.516757,213.771892 C317.756757,213.804324 317.943243,213.783243 318.076216,213.708649 C318.209189,213.634054 318.314595,213.483243 318.392432,213.256216 C318.457297,212.951351 318.567568,212.672432 318.723243,212.419459 C318.878919,212.166486 319.071892,211.947568 319.302162,211.762703 C319.532432,211.577838 319.796757,211.433514 320.095135,211.32973 C320.393514,211.225946 320.721081,211.174054 321.077838,211.174054 C321.428108,211.174054 321.755676,211.224324 322.060541,211.324865 C322.365405,211.425405 322.62973,211.576216 322.853514,211.777297 C323.077297,211.978378 323.254054,212.232973 323.383784,212.541081 C323.513514,212.849189 323.578378,213.207568 323.578378,213.616216 C323.578378,214.024865 323.52,214.409189 323.403243,214.769189 C323.286486,215.129189 323.121081,215.484324 322.907027,215.834595 C322.692973,216.184865 322.433514,216.533514 322.128649,216.880541 C321.823784,217.227568 321.486486,217.589189 321.116757,217.965405 L321.116757,217.965405 L316.650811,222.450811 C316.540541,222.561081 316.459459,222.681081 316.407568,222.810811 C316.355676,222.940541 316.32973,223.067027 316.32973,223.19027 L316.32973,223.19027 L316.32973,223.783784 L325.631351,223.783784 Z M331.673514,223.939459 C332.380541,223.939459 333.038919,223.825946 333.648649,223.598919 C334.258378,223.371892 334.788649,223.045946 335.239459,222.621081 C335.69027,222.196216 336.043784,221.685405 336.3,221.088649 C336.556216,220.491892 336.684324,219.823784 336.684324,219.084324 C336.684324,218.481081 336.588649,217.923243 336.397297,217.410811 C336.205946,216.898378 335.923784,216.454054 335.550811,216.077838 C335.177838,215.701622 334.712432,215.406486 334.154595,215.192432 C333.596757,214.978378 332.954595,214.871351 332.228108,214.871351 C331.618378,214.871351 330.95027,214.949189 330.223784,215.104865 L330.223784,215.104865 L330.865946,211.446486 L335.244324,211.446486 C335.614054,211.446486 335.875135,211.367027 336.027568,211.208108 C336.18,211.049189 336.256216,210.846486 336.256216,210.6 L336.256216,210.6 L336.256216,209.841081 L329.64973,209.841081 L328.530811,216.36 L329.620541,216.681081 C330.016216,216.551351 330.403784,216.457297 330.783243,216.398919 C331.162703,216.340541 331.527568,216.311351 331.877838,216.311351 C332.39027,216.311351 332.837838,216.379459 333.220541,216.515676 C333.603243,216.651892 333.922703,216.843243 334.178919,217.08973 C334.435135,217.336216 334.626486,217.634595 334.752973,217.984865 C334.879459,218.335135 334.942703,218.727568 334.942703,219.162162 C334.942703,219.661622 334.868108,220.112432 334.718919,220.514595 C334.56973,220.916757 334.355676,221.262162 334.076757,221.550811 C333.797838,221.839459 333.463784,222.061622 333.074595,222.217297 C332.685405,222.372973 332.247568,222.450811 331.761081,222.450811 C331.326486,222.450811 330.951892,222.400541 330.637297,222.3 C330.322703,222.199459 330.048649,222.087568 329.815135,221.964324 C329.581622,221.841081 329.383784,221.729189 329.221622,221.628649 C329.059459,221.528108 328.913514,221.477838 328.783784,221.477838 C328.595676,221.477838 328.443243,221.562162 328.326486,221.730811 L328.326486,221.730811 L327.791351,222.47027 C328.005405,222.664865 328.251892,222.84973 328.530811,223.024865 C328.80973,223.2 329.112973,223.355676 329.440541,223.491892 C329.768108,223.628108 330.12,223.736757 330.496216,223.817838 C330.872432,223.898919 331.264865,223.939459 331.673514,223.939459 Z M343.621622,223.92973 C344.328649,223.92973 344.991892,223.787027 345.611351,223.501622 C346.230811,223.216216 346.767568,222.781622 347.221622,222.197838 C347.675676,221.614054 348.034054,220.876216 348.296757,219.984324 C348.559459,219.092432 348.690811,218.036757 348.690811,216.817297 C348.690811,215.597838 348.559459,214.540541 348.296757,213.645405 C348.034054,212.75027 347.675676,212.009189 347.221622,211.422162 C346.767568,210.835135 346.230811,210.398919 345.611351,210.113514 C344.991892,209.828108 344.328649,209.685405 343.621622,209.685405 C342.908108,209.685405 342.244865,209.828108 341.631892,210.113514 C341.018919,210.398919 340.485405,210.835135 340.031351,211.422162 C339.577297,212.009189 339.220541,212.75027 338.961081,213.645405 C338.701622,214.540541 338.571892,215.597838 338.571892,216.817297 C338.571892,218.036757 338.701622,219.092432 338.961081,219.984324 C339.220541,220.876216 339.577297,221.614054 340.031351,222.197838 C340.485405,222.781622 341.018919,223.216216 341.631892,223.501622 C342.244865,223.787027 342.908108,223.92973 343.621622,223.92973 Z M343.621622,222.47027 C343.193514,222.47027 342.781622,222.374595 342.385946,222.183243 C341.99027,221.991892 341.643243,221.675676 341.344865,221.234595 C341.046486,220.793514 340.808108,220.212973 340.62973,219.492973 C340.451351,218.772973 340.362162,217.881081 340.362162,216.817297 C340.362162,215.753514 340.451351,214.86 340.62973,214.136757 C340.808108,213.413514 341.046486,212.831351 341.344865,212.39027 C341.643243,211.949189 341.99027,211.632973 342.385946,211.441622 C342.781622,211.25027 343.193514,211.154595 343.621622,211.154595 C344.04973,211.154595 344.461622,211.25027 344.857297,211.441622 C345.252973,211.632973 345.601622,211.949189 345.903243,212.39027 C346.204865,212.831351 346.444865,213.413514 346.623243,214.136757 C346.801622,214.86 346.890811,215.753514 346.890811,216.817297 C346.890811,217.881081 346.801622,218.772973 346.623243,219.492973 C346.444865,220.212973 346.204865,220.793514 345.903243,221.234595 C345.601622,221.675676 345.252973,221.991892 344.857297,222.183243 C344.461622,222.374595 344.04973,222.47027 343.621622,222.47027 Z M364.161081,223.783784 L364.161081,222.460541 L361.417297,222.460541 L361.417297,209.811892 L360.006486,209.811892 L355.851892,213.402162 L356.396757,214.151351 C356.429189,214.196757 356.476216,214.238919 356.537838,214.277838 C356.599459,214.316757 356.665946,214.342703 356.737297,214.355676 C356.808649,214.368649 356.886486,214.367027 356.970811,214.350811 C357.055135,214.334595 357.139459,214.290811 357.223784,214.219459 L357.223784,214.219459 L359.704865,212.088649 C359.685405,212.380541 359.675676,212.669189 359.675676,212.954595 L359.675676,212.954595 L359.675676,222.460541 L356.688649,222.460541 L356.688649,223.783784 L364.161081,223.783784 Z M371.176216,223.92973 C371.883243,223.92973 372.546486,223.787027 373.165946,223.501622 C373.785405,223.216216 374.322162,222.781622 374.776216,222.197838 C375.23027,221.614054 375.588649,220.876216 375.851351,219.984324 C376.114054,219.092432 376.245405,218.036757 376.245405,216.817297 C376.245405,215.597838 376.114054,214.540541 375.851351,213.645405 C375.588649,212.75027 375.23027,212.009189 374.776216,211.422162 C374.322162,210.835135 373.785405,210.398919 373.165946,210.113514 C372.546486,209.828108 371.883243,209.685405 371.176216,209.685405 C370.462703,209.685405 369.799459,209.828108 369.186486,210.113514 C368.573514,210.398919 368.04,210.835135 367.585946,211.422162 C367.131892,212.009189 366.775135,212.75027 366.515676,213.645405 C366.256216,214.540541 366.126486,215.597838 366.126486,216.817297 C366.126486,218.036757 366.256216,219.092432 366.515676,219.984324 C366.775135,220.876216 367.131892,221.614054 367.585946,222.197838 C368.04,222.781622 368.573514,223.216216 369.186486,223.501622 C369.799459,223.787027 370.462703,223.92973 371.176216,223.92973 Z M371.176216,222.47027 C370.748108,222.47027 370.336216,222.374595 369.940541,222.183243 C369.544865,221.991892 369.197838,221.675676 368.899459,221.234595 C368.601081,220.793514 368.362703,220.212973 368.184324,219.492973 C368.005946,218.772973 367.916757,217.881081 367.916757,216.817297 C367.916757,215.753514 368.005946,214.86 368.184324,214.136757 C368.362703,213.413514 368.601081,212.831351 368.899459,212.39027 C369.197838,211.949189 369.544865,211.632973 369.940541,211.441622 C370.336216,211.25027 370.748108,211.154595 371.176216,211.154595 C371.604324,211.154595 372.016216,211.25027 372.411892,211.441622 C372.807568,211.632973 373.156216,211.949189 373.457838,212.39027 C373.759459,212.831351 373.999459,213.413514 374.177838,214.136757 C374.356216,214.86 374.445405,215.753514 374.445405,216.817297 C374.445405,217.881081 374.356216,218.772973 374.177838,219.492973 C373.999459,220.212973 373.759459,220.793514 373.457838,221.234595 C373.156216,221.675676 372.807568,221.991892 372.411892,222.183243 C372.016216,222.374595 371.604324,222.47027 371.176216,222.47027 Z M382.462703,223.92973 C383.16973,223.92973 383.832973,223.787027 384.452432,223.501622 C385.071892,223.216216 385.608649,222.781622 386.062703,222.197838 C386.516757,221.614054 386.875135,220.876216 387.137838,219.984324 C387.400541,219.092432 387.531892,218.036757 387.531892,216.817297 C387.531892,215.597838 387.400541,214.540541 387.137838,213.645405 C386.875135,212.75027 386.516757,212.009189 386.062703,211.422162 C385.608649,210.835135 385.071892,210.398919 384.452432,210.113514 C383.832973,209.828108 383.16973,209.685405 382.462703,209.685405 C381.749189,209.685405 381.085946,209.828108 380.472973,210.113514 C379.86,210.398919 379.326486,210.835135 378.872432,211.422162 C378.418378,212.009189 378.061622,212.75027 377.802162,213.645405 C377.542703,214.540541 377.412973,215.597838 377.412973,216.817297 C377.412973,218.036757 377.542703,219.092432 377.802162,219.984324 C378.061622,220.876216 378.418378,221.614054 378.872432,222.197838 C379.326486,222.781622 379.86,223.216216 380.472973,223.501622 C381.085946,223.787027 381.749189,223.92973 382.462703,223.92973 Z M382.462703,222.47027 C382.034595,222.47027 381.622703,222.374595 381.227027,222.183243 C380.831351,221.991892 380.484324,221.675676 380.185946,221.234595 C379.887568,220.793514 379.649189,220.212973 379.470811,219.492973 C379.292432,218.772973 379.203243,217.881081 379.203243,216.817297 C379.203243,215.753514 379.292432,214.86 379.470811,214.136757 C379.649189,213.413514 379.887568,212.831351 380.185946,212.39027 C380.484324,211.949189 380.831351,211.632973 381.227027,211.441622 C381.622703,211.25027 382.034595,211.154595 382.462703,211.154595 C382.890811,211.154595 383.302703,211.25027 383.698378,211.441622 C384.094054,211.632973 384.442703,211.949189 384.744324,212.39027 C385.045946,212.831351 385.285946,213.413514 385.464324,214.136757 C385.642703,214.86 385.731892,215.753514 385.731892,216.817297 C385.731892,217.881081 385.642703,218.772973 385.464324,219.492973 C385.285946,220.212973 385.045946,220.793514 384.744324,221.234595 C384.442703,221.675676 384.094054,221.991892 383.698378,222.183243 C383.302703,222.374595 382.890811,222.47027 382.462703,222.47027 Z M398.925405,223.92 C399.580541,223.92 400.170811,223.791892 400.696216,223.535676 C401.221622,223.279459 401.667568,222.919459 402.034054,222.455676 C402.400541,221.991892 402.681081,221.432432 402.875676,220.777297 C403.07027,220.122162 403.167568,219.395676 403.167568,218.597838 C403.167568,217.851892 403.081622,217.180541 402.90973,216.583784 C402.737838,215.987027 402.48973,215.479459 402.165405,215.061081 C401.841081,214.642703 401.447027,214.323243 400.983243,214.102703 C400.519459,213.882162 399.998919,213.771892 399.421622,213.771892 C398.740541,213.771892 398.138919,213.914595 397.616757,214.2 C397.094595,214.485405 396.625946,214.868108 396.210811,215.348108 L396.210811,215.348108 L396.210811,209.451892 L394.469189,209.451892 L394.469189,223.783784 L395.588108,223.783784 C395.834595,223.783784 395.983784,223.660541 396.035676,223.414054 L396.035676,223.414054 L396.123243,222.518919 C396.454054,222.966486 396.841622,223.311892 397.285946,223.555135 C397.73027,223.798378 398.276757,223.92 398.925405,223.92 Z M398.507027,222.577297 C398.052973,222.577297 397.636216,222.48973 397.256757,222.314595 C396.877297,222.139459 396.528649,221.837838 396.210811,221.40973 L396.210811,221.40973 L396.210811,216.642162 C396.567568,216.168649 396.955135,215.802162 397.373514,215.542703 C397.791892,215.283243 398.283243,215.153514 398.847568,215.153514 C399.658378,215.153514 400.282703,215.437297 400.720541,216.004865 C401.158378,216.572432 401.377297,217.459459 401.377297,218.665946 C401.377297,219.963243 401.130811,220.939459 400.637838,221.594595 C400.144865,222.24973 399.434595,222.577297 398.507027,222.577297 Z M409.521081,223.92 C410.241081,223.92 410.88973,223.801622 411.467027,223.564865 C412.044324,223.328108 412.537297,222.989189 412.945946,222.548108 C413.354595,222.107027 413.667568,221.575135 413.884865,220.952432 C414.102162,220.32973 414.210811,219.629189 414.210811,218.850811 C414.210811,218.078919 414.102162,217.38 413.884865,216.754054 C413.667568,216.128108 413.354595,215.594595 412.945946,215.153514 C412.537297,214.712432 412.044324,214.371892 411.467027,214.131892 C410.88973,213.891892 410.241081,213.771892 409.521081,213.771892 C408.794595,213.771892 408.141081,213.891892 407.560541,214.131892 C406.98,214.371892 406.485405,214.712432 406.076757,215.153514 C405.668108,215.594595 405.355135,216.128108 405.137838,216.754054 C404.920541,217.38 404.811892,218.078919 404.811892,218.850811 C404.811892,219.629189 404.920541,220.32973 405.137838,220.952432 C405.355135,221.575135 405.668108,222.107027 406.076757,222.548108 C406.485405,222.989189 406.98,223.328108 407.560541,223.564865 C408.141081,223.801622 408.794595,223.92 409.521081,223.92 Z M409.521081,222.567568 C408.535135,222.567568 407.800541,222.241622 407.317297,221.58973 C406.834054,220.937838 406.592432,220.028108 406.592432,218.860541 C406.592432,218.276757 406.652432,217.752973 406.772432,217.289189 C406.892432,216.825405 407.074054,216.434595 407.317297,216.116757 C407.560541,215.798919 407.865405,215.555676 408.231892,215.387027 C408.598378,215.218378 409.028108,215.134054 409.521081,215.134054 C410.494054,215.134054 411.220541,215.461622 411.700541,216.116757 C412.180541,216.771892 412.420541,217.686486 412.420541,218.860541 C412.420541,220.028108 412.180541,220.937838 411.700541,221.58973 C411.220541,222.241622 410.494054,222.567568 409.521081,222.567568 Z M420.554595,223.92 C421.274595,223.92 421.923243,223.801622 422.500541,223.564865 C423.077838,223.328108 423.570811,222.989189 423.979459,222.548108 C424.388108,222.107027 424.701081,221.575135 424.918378,220.952432 C425.135676,220.32973 425.244324,219.629189 425.244324,218.850811 C425.244324,218.078919 425.135676,217.38 424.918378,216.754054 C424.701081,216.128108 424.388108,215.594595 423.979459,215.153514 C423.570811,214.712432 423.077838,214.371892 422.500541,214.131892 C421.923243,213.891892 421.274595,213.771892 420.554595,213.771892 C419.828108,213.771892 419.174595,213.891892 418.594054,214.131892 C418.013514,214.371892 417.518919,214.712432 417.11027,215.153514 C416.701622,215.594595 416.388649,216.128108 416.171351,216.754054 C415.954054,217.38 415.845405,218.078919 415.845405,218.850811 C415.845405,219.629189 415.954054,220.32973 416.171351,220.952432 C416.388649,221.575135 416.701622,222.107027 417.11027,222.548108 C417.518919,222.989189 418.013514,223.328108 418.594054,223.564865 C419.174595,223.801622 419.828108,223.92 420.554595,223.92 Z M420.554595,222.567568 C419.568649,222.567568 418.834054,222.241622 418.350811,221.58973 C417.867568,220.937838 417.625946,220.028108 417.625946,218.860541 C417.625946,218.276757 417.685946,217.752973 417.805946,217.289189 C417.925946,216.825405 418.107568,216.434595 418.350811,216.116757 C418.594054,215.798919 418.898919,215.555676 419.265405,215.387027 C419.631892,215.218378 420.061622,215.134054 420.554595,215.134054 C421.527568,215.134054 422.254054,215.461622 422.734054,216.116757 C423.214054,216.771892 423.454054,217.686486 423.454054,218.860541 C423.454054,220.028108 423.214054,220.937838 422.734054,221.58973 C422.254054,222.241622 421.527568,222.567568 420.554595,222.567568 Z M429.175135,223.783784 L429.175135,219.074595 L429.671351,219.074595 C429.865946,219.074595 430.01027,219.095676 430.104324,219.137838 C430.198378,219.18 430.294054,219.269189 430.391351,219.405405 L430.391351,219.405405 L433.631351,223.443243 C433.709189,223.572973 433.801622,223.662162 433.908649,223.710811 C434.015676,223.759459 434.143784,223.783784 434.292973,223.783784 L434.292973,223.783784 L435.84,223.783784 L431.987027,218.918919 C431.902703,218.789189 431.813514,218.674054 431.719459,218.573514 C431.625405,218.472973 431.52,218.383784 431.403243,218.305946 C431.604324,218.182703 431.792432,218.010811 431.967568,217.79027 L431.967568,217.79027 L435.596757,213.927568 L434.03027,213.927568 C433.861622,213.927568 433.727027,213.958378 433.626486,214.02 C433.525946,214.081622 433.43027,214.167568 433.339459,214.277838 L433.339459,214.277838 L430.225946,217.615135 C430.128649,217.725405 430.036216,217.798378 429.948649,217.834054 C429.861081,217.86973 429.752432,217.887568 429.622703,217.887568 L429.622703,217.887568 L429.175135,217.887568 L429.175135,209.451892 L427.433514,209.451892 L427.433514,223.783784 L429.175135,223.783784 Z M439.887568,223.939459 C440.490811,223.939459 441.022703,223.858378 441.483243,223.696216 C441.943784,223.534054 442.332973,223.311892 442.650811,223.02973 C442.968649,222.747568 443.208649,222.413514 443.370811,222.027568 C443.532973,221.641622 443.614054,221.221622 443.614054,220.767568 C443.614054,220.371892 443.541081,220.032973 443.395135,219.750811 C443.249189,219.468649 443.056216,219.23027 442.816216,219.035676 C442.576216,218.841081 442.303784,218.678919 441.998919,218.549189 C441.694054,218.419459 441.381081,218.301081 441.06,218.194054 C440.738919,218.087027 440.425946,217.986486 440.121081,217.892432 C439.816216,217.798378 439.543784,217.68973 439.303784,217.566486 C439.063784,217.443243 438.870811,217.297297 438.724865,217.128649 C438.578919,216.96 438.505946,216.749189 438.505946,216.496216 C438.505946,216.295135 438.54973,216.108649 438.637297,215.936757 C438.724865,215.764865 438.851351,215.614054 439.016757,215.484324 C439.182162,215.354595 439.381622,215.252432 439.615135,215.177838 C439.848649,215.103243 440.111351,215.065946 440.403243,215.065946 C440.740541,215.065946 441.032432,215.103243 441.278919,215.177838 C441.525405,215.252432 441.737838,215.333514 441.916216,215.421081 C442.094595,215.508649 442.245405,215.588108 442.368649,215.659459 C442.491892,215.730811 442.602162,215.766486 442.699459,215.766486 C442.861622,215.766486 442.981622,215.695135 443.059459,215.552432 L443.059459,215.552432 L443.448649,214.92 C443.072432,214.563243 442.626486,214.282703 442.110811,214.078378 C441.595135,213.874054 441.012973,213.771892 440.364324,213.771892 C439.806486,213.771892 439.31027,213.84973 438.875676,214.005405 C438.441081,214.161081 438.074595,214.37027 437.776216,214.632973 C437.477838,214.895676 437.250811,215.200541 437.095135,215.547568 C436.939459,215.894595 436.861622,216.256216 436.861622,216.632432 C436.861622,217.054054 436.934595,217.412432 437.080541,217.707568 C437.226486,218.002703 437.419459,218.250811 437.659459,218.451892 C437.899459,218.652973 438.173514,218.82 438.481622,218.952973 C438.78973,219.085946 439.104324,219.204324 439.425405,219.308108 C439.746486,219.411892 440.061081,219.510811 440.369189,219.604865 C440.677297,219.698919 440.951351,219.809189 441.191351,219.935676 C441.431351,220.062162 441.624324,220.214595 441.77027,220.392973 C441.916216,220.571351 441.989189,220.796757 441.989189,221.069189 C441.989189,221.28973 441.948649,221.497297 441.867568,221.691892 C441.786486,221.886486 441.661622,222.058378 441.492973,222.207568 C441.324324,222.356757 441.113514,222.475135 440.860541,222.562703 C440.607568,222.65027 440.312432,222.694054 439.975135,222.694054 C439.579459,222.694054 439.248649,222.648649 438.982703,222.557838 C438.716757,222.467027 438.491351,222.366486 438.306486,222.256216 C438.121622,222.145946 437.964324,222.045405 437.834595,221.954595 C437.704865,221.863784 437.581622,221.818378 437.464865,221.818378 C437.354595,221.818378 437.263784,221.841081 437.192432,221.886486 C437.121081,221.931892 437.059459,221.996757 437.007568,222.081081 L437.007568,222.081081 L436.598919,222.742703 C436.988108,223.092973 437.461622,223.38 438.019459,223.603784 C438.577297,223.827568 439.2,223.939459 439.887568,223.939459 Z" id="Access250100books" fill-opacity="0.496448864" fill="#60707F" fill-rule="nonzero"></path>
            <path d="M201.178378,162.162162 L201.178378,147.476757 L219.392432,147.476757 L219.392432,143.014054 L201.178378,143.014054 L201.178378,130.352432 L221.623784,130.352432 L221.623784,125.837838 L195.989189,125.837838 L195.989189,162.162162 L201.178378,162.162162 Z M231.483243,129.366486 C232.451892,129.366486 233.256216,129.046486 233.896216,128.406486 C234.536216,127.766486 234.856216,126.979459 234.856216,126.045405 C234.856216,125.145946 234.536216,124.393514 233.896216,123.788108 C233.256216,123.182703 232.451892,122.88 231.483243,122.88 C230.514595,122.88 229.71027,123.2 229.07027,123.84 C228.43027,124.48 228.11027,125.24973 228.11027,126.149189 C228.11027,127.048649 228.43027,127.80973 229.07027,128.432432 C229.71027,129.055135 230.514595,129.366486 231.483243,129.366486 Z M233.974054,162.162162 L233.974054,134.659459 L228.992432,134.659459 L228.992432,162.162162 L233.974054,162.162162 Z M249.749189,162.162162 L249.749189,147.995676 C249.749189,145.055135 250.527568,142.797838 252.084324,141.223784 C253.641081,139.64973 255.768649,138.862703 258.467027,138.862703 C260.854054,138.862703 262.687568,139.537297 263.967568,140.886486 C265.247568,142.235676 265.887568,144.242162 265.887568,146.905946 L265.887568,146.905946 L265.887568,162.162162 L270.869189,162.162162 L270.869189,146.335135 C270.869189,142.425946 269.84,139.459459 267.781622,137.435676 C265.723243,135.411892 262.947027,134.4 259.452973,134.4 C257.273514,134.4 255.327568,134.780541 253.615135,135.541622 C251.902703,136.302703 250.544865,137.392432 249.541622,138.810811 L249.541622,138.810811 L249.541622,134.659459 L244.767568,134.659459 L244.767568,162.162162 L249.749189,162.162162 Z M292.923243,162.473514 C294.964324,162.473514 296.832432,162.075676 298.527568,161.28 C300.222703,160.484324 301.623784,159.325405 302.730811,157.803243 L302.730811,157.803243 L302.730811,162.162162 L307.504865,162.162162 L307.504865,123.658378 L302.523243,123.658378 L302.523243,138.810811 C301.416216,137.357838 300.032432,136.259459 298.371892,135.515676 C296.711351,134.771892 294.895135,134.4 292.923243,134.4 C290.259459,134.4 287.872432,134.988108 285.762162,136.164324 C283.651892,137.340541 282,138.983784 280.806486,141.094054 C279.612973,143.204324 279.016216,145.643243 279.016216,148.410811 C279.016216,151.178378 279.612973,153.625946 280.806486,155.753514 C282,157.881081 283.651892,159.532973 285.762162,160.709189 C287.872432,161.885405 290.259459,162.473514 292.923243,162.473514 Z M293.338378,158.114595 C291.574054,158.114595 289.991351,157.708108 288.59027,156.895135 C287.189189,156.082162 286.082162,154.940541 285.269189,153.47027 C284.456216,152 284.04973,150.313514 284.04973,148.410811 C284.04973,146.508108 284.456216,144.821622 285.269189,143.351351 C286.082162,141.881081 287.189189,140.748108 288.59027,139.952432 C289.991351,139.156757 291.574054,138.758919 293.338378,138.758919 C295.068108,138.758919 296.642162,139.156757 298.060541,139.952432 C299.478919,140.748108 300.585946,141.881081 301.381622,143.351351 C302.177297,144.821622 302.575135,146.508108 302.575135,148.410811 C302.575135,150.313514 302.177297,152 301.381622,153.47027 C300.585946,154.940541 299.478919,156.082162 298.060541,156.895135 C296.642162,157.708108 295.068108,158.114595 293.338378,158.114595 Z M351.561081,162.162162 C356.092973,162.162162 359.543784,161.314595 361.913514,159.619459 C364.283243,157.924324 365.468108,155.502703 365.468108,152.354595 C365.468108,150.002162 364.862703,148.056216 363.651892,146.516757 C362.441081,144.977297 360.780541,143.913514 358.67027,143.325405 C360.157838,142.598919 361.342703,141.543784 362.224865,140.16 C363.107027,138.776216 363.548108,137.132973 363.548108,135.23027 C363.548108,132.28973 362.415135,129.989189 360.149189,128.328649 C357.883243,126.668108 354.674595,125.837838 350.523243,125.837838 L350.523243,125.837838 L334.229189,125.837838 L334.229189,162.162162 L351.561081,162.162162 Z M350.056216,141.664865 L339.418378,141.664865 L339.418378,130.041081 L350.056216,130.041081 C352.72,130.041081 354.76973,130.534054 356.205405,131.52 C357.641081,132.505946 358.358919,133.95027 358.358919,135.852973 C358.358919,137.755676 357.641081,139.2 356.205405,140.185946 C354.76973,141.171892 352.72,141.664865 350.056216,141.664865 L350.056216,141.664865 Z M351.353514,157.958919 L339.418378,157.958919 L339.418378,145.868108 L351.353514,145.868108 C357.269189,145.868108 360.227027,147.891892 360.227027,151.939459 C360.227027,154.015135 359.483243,155.537297 357.995676,156.505946 C356.508108,157.474595 354.294054,157.958919 351.353514,157.958919 L351.353514,157.958919 Z M385.861622,162.473514 C388.594595,162.473514 391.042162,161.868108 393.204324,160.657297 C395.366486,159.446486 397.061622,157.777297 398.28973,155.64973 C399.517838,153.522162 400.131892,151.109189 400.131892,148.410811 C400.131892,145.712432 399.517838,143.299459 398.28973,141.171892 C397.061622,139.044324 395.366486,137.383784 393.204324,136.19027 C391.042162,134.996757 388.594595,134.4 385.861622,134.4 C383.128649,134.4 380.672432,134.996757 378.492973,136.19027 C376.313514,137.383784 374.60973,139.044324 373.381622,141.171892 C372.153514,143.299459 371.539459,145.712432 371.539459,148.410811 C371.539459,151.109189 372.153514,153.522162 373.381622,155.64973 C374.60973,157.777297 376.313514,159.446486 378.492973,160.657297 C380.672432,161.868108 383.128649,162.473514 385.861622,162.473514 Z M385.861622,158.114595 C384.097297,158.114595 382.514595,157.708108 381.113514,156.895135 C379.712432,156.082162 378.605405,154.940541 377.792432,153.47027 C376.979459,152 376.572973,150.313514 376.572973,148.410811 C376.572973,146.508108 376.979459,144.821622 377.792432,143.351351 C378.605405,141.881081 379.712432,140.748108 381.113514,139.952432 C382.514595,139.156757 384.097297,138.758919 385.861622,138.758919 C387.625946,138.758919 389.208649,139.156757 390.60973,139.952432 C392.010811,140.748108 393.109189,141.881081 393.904865,143.351351 C394.700541,144.821622 395.098378,146.508108 395.098378,148.410811 C395.098378,150.313514 394.700541,152 393.904865,153.47027 C393.109189,154.940541 392.010811,156.082162 390.60973,156.895135 C389.208649,157.708108 387.625946,158.114595 385.861622,158.114595 Z M420.11027,162.473514 C422.843243,162.473514 425.290811,161.868108 427.452973,160.657297 C429.615135,159.446486 431.31027,157.777297 432.538378,155.64973 C433.766486,153.522162 434.380541,151.109189 434.380541,148.410811 C434.380541,145.712432 433.766486,143.299459 432.538378,141.171892 C431.31027,139.044324 429.615135,137.383784 427.452973,136.19027 C425.290811,134.996757 422.843243,134.4 420.11027,134.4 C417.377297,134.4 414.921081,134.996757 412.741622,136.19027 C410.562162,137.383784 408.858378,139.044324 407.63027,141.171892 C406.402162,143.299459 405.788108,145.712432 405.788108,148.410811 C405.788108,151.109189 406.402162,153.522162 407.63027,155.64973 C408.858378,157.777297 410.562162,159.446486 412.741622,160.657297 C414.921081,161.868108 417.377297,162.473514 420.11027,162.473514 Z M420.11027,158.114595 C418.345946,158.114595 416.763243,157.708108 415.362162,156.895135 C413.961081,156.082162 412.854054,154.940541 412.041081,153.47027 C411.228108,152 410.821622,150.313514 410.821622,148.410811 C410.821622,146.508108 411.228108,144.821622 412.041081,143.351351 C412.854054,141.881081 413.961081,140.748108 415.362162,139.952432 C416.763243,139.156757 418.345946,138.758919 420.11027,138.758919 C421.874595,138.758919 423.457297,139.156757 424.858378,139.952432 C426.259459,140.748108 427.357838,141.881081 428.153514,143.351351 C428.949189,144.821622 429.347027,146.508108 429.347027,148.410811 C429.347027,150.313514 428.949189,152 428.153514,153.47027 C427.357838,154.940541 426.259459,156.082162 424.858378,156.895135 C423.457297,157.708108 421.874595,158.114595 420.11027,158.114595 Z M447.561081,162.162162 L447.561081,154.637838 L453.269189,149.344865 L463.595676,162.162162 L469.718919,162.162162 L457.005405,146.023784 L468.577297,134.659459 L462.557838,134.659459 L447.561081,148.358919 L447.561081,123.658378 L442.579459,123.658378 L442.579459,162.162162 L447.561081,162.162162 Z M482.847568,162.473514 C486.514595,162.473514 489.411892,161.738378 491.539459,160.268108 C493.667027,158.797838 494.730811,156.817297 494.730811,154.326486 C494.730811,152.458378 494.246486,151.005405 493.277838,149.967568 C492.309189,148.92973 491.141622,148.194595 489.775135,147.762162 C488.408649,147.32973 486.618378,146.923243 484.404324,146.542703 C482.743784,146.231351 481.455135,145.954595 480.538378,145.712432 C479.621622,145.47027 478.851892,145.08973 478.229189,144.570811 C477.606486,144.051892 477.295135,143.342703 477.295135,142.443243 C477.295135,141.301622 477.848649,140.384865 478.955676,139.692973 C480.062703,139.001081 481.671351,138.655135 483.781622,138.655135 C486.825946,138.655135 489.472432,139.381622 491.721081,140.834595 L491.721081,140.834595 L493.848649,136.890811 C492.672432,136.12973 491.167568,135.524324 489.334054,135.074595 C487.500541,134.624865 485.667027,134.4 483.833514,134.4 C480.339459,134.4 477.554595,135.152432 475.478919,136.657297 C473.403243,138.162162 472.365405,140.16 472.365405,142.650811 C472.365405,144.588108 472.867027,146.092973 473.87027,147.165405 C474.873514,148.237838 476.075676,148.998919 477.476757,149.448649 C478.877838,149.898378 480.685405,150.296216 482.899459,150.642162 C484.525405,150.918919 485.779459,151.16973 486.661622,151.394595 C487.543784,151.619459 488.278919,151.974054 488.867027,152.458378 C489.455135,152.942703 489.749189,153.6 489.749189,154.43027 C489.749189,156.921081 487.56973,158.166486 483.210811,158.166486 C481.446486,158.166486 479.699459,157.907027 477.96973,157.388108 C476.24,156.869189 474.76973,156.177297 473.558919,155.312432 L473.558919,155.312432 L471.483243,159.256216 C472.659459,160.19027 474.285405,160.96 476.361081,161.565405 C478.436757,162.170811 480.598919,162.473514 482.847568,162.473514 Z" id="FindBooks" fill-opacity="0.85" fill="#000000" fill-rule="nonzero"></path>
            <path d="M32.0464865,274.054054 L32.0464865,268.060541 L37.7772973,268.060541 L37.7772973,266.523243 L32.0464865,266.523243 L32.0464865,261.648649 L38.7502703,261.648649 L38.7502703,260.111351 L30.1589189,260.111351 L30.1589189,274.054054 L32.0464865,274.054054 Z M41.6594595,262.32973 C41.8281081,262.32973 41.9886486,262.297297 42.1410811,262.232432 C42.2935135,262.167568 42.4264865,262.078378 42.54,261.964865 C42.6535135,261.851351 42.7443243,261.721622 42.8124324,261.575676 C42.8805405,261.42973 42.9145946,261.272432 42.9145946,261.103784 C42.9145946,260.935135 42.8805405,260.774595 42.8124324,260.622162 C42.7443243,260.46973 42.6535135,260.336757 42.54,260.223243 C42.4264865,260.10973 42.2935135,260.020541 42.1410811,259.955676 C41.9886486,259.890811 41.8281081,259.858378 41.6594595,259.858378 C41.4908108,259.858378 41.3335135,259.890811 41.1875676,259.955676 C41.0416216,260.020541 40.9135135,260.10973 40.8032432,260.223243 C40.692973,260.336757 40.6054054,260.46973 40.5405405,260.622162 C40.4756757,260.774595 40.4432432,260.935135 40.4432432,261.103784 C40.4432432,261.272432 40.4756757,261.42973 40.5405405,261.575676 C40.6054054,261.721622 40.692973,261.851351 40.8032432,261.964865 C40.9135135,262.078378 41.0416216,262.167568 41.1875676,262.232432 C41.3335135,262.297297 41.4908108,262.32973 41.6594595,262.32973 Z M42.5448649,274.054054 L42.5448649,264.197838 L40.812973,264.197838 L40.812973,274.054054 L42.5448649,274.054054 Z M47.1275676,274.054054 L47.1275676,266.795676 C47.5037838,266.374054 47.9140541,266.04 48.3583784,265.793514 C48.8027027,265.547027 49.2810811,265.423784 49.7935135,265.423784 C50.4875676,265.423784 51.0048649,265.62973 51.3454054,266.041622 C51.6859459,266.453514 51.8562162,267.032432 51.8562162,267.778378 L51.8562162,267.778378 L51.8562162,274.054054 L53.5978378,274.054054 L53.5978378,267.778378 C53.5978378,267.220541 53.5264865,266.711351 53.3837838,266.250811 C53.2410811,265.79027 53.0318919,265.396216 52.7562162,265.068649 C52.4805405,264.741081 52.1367568,264.488108 51.7248649,264.30973 C51.312973,264.131351 50.8378378,264.042162 50.2994595,264.042162 C49.9491892,264.042162 49.6232432,264.079459 49.3216216,264.154054 C49.02,264.228649 48.7345946,264.335676 48.4654054,264.475135 C48.1962162,264.614595 47.9416216,264.781622 47.7016216,264.976216 C47.4616216,265.170811 47.2345946,265.388108 47.0205405,265.628108 L47.0205405,265.628108 L46.8843243,264.557838 C46.8259459,264.317838 46.6735135,264.197838 46.427027,264.197838 L46.427027,264.197838 L45.3859459,264.197838 L45.3859459,274.054054 L47.1275676,274.054054 Z M59.4356757,274.19027 C60.1427027,274.19027 60.7654054,274.034595 61.3037838,273.723243 C61.8421622,273.411892 62.3221622,273.003243 62.7437838,272.497297 L62.7437838,272.497297 L62.8994595,273.694054 C62.9643243,273.934054 63.12,274.054054 63.3664865,274.054054 L63.3664865,274.054054 L64.3978378,274.054054 L64.3978378,259.722162 L62.6659459,259.722162 L62.6659459,265.180541 C62.3286486,264.817297 61.9443243,264.533514 61.512973,264.329189 C61.0816216,264.124865 60.5643243,264.022703 59.9610811,264.022703 C59.2994595,264.022703 58.7043243,264.154054 58.1756757,264.416757 C57.647027,264.679459 57.2010811,265.041081 56.8378378,265.501622 C56.4745946,265.962162 56.1956757,266.505405 56.0010811,267.131351 C55.8064865,267.757297 55.7091892,268.433514 55.7091892,269.16 C55.7091892,269.977297 55.7967568,270.700541 55.9718919,271.32973 C56.147027,271.958919 56.3967568,272.484324 56.7210811,272.905946 C57.0454054,273.327568 57.4378378,273.647027 57.8983784,273.864324 C58.3589189,274.081622 58.8713514,274.19027 59.4356757,274.19027 Z M60,272.789189 C59.6043243,272.789189 59.2508108,272.721081 58.9394595,272.584865 C58.6281081,272.448649 58.3654054,272.232973 58.1513514,271.937838 C57.9372973,271.642703 57.7751351,271.266486 57.6648649,270.809189 C57.5545946,270.351892 57.4994595,269.802162 57.4994595,269.16 C57.4994595,267.947027 57.7459459,267.012973 58.2389189,266.357838 C58.7318919,265.702703 59.4356757,265.375135 60.3502703,265.375135 C60.8172973,265.375135 61.2389189,265.461081 61.6151351,265.632973 C61.9913514,265.804865 62.3416216,266.108108 62.6659459,266.542703 L62.6659459,266.542703 L62.6659459,271.300541 C62.3091892,271.774054 61.9183784,272.140541 61.4935135,272.4 C61.0686486,272.659459 60.5708108,272.789189 60,272.789189 Z M74.1567568,274.20973 C74.532973,274.20973 74.8751351,274.175676 75.1832432,274.107568 C75.4913514,274.039459 75.7816216,273.942162 76.0540541,273.815676 C76.3264865,273.689189 76.5859459,273.533514 76.8324324,273.348649 C77.0789189,273.163784 77.3318919,272.951351 77.5913514,272.711351 L77.5913514,272.711351 L77.7859459,273.645405 C77.8378378,273.807568 77.9091892,273.916216 78,273.971351 C78.0908108,274.026486 78.2205405,274.054054 78.3891892,274.054054 L78.3891892,274.054054 L79.1578378,274.054054 L79.1578378,267.749189 C79.1578378,267.197838 79.0832432,266.691892 78.9340541,266.231351 C78.7848649,265.770811 78.5643243,265.378378 78.2724324,265.054054 C77.9805405,264.72973 77.6205405,264.476757 77.1924324,264.295135 C76.7643243,264.113514 76.2745946,264.022703 75.7232432,264.022703 C74.9578378,264.022703 74.2605405,264.152432 73.6313514,264.411892 C73.0021622,264.671351 72.4151351,265.063784 71.8702703,265.589189 L71.8702703,265.589189 L72.1816216,266.143784 C72.24,266.234595 72.3113514,266.310811 72.3956757,266.372432 C72.48,266.434054 72.5805405,266.464865 72.6972973,266.464865 C72.8464865,266.464865 72.9972973,266.411351 73.1497297,266.304324 C73.3021622,266.197297 73.4837838,266.077297 73.6945946,265.944324 C73.9054054,265.811351 74.1551351,265.691351 74.4437838,265.584324 C74.7324324,265.477297 75.0908108,265.423784 75.5189189,265.423784 C76.1545946,265.423784 76.6378378,265.62 76.9686486,266.012432 C77.2994595,266.404865 77.4648649,266.983784 77.4648649,267.749189 L77.4648649,267.749189 L77.4648649,268.517838 C76.3427027,268.543784 75.3956757,268.645946 74.6237838,268.824324 C73.8518919,269.002703 73.2259459,269.231351 72.7459459,269.51027 C72.2659459,269.789189 71.9189189,270.108649 71.7048649,270.468649 C71.4908108,270.828649 71.3837838,271.203243 71.3837838,271.592432 C71.3837838,272.04 71.4567568,272.427568 71.6027027,272.755135 C71.7486486,273.082703 71.9464865,273.353514 72.1962162,273.567568 C72.4459459,273.781622 72.7394595,273.942162 73.0767568,274.049189 C73.4140541,274.156216 73.7740541,274.20973 74.1567568,274.20973 Z M74.6724324,272.993514 C74.4454054,272.993514 74.232973,272.965946 74.0351351,272.910811 C73.8372973,272.855676 73.6654054,272.768108 73.5194595,272.648108 C73.3735135,272.528108 73.2583784,272.374054 73.1740541,272.185946 C73.0897297,271.997838 73.0475676,271.774054 73.0475676,271.514595 C73.0475676,271.242162 73.127027,270.995676 73.2859459,270.775135 C73.4448649,270.554595 73.7010811,270.363243 74.0545946,270.201081 C74.4081081,270.038919 74.8654054,269.907568 75.4264865,269.807027 C75.9875676,269.706486 76.667027,269.643243 77.4648649,269.617297 L77.4648649,269.617297 L77.4648649,271.660541 C77.2702703,271.868108 77.0708108,272.052973 76.8664865,272.215135 C76.6621622,272.377297 76.4481081,272.516757 76.2243243,272.633514 C76.0005405,272.75027 75.7621622,272.839459 75.5091892,272.901081 C75.2562162,272.962703 74.9772973,272.993514 74.6724324,272.993514 Z M91.2324324,274.19027 C91.8875676,274.19027 92.4778378,274.062162 93.0032432,273.805946 C93.5286486,273.54973 93.9745946,273.18973 94.3410811,272.725946 C94.7075676,272.262162 94.9881081,271.702703 95.1827027,271.047568 C95.3772973,270.392432 95.4745946,269.665946 95.4745946,268.868108 C95.4745946,268.122162 95.3886486,267.450811 95.2167568,266.854054 C95.0448649,266.257297 94.7967568,265.74973 94.4724324,265.331351 C94.1481081,264.912973 93.7540541,264.593514 93.2902703,264.372973 C92.8264865,264.152432 92.3059459,264.042162 91.7286486,264.042162 C91.0475676,264.042162 90.4459459,264.184865 89.9237838,264.47027 C89.4016216,264.755676 88.932973,265.138378 88.5178378,265.618378 L88.5178378,265.618378 L88.5178378,259.722162 L86.7762162,259.722162 L86.7762162,274.054054 L87.8951351,274.054054 C88.1416216,274.054054 88.2908108,273.930811 88.3427027,273.684324 L88.3427027,273.684324 L88.4302703,272.789189 C88.7610811,273.236757 89.1486486,273.582162 89.592973,273.825405 C90.0372973,274.068649 90.5837838,274.19027 91.2324324,274.19027 Z M90.8140541,272.847568 C90.36,272.847568 89.9432432,272.76 89.5637838,272.584865 C89.1843243,272.40973 88.8356757,272.108108 88.5178378,271.68 L88.5178378,271.68 L88.5178378,266.912432 C88.8745946,266.438919 89.2621622,266.072432 89.6805405,265.812973 C90.0989189,265.553514 90.5902703,265.423784 91.1545946,265.423784 C91.9654054,265.423784 92.5897297,265.707568 93.0275676,266.275135 C93.4654054,266.842703 93.6843243,267.72973 93.6843243,268.936216 C93.6843243,270.233514 93.4378378,271.20973 92.9448649,271.864865 C92.4518919,272.52 91.7416216,272.847568 90.8140541,272.847568 Z M101.828108,274.19027 C102.548108,274.19027 103.196757,274.071892 103.774054,273.835135 C104.351351,273.598378 104.844324,273.259459 105.252973,272.818378 C105.661622,272.377297 105.974595,271.845405 106.191892,271.222703 C106.409189,270.6 106.517838,269.899459 106.517838,269.121081 C106.517838,268.349189 106.409189,267.65027 106.191892,267.024324 C105.974595,266.398378 105.661622,265.864865 105.252973,265.423784 C104.844324,264.982703 104.351351,264.642162 103.774054,264.402162 C103.196757,264.162162 102.548108,264.042162 101.828108,264.042162 C101.101622,264.042162 100.448108,264.162162 99.8675676,264.402162 C99.287027,264.642162 98.7924324,264.982703 98.3837838,265.423784 C97.9751351,265.864865 97.6621622,266.398378 97.4448649,267.024324 C97.2275676,267.65027 97.1189189,268.349189 97.1189189,269.121081 C97.1189189,269.899459 97.2275676,270.6 97.4448649,271.222703 C97.6621622,271.845405 97.9751351,272.377297 98.3837838,272.818378 C98.7924324,273.259459 99.287027,273.598378 99.8675676,273.835135 C100.448108,274.071892 101.101622,274.19027 101.828108,274.19027 Z M101.828108,272.837838 C100.842162,272.837838 100.107568,272.511892 99.6243243,271.86 C99.1410811,271.208108 98.8994595,270.298378 98.8994595,269.130811 C98.8994595,268.547027 98.9594595,268.023243 99.0794595,267.559459 C99.1994595,267.095676 99.3810811,266.704865 99.6243243,266.387027 C99.8675676,266.069189 100.172432,265.825946 100.538919,265.657297 C100.905405,265.488649 101.335135,265.404324 101.828108,265.404324 C102.801081,265.404324 103.527568,265.731892 104.007568,266.387027 C104.487568,267.042162 104.727568,267.956757 104.727568,269.130811 C104.727568,270.298378 104.487568,271.208108 104.007568,271.86 C103.527568,272.511892 102.801081,272.837838 101.828108,272.837838 Z M112.861622,274.19027 C113.581622,274.19027 114.23027,274.071892 114.807568,273.835135 C115.384865,273.598378 115.877838,273.259459 116.286486,272.818378 C116.695135,272.377297 117.008108,271.845405 117.225405,271.222703 C117.442703,270.6 117.551351,269.899459 117.551351,269.121081 C117.551351,268.349189 117.442703,267.65027 117.225405,267.024324 C117.008108,266.398378 116.695135,265.864865 116.286486,265.423784 C115.877838,264.982703 115.384865,264.642162 114.807568,264.402162 C114.23027,264.162162 113.581622,264.042162 112.861622,264.042162 C112.135135,264.042162 111.481622,264.162162 110.901081,264.402162 C110.320541,264.642162 109.825946,264.982703 109.417297,265.423784 C109.008649,265.864865 108.695676,266.398378 108.478378,267.024324 C108.261081,267.65027 108.152432,268.349189 108.152432,269.121081 C108.152432,269.899459 108.261081,270.6 108.478378,271.222703 C108.695676,271.845405 109.008649,272.377297 109.417297,272.818378 C109.825946,273.259459 110.320541,273.598378 110.901081,273.835135 C111.481622,274.071892 112.135135,274.19027 112.861622,274.19027 Z M112.861622,272.837838 C111.875676,272.837838 111.141081,272.511892 110.657838,271.86 C110.174595,271.208108 109.932973,270.298378 109.932973,269.130811 C109.932973,268.547027 109.992973,268.023243 110.112973,267.559459 C110.232973,267.095676 110.414595,266.704865 110.657838,266.387027 C110.901081,266.069189 111.205946,265.825946 111.572432,265.657297 C111.938919,265.488649 112.368649,265.404324 112.861622,265.404324 C113.834595,265.404324 114.561081,265.731892 115.041081,266.387027 C115.521081,267.042162 115.761081,267.956757 115.761081,269.130811 C115.761081,270.298378 115.521081,271.208108 115.041081,271.86 C114.561081,272.511892 113.834595,272.837838 112.861622,272.837838 Z M121.482162,274.054054 L121.482162,269.344865 L121.978378,269.344865 C122.172973,269.344865 122.317297,269.365946 122.411351,269.408108 C122.505405,269.45027 122.601081,269.539459 122.698378,269.675676 L122.698378,269.675676 L125.938378,273.713514 C126.016216,273.843243 126.108649,273.932432 126.215676,273.981081 C126.322703,274.02973 126.450811,274.054054 126.6,274.054054 L126.6,274.054054 L128.147027,274.054054 L124.294054,269.189189 C124.20973,269.059459 124.120541,268.944324 124.026486,268.843784 C123.932432,268.743243 123.827027,268.654054 123.71027,268.576216 C123.911351,268.452973 124.099459,268.281081 124.274595,268.060541 L124.274595,268.060541 L127.903784,264.197838 L126.337297,264.197838 C126.168649,264.197838 126.034054,264.228649 125.933514,264.29027 C125.832973,264.351892 125.737297,264.437838 125.646486,264.548108 L125.646486,264.548108 L122.532973,267.885405 C122.435676,267.995676 122.343243,268.068649 122.255676,268.104324 C122.168108,268.14 122.059459,268.157838 121.92973,268.157838 L121.92973,268.157838 L121.482162,268.157838 L121.482162,259.722162 L119.740541,259.722162 L119.740541,274.054054 L121.482162,274.054054 Z" id="Findabook" fill-opacity="0.25" fill="#000000" fill-rule="nonzero"></path>
            <g id="Group" transform="translate(291.081081, 0.000000)" fill-rule="nonzero">
                <g id="Group-16" transform="translate(32.837838, 52.702703) scale(-1, 1) translate(-32.837838, -52.702703) translate(0.000000, 17.027027)">
                    <g id="book">
                        <path d="M2.52469711,46.3713886 L14.5688636,2.31640261 C14.8469429,0.802078113 16.2898614,-0.20802706 17.807913,0.0489282386 L57.2558248,7.75862069 C62.190393,8.55848149 65.7791458,12.8751276 65.6644921,17.8727866 C65.6454749,18.302189 65.5987796,18.7299176 65.5246971,19.1533085 L57.7562908,63.2082945 L2.52469711,46.3713886 Z" id="Shape" fill="#44D7B6"></path>
                        <path d="M41.5660447,41.2915142 C41.4839817,41.291604 41.4020844,41.2841163 41.3214035,41.2691181 L20.6708909,37.633051 C19.9279124,37.482376 19.4404288,36.7669647 19.572003,36.0203667 C19.7035771,35.2737689 20.4062533,34.7681013 21.1559795,34.8804881 L41.80789,38.5151572 C42.526174,38.6365383 43.0308495,39.28916 42.9676323,40.0148797 C42.904415,40.7405993 42.2944977,41.2961291 41.5660447,41.2915142 L41.5660447,41.2915142 Z" id="Shape" fill="#FFFFFF"></path>
                        <path d="M42.9430251,34.7826316 L27.9681882,31.9573753 C27.2252097,31.8067004 26.7377261,31.091289 26.8693003,30.3446911 C27.0008744,29.5980932 27.7035506,29.0924256 28.4532768,29.2048124 L43.4295116,32.0286707 C44.1477956,32.1500518 44.6524711,32.8026735 44.5892539,33.5283932 C44.5260367,34.2541128 43.9161193,34.8096426 43.1876663,34.8049988 C43.1056033,34.8051175 43.023706,34.7976298 42.9430251,34.7826316 Z" id="Shape-Copy" fill="#FFFFFF"></path>
                        <path d="M65.6616962,17.8657968 C65.6450516,18.2972298 65.59834,18.7269769 65.5219012,19.1519105 L57.749301,63.2013048 L46.971109,59.916123 L53.2199441,24.4920783 L54.7017707,16.1323392 L56.2115564,7.57688723 L57.2600186,7.75862069 C62.1887934,8.56180183 65.772716,12.8732428 65.6616962,17.8657968 L65.6616962,17.8657968 Z" id="Shape" fill="#45C8AB"></path>
                        <path d="M49.4874185,51.8080149 L5.75955266,44.1053122 C5.59794324,44.0774808 5.43425871,44.0633737 5.27027027,44.0633737 C3.82134185,44.0670482 2.61529599,45.1770417 2.49165867,46.6206902 C2.3680212,48.0643385 3.36776365,49.3632408 4.79496738,49.6132339 L48.8443616,57.3718546 C50.082776,57.5961204 51.1560197,58.3624264 51.7702132,59.4609398 C52.3844066,60.5594533 52.475191,61.8750653 52.0177074,63.0475303 C51.2312748,64.9321836 49.2260864,66.0020072 47.22274,65.6057782 L3.34109972,57.8751165 C3.17949031,57.8472851 3.01580578,57.833255 2.85181733,57.833178 C1.40020722,57.8296027 0.18731589,58.9375254 0.0598342032,60.3835314 C-0.0676473439,61.8295373 0.932690214,63.132581 2.36253495,63.3830382 L46.4259087,71.1416589 C49.2012214,71.6281963 52.0516438,70.8960702 54.2489737,69.1323182 C56.4463034,67.3685663 57.777717,64.7440177 57.9030755,61.9291705 C58.0127972,56.9293938 54.4232792,52.6124318 49.4874185,51.8080149 L49.4874185,51.8080149 Z" id="Shape" fill="#38AC92"></path>
                        <path d="M52.0177074,63.0475303 C51.2312748,64.9321836 49.2260864,66.0020072 47.22274,65.6057782 L3.34109972,57.8751165 L4.79496738,49.6132339 L48.8443616,57.3718546 C50.082776,57.5961204 51.1560197,58.3624264 51.7702132,59.4609398 C52.3844066,60.5594533 52.475191,61.8750653 52.0177074,63.0475303 L52.0177074,63.0475303 Z" id="Shape" fill="#C8D6DB"></path>
                    </g>
                </g>
                <g id="search" transform="translate(74.980158, 41.226074) rotate(-18.000000) translate(-74.980158, -41.226074) translate(42.142320, 8.793642)">
                    <path d="M41.6054054,42.5123123 C41.3266103,42.5126369 41.0592025,42.4017394 40.8624625,42.2042042 L38.1285285,39.4714715 C37.7180466,39.0609896 37.7180466,38.3954669 38.1285285,37.984985 C38.5390104,37.5745031 39.2045331,37.5745031 39.615015,37.984985 L42.3489489,40.7207207 C42.6493262,41.02131 42.7391471,41.4732004 42.5765554,41.8658126 C42.4139638,42.2584248 42.0309535,42.5145026 41.606006,42.5147147 L41.6054054,42.5123123 Z" id="Path" fill="#319C84"></path>
                    <path d="M22.8306306,-1.0658141e-13 C35.3600311,-1.0658141e-13 45.5171171,10.157086 45.5171171,22.6864865 C45.5171171,35.215887 35.3600311,45.372973 22.8306306,45.372973 C10.3012301,45.372973 0.144144144,35.215887 0.144144144,22.6864865 C0.144144144,10.157086 10.3012301,-1.0658141e-13 22.8306306,-1.0658141e-13 Z M22.8306306,3.91111111 C12.4612771,3.91111111 4.05525526,12.317133 4.05525526,22.6864865 C4.05525526,33.05584 12.4612771,41.4618619 22.8306306,41.4618619 C33.1999841,41.4618619 41.606006,33.05584 41.606006,22.6864865 C41.606006,12.317133 33.1999841,3.91111111 22.8306306,3.91111111 Z" id="Combined-Shape" fill="#CCDBDB"></path>
                    <circle id="Oval" fill="#C6E4ED" opacity="0.465076265" cx="22.8306306" cy="22.6864865" r="18.7753754"></circle>
                    <path d="M51.8035709,37.2344426 C54.0311146,37.2344426 55.8368956,39.0402236 55.8368956,41.2677674 L55.8368956,62.074835 C55.8368956,64.3023788 54.0311146,66.1081598 51.8035709,66.1081598 C49.5760271,66.1081598 47.7702461,64.3023788 47.7702461,62.074835 L47.7702461,41.2677674 C47.7702461,39.0402236 49.5760271,37.2344426 51.8035709,37.2344426 Z" id="Rectangle" fill="#38AC92" transform="translate(51.803571, 51.671301) rotate(-45.000000) translate(-51.803571, -51.671301) "></path>
                    <path d="M42.7507508,40.6606607 C42.9126789,41.4176806 43.2902284,42.1116625 43.8378378,42.6588589 L58.5525526,57.3735736 C59.7530133,58.5727607 61.5758776,58.891858 63.1123123,58.1717718 C62.9504166,57.4147398 62.5728624,56.7207492 62.0252252,56.1735736 L47.3105105,41.4588589 C46.1099641,40.2598367 44.28721,39.9407587 42.7507508,40.6606607 L42.7507508,40.6606607 Z" id="Path" fill="#46BBA1"></path>
                </g>
            </g>
        </g>
    </g>
</svg>