<?xml version="1.0" encoding="UTF-8"?>
<svg width="1112px" height="600px" viewBox="0 0 1112 600" version="1.1" xmlns="http://www.w3.org/2000/svg" xmlns:xlink="http://www.w3.org/1999/xlink">
    <!-- Generator: Sketch 54.1 (76490) - https://sketchapp.com -->
    <title>not-found-404</title>
    <desc>Created with Sketch.</desc>
    <defs>
        <linearGradient x1="50.0395887%" y1="-0.721008403%" x2="50.0395887%" y2="100.157983%" id="linearGradient-1">
            <stop stop-color="#000000" stop-opacity="0" offset="0%"></stop>
            <stop stop-color="#000000" stop-opacity="0.9789" offset="97.89%"></stop>
            <stop stop-color="#000000" offset="100%"></stop>
        </linearGradient>
    </defs>
    <g id="not-found-404" stroke="none" stroke-width="1" fill="none" fill-rule="evenodd">
        <rect fill="#F9FAFC" x="0" y="0" width="1112" height="600"></rect>
        <g id="Group-10" transform="translate(32.000000, 2.000000)">
            <g id="Group-6" transform="translate(382.000000, 407.000000)" font-family="Lato-Regular, Lato" font-size="20" font-weight="normal">
                <text id="It-looks-like-you’re" fill="#BBBEC1">
                    <tspan x="37.53" y="20">It looks like you’re lost…</tspan>
                </text>
                <text id="Go-Home" fill="#01B6F5" text-decoration="underline">
                    <tspan x="101.1" y="53">Go Home</tspan>
                </text>
            </g>
            <g id="Group-9" opacity="0.4" transform="translate(77.000000, 47.000000)" fill-rule="nonzero">
                <g id="Group">
                    <path d="M3.95437875,7.58135837 C5.1415678,6.73434465 6.77828521,5.96011165 8.64786648,5.36658443 C10.6375826,4.76129322 12.5736561,4.50355533 14.0696746,4.62553838 L14.2322121,2.63215393 C12.4659811,2.48813817 10.2824765,2.77881508 8.05420882,3.45676106 C5.98600245,4.11326865 4.16318171,4.97553599 2.79279106,5.95325701 L3.95437875,7.58135837 Z" id="Path" fill="#C1C7CF"></path>
                    <ellipse id="Oval" fill="#D9DDE1" transform="translate(9.657298, 8.502746) rotate(-22.787794) translate(-9.657298, -8.502746) " cx="9.65729811" cy="8.50274615" rx="6.33693511" ry="6.42198664"></ellipse>
                    <path d="M11.9377358,3.75961538 C11.9377358,4.15192308 11.2962264,4.47884615 10.5264151,4.47884615 C9.7245283,4.47884615 9.11509434,4.15192308 9.11509434,3.75961538 C9.11509434,3.36730769 9.75660377,3.04038462 10.5264151,3.04038462 C11.2962264,3.04038462 11.9377358,3.36730769 11.9377358,3.75961538 Z" id="Path" fill="#C1C7CF"></path>
                    <path d="M11.3924528,12.6192308 C11.3924528,13.2403846 10.6226415,13.7307692 9.66037736,13.7307692 C8.69811321,13.7307692 7.92830189,13.2403846 7.92830189,12.6192308 C7.92830189,11.9980769 8.69811321,11.5076923 9.66037736,11.5076923 C10.6226415,11.5403846 11.3924528,12.0307692 11.3924528,12.6192308 Z" id="Path" fill="#C1C7CF"></path>
                    <path d="M4.72075472,9.18653846 C4.36792453,9.05576923 4.27169811,8.33653846 4.49622642,7.58461538 C4.72075472,6.83269231 5.23396226,6.30961538 5.58679245,6.40769231 C5.93962264,6.53846154 6.03584906,7.25769231 5.81132075,8.00961538 C5.55471698,8.76153846 5.07358491,9.28461538 4.72075472,9.18653846 Z" id="Path" fill="#C1C7CF"></path>
                    <path d="M12.5150943,9.44807692 C11.809434,9.21923077 11.4566038,8.43461538 11.7132075,7.65 C11.9377358,6.89807692 12.7075472,6.44038462 13.4132075,6.66923077 C14.1188679,6.89807692 14.4716981,7.68269231 14.2150943,8.46730769 C13.9584906,9.25192308 13.1886792,9.67692308 12.5150943,9.44807692 Z" id="Path" fill="#C1C7CF"></path>
                    <path d="M8.28113208,8.30384615 C7.89622642,8.17307692 7.70377358,7.71538462 7.83207547,7.29038462 C7.96037736,6.86538462 8.37735849,6.60384615 8.76226415,6.73461538 C9.14716981,6.86538462 9.33962264,7.32307692 9.21132075,7.74807692 C9.08301887,8.17307692 8.66603774,8.43461538 8.28113208,8.30384615 Z" id="Path" fill="#C1C7CF"></path>
                    <path d="M14.1104088,4.65889887 C15.5977365,4.76717959 16.4298337,5.17047145 16.5595601,5.61120846 C16.8822429,6.71395604 14.0583931,8.99175942 10.0177317,10.1892986 C5.97055734,11.4180004 2.40740297,11.0758859 2.088056,9.98454296 C1.95321709,9.49544856 2.55205384,8.56720361 3.92552384,7.57905099 L2.75749503,5.9555644 C0.778089438,7.37966163 -0.260939774,8.99024017 0.164329369,10.5313865 C0.939196235,13.1798564 5.58319065,13.6257471 10.592394,12.1049497 C15.5863398,10.6249066 19.2465812,7.67244426 18.478622,5.0480045 C18.0478895,3.58461388 16.4834259,2.82636657 14.2556289,2.66417805 L14.1104088,4.65889887 Z" id="Path" fill="#C1C7CF"></path>
                </g>
                <g id="Group" transform="translate(905.411765, 219.000000) scale(-1, 1) translate(-905.411765, -219.000000) translate(892.000000, 207.000000)">
                    <path d="M5.58265236,10.7030942 C7.25868396,9.50731009 9.56934382,8.41427527 12.2087527,7.57635449 C15.0177637,6.72182572 17.7510439,6.35796046 19.8630701,6.53017183 L20.0925348,3.71598202 C17.5990322,3.51266565 14.5164375,3.92303305 11.3706477,4.88013326 C8.45082699,5.80696751 5.877433,7.02428611 3.94276385,8.40459814 L5.58265236,10.7030942 Z" id="Path" fill="#C1C7CF"></path>
                    <ellipse id="Oval" fill="#D9DDE1" transform="translate(13.633833, 12.003877) rotate(-22.787794) translate(-13.633833, -12.003877) " cx="13.6338326" cy="12.0038769" rx="8.94626133" ry="9.06633408"></ellipse>
                    <path d="M16.8532741,5.30769231 C16.8532741,5.86153846 15.9476138,6.32307692 14.8608213,6.32307692 C13.7287458,6.32307692 12.8683685,5.86153846 12.8683685,5.30769231 C12.8683685,4.75384615 13.7740289,4.29230769 14.8608213,4.29230769 C15.9476138,4.29230769 16.8532741,4.75384615 16.8532741,5.30769231 Z" id="Path" fill="#C1C7CF"></path>
                    <path d="M16.0834628,17.8153846 C16.0834628,18.6923077 14.9966704,19.3846154 13.6381798,19.3846154 C12.2796892,19.3846154 11.1928968,18.6923077 11.1928968,17.8153846 C11.1928968,16.9384615 12.2796892,16.2461538 13.6381798,16.2461538 C14.9966704,16.2923077 16.0834628,16.9846154 16.0834628,17.8153846 Z" id="Path" fill="#C1C7CF"></path>
                    <path d="M6.66459489,12.9692308 C6.16648169,12.7846154 6.03063263,11.7692308 6.34761376,10.7076923 C6.66459489,9.64615385 7.3891232,8.90769231 7.8872364,9.04615385 C8.38534961,9.23076923 8.52119867,10.2461538 8.20421754,11.3076923 C7.84195339,12.3692308 7.1627081,13.1076923 6.66459489,12.9692308 Z" id="Path" fill="#C1C7CF"></path>
                    <path d="M17.6683685,13.3384615 C16.6721421,13.0153846 16.1740289,11.9076923 16.536293,10.8 C16.8532741,9.73846154 17.9400666,9.09230769 18.936293,9.41538462 C19.9325194,9.73846154 20.4306326,10.8461538 20.0683685,11.9538462 C19.7061043,13.0615385 18.6193119,13.6615385 17.6683685,13.3384615 Z" id="Path" fill="#C1C7CF"></path>
                    <path d="M11.69101,11.7230769 C11.1476138,11.5384615 10.8759156,10.8923077 11.0570477,10.2923077 C11.2381798,9.69230769 11.826859,9.32307692 12.3702553,9.50769231 C12.9136515,9.69230769 13.1853496,10.3384615 13.0042175,10.9384615 C12.8230855,11.5384615 12.2344062,11.9076923 11.69101,11.7230769 Z" id="Path" fill="#C1C7CF"></path>
                    <path d="M19.9205772,6.57726899 C22.0203339,6.7301359 23.1950594,7.29948911 23.3782025,7.92170606 C23.8337547,9.47852618 19.8471432,12.6942486 14.14268,14.3848921 C8.42902212,16.11953 3.39868655,15.6365449 2.94784377,14.0958254 C2.75748295,13.4053391 3.60289955,12.0948757 5.54191601,10.6998367 L3.89293416,8.40785562 C1.09847921,10.4183458 -0.368385564,12.6921038 0.231994403,14.8678397 C1.3259241,18.6068561 7.88215151,19.2363489 14.953968,17.0893408 C22.0042444,14.9998682 27.1716441,10.831686 26.0874664,7.12659459 C25.4793734,5.06063136 23.2707189,3.99016457 20.1255937,3.76119255 L19.9205772,6.57726899 Z" id="Path" fill="#C1C7CF"></path>
                </g>
                <g id="Group" transform="translate(26.500000, 295.000000) scale(-1, 1) translate(-26.500000, -295.000000) translate(9.000000, 284.000000)">
                    <g>
                        <path d="M16.3957441,16.8299177 C6.27169112,14.6190817 -1.3545753,10.6161146 -0.595663033,7.10074225 C0.16511058,3.57674796 8.69873351,3.09468989 18.7938068,5.29919846 C28.8662492,7.48410024 36.5522358,11.5497639 35.7860313,15.031168 C35.021764,18.5528916 26.4897889,19.0342007 16.3957441,16.8299177 Z M33.8316097,14.6066246 C33.973003,13.9675868 32.6562738,12.6305056 30.0221209,11.2368539 C27.0717045,9.67587663 22.913346,8.2393167 18.3684713,7.25344711 C9.47510975,5.31136285 1.74240906,5.7481774 1.3592994,7.52278716 C0.977335135,9.29209126 7.90583132,12.9288043 16.8224378,14.8759647 C25.7157993,16.8180489 33.4485,16.3812344 33.8316097,14.6066246 Z" id="Path" fill="#C1C7CF"></path>
                        <ellipse id="Oval" fill="#D9DDE1" transform="translate(17.600475, 11.046698) rotate(-77.789996) translate(-17.600475, -11.046698) " cx="17.6004755" cy="11.0466982" rx="9.11703449" ry="8.97972108"></ellipse>
                        <path d="M19.0909091,5.11176471 C19.0909091,5.82352941 18.0727273,6.47058824 16.8636364,6.47058824 C15.6545455,6.47058824 14.6363636,5.88823529 14.6363636,5.11176471 C14.6363636,4.4 15.6545455,3.75294118 16.8636364,3.75294118 C18.0727273,3.75294118 19.0909091,4.33529412 19.0909091,5.11176471 Z" id="Path" fill="#C1C7CF"></path>
                        <path d="M23.6090909,13.0058824 C22.7818182,13.0705882 21.9545455,12.1647059 21.8272727,10.9352941 C21.7,9.70588235 22.2727273,8.60588235 23.1,8.54117647 C23.9272727,8.47647059 24.7545455,9.38235294 24.8818182,10.6117647 C25.0090909,11.8411765 24.4363636,12.9411765 23.6090909,13.0058824 Z" id="Path" fill="#C1C7CF"></path>
                        <path d="M16.7363636,18.5058824 C15.5272727,18.6352941 14.4454545,17.7294118 14.3181818,16.5 C14.1909091,15.2705882 15.0818182,14.1705882 16.2909091,14.0411765 C17.5,13.9117647 18.5818182,14.8176471 18.7090909,16.0470588 C18.8363636,17.2764706 17.9454545,18.3764706 16.7363636,18.5058824 Z" id="Path" fill="#C1C7CF"></path>
                        <path d="M11.2,12.6176471 C10.5636364,12.6823529 9.86363636,11.7764706 9.8,10.5470588 C9.67272727,9.31764706 10.1181818,8.28235294 10.7545455,8.21764706 C11.3909091,8.15294118 12.0909091,9.05882353 12.1545455,10.2882353 C12.2818182,11.5176471 11.8363636,12.5529412 11.2,12.6176471 Z" id="Path" fill="#C1C7CF"></path>
                    </g>
                </g>
                <g id="Group" transform="translate(575.000000, 44.000000)">
                    <g>
                        <path d="M10.4336553,10.7099476 C3.99107617,9.30305199 -0.862002462,6.75570927 -0.379058294,4.51865416 C0.105070369,2.27611234 5.53555769,1.96934811 11.9596953,3.3722172 C18.3694313,4.76260924 23.2605137,7.34984974 22.772929,9.56528876 C22.2865771,11.8063855 16.8571384,12.1126732 10.4336553,10.7099476 Z M21.5292062,9.29512475 C21.6191837,8.88846431 20.7812651,8.03759448 19.104986,7.15072522 C17.2274483,6.15737604 14.5812202,5.24320154 11.6890272,4.61582998 C6.02961529,3.37995817 1.10880577,3.65793108 0.865008707,4.78722819 C0.621940541,5.91314899 5.03098357,8.22742092 10.7051877,9.46652296 C16.3645996,10.7023948 21.2854091,10.4244219 21.5292062,9.29512475 Z" id="Path" fill="#C1C7CF"></path>
                        <ellipse id="Oval" fill="#D9DDE1" transform="translate(11.200303, 7.029717) rotate(-77.789996) translate(-11.200303, -7.029717) " cx="11.2003026" cy="7.02971706" rx="5.80174922" ry="5.71436796"></ellipse>
                        <path d="M12.1487603,3.25294118 C12.1487603,3.70588235 11.5008264,4.11764706 10.731405,4.11764706 C9.96198347,4.11764706 9.31404959,3.74705882 9.31404959,3.25294118 C9.31404959,2.8 9.96198347,2.38823529 10.731405,2.38823529 C11.5008264,2.38823529 12.1487603,2.75882353 12.1487603,3.25294118 Z" id="Path" fill="#C1C7CF"></path>
                        <path d="M15.0239669,8.27647059 C14.4975207,8.31764706 13.9710744,7.74117647 13.8900826,6.95882353 C13.8090909,6.17647059 14.1735537,5.47647059 14.7,5.43529412 C15.2264463,5.39411765 15.7528926,5.97058824 15.8338843,6.75294118 C15.914876,7.53529412 15.5504132,8.23529412 15.0239669,8.27647059 Z" id="Path" fill="#C1C7CF"></path>
                        <path d="M10.6504132,11.7764706 C9.88099174,11.8588235 9.19256198,11.2823529 9.11157025,10.5 C9.03057851,9.71764706 9.59752066,9.01764706 10.3669421,8.93529412 C11.1363636,8.85294118 11.8247934,9.42941176 11.9057851,10.2117647 C11.9867769,10.9941176 11.4198347,11.6941176 10.6504132,11.7764706 Z" id="Path" fill="#C1C7CF"></path>
                        <path d="M7.12727273,8.02941176 C6.72231405,8.07058824 6.2768595,7.49411765 6.23636364,6.71176471 C6.1553719,5.92941176 6.43884298,5.27058824 6.84380165,5.22941176 C7.24876033,5.18823529 7.69421488,5.76470588 7.73471074,6.54705882 C7.81570248,7.32941176 7.5322314,7.98823529 7.12727273,8.02941176 Z" id="Path" fill="#C1C7CF"></path>
                    </g>
                </g>
                <g id="Group-4" transform="translate(164.000000, 85.000000)">
                    <ellipse id="Oval" cx="11.5" cy="11.4766497" rx="10.1641414" ry="10.215736"></ellipse>
                    <ellipse id="Oval" fill="#D9DDE1" cx="11.5" cy="11.4766497" rx="7.7479798" ry="7.78730964"></ellipse>
                    <ellipse id="Oval" fill="#D9DDE1" cx="11.5" cy="11.4766497" rx="7.7479798" ry="7.78730964"></ellipse>
                    <path d="M19.2479798,11.4766497 C19.2479798,15.7730964 15.7747475,19.2639594 11.5,19.2639594 C8.88636364,19.2639594 6.57474747,17.9563452 5.16919192,15.9715736 C6.43535354,16.8705584 7.96868687,17.3959391 9.62979798,17.3959391 C13.9045455,17.3959391 17.3777778,13.9050761 17.3777778,9.60862944 C17.3777778,7.93908629 16.8550505,6.39796954 15.9606061,5.12538071 C17.9469697,6.52639594 19.2479798,8.84974619 19.2479798,11.4766497 Z" id="Path" fill="#C1C7CF"></path>
                    <path d="M10.0712121,3.37411168 C10.0828283,3.35076142 10.0828283,3.33908629 10.0944444,3.31573604 C10.1525253,3.17563452 10.3267677,3.11725888 10.4777778,3.10558376 C11.070202,3.05888325 11.6510101,3.01218274 12.2318182,3.02385787 C12.3828283,3.02385787 12.5454545,3.05888325 12.6383838,3.17563452 C12.719697,3.26903553 12.7313131,3.40913706 12.7080808,3.52588832 C12.6732323,3.6893401 12.5919192,3.87614213 12.4989899,4.01624365 C12.4641414,4.06294416 12.4176768,4.1213198 12.359596,4.14467005 C12.3131313,4.1680203 12.2550505,4.1680203 12.1969697,4.1680203 C11.8368687,4.19137056 11.4767677,4.19137056 11.1050505,4.17969543 C10.7681818,4.15634518 9.92020202,3.88781726 10.0712121,3.37411168 Z" id="Path" fill="#D9DDE1"></path>
                    <path d="M3.69393939,9.51522843 C3.64747475,9.51522843 3.58939394,9.51522843 3.54292929,9.53857868 C3.48484848,9.57360406 3.45,9.6319797 3.42676768,9.70203046 C3.18282828,10.2390863 3.04343434,10.857868 3.20606061,11.4299492 C3.25252525,11.5817259 3.31060606,11.7218274 3.42676768,11.8269036 C3.54292929,11.9319797 3.71717172,11.9786802 3.84494949,11.9086294 C4.04242424,11.8152284 4.07727273,11.5583756 4.10050505,11.3365482 C4.1469697,10.8928934 4.21666667,10.4609137 4.32121212,10.028934 C4.4489899,9.48020305 4.11212121,9.51522843 3.69393939,9.51522843 Z" id="Path" fill="#D9DDE1"></path>
                    <path d="M19.2363636,8.96649746 C19.2712121,8.94314721 19.3176768,8.93147208 19.3525253,8.93147208 C19.3989899,8.94314721 19.4454545,8.97817259 19.4686869,9.0248731 C19.6661616,9.30507614 19.7010101,9.6786802 19.7242424,10.0172589 C19.7474747,10.2624365 19.7590909,10.4959391 19.7823232,10.7411168 C19.7939394,10.8812183 19.8055556,11.0329949 19.7590909,11.1730964 C19.7126263,11.313198 19.5848485,11.4299492 19.4454545,11.4299492 C19.2479798,11.4182741 19.1318182,11.2081218 19.0621212,11.0213198 C18.9111111,10.6010152 18.8181818,10.1690355 18.760101,9.72538071 C18.690404,9.30507614 18.8646465,9.16497462 19.2363636,8.96649746 Z" id="Path" fill="#C1C7CF"></path>
                    <path d="M16.2626263,12.6441624 C16.0535354,12.6675127 15.8444444,12.7258883 15.7050505,12.8659898 C15.6005051,12.971066 15.5308081,13.0994924 15.4727273,13.2395939 C15.3914141,13.4497462 15.3333333,13.6715736 15.3449495,13.9050761 C15.3681818,14.3837563 15.739899,14.8274112 16.2045455,14.9324873 C16.6691919,15.0375635 17.1919192,14.8040609 17.4242424,14.3837563 C17.8888889,13.4964467 17.25,12.5274112 16.2626263,12.6441624 Z" id="Path" fill="#C1C7CF"></path>
                    <path d="M8.14292929,13.9751269 C7.96868687,13.9984772 7.79444444,14.0451777 7.66666667,14.1736041 C7.57373737,14.2553299 7.51565657,14.3720812 7.46919192,14.5005076 C7.39949495,14.6756345 7.3530303,14.8741117 7.3530303,15.0609137 C7.37626263,15.4695431 7.68989899,15.8548223 8.08484848,15.9365482 C8.47979798,16.0299492 8.93282828,15.8314721 9.13030303,15.4695431 C9.53686869,14.7106599 8.99090909,13.8700508 8.14292929,13.9751269 Z" id="Path" fill="#C1C7CF"></path>
                    <path d="M5.06464646,10.3208122 C4.96010101,10.3324873 4.84393939,10.3675127 4.76262626,10.4375635 C4.70454545,10.4959391 4.66969697,10.5659898 4.63484848,10.6360406 C4.58838384,10.7527919 4.55353535,10.8695431 4.56515152,10.9862944 C4.57676768,11.2431472 4.77424242,11.4766497 5.01818182,11.5350254 C5.26212121,11.593401 5.54090909,11.4649746 5.66868687,11.2431472 C5.93585859,10.7761421 5.5989899,10.2624365 5.06464646,10.3208122 Z" id="Path" fill="#C1C7CF"></path>
                    <path d="M13.0681818,5.84923858 C12.9868687,5.86091371 12.8939394,5.88426396 12.8358586,5.94263959 C12.7893939,5.9893401 12.7661616,6.04771574 12.7429293,6.10609137 C12.7080808,6.19949239 12.6848485,6.2928934 12.6848485,6.38629442 C12.6964646,6.58477157 12.8474747,6.7715736 13.0449495,6.81827411 C13.2424242,6.86497462 13.4631313,6.75989848 13.5560606,6.58477157 C13.7535354,6.21116751 13.4863636,5.80253807 13.0681818,5.84923858 Z" id="Path" fill="#C1C7CF"></path>
                    <path d="M13.5444444,16.8005076 C13.4747475,16.8121827 13.3934343,16.835533 13.3469697,16.8822335 C13.3121212,16.9172589 13.2888889,16.9639594 13.2656566,17.022335 C13.2308081,17.0923858 13.2191919,17.1741117 13.2191919,17.2558376 C13.2308081,17.4309645 13.3585859,17.5827411 13.5212121,17.6294416 C13.6838384,17.664467 13.8813131,17.5827411 13.9626263,17.4309645 C14.1368687,17.1040609 13.9045455,16.7538071 13.5444444,16.8005076 Z" id="Path" fill="#C1C7CF"></path>
                    <path d="M16.6575758,6.79492386 C16.5530303,6.80659898 16.4368687,6.84162437 16.3555556,6.91167513 C16.2974747,6.97005076 16.2626263,7.04010152 16.2277778,7.11015228 C16.1813131,7.22690355 16.1464646,7.34365482 16.1580808,7.46040609 C16.169697,7.71725888 16.3671717,7.95076142 16.6111111,8.00913706 C16.8550505,8.06751269 17.1338384,7.93908629 17.2616162,7.71725888 C17.5287879,7.25025381 17.1919192,6.73654822 16.6575758,6.79492386 Z" id="Path" fill="#C1C7CF"></path>
                    <path d="M6.87676768,6.26954315 C6.70252525,6.45634518 6.55151515,6.67817259 6.50505051,6.91167513 C6.47020202,7.0751269 6.49343434,7.22690355 6.52828283,7.36700508 C6.58636364,7.58883249 6.67929293,7.78730964 6.83030303,7.93908629 C7.15555556,8.25431472 7.78282828,8.24263959 8.27070707,7.91573604 C8.75858586,7.58883249 9.09545455,6.98172589 9.03737374,6.49137056 C8.93282828,5.46395939 7.72474747,5.33553299 6.87676768,6.26954315 Z" id="Path" fill="#C1C7CF"></path>
                    <g id="Group" opacity="0.5" fill="#D9DDE1">
                        <path d="M11.5,22.9299492 C5.21565657,22.9299492 0.104545455,17.7928934 0.104545455,11.4766497 C0.104545455,5.16040609 5.21565657,0.0233502538 11.5,0.0233502538 C17.7843434,0.0233502538 22.8954545,5.16040609 22.8954545,11.4766497 C22.8954545,17.7928934 17.7843434,22.9299492 11.5,22.9299492 Z M11.5,0.15177665 C5.28535354,0.15177665 0.220707071,5.23045685 0.220707071,11.4883249 C0.220707071,17.7461929 5.27373737,22.8248731 11.5,22.8248731 C17.7262626,22.8248731 22.7792929,17.7461929 22.7792929,11.4883249 C22.7792929,5.23045685 17.7146465,0.15177665 11.5,0.15177665 Z" id="Shape"></path>
                    </g>
                </g>
                <g id="Group-4" transform="translate(852.000000, 18.000000)">
                    <ellipse id="Oval" cx="11.5" cy="11.4766497" rx="10.1641414" ry="10.215736"></ellipse>
                    <ellipse id="Oval" fill="#D9DDE1" cx="11.5" cy="11.4766497" rx="7.7479798" ry="7.78730964"></ellipse>
                    <ellipse id="Oval" fill="#D9DDE1" cx="11.5" cy="11.4766497" rx="7.7479798" ry="7.78730964"></ellipse>
                    <path d="M19.2479798,11.4766497 C19.2479798,15.7730964 15.7747475,19.2639594 11.5,19.2639594 C8.88636364,19.2639594 6.57474747,17.9563452 5.16919192,15.9715736 C6.43535354,16.8705584 7.96868687,17.3959391 9.62979798,17.3959391 C13.9045455,17.3959391 17.3777778,13.9050761 17.3777778,9.60862944 C17.3777778,7.93908629 16.8550505,6.39796954 15.9606061,5.12538071 C17.9469697,6.52639594 19.2479798,8.84974619 19.2479798,11.4766497 Z" id="Path" fill="#C1C7CF"></path>
                    <path d="M10.0712121,3.37411168 C10.0828283,3.35076142 10.0828283,3.33908629 10.0944444,3.31573604 C10.1525253,3.17563452 10.3267677,3.11725888 10.4777778,3.10558376 C11.070202,3.05888325 11.6510101,3.01218274 12.2318182,3.02385787 C12.3828283,3.02385787 12.5454545,3.05888325 12.6383838,3.17563452 C12.719697,3.26903553 12.7313131,3.40913706 12.7080808,3.52588832 C12.6732323,3.6893401 12.5919192,3.87614213 12.4989899,4.01624365 C12.4641414,4.06294416 12.4176768,4.1213198 12.359596,4.14467005 C12.3131313,4.1680203 12.2550505,4.1680203 12.1969697,4.1680203 C11.8368687,4.19137056 11.4767677,4.19137056 11.1050505,4.17969543 C10.7681818,4.15634518 9.92020202,3.88781726 10.0712121,3.37411168 Z" id="Path" fill="#D9DDE1"></path>
                    <path d="M3.69393939,9.51522843 C3.64747475,9.51522843 3.58939394,9.51522843 3.54292929,9.53857868 C3.48484848,9.57360406 3.45,9.6319797 3.42676768,9.70203046 C3.18282828,10.2390863 3.04343434,10.857868 3.20606061,11.4299492 C3.25252525,11.5817259 3.31060606,11.7218274 3.42676768,11.8269036 C3.54292929,11.9319797 3.71717172,11.9786802 3.84494949,11.9086294 C4.04242424,11.8152284 4.07727273,11.5583756 4.10050505,11.3365482 C4.1469697,10.8928934 4.21666667,10.4609137 4.32121212,10.028934 C4.4489899,9.48020305 4.11212121,9.51522843 3.69393939,9.51522843 Z" id="Path" fill="#D9DDE1"></path>
                    <path d="M19.2363636,8.96649746 C19.2712121,8.94314721 19.3176768,8.93147208 19.3525253,8.93147208 C19.3989899,8.94314721 19.4454545,8.97817259 19.4686869,9.0248731 C19.6661616,9.30507614 19.7010101,9.6786802 19.7242424,10.0172589 C19.7474747,10.2624365 19.7590909,10.4959391 19.7823232,10.7411168 C19.7939394,10.8812183 19.8055556,11.0329949 19.7590909,11.1730964 C19.7126263,11.313198 19.5848485,11.4299492 19.4454545,11.4299492 C19.2479798,11.4182741 19.1318182,11.2081218 19.0621212,11.0213198 C18.9111111,10.6010152 18.8181818,10.1690355 18.760101,9.72538071 C18.690404,9.30507614 18.8646465,9.16497462 19.2363636,8.96649746 Z" id="Path" fill="#C1C7CF"></path>
                    <path d="M16.2626263,12.6441624 C16.0535354,12.6675127 15.8444444,12.7258883 15.7050505,12.8659898 C15.6005051,12.971066 15.5308081,13.0994924 15.4727273,13.2395939 C15.3914141,13.4497462 15.3333333,13.6715736 15.3449495,13.9050761 C15.3681818,14.3837563 15.739899,14.8274112 16.2045455,14.9324873 C16.6691919,15.0375635 17.1919192,14.8040609 17.4242424,14.3837563 C17.8888889,13.4964467 17.25,12.5274112 16.2626263,12.6441624 Z" id="Path" fill="#C1C7CF"></path>
                    <path d="M8.14292929,13.9751269 C7.96868687,13.9984772 7.79444444,14.0451777 7.66666667,14.1736041 C7.57373737,14.2553299 7.51565657,14.3720812 7.46919192,14.5005076 C7.39949495,14.6756345 7.3530303,14.8741117 7.3530303,15.0609137 C7.37626263,15.4695431 7.68989899,15.8548223 8.08484848,15.9365482 C8.47979798,16.0299492 8.93282828,15.8314721 9.13030303,15.4695431 C9.53686869,14.7106599 8.99090909,13.8700508 8.14292929,13.9751269 Z" id="Path" fill="#C1C7CF"></path>
                    <path d="M5.06464646,10.3208122 C4.96010101,10.3324873 4.84393939,10.3675127 4.76262626,10.4375635 C4.70454545,10.4959391 4.66969697,10.5659898 4.63484848,10.6360406 C4.58838384,10.7527919 4.55353535,10.8695431 4.56515152,10.9862944 C4.57676768,11.2431472 4.77424242,11.4766497 5.01818182,11.5350254 C5.26212121,11.593401 5.54090909,11.4649746 5.66868687,11.2431472 C5.93585859,10.7761421 5.5989899,10.2624365 5.06464646,10.3208122 Z" id="Path" fill="#C1C7CF"></path>
                    <path d="M13.0681818,5.84923858 C12.9868687,5.86091371 12.8939394,5.88426396 12.8358586,5.94263959 C12.7893939,5.9893401 12.7661616,6.04771574 12.7429293,6.10609137 C12.7080808,6.19949239 12.6848485,6.2928934 12.6848485,6.38629442 C12.6964646,6.58477157 12.8474747,6.7715736 13.0449495,6.81827411 C13.2424242,6.86497462 13.4631313,6.75989848 13.5560606,6.58477157 C13.7535354,6.21116751 13.4863636,5.80253807 13.0681818,5.84923858 Z" id="Path" fill="#C1C7CF"></path>
                    <path d="M13.5444444,16.8005076 C13.4747475,16.8121827 13.3934343,16.835533 13.3469697,16.8822335 C13.3121212,16.9172589 13.2888889,16.9639594 13.2656566,17.022335 C13.2308081,17.0923858 13.2191919,17.1741117 13.2191919,17.2558376 C13.2308081,17.4309645 13.3585859,17.5827411 13.5212121,17.6294416 C13.6838384,17.664467 13.8813131,17.5827411 13.9626263,17.4309645 C14.1368687,17.1040609 13.9045455,16.7538071 13.5444444,16.8005076 Z" id="Path" fill="#C1C7CF"></path>
                    <path d="M16.6575758,6.79492386 C16.5530303,6.80659898 16.4368687,6.84162437 16.3555556,6.91167513 C16.2974747,6.97005076 16.2626263,7.04010152 16.2277778,7.11015228 C16.1813131,7.22690355 16.1464646,7.34365482 16.1580808,7.46040609 C16.169697,7.71725888 16.3671717,7.95076142 16.6111111,8.00913706 C16.8550505,8.06751269 17.1338384,7.93908629 17.2616162,7.71725888 C17.5287879,7.25025381 17.1919192,6.73654822 16.6575758,6.79492386 Z" id="Path" fill="#C1C7CF"></path>
                    <path d="M6.87676768,6.26954315 C6.70252525,6.45634518 6.55151515,6.67817259 6.50505051,6.91167513 C6.47020202,7.0751269 6.49343434,7.22690355 6.52828283,7.36700508 C6.58636364,7.58883249 6.67929293,7.78730964 6.83030303,7.93908629 C7.15555556,8.25431472 7.78282828,8.24263959 8.27070707,7.91573604 C8.75858586,7.58883249 9.09545455,6.98172589 9.03737374,6.49137056 C8.93282828,5.46395939 7.72474747,5.33553299 6.87676768,6.26954315 Z" id="Path" fill="#C1C7CF"></path>
                    <g id="Group" opacity="0.5" fill="#D9DDE1">
                        <path d="M11.5,22.9299492 C5.21565657,22.9299492 0.104545455,17.7928934 0.104545455,11.4766497 C0.104545455,5.16040609 5.21565657,0.0233502538 11.5,0.0233502538 C17.7843434,0.0233502538 22.8954545,5.16040609 22.8954545,11.4766497 C22.8954545,17.7928934 17.7843434,22.9299492 11.5,22.9299492 Z M11.5,0.15177665 C5.28535354,0.15177665 0.220707071,5.23045685 0.220707071,11.4883249 C0.220707071,17.7461929 5.27373737,22.8248731 11.5,22.8248731 C17.7262626,22.8248731 22.7792929,17.7461929 22.7792929,11.4883249 C22.7792929,5.23045685 17.7146465,0.15177665 11.5,0.15177665 Z" id="Shape"></path>
                    </g>
                </g>
                <g id="Group-8" transform="translate(680.131818, 248.029442)">
                    <ellipse id="Oval" cx="14.3681818" cy="14.4411168" rx="12.8156566" ry="12.8807107"></ellipse>
                    <ellipse id="Oval" fill="#FFD371" cx="14.3681818" cy="14.4411168" rx="9.76919192" ry="9.81878173"></ellipse>
                    <ellipse id="Oval" fill="#D9DDE1" cx="14.3681818" cy="14.4411168" rx="9.76919192" ry="9.81878173"></ellipse>
                    <path d="M24.1373737,14.4411168 C24.1373737,19.8583756 19.7580808,24.2598985 14.3681818,24.2598985 C11.0727273,24.2598985 8.15808081,22.6111675 6.38585859,20.1086294 C7.98232323,21.242132 9.91565657,21.9045685 12.010101,21.9045685 C17.4,21.9045685 21.7792929,17.5030457 21.7792929,12.0857868 C21.7792929,9.98071066 21.120202,8.03756345 19.9924242,6.43299492 C22.4969697,8.19949239 24.1373737,11.128934 24.1373737,14.4411168 Z" id="Path" fill="#C1C7CF"></path>
                    <path d="M12.5666667,4.2248731 C12.5813131,4.19543147 12.5813131,4.18071066 12.5959596,4.15126904 C12.6691919,3.97461929 12.8888889,3.90101523 13.0792929,3.88629442 C13.8262626,3.82741117 14.5585859,3.76852792 15.2909091,3.78324873 C15.4813131,3.78324873 15.6863636,3.82741117 15.8035354,3.97461929 C15.9060606,4.09238579 15.9207071,4.26903553 15.8914141,4.41624365 C15.8474747,4.62233503 15.7449495,4.85786802 15.6277778,5.03451777 C15.5838384,5.09340102 15.5252525,5.16700508 15.4520202,5.1964467 C15.3934343,5.22588832 15.320202,5.22588832 15.2469697,5.22588832 C14.7929293,5.25532995 14.3388889,5.25532995 13.870202,5.24060914 C13.4454545,5.21116751 12.3762626,4.87258883 12.5666667,4.2248731 Z" id="Path" fill="#D9DDE1"></path>
                    <path d="M4.52575758,11.9680203 C4.46717172,11.9680203 4.39393939,11.9680203 4.33535354,11.9974619 C4.26212121,12.0416244 4.21818182,12.1152284 4.18888889,12.2035533 C3.88131313,12.8807107 3.70555556,13.6609137 3.91060606,14.3822335 C3.96919192,14.5736041 4.04242424,14.7502538 4.18888889,14.8827411 C4.33535354,15.0152284 4.55505051,15.0741117 4.71616162,14.9857868 C4.96515152,14.8680203 5.00909091,14.5441624 5.03838384,14.264467 C5.0969697,13.7050761 5.18484848,13.1604061 5.31666667,12.615736 C5.47777778,11.9238579 5.0530303,11.9680203 4.52575758,11.9680203 Z" id="Path" fill="#D9DDE1"></path>
                    <path d="M24.1227273,11.2761421 C24.1666667,11.2467005 24.2252525,11.2319797 24.2691919,11.2319797 C24.3277778,11.2467005 24.3863636,11.2908629 24.4156566,11.3497462 C24.6646465,11.7030457 24.7085859,12.1741117 24.7378788,12.6010152 C24.7671717,12.9101523 24.7818182,13.2045685 24.8111111,13.5137056 C24.8257576,13.6903553 24.840404,13.8817259 24.7818182,14.0583756 C24.7232323,14.2350254 24.5621212,14.3822335 24.3863636,14.3822335 C24.1373737,14.3675127 23.9909091,14.1025381 23.9030303,13.8670051 C23.7126263,13.3370558 23.5954545,12.7923858 23.5222222,12.2329949 C23.4343434,11.7030457 23.6540404,11.5263959 24.1227273,11.2761421 Z" id="Path" fill="#C1C7CF"></path>
                    <path d="M14.5292929,8.64111675 C11.5414141,8.19949239 9.50555556,11.3055838 9.43232323,13.9553299 C9.4030303,14.8238579 9.57878788,15.7807107 10.2085859,16.3695431 C10.8090909,16.928934 11.7171717,17.0467005 12.5227273,16.8553299 C14.1338384,16.4873096 15.5984848,15.3832487 16.3015152,13.8375635 C16.9020202,12.5126904 17.0191919,10.5401015 15.9646465,9.39187817 C15.5838384,8.96497462 15.0712121,8.71472081 14.5292929,8.64111675 Z" id="Path" fill="#DEE1E5"></path>
                    <path d="M20.3732323,15.913198 C20.109596,15.9426396 19.8459596,16.0162437 19.670202,16.1928934 C19.5383838,16.3253807 19.4505051,16.4873096 19.3772727,16.6639594 C19.2747475,16.928934 19.2015152,17.2086294 19.2161616,17.5030457 C19.2454545,18.106599 19.7141414,18.6659898 20.3,18.7984772 C20.8858586,18.9309645 21.5449495,18.6365482 21.8378788,18.106599 C22.4237374,16.9878173 21.6181818,15.7659898 20.3732323,15.913198 Z" id="Path" fill="#C1C7CF"></path>
                    <path d="M10.1353535,17.5913706 C9.91565657,17.6208122 9.6959596,17.6796954 9.53484848,17.8416244 C9.41767677,17.9446701 9.34444444,18.0918782 9.28585859,18.2538071 C9.1979798,18.4746193 9.13939394,18.7248731 9.13939394,18.9604061 C9.16868687,19.4756345 9.56414141,19.9614213 10.0621212,20.064467 C10.560101,20.1822335 11.1313131,19.9319797 11.380303,19.4756345 C11.8929293,18.5187817 11.2045455,17.4588832 10.1353535,17.5913706 Z" id="Path" fill="#C1C7CF"></path>
                    <path d="M6.2540404,12.9837563 C6.12222222,12.9984772 5.97575758,13.0426396 5.87323232,13.1309645 C5.8,13.2045685 5.75606061,13.2928934 5.71212121,13.3812183 C5.65353535,13.5284264 5.60959596,13.6756345 5.62424242,13.8228426 C5.63888889,14.1467005 5.88787879,14.4411168 6.19545455,14.5147208 C6.5030303,14.5883249 6.85454545,14.4263959 7.01565657,14.1467005 C7.35252525,13.557868 6.92777778,12.9101523 6.2540404,12.9837563 Z" id="Path" fill="#C1C7CF"></path>
                    <path d="M16.3454545,7.34568528 C16.2429293,7.36040609 16.1257576,7.38984772 16.0525253,7.46345178 C15.9939394,7.52233503 15.9646465,7.59593909 15.9353535,7.66954315 C15.8914141,7.78730964 15.8621212,7.90507614 15.8621212,8.02284264 C15.8767677,8.27309645 16.0671717,8.50862944 16.3161616,8.56751269 C16.5651515,8.62639594 16.8434343,8.49390863 16.9606061,8.27309645 C17.209596,7.80203046 16.8727273,7.28680203 16.3454545,7.34568528 Z" id="Path" fill="#C1C7CF"></path>
                    <path d="M16.9459596,21.1538071 C16.8580808,21.1685279 16.7555556,21.1979695 16.6969697,21.2568528 C16.6530303,21.3010152 16.6237374,21.3598985 16.5944444,21.4335025 C16.5505051,21.5218274 16.5358586,21.6248731 16.5358586,21.7279188 C16.5505051,21.948731 16.7116162,22.1401015 16.9166667,22.1989848 C17.1217172,22.2431472 17.3707071,22.1401015 17.4732323,21.948731 C17.6929293,21.5365482 17.4,21.0949239 16.9459596,21.1538071 Z" id="Path" fill="#C1C7CF"></path>
                    <path d="M20.8712121,8.53807107 C20.7393939,8.55279188 20.5929293,8.59695431 20.490404,8.68527919 C20.4171717,8.75888325 20.3732323,8.84720812 20.3292929,8.93553299 C20.2707071,9.08274112 20.2267677,9.22994924 20.2414141,9.37715736 C20.2560606,9.70101523 20.5050505,9.99543147 20.8126263,10.0690355 C21.120202,10.1426396 21.4717172,9.98071066 21.6328283,9.70101523 C21.969697,9.11218274 21.5449495,8.46446701 20.8712121,8.53807107 Z" id="Path" fill="#C1C7CF"></path>
                    <path d="M8.53888889,7.87563452 C8.31919192,8.11116751 8.12878788,8.39086294 8.07020202,8.68527919 C8.02626263,8.89137056 8.05555556,9.08274112 8.09949495,9.25939086 C8.17272727,9.53908629 8.28989899,9.7893401 8.48030303,9.98071066 C8.89040404,10.3781726 9.68131313,10.3634518 10.2964646,9.95126904 C10.9116162,9.53908629 11.3363636,8.77360406 11.2631313,8.15532995 C11.1313131,6.85989848 9.60808081,6.69796954 8.53888889,7.87563452 Z" id="Path" fill="#CED2D8"></path>
                    <path d="M14.3681818,28.8822335 C6.44444444,28.8822335 -9.9475983e-14,22.4050761 -9.9475983e-14,14.4411168 C-9.9475983e-14,6.47715736 6.44444444,-1.95399252e-14 14.3681818,-1.95399252e-14 C22.2919192,-1.95399252e-14 28.7363636,6.47715736 28.7363636,14.4411168 C28.7363636,22.4050761 22.2919192,28.8822335 14.3681818,28.8822335 Z M14.3681818,0.161928934 C6.53232323,0.161928934 0.146464646,6.56548223 0.146464646,14.4558376 C0.146464646,22.3461929 6.51767677,28.7497462 14.3681818,28.7497462 C22.2186869,28.7497462 28.589899,22.3461929 28.589899,14.4558376 C28.589899,6.56548223 22.2040404,0.161928934 14.3681818,0.161928934 Z" id="Shape" fill="#C1C7CF"></path>
                </g>
            </g>
            <g id="Group-7" opacity="0.4" transform="translate(313.794425, 155.320884)" fill-rule="nonzero">
                <path d="M358.2952,213.836986 C358.2952,214.481914 358.864966,215.055184 359.678918,215.055184 C360.411474,215.055184 361.062635,214.553573 361.062635,213.836986 C361.062635,213.192057 360.492869,212.618788 359.678918,212.618788 C358.864966,212.618788 358.2952,213.192057 358.2952,213.836986 Z" id="Path" fill="#D9DDE1" transform="translate(359.678918, 213.836986) scale(1, -1) translate(-359.678918, -213.836986) "></path>
                <ellipse id="Oval" fill="#FFFFFF" opacity="0.2" transform="translate(307.260439, 152.120263) scale(1, -1) translate(-307.260439, -152.120263) " cx="307.260439" cy="152.120263" rx="1.38371759" ry="1.21819832"></ellipse>
                <path d="M343.644072,169.461674 C343.644072,170.106603 344.213839,170.679872 345.02779,170.679872 C345.760346,170.679872 346.411508,170.178261 346.411508,169.461674 C346.411508,168.816746 345.841742,168.243476 345.02779,168.243476 C344.213839,168.243476 343.644072,168.745087 343.644072,169.461674 Z" id="Path" fill="#D9DDE1" transform="translate(345.027790, 169.461674) scale(1, -1) translate(-345.027790, -169.461674) "></path>
                <ellipse id="Oval" fill="#D9DDE1" transform="translate(366.109135, 126.394781) scale(1, -1) translate(-366.109135, -126.394781) " cx="366.109135" cy="126.394781" rx="1.38371759" ry="1.21819832"></ellipse>
                <path d="M367.492852,191.747537 C367.492852,192.392466 368.062618,192.965736 368.87657,192.965736 C369.609126,192.965736 370.260287,192.464125 370.260287,191.747537 C370.260287,191.102609 369.690521,190.529339 368.87657,190.529339 C368.062618,190.600998 367.492852,191.102609 367.492852,191.747537 Z" id="Path" fill="#FFFFFF" opacity="0.5" transform="translate(368.876570, 191.747537) scale(1, -1) translate(-368.876570, -191.747537) "></path>
                <path d="M327.853413,170.698434 C327.853413,171.343362 328.423179,171.916632 329.23713,171.916632 C329.969687,171.916632 330.620848,171.415021 330.620848,170.698434 C330.620848,170.053505 330.051082,169.480235 329.23713,169.480235 C328.423179,169.480235 327.853413,170.053505 327.853413,170.698434 Z" id="Path" fill="#FFFFFF" transform="translate(329.237130, 170.698434) scale(1, -1) translate(-329.237130, -170.698434) "></path>
                <path d="M136.167829,222.794327 C136.167829,223.439255 136.737595,224.012525 137.551546,224.012525 C138.365498,224.012525 138.935264,223.510914 138.935264,222.794327 C138.935264,222.149398 138.365498,221.576128 137.551546,221.576128 C136.737595,221.576128 136.167829,222.149398 136.167829,222.794327 Z" id="Path" fill="#FFFFFF" transform="translate(137.551546, 222.794327) scale(1, -1) translate(-137.551546, -222.794327) "></path>
                <path d="M174.504946,213.836986 C174.504946,214.481914 175.074712,215.055184 175.888663,215.055184 C176.62122,215.055184 177.272381,214.553573 177.272381,213.836986 C177.272381,213.192057 176.702615,212.618788 175.888663,212.618788 C175.074712,212.618788 174.504946,213.192057 174.504946,213.836986 Z" id="Path" fill="#D9DDE1" transform="translate(175.888663, 213.836986) scale(1, -1) translate(-175.888663, -213.836986) "></path>
                <ellipse id="Oval" fill="#D9DDE1" transform="translate(48.726194, 65.066122) scale(1, -1) translate(-48.726194, -65.066122) " cx="48.7261939" cy="65.0661219" rx="1.38371759" ry="1.21819832"></ellipse>
                <ellipse id="Oval" fill="#FFFFFF" opacity="0.5" transform="translate(154.784078, 20.924348) scale(1, -1) translate(-154.784078, -20.924348) " cx="154.784078" cy="20.9243476" rx="1.38371759" ry="1.21819832"></ellipse>
                <ellipse id="Oval" fill="#FFFFFF" transform="translate(275.411693, 24.435625) scale(1, -1) translate(-275.411693, -24.435625) " cx="275.411693" cy="24.4356251" rx="1.38371759" ry="1.21819832"></ellipse>
                <path d="M368.039377,67.4308598 C368.039377,68.0757884 368.609143,68.6490582 369.423095,68.6490582 C370.155651,68.6490582 370.806812,68.1474471 370.806812,67.4308598 C370.806812,66.7859313 370.237046,66.2126615 369.423095,66.2126615 C368.690538,66.2126615 368.039377,66.7142726 368.039377,67.4308598 Z" id="Path" fill="#FFFFFF" opacity="0.5" transform="translate(369.423095, 67.430860) scale(1, -1) translate(-369.423095, -67.430860) "></path>
                <ellipse id="Oval" fill="#D9DDE1" transform="translate(335.237130, 52.239210) scale(1, -1) translate(-335.237130, -52.239210) " cx="335.23713" cy="52.2392102" rx="1.38371759" ry="1.21819832"></ellipse>
                <path d="M263.446606,1.21819832 C263.446606,1.86312684 264.016372,2.43639664 264.830324,2.43639664 C265.56288,2.43639664 266.214041,1.93478556 266.214041,1.21819832 C266.214041,0.573269797 265.644275,2.22044605e-16 264.830324,2.22044605e-16 C264.097767,2.22044605e-16 263.446606,0.573269797 263.446606,1.21819832 Z" id="Path" fill="#FFFFFF" opacity="0.5" transform="translate(264.830324, 1.218198) scale(1, -1) translate(-264.830324, -1.218198) "></path>
                <path d="M212.574636,23.2174268 C212.574636,23.8623553 213.144402,24.4356251 213.958353,24.4356251 C214.69091,24.4356251 215.342071,23.934014 215.342071,23.2174268 C215.342071,22.5724982 214.772305,21.9992284 213.958353,21.9992284 C213.225797,21.9992284 212.574636,22.5008395 212.574636,23.2174268 Z" id="Path" fill="#D9DDE1" transform="translate(213.958353, 23.217427) scale(1, -1) translate(-213.958353, -23.217427) "></path>
                <path d="M35.4006301,221.576128 C35.4006301,222.221057 35.9703962,222.794327 36.7843477,222.794327 C37.5169041,222.794327 38.1680653,222.292715 38.1680653,221.576128 C38.1680653,220.9312 37.5982993,220.35793 36.7843477,220.35793 C35.9703962,220.35793 35.4006301,220.9312 35.4006301,221.576128 Z" id="Path" fill="#D9DDE1" opacity="0.5" transform="translate(36.784348, 221.576128) scale(1, -1) translate(-36.784348, -221.576128) "></path>
                <ellipse id="Oval" fill="#FFFFFF" opacity="0.5" transform="translate(232.376899, 215.055184) scale(1, -1) translate(-232.376899, -215.055184) " cx="232.376899" cy="215.055184" rx="1.38371759" ry="1.21819832"></ellipse>
                <path d="M82.854004,191.049512 C82.854004,191.69444 83.4237701,192.26771 84.2377216,192.26771 C84.970278,192.26771 85.6214392,191.766099 85.6214392,191.049512 C85.6214392,190.404583 85.0516731,189.831313 84.2377216,189.831313 C83.5051652,189.831313 82.854004,190.332924 82.854004,191.049512 Z" id="Path" fill="#FFFFFF" opacity="0.2" transform="translate(84.237722, 191.049512) scale(1, -1) translate(-84.237722, -191.049512) "></path>
                <ellipse id="Oval" fill="#FFFFFF" opacity="0.2" transform="translate(83.888900, 16.481507) scale(1, -1) translate(-83.888900, -16.481507) " cx="83.8888997" cy="16.4815067" rx="1.38371759" ry="1.21819832"></ellipse>
                <path d="M101.877228,6.95089628 C101.877228,7.59582481 102.446994,8.1690946 103.260946,8.1690946 C104.074898,8.1690946 104.644664,7.66748353 104.644664,6.95089628 C104.644664,6.30596776 104.074898,5.73269797 103.260946,5.73269797 C102.446994,5.73269797 101.877228,6.30596776 101.877228,6.95089628 Z" id="Path" fill="#D9DDE1" transform="translate(103.260946, 6.950896) scale(1, -1) translate(-103.260946, -6.950896) "></path>
                <path d="M296.923255,196.997186 C296.923255,197.642114 297.493021,198.215384 298.306973,198.215384 C299.039529,198.215384 299.69069,197.713773 299.69069,196.997186 C299.69069,196.352257 299.120924,195.778987 298.306973,195.778987 C297.574416,195.778987 296.923255,196.352257 296.923255,196.997186 Z" id="Path" fill="#FFFFFF" transform="translate(298.306973, 196.997186) scale(1, -1) translate(-298.306973, -196.997186) "></path>
                <path d="M76.1044675,190.529339 C76.1044675,191.174268 76.6742336,191.747537 77.4881851,191.747537 C78.2207415,191.747537 78.8719027,191.245926 78.8719027,190.529339 C78.8719027,189.884411 78.3021367,189.311141 77.4881851,189.311141 C76.6742336,189.311141 76.1044675,189.884411 76.1044675,190.529339 Z" id="Path" fill="#D9DDE1" transform="translate(77.488185, 190.529339) scale(1, -1) translate(-77.488185, -190.529339) "></path>
                <ellipse id="Oval" fill="#FFFFFF" opacity="0.5" transform="translate(1.383718, 155.989834) scale(1, -1) translate(-1.383718, -155.989834) " cx="1.38371759" cy="155.989834" rx="1.38371759" ry="1.21819832"></ellipse>
                <ellipse id="Oval" fill="#D9DDE1" transform="translate(244.755223, 234.403040) scale(1, -1) translate(-244.755223, -234.403040) " cx="244.755223" cy="234.40304" rx="1.38371759" ry="1.21819832"></ellipse>
                <path d="M36.5464234,154.198366 C36.5464234,154.843294 37.1161895,155.416564 37.930141,155.416564 C38.6626974,155.416564 39.3138586,154.914953 39.3138586,154.198366 C39.3138586,153.481779 38.7440926,152.980167 37.930141,152.980167 C37.1161895,152.980167 36.5464234,153.553437 36.5464234,154.198366 Z" id="Path" fill="#FFFFFF" transform="translate(37.930141, 154.198366) scale(1, -1) translate(-37.930141, -154.198366) "></path>
                <ellipse id="Oval" fill="#FFFFFF" transform="translate(326.150376, 204.449693) scale(1, -1) translate(-326.150376, -204.449693) " cx="326.150376" cy="204.449693" rx="1.38371759" ry="1.21819832"></ellipse>
                <ellipse id="Oval" fill="#C1C7CF" transform="translate(292.484340, 181.525133) scale(1, -1) translate(-292.484340, -181.525133) " cx="292.48434" cy="181.525133" rx="2.60969743" ry="2.30112509"></ellipse>
                <ellipse id="Oval" fill="#C1C7CF" transform="translate(61.281458, 120.257678) scale(1, -1) translate(-61.281458, -120.257678) " cx="61.281458" cy="120.257678" rx="2.60969743" ry="2.30112509"></ellipse>
                <ellipse id="Oval" fill="#C1C7CF" transform="translate(364.329829, 108.274456) scale(1, -1) translate(-364.329829, -108.274456) " cx="364.329829" cy="108.274456" rx="3.0990157" ry="2.73258604"></ellipse>
                <path d="M89.9853868,153.362125 C89.9853868,154.081227 89.3329624,154.584598 88.598985,154.584598 C87.8650076,154.584598 87.2125832,154.009317 87.2125832,153.362125 C87.2125832,152.714934 87.8650076,152.139653 88.598985,152.139653 C89.3329624,152.139653 89.9853868,152.643024 89.9853868,153.362125 Z" id="Path" fill="#C1C7CF" transform="translate(88.598985, 153.362125) scale(1, -1) translate(-88.598985, -153.362125) "></path>
                <ellipse id="Oval" fill="#C1C7CF" transform="translate(403.719950, 52.112621) scale(1, -1) translate(-403.719950, -52.112621) " cx="403.71995" cy="52.1126214" rx="2.60969743" ry="2.30112509"></ellipse>
            </g>
            <path d="M94.2088474,5.90455542 C93.3870292,5.90455542 92.5433929,5.83183922 91.6924838,5.80275274 C91.6924838,4.9519732 91.605211,4.10846529 91.5906656,3.29404385 C91.5906656,3.08119559 91.4180917,2.90864799 91.205211,2.90864799 C90.9923304,2.90864799 90.8197565,3.08119559 90.8197565,3.29404385 C90.8197565,4.10119367 90.7470292,4.93742996 90.7179383,5.78093788 C89.8229832,5.75744244 88.9281053,5.83058208 88.0488474,5.99908648 C87.9223552,6.03957757 87.8365292,6.15715471 87.8365292,6.28995128 C87.8365292,6.42274784 87.9223552,6.54032499 88.0488474,6.58081608 C88.9209823,6.74814573 89.8082452,6.82369783 90.6961201,6.8062363 C90.6765547,7.69130312 90.7496802,8.57598729 90.9143019,9.44583435 C90.9547992,9.57230727 91.0723943,9.65812022 91.205211,9.65812022 C91.3380278,9.65812022 91.4556229,9.57230727 91.4961201,9.44583435 C91.6646502,8.56671028 91.737801,7.6719687 91.7143019,6.77714982 C92.5579383,6.77714982 93.3943019,6.68989038 94.2088474,6.67534714 C94.421728,6.6753471 94.5943019,6.50279951 94.5943019,6.28995128 C94.5943019,6.07710305 94.421728,5.90455546 94.2088474,5.90455542 Z" id="Path" fill="#FFFFFF" fill-rule="nonzero"></path>
            <path d="M20.2888474,92.7204263 C19.6779383,92.7204263 19.045211,92.669525 18.4124838,92.6404385 C18.4124838,92.0078076 18.3470292,91.3824482 18.3324838,90.7716322 C18.3099499,90.6304768 18.188175,90.5266132 18.045211,90.5266132 C17.9022471,90.5266132 17.7804721,90.6304768 17.7579383,90.7716322 C17.7579383,91.3751766 17.6997565,92.0005359 17.6779383,92.6258952 C17.009777,92.614981 16.3422024,92.6710097 15.685211,92.7931425 C15.5921215,92.8231988 15.5290385,92.9098473 15.5290385,93.0076553 C15.5290385,93.1054633 15.5921215,93.1921118 15.685211,93.2221681 C16.3341378,93.3500182 16.994821,93.40852 17.6561201,93.396687 C17.6439537,94.057897 17.7024675,94.7185148 17.8306656,95.367296 C17.8607265,95.4603713 17.9473882,95.5234447 18.045211,95.5234447 C18.1430339,95.5234447 18.2296956,95.4603713 18.2597565,95.367296 C18.3854779,94.7108899 18.4415462,94.0430482 18.4270292,93.3748721 C19.0524838,93.3748721 19.6779383,93.3094275 20.2888474,93.2948843 C20.4300243,93.2723539 20.5339037,93.1505974 20.5339037,93.0076553 C20.5339037,92.8647131 20.4300243,92.7429567 20.2888474,92.7204263 L20.2888474,92.7204263 Z" id="Path" fill="#FFFFFF" fill-rule="nonzero"></path>
            <path d="M9.91066559,150.59525 C9.18339286,150.59525 8.45612013,150.529805 7.7288474,150.500719 C7.7288474,149.773557 7.6488474,149.046395 7.63430195,148.319233 C7.63430195,148.134496 7.48452085,147.984738 7.2997565,147.984738 C7.11499214,147.984738 6.96521104,148.134496 6.96521104,148.319233 C6.96521104,149.046395 6.8997565,149.773557 6.87066559,150.500719 C6.0924862,150.481404 5.314528,150.54724 4.55066559,150.697052 C4.43969779,150.730124 4.36363636,150.832148 4.36363636,150.947923 C4.36363636,151.063698 4.43969779,151.165723 4.55066559,151.198794 C5.31057295,151.341726 6.08298248,151.407505 6.85612013,151.395128 C6.83710755,152.168362 6.90295564,152.94135 7.05248377,153.700231 C7.08556015,153.811182 7.18760037,153.887232 7.30339286,153.887232 C7.41918534,153.887232 7.52122556,153.811182 7.55430195,153.700231 C7.70021152,152.933489 7.76601963,152.15366 7.75066559,151.373313 C8.47793831,151.373313 9.20521104,151.293325 9.93248377,151.278782 C10.1212647,151.272758 10.2694178,151.114861 10.2633929,150.926108 C10.2573679,150.737356 10.0994466,150.589226 9.91066559,150.59525 L9.91066559,150.59525 Z" id="Path" fill="#FFFFFF" fill-rule="nonzero"></path>
            <path d="M100.921575,252.296127 C100.194302,252.296127 99.4670292,252.230682 98.7397565,252.201596 C98.7397565,251.474434 98.6670292,250.747272 98.645211,250.02011 C98.645211,249.835373 98.4954299,249.685615 98.3106656,249.685615 C98.1259012,249.685615 97.9761201,249.835373 97.9761201,250.02011 C97.9761201,250.747272 97.9179383,251.474434 97.8888474,252.201596 C97.1083613,252.185608 96.3283473,252.251412 95.5615747,252.397929 C95.4506069,252.431001 95.3745455,252.533025 95.3745455,252.6488 C95.3745455,252.764575 95.4506069,252.8666 95.5615747,252.899671 C96.3204894,253.04976 97.0936593,253.115604 97.8670292,253.096005 C97.8474272,253.869257 97.9132807,254.642309 98.0633929,255.401108 C98.0964692,255.512059 98.1985095,255.588109 98.3143019,255.588109 C98.4300944,255.588109 98.5321347,255.512059 98.565211,255.401108 C98.7114562,254.636864 98.7772695,253.85941 98.7615747,253.081462 C99.4888474,253.081462 100.21612,253.001474 100.943393,252.986931 C101.066812,252.983034 101.178776,252.9136 101.237111,252.804783 C101.295445,252.695967 101.291286,252.564301 101.226202,252.459382 C101.161117,252.354462 101.044994,252.29223 100.921575,252.296127 L100.921575,252.296127 Z" id="Path" fill="#FFFFFF" fill-rule="nonzero"></path>
            <path d="M240.150666,293.649829 C239.285211,293.649829 238.390666,293.569842 237.49612,293.533484 C237.459756,292.639074 237.401575,291.744665 237.379756,290.886614 C237.352564,290.684522 237.180064,290.533697 236.97612,290.533697 C236.772177,290.533697 236.599676,290.684522 236.572484,290.886614 C236.572484,291.737393 236.492484,292.624531 236.45612,293.511669 C235.511984,293.488476 234.568153,293.568946 233.641575,293.751632 C233.505319,293.788591 233.410726,293.912245 233.410726,294.053404 C233.410726,294.194564 233.505319,294.318218 233.641575,294.355177 C234.560791,294.537846 235.497392,294.618323 236.434302,294.59514 C236.414457,295.531802 236.494915,296.467899 236.674302,297.387442 C236.711266,297.523677 236.834939,297.618256 236.97612,297.618256 C237.117301,297.618256 237.240974,297.523677 237.277938,297.387442 C237.460653,296.461005 237.541134,295.517318 237.517938,294.573325 C238.405211,294.573325 239.292484,294.478794 240.150666,294.456979 C240.352788,294.429791 240.503636,294.257317 240.503636,294.053404 C240.503636,293.849492 240.352788,293.677018 240.150666,293.649829 Z" id="Path" fill="#FFFFFF" fill-rule="nonzero"></path>
            <path d="M138.383393,95.2582217 C137.517938,95.2582217 136.623393,95.1782339 135.728847,95.1418758 C135.692484,94.2474665 135.634302,93.3530572 135.612484,92.4877345 C135.585292,92.2856426 135.412791,92.134818 135.208847,92.134818 C135.004904,92.134818 134.832403,92.2856426 134.805211,92.4877345 C134.805211,93.3457856 134.725211,94.2329233 134.688847,95.1200609 C133.744711,95.0968684 132.80088,95.1773378 131.874302,95.3600244 C131.738046,95.3969829 131.643453,95.5206374 131.643453,95.6617966 C131.643453,95.8029558 131.738046,95.9266103 131.874302,95.9635688 C132.793519,96.1462379 133.730119,96.2267148 134.667029,96.2035323 C134.647184,97.1401945 134.727642,98.076291 134.907029,98.9958343 C134.943993,99.1320694 135.067667,99.2266477 135.208847,99.2266477 C135.350028,99.2266477 135.473701,99.1320694 135.510666,98.9958343 C135.69338,98.0693973 135.773862,97.1257101 135.750666,96.1817174 C136.637938,96.1817174 137.525211,96.0871864 138.383393,96.0653715 C138.585515,96.0381834 138.736363,95.8657091 138.736363,95.6617966 C138.736363,95.4578841 138.585515,95.2854097 138.383393,95.2582217 Z" id="Path" fill="#FFFFFF" fill-rule="nonzero"></path>
            <path d="M284.150666,59.8963337 C283.285211,59.8963337 282.390666,59.8163459 281.49612,59.7799878 C281.459756,58.8855786 281.401575,57.9911693 281.387029,57.1331181 C281.387029,56.9082219 281.204687,56.7259074 280.979756,56.7259074 C280.754826,56.7259074 280.572484,56.9082219 280.572484,57.1331181 C280.572484,57.9838977 280.492484,58.8710353 280.463393,59.758173 C279.516839,59.734682 278.570565,59.8151517 277.641575,59.9981364 C277.505319,60.035095 277.410726,60.1587494 277.410726,60.2999086 C277.410726,60.4410679 277.505319,60.5647223 277.641575,60.6016809 C278.560791,60.78435 279.497392,60.8648269 280.434302,60.8416443 C280.418056,61.778187 280.498481,62.713907 280.674302,63.6339464 C280.716028,63.7675521 280.839767,63.8585313 280.979756,63.8585313 C281.119746,63.8585313 281.243485,63.7675521 281.285211,63.6339464 C281.471659,62.7077879 281.559422,61.7644819 281.547029,60.8198295 C282.434302,60.8198295 283.321575,60.7252984 284.179756,60.7034836 C284.381687,60.6698984 284.527307,60.491669 284.519935,60.2871277 C284.512563,60.0825865 284.35449,59.9152993 284.150666,59.8963337 L284.150666,59.8963337 Z" id="Path" fill="#FFFFFF" fill-rule="nonzero"></path>
            <path d="M1046.73371,3.12340371 C1045.86826,3.12340371 1044.97371,3.04341589 1044.07916,3.00705779 C1044.0428,2.11264853 1043.98462,1.21823927 1043.9628,0.352916497 C1043.93561,0.150824649 1043.76311,1.02140518e-14 1043.55916,1.02140518e-14 C1043.35522,1.02140518e-14 1043.18272,0.150824649 1043.15553,0.352916497 C1043.15553,1.21096765 1043.07553,2.09810529 1043.03916,2.98524293 C1042.0954,2.96327445 1041.15196,3.04127313 1040.22462,3.21793477 C1040.09099,3.25965433 1040,3.38337499 1040,3.52334281 C1040,3.66331063 1040.09099,3.78703128 1040.22462,3.82875085 C1041.14484,4.00423779 1042.08067,4.08464851 1043.01735,4.0687143 C1042.99416,5.00548142 1043.07465,5.94193964 1043.25735,6.86101638 C1043.29431,6.99725143 1043.41798,7.09182974 1043.55916,7.09182974 C1043.70035,7.09182974 1043.82402,6.99725143 1043.86098,6.86101638 C1044.0437,5.93457931 1044.12418,4.99089209 1044.10098,4.04689944 C1044.98826,4.04689944 1045.87553,3.95236839 1046.73371,3.93055353 C1046.93583,3.90336546 1047.08668,3.73089111 1047.08668,3.52697862 C1047.08668,3.32306612 1046.93583,3.15059177 1046.73371,3.12340371 Z" id="Path" fill="#FFFFFF" fill-rule="nonzero"></path>
            <path d="M1033.6428,102.679153 C1032.77735,102.679153 1031.8828,102.606437 1030.98826,102.570078 C1030.95189,101.675669 1030.89371,100.78126 1030.87189,99.9159372 C1030.8447,99.7138454 1030.6722,99.5630207 1030.46826,99.5630207 C1030.26431,99.5630207 1030.09181,99.7138454 1030.06462,99.9159372 C1030.06462,100.773988 1029.98462,101.661126 1029.94826,102.548264 C1029.00449,102.526295 1028.06105,102.604294 1027.13371,102.780955 C1027.00008,102.822675 1026.90909,102.946396 1026.90909,103.086364 C1026.90909,103.226331 1027.00008,103.350052 1027.13371,103.391772 C1028.05393,103.567258 1028.98976,103.647669 1029.92644,103.631735 C1029.90325,104.568502 1029.98374,105.50496 1030.16644,106.424037 C1030.2034,106.560272 1030.32707,106.65485 1030.46826,106.65485 C1030.60944,106.65485 1030.73311,106.560272 1030.77007,106.424037 C1030.95309,105.495188 1031.03357,104.549059 1031.01007,103.602649 C1031.89735,103.602649 1032.78462,103.515389 1033.6428,103.493574 C1033.86773,103.493574 1034.05007,103.31126 1034.05007,103.086364 C1034.05007,102.861467 1033.86773,102.679153 1033.6428,102.679153 Z" id="Path" fill="#FFFFFF" fill-rule="nonzero"></path>
            <path d="M986.115528,26.3271431 C985.388255,26.3271431 984.697346,26.2616985 983.977346,26.232612 C983.977346,25.50545 983.904619,24.778288 983.890074,24.1020273 C983.890074,23.9213072 983.743549,23.7748045 983.562801,23.7748045 C983.382053,23.7748045 983.235528,23.9213072 983.235528,24.1020273 C983.235528,24.8291893 983.170074,25.50545 983.140983,26.2180688 C982.380039,26.1999802 981.619345,26.2633617 980.871892,26.4071309 C980.766653,26.4437488 980.696126,26.5429539 980.696126,26.6543659 C980.696126,26.765778 980.766653,26.8649831 980.871892,26.901601 C981.614886,27.0421129 982.370415,27.1054702 983.126437,27.0906631 C983.108604,27.8466646 983.171998,28.6023956 983.315528,29.3448653 C983.348019,29.4522274 983.446978,29.5256628 983.559165,29.5256628 C983.671351,29.5256628 983.77031,29.4522274 983.802801,29.3448653 C983.949052,28.5953381 984.014879,27.8323449 983.999165,27.0688483 C984.726437,27.0688483 985.45371,26.9961321 986.115528,26.9815888 C986.296276,26.9815888 986.442801,26.8350861 986.442801,26.6543659 C986.442801,26.4736458 986.296276,26.3271431 986.115528,26.3271431 L986.115528,26.3271431 Z" id="Path" fill="#FFFFFF" fill-rule="nonzero"></path>
            <path d="M256.252484,213.8438 C255.525211,213.8438 254.797938,213.778356 254.070666,213.749269 C254.070666,213.022107 253.997938,212.294945 253.983393,211.567783 C253.983393,211.383047 253.833612,211.233289 253.648847,211.233289 C253.464083,211.233289 253.314302,211.383047 253.314302,211.567783 C253.314302,212.294945 253.248847,213.022107 253.219756,213.749269 C252.443986,213.729961 251.668439,213.795799 250.907029,213.945603 C250.793069,213.97344 250.712896,214.075544 250.712896,214.192838 C250.712896,214.310132 250.793069,214.412236 250.907029,214.440073 C251.663531,214.589864 252.434259,214.655707 253.205211,214.636407 C253.186873,215.406879 253.250257,216.177125 253.394302,216.934239 C253.427378,217.04519 253.529419,217.121239 253.645211,217.121239 C253.761004,217.121239 253.863044,217.04519 253.89612,216.934239 C254.045946,216.172945 254.111795,215.397516 254.092484,214.621864 C254.819756,214.621864 255.547029,214.541876 256.274302,214.527333 C256.463083,214.521309 256.611236,214.363411 256.605211,214.174659 C256.599186,213.985907 256.441265,213.837776 256.252484,213.8438 L256.252484,213.8438 Z" id="Path" fill="#FFFFFF" fill-rule="nonzero"></path>
            <path d="M705.554302,54.5298782 C704.688847,54.5298782 703.794302,54.4498904 702.899756,54.4135323 C702.863393,53.519123 702.805211,52.6247138 702.783393,51.759391 C702.756201,51.5572991 702.5837,51.4064745 702.379756,51.4064745 C702.175813,51.4064745 702.003312,51.5572991 701.97612,51.759391 C701.97612,52.6174421 701.89612,53.5045798 701.859756,54.3917174 C700.91562,54.3685249 699.971789,54.4489943 699.045211,54.6316809 C698.908955,54.6686394 698.814363,54.7922939 698.814363,54.9334531 C698.814363,55.0746123 698.908955,55.1982668 699.045211,55.2352253 C699.964428,55.4178945 700.901029,55.4983713 701.837938,55.4751888 C701.818093,56.411851 701.898551,57.3479475 702.077938,58.2674909 C702.114902,58.4037259 702.238576,58.4983042 702.379756,58.4983042 C702.520937,58.4983042 702.644611,58.4037259 702.681575,58.2674909 C702.864289,57.3410538 702.944771,56.3973666 702.921575,55.4533739 C703.808847,55.4533739 704.69612,55.3588429 705.554302,55.337028 C705.756425,55.30984 705.907272,55.1373656 705.907272,54.9334531 C705.907272,54.7295406 705.756425,54.5570663 705.554302,54.5298782 Z" id="Path" fill="#FFFFFF" fill-rule="nonzero"></path>
            <path d="M851.321575,19.1679903 C850.45612,19.1679903 849.561575,19.0880024 848.667029,19.0516443 C848.630666,18.1572351 848.572484,17.2628258 848.557938,16.4047747 C848.557938,16.1798784 848.375596,15.9975639 848.150666,15.9975639 C847.925735,15.9975639 847.743393,16.1798784 847.743393,16.4047747 C847.743393,17.2555542 847.663393,18.1426918 847.634302,19.0298295 C846.687748,19.0063385 845.741474,19.0868082 844.812484,19.2697929 C844.676228,19.3067515 844.581635,19.430406 844.581635,19.5715652 C844.581635,19.7127244 844.676228,19.8363789 844.812484,19.8733374 C845.7317,20.0560065 846.668301,20.1364834 847.605211,20.1133009 C847.588965,21.0498435 847.66939,21.9855635 847.845211,22.9056029 C847.886937,23.0392086 848.010676,23.1301878 848.150666,23.1301878 C848.290655,23.1301878 848.414394,23.0392086 848.45612,22.9056029 C848.642568,21.9794445 848.730331,21.0361384 848.717938,20.091486 C849.605211,20.091486 850.492484,19.9969549 851.350666,19.9751401 C851.552596,19.941555 851.698216,19.7633255 851.690844,19.5587843 C851.683472,19.354243 851.525399,19.1869558 851.321575,19.1679903 L851.321575,19.1679903 Z" id="Path" fill="#FFFFFF" fill-rule="nonzero"></path>
            <path d="M823.423393,173.115457 C822.69612,173.115457 821.968847,173.050012 821.241575,173.020926 C821.241575,172.293764 821.168847,171.566602 821.154302,170.83944 C821.154302,170.654703 821.004521,170.504945 820.819756,170.504945 C820.634992,170.504945 820.485211,170.654703 820.485211,170.83944 C820.485211,171.566602 820.419756,172.293764 820.390666,173.020926 C819.614895,173.001618 818.839348,173.067456 818.077938,173.217259 C817.963979,173.245097 817.883805,173.347201 817.883805,173.464495 C817.883805,173.581788 817.963979,173.683892 818.077938,173.71173 C818.834441,173.86152 819.605168,173.927364 820.37612,173.908063 C820.357782,174.678536 820.421166,175.448782 820.565211,176.205895 C820.598287,176.316846 820.700328,176.392896 820.81612,176.392896 C820.931913,176.392896 821.033953,176.316846 821.067029,176.205895 C821.216855,175.444602 821.282704,174.669172 821.263393,173.89352 C821.990666,173.89352 822.717938,173.813532 823.445211,173.798989 C823.633992,173.792965 823.782145,173.635068 823.77612,173.446315 C823.770095,173.257563 823.612174,173.109433 823.423393,173.115457 L823.423393,173.115457 Z" id="Path" fill="#FFFFFF" fill-rule="nonzero"></path>
            <path d="M581.461646,11.7166412 C580.734373,11.7166412 580.0071,11.6511966 579.279828,11.6221101 C579.279828,10.8949481 579.2071,10.1677861 579.185282,9.4406241 C579.185282,9.25588788 579.035501,9.10612958 578.850737,9.10612958 C578.665972,9.10612958 578.516191,9.25588788 578.516191,9.4406241 C578.516191,10.1677861 578.458009,10.8949481 578.428918,11.6221101 C577.648432,11.6061227 576.868418,11.6719264 576.101646,11.8184438 C575.990678,11.8515152 575.914617,11.9535399 575.914617,12.0693147 C575.914617,12.1850896 575.990678,12.2871143 576.101646,12.3201856 C576.860561,12.4702749 577.63373,12.5361184 578.4071,12.5165194 C578.387498,13.2897715 578.453352,14.0628237 578.603464,14.8216229 C578.63654,14.9325738 578.738581,15.0086236 578.854373,15.0086236 C578.970166,15.0086236 579.072206,14.9325738 579.105282,14.8216229 C579.251527,14.0573786 579.317341,13.2799248 579.301646,12.5019761 C580.028918,12.5019761 580.756191,12.4219883 581.483464,12.4074451 C581.606883,12.4035482 581.718848,12.3341141 581.777182,12.225298 C581.835516,12.1164818 581.831358,11.9848153 581.766273,11.879896 C581.701188,11.7749767 581.585065,11.7127443 581.461646,11.7166412 L581.461646,11.7166412 Z" id="Path" fill="#FFFFFF" fill-rule="nonzero" transform="translate(578.866399, 12.057377) scale(-1, -1) translate(-578.866399, -12.057377) "></path>
            <path d="M426.126927,50.1835108 C425.399654,50.1835108 424.672382,50.1180662 423.945109,50.0889798 C423.945109,49.3618178 423.872382,48.6346558 423.857836,47.9074938 C423.857836,47.7227576 423.708055,47.5729993 423.523291,47.5729993 C423.338526,47.5729993 423.188745,47.7227576 423.188745,47.9074938 C423.188745,48.6346558 423.123291,49.3618178 423.0942,50.0889798 C422.31843,50.0696717 421.542882,50.13551 420.781472,50.2853135 C420.667513,50.3131511 420.587339,50.4152549 420.587339,50.5325486 C420.587339,50.6498423 420.667513,50.7519461 420.781472,50.7797837 C421.537975,50.9295744 422.308702,50.9954177 423.079654,50.9761174 C423.061316,51.7465897 423.1247,52.5168356 423.268745,53.2739493 C423.301822,53.3849002 423.403862,53.4609501 423.519654,53.4609501 C423.635447,53.4609501 423.737487,53.3849002 423.770563,53.2739493 C423.92039,52.5126558 423.986238,51.7372262 423.966927,50.9615742 C424.6942,50.9615742 425.421472,50.8815863 426.148745,50.8670431 C426.337526,50.8610191 426.485679,50.7031218 426.479654,50.5143695 C426.473629,50.3256173 426.315708,50.1774868 426.126927,50.1835108 L426.126927,50.1835108 Z" id="Path" fill="#FFFFFF" fill-rule="nonzero" transform="translate(423.533585, 50.516975) scale(-1, -1) translate(-423.533585, -50.516975) "></path>
            <path d="M90.5357468,590.451801 C89.7397488,590.451801 88.9226181,590.381294 88.0984432,590.353091 C88.0984432,589.528154 88.0139124,588.710267 87.9998239,587.920584 C87.9998239,587.714201 87.832672,587.546894 87.6264797,587.546894 C87.4202874,587.546894 87.2531355,587.714201 87.2531355,587.920584 C87.2531355,588.703216 87.1826932,589.514052 87.1545163,590.331939 C86.2876792,590.309157 85.420917,590.380075 84.5692839,590.543461 C84.4467659,590.582722 84.3636364,590.696728 84.3636364,590.825491 C84.3636364,590.954254 84.4467659,591.068259 84.5692839,591.107521 C85.4140177,591.269768 86.2734043,591.343025 87.1333836,591.326094 C87.1144329,592.184277 87.1852609,593.042089 87.3447105,593.885514 C87.3839354,594.008146 87.4978358,594.091352 87.6264797,594.091352 C87.7551236,594.091352 87.869024,594.008146 87.9082489,593.885514 C88.0714841,593.033093 88.1423366,592.16553 88.1195758,591.297891 C88.9367065,591.297891 89.746793,591.213282 90.5357468,591.19918 C90.7419391,591.19918 90.9090909,591.031874 90.9090909,590.825491 C90.9090909,590.619108 90.7419391,590.451801 90.5357468,590.451801 Z" id="Path" fill="#FFFFFF" fill-rule="nonzero" transform="translate(87.636364, 590.819123) scale(1, -1) translate(-87.636364, -590.819123) "></path>
            <path d="M15.7507307,503.249393 C15.1293188,503.249393 14.4857137,503.197541 13.8421085,503.167912 C13.8421085,502.523468 13.7755287,501.886432 13.7607331,501.26421 C13.7378119,501.120419 13.6139434,501.014616 13.4685216,501.014616 C13.3230998,501.014616 13.1992313,501.120419 13.1763101,501.26421 C13.1763101,501.879024 13.117128,502.516061 13.0949347,503.153097 C12.4152863,503.141979 11.7362348,503.199054 11.0679483,503.323467 C10.9732584,503.354085 10.9090909,503.442351 10.9090909,503.541985 C10.9090909,503.64162 10.9732584,503.729886 11.0679483,503.760503 C11.7280315,503.890741 12.4000732,503.950335 13.0727414,503.938281 C13.0603658,504.611837 13.1198856,505.284791 13.2502877,505.945686 C13.2808654,506.040499 13.369017,506.10475 13.4685216,506.10475 C13.5680262,506.10475 13.6561778,506.040499 13.6867555,505.945686 C13.8146384,505.277023 13.8716705,504.596711 13.856904,503.916059 C14.4931114,503.916059 15.1293188,503.849392 15.7507307,503.834577 C15.8943347,503.811626 16,503.687596 16,503.541985 C16,503.396374 15.8943347,503.272344 15.7507307,503.249393 L15.7507307,503.249393 Z" id="Path" fill="#FFFFFF" fill-rule="nonzero" transform="translate(13.454545, 503.559683) scale(1, -1) translate(-13.454545, -503.559683) "></path>
            <path d="M5.47016711,444.687325 C4.7529718,444.687325 4.03577649,444.622825 3.31858118,444.594159 C3.31858118,443.877493 3.23968969,443.160827 3.22534579,442.444161 C3.22534579,442.262091 3.07764012,442.114495 2.89543594,442.114495 C2.71323177,442.114495 2.5655261,442.262091 2.5655261,442.444161 C2.5655261,443.160827 2.50097852,443.877493 2.47229071,444.594159 C1.70489412,444.575123 0.937715656,444.640009 0.184437662,444.787659 C0.0750074833,444.820253 8.34887715e-14,444.920805 8.34887715e-14,445.034908 C8.09407819e-14,445.149012 0.0750074833,445.249564 0.184437662,445.282158 C0.933815413,445.423027 1.69552209,445.487857 2.4579468,445.475658 C2.43919767,446.237731 2.50413334,446.999561 2.65158954,447.747489 C2.6842076,447.856838 2.78483391,447.93179 2.89902192,447.93179 C3.01320993,447.93179 3.11383624,447.856838 3.1464543,447.747489 C3.29034208,446.991814 3.35523833,446.223241 3.34009704,445.454158 C4.05729235,445.454158 4.77448766,445.375325 5.49168297,445.360991 C5.67784811,445.355054 5.82394828,445.199436 5.81800684,445.013408 C5.8120654,444.827381 5.65633225,444.681388 5.47016711,444.687325 L5.47016711,444.687325 Z" id="Path" fill="#FFFFFF" fill-rule="nonzero" transform="translate(2.909091, 445.023143) scale(1, -1) translate(-2.909091, -445.023143) "></path>
            <path d="M134.910809,500.581394 C134.023413,500.581394 133.10619,500.499378 132.188966,500.462098 C132.15168,499.545014 132.092023,498.62793 132.069652,497.74067 C132.041771,497.533455 131.864897,497.378806 131.655783,497.378806 C131.446669,497.378806 131.269795,497.533455 131.241914,497.74067 C131.241914,498.620474 131.159886,499.530102 131.1226,500.43973 C130.154528,500.41595 129.186769,500.498459 128.236701,500.685777 C128.096991,500.723673 128,500.850462 128,500.9952 C128,501.139938 128.096991,501.266727 128.236701,501.304623 C129.179221,501.491923 130.139567,501.57444 131.100229,501.55067 C131.07988,502.511078 131.162378,503.470906 131.346313,504.413761 C131.384214,504.55345 131.511023,504.650426 131.655783,504.650426 C131.800543,504.650426 131.927351,504.55345 131.965253,504.413761 C132.152599,503.463838 132.235121,502.496226 132.211337,501.528302 C133.121104,501.528302 134.03087,501.431374 134.910809,501.409006 C135.118055,501.381129 135.272727,501.204282 135.272727,500.9952 C135.272727,500.786118 135.118055,500.609271 134.910809,500.581394 Z" id="Path" fill="#FFFFFF" fill-rule="nonzero" transform="translate(131.636364, 501.014616) scale(1, -1) translate(-131.636364, -501.014616) "></path>
            <path d="M281.076522,536.241954 C280.191195,536.241954 279.276109,536.160407 278.361022,536.123341 C278.323824,535.211502 278.264306,534.299663 278.249426,533.42489 C278.249426,533.195611 278.062897,533.009744 277.832802,533.009744 C277.602706,533.009744 277.416177,533.195611 277.416177,533.42489 C277.416177,534.292249 277.33434,535.196675 277.304581,536.101101 C276.336292,536.077152 275.36829,536.15919 274.417968,536.34574 C274.278583,536.383419 274.181818,536.509483 274.181818,536.653393 C274.181818,536.797303 274.278583,536.923368 274.417968,536.961046 C275.358292,537.147275 276.316399,537.22932 277.274822,537.205686 C277.258203,538.160479 277.340475,539.114434 277.520333,540.052403 C277.563017,540.188612 277.689598,540.281364 277.832802,540.281364 C277.976005,540.281364 278.102586,540.188612 278.14527,540.052403 C278.336,539.108196 278.425778,538.146507 278.4131,537.183446 C279.320747,537.183446 280.228394,537.087073 281.106281,537.064833 C281.312849,537.030593 281.461813,536.848891 281.454272,536.640363 C281.44673,536.431836 281.285027,536.261289 281.076522,536.241954 L281.076522,536.241954 Z" id="Path" fill="#FFFFFF" fill-rule="nonzero" transform="translate(277.818182, 536.645554) scale(1, -1) translate(-277.818182, -536.645554) "></path>
            <path d="M1047.63776,592.930967 C1046.74959,592.930967 1045.83156,592.848952 1044.91353,592.811672 C1044.87621,591.894588 1044.8165,590.977504 1044.79411,590.090244 C1044.7662,589.883028 1044.58917,589.72838 1044.37988,589.72838 C1044.17058,589.72838 1043.99355,589.883028 1043.96564,590.090244 C1043.96564,590.970048 1043.88354,591.879676 1043.84622,592.789304 C1042.87768,592.766779 1041.90947,592.846755 1040.95779,593.027895 C1040.82065,593.070672 1040.72727,593.197529 1040.72727,593.341046 C1040.72727,593.484562 1040.82065,593.611419 1040.95779,593.654196 C1041.90217,593.834132 1042.86257,593.916581 1043.82383,593.900243 C1043.80004,594.860759 1043.88264,595.820958 1044.07013,596.763335 C1044.10807,596.903024 1044.23499,597 1044.37988,597 C1044.52476,597 1044.65168,596.903024 1044.68962,596.763335 C1044.87713,595.813411 1044.95972,594.8458 1044.93592,593.877875 C1045.84649,593.877875 1046.75705,593.780948 1047.63776,593.75858 C1047.84519,593.730703 1048,593.553856 1048,593.344774 C1048,593.135692 1047.84519,592.958845 1047.63776,592.930967 Z" id="Path" fill="#FFFFFF" fill-rule="nonzero" transform="translate(1044.363636, 593.364190) scale(1, -1) translate(-1044.363636, -593.364190) "></path>
            <path d="M1034.4943,493.302318 C1033.61288,493.302318 1032.70183,493.227758 1031.79078,493.190478 C1031.75375,492.273394 1031.6945,491.35631 1031.67227,490.46905 C1031.64458,490.261835 1031.4689,490.107186 1031.26119,490.107186 C1031.05349,490.107186 1030.8778,490.261835 1030.85011,490.46905 C1030.85011,491.348854 1030.76863,492.258482 1030.7316,493.16811 C1029.77042,493.145585 1028.80957,493.225561 1027.86513,493.406701 C1027.72904,493.449479 1027.63636,493.576336 1027.63636,493.719852 C1027.63636,493.863368 1027.72904,493.990225 1027.86513,494.033003 C1028.80233,494.212939 1029.75542,494.295388 1030.70938,494.27905 C1030.68576,495.239565 1030.76774,496.199765 1030.95381,497.142141 C1030.99145,497.28183 1031.11741,497.378806 1031.26119,497.378806 C1031.40498,497.378806 1031.53093,497.28183 1031.56858,497.142141 C1031.75497,496.189744 1031.83693,495.219629 1031.81301,494.249226 C1032.71665,494.249226 1033.62029,494.159754 1034.4943,494.137386 C1034.72338,494.137386 1034.90909,493.95045 1034.90909,493.719852 C1034.90909,493.489254 1034.72338,493.302318 1034.4943,493.302318 Z" id="Path" fill="#FFFFFF" fill-rule="nonzero" transform="translate(1031.272727, 493.742996) scale(1, -1) translate(-1031.272727, -493.742996) "></path>
            <path d="M986.577746,569.768183 C985.841424,569.768183 985.141917,569.701982 984.412958,569.67256 C984.412958,568.936997 984.339326,568.201434 984.3246,567.517361 C984.3246,567.334553 984.176251,567.186358 983.993255,567.186358 C983.810258,567.186358 983.66191,567.334553 983.66191,567.517361 C983.66191,568.252924 983.595641,568.936997 983.566188,569.657849 C982.795776,569.639551 982.025616,569.703665 981.268862,569.849095 C981.162314,569.886136 981.090909,569.986487 981.090909,570.099186 C981.090909,570.211885 981.162314,570.312236 981.268862,570.349277 C982.021101,570.491413 982.786031,570.555502 983.551461,570.540524 C983.533406,571.305259 983.597589,572.069721 983.742905,572.820768 C983.7758,572.92937 983.875991,573.003654 983.989573,573.003654 C984.103155,573.003654 984.203346,572.92937 984.236241,572.820768 C984.384312,572.062582 984.450958,571.290774 984.435048,570.518457 C985.17137,570.518457 985.907693,570.444901 986.577746,570.430189 C986.760743,570.430189 986.909091,570.281994 986.909091,570.099186 C986.909091,569.916378 986.760743,569.768183 986.577746,569.768183 L986.577746,569.768183 Z" id="Path" fill="#FFFFFF" fill-rule="nonzero" transform="translate(984.000000, 570.095006) scale(1, -1) translate(-984.000000, -570.095006) "></path>
            <path d="M252.742455,381.430586 C252.024354,381.430586 251.306253,381.365927 250.588152,381.33719 C250.588152,380.618754 250.516342,379.900317 250.50198,379.181881 C250.50198,378.999362 250.354088,378.851401 250.171653,378.851401 C249.989219,378.851401 249.841327,378.999362 249.841327,379.181881 C249.841327,379.900317 249.776698,380.618754 249.747974,381.33719 C248.981987,381.318113 248.21622,381.383162 247.464413,381.531167 C247.35189,381.558671 247.272727,381.65955 247.272727,381.775436 C247.272727,381.891322 247.35189,381.992201 247.464413,382.019704 C248.211375,382.167697 248.972382,382.23275 249.733612,382.213682 C249.715505,382.974909 249.77809,383.735912 249.920318,384.48394 C249.952977,384.593559 250.053731,384.668697 250.168063,384.668697 C250.282395,384.668697 250.383148,384.593559 250.415808,384.48394 C250.563745,383.731782 250.628762,382.965657 250.609695,382.199313 C251.327796,382.199313 252.045897,382.120285 252.763998,382.105916 C252.950398,382.099965 253.096683,381.943962 253.090734,381.757475 C253.084785,381.570988 252.928855,381.424635 252.742455,381.430586 L252.742455,381.430586 Z" id="Path" fill="#FFFFFF" fill-rule="nonzero" transform="translate(250.181818, 381.760049) scale(1, -1) translate(-250.181818, -381.760049) "></path>
            <path d="M704.991814,541.481387 C704.123044,541.481387 703.225071,541.401107 702.327098,541.364616 C702.290595,540.466943 702.23219,539.569269 702.210288,538.700788 C702.182992,538.497959 702.009831,538.346584 701.805106,538.346584 C701.600381,538.346584 701.427219,538.497959 701.399923,538.700788 C701.399923,539.561971 701.319616,540.452346 701.283113,541.342722 C700.33536,541.319444 699.387912,541.400208 698.457784,541.583561 C698.321006,541.620654 698.226051,541.74476 698.226051,541.886434 C698.226051,542.028109 698.321006,542.152215 698.457784,542.189308 C699.380523,542.372644 700.320712,542.453414 701.261212,542.430147 C701.24129,543.370228 701.322057,544.309741 701.502131,545.23264 C701.539237,545.369372 701.663384,545.464296 701.805106,545.464296 C701.946827,545.464296 702.070974,545.369372 702.10808,545.23264 C702.291495,544.302822 702.372285,543.355691 702.349,542.408253 C703.239672,542.408253 704.130344,542.313377 704.991814,542.291482 C705.194711,542.264195 705.346137,542.091091 705.346137,541.886434 C705.346137,541.681778 705.194711,541.508674 704.991814,541.481387 Z" id="Path" fill="#FFFFFF" fill-rule="nonzero" transform="translate(701.786094, 541.905440) scale(1, -1) translate(-701.786094, -541.905440) "></path>
            <path d="M851.317582,577.025778 C850.448812,577.025778 849.550839,576.945498 848.652866,576.909007 C848.616363,576.011334 848.557958,575.11366 848.543357,574.252478 C848.543357,574.026761 848.360316,573.843781 848.134524,573.843781 C847.908732,573.843781 847.725691,574.026761 847.725691,574.252478 C847.725691,575.106362 847.645384,575.996738 847.616182,576.887113 C846.666001,576.863536 845.716102,576.9443 844.783552,577.127952 C844.646774,577.165046 844.551819,577.289151 844.551819,577.430826 C844.551819,577.5725 844.646774,577.696606 844.783552,577.733699 C845.706291,577.917035 846.64648,577.997806 847.58698,577.974539 C847.570671,578.914499 847.651405,579.853634 847.827899,580.777032 C847.869785,580.911125 847.993998,581.002436 848.134524,581.002436 C848.275049,581.002436 848.399263,580.911125 848.441149,580.777032 C848.628311,579.847493 848.71641,578.900744 848.70397,577.952644 C849.594642,577.952644 850.485315,577.857768 851.346784,577.835874 C851.549489,577.802166 851.695667,577.623286 851.688267,577.417998 C851.680866,577.21271 851.522188,577.044813 851.317582,577.025778 L851.317582,577.025778 Z" id="Path" fill="#FFFFFF" fill-rule="nonzero" transform="translate(848.120177, 577.423108) scale(1, -1) translate(-848.120177, -577.423108) "></path>
            <path d="M823.312511,422.641759 C822.582451,422.641759 821.852392,422.576075 821.122333,422.546883 C821.122333,421.817067 821.049327,421.087251 821.034726,420.357435 C821.034726,420.172024 820.884371,420.02172 820.698899,420.02172 C820.513426,420.02172 820.363071,420.172024 820.363071,420.357435 C820.363071,421.087251 820.297366,421.817067 820.268164,422.546883 C819.489421,422.527504 818.710902,422.593583 817.946575,422.743933 C817.832179,422.771872 817.751698,422.874348 817.751698,422.99207 C817.751698,423.109792 817.832179,423.212268 817.946575,423.240208 C818.705976,423.390545 819.479657,423.456629 820.253563,423.437258 C820.235154,424.210542 820.298781,424.983599 820.443378,425.743476 C820.476581,425.854832 820.579012,425.931159 820.695248,425.931159 C820.811485,425.931159 820.913916,425.854832 820.947119,425.743476 C821.097519,424.979404 821.16362,424.201144 821.144235,423.422662 C821.874294,423.422662 822.604353,423.342382 823.334412,423.327785 C823.523917,423.321739 823.672637,423.163266 823.666589,422.973825 C823.660541,422.784384 823.502015,422.635713 823.312511,422.641759 L823.312511,422.641759 Z" id="Path" fill="#FFFFFF" fill-rule="nonzero" transform="translate(820.709233, 422.976439) scale(1, -1) translate(-820.709233, -422.976439) "></path>
            <path d="M706.050044,54.485438 C705.18376,54.485438 704.288358,54.4055474 703.392955,54.3692336 C703.356557,53.4759124 703.298319,52.5825912 703.27648,51.7183212 C703.249262,51.5164752 703.076596,51.365834 702.872457,51.365834 C702.668319,51.365834 702.495653,51.5164752 702.468434,51.7183212 C702.468434,52.5753285 702.388358,53.4613869 702.351959,54.3474453 C701.406919,54.3242809 700.462184,54.4046525 699.534718,54.5871168 C699.398332,54.6240304 699.303648,54.7475344 699.303648,54.8885219 C699.303648,55.0295094 699.398332,55.1530134 699.534718,55.189927 C700.454815,55.3723739 701.392313,55.4527529 702.33012,55.4295985 C702.310256,56.3651213 702.390791,57.300079 702.57035,58.2185036 C702.60735,58.354573 702.731141,58.4490362 702.872457,58.4490362 C703.013773,58.4490362 703.137565,58.354573 703.174565,58.2185036 C703.357454,57.2931936 703.438013,56.3506545 703.414795,55.4078102 C704.302917,55.4078102 705.19104,55.3133942 706.050044,55.2916058 C706.25236,55.2644509 706.403352,55.0921863 706.403352,54.8885219 C706.403352,54.6848575 706.25236,54.5125929 706.050044,54.485438 Z" id="Path" fill="#FFFFFF" fill-rule="nonzero"></path>
            <path d="M851.95694,19.1665693 C851.090657,19.1665693 850.195254,19.0866788 849.299852,19.050365 C849.263454,18.1570438 849.205216,17.2637226 849.190657,16.4067153 C849.190657,16.1820927 849.00814,16 848.782994,16 C848.557848,16 848.375331,16.1820927 848.375331,16.4067153 C848.375331,17.2564599 848.295254,18.1425182 848.266136,19.0285766 C847.318675,19.0051142 846.371495,19.0854861 845.441614,19.2682482 C845.305228,19.3051617 845.210545,19.4286658 845.210545,19.5696533 C845.210545,19.7106408 845.305228,19.8341448 845.441614,19.8710584 C846.361712,20.0535053 847.29921,20.1338843 848.237017,20.1107299 C848.220755,21.0461332 848.301258,21.9807149 848.477247,22.899635 C848.519013,23.0330781 848.642871,23.1239467 848.782994,23.1239467 C848.923117,23.1239467 849.046975,23.0330781 849.088741,22.899635 C849.275367,21.9746033 849.363214,21.0324448 849.35081,20.0889416 C850.238933,20.0889416 851.127055,19.9945255 851.986059,19.9727372 C852.188183,19.939193 852.333943,19.7611803 852.326564,19.5568879 C852.319185,19.3525955 852.16096,19.1855118 851.95694,19.1665693 L851.95694,19.1665693 Z" id="Path" fill="#FFFFFF" fill-rule="nonzero"></path>
            <path d="M824.032036,172.926752 C823.304067,172.926752 822.576097,172.861387 821.848128,172.832336 C821.848128,172.106058 821.775331,171.379781 821.760772,170.653504 C821.760772,170.468992 821.610847,170.319416 821.425906,170.319416 C821.240964,170.319416 821.09104,170.468992 821.09104,170.653504 C821.09104,171.379781 821.025523,172.106058 820.996404,172.832336 C820.219891,172.813051 819.4436,172.878809 818.681461,173.028431 C818.567392,173.056234 818.487142,173.158214 818.487142,173.275365 C818.487142,173.392516 818.567392,173.494496 818.681461,173.522299 C819.438688,173.671908 820.210154,173.737671 820.981844,173.718394 C820.963488,174.487929 821.026933,175.257238 821.171116,176.013431 C821.204224,176.124247 821.306362,176.200204 821.422266,176.200204 C821.538169,176.200204 821.640307,176.124247 821.673415,176.013431 C821.823385,175.253063 821.889297,174.478577 821.869967,173.703869 C822.597936,173.703869 823.325906,173.623978 824.053875,173.609453 C824.242837,173.603436 824.391132,173.445731 824.385101,173.257208 C824.37907,173.068685 824.220998,172.920735 824.032036,172.926752 L824.032036,172.926752 Z" id="Path" fill="#FFFFFF" fill-rule="nonzero"></path>
            <g id="Group-5" transform="translate(389.000000, 230.000000)" fill-rule="nonzero">
                <g id="Group-3" transform="translate(192.662162, 0.000000)">
                    <g id="Group" fill="#DDE1E5">
                        <path d="M41.8040541,82.1425 C39.622973,79.3875 38.4597297,74.53 38.4597297,67.57 C26.1002703,67.57 18.4664865,67.57 15.7037838,67.57 C10.3964865,67.57 6.39783784,66.265 3.85324324,63.5825 C1.23594595,60.9 0,57.4925 0,53.2875 C0,48.865 1.09054054,44.805 3.34432432,41.18 C7.85189189,33.785 14.3951351,23.5625 23.0467568,10.3675 C27.3362162,3.8425 33.1524324,0.58 40.6408108,0.58 C42.1675676,0.58 44.0578378,0.58 46.1662162,0.6525 C48.2745946,0.725 50.0194595,0.725 51.3281081,0.725 C57.2897297,0.725 61.3610811,1.74 63.5421622,3.8425 C65.6505405,5.945 66.7410811,9.57 66.7410811,14.8625 L66.7410811,48.7925 C69.1402703,49.0825 70.9578378,49.5175 72.3391892,50.2425 C73.7205405,50.9675 74.6656757,51.9825 75.1745946,53.2875 C75.6835135,54.5925 75.9743243,56.26 75.9743243,58.435 C75.9743243,61.6975 75.2472973,63.945 73.8659459,65.1775 C72.4845946,66.41 70.0854054,67.135 66.7410811,67.425 C66.7410811,74.1675 65.5778378,79.025 63.1786486,81.925 C60.7794595,84.825 57.217027,86.275 52.4913514,86.275 C47.5475676,86.3475 43.9851351,84.97 41.8040541,82.1425 Z M38.6778378,21.9675 L22.247027,49.3 L38.387027,49.3 L38.6778378,21.9675 Z" id="Shape"></path>
                    </g>
                    <polygon id="Path" fill="url(#linearGradient-1)" opacity="0.2" points="66.5956757 48.7925 38.3143243 49.3 38.4597297 40.6725 66.5956757 40.6725"></polygon>
                </g>
                <g id="Group-3-Copy">
                    <g id="Group" fill="#DDE1E5">
                        <path d="M41.8040541,82.1425 C39.622973,79.3875 38.4597297,74.53 38.4597297,67.57 C26.1002703,67.57 18.4664865,67.57 15.7037838,67.57 C10.3964865,67.57 6.39783784,66.265 3.85324324,63.5825 C1.23594595,60.9 0,57.4925 0,53.2875 C0,48.865 1.09054054,44.805 3.34432432,41.18 C7.85189189,33.785 14.3951351,23.5625 23.0467568,10.3675 C27.3362162,3.8425 33.1524324,0.58 40.6408108,0.58 C42.1675676,0.58 44.0578378,0.58 46.1662162,0.6525 C48.2745946,0.725 50.0194595,0.725 51.3281081,0.725 C57.2897297,0.725 61.3610811,1.74 63.5421622,3.8425 C65.6505405,5.945 66.7410811,9.57 66.7410811,14.8625 L66.7410811,48.7925 C69.1402703,49.0825 70.9578378,49.5175 72.3391892,50.2425 C73.7205405,50.9675 74.6656757,51.9825 75.1745946,53.2875 C75.6835135,54.5925 75.9743243,56.26 75.9743243,58.435 C75.9743243,61.6975 75.2472973,63.945 73.8659459,65.1775 C72.4845946,66.41 70.0854054,67.135 66.7410811,67.425 C66.7410811,74.1675 65.5778378,79.025 63.1786486,81.925 C60.7794595,84.825 57.217027,86.275 52.4913514,86.275 C47.5475676,86.3475 43.9851351,84.97 41.8040541,82.1425 Z M38.6778378,21.9675 L22.247027,49.3 L38.387027,49.3 L38.6778378,21.9675 Z" id="Shape"></path>
                    </g>
                    <polygon id="Path" fill="url(#linearGradient-1)" opacity="0.2" points="66.5956757 48.7925 38.3143243 49.3 38.4597297 40.6725 66.5956757 40.6725"></polygon>
                </g>
                <g id="Group-2" transform="translate(90.878378, 0.000000)">
                    <path d="M87.203707,43.4816041 C87.203707,42.7246252 87.1852568,41.9571328 87.1430848,41.1870119 C83.1949382,57.4088769 67.6262892,68.0597671 51.0282903,65.8940185 C34.4302914,63.7282699 22.1337963,49.4414656 22.5039531,32.7527354 C22.8741098,16.0640053 35.7920334,2.33334368 52.4698261,0.901543635 C49.5527274,0.301008449 46.5817828,-0.00107027358 43.6031714,2.84907391e-06 C19.5625182,2.84907392e-06 1.70530257e-13,19.5053503 1.70530257e-13,43.4816041 C1.70530257e-13,67.4578578 19.5625182,86.9632053 43.6031714,86.9632053 C67.6438246,86.9632053 87.203707,67.4578578 87.203707,43.4816041 Z" id="Path" fill="#FFEDA1"></path>
                    <path d="M87.1536278,41.4025406 C85.7856749,50.0289454 79.3122789,58.2242929 73.4767339,64.0409394 C66.5658039,70.9220874 57.638527,75.77674 47.9099829,77.0804258 C34.8498538,78.828311 21.6711162,74.1707883 14.3411023,62.9002143 C7.01108843,51.6296403 5.85663101,35.0575859 10.4138385,22.9301539 C13.2103666,15.5075557 20.6431747,7.80897566 26.8503601,3.34069771 C11.0991328,9.91169469 1.70530257e-13,25.4192476 1.70530257e-13,43.4816041 C1.70530257e-13,67.4578578 19.5598824,86.9632053 43.6031714,86.9632053 C67.6464604,86.9632053 87.203707,67.4578578 87.203707,43.4816041 C87.203707,42.795592 87.1852568,42.0990663 87.1536278,41.4025406 Z" id="Path" fill="#FAE89C"></path>
                    <path d="M52.4698261,0.901543635 C52.4698261,0.901543635 35.0738924,-0.594015278 25.2003821,16.2592778 C15.3268719,33.1125708 18.3474386,51.0198518 34.5309284,62.2562566 C48.4424039,71.9051086 64.1672736,67.8310905 71.0096742,62.1511207 C59.3004795,68.5459157 44.8721256,67.2208019 34.5311459,58.8008978 C24.1901661,50.3809937 20.002638,36.5485553 23.9440155,23.8289945 C27.885393,11.1094336 39.1682081,2.04405685 52.4698261,0.909428831 L52.4698261,0.901543635 Z" id="Path" fill="#FFEDA1"></path>
                    <path d="M19.0169184,13.0815436 C17.2773251,13.9094893 15.8013064,16.214595 16.2599265,18.1543533 C16.5920307,19.5684319 18.6505495,20.1834772 19.6389548,19.0427521 C19.9924555,18.6498705 20.2671389,18.1930438 20.4481293,17.6970119 C20.492937,17.5682204 20.5324733,17.434172 20.577281,17.3080089 C20.5904597,17.2685829 20.6589891,17.0688246 20.6668964,17.0293986 C20.7636053,16.8168133 20.8736459,16.6105137 20.9963648,16.4117249 C21.1184034,16.2266528 21.2259109,16.0324487 21.317926,15.8308488 C21.4312632,15.5680089 21.4418062,15.5206977 21.4233559,15.5496101 L21.4470777,15.5049273 C21.8256123,14.809311 21.700316,13.9482724 21.1391208,13.3886419 C20.5779256,12.8290114 19.7144796,12.7040644 19.0169184,13.0815436 Z" id="Path" fill="#FAE89C"></path>
                    <path d="M14.0775276,24.5439908 C13.5846632,24.4185912 13.0805652,24.7041856 12.9362489,25.1905769 C12.8729909,25.435018 12.8070972,25.6768306 12.7412036,25.9212717 C12.6178686,26.283121 12.6562638,26.6803602 12.8466335,27.0120572 C13.0673249,27.370442 13.5312267,27.4930333 13.9009325,27.2906675 C14.2252971,27.1004 14.4526219,26.7809282 14.5256046,26.4127823 C14.5914983,26.1683412 14.657392,25.9265285 14.72065,25.6820874 C14.8497653,25.1917651 14.5649983,24.6878292 14.0775276,24.5439908 Z" id="Path" fill="#FAE89C"></path>
                    <path d="M20.4059574,61.7989152 C19.9367943,60.5477974 18.9668392,60.0168609 18.0495991,59.1337189 C17.2633816,58.4150403 16.5716951,57.5998718 15.9910803,56.7077068 C15.200356,55.4460754 13.1602874,56.2529938 13.5635568,57.7275255 C13.8665783,58.9728946 14.3542926,60.1661905 15.0105822,61.2679787 C15.7354128,62.4060754 16.6737389,63.8753503 18.1154928,64.0829938 C19.3622014,64.2538397 20.9594644,63.2708186 20.4059574,61.7989152 Z" id="Path" fill="#FAE89C"></path>
                    <path d="M23.479239,60.2691871 C21.9900416,60.2691871 21.9874059,62.5795497 23.479239,62.5795497 C24.9710721,62.5795497 24.9737078,60.2691871 23.479239,60.2691871 Z" id="Path" fill="#FAE89C"></path>
                    <path d="M38.8456471,72.4307883 L37.8994137,72.1285225 C37.3664537,71.9807873 36.796908,72.1703361 36.4597478,72.6076534 C36.1225876,73.0449707 36.0852662,73.6425655 36.3654087,74.1182204 C36.5580087,74.4110452 36.8440317,74.6305207 37.1772189,74.7411509 L38.1076378,75.1012415 C38.4686536,75.1996281 38.854161,75.1494436 39.1777513,74.9619364 C39.6599937,74.6807495 39.9263952,74.138836 39.8539212,73.5864723 C39.7814473,73.0341087 39.3842014,72.5787854 38.8456471,72.4307883 L38.8456471,72.4307883 Z" id="Path" fill="#FAE89C"></path>
                    <path d="M55.3796914,72.817163 C55.1978248,71.4714228 53.9458447,70.7407279 52.6543284,71.0061962 C51.3048257,71.2848065 49.7550061,71.6264983 48.3896889,71.6107279 C46.7739757,71.5923291 46.3891565,74.0735376 48.0048698,74.4546554 C48.8667592,74.6570421 49.6706622,74.9803352 50.5562734,75.1038699 C51.4441642,75.2207833 52.3386035,75.2813583 53.2341929,75.2852294 C53.8610137,75.2803053 54.4554478,75.0068432 54.8660422,74.5345174 C55.2766366,74.0621916 55.4637437,73.4366105 55.3796914,72.817163 Z" id="Path" fill="#FAE89C"></path>
                    <path d="M59.7392178,68.6564077 C58.170948,68.6564077 58.1577692,71.0876766 59.7392178,71.0876766 C61.3206663,71.0876766 61.312759,68.6564077 59.7392178,68.6564077 Z" id="Path" fill="#FAE89C"></path>
                    <path d="M25.9304842,75.8135376 C26.1176223,75.9554711 25.8540475,75.737314 25.7934253,75.6873745 C25.6263068,75.5440891 25.4502363,75.4115265 25.2662758,75.2904862 C25.0027011,75.1248971 24.7391263,74.9829636 24.4755516,74.8121177 C23.9963708,74.5149494 23.5019321,74.2429767 22.9942615,73.997314 C22.5974186,73.7813729 22.1101621,73.819376 21.7518118,74.0942178 C21.3934614,74.3690596 21.2315721,74.8289279 21.339012,75.2668306 C21.4120124,75.6084871 21.5053066,75.9455161 21.6184012,76.2761358 C21.8004903,76.6911017 22.0478494,77.0744155 22.3511391,77.4116041 C22.82074,78.035247 23.4171342,78.55295 24.1012754,78.9308186 C24.9289001,79.3881599 26.1149865,79.1568609 26.5788781,78.2816041 C27.0875774,77.3248669 26.7343872,76.4312113 25.9304842,75.8135376 Z" id="Path" fill="#F4E08C"></path>
                    <path d="M30.0870581,79.8376161 C28.5583245,79.8376161 28.5556887,82.2031751 30.0870581,82.2031751 C31.6184274,82.2031751 31.6210631,79.8376161 30.0870581,79.8376161 Z" id="Path" fill="#F4E08C"></path>
                    <path d="M68.3238475,73.140456 C67.5542092,73.3060451 66.8161999,73.6030542 66.0360186,73.7239606 C65.1583147,73.8580089 64.6469797,74.893598 64.7524096,75.6847461 C64.8578395,76.4758941 65.6222063,77.3064681 66.5130889,77.2328729 C67.7729762,77.127737 69.0223206,76.8228427 69.894753,75.829308 C70.3905576,75.3064929 70.4815996,74.5203988 70.1183537,73.8986463 C69.7551078,73.2768938 69.0244512,72.9681868 68.3238475,73.140456 Z" id="Path" fill="#F4E08C"></path>
                    <path d="M48.5399265,79.0122989 C48.3925636,78.8672038 48.2202607,78.7496879 48.0312272,78.6653503 C47.7255241,78.4959731 47.3537965,78.4959731 47.0480934,78.6653503 C46.7513785,78.8410465 46.5694948,79.1596893 46.5694948,79.5038095 C46.5694948,79.8479297 46.7513785,80.1665725 47.0480934,80.3422687 C47.3537965,80.5116459 47.7255241,80.5116459 48.0312272,80.3422687 C48.2203788,80.2569918 48.3926698,80.1385938 48.5399265,79.9926917 C48.80402,79.7189522 48.80402,79.2860384 48.5399265,79.0122989 L48.5399265,79.0122989 Z" id="Path" fill="#F4E08C"></path>
                    <path d="M8.44757083,51.443024 C8.22880379,50.3916645 7.65684657,49.4112717 7.35637136,48.3861962 C6.89511554,46.8853805 4.73907406,47.2086735 4.65736589,48.7515436 C4.58092921,50.1367098 4.61782967,51.5245044 5.20032988,52.8097914 C5.55879154,53.598311 6.68425574,53.8611509 7.41699355,53.5352294 C8.22877496,53.1844595 8.66536801,52.2981191 8.44757083,51.443024 L8.44757083,51.443024 Z" id="Path" fill="#F4E08C"></path>
                    <path d="M3.60570262,44.430456 C3.53707605,44.1779254 3.37132876,43.9625824 3.1444468,43.8311811 C2.94951943,43.7233777 2.72467259,43.6818554 2.50396015,43.7129032 C2.00703393,43.7751672 1.63424161,44.1964872 1.63416347,44.6959243 C1.63416347,44.6959243 1.63416347,44.8036886 1.63416347,44.8799122 C1.62991465,44.9111452 1.62285757,44.9419339 1.61307749,44.9719062 C1.55218587,45.1899928 1.52376755,45.4158198 1.52873357,45.6421479 C1.53349408,46.0265168 1.76725472,46.3711622 2.1232284,46.5186423 C2.47920207,46.6661224 2.8890454,46.5881225 3.16553278,46.3202748 C3.72167551,45.8392778 3.71640402,45.0954409 3.60570262,44.430456 Z" id="Path" fill="#F4E08C"></path>
                    <path d="M6.12020576,27.0409696 C5.9225247,27.7900633 5.21878011,29.5248065 6.38378052,29.8428427 C7.54878093,30.160879 7.80971993,28.2999726 8.007401,27.5561358 C8.32632645,26.3470723 6.44967421,25.8319062 6.12020576,27.0409696 Z" id="Path" fill="#F4E08C"></path>
                </g>
            </g>
        </g>
    </g>
</svg>