<?xml version="1.0" encoding="UTF-8"?>
<svg width="1177px" height="571px" viewBox="0 0 1177 571" version="1.1" xmlns="http://www.w3.org/2000/svg" xmlns:xlink="http://www.w3.org/1999/xlink">
    <!-- Generator: Sketch 52.6 (67491) - http://www.bohemiancoding.com/sketch -->
    <title>rainbow-library</title>
    <desc>Created with Sketch.</desc>
    <defs>
        <polygon id="path-1" points="26.1622262 3.57259973 59.9551107 0 93.747995 3.57259973 119.910236 38.6930927 59.9551107 108.510191 0 38.6930927"></polygon>
        <polygon id="path-3" points="24.2848437 2.026426 59.9551107 71.843524 0 2.026426"></polygon>
        <polygon id="path-5" points="38.9587107 2.026426 3.288444 71.843524 63.2435697 2.026426"></polygon>
        <polygon id="path-7" points="0.951510367 2.026426 72.292044 2.026426 36.6217773 71.843524"></polygon>
        <polygon id="path-9" points="36.6217773 0 2.82889283 3.57259973 0.951510367 38.6930927"></polygon>
        <polygon id="path-11" points="3.288444 0 37.0813283 3.57259973 38.9587107 38.6930927"></polygon>
        <polygon id="path-13" points="26.576903 35.3597593 0.414661667 0.2392664 2.292044 35.3597593"></polygon>
        <polygon id="path-15" points="0 35.3597593 26.1622262 0.2392664 24.2848437 35.3597593"></polygon>
        <polygon id="path-17" points="36.6217773 0 0.951510367 38.6930927 72.292044 38.6930927"></polygon>
    </defs>
    <g id="designs-image" stroke="none" stroke-width="1" fill="none" fill-rule="evenodd">
        <g id="rainbow-library" transform="translate(-15.000000, -16.000000)">
            <g transform="translate(15.000000, 16.000000)">
                <g id="rainbow-logo" transform="translate(382.000000, 84.000000)">
                    <rect id="Rectangle-path" fill="#323B45" x="17.7066667" y="17.1022222" width="364.088889" height="364.088889"></rect>
                    <path d="M303.751111,0.32 L377.706667,0.32 C389.979661,0.32 399.928889,10.2692278 399.928889,22.5422222 L399.928889,96.4977778 C399.928889,108.770772 389.979661,118.72 377.706667,118.72 L303.751111,118.72 C291.478117,118.72 281.528889,108.770772 281.528889,96.4977778 L281.528889,22.5422222 C281.528889,10.2692278 291.478117,0.32 303.751111,0.32 Z" id="Rectangle-path" fill="#1DE9B6" fill-rule="nonzero"></path>
                    <path d="M163.022222,0.32 L236.977778,0.32 C249.250772,0.32 259.2,10.2692278 259.2,22.5422222 L259.2,96.4977778 C259.2,108.770772 249.250772,118.72 236.977778,118.72 L163.022222,118.72 C150.749228,118.72 140.8,108.770772 140.8,96.4977778 L140.8,22.5422222 C140.8,10.2692278 150.749228,0.32 163.022222,0.32 Z" id="Rectangle-path" fill="#01B6F5" fill-rule="nonzero"></path>
                    <path d="M23.3244444,0.32 L97.28,0.32 C109.552994,0.32 119.502222,10.2692278 119.502222,22.5422222 L119.502222,96.4977778 C119.502222,108.770772 109.552994,118.72 97.28,118.72 L23.3244444,118.72 C11.05145,118.72 1.10222222,108.770772 1.10222222,96.4977778 L1.10222222,22.5422222 C1.10222222,10.2692278 11.05145,0.32 23.3244444,0.32 Z" id="Rectangle-path" fill="#FE4849" fill-rule="nonzero"></path>
                    <path d="M302.968889,139.946667 L376.924444,139.946667 C389.197439,139.946667 399.146667,149.895894 399.146667,162.168889 L399.146667,236.124444 C399.146667,248.397439 389.197439,258.346667 376.924444,258.346667 L302.968889,258.346667 C290.695894,258.346667 280.746667,248.397439 280.746667,236.124444 L280.746667,162.168889 C280.746667,149.895894 290.695894,139.946667 302.968889,139.946667 Z" id="Rectangle-path" fill="#F4F6F9" fill-rule="nonzero"></path>
                    <path d="M162.275556,139.946667 L236.231111,139.946667 C248.504106,139.946667 258.453333,149.895894 258.453333,162.168889 L258.453333,236.124444 C258.453333,248.397439 248.504106,258.346667 236.231111,258.346667 L162.275556,258.346667 C150.002561,258.346667 140.053333,248.397439 140.053333,236.124444 L140.053333,162.168889 C140.053333,149.895894 150.002561,139.946667 162.275556,139.946667 Z" id="Rectangle-path" fill="#FFCC00" fill-rule="nonzero"></path>
                    <path d="M22.5422222,139.946667 L96.4977778,139.946667 C108.770772,139.946667 118.72,149.895894 118.72,162.168889 L118.72,236.124444 C118.72,248.397439 108.770772,258.346667 96.4977778,258.346667 L22.5422222,258.346667 C10.2692278,258.346667 0.32,248.397439 0.32,236.124444 L0.32,162.168889 C0.32,149.895894 10.2692278,139.946667 22.5422222,139.946667 Z" id="Rectangle-path" fill="#F8752D" fill-rule="nonzero"></path>
                    <path d="M302.968889,279.537778 L376.924444,279.537778 C389.197439,279.537778 399.146667,289.487006 399.146667,301.76 L399.146667,375.715556 C399.146667,387.98855 389.197439,397.937778 376.924444,397.937778 L302.968889,397.937778 C290.695894,397.937778 280.746667,387.98855 280.746667,375.715556 L280.746667,301.76 C280.746667,289.487006 290.695894,279.537778 302.968889,279.537778 Z" id="Rectangle-path" fill="#01B6F5" fill-rule="nonzero"></path>
                    <path d="M162.275556,279.537778 L236.231111,279.537778 C248.504106,279.537778 258.453333,289.487006 258.453333,301.76 L258.453333,375.715556 C258.453333,387.98855 248.504106,397.937778 236.231111,397.937778 L162.275556,397.937778 C150.002561,397.937778 140.053333,387.98855 140.053333,375.715556 L140.053333,301.76 C140.053333,289.487006 150.002561,279.537778 162.275556,279.537778 Z" id="Rectangle-path" fill="#EA4243" fill-rule="nonzero"></path>
                    <path d="M22.5422222,279.537778 L96.4977778,279.537778 C108.770772,279.537778 118.72,289.487006 118.72,301.76 L118.72,375.715556 C118.72,387.98855 108.770772,397.937778 96.4977778,397.937778 L22.5422222,397.937778 C10.2692278,397.937778 0.32,387.98855 0.32,375.715556 L0.32,301.76 C0.32,289.487006 10.2692278,279.537778 22.5422222,279.537778 Z" id="Rectangle-path" fill="#1AD1A3" fill-rule="nonzero"></path>
                </g>
                <g id="sketch-symbol" transform="translate(1057.000000, 462.000000)">
                    <g id="Fill-4-Clipped">
                        <mask id="mask-2" fill="white">
                            <use xlink:href="#path-1"></use>
                        </mask>
                        <g id="path-1"></g>
                        <polygon id="Fill-4" fill="#FDB300" fill-rule="nonzero" mask="url(#mask-2)" points="-1.52477764 110.034968 121.435014 110.034968 121.435014 -1.52477764 -1.52477764 -1.52477764"></polygon>
                    </g>
                    <g id="Fill-7-Clipped" transform="translate(0.000000, 36.666667)">
                        <mask id="mask-4" fill="white">
                            <use xlink:href="#path-3"></use>
                        </mask>
                        <g id="path-3"></g>
                        <polygon id="Fill-7" fill="#EA6C00" fill-rule="nonzero" mask="url(#mask-4)" points="-1.52477764 73.3683017 61.4798883 73.3683017 61.4798883 0.501648333 -1.52477764 0.501648333"></polygon>
                    </g>
                    <g id="Fill-10-Clipped" transform="translate(56.666667, 36.666667)">
                        <mask id="mask-6" fill="white">
                            <use xlink:href="#path-5"></use>
                        </mask>
                        <g id="path-5"></g>
                        <polygon id="Fill-10" fill="#EA6C00" fill-rule="nonzero" mask="url(#mask-6)" points="1.76366633 73.3683017 64.768332 73.3683017 64.768332 0.501648333 1.76366633 0.501648333"></polygon>
                    </g>
                    <g id="Fill-13-Clipped" transform="translate(23.333333, 36.666667)">
                        <mask id="mask-8" fill="white">
                            <use xlink:href="#path-7"></use>
                        </mask>
                        <g id="path-7"></g>
                        <polygon id="Fill-13" fill="#FDAD00" fill-rule="nonzero" mask="url(#mask-8)" points="-0.573267267 73.3683017 73.8168217 73.3683017 73.8168217 0.501648333 -0.573267267 0.501648333"></polygon>
                    </g>
                    <g id="Fill-16-Clipped" transform="translate(23.333333, 0.000000)">
                        <mask id="mask-10" fill="white">
                            <use xlink:href="#path-9"></use>
                        </mask>
                        <g id="path-9"></g>
                        <polygon id="Fill-16" fill="#FDD231" fill-rule="nonzero" mask="url(#mask-10)" points="-0.573267267 40.2178703 38.146555 40.2178703 38.146555 -1.52477764 -0.573267267 -1.52477764"></polygon>
                    </g>
                    <g id="Fill-19-Clipped" transform="translate(56.666667, 0.000000)">
                        <mask id="mask-12" fill="white">
                            <use xlink:href="#path-11"></use>
                        </mask>
                        <g id="path-11"></g>
                        <polygon id="Fill-19" fill="#FDD231" fill-rule="nonzero" mask="url(#mask-12)" points="1.76366633 40.2178703 40.4834883 40.2178703 40.4834883 -1.52477764 1.76366633 -1.52477764"></polygon>
                    </g>
                    <g id="Fill-22-Clipped" transform="translate(93.333333, 3.333333)">
                        <mask id="mask-14" fill="white">
                            <use xlink:href="#path-13"></use>
                        </mask>
                        <g id="path-13"></g>
                        <polygon id="Fill-22" fill="#FDAD00" fill-rule="nonzero" mask="url(#mask-14)" points="-1.110116 36.884537 28.1016653 36.884537 28.1016653 -1.28551122 -1.110116 -1.28551122"></polygon>
                    </g>
                    <g id="Fill-25-Clipped" transform="translate(0.000000, 3.333333)">
                        <mask id="mask-16" fill="white">
                            <use xlink:href="#path-15"></use>
                        </mask>
                        <g id="path-15"></g>
                        <polygon id="Fill-25" fill="#FDAD00" fill-rule="nonzero" mask="url(#mask-16)" points="-1.52477764 36.884537 27.6870038 36.884537 27.6870038 -1.28551122 -1.52477764 -1.28551122"></polygon>
                    </g>
                    <g id="Fill-28-Clipped" transform="translate(23.333333, 0.000000)">
                        <mask id="mask-18" fill="white">
                            <use xlink:href="#path-17"></use>
                        </mask>
                        <g id="path-17"></g>
                        <polygon id="Fill-28" fill="#FEEEB7" fill-rule="nonzero" mask="url(#mask-18)" points="-0.573267267 40.2178703 73.8168217 40.2178703 73.8168217 -1.52477764 -0.573267267 -1.52477764"></polygon>
                    </g>
                </g>
                <path d="M152.372119,168.907749 L174.24396,168.907749 L151.409743,168.907749 C151.730059,168.969526 152.051802,168.969526 152.372119,168.907749 Z" id="Path" fill="#FFA83D"></path>
                <path d="M174.368311,146.784079 C174.445645,146.61505 174.445645,146.444594 174.368311,146.275406 L174.368311,146.440317 C174.406978,146.554376 174.406978,146.669861 174.368311,146.784079 Z" id="Path" fill="#FFA83D"></path>
                <path d="M95.2753864,99 C94.0209079,99.0091663 93.0094684,100.034224 93.0186347,101.288703 C93.0209918,101.663737 93.1163216,102.034057 93.298077,102.363783 C96.5138892,107.754636 94.7502863,114.729693 89.3594338,117.943148 C88.3254712,118.559125 87.2003691,119.009062 86.0252449,119.27279 C84.4138032,119.613778 82.7502444,119.613778 81.1388027,119.27279 C75.0046914,117.943148 71.111618,111.893367 72.4409985,105.759255 C72.6863943,104.622892 73.1069982,103.532098 73.6842154,102.523015 C74.3819044,101.479886 74.1024621,100.068533 73.0593332,99.3708437 C72.7571061,99.1686606 72.4093091,99.0413795 72.0478936,99.0002619 L58.41153,99.0002619 L58.41153,111.727587 C58.4660042,112.027457 58.4660042,112.336755 58.41153,112.636626 C58.038853,114.004766 56.6251423,114.811666 55.2570013,114.436632 C55.1229109,114.400228 54.9911776,114.352563 54.8659916,114.295732 C53.1456015,113.27984 51.1819107,112.752645 49.1841735,112.773073 C42.970446,112.809476 37.9637938,117.875317 38.0001973,124.089044 C38.0366007,130.302772 43.1024412,135.309424 49.3161687,135.273021 C51.3547616,135.261759 53.3501417,134.695803 55.0933168,133.636699 C56.195634,133.03434 57.5750365,133.438968 58.1773956,134.538928 C58.361508,134.875202 58.4568379,135.252593 58.4568379,135.636531 L58.4112681,149 L94.7746426,149 C102.306489,149 108.411006,142.895483 108.411006,135.363636 L108.411006,99 L95.2753864,99 Z" id="Path" fill="#F4F6F9"></path>
                <path d="M1160.40474,73.9385174 C1160.99611,70.6878797 1160.39369,67.333421 1158.707,64.4908092 C1157.87454,63.2282326 1158.22229,61.5304915 1159.48487,60.6980303 C1159.95853,60.3859363 1160.51992,60.2268914 1161.08952,60.2461409 L1177,60.2461409 L1177,16.4308518 C1177,7.35551056 1169.64449,0 1160.56915,0 L1117,0 L1117,15.9379388 C1117.01104,17.4494964 1118.24617,18.6682094 1119.75772,18.6571646 C1120.20961,18.6543246 1120.65582,18.5394588 1121.05312,18.3204565 C1123.9396,16.564967 1127.37894,15.9600284 1130.69238,16.6227154 C1138.13277,17.967339 1143.07579,25.0899624 1141.73116,32.5332001 C1140.38654,39.9735977 1133.26392,44.9166119 1125.82068,43.5719883 C1124.2681,43.289873 1122.77548,42.7448918 1121.40908,41.9534541 C1120.10011,41.1948352 1118.42415,41.6413601 1117.66837,42.9503248 C1117.4055,43.4022142 1117.27959,43.9225813 1117.30136,44.445473 L1117,60.2464565 L1132.55453,60.2464565 C1134.06356,60.1644095 1135.35612,61.3200095 1135.43816,62.831567 C1135.46814,63.3629789 1135.33971,63.8940753 1135.074,64.3541694 C1133.86349,66.4327977 1133.22826,68.796066 1133.2393,71.2003576 C1133.2393,78.7613012 1139.37074,84.8927341 1146.9342,84.889894 C1153.55319,84.889894 1159.22452,80.1523128 1160.40474,73.6374681 L1160.40474,73.9385174 Z" id="Path" fill="#F4F6F9"></path>
                <path d="M1000.54785,254 C999.418817,254.00825 998.508522,254.930802 998.516771,256.059833 C998.518893,256.397363 998.604689,256.730651 998.768269,257.027405 C1001.6625,261.879172 1000.07526,268.156723 995.22349,271.048833 C994.292924,271.603213 993.280332,272.008155 992.22272,272.245511 C990.772423,272.5524 989.27522,272.5524 987.824922,272.245511 C982.304222,271.048833 978.800456,265.60403 979.996899,260.08333 C980.217755,259.060603 980.596298,258.078888 981.115794,257.170714 C981.743714,256.231898 981.492216,254.961679 980.5534,254.333759 C980.281395,254.151795 979.968378,254.037242 979.643104,254.000236 L967.370377,254.000236 L967.370377,265.454828 C967.419404,265.724711 967.419404,266.00308 967.370377,266.272963 C967.034968,267.50429 965.762628,268.230499 964.531301,267.892969 C964.41062,267.860206 964.29206,267.817307 964.179392,267.766159 C962.631041,266.851856 960.86372,266.377381 959.065756,266.395766 C953.473401,266.428529 948.967414,270.987785 949.000178,276.58014 C949.032941,282.172495 953.592197,286.678482 959.184552,286.645719 C961.019285,286.635583 962.815128,286.126223 964.383985,285.173029 C965.376071,284.630906 966.617533,284.995071 967.159656,285.985035 C967.325357,286.287681 967.411154,286.627333 967.411154,286.972878 L967.370141,299 L1000.09718,299 C1006.87584,299 1012.36991,293.505935 1012.36991,286.727273 L1012.36991,254 L1000.54785,254 Z" id="Path" fill="#F4F6F9" opacity="0.809244792"></path>
                <path d="M60.6684252,550.830368 C53.845461,555.302088 44.6920152,553.394 40.2199546,546.574099 C35.7482344,539.754198 37.6563226,530.597689 44.4762235,526.125629 C46.9986713,524.471453 49.9700609,523.629729 52.9856981,523.715501 C55.5820051,523.688953 58.1340647,524.374108 60.3699248,525.694386 C62.0475857,526.46225 64.02647,525.723997 64.7946746,524.046337 C64.8685339,523.880919 64.9304804,523.712438 64.9777912,523.538171 C65.0074029,523.293108 65.0074029,523.044982 64.9777912,522.799919 L64.9777912,505.816367 L56.855312,505.816367 L48.2011821,505.816367 C46.5735549,505.904862 45.1794184,504.658444 45.0909234,503.028094 C45.0585887,502.454919 45.1971174,501.882084 45.483705,501.385831 C46.7893466,499.143845 47.4745021,496.594848 47.4625893,494.001605 C47.459526,485.713708 40.7430961,478.996938 32.454859,479.000001 C32.0205528,479.000001 31.5893099,479.0177 31.158067,479.056161 C30.5021829,479.091559 29.8497025,479.180054 29.2087945,479.321987 C25.8711717,480.060239 22.899782,481.953692 20.82049,484.668106 C17.5713622,488.3335 16.6380803,493.505352 18.39845,498.07782 C18.7115862,499.185369 19.1663143,500.248671 19.7571886,501.238113 C20.4661696,502.345662 20.4661696,503.763624 19.7571886,504.871173 L19.5798582,505.048503 C19.2636588,505.337814 18.8916394,505.556669 18.486945,505.698261 L17.7218037,505.816367 L0,505.816367 L0,553.075078 C0.112320572,562.136965 6.92030869,569.716221 15.9202498,570.797222 L64.9808544,570.797222 L64.9808544,553.429739 C64.9689417,551.799388 63.6340287,550.487961 62.0036786,550.499533 C61.5397606,550.502596 61.0819691,550.61764 60.6684252,550.830368 Z" id="Path" fill="#F4F6F9" opacity="0.90406436"></path>
                <polygon id="Path" fill="#FFA83D" points="174.386975 138.693661 174.386975 138.693661 174.386975 138.732328"></polygon>
                <path d="M109.372119,501.907749 L131.24396,501.907749 L108.409743,501.907749 C108.730059,501.969526 109.051802,501.969526 109.372119,501.907749 Z" id="Path" fill="#FFA83D"></path>
                <path d="M131.368311,479.784079 C131.445645,479.61505 131.445645,479.444594 131.368311,479.275406 L131.368311,479.440317 C131.406978,479.554376 131.406978,479.669861 131.368311,479.784079 Z" id="Path" fill="#FFA83D"></path>
                <polygon id="Path" fill="#FFA83D" points="131.386975 471.693661 131.386975 471.693661 131.386975 471.732328"></polygon>
            </g>
        </g>
    </g>
</svg>