<?xml version="1.0" encoding="UTF-8"?>
<svg width="23px" height="18px" viewBox="0 0 23 18" version="1.1" xmlns="http://www.w3.org/2000/svg" xmlns:xlink="http://www.w3.org/1999/xlink">
    <!-- Generator: Sketch 52.6 (67491) - http://www.bohemiancoding.com/sketch -->
    <title>live</title>
    <desc>Created with Sketch.</desc>
    <g id="designs-page" stroke="none" stroke-width="1" fill="none" fill-rule="evenodd">
        <g id="designs-details-card-hover-preview" transform="translate(-354.000000, -485.000000)">
            <g id="Sketch" transform="translate(341.000000, 470.000000)">
                <g id="live" transform="translate(13.000000, 15.000000)">
                    <path d="M15.1523766,17.4502099 C14.8908573,17.2779392 13.3936939,16.7126978 13.3936939,16.7126978 L13.3860836,16.7124671 L12.9921903,13.5555556 L9.08531331,13.5555556 L8.69142003,16.7124671 L8.68380968,16.7126978 C8.68380968,16.7126978 7.18641565,17.2779392 6.92489635,17.4502099 L6.70304311,17.789447 C6.6114883,17.8496379 6.70465743,17.9520317 6.85017655,17.9520317 L11.0386365,17.9520317 L15.2270964,17.9520317 C15.3726156,17.9520317 15.4657847,17.8496379 15.3744605,17.789447 L15.1523766,17.4502099 Z" id="Fill-2" fill="#B3B5BD"></path>
                    <g id="Group-26">
                        <path d="M20.9516828,0.0082334918 L1.07434649,0.0082334918 C0.4810545,0.0082334918 2.84217094e-13,0.513358782 2.84217094e-13,1.13660734 L2.84217094e-13,13.5468318 C2.84217094e-13,14.1700804 0.4810545,14.6752057 1.07434649,14.6752057 L20.9516828,14.6752057 C21.5452316,14.6752057 22.0262861,14.1700804 22.0262861,13.5468318 L22.0262861,1.13660734 C22.0262861,0.513358782 21.5452316,0.0082334918 20.9516828,0.0082334918" id="Fill-4" fill="#CED0D9"></path>
                        <path d="M7.45686549,13.4617642 L14.7613112,13.4617642 C18.1739271,13.4617642 20.9403989,10.6952924 20.9403989,7.28267646 L20.9403989,7.28267646 C20.9403989,3.87006055 18.1739271,1.10358875 14.7613112,1.10358875 L7.45686549,1.10358875 C4.04424958,1.10358875 1.27777778,3.87006055 1.27777778,7.28267646 L1.27777778,7.28267646 C1.27777778,10.6952924 4.04424958,13.4617642 7.45686549,13.4617642 Z" id="Fill-6" fill="#576574"></path>
                    </g>
                    <g id="browser" transform="translate(0.166667, 0.888889)" fill="#F4F6F9" fill-rule="nonzero">
                        <path d="M0.833333333,12.3794338 C0.833333333,12.5747463 1.06802083,12.7331197 1.26333333,12.7331197 L20.4795807,12.7331197 C20.6748932,12.7331197 20.8332666,12.5747463 20.8332666,12.3794338 L20.8332666,0.611111111 L0.833333333,0.611111111 L0.833333333,12.3794338 Z" id="Shape"></path>
                        <path d="M20.4764422,0.111111111 L1.19022448,0.111111111 C0.993141978,0.111111111 0.833333333,0.260376678 0.833333333,0.444457031 L0.833333333,1.11111111 L20.8333333,1.11111111 L20.8333333,0.444457031 C20.8333333,0.260338918 20.6735247,0.111111111 20.4764422,0.111111111 Z" id="Shape"></path>
                    </g>
                    <path d="M5.42857143,4.02764977 L5.42857143,10.9262673 L4,10.9262673 L4,4.02764977 L5.42857143,4.02764977 Z M8.05529954,6.14746544 L8.05529954,10.9262673 L6.62672811,10.9262673 L6.62672811,6.14746544 L8.05529954,6.14746544 Z M8.22119816,4.83870968 C8.22119816,4.95238152 8.19815691,5.05913929 8.15207373,5.15898618 C8.10599055,5.25883306 8.04301115,5.34638979 7.96313364,5.42165899 C7.88325613,5.49692818 7.79032311,5.55683541 7.6843318,5.60138249 C7.57834048,5.64592956 7.46543839,5.66820276 7.34562212,5.66820276 C7.22887806,5.66820276 7.11981618,5.64592956 7.01843318,5.60138249 C6.91705018,5.55683541 6.82718933,5.49692818 6.74884793,5.42165899 C6.67050652,5.34638979 6.6090632,5.25883306 6.56451613,5.15898618 C6.51996906,5.05913929 6.49769585,4.95238152 6.49769585,4.83870968 C6.49769585,4.72196562 6.51996906,4.61290373 6.56451613,4.51152074 C6.6090632,4.41013774 6.67050652,4.32104493 6.74884793,4.24423963 C6.82718933,4.16743433 6.91705018,4.1075271 7.01843318,4.06451613 C7.11981618,4.02150516 7.22887806,4 7.34562212,4 C7.46543839,4 7.57834048,4.02150516 7.6843318,4.06451613 C7.79032311,4.1075271 7.88325613,4.16743433 7.96313364,4.24423963 C8.04301115,4.32104493 8.10599055,4.41013774 8.15207373,4.51152074 C8.19815691,4.61290373 8.22119816,4.72196562 8.22119816,4.83870968 Z M11.8525346,10.9262673 L10.5529954,10.9262673 L8.70046083,6.14746544 L9.88940092,6.14746544 C9.99078392,6.14746544 10.0760365,6.17127472 10.1451613,6.21889401 C10.2142861,6.26651329 10.2611366,6.32565249 10.2857143,6.39631336 L10.9493088,8.53917051 C11.0015364,8.71428659 11.0514591,8.8847918 11.0990783,9.05069124 C11.1466976,9.21659069 11.1874038,9.38248765 11.2211982,9.5483871 C11.2549925,9.38248765 11.2964667,9.21659069 11.3456221,9.05069124 C11.3947775,8.8847918 11.4470043,8.71428659 11.5023041,8.53917051 L12.1935484,6.39631336 C12.2181261,6.32565249 12.2642086,6.26651329 12.3317972,6.21889401 C12.3993859,6.17127472 12.4792622,6.14746544 12.5714286,6.14746544 L13.7050691,6.14746544 L11.8525346,10.9262673 Z M16.1658986,6.07373272 C16.4823365,6.07373272 16.7718881,6.12288737 17.0345622,6.22119816 C17.2972363,6.31950894 17.5230405,6.46236465 17.7119816,6.64976959 C17.9009226,6.83717452 18.0483866,7.06681892 18.1543779,7.33870968 C18.2603692,7.61060044 18.3133641,7.91858507 18.3133641,8.26267281 C18.3133641,8.37020023 18.3087558,8.45775696 18.2995392,8.52534562 C18.2903225,8.59293429 18.2734256,8.64669719 18.2488479,8.68663594 C18.2242702,8.7265747 18.1912444,8.75422419 18.1497696,8.76958525 C18.1082947,8.78494631 18.0552999,8.79262673 17.9907834,8.79262673 L15.235023,8.79262673 C15.2811062,9.19201429 15.4024568,9.48156592 15.5990783,9.66129032 C15.7956999,9.84101472 16.0491536,9.93087558 16.359447,9.93087558 C16.5253465,9.93087558 16.6682022,9.9109065 16.7880184,9.87096774 C16.9078347,9.83102899 17.0145925,9.78648258 17.1082949,9.73732719 C17.2019974,9.6881718 17.288018,9.64362539 17.3663594,9.60368664 C17.4447009,9.56374788 17.5268813,9.5437788 17.6129032,9.5437788 C17.7265751,9.5437788 17.8125957,9.58525304 17.8709677,9.66820276 L18.2857143,10.1797235 C18.1382481,10.3486952 17.9792635,10.4861746 17.8087558,10.5921659 C17.638248,10.6981572 17.4631345,10.7811057 17.2834101,10.8410138 C17.1036857,10.900922 16.923964,10.9423962 16.7442396,10.9654378 C16.5645152,10.9884794 16.393242,11 16.2304147,11 C15.8955436,11 15.5814147,10.9454691 15.2880184,10.8364055 C14.9946222,10.727342 14.7380963,10.5652853 14.5184332,10.3502304 C14.29877,10.1351756 14.1251926,9.86789714 13.9976959,9.5483871 C13.8701991,9.22887705 13.8064516,8.85714498 13.8064516,8.43317972 C13.8064516,8.11366968 13.8609826,7.81106134 13.9700461,7.52534562 C14.0791096,7.23962991 14.2357901,6.98924839 14.4400922,6.77419355 C14.6443943,6.55913871 14.8917036,6.3886335 15.1820276,6.26267281 C15.4723517,6.13671212 15.8003054,6.07373272 16.1658986,6.07373272 Z M16.1935484,7.05990783 C15.9201215,7.05990783 15.706606,7.13748002 15.5529954,7.29262673 C15.3993848,7.44777343 15.2980033,7.6712735 15.2488479,7.96313364 L17.0322581,7.96313364 C17.0322581,7.8494618 17.0176653,7.73886382 16.9884793,7.63133641 C16.9592932,7.52380899 16.9116747,7.4278038 16.8456221,7.34331797 C16.7795696,7.25883214 16.6927809,7.19047645 16.5852535,7.13824885 C16.477726,7.08602124 16.347159,7.05990783 16.1935484,7.05990783 Z" fill="#01B6F5"></path>
                </g>
            </g>
        </g>
    </g>
</svg>