<?xml version="1.0" encoding="UTF-8"?>
<svg width="20px" height="20px" viewBox="0 0 20 20" version="1.1" xmlns="http://www.w3.org/2000/svg" xmlns:xlink="http://www.w3.org/1999/xlink">
    <!-- Generator: Sketch 52.6 (67491) - http://www.bohemiancoding.com/sketch -->
    <title>preview</title>
    <desc>Created with Sketch.</desc>
    <g id="designs-page" stroke="none" stroke-width="1" fill="none" fill-rule="evenodd">
        <g id="designs-details-card-hover-preview" transform="translate(-427.000000, -484.000000)">
            <g id="Group-5" transform="translate(413.000000, 470.000000)">
                <g id="preview" transform="translate(14.000000, 14.000000)">
                    <path d="M20,5.51722656 L20,0 L14.4827734,0 L16.51,2.02722656 L12.8510156,5.68621094 C12.0334375,5.14449219 11.0541016,4.82757813 10,4.82757813 C8.94589844,4.82757813 7.9665625,5.14449219 7.14898438,5.68621094 L3.49,2.02722656 L5.51722656,0 L0,0 L0,5.51722656 L2.02722656,3.49 L5.68621094,7.14898438 C5.14449219,7.9665625 4.82757813,8.94589844 4.82757813,10 C4.82757813,11.0541016 5.14449219,12.0334375 5.68621094,12.8510156 L2.02722656,16.51 L0,14.4827734 L0,20 L5.51722656,20 L3.49,17.9727734 L7.14898438,14.3137891 C7.9665625,14.8555078 8.94589844,15.1724219 10,15.1724219 C11.0541016,15.1724219 12.0334375,14.8555078 12.8510156,14.3137891 L16.51,17.9727734 L14.4827734,20 L20,20 L20,14.4827734 L17.9727734,16.51 L14.3137891,12.8510156 C14.8555078,12.0334375 15.1724219,11.0541016 15.1724219,10 C15.1724219,8.94589844 14.8555078,7.9665625 14.3137891,7.14898438 L17.9727734,3.49 L20,5.51722656 Z" fill="#01B6F5"></path>
                    <path d="M13.4482813,10 C13.4482813,8.09550781 11.9044922,6.55171875 10,6.55171875 C8.09550781,6.55171875 6.55171875,8.09550781 6.55171875,10 C6.55171875,11.9044922 8.09550781,13.4482813 10,13.4482813 C11.9044922,13.4482813 13.4482813,11.9044922 13.4482813,10" fill="#4CD1FF"></path>
                </g>
            </g>
        </g>
    </g>
</svg>