<?xml version="1.0"?><svg xmlns="http://www.w3.org/2000/svg" width="100" height="100" viewBox="0 0 100 100"><path fill="#fff" d="m79.4 72.9l-12 6.8c-0.6 0.4-1.5 0.4-2.1 0l-11.9-6.8c-0.5-0.3-0.5-0.9 0-1.1l2.8-1.6c0.2-0.1 0.4-0.1 0.6 0l7.3 4.1c0.7 0.4 1.5 0.6 2.3 0.6s1.6-0.2 2.3-0.6l7.3-4.1c0.2-0.1 0.4-0.1 0.6 0l2.8 1.6c0.5 0.2 0.5 0.8 0 1.1z m0-7.7l-12 6.8c-0.6 0.4-1.5 0.4-2.1 0l-11.9-6.8c-0.5-0.3-0.5-0.9 0-1.1l2.8-1.6c0.2-0.1 0.4-0.1 0.6 0l7.3 4.1c0.7 0.4 1.5 0.6 2.3 0.6s1.6-0.2 2.3-0.6l7.3-4.1c0.2-0.1 0.4-0.1 0.6 0l2.8 1.6c0.5 0.2 0.5 0.8 0 1.1z m-14-0.8l-12-6.8c-0.5-0.3-0.5-0.9 0-1.1l12-6.8c0.6-0.4 1.5-0.4 2.1 0l12 6.8c0.5 0.3 0.5 0.9 0 1.1l-12 6.8c-0.6 0.3-1.5 0.3-2.1 0z m-13.5-3.9c0.5-0.3 0.5-0.9 0-1.1l-2.8-1.6h-0.1v-1.3s0-1.7 1.5-2.6c0.4-0.2 1.2-0.6 2.1-1.1-0.4-0.2-0.8-0.4-1.2-0.5-1.8-0.9-4.4-1.8-5.2-4.1-0.5-1.2-0.2-2.5 0.4-3.6 1.1-1.1 2.1-2.1 3-3.5 0.2-0.4 0.4-0.6 0.6-1 2.5-3.6 2.8-8.5 1.4-12.6-1.5-4.4-5.4-7.4-10.2-7.5h-0.7c-4.8 0.1-8.8 3.1-10.2 7.5-1.5 4.2-1.1 9 1.4 12.6 0.1 0.4 0.4 0.6 0.6 1 0.9 1.4 2 2.3 3 3.5 0.5 1.1 0.7 2.3 0.4 3.6-0.7 2.2-3.3 3.2-5.2 4.1-4.2 1.8-9.4 4.4-10.2 9.5-0.9 4.2 2 8.4 6.4 8.4h22.1l2.9-1.9c0.5-0.3 0.5-0.9 0-1.1l-2.8-1.6h-0.1v-3.2l2.9-1.9z"></path></svg>