<?xml version="1.0" encoding="UTF-8"?>
<svg width="81px" height="30px" viewBox="0 0 81 30" version="1.1" xmlns="http://www.w3.org/2000/svg" xmlns:xlink="http://www.w3.org/1999/xlink">
    <!-- Generator: Sketch 51.2 (57519) - http://www.bohemiancoding.com/sketch -->
    <title>logo-react-lightning</title>
    <desc>Created with Sketch.</desc>
    <defs></defs>
    <g id="components" stroke="none" stroke-width="1" fill="none" fill-rule="evenodd">
        <g id="Components-Button-menu" transform="translate(-277.000000, -300.000000)">
            <g id="logo-react-lightning" transform="translate(274.000000, 296.000000)">
                <g id="react" fill-rule="nonzero">
                    <path d="M27.5039062,13.0078125 C27.1875,12.9023437 26.8710937,12.8027344 26.5546875,12.7089844 C26.6074219,12.4921875 26.6542969,12.2753906 26.7011719,12.0585937 C27.421875,8.56640625 26.9472656,5.75976562 25.3476562,4.83398437 C23.8066406,3.94921875 21.2929687,4.86914062 18.75,7.08398437 C18.4980469,7.30078125 18.2519531,7.52929687 18.0175781,7.7578125 C17.859375,7.60546875 17.6953125,7.453125 17.53125,7.30664062 C14.8652344,4.93945312 12.1933594,3.94335937 10.59375,4.875 C9.05859375,5.765625 8.6015625,8.40820312 9.24609375,11.7128906 C9.31054687,12.0410156 9.38085937,12.3632812 9.46289062,12.6914062 C9.08789062,12.796875 8.71875,12.9140625 8.37304687,13.0371094 C5.24414062,14.1210937 3,15.8320312 3,17.6015625 C3,19.4296875 5.390625,21.2636719 8.64257812,22.3769531 C8.90625,22.4648437 9.16992187,22.5527344 9.43945312,22.6289062 C9.3515625,22.9804687 9.27539062,23.3261719 9.20507812,23.6835937 C8.58984375,26.9355469 9.0703125,29.5136719 10.6054687,30.3984375 C12.1875,31.3125 14.8476562,30.375 17.4375,28.1074219 C17.6425781,27.9257812 17.8476562,27.7382812 18.0527344,27.5390625 C18.3105469,27.7910156 18.5800781,28.03125 18.8496094,28.265625 C21.3574219,30.421875 23.8359375,31.2949219 25.3652344,30.4101562 C26.9472656,29.4960937 27.4628906,26.7246094 26.7949219,23.3496094 C26.7421875,23.0917969 26.6835937,22.828125 26.6191406,22.5585937 C26.8066406,22.5058594 26.9882812,22.4472656 27.1699219,22.3886719 C30.5507812,21.2695312 33,19.4589844 33,17.6015625 C33,15.8261719 30.6914062,14.1035156 27.5039062,13.0078125 Z M19.5761719,8.03320312 C21.7558594,6.13476562 23.7890625,5.390625 24.7148437,5.92382812 C25.7050781,6.4921875 26.0859375,8.7890625 25.4648437,11.8066406 C25.4238281,12.0058594 25.3828125,12.1992187 25.3300781,12.3925781 C24.0292969,12.0996094 22.7109375,11.8886719 21.3867187,11.7714844 C20.625,10.6816406 19.7929687,9.63867187 18.890625,8.66015625 C19.1191406,8.44335937 19.3417969,8.23828125 19.5761719,8.03320312 Z M11.9589844,19.1132812 C12.2285156,19.6289062 12.5039062,20.1386719 12.796875,20.6425781 C13.0957031,21.1523437 13.4003906,21.6621094 13.7226562,22.1601562 C12.8085937,22.0605469 11.9003906,21.9140625 11.0039062,21.7207031 C11.2617187,20.8769531 11.5839844,20.0039062 11.9589844,19.1132812 Z M11.9589844,16.1484375 C11.5898437,15.2753906 11.2792969,14.4199219 11.0214844,13.59375 C11.8652344,13.40625 12.7617187,13.2539062 13.6933594,13.1367187 C13.3828125,13.6230469 13.078125,14.1210937 12.7910156,14.625 C12.5039062,15.1230469 12.2226562,15.6328125 11.9589844,16.1484375 Z M12.6269531,17.6308594 C13.0136719,16.8222656 13.4355469,16.03125 13.8808594,15.2519531 C14.3261719,14.4726562 14.8066406,13.7167969 15.3105469,12.9726562 C16.1894531,12.9082031 17.0859375,12.8730469 18,12.8730469 C18.9140625,12.8730469 19.8164062,12.9082031 20.6894531,12.9726562 C21.1875,13.7109375 21.6621094,14.4667969 22.1132812,15.2402344 C22.5644531,16.0136719 22.9863281,16.8046875 23.3847656,17.6074219 C22.9921875,18.4160156 22.5703125,19.2128906 22.1191406,19.9980469 C21.6738281,20.7773437 21.1992187,21.5332031 20.7011719,22.2832031 C19.828125,22.3476562 18.9199219,22.3769531 18,22.3769531 C17.0800781,22.3769531 16.1894531,22.3476562 15.328125,22.2949219 C14.8183594,21.5507812 14.3378906,20.7890625 13.8867187,20.0097656 C13.4355469,19.2304687 13.0195312,18.4394531 12.6269531,17.6308594 Z M23.2089844,20.6308594 C23.5078125,20.1152344 23.7890625,19.59375 24.0644531,19.0664062 C24.4394531,19.9160156 24.7675781,20.7773437 25.0546875,21.6621094 C24.1464844,21.8671875 23.2265625,22.0253906 22.3007812,22.1308594 C22.6171875,21.6386719 22.9160156,21.1347656 23.2089844,20.6308594 Z M24.0527344,16.1484375 C23.7773437,15.6328125 23.4960937,15.1171875 23.203125,14.6132812 C22.9160156,14.1152344 22.6171875,13.6230469 22.3066406,13.1367187 C23.25,13.2539062 24.1523437,13.4121094 24.9960937,13.6054687 C24.7265625,14.4726562 24.4101562,15.3164062 24.0527344,16.1484375 Z M18.0117187,9.55664062 C18.6269531,10.2246094 19.2070312,10.9277344 19.7460937,11.6542969 C18.5859375,11.6015625 17.4199219,11.6015625 16.2597656,11.6542969 C16.8339844,10.8984375 17.4257812,10.1953125 18.0117187,9.55664062 Z M11.2148437,5.96484375 C12.1992187,5.390625 14.3847656,6.2109375 16.6875,8.25 C16.8339844,8.37890625 16.9804687,8.51953125 17.1328125,8.66015625 C16.2246094,9.63867187 15.3867187,10.6816406 14.6191406,11.7714844 C13.2949219,11.8886719 11.9824219,12.09375 10.6816406,12.3808594 C10.6054687,12.0820312 10.5410156,11.7773437 10.4765625,11.4726562 C9.92578125,8.63671875 10.2890625,6.49804687 11.2148437,5.96484375 Z M9.77929687,21.4101562 C9.53320312,21.3398437 9.29296875,21.2636719 9.05273437,21.1816406 C7.8046875,20.7890625 6.38671875,20.1679687 5.36132812,19.3535156 C4.76953125,18.9433594 4.37109375,18.3105469 4.25976562,17.6015625 C4.25976562,16.5292969 6.11132812,15.1582031 8.78320312,14.2265625 C9.1171875,14.109375 9.45703125,14.0039062 9.796875,13.9042969 C10.1953125,15.1757812 10.6757812,16.4238281 11.2324219,17.6308594 C10.6699219,18.8554687 10.1835937,20.1210937 9.77929687,21.4101562 Z M16.6113281,27.1523437 C15.6445312,28.0371094 14.5253906,28.7402344 13.3066406,29.2207031 C12.65625,29.53125 11.90625,29.5605469 11.2382812,29.296875 C10.3066406,28.7578125 9.91992187,26.6894531 10.4472656,23.90625 C10.5117187,23.578125 10.5820312,23.25 10.6640625,22.9277344 C11.9765625,23.2089844 13.3007812,23.4023437 14.6425781,23.5019531 C15.4160156,24.5976562 16.265625,25.6464844 17.1738281,26.6308594 C16.9863281,26.8125 16.7988281,26.9882812 16.6113281,27.1523437 Z M18.046875,25.7285156 C17.4492187,25.0839844 16.8515625,24.3691406 16.2714844,23.6015625 C16.8339844,23.625 17.4140625,23.6367187 18,23.6367187 C18.6035156,23.6367187 19.1953125,23.625 19.78125,23.5957031 C19.2421875,24.3398437 18.6621094,25.0488281 18.046875,25.7285156 Z M25.7050781,27.4863281 C25.6523437,28.2011719 25.3007812,28.8691406 24.7382812,29.3203125 C23.8066406,29.859375 21.8203125,29.15625 19.6757812,27.3164062 C19.4296875,27.1054687 19.1835937,26.8769531 18.9316406,26.6425781 C19.828125,25.6523437 20.6542969,24.6035156 21.4042969,23.5019531 C22.7460937,23.390625 24.0820312,23.1855469 25.4003906,22.8867187 C25.4589844,23.1269531 25.5117187,23.3671875 25.5585937,23.6015625 C25.8457031,24.8671875 25.8925781,26.1855469 25.7050781,27.4863281 Z M26.7714844,21.1875 C26.6074219,21.2402344 26.4433594,21.2929687 26.2734375,21.3398437 C25.8632812,20.0625 25.359375,18.8144531 24.7792969,17.6015625 C25.3417969,16.40625 25.8164062,15.1757812 26.2148437,13.9160156 C26.5195312,14.0039062 26.8125,14.0976562 27.09375,14.1914062 C29.8242187,15.1289062 31.7402344,16.5234375 31.7402344,17.5898437 C31.7402344,18.7382812 29.6953125,20.2207031 26.7714844,21.1875 Z M18,14.9414062 C19.4824219,14.9414062 20.6835937,16.1425781 20.6835937,17.625 C20.6835937,19.1074219 19.4824219,20.3085937 18,20.3085937 C16.5175781,20.3085937 15.3164062,19.1074219 15.3164062,17.625 C15.3164062,16.1425781 16.5175781,14.9414062 18,14.9414062 Z" id="Shape" fill="#00D8FF"></path>
                    <rect id="Rectangle-5" x="0" y="0" width="36" height="36"></rect>
                </g>
                <g id="lightning-logo" transform="translate(54.000000, 1.000000)">
                    <g id="Group-7" transform="translate(8.553849, 4.185632)"></g>
                    <rect id="Rectangle-4" fill-rule="nonzero" x="0" y="0" width="36" height="36"></rect>
                    <path d="M16.1502638,30.0760623 L16.2791658,29.1169436 C16.7505157,29.1802912 17.2291017,29.2122504 17.712207,29.2122504 C23.636982,29.2122504 28.4414096,24.3653287 28.4414096,18.3842981 C28.4414096,17.1105047 28.2234366,15.8669109 27.8025814,14.6942683 L28.7134381,14.3673668 C29.1717993,15.6445139 29.4091515,16.9986711 29.4091515,18.3842981 C29.4091515,24.8978994 24.173368,30.1799923 17.712207,30.1799923 C17.1860285,30.1799923 16.664379,30.1451575 16.1502638,30.0760623 Z" id="Stroke-1" fill="#D8DDE6" fill-rule="nonzero"></path>
                    <path d="M14.1644464,7.14064709 L14.4599081,8.06218211 C14.2377411,8.13341311 14.0191506,8.21150361 13.8042155,8.29644129 C9.72480738,9.90760458 6.98332217,13.887077 6.98332217,18.3841485 C6.98332217,21.9468586 8.69968866,25.2170853 11.5288419,27.2346093 L10.966962,28.0225277 C7.88535063,25.8249709 6.01558024,22.2624607 6.01558024,18.3841485 C6.01558024,13.4875327 9.00193064,9.15262001 13.4486381,7.39639178 C13.683367,7.30363201 13.9220373,7.21836809 14.1644464,7.14064709 Z" id="Stroke-3" fill="#D8DDE6" fill-rule="nonzero"></path>
                    <polygon id="Fill-5" fill="#D8DDE6" points="26.1642543 13.3812293 11.264981 32.9220486 18.3699635 14.7707569 13.5554002 14.8787125 18.1923919 3.03758614 26.5969526 3.03758614 20.8809698 13.2893067"></polygon>
                </g>
                <polygon id="+" fill="#D8DDE6" points="50 18.525 45.55 18.525 45.55 23 44.45 23 44.45 18.525 40 18.525 40 17.475 44.45 17.475 44.45 13 45.55 13 45.55 17.475 50 17.475"></polygon>
            </g>
        </g>
    </g>
</svg>