<?xml version="1.0" encoding="UTF-8"?>
<svg width="18px" height="15px" viewBox="0 0 18 15" version="1.1" xmlns="http://www.w3.org/2000/svg" xmlns:xlink="http://www.w3.org/1999/xlink">
    <!-- Generator: Sketch 56.3 (81716) - https://sketch.com -->
    <title>twitter</title>
    <desc>Created with Sketch.</desc>
    <g id="logo" stroke="none" stroke-width="1" fill="none" fill-rule="evenodd">
        <g id="twitter" fill="#FFFFFF" fill-rule="nonzero">
            <path d="M18,1.731375 C17.330625,2.025 16.617375,2.219625 15.87375,2.314125 C16.63875,1.857375 17.222625,1.139625 17.497125,0.2745 C16.783875,0.69975 15.996375,1.000125 15.157125,1.16775 C14.479875,0.446625 13.514625,0 12.461625,0 C10.418625,0 8.773875,1.65825 8.773875,3.691125 C8.773875,3.983625 8.798625,4.264875 8.859375,4.532625 C5.7915,4.383 3.076875,2.912625 1.25325,0.67275 C0.934875,1.225125 0.748125,1.857375 0.748125,2.538 C0.748125,3.816 1.40625,4.948875 2.38725,5.60475 C1.794375,5.5935 1.21275,5.421375 0.72,5.15025 C0.72,5.1615 0.72,5.176125 0.72,5.19075 C0.72,6.984 1.999125,8.4735 3.6765,8.816625 C3.376125,8.89875 3.04875,8.938125 2.709,8.938125 C2.47275,8.938125 2.23425,8.924625 2.010375,8.875125 C2.4885,10.3365 3.84525,11.410875 5.4585,11.44575 C4.203,12.427875 2.608875,13.019625 0.883125,13.019625 C0.5805,13.019625 0.29025,13.006125 -5.68434189e-14,12.969 C1.634625,14.023125 3.571875,14.625 5.661,14.625 C12.4515,14.625 16.164,9 16.164,4.12425 C16.164,3.961125 16.158375,3.803625 16.1505,3.64725 C16.882875,3.1275 17.49825,2.478375 18,1.731375 Z" id="Path"></path>
        </g>
    </g>
</svg>